<?xml version="1.0"?>
<svg version="1.1" id="topsvg"
xmlns="http://www.w3.org/2000/svg" xmlns:xlink="http://www.w3.org/1999/xlink"
xmlns:cml="http://www.xml-cml.org/schema" x="0" y="0" width="200px" height="200px" viewBox="0 0 100 100">
<title>ZINC19632933 - Open Babel Depiction</title>
<rect x="0" y="0" width="100" height="100" fill="white"/>
<g transform="translate(0,0)">
<svg width="100" height="100" x="0" y="0" viewBox="0 0 555.077 432.653"
font-family="sans-serif" stroke="rgb(0,0,0)" stroke-width="2"  stroke-linecap="round">
<line x1="447.2" y1="353.5" x2="447.2" y2="379.7" stroke="rgb(0,0,0)"  stroke-width="2.0"/>
<line x1="481.1" y1="333.9" x2="503.8" y2="347.0" stroke="rgb(0,0,0)"  stroke-width="2.0"/>
<line x1="481.1" y1="294.7" x2="503.8" y2="281.6" stroke="rgb(0,0,0)"  stroke-width="2.0"/>
<line x1="413.3" y1="294.7" x2="390.6" y2="281.6" stroke="rgb(0,0,0)"  stroke-width="2.0"/>
<line x1="413.3" y1="333.9" x2="390.6" y2="347.0" stroke="rgb(0,0,0)"  stroke-width="2.0"/>
<line x1="379.3" y1="235.9" x2="405.5" y2="235.9" stroke="rgb(0,0,0)"  stroke-width="2.0"/>
<line x1="379.3" y1="235.9" x2="392.4" y2="213.2" stroke="rgb(0,0,0)"  stroke-width="2.0"/>
<line x1="345.4" y1="216.3" x2="358.5" y2="193.7" stroke="rgb(0,0,0)"  stroke-width="2.0"/>
<line x1="345.4" y1="216.3" x2="332.3" y2="193.7" stroke="rgb(0,0,0)"  stroke-width="2.0"/>
<line x1="300.2" y1="229.4" x2="243.6" y2="196.7" stroke="rgb(0,0,0)"  stroke-width="2.0"/>
<line x1="311.5" y1="275.1" x2="285.3" y2="275.1" stroke="rgb(0,0,0)"  stroke-width="2.0"/>
<line x1="311.5" y1="275.1" x2="298.4" y2="297.8" stroke="rgb(0,0,0)"  stroke-width="2.0"/>
<line x1="345.4" y1="294.7" x2="332.3" y2="317.4" stroke="rgb(0,0,0)"  stroke-width="2.0"/>
<line x1="345.4" y1="294.7" x2="358.5" y2="317.4" stroke="rgb(0,0,0)"  stroke-width="2.0"/>
<line x1="243.6" y1="196.7" x2="243.6" y2="157.6" stroke="rgb(0,0,0)"  stroke-width="2.0"/>
<line x1="243.6" y1="196.7" x2="217.4" y2="196.7" stroke="rgb(0,0,0)"  stroke-width="2.0"/>
<line x1="243.6" y1="196.7" x2="230.5" y2="219.4" stroke="rgb(0,0,0)"  stroke-width="2.0"/>
<line x1="243.6" y1="157.6" x2="209.7" y2="138.0" stroke="rgb(0,0,0)"  stroke-width="2.0"/>
<line x1="243.6" y1="157.6" x2="256.7" y2="134.9" stroke="rgb(0,0,0)"  stroke-width="2.0"/>
<line x1="243.6" y1="157.6" x2="269.8" y2="157.6" stroke="rgb(0,0,0)"  stroke-width="2.0"/>
<line x1="209.7" y1="138.0" x2="175.7" y2="157.6" stroke="rgb(0,0,0)"  stroke-width="2.0"/>
<line x1="209.7" y1="138.0" x2="196.6" y2="115.3" stroke="rgb(0,0,0)"  stroke-width="2.0"/>
<line x1="209.7" y1="138.0" x2="222.8" y2="115.3" stroke="rgb(0,0,0)"  stroke-width="2.0"/>
<line x1="178.7" y1="157.6" x2="178.7" y2="183.7" stroke="rgb(0,0,0)"  stroke-width="2.0"/>
<line x1="172.7" y1="157.6" x2="172.7" y2="183.7" stroke="rgb(0,0,0)"  stroke-width="2.0"/>
<line x1="175.7" y1="157.6" x2="141.8" y2="138.0" stroke="rgb(0,0,0)"  stroke-width="2.0"/>
<line x1="107.9" y1="157.6" x2="107.9" y2="183.7" stroke="rgb(0,0,0)"  stroke-width="2.0"/>
<line x1="73.9" y1="138.0" x2="51.3" y2="151.1" stroke="rgb(0,0,0)"  stroke-width="2.0"/>
<line x1="73.9" y1="98.8" x2="51.3" y2="85.7" stroke="rgb(0,0,0)"  stroke-width="2.0"/>
<line x1="107.9" y1="79.2" x2="107.9" y2="53.0" stroke="rgb(0,0,0)"  stroke-width="2.0"/>
<line x1="141.8" y1="98.8" x2="164.5" y2="85.7" stroke="rgb(0,0,0)"  stroke-width="2.0"/>
<line x1="481.1" y1="294.7" x2="458.5" y2="281.6" stroke="rgb(0,0,0)"  stroke-width="2.0"/>
<line x1="436.0" y1="281.6" x2="413.3" y2="294.7" stroke="rgb(0,0,0)"  stroke-width="2.0"/>
<line x1="437.8" y1="288.8" x2="422.1" y2="297.9" stroke="rgb(0,0,0)"  stroke-width="2.0"/>
<line x1="413.3" y1="294.7" x2="413.3" y2="333.9" stroke="rgb(0,0,0)"  stroke-width="2.0"/>
<line x1="413.3" y1="333.9" x2="447.2" y2="353.5" stroke="rgb(0,0,0)"  stroke-width="2.0"/>
<line x1="422.1" y1="330.6" x2="445.6" y2="344.2" stroke="rgb(0,0,0)"  stroke-width="2.0"/>
<line x1="447.2" y1="353.5" x2="481.1" y2="333.9" stroke="rgb(0,0,0)"  stroke-width="2.0"/>
<line x1="481.1" y1="333.9" x2="481.1" y2="294.7" stroke="rgb(0,0,0)"  stroke-width="2.0"/>
<line x1="473.9" y1="327.9" x2="473.9" y2="300.7" stroke="rgb(0,0,0)"  stroke-width="2.0"/>
<line x1="73.9" y1="138.0" x2="73.9" y2="98.8" stroke="rgb(0,0,0)"  stroke-width="2.0"/>
<line x1="73.9" y1="98.8" x2="107.9" y2="79.2" stroke="rgb(0,0,0)"  stroke-width="2.0"/>
<line x1="82.7" y1="102.0" x2="106.3" y2="88.4" stroke="rgb(0,0,0)"  stroke-width="2.0"/>
<line x1="107.9" y1="79.2" x2="141.8" y2="98.8" stroke="rgb(0,0,0)"  stroke-width="2.0"/>
<line x1="141.8" y1="98.8" x2="141.8" y2="138.0" stroke="rgb(0,0,0)"  stroke-width="2.0"/>
<line x1="134.6" y1="104.8" x2="134.6" y2="132.0" stroke="rgb(0,0,0)"  stroke-width="2.0"/>
<line x1="141.8" y1="138.0" x2="107.9" y2="157.6" stroke="rgb(0,0,0)"  stroke-width="2.0"/>
<line x1="107.9" y1="157.6" x2="73.9" y2="138.0" stroke="rgb(0,0,0)"  stroke-width="2.0"/>
<line x1="106.3" y1="148.3" x2="82.7" y2="134.7" stroke="rgb(0,0,0)"  stroke-width="2.0"/>
<line x1="345.4" y1="216.3" x2="322.7" y2="229.4" stroke="rgb(0,0,0)"  stroke-width="2.0"/>
<line x1="311.5" y1="248.9" x2="311.5" y2="275.1" stroke="rgb(0,0,0)"  stroke-width="2.0"/>
<line x1="311.5" y1="275.1" x2="345.4" y2="294.7" stroke="rgb(0,0,0)"  stroke-width="2.0"/>
<line x1="345.4" y1="294.7" x2="368.1" y2="281.6" stroke="rgb(0,0,0)"  stroke-width="2.0"/>
<line x1="379.3" y1="262.1" x2="379.3" y2="235.9" stroke="rgb(0,0,0)"  stroke-width="2.0"/>
<line x1="379.3" y1="235.9" x2="345.4" y2="216.3" stroke="rgb(0,0,0)"  stroke-width="2.0"/>
<text x="358.998346" y="336.627934" fill="rgb(191,191,191)"  stroke="rgb(191,191,191)" stroke-width="1" font-size="16" >H</text>
<text x="441.208680" y="400.653061" fill="rgb(191,191,191)"  stroke="rgb(191,191,191)" stroke-width="1" font-size="16" >H</text>
<text x="509.076793" y="361.469388" fill="rgb(191,191,191)"  stroke="rgb(191,191,191)" stroke-width="1" font-size="16" >H</text>
<text x="509.076793" y="283.102041" fill="rgb(191,191,191)"  stroke="rgb(191,191,191)" stroke-width="1" font-size="16" >H</text>
<text x="373.340566" y="361.469388" fill="rgb(191,191,191)"  stroke="rgb(191,191,191)" stroke-width="1" font-size="16" >H</text>
<text x="412.524240" y="243.918367" fill="rgb(191,191,191)"  stroke="rgb(191,191,191)" stroke-width="1" font-size="16" >H</text>
<text x="392.932403" y="209.984311" fill="rgb(191,191,191)"  stroke="rgb(191,191,191)" stroke-width="1" font-size="16" >H</text>
<text x="358.998346" y="190.392474" fill="rgb(191,191,191)"  stroke="rgb(191,191,191)" stroke-width="1" font-size="16" >H</text>
<text x="319.814673" y="190.392474" fill="rgb(191,191,191)"  stroke="rgb(191,191,191)" stroke-width="1" font-size="16" >H</text>
<text x="266.288780" y="283.102041" fill="rgb(191,191,191)"  stroke="rgb(191,191,191)" stroke-width="1" font-size="16" >H</text>
<text x="285.880616" y="317.036097" fill="rgb(191,191,191)"  stroke="rgb(191,191,191)" stroke-width="1" font-size="16" >H</text>
<text x="319.814673" y="336.627934" fill="rgb(191,191,191)"  stroke="rgb(191,191,191)" stroke-width="1" font-size="16" >H</text>
<text x="34.000000" y="87.183673" fill="rgb(127,178,255)"  stroke="rgb(127,178,255)" stroke-width="1" font-size="16" >F</text>
<text x="198.420666" y="204.734694" fill="rgb(191,191,191)"  stroke="rgb(191,191,191)" stroke-width="1" font-size="16" >H</text>
<text x="218.012503" y="238.668751" fill="rgb(191,191,191)"  stroke="rgb(191,191,191)" stroke-width="1" font-size="16" >H</text>
<text x="257.196177" y="131.616964" fill="rgb(191,191,191)"  stroke="rgb(191,191,191)" stroke-width="1" font-size="16" >H</text>
<text x="276.788013" y="165.551020" fill="rgb(191,191,191)"  stroke="rgb(191,191,191)" stroke-width="1" font-size="16" >H</text>
<text x="184.078446" y="112.025127" fill="rgb(191,191,191)"  stroke="rgb(191,191,191)" stroke-width="1" font-size="16" >H</text>
<text x="223.262120" y="112.025127" fill="rgb(191,191,191)"  stroke="rgb(191,191,191)" stroke-width="1" font-size="16" >H</text>
<text x="101.868113" y="204.734694" fill="rgb(191,191,191)"  stroke="rgb(191,191,191)" stroke-width="1" font-size="16" >H</text>
<text x="34.000000" y="165.551020" fill="rgb(191,191,191)"  stroke="rgb(191,191,191)" stroke-width="1" font-size="16" >H</text>
<text x="101.868113" y="48.000000" fill="rgb(191,191,191)"  stroke="rgb(191,191,191)" stroke-width="1" font-size="16" >H</text>
<text x="169.736227" y="87.183673" fill="rgb(191,191,191)"  stroke="rgb(191,191,191)" stroke-width="1" font-size="16" >H</text>
<text x="441.208680" y="283.102041" fill="rgb(12,12,255)"  stroke="rgb(12,12,255)" stroke-width="1" font-size="16" >N</text>
<text x="373.340566" y="283.102041" fill="rgb(12,12,255)"  stroke="rgb(12,12,255)" stroke-width="1" font-size="16" >N</text>
<text x="305.472453" y="243.918367" fill="rgb(12,12,255)"  stroke="rgb(12,12,255)" stroke-width="1" font-size="16" >N</text>
<text x="169.736227" y="204.734694" fill="rgb(255,12,12)"  stroke="rgb(255,12,12)" stroke-width="1" font-size="16" >O</text>
</svg>
</g>
<text font-size="18.000000" fill ="black" font-family="sans-serif"
x="10.000000" y="20.000000" >ZINC19632933</text>
</svg>
