<?xml version="1.0"?>
<svg version="1.1" id="topsvg"
xmlns="http://www.w3.org/2000/svg" xmlns:xlink="http://www.w3.org/1999/xlink"
xmlns:cml="http://www.xml-cml.org/schema" x="0" y="0" width="200px" height="200px" viewBox="0 0 100 100">
<title>ZINC66323528 - Open Babel Depiction</title>
<rect x="0" y="0" width="100" height="100" fill="white"/>
<g transform="translate(0,0)">
<svg width="100" height="100" x="0" y="0" viewBox="0 0 329.363 251.915"
font-family="sans-serif" stroke="rgb(0,0,0)" stroke-width="2"  stroke-linecap="round">
<line x1="159.6" y1="78.6" x2="149.3" y2="117.3" stroke="rgb(0,0,0)"  stroke-width="2.0"/>
<line x1="159.6" y1="78.6" x2="152.6" y2="52.6" stroke="rgb(0,0,0)"  stroke-width="2.0"/>
<line x1="159.6" y1="78.6" x2="133.6" y2="71.6" stroke="rgb(0,0,0)"  stroke-width="2.0"/>
<line x1="159.6" y1="78.6" x2="185.7" y2="71.6" stroke="rgb(0,0,0)"  stroke-width="2.0"/>
<line x1="156.1" y1="121.5" x2="155.1" y2="122.8" stroke="rgb(0,0,0)"  stroke-width="1.0"/>
<line x1="161.6" y1="124.9" x2="159.8" y2="127.2" stroke="rgb(0,0,0)"  stroke-width="1.0"/>
<line x1="167.1" y1="128.3" x2="164.5" y2="131.6" stroke="rgb(0,0,0)"  stroke-width="1.0"/>
<line x1="172.5" y1="131.7" x2="169.2" y2="136.0" stroke="rgb(0,0,0)"  stroke-width="1.0"/>
<line x1="178.0" y1="135.1" x2="173.9" y2="140.4" stroke="rgb(0,0,0)"  stroke-width="1.0"/>
<line x1="183.5" y1="138.5" x2="178.6" y2="144.8" stroke="rgb(0,0,0)"  stroke-width="1.0"/>
<line x1="114.6" y1="97.3" x2="128.1" y2="73.9" stroke="rgb(0,0,0)"  stroke-width="2.0"/>
<line x1="114.6" y1="97.3" x2="101.1" y2="73.9" stroke="rgb(0,0,0)"  stroke-width="2.0"/>
<line x1="80.0" y1="117.3" x2="66.5" y2="93.9" stroke="rgb(0,0,0)"  stroke-width="2.0"/>
<line x1="80.0" y1="117.3" x2="53.0" y2="117.3" stroke="rgb(0,0,0)"  stroke-width="2.0"/>
<line x1="80.0" y1="157.3" x2="53.0" y2="157.3" stroke="rgb(0,0,0)"  stroke-width="2.0"/>
<line x1="80.0" y1="157.3" x2="66.5" y2="180.7" stroke="rgb(0,0,0)"  stroke-width="2.0"/>
<line x1="114.6" y1="177.3" x2="101.1" y2="200.7" stroke="rgb(0,0,0)"  stroke-width="2.0"/>
<line x1="114.6" y1="177.3" x2="128.1" y2="200.7" stroke="rgb(0,0,0)"  stroke-width="2.0"/>
<line x1="155.8" y1="168.5" x2="162.8" y2="180.7" stroke="rgb(0,0,0)"  stroke-width="2.0"/>
<line x1="162.3" y1="157.3" x2="176.3" y2="157.3" stroke="rgb(0,0,0)"  stroke-width="2.0"/>
<line x1="184.0" y1="142.0" x2="180.5" y2="168.8" stroke="rgb(0,0,0)"  stroke-width="2.0"/>
<line x1="178.0" y1="141.2" x2="174.5" y2="168.0" stroke="rgb(0,0,0)"  stroke-width="2.0"/>
<line x1="181.0" y1="141.6" x2="206.0" y2="131.3" stroke="rgb(0,0,0)"  stroke-width="2.0"/>
<line x1="228.3" y1="134.2" x2="249.7" y2="150.7" stroke="rgb(0,0,0)"  stroke-width="2.0"/>
<line x1="249.7" y1="150.7" x2="276.5" y2="154.2" stroke="rgb(0,0,0)"  stroke-width="2.0"/>
<line x1="249.7" y1="150.7" x2="266.1" y2="129.2" stroke="rgb(0,0,0)"  stroke-width="2.0"/>
<line x1="249.7" y1="150.7" x2="246.2" y2="177.4" stroke="rgb(0,0,0)"  stroke-width="2.0"/>
<line x1="80.0" y1="117.3" x2="80.0" y2="157.3" stroke="rgb(0,0,0)"  stroke-width="2.0"/>
<line x1="80.0" y1="157.3" x2="114.6" y2="177.3" stroke="rgb(0,0,0)"  stroke-width="2.0"/>
<line x1="114.6" y1="177.3" x2="138.0" y2="163.8" stroke="rgb(0,0,0)"  stroke-width="2.0"/>
<line x1="149.3" y1="144.3" x2="149.3" y2="117.3" stroke="rgb(0,0,0)"  stroke-width="2.0"/>
<line x1="149.3" y1="117.3" x2="114.6" y2="97.3" stroke="rgb(0,0,0)"  stroke-width="2.0"/>
<line x1="114.6" y1="97.3" x2="80.0" y2="117.3" stroke="rgb(0,0,0)"  stroke-width="2.0"/>
<text x="192.271827" y="76.284271" fill="rgb(191,191,191)"  stroke="rgb(191,191,191)" stroke-width="1" font-size="16" >H</text>
<text x="183.282032" y="165.274066" fill="rgb(191,191,191)"  stroke="rgb(191,191,191)" stroke-width="1" font-size="16" >H</text>
<text x="238.484433" y="198.325438" fill="rgb(191,191,191)"  stroke="rgb(191,191,191)" stroke-width="1" font-size="16" >H</text>
<text x="268.055938" y="126.933510" fill="rgb(191,191,191)"  stroke="rgb(191,191,191)" stroke-width="1" font-size="16" >H</text>
<text x="283.363275" y="163.888691" fill="rgb(191,191,191)"  stroke="rgb(191,191,191)" stroke-width="1" font-size="16" >H</text>
<text x="163.282032" y="199.915082" fill="rgb(191,191,191)"  stroke="rgb(191,191,191)" stroke-width="1" font-size="16" >H</text>
<text x="128.641016" y="219.915082" fill="rgb(191,191,191)"  stroke="rgb(191,191,191)" stroke-width="1" font-size="16" >H</text>
<text x="88.641016" y="219.915082" fill="rgb(191,191,191)"  stroke="rgb(191,191,191)" stroke-width="1" font-size="16" >H</text>
<text x="54.000000" y="199.915082" fill="rgb(191,191,191)"  stroke="rgb(191,191,191)" stroke-width="1" font-size="16" >H</text>
<text x="34.000000" y="165.274066" fill="rgb(191,191,191)"  stroke="rgb(191,191,191)" stroke-width="1" font-size="16" >H</text>
<text x="34.000000" y="125.274066" fill="rgb(191,191,191)"  stroke="rgb(191,191,191)" stroke-width="1" font-size="16" >H</text>
<text x="54.000000" y="90.633050" fill="rgb(191,191,191)"  stroke="rgb(191,191,191)" stroke-width="1" font-size="16" >H</text>
<text x="88.641016" y="70.633050" fill="rgb(191,191,191)"  stroke="rgb(191,191,191)" stroke-width="1" font-size="16" >H</text>
<text x="128.641016" y="70.633050" fill="rgb(191,191,191)"  stroke="rgb(191,191,191)" stroke-width="1" font-size="16" >H</text>
<text x="114.997761" y="76.284271" fill="rgb(191,191,191)"  stroke="rgb(191,191,191)" stroke-width="1" font-size="16" >H</text>
<text x="143.282032" y="48.000000" fill="rgb(191,191,191)"  stroke="rgb(191,191,191)" stroke-width="1" font-size="16" >H</text>
<text x="211.971347" y="134.317186" fill="rgb(255,12,12)"  stroke="rgb(255,12,12)" stroke-width="1" font-size="16" >O</text>
<text x="169.795118" y="189.282318" fill="rgb(255,12,12)"  stroke="rgb(255,12,12)" stroke-width="1" font-size="16" >O</text>
<text x="154.082032" y="153.242066" fill="rgb(12,12,255)"  stroke="rgb(12,12,255)" stroke-width="1" font-size="16" >+</text>
<text x="143.282032" y="165.274066" fill="rgb(12,12,255)"  stroke="rgb(12,12,255)" stroke-width="1" font-size="16" >N</text>
</svg>
</g>
<text font-size="18.000000" fill ="black" font-family="sans-serif"
x="10.000000" y="20.000000" >ZINC66323528</text>
</svg>
