<?xml version="1.0"?>
<svg version="1.1" id="topsvg"
xmlns="http://www.w3.org/2000/svg" xmlns:xlink="http://www.w3.org/1999/xlink"
xmlns:cml="http://www.xml-cml.org/schema" x="0" y="0" width="200px" height="200px" viewBox="0 0 100 100">
<title>ZINC22028379 - Open Babel Depiction</title>
<rect x="0" y="0" width="100" height="100" fill="white"/>
<g transform="translate(0,0)">
<svg width="100" height="100" x="0" y="0" viewBox="0 0 280.183 271.304"
font-family="sans-serif" stroke="rgb(0,0,0)" stroke-width="2"  stroke-linecap="round">
<line x1="78.3" y1="135.7" x2="111.4" y2="154.8" stroke="rgb(0,0,0)"  stroke-width="2.0"/>
<line x1="78.3" y1="135.7" x2="78.3" y2="97.4" stroke="rgb(0,0,0)"  stroke-width="2.0"/>
<line x1="78.3" y1="135.7" x2="53.0" y2="135.7" stroke="rgb(0,0,0)"  stroke-width="2.0"/>
<line x1="78.3" y1="135.7" x2="65.6" y2="157.5" stroke="rgb(0,0,0)"  stroke-width="2.0"/>
<line x1="111.4" y1="154.8" x2="111.4" y2="180.0" stroke="rgb(0,0,0)"  stroke-width="2.0"/>
<line x1="111.4" y1="154.8" x2="136.7" y2="154.8" stroke="rgb(0,0,0)"  stroke-width="2.0"/>
<line x1="111.4" y1="154.8" x2="124.0" y2="132.9" stroke="rgb(0,0,0)"  stroke-width="2.0"/>
<line x1="124.4" y1="193.0" x2="187.9" y2="193.0" stroke="rgb(0,0,0)"  stroke-width="2.0"/>
<line x1="111.4" y1="206.0" x2="111.4" y2="218.3" stroke="rgb(0,0,0)"  stroke-width="2.0"/>
<line x1="98.4" y1="193.0" x2="86.1" y2="193.0" stroke="rgb(0,0,0)"  stroke-width="2.0"/>
<line x1="187.9" y1="193.0" x2="207.0" y2="159.9" stroke="rgb(0,0,0)"  stroke-width="2.0"/>
<line x1="187.9" y1="193.0" x2="209.8" y2="205.7" stroke="rgb(0,0,0)"  stroke-width="2.0"/>
<line x1="187.9" y1="193.0" x2="187.9" y2="218.3" stroke="rgb(0,0,0)"  stroke-width="2.0"/>
<line x1="207.0" y1="159.9" x2="194.4" y2="138.0" stroke="rgb(0,0,0)"  stroke-width="2.0"/>
<line x1="207.0" y1="159.9" x2="228.9" y2="147.3" stroke="rgb(0,0,0)"  stroke-width="2.0"/>
<line x1="207.0" y1="159.9" x2="228.9" y2="172.5" stroke="rgb(0,0,0)"  stroke-width="2.0"/>
<line x1="174.9" y1="126.8" x2="162.7" y2="126.8" stroke="rgb(0,0,0)"  stroke-width="2.0"/>
<line x1="194.4" y1="115.5" x2="200.5" y2="104.9" stroke="rgb(0,0,0)"  stroke-width="2.0"/>
<line x1="78.3" y1="97.4" x2="56.4" y2="84.8" stroke="rgb(0,0,0)"  stroke-width="2.0"/>
<line x1="78.3" y1="97.4" x2="90.9" y2="75.5" stroke="rgb(0,0,0)"  stroke-width="2.0"/>
<line x1="78.3" y1="97.4" x2="103.5" y2="97.4" stroke="rgb(0,0,0)"  stroke-width="2.0"/>
<line x1="45.1" y1="65.3" x2="45.1" y2="53.0" stroke="rgb(0,0,0)"  stroke-width="2.0"/>
<text x="124.526189" y="129.647724" fill="rgb(191,191,191)"  stroke="rgb(191,191,191)" stroke-width="1" font-size="16" >H</text>
<text x="201.047928" y="101.638823" fill="rgb(191,191,191)"  stroke="rgb(191,191,191)" stroke-width="1" font-size="16" >H</text>
<text x="67.134885" y="201.043478" fill="rgb(191,191,191)"  stroke="rgb(191,191,191)" stroke-width="1" font-size="16" >H</text>
<text x="39.125985" y="48.000000" fill="rgb(191,191,191)"  stroke="rgb(191,191,191)" stroke-width="1" font-size="16" >H</text>
<text x="110.521739" y="105.391304" fill="rgb(191,191,191)"  stroke="rgb(191,191,191)" stroke-width="1" font-size="16" >H</text>
<text x="91.391304" y="72.256419" fill="rgb(191,191,191)"  stroke="rgb(191,191,191)" stroke-width="1" font-size="16" >H</text>
<text x="143.656624" y="134.773708" fill="rgb(191,191,191)"  stroke="rgb(191,191,191)" stroke-width="1" font-size="16" >H</text>
<text x="234.182814" y="187.039028" fill="rgb(191,191,191)"  stroke="rgb(191,191,191)" stroke-width="1" font-size="16" >H</text>
<text x="234.182814" y="148.778158" fill="rgb(191,191,191)"  stroke="rgb(191,191,191)" stroke-width="1" font-size="16" >H</text>
<text x="181.917494" y="239.304348" fill="rgb(191,191,191)"  stroke="rgb(191,191,191)" stroke-width="1" font-size="16" >H</text>
<text x="215.052379" y="220.173913" fill="rgb(191,191,191)"  stroke="rgb(191,191,191)" stroke-width="1" font-size="16" >H</text>
<text x="105.395755" y="239.304348" fill="rgb(191,191,191)"  stroke="rgb(191,191,191)" stroke-width="1" font-size="16" >H</text>
<text x="143.656624" y="162.782609" fill="rgb(191,191,191)"  stroke="rgb(191,191,191)" stroke-width="1" font-size="16" >H</text>
<text x="53.130435" y="176.787059" fill="rgb(191,191,191)"  stroke="rgb(191,191,191)" stroke-width="1" font-size="16" >H</text>
<text x="34.000000" y="143.652174" fill="rgb(191,191,191)"  stroke="rgb(191,191,191)" stroke-width="1" font-size="16" >H</text>
<text x="39.125985" y="86.260870" fill="rgb(255,12,12)"  stroke="rgb(255,12,12)" stroke-width="1" font-size="16" >O</text>
<text x="181.917494" y="134.773708" fill="rgb(12,12,255)"  stroke="rgb(12,12,255)" stroke-width="1" font-size="16" >N</text>
<text x="116.195755" y="189.011478" fill="rgb(12,12,255)"  stroke="rgb(12,12,255)" stroke-width="1" font-size="16" >+</text>
<text x="105.395755" y="201.043478" fill="rgb(12,12,255)"  stroke="rgb(12,12,255)" stroke-width="1" font-size="16" >N</text>
</svg>
</g>
<text font-size="18.000000" fill ="black" font-family="sans-serif"
x="10.000000" y="20.000000" >ZINC22028379</text>
</svg>
