<?xml version="1.0"?>
<svg version="1.1" id="topsvg"
xmlns="http://www.w3.org/2000/svg" xmlns:xlink="http://www.w3.org/1999/xlink"
xmlns:cml="http://www.xml-cml.org/schema" x="0" y="0" width="200px" height="200px" viewBox="0 0 100 100">
<title>ZINC04206499 - Open Babel Depiction</title>
<rect x="0" y="0" width="100" height="100" fill="white"/>
<g transform="translate(0,0)">
<svg width="100" height="100" x="0" y="0" viewBox="0 0 317.921 324.42"
font-family="sans-serif" stroke="rgb(0,0,0)" stroke-width="2"  stroke-linecap="round">
<line x1="238.1" y1="79.8" x2="221.9" y2="116.3" stroke="rgb(0,0,0)"  stroke-width="2.0"/>
<line x1="238.1" y1="79.8" x2="235.3" y2="52.9" stroke="rgb(0,0,0)"  stroke-width="2.0"/>
<line x1="238.1" y1="79.8" x2="213.5" y2="68.8" stroke="rgb(0,0,0)"  stroke-width="2.0"/>
<line x1="238.1" y1="79.8" x2="265.0" y2="77.0" stroke="rgb(0,0,0)"  stroke-width="2.0"/>
<line x1="173.1" y1="115.9" x2="162.7" y2="106.6" stroke="rgb(0,0,0)"  stroke-width="2.0"/>
<line x1="180.1" y1="167.0" x2="145.4" y2="187.0" stroke="rgb(0,0,0)"  stroke-width="2.0"/>
<line x1="177.1" y1="161.8" x2="142.4" y2="181.8" stroke="rgb(0,0,0)"  stroke-width="2.0"/>
<line x1="109.3" y1="164.4" x2="109.3" y2="137.4" stroke="rgb(0,0,0)"  stroke-width="2.0"/>
<line x1="74.6" y1="184.4" x2="51.3" y2="170.9" stroke="rgb(0,0,0)"  stroke-width="2.0"/>
<line x1="76.1" y1="227.0" x2="52.8" y2="240.5" stroke="rgb(0,0,0)"  stroke-width="2.0"/>
<line x1="73.1" y1="221.8" x2="49.8" y2="235.3" stroke="rgb(0,0,0)"  stroke-width="2.0"/>
<line x1="109.3" y1="244.4" x2="109.3" y2="271.4" stroke="rgb(0,0,0)"  stroke-width="2.0"/>
<line x1="143.9" y1="224.4" x2="167.3" y2="237.9" stroke="rgb(0,0,0)"  stroke-width="2.0"/>
<line x1="217.8" y1="193.4" x2="220.7" y2="207.1" stroke="rgb(0,0,0)"  stroke-width="2.0"/>
<line x1="178.6" y1="164.4" x2="203.2" y2="175.4" stroke="rgb(0,0,0)"  stroke-width="2.0"/>
<line x1="223.8" y1="171.0" x2="233.2" y2="160.6" stroke="rgb(0,0,0)"  stroke-width="2.0"/>
<line x1="235.4" y1="139.7" x2="221.9" y2="116.3" stroke="rgb(0,0,0)"  stroke-width="2.0"/>
<line x1="221.9" y1="116.3" x2="195.7" y2="121.9" stroke="rgb(0,0,0)"  stroke-width="2.0"/>
<line x1="217.5" y1="124.6" x2="199.1" y2="128.5" stroke="rgb(0,0,0)"  stroke-width="2.0"/>
<line x1="181.4" y1="137.6" x2="178.6" y2="164.4" stroke="rgb(0,0,0)"  stroke-width="2.0"/>
<line x1="74.6" y1="184.4" x2="74.6" y2="224.4" stroke="rgb(0,0,0)"  stroke-width="2.0"/>
<line x1="74.6" y1="224.4" x2="109.3" y2="244.4" stroke="rgb(0,0,0)"  stroke-width="2.0"/>
<line x1="109.3" y1="244.4" x2="143.9" y2="224.4" stroke="rgb(0,0,0)"  stroke-width="2.0"/>
<line x1="110.9" y1="235.2" x2="135.1" y2="221.2" stroke="rgb(0,0,0)"  stroke-width="2.0"/>
<line x1="143.9" y1="224.4" x2="143.9" y2="184.4" stroke="rgb(0,0,0)"  stroke-width="2.0"/>
<line x1="143.9" y1="184.4" x2="109.3" y2="164.4" stroke="rgb(0,0,0)"  stroke-width="2.0"/>
<line x1="109.3" y1="164.4" x2="74.6" y2="184.4" stroke="rgb(0,0,0)"  stroke-width="2.0"/>
<line x1="107.7" y1="173.7" x2="83.4" y2="187.7" stroke="rgb(0,0,0)"  stroke-width="2.0"/>
<text x="209.105883" y="188.689503" fill="rgb(12,12,255)"  stroke="rgb(12,12,255)" stroke-width="1" font-size="16" >N</text>
<text x="147.019410" y="105.873937" fill="rgb(191,191,191)"  stroke="rgb(191,191,191)" stroke-width="1" font-size="16" >H</text>
<text x="217.422351" y="227.815407" fill="rgb(191,191,191)"  stroke="rgb(191,191,191)" stroke-width="1" font-size="16" >H</text>
<text x="172.564065" y="252.420038" fill="rgb(191,191,191)"  stroke="rgb(191,191,191)" stroke-width="1" font-size="16" >H</text>
<text x="103.282032" y="292.420038" fill="rgb(191,191,191)"  stroke="rgb(191,191,191)" stroke-width="1" font-size="16" >H</text>
<text x="34.000000" y="172.420038" fill="rgb(191,191,191)"  stroke="rgb(191,191,191)" stroke-width="1" font-size="16" >H</text>
<text x="103.282032" y="132.420038" fill="rgb(191,191,191)"  stroke="rgb(191,191,191)" stroke-width="1" font-size="16" >H</text>
<text x="271.921449" y="83.599737" fill="rgb(191,191,191)"  stroke="rgb(191,191,191)" stroke-width="1" font-size="16" >H</text>
<text x="195.598755" y="71.511410" fill="rgb(191,191,191)"  stroke="rgb(191,191,191)" stroke-width="1" font-size="16" >H</text>
<text x="227.959434" y="48.000000" fill="rgb(191,191,191)"  stroke="rgb(191,191,191)" stroke-width="1" font-size="16" >H</text>
<text x="235.871107" y="158.963710" fill="rgb(255,12,12)"  stroke="rgb(255,12,12)" stroke-width="1" font-size="16" >O</text>
<text x="34.000000" y="252.420038" fill="rgb(255,12,12)"  stroke="rgb(255,12,12)" stroke-width="1" font-size="16" >O</text>
<text x="176.745203" y="132.639162" fill="rgb(12,12,255)"  stroke="rgb(12,12,255)" stroke-width="1" font-size="16" >N</text>
</svg>
</g>
<text font-size="18.000000" fill ="black" font-family="sans-serif"
x="10.000000" y="20.000000" >ZINC04206499</text>
</svg>
