<?xml version="1.0"?>
<svg version="1.1" id="topsvg"
xmlns="http://www.w3.org/2000/svg" xmlns:xlink="http://www.w3.org/1999/xlink"
xmlns:cml="http://www.xml-cml.org/schema" x="0" y="0" width="200px" height="200px" viewBox="0 0 100 100">
<title>ZINC18037976 - Open Babel Depiction</title>
<rect x="0" y="0" width="100" height="100" fill="white"/>
<g transform="translate(0,0)">
<svg width="100" height="100" x="0" y="0" viewBox="0 0 235.693 298.287"
font-family="sans-serif" stroke="rgb(0,0,0)" stroke-width="2"  stroke-linecap="round">
<line x1="84.9" y1="232.4" x2="75.4" y2="196.9" stroke="rgb(0,0,0)"  stroke-width="2.0"/>
<line x1="84.9" y1="232.4" x2="101.6" y2="249.1" stroke="rgb(0,0,0)"  stroke-width="2.0"/>
<line x1="84.9" y1="232.4" x2="107.8" y2="226.2" stroke="rgb(0,0,0)"  stroke-width="2.0"/>
<line x1="84.9" y1="232.4" x2="68.2" y2="249.1" stroke="rgb(0,0,0)"  stroke-width="2.0"/>
<line x1="75.4" y1="196.9" x2="127.3" y2="145.1" stroke="rgb(0,0,0)"  stroke-width="2.0"/>
<line x1="74.6" y1="199.8" x2="51.8" y2="193.7" stroke="rgb(0,0,0)"  stroke-width="2.0"/>
<line x1="76.2" y1="194.0" x2="53.3" y2="187.9" stroke="rgb(0,0,0)"  stroke-width="2.0"/>
<polygon points="127.271778 145.087598 151.499152 150.793336 148.437684 158.184373 " stroke-width="2.000000" fill="rgb(0,0,0)"  stroke="rgb(0,0,0)" />
<line x1="159.0" y1="126.8" x2="182.7" y2="126.8" stroke="rgb(0,0,0)"  stroke-width="2.0"/>
<line x1="159.0" y1="126.8" x2="189.2" y2="179.0" stroke="rgb(0,0,0)"  stroke-width="2.0"/>
<line x1="159.0" y1="90.1" x2="170.9" y2="69.6" stroke="rgb(0,0,0)"  stroke-width="2.0"/>
<line x1="159.0" y1="90.1" x2="182.7" y2="90.1" stroke="rgb(0,0,0)"  stroke-width="2.0"/>
<line x1="127.3" y1="71.8" x2="115.4" y2="51.3" stroke="rgb(0,0,0)"  stroke-width="2.0"/>
<line x1="127.3" y1="71.8" x2="139.1" y2="51.3" stroke="rgb(0,0,0)"  stroke-width="2.0"/>
<line x1="95.5" y1="90.1" x2="71.9" y2="90.1" stroke="rgb(0,0,0)"  stroke-width="2.0"/>
<line x1="95.5" y1="90.1" x2="83.7" y2="69.6" stroke="rgb(0,0,0)"  stroke-width="2.0"/>
<line x1="97.0" y1="129.4" x2="76.5" y2="141.2" stroke="rgb(0,0,0)"  stroke-width="2.0"/>
<line x1="94.0" y1="124.2" x2="73.5" y2="136.0" stroke="rgb(0,0,0)"  stroke-width="2.0"/>
<line x1="159.0" y1="126.8" x2="127.3" y2="145.1" stroke="rgb(0,0,0)"  stroke-width="2.0"/>
<line x1="127.3" y1="145.1" x2="95.5" y2="126.8" stroke="rgb(0,0,0)"  stroke-width="2.0"/>
<line x1="95.5" y1="126.8" x2="95.5" y2="90.1" stroke="rgb(0,0,0)"  stroke-width="2.0"/>
<line x1="95.5" y1="90.1" x2="127.3" y2="71.8" stroke="rgb(0,0,0)"  stroke-width="2.0"/>
<line x1="127.3" y1="71.8" x2="159.0" y2="90.1" stroke="rgb(0,0,0)"  stroke-width="2.0"/>
<line x1="159.0" y1="90.1" x2="159.0" y2="126.8" stroke="rgb(0,0,0)"  stroke-width="2.0"/>
<text x="114.324592" y="230.869344" fill="rgb(191,191,191)"  stroke="rgb(191,191,191)" stroke-width="1" font-size="16" >H</text>
<text x="155.147360" y="167.119324" fill="rgb(191,191,191)"  stroke="rgb(191,191,191)" stroke-width="1" font-size="16" >H</text>
<text x="71.184179" y="66.333333" fill="rgb(191,191,191)"  stroke="rgb(191,191,191)" stroke-width="1" font-size="16" >H</text>
<text x="52.850846" y="98.087598" fill="rgb(191,191,191)"  stroke="rgb(191,191,191)" stroke-width="1" font-size="16" >H</text>
<text x="139.605111" y="48.000000" fill="rgb(191,191,191)"  stroke="rgb(191,191,191)" stroke-width="1" font-size="16" >H</text>
<text x="102.938444" y="48.000000" fill="rgb(191,191,191)"  stroke="rgb(191,191,191)" stroke-width="1" font-size="16" >H</text>
<text x="189.692709" y="98.087598" fill="rgb(191,191,191)"  stroke="rgb(191,191,191)" stroke-width="1" font-size="16" >H</text>
<text x="171.359376" y="66.333333" fill="rgb(191,191,191)"  stroke="rgb(191,191,191)" stroke-width="1" font-size="16" >H</text>
<text x="189.692709" y="198.262794" fill="rgb(191,191,191)"  stroke="rgb(191,191,191)" stroke-width="1" font-size="16" >H</text>
<text x="189.692709" y="134.754265" fill="rgb(191,191,191)"  stroke="rgb(191,191,191)" stroke-width="1" font-size="16" >H</text>
<text x="52.980063" y="266.286624" fill="rgb(191,191,191)"  stroke="rgb(191,191,191)" stroke-width="1" font-size="16" >H</text>
<text x="104.834561" y="266.286624" fill="rgb(191,191,191)"  stroke="rgb(191,191,191)" stroke-width="1" font-size="16" >H</text>
<text x="34.000000" y="195.452064" fill="rgb(255,12,12)"  stroke="rgb(255,12,12)" stroke-width="1" font-size="16" >O</text>
<text x="57.763248" y="153.087598" fill="rgb(255,12,12)"  stroke="rgb(255,12,12)" stroke-width="1" font-size="16" >O</text>
</svg>
</g>
<text font-size="18.000000" fill ="black" font-family="sans-serif"
x="10.000000" y="20.000000" >ZINC18037976</text>
</svg>
