<?xml version="1.0"?>
<svg version="1.1" id="topsvg"
xmlns="http://www.w3.org/2000/svg" xmlns:xlink="http://www.w3.org/1999/xlink"
xmlns:cml="http://www.xml-cml.org/schema" x="0" y="0" width="200px" height="200px" viewBox="0 0 100 100">
<title> - Open Babel Depiction</title>
<rect x="0" y="0" width="100" height="100" fill="white"/>
<g transform="translate(0,0)">
<svg width="100" height="100" x="0" y="0" viewBox="0 0 728.072 468.034"
font-family="sans-serif" stroke="rgb(0,0,0)" stroke-width="2"  stroke-linecap="round">
<line x1="49.1" y1="333.9" x2="62.6" y2="357.3" stroke="rgb(0,0,0)"  stroke-width="2.0"/>
<line x1="43.9" y1="336.9" x2="57.4" y2="360.3" stroke="rgb(0,0,0)"  stroke-width="2.0"/>
<line x1="60.0" y1="358.8" x2="46.5" y2="382.1" stroke="rgb(0,0,0)"  stroke-width="2.0"/>
<line x1="46.5" y1="404.7" x2="60.0" y2="428.0" stroke="rgb(0,0,0)"  stroke-width="2.0"/>
<line x1="60.0" y1="428.0" x2="100.0" y2="428.0" stroke="rgb(0,0,0)"  stroke-width="2.0"/>
<line x1="100.0" y1="428.0" x2="113.5" y2="404.7" stroke="rgb(0,0,0)"  stroke-width="2.0"/>
<line x1="133.0" y1="393.4" x2="160.0" y2="393.4" stroke="rgb(0,0,0)"  stroke-width="2.0"/>
<line x1="162.6" y1="391.9" x2="176.1" y2="415.3" stroke="rgb(0,0,0)"  stroke-width="2.0"/>
<line x1="157.4" y1="394.9" x2="170.9" y2="418.3" stroke="rgb(0,0,0)"  stroke-width="2.0"/>
<line x1="160.0" y1="393.4" x2="180.0" y2="358.8" stroke="rgb(0,0,0)"  stroke-width="2.0"/>
<line x1="180.0" y1="358.8" x2="220.0" y2="358.8" stroke="rgb(0,0,0)"  stroke-width="2.0"/>
<line x1="222.6" y1="357.3" x2="236.1" y2="380.6" stroke="rgb(0,0,0)"  stroke-width="2.0"/>
<line x1="217.4" y1="360.3" x2="230.9" y2="383.6" stroke="rgb(0,0,0)"  stroke-width="2.0"/>
<line x1="220.0" y1="358.8" x2="233.5" y2="335.4" stroke="rgb(0,0,0)"  stroke-width="2.0"/>
<line x1="60.0" y1="358.8" x2="100.0" y2="358.8" stroke="rgb(0,0,0)"  stroke-width="2.0"/>
<line x1="100.0" y1="358.8" x2="120.0" y2="324.1" stroke="rgb(0,0,0)"  stroke-width="2.0"/>
<line x1="120.0" y1="324.1" x2="147.0" y2="324.1" stroke="rgb(0,0,0)"  stroke-width="2.0"/>
<line x1="166.5" y1="312.9" x2="180.0" y2="289.5" stroke="rgb(0,0,0)"  stroke-width="2.0"/>
<line x1="180.0" y1="286.5" x2="207.0" y2="286.5" stroke="rgb(0,0,0)"  stroke-width="2.0"/>
<line x1="180.0" y1="292.5" x2="207.0" y2="292.5" stroke="rgb(0,0,0)"  stroke-width="2.0"/>
<line x1="180.0" y1="289.5" x2="160.0" y2="254.8" stroke="rgb(0,0,0)"  stroke-width="2.0"/>
<polygon points="160.000000 254.829148 134.790519 244.893250 138.790519 237.965046 " stroke-width="2.000000" fill="rgb(0,0,0)"  stroke="rgb(0,0,0)" />
<line x1="160.0" y1="254.8" x2="180.0" y2="220.2" stroke="rgb(0,0,0)"  stroke-width="2.0"/>
<line x1="180.0" y1="220.2" x2="220.0" y2="220.2" stroke="rgb(0,0,0)"  stroke-width="2.0"/>
<line x1="220.0" y1="220.2" x2="233.5" y2="196.8" stroke="rgb(0,0,0)"  stroke-width="2.0"/>
<line x1="253.0" y1="185.5" x2="267.0" y2="185.5" stroke="rgb(0,0,0)"  stroke-width="2.0"/>
<line x1="280.8" y1="201.5" x2="279.2" y2="201.5" stroke="rgb(0,0,0)"  stroke-width="1.0"/>
<line x1="281.4" y1="203.6" x2="278.6" y2="203.6" stroke="rgb(0,0,0)"  stroke-width="1.0"/>
<line x1="282.1" y1="205.8" x2="277.9" y2="205.8" stroke="rgb(0,0,0)"  stroke-width="1.0"/>
<line x1="282.7" y1="208.0" x2="277.3" y2="208.0" stroke="rgb(0,0,0)"  stroke-width="1.0"/>
<line x1="283.4" y1="210.2" x2="276.6" y2="210.2" stroke="rgb(0,0,0)"  stroke-width="1.0"/>
<line x1="284.0" y1="212.3" x2="276.0" y2="212.3" stroke="rgb(0,0,0)"  stroke-width="1.0"/>
<line x1="293.0" y1="185.5" x2="307.0" y2="185.5" stroke="rgb(0,0,0)"  stroke-width="2.0"/>
<line x1="333.0" y1="185.5" x2="347.0" y2="185.5" stroke="rgb(0,0,0)"  stroke-width="2.0"/>
<line x1="360.8" y1="201.5" x2="359.2" y2="201.5" stroke="rgb(0,0,0)"  stroke-width="1.0"/>
<line x1="361.4" y1="203.6" x2="358.6" y2="203.6" stroke="rgb(0,0,0)"  stroke-width="1.0"/>
<line x1="362.1" y1="205.8" x2="357.9" y2="205.8" stroke="rgb(0,0,0)"  stroke-width="1.0"/>
<line x1="362.7" y1="208.0" x2="357.3" y2="208.0" stroke="rgb(0,0,0)"  stroke-width="1.0"/>
<line x1="363.4" y1="210.2" x2="356.6" y2="210.2" stroke="rgb(0,0,0)"  stroke-width="1.0"/>
<line x1="364.0" y1="212.3" x2="356.0" y2="212.3" stroke="rgb(0,0,0)"  stroke-width="1.0"/>
<line x1="373.0" y1="185.5" x2="387.0" y2="185.5" stroke="rgb(0,0,0)"  stroke-width="2.0"/>
<line x1="406.5" y1="174.3" x2="420.0" y2="150.9" stroke="rgb(0,0,0)"  stroke-width="2.0"/>
<line x1="420.0" y1="150.9" x2="460.0" y2="150.9" stroke="rgb(0,0,0)"  stroke-width="2.0"/>
<line x1="460.0" y1="150.9" x2="465.4" y2="177.4" stroke="rgb(0,0,0)"  stroke-width="2.0"/>
<polygon points="517.667154 121.523217 535.977384 101.548847 541.011947 107.766014 " stroke-width="2.000000" fill="rgb(0,0,0)"  stroke="rgb(0,0,0)" />
<line x1="495.6" y1="98.3" x2="494.5" y2="99.5" stroke="rgb(0,0,0)"  stroke-width="1.0"/>
<line x1="500.6" y1="102.4" x2="498.5" y2="104.4" stroke="rgb(0,0,0)"  stroke-width="1.0"/>
<line x1="505.6" y1="106.5" x2="502.6" y2="109.4" stroke="rgb(0,0,0)"  stroke-width="1.0"/>
<line x1="510.5" y1="110.5" x2="506.7" y2="114.4" stroke="rgb(0,0,0)"  stroke-width="1.0"/>
<line x1="515.5" y1="114.6" x2="510.8" y2="119.4" stroke="rgb(0,0,0)"  stroke-width="1.0"/>
<line x1="520.5" y1="118.7" x2="514.8" y2="124.4" stroke="rgb(0,0,0)"  stroke-width="1.0"/>
<line x1="489.4" y1="93.2" x2="479.7" y2="68.0" stroke="rgb(0,0,0)"  stroke-width="2.0"/>
<line x1="460.5" y1="107.1" x2="461.2" y2="108.5" stroke="rgb(0,0,0)"  stroke-width="1.0"/>
<line x1="465.9" y1="103.6" x2="467.2" y2="106.1" stroke="rgb(0,0,0)"  stroke-width="1.0"/>
<line x1="471.3" y1="100.1" x2="473.2" y2="103.8" stroke="rgb(0,0,0)"  stroke-width="1.0"/>
<line x1="476.7" y1="96.6" x2="479.2" y2="101.5" stroke="rgb(0,0,0)"  stroke-width="1.0"/>
<line x1="482.2" y1="93.2" x2="485.2" y2="99.1" stroke="rgb(0,0,0)"  stroke-width="1.0"/>
<line x1="487.6" y1="89.7" x2="491.2" y2="96.8" stroke="rgb(0,0,0)"  stroke-width="1.0"/>
<line x1="453.7" y1="111.4" x2="426.8" y2="112.8" stroke="rgb(0,0,0)"  stroke-width="2.0"/>
<polygon points="460.000000 150.906099 449.791868 112.024304 457.693375 110.772828 " stroke-width="2.000000" fill="rgb(0,0,0)"  stroke="rgb(0,0,0)" />
<line x1="453.7" y1="111.4" x2="439.0" y2="88.8" stroke="rgb(0,0,0)"  stroke-width="2.0"/>
<line x1="419.0" y1="78.5" x2="405.0" y2="79.3" stroke="rgb(0,0,0)"  stroke-width="2.0"/>
<line x1="388.3" y1="67.1" x2="387.6" y2="53.1" stroke="rgb(0,0,0)"  stroke-width="2.0"/>
<line x1="394.3" y1="66.8" x2="393.6" y2="52.8" stroke="rgb(0,0,0)"  stroke-width="2.0"/>
<line x1="379.0" y1="80.6" x2="365.0" y2="81.4" stroke="rgb(0,0,0)"  stroke-width="2.0"/>
<line x1="392.7" y1="92.9" x2="393.4" y2="106.9" stroke="rgb(0,0,0)"  stroke-width="2.0"/>
<line x1="489.4" y1="93.2" x2="506.4" y2="72.3" stroke="rgb(0,0,0)"  stroke-width="2.0"/>
<line x1="517.7" y1="121.5" x2="542.9" y2="131.2" stroke="rgb(0,0,0)"  stroke-width="2.0"/>
<line x1="657.0" y1="124.9" x2="678.0" y2="141.9" stroke="rgb(0,0,0)"  stroke-width="2.0"/>
<line x1="360.0" y1="172.5" x2="360.0" y2="158.5" stroke="rgb(0,0,0)"  stroke-width="2.0"/>
<line x1="280.0" y1="172.5" x2="280.0" y2="158.5" stroke="rgb(0,0,0)"  stroke-width="2.0"/>
<line x1="180.0" y1="220.2" x2="180.0" y2="193.2" stroke="rgb(0,0,0)"  stroke-width="2.0"/>
<line x1="180.0" y1="220.2" x2="156.6" y2="206.7" stroke="rgb(0,0,0)"  stroke-width="2.0"/>
<line x1="160.0" y1="254.8" x2="136.6" y2="268.3" stroke="rgb(0,0,0)"  stroke-width="2.0"/>
<line x1="610.0" y1="164.5" x2="619.6" y2="139.2" stroke="rgb(0,0,0)"  stroke-width="2.0"/>
<line x1="619.6" y1="139.2" x2="588.6" y2="114.1" stroke="rgb(0,0,0)"  stroke-width="2.0"/>
<line x1="610.4" y1="141.1" x2="588.7" y2="123.4" stroke="rgb(0,0,0)"  stroke-width="2.0"/>
<line x1="588.6" y1="114.1" x2="565.9" y2="128.8" stroke="rgb(0,0,0)"  stroke-width="2.0"/>
<line x1="558.4" y1="148.4" x2="565.4" y2="174.5" stroke="rgb(0,0,0)"  stroke-width="2.0"/>
<line x1="565.4" y1="174.5" x2="592.1" y2="175.9" stroke="rgb(0,0,0)"  stroke-width="2.0"/>
<line x1="571.7" y1="167.6" x2="590.5" y2="168.6" stroke="rgb(0,0,0)"  stroke-width="2.0"/>
<line x1="653.1" y1="77.2" x2="632.2" y2="60.2" stroke="rgb(0,0,0)"  stroke-width="2.0"/>
<line x1="632.2" y1="60.2" x2="607.1" y2="69.8" stroke="rgb(0,0,0)"  stroke-width="2.0"/>
<line x1="629.1" y1="69.1" x2="611.6" y2="75.8" stroke="rgb(0,0,0)"  stroke-width="2.0"/>
<line x1="592.8" y1="87.4" x2="588.6" y2="114.1" stroke="rgb(0,0,0)"  stroke-width="2.0"/>
<line x1="619.6" y1="139.2" x2="657.0" y2="124.9" stroke="rgb(0,0,0)"  stroke-width="2.0"/>
<line x1="657.0" y1="124.9" x2="661.2" y2="98.4" stroke="rgb(0,0,0)"  stroke-width="2.0"/>
<line x1="650.8" y1="117.9" x2="653.8" y2="99.3" stroke="rgb(0,0,0)"  stroke-width="2.0"/>
<line x1="517.7" y1="121.5" x2="489.4" y2="93.2" stroke="rgb(0,0,0)"  stroke-width="2.0"/>
<line x1="489.4" y1="93.2" x2="453.7" y2="111.4" stroke="rgb(0,0,0)"  stroke-width="2.0"/>
<line x1="453.7" y1="111.4" x2="460.0" y2="150.9" stroke="rgb(0,0,0)"  stroke-width="2.0"/>
<line x1="460.0" y1="150.9" x2="486.7" y2="155.1" stroke="rgb(0,0,0)"  stroke-width="2.0"/>
<line x1="505.4" y1="145.6" x2="517.7" y2="121.5" stroke="rgb(0,0,0)"  stroke-width="2.0"/>
<text x="549.010371" y="143.857935" fill="rgb(12,12,255)"  stroke="rgb(12,12,255)" stroke-width="1" font-size="16" >N</text>
<text x="461.957763" y="198.106533" fill="rgb(191,191,191)"  stroke="rgb(191,191,191)" stroke-width="1" font-size="16" >H</text>
<text x="493.507534" y="165.163478" fill="rgb(255,12,12)"  stroke="rgb(255,12,12)" stroke-width="1" font-size="16" >O</text>
<text x="542.752992" y="104.350401" fill="rgb(191,191,191)"  stroke="rgb(191,191,191)" stroke-width="1" font-size="16" >H</text>
<text x="469.048164" y="63.895729" fill="rgb(191,191,191)"  stroke="rgb(191,191,191)" stroke-width="1" font-size="16" >H</text>
<text x="407.797440" y="121.492004" fill="rgb(191,191,191)"  stroke="rgb(191,191,191)" stroke-width="1" font-size="16" >H</text>
<text x="425.957060" y="85.851743" fill="rgb(255,12,12)"  stroke="rgb(255,12,12)" stroke-width="1" font-size="16" >O</text>
<text x="386.011879" y="87.945181" fill="rgb(255,127,0)"  stroke="rgb(255,127,0)" stroke-width="1" font-size="16" >P</text>
<text x="383.918440" y="48.000000" fill="rgb(255,12,12)"  stroke="rgb(255,12,12)" stroke-width="1" font-size="16" >O</text>
<text x="334.066697" y="90.038620" fill="rgb(255,12,12)"  stroke="rgb(255,12,12)" stroke-width="1" font-size="16" >HO</text>
<text x="388.105317" y="127.890363" fill="rgb(255,12,12)"  stroke="rgb(255,12,12)" stroke-width="1" font-size="16" >OH</text>
<text x="508.555698" y="70.153107" fill="rgb(255,12,12)"  stroke="rgb(255,12,12)" stroke-width="1" font-size="16" >OH</text>
<text x="599.308314" y="184.588406" fill="rgb(12,12,255)"  stroke="rgb(12,12,255)" stroke-width="1" font-size="16" >N</text>
<text x="588.814572" y="82.564840" fill="rgb(12,12,255)"  stroke="rgb(12,12,255)" stroke-width="1" font-size="16" >N</text>
<text x="657.243628" y="93.402938" fill="rgb(12,12,255)"  stroke="rgb(12,12,255)" stroke-width="1" font-size="16" >N</text>
<text x="684.072087" y="158.083287" fill="rgb(12,12,255)"  stroke="rgb(12,12,255)" stroke-width="1" font-size="16" >NH</text>
<text x="708.072087" y="161.763287" fill="rgb(12,12,255)"  stroke="rgb(12,12,255)" stroke-width="1" font-size="13" >2</text>
<text x="354.000000" y="153.547116" fill="rgb(255,12,12)"  stroke="rgb(255,12,12)" stroke-width="1" font-size="16" >OH</text>
<text x="274.000000" y="153.547116" fill="rgb(255,12,12)"  stroke="rgb(255,12,12)" stroke-width="1" font-size="16" >OH</text>
<text x="176.000000" y="188.188132" fill="rgb(102,102,102)"  stroke="rgb(102,102,102)" stroke-width="1" font-size="16" >CH</text>
<text x="200.000000" y="191.868132" fill="rgb(102,102,102)"  stroke="rgb(102,102,102)" stroke-width="1" font-size="13" >3</text>
<text x="119.358984" y="208.188132" fill="rgb(102,102,102)"  stroke="rgb(102,102,102)" stroke-width="1" font-size="16" >H</text>
<text x="131.358984" y="211.868132" fill="rgb(102,102,102)"  stroke="rgb(102,102,102)" stroke-width="1" font-size="13" >3</text>
<text x="137.858984" y="208.188132" fill="rgb(102,102,102)"  stroke="rgb(102,102,102)" stroke-width="1" font-size="16" >C</text>
<text x="107.358984" y="282.829148" fill="rgb(255,12,12)"  stroke="rgb(255,12,12)" stroke-width="1" font-size="16" >HO</text>
<text x="22.000000" y="401.393213" fill="rgb(12,12,255)"  stroke="rgb(12,12,255)" stroke-width="1" font-size="16" >HN</text>
<text x="114.000000" y="401.393213" fill="rgb(178,178,0)"  stroke="rgb(178,178,0)" stroke-width="1" font-size="16" >S</text>
<text x="174.000000" y="436.034229" fill="rgb(255,12,12)"  stroke="rgb(255,12,12)" stroke-width="1" font-size="16" >O</text>
<text x="234.000000" y="401.393213" fill="rgb(255,12,12)"  stroke="rgb(255,12,12)" stroke-width="1" font-size="16" >O</text>
<text x="234.000000" y="332.111180" fill="rgb(255,12,12)"  stroke="rgb(255,12,12)" stroke-width="1" font-size="16" >OH</text>
<text x="154.000000" y="332.111180" fill="rgb(12,12,255)"  stroke="rgb(12,12,255)" stroke-width="1" font-size="16" >N</text>
<text x="154.000000" y="348.111180" fill="rgb(12,12,255)"  stroke="rgb(12,12,255)" stroke-width="1" font-size="16" >H</text>
<text x="34.000000" y="332.111180" fill="rgb(255,12,12)"  stroke="rgb(255,12,12)" stroke-width="1" font-size="16" >O</text>
<text x="214.000000" y="297.470164" fill="rgb(255,12,12)"  stroke="rgb(255,12,12)" stroke-width="1" font-size="16" >O</text>
<text x="119.358984" y="242.829148" fill="rgb(191,191,191)"  stroke="rgb(191,191,191)" stroke-width="1" font-size="16" >H</text>
<text x="234.000000" y="193.547116" fill="rgb(255,12,12)"  stroke="rgb(255,12,12)" stroke-width="1" font-size="16" >O</text>
<text x="274.000000" y="193.547116" fill="rgb(255,127,0)"  stroke="rgb(255,127,0)" stroke-width="1" font-size="16" >P</text>
<text x="274.000000" y="233.547116" fill="rgb(255,12,12)"  stroke="rgb(255,12,12)" stroke-width="1" font-size="16" >O</text>
<text x="314.000000" y="193.547116" fill="rgb(255,12,12)"  stroke="rgb(255,12,12)" stroke-width="1" font-size="16" >O</text>
<text x="354.000000" y="193.547116" fill="rgb(255,127,0)"  stroke="rgb(255,127,0)" stroke-width="1" font-size="16" >P</text>
<text x="354.000000" y="233.547116" fill="rgb(255,12,12)"  stroke="rgb(255,12,12)" stroke-width="1" font-size="16" >O</text>
<text x="394.000000" y="193.547116" fill="rgb(255,12,12)"  stroke="rgb(255,12,12)" stroke-width="1" font-size="16" >O</text>
</svg>
</g>
<text font-size="18.000000" fill ="black" font-family="sans-serif"
x="10.000000" y="20.000000" ></text>
</svg>
