<?xml version="1.0"?>
<svg version="1.1" id="topsvg"
xmlns="http://www.w3.org/2000/svg" xmlns:xlink="http://www.w3.org/1999/xlink"
xmlns:cml="http://www.xml-cml.org/schema" x="0" y="0" width="200px" height="200px" viewBox="0 0 100 100">
<title>ZINC19230151 - Open Babel Depiction</title>
<rect x="0" y="0" width="100" height="100" fill="white"/>
<g transform="translate(0,0)">
<svg width="100" height="100" x="0" y="0" viewBox="0 0 229.282 261.562"
font-family="sans-serif" stroke="rgb(0,0,0)" stroke-width="2"  stroke-linecap="round">
<line x1="142.9" y1="182.9" x2="114.6" y2="154.6" stroke="rgb(0,0,0)"  stroke-width="2.0"/>
<line x1="142.9" y1="182.9" x2="169.0" y2="189.9" stroke="rgb(0,0,0)"  stroke-width="2.0"/>
<line x1="142.9" y1="182.9" x2="162.0" y2="163.8" stroke="rgb(0,0,0)"  stroke-width="2.0"/>
<line x1="142.9" y1="182.9" x2="135.9" y2="209.0" stroke="rgb(0,0,0)"  stroke-width="2.0"/>
<polygon points="114.641016 154.641016 91.411778 168.592450 88.350311 161.201414 " stroke-width="2.000000" fill="rgb(0,0,0)"  stroke="rgb(0,0,0)" />
<line x1="149.3" y1="134.6" x2="162.8" y2="158.0" stroke="rgb(0,0,0)"  stroke-width="2.0"/>
<line x1="149.3" y1="134.6" x2="176.3" y2="134.6" stroke="rgb(0,0,0)"  stroke-width="2.0"/>
<line x1="162.3" y1="94.6" x2="176.3" y2="94.6" stroke="rgb(0,0,0)"  stroke-width="2.0"/>
<line x1="155.8" y1="83.4" x2="162.8" y2="71.3" stroke="rgb(0,0,0)"  stroke-width="2.0"/>
<line x1="114.6" y1="74.6" x2="128.1" y2="51.3" stroke="rgb(0,0,0)"  stroke-width="2.0"/>
<line x1="114.6" y1="74.6" x2="101.1" y2="51.3" stroke="rgb(0,0,0)"  stroke-width="2.0"/>
<line x1="80.0" y1="94.6" x2="66.5" y2="71.3" stroke="rgb(0,0,0)"  stroke-width="2.0"/>
<line x1="80.0" y1="94.6" x2="53.0" y2="94.6" stroke="rgb(0,0,0)"  stroke-width="2.0"/>
<line x1="68.7" y1="141.1" x2="56.6" y2="148.1" stroke="rgb(0,0,0)"  stroke-width="2.0"/>
<line x1="138.0" y1="88.1" x2="114.6" y2="74.6" stroke="rgb(0,0,0)"  stroke-width="2.0"/>
<line x1="114.6" y1="74.6" x2="80.0" y2="94.6" stroke="rgb(0,0,0)"  stroke-width="2.0"/>
<line x1="80.0" y1="94.6" x2="80.0" y2="121.6" stroke="rgb(0,0,0)"  stroke-width="2.0"/>
<line x1="91.3" y1="141.1" x2="114.6" y2="154.6" stroke="rgb(0,0,0)"  stroke-width="2.0"/>
<line x1="114.6" y1="154.6" x2="149.3" y2="134.6" stroke="rgb(0,0,0)"  stroke-width="2.0"/>
<line x1="149.3" y1="134.6" x2="149.3" y2="107.6" stroke="rgb(0,0,0)"  stroke-width="2.0"/>
<text x="126.572526" y="229.562320" fill="rgb(191,191,191)"  stroke="rgb(191,191,191)" stroke-width="1" font-size="16" >H</text>
<text x="163.282032" y="68.000000" fill="rgb(191,191,191)"  stroke="rgb(191,191,191)" stroke-width="1" font-size="16" >H</text>
<text x="39.358984" y="162.641016" fill="rgb(191,191,191)"  stroke="rgb(191,191,191)" stroke-width="1" font-size="16" >H</text>
<text x="34.000000" y="102.641016" fill="rgb(191,191,191)"  stroke="rgb(191,191,191)" stroke-width="1" font-size="16" >H</text>
<text x="54.000000" y="68.000000" fill="rgb(191,191,191)"  stroke="rgb(191,191,191)" stroke-width="1" font-size="16" >H</text>
<text x="88.641016" y="48.000000" fill="rgb(191,191,191)"  stroke="rgb(191,191,191)" stroke-width="1" font-size="16" >H</text>
<text x="128.641016" y="48.000000" fill="rgb(191,191,191)"  stroke="rgb(191,191,191)" stroke-width="1" font-size="16" >H</text>
<text x="183.282032" y="102.641016" fill="rgb(191,191,191)"  stroke="rgb(191,191,191)" stroke-width="1" font-size="16" >H</text>
<text x="183.282032" y="142.641016" fill="rgb(191,191,191)"  stroke="rgb(191,191,191)" stroke-width="1" font-size="16" >H</text>
<text x="163.282032" y="177.282032" fill="rgb(191,191,191)"  stroke="rgb(191,191,191)" stroke-width="1" font-size="16" >H</text>
<text x="165.209559" y="162.641016" fill="rgb(191,191,191)"  stroke="rgb(191,191,191)" stroke-width="1" font-size="16" >H</text>
<text x="175.562320" y="201.278049" fill="rgb(191,191,191)"  stroke="rgb(191,191,191)" stroke-width="1" font-size="16" >H</text>
<text x="74.000000" y="142.641016" fill="rgb(12,12,255)"  stroke="rgb(12,12,255)" stroke-width="1" font-size="16" >N</text>
<text x="154.082032" y="90.609016" fill="rgb(12,12,255)"  stroke="rgb(12,12,255)" stroke-width="1" font-size="16" >+</text>
<text x="143.282032" y="102.641016" fill="rgb(12,12,255)"  stroke="rgb(12,12,255)" stroke-width="1" font-size="16" >N</text>
<text x="71.685835" y="177.948353" fill="rgb(191,191,191)"  stroke="rgb(191,191,191)" stroke-width="1" font-size="16" >H</text>
</svg>
</g>
<text font-size="18.000000" fill ="black" font-family="sans-serif"
x="10.000000" y="20.000000" >ZINC19230151</text>
</svg>
