<?xml version="1.0"?>
<svg version="1.1" id="topsvg"
xmlns="http://www.w3.org/2000/svg" xmlns:xlink="http://www.w3.org/1999/xlink"
xmlns:cml="http://www.xml-cml.org/schema" x="0" y="0" width="200px" height="200px" viewBox="0 0 100 100">
<title>ZINC04206841 - Open Babel Depiction</title>
<rect x="0" y="0" width="100" height="100" fill="white"/>
<g transform="translate(0,0)">
<svg width="100" height="100" x="0" y="0" viewBox="0 0 328.093 273.914"
font-family="sans-serif" stroke="rgb(0,0,0)" stroke-width="2"  stroke-linecap="round">
<line x1="79.1" y1="151.2" x2="104.8" y2="159.5" stroke="rgb(0,0,0)"  stroke-width="2.0"/>
<line x1="79.1" y1="151.2" x2="52.7" y2="156.8" stroke="rgb(0,0,0)"  stroke-width="2.0"/>
<line x1="79.1" y1="151.2" x2="70.8" y2="176.8" stroke="rgb(0,0,0)"  stroke-width="2.0"/>
<line x1="79.1" y1="151.2" x2="73.5" y2="124.7" stroke="rgb(0,0,0)"  stroke-width="2.0"/>
<line x1="149.5" y1="140.0" x2="149.5" y2="100.0" stroke="rgb(0,0,0)"  stroke-width="2.0"/>
<line x1="129.5" y1="201.6" x2="113.7" y2="223.4" stroke="rgb(0,0,0)"  stroke-width="2.0"/>
<line x1="149.5" y1="100.0" x2="184.2" y2="80.0" stroke="rgb(0,0,0)"  stroke-width="2.0"/>
<line x1="149.5" y1="100.0" x2="136.0" y2="76.6" stroke="rgb(0,0,0)"  stroke-width="2.0"/>
<line x1="149.5" y1="100.0" x2="122.5" y2="100.0" stroke="rgb(0,0,0)"  stroke-width="2.0"/>
<line x1="184.2" y1="80.0" x2="218.8" y2="100.0" stroke="rgb(0,0,0)"  stroke-width="2.0"/>
<line x1="184.2" y1="80.0" x2="197.7" y2="56.6" stroke="rgb(0,0,0)"  stroke-width="2.0"/>
<line x1="184.2" y1="80.0" x2="170.7" y2="56.6" stroke="rgb(0,0,0)"  stroke-width="2.0"/>
<line x1="221.8" y1="100.0" x2="221.8" y2="127.0" stroke="rgb(0,0,0)"  stroke-width="2.0"/>
<line x1="215.8" y1="100.0" x2="215.8" y2="127.0" stroke="rgb(0,0,0)"  stroke-width="2.0"/>
<line x1="218.8" y1="100.0" x2="242.2" y2="86.5" stroke="rgb(0,0,0)"  stroke-width="2.0"/>
<line x1="264.7" y1="86.5" x2="276.8" y2="93.5" stroke="rgb(0,0,0)"  stroke-width="2.0"/>
<line x1="253.5" y1="67.0" x2="253.5" y2="53.0" stroke="rgb(0,0,0)"  stroke-width="2.0"/>
<line x1="177.9" y1="175.9" x2="173.5" y2="189.2" stroke="rgb(0,0,0)"  stroke-width="2.0"/>
<line x1="156.3" y1="201.6" x2="129.5" y2="201.6" stroke="rgb(0,0,0)"  stroke-width="2.0"/>
<line x1="154.3" y1="194.4" x2="135.5" y2="194.4" stroke="rgb(0,0,0)"  stroke-width="2.0"/>
<line x1="129.5" y1="201.6" x2="121.2" y2="175.9" stroke="rgb(0,0,0)"  stroke-width="2.0"/>
<line x1="127.7" y1="155.9" x2="149.5" y2="140.0" stroke="rgb(0,0,0)"  stroke-width="2.0"/>
<line x1="149.5" y1="140.0" x2="171.2" y2="155.8" stroke="rgb(0,0,0)"  stroke-width="2.0"/>
<line x1="150.2" y1="149.4" x2="165.4" y2="160.4" stroke="rgb(0,0,0)"  stroke-width="2.0"/>
<text x="212.810877" y="148.000000" fill="rgb(255,12,12)"  stroke="rgb(255,12,12)" stroke-width="1" font-size="16" >O</text>
<text x="247.451893" y="48.000000" fill="rgb(191,191,191)"  stroke="rgb(191,191,191)" stroke-width="1" font-size="16" >H</text>
<text x="282.092909" y="108.000000" fill="rgb(191,191,191)"  stroke="rgb(191,191,191)" stroke-width="1" font-size="16" >H</text>
<text x="158.169861" y="53.358984" fill="rgb(191,191,191)"  stroke="rgb(191,191,191)" stroke-width="1" font-size="16" >H</text>
<text x="198.169861" y="53.358984" fill="rgb(191,191,191)"  stroke="rgb(191,191,191)" stroke-width="1" font-size="16" >H</text>
<text x="103.528844" y="108.000000" fill="rgb(191,191,191)"  stroke="rgb(191,191,191)" stroke-width="1" font-size="16" >H</text>
<text x="123.528844" y="73.358984" fill="rgb(191,191,191)"  stroke="rgb(191,191,191)" stroke-width="1" font-size="16" >H</text>
<text x="64.809436" y="120.024826" fill="rgb(191,191,191)"  stroke="rgb(191,191,191)" stroke-width="1" font-size="16" >H</text>
<text x="60.765224" y="197.192991" fill="rgb(191,191,191)"  stroke="rgb(191,191,191)" stroke-width="1" font-size="16" >H</text>
<text x="34.000000" y="167.467198" fill="rgb(191,191,191)"  stroke="rgb(191,191,191)" stroke-width="1" font-size="16" >H</text>
<text x="247.451893" y="88.000000" fill="rgb(12,12,255)"  stroke="rgb(12,12,255)" stroke-width="1" font-size="16" >N</text>
<text x="88.017434" y="241.914351" fill="rgb(178,178,0)"  stroke="rgb(178,178,0)" stroke-width="1" font-size="16" >HS</text>
<text x="163.528844" y="209.553671" fill="rgb(12,12,255)"  stroke="rgb(12,12,255)" stroke-width="1" font-size="16" >N</text>
<text x="175.889524" y="171.511410" fill="rgb(12,12,255)"  stroke="rgb(12,12,255)" stroke-width="1" font-size="16" >N</text>
<text x="111.168165" y="171.511410" fill="rgb(12,12,255)"  stroke="rgb(12,12,255)" stroke-width="1" font-size="16" >N</text>
</svg>
</g>
<text font-size="18.000000" fill ="black" font-family="sans-serif"
x="10.000000" y="20.000000" >ZINC04206841</text>
</svg>
