<?xml version="1.0"?>
<svg version="1.1" id="topsvg"
xmlns="http://www.w3.org/2000/svg" xmlns:xlink="http://www.w3.org/1999/xlink"
xmlns:cml="http://www.xml-cml.org/schema" x="0" y="0" width="200px" height="200px" viewBox="0 0 100 100">
<title>ZINC18155318 - Open Babel Depiction</title>
<rect x="0" y="0" width="100" height="100" fill="white"/>
<g transform="translate(0,0)">
<svg width="100" height="100" x="0" y="0" viewBox="0 0 347.89 323.088"
font-family="sans-serif" stroke="rgb(0,0,0)" stroke-width="2"  stroke-linecap="round">
<line x1="75.2" y1="164.5" x2="113.5" y2="168.5" stroke="rgb(0,0,0)"  stroke-width="2.0"/>
<line x1="75.2" y1="164.5" x2="51.9" y2="174.9" stroke="rgb(0,0,0)"  stroke-width="2.0"/>
<line x1="75.2" y1="164.5" x2="72.5" y2="189.9" stroke="rgb(0,0,0)"  stroke-width="2.0"/>
<line x1="75.2" y1="164.5" x2="64.8" y2="141.2" stroke="rgb(0,0,0)"  stroke-width="2.0"/>
<line x1="132.8" y1="201.9" x2="122.4" y2="225.2" stroke="rgb(0,0,0)"  stroke-width="2.0"/>
<line x1="170.4" y1="193.9" x2="218.0" y2="236.7" stroke="rgb(0,0,0)"  stroke-width="2.0"/>
<line x1="225.0" y1="258.1" x2="222.4" y2="270.4" stroke="rgb(0,0,0)"  stroke-width="2.0"/>
<line x1="240.0" y1="241.4" x2="252.0" y2="237.5" stroke="rgb(0,0,0)"  stroke-width="2.0"/>
<line x1="185.7" y1="149.1" x2="207.8" y2="136.3" stroke="rgb(0,0,0)"  stroke-width="2.0"/>
<line x1="136.6" y1="127.2" x2="134.0" y2="114.9" stroke="rgb(0,0,0)"  stroke-width="2.0"/>
<line x1="241.2" y1="155.6" x2="241.2" y2="181.1" stroke="rgb(0,0,0)"  stroke-width="2.0"/>
<line x1="274.5" y1="136.3" x2="296.6" y2="149.1" stroke="rgb(0,0,0)"  stroke-width="2.0"/>
<line x1="274.5" y1="97.8" x2="296.6" y2="85.0" stroke="rgb(0,0,0)"  stroke-width="2.0"/>
<line x1="241.2" y1="78.5" x2="241.2" y2="53.0" stroke="rgb(0,0,0)"  stroke-width="2.0"/>
<line x1="207.8" y1="97.8" x2="185.7" y2="85.0" stroke="rgb(0,0,0)"  stroke-width="2.0"/>
<line x1="170.4" y1="193.9" x2="173.1" y2="168.5" stroke="rgb(0,0,0)"  stroke-width="2.0"/>
<line x1="162.6" y1="150.3" x2="151.1" y2="145.2" stroke="rgb(0,0,0)"  stroke-width="2.0"/>
<line x1="130.8" y1="149.3" x2="113.5" y2="168.5" stroke="rgb(0,0,0)"  stroke-width="2.0"/>
<line x1="134.7" y1="155.7" x2="122.9" y2="168.9" stroke="rgb(0,0,0)"  stroke-width="2.0"/>
<line x1="113.5" y1="168.5" x2="132.8" y2="201.9" stroke="rgb(0,0,0)"  stroke-width="2.0"/>
<line x1="132.8" y1="201.9" x2="170.4" y2="193.9" stroke="rgb(0,0,0)"  stroke-width="2.0"/>
<line x1="137.1" y1="193.6" x2="163.1" y2="188.1" stroke="rgb(0,0,0)"  stroke-width="2.0"/>
<line x1="274.5" y1="136.3" x2="274.5" y2="97.8" stroke="rgb(0,0,0)"  stroke-width="2.0"/>
<line x1="274.5" y1="97.8" x2="241.2" y2="78.5" stroke="rgb(0,0,0)"  stroke-width="2.0"/>
<line x1="265.7" y1="101.0" x2="242.8" y2="87.8" stroke="rgb(0,0,0)"  stroke-width="2.0"/>
<line x1="241.2" y1="78.5" x2="207.8" y2="97.8" stroke="rgb(0,0,0)"  stroke-width="2.0"/>
<line x1="207.8" y1="97.8" x2="207.8" y2="136.3" stroke="rgb(0,0,0)"  stroke-width="2.0"/>
<line x1="215.0" y1="103.8" x2="215.0" y2="130.3" stroke="rgb(0,0,0)"  stroke-width="2.0"/>
<line x1="207.8" y1="136.3" x2="241.2" y2="155.6" stroke="rgb(0,0,0)"  stroke-width="2.0"/>
<line x1="241.2" y1="155.6" x2="274.5" y2="136.3" stroke="rgb(0,0,0)"  stroke-width="2.0"/>
<line x1="242.8" y1="146.3" x2="265.7" y2="133.1" stroke="rgb(0,0,0)"  stroke-width="2.0"/>
<text x="125.261397" y="110.211866" fill="rgb(191,191,191)"  stroke="rgb(191,191,191)" stroke-width="1" font-size="16" >H</text>
<text x="258.314947" y="241.508028" fill="rgb(191,191,191)"  stroke="rgb(191,191,191)" stroke-width="1" font-size="16" >H</text>
<text x="168.458265" y="86.518519" fill="rgb(191,191,191)"  stroke="rgb(191,191,191)" stroke-width="1" font-size="16" >H</text>
<text x="235.174296" y="48.000000" fill="rgb(191,191,191)"  stroke="rgb(191,191,191)" stroke-width="1" font-size="16" >H</text>
<text x="301.890327" y="86.518519" fill="rgb(191,191,191)"  stroke="rgb(191,191,191)" stroke-width="1" font-size="16" >H</text>
<text x="301.890327" y="163.555556" fill="rgb(191,191,191)"  stroke="rgb(191,191,191)" stroke-width="1" font-size="16" >H</text>
<text x="235.174296" y="202.074074" fill="rgb(191,191,191)"  stroke="rgb(191,191,191)" stroke-width="1" font-size="16" >H</text>
<text x="213.673209" y="291.087701" fill="rgb(191,191,191)"  stroke="rgb(191,191,191)" stroke-width="1" font-size="16" >H</text>
<text x="111.088294" y="245.059934" fill="rgb(191,191,191)"  stroke="rgb(191,191,191)" stroke-width="1" font-size="16" >H</text>
<text x="53.521525" y="137.298801" fill="rgb(191,191,191)"  stroke="rgb(191,191,191)" stroke-width="1" font-size="16" >H</text>
<text x="65.162136" y="210.794729" fill="rgb(191,191,191)"  stroke="rgb(191,191,191)" stroke-width="1" font-size="16" >H</text>
<text x="34.000000" y="188.154112" fill="rgb(191,191,191)"  stroke="rgb(191,191,191)" stroke-width="1" font-size="16" >H</text>
<text x="133.269847" y="147.888663" fill="rgb(12,12,255)"  stroke="rgb(12,12,255)" stroke-width="1" font-size="16" >N</text>
<text x="168.458265" y="163.555556" fill="rgb(12,12,255)"  stroke="rgb(12,12,255)" stroke-width="1" font-size="16" >N</text>
<text x="221.681659" y="253.410905" fill="rgb(12,12,255)"  stroke="rgb(12,12,255)" stroke-width="1" font-size="16" >N</text>
</svg>
</g>
<text font-size="18.000000" fill ="black" font-family="sans-serif"
x="10.000000" y="20.000000" >ZINC18155318</text>
</svg>
