<?xml version="1.0"?>
<svg version="1.1" id="topsvg"
xmlns="http://www.w3.org/2000/svg" xmlns:xlink="http://www.w3.org/1999/xlink"
xmlns:cml="http://www.xml-cml.org/schema" x="0" y="0" width="200px" height="200px" viewBox="0 0 100 100">
<title>ZINC22465713 - Open Babel Depiction</title>
<rect x="0" y="0" width="100" height="100" fill="white"/>
<g transform="translate(0,0)">
<svg width="100" height="100" x="0" y="0" viewBox="0 0 498.743 323.978"
font-family="sans-serif" stroke="rgb(0,0,0)" stroke-width="2"  stroke-linecap="round">
<line x1="79.1" y1="147.0" x2="113.1" y2="166.5" stroke="rgb(0,0,0)"  stroke-width="2.0"/>
<line x1="79.1" y1="147.0" x2="79.1" y2="120.8" stroke="rgb(0,0,0)"  stroke-width="2.0"/>
<line x1="79.1" y1="147.0" x2="53.0" y2="147.0" stroke="rgb(0,0,0)"  stroke-width="2.0"/>
<line x1="79.1" y1="147.0" x2="66.1" y2="169.6" stroke="rgb(0,0,0)"  stroke-width="2.0"/>
<line x1="113.1" y1="166.5" x2="113.1" y2="231.8" stroke="rgb(0,0,0)"  stroke-width="2.0"/>
<line x1="113.1" y1="166.5" x2="139.2" y2="166.5" stroke="rgb(0,0,0)"  stroke-width="2.0"/>
<line x1="113.1" y1="166.5" x2="126.1" y2="143.9" stroke="rgb(0,0,0)"  stroke-width="2.0"/>
<line x1="126.1" y1="244.8" x2="152.2" y2="244.8" stroke="rgb(0,0,0)"  stroke-width="2.0"/>
<line x1="113.1" y1="257.8" x2="113.1" y2="271.0" stroke="rgb(0,0,0)"  stroke-width="2.0"/>
<line x1="100.1" y1="244.8" x2="86.9" y2="244.8" stroke="rgb(0,0,0)"  stroke-width="2.0"/>
<line x1="152.2" y1="244.8" x2="171.8" y2="210.9" stroke="rgb(0,0,0)"  stroke-width="2.0"/>
<line x1="152.2" y1="244.8" x2="174.8" y2="257.9" stroke="rgb(0,0,0)"  stroke-width="2.0"/>
<line x1="152.2" y1="244.8" x2="152.2" y2="271.0" stroke="rgb(0,0,0)"  stroke-width="2.0"/>
<line x1="171.8" y1="210.9" x2="197.9" y2="210.9" stroke="rgb(0,0,0)"  stroke-width="2.0"/>
<line x1="171.8" y1="210.9" x2="171.8" y2="184.8" stroke="rgb(0,0,0)"  stroke-width="2.0"/>
<line x1="171.8" y1="210.9" x2="149.1" y2="197.9" stroke="rgb(0,0,0)"  stroke-width="2.0"/>
<line x1="217.4" y1="199.7" x2="230.5" y2="177.0" stroke="rgb(0,0,0)"  stroke-width="2.0"/>
<line x1="217.4" y1="222.2" x2="224.0" y2="233.6" stroke="rgb(0,0,0)"  stroke-width="2.0"/>
<line x1="230.5" y1="177.0" x2="269.6" y2="177.0" stroke="rgb(0,0,0)"  stroke-width="2.0"/>
<line x1="230.5" y1="177.0" x2="230.5" y2="150.9" stroke="rgb(0,0,0)"  stroke-width="2.0"/>
<line x1="230.5" y1="177.0" x2="207.9" y2="163.9" stroke="rgb(0,0,0)"  stroke-width="2.0"/>
<line x1="269.6" y1="177.0" x2="282.7" y2="199.7" stroke="rgb(0,0,0)"  stroke-width="2.0"/>
<line x1="269.6" y1="177.0" x2="292.3" y2="163.9" stroke="rgb(0,0,0)"  stroke-width="2.0"/>
<line x1="269.6" y1="177.0" x2="269.6" y2="150.9" stroke="rgb(0,0,0)"  stroke-width="2.0"/>
<line x1="300.5" y1="204.4" x2="323.1" y2="191.4" stroke="rgb(0,0,0)"  stroke-width="2.0"/>
<line x1="295.7" y1="222.2" x2="302.3" y2="233.6" stroke="rgb(0,0,0)"  stroke-width="2.0"/>
<line x1="278.0" y1="217.4" x2="266.6" y2="224.0" stroke="rgb(0,0,0)"  stroke-width="2.0"/>
<line x1="323.1" y1="191.4" x2="323.1" y2="152.2" stroke="rgb(0,0,0)"  stroke-width="2.0"/>
<line x1="323.1" y1="191.4" x2="349.3" y2="191.4" stroke="rgb(0,0,0)"  stroke-width="2.0"/>
<line x1="323.1" y1="191.4" x2="336.2" y2="214.0" stroke="rgb(0,0,0)"  stroke-width="2.0"/>
<line x1="323.1" y1="152.2" x2="345.8" y2="139.1" stroke="rgb(0,0,0)"  stroke-width="2.0"/>
<line x1="323.1" y1="152.2" x2="310.1" y2="129.6" stroke="rgb(0,0,0)"  stroke-width="2.0"/>
<line x1="323.1" y1="152.2" x2="297.0" y2="152.2" stroke="rgb(0,0,0)"  stroke-width="2.0"/>
<line x1="357.0" y1="119.6" x2="357.0" y2="93.5" stroke="rgb(0,0,0)"  stroke-width="2.0"/>
<line x1="368.3" y1="139.1" x2="379.7" y2="145.7" stroke="rgb(0,0,0)"  stroke-width="2.0"/>
<line x1="357.0" y1="93.5" x2="390.9" y2="73.9" stroke="rgb(0,0,0)"  stroke-width="2.0"/>
<line x1="357.0" y1="93.5" x2="344.0" y2="70.8" stroke="rgb(0,0,0)"  stroke-width="2.0"/>
<line x1="357.0" y1="93.5" x2="330.9" y2="93.5" stroke="rgb(0,0,0)"  stroke-width="2.0"/>
<line x1="390.9" y1="73.9" x2="413.6" y2="87.0" stroke="rgb(0,0,0)"  stroke-width="2.0"/>
<line x1="390.9" y1="73.9" x2="404.0" y2="51.3" stroke="rgb(0,0,0)"  stroke-width="2.0"/>
<line x1="390.9" y1="73.9" x2="377.9" y2="51.3" stroke="rgb(0,0,0)"  stroke-width="2.0"/>
<line x1="418.3" y1="104.7" x2="411.8" y2="116.1" stroke="rgb(0,0,0)"  stroke-width="2.0"/>
<line x1="436.1" y1="100.0" x2="447.5" y2="106.6" stroke="rgb(0,0,0)"  stroke-width="2.0"/>
<line x1="431.3" y1="82.2" x2="437.9" y2="70.8" stroke="rgb(0,0,0)"  stroke-width="2.0"/>
<line x1="90.4" y1="101.3" x2="101.8" y2="94.7" stroke="rgb(0,0,0)"  stroke-width="2.0"/>
<line x1="67.9" y1="101.3" x2="56.5" y2="94.7" stroke="rgb(0,0,0)"  stroke-width="2.0"/>
<text x="384.935042" y="160.201846" fill="rgb(191,191,191)"  stroke="rgb(191,191,191)" stroke-width="1" font-size="16" >H</text>
<text x="131.872340" y="199.350782" fill="rgb(191,191,191)"  stroke="rgb(191,191,191)" stroke-width="1" font-size="16" >H</text>
<text x="224.499718" y="252.829223" fill="rgb(191,191,191)"  stroke="rgb(191,191,191)" stroke-width="1" font-size="16" >H</text>
<text x="224.499718" y="145.872340" fill="rgb(191,191,191)"  stroke="rgb(191,191,191)" stroke-width="1" font-size="16" >H</text>
<text x="190.595745" y="165.446809" fill="rgb(191,191,191)"  stroke="rgb(191,191,191)" stroke-width="1" font-size="16" >H</text>
<text x="297.552627" y="165.446809" fill="rgb(191,191,191)"  stroke="rgb(191,191,191)" stroke-width="1" font-size="16" >H</text>
<text x="263.648654" y="145.872340" fill="rgb(191,191,191)"  stroke="rgb(191,191,191)" stroke-width="1" font-size="16" >H</text>
<text x="302.797590" y="252.829223" fill="rgb(191,191,191)"  stroke="rgb(191,191,191)" stroke-width="1" font-size="16" >H</text>
<text x="356.276032" y="199.350782" fill="rgb(191,191,191)"  stroke="rgb(191,191,191)" stroke-width="1" font-size="16" >H</text>
<text x="336.701564" y="233.254755" fill="rgb(191,191,191)"  stroke="rgb(191,191,191)" stroke-width="1" font-size="16" >H</text>
<text x="297.552627" y="126.297872" fill="rgb(191,191,191)"  stroke="rgb(191,191,191)" stroke-width="1" font-size="16" >H</text>
<text x="277.978159" y="160.201846" fill="rgb(191,191,191)"  stroke="rgb(191,191,191)" stroke-width="1" font-size="16" >H</text>
<text x="165.776314" y="179.776314" fill="rgb(191,191,191)"  stroke="rgb(191,191,191)" stroke-width="1" font-size="16" >H</text>
<text x="331.456601" y="67.574468" fill="rgb(191,191,191)"  stroke="rgb(191,191,191)" stroke-width="1" font-size="16" >H</text>
<text x="311.882133" y="101.478441" fill="rgb(191,191,191)"  stroke="rgb(191,191,191)" stroke-width="1" font-size="16" >H</text>
<text x="404.509510" y="48.000000" fill="rgb(191,191,191)"  stroke="rgb(191,191,191)" stroke-width="1" font-size="16" >H</text>
<text x="365.360574" y="48.000000" fill="rgb(191,191,191)"  stroke="rgb(191,191,191)" stroke-width="1" font-size="16" >H</text>
<text x="399.264547" y="135.382415" fill="rgb(191,191,191)"  stroke="rgb(191,191,191)" stroke-width="1" font-size="16" >H</text>
<text x="452.742988" y="121.052909" fill="rgb(191,191,191)"  stroke="rgb(191,191,191)" stroke-width="1" font-size="16" >H</text>
<text x="107.052909" y="96.233478" fill="rgb(191,191,191)"  stroke="rgb(191,191,191)" stroke-width="1" font-size="16" >H</text>
<text x="438.413483" y="67.574468" fill="rgb(191,191,191)"  stroke="rgb(191,191,191)" stroke-width="1" font-size="16" >H</text>
<text x="39.244963" y="96.233478" fill="rgb(191,191,191)"  stroke="rgb(191,191,191)" stroke-width="1" font-size="16" >H</text>
<text x="67.903973" y="252.829223" fill="rgb(191,191,191)"  stroke="rgb(191,191,191)" stroke-width="1" font-size="16" >H</text>
<text x="249.319149" y="238.499718" fill="rgb(191,191,191)"  stroke="rgb(191,191,191)" stroke-width="1" font-size="16" >H</text>
<text x="117.852909" y="240.797223" fill="rgb(12,12,255)"  stroke="rgb(12,12,255)" stroke-width="1" font-size="16" >+</text>
<text x="107.052909" y="252.829223" fill="rgb(12,12,255)"  stroke="rgb(12,12,255)" stroke-width="1" font-size="16" >N</text>
<text x="204.925250" y="218.925250" fill="rgb(12,12,255)"  stroke="rgb(12,12,255)" stroke-width="1" font-size="16" >N</text>
<text x="294.023122" y="206.893250" fill="rgb(12,12,255)"  stroke="rgb(12,12,255)" stroke-width="1" font-size="16" >+</text>
<text x="283.223122" y="218.925250" fill="rgb(12,12,255)"  stroke="rgb(12,12,255)" stroke-width="1" font-size="16" >N</text>
<text x="351.031069" y="140.627378" fill="rgb(12,12,255)"  stroke="rgb(12,12,255)" stroke-width="1" font-size="16" >N</text>
<text x="429.639015" y="89.446441" fill="rgb(12,12,255)"  stroke="rgb(12,12,255)" stroke-width="1" font-size="16" >+</text>
<text x="418.839015" y="101.478441" fill="rgb(12,12,255)"  stroke="rgb(12,12,255)" stroke-width="1" font-size="16" >N</text>
<text x="73.148936" y="115.807947" fill="rgb(12,12,255)"  stroke="rgb(12,12,255)" stroke-width="1" font-size="16" >N</text>
<text x="34.000000" y="154.956883" fill="rgb(191,191,191)"  stroke="rgb(191,191,191)" stroke-width="1" font-size="16" >H</text>
<text x="53.574468" y="188.860856" fill="rgb(191,191,191)"  stroke="rgb(191,191,191)" stroke-width="1" font-size="16" >H</text>
<text x="146.201846" y="174.531351" fill="rgb(191,191,191)"  stroke="rgb(191,191,191)" stroke-width="1" font-size="16" >H</text>
<text x="126.627378" y="140.627378" fill="rgb(191,191,191)"  stroke="rgb(191,191,191)" stroke-width="1" font-size="16" >H</text>
<text x="107.052909" y="291.978159" fill="rgb(191,191,191)"  stroke="rgb(191,191,191)" stroke-width="1" font-size="16" >H</text>
<text x="180.105819" y="272.403691" fill="rgb(191,191,191)"  stroke="rgb(191,191,191)" stroke-width="1" font-size="16" >H</text>
<text x="146.201846" y="291.978159" fill="rgb(191,191,191)"  stroke="rgb(191,191,191)" stroke-width="1" font-size="16" >H</text>
</svg>
</g>
<text font-size="18.000000" fill ="black" font-family="sans-serif"
x="10.000000" y="20.000000" >ZINC22465713</text>
</svg>
