<?xml version="1.0"?>
<svg version="1.1" id="topsvg"
xmlns="http://www.w3.org/2000/svg" xmlns:xlink="http://www.w3.org/1999/xlink"
xmlns:cml="http://www.xml-cml.org/schema" x="0" y="0" width="200px" height="200px" viewBox="0 0 100 100">
<title>ZINC00058062 - Open Babel Depiction</title>
<rect x="0" y="0" width="100" height="100" fill="white"/>
<g transform="translate(0,0)">
<svg width="100" height="100" x="0" y="0" viewBox="0 0 327.846 260"
font-family="sans-serif" stroke="rgb(0,0,0)" stroke-width="2"  stroke-linecap="round">
<line x1="80.0" y1="80.0" x2="114.6" y2="100.0" stroke="rgb(0,0,0)"  stroke-width="2.0"/>
<line x1="80.0" y1="80.0" x2="53.0" y2="80.0" stroke="rgb(0,0,0)"  stroke-width="2.0"/>
<line x1="80.0" y1="80.0" x2="66.5" y2="103.4" stroke="rgb(0,0,0)"  stroke-width="2.0"/>
<line x1="80.0" y1="80.0" x2="80.0" y2="53.0" stroke="rgb(0,0,0)"  stroke-width="2.0"/>
<line x1="114.6" y1="140.0" x2="91.3" y2="153.5" stroke="rgb(0,0,0)"  stroke-width="2.0"/>
<line x1="149.3" y1="160.0" x2="149.3" y2="187.0" stroke="rgb(0,0,0)"  stroke-width="2.0"/>
<line x1="218.6" y1="160.0" x2="218.6" y2="187.0" stroke="rgb(0,0,0)"  stroke-width="2.0"/>
<line x1="253.2" y1="140.0" x2="276.6" y2="153.5" stroke="rgb(0,0,0)"  stroke-width="2.0"/>
<line x1="251.7" y1="97.4" x2="275.1" y2="83.9" stroke="rgb(0,0,0)"  stroke-width="2.0"/>
<line x1="254.7" y1="102.6" x2="278.1" y2="89.1" stroke="rgb(0,0,0)"  stroke-width="2.0"/>
<line x1="149.3" y1="80.0" x2="149.3" y2="53.0" stroke="rgb(0,0,0)"  stroke-width="2.0"/>
<line x1="207.3" y1="206.5" x2="195.2" y2="213.5" stroke="rgb(0,0,0)"  stroke-width="2.0"/>
<line x1="149.3" y1="160.0" x2="183.9" y2="140.0" stroke="rgb(0,0,0)"  stroke-width="2.0"/>
<line x1="183.9" y1="140.0" x2="183.9" y2="100.0" stroke="rgb(0,0,0)"  stroke-width="2.0"/>
<line x1="176.7" y1="134.0" x2="176.7" y2="106.0" stroke="rgb(0,0,0)"  stroke-width="2.0"/>
<line x1="183.9" y1="100.0" x2="149.3" y2="80.0" stroke="rgb(0,0,0)"  stroke-width="2.0"/>
<line x1="149.3" y1="80.0" x2="114.6" y2="100.0" stroke="rgb(0,0,0)"  stroke-width="2.0"/>
<line x1="147.7" y1="89.2" x2="123.4" y2="103.2" stroke="rgb(0,0,0)"  stroke-width="2.0"/>
<line x1="114.6" y1="100.0" x2="114.6" y2="140.0" stroke="rgb(0,0,0)"  stroke-width="2.0"/>
<line x1="114.6" y1="140.0" x2="149.3" y2="160.0" stroke="rgb(0,0,0)"  stroke-width="2.0"/>
<line x1="123.4" y1="136.8" x2="147.7" y2="150.8" stroke="rgb(0,0,0)"  stroke-width="2.0"/>
<line x1="253.2" y1="100.0" x2="229.8" y2="86.5" stroke="rgb(0,0,0)"  stroke-width="2.0"/>
<line x1="207.3" y1="86.5" x2="183.9" y2="100.0" stroke="rgb(0,0,0)"  stroke-width="2.0"/>
<line x1="183.9" y1="140.0" x2="218.6" y2="160.0" stroke="rgb(0,0,0)"  stroke-width="2.0"/>
<line x1="218.6" y1="160.0" x2="253.2" y2="140.0" stroke="rgb(0,0,0)"  stroke-width="2.0"/>
<line x1="220.2" y1="150.8" x2="244.4" y2="136.8" stroke="rgb(0,0,0)"  stroke-width="2.0"/>
<line x1="253.2" y1="140.0" x2="253.2" y2="100.0" stroke="rgb(0,0,0)"  stroke-width="2.0"/>
<text x="177.923048" y="228.000000" fill="rgb(191,191,191)"  stroke="rgb(191,191,191)" stroke-width="1" font-size="16" >H</text>
<text x="143.282032" y="48.000000" fill="rgb(191,191,191)"  stroke="rgb(191,191,191)" stroke-width="1" font-size="16" >H</text>
<text x="281.846097" y="168.000000" fill="rgb(191,191,191)"  stroke="rgb(191,191,191)" stroke-width="1" font-size="16" >H</text>
<text x="143.282032" y="208.000000" fill="rgb(191,191,191)"  stroke="rgb(191,191,191)" stroke-width="1" font-size="16" >H</text>
<text x="74.000000" y="168.000000" fill="rgb(191,191,191)"  stroke="rgb(191,191,191)" stroke-width="1" font-size="16" >H</text>
<text x="74.000000" y="48.000000" fill="rgb(191,191,191)"  stroke="rgb(191,191,191)" stroke-width="1" font-size="16" >H</text>
<text x="54.000000" y="122.641016" fill="rgb(191,191,191)"  stroke="rgb(191,191,191)" stroke-width="1" font-size="16" >H</text>
<text x="34.000000" y="88.000000" fill="rgb(191,191,191)"  stroke="rgb(191,191,191)" stroke-width="1" font-size="16" >H</text>
<text x="212.564065" y="208.000000" fill="rgb(255,12,12)"  stroke="rgb(255,12,12)" stroke-width="1" font-size="16" >O</text>
<text x="212.564065" y="88.000000" fill="rgb(255,12,12)"  stroke="rgb(255,12,12)" stroke-width="1" font-size="16" >O</text>
<text x="281.846097" y="88.000000" fill="rgb(255,12,12)"  stroke="rgb(255,12,12)" stroke-width="1" font-size="16" >O</text>
</svg>
</g>
<text font-size="18.000000" fill ="black" font-family="sans-serif"
x="10.000000" y="20.000000" >ZINC00058062</text>
</svg>
