<?xml version="1.0"?>
<svg version="1.1" id="topsvg"
xmlns="http://www.w3.org/2000/svg" xmlns:xlink="http://www.w3.org/1999/xlink"
xmlns:cml="http://www.xml-cml.org/schema" x="0" y="0" width="200px" height="200px" viewBox="0 0 100 100">
<title>ZINC00596881 - Open Babel Depiction</title>
<rect x="0" y="0" width="100" height="100" fill="white"/>
<g transform="translate(0,0)">
<svg width="100" height="100" x="0" y="0" viewBox="0 0 426.41 372.37"
font-family="sans-serif" stroke="rgb(0,0,0)" stroke-width="2"  stroke-linecap="round">
<line x1="282.5" y1="220.0" x2="259.1" y2="233.5" stroke="rgb(0,0,0)"  stroke-width="2.0"/>
<line x1="317.1" y1="240.0" x2="317.1" y2="267.0" stroke="rgb(0,0,0)"  stroke-width="2.0"/>
<line x1="351.8" y1="220.0" x2="375.2" y2="233.5" stroke="rgb(0,0,0)"  stroke-width="2.0"/>
<line x1="351.8" y1="180.0" x2="375.2" y2="166.5" stroke="rgb(0,0,0)"  stroke-width="2.0"/>
<line x1="317.1" y1="160.0" x2="317.1" y2="133.0" stroke="rgb(0,0,0)"  stroke-width="2.0"/>
<line x1="282.5" y1="180.0" x2="247.8" y2="160.0" stroke="rgb(0,0,0)"  stroke-width="2.0"/>
<line x1="247.8" y1="160.0" x2="224.5" y2="173.5" stroke="rgb(0,0,0)"  stroke-width="2.0"/>
<line x1="247.8" y1="160.0" x2="261.3" y2="136.6" stroke="rgb(0,0,0)"  stroke-width="2.0"/>
<line x1="247.8" y1="160.0" x2="234.3" y2="136.6" stroke="rgb(0,0,0)"  stroke-width="2.0"/>
<line x1="201.9" y1="173.5" x2="178.6" y2="160.0" stroke="rgb(0,0,0)"  stroke-width="2.0"/>
<polygon points="178.564065 160.000000 188.499963 134.790519 195.428166 138.790519 " stroke-width="2.000000" fill="rgb(0,0,0)"  stroke="rgb(0,0,0)" />
<line x1="178.6" y1="160.0" x2="158.6" y2="194.6" stroke="rgb(0,0,0)"  stroke-width="2.0"/>
<line x1="178.6" y1="160.0" x2="143.9" y2="140.0" stroke="rgb(0,0,0)"  stroke-width="2.0"/>
<line x1="158.6" y1="194.6" x2="172.1" y2="218.0" stroke="rgb(0,0,0)"  stroke-width="2.0"/>
<line x1="158.6" y1="194.6" x2="135.2" y2="181.1" stroke="rgb(0,0,0)"  stroke-width="2.0"/>
<line x1="158.6" y1="194.6" x2="135.2" y2="208.1" stroke="rgb(0,0,0)"  stroke-width="2.0"/>
<line x1="162.3" y1="265.8" x2="135.9" y2="271.4" stroke="rgb(0,0,0)"  stroke-width="2.0"/>
<line x1="192.0" y1="292.6" x2="189.2" y2="319.4" stroke="rgb(0,0,0)"  stroke-width="2.0"/>
<line x1="218.3" y1="233.5" x2="236.4" y2="213.4" stroke="rgb(0,0,0)"  stroke-width="2.0"/>
<line x1="143.9" y1="100.0" x2="167.3" y2="86.5" stroke="rgb(0,0,0)"  stroke-width="2.0"/>
<line x1="109.3" y1="80.0" x2="109.3" y2="53.0" stroke="rgb(0,0,0)"  stroke-width="2.0"/>
<line x1="74.6" y1="100.0" x2="51.3" y2="86.5" stroke="rgb(0,0,0)"  stroke-width="2.0"/>
<line x1="74.6" y1="140.0" x2="51.3" y2="153.5" stroke="rgb(0,0,0)"  stroke-width="2.0"/>
<line x1="109.3" y1="160.0" x2="109.3" y2="187.0" stroke="rgb(0,0,0)"  stroke-width="2.0"/>
<line x1="192.0" y1="292.6" x2="215.4" y2="279.1" stroke="rgb(0,0,0)"  stroke-width="2.0"/>
<line x1="223.9" y1="259.7" x2="218.3" y2="233.5" stroke="rgb(0,0,0)"  stroke-width="2.0"/>
<line x1="216.5" y1="259.2" x2="212.5" y2="240.8" stroke="rgb(0,0,0)"  stroke-width="2.0"/>
<line x1="218.3" y1="233.5" x2="191.5" y2="230.6" stroke="rgb(0,0,0)"  stroke-width="2.0"/>
<line x1="173.3" y1="241.2" x2="162.3" y2="265.8" stroke="rgb(0,0,0)"  stroke-width="2.0"/>
<line x1="162.3" y1="265.8" x2="192.0" y2="292.6" stroke="rgb(0,0,0)"  stroke-width="2.0"/>
<line x1="171.6" y1="264.5" x2="192.4" y2="283.2" stroke="rgb(0,0,0)"  stroke-width="2.0"/>
<line x1="351.8" y1="220.0" x2="351.8" y2="180.0" stroke="rgb(0,0,0)"  stroke-width="2.0"/>
<line x1="351.8" y1="180.0" x2="317.1" y2="160.0" stroke="rgb(0,0,0)"  stroke-width="2.0"/>
<line x1="343.0" y1="183.2" x2="318.7" y2="169.2" stroke="rgb(0,0,0)"  stroke-width="2.0"/>
<line x1="317.1" y1="160.0" x2="282.5" y2="180.0" stroke="rgb(0,0,0)"  stroke-width="2.0"/>
<line x1="282.5" y1="180.0" x2="282.5" y2="220.0" stroke="rgb(0,0,0)"  stroke-width="2.0"/>
<line x1="289.7" y1="186.0" x2="289.7" y2="214.0" stroke="rgb(0,0,0)"  stroke-width="2.0"/>
<line x1="282.5" y1="220.0" x2="317.1" y2="240.0" stroke="rgb(0,0,0)"  stroke-width="2.0"/>
<line x1="317.1" y1="240.0" x2="351.8" y2="220.0" stroke="rgb(0,0,0)"  stroke-width="2.0"/>
<line x1="318.7" y1="230.8" x2="343.0" y2="216.8" stroke="rgb(0,0,0)"  stroke-width="2.0"/>
<line x1="109.3" y1="80.0" x2="74.6" y2="100.0" stroke="rgb(0,0,0)"  stroke-width="2.0"/>
<line x1="74.6" y1="100.0" x2="74.6" y2="140.0" stroke="rgb(0,0,0)"  stroke-width="2.0"/>
<line x1="81.8" y1="106.0" x2="81.8" y2="134.0" stroke="rgb(0,0,0)"  stroke-width="2.0"/>
<line x1="74.6" y1="140.0" x2="109.3" y2="160.0" stroke="rgb(0,0,0)"  stroke-width="2.0"/>
<line x1="109.3" y1="160.0" x2="143.9" y2="140.0" stroke="rgb(0,0,0)"  stroke-width="2.0"/>
<line x1="110.9" y1="150.8" x2="135.1" y2="136.8" stroke="rgb(0,0,0)"  stroke-width="2.0"/>
<line x1="143.9" y1="140.0" x2="143.9" y2="100.0" stroke="rgb(0,0,0)"  stroke-width="2.0"/>
<line x1="143.9" y1="100.0" x2="109.3" y2="80.0" stroke="rgb(0,0,0)"  stroke-width="2.0"/>
<line x1="135.1" y1="103.2" x2="110.9" y2="89.2" stroke="rgb(0,0,0)"  stroke-width="2.0"/>
<text x="261.846097" y="133.358984" fill="rgb(191,191,191)"  stroke="rgb(191,191,191)" stroke-width="1" font-size="16" >H</text>
<text x="103.282032" y="208.000000" fill="rgb(30,239,30)"  stroke="rgb(30,239,30)" stroke-width="1" font-size="16" >Cl</text>
<text x="22.000000" y="88.000000" fill="rgb(30,239,30)"  stroke="rgb(30,239,30)" stroke-width="1" font-size="16" >Cl</text>
<text x="380.410162" y="248.000000" fill="rgb(30,239,30)"  stroke="rgb(30,239,30)" stroke-width="1" font-size="16" >Cl</text>
<text x="241.846097" y="248.000000" fill="rgb(191,191,191)"  stroke="rgb(191,191,191)" stroke-width="1" font-size="16" >H</text>
<text x="311.128129" y="288.000000" fill="rgb(191,191,191)"  stroke="rgb(191,191,191)" stroke-width="1" font-size="16" >H</text>
<text x="380.410162" y="168.000000" fill="rgb(191,191,191)"  stroke="rgb(191,191,191)" stroke-width="1" font-size="16" >H</text>
<text x="311.128129" y="128.000000" fill="rgb(191,191,191)"  stroke="rgb(191,191,191)" stroke-width="1" font-size="16" >H</text>
<text x="221.846097" y="133.358984" fill="rgb(191,191,191)"  stroke="rgb(191,191,191)" stroke-width="1" font-size="16" >H</text>
<text x="117.923048" y="182.641016" fill="rgb(191,191,191)"  stroke="rgb(191,191,191)" stroke-width="1" font-size="16" >H</text>
<text x="117.923048" y="222.641016" fill="rgb(191,191,191)"  stroke="rgb(191,191,191)" stroke-width="1" font-size="16" >H</text>
<text x="117.168695" y="282.140318" fill="rgb(191,191,191)"  stroke="rgb(191,191,191)" stroke-width="1" font-size="16" >H</text>
<text x="181.839253" y="340.369951" fill="rgb(191,191,191)"  stroke="rgb(191,191,191)" stroke-width="1" font-size="16" >H</text>
<text x="239.110165" y="211.737378" fill="rgb(191,191,191)"  stroke="rgb(191,191,191)" stroke-width="1" font-size="16" >H</text>
<text x="172.564065" y="88.000000" fill="rgb(191,191,191)"  stroke="rgb(191,191,191)" stroke-width="1" font-size="16" >H</text>
<text x="103.282032" y="48.000000" fill="rgb(191,191,191)"  stroke="rgb(191,191,191)" stroke-width="1" font-size="16" >H</text>
<text x="34.000000" y="168.000000" fill="rgb(191,191,191)"  stroke="rgb(191,191,191)" stroke-width="1" font-size="16" >H</text>
<text x="207.205081" y="188.000000" fill="rgb(255,12,12)"  stroke="rgb(255,12,12)" stroke-width="1" font-size="16" >O</text>
<text x="192.564065" y="133.358984" fill="rgb(191,191,191)"  stroke="rgb(191,191,191)" stroke-width="1" font-size="16" >H</text>
<text x="172.564065" y="237.282032" fill="rgb(12,12,255)"  stroke="rgb(12,12,255)" stroke-width="1" font-size="16" >N</text>
<text x="220.661408" y="280.589075" fill="rgb(12,12,255)"  stroke="rgb(12,12,255)" stroke-width="1" font-size="16" >N</text>
</svg>
</g>
<text font-size="18.000000" fill ="black" font-family="sans-serif"
x="10.000000" y="20.000000" >ZINC00596881</text>
</svg>
