<?xml version="1.0"?>
<svg version="1.1" id="topsvg"
xmlns="http://www.w3.org/2000/svg" xmlns:xlink="http://www.w3.org/1999/xlink"
xmlns:cml="http://www.xml-cml.org/schema" x="0" y="0" width="200px" height="200px" viewBox="0 0 100 100">
<title>ZINC19324734 - Open Babel Depiction</title>
<rect x="0" y="0" width="100" height="100" fill="white"/>
<g transform="translate(0,0)">
<svg width="100" height="100" x="0" y="0" viewBox="0 0 294.641 254.641"
font-family="sans-serif" stroke="rgb(0,0,0)" stroke-width="2"  stroke-linecap="round">
<line x1="220.0" y1="140.0" x2="193.0" y2="140.0" stroke="rgb(0,0,0)"  stroke-width="2.0"/>
<line x1="220.0" y1="140.0" x2="243.4" y2="126.5" stroke="rgb(0,0,0)"  stroke-width="2.0"/>
<line x1="220.0" y1="140.0" x2="220.0" y2="113.0" stroke="rgb(0,0,0)"  stroke-width="2.0"/>
<line x1="220.0" y1="140.0" x2="233.5" y2="163.4" stroke="rgb(0,0,0)"  stroke-width="2.0"/>
<line x1="180.0" y1="153.0" x2="180.0" y2="180.0" stroke="rgb(0,0,0)"  stroke-width="2.0"/>
<line x1="167.0" y1="140.0" x2="140.0" y2="140.0" stroke="rgb(0,0,0)"  stroke-width="2.0"/>
<line x1="180.0" y1="127.0" x2="180.0" y2="113.0" stroke="rgb(0,0,0)"  stroke-width="2.0"/>
<line x1="180.0" y1="180.0" x2="193.5" y2="203.4" stroke="rgb(0,0,0)"  stroke-width="2.0"/>
<line x1="180.0" y1="180.0" x2="207.0" y2="180.0" stroke="rgb(0,0,0)"  stroke-width="2.0"/>
<line x1="180.0" y1="180.0" x2="156.6" y2="193.5" stroke="rgb(0,0,0)"  stroke-width="2.0"/>
<line x1="140.0" y1="140.0" x2="140.0" y2="113.0" stroke="rgb(0,0,0)"  stroke-width="2.0"/>
<line x1="140.0" y1="140.0" x2="113.0" y2="140.0" stroke="rgb(0,0,0)"  stroke-width="2.0"/>
<line x1="140.8" y1="145.4" x2="139.2" y2="145.4" stroke="rgb(0,0,0)"  stroke-width="1.0"/>
<line x1="141.4" y1="149.6" x2="138.6" y2="149.6" stroke="rgb(0,0,0)"  stroke-width="1.0"/>
<line x1="142.1" y1="153.9" x2="137.9" y2="153.9" stroke="rgb(0,0,0)"  stroke-width="1.0"/>
<line x1="142.7" y1="158.2" x2="137.3" y2="158.2" stroke="rgb(0,0,0)"  stroke-width="1.0"/>
<line x1="143.4" y1="162.5" x2="136.6" y2="162.5" stroke="rgb(0,0,0)"  stroke-width="1.0"/>
<line x1="144.0" y1="166.8" x2="136.0" y2="166.8" stroke="rgb(0,0,0)"  stroke-width="1.0"/>
<line x1="151.3" y1="93.5" x2="174.6" y2="80.0" stroke="rgb(0,0,0)"  stroke-width="2.0"/>
<line x1="128.7" y1="93.5" x2="105.4" y2="80.0" stroke="rgb(0,0,0)"  stroke-width="2.0"/>
<line x1="174.6" y1="80.0" x2="188.1" y2="56.6" stroke="rgb(0,0,0)"  stroke-width="2.0"/>
<line x1="174.6" y1="80.0" x2="161.1" y2="56.6" stroke="rgb(0,0,0)"  stroke-width="2.0"/>
<line x1="174.6" y1="80.0" x2="198.0" y2="93.5" stroke="rgb(0,0,0)"  stroke-width="2.0"/>
<line x1="105.4" y1="80.0" x2="78.4" y2="80.0" stroke="rgb(0,0,0)"  stroke-width="2.0"/>
<line x1="105.4" y1="80.0" x2="91.9" y2="103.4" stroke="rgb(0,0,0)"  stroke-width="2.0"/>
<line x1="105.4" y1="80.0" x2="105.4" y2="53.0" stroke="rgb(0,0,0)"  stroke-width="2.0"/>
<line x1="93.5" y1="151.3" x2="80.0" y2="174.6" stroke="rgb(0,0,0)"  stroke-width="2.0"/>
<line x1="80.0" y1="174.6" x2="80.0" y2="201.6" stroke="rgb(0,0,0)"  stroke-width="2.0"/>
<line x1="80.0" y1="174.6" x2="103.4" y2="188.1" stroke="rgb(0,0,0)"  stroke-width="2.0"/>
<line x1="80.0" y1="174.6" x2="53.0" y2="174.6" stroke="rgb(0,0,0)"  stroke-width="2.0"/>
<text x="214.000000" y="188.000000" fill="rgb(191,191,191)"  stroke="rgb(191,191,191)" stroke-width="1" font-size="16" >H</text>
<text x="174.000000" y="108.000000" fill="rgb(191,191,191)"  stroke="rgb(191,191,191)" stroke-width="1" font-size="16" >H</text>
<text x="34.000000" y="182.641016" fill="rgb(191,191,191)"  stroke="rgb(191,191,191)" stroke-width="1" font-size="16" >H</text>
<text x="108.641016" y="202.641016" fill="rgb(191,191,191)"  stroke="rgb(191,191,191)" stroke-width="1" font-size="16" >H</text>
<text x="74.000000" y="222.641016" fill="rgb(191,191,191)"  stroke="rgb(191,191,191)" stroke-width="1" font-size="16" >H</text>
<text x="99.358984" y="48.000000" fill="rgb(191,191,191)"  stroke="rgb(191,191,191)" stroke-width="1" font-size="16" >H</text>
<text x="79.358984" y="122.641016" fill="rgb(191,191,191)"  stroke="rgb(191,191,191)" stroke-width="1" font-size="16" >H</text>
<text x="59.358984" y="88.000000" fill="rgb(191,191,191)"  stroke="rgb(191,191,191)" stroke-width="1" font-size="16" >H</text>
<text x="203.282032" y="108.000000" fill="rgb(191,191,191)"  stroke="rgb(191,191,191)" stroke-width="1" font-size="16" >H</text>
<text x="148.641016" y="53.358984" fill="rgb(191,191,191)"  stroke="rgb(191,191,191)" stroke-width="1" font-size="16" >H</text>
<text x="188.641016" y="53.358984" fill="rgb(191,191,191)"  stroke="rgb(191,191,191)" stroke-width="1" font-size="16" >H</text>
<text x="134.000000" y="188.000000" fill="rgb(191,191,191)"  stroke="rgb(191,191,191)" stroke-width="1" font-size="16" >H</text>
<text x="139.358984" y="208.000000" fill="rgb(191,191,191)"  stroke="rgb(191,191,191)" stroke-width="1" font-size="16" >H</text>
<text x="194.000000" y="222.641016" fill="rgb(191,191,191)"  stroke="rgb(191,191,191)" stroke-width="1" font-size="16" >H</text>
<text x="234.000000" y="182.641016" fill="rgb(191,191,191)"  stroke="rgb(191,191,191)" stroke-width="1" font-size="16" >H</text>
<text x="214.000000" y="108.000000" fill="rgb(191,191,191)"  stroke="rgb(191,191,191)" stroke-width="1" font-size="16" >H</text>
<text x="248.641016" y="128.000000" fill="rgb(191,191,191)"  stroke="rgb(191,191,191)" stroke-width="1" font-size="16" >H</text>
<text x="94.000000" y="148.000000" fill="rgb(255,12,12)"  stroke="rgb(255,12,12)" stroke-width="1" font-size="16" >O</text>
<text x="134.000000" y="108.000000" fill="rgb(12,12,255)"  stroke="rgb(12,12,255)" stroke-width="1" font-size="16" >N</text>
<text x="184.800000" y="135.968000" fill="rgb(12,12,255)"  stroke="rgb(12,12,255)" stroke-width="1" font-size="16" >+</text>
<text x="174.000000" y="148.000000" fill="rgb(12,12,255)"  stroke="rgb(12,12,255)" stroke-width="1" font-size="16" >N</text>
</svg>
</g>
<text font-size="18.000000" fill ="black" font-family="sans-serif"
x="10.000000" y="20.000000" >ZINC19324734</text>
</svg>
