<?xml version="1.0"?>
<svg version="1.1" id="topsvg"
xmlns="http://www.w3.org/2000/svg" xmlns:xlink="http://www.w3.org/1999/xlink"
xmlns:cml="http://www.xml-cml.org/schema" x="0" y="0" width="200px" height="200px" viewBox="0 0 100 100">
<title>ZINC34467278 - Open Babel Depiction</title>
<rect x="0" y="0" width="100" height="100" fill="white"/>
<g transform="translate(0,0)">
<svg width="100" height="100" x="0" y="0" viewBox="0 0 343.923 229.282"
font-family="sans-serif" stroke="rgb(0,0,0)" stroke-width="2"  stroke-linecap="round">
<line x1="229.3" y1="154.6" x2="215.8" y2="178.0" stroke="rgb(0,0,0)"  stroke-width="2.0"/>
<line x1="229.3" y1="154.6" x2="242.8" y2="178.0" stroke="rgb(0,0,0)"  stroke-width="2.0"/>
<line x1="263.9" y1="134.6" x2="277.4" y2="158.0" stroke="rgb(0,0,0)"  stroke-width="2.0"/>
<line x1="263.9" y1="134.6" x2="290.9" y2="134.6" stroke="rgb(0,0,0)"  stroke-width="2.0"/>
<line x1="229.3" y1="74.6" x2="242.8" y2="51.3" stroke="rgb(0,0,0)"  stroke-width="2.0"/>
<line x1="229.3" y1="74.6" x2="215.8" y2="51.3" stroke="rgb(0,0,0)"  stroke-width="2.0"/>
<line x1="194.6" y1="94.6" x2="181.1" y2="71.3" stroke="rgb(0,0,0)"  stroke-width="2.0"/>
<line x1="194.6" y1="94.6" x2="167.6" y2="94.6" stroke="rgb(0,0,0)"  stroke-width="2.0"/>
<line x1="181.6" y1="134.6" x2="154.6" y2="134.6" stroke="rgb(0,0,0)"  stroke-width="2.0"/>
<line x1="188.1" y1="145.9" x2="181.1" y2="158.0" stroke="rgb(0,0,0)"  stroke-width="2.0"/>
<line x1="154.6" y1="134.6" x2="134.6" y2="100.0" stroke="rgb(0,0,0)"  stroke-width="2.0"/>
<line x1="154.6" y1="134.6" x2="131.3" y2="148.1" stroke="rgb(0,0,0)"  stroke-width="2.0"/>
<line x1="154.6" y1="134.6" x2="154.6" y2="161.6" stroke="rgb(0,0,0)"  stroke-width="2.0"/>
<line x1="134.6" y1="100.0" x2="94.6" y2="100.0" stroke="rgb(0,0,0)"  stroke-width="2.0"/>
<line x1="134.6" y1="100.0" x2="134.6" y2="73.0" stroke="rgb(0,0,0)"  stroke-width="2.0"/>
<line x1="134.6" y1="100.0" x2="158.0" y2="86.5" stroke="rgb(0,0,0)"  stroke-width="2.0"/>
<line x1="94.6" y1="100.0" x2="74.6" y2="134.6" stroke="rgb(0,0,0)"  stroke-width="2.0"/>
<line x1="94.6" y1="100.0" x2="71.3" y2="86.5" stroke="rgb(0,0,0)"  stroke-width="2.0"/>
<line x1="94.6" y1="100.0" x2="94.6" y2="73.0" stroke="rgb(0,0,0)"  stroke-width="2.0"/>
<line x1="74.6" y1="134.6" x2="51.3" y2="148.1" stroke="rgb(0,0,0)"  stroke-width="2.0"/>
<line x1="74.6" y1="134.6" x2="51.3" y2="121.1" stroke="rgb(0,0,0)"  stroke-width="2.0"/>
<line x1="74.6" y1="134.6" x2="88.1" y2="158.0" stroke="rgb(0,0,0)"  stroke-width="2.0"/>
<line x1="252.7" y1="88.1" x2="229.3" y2="74.6" stroke="rgb(0,0,0)"  stroke-width="2.0"/>
<line x1="229.3" y1="74.6" x2="194.6" y2="94.6" stroke="rgb(0,0,0)"  stroke-width="2.0"/>
<line x1="194.6" y1="94.6" x2="194.6" y2="121.6" stroke="rgb(0,0,0)"  stroke-width="2.0"/>
<line x1="205.9" y1="141.1" x2="229.3" y2="154.6" stroke="rgb(0,0,0)"  stroke-width="2.0"/>
<line x1="229.3" y1="154.6" x2="263.9" y2="134.6" stroke="rgb(0,0,0)"  stroke-width="2.0"/>
<line x1="263.9" y1="134.6" x2="263.9" y2="107.6" stroke="rgb(0,0,0)"  stroke-width="2.0"/>
<text x="297.923048" y="142.641016" fill="rgb(191,191,191)"  stroke="rgb(191,191,191)" stroke-width="1" font-size="16" >H</text>
<text x="168.641016" y="177.282032" fill="rgb(191,191,191)"  stroke="rgb(191,191,191)" stroke-width="1" font-size="16" >H</text>
<text x="88.641016" y="177.282032" fill="rgb(191,191,191)"  stroke="rgb(191,191,191)" stroke-width="1" font-size="16" >H</text>
<text x="34.000000" y="122.641016" fill="rgb(191,191,191)"  stroke="rgb(191,191,191)" stroke-width="1" font-size="16" >H</text>
<text x="88.641016" y="68.000000" fill="rgb(191,191,191)"  stroke="rgb(191,191,191)" stroke-width="1" font-size="16" >H</text>
<text x="54.000000" y="88.000000" fill="rgb(191,191,191)"  stroke="rgb(191,191,191)" stroke-width="1" font-size="16" >H</text>
<text x="163.282032" y="88.000000" fill="rgb(191,191,191)"  stroke="rgb(191,191,191)" stroke-width="1" font-size="16" >H</text>
<text x="128.641016" y="68.000000" fill="rgb(191,191,191)"  stroke="rgb(191,191,191)" stroke-width="1" font-size="16" >H</text>
<text x="148.641016" y="182.641016" fill="rgb(191,191,191)"  stroke="rgb(191,191,191)" stroke-width="1" font-size="16" >H</text>
<text x="114.000000" y="162.641016" fill="rgb(191,191,191)"  stroke="rgb(191,191,191)" stroke-width="1" font-size="16" >H</text>
<text x="148.641016" y="102.641016" fill="rgb(191,191,191)"  stroke="rgb(191,191,191)" stroke-width="1" font-size="16" >H</text>
<text x="168.641016" y="68.000000" fill="rgb(191,191,191)"  stroke="rgb(191,191,191)" stroke-width="1" font-size="16" >H</text>
<text x="203.282032" y="48.000000" fill="rgb(191,191,191)"  stroke="rgb(191,191,191)" stroke-width="1" font-size="16" >H</text>
<text x="243.282032" y="48.000000" fill="rgb(191,191,191)"  stroke="rgb(191,191,191)" stroke-width="1" font-size="16" >H</text>
<text x="277.923048" y="177.282032" fill="rgb(191,191,191)"  stroke="rgb(191,191,191)" stroke-width="1" font-size="16" >H</text>
<text x="243.282032" y="197.282032" fill="rgb(191,191,191)"  stroke="rgb(191,191,191)" stroke-width="1" font-size="16" >H</text>
<text x="203.282032" y="197.282032" fill="rgb(191,191,191)"  stroke="rgb(191,191,191)" stroke-width="1" font-size="16" >H</text>
<text x="22.000000" y="162.641016" fill="rgb(30,239,30)"  stroke="rgb(30,239,30)" stroke-width="1" font-size="16" >Cl</text>
<text x="199.441016" y="130.609016" fill="rgb(12,12,255)"  stroke="rgb(12,12,255)" stroke-width="1" font-size="16" >+</text>
<text x="188.641016" y="142.641016" fill="rgb(12,12,255)"  stroke="rgb(12,12,255)" stroke-width="1" font-size="16" >N</text>
<text x="257.923048" y="102.641016" fill="rgb(255,12,12)"  stroke="rgb(255,12,12)" stroke-width="1" font-size="16" >O</text>
</svg>
</g>
<text font-size="18.000000" fill ="black" font-family="sans-serif"
x="10.000000" y="20.000000" >ZINC34467278</text>
</svg>
