<?xml version="1.0"?>
<svg version="1.1" id="topsvg"
xmlns="http://www.w3.org/2000/svg" xmlns:xlink="http://www.w3.org/1999/xlink"
xmlns:cml="http://www.xml-cml.org/schema" x="0" y="0" width="200px" height="200px" viewBox="0 0 100 100">
<title>ZINC00002248 - Open Babel Depiction</title>
<rect x="0" y="0" width="100" height="100" fill="white"/>
<g transform="translate(0,0)">
<svg width="100" height="100" x="0" y="0" viewBox="0 0 362.487 274.641"
font-family="sans-serif" stroke="rgb(0,0,0)" stroke-width="2"  stroke-linecap="round">
<line x1="183.9" y1="80.0" x2="218.6" y2="100.0" stroke="rgb(0,0,0)"  stroke-width="2.0"/>
<line x1="183.9" y1="80.0" x2="156.9" y2="80.0" stroke="rgb(0,0,0)"  stroke-width="2.0"/>
<line x1="183.9" y1="80.0" x2="170.4" y2="103.4" stroke="rgb(0,0,0)"  stroke-width="2.0"/>
<line x1="183.9" y1="80.0" x2="183.9" y2="53.0" stroke="rgb(0,0,0)"  stroke-width="2.0"/>
<line x1="253.2" y1="80.0" x2="253.2" y2="53.0" stroke="rgb(0,0,0)"  stroke-width="2.0"/>
<line x1="287.8" y1="100.0" x2="311.2" y2="86.5" stroke="rgb(0,0,0)"  stroke-width="2.0"/>
<line x1="287.8" y1="140.0" x2="311.2" y2="153.5" stroke="rgb(0,0,0)"  stroke-width="2.0"/>
<line x1="253.2" y1="160.0" x2="253.2" y2="200.0" stroke="rgb(0,0,0)"  stroke-width="2.0"/>
<line x1="218.6" y1="140.0" x2="195.2" y2="153.5" stroke="rgb(0,0,0)"  stroke-width="2.0"/>
<line x1="171.2" y1="156.1" x2="147.8" y2="142.6" stroke="rgb(0,0,0)"  stroke-width="2.0"/>
<line x1="174.2" y1="150.9" x2="150.8" y2="137.4" stroke="rgb(0,0,0)"  stroke-width="2.0"/>
<line x1="114.6" y1="173.0" x2="114.6" y2="187.0" stroke="rgb(0,0,0)"  stroke-width="2.0"/>
<line x1="80.0" y1="140.0" x2="66.5" y2="163.4" stroke="rgb(0,0,0)"  stroke-width="2.0"/>
<line x1="80.0" y1="140.0" x2="53.0" y2="140.0" stroke="rgb(0,0,0)"  stroke-width="2.0"/>
<line x1="80.0" y1="100.0" x2="53.0" y2="100.0" stroke="rgb(0,0,0)"  stroke-width="2.0"/>
<line x1="80.0" y1="100.0" x2="66.5" y2="76.6" stroke="rgb(0,0,0)"  stroke-width="2.0"/>
<line x1="114.6" y1="80.0" x2="101.1" y2="56.6" stroke="rgb(0,0,0)"  stroke-width="2.0"/>
<line x1="114.6" y1="80.0" x2="128.1" y2="56.6" stroke="rgb(0,0,0)"  stroke-width="2.0"/>
<line x1="253.2" y1="200.0" x2="239.7" y2="223.4" stroke="rgb(0,0,0)"  stroke-width="2.0"/>
<line x1="253.2" y1="200.0" x2="226.2" y2="200.0" stroke="rgb(0,0,0)"  stroke-width="2.0"/>
<line x1="253.2" y1="200.0" x2="276.6" y2="213.5" stroke="rgb(0,0,0)"  stroke-width="2.0"/>
<line x1="287.8" y1="100.0" x2="287.8" y2="140.0" stroke="rgb(0,0,0)"  stroke-width="2.0"/>
<line x1="287.8" y1="140.0" x2="253.2" y2="160.0" stroke="rgb(0,0,0)"  stroke-width="2.0"/>
<line x1="279.0" y1="136.8" x2="254.8" y2="150.8" stroke="rgb(0,0,0)"  stroke-width="2.0"/>
<line x1="253.2" y1="160.0" x2="218.6" y2="140.0" stroke="rgb(0,0,0)"  stroke-width="2.0"/>
<line x1="218.6" y1="140.0" x2="218.6" y2="100.0" stroke="rgb(0,0,0)"  stroke-width="2.0"/>
<line x1="225.8" y1="134.0" x2="225.8" y2="106.0" stroke="rgb(0,0,0)"  stroke-width="2.0"/>
<line x1="218.6" y1="100.0" x2="253.2" y2="80.0" stroke="rgb(0,0,0)"  stroke-width="2.0"/>
<line x1="253.2" y1="80.0" x2="287.8" y2="100.0" stroke="rgb(0,0,0)"  stroke-width="2.0"/>
<line x1="254.8" y1="89.2" x2="279.0" y2="103.2" stroke="rgb(0,0,0)"  stroke-width="2.0"/>
<line x1="80.0" y1="140.0" x2="80.0" y2="100.0" stroke="rgb(0,0,0)"  stroke-width="2.0"/>
<line x1="80.0" y1="100.0" x2="114.6" y2="80.0" stroke="rgb(0,0,0)"  stroke-width="2.0"/>
<line x1="114.6" y1="80.0" x2="138.0" y2="93.5" stroke="rgb(0,0,0)"  stroke-width="2.0"/>
<line x1="149.3" y1="113.0" x2="149.3" y2="140.0" stroke="rgb(0,0,0)"  stroke-width="2.0"/>
<line x1="149.3" y1="140.0" x2="125.9" y2="153.5" stroke="rgb(0,0,0)"  stroke-width="2.0"/>
<line x1="103.4" y1="153.5" x2="80.0" y2="140.0" stroke="rgb(0,0,0)"  stroke-width="2.0"/>
<text x="137.923048" y="88.000000" fill="rgb(191,191,191)"  stroke="rgb(191,191,191)" stroke-width="1" font-size="16" >H</text>
<text x="108.641016" y="208.000000" fill="rgb(191,191,191)"  stroke="rgb(191,191,191)" stroke-width="1" font-size="16" >H</text>
<text x="281.846097" y="228.000000" fill="rgb(191,191,191)"  stroke="rgb(191,191,191)" stroke-width="1" font-size="16" >H</text>
<text x="207.205081" y="208.000000" fill="rgb(191,191,191)"  stroke="rgb(191,191,191)" stroke-width="1" font-size="16" >H</text>
<text x="227.205081" y="242.641016" fill="rgb(191,191,191)"  stroke="rgb(191,191,191)" stroke-width="1" font-size="16" >H</text>
<text x="128.641016" y="53.358984" fill="rgb(191,191,191)"  stroke="rgb(191,191,191)" stroke-width="1" font-size="16" >H</text>
<text x="88.641016" y="53.358984" fill="rgb(191,191,191)"  stroke="rgb(191,191,191)" stroke-width="1" font-size="16" >H</text>
<text x="54.000000" y="73.358984" fill="rgb(191,191,191)"  stroke="rgb(191,191,191)" stroke-width="1" font-size="16" >H</text>
<text x="34.000000" y="108.000000" fill="rgb(191,191,191)"  stroke="rgb(191,191,191)" stroke-width="1" font-size="16" >H</text>
<text x="34.000000" y="148.000000" fill="rgb(191,191,191)"  stroke="rgb(191,191,191)" stroke-width="1" font-size="16" >H</text>
<text x="54.000000" y="182.641016" fill="rgb(191,191,191)"  stroke="rgb(191,191,191)" stroke-width="1" font-size="16" >H</text>
<text x="316.487113" y="168.000000" fill="rgb(191,191,191)"  stroke="rgb(191,191,191)" stroke-width="1" font-size="16" >H</text>
<text x="316.487113" y="88.000000" fill="rgb(191,191,191)"  stroke="rgb(191,191,191)" stroke-width="1" font-size="16" >H</text>
<text x="247.205081" y="48.000000" fill="rgb(191,191,191)"  stroke="rgb(191,191,191)" stroke-width="1" font-size="16" >H</text>
<text x="177.923048" y="48.000000" fill="rgb(191,191,191)"  stroke="rgb(191,191,191)" stroke-width="1" font-size="16" >H</text>
<text x="157.923048" y="122.641016" fill="rgb(191,191,191)"  stroke="rgb(191,191,191)" stroke-width="1" font-size="16" >H</text>
<text x="143.282032" y="108.000000" fill="rgb(178,178,0)"  stroke="rgb(178,178,0)" stroke-width="1" font-size="16" >S</text>
<text x="108.641016" y="168.000000" fill="rgb(12,12,255)"  stroke="rgb(12,12,255)" stroke-width="1" font-size="16" >N</text>
<text x="177.923048" y="168.000000" fill="rgb(12,12,255)"  stroke="rgb(12,12,255)" stroke-width="1" font-size="16" >N</text>
</svg>
</g>
<text font-size="18.000000" fill ="black" font-family="sans-serif"
x="10.000000" y="20.000000" >ZINC00002248</text>
</svg>
