<?xml version="1.0"?>
<svg version="1.1" id="topsvg"
xmlns="http://www.w3.org/2000/svg" xmlns:xlink="http://www.w3.org/1999/xlink"
xmlns:cml="http://www.xml-cml.org/schema" x="0" y="0" width="200px" height="200px" viewBox="0 0 100 100">
<title>ZINC98216418 - Open Babel Depiction</title>
<rect x="0" y="0" width="100" height="100" fill="white"/>
<g transform="translate(0,0)">
<svg width="100" height="100" x="0" y="0" viewBox="0 0 568.278 433.449"
font-family="sans-serif" stroke="rgb(0,0,0)" stroke-width="2"  stroke-linecap="round">
<line x1="79.1" y1="161.8" x2="105.9" y2="191.5" stroke="rgb(0,0,0)"  stroke-width="2.0"/>
<line x1="79.1" y1="161.8" x2="73.5" y2="135.4" stroke="rgb(0,0,0)"  stroke-width="2.0"/>
<line x1="79.1" y1="161.8" x2="99.2" y2="143.8" stroke="rgb(0,0,0)"  stroke-width="2.0"/>
<line x1="79.1" y1="161.8" x2="52.7" y2="167.4" stroke="rgb(0,0,0)"  stroke-width="2.0"/>
<line x1="108.7" y1="192.5" x2="100.4" y2="218.1" stroke="rgb(0,0,0)"  stroke-width="2.0"/>
<line x1="103.0" y1="190.6" x2="94.7" y2="216.3" stroke="rgb(0,0,0)"  stroke-width="2.0"/>
<line x1="105.9" y1="191.5" x2="132.3" y2="185.9" stroke="rgb(0,0,0)"  stroke-width="2.0"/>
<line x1="153.7" y1="192.9" x2="171.8" y2="213.0" stroke="rgb(0,0,0)"  stroke-width="2.0"/>
<line x1="149.0" y1="170.9" x2="153.4" y2="157.5" stroke="rgb(0,0,0)"  stroke-width="2.0"/>
<polygon points="171.782257 212.952025 154.542498 233.857305 149.189453 227.912146 " stroke-width="2.000000" fill="rgb(0,0,0)"  stroke="rgb(0,0,0)" />
<line x1="171.8" y1="213.0" x2="198.5" y2="242.7" stroke="rgb(0,0,0)"  stroke-width="2.0"/>
<line x1="171.8" y1="213.0" x2="201.5" y2="186.2" stroke="rgb(0,0,0)"  stroke-width="2.0"/>
<line x1="198.5" y1="242.7" x2="186.2" y2="280.7" stroke="rgb(0,0,0)"  stroke-width="2.0"/>
<line x1="198.5" y1="242.7" x2="224.2" y2="251.0" stroke="rgb(0,0,0)"  stroke-width="2.0"/>
<line x1="198.5" y1="242.7" x2="218.6" y2="224.6" stroke="rgb(0,0,0)"  stroke-width="2.0"/>
<line x1="209.7" y1="313.1" x2="236.7" y2="313.1" stroke="rgb(0,0,0)"  stroke-width="2.0"/>
<line x1="190.2" y1="357.8" x2="194.5" y2="371.1" stroke="rgb(0,0,0)"  stroke-width="2.0"/>
<line x1="113.5" y1="273.1" x2="113.5" y2="246.1" stroke="rgb(0,0,0)"  stroke-width="2.0"/>
<line x1="78.9" y1="293.1" x2="55.5" y2="279.6" stroke="rgb(0,0,0)"  stroke-width="2.0"/>
<line x1="78.9" y1="333.1" x2="55.5" y2="346.6" stroke="rgb(0,0,0)"  stroke-width="2.0"/>
<line x1="113.5" y1="353.1" x2="113.5" y2="380.1" stroke="rgb(0,0,0)"  stroke-width="2.0"/>
<line x1="198.6" y1="186.8" x2="193.0" y2="160.4" stroke="rgb(0,0,0)"  stroke-width="2.0"/>
<line x1="204.4" y1="185.6" x2="198.8" y2="159.2" stroke="rgb(0,0,0)"  stroke-width="2.0"/>
<line x1="201.5" y1="186.2" x2="227.2" y2="194.5" stroke="rgb(0,0,0)"  stroke-width="2.0"/>
<line x1="249.2" y1="189.8" x2="269.3" y2="171.8" stroke="rgb(0,0,0)"  stroke-width="2.0"/>
<line x1="242.3" y1="211.3" x2="245.2" y2="225.0" stroke="rgb(0,0,0)"  stroke-width="2.0"/>
<line x1="265.1" y1="168.3" x2="266.3" y2="167.3" stroke="rgb(0,0,0)"  stroke-width="1.0"/>
<line x1="261.8" y1="165.6" x2="263.9" y2="163.6" stroke="rgb(0,0,0)"  stroke-width="1.0"/>
<line x1="258.4" y1="162.8" x2="261.5" y2="160.0" stroke="rgb(0,0,0)"  stroke-width="1.0"/>
<line x1="255.1" y1="160.1" x2="259.1" y2="156.4" stroke="rgb(0,0,0)"  stroke-width="1.0"/>
<line x1="251.7" y1="157.3" x2="256.7" y2="152.8" stroke="rgb(0,0,0)"  stroke-width="1.0"/>
<line x1="248.4" y1="154.5" x2="254.3" y2="149.2" stroke="rgb(0,0,0)"  stroke-width="1.0"/>
<line x1="269.3" y1="171.8" x2="299.0" y2="145.0" stroke="rgb(0,0,0)"  stroke-width="2.0"/>
<line x1="269.3" y1="171.8" x2="296.0" y2="201.5" stroke="rgb(0,0,0)"  stroke-width="2.0"/>
<line x1="299.0" y1="145.0" x2="290.7" y2="105.9" stroke="rgb(0,0,0)"  stroke-width="2.0"/>
<line x1="299.0" y1="145.0" x2="325.4" y2="139.4" stroke="rgb(0,0,0)"  stroke-width="2.0"/>
<line x1="299.0" y1="145.0" x2="317.1" y2="165.1" stroke="rgb(0,0,0)"  stroke-width="2.0"/>
<line x1="290.7" y1="105.9" x2="320.4" y2="79.1" stroke="rgb(0,0,0)"  stroke-width="2.0"/>
<line x1="290.7" y1="105.9" x2="272.6" y2="85.8" stroke="rgb(0,0,0)"  stroke-width="2.0"/>
<line x1="290.7" y1="105.9" x2="264.3" y2="111.5" stroke="rgb(0,0,0)"  stroke-width="2.0"/>
<line x1="321.3" y1="76.3" x2="347.0" y2="84.6" stroke="rgb(0,0,0)"  stroke-width="2.0"/>
<line x1="319.5" y1="82.0" x2="345.2" y2="90.3" stroke="rgb(0,0,0)"  stroke-width="2.0"/>
<line x1="320.4" y1="79.1" x2="314.8" y2="52.7" stroke="rgb(0,0,0)"  stroke-width="2.0"/>
<line x1="298.9" y1="202.4" x2="290.6" y2="228.1" stroke="rgb(0,0,0)"  stroke-width="2.0"/>
<line x1="293.2" y1="200.6" x2="284.8" y2="226.3" stroke="rgb(0,0,0)"  stroke-width="2.0"/>
<line x1="296.0" y1="201.5" x2="322.5" y2="195.9" stroke="rgb(0,0,0)"  stroke-width="2.0"/>
<line x1="343.9" y1="202.9" x2="361.9" y2="222.9" stroke="rgb(0,0,0)"  stroke-width="2.0"/>
<line x1="339.2" y1="180.8" x2="343.5" y2="167.5" stroke="rgb(0,0,0)"  stroke-width="2.0"/>
<polygon points="361.932456 222.917375 344.692697 243.822655 339.339652 237.877496 " stroke-width="2.000000" fill="rgb(0,0,0)"  stroke="rgb(0,0,0)" />
<line x1="361.9" y1="222.9" x2="388.7" y2="252.6" stroke="rgb(0,0,0)"  stroke-width="2.0"/>
<line x1="361.9" y1="222.9" x2="391.7" y2="196.2" stroke="rgb(0,0,0)"  stroke-width="2.0"/>
<line x1="388.7" y1="252.6" x2="414.4" y2="261.0" stroke="rgb(0,0,0)"  stroke-width="2.0"/>
<line x1="388.7" y1="252.6" x2="408.8" y2="234.6" stroke="rgb(0,0,0)"  stroke-width="2.0"/>
<line x1="388.7" y1="252.6" x2="376.3" y2="290.7" stroke="rgb(0,0,0)"  stroke-width="2.0"/>
<line x1="338.3" y1="303.0" x2="316.5" y2="287.2" stroke="rgb(0,0,0)"  stroke-width="2.0"/>
<line x1="327.8" y1="350.7" x2="316.5" y2="358.9" stroke="rgb(0,0,0)"  stroke-width="2.0"/>
<line x1="426.8" y1="323.0" x2="412.8" y2="323.0" stroke="rgb(0,0,0)"  stroke-width="2.0"/>
<line x1="376.3" y1="355.4" x2="384.7" y2="381.1" stroke="rgb(0,0,0)"  stroke-width="2.0"/>
<line x1="388.7" y1="196.8" x2="383.1" y2="170.4" stroke="rgb(0,0,0)"  stroke-width="2.0"/>
<line x1="394.6" y1="195.5" x2="389.0" y2="169.1" stroke="rgb(0,0,0)"  stroke-width="2.0"/>
<line x1="391.7" y1="196.2" x2="417.3" y2="204.5" stroke="rgb(0,0,0)"  stroke-width="2.0"/>
<line x1="439.4" y1="199.8" x2="459.4" y2="181.7" stroke="rgb(0,0,0)"  stroke-width="2.0"/>
<line x1="432.4" y1="221.2" x2="435.3" y2="234.9" stroke="rgb(0,0,0)"  stroke-width="2.0"/>
<line x1="455.2" y1="178.3" x2="456.4" y2="177.2" stroke="rgb(0,0,0)"  stroke-width="1.0"/>
<line x1="451.9" y1="175.5" x2="454.0" y2="173.6" stroke="rgb(0,0,0)"  stroke-width="1.0"/>
<line x1="448.6" y1="172.8" x2="451.6" y2="170.0" stroke="rgb(0,0,0)"  stroke-width="1.0"/>
<line x1="445.2" y1="170.0" x2="449.3" y2="166.4" stroke="rgb(0,0,0)"  stroke-width="1.0"/>
<line x1="441.9" y1="167.3" x2="446.9" y2="162.8" stroke="rgb(0,0,0)"  stroke-width="1.0"/>
<line x1="438.5" y1="164.5" x2="444.5" y2="159.2" stroke="rgb(0,0,0)"  stroke-width="1.0"/>
<line x1="459.4" y1="181.7" x2="489.2" y2="155.0" stroke="rgb(0,0,0)"  stroke-width="2.0"/>
<line x1="459.4" y1="181.7" x2="486.2" y2="211.5" stroke="rgb(0,0,0)"  stroke-width="2.0"/>
<line x1="489.2" y1="155.0" x2="480.8" y2="115.9" stroke="rgb(0,0,0)"  stroke-width="2.0"/>
<line x1="489.2" y1="155.0" x2="515.6" y2="149.4" stroke="rgb(0,0,0)"  stroke-width="2.0"/>
<line x1="489.2" y1="155.0" x2="507.2" y2="175.0" stroke="rgb(0,0,0)"  stroke-width="2.0"/>
<line x1="479.9" y1="118.7" x2="454.2" y2="110.4" stroke="rgb(0,0,0)"  stroke-width="2.0"/>
<line x1="481.8" y1="113.0" x2="456.1" y2="104.7" stroke="rgb(0,0,0)"  stroke-width="2.0"/>
<line x1="480.8" y1="115.9" x2="500.9" y2="97.8" stroke="rgb(0,0,0)"  stroke-width="2.0"/>
<line x1="485.6" y1="208.5" x2="512.0" y2="202.9" stroke="rgb(0,0,0)"  stroke-width="2.0"/>
<line x1="486.8" y1="214.4" x2="513.2" y2="208.8" stroke="rgb(0,0,0)"  stroke-width="2.0"/>
<line x1="486.2" y1="211.5" x2="477.8" y2="237.2" stroke="rgb(0,0,0)"  stroke-width="2.0"/>
<line x1="173.8" y1="341.4" x2="148.1" y2="333.1" stroke="rgb(0,0,0)"  stroke-width="2.0"/>
<line x1="148.1" y1="333.1" x2="148.1" y2="293.1" stroke="rgb(0,0,0)"  stroke-width="2.0"/>
<line x1="148.1" y1="293.1" x2="186.2" y2="280.7" stroke="rgb(0,0,0)"  stroke-width="2.0"/>
<line x1="186.2" y1="280.7" x2="209.7" y2="313.1" stroke="rgb(0,0,0)"  stroke-width="2.0"/>
<line x1="183.9" y1="289.8" x2="200.3" y2="312.5" stroke="rgb(0,0,0)"  stroke-width="2.0"/>
<line x1="209.7" y1="313.1" x2="193.8" y2="334.9" stroke="rgb(0,0,0)"  stroke-width="2.0"/>
<line x1="338.3" y1="303.0" x2="376.3" y2="290.7" stroke="rgb(0,0,0)"  stroke-width="2.0"/>
<line x1="346.2" y1="308.0" x2="372.9" y2="299.4" stroke="rgb(0,0,0)"  stroke-width="2.0"/>
<line x1="376.3" y1="290.7" x2="392.2" y2="312.5" stroke="rgb(0,0,0)"  stroke-width="2.0"/>
<line x1="392.2" y1="333.6" x2="376.3" y2="355.4" stroke="rgb(0,0,0)"  stroke-width="2.0"/>
<line x1="376.3" y1="355.4" x2="350.8" y2="347.1" stroke="rgb(0,0,0)"  stroke-width="2.0"/>
<line x1="372.9" y1="346.7" x2="355.0" y2="340.9" stroke="rgb(0,0,0)"  stroke-width="2.0"/>
<line x1="338.3" y1="330.0" x2="338.3" y2="303.0" stroke="rgb(0,0,0)"  stroke-width="2.0"/>
<line x1="78.9" y1="333.1" x2="78.9" y2="293.1" stroke="rgb(0,0,0)"  stroke-width="2.0"/>
<line x1="86.1" y1="327.1" x2="86.1" y2="299.1" stroke="rgb(0,0,0)"  stroke-width="2.0"/>
<line x1="78.9" y1="293.1" x2="113.5" y2="273.1" stroke="rgb(0,0,0)"  stroke-width="2.0"/>
<line x1="113.5" y1="273.1" x2="148.1" y2="293.1" stroke="rgb(0,0,0)"  stroke-width="2.0"/>
<line x1="115.1" y1="282.3" x2="139.3" y2="296.3" stroke="rgb(0,0,0)"  stroke-width="2.0"/>
<line x1="148.1" y1="333.1" x2="113.5" y2="353.1" stroke="rgb(0,0,0)"  stroke-width="2.0"/>
<line x1="139.3" y1="329.8" x2="115.1" y2="343.8" stroke="rgb(0,0,0)"  stroke-width="2.0"/>
<line x1="113.5" y1="353.1" x2="78.9" y2="333.1" stroke="rgb(0,0,0)"  stroke-width="2.0"/>
<text x="504.561421" y="97.091254" fill="rgb(255,12,12)"  stroke="rgb(255,12,12)" stroke-width="1" font-size="16" >OH</text>
<text x="243.698211" y="321.080759" fill="rgb(191,191,191)"  stroke="rgb(191,191,191)" stroke-width="1" font-size="16" >H</text>
<text x="222.273274" y="223.912594" fill="rgb(191,191,191)"  stroke="rgb(191,191,191)" stroke-width="1" font-size="16" >H</text>
<text x="230.589741" y="263.038498" fill="rgb(191,191,191)"  stroke="rgb(191,191,191)" stroke-width="1" font-size="16" >H</text>
<text x="151.377712" y="153.183972" fill="rgb(191,191,191)"  stroke="rgb(191,191,191)" stroke-width="1" font-size="16" >H</text>
<text x="34.000000" y="178.133375" fill="rgb(191,191,191)"  stroke="rgb(191,191,191)" stroke-width="1" font-size="16" >H</text>
<text x="102.851697" y="143.051683" fill="rgb(191,191,191)"  stroke="rgb(191,191,191)" stroke-width="1" font-size="16" >H</text>
<text x="64.809436" y="130.691003" fill="rgb(191,191,191)"  stroke="rgb(191,191,191)" stroke-width="1" font-size="16" >H</text>
<text x="519.317431" y="211.156932" fill="rgb(255,12,12)"  stroke="rgb(255,12,12)" stroke-width="1" font-size="16" >O</text>
<text x="107.503524" y="241.080759" fill="rgb(191,191,191)"  stroke="rgb(191,191,191)" stroke-width="1" font-size="16" >H</text>
<text x="436.793367" y="111.495798" fill="rgb(255,12,12)"  stroke="rgb(255,12,12)" stroke-width="1" font-size="16" >O</text>
<text x="426.661078" y="160.021813" fill="rgb(191,191,191)"  stroke="rgb(191,191,191)" stroke-width="1" font-size="16" >H</text>
<text x="423.700509" y="216.512830" fill="rgb(12,12,255)"  stroke="rgb(12,12,255)" stroke-width="1" font-size="16" >N</text>
<text x="377.341781" y="165.026247" fill="rgb(255,12,12)"  stroke="rgb(255,12,12)" stroke-width="1" font-size="16" >O</text>
<text x="341.527911" y="163.149321" fill="rgb(191,191,191)"  stroke="rgb(191,191,191)" stroke-width="1" font-size="16" >H</text>
<text x="299.934060" y="374.557519" fill="rgb(191,191,191)"  stroke="rgb(191,191,191)" stroke-width="1" font-size="16" >H</text>
<text x="467.830847" y="257.515660" fill="rgb(191,191,191)"  stroke="rgb(191,191,191)" stroke-width="1" font-size="16" >H</text>
<text x="509.917320" y="192.708175" fill="rgb(191,191,191)"  stroke="rgb(191,191,191)" stroke-width="1" font-size="16" >H</text>
<text x="522.278000" y="154.665914" fill="rgb(191,191,191)"  stroke="rgb(191,191,191)" stroke-width="1" font-size="16" >H</text>
<text x="432.016977" y="255.638735" fill="rgb(191,191,191)"  stroke="rgb(191,191,191)" stroke-width="1" font-size="16" >H</text>
<text x="382.697680" y="401.449049" fill="rgb(191,191,191)"  stroke="rgb(191,191,191)" stroke-width="1" font-size="16" >H</text>
<text x="299.934060" y="287.534698" fill="rgb(191,191,191)"  stroke="rgb(191,191,191)" stroke-width="1" font-size="16" >H</text>
<text x="412.423473" y="233.877944" fill="rgb(191,191,191)"  stroke="rgb(191,191,191)" stroke-width="1" font-size="16" >H</text>
<text x="420.739941" y="273.003848" fill="rgb(191,191,191)"  stroke="rgb(191,191,191)" stroke-width="1" font-size="16" >H</text>
<text x="393.848410" y="331.046108" fill="rgb(12,12,255)"  stroke="rgb(12,12,255)" stroke-width="1" font-size="16" >N</text>
<text x="245.559525" y="122.207596" fill="rgb(191,191,191)"  stroke="rgb(191,191,191)" stroke-width="1" font-size="16" >H</text>
<text x="257.920204" y="84.165335" fill="rgb(191,191,191)"  stroke="rgb(191,191,191)" stroke-width="1" font-size="16" >H</text>
<text x="319.767121" y="182.742825" fill="rgb(191,191,191)"  stroke="rgb(191,191,191)" stroke-width="1" font-size="16" >H</text>
<text x="332.127800" y="144.700565" fill="rgb(191,191,191)"  stroke="rgb(191,191,191)" stroke-width="1" font-size="16" >H</text>
<text x="241.866778" y="245.673385" fill="rgb(191,191,191)"  stroke="rgb(191,191,191)" stroke-width="1" font-size="16" >H</text>
<text x="107.503524" y="401.080759" fill="rgb(191,191,191)"  stroke="rgb(191,191,191)" stroke-width="1" font-size="16" >H</text>
<text x="38.221492" y="361.080759" fill="rgb(191,191,191)"  stroke="rgb(191,191,191)" stroke-width="1" font-size="16" >H</text>
<text x="38.221492" y="281.080759" fill="rgb(191,191,191)"  stroke="rgb(191,191,191)" stroke-width="1" font-size="16" >H</text>
<text x="180.186801" y="353.441439" fill="rgb(12,12,255)"  stroke="rgb(12,12,255)" stroke-width="1" font-size="16" >N</text>
<text x="187.191582" y="155.060897" fill="rgb(255,12,12)"  stroke="rgb(255,12,12)" stroke-width="1" font-size="16" >O</text>
<text x="192.547481" y="391.483699" fill="rgb(191,191,191)"  stroke="rgb(191,191,191)" stroke-width="1" font-size="16" >H</text>
<text x="233.550310" y="206.547481" fill="rgb(12,12,255)"  stroke="rgb(12,12,255)" stroke-width="1" font-size="16" >N</text>
<text x="136.056464" y="247.717250" fill="rgb(191,191,191)"  stroke="rgb(191,191,191)" stroke-width="1" font-size="16" >H</text>
<text x="139.017032" y="191.226232" fill="rgb(12,12,255)"  stroke="rgb(12,12,255)" stroke-width="1" font-size="16" >N</text>
<text x="87.530449" y="237.584961" fill="rgb(255,12,12)"  stroke="rgb(255,12,12)" stroke-width="1" font-size="16" >O</text>
<text x="277.680648" y="247.550310" fill="rgb(255,12,12)"  stroke="rgb(255,12,12)" stroke-width="1" font-size="16" >O</text>
<text x="433.848410" y="331.046108" fill="rgb(191,191,191)"  stroke="rgb(191,191,191)" stroke-width="1" font-size="16" >H</text>
<text x="332.294740" y="351.046108" fill="rgb(12,12,255)"  stroke="rgb(12,12,255)" stroke-width="1" font-size="16" >N</text>
<text x="326.206663" y="257.682599" fill="rgb(191,191,191)"  stroke="rgb(191,191,191)" stroke-width="1" font-size="16" >H</text>
<text x="329.167232" y="201.191582" fill="rgb(12,12,255)"  stroke="rgb(12,12,255)" stroke-width="1" font-size="16" >N</text>
<text x="294.094754" y="48.000000" fill="rgb(255,12,12)"  stroke="rgb(255,12,12)" stroke-width="1" font-size="16" >HO</text>
<text x="352.453482" y="99.486584" fill="rgb(255,12,12)"  stroke="rgb(255,12,12)" stroke-width="1" font-size="16" >O</text>
<text x="236.510879" y="150.056464" fill="rgb(191,191,191)"  stroke="rgb(191,191,191)" stroke-width="1" font-size="16" >H</text>
</svg>
</g>
<text font-size="18.000000" fill ="black" font-family="sans-serif"
x="10.000000" y="20.000000" >ZINC98216418</text>
</svg>
