<?xml version="1.0"?>
<svg version="1.1" id="topsvg"
xmlns="http://www.w3.org/2000/svg" xmlns:xlink="http://www.w3.org/1999/xlink"
xmlns:cml="http://www.xml-cml.org/schema" x="0" y="0" width="200px" height="200px" viewBox="0 0 100 100">
<title>ZINC21981252 - Open Babel Depiction</title>
<rect x="0" y="0" width="100" height="100" fill="white"/>
<g transform="translate(0,0)">
<svg width="100" height="100" x="0" y="0" viewBox="0 0 366.691 330.35"
font-family="sans-serif" stroke="rgb(0,0,0)" stroke-width="2"  stroke-linecap="round">
<line x1="292.9" y1="207.3" x2="315.4" y2="220.3" stroke="rgb(0,0,0)"  stroke-width="2.0"/>
<line x1="292.9" y1="168.3" x2="315.4" y2="155.3" stroke="rgb(0,0,0)"  stroke-width="2.0"/>
<line x1="259.1" y1="148.8" x2="259.1" y2="83.7" stroke="rgb(0,0,0)"  stroke-width="2.0"/>
<line x1="259.1" y1="226.8" x2="259.1" y2="252.8" stroke="rgb(0,0,0)"  stroke-width="2.0"/>
<line x1="194.8" y1="231.6" x2="187.1" y2="256.5" stroke="rgb(0,0,0)"  stroke-width="2.0"/>
<line x1="194.8" y1="231.6" x2="212.5" y2="250.7" stroke="rgb(0,0,0)"  stroke-width="2.0"/>
<line x1="134.8" y1="255.2" x2="146.1" y2="278.6" stroke="rgb(0,0,0)"  stroke-width="2.0"/>
<line x1="95.8" y1="252.3" x2="81.2" y2="273.8" stroke="rgb(0,0,0)"  stroke-width="2.0"/>
<line x1="78.9" y1="217.1" x2="53.0" y2="215.2" stroke="rgb(0,0,0)"  stroke-width="2.0"/>
<line x1="191.8" y1="148.3" x2="190.6" y2="147.2" stroke="rgb(0,0,0)"  stroke-width="1.0"/>
<line x1="189.4" y1="151.8" x2="187.3" y2="149.9" stroke="rgb(0,0,0)"  stroke-width="1.0"/>
<line x1="187.1" y1="155.3" x2="184.0" y2="152.5" stroke="rgb(0,0,0)"  stroke-width="1.0"/>
<line x1="184.7" y1="158.8" x2="180.7" y2="155.1" stroke="rgb(0,0,0)"  stroke-width="1.0"/>
<line x1="182.3" y1="162.3" x2="177.4" y2="157.8" stroke="rgb(0,0,0)"  stroke-width="1.0"/>
<line x1="179.9" y1="165.8" x2="174.1" y2="160.4" stroke="rgb(0,0,0)"  stroke-width="1.0"/>
<line x1="206.3" y1="106.7" x2="231.2" y2="114.3" stroke="rgb(0,0,0)"  stroke-width="2.0"/>
<line x1="206.3" y1="106.7" x2="225.4" y2="89.0" stroke="rgb(0,0,0)"  stroke-width="2.0"/>
<line x1="189.3" y1="69.2" x2="198.8" y2="60.3" stroke="rgb(0,0,0)"  stroke-width="2.0"/>
<line x1="176.9" y1="65.4" x2="174.0" y2="52.7" stroke="rgb(0,0,0)"  stroke-width="2.0"/>
<line x1="141.7" y1="86.7" x2="135.9" y2="61.4" stroke="rgb(0,0,0)"  stroke-width="2.0"/>
<line x1="141.7" y1="86.7" x2="116.8" y2="79.1" stroke="rgb(0,0,0)"  stroke-width="2.0"/>
<line x1="130.2" y1="124.0" x2="105.3" y2="116.3" stroke="rgb(0,0,0)"  stroke-width="2.0"/>
<line x1="130.2" y1="124.0" x2="111.1" y2="141.7" stroke="rgb(0,0,0)"  stroke-width="2.0"/>
<line x1="259.1" y1="148.8" x2="225.3" y2="168.3" stroke="rgb(0,0,0)"  stroke-width="2.0"/>
<line x1="225.3" y1="168.3" x2="225.3" y2="207.3" stroke="rgb(0,0,0)"  stroke-width="2.0"/>
<line x1="232.5" y1="174.3" x2="232.5" y2="201.3" stroke="rgb(0,0,0)"  stroke-width="2.0"/>
<line x1="225.3" y1="207.3" x2="259.1" y2="226.8" stroke="rgb(0,0,0)"  stroke-width="2.0"/>
<line x1="259.1" y1="226.8" x2="292.9" y2="207.3" stroke="rgb(0,0,0)"  stroke-width="2.0"/>
<line x1="260.7" y1="217.6" x2="284.1" y2="204.1" stroke="rgb(0,0,0)"  stroke-width="2.0"/>
<line x1="292.9" y1="207.3" x2="292.9" y2="168.3" stroke="rgb(0,0,0)"  stroke-width="2.0"/>
<line x1="292.9" y1="168.3" x2="259.1" y2="148.8" stroke="rgb(0,0,0)"  stroke-width="2.0"/>
<line x1="284.1" y1="171.5" x2="260.7" y2="158.0" stroke="rgb(0,0,0)"  stroke-width="2.0"/>
<line x1="78.9" y1="217.1" x2="95.8" y2="252.3" stroke="rgb(0,0,0)"  stroke-width="2.0"/>
<line x1="95.8" y1="252.3" x2="134.8" y2="255.2" stroke="rgb(0,0,0)"  stroke-width="2.0"/>
<line x1="102.4" y1="245.5" x2="129.3" y2="247.6" stroke="rgb(0,0,0)"  stroke-width="2.0"/>
<line x1="134.8" y1="255.2" x2="156.7" y2="222.9" stroke="rgb(0,0,0)"  stroke-width="2.0"/>
<line x1="156.7" y1="222.9" x2="139.8" y2="187.8" stroke="rgb(0,0,0)"  stroke-width="2.0"/>
<line x1="147.7" y1="220.7" x2="135.9" y2="196.3" stroke="rgb(0,0,0)"  stroke-width="2.0"/>
<line x1="139.8" y1="187.8" x2="113.9" y2="185.8" stroke="rgb(0,0,0)"  stroke-width="2.0"/>
<line x1="93.6" y1="195.5" x2="78.9" y2="217.1" stroke="rgb(0,0,0)"  stroke-width="2.0"/>
<line x1="98.4" y1="201.3" x2="88.2" y2="216.2" stroke="rgb(0,0,0)"  stroke-width="2.0"/>
<line x1="141.7" y1="86.7" x2="167.1" y2="80.9" stroke="rgb(0,0,0)"  stroke-width="2.0"/>
<line x1="188.6" y1="87.6" x2="206.3" y2="106.7" stroke="rgb(0,0,0)"  stroke-width="2.0"/>
<line x1="206.3" y1="106.7" x2="194.8" y2="143.9" stroke="rgb(0,0,0)"  stroke-width="2.0"/>
<line x1="194.8" y1="143.9" x2="169.4" y2="149.7" stroke="rgb(0,0,0)"  stroke-width="2.0"/>
<line x1="147.9" y1="143.1" x2="130.2" y2="124.0" stroke="rgb(0,0,0)"  stroke-width="2.0"/>
<line x1="130.2" y1="124.0" x2="141.7" y2="86.7" stroke="rgb(0,0,0)"  stroke-width="2.0"/>
<line x1="156.7" y1="222.9" x2="194.8" y2="231.6" stroke="rgb(0,0,0)"  stroke-width="2.0"/>
<line x1="194.8" y1="231.6" x2="225.3" y2="207.3" stroke="rgb(0,0,0)"  stroke-width="2.0"/>
<line x1="225.3" y1="168.3" x2="194.8" y2="143.9" stroke="rgb(0,0,0)"  stroke-width="2.0"/>
<line x1="151.1" y1="164.3" x2="139.8" y2="187.8" stroke="rgb(0,0,0)"  stroke-width="2.0"/>
<text x="34.000000" y="222.197892" fill="rgb(191,191,191)"  stroke="rgb(191,191,191)" stroke-width="1" font-size="16" >H</text>
<text x="320.690615" y="234.811410" fill="rgb(191,191,191)"  stroke="rgb(191,191,191)" stroke-width="1" font-size="16" >H</text>
<text x="320.690615" y="156.762630" fill="rgb(191,191,191)"  stroke="rgb(191,191,191)" stroke-width="1" font-size="16" >H</text>
<text x="253.098388" y="78.713849" fill="rgb(191,191,191)"  stroke="rgb(191,191,191)" stroke-width="1" font-size="16" >H</text>
<text x="253.098388" y="273.835801" fill="rgb(191,191,191)"  stroke="rgb(191,191,191)" stroke-width="1" font-size="16" >H</text>
<text x="177.289137" y="276.921171" fill="rgb(191,191,191)"  stroke="rgb(191,191,191)" stroke-width="1" font-size="16" >H</text>
<text x="215.335104" y="268.237427" fill="rgb(191,191,191)"  stroke="rgb(191,191,191)" stroke-width="1" font-size="16" >H</text>
<text x="145.694637" y="298.350006" fill="rgb(191,191,191)"  stroke="rgb(191,191,191)" stroke-width="1" font-size="16" >H</text>
<text x="67.864097" y="292.517413" fill="rgb(191,191,191)"  stroke="rgb(191,191,191)" stroke-width="1" font-size="16" >H</text>
<text x="237.585065" y="126.155511" fill="rgb(191,191,191)"  stroke="rgb(191,191,191)" stroke-width="1" font-size="16" >H</text>
<text x="228.901321" y="88.109543" fill="rgb(191,191,191)"  stroke="rgb(191,191,191)" stroke-width="1" font-size="16" >H</text>
<text x="202.357995" y="59.502641" fill="rgb(191,191,191)"  stroke="rgb(191,191,191)" stroke-width="1" font-size="16" >H</text>
<text x="127.021381" y="56.683744" fill="rgb(191,191,191)"  stroke="rgb(191,191,191)" stroke-width="1" font-size="16" >H</text>
<text x="98.414479" y="83.227070" fill="rgb(191,191,191)"  stroke="rgb(191,191,191)" stroke-width="1" font-size="16" >H</text>
<text x="86.911838" y="120.517716" fill="rgb(191,191,191)"  stroke="rgb(191,191,191)" stroke-width="1" font-size="16" >H</text>
<text x="95.595582" y="158.563684" fill="rgb(191,191,191)"  stroke="rgb(191,191,191)" stroke-width="1" font-size="16" >H</text>
<text x="165.067349" y="48.000000" fill="rgb(191,191,191)"  stroke="rgb(191,191,191)" stroke-width="1" font-size="16" >H</text>
<text x="94.898492" y="192.870724" fill="rgb(12,12,255)"  stroke="rgb(12,12,255)" stroke-width="1" font-size="16" >N</text>
<text x="150.745810" y="160.627259" fill="rgb(12,12,255)"  stroke="rgb(12,12,255)" stroke-width="1" font-size="16" >N</text>
<text x="162.248451" y="180.550418" fill="rgb(191,191,191)"  stroke="rgb(191,191,191)" stroke-width="1" font-size="16" >H</text>
<text x="184.551092" y="74.013967" fill="rgb(12,12,255)"  stroke="rgb(12,12,255)" stroke-width="1" font-size="16" >+</text>
<text x="173.751092" y="86.045967" fill="rgb(12,12,255)"  stroke="rgb(12,12,255)" stroke-width="1" font-size="16" >N</text>
</svg>
</g>
<text font-size="18.000000" fill ="black" font-family="sans-serif"
x="10.000000" y="20.000000" >ZINC21981252</text>
</svg>
