<?xml version="1.0"?>
<svg version="1.1" id="topsvg"
xmlns="http://www.w3.org/2000/svg" xmlns:xlink="http://www.w3.org/1999/xlink"
xmlns:cml="http://www.xml-cml.org/schema" x="0" y="0" width="200px" height="200px" viewBox="0 0 100 100">
<title> - Open Babel Depiction</title>
<rect x="0" y="0" width="100" height="100" fill="white"/>
<g transform="translate(0,0)">
<svg width="100" height="100" x="0" y="0" viewBox="0 0 417.281 434.769"
font-family="sans-serif" stroke="rgb(0,0,0)" stroke-width="2"  stroke-linecap="round">
<line x1="371.0" y1="52.7" x2="365.4" y2="79.1" stroke="rgb(0,0,0)"  stroke-width="2.0"/>
<line x1="365.4" y1="79.1" x2="327.3" y2="91.5" stroke="rgb(0,0,0)"  stroke-width="2.0"/>
<line x1="327.3" y1="91.5" x2="319.0" y2="130.6" stroke="rgb(0,0,0)"  stroke-width="2.0"/>
<line x1="271.2" y1="140.4" x2="247.8" y2="126.9" stroke="rgb(0,0,0)"  stroke-width="2.0"/>
<line x1="247.8" y1="126.9" x2="213.2" y2="146.9" stroke="rgb(0,0,0)"  stroke-width="2.0"/>
<line x1="143.9" y1="186.9" x2="109.3" y2="206.9" stroke="rgb(0,0,0)"  stroke-width="2.0"/>
<line x1="74.6" y1="186.9" x2="74.6" y2="146.9" stroke="rgb(0,0,0)"  stroke-width="2.0"/>
<line x1="73.1" y1="144.3" x2="96.5" y2="130.8" stroke="rgb(0,0,0)"  stroke-width="2.0"/>
<line x1="76.1" y1="149.5" x2="99.5" y2="136.0" stroke="rgb(0,0,0)"  stroke-width="2.0"/>
<line x1="74.6" y1="146.9" x2="51.3" y2="133.4" stroke="rgb(0,0,0)"  stroke-width="2.0"/>
<line x1="338.2" y1="233.0" x2="364.6" y2="238.6" stroke="rgb(0,0,0)"  stroke-width="2.0"/>
<line x1="272.3" y1="254.4" x2="245.5" y2="284.2" stroke="rgb(0,0,0)"  stroke-width="2.0"/>
<line x1="265.7" y1="328.6" x2="278.5" y2="334.3" stroke="rgb(0,0,0)"  stroke-width="2.0"/>
<line x1="199.2" y1="268.7" x2="192.2" y2="256.6" stroke="rgb(0,0,0)"  stroke-width="2.0"/>
<line x1="325.8" y1="195.0" x2="286.7" y2="186.7" stroke="rgb(0,0,0)"  stroke-width="2.0"/>
<line x1="321.4" y1="186.7" x2="294.0" y2="180.9" stroke="rgb(0,0,0)"  stroke-width="2.0"/>
<line x1="286.7" y1="186.7" x2="283.8" y2="159.8" stroke="rgb(0,0,0)"  stroke-width="2.0"/>
<line x1="294.4" y1="141.6" x2="319.0" y2="130.6" stroke="rgb(0,0,0)"  stroke-width="2.0"/>
<line x1="319.0" y1="130.6" x2="337.0" y2="150.5" stroke="rgb(0,0,0)"  stroke-width="2.0"/>
<line x1="317.7" y1="139.9" x2="330.3" y2="153.9" stroke="rgb(0,0,0)"  stroke-width="2.0"/>
<line x1="339.3" y1="171.6" x2="325.8" y2="195.0" stroke="rgb(0,0,0)"  stroke-width="2.0"/>
<line x1="311.4" y1="262.7" x2="272.3" y2="254.4" stroke="rgb(0,0,0)"  stroke-width="2.0"/>
<line x1="272.3" y1="254.4" x2="259.9" y2="216.4" stroke="rgb(0,0,0)"  stroke-width="2.0"/>
<line x1="277.3" y1="246.5" x2="268.6" y2="219.9" stroke="rgb(0,0,0)"  stroke-width="2.0"/>
<line x1="259.9" y1="216.4" x2="286.7" y2="186.7" stroke="rgb(0,0,0)"  stroke-width="2.0"/>
<line x1="325.8" y1="195.0" x2="338.2" y2="233.0" stroke="rgb(0,0,0)"  stroke-width="2.0"/>
<line x1="338.2" y1="233.0" x2="311.4" y2="262.7" stroke="rgb(0,0,0)"  stroke-width="2.0"/>
<line x1="328.8" y1="232.7" x2="310.1" y2="253.5" stroke="rgb(0,0,0)"  stroke-width="2.0"/>
<line x1="178.6" y1="206.9" x2="143.9" y2="186.9" stroke="rgb(0,0,0)"  stroke-width="2.0"/>
<line x1="177.0" y1="197.6" x2="152.7" y2="183.6" stroke="rgb(0,0,0)"  stroke-width="2.0"/>
<line x1="143.9" y1="186.9" x2="143.9" y2="146.9" stroke="rgb(0,0,0)"  stroke-width="2.0"/>
<line x1="143.9" y1="146.9" x2="178.6" y2="126.9" stroke="rgb(0,0,0)"  stroke-width="2.0"/>
<line x1="152.7" y1="150.1" x2="177.0" y2="136.1" stroke="rgb(0,0,0)"  stroke-width="2.0"/>
<line x1="178.6" y1="126.9" x2="213.2" y2="146.9" stroke="rgb(0,0,0)"  stroke-width="2.0"/>
<line x1="213.2" y1="146.9" x2="213.2" y2="186.9" stroke="rgb(0,0,0)"  stroke-width="2.0"/>
<line x1="206.0" y1="152.9" x2="206.0" y2="180.9" stroke="rgb(0,0,0)"  stroke-width="2.0"/>
<line x1="213.2" y1="186.9" x2="178.6" y2="206.9" stroke="rgb(0,0,0)"  stroke-width="2.0"/>
<line x1="74.6" y1="266.9" x2="40.0" y2="246.9" stroke="rgb(0,0,0)"  stroke-width="2.0"/>
<line x1="73.0" y1="257.6" x2="48.8" y2="243.6" stroke="rgb(0,0,0)"  stroke-width="2.0"/>
<line x1="40.0" y1="246.9" x2="40.0" y2="206.9" stroke="rgb(0,0,0)"  stroke-width="2.0"/>
<line x1="40.0" y1="206.9" x2="74.6" y2="186.9" stroke="rgb(0,0,0)"  stroke-width="2.0"/>
<line x1="48.8" y1="210.1" x2="73.0" y2="196.1" stroke="rgb(0,0,0)"  stroke-width="2.0"/>
<line x1="74.6" y1="186.9" x2="109.3" y2="206.9" stroke="rgb(0,0,0)"  stroke-width="2.0"/>
<line x1="109.3" y1="206.9" x2="109.3" y2="246.9" stroke="rgb(0,0,0)"  stroke-width="2.0"/>
<line x1="102.1" y1="212.9" x2="102.1" y2="240.9" stroke="rgb(0,0,0)"  stroke-width="2.0"/>
<line x1="109.3" y1="246.9" x2="74.6" y2="266.9" stroke="rgb(0,0,0)"  stroke-width="2.0"/>
<line x1="219.2" y1="343.3" x2="189.4" y2="316.5" stroke="rgb(0,0,0)"  stroke-width="2.0"/>
<line x1="189.4" y1="316.5" x2="200.4" y2="291.9" stroke="rgb(0,0,0)"  stroke-width="2.0"/>
<line x1="218.6" y1="281.3" x2="245.5" y2="284.2" stroke="rgb(0,0,0)"  stroke-width="2.0"/>
<line x1="245.5" y1="284.2" x2="251.1" y2="310.6" stroke="rgb(0,0,0)"  stroke-width="2.0"/>
<line x1="242.6" y1="329.8" x2="219.2" y2="343.3" stroke="rgb(0,0,0)"  stroke-width="2.0"/>
<line x1="172.8" y1="394.8" x2="143.1" y2="368.0" stroke="rgb(0,0,0)"  stroke-width="2.0"/>
<line x1="143.1" y1="368.0" x2="151.4" y2="328.9" stroke="rgb(0,0,0)"  stroke-width="2.0"/>
<line x1="151.4" y1="328.9" x2="189.4" y2="316.5" stroke="rgb(0,0,0)"  stroke-width="2.0"/>
<line x1="219.2" y1="343.3" x2="210.9" y2="382.4" stroke="rgb(0,0,0)"  stroke-width="2.0"/>
<line x1="210.9" y1="382.4" x2="172.8" y2="394.8" stroke="rgb(0,0,0)"  stroke-width="2.0"/>
<text x="247.814950" y="331.282580" fill="rgb(12,12,255)"  stroke="rgb(12,12,255)" stroke-width="1" font-size="16" >N</text>
<text x="103.282032" y="134.881954" fill="rgb(255,12,12)"  stroke="rgb(255,12,12)" stroke-width="1" font-size="16" >O</text>
<text x="22.000000" y="134.881954" fill="rgb(255,12,12)"  stroke="rgb(255,12,12)" stroke-width="1" font-size="16" >HO</text>
<text x="373.280739" y="249.338025" fill="rgb(102,102,102)"  stroke="rgb(102,102,102)" stroke-width="1" font-size="16" >CH</text>
<text x="397.280739" y="253.018025" fill="rgb(102,102,102)"  stroke="rgb(102,102,102)" stroke-width="1" font-size="13" >3</text>
<text x="284.356769" y="347.552046" fill="rgb(191,191,191)"  stroke="rgb(191,191,191)" stroke-width="1" font-size="16" >H</text>
<text x="199.717607" y="287.975538" fill="rgb(12,12,255)"  stroke="rgb(12,12,255)" stroke-width="1" font-size="16" >N</text>
<text x="159.717607" y="253.334521" fill="rgb(102,102,102)"  stroke="rgb(102,102,102)" stroke-width="1" font-size="16" >H</text>
<text x="171.717607" y="257.014521" fill="rgb(102,102,102)"  stroke="rgb(102,102,102)" stroke-width="1" font-size="13" >3</text>
<text x="178.217607" y="253.334521" fill="rgb(102,102,102)"  stroke="rgb(102,102,102)" stroke-width="1" font-size="16" >C</text>
<text x="339.794156" y="168.338281" fill="rgb(12,12,255)"  stroke="rgb(12,12,255)" stroke-width="1" font-size="16" >N</text>
<text x="276.487113" y="154.881954" fill="rgb(12,12,255)"  stroke="rgb(12,12,255)" stroke-width="1" font-size="16" >N</text>
<text x="369.704127" y="48.000000" fill="rgb(102,102,102)"  stroke="rgb(102,102,102)" stroke-width="1" font-size="16" >CH</text>
<text x="393.704127" y="51.680000" fill="rgb(102,102,102)"  stroke="rgb(102,102,102)" stroke-width="1" font-size="13" >3</text>
</svg>
</g>
<text font-size="18.000000" fill ="black" font-family="sans-serif"
x="10.000000" y="20.000000" ></text>
</svg>
