<?xml version="1.0"?>
<svg version="1.1" id="topsvg"
xmlns="http://www.w3.org/2000/svg" xmlns:xlink="http://www.w3.org/1999/xlink"
xmlns:cml="http://www.xml-cml.org/schema" x="0" y="0" width="200px" height="200px" viewBox="0 0 100 100">
<title>ZINC22450566 - Open Babel Depiction</title>
<rect x="0" y="0" width="100" height="100" fill="white"/>
<g transform="translate(0,0)">
<svg width="100" height="100" x="0" y="0" viewBox="0 0 411.769 349.282"
font-family="sans-serif" stroke="rgb(0,0,0)" stroke-width="2"  stroke-linecap="round">
<line x1="109.3" y1="269.3" x2="109.3" y2="296.3" stroke="rgb(0,0,0)"  stroke-width="2.0"/>
<line x1="143.9" y1="249.3" x2="167.3" y2="262.8" stroke="rgb(0,0,0)"  stroke-width="2.0"/>
<line x1="178.6" y1="189.3" x2="213.2" y2="209.3" stroke="rgb(0,0,0)"  stroke-width="2.0"/>
<line x1="178.6" y1="149.3" x2="201.9" y2="135.8" stroke="rgb(0,0,0)"  stroke-width="2.0"/>
<line x1="143.9" y1="129.3" x2="143.9" y2="102.3" stroke="rgb(0,0,0)"  stroke-width="2.0"/>
<line x1="109.3" y1="149.3" x2="85.9" y2="135.8" stroke="rgb(0,0,0)"  stroke-width="2.0"/>
<line x1="74.6" y1="249.3" x2="51.3" y2="262.8" stroke="rgb(0,0,0)"  stroke-width="2.0"/>
<line x1="74.6" y1="116.3" x2="74.6" y2="102.3" stroke="rgb(0,0,0)"  stroke-width="2.0"/>
<line x1="213.2" y1="209.3" x2="236.6" y2="195.8" stroke="rgb(0,0,0)"  stroke-width="2.0"/>
<line x1="213.2" y1="209.3" x2="226.7" y2="232.7" stroke="rgb(0,0,0)"  stroke-width="2.0"/>
<line x1="213.2" y1="209.3" x2="199.7" y2="232.7" stroke="rgb(0,0,0)"  stroke-width="2.0"/>
<line x1="247.8" y1="149.3" x2="220.8" y2="149.3" stroke="rgb(0,0,0)"  stroke-width="2.0"/>
<line x1="247.8" y1="149.3" x2="234.3" y2="125.9" stroke="rgb(0,0,0)"  stroke-width="2.0"/>
<line x1="282.5" y1="129.3" x2="269.0" y2="105.9" stroke="rgb(0,0,0)"  stroke-width="2.0"/>
<line x1="282.5" y1="129.3" x2="296.0" y2="105.9" stroke="rgb(0,0,0)"  stroke-width="2.0"/>
<line x1="323.6" y1="138.0" x2="337.1" y2="114.6" stroke="rgb(0,0,0)"  stroke-width="2.0"/>
<line x1="330.1" y1="149.3" x2="344.1" y2="149.3" stroke="rgb(0,0,0)"  stroke-width="2.0"/>
<line x1="317.1" y1="189.3" x2="344.1" y2="189.3" stroke="rgb(0,0,0)"  stroke-width="2.0"/>
<line x1="317.1" y1="189.3" x2="330.6" y2="212.7" stroke="rgb(0,0,0)"  stroke-width="2.0"/>
<line x1="282.5" y1="209.3" x2="296.0" y2="232.7" stroke="rgb(0,0,0)"  stroke-width="2.0"/>
<line x1="282.5" y1="209.3" x2="269.0" y2="232.7" stroke="rgb(0,0,0)"  stroke-width="2.0"/>
<line x1="337.1" y1="114.6" x2="317.1" y2="80.0" stroke="rgb(0,0,0)"  stroke-width="2.0"/>
<line x1="337.1" y1="114.6" x2="360.5" y2="101.1" stroke="rgb(0,0,0)"  stroke-width="2.0"/>
<line x1="337.1" y1="114.6" x2="360.5" y2="128.1" stroke="rgb(0,0,0)"  stroke-width="2.0"/>
<line x1="317.1" y1="80.0" x2="290.1" y2="80.0" stroke="rgb(0,0,0)"  stroke-width="2.0"/>
<line x1="317.1" y1="80.0" x2="317.1" y2="53.0" stroke="rgb(0,0,0)"  stroke-width="2.0"/>
<line x1="317.1" y1="80.0" x2="340.5" y2="66.5" stroke="rgb(0,0,0)"  stroke-width="2.0"/>
<line x1="270.6" y1="68.7" x2="263.6" y2="56.6" stroke="rgb(0,0,0)"  stroke-width="2.0"/>
<line x1="143.9" y1="209.3" x2="109.3" y2="189.3" stroke="rgb(0,0,0)"  stroke-width="2.0"/>
<line x1="109.3" y1="189.3" x2="86.1" y2="202.7" stroke="rgb(0,0,0)"  stroke-width="2.0"/>
<line x1="107.7" y1="198.5" x2="91.4" y2="207.9" stroke="rgb(0,0,0)"  stroke-width="2.0"/>
<line x1="74.6" y1="222.3" x2="74.6" y2="249.3" stroke="rgb(0,0,0)"  stroke-width="2.0"/>
<line x1="74.6" y1="249.3" x2="109.3" y2="269.3" stroke="rgb(0,0,0)"  stroke-width="2.0"/>
<line x1="83.4" y1="246.0" x2="107.7" y2="260.0" stroke="rgb(0,0,0)"  stroke-width="2.0"/>
<line x1="109.3" y1="269.3" x2="143.9" y2="249.3" stroke="rgb(0,0,0)"  stroke-width="2.0"/>
<line x1="143.9" y1="249.3" x2="143.9" y2="209.3" stroke="rgb(0,0,0)"  stroke-width="2.0"/>
<line x1="136.7" y1="243.3" x2="136.7" y2="215.3" stroke="rgb(0,0,0)"  stroke-width="2.0"/>
<line x1="143.9" y1="129.3" x2="109.3" y2="149.3" stroke="rgb(0,0,0)"  stroke-width="2.0"/>
<line x1="142.3" y1="138.5" x2="118.1" y2="152.5" stroke="rgb(0,0,0)"  stroke-width="2.0"/>
<line x1="109.3" y1="149.3" x2="109.3" y2="189.3" stroke="rgb(0,0,0)"  stroke-width="2.0"/>
<line x1="143.9" y1="209.3" x2="178.6" y2="189.3" stroke="rgb(0,0,0)"  stroke-width="2.0"/>
<line x1="178.6" y1="189.3" x2="178.6" y2="149.3" stroke="rgb(0,0,0)"  stroke-width="2.0"/>
<line x1="171.4" y1="183.3" x2="171.4" y2="155.3" stroke="rgb(0,0,0)"  stroke-width="2.0"/>
<line x1="178.6" y1="149.3" x2="143.9" y2="129.3" stroke="rgb(0,0,0)"  stroke-width="2.0"/>
<line x1="282.5" y1="129.3" x2="305.9" y2="142.8" stroke="rgb(0,0,0)"  stroke-width="2.0"/>
<line x1="317.1" y1="162.3" x2="317.1" y2="189.3" stroke="rgb(0,0,0)"  stroke-width="2.0"/>
<line x1="317.1" y1="189.3" x2="282.5" y2="209.3" stroke="rgb(0,0,0)"  stroke-width="2.0"/>
<line x1="282.5" y1="209.3" x2="259.1" y2="195.8" stroke="rgb(0,0,0)"  stroke-width="2.0"/>
<line x1="247.8" y1="176.3" x2="247.8" y2="149.3" stroke="rgb(0,0,0)"  stroke-width="2.0"/>
<line x1="247.8" y1="149.3" x2="282.5" y2="129.3" stroke="rgb(0,0,0)"  stroke-width="2.0"/>
<text x="296.487113" y="102.641016" fill="rgb(191,191,191)"  stroke="rgb(191,191,191)" stroke-width="1" font-size="16" >H</text>
<text x="172.564065" y="277.282032" fill="rgb(191,191,191)"  stroke="rgb(191,191,191)" stroke-width="1" font-size="16" >H</text>
<text x="207.205081" y="137.282032" fill="rgb(191,191,191)"  stroke="rgb(191,191,191)" stroke-width="1" font-size="16" >H</text>
<text x="137.923048" y="97.282032" fill="rgb(191,191,191)"  stroke="rgb(191,191,191)" stroke-width="1" font-size="16" >H</text>
<text x="34.000000" y="277.282032" fill="rgb(191,191,191)"  stroke="rgb(191,191,191)" stroke-width="1" font-size="16" >H</text>
<text x="68.641016" y="97.282032" fill="rgb(191,191,191)"  stroke="rgb(191,191,191)" stroke-width="1" font-size="16" >H</text>
<text x="227.205081" y="251.923048" fill="rgb(191,191,191)"  stroke="rgb(191,191,191)" stroke-width="1" font-size="16" >H</text>
<text x="187.205081" y="251.923048" fill="rgb(191,191,191)"  stroke="rgb(191,191,191)" stroke-width="1" font-size="16" >H</text>
<text x="201.846097" y="157.282032" fill="rgb(191,191,191)"  stroke="rgb(191,191,191)" stroke-width="1" font-size="16" >H</text>
<text x="221.846097" y="122.641016" fill="rgb(191,191,191)"  stroke="rgb(191,191,191)" stroke-width="1" font-size="16" >H</text>
<text x="256.487113" y="102.641016" fill="rgb(191,191,191)"  stroke="rgb(191,191,191)" stroke-width="1" font-size="16" >H</text>
<text x="103.282032" y="317.282032" fill="rgb(191,191,191)"  stroke="rgb(191,191,191)" stroke-width="1" font-size="16" >H</text>
<text x="351.128129" y="197.282032" fill="rgb(191,191,191)"  stroke="rgb(191,191,191)" stroke-width="1" font-size="16" >H</text>
<text x="331.128129" y="231.923048" fill="rgb(191,191,191)"  stroke="rgb(191,191,191)" stroke-width="1" font-size="16" >H</text>
<text x="296.487113" y="251.923048" fill="rgb(191,191,191)"  stroke="rgb(191,191,191)" stroke-width="1" font-size="16" >H</text>
<text x="256.487113" y="251.923048" fill="rgb(191,191,191)"  stroke="rgb(191,191,191)" stroke-width="1" font-size="16" >H</text>
<text x="365.769145" y="102.641016" fill="rgb(191,191,191)"  stroke="rgb(191,191,191)" stroke-width="1" font-size="16" >H</text>
<text x="365.769145" y="142.641016" fill="rgb(191,191,191)"  stroke="rgb(191,191,191)" stroke-width="1" font-size="16" >H</text>
<text x="311.128129" y="48.000000" fill="rgb(191,191,191)"  stroke="rgb(191,191,191)" stroke-width="1" font-size="16" >H</text>
<text x="345.769145" y="68.000000" fill="rgb(191,191,191)"  stroke="rgb(191,191,191)" stroke-width="1" font-size="16" >H</text>
<text x="251.128129" y="53.358984" fill="rgb(191,191,191)"  stroke="rgb(191,191,191)" stroke-width="1" font-size="16" >H</text>
<text x="351.128129" y="157.282032" fill="rgb(191,191,191)"  stroke="rgb(191,191,191)" stroke-width="1" font-size="16" >H</text>
<text x="68.641016" y="217.282032" fill="rgb(12,12,255)"  stroke="rgb(12,12,255)" stroke-width="1" font-size="16" >N</text>
<text x="68.641016" y="137.282032" fill="rgb(255,12,12)"  stroke="rgb(255,12,12)" stroke-width="1" font-size="16" >O</text>
<text x="241.846097" y="197.282032" fill="rgb(12,12,255)"  stroke="rgb(12,12,255)" stroke-width="1" font-size="16" >N</text>
<text x="321.928129" y="145.250032" fill="rgb(12,12,255)"  stroke="rgb(12,12,255)" stroke-width="1" font-size="16" >+</text>
<text x="311.128129" y="157.282032" fill="rgb(12,12,255)"  stroke="rgb(12,12,255)" stroke-width="1" font-size="16" >N</text>
<text x="271.128129" y="88.000000" fill="rgb(255,12,12)"  stroke="rgb(255,12,12)" stroke-width="1" font-size="16" >O</text>
</svg>
</g>
<text font-size="18.000000" fill ="black" font-family="sans-serif"
x="10.000000" y="20.000000" >ZINC22450566</text>
</svg>
