<?xml version="1.0"?>
<svg version="1.1" id="topsvg"
xmlns="http://www.w3.org/2000/svg" xmlns:xlink="http://www.w3.org/1999/xlink"
xmlns:cml="http://www.xml-cml.org/schema" x="0" y="0" width="200px" height="200px" viewBox="0 0 100 100">
<title>ZINC23093888 - Open Babel Depiction</title>
<rect x="0" y="0" width="100" height="100" fill="white"/>
<g transform="translate(0,0)">
<svg width="100" height="100" x="0" y="0" viewBox="0 0 397.128 274.641"
font-family="sans-serif" stroke="rgb(0,0,0)" stroke-width="2"  stroke-linecap="round">
<line x1="322.5" y1="134.6" x2="345.9" y2="121.1" stroke="rgb(0,0,0)"  stroke-width="2.0"/>
<line x1="287.8" y1="114.6" x2="287.8" y2="87.6" stroke="rgb(0,0,0)"  stroke-width="2.0"/>
<line x1="253.2" y1="134.6" x2="229.8" y2="121.1" stroke="rgb(0,0,0)"  stroke-width="2.0"/>
<line x1="253.2" y1="174.6" x2="218.6" y2="194.6" stroke="rgb(0,0,0)"  stroke-width="2.0"/>
<line x1="287.8" y1="194.6" x2="287.8" y2="221.6" stroke="rgb(0,0,0)"  stroke-width="2.0"/>
<line x1="322.5" y1="174.6" x2="345.9" y2="188.1" stroke="rgb(0,0,0)"  stroke-width="2.0"/>
<line x1="218.6" y1="194.6" x2="195.2" y2="181.1" stroke="rgb(0,0,0)"  stroke-width="2.0"/>
<line x1="218.6" y1="194.6" x2="205.1" y2="218.0" stroke="rgb(0,0,0)"  stroke-width="2.0"/>
<line x1="218.6" y1="194.6" x2="232.1" y2="218.0" stroke="rgb(0,0,0)"  stroke-width="2.0"/>
<line x1="183.9" y1="134.6" x2="210.9" y2="134.6" stroke="rgb(0,0,0)"  stroke-width="2.0"/>
<line x1="183.9" y1="134.6" x2="197.4" y2="111.3" stroke="rgb(0,0,0)"  stroke-width="2.0"/>
<line x1="149.3" y1="114.6" x2="162.8" y2="91.3" stroke="rgb(0,0,0)"  stroke-width="2.0"/>
<line x1="149.3" y1="114.6" x2="135.8" y2="91.3" stroke="rgb(0,0,0)"  stroke-width="2.0"/>
<line x1="103.4" y1="128.1" x2="80.0" y2="114.6" stroke="rgb(0,0,0)"  stroke-width="2.0"/>
<line x1="114.6" y1="174.6" x2="87.6" y2="174.6" stroke="rgb(0,0,0)"  stroke-width="2.0"/>
<line x1="114.6" y1="174.6" x2="101.1" y2="198.0" stroke="rgb(0,0,0)"  stroke-width="2.0"/>
<line x1="149.3" y1="194.6" x2="135.8" y2="218.0" stroke="rgb(0,0,0)"  stroke-width="2.0"/>
<line x1="149.3" y1="194.6" x2="162.8" y2="218.0" stroke="rgb(0,0,0)"  stroke-width="2.0"/>
<line x1="80.0" y1="114.6" x2="80.0" y2="74.6" stroke="rgb(0,0,0)"  stroke-width="2.0"/>
<line x1="80.0" y1="114.6" x2="53.0" y2="114.6" stroke="rgb(0,0,0)"  stroke-width="2.0"/>
<line x1="80.0" y1="114.6" x2="66.5" y2="138.0" stroke="rgb(0,0,0)"  stroke-width="2.0"/>
<line x1="80.0" y1="74.6" x2="66.5" y2="51.3" stroke="rgb(0,0,0)"  stroke-width="2.0"/>
<line x1="80.0" y1="74.6" x2="53.0" y2="74.6" stroke="rgb(0,0,0)"  stroke-width="2.0"/>
<line x1="80.0" y1="74.6" x2="103.4" y2="61.1" stroke="rgb(0,0,0)"  stroke-width="2.0"/>
<line x1="253.2" y1="134.6" x2="253.2" y2="174.6" stroke="rgb(0,0,0)"  stroke-width="2.0"/>
<line x1="253.2" y1="174.6" x2="287.8" y2="194.6" stroke="rgb(0,0,0)"  stroke-width="2.0"/>
<line x1="262.0" y1="171.4" x2="286.2" y2="185.4" stroke="rgb(0,0,0)"  stroke-width="2.0"/>
<line x1="287.8" y1="194.6" x2="322.5" y2="174.6" stroke="rgb(0,0,0)"  stroke-width="2.0"/>
<line x1="322.5" y1="174.6" x2="322.5" y2="134.6" stroke="rgb(0,0,0)"  stroke-width="2.0"/>
<line x1="315.3" y1="168.6" x2="315.3" y2="140.6" stroke="rgb(0,0,0)"  stroke-width="2.0"/>
<line x1="322.5" y1="134.6" x2="287.8" y2="114.6" stroke="rgb(0,0,0)"  stroke-width="2.0"/>
<line x1="287.8" y1="114.6" x2="253.2" y2="134.6" stroke="rgb(0,0,0)"  stroke-width="2.0"/>
<line x1="286.2" y1="123.9" x2="262.0" y2="137.9" stroke="rgb(0,0,0)"  stroke-width="2.0"/>
<line x1="149.3" y1="114.6" x2="125.9" y2="128.1" stroke="rgb(0,0,0)"  stroke-width="2.0"/>
<line x1="114.6" y1="147.6" x2="114.6" y2="174.6" stroke="rgb(0,0,0)"  stroke-width="2.0"/>
<line x1="114.6" y1="174.6" x2="149.3" y2="194.6" stroke="rgb(0,0,0)"  stroke-width="2.0"/>
<line x1="149.3" y1="194.6" x2="172.7" y2="181.1" stroke="rgb(0,0,0)"  stroke-width="2.0"/>
<line x1="183.9" y1="161.6" x2="183.9" y2="134.6" stroke="rgb(0,0,0)"  stroke-width="2.0"/>
<line x1="183.9" y1="134.6" x2="149.3" y2="114.6" stroke="rgb(0,0,0)"  stroke-width="2.0"/>
<text x="123.282032" y="88.000000" fill="rgb(191,191,191)"  stroke="rgb(191,191,191)" stroke-width="1" font-size="16" >H</text>
<text x="212.564065" y="122.641016" fill="rgb(191,191,191)"  stroke="rgb(191,191,191)" stroke-width="1" font-size="16" >H</text>
<text x="281.846097" y="242.641016" fill="rgb(191,191,191)"  stroke="rgb(191,191,191)" stroke-width="1" font-size="16" >H</text>
<text x="351.128129" y="202.641016" fill="rgb(191,191,191)"  stroke="rgb(191,191,191)" stroke-width="1" font-size="16" >H</text>
<text x="192.564065" y="237.282032" fill="rgb(191,191,191)"  stroke="rgb(191,191,191)" stroke-width="1" font-size="16" >H</text>
<text x="232.564065" y="237.282032" fill="rgb(191,191,191)"  stroke="rgb(191,191,191)" stroke-width="1" font-size="16" >H</text>
<text x="217.923048" y="142.641016" fill="rgb(191,191,191)"  stroke="rgb(191,191,191)" stroke-width="1" font-size="16" >H</text>
<text x="197.923048" y="108.000000" fill="rgb(191,191,191)"  stroke="rgb(191,191,191)" stroke-width="1" font-size="16" >H</text>
<text x="163.282032" y="88.000000" fill="rgb(191,191,191)"  stroke="rgb(191,191,191)" stroke-width="1" font-size="16" >H</text>
<text x="281.846097" y="82.641016" fill="rgb(191,191,191)"  stroke="rgb(191,191,191)" stroke-width="1" font-size="16" >H</text>
<text x="68.641016" y="182.641016" fill="rgb(191,191,191)"  stroke="rgb(191,191,191)" stroke-width="1" font-size="16" >H</text>
<text x="88.641016" y="217.282032" fill="rgb(191,191,191)"  stroke="rgb(191,191,191)" stroke-width="1" font-size="16" >H</text>
<text x="123.282032" y="237.282032" fill="rgb(191,191,191)"  stroke="rgb(191,191,191)" stroke-width="1" font-size="16" >H</text>
<text x="163.282032" y="237.282032" fill="rgb(191,191,191)"  stroke="rgb(191,191,191)" stroke-width="1" font-size="16" >H</text>
<text x="34.000000" y="122.641016" fill="rgb(191,191,191)"  stroke="rgb(191,191,191)" stroke-width="1" font-size="16" >H</text>
<text x="54.000000" y="157.282032" fill="rgb(191,191,191)"  stroke="rgb(191,191,191)" stroke-width="1" font-size="16" >H</text>
<text x="34.000000" y="82.641016" fill="rgb(191,191,191)"  stroke="rgb(191,191,191)" stroke-width="1" font-size="16" >H</text>
<text x="108.641016" y="62.641016" fill="rgb(191,191,191)"  stroke="rgb(191,191,191)" stroke-width="1" font-size="16" >H</text>
<text x="177.923048" y="182.641016" fill="rgb(12,12,255)"  stroke="rgb(12,12,255)" stroke-width="1" font-size="16" >N</text>
<text x="108.641016" y="142.641016" fill="rgb(12,12,255)"  stroke="rgb(12,12,255)" stroke-width="1" font-size="16" >N</text>
<text x="42.000000" y="48.000000" fill="rgb(30,239,30)"  stroke="rgb(30,239,30)" stroke-width="1" font-size="16" >Cl</text>
<text x="351.128129" y="122.641016" fill="rgb(191,191,191)"  stroke="rgb(191,191,191)" stroke-width="1" font-size="16" >H</text>
</svg>
</g>
<text font-size="18.000000" fill ="black" font-family="sans-serif"
x="10.000000" y="20.000000" >ZINC23093888</text>
</svg>
