<?xml version="1.0"?>
<svg version="1.1" id="topsvg"
xmlns="http://www.w3.org/2000/svg" xmlns:xlink="http://www.w3.org/1999/xlink"
xmlns:cml="http://www.xml-cml.org/schema" x="0" y="0" width="200px" height="200px" viewBox="0 0 100 100">
<title>ZINC00065263 - Open Babel Depiction</title>
<rect x="0" y="0" width="100" height="100" fill="white"/>
<g transform="translate(0,0)">
<svg width="100" height="100" x="0" y="0" viewBox="0 0 360.118 274.641"
font-family="sans-serif" stroke="rgb(0,0,0)" stroke-width="2"  stroke-linecap="round">
<line x1="280.1" y1="194.6" x2="245.5" y2="174.6" stroke="rgb(0,0,0)"  stroke-width="2.0"/>
<line x1="280.1" y1="194.6" x2="307.1" y2="194.6" stroke="rgb(0,0,0)"  stroke-width="2.0"/>
<line x1="280.1" y1="194.6" x2="293.6" y2="171.3" stroke="rgb(0,0,0)"  stroke-width="2.0"/>
<line x1="280.1" y1="194.6" x2="280.1" y2="221.6" stroke="rgb(0,0,0)"  stroke-width="2.0"/>
<line x1="245.5" y1="134.6" x2="268.9" y2="121.1" stroke="rgb(0,0,0)"  stroke-width="2.0"/>
<line x1="210.8" y1="114.6" x2="210.8" y2="74.6" stroke="rgb(0,0,0)"  stroke-width="2.0"/>
<line x1="138.2" y1="122.3" x2="129.8" y2="96.6" stroke="rgb(0,0,0)"  stroke-width="2.0"/>
<line x1="114.6" y1="154.6" x2="74.6" y2="154.6" stroke="rgb(0,0,0)"  stroke-width="2.0"/>
<line x1="74.6" y1="154.6" x2="51.3" y2="168.1" stroke="rgb(0,0,0)"  stroke-width="2.0"/>
<line x1="74.6" y1="154.6" x2="74.6" y2="181.6" stroke="rgb(0,0,0)"  stroke-width="2.0"/>
<line x1="74.6" y1="154.6" x2="61.1" y2="131.3" stroke="rgb(0,0,0)"  stroke-width="2.0"/>
<line x1="210.8" y1="74.6" x2="197.3" y2="51.3" stroke="rgb(0,0,0)"  stroke-width="2.0"/>
<line x1="210.8" y1="74.6" x2="183.8" y2="74.6" stroke="rgb(0,0,0)"  stroke-width="2.0"/>
<line x1="210.8" y1="74.6" x2="234.2" y2="61.1" stroke="rgb(0,0,0)"  stroke-width="2.0"/>
<line x1="134.1" y1="199.4" x2="129.8" y2="212.7" stroke="rgb(0,0,0)"  stroke-width="2.0"/>
<line x1="114.6" y1="154.6" x2="130.5" y2="176.5" stroke="rgb(0,0,0)"  stroke-width="2.0"/>
<line x1="150.7" y1="182.9" x2="176.2" y2="174.6" stroke="rgb(0,0,0)"  stroke-width="2.0"/>
<line x1="150.4" y1="175.5" x2="168.3" y2="169.6" stroke="rgb(0,0,0)"  stroke-width="2.0"/>
<line x1="176.2" y1="174.6" x2="176.2" y2="147.6" stroke="rgb(0,0,0)"  stroke-width="2.0"/>
<line x1="163.8" y1="130.6" x2="138.2" y2="122.3" stroke="rgb(0,0,0)"  stroke-width="2.0"/>
<line x1="138.2" y1="122.3" x2="114.6" y2="154.6" stroke="rgb(0,0,0)"  stroke-width="2.0"/>
<line x1="140.5" y1="131.4" x2="124.0" y2="154.0" stroke="rgb(0,0,0)"  stroke-width="2.0"/>
<line x1="210.8" y1="114.6" x2="187.5" y2="128.1" stroke="rgb(0,0,0)"  stroke-width="2.0"/>
<line x1="176.2" y1="174.6" x2="199.6" y2="188.1" stroke="rgb(0,0,0)"  stroke-width="2.0"/>
<line x1="222.3" y1="188.0" x2="245.5" y2="174.6" stroke="rgb(0,0,0)"  stroke-width="2.0"/>
<line x1="220.4" y1="180.8" x2="236.7" y2="171.4" stroke="rgb(0,0,0)"  stroke-width="2.0"/>
<line x1="245.5" y1="174.6" x2="245.5" y2="134.6" stroke="rgb(0,0,0)"  stroke-width="2.0"/>
<line x1="245.5" y1="134.6" x2="210.8" y2="114.6" stroke="rgb(0,0,0)"  stroke-width="2.0"/>
<line x1="236.7" y1="137.9" x2="212.4" y2="123.9" stroke="rgb(0,0,0)"  stroke-width="2.0"/>
<text x="314.117735" y="202.641016" fill="rgb(191,191,191)"  stroke="rgb(191,191,191)" stroke-width="1" font-size="16" >H</text>
<text x="119.791746" y="233.043957" fill="rgb(191,191,191)"  stroke="rgb(191,191,191)" stroke-width="1" font-size="16" >H</text>
<text x="132.152426" y="195.001696" fill="rgb(12,12,255)"  stroke="rgb(12,12,255)" stroke-width="1" font-size="16" >N</text>
<text x="239.476719" y="62.641016" fill="rgb(191,191,191)"  stroke="rgb(191,191,191)" stroke-width="1" font-size="16" >H</text>
<text x="164.835703" y="82.641016" fill="rgb(191,191,191)"  stroke="rgb(191,191,191)" stroke-width="1" font-size="16" >H</text>
<text x="184.835703" y="48.000000" fill="rgb(191,191,191)"  stroke="rgb(191,191,191)" stroke-width="1" font-size="16" >H</text>
<text x="48.641016" y="128.000000" fill="rgb(191,191,191)"  stroke="rgb(191,191,191)" stroke-width="1" font-size="16" >H</text>
<text x="68.641016" y="202.641016" fill="rgb(191,191,191)"  stroke="rgb(191,191,191)" stroke-width="1" font-size="16" >H</text>
<text x="119.791746" y="92.238076" fill="rgb(191,191,191)"  stroke="rgb(191,191,191)" stroke-width="1" font-size="16" >H</text>
<text x="274.117735" y="122.641016" fill="rgb(191,191,191)"  stroke="rgb(191,191,191)" stroke-width="1" font-size="16" >H</text>
<text x="274.117735" y="242.641016" fill="rgb(191,191,191)"  stroke="rgb(191,191,191)" stroke-width="1" font-size="16" >H</text>
<text x="294.117735" y="168.000000" fill="rgb(191,191,191)"  stroke="rgb(191,191,191)" stroke-width="1" font-size="16" >H</text>
<text x="22.000000" y="182.641016" fill="rgb(30,239,30)"  stroke="rgb(30,239,30)" stroke-width="1" font-size="16" >Cl</text>
<text x="204.835703" y="202.641016" fill="rgb(12,12,255)"  stroke="rgb(12,12,255)" stroke-width="1" font-size="16" >N</text>
<text x="170.194687" y="142.641016" fill="rgb(12,12,255)"  stroke="rgb(12,12,255)" stroke-width="1" font-size="16" >N</text>
</svg>
</g>
<text font-size="18.000000" fill ="black" font-family="sans-serif"
x="10.000000" y="20.000000" >ZINC00065263</text>
</svg>
