<?xml version="1.0"?>
<svg version="1.1" id="topsvg"
xmlns="http://www.w3.org/2000/svg" xmlns:xlink="http://www.w3.org/1999/xlink"
xmlns:cml="http://www.xml-cml.org/schema" x="0" y="0" width="200px" height="200px" viewBox="0 0 100 100">
<title>ZINC19363644 - Open Babel Depiction</title>
<rect x="0" y="0" width="100" height="100" fill="white"/>
<g transform="translate(0,0)">
<svg width="100" height="100" x="0" y="0" viewBox="0 0 353.205 238.564"
font-family="sans-serif" stroke="rgb(0,0,0)" stroke-width="2"  stroke-linecap="round">
<line x1="183.9" y1="154.6" x2="170.4" y2="178.0" stroke="rgb(0,0,0)"  stroke-width="2.0"/>
<line x1="183.9" y1="154.6" x2="197.4" y2="178.0" stroke="rgb(0,0,0)"  stroke-width="2.0"/>
<line x1="218.6" y1="134.6" x2="232.1" y2="158.0" stroke="rgb(0,0,0)"  stroke-width="2.0"/>
<line x1="218.6" y1="134.6" x2="245.6" y2="134.6" stroke="rgb(0,0,0)"  stroke-width="2.0"/>
<line x1="231.6" y1="94.6" x2="258.6" y2="94.6" stroke="rgb(0,0,0)"  stroke-width="2.0"/>
<line x1="225.1" y1="83.4" x2="232.1" y2="71.3" stroke="rgb(0,0,0)"  stroke-width="2.0"/>
<line x1="183.9" y1="74.6" x2="197.4" y2="51.3" stroke="rgb(0,0,0)"  stroke-width="2.0"/>
<line x1="183.9" y1="74.6" x2="170.4" y2="51.3" stroke="rgb(0,0,0)"  stroke-width="2.0"/>
<line x1="149.3" y1="94.6" x2="135.8" y2="71.3" stroke="rgb(0,0,0)"  stroke-width="2.0"/>
<line x1="149.3" y1="94.6" x2="122.3" y2="94.6" stroke="rgb(0,0,0)"  stroke-width="2.0"/>
<line x1="138.0" y1="141.1" x2="114.6" y2="154.6" stroke="rgb(0,0,0)"  stroke-width="2.0"/>
<line x1="114.6" y1="154.6" x2="80.0" y2="134.6" stroke="rgb(0,0,0)"  stroke-width="2.0"/>
<line x1="114.6" y1="154.6" x2="101.1" y2="178.0" stroke="rgb(0,0,0)"  stroke-width="2.0"/>
<line x1="114.6" y1="154.6" x2="128.1" y2="178.0" stroke="rgb(0,0,0)"  stroke-width="2.0"/>
<line x1="80.0" y1="134.6" x2="80.0" y2="107.6" stroke="rgb(0,0,0)"  stroke-width="2.0"/>
<line x1="80.0" y1="134.6" x2="53.0" y2="134.6" stroke="rgb(0,0,0)"  stroke-width="2.0"/>
<line x1="80.0" y1="134.6" x2="66.5" y2="158.0" stroke="rgb(0,0,0)"  stroke-width="2.0"/>
<line x1="91.3" y1="88.1" x2="103.4" y2="81.1" stroke="rgb(0,0,0)"  stroke-width="2.0"/>
<line x1="258.6" y1="94.6" x2="278.6" y2="129.3" stroke="rgb(0,0,0)"  stroke-width="2.0"/>
<line x1="258.6" y1="94.6" x2="281.9" y2="81.1" stroke="rgb(0,0,0)"  stroke-width="2.0"/>
<line x1="258.6" y1="94.6" x2="258.6" y2="67.6" stroke="rgb(0,0,0)"  stroke-width="2.0"/>
<line x1="278.6" y1="129.3" x2="265.1" y2="152.7" stroke="rgb(0,0,0)"  stroke-width="2.0"/>
<line x1="278.6" y1="129.3" x2="301.9" y2="142.8" stroke="rgb(0,0,0)"  stroke-width="2.0"/>
<line x1="278.6" y1="129.3" x2="301.9" y2="115.8" stroke="rgb(0,0,0)"  stroke-width="2.0"/>
<line x1="265.1" y1="175.2" x2="272.1" y2="187.3" stroke="rgb(0,0,0)"  stroke-width="2.0"/>
<line x1="207.3" y1="88.1" x2="183.9" y2="74.6" stroke="rgb(0,0,0)"  stroke-width="2.0"/>
<line x1="183.9" y1="74.6" x2="149.3" y2="94.6" stroke="rgb(0,0,0)"  stroke-width="2.0"/>
<line x1="149.3" y1="94.6" x2="149.3" y2="121.6" stroke="rgb(0,0,0)"  stroke-width="2.0"/>
<line x1="160.5" y1="141.1" x2="183.9" y2="154.6" stroke="rgb(0,0,0)"  stroke-width="2.0"/>
<line x1="183.9" y1="154.6" x2="218.6" y2="134.6" stroke="rgb(0,0,0)"  stroke-width="2.0"/>
<line x1="218.6" y1="134.6" x2="218.6" y2="107.6" stroke="rgb(0,0,0)"  stroke-width="2.0"/>
<text x="252.564065" y="142.641016" fill="rgb(191,191,191)"  stroke="rgb(191,191,191)" stroke-width="1" font-size="16" >H</text>
<text x="232.564065" y="68.000000" fill="rgb(191,191,191)"  stroke="rgb(191,191,191)" stroke-width="1" font-size="16" >H</text>
<text x="272.564065" y="206.564065" fill="rgb(191,191,191)"  stroke="rgb(191,191,191)" stroke-width="1" font-size="16" >H</text>
<text x="307.205081" y="117.282032" fill="rgb(191,191,191)"  stroke="rgb(191,191,191)" stroke-width="1" font-size="16" >H</text>
<text x="307.205081" y="157.282032" fill="rgb(191,191,191)"  stroke="rgb(191,191,191)" stroke-width="1" font-size="16" >H</text>
<text x="252.564065" y="62.641016" fill="rgb(191,191,191)"  stroke="rgb(191,191,191)" stroke-width="1" font-size="16" >H</text>
<text x="287.205081" y="82.641016" fill="rgb(191,191,191)"  stroke="rgb(191,191,191)" stroke-width="1" font-size="16" >H</text>
<text x="108.641016" y="82.641016" fill="rgb(191,191,191)"  stroke="rgb(191,191,191)" stroke-width="1" font-size="16" >H</text>
<text x="54.000000" y="177.282032" fill="rgb(191,191,191)"  stroke="rgb(191,191,191)" stroke-width="1" font-size="16" >H</text>
<text x="34.000000" y="142.641016" fill="rgb(191,191,191)"  stroke="rgb(191,191,191)" stroke-width="1" font-size="16" >H</text>
<text x="128.641016" y="197.282032" fill="rgb(191,191,191)"  stroke="rgb(191,191,191)" stroke-width="1" font-size="16" >H</text>
<text x="88.641016" y="197.282032" fill="rgb(191,191,191)"  stroke="rgb(191,191,191)" stroke-width="1" font-size="16" >H</text>
<text x="103.282032" y="102.641016" fill="rgb(191,191,191)"  stroke="rgb(191,191,191)" stroke-width="1" font-size="16" >H</text>
<text x="123.282032" y="68.000000" fill="rgb(191,191,191)"  stroke="rgb(191,191,191)" stroke-width="1" font-size="16" >H</text>
<text x="157.923048" y="48.000000" fill="rgb(191,191,191)"  stroke="rgb(191,191,191)" stroke-width="1" font-size="16" >H</text>
<text x="197.923048" y="48.000000" fill="rgb(191,191,191)"  stroke="rgb(191,191,191)" stroke-width="1" font-size="16" >H</text>
<text x="232.564065" y="177.282032" fill="rgb(191,191,191)"  stroke="rgb(191,191,191)" stroke-width="1" font-size="16" >H</text>
<text x="197.923048" y="197.282032" fill="rgb(191,191,191)"  stroke="rgb(191,191,191)" stroke-width="1" font-size="16" >H</text>
<text x="157.923048" y="197.282032" fill="rgb(191,191,191)"  stroke="rgb(191,191,191)" stroke-width="1" font-size="16" >H</text>
<text x="252.564065" y="171.923048" fill="rgb(255,12,12)"  stroke="rgb(255,12,12)" stroke-width="1" font-size="16" >O</text>
<text x="74.000000" y="102.641016" fill="rgb(255,12,12)"  stroke="rgb(255,12,12)" stroke-width="1" font-size="16" >O</text>
<text x="143.282032" y="142.641016" fill="rgb(12,12,255)"  stroke="rgb(12,12,255)" stroke-width="1" font-size="16" >N</text>
<text x="223.364065" y="90.609016" fill="rgb(12,12,255)"  stroke="rgb(12,12,255)" stroke-width="1" font-size="16" >+</text>
<text x="212.564065" y="102.641016" fill="rgb(12,12,255)"  stroke="rgb(12,12,255)" stroke-width="1" font-size="16" >N</text>
</svg>
</g>
<text font-size="18.000000" fill ="black" font-family="sans-serif"
x="10.000000" y="20.000000" >ZINC19363644</text>
</svg>
