<?xml version="1.0"?>
<svg version="1.1" id="topsvg"
xmlns="http://www.w3.org/2000/svg" xmlns:xlink="http://www.w3.org/1999/xlink"
xmlns:cml="http://www.xml-cml.org/schema" x="0" y="0" width="200px" height="200px" viewBox="0 0 100 100">
<title>ZINC00404262 - Open Babel Depiction</title>
<rect x="0" y="0" width="100" height="100" fill="white"/>
<g transform="translate(0,0)">
<svg width="100" height="100" x="0" y="0" viewBox="0 0 343.249 303.779"
font-family="sans-serif" stroke="rgb(0,0,0)" stroke-width="2"  stroke-linecap="round">
<line x1="69.7" y1="225.7" x2="107.8" y2="213.4" stroke="rgb(0,0,0)"  stroke-width="2.0"/>
<line x1="69.7" y1="225.7" x2="51.7" y2="245.8" stroke="rgb(0,0,0)"  stroke-width="2.0"/>
<line x1="69.7" y1="225.7" x2="78.1" y2="251.4" stroke="rgb(0,0,0)"  stroke-width="2.0"/>
<line x1="69.7" y1="225.7" x2="49.7" y2="207.7" stroke="rgb(0,0,0)"  stroke-width="2.0"/>
<line x1="109.8" y1="211.1" x2="129.8" y2="229.2" stroke="rgb(0,0,0)"  stroke-width="2.0"/>
<line x1="105.8" y1="215.6" x2="125.8" y2="233.7" stroke="rgb(0,0,0)"  stroke-width="2.0"/>
<line x1="107.8" y1="213.4" x2="113.4" y2="187.0" stroke="rgb(0,0,0)"  stroke-width="2.0"/>
<line x1="128.4" y1="170.2" x2="154.1" y2="161.9" stroke="rgb(0,0,0)"  stroke-width="2.0"/>
<line x1="106.4" y1="165.6" x2="96.0" y2="156.2" stroke="rgb(0,0,0)"  stroke-width="2.0"/>
<line x1="154.1" y1="161.9" x2="162.4" y2="122.8" stroke="rgb(0,0,0)"  stroke-width="2.0"/>
<line x1="154.1" y1="161.9" x2="180.5" y2="167.5" stroke="rgb(0,0,0)"  stroke-width="2.0"/>
<line x1="154.1" y1="161.9" x2="162.5" y2="187.6" stroke="rgb(0,0,0)"  stroke-width="2.0"/>
<line x1="162.4" y1="122.8" x2="200.5" y2="110.4" stroke="rgb(0,0,0)"  stroke-width="2.0"/>
<line x1="162.4" y1="122.8" x2="154.1" y2="97.1" stroke="rgb(0,0,0)"  stroke-width="2.0"/>
<line x1="162.4" y1="122.8" x2="136.0" y2="117.2" stroke="rgb(0,0,0)"  stroke-width="2.0"/>
<line x1="232.8" y1="133.9" x2="232.8" y2="160.9" stroke="rgb(0,0,0)"  stroke-width="2.0"/>
<line x1="277.6" y1="114.4" x2="290.9" y2="118.7" stroke="rgb(0,0,0)"  stroke-width="2.0"/>
<line x1="252.8" y1="72.4" x2="268.7" y2="50.5" stroke="rgb(0,0,0)"  stroke-width="2.0"/>
<line x1="261.2" y1="98.0" x2="252.8" y2="72.4" stroke="rgb(0,0,0)"  stroke-width="2.0"/>
<line x1="252.8" y1="72.4" x2="226.0" y2="72.4" stroke="rgb(0,0,0)"  stroke-width="2.0"/>
<line x1="246.8" y1="79.6" x2="228.0" y2="79.6" stroke="rgb(0,0,0)"  stroke-width="2.0"/>
<line x1="208.8" y1="84.7" x2="200.5" y2="110.4" stroke="rgb(0,0,0)"  stroke-width="2.0"/>
<line x1="200.5" y1="110.4" x2="232.8" y2="133.9" stroke="rgb(0,0,0)"  stroke-width="2.0"/>
<line x1="209.6" y1="108.1" x2="232.2" y2="124.6" stroke="rgb(0,0,0)"  stroke-width="2.0"/>
<line x1="232.8" y1="133.9" x2="254.7" y2="118.0" stroke="rgb(0,0,0)"  stroke-width="2.0"/>
<text x="36.960569" y="263.462581" fill="rgb(191,191,191)"  stroke="rgb(191,191,191)" stroke-width="1" font-size="16" >H</text>
<text x="297.249130" y="130.763620" fill="rgb(191,191,191)"  stroke="rgb(191,191,191)" stroke-width="1" font-size="16" >H</text>
<text x="270.357600" y="48.000000" fill="rgb(191,191,191)"  stroke="rgb(191,191,191)" stroke-width="1" font-size="16" >H</text>
<text x="226.846190" y="181.914351" fill="rgb(191,191,191)"  stroke="rgb(191,191,191)" stroke-width="1" font-size="16" >H</text>
<text x="117.317346" y="122.447153" fill="rgb(191,191,191)"  stroke="rgb(191,191,191)" stroke-width="1" font-size="16" >H</text>
<text x="144.082570" y="92.721360" fill="rgb(191,191,191)"  stroke="rgb(191,191,191)" stroke-width="1" font-size="16" >H</text>
<text x="160.487462" y="207.931785" fill="rgb(191,191,191)"  stroke="rgb(191,191,191)" stroke-width="1" font-size="16" >H</text>
<text x="187.252686" y="178.205992" fill="rgb(191,191,191)"  stroke="rgb(191,191,191)" stroke-width="1" font-size="16" >H</text>
<text x="80.358728" y="155.484980" fill="rgb(191,191,191)"  stroke="rgb(191,191,191)" stroke-width="1" font-size="16" >H</text>
<text x="34.000000" y="206.971564" fill="rgb(191,191,191)"  stroke="rgb(191,191,191)" stroke-width="1" font-size="16" >H</text>
<text x="76.086473" y="271.779048" fill="rgb(191,191,191)"  stroke="rgb(191,191,191)" stroke-width="1" font-size="16" >H</text>
<text x="206.846190" y="80.360680" fill="rgb(12,12,255)"  stroke="rgb(12,12,255)" stroke-width="1" font-size="16" >N</text>
<text x="259.206870" y="118.402940" fill="rgb(12,12,255)"  stroke="rgb(12,12,255)" stroke-width="1" font-size="16" >N</text>
<text x="110.084521" y="182.250204" fill="rgb(12,12,255)"  stroke="rgb(12,12,255)" stroke-width="1" font-size="16" >N</text>
<text x="131.493847" y="248.141332" fill="rgb(255,12,12)"  stroke="rgb(255,12,12)" stroke-width="1" font-size="16" >O</text>
</svg>
</g>
<text font-size="18.000000" fill ="black" font-family="sans-serif"
x="10.000000" y="20.000000" >ZINC00404262</text>
</svg>
