<?xml version="1.0"?>
<svg version="1.1" id="topsvg"
xmlns="http://www.w3.org/2000/svg" xmlns:xlink="http://www.w3.org/1999/xlink"
xmlns:cml="http://www.xml-cml.org/schema" x="0" y="0" width="200px" height="200px" viewBox="0 0 100 100">
<title>ZINC19478724 - Open Babel Depiction</title>
<rect x="0" y="0" width="100" height="100" fill="white"/>
<g transform="translate(0,0)">
<svg width="100" height="100" x="0" y="0" viewBox="0 0 323.923 249.282"
font-family="sans-serif" stroke="rgb(0,0,0)" stroke-width="2"  stroke-linecap="round">
<line x1="209.3" y1="154.6" x2="195.8" y2="178.0" stroke="rgb(0,0,0)"  stroke-width="2.0"/>
<line x1="209.3" y1="154.6" x2="222.8" y2="178.0" stroke="rgb(0,0,0)"  stroke-width="2.0"/>
<line x1="243.9" y1="134.6" x2="257.4" y2="158.0" stroke="rgb(0,0,0)"  stroke-width="2.0"/>
<line x1="243.9" y1="134.6" x2="270.9" y2="134.6" stroke="rgb(0,0,0)"  stroke-width="2.0"/>
<line x1="209.3" y1="74.6" x2="222.8" y2="51.3" stroke="rgb(0,0,0)"  stroke-width="2.0"/>
<line x1="209.3" y1="74.6" x2="195.8" y2="51.3" stroke="rgb(0,0,0)"  stroke-width="2.0"/>
<line x1="174.6" y1="94.6" x2="161.1" y2="71.3" stroke="rgb(0,0,0)"  stroke-width="2.0"/>
<line x1="174.6" y1="94.6" x2="147.6" y2="94.6" stroke="rgb(0,0,0)"  stroke-width="2.0"/>
<line x1="174.6" y1="134.6" x2="147.6" y2="134.6" stroke="rgb(0,0,0)"  stroke-width="2.0"/>
<line x1="174.6" y1="134.6" x2="161.1" y2="158.0" stroke="rgb(0,0,0)"  stroke-width="2.0"/>
<line x1="114.6" y1="100.0" x2="138.0" y2="86.5" stroke="rgb(0,0,0)"  stroke-width="2.0"/>
<line x1="114.6" y1="100.0" x2="114.6" y2="73.0" stroke="rgb(0,0,0)"  stroke-width="2.0"/>
<line x1="74.6" y1="100.0" x2="74.6" y2="73.0" stroke="rgb(0,0,0)"  stroke-width="2.0"/>
<line x1="74.6" y1="100.0" x2="51.3" y2="86.5" stroke="rgb(0,0,0)"  stroke-width="2.0"/>
<line x1="74.6" y1="169.3" x2="51.3" y2="182.8" stroke="rgb(0,0,0)"  stroke-width="2.0"/>
<line x1="74.6" y1="169.3" x2="74.6" y2="196.3" stroke="rgb(0,0,0)"  stroke-width="2.0"/>
<line x1="114.6" y1="169.3" x2="114.6" y2="196.3" stroke="rgb(0,0,0)"  stroke-width="2.0"/>
<line x1="114.6" y1="169.3" x2="138.0" y2="182.8" stroke="rgb(0,0,0)"  stroke-width="2.0"/>
<line x1="232.7" y1="88.1" x2="209.3" y2="74.6" stroke="rgb(0,0,0)"  stroke-width="2.0"/>
<line x1="209.3" y1="74.6" x2="174.6" y2="94.6" stroke="rgb(0,0,0)"  stroke-width="2.0"/>
<line x1="174.6" y1="94.6" x2="174.6" y2="134.6" stroke="rgb(0,0,0)"  stroke-width="2.0"/>
<line x1="174.6" y1="134.6" x2="209.3" y2="154.6" stroke="rgb(0,0,0)"  stroke-width="2.0"/>
<line x1="209.3" y1="154.6" x2="243.9" y2="134.6" stroke="rgb(0,0,0)"  stroke-width="2.0"/>
<line x1="243.9" y1="134.6" x2="243.9" y2="107.6" stroke="rgb(0,0,0)"  stroke-width="2.0"/>
<line x1="74.6" y1="100.0" x2="61.1" y2="123.4" stroke="rgb(0,0,0)"  stroke-width="2.0"/>
<line x1="61.1" y1="145.9" x2="74.6" y2="169.3" stroke="rgb(0,0,0)"  stroke-width="2.0"/>
<line x1="74.6" y1="169.3" x2="114.6" y2="169.3" stroke="rgb(0,0,0)"  stroke-width="2.0"/>
<line x1="114.6" y1="169.3" x2="128.1" y2="145.9" stroke="rgb(0,0,0)"  stroke-width="2.0"/>
<line x1="128.1" y1="123.4" x2="114.6" y2="100.0" stroke="rgb(0,0,0)"  stroke-width="2.0"/>
<line x1="114.6" y1="100.0" x2="74.6" y2="100.0" stroke="rgb(0,0,0)"  stroke-width="2.0"/>
<text x="257.923048" y="177.282032" fill="rgb(191,191,191)"  stroke="rgb(191,191,191)" stroke-width="1" font-size="16" >H</text>
<text x="143.282032" y="197.282032" fill="rgb(191,191,191)"  stroke="rgb(191,191,191)" stroke-width="1" font-size="16" >H</text>
<text x="108.641016" y="217.282032" fill="rgb(191,191,191)"  stroke="rgb(191,191,191)" stroke-width="1" font-size="16" >H</text>
<text x="68.641016" y="217.282032" fill="rgb(191,191,191)"  stroke="rgb(191,191,191)" stroke-width="1" font-size="16" >H</text>
<text x="34.000000" y="197.282032" fill="rgb(191,191,191)"  stroke="rgb(191,191,191)" stroke-width="1" font-size="16" >H</text>
<text x="34.000000" y="88.000000" fill="rgb(191,191,191)"  stroke="rgb(191,191,191)" stroke-width="1" font-size="16" >H</text>
<text x="68.641016" y="68.000000" fill="rgb(191,191,191)"  stroke="rgb(191,191,191)" stroke-width="1" font-size="16" >H</text>
<text x="108.641016" y="68.000000" fill="rgb(191,191,191)"  stroke="rgb(191,191,191)" stroke-width="1" font-size="16" >H</text>
<text x="143.282032" y="88.000000" fill="rgb(191,191,191)"  stroke="rgb(191,191,191)" stroke-width="1" font-size="16" >H</text>
<text x="148.641016" y="177.282032" fill="rgb(191,191,191)"  stroke="rgb(191,191,191)" stroke-width="1" font-size="16" >H</text>
<text x="128.641016" y="102.641016" fill="rgb(191,191,191)"  stroke="rgb(191,191,191)" stroke-width="1" font-size="16" >H</text>
<text x="148.641016" y="68.000000" fill="rgb(191,191,191)"  stroke="rgb(191,191,191)" stroke-width="1" font-size="16" >H</text>
<text x="183.282032" y="48.000000" fill="rgb(191,191,191)"  stroke="rgb(191,191,191)" stroke-width="1" font-size="16" >H</text>
<text x="223.282032" y="48.000000" fill="rgb(191,191,191)"  stroke="rgb(191,191,191)" stroke-width="1" font-size="16" >H</text>
<text x="277.923048" y="142.641016" fill="rgb(191,191,191)"  stroke="rgb(191,191,191)" stroke-width="1" font-size="16" >H</text>
<text x="223.282032" y="197.282032" fill="rgb(191,191,191)"  stroke="rgb(191,191,191)" stroke-width="1" font-size="16" >H</text>
<text x="183.282032" y="197.282032" fill="rgb(191,191,191)"  stroke="rgb(191,191,191)" stroke-width="1" font-size="16" >H</text>
<text x="48.641016" y="142.641016" fill="rgb(255,12,12)"  stroke="rgb(255,12,12)" stroke-width="1" font-size="16" >O</text>
<text x="128.641016" y="142.641016" fill="rgb(12,12,255)"  stroke="rgb(12,12,255)" stroke-width="1" font-size="16" >N</text>
<text x="237.923048" y="102.641016" fill="rgb(12,12,255)"  stroke="rgb(12,12,255)" stroke-width="1" font-size="16" >NH</text>
</svg>
</g>
<text font-size="18.000000" fill ="black" font-family="sans-serif"
x="10.000000" y="20.000000" >ZINC19478724</text>
</svg>
