<?xml version="1.0"?>
<svg version="1.1" id="topsvg"
xmlns="http://www.w3.org/2000/svg" xmlns:xlink="http://www.w3.org/1999/xlink"
xmlns:cml="http://www.xml-cml.org/schema" x="0" y="0" width="200px" height="200px" viewBox="0 0 100 100">
<title>ZINC38232075 - Open Babel Depiction</title>
<rect x="0" y="0" width="100" height="100" fill="white"/>
<g transform="translate(0,0)">
<svg width="100" height="100" x="0" y="0" viewBox="0 0 527.846 453.205"
font-family="sans-serif" stroke="rgb(0,0,0)" stroke-width="2"  stroke-linecap="round">
<line x1="453.2" y1="200.0" x2="429.8" y2="213.5" stroke="rgb(0,0,0)"  stroke-width="2.0"/>
<line x1="453.2" y1="200.0" x2="466.7" y2="176.6" stroke="rgb(0,0,0)"  stroke-width="2.0"/>
<line x1="453.2" y1="200.0" x2="439.7" y2="176.6" stroke="rgb(0,0,0)"  stroke-width="2.0"/>
<line x1="453.2" y1="200.0" x2="476.6" y2="213.5" stroke="rgb(0,0,0)"  stroke-width="2.0"/>
<line x1="418.6" y1="233.0" x2="418.6" y2="260.0" stroke="rgb(0,0,0)"  stroke-width="2.0"/>
<line x1="407.3" y1="213.5" x2="383.9" y2="200.0" stroke="rgb(0,0,0)"  stroke-width="2.0"/>
<line x1="418.6" y1="260.0" x2="432.1" y2="283.4" stroke="rgb(0,0,0)"  stroke-width="2.0"/>
<line x1="418.6" y1="260.0" x2="445.6" y2="260.0" stroke="rgb(0,0,0)"  stroke-width="2.0"/>
<line x1="418.6" y1="260.0" x2="395.2" y2="273.5" stroke="rgb(0,0,0)"  stroke-width="2.0"/>
<line x1="385.4" y1="202.6" x2="362.0" y2="216.1" stroke="rgb(0,0,0)"  stroke-width="2.0"/>
<line x1="382.4" y1="197.4" x2="359.0" y2="210.9" stroke="rgb(0,0,0)"  stroke-width="2.0"/>
<line x1="383.9" y1="200.0" x2="383.9" y2="160.0" stroke="rgb(0,0,0)"  stroke-width="2.0"/>
<line x1="418.6" y1="140.0" x2="441.9" y2="153.5" stroke="rgb(0,0,0)"  stroke-width="2.0"/>
<line x1="418.6" y1="100.0" x2="441.9" y2="86.5" stroke="rgb(0,0,0)"  stroke-width="2.0"/>
<line x1="383.9" y1="80.0" x2="383.9" y2="53.0" stroke="rgb(0,0,0)"  stroke-width="2.0"/>
<line x1="349.3" y1="100.0" x2="325.9" y2="86.5" stroke="rgb(0,0,0)"  stroke-width="2.0"/>
<line x1="349.3" y1="140.0" x2="325.9" y2="153.5" stroke="rgb(0,0,0)"  stroke-width="2.0"/>
<line x1="314.6" y1="173.0" x2="314.6" y2="187.0" stroke="rgb(0,0,0)"  stroke-width="2.0"/>
<line x1="303.4" y1="153.5" x2="291.3" y2="146.5" stroke="rgb(0,0,0)"  stroke-width="2.0"/>
<line x1="327.6" y1="197.0" x2="341.6" y2="197.0" stroke="rgb(0,0,0)"  stroke-width="2.0"/>
<line x1="327.6" y1="203.0" x2="341.6" y2="203.0" stroke="rgb(0,0,0)"  stroke-width="2.0"/>
<line x1="317.6" y1="213.0" x2="317.6" y2="227.0" stroke="rgb(0,0,0)"  stroke-width="2.0"/>
<line x1="311.6" y1="213.0" x2="311.6" y2="227.0" stroke="rgb(0,0,0)"  stroke-width="2.0"/>
<line x1="301.6" y1="200.0" x2="287.6" y2="200.0" stroke="rgb(0,0,0)"  stroke-width="2.0"/>
<line x1="270.7" y1="212.8" x2="257.2" y2="236.1" stroke="rgb(0,0,0)"  stroke-width="2.0"/>
<line x1="265.5" y1="209.8" x2="252.0" y2="233.1" stroke="rgb(0,0,0)"  stroke-width="2.0"/>
<line x1="254.6" y1="234.6" x2="268.1" y2="258.0" stroke="rgb(0,0,0)"  stroke-width="2.0"/>
<line x1="254.6" y1="234.6" x2="227.6" y2="234.6" stroke="rgb(0,0,0)"  stroke-width="2.0"/>
<line x1="208.1" y1="245.9" x2="194.6" y2="269.3" stroke="rgb(0,0,0)"  stroke-width="2.0"/>
<line x1="208.1" y1="223.4" x2="201.1" y2="211.3" stroke="rgb(0,0,0)"  stroke-width="2.0"/>
<line x1="194.6" y1="338.6" x2="208.1" y2="361.9" stroke="rgb(0,0,0)"  stroke-width="2.0"/>
<line x1="154.6" y1="338.6" x2="141.1" y2="361.9" stroke="rgb(0,0,0)"  stroke-width="2.0"/>
<line x1="134.6" y1="303.9" x2="107.6" y2="303.9" stroke="rgb(0,0,0)"  stroke-width="2.0"/>
<line x1="88.1" y1="315.2" x2="74.6" y2="338.6" stroke="rgb(0,0,0)"  stroke-width="2.0"/>
<line x1="74.6" y1="338.6" x2="51.3" y2="352.1" stroke="rgb(0,0,0)"  stroke-width="2.0"/>
<line x1="74.6" y1="338.6" x2="51.3" y2="325.1" stroke="rgb(0,0,0)"  stroke-width="2.0"/>
<line x1="74.6" y1="338.6" x2="88.1" y2="361.9" stroke="rgb(0,0,0)"  stroke-width="2.0"/>
<line x1="227.6" y1="373.2" x2="254.6" y2="373.2" stroke="rgb(0,0,0)"  stroke-width="2.0"/>
<line x1="254.6" y1="373.2" x2="278.0" y2="386.7" stroke="rgb(0,0,0)"  stroke-width="2.0"/>
<line x1="254.6" y1="373.2" x2="254.6" y2="400.2" stroke="rgb(0,0,0)"  stroke-width="2.0"/>
<line x1="254.6" y1="373.2" x2="268.1" y2="349.8" stroke="rgb(0,0,0)"  stroke-width="2.0"/>
<line x1="418.6" y1="100.0" x2="383.9" y2="80.0" stroke="rgb(0,0,0)"  stroke-width="2.0"/>
<line x1="383.9" y1="80.0" x2="349.3" y2="100.0" stroke="rgb(0,0,0)"  stroke-width="2.0"/>
<line x1="382.3" y1="89.2" x2="358.1" y2="103.2" stroke="rgb(0,0,0)"  stroke-width="2.0"/>
<line x1="349.3" y1="100.0" x2="349.3" y2="140.0" stroke="rgb(0,0,0)"  stroke-width="2.0"/>
<line x1="349.3" y1="140.0" x2="383.9" y2="160.0" stroke="rgb(0,0,0)"  stroke-width="2.0"/>
<line x1="358.1" y1="136.8" x2="382.3" y2="150.8" stroke="rgb(0,0,0)"  stroke-width="2.0"/>
<line x1="383.9" y1="160.0" x2="418.6" y2="140.0" stroke="rgb(0,0,0)"  stroke-width="2.0"/>
<line x1="418.6" y1="140.0" x2="418.6" y2="100.0" stroke="rgb(0,0,0)"  stroke-width="2.0"/>
<line x1="411.4" y1="134.0" x2="411.4" y2="106.0" stroke="rgb(0,0,0)"  stroke-width="2.0"/>
<line x1="194.6" y1="338.6" x2="154.6" y2="338.6" stroke="rgb(0,0,0)"  stroke-width="2.0"/>
<line x1="154.6" y1="338.6" x2="134.6" y2="303.9" stroke="rgb(0,0,0)"  stroke-width="2.0"/>
<line x1="157.9" y1="329.8" x2="143.9" y2="305.5" stroke="rgb(0,0,0)"  stroke-width="2.0"/>
<line x1="134.6" y1="303.9" x2="148.1" y2="280.5" stroke="rgb(0,0,0)"  stroke-width="2.0"/>
<line x1="167.8" y1="269.3" x2="194.6" y2="269.3" stroke="rgb(0,0,0)"  stroke-width="2.0"/>
<line x1="169.8" y1="276.5" x2="188.6" y2="276.5" stroke="rgb(0,0,0)"  stroke-width="2.0"/>
<line x1="194.6" y1="269.3" x2="208.1" y2="292.7" stroke="rgb(0,0,0)"  stroke-width="2.0"/>
<line x1="208.0" y1="315.4" x2="194.6" y2="338.6" stroke="rgb(0,0,0)"  stroke-width="2.0"/>
<line x1="200.8" y1="313.5" x2="191.4" y2="329.8" stroke="rgb(0,0,0)"  stroke-width="2.0"/>
<text x="447.205081" y="88.000000" fill="rgb(191,191,191)"  stroke="rgb(191,191,191)" stroke-width="1" font-size="16" >H</text>
<text x="88.641016" y="311.923048" fill="rgb(255,12,12)"  stroke="rgb(255,12,12)" stroke-width="1" font-size="16" >O</text>
<text x="208.641016" y="381.205081" fill="rgb(255,12,12)"  stroke="rgb(255,12,12)" stroke-width="1" font-size="16" >O</text>
<text x="467.205081" y="173.358984" fill="rgb(191,191,191)"  stroke="rgb(191,191,191)" stroke-width="1" font-size="16" >H</text>
<text x="427.205081" y="173.358984" fill="rgb(191,191,191)"  stroke="rgb(191,191,191)" stroke-width="1" font-size="16" >H</text>
<text x="481.846097" y="228.000000" fill="rgb(191,191,191)"  stroke="rgb(191,191,191)" stroke-width="1" font-size="16" >H</text>
<text x="432.564065" y="302.641016" fill="rgb(191,191,191)"  stroke="rgb(191,191,191)" stroke-width="1" font-size="16" >H</text>
<text x="452.564065" y="268.000000" fill="rgb(191,191,191)"  stroke="rgb(191,191,191)" stroke-width="1" font-size="16" >H</text>
<text x="377.923048" y="288.000000" fill="rgb(191,191,191)"  stroke="rgb(191,191,191)" stroke-width="1" font-size="16" >H</text>
<text x="447.205081" y="168.000000" fill="rgb(191,191,191)"  stroke="rgb(191,191,191)" stroke-width="1" font-size="16" >H</text>
<text x="148.641016" y="277.282032" fill="rgb(12,12,255)"  stroke="rgb(12,12,255)" stroke-width="1" font-size="16" >N</text>
<text x="377.923048" y="48.000000" fill="rgb(191,191,191)"  stroke="rgb(191,191,191)" stroke-width="1" font-size="16" >H</text>
<text x="308.641016" y="88.000000" fill="rgb(191,191,191)"  stroke="rgb(191,191,191)" stroke-width="1" font-size="16" >H</text>
<text x="188.641016" y="208.000000" fill="rgb(191,191,191)"  stroke="rgb(191,191,191)" stroke-width="1" font-size="16" >H</text>
<text x="128.641016" y="381.205081" fill="rgb(191,191,191)"  stroke="rgb(191,191,191)" stroke-width="1" font-size="16" >H</text>
<text x="34.000000" y="366.564065" fill="rgb(191,191,191)"  stroke="rgb(191,191,191)" stroke-width="1" font-size="16" >H</text>
<text x="34.000000" y="326.564065" fill="rgb(191,191,191)"  stroke="rgb(191,191,191)" stroke-width="1" font-size="16" >H</text>
<text x="88.641016" y="381.205081" fill="rgb(191,191,191)"  stroke="rgb(191,191,191)" stroke-width="1" font-size="16" >H</text>
<text x="283.282032" y="401.205081" fill="rgb(191,191,191)"  stroke="rgb(191,191,191)" stroke-width="1" font-size="16" >H</text>
<text x="248.641016" y="421.205081" fill="rgb(191,191,191)"  stroke="rgb(191,191,191)" stroke-width="1" font-size="16" >H</text>
<text x="268.641016" y="346.564065" fill="rgb(191,191,191)"  stroke="rgb(191,191,191)" stroke-width="1" font-size="16" >H</text>
<text x="274.000000" y="148.000000" fill="rgb(191,191,191)"  stroke="rgb(191,191,191)" stroke-width="1" font-size="16" >H</text>
<text x="308.641016" y="208.000000" fill="rgb(178,178,0)"  stroke="rgb(178,178,0)" stroke-width="1" font-size="16" >S</text>
<text x="412.564065" y="228.000000" fill="rgb(12,12,255)"  stroke="rgb(12,12,255)" stroke-width="1" font-size="16" >N</text>
<text x="343.282032" y="228.000000" fill="rgb(255,12,12)"  stroke="rgb(255,12,12)" stroke-width="1" font-size="16" >O</text>
<text x="308.641016" y="168.000000" fill="rgb(12,12,255)"  stroke="rgb(12,12,255)" stroke-width="1" font-size="16" >N</text>
<text x="348.641016" y="208.000000" fill="rgb(255,12,12)"  stroke="rgb(255,12,12)" stroke-width="1" font-size="16" >O</text>
<text x="308.641016" y="248.000000" fill="rgb(255,12,12)"  stroke="rgb(255,12,12)" stroke-width="1" font-size="16" >O</text>
<text x="268.641016" y="208.000000" fill="rgb(12,12,255)"  stroke="rgb(12,12,255)" stroke-width="1" font-size="16" >N</text>
<text x="268.641016" y="277.282032" fill="rgb(255,12,12)"  stroke="rgb(255,12,12)" stroke-width="1" font-size="16" >OH</text>
<text x="208.641016" y="242.641016" fill="rgb(12,12,255)"  stroke="rgb(12,12,255)" stroke-width="1" font-size="16" >N</text>
<text x="208.641016" y="311.923048" fill="rgb(12,12,255)"  stroke="rgb(12,12,255)" stroke-width="1" font-size="16" >N</text>
</svg>
</g>
<text font-size="18.000000" fill ="black" font-family="sans-serif"
x="10.000000" y="20.000000" >ZINC38232075</text>
</svg>
