<?xml version="1.0"?>
<svg version="1.1" id="topsvg"
xmlns="http://www.w3.org/2000/svg" xmlns:xlink="http://www.w3.org/1999/xlink"
xmlns:cml="http://www.xml-cml.org/schema" x="0" y="0" width="200px" height="200px" viewBox="0 0 100 100">
<title>ZINC01081191 - Open Babel Depiction</title>
<rect x="0" y="0" width="100" height="100" fill="white"/>
<g transform="translate(0,0)">
<svg width="100" height="100" x="0" y="0" viewBox="0 0 342.238 270.273"
font-family="sans-serif" stroke="rgb(0,0,0)" stroke-width="2"  stroke-linecap="round">
<line x1="269.9" y1="197.9" x2="243.0" y2="200.7" stroke="rgb(0,0,0)"  stroke-width="2.0"/>
<line x1="269.9" y1="197.9" x2="291.7" y2="182.0" stroke="rgb(0,0,0)"  stroke-width="2.0"/>
<line x1="269.9" y1="197.9" x2="267.1" y2="171.1" stroke="rgb(0,0,0)"  stroke-width="2.0"/>
<line x1="269.9" y1="197.9" x2="285.7" y2="219.8" stroke="rgb(0,0,0)"  stroke-width="2.0"/>
<line x1="222.5" y1="191.6" x2="206.6" y2="169.7" stroke="rgb(0,0,0)"  stroke-width="2.0"/>
<line x1="203.8" y1="168.5" x2="214.8" y2="143.8" stroke="rgb(0,0,0)"  stroke-width="2.0"/>
<line x1="209.3" y1="171.0" x2="220.3" y2="146.3" stroke="rgb(0,0,0)"  stroke-width="2.0"/>
<line x1="206.6" y1="169.7" x2="166.8" y2="173.9" stroke="rgb(0,0,0)"  stroke-width="2.0"/>
<line x1="166.8" y1="173.9" x2="150.9" y2="152.1" stroke="rgb(0,0,0)"  stroke-width="2.0"/>
<line x1="166.8" y1="173.9" x2="145.0" y2="189.8" stroke="rgb(0,0,0)"  stroke-width="2.0"/>
<line x1="166.8" y1="173.9" x2="169.6" y2="200.8" stroke="rgb(0,0,0)"  stroke-width="2.0"/>
<line x1="155.7" y1="103.5" x2="181.3" y2="95.2" stroke="rgb(0,0,0)"  stroke-width="2.0"/>
<line x1="123.3" y1="80.0" x2="123.3" y2="53.0" stroke="rgb(0,0,0)"  stroke-width="2.0"/>
<line x1="103.3" y1="141.6" x2="87.4" y2="163.4" stroke="rgb(0,0,0)"  stroke-width="2.0"/>
<line x1="66.5" y1="175.5" x2="52.6" y2="174.1" stroke="rgb(0,0,0)"  stroke-width="2.0"/>
<line x1="67.2" y1="169.6" x2="53.2" y2="168.1" stroke="rgb(0,0,0)"  stroke-width="2.0"/>
<line x1="85.1" y1="185.8" x2="90.8" y2="198.6" stroke="rgb(0,0,0)"  stroke-width="2.0"/>
<line x1="78.6" y1="99.5" x2="65.3" y2="95.2" stroke="rgb(0,0,0)"  stroke-width="2.0"/>
<line x1="123.3" y1="80.0" x2="101.4" y2="95.9" stroke="rgb(0,0,0)"  stroke-width="2.0"/>
<line x1="95.0" y1="116.1" x2="103.3" y2="141.6" stroke="rgb(0,0,0)"  stroke-width="2.0"/>
<line x1="102.5" y1="115.7" x2="108.3" y2="133.6" stroke="rgb(0,0,0)"  stroke-width="2.0"/>
<line x1="103.3" y1="141.6" x2="130.3" y2="141.6" stroke="rgb(0,0,0)"  stroke-width="2.0"/>
<line x1="147.3" y1="129.2" x2="155.7" y2="103.5" stroke="rgb(0,0,0)"  stroke-width="2.0"/>
<line x1="155.7" y1="103.5" x2="123.3" y2="80.0" stroke="rgb(0,0,0)"  stroke-width="2.0"/>
<line x1="146.6" y1="105.8" x2="123.9" y2="89.4" stroke="rgb(0,0,0)"  stroke-width="2.0"/>
<text x="34.000000" y="177.733212" fill="rgb(255,12,12)"  stroke="rgb(255,12,12)" stroke-width="1" font-size="16" >O</text>
<text x="46.889345" y="99.150730" fill="rgb(191,191,191)"  stroke="rgb(191,191,191)" stroke-width="1" font-size="16" >H</text>
<text x="84.931606" y="111.511410" fill="rgb(12,12,255)"  stroke="rgb(12,12,255)" stroke-width="1" font-size="16" >N</text>
<text x="117.292286" y="48.000000" fill="rgb(191,191,191)"  stroke="rgb(191,191,191)" stroke-width="1" font-size="16" >H</text>
<text x="187.695226" y="99.150730" fill="rgb(191,191,191)"  stroke="rgb(191,191,191)" stroke-width="1" font-size="16" >H</text>
<text x="164.984835" y="221.695226" fill="rgb(191,191,191)"  stroke="rgb(191,191,191)" stroke-width="1" font-size="16" >H</text>
<text x="128.443016" y="205.425761" fill="rgb(191,191,191)"  stroke="rgb(191,191,191)" stroke-width="1" font-size="16" >H</text>
<text x="287.388268" y="238.273433" fill="rgb(191,191,191)"  stroke="rgb(191,191,191)" stroke-width="1" font-size="16" >H</text>
<text x="259.695719" y="166.131877" fill="rgb(191,191,191)"  stroke="rgb(191,191,191)" stroke-width="1" font-size="16" >H</text>
<text x="296.237537" y="182.401343" fill="rgb(191,191,191)"  stroke="rgb(191,191,191)" stroke-width="1" font-size="16" >H</text>
<text x="90.050342" y="218.456169" fill="rgb(255,12,12)"  stroke="rgb(255,12,12)" stroke-width="1" font-size="16" >OH</text>
<text x="73.780876" y="181.914351" fill="rgb(12,12,255)"  stroke="rgb(12,12,255)" stroke-width="1" font-size="16" >N</text>
<text x="137.292286" y="149.553671" fill="rgb(12,12,255)"  stroke="rgb(12,12,255)" stroke-width="1" font-size="16" >N</text>
<text x="216.854038" y="141.191394" fill="rgb(255,12,12)"  stroke="rgb(255,12,12)" stroke-width="1" font-size="16" >O</text>
<text x="224.095982" y="210.093892" fill="rgb(255,12,12)"  stroke="rgb(255,12,12)" stroke-width="1" font-size="16" >O</text>
</svg>
</g>
<text font-size="18.000000" fill ="black" font-family="sans-serif"
x="10.000000" y="20.000000" >ZINC01081191</text>
</svg>
