<?xml version="1.0"?>
<svg version="1.1" id="topsvg"
xmlns="http://www.w3.org/2000/svg" xmlns:xlink="http://www.w3.org/1999/xlink"
xmlns:cml="http://www.xml-cml.org/schema" x="0" y="0" width="200px" height="200px" viewBox="0 0 100 100">
<title>ZINC86032681 - Open Babel Depiction</title>
<rect x="0" y="0" width="100" height="100" fill="white"/>
<g transform="translate(0,0)">
<svg width="100" height="100" x="0" y="0" viewBox="0 0 434.985 362.051"
font-family="sans-serif" stroke="rgb(0,0,0)" stroke-width="2"  stroke-linecap="round">
<line x1="347.6" y1="58.0" x2="330.5" y2="76.5" stroke="rgb(0,0,0)"  stroke-width="2.0"/>
<line x1="330.5" y1="76.5" x2="323.1" y2="52.4" stroke="rgb(0,0,0)"  stroke-width="2.0"/>
<line x1="294.0" y1="87.7" x2="286.6" y2="63.7" stroke="rgb(0,0,0)"  stroke-width="2.0"/>
<line x1="294.0" y1="87.7" x2="269.5" y2="82.1" stroke="rgb(0,0,0)"  stroke-width="2.0"/>
<line x1="285.5" y1="125.0" x2="212.6" y2="147.5" stroke="rgb(0,0,0)"  stroke-width="2.0"/>
<line x1="313.5" y1="150.9" x2="307.9" y2="175.5" stroke="rgb(0,0,0)"  stroke-width="2.0"/>
<line x1="350.0" y1="139.7" x2="368.5" y2="156.8" stroke="rgb(0,0,0)"  stroke-width="2.0"/>
<line x1="358.5" y1="102.5" x2="382.6" y2="95.0" stroke="rgb(0,0,0)"  stroke-width="2.0"/>
<line x1="148.5" y1="122.3" x2="148.5" y2="97.2" stroke="rgb(0,0,0)"  stroke-width="2.0"/>
<line x1="148.5" y1="122.3" x2="126.7" y2="109.7" stroke="rgb(0,0,0)"  stroke-width="2.0"/>
<line x1="88.8" y1="153.3" x2="74.3" y2="132.7" stroke="rgb(0,0,0)"  stroke-width="2.0"/>
<line x1="64.1" y1="193.3" x2="52.4" y2="196.9" stroke="rgb(0,0,0)"  stroke-width="2.0"/>
<line x1="107.0" y1="212.3" x2="105.9" y2="288.7" stroke="rgb(0,0,0)"  stroke-width="2.0"/>
<line x1="239.9" y1="204.3" x2="261.7" y2="191.7" stroke="rgb(0,0,0)"  stroke-width="2.0"/>
<line x1="239.9" y1="242.5" x2="261.7" y2="255.1" stroke="rgb(0,0,0)"  stroke-width="2.0"/>
<line x1="206.9" y1="261.6" x2="206.9" y2="286.8" stroke="rgb(0,0,0)"  stroke-width="2.0"/>
<line x1="173.8" y1="242.5" x2="152.0" y2="255.1" stroke="rgb(0,0,0)"  stroke-width="2.0"/>
<line x1="105.9" y1="288.7" x2="118.2" y2="310.7" stroke="rgb(0,0,0)"  stroke-width="2.0"/>
<line x1="105.9" y1="288.7" x2="131.1" y2="289.1" stroke="rgb(0,0,0)"  stroke-width="2.0"/>
<line x1="105.9" y1="288.7" x2="83.9" y2="301.0" stroke="rgb(0,0,0)"  stroke-width="2.0"/>
<line x1="86.6" y1="197.0" x2="107.0" y2="212.3" stroke="rgb(0,0,0)"  stroke-width="2.0"/>
<line x1="92.6" y1="192.6" x2="106.6" y2="203.0" stroke="rgb(0,0,0)"  stroke-width="2.0"/>
<line x1="107.0" y1="212.3" x2="127.6" y2="197.9" stroke="rgb(0,0,0)"  stroke-width="2.0"/>
<line x1="134.4" y1="177.9" x2="127.0" y2="153.9" stroke="rgb(0,0,0)"  stroke-width="2.0"/>
<line x1="127.0" y1="153.9" x2="88.8" y2="153.3" stroke="rgb(0,0,0)"  stroke-width="2.0"/>
<line x1="120.9" y1="161.0" x2="94.7" y2="160.6" stroke="rgb(0,0,0)"  stroke-width="2.0"/>
<line x1="88.8" y1="153.3" x2="80.7" y2="177.1" stroke="rgb(0,0,0)"  stroke-width="2.0"/>
<line x1="206.9" y1="261.6" x2="239.9" y2="242.5" stroke="rgb(0,0,0)"  stroke-width="2.0"/>
<line x1="208.5" y1="252.4" x2="231.1" y2="239.3" stroke="rgb(0,0,0)"  stroke-width="2.0"/>
<line x1="239.9" y1="242.5" x2="239.9" y2="204.3" stroke="rgb(0,0,0)"  stroke-width="2.0"/>
<line x1="239.9" y1="204.3" x2="206.9" y2="185.2" stroke="rgb(0,0,0)"  stroke-width="2.0"/>
<line x1="231.1" y1="207.6" x2="208.5" y2="194.5" stroke="rgb(0,0,0)"  stroke-width="2.0"/>
<line x1="206.9" y1="185.2" x2="173.8" y2="204.3" stroke="rgb(0,0,0)"  stroke-width="2.0"/>
<line x1="173.8" y1="204.3" x2="173.8" y2="242.5" stroke="rgb(0,0,0)"  stroke-width="2.0"/>
<line x1="181.0" y1="210.3" x2="181.0" y2="236.5" stroke="rgb(0,0,0)"  stroke-width="2.0"/>
<line x1="173.8" y1="242.5" x2="206.9" y2="261.6" stroke="rgb(0,0,0)"  stroke-width="2.0"/>
<line x1="285.5" y1="125.0" x2="313.5" y2="150.9" stroke="rgb(0,0,0)"  stroke-width="2.0"/>
<line x1="294.8" y1="123.8" x2="314.0" y2="141.6" stroke="rgb(0,0,0)"  stroke-width="2.0"/>
<line x1="313.5" y1="150.9" x2="350.0" y2="139.7" stroke="rgb(0,0,0)"  stroke-width="2.0"/>
<line x1="350.0" y1="139.7" x2="358.5" y2="102.5" stroke="rgb(0,0,0)"  stroke-width="2.0"/>
<line x1="344.3" y1="132.2" x2="350.1" y2="106.7" stroke="rgb(0,0,0)"  stroke-width="2.0"/>
<line x1="358.5" y1="102.5" x2="330.5" y2="76.5" stroke="rgb(0,0,0)"  stroke-width="2.0"/>
<line x1="330.5" y1="76.5" x2="294.0" y2="87.7" stroke="rgb(0,0,0)"  stroke-width="2.0"/>
<line x1="294.0" y1="87.7" x2="285.5" y2="125.0" stroke="rgb(0,0,0)"  stroke-width="2.0"/>
<line x1="148.5" y1="122.3" x2="127.0" y2="153.9" stroke="rgb(0,0,0)"  stroke-width="2.0"/>
<line x1="150.4" y1="195.1" x2="173.8" y2="204.3" stroke="rgb(0,0,0)"  stroke-width="2.0"/>
<line x1="206.9" y1="185.2" x2="212.6" y2="147.5" stroke="rgb(0,0,0)"  stroke-width="2.0"/>
<line x1="212.6" y1="147.5" x2="195.2" y2="128.7" stroke="rgb(0,0,0)"  stroke-width="2.0"/>
<line x1="203.2" y1="148.0" x2="191.4" y2="135.2" stroke="rgb(0,0,0)"  stroke-width="2.0"/>
<line x1="173.6" y1="120.5" x2="148.5" y2="122.3" stroke="rgb(0,0,0)"  stroke-width="2.0"/>
<text x="142.512369" y="92.155152" fill="rgb(191,191,191)"  stroke="rgb(191,191,191)" stroke-width="1" font-size="16" >H</text>
<text x="266.999799" y="269.591888" fill="rgb(30,239,30)"  stroke="rgb(30,239,30)" stroke-width="1" font-size="16" >Cl</text>
<text x="276.770635" y="59.254288" fill="rgb(191,191,191)"  stroke="rgb(191,191,191)" stroke-width="1" font-size="16" >H</text>
<text x="313.256142" y="48.000000" fill="rgb(191,191,191)"  stroke="rgb(191,191,191)" stroke-width="1" font-size="16" >H</text>
<text x="250.800403" y="87.243542" fill="rgb(191,191,191)"  stroke="rgb(191,191,191)" stroke-width="1" font-size="16" >H</text>
<text x="109.445945" y="111.246061" fill="rgb(191,191,191)"  stroke="rgb(191,191,191)" stroke-width="1" font-size="16" >H</text>
<text x="60.848133" y="130.091079" fill="rgb(191,191,191)"  stroke="rgb(191,191,191)" stroke-width="1" font-size="16" >H</text>
<text x="266.999799" y="193.228252" fill="rgb(191,191,191)"  stroke="rgb(191,191,191)" stroke-width="1" font-size="16" >H</text>
<text x="200.866950" y="307.773706" fill="rgb(191,191,191)"  stroke="rgb(191,191,191)" stroke-width="1" font-size="16" >H</text>
<text x="134.734101" y="269.591888" fill="rgb(191,191,191)"  stroke="rgb(191,191,191)" stroke-width="1" font-size="16" >H</text>
<text x="118.487825" y="330.051287" fill="rgb(191,191,191)"  stroke="rgb(191,191,191)" stroke-width="1" font-size="16" >H</text>
<text x="138.071252" y="297.274151" fill="rgb(191,191,191)"  stroke="rgb(191,191,191)" stroke-width="1" font-size="16" >H</text>
<text x="66.545393" y="315.297092" fill="rgb(191,191,191)"  stroke="rgb(191,191,191)" stroke-width="1" font-size="16" >H</text>
<text x="34.000000" y="208.699880" fill="rgb(191,191,191)"  stroke="rgb(191,191,191)" stroke-width="1" font-size="16" >H</text>
<text x="388.985191" y="99.201450" fill="rgb(191,191,191)"  stroke="rgb(191,191,191)" stroke-width="1" font-size="16" >H</text>
<text x="371.992683" y="173.650491" fill="rgb(191,191,191)"  stroke="rgb(191,191,191)" stroke-width="1" font-size="16" >H</text>
<text x="299.021669" y="196.159068" fill="rgb(191,191,191)"  stroke="rgb(191,191,191)" stroke-width="1" font-size="16" >H</text>
<text x="350.480662" y="56.496254" fill="rgb(191,191,191)"  stroke="rgb(191,191,191)" stroke-width="1" font-size="16" >H</text>
<text x="180.587423" y="127.483640" fill="rgb(12,12,255)"  stroke="rgb(12,12,255)" stroke-width="1" font-size="16" >N</text>
<text x="70.485507" y="197.445592" fill="rgb(12,12,255)"  stroke="rgb(12,12,255)" stroke-width="1" font-size="16" >N</text>
<text x="132.258074" y="198.369776" fill="rgb(12,12,255)"  stroke="rgb(12,12,255)" stroke-width="1" font-size="16" >N</text>
</svg>
</g>
<text font-size="18.000000" fill ="black" font-family="sans-serif"
x="10.000000" y="20.000000" >ZINC86032681</text>
</svg>
