<?xml version="1.0"?>
<svg version="1.1" id="topsvg"
xmlns="http://www.w3.org/2000/svg" xmlns:xlink="http://www.w3.org/1999/xlink"
xmlns:cml="http://www.xml-cml.org/schema" x="0" y="0" width="200px" height="200px" viewBox="0 0 100 100">
<title>ZINC19091587 - Open Babel Depiction</title>
<rect x="0" y="0" width="100" height="100" fill="white"/>
<g transform="translate(0,0)">
<svg width="100" height="100" x="0" y="0" viewBox="0 0 300.217 274.641"
font-family="sans-serif" stroke="rgb(0,0,0)" stroke-width="2"  stroke-linecap="round">
<line x1="190.9" y1="200.0" x2="190.9" y2="160.0" stroke="rgb(0,0,0)"  stroke-width="2.0"/>
<line x1="190.9" y1="200.0" x2="204.4" y2="223.4" stroke="rgb(0,0,0)"  stroke-width="2.0"/>
<line x1="190.9" y1="200.0" x2="217.9" y2="200.0" stroke="rgb(0,0,0)"  stroke-width="2.0"/>
<line x1="190.9" y1="200.0" x2="167.6" y2="213.5" stroke="rgb(0,0,0)"  stroke-width="2.0"/>
<line x1="225.6" y1="140.0" x2="249.0" y2="153.5" stroke="rgb(0,0,0)"  stroke-width="2.0"/>
<line x1="225.6" y1="100.0" x2="249.0" y2="86.5" stroke="rgb(0,0,0)"  stroke-width="2.0"/>
<line x1="190.9" y1="80.0" x2="190.9" y2="53.0" stroke="rgb(0,0,0)"  stroke-width="2.0"/>
<line x1="118.3" y1="152.4" x2="105.9" y2="190.4" stroke="rgb(0,0,0)"  stroke-width="2.0"/>
<line x1="94.7" y1="120.0" x2="67.7" y2="120.0" stroke="rgb(0,0,0)"  stroke-width="2.0"/>
<line x1="105.9" y1="190.4" x2="79.5" y2="196.0" stroke="rgb(0,0,0)"  stroke-width="2.0"/>
<line x1="105.9" y1="190.4" x2="111.5" y2="216.8" stroke="rgb(0,0,0)"  stroke-width="2.0"/>
<line x1="105.9" y1="190.4" x2="131.6" y2="198.7" stroke="rgb(0,0,0)"  stroke-width="2.0"/>
<line x1="58.1" y1="189.1" x2="48.7" y2="178.7" stroke="rgb(0,0,0)"  stroke-width="2.0"/>
<line x1="114.2" y1="75.3" x2="109.9" y2="62.0" stroke="rgb(0,0,0)"  stroke-width="2.0"/>
<line x1="94.7" y1="120.0" x2="118.3" y2="152.4" stroke="rgb(0,0,0)"  stroke-width="2.0"/>
<line x1="104.1" y1="120.6" x2="120.6" y2="143.3" stroke="rgb(0,0,0)"  stroke-width="2.0"/>
<line x1="118.3" y1="152.4" x2="143.9" y2="144.0" stroke="rgb(0,0,0)"  stroke-width="2.0"/>
<line x1="156.3" y1="127.0" x2="156.3" y2="100.0" stroke="rgb(0,0,0)"  stroke-width="2.0"/>
<line x1="156.3" y1="100.0" x2="130.8" y2="91.7" stroke="rgb(0,0,0)"  stroke-width="2.0"/>
<line x1="148.4" y1="105.0" x2="130.5" y2="99.2" stroke="rgb(0,0,0)"  stroke-width="2.0"/>
<line x1="110.6" y1="98.2" x2="94.7" y2="120.0" stroke="rgb(0,0,0)"  stroke-width="2.0"/>
<line x1="225.6" y1="100.0" x2="190.9" y2="80.0" stroke="rgb(0,0,0)"  stroke-width="2.0"/>
<line x1="216.8" y1="103.2" x2="192.5" y2="89.2" stroke="rgb(0,0,0)"  stroke-width="2.0"/>
<line x1="190.9" y1="80.0" x2="156.3" y2="100.0" stroke="rgb(0,0,0)"  stroke-width="2.0"/>
<line x1="167.6" y1="146.5" x2="190.9" y2="160.0" stroke="rgb(0,0,0)"  stroke-width="2.0"/>
<line x1="190.9" y1="160.0" x2="225.6" y2="140.0" stroke="rgb(0,0,0)"  stroke-width="2.0"/>
<line x1="192.5" y1="150.8" x2="216.8" y2="136.8" stroke="rgb(0,0,0)"  stroke-width="2.0"/>
<line x1="225.6" y1="140.0" x2="225.6" y2="100.0" stroke="rgb(0,0,0)"  stroke-width="2.0"/>
<text x="204.935085" y="242.641016" fill="rgb(191,191,191)"  stroke="rgb(191,191,191)" stroke-width="1" font-size="16" >H</text>
<text x="99.891128" y="57.597060" fill="rgb(191,191,191)"  stroke="rgb(191,191,191)" stroke-width="1" font-size="16" >H</text>
<text x="112.251808" y="95.639320" fill="rgb(12,12,255)"  stroke="rgb(12,12,255)" stroke-width="1" font-size="16" >N</text>
<text x="34.000000" y="176.993615" fill="rgb(191,191,191)"  stroke="rgb(191,191,191)" stroke-width="1" font-size="16" >H</text>
<text x="137.933389" y="210.763620" fill="rgb(191,191,191)"  stroke="rgb(191,191,191)" stroke-width="1" font-size="16" >H</text>
<text x="108.207596" y="237.528844" fill="rgb(191,191,191)"  stroke="rgb(191,191,191)" stroke-width="1" font-size="16" >H</text>
<text x="48.740398" y="128.000000" fill="rgb(191,191,191)"  stroke="rgb(191,191,191)" stroke-width="1" font-size="16" >H</text>
<text x="184.935085" y="48.000000" fill="rgb(191,191,191)"  stroke="rgb(191,191,191)" stroke-width="1" font-size="16" >H</text>
<text x="254.217117" y="88.000000" fill="rgb(191,191,191)"  stroke="rgb(191,191,191)" stroke-width="1" font-size="16" >H</text>
<text x="254.217117" y="168.000000" fill="rgb(191,191,191)"  stroke="rgb(191,191,191)" stroke-width="1" font-size="16" >H</text>
<text x="150.294069" y="228.000000" fill="rgb(191,191,191)"  stroke="rgb(191,191,191)" stroke-width="1" font-size="16" >H</text>
<text x="224.935085" y="208.000000" fill="rgb(191,191,191)"  stroke="rgb(191,191,191)" stroke-width="1" font-size="16" >H</text>
<text x="60.765224" y="206.719408" fill="rgb(255,12,12)"  stroke="rgb(255,12,12)" stroke-width="1" font-size="16" >O</text>
<text x="150.294069" y="148.000000" fill="rgb(12,12,255)"  stroke="rgb(12,12,255)" stroke-width="1" font-size="16" >N</text>
</svg>
</g>
<text font-size="18.000000" fill ="black" font-family="sans-serif"
x="10.000000" y="20.000000" >ZINC19091587</text>
</svg>
