<?xml version="1.0"?>
<svg version="1.1" id="topsvg"
xmlns="http://www.w3.org/2000/svg" xmlns:xlink="http://www.w3.org/1999/xlink"
xmlns:cml="http://www.xml-cml.org/schema" x="0" y="0" width="200px" height="200px" viewBox="0 0 100 100">
<title>ZINC04487629 - Open Babel Depiction</title>
<rect x="0" y="0" width="100" height="100" fill="white"/>
<g transform="translate(0,0)">
<svg width="100" height="100" x="0" y="0" viewBox="0 0 380.57 272.522"
font-family="sans-serif" stroke="rgb(0,0,0)" stroke-width="2"  stroke-linecap="round">
<line x1="298.5" y1="201.2" x2="282.8" y2="165.9" stroke="rgb(0,0,0)"  stroke-width="2.0"/>
<line x1="298.5" y1="201.2" x2="319.3" y2="216.3" stroke="rgb(0,0,0)"  stroke-width="2.0"/>
<line x1="298.5" y1="201.2" x2="322.0" y2="190.8" stroke="rgb(0,0,0)"  stroke-width="2.0"/>
<line x1="298.5" y1="201.2" x2="283.4" y2="222.0" stroke="rgb(0,0,0)"  stroke-width="2.0"/>
<line x1="302.1" y1="132.4" x2="327.6" y2="129.7" stroke="rgb(0,0,0)"  stroke-width="2.0"/>
<line x1="276.2" y1="103.7" x2="281.6" y2="78.6" stroke="rgb(0,0,0)"  stroke-width="2.0"/>
<line x1="229.7" y1="112.9" x2="173.9" y2="80.8" stroke="rgb(0,0,0)"  stroke-width="2.0"/>
<line x1="235.3" y1="166.6" x2="225.9" y2="175.1" stroke="rgb(0,0,0)"  stroke-width="2.0"/>
<line x1="173.9" y1="80.8" x2="140.5" y2="100.1" stroke="rgb(0,0,0)"  stroke-width="2.0"/>
<line x1="173.9" y1="80.8" x2="161.1" y2="58.5" stroke="rgb(0,0,0)"  stroke-width="2.0"/>
<line x1="173.9" y1="80.8" x2="186.8" y2="58.5" stroke="rgb(0,0,0)"  stroke-width="2.0"/>
<line x1="140.5" y1="138.8" x2="162.7" y2="151.6" stroke="rgb(0,0,0)"  stroke-width="2.0"/>
<line x1="107.0" y1="158.1" x2="107.0" y2="183.8" stroke="rgb(0,0,0)"  stroke-width="2.0"/>
<line x1="73.5" y1="138.8" x2="51.3" y2="151.6" stroke="rgb(0,0,0)"  stroke-width="2.0"/>
<line x1="73.5" y1="100.1" x2="51.3" y2="87.3" stroke="rgb(0,0,0)"  stroke-width="2.0"/>
<line x1="107.0" y1="80.8" x2="107.0" y2="55.1" stroke="rgb(0,0,0)"  stroke-width="2.0"/>
<line x1="296.6" y1="61.9" x2="308.7" y2="57.9" stroke="rgb(0,0,0)"  stroke-width="2.0"/>
<line x1="274.6" y1="57.2" x2="265.2" y2="48.7" stroke="rgb(0,0,0)"  stroke-width="2.0"/>
<line x1="276.2" y1="103.7" x2="252.8" y2="114.1" stroke="rgb(0,0,0)"  stroke-width="2.0"/>
<line x1="242.3" y1="132.4" x2="243.6" y2="144.9" stroke="rgb(0,0,0)"  stroke-width="2.0"/>
<line x1="257.4" y1="160.5" x2="282.8" y2="165.9" stroke="rgb(0,0,0)"  stroke-width="2.0"/>
<line x1="261.0" y1="153.9" x2="278.4" y2="157.6" stroke="rgb(0,0,0)"  stroke-width="2.0"/>
<line x1="282.8" y1="165.9" x2="302.1" y2="132.4" stroke="rgb(0,0,0)"  stroke-width="2.0"/>
<line x1="302.1" y1="132.4" x2="276.2" y2="103.7" stroke="rgb(0,0,0)"  stroke-width="2.0"/>
<line x1="292.7" y1="132.8" x2="274.9" y2="113.0" stroke="rgb(0,0,0)"  stroke-width="2.0"/>
<line x1="107.0" y1="158.1" x2="73.5" y2="138.8" stroke="rgb(0,0,0)"  stroke-width="2.0"/>
<line x1="73.5" y1="138.8" x2="73.5" y2="100.1" stroke="rgb(0,0,0)"  stroke-width="2.0"/>
<line x1="80.7" y1="132.8" x2="80.7" y2="106.1" stroke="rgb(0,0,0)"  stroke-width="2.0"/>
<line x1="73.5" y1="100.1" x2="107.0" y2="80.8" stroke="rgb(0,0,0)"  stroke-width="2.0"/>
<line x1="107.0" y1="80.8" x2="140.5" y2="100.1" stroke="rgb(0,0,0)"  stroke-width="2.0"/>
<line x1="108.6" y1="90.0" x2="131.7" y2="103.3" stroke="rgb(0,0,0)"  stroke-width="2.0"/>
<line x1="140.5" y1="100.1" x2="140.5" y2="138.8" stroke="rgb(0,0,0)"  stroke-width="2.0"/>
<line x1="140.5" y1="138.8" x2="107.0" y2="158.1" stroke="rgb(0,0,0)"  stroke-width="2.0"/>
<line x1="131.7" y1="135.5" x2="108.6" y2="148.9" stroke="rgb(0,0,0)"  stroke-width="2.0"/>
<text x="278.280903" y="73.873050" fill="rgb(12,12,255)"  stroke="rgb(12,12,255)" stroke-width="1" font-size="16" >N</text>
<text x="210.224728" y="191.749804" fill="rgb(191,191,191)"  stroke="rgb(191,191,191)" stroke-width="1" font-size="16" >H</text>
<text x="249.545970" y="48.000000" fill="rgb(191,191,191)"  stroke="rgb(191,191,191)" stroke-width="1" font-size="16" >H</text>
<text x="315.055089" y="61.924393" fill="rgb(191,191,191)"  stroke="rgb(191,191,191)" stroke-width="1" font-size="16" >H</text>
<text x="100.972631" y="50.088574" fill="rgb(191,191,191)"  stroke="rgb(191,191,191)" stroke-width="1" font-size="16" >H</text>
<text x="34.000000" y="88.755241" fill="rgb(191,191,191)"  stroke="rgb(191,191,191)" stroke-width="1" font-size="16" >H</text>
<text x="100.972631" y="204.755241" fill="rgb(191,191,191)"  stroke="rgb(191,191,191)" stroke-width="1" font-size="16" >H</text>
<text x="167.945262" y="166.088574" fill="rgb(191,191,191)"  stroke="rgb(191,191,191)" stroke-width="1" font-size="16" >H</text>
<text x="187.278596" y="55.268925" fill="rgb(191,191,191)"  stroke="rgb(191,191,191)" stroke-width="1" font-size="16" >H</text>
<text x="148.611929" y="55.268925" fill="rgb(191,191,191)"  stroke="rgb(191,191,191)" stroke-width="1" font-size="16" >H</text>
<text x="334.569548" y="136.387923" fill="rgb(191,191,191)"  stroke="rgb(191,191,191)" stroke-width="1" font-size="16" >H</text>
<text x="269.780822" y="240.521754" fill="rgb(191,191,191)"  stroke="rgb(191,191,191)" stroke-width="1" font-size="16" >H</text>
<text x="327.832276" y="193.512614" fill="rgb(191,191,191)"  stroke="rgb(191,191,191)" stroke-width="1" font-size="16" >H</text>
<text x="323.790509" y="231.967460" fill="rgb(191,191,191)"  stroke="rgb(191,191,191)" stroke-width="1" font-size="16" >H</text>
<text x="22.000000" y="166.088574" fill="rgb(30,239,30)"  stroke="rgb(30,239,30)" stroke-width="1" font-size="16" >Cl</text>
<text x="238.959661" y="165.876754" fill="rgb(12,12,255)"  stroke="rgb(12,12,255)" stroke-width="1" font-size="16" >N</text>
<text x="234.917894" y="127.421908" fill="rgb(12,12,255)"  stroke="rgb(12,12,255)" stroke-width="1" font-size="16" >N</text>
</svg>
</g>
<text font-size="18.000000" fill ="black" font-family="sans-serif"
x="10.000000" y="20.000000" >ZINC04487629</text>
</svg>
