<?xml version="1.0"?>
<svg version="1.1" id="topsvg"
xmlns="http://www.w3.org/2000/svg" xmlns:xlink="http://www.w3.org/1999/xlink"
xmlns:cml="http://www.xml-cml.org/schema" x="0" y="0" width="200px" height="200px" viewBox="0 0 100 100">
<title>ZINC22913543 - Open Babel Depiction</title>
<rect x="0" y="0" width="100" height="100" fill="white"/>
<g transform="translate(0,0)">
<svg width="100" height="100" x="0" y="0" viewBox="0 0 417.917 356.915"
font-family="sans-serif" stroke="rgb(0,0,0)" stroke-width="2"  stroke-linecap="round">
<line x1="150.7" y1="284.6" x2="138.5" y2="263.5" stroke="rgb(0,0,0)"  stroke-width="2.0"/>
<line x1="150.7" y1="284.6" x2="171.7" y2="296.8" stroke="rgb(0,0,0)"  stroke-width="2.0"/>
<line x1="150.7" y1="284.6" x2="171.7" y2="272.4" stroke="rgb(0,0,0)"  stroke-width="2.0"/>
<line x1="150.7" y1="284.6" x2="138.5" y2="305.7" stroke="rgb(0,0,0)"  stroke-width="2.0"/>
<line x1="138.5" y1="241.0" x2="169.3" y2="187.6" stroke="rgb(0,0,0)"  stroke-width="2.0"/>
<line x1="119.0" y1="252.3" x2="107.7" y2="252.3" stroke="rgb(0,0,0)"  stroke-width="2.0"/>
<polygon points="169.326460 187.588805 192.988642 196.631370 188.988642 203.559574 " stroke-width="2.000000" fill="rgb(0,0,0)"  stroke="rgb(0,0,0)" />
<line x1="169.3" y1="187.6" x2="188.0" y2="155.3" stroke="rgb(0,0,0)"  stroke-width="2.0"/>
<line x1="169.3" y1="187.6" x2="137.0" y2="168.9" stroke="rgb(0,0,0)"  stroke-width="2.0"/>
<line x1="188.0" y1="155.3" x2="249.7" y2="155.3" stroke="rgb(0,0,0)"  stroke-width="2.0"/>
<line x1="188.0" y1="155.3" x2="188.0" y2="130.9" stroke="rgb(0,0,0)"  stroke-width="2.0"/>
<line x1="188.0" y1="155.3" x2="166.9" y2="143.1" stroke="rgb(0,0,0)"  stroke-width="2.0"/>
<line x1="267.6" y1="167.3" x2="286.3" y2="212.2" stroke="rgb(0,0,0)"  stroke-width="2.0"/>
<line x1="253.0" y1="119.2" x2="229.5" y2="125.5" stroke="rgb(0,0,0)"  stroke-width="2.0"/>
<line x1="253.0" y1="119.2" x2="235.8" y2="102.0" stroke="rgb(0,0,0)"  stroke-width="2.0"/>
<line x1="279.4" y1="92.8" x2="262.2" y2="75.6" stroke="rgb(0,0,0)"  stroke-width="2.0"/>
<line x1="279.4" y1="92.8" x2="285.7" y2="69.3" stroke="rgb(0,0,0)"  stroke-width="2.0"/>
<line x1="324.6" y1="93.3" x2="341.9" y2="76.1" stroke="rgb(0,0,0)"  stroke-width="2.0"/>
<line x1="325.1" y1="138.5" x2="348.6" y2="132.2" stroke="rgb(0,0,0)"  stroke-width="2.0"/>
<line x1="325.1" y1="138.5" x2="342.3" y2="155.7" stroke="rgb(0,0,0)"  stroke-width="2.0"/>
<line x1="298.7" y1="164.9" x2="315.9" y2="182.1" stroke="rgb(0,0,0)"  stroke-width="2.0"/>
<line x1="298.7" y1="164.9" x2="292.4" y2="188.4" stroke="rgb(0,0,0)"  stroke-width="2.0"/>
<line x1="341.9" y1="76.1" x2="365.4" y2="69.8" stroke="rgb(0,0,0)"  stroke-width="2.0"/>
<line x1="341.9" y1="76.1" x2="359.1" y2="93.3" stroke="rgb(0,0,0)"  stroke-width="2.0"/>
<line x1="341.9" y1="76.1" x2="335.6" y2="52.6" stroke="rgb(0,0,0)"  stroke-width="2.0"/>
<line x1="137.0" y1="131.6" x2="158.1" y2="119.4" stroke="rgb(0,0,0)"  stroke-width="2.0"/>
<line x1="104.7" y1="112.9" x2="104.7" y2="88.6" stroke="rgb(0,0,0)"  stroke-width="2.0"/>
<line x1="72.3" y1="131.6" x2="51.3" y2="119.4" stroke="rgb(0,0,0)"  stroke-width="2.0"/>
<line x1="72.3" y1="168.9" x2="51.3" y2="181.1" stroke="rgb(0,0,0)"  stroke-width="2.0"/>
<line x1="104.7" y1="187.6" x2="104.7" y2="211.9" stroke="rgb(0,0,0)"  stroke-width="2.0"/>
<line x1="104.7" y1="112.9" x2="72.3" y2="131.6" stroke="rgb(0,0,0)"  stroke-width="2.0"/>
<line x1="72.3" y1="131.6" x2="72.3" y2="168.9" stroke="rgb(0,0,0)"  stroke-width="2.0"/>
<line x1="79.5" y1="137.6" x2="79.5" y2="162.9" stroke="rgb(0,0,0)"  stroke-width="2.0"/>
<line x1="72.3" y1="168.9" x2="104.7" y2="187.6" stroke="rgb(0,0,0)"  stroke-width="2.0"/>
<line x1="104.7" y1="187.6" x2="137.0" y2="168.9" stroke="rgb(0,0,0)"  stroke-width="2.0"/>
<line x1="106.3" y1="178.4" x2="128.2" y2="165.7" stroke="rgb(0,0,0)"  stroke-width="2.0"/>
<line x1="137.0" y1="168.9" x2="137.0" y2="131.6" stroke="rgb(0,0,0)"  stroke-width="2.0"/>
<line x1="137.0" y1="131.6" x2="104.7" y2="112.9" stroke="rgb(0,0,0)"  stroke-width="2.0"/>
<line x1="128.2" y1="134.8" x2="106.3" y2="122.2" stroke="rgb(0,0,0)"  stroke-width="2.0"/>
<line x1="279.4" y1="92.8" x2="302.9" y2="99.1" stroke="rgb(0,0,0)"  stroke-width="2.0"/>
<line x1="318.8" y1="115.0" x2="325.1" y2="138.5" stroke="rgb(0,0,0)"  stroke-width="2.0"/>
<line x1="325.1" y1="138.5" x2="298.7" y2="164.9" stroke="rgb(0,0,0)"  stroke-width="2.0"/>
<line x1="298.7" y1="164.9" x2="275.2" y2="158.6" stroke="rgb(0,0,0)"  stroke-width="2.0"/>
<line x1="259.3" y1="142.7" x2="253.0" y2="119.2" stroke="rgb(0,0,0)"  stroke-width="2.0"/>
<line x1="253.0" y1="119.2" x2="279.4" y2="92.8" stroke="rgb(0,0,0)"  stroke-width="2.0"/>
<text x="371.916984" y="74.398653" fill="rgb(191,191,191)"  stroke="rgb(191,191,191)" stroke-width="1" font-size="16" >H</text>
<text x="181.993127" y="125.923857" fill="rgb(191,191,191)"  stroke="rgb(191,191,191)" stroke-width="1" font-size="16" >H</text>
<text x="149.661512" y="144.590524" fill="rgb(191,191,191)"  stroke="rgb(191,191,191)" stroke-width="1" font-size="16" >H</text>
<text x="210.935985" y="136.858537" fill="rgb(191,191,191)"  stroke="rgb(191,191,191)" stroke-width="1" font-size="16" >H</text>
<text x="220.598563" y="100.797306" fill="rgb(191,191,191)"  stroke="rgb(191,191,191)" stroke-width="1" font-size="16" >H</text>
<text x="246.997216" y="74.398653" fill="rgb(191,191,191)"  stroke="rgb(191,191,191)" stroke-width="1" font-size="16" >H</text>
<text x="283.058447" y="64.736075" fill="rgb(191,191,191)"  stroke="rgb(191,191,191)" stroke-width="1" font-size="16" >H</text>
<text x="355.180908" y="136.858537" fill="rgb(191,191,191)"  stroke="rgb(191,191,191)" stroke-width="1" font-size="16" >H</text>
<text x="345.518331" y="172.919768" fill="rgb(191,191,191)"  stroke="rgb(191,191,191)" stroke-width="1" font-size="16" >H</text>
<text x="319.119678" y="199.318421" fill="rgb(191,191,191)"  stroke="rgb(191,191,191)" stroke-width="1" font-size="16" >H</text>
<text x="283.058447" y="208.980999" fill="rgb(191,191,191)"  stroke="rgb(191,191,191)" stroke-width="1" font-size="16" >H</text>
<text x="125.993127" y="324.915266" fill="rgb(191,191,191)"  stroke="rgb(191,191,191)" stroke-width="1" font-size="16" >H</text>
<text x="362.254406" y="110.459884" fill="rgb(191,191,191)"  stroke="rgb(191,191,191)" stroke-width="1" font-size="16" >H</text>
<text x="326.193175" y="48.000000" fill="rgb(191,191,191)"  stroke="rgb(191,191,191)" stroke-width="1" font-size="16" >H</text>
<text x="163.326460" y="120.922139" fill="rgb(191,191,191)"  stroke="rgb(191,191,191)" stroke-width="1" font-size="16" >H</text>
<text x="98.663230" y="83.588805" fill="rgb(191,191,191)"  stroke="rgb(191,191,191)" stroke-width="1" font-size="16" >H</text>
<text x="34.000000" y="120.922139" fill="rgb(191,191,191)"  stroke="rgb(191,191,191)" stroke-width="1" font-size="16" >H</text>
<text x="34.000000" y="195.588805" fill="rgb(191,191,191)"  stroke="rgb(191,191,191)" stroke-width="1" font-size="16" >H</text>
<text x="98.663230" y="232.922139" fill="rgb(191,191,191)"  stroke="rgb(191,191,191)" stroke-width="1" font-size="16" >H</text>
<text x="88.659794" y="260.252036" fill="rgb(191,191,191)"  stroke="rgb(191,191,191)" stroke-width="1" font-size="16" >H</text>
<text x="285.233490" y="232.240195" fill="rgb(191,191,191)"  stroke="rgb(191,191,191)" stroke-width="1" font-size="16" >H</text>
<text x="125.993127" y="260.252036" fill="rgb(12,12,255)"  stroke="rgb(12,12,255)" stroke-width="1" font-size="16" >N</text>
<text x="195.658075" y="214.255472" fill="rgb(191,191,191)"  stroke="rgb(191,191,191)" stroke-width="1" font-size="16" >H</text>
<text x="267.459794" y="151.225190" fill="rgb(12,12,255)"  stroke="rgb(12,12,255)" stroke-width="1" font-size="16" >+</text>
<text x="256.659794" y="163.257190" fill="rgb(12,12,255)"  stroke="rgb(12,12,255)" stroke-width="1" font-size="16" >N</text>
<text x="309.457100" y="110.459884" fill="rgb(12,12,255)"  stroke="rgb(12,12,255)" stroke-width="1" font-size="16" >N</text>
<text x="176.991409" y="311.250317" fill="rgb(191,191,191)"  stroke="rgb(191,191,191)" stroke-width="1" font-size="16" >H</text>
<text x="176.991409" y="273.916984" fill="rgb(191,191,191)"  stroke="rgb(191,191,191)" stroke-width="1" font-size="16" >H</text>
</svg>
</g>
<text font-size="18.000000" fill ="black" font-family="sans-serif"
x="10.000000" y="20.000000" >ZINC22913543</text>
</svg>
