<?xml version="1.0"?>
<svg version="1.1" id="topsvg"
xmlns="http://www.w3.org/2000/svg" xmlns:xlink="http://www.w3.org/1999/xlink"
xmlns:cml="http://www.xml-cml.org/schema" x="0" y="0" width="200px" height="200px" viewBox="0 0 100 100">
<title>ZINC19947718 - Open Babel Depiction</title>
<rect x="0" y="0" width="100" height="100" fill="white"/>
<g transform="translate(0,0)">
<svg width="100" height="100" x="0" y="0" viewBox="0 0 332.624 257.785"
font-family="sans-serif" stroke="rgb(0,0,0)" stroke-width="2"  stroke-linecap="round">
<line x1="260.2" y1="148.0" x2="235.8" y2="148.0" stroke="rgb(0,0,0)"  stroke-width="2.0"/>
<line x1="260.2" y1="148.0" x2="281.4" y2="135.8" stroke="rgb(0,0,0)"  stroke-width="2.0"/>
<line x1="260.2" y1="148.0" x2="260.2" y2="123.5" stroke="rgb(0,0,0)"  stroke-width="2.0"/>
<line x1="260.2" y1="148.0" x2="272.4" y2="169.1" stroke="rgb(0,0,0)"  stroke-width="2.0"/>
<line x1="222.8" y1="161.0" x2="222.8" y2="185.4" stroke="rgb(0,0,0)"  stroke-width="2.0"/>
<line x1="209.8" y1="148.0" x2="148.0" y2="148.0" stroke="rgb(0,0,0)"  stroke-width="2.0"/>
<line x1="222.8" y1="135.0" x2="222.8" y2="123.5" stroke="rgb(0,0,0)"  stroke-width="2.0"/>
<line x1="222.8" y1="185.4" x2="235.0" y2="206.5" stroke="rgb(0,0,0)"  stroke-width="2.0"/>
<line x1="222.8" y1="185.4" x2="247.2" y2="185.4" stroke="rgb(0,0,0)"  stroke-width="2.0"/>
<line x1="222.8" y1="185.4" x2="201.7" y2="197.6" stroke="rgb(0,0,0)"  stroke-width="2.0"/>
<polygon points="147.960020 147.960020 124.625943 192.521602 117.856341 188.258682 " stroke-width="2.000000" fill="rgb(0,0,0)"  stroke="rgb(0,0,0)" />
<line x1="160.3" y1="112.6" x2="182.7" y2="122.4" stroke="rgb(0,0,0)"  stroke-width="2.0"/>
<line x1="160.3" y1="112.6" x2="180.0" y2="98.1" stroke="rgb(0,0,0)"  stroke-width="2.0"/>
<line x1="140.4" y1="81.0" x2="162.0" y2="69.5" stroke="rgb(0,0,0)"  stroke-width="2.0"/>
<line x1="140.4" y1="81.0" x2="141.3" y2="56.6" stroke="rgb(0,0,0)"  stroke-width="2.0"/>
<line x1="103.2" y1="76.8" x2="107.8" y2="52.8" stroke="rgb(0,0,0)"  stroke-width="2.0"/>
<line x1="103.2" y1="76.8" x2="84.7" y2="60.8" stroke="rgb(0,0,0)"  stroke-width="2.0"/>
<line x1="76.8" y1="103.2" x2="60.8" y2="84.7" stroke="rgb(0,0,0)"  stroke-width="2.0"/>
<line x1="76.8" y1="103.2" x2="52.8" y2="107.8" stroke="rgb(0,0,0)"  stroke-width="2.0"/>
<line x1="69.9" y1="147.3" x2="60.3" y2="153.4" stroke="rgb(0,0,0)"  stroke-width="2.0"/>
<line x1="112.6" y1="160.3" x2="98.1" y2="180.0" stroke="rgb(0,0,0)"  stroke-width="2.0"/>
<line x1="112.6" y1="160.3" x2="122.4" y2="182.7" stroke="rgb(0,0,0)"  stroke-width="2.0"/>
<line x1="140.4" y1="81.0" x2="103.2" y2="76.8" stroke="rgb(0,0,0)"  stroke-width="2.0"/>
<line x1="103.2" y1="76.8" x2="76.8" y2="103.2" stroke="rgb(0,0,0)"  stroke-width="2.0"/>
<line x1="76.8" y1="103.2" x2="79.5" y2="127.5" stroke="rgb(0,0,0)"  stroke-width="2.0"/>
<line x1="92.0" y1="147.3" x2="112.6" y2="160.3" stroke="rgb(0,0,0)"  stroke-width="2.0"/>
<line x1="112.6" y1="160.3" x2="148.0" y2="148.0" stroke="rgb(0,0,0)"  stroke-width="2.0"/>
<line x1="148.0" y1="148.0" x2="160.3" y2="112.6" stroke="rgb(0,0,0)"  stroke-width="2.0"/>
<line x1="160.3" y1="112.6" x2="140.4" y2="81.0" stroke="rgb(0,0,0)"  stroke-width="2.0"/>
<text x="235.508408" y="225.785487" fill="rgb(191,191,191)"  stroke="rgb(191,191,191)" stroke-width="1" font-size="16" >H</text>
<text x="216.798730" y="118.540666" fill="rgb(191,191,191)"  stroke="rgb(191,191,191)" stroke-width="1" font-size="16" >H</text>
<text x="43.272769" y="168.318850" fill="rgb(191,191,191)"  stroke="rgb(191,191,191)" stroke-width="1" font-size="16" >H</text>
<text x="121.604217" y="202.616018" fill="rgb(191,191,191)"  stroke="rgb(191,191,191)" stroke-width="1" font-size="16" >H</text>
<text x="84.420147" y="198.426380" fill="rgb(191,191,191)"  stroke="rgb(191,191,191)" stroke-width="1" font-size="16" >H</text>
<text x="34.000000" y="118.183175" fill="rgb(191,191,191)"  stroke="rgb(191,191,191)" stroke-width="1" font-size="16" >H</text>
<text x="46.358829" y="82.863670" fill="rgb(191,191,191)"  stroke="rgb(191,191,191)" stroke-width="1" font-size="16" >H</text>
<text x="68.863670" y="60.358829" fill="rgb(191,191,191)"  stroke="rgb(191,191,191)" stroke-width="1" font-size="16" >H</text>
<text x="104.183175" y="48.000000" fill="rgb(191,191,191)"  stroke="rgb(191,191,191)" stroke-width="1" font-size="16" >H</text>
<text x="135.809707" y="51.563454" fill="rgb(191,191,191)"  stroke="rgb(191,191,191)" stroke-width="1" font-size="16" >H</text>
<text x="167.493580" y="71.471751" fill="rgb(191,191,191)"  stroke="rgb(191,191,191)" stroke-width="1" font-size="16" >H</text>
<text x="184.426380" y="98.420147" fill="rgb(191,191,191)"  stroke="rgb(191,191,191)" stroke-width="1" font-size="16" >H</text>
<text x="188.616018" y="135.604217" fill="rgb(191,191,191)"  stroke="rgb(191,191,191)" stroke-width="1" font-size="16" >H</text>
<text x="184.392618" y="212.089053" fill="rgb(191,191,191)"  stroke="rgb(191,191,191)" stroke-width="1" font-size="16" >H</text>
<text x="254.218085" y="193.379375" fill="rgb(191,191,191)"  stroke="rgb(191,191,191)" stroke-width="1" font-size="16" >H</text>
<text x="272.927762" y="188.366132" fill="rgb(191,191,191)"  stroke="rgb(191,191,191)" stroke-width="1" font-size="16" >H</text>
<text x="254.218085" y="118.540666" fill="rgb(191,191,191)"  stroke="rgb(191,191,191)" stroke-width="1" font-size="16" >H</text>
<text x="286.624197" y="137.250343" fill="rgb(191,191,191)"  stroke="rgb(191,191,191)" stroke-width="1" font-size="16" >H</text>
<text x="74.956642" y="148.410553" fill="rgb(12,12,255)"  stroke="rgb(12,12,255)" stroke-width="1" font-size="16" >N</text>
<text x="102.081097" y="219.288560" fill="rgb(191,191,191)"  stroke="rgb(191,191,191)" stroke-width="1" font-size="16" >H</text>
<text x="227.598730" y="143.928020" fill="rgb(12,12,255)"  stroke="rgb(12,12,255)" stroke-width="1" font-size="16" >+</text>
<text x="216.798730" y="155.960020" fill="rgb(12,12,255)"  stroke="rgb(12,12,255)" stroke-width="1" font-size="16" >N</text>
</svg>
</g>
<text font-size="18.000000" fill ="black" font-family="sans-serif"
x="10.000000" y="20.000000" >ZINC19947718</text>
</svg>
