<?xml version="1.0"?>
<svg version="1.1" id="topsvg"
xmlns="http://www.w3.org/2000/svg" xmlns:xlink="http://www.w3.org/1999/xlink"
xmlns:cml="http://www.xml-cml.org/schema" x="0" y="0" width="200px" height="200px" viewBox="0 0 100 100">
<title>ZINC86003129 - Open Babel Depiction</title>
<rect x="0" y="0" width="100" height="100" fill="white"/>
<g transform="translate(0,0)">
<svg width="100" height="100" x="0" y="0" viewBox="0 0 546.572 323.88"
font-family="sans-serif" stroke="rgb(0,0,0)" stroke-width="2"  stroke-linecap="round">
<line x1="135.4" y1="247.1" x2="135.4" y2="270.9" stroke="rgb(0,0,0)"  stroke-width="2.0"/>
<line x1="167.3" y1="228.8" x2="187.8" y2="240.6" stroke="rgb(0,0,0)"  stroke-width="2.0"/>
<line x1="167.3" y1="192.0" x2="187.8" y2="180.2" stroke="rgb(0,0,0)"  stroke-width="2.0"/>
<line x1="135.4" y1="173.7" x2="135.4" y2="149.9" stroke="rgb(0,0,0)"  stroke-width="2.0"/>
<line x1="103.6" y1="192.0" x2="83.1" y2="180.2" stroke="rgb(0,0,0)"  stroke-width="2.0"/>
<line x1="103.6" y1="228.8" x2="83.1" y2="240.6" stroke="rgb(0,0,0)"  stroke-width="2.0"/>
<line x1="60.6" y1="240.6" x2="51.3" y2="235.3" stroke="rgb(0,0,0)"  stroke-width="2.0"/>
<line x1="71.8" y1="260.1" x2="71.8" y2="270.9" stroke="rgb(0,0,0)"  stroke-width="2.0"/>
<line x1="230.9" y1="192.0" x2="219.0" y2="212.6" stroke="rgb(0,0,0)"  stroke-width="2.0"/>
<line x1="230.9" y1="192.0" x2="242.7" y2="212.6" stroke="rgb(0,0,0)"  stroke-width="2.0"/>
<line x1="262.7" y1="173.7" x2="274.6" y2="194.2" stroke="rgb(0,0,0)"  stroke-width="2.0"/>
<line x1="262.7" y1="173.7" x2="286.4" y2="173.7" stroke="rgb(0,0,0)"  stroke-width="2.0"/>
<line x1="262.7" y1="136.9" x2="396.6" y2="136.9" stroke="rgb(0,0,0)"  stroke-width="2.0"/>
<line x1="262.7" y1="136.9" x2="274.6" y2="116.4" stroke="rgb(0,0,0)"  stroke-width="2.0"/>
<line x1="230.9" y1="118.6" x2="242.7" y2="98.0" stroke="rgb(0,0,0)"  stroke-width="2.0"/>
<line x1="230.9" y1="118.6" x2="219.0" y2="98.0" stroke="rgb(0,0,0)"  stroke-width="2.0"/>
<line x1="199.1" y1="136.9" x2="187.2" y2="116.4" stroke="rgb(0,0,0)"  stroke-width="2.0"/>
<line x1="199.1" y1="136.9" x2="175.3" y2="136.9" stroke="rgb(0,0,0)"  stroke-width="2.0"/>
<line x1="414.6" y1="149.0" x2="432.8" y2="192.8" stroke="rgb(0,0,0)"  stroke-width="2.0"/>
<line x1="400.1" y1="101.5" x2="377.2" y2="107.6" stroke="rgb(0,0,0)"  stroke-width="2.0"/>
<line x1="400.1" y1="101.5" x2="383.3" y2="84.7" stroke="rgb(0,0,0)"  stroke-width="2.0"/>
<line x1="426.1" y1="75.5" x2="409.3" y2="58.7" stroke="rgb(0,0,0)"  stroke-width="2.0"/>
<line x1="426.1" y1="75.5" x2="432.2" y2="52.6" stroke="rgb(0,0,0)"  stroke-width="2.0"/>
<line x1="471.1" y1="120.5" x2="494.0" y2="114.3" stroke="rgb(0,0,0)"  stroke-width="2.0"/>
<line x1="471.1" y1="120.5" x2="487.9" y2="137.3" stroke="rgb(0,0,0)"  stroke-width="2.0"/>
<line x1="445.1" y1="146.4" x2="461.9" y2="163.2" stroke="rgb(0,0,0)"  stroke-width="2.0"/>
<line x1="445.1" y1="146.4" x2="439.0" y2="169.4" stroke="rgb(0,0,0)"  stroke-width="2.0"/>
<line x1="167.3" y1="192.0" x2="135.4" y2="173.7" stroke="rgb(0,0,0)"  stroke-width="2.0"/>
<line x1="135.4" y1="173.7" x2="103.6" y2="192.0" stroke="rgb(0,0,0)"  stroke-width="2.0"/>
<line x1="133.8" y1="182.9" x2="112.4" y2="195.3" stroke="rgb(0,0,0)"  stroke-width="2.0"/>
<line x1="103.6" y1="192.0" x2="103.6" y2="228.8" stroke="rgb(0,0,0)"  stroke-width="2.0"/>
<line x1="103.6" y1="228.8" x2="135.4" y2="247.1" stroke="rgb(0,0,0)"  stroke-width="2.0"/>
<line x1="112.4" y1="225.5" x2="133.8" y2="237.9" stroke="rgb(0,0,0)"  stroke-width="2.0"/>
<line x1="135.4" y1="247.1" x2="167.3" y2="228.8" stroke="rgb(0,0,0)"  stroke-width="2.0"/>
<line x1="167.3" y1="228.8" x2="167.3" y2="192.0" stroke="rgb(0,0,0)"  stroke-width="2.0"/>
<line x1="160.1" y1="222.8" x2="160.1" y2="198.0" stroke="rgb(0,0,0)"  stroke-width="2.0"/>
<line x1="262.7" y1="173.7" x2="262.7" y2="136.9" stroke="rgb(0,0,0)"  stroke-width="2.0"/>
<line x1="262.7" y1="136.9" x2="230.9" y2="118.6" stroke="rgb(0,0,0)"  stroke-width="2.0"/>
<line x1="230.9" y1="118.6" x2="199.1" y2="136.9" stroke="rgb(0,0,0)"  stroke-width="2.0"/>
<line x1="199.1" y1="136.9" x2="199.1" y2="160.7" stroke="rgb(0,0,0)"  stroke-width="2.0"/>
<line x1="210.3" y1="180.2" x2="230.9" y2="192.0" stroke="rgb(0,0,0)"  stroke-width="2.0"/>
<line x1="230.9" y1="192.0" x2="262.7" y2="173.7" stroke="rgb(0,0,0)"  stroke-width="2.0"/>
<line x1="426.1" y1="75.5" x2="449.0" y2="81.6" stroke="rgb(0,0,0)"  stroke-width="2.0"/>
<line x1="464.9" y1="97.5" x2="471.1" y2="120.5" stroke="rgb(0,0,0)"  stroke-width="2.0"/>
<line x1="471.1" y1="120.5" x2="445.1" y2="146.4" stroke="rgb(0,0,0)"  stroke-width="2.0"/>
<line x1="445.1" y1="146.4" x2="422.2" y2="140.3" stroke="rgb(0,0,0)"  stroke-width="2.0"/>
<line x1="406.3" y1="124.4" x2="400.1" y2="101.5" stroke="rgb(0,0,0)"  stroke-width="2.0"/>
<line x1="400.1" y1="101.5" x2="426.1" y2="75.5" stroke="rgb(0,0,0)"  stroke-width="2.0"/>
<text x="174.698544" y="113.128152" fill="rgb(191,191,191)"  stroke="rgb(191,191,191)" stroke-width="1" font-size="16" >H</text>
<text x="65.813178" y="181.676024" fill="rgb(191,191,191)"  stroke="rgb(191,191,191)" stroke-width="1" font-size="16" >H</text>
<text x="34.000000" y="236.778065" fill="rgb(191,191,191)"  stroke="rgb(191,191,191)" stroke-width="1" font-size="16" >H</text>
<text x="65.813178" y="291.880106" fill="rgb(191,191,191)"  stroke="rgb(191,191,191)" stroke-width="1" font-size="16" >H</text>
<text x="206.511722" y="231.856549" fill="rgb(191,191,191)"  stroke="rgb(191,191,191)" stroke-width="1" font-size="16" >H</text>
<text x="243.246416" y="231.856549" fill="rgb(191,191,191)"  stroke="rgb(191,191,191)" stroke-width="1" font-size="16" >H</text>
<text x="275.059594" y="213.489202" fill="rgb(191,191,191)"  stroke="rgb(191,191,191)" stroke-width="1" font-size="16" >H</text>
<text x="293.426941" y="181.676024" fill="rgb(191,191,191)"  stroke="rgb(191,191,191)" stroke-width="1" font-size="16" >H</text>
<text x="275.059594" y="113.128152" fill="rgb(191,191,191)"  stroke="rgb(191,191,191)" stroke-width="1" font-size="16" >H</text>
<text x="243.246416" y="94.760805" fill="rgb(191,191,191)"  stroke="rgb(191,191,191)" stroke-width="1" font-size="16" >H</text>
<text x="206.511722" y="94.760805" fill="rgb(191,191,191)"  stroke="rgb(191,191,191)" stroke-width="1" font-size="16" >H</text>
<text x="193.065890" y="255.145412" fill="rgb(191,191,191)"  stroke="rgb(191,191,191)" stroke-width="1" font-size="16" >H</text>
<text x="156.331197" y="144.941330" fill="rgb(191,191,191)"  stroke="rgb(191,191,191)" stroke-width="1" font-size="16" >H</text>
<text x="358.640394" y="118.965979" fill="rgb(191,191,191)"  stroke="rgb(191,191,191)" stroke-width="1" font-size="16" >H</text>
<text x="368.148033" y="83.482990" fill="rgb(191,191,191)"  stroke="rgb(191,191,191)" stroke-width="1" font-size="16" >H</text>
<text x="394.123384" y="57.507638" fill="rgb(191,191,191)"  stroke="rgb(191,191,191)" stroke-width="1" font-size="16" >H</text>
<text x="429.606373" y="48.000000" fill="rgb(191,191,191)"  stroke="rgb(191,191,191)" stroke-width="1" font-size="16" >H</text>
<text x="500.572352" y="118.965979" fill="rgb(191,191,191)"  stroke="rgb(191,191,191)" stroke-width="1" font-size="16" >H</text>
<text x="491.064714" y="154.448969" fill="rgb(191,191,191)"  stroke="rgb(191,191,191)" stroke-width="1" font-size="16" >H</text>
<text x="465.089363" y="180.424320" fill="rgb(191,191,191)"  stroke="rgb(191,191,191)" stroke-width="1" font-size="16" >H</text>
<text x="429.606373" y="189.931958" fill="rgb(191,191,191)"  stroke="rgb(191,191,191)" stroke-width="1" font-size="16" >H</text>
<text x="431.746540" y="212.818194" fill="rgb(191,191,191)"  stroke="rgb(191,191,191)" stroke-width="1" font-size="16" >H</text>
<text x="65.813178" y="255.145412" fill="rgb(12,12,255)"  stroke="rgb(12,12,255)" stroke-width="1" font-size="16" >N</text>
<text x="129.439534" y="144.941330" fill="rgb(127,178,255)"  stroke="rgb(127,178,255)" stroke-width="1" font-size="16" >F</text>
<text x="193.065890" y="181.676024" fill="rgb(12,12,255)"  stroke="rgb(12,12,255)" stroke-width="1" font-size="16" >N</text>
<text x="414.431022" y="132.909330" fill="rgb(12,12,255)"  stroke="rgb(12,12,255)" stroke-width="1" font-size="16" >+</text>
<text x="403.631022" y="144.941330" fill="rgb(12,12,255)"  stroke="rgb(12,12,255)" stroke-width="1" font-size="16" >N</text>
<text x="455.581724" y="92.990628" fill="rgb(255,12,12)"  stroke="rgb(255,12,12)" stroke-width="1" font-size="16" >O</text>
<text x="129.439534" y="291.880106" fill="rgb(191,191,191)"  stroke="rgb(191,191,191)" stroke-width="1" font-size="16" >H</text>
</svg>
</g>
<text font-size="18.000000" fill ="black" font-family="sans-serif"
x="10.000000" y="20.000000" >ZINC86003129</text>
</svg>
