<?xml version="1.0"?>
<svg version="1.1" id="topsvg"
xmlns="http://www.w3.org/2000/svg" xmlns:xlink="http://www.w3.org/1999/xlink"
xmlns:cml="http://www.xml-cml.org/schema" x="0" y="0" width="200px" height="200px" viewBox="0 0 100 100">
<title>ZINC98043381 - Open Babel Depiction</title>
<rect x="0" y="0" width="100" height="100" fill="white"/>
<g transform="translate(0,0)">
<svg width="100" height="100" x="0" y="0" viewBox="0 0 362.194 338.434"
font-family="sans-serif" stroke="rgb(0,0,0)" stroke-width="2"  stroke-linecap="round">
<line x1="284.0" y1="252.6" x2="256.0" y2="224.6" stroke="rgb(0,0,0)"  stroke-width="2.0"/>
<line x1="284.0" y1="252.6" x2="290.8" y2="278.2" stroke="rgb(0,0,0)"  stroke-width="2.0"/>
<line x1="284.0" y1="252.6" x2="265.2" y2="271.4" stroke="rgb(0,0,0)"  stroke-width="2.0"/>
<line x1="284.0" y1="252.6" x2="309.6" y2="245.7" stroke="rgb(0,0,0)"  stroke-width="2.0"/>
<line x1="256.0" y1="224.6" x2="271.1" y2="188.0" stroke="rgb(0,0,0)"  stroke-width="2.0"/>
<line x1="236.2" y1="258.9" x2="259.2" y2="272.1" stroke="rgb(0,0,0)"  stroke-width="2.0"/>
<line x1="236.2" y1="258.9" x2="236.2" y2="285.4" stroke="rgb(0,0,0)"  stroke-width="2.0"/>
<line x1="196.6" y1="258.9" x2="196.6" y2="285.4" stroke="rgb(0,0,0)"  stroke-width="2.0"/>
<line x1="196.6" y1="258.9" x2="173.6" y2="272.1" stroke="rgb(0,0,0)"  stroke-width="2.0"/>
<line x1="170.3" y1="235.8" x2="163.5" y2="247.6" stroke="rgb(0,0,0)"  stroke-width="2.0"/>
<line x1="137.3" y1="224.6" x2="137.3" y2="251.2" stroke="rgb(0,0,0)"  stroke-width="2.0"/>
<line x1="137.3" y1="224.6" x2="114.2" y2="237.9" stroke="rgb(0,0,0)"  stroke-width="2.0"/>
<line x1="117.5" y1="190.3" x2="94.5" y2="203.6" stroke="rgb(0,0,0)"  stroke-width="2.0"/>
<line x1="117.5" y1="190.3" x2="94.5" y2="177.0" stroke="rgb(0,0,0)"  stroke-width="2.0"/>
<line x1="137.3" y1="156.0" x2="103.0" y2="136.3" stroke="rgb(0,0,0)"  stroke-width="2.0"/>
<line x1="137.3" y1="156.0" x2="137.3" y2="116.5" stroke="rgb(0,0,0)"  stroke-width="2.0"/>
<line x1="245.2" y1="161.2" x2="271.5" y2="157.2" stroke="rgb(0,0,0)"  stroke-width="2.0"/>
<line x1="228.0" y1="136.0" x2="241.3" y2="112.9" stroke="rgb(0,0,0)"  stroke-width="2.0"/>
<line x1="197.6" y1="133.7" x2="208.5" y2="254.9" stroke="rgb(0,0,0)"  stroke-width="2.0"/>
<line x1="207.0" y1="257.5" x2="173.1" y2="238.0" stroke="rgb(0,0,0)"  stroke-width="2.0"/>
<line x1="210.0" y1="252.3" x2="176.1" y2="232.8" stroke="rgb(0,0,0)"  stroke-width="2.0"/>
<line x1="208.5" y1="254.9" x2="231.0" y2="241.9" stroke="rgb(0,0,0)"  stroke-width="2.0"/>
<line x1="174.6" y1="235.4" x2="174.6" y2="196.3" stroke="rgb(0,0,0)"  stroke-width="2.0"/>
<line x1="174.6" y1="235.4" x2="152.0" y2="248.4" stroke="rgb(0,0,0)"  stroke-width="2.0"/>
<line x1="208.5" y1="176.8" x2="231.0" y2="189.8" stroke="rgb(0,0,0)"  stroke-width="2.0"/>
<line x1="207.0" y1="135.1" x2="240.8" y2="115.6" stroke="rgb(0,0,0)"  stroke-width="2.0"/>
<line x1="210.0" y1="140.3" x2="243.8" y2="120.8" stroke="rgb(0,0,0)"  stroke-width="2.0"/>
<line x1="242.3" y1="118.2" x2="276.1" y2="137.7" stroke="rgb(0,0,0)"  stroke-width="2.0"/>
<line x1="242.3" y1="118.2" x2="242.3" y2="79.1" stroke="rgb(0,0,0)"  stroke-width="2.0"/>
<line x1="276.1" y1="137.7" x2="298.7" y2="150.7" stroke="rgb(0,0,0)"  stroke-width="2.0"/>
<line x1="278.2" y1="134.1" x2="300.8" y2="147.1" stroke="rgb(0,0,0)"  stroke-width="2.0"/>
<line x1="274.0" y1="141.3" x2="296.6" y2="154.4" stroke="rgb(0,0,0)"  stroke-width="2.0"/>
<line x1="242.3" y1="79.1" x2="242.3" y2="53.0" stroke="rgb(0,0,0)"  stroke-width="2.0"/>
<line x1="238.1" y1="79.1" x2="238.1" y2="53.0" stroke="rgb(0,0,0)"  stroke-width="2.0"/>
<line x1="246.5" y1="79.1" x2="246.5" y2="53.0" stroke="rgb(0,0,0)"  stroke-width="2.0"/>
<line x1="174.6" y1="118.2" x2="174.6" y2="92.1" stroke="rgb(0,0,0)"  stroke-width="2.0"/>
<line x1="140.8" y1="137.7" x2="106.9" y2="118.2" stroke="rgb(0,0,0)"  stroke-width="2.0"/>
<line x1="106.9" y1="118.2" x2="121.2" y2="81.8" stroke="rgb(0,0,0)"  stroke-width="2.0"/>
<line x1="106.9" y1="118.2" x2="70.6" y2="103.9" stroke="rgb(0,0,0)"  stroke-width="2.0"/>
<line x1="106.9" y1="118.2" x2="92.7" y2="154.5" stroke="rgb(0,0,0)"  stroke-width="2.0"/>
<line x1="121.2" y1="81.8" x2="141.6" y2="65.5" stroke="rgb(0,0,0)"  stroke-width="2.0"/>
<line x1="121.2" y1="81.8" x2="145.5" y2="91.3" stroke="rgb(0,0,0)"  stroke-width="2.0"/>
<line x1="121.2" y1="81.8" x2="104.9" y2="61.4" stroke="rgb(0,0,0)"  stroke-width="2.0"/>
<line x1="70.6" y1="103.9" x2="54.3" y2="83.5" stroke="rgb(0,0,0)"  stroke-width="2.0"/>
<line x1="70.6" y1="103.9" x2="80.1" y2="79.6" stroke="rgb(0,0,0)"  stroke-width="2.0"/>
<line x1="70.6" y1="103.9" x2="50.2" y2="120.1" stroke="rgb(0,0,0)"  stroke-width="2.0"/>
<line x1="92.7" y1="154.5" x2="72.3" y2="170.8" stroke="rgb(0,0,0)"  stroke-width="2.0"/>
<line x1="92.7" y1="154.5" x2="68.4" y2="145.0" stroke="rgb(0,0,0)"  stroke-width="2.0"/>
<line x1="92.7" y1="154.5" x2="108.9" y2="174.9" stroke="rgb(0,0,0)"  stroke-width="2.0"/>
<line x1="103.0" y1="136.3" x2="89.7" y2="113.2" stroke="rgb(0,0,0)"  stroke-width="2.0"/>
<line x1="103.0" y1="136.3" x2="116.3" y2="113.2" stroke="rgb(0,0,0)"  stroke-width="2.0"/>
<line x1="103.0" y1="136.3" x2="80.0" y2="149.5" stroke="rgb(0,0,0)"  stroke-width="2.0"/>
<line x1="137.3" y1="116.5" x2="150.5" y2="93.4" stroke="rgb(0,0,0)"  stroke-width="2.0"/>
<line x1="137.3" y1="116.5" x2="163.8" y2="116.5" stroke="rgb(0,0,0)"  stroke-width="2.0"/>
<line x1="137.3" y1="116.5" x2="114.2" y2="103.2" stroke="rgb(0,0,0)"  stroke-width="2.0"/>
<line x1="271.1" y1="188.0" x2="292.2" y2="171.8" stroke="rgb(0,0,0)"  stroke-width="2.0"/>
<line x1="271.1" y1="188.0" x2="295.7" y2="198.2" stroke="rgb(0,0,0)"  stroke-width="2.0"/>
<line x1="271.1" y1="188.0" x2="254.9" y2="166.9" stroke="rgb(0,0,0)"  stroke-width="2.0"/>
<line x1="236.2" y1="190.3" x2="245.2" y2="161.2" stroke="rgb(0,0,0)"  stroke-width="2.0"/>
<line x1="245.2" y1="161.2" x2="228.0" y2="136.0" stroke="rgb(0,0,0)"  stroke-width="2.0"/>
<line x1="235.9" y1="160.3" x2="225.4" y2="145.0" stroke="rgb(0,0,0)"  stroke-width="2.0"/>
<line x1="228.0" y1="136.0" x2="197.6" y2="133.7" stroke="rgb(0,0,0)"  stroke-width="2.0"/>
<line x1="197.6" y1="133.7" x2="176.8" y2="156.0" stroke="rgb(0,0,0)"  stroke-width="2.0"/>
<line x1="198.8" y1="143.0" x2="186.2" y2="156.5" stroke="rgb(0,0,0)"  stroke-width="2.0"/>
<line x1="176.8" y1="156.0" x2="196.6" y2="190.3" stroke="rgb(0,0,0)"  stroke-width="2.0"/>
<line x1="196.6" y1="190.3" x2="236.2" y2="190.3" stroke="rgb(0,0,0)"  stroke-width="2.0"/>
<line x1="202.6" y1="183.1" x2="230.2" y2="183.1" stroke="rgb(0,0,0)"  stroke-width="2.0"/>
<line x1="196.6" y1="258.9" x2="183.3" y2="235.8" stroke="rgb(0,0,0)"  stroke-width="2.0"/>
<line x1="183.3" y1="213.3" x2="196.6" y2="190.3" stroke="rgb(0,0,0)"  stroke-width="2.0"/>
<line x1="236.2" y1="190.3" x2="256.0" y2="224.6" stroke="rgb(0,0,0)"  stroke-width="2.0"/>
<line x1="256.0" y1="224.6" x2="236.2" y2="258.9" stroke="rgb(0,0,0)"  stroke-width="2.0"/>
<line x1="236.2" y1="258.9" x2="196.6" y2="258.9" stroke="rgb(0,0,0)"  stroke-width="2.0"/>
<line x1="137.3" y1="156.0" x2="176.8" y2="156.0" stroke="rgb(0,0,0)"  stroke-width="2.0"/>
<line x1="163.8" y1="224.6" x2="137.3" y2="224.6" stroke="rgb(0,0,0)"  stroke-width="2.0"/>
<line x1="137.3" y1="224.6" x2="117.5" y2="190.3" stroke="rgb(0,0,0)"  stroke-width="2.0"/>
<line x1="117.5" y1="190.3" x2="137.3" y2="156.0" stroke="rgb(0,0,0)"  stroke-width="2.0"/>
<line x1="208.5" y1="137.7" x2="174.6" y2="118.2" stroke="rgb(0,0,0)"  stroke-width="2.0"/>
<line x1="174.6" y1="118.2" x2="140.8" y2="137.7" stroke="rgb(0,0,0)"  stroke-width="2.0"/>
<line x1="173.0" y1="127.4" x2="149.6" y2="140.9" stroke="rgb(0,0,0)"  stroke-width="2.0"/>
<line x1="140.8" y1="137.7" x2="140.8" y2="163.8" stroke="rgb(0,0,0)"  stroke-width="2.0"/>
<line x1="152.0" y1="183.3" x2="174.6" y2="196.3" stroke="rgb(0,0,0)"  stroke-width="2.0"/>
<line x1="174.6" y1="196.3" x2="208.5" y2="176.8" stroke="rgb(0,0,0)"  stroke-width="2.0"/>
<line x1="176.2" y1="187.1" x2="199.7" y2="173.5" stroke="rgb(0,0,0)"  stroke-width="2.0"/>
<line x1="208.5" y1="176.8" x2="208.5" y2="137.7" stroke="rgb(0,0,0)"  stroke-width="2.0"/>
<text x="77.194490" y="178.523612" fill="rgb(191,191,191)"  stroke="rgb(191,191,191)" stroke-width="1" font-size="16" >H</text>
<text x="151.584467" y="104.057014" fill="rgb(191,191,191)"  stroke="rgb(191,191,191)" stroke-width="1" font-size="16" >H</text>
<text x="145.760100" y="65.414861" fill="rgb(191,191,191)"  stroke="rgb(191,191,191)" stroke-width="1" font-size="16" >H</text>
<text x="168.616342" y="87.078629" fill="rgb(191,191,191)"  stroke="rgb(191,191,191)" stroke-width="1" font-size="16" >H</text>
<text x="236.302512" y="204.314514" fill="rgb(191,191,191)"  stroke="rgb(191,191,191)" stroke-width="1" font-size="16" >H</text>
<text x="134.773257" y="262.932457" fill="rgb(191,191,191)"  stroke="rgb(191,191,191)" stroke-width="1" font-size="16" >H</text>
<text x="236.302512" y="243.393143" fill="rgb(191,191,191)"  stroke="rgb(191,191,191)" stroke-width="1" font-size="16" >H</text>
<text x="241.789564" y="109.681563" fill="rgb(191,191,191)"  stroke="rgb(191,191,191)" stroke-width="1" font-size="16" >H</text>
<text x="278.320106" y="163.262028" fill="rgb(191,191,191)"  stroke="rgb(191,191,191)" stroke-width="1" font-size="16" >H</text>
<text x="90.842071" y="59.227086" fill="rgb(191,191,191)"  stroke="rgb(191,191,191)" stroke-width="1" font-size="16" >H</text>
<text x="77.194490" y="218.099190" fill="rgb(191,191,191)"  stroke="rgb(191,191,191)" stroke-width="1" font-size="16" >H</text>
<text x="96.982279" y="252.372646" fill="rgb(191,191,191)"  stroke="rgb(191,191,191)" stroke-width="1" font-size="16" >H</text>
<text x="131.255735" y="272.160436" fill="rgb(191,191,191)"  stroke="rgb(191,191,191)" stroke-width="1" font-size="16" >H</text>
<text x="156.345646" y="286.646103" fill="rgb(191,191,191)"  stroke="rgb(191,191,191)" stroke-width="1" font-size="16" >H</text>
<text x="190.619103" y="306.433892" fill="rgb(191,191,191)"  stroke="rgb(191,191,191)" stroke-width="1" font-size="16" >H</text>
<text x="230.194681" y="306.433892" fill="rgb(191,191,191)"  stroke="rgb(191,191,191)" stroke-width="1" font-size="16" >H</text>
<text x="264.468137" y="286.646103" fill="rgb(191,191,191)"  stroke="rgb(191,191,191)" stroke-width="1" font-size="16" >H</text>
<text x="316.193703" y="250.326104" fill="rgb(191,191,191)"  stroke="rgb(191,191,191)" stroke-width="1" font-size="16" >H</text>
<text x="116.770068" y="109.976700" fill="rgb(191,191,191)"  stroke="rgb(191,191,191)" stroke-width="1" font-size="16" >H</text>
<text x="151.043524" y="266.858313" fill="rgb(191,191,191)"  stroke="rgb(191,191,191)" stroke-width="1" font-size="16" >H</text>
<text x="241.035303" y="164.624373" fill="rgb(191,191,191)"  stroke="rgb(191,191,191)" stroke-width="1" font-size="16" >H</text>
<text x="301.690455" y="211.166709" fill="rgb(191,191,191)"  stroke="rgb(191,191,191)" stroke-width="1" font-size="16" >H</text>
<text x="296.524805" y="171.929705" fill="rgb(191,191,191)"  stroke="rgb(191,191,191)" stroke-width="1" font-size="16" >H</text>
<text x="96.982279" y="104.674577" fill="rgb(191,191,191)"  stroke="rgb(191,191,191)" stroke-width="1" font-size="16" >H</text>
<text x="170.831313" y="124.462367" fill="rgb(191,191,191)"  stroke="rgb(191,191,191)" stroke-width="1" font-size="16" >H</text>
<text x="151.043524" y="90.188910" fill="rgb(191,191,191)"  stroke="rgb(191,191,191)" stroke-width="1" font-size="16" >H</text>
<text x="62.708823" y="164.037945" fill="rgb(191,191,191)"  stroke="rgb(191,191,191)" stroke-width="1" font-size="16" >H</text>
<text x="249.982470" y="288.553177" fill="rgb(191,191,191)"  stroke="rgb(191,191,191)" stroke-width="1" font-size="16" >H</text>
<text x="77.194490" y="109.976700" fill="rgb(191,191,191)"  stroke="rgb(191,191,191)" stroke-width="1" font-size="16" >H</text>
<text x="111.018272" y="193.087429" fill="rgb(191,191,191)"  stroke="rgb(191,191,191)" stroke-width="1" font-size="16" >H</text>
<text x="50.275876" y="148.257500" fill="rgb(191,191,191)"  stroke="rgb(191,191,191)" stroke-width="1" font-size="16" >H</text>
<text x="56.100243" y="186.899653" fill="rgb(191,191,191)"  stroke="rgb(191,191,191)" stroke-width="1" font-size="16" >H</text>
<text x="34.000000" y="136.245357" fill="rgb(191,191,191)"  stroke="rgb(191,191,191)" stroke-width="1" font-size="16" >H</text>
<text x="78.829928" y="75.502961" fill="rgb(191,191,191)"  stroke="rgb(191,191,191)" stroke-width="1" font-size="16" >H</text>
<text x="40.187776" y="81.327329" fill="rgb(191,191,191)"  stroke="rgb(191,191,191)" stroke-width="1" font-size="16" >H</text>
<text x="181.631313" y="220.552857" fill="rgb(12,12,255)"  stroke="rgb(12,12,255)" stroke-width="1" font-size="16" >+</text>
<text x="170.831313" y="232.584857" fill="rgb(12,12,255)"  stroke="rgb(12,12,255)" stroke-width="1" font-size="16" >N</text>
<text x="134.773257" y="184.775200" fill="rgb(255,12,12)"  stroke="rgb(255,12,12)" stroke-width="1" font-size="16" >O</text>
<text x="288.209543" y="298.796090" fill="rgb(191,191,191)"  stroke="rgb(191,191,191)" stroke-width="1" font-size="16" >H</text>
<text x="236.302512" y="48.000000" fill="rgb(12,12,255)"  stroke="rgb(12,12,255)" stroke-width="1" font-size="16" >N</text>
<text x="303.988682" y="165.235886" fill="rgb(12,12,255)"  stroke="rgb(12,12,255)" stroke-width="1" font-size="16" >N</text>
</svg>
</g>
<text font-size="18.000000" fill ="black" font-family="sans-serif"
x="10.000000" y="20.000000" >ZINC98043381</text>
</svg>
