<?xml version="1.0"?>
<svg version="1.1" id="topsvg"
xmlns="http://www.w3.org/2000/svg" xmlns:xlink="http://www.w3.org/1999/xlink"
xmlns:cml="http://www.xml-cml.org/schema" x="0" y="0" width="200px" height="200px" viewBox="0 0 100 100">
<title>ZINC19735137 - Open Babel Depiction</title>
<rect x="0" y="0" width="100" height="100" fill="white"/>
<g transform="translate(0,0)">
<svg width="100" height="100" x="0" y="0" viewBox="0 0 283.923 263.923"
font-family="sans-serif" stroke="rgb(0,0,0)" stroke-width="2"  stroke-linecap="round">
<line x1="194.6" y1="80.0" x2="174.6" y2="114.6" stroke="rgb(0,0,0)"  stroke-width="2.0"/>
<line x1="194.6" y1="80.0" x2="194.6" y2="53.0" stroke="rgb(0,0,0)"  stroke-width="2.0"/>
<line x1="194.6" y1="80.0" x2="171.3" y2="66.5" stroke="rgb(0,0,0)"  stroke-width="2.0"/>
<line x1="194.6" y1="80.0" x2="221.6" y2="80.0" stroke="rgb(0,0,0)"  stroke-width="2.0"/>
<polygon points="174.641016 114.641016 149.431535 104.705118 153.431535 97.776915 " stroke-width="2.000000" fill="rgb(0,0,0)"  stroke="rgb(0,0,0)" />
<line x1="174.6" y1="114.6" x2="154.6" y2="149.3" stroke="rgb(0,0,0)"  stroke-width="2.0"/>
<line x1="174.6" y1="114.6" x2="198.0" y2="128.1" stroke="rgb(0,0,0)"  stroke-width="2.0"/>
<line x1="154.6" y1="149.3" x2="127.6" y2="149.3" stroke="rgb(0,0,0)"  stroke-width="2.0"/>
<line x1="154.6" y1="149.3" x2="154.6" y2="176.3" stroke="rgb(0,0,0)"  stroke-width="2.0"/>
<line x1="154.6" y1="149.3" x2="178.0" y2="162.8" stroke="rgb(0,0,0)"  stroke-width="2.0"/>
<line x1="114.6" y1="162.3" x2="114.6" y2="189.3" stroke="rgb(0,0,0)"  stroke-width="2.0"/>
<line x1="101.6" y1="149.3" x2="74.6" y2="149.3" stroke="rgb(0,0,0)"  stroke-width="2.0"/>
<line x1="114.6" y1="136.3" x2="114.6" y2="122.3" stroke="rgb(0,0,0)"  stroke-width="2.0"/>
<line x1="114.6" y1="189.3" x2="101.1" y2="212.7" stroke="rgb(0,0,0)"  stroke-width="2.0"/>
<line x1="114.6" y1="189.3" x2="87.6" y2="189.3" stroke="rgb(0,0,0)"  stroke-width="2.0"/>
<line x1="114.6" y1="189.3" x2="138.0" y2="202.8" stroke="rgb(0,0,0)"  stroke-width="2.0"/>
<line x1="74.6" y1="149.3" x2="51.3" y2="135.8" stroke="rgb(0,0,0)"  stroke-width="2.0"/>
<line x1="74.6" y1="149.3" x2="74.6" y2="122.3" stroke="rgb(0,0,0)"  stroke-width="2.0"/>
<line x1="74.6" y1="149.3" x2="61.1" y2="172.7" stroke="rgb(0,0,0)"  stroke-width="2.0"/>
<line x1="209.3" y1="147.6" x2="209.3" y2="161.6" stroke="rgb(0,0,0)"  stroke-width="2.0"/>
<line x1="220.5" y1="128.1" x2="232.7" y2="121.1" stroke="rgb(0,0,0)"  stroke-width="2.0"/>
<text x="148.641016" y="197.282032" fill="rgb(191,191,191)"  stroke="rgb(191,191,191)" stroke-width="1" font-size="16" >H</text>
<text x="108.641016" y="117.282032" fill="rgb(191,191,191)"  stroke="rgb(191,191,191)" stroke-width="1" font-size="16" >H</text>
<text x="237.923048" y="122.641016" fill="rgb(191,191,191)"  stroke="rgb(191,191,191)" stroke-width="1" font-size="16" >H</text>
<text x="203.282032" y="182.641016" fill="rgb(191,191,191)"  stroke="rgb(191,191,191)" stroke-width="1" font-size="16" >H</text>
<text x="48.641016" y="191.923048" fill="rgb(191,191,191)"  stroke="rgb(191,191,191)" stroke-width="1" font-size="16" >H</text>
<text x="68.641016" y="117.282032" fill="rgb(191,191,191)"  stroke="rgb(191,191,191)" stroke-width="1" font-size="16" >H</text>
<text x="34.000000" y="137.282032" fill="rgb(191,191,191)"  stroke="rgb(191,191,191)" stroke-width="1" font-size="16" >H</text>
<text x="143.282032" y="217.282032" fill="rgb(191,191,191)"  stroke="rgb(191,191,191)" stroke-width="1" font-size="16" >H</text>
<text x="68.641016" y="197.282032" fill="rgb(191,191,191)"  stroke="rgb(191,191,191)" stroke-width="1" font-size="16" >H</text>
<text x="88.641016" y="231.923048" fill="rgb(191,191,191)"  stroke="rgb(191,191,191)" stroke-width="1" font-size="16" >H</text>
<text x="183.282032" y="177.282032" fill="rgb(191,191,191)"  stroke="rgb(191,191,191)" stroke-width="1" font-size="16" >H</text>
<text x="228.641016" y="88.000000" fill="rgb(191,191,191)"  stroke="rgb(191,191,191)" stroke-width="1" font-size="16" >H</text>
<text x="154.000000" y="68.000000" fill="rgb(191,191,191)"  stroke="rgb(191,191,191)" stroke-width="1" font-size="16" >H</text>
<text x="188.641016" y="48.000000" fill="rgb(191,191,191)"  stroke="rgb(191,191,191)" stroke-width="1" font-size="16" >H</text>
<text x="203.282032" y="142.641016" fill="rgb(12,12,255)"  stroke="rgb(12,12,255)" stroke-width="1" font-size="16" >N</text>
<text x="119.441016" y="145.250032" fill="rgb(12,12,255)"  stroke="rgb(12,12,255)" stroke-width="1" font-size="16" >+</text>
<text x="108.641016" y="157.282032" fill="rgb(12,12,255)"  stroke="rgb(12,12,255)" stroke-width="1" font-size="16" >N</text>
<text x="134.000000" y="102.641016" fill="rgb(191,191,191)"  stroke="rgb(191,191,191)" stroke-width="1" font-size="16" >H</text>
</svg>
</g>
<text font-size="18.000000" fill ="black" font-family="sans-serif"
x="10.000000" y="20.000000" >ZINC19735137</text>
</svg>
