<?xml version="1.0"?>
<svg version="1.1" id="topsvg"
xmlns="http://www.w3.org/2000/svg" xmlns:xlink="http://www.w3.org/1999/xlink"
xmlns:cml="http://www.xml-cml.org/schema" x="0" y="0" width="200px" height="200px" viewBox="0 0 100 100">
<title>ZINC00389615 - Open Babel Depiction</title>
<rect x="0" y="0" width="100" height="100" fill="white"/>
<g transform="translate(0,0)">
<svg width="100" height="100" x="0" y="0" viewBox="0 0 349.02 286.161"
font-family="sans-serif" stroke="rgb(0,0,0)" stroke-width="2"  stroke-linecap="round">
<line x1="166.4" y1="210.5" x2="202.1" y2="192.4" stroke="rgb(0,0,0)"  stroke-width="2.0"/>
<line x1="166.4" y1="210.5" x2="151.7" y2="233.2" stroke="rgb(0,0,0)"  stroke-width="2.0"/>
<line x1="166.4" y1="210.5" x2="178.7" y2="234.6" stroke="rgb(0,0,0)"  stroke-width="2.0"/>
<line x1="166.4" y1="210.5" x2="143.8" y2="195.8" stroke="rgb(0,0,0)"  stroke-width="2.0"/>
<line x1="202.1" y1="192.4" x2="218.9" y2="213.5" stroke="rgb(0,0,0)"  stroke-width="2.0"/>
<line x1="196.7" y1="186.4" x2="198.0" y2="185.4" stroke="rgb(0,0,0)"  stroke-width="1.0"/>
<line x1="192.4" y1="181.6" x2="194.8" y2="179.9" stroke="rgb(0,0,0)"  stroke-width="1.0"/>
<line x1="188.2" y1="176.8" x2="191.5" y2="174.3" stroke="rgb(0,0,0)"  stroke-width="1.0"/>
<line x1="183.9" y1="172.0" x2="188.3" y2="168.8" stroke="rgb(0,0,0)"  stroke-width="1.0"/>
<line x1="179.6" y1="167.2" x2="185.0" y2="163.2" stroke="rgb(0,0,0)"  stroke-width="1.0"/>
<line x1="175.3" y1="162.4" x2="181.8" y2="157.6" stroke="rgb(0,0,0)"  stroke-width="1.0"/>
<line x1="174.3" y1="163.4" x2="173.5" y2="162.0" stroke="rgb(0,0,0)"  stroke-width="1.0"/>
<line x1="170.9" y1="166.1" x2="169.5" y2="163.6" stroke="rgb(0,0,0)"  stroke-width="1.0"/>
<line x1="167.5" y1="168.8" x2="165.5" y2="165.2" stroke="rgb(0,0,0)"  stroke-width="1.0"/>
<line x1="164.1" y1="171.5" x2="161.4" y2="166.8" stroke="rgb(0,0,0)"  stroke-width="1.0"/>
<line x1="160.7" y1="174.2" x2="157.4" y2="168.3" stroke="rgb(0,0,0)"  stroke-width="1.0"/>
<line x1="157.4" y1="176.9" x2="153.4" y2="169.9" stroke="rgb(0,0,0)"  stroke-width="1.0"/>
<line x1="178.6" y1="160.0" x2="143.9" y2="140.0" stroke="rgb(0,0,0)"  stroke-width="2.0"/>
<line x1="240.1" y1="140.0" x2="262.0" y2="124.1" stroke="rgb(0,0,0)"  stroke-width="2.0"/>
<line x1="250.6" y1="187.6" x2="262.0" y2="195.9" stroke="rgb(0,0,0)"  stroke-width="2.0"/>
<line x1="284.4" y1="121.8" x2="297.1" y2="127.5" stroke="rgb(0,0,0)"  stroke-width="2.0"/>
<line x1="109.3" y1="160.0" x2="109.3" y2="187.0" stroke="rgb(0,0,0)"  stroke-width="2.0"/>
<line x1="74.6" y1="140.0" x2="51.3" y2="153.5" stroke="rgb(0,0,0)"  stroke-width="2.0"/>
<line x1="74.6" y1="100.0" x2="51.3" y2="86.5" stroke="rgb(0,0,0)"  stroke-width="2.0"/>
<line x1="109.3" y1="80.0" x2="109.3" y2="53.0" stroke="rgb(0,0,0)"  stroke-width="2.0"/>
<line x1="143.9" y1="100.0" x2="167.3" y2="86.5" stroke="rgb(0,0,0)"  stroke-width="2.0"/>
<line x1="74.6" y1="140.0" x2="74.6" y2="100.0" stroke="rgb(0,0,0)"  stroke-width="2.0"/>
<line x1="74.6" y1="100.0" x2="109.3" y2="80.0" stroke="rgb(0,0,0)"  stroke-width="2.0"/>
<line x1="83.4" y1="103.2" x2="107.7" y2="89.2" stroke="rgb(0,0,0)"  stroke-width="2.0"/>
<line x1="109.3" y1="80.0" x2="143.9" y2="100.0" stroke="rgb(0,0,0)"  stroke-width="2.0"/>
<line x1="143.9" y1="100.0" x2="143.9" y2="140.0" stroke="rgb(0,0,0)"  stroke-width="2.0"/>
<line x1="136.7" y1="106.0" x2="136.7" y2="134.0" stroke="rgb(0,0,0)"  stroke-width="2.0"/>
<line x1="143.9" y1="140.0" x2="109.3" y2="160.0" stroke="rgb(0,0,0)"  stroke-width="2.0"/>
<line x1="109.3" y1="160.0" x2="74.6" y2="140.0" stroke="rgb(0,0,0)"  stroke-width="2.0"/>
<line x1="107.7" y1="150.8" x2="83.4" y2="136.8" stroke="rgb(0,0,0)"  stroke-width="2.0"/>
<line x1="214.4" y1="131.7" x2="240.1" y2="140.0" stroke="rgb(0,0,0)"  stroke-width="2.0"/>
<line x1="240.1" y1="140.0" x2="240.1" y2="166.8" stroke="rgb(0,0,0)"  stroke-width="2.0"/>
<line x1="232.9" y1="146.0" x2="232.9" y2="164.8" stroke="rgb(0,0,0)"  stroke-width="2.0"/>
<line x1="227.8" y1="184.0" x2="202.1" y2="192.4" stroke="rgb(0,0,0)"  stroke-width="2.0"/>
<line x1="202.1" y1="192.4" x2="178.6" y2="160.0" stroke="rgb(0,0,0)"  stroke-width="2.0"/>
<line x1="178.6" y1="160.0" x2="194.4" y2="138.2" stroke="rgb(0,0,0)"  stroke-width="2.0"/>
<text x="266.478415" y="211.511410" fill="rgb(191,191,191)"  stroke="rgb(191,191,191)" stroke-width="1" font-size="16" >H</text>
<text x="172.564065" y="88.000000" fill="rgb(191,191,191)"  stroke="rgb(191,191,191)" stroke-width="1" font-size="16" >H</text>
<text x="103.282032" y="48.000000" fill="rgb(191,191,191)"  stroke="rgb(191,191,191)" stroke-width="1" font-size="16" >H</text>
<text x="34.000000" y="88.000000" fill="rgb(191,191,191)"  stroke="rgb(191,191,191)" stroke-width="1" font-size="16" >H</text>
<text x="34.000000" y="168.000000" fill="rgb(191,191,191)"  stroke="rgb(191,191,191)" stroke-width="1" font-size="16" >H</text>
<text x="103.282032" y="208.000000" fill="rgb(191,191,191)"  stroke="rgb(191,191,191)" stroke-width="1" font-size="16" >H</text>
<text x="303.020233" y="140.758056" fill="rgb(191,191,191)"  stroke="rgb(191,191,191)" stroke-width="1" font-size="16" >H</text>
<text x="126.888391" y="196.734738" fill="rgb(191,191,191)"  stroke="rgb(191,191,191)" stroke-width="1" font-size="16" >H</text>
<text x="178.594834" y="254.160561" fill="rgb(191,191,191)"  stroke="rgb(191,191,191)" stroke-width="1" font-size="16" >H</text>
<text x="138.649652" y="252.067122" fill="rgb(191,191,191)"  stroke="rgb(191,191,191)" stroke-width="1" font-size="16" >H</text>
<text x="266.478415" y="124.488590" fill="rgb(255,12,12)"  stroke="rgb(255,12,12)" stroke-width="1" font-size="16" >O</text>
<text x="234.117735" y="188.000000" fill="rgb(12,12,255)"  stroke="rgb(12,12,255)" stroke-width="1" font-size="16" >N</text>
<text x="196.075475" y="135.639320" fill="rgb(255,12,12)"  stroke="rgb(255,12,12)" stroke-width="1" font-size="16" >O</text>
<text x="137.923048" y="188.000000" fill="rgb(191,191,191)"  stroke="rgb(191,191,191)" stroke-width="1" font-size="16" >H</text>
<text x="220.962518" y="231.675773" fill="rgb(191,191,191)"  stroke="rgb(191,191,191)" stroke-width="1" font-size="16" >H</text>
</svg>
</g>
<text font-size="18.000000" fill ="black" font-family="sans-serif"
x="10.000000" y="20.000000" >ZINC00389615</text>
</svg>
