<?xml version="1.0"?>
<svg version="1.1" id="topsvg"
xmlns="http://www.w3.org/2000/svg" xmlns:xlink="http://www.w3.org/1999/xlink"
xmlns:cml="http://www.xml-cml.org/schema" x="0" y="0" width="200px" height="200px" viewBox="0 0 100 100">
<title>ZINC71765660 - Open Babel Depiction</title>
<rect x="0" y="0" width="100" height="100" fill="white"/>
<g transform="translate(0,0)">
<svg width="100" height="100" x="0" y="0" viewBox="0 0 569.282 293.205"
font-family="sans-serif" stroke="rgb(0,0,0)" stroke-width="2"  stroke-linecap="round">
<line x1="114.6" y1="154.6" x2="114.6" y2="114.6" stroke="rgb(0,0,0)"  stroke-width="2.0"/>
<line x1="114.6" y1="154.6" x2="128.1" y2="178.0" stroke="rgb(0,0,0)"  stroke-width="2.0"/>
<line x1="114.6" y1="154.6" x2="141.6" y2="154.6" stroke="rgb(0,0,0)"  stroke-width="2.0"/>
<line x1="114.6" y1="154.6" x2="91.3" y2="168.1" stroke="rgb(0,0,0)"  stroke-width="2.0"/>
<line x1="114.6" y1="114.6" x2="74.6" y2="114.6" stroke="rgb(0,0,0)"  stroke-width="2.0"/>
<line x1="114.6" y1="114.6" x2="114.6" y2="74.6" stroke="rgb(0,0,0)"  stroke-width="2.0"/>
<line x1="114.6" y1="114.6" x2="141.6" y2="114.6" stroke="rgb(0,0,0)"  stroke-width="2.0"/>
<line x1="74.6" y1="114.6" x2="51.3" y2="101.1" stroke="rgb(0,0,0)"  stroke-width="2.0"/>
<line x1="74.6" y1="114.6" x2="74.6" y2="87.6" stroke="rgb(0,0,0)"  stroke-width="2.0"/>
<line x1="74.6" y1="114.6" x2="61.1" y2="138.0" stroke="rgb(0,0,0)"  stroke-width="2.0"/>
<line x1="114.6" y1="74.6" x2="128.1" y2="51.3" stroke="rgb(0,0,0)"  stroke-width="2.0"/>
<line x1="114.6" y1="74.6" x2="141.6" y2="74.6" stroke="rgb(0,0,0)"  stroke-width="2.0"/>
<line x1="114.6" y1="74.6" x2="91.3" y2="61.1" stroke="rgb(0,0,0)"  stroke-width="2.0"/>
<line x1="161.1" y1="125.9" x2="174.6" y2="149.3" stroke="rgb(0,0,0)"  stroke-width="2.0"/>
<line x1="177.2" y1="150.8" x2="163.7" y2="174.2" stroke="rgb(0,0,0)"  stroke-width="2.0"/>
<line x1="172.0" y1="147.8" x2="158.5" y2="171.2" stroke="rgb(0,0,0)"  stroke-width="2.0"/>
<line x1="174.6" y1="149.3" x2="214.6" y2="149.3" stroke="rgb(0,0,0)"  stroke-width="2.0"/>
<polygon points="214.641016 149.282032 218.641016 176.082032 210.641016 176.082032 " stroke-width="2.000000" fill="rgb(0,0,0)"  stroke="rgb(0,0,0)" />
<line x1="214.6" y1="149.3" x2="254.6" y2="149.3" stroke="rgb(0,0,0)"  stroke-width="2.0"/>
<line x1="214.6" y1="149.3" x2="214.6" y2="122.3" stroke="rgb(0,0,0)"  stroke-width="2.0"/>
<line x1="274.6" y1="183.9" x2="261.1" y2="207.3" stroke="rgb(0,0,0)"  stroke-width="2.0"/>
<line x1="314.6" y1="183.9" x2="328.1" y2="207.3" stroke="rgb(0,0,0)"  stroke-width="2.0"/>
<line x1="334.6" y1="149.3" x2="374.6" y2="149.3" stroke="rgb(0,0,0)"  stroke-width="2.0"/>
<line x1="314.6" y1="114.6" x2="328.1" y2="91.3" stroke="rgb(0,0,0)"  stroke-width="2.0"/>
<line x1="274.6" y1="114.6" x2="261.1" y2="91.3" stroke="rgb(0,0,0)"  stroke-width="2.0"/>
<line x1="374.6" y1="149.3" x2="394.6" y2="183.9" stroke="rgb(0,0,0)"  stroke-width="2.0"/>
<line x1="374.6" y1="149.3" x2="398.0" y2="135.8" stroke="rgb(0,0,0)"  stroke-width="2.0"/>
<line x1="374.6" y1="149.3" x2="374.6" y2="122.3" stroke="rgb(0,0,0)"  stroke-width="2.0"/>
<line x1="394.6" y1="183.9" x2="434.6" y2="183.9" stroke="rgb(0,0,0)"  stroke-width="2.0"/>
<line x1="394.6" y1="183.9" x2="394.6" y2="210.9" stroke="rgb(0,0,0)"  stroke-width="2.0"/>
<line x1="394.6" y1="183.9" x2="371.3" y2="197.4" stroke="rgb(0,0,0)"  stroke-width="2.0"/>
<line x1="432.0" y1="182.4" x2="445.5" y2="159.0" stroke="rgb(0,0,0)"  stroke-width="2.0"/>
<line x1="437.2" y1="185.4" x2="450.7" y2="162.0" stroke="rgb(0,0,0)"  stroke-width="2.0"/>
<line x1="434.6" y1="183.9" x2="448.1" y2="207.3" stroke="rgb(0,0,0)"  stroke-width="2.0"/>
<line x1="467.6" y1="218.6" x2="494.6" y2="218.6" stroke="rgb(0,0,0)"  stroke-width="2.0"/>
<line x1="494.6" y1="218.6" x2="518.0" y2="205.1" stroke="rgb(0,0,0)"  stroke-width="2.0"/>
<line x1="494.6" y1="218.6" x2="494.6" y2="191.6" stroke="rgb(0,0,0)"  stroke-width="2.0"/>
<line x1="494.6" y1="218.6" x2="508.1" y2="241.9" stroke="rgb(0,0,0)"  stroke-width="2.0"/>
<line x1="227.6" y1="109.3" x2="241.6" y2="109.3" stroke="rgb(0,0,0)"  stroke-width="2.0"/>
<line x1="214.6" y1="96.3" x2="214.6" y2="82.3" stroke="rgb(0,0,0)"  stroke-width="2.0"/>
<line x1="201.6" y1="109.3" x2="187.6" y2="109.3" stroke="rgb(0,0,0)"  stroke-width="2.0"/>
<line x1="314.6" y1="183.9" x2="334.6" y2="149.3" stroke="rgb(0,0,0)"  stroke-width="2.0"/>
<line x1="334.6" y1="149.3" x2="314.6" y2="114.6" stroke="rgb(0,0,0)"  stroke-width="2.0"/>
<line x1="325.4" y1="147.7" x2="311.4" y2="123.4" stroke="rgb(0,0,0)"  stroke-width="2.0"/>
<line x1="314.6" y1="114.6" x2="274.6" y2="114.6" stroke="rgb(0,0,0)"  stroke-width="2.0"/>
<line x1="274.6" y1="114.6" x2="254.6" y2="149.3" stroke="rgb(0,0,0)"  stroke-width="2.0"/>
<line x1="277.9" y1="123.4" x2="263.9" y2="147.7" stroke="rgb(0,0,0)"  stroke-width="2.0"/>
<line x1="254.6" y1="149.3" x2="274.6" y2="183.9" stroke="rgb(0,0,0)"  stroke-width="2.0"/>
<line x1="274.6" y1="183.9" x2="314.6" y2="183.9" stroke="rgb(0,0,0)"  stroke-width="2.0"/>
<line x1="280.6" y1="176.7" x2="308.6" y2="176.7" stroke="rgb(0,0,0)"  stroke-width="2.0"/>
<text x="248.641016" y="88.000000" fill="rgb(191,191,191)"  stroke="rgb(191,191,191)" stroke-width="1" font-size="16" >H</text>
<text x="148.641016" y="162.641016" fill="rgb(191,191,191)"  stroke="rgb(191,191,191)" stroke-width="1" font-size="16" >H</text>
<text x="74.000000" y="182.641016" fill="rgb(191,191,191)"  stroke="rgb(191,191,191)" stroke-width="1" font-size="16" >H</text>
<text x="34.000000" y="102.641016" fill="rgb(191,191,191)"  stroke="rgb(191,191,191)" stroke-width="1" font-size="16" >H</text>
<text x="68.641016" y="82.641016" fill="rgb(191,191,191)"  stroke="rgb(191,191,191)" stroke-width="1" font-size="16" >H</text>
<text x="48.641016" y="157.282032" fill="rgb(191,191,191)"  stroke="rgb(191,191,191)" stroke-width="1" font-size="16" >H</text>
<text x="128.641016" y="48.000000" fill="rgb(191,191,191)"  stroke="rgb(191,191,191)" stroke-width="1" font-size="16" >H</text>
<text x="148.641016" y="82.641016" fill="rgb(191,191,191)"  stroke="rgb(191,191,191)" stroke-width="1" font-size="16" >H</text>
<text x="74.000000" y="62.641016" fill="rgb(191,191,191)"  stroke="rgb(191,191,191)" stroke-width="1" font-size="16" >H</text>
<text x="248.641016" y="226.564065" fill="rgb(191,191,191)"  stroke="rgb(191,191,191)" stroke-width="1" font-size="16" >H</text>
<text x="328.641016" y="226.564065" fill="rgb(191,191,191)"  stroke="rgb(191,191,191)" stroke-width="1" font-size="16" >H</text>
<text x="328.641016" y="88.000000" fill="rgb(191,191,191)"  stroke="rgb(191,191,191)" stroke-width="1" font-size="16" >H</text>
<text x="128.641016" y="197.282032" fill="rgb(191,191,191)"  stroke="rgb(191,191,191)" stroke-width="1" font-size="16" >H</text>
<text x="403.282032" y="137.282032" fill="rgb(191,191,191)"  stroke="rgb(191,191,191)" stroke-width="1" font-size="16" >H</text>
<text x="368.641016" y="117.282032" fill="rgb(191,191,191)"  stroke="rgb(191,191,191)" stroke-width="1" font-size="16" >H</text>
<text x="388.641016" y="231.923048" fill="rgb(191,191,191)"  stroke="rgb(191,191,191)" stroke-width="1" font-size="16" >H</text>
<text x="354.000000" y="211.923048" fill="rgb(191,191,191)"  stroke="rgb(191,191,191)" stroke-width="1" font-size="16" >H</text>
<text x="523.282032" y="206.564065" fill="rgb(191,191,191)"  stroke="rgb(191,191,191)" stroke-width="1" font-size="16" >H</text>
<text x="488.641016" y="186.564065" fill="rgb(191,191,191)"  stroke="rgb(191,191,191)" stroke-width="1" font-size="16" >H</text>
<text x="508.641016" y="261.205081" fill="rgb(191,191,191)"  stroke="rgb(191,191,191)" stroke-width="1" font-size="16" >H</text>
<text x="248.641016" y="117.282032" fill="rgb(191,191,191)"  stroke="rgb(191,191,191)" stroke-width="1" font-size="16" >H</text>
<text x="208.641016" y="77.282032" fill="rgb(191,191,191)"  stroke="rgb(191,191,191)" stroke-width="1" font-size="16" >H</text>
<text x="168.641016" y="117.282032" fill="rgb(191,191,191)"  stroke="rgb(191,191,191)" stroke-width="1" font-size="16" >H</text>
<text x="148.641016" y="122.641016" fill="rgb(255,12,12)"  stroke="rgb(255,12,12)" stroke-width="1" font-size="16" >O</text>
<text x="148.641016" y="191.923048" fill="rgb(255,12,12)"  stroke="rgb(255,12,12)" stroke-width="1" font-size="16" >O</text>
<text x="208.641016" y="197.282032" fill="rgb(191,191,191)"  stroke="rgb(191,191,191)" stroke-width="1" font-size="16" >H</text>
<text x="448.641016" y="157.282032" fill="rgb(255,12,12)"  stroke="rgb(255,12,12)" stroke-width="1" font-size="16" >O</text>
<text x="448.641016" y="226.564065" fill="rgb(255,12,12)"  stroke="rgb(255,12,12)" stroke-width="1" font-size="16" >O</text>
<text x="219.441016" y="105.250032" fill="rgb(12,12,255)"  stroke="rgb(12,12,255)" stroke-width="1" font-size="16" >+</text>
<text x="208.641016" y="117.282032" fill="rgb(12,12,255)"  stroke="rgb(12,12,255)" stroke-width="1" font-size="16" >N</text>
</svg>
</g>
<text font-size="18.000000" fill ="black" font-family="sans-serif"
x="10.000000" y="20.000000" >ZINC71765660</text>
</svg>
