<?xml version="1.0"?>
<svg version="1.1" id="topsvg"
xmlns="http://www.w3.org/2000/svg" xmlns:xlink="http://www.w3.org/1999/xlink"
xmlns:cml="http://www.xml-cml.org/schema" x="0" y="0" width="200px" height="200px" viewBox="0 0 100 100">
<title>ZINC25721858 - Open Babel Depiction</title>
<rect x="0" y="0" width="100" height="100" fill="white"/>
<g transform="translate(0,0)">
<svg width="100" height="100" x="0" y="0" viewBox="0 0 400 214.641"
font-family="sans-serif" stroke="rgb(0,0,0)" stroke-width="2"  stroke-linecap="round">
<line x1="260.0" y1="100.0" x2="220.0" y2="100.0" stroke="rgb(0,0,0)"  stroke-width="2.0"/>
<line x1="260.0" y1="100.0" x2="273.5" y2="123.4" stroke="rgb(0,0,0)"  stroke-width="2.0"/>
<line x1="260.0" y1="100.0" x2="283.4" y2="86.5" stroke="rgb(0,0,0)"  stroke-width="2.0"/>
<line x1="260.0" y1="100.0" x2="260.0" y2="73.0" stroke="rgb(0,0,0)"  stroke-width="2.0"/>
<polygon points="220.000000 100.000000 216.000000 73.200000 224.000000 73.200000 " stroke-width="2.000000" fill="rgb(0,0,0)"  stroke="rgb(0,0,0)" />
<line x1="220.0" y1="100.0" x2="180.0" y2="100.0" stroke="rgb(0,0,0)"  stroke-width="2.0"/>
<line x1="220.0" y1="100.0" x2="220.0" y2="127.0" stroke="rgb(0,0,0)"  stroke-width="2.0"/>
<polygon points="180.000000 100.000000 176.000000 73.200000 184.000000 73.200000 " stroke-width="2.000000" fill="rgb(0,0,0)"  stroke="rgb(0,0,0)" />
<line x1="180.0" y1="100.0" x2="140.0" y2="100.0" stroke="rgb(0,0,0)"  stroke-width="2.0"/>
<line x1="180.0" y1="100.0" x2="180.0" y2="127.0" stroke="rgb(0,0,0)"  stroke-width="2.0"/>
<polygon points="140.000000 100.000000 136.000000 73.200000 144.000000 73.200000 " stroke-width="2.000000" fill="rgb(0,0,0)"  stroke="rgb(0,0,0)" />
<line x1="140.0" y1="100.0" x2="100.0" y2="100.0" stroke="rgb(0,0,0)"  stroke-width="2.0"/>
<line x1="140.0" y1="100.0" x2="140.0" y2="127.0" stroke="rgb(0,0,0)"  stroke-width="2.0"/>
<line x1="100.0" y1="100.0" x2="100.0" y2="60.0" stroke="rgb(0,0,0)"  stroke-width="2.0"/>
<line x1="100.0" y1="100.0" x2="73.0" y2="100.0" stroke="rgb(0,0,0)"  stroke-width="2.0"/>
<polygon points="100.000000 100.000000 104.000000 126.800000 96.000000 126.800000 " stroke-width="2.000000" fill="rgb(0,0,0)"  stroke="rgb(0,0,0)" />
<line x1="98.5" y1="57.4" x2="121.9" y2="43.9" stroke="rgb(0,0,0)"  stroke-width="2.0"/>
<line x1="101.5" y1="62.6" x2="124.9" y2="49.1" stroke="rgb(0,0,0)"  stroke-width="2.0"/>
<line x1="100.0" y1="60.0" x2="76.6" y2="46.5" stroke="rgb(0,0,0)"  stroke-width="2.0"/>
<line x1="53.5" y1="88.7" x2="46.5" y2="76.6" stroke="rgb(0,0,0)"  stroke-width="2.0"/>
<line x1="53.5" y1="111.3" x2="46.5" y2="123.4" stroke="rgb(0,0,0)"  stroke-width="2.0"/>
<line x1="128.7" y1="146.5" x2="116.6" y2="153.5" stroke="rgb(0,0,0)"  stroke-width="2.0"/>
<line x1="191.3" y1="146.5" x2="203.4" y2="153.5" stroke="rgb(0,0,0)"  stroke-width="2.0"/>
<line x1="231.3" y1="146.5" x2="243.4" y2="153.5" stroke="rgb(0,0,0)"  stroke-width="2.0"/>
<line x1="293.0" y1="134.6" x2="307.0" y2="134.6" stroke="rgb(0,0,0)"  stroke-width="2.0"/>
<line x1="323.0" y1="147.6" x2="323.0" y2="161.6" stroke="rgb(0,0,0)"  stroke-width="2.0"/>
<line x1="317.0" y1="147.6" x2="317.0" y2="161.6" stroke="rgb(0,0,0)"  stroke-width="2.0"/>
<line x1="333.0" y1="134.6" x2="347.0" y2="134.6" stroke="rgb(0,0,0)"  stroke-width="2.0"/>
<line x1="320.0" y1="121.6" x2="320.0" y2="107.6" stroke="rgb(0,0,0)"  stroke-width="2.0"/>
<text x="274.000000" y="142.641016" fill="rgb(255,12,12)"  stroke="rgb(255,12,12)" stroke-width="1" font-size="16" >O</text>
<text x="94.000000" y="148.000000" fill="rgb(191,191,191)"  stroke="rgb(191,191,191)" stroke-width="1" font-size="16" >H</text>
<text x="34.000000" y="142.641016" fill="rgb(191,191,191)"  stroke="rgb(191,191,191)" stroke-width="1" font-size="16" >H</text>
<text x="248.641016" y="168.000000" fill="rgb(191,191,191)"  stroke="rgb(191,191,191)" stroke-width="1" font-size="16" >H</text>
<text x="208.641016" y="168.000000" fill="rgb(191,191,191)"  stroke="rgb(191,191,191)" stroke-width="1" font-size="16" >H</text>
<text x="99.358984" y="168.000000" fill="rgb(191,191,191)"  stroke="rgb(191,191,191)" stroke-width="1" font-size="16" >H</text>
<text x="34.000000" y="73.358984" fill="rgb(191,191,191)"  stroke="rgb(191,191,191)" stroke-width="1" font-size="16" >H</text>
<text x="59.358984" y="48.000000" fill="rgb(191,191,191)"  stroke="rgb(191,191,191)" stroke-width="1" font-size="16" >H</text>
<text x="254.000000" y="68.000000" fill="rgb(191,191,191)"  stroke="rgb(191,191,191)" stroke-width="1" font-size="16" >H</text>
<text x="288.641016" y="88.000000" fill="rgb(191,191,191)"  stroke="rgb(191,191,191)" stroke-width="1" font-size="16" >H</text>
<text x="314.000000" y="102.641016" fill="rgb(255,12,12)"  stroke="rgb(255,12,12)" stroke-width="1" font-size="16" >OH</text>
<text x="354.000000" y="142.641016" fill="rgb(255,12,12)"  stroke="rgb(255,12,12)" stroke-width="1" font-size="16" >OH</text>
<text x="314.000000" y="182.641016" fill="rgb(255,12,12)"  stroke="rgb(255,12,12)" stroke-width="1" font-size="16" >O</text>
<text x="314.000000" y="142.641016" fill="rgb(255,127,0)"  stroke="rgb(255,127,0)" stroke-width="1" font-size="16" >P</text>
<text x="214.000000" y="148.000000" fill="rgb(255,12,12)"  stroke="rgb(255,12,12)" stroke-width="1" font-size="16" >O</text>
<text x="174.000000" y="148.000000" fill="rgb(255,12,12)"  stroke="rgb(255,12,12)" stroke-width="1" font-size="16" >O</text>
<text x="134.000000" y="148.000000" fill="rgb(255,12,12)"  stroke="rgb(255,12,12)" stroke-width="1" font-size="16" >O</text>
<text x="54.000000" y="108.000000" fill="rgb(12,12,255)"  stroke="rgb(12,12,255)" stroke-width="1" font-size="16" >N</text>
<text x="128.641016" y="48.000000" fill="rgb(255,12,12)"  stroke="rgb(255,12,12)" stroke-width="1" font-size="16" >O</text>
<text x="134.000000" y="68.000000" fill="rgb(191,191,191)"  stroke="rgb(191,191,191)" stroke-width="1" font-size="16" >H</text>
<text x="174.000000" y="68.000000" fill="rgb(191,191,191)"  stroke="rgb(191,191,191)" stroke-width="1" font-size="16" >H</text>
<text x="214.000000" y="68.000000" fill="rgb(191,191,191)"  stroke="rgb(191,191,191)" stroke-width="1" font-size="16" >H</text>
</svg>
</g>
<text font-size="18.000000" fill ="black" font-family="sans-serif"
x="10.000000" y="20.000000" >ZINC25721858</text>
</svg>
