<?xml version="1.0"?>
<svg version="1.1" id="topsvg"
xmlns="http://www.w3.org/2000/svg" xmlns:xlink="http://www.w3.org/1999/xlink"
xmlns:cml="http://www.xml-cml.org/schema" x="0" y="0" width="200px" height="200px" viewBox="0 0 100 100">
<title>ZINC43764008 - Open Babel Depiction</title>
<rect x="0" y="0" width="100" height="100" fill="white"/>
<g transform="translate(0,0)">
<svg width="100" height="100" x="0" y="0" viewBox="0 0 556.762 548.829"
font-family="sans-serif" stroke="rgb(0,0,0)" stroke-width="2"  stroke-linecap="round">
<line x1="483.4" y1="407.3" x2="464.1" y2="373.9" stroke="rgb(0,0,0)"  stroke-width="2.0"/>
<line x1="483.4" y1="407.3" x2="505.5" y2="420.1" stroke="rgb(0,0,0)"  stroke-width="2.0"/>
<line x1="483.4" y1="407.3" x2="505.5" y2="394.5" stroke="rgb(0,0,0)"  stroke-width="2.0"/>
<line x1="483.4" y1="407.3" x2="470.6" y2="429.4" stroke="rgb(0,0,0)"  stroke-width="2.0"/>
<line x1="464.1" y1="373.9" x2="438.5" y2="373.9" stroke="rgb(0,0,0)"  stroke-width="2.0"/>
<line x1="464.1" y1="373.9" x2="464.1" y2="348.3" stroke="rgb(0,0,0)"  stroke-width="2.0"/>
<line x1="464.1" y1="373.9" x2="486.2" y2="361.1" stroke="rgb(0,0,0)"  stroke-width="2.0"/>
<line x1="419.0" y1="362.6" x2="406.3" y2="340.5" stroke="rgb(0,0,0)"  stroke-width="2.0"/>
<line x1="419.0" y1="385.1" x2="412.8" y2="396.0" stroke="rgb(0,0,0)"  stroke-width="2.0"/>
<line x1="425.5" y1="307.1" x2="451.1" y2="307.1" stroke="rgb(0,0,0)"  stroke-width="2.0"/>
<line x1="348.4" y1="307.1" x2="322.9" y2="307.1" stroke="rgb(0,0,0)"  stroke-width="2.0"/>
<line x1="367.7" y1="340.5" x2="348.4" y2="373.9" stroke="rgb(0,0,0)"  stroke-width="2.0"/>
<line x1="348.4" y1="373.9" x2="326.3" y2="386.7" stroke="rgb(0,0,0)"  stroke-width="2.0"/>
<line x1="348.4" y1="373.9" x2="326.3" y2="361.1" stroke="rgb(0,0,0)"  stroke-width="2.0"/>
<line x1="348.4" y1="373.9" x2="361.2" y2="396.0" stroke="rgb(0,0,0)"  stroke-width="2.0"/>
<line x1="348.4" y1="240.3" x2="194.2" y2="240.3" stroke="rgb(0,0,0)"  stroke-width="2.0"/>
<line x1="348.4" y1="173.6" x2="322.9" y2="173.6" stroke="rgb(0,0,0)"  stroke-width="2.0"/>
<line x1="367.7" y1="140.2" x2="348.4" y2="106.8" stroke="rgb(0,0,0)"  stroke-width="2.0"/>
<line x1="403.7" y1="138.7" x2="416.4" y2="116.5" stroke="rgb(0,0,0)"  stroke-width="2.0"/>
<line x1="408.9" y1="141.7" x2="421.6" y2="119.5" stroke="rgb(0,0,0)"  stroke-width="2.0"/>
<line x1="438.5" y1="106.8" x2="464.1" y2="106.8" stroke="rgb(0,0,0)"  stroke-width="2.0"/>
<line x1="419.0" y1="95.5" x2="412.8" y2="84.6" stroke="rgb(0,0,0)"  stroke-width="2.0"/>
<line x1="464.1" y1="106.8" x2="483.4" y2="73.4" stroke="rgb(0,0,0)"  stroke-width="2.0"/>
<line x1="464.1" y1="106.8" x2="486.2" y2="119.6" stroke="rgb(0,0,0)"  stroke-width="2.0"/>
<line x1="464.1" y1="106.8" x2="464.1" y2="132.3" stroke="rgb(0,0,0)"  stroke-width="2.0"/>
<line x1="483.4" y1="73.4" x2="505.5" y2="60.6" stroke="rgb(0,0,0)"  stroke-width="2.0"/>
<line x1="483.4" y1="73.4" x2="505.5" y2="86.2" stroke="rgb(0,0,0)"  stroke-width="2.0"/>
<line x1="483.4" y1="73.4" x2="470.6" y2="51.3" stroke="rgb(0,0,0)"  stroke-width="2.0"/>
<line x1="425.5" y1="173.6" x2="451.1" y2="173.6" stroke="rgb(0,0,0)"  stroke-width="2.0"/>
<line x1="348.4" y1="106.8" x2="348.4" y2="81.2" stroke="rgb(0,0,0)"  stroke-width="2.0"/>
<line x1="348.4" y1="106.8" x2="370.6" y2="94.0" stroke="rgb(0,0,0)"  stroke-width="2.0"/>
<line x1="348.4" y1="106.8" x2="322.9" y2="106.8" stroke="rgb(0,0,0)"  stroke-width="2.0"/>
<line x1="174.9" y1="206.9" x2="187.7" y2="184.8" stroke="rgb(0,0,0)"  stroke-width="2.0"/>
<line x1="136.4" y1="206.9" x2="123.6" y2="184.8" stroke="rgb(0,0,0)"  stroke-width="2.0"/>
<line x1="117.1" y1="240.3" x2="91.6" y2="240.3" stroke="rgb(0,0,0)"  stroke-width="2.0"/>
<line x1="136.4" y1="273.7" x2="123.6" y2="295.9" stroke="rgb(0,0,0)"  stroke-width="2.0"/>
<line x1="174.9" y1="273.7" x2="194.2" y2="307.1" stroke="rgb(0,0,0)"  stroke-width="2.0"/>
<line x1="194.2" y1="304.1" x2="219.8" y2="304.1" stroke="rgb(0,0,0)"  stroke-width="2.0"/>
<line x1="194.2" y1="310.1" x2="219.8" y2="310.1" stroke="rgb(0,0,0)"  stroke-width="2.0"/>
<line x1="194.2" y1="307.1" x2="181.4" y2="329.2" stroke="rgb(0,0,0)"  stroke-width="2.0"/>
<line x1="161.9" y1="340.5" x2="136.4" y2="340.5" stroke="rgb(0,0,0)"  stroke-width="2.0"/>
<line x1="181.4" y1="351.8" x2="187.7" y2="362.6" stroke="rgb(0,0,0)"  stroke-width="2.0"/>
<line x1="136.4" y1="340.5" x2="117.1" y2="373.9" stroke="rgb(0,0,0)"  stroke-width="2.0"/>
<line x1="136.4" y1="340.5" x2="114.3" y2="327.7" stroke="rgb(0,0,0)"  stroke-width="2.0"/>
<line x1="136.4" y1="340.5" x2="136.4" y2="314.9" stroke="rgb(0,0,0)"  stroke-width="2.0"/>
<line x1="117.1" y1="373.9" x2="91.6" y2="373.9" stroke="rgb(0,0,0)"  stroke-width="2.0"/>
<line x1="117.1" y1="373.9" x2="117.1" y2="399.4" stroke="rgb(0,0,0)"  stroke-width="2.0"/>
<line x1="117.1" y1="373.9" x2="139.2" y2="386.7" stroke="rgb(0,0,0)"  stroke-width="2.0"/>
<line x1="78.6" y1="386.9" x2="78.6" y2="412.4" stroke="rgb(0,0,0)"  stroke-width="2.0"/>
<line x1="65.6" y1="373.9" x2="53.0" y2="373.9" stroke="rgb(0,0,0)"  stroke-width="2.0"/>
<line x1="78.6" y1="360.9" x2="78.6" y2="348.3" stroke="rgb(0,0,0)"  stroke-width="2.0"/>
<line x1="78.6" y1="412.4" x2="111.9" y2="431.7" stroke="rgb(0,0,0)"  stroke-width="2.0"/>
<line x1="78.6" y1="412.4" x2="65.8" y2="434.6" stroke="rgb(0,0,0)"  stroke-width="2.0"/>
<line x1="78.6" y1="412.4" x2="53.0" y2="412.4" stroke="rgb(0,0,0)"  stroke-width="2.0"/>
<line x1="111.9" y1="431.7" x2="111.9" y2="457.3" stroke="rgb(0,0,0)"  stroke-width="2.0"/>
<line x1="111.9" y1="431.7" x2="137.5" y2="431.7" stroke="rgb(0,0,0)"  stroke-width="2.0"/>
<line x1="111.9" y1="431.7" x2="124.7" y2="409.6" stroke="rgb(0,0,0)"  stroke-width="2.0"/>
<line x1="98.9" y1="470.3" x2="86.4" y2="470.3" stroke="rgb(0,0,0)"  stroke-width="2.0"/>
<line x1="111.9" y1="483.3" x2="111.9" y2="495.8" stroke="rgb(0,0,0)"  stroke-width="2.0"/>
<line x1="124.9" y1="470.3" x2="137.5" y2="470.3" stroke="rgb(0,0,0)"  stroke-width="2.0"/>
<line x1="406.3" y1="273.7" x2="367.7" y2="273.7" stroke="rgb(0,0,0)"  stroke-width="2.0"/>
<line x1="367.7" y1="273.7" x2="348.4" y2="307.1" stroke="rgb(0,0,0)"  stroke-width="2.0"/>
<line x1="370.9" y1="282.5" x2="357.7" y2="305.5" stroke="rgb(0,0,0)"  stroke-width="2.0"/>
<line x1="348.4" y1="307.1" x2="367.7" y2="340.5" stroke="rgb(0,0,0)"  stroke-width="2.0"/>
<line x1="367.7" y1="340.5" x2="406.3" y2="340.5" stroke="rgb(0,0,0)"  stroke-width="2.0"/>
<line x1="373.7" y1="333.3" x2="400.3" y2="333.3" stroke="rgb(0,0,0)"  stroke-width="2.0"/>
<line x1="406.3" y1="340.5" x2="425.5" y2="307.1" stroke="rgb(0,0,0)"  stroke-width="2.0"/>
<line x1="425.5" y1="307.1" x2="406.3" y2="273.7" stroke="rgb(0,0,0)"  stroke-width="2.0"/>
<line x1="416.3" y1="305.5" x2="403.0" y2="282.5" stroke="rgb(0,0,0)"  stroke-width="2.0"/>
<line x1="406.3" y1="140.2" x2="367.7" y2="140.2" stroke="rgb(0,0,0)"  stroke-width="2.0"/>
<line x1="367.7" y1="140.2" x2="348.4" y2="173.6" stroke="rgb(0,0,0)"  stroke-width="2.0"/>
<line x1="370.9" y1="149.0" x2="357.7" y2="172.0" stroke="rgb(0,0,0)"  stroke-width="2.0"/>
<line x1="348.4" y1="173.6" x2="367.7" y2="206.9" stroke="rgb(0,0,0)"  stroke-width="2.0"/>
<line x1="367.7" y1="206.9" x2="406.3" y2="206.9" stroke="rgb(0,0,0)"  stroke-width="2.0"/>
<line x1="406.3" y1="206.9" x2="425.5" y2="173.6" stroke="rgb(0,0,0)"  stroke-width="2.0"/>
<line x1="403.0" y1="198.1" x2="416.3" y2="175.2" stroke="rgb(0,0,0)"  stroke-width="2.0"/>
<line x1="425.5" y1="173.6" x2="406.3" y2="140.2" stroke="rgb(0,0,0)"  stroke-width="2.0"/>
<line x1="367.7" y1="206.9" x2="348.4" y2="240.3" stroke="rgb(0,0,0)"  stroke-width="2.0"/>
<line x1="370.9" y1="215.7" x2="357.7" y2="238.7" stroke="rgb(0,0,0)"  stroke-width="2.0"/>
<line x1="348.4" y1="240.3" x2="367.7" y2="273.7" stroke="rgb(0,0,0)"  stroke-width="2.0"/>
<line x1="406.3" y1="273.7" x2="419.0" y2="251.6" stroke="rgb(0,0,0)"  stroke-width="2.0"/>
<line x1="419.0" y1="229.1" x2="406.3" y2="206.9" stroke="rgb(0,0,0)"  stroke-width="2.0"/>
<line x1="136.4" y1="206.9" x2="117.1" y2="240.3" stroke="rgb(0,0,0)"  stroke-width="2.0"/>
<line x1="117.1" y1="240.3" x2="136.4" y2="273.7" stroke="rgb(0,0,0)"  stroke-width="2.0"/>
<line x1="126.3" y1="241.9" x2="139.6" y2="264.9" stroke="rgb(0,0,0)"  stroke-width="2.0"/>
<line x1="136.4" y1="273.7" x2="174.9" y2="273.7" stroke="rgb(0,0,0)"  stroke-width="2.0"/>
<line x1="174.9" y1="273.7" x2="194.2" y2="240.3" stroke="rgb(0,0,0)"  stroke-width="2.0"/>
<line x1="171.7" y1="264.9" x2="185.0" y2="241.9" stroke="rgb(0,0,0)"  stroke-width="2.0"/>
<line x1="194.2" y1="240.3" x2="174.9" y2="206.9" stroke="rgb(0,0,0)"  stroke-width="2.0"/>
<line x1="174.9" y1="206.9" x2="136.4" y2="206.9" stroke="rgb(0,0,0)"  stroke-width="2.0"/>
<line x1="168.9" y1="214.1" x2="142.4" y2="214.1" stroke="rgb(0,0,0)"  stroke-width="2.0"/>
<text x="303.879518" y="181.555725" fill="rgb(191,191,191)"  stroke="rgb(191,191,191)" stroke-width="1" font-size="16" >H</text>
<text x="303.879518" y="114.777862" fill="rgb(191,191,191)"  stroke="rgb(191,191,191)" stroke-width="1" font-size="16" >H</text>
<text x="375.822666" y="95.500754" fill="rgb(191,191,191)"  stroke="rgb(191,191,191)" stroke-width="1" font-size="16" >H</text>
<text x="342.433735" y="76.223646" fill="rgb(191,191,191)"  stroke="rgb(191,191,191)" stroke-width="1" font-size="16" >H</text>
<text x="458.096386" y="181.555725" fill="rgb(191,191,191)"  stroke="rgb(191,191,191)" stroke-width="1" font-size="16" >H</text>
<text x="458.096386" y="48.000000" fill="rgb(191,191,191)"  stroke="rgb(191,191,191)" stroke-width="1" font-size="16" >H</text>
<text x="510.762425" y="100.666040" fill="rgb(191,191,191)"  stroke="rgb(191,191,191)" stroke-width="1" font-size="16" >H</text>
<text x="510.762425" y="62.111823" fill="rgb(191,191,191)"  stroke="rgb(191,191,191)" stroke-width="1" font-size="16" >H</text>
<text x="458.096386" y="153.332079" fill="rgb(191,191,191)"  stroke="rgb(191,191,191)" stroke-width="1" font-size="16" >H</text>
<text x="491.485317" y="134.054971" fill="rgb(191,191,191)"  stroke="rgb(191,191,191)" stroke-width="1" font-size="16" >H</text>
<text x="188.216867" y="181.555725" fill="rgb(191,191,191)"  stroke="rgb(191,191,191)" stroke-width="1" font-size="16" >H</text>
<text x="361.710843" y="415.278244" fill="rgb(191,191,191)"  stroke="rgb(191,191,191)" stroke-width="1" font-size="16" >H</text>
<text x="309.044804" y="362.612204" fill="rgb(191,191,191)"  stroke="rgb(191,191,191)" stroke-width="1" font-size="16" >H</text>
<text x="309.044804" y="401.166421" fill="rgb(191,191,191)"  stroke="rgb(191,191,191)" stroke-width="1" font-size="16" >H</text>
<text x="303.879518" y="315.111450" fill="rgb(191,191,191)"  stroke="rgb(191,191,191)" stroke-width="1" font-size="16" >H</text>
<text x="458.096386" y="315.111450" fill="rgb(191,191,191)"  stroke="rgb(191,191,191)" stroke-width="1" font-size="16" >H</text>
<text x="400.265060" y="415.278244" fill="rgb(191,191,191)"  stroke="rgb(191,191,191)" stroke-width="1" font-size="16" >H</text>
<text x="491.485317" y="362.612204" fill="rgb(191,191,191)"  stroke="rgb(191,191,191)" stroke-width="1" font-size="16" >H</text>
<text x="458.096386" y="343.335095" fill="rgb(191,191,191)"  stroke="rgb(191,191,191)" stroke-width="1" font-size="16" >H</text>
<text x="458.096386" y="448.667175" fill="rgb(191,191,191)"  stroke="rgb(191,191,191)" stroke-width="1" font-size="16" >H</text>
<text x="34.000000" y="381.889312" fill="rgb(191,191,191)"  stroke="rgb(191,191,191)" stroke-width="1" font-size="16" >H</text>
<text x="72.554217" y="343.335095" fill="rgb(191,191,191)"  stroke="rgb(191,191,191)" stroke-width="1" font-size="16" >H</text>
<text x="144.497365" y="478.274854" fill="rgb(191,191,191)"  stroke="rgb(191,191,191)" stroke-width="1" font-size="16" >H</text>
<text x="400.265060" y="81.388931" fill="rgb(191,191,191)"  stroke="rgb(191,191,191)" stroke-width="1" font-size="16" >H</text>
<text x="105.943148" y="516.829071" fill="rgb(191,191,191)"  stroke="rgb(191,191,191)" stroke-width="1" font-size="16" >H</text>
<text x="67.388931" y="478.274854" fill="rgb(191,191,191)"  stroke="rgb(191,191,191)" stroke-width="1" font-size="16" >H</text>
<text x="125.220257" y="406.331706" fill="rgb(191,191,191)"  stroke="rgb(191,191,191)" stroke-width="1" font-size="16" >H</text>
<text x="144.497365" y="439.720638" fill="rgb(191,191,191)"  stroke="rgb(191,191,191)" stroke-width="1" font-size="16" >H</text>
<text x="34.000000" y="420.443529" fill="rgb(191,191,191)"  stroke="rgb(191,191,191)" stroke-width="1" font-size="16" >H</text>
<text x="53.277108" y="453.832460" fill="rgb(191,191,191)"  stroke="rgb(191,191,191)" stroke-width="1" font-size="16" >H</text>
<text x="510.762425" y="396.001135" fill="rgb(191,191,191)"  stroke="rgb(191,191,191)" stroke-width="1" font-size="16" >H</text>
<text x="144.497365" y="401.166421" fill="rgb(191,191,191)"  stroke="rgb(191,191,191)" stroke-width="1" font-size="16" >H</text>
<text x="111.108434" y="420.443529" fill="rgb(191,191,191)"  stroke="rgb(191,191,191)" stroke-width="1" font-size="16" >H</text>
<text x="130.385542" y="309.946164" fill="rgb(191,191,191)"  stroke="rgb(191,191,191)" stroke-width="1" font-size="16" >H</text>
<text x="96.996611" y="329.223273" fill="rgb(191,191,191)"  stroke="rgb(191,191,191)" stroke-width="1" font-size="16" >H</text>
<text x="188.216867" y="381.889312" fill="rgb(191,191,191)"  stroke="rgb(191,191,191)" stroke-width="1" font-size="16" >H</text>
<text x="111.108434" y="315.111450" fill="rgb(191,191,191)"  stroke="rgb(191,191,191)" stroke-width="1" font-size="16" >H</text>
<text x="72.554217" y="248.333587" fill="rgb(191,191,191)"  stroke="rgb(191,191,191)" stroke-width="1" font-size="16" >H</text>
<text x="111.108434" y="181.555725" fill="rgb(191,191,191)"  stroke="rgb(191,191,191)" stroke-width="1" font-size="16" >H</text>
<text x="419.542169" y="114.777862" fill="rgb(12,12,255)"  stroke="rgb(12,12,255)" stroke-width="1" font-size="16" >N</text>
<text x="419.542169" y="381.889312" fill="rgb(12,12,255)"  stroke="rgb(12,12,255)" stroke-width="1" font-size="16" >N</text>
<text x="510.762425" y="434.555352" fill="rgb(191,191,191)"  stroke="rgb(191,191,191)" stroke-width="1" font-size="16" >H</text>
<text x="116.743148" y="466.242854" fill="rgb(12,12,255)"  stroke="rgb(12,12,255)" stroke-width="1" font-size="16" >+</text>
<text x="105.943148" y="478.274854" fill="rgb(12,12,255)"  stroke="rgb(12,12,255)" stroke-width="1" font-size="16" >N</text>
<text x="83.354217" y="369.857312" fill="rgb(12,12,255)"  stroke="rgb(12,12,255)" stroke-width="1" font-size="16" >+</text>
<text x="72.554217" y="381.889312" fill="rgb(12,12,255)"  stroke="rgb(12,12,255)" stroke-width="1" font-size="16" >N</text>
<text x="168.939759" y="348.500381" fill="rgb(12,12,255)"  stroke="rgb(12,12,255)" stroke-width="1" font-size="16" >N</text>
<text x="226.771084" y="315.111450" fill="rgb(255,12,12)"  stroke="rgb(255,12,12)" stroke-width="1" font-size="16" >O</text>
<text x="419.542169" y="248.333587" fill="rgb(255,12,12)"  stroke="rgb(255,12,12)" stroke-width="1" font-size="16" >O</text>
</svg>
</g>
<text font-size="18.000000" fill ="black" font-family="sans-serif"
x="10.000000" y="20.000000" >ZINC43764008</text>
</svg>
