<?xml version="1.0"?>
<svg version="1.1" id="topsvg"
xmlns="http://www.w3.org/2000/svg" xmlns:xlink="http://www.w3.org/1999/xlink"
xmlns:cml="http://www.xml-cml.org/schema" x="0" y="0" width="200px" height="200px" viewBox="0 0 100 100">
<title>ZINC71766836 - Open Babel Depiction</title>
<rect x="0" y="0" width="100" height="100" fill="white"/>
<g transform="translate(0,0)">
<svg width="100" height="100" x="0" y="0" viewBox="0 0 519.94 512.208"
font-family="sans-serif" stroke="rgb(0,0,0)" stroke-width="2"  stroke-linecap="round">
<line x1="445.8" y1="241.0" x2="468.7" y2="254.2" stroke="rgb(0,0,0)"  stroke-width="2.0"/>
<line x1="445.8" y1="201.5" x2="468.7" y2="188.3" stroke="rgb(0,0,0)"  stroke-width="2.0"/>
<line x1="411.7" y1="181.8" x2="411.7" y2="155.4" stroke="rgb(0,0,0)"  stroke-width="2.0"/>
<line x1="377.5" y1="201.5" x2="343.4" y2="181.8" stroke="rgb(0,0,0)"  stroke-width="2.0"/>
<line x1="377.5" y1="241.0" x2="354.6" y2="254.2" stroke="rgb(0,0,0)"  stroke-width="2.0"/>
<line x1="411.7" y1="260.7" x2="411.7" y2="287.1" stroke="rgb(0,0,0)"  stroke-width="2.0"/>
<line x1="343.4" y1="181.8" x2="343.4" y2="142.4" stroke="rgb(0,0,0)"  stroke-width="2.0"/>
<line x1="343.4" y1="181.8" x2="317.0" y2="181.8" stroke="rgb(0,0,0)"  stroke-width="2.0"/>
<line x1="343.4" y1="181.8" x2="330.2" y2="204.7" stroke="rgb(0,0,0)"  stroke-width="2.0"/>
<polygon points="343.384559 142.416917 369.796153 138.416917 369.796153 146.416917 " stroke-width="2.000000" fill="rgb(0,0,0)"  stroke="rgb(0,0,0)" />
<line x1="343.4" y1="142.4" x2="343.4" y2="103.0" stroke="rgb(0,0,0)"  stroke-width="2.0"/>
<line x1="343.4" y1="142.4" x2="317.0" y2="142.4" stroke="rgb(0,0,0)"  stroke-width="2.0"/>
<line x1="341.9" y1="105.6" x2="319.0" y2="92.4" stroke="rgb(0,0,0)"  stroke-width="2.0"/>
<line x1="344.9" y1="100.4" x2="322.0" y2="87.2" stroke="rgb(0,0,0)"  stroke-width="2.0"/>
<line x1="343.4" y1="103.0" x2="366.3" y2="89.8" stroke="rgb(0,0,0)"  stroke-width="2.0"/>
<line x1="377.5" y1="70.3" x2="377.5" y2="56.9" stroke="rgb(0,0,0)"  stroke-width="2.0"/>
<line x1="388.8" y1="89.8" x2="400.4" y2="96.5" stroke="rgb(0,0,0)"  stroke-width="2.0"/>
<line x1="297.5" y1="153.7" x2="284.3" y2="176.6" stroke="rgb(0,0,0)"  stroke-width="2.0"/>
<line x1="297.5" y1="131.2" x2="290.8" y2="119.5" stroke="rgb(0,0,0)"  stroke-width="2.0"/>
<line x1="286.9" y1="175.1" x2="300.1" y2="197.9" stroke="rgb(0,0,0)"  stroke-width="2.0"/>
<line x1="281.7" y1="178.1" x2="294.9" y2="200.9" stroke="rgb(0,0,0)"  stroke-width="2.0"/>
<line x1="284.3" y1="176.6" x2="244.8" y2="176.6" stroke="rgb(0,0,0)"  stroke-width="2.0"/>
<line x1="244.0" y1="171.3" x2="245.6" y2="171.3" stroke="rgb(0,0,0)"  stroke-width="1.0"/>
<line x1="243.4" y1="167.0" x2="246.3" y2="167.0" stroke="rgb(0,0,0)"  stroke-width="1.0"/>
<line x1="242.8" y1="162.8" x2="246.9" y2="162.8" stroke="rgb(0,0,0)"  stroke-width="1.0"/>
<line x1="242.1" y1="158.6" x2="247.6" y2="158.6" stroke="rgb(0,0,0)"  stroke-width="1.0"/>
<line x1="241.5" y1="154.4" x2="248.2" y2="154.4" stroke="rgb(0,0,0)"  stroke-width="1.0"/>
<line x1="240.8" y1="150.1" x2="248.8" y2="150.1" stroke="rgb(0,0,0)"  stroke-width="1.0"/>
<line x1="244.8" y1="176.6" x2="205.4" y2="176.6" stroke="rgb(0,0,0)"  stroke-width="2.0"/>
<line x1="244.8" y1="176.6" x2="244.8" y2="203.0" stroke="rgb(0,0,0)"  stroke-width="2.0"/>
<line x1="205.4" y1="176.6" x2="185.7" y2="142.4" stroke="rgb(0,0,0)"  stroke-width="2.0"/>
<line x1="205.4" y1="176.6" x2="182.5" y2="189.8" stroke="rgb(0,0,0)"  stroke-width="2.0"/>
<line x1="205.4" y1="176.6" x2="205.4" y2="203.0" stroke="rgb(0,0,0)"  stroke-width="2.0"/>
<line x1="205.4" y1="108.3" x2="231.8" y2="108.3" stroke="rgb(0,0,0)"  stroke-width="2.0"/>
<line x1="185.7" y1="74.1" x2="198.9" y2="51.3" stroke="rgb(0,0,0)"  stroke-width="2.0"/>
<line x1="146.3" y1="74.1" x2="133.1" y2="51.3" stroke="rgb(0,0,0)"  stroke-width="2.0"/>
<line x1="126.6" y1="108.3" x2="100.2" y2="108.3" stroke="rgb(0,0,0)"  stroke-width="2.0"/>
<line x1="146.3" y1="142.4" x2="133.1" y2="165.3" stroke="rgb(0,0,0)"  stroke-width="2.0"/>
<line x1="233.6" y1="222.5" x2="210.7" y2="235.7" stroke="rgb(0,0,0)"  stroke-width="2.0"/>
<line x1="256.1" y1="222.5" x2="267.7" y2="229.2" stroke="rgb(0,0,0)"  stroke-width="2.0"/>
<line x1="209.2" y1="238.3" x2="186.3" y2="225.1" stroke="rgb(0,0,0)"  stroke-width="2.0"/>
<line x1="212.2" y1="233.1" x2="189.3" y2="219.9" stroke="rgb(0,0,0)"  stroke-width="2.0"/>
<line x1="210.7" y1="235.7" x2="210.7" y2="275.1" stroke="rgb(0,0,0)"  stroke-width="2.0"/>
<line x1="205.4" y1="275.9" x2="205.4" y2="274.3" stroke="rgb(0,0,0)"  stroke-width="1.0"/>
<line x1="201.2" y1="276.5" x2="201.2" y2="273.7" stroke="rgb(0,0,0)"  stroke-width="1.0"/>
<line x1="197.0" y1="277.2" x2="197.0" y2="273.0" stroke="rgb(0,0,0)"  stroke-width="1.0"/>
<line x1="192.7" y1="277.8" x2="192.7" y2="272.4" stroke="rgb(0,0,0)"  stroke-width="1.0"/>
<line x1="188.5" y1="278.5" x2="188.5" y2="271.7" stroke="rgb(0,0,0)"  stroke-width="1.0"/>
<line x1="184.3" y1="279.1" x2="184.3" y2="271.1" stroke="rgb(0,0,0)"  stroke-width="1.0"/>
<line x1="210.7" y1="275.1" x2="210.7" y2="353.9" stroke="rgb(0,0,0)"  stroke-width="2.0"/>
<line x1="210.7" y1="275.1" x2="237.1" y2="275.1" stroke="rgb(0,0,0)"  stroke-width="2.0"/>
<line x1="210.7" y1="353.9" x2="176.6" y2="373.7" stroke="rgb(0,0,0)"  stroke-width="2.0"/>
<line x1="210.7" y1="353.9" x2="223.9" y2="376.8" stroke="rgb(0,0,0)"  stroke-width="2.0"/>
<line x1="210.7" y1="353.9" x2="237.1" y2="353.9" stroke="rgb(0,0,0)"  stroke-width="2.0"/>
<line x1="142.4" y1="353.9" x2="142.4" y2="327.5" stroke="rgb(0,0,0)"  stroke-width="2.0"/>
<line x1="108.3" y1="373.7" x2="85.4" y2="360.4" stroke="rgb(0,0,0)"  stroke-width="2.0"/>
<line x1="108.3" y1="413.1" x2="85.4" y2="426.3" stroke="rgb(0,0,0)"  stroke-width="2.0"/>
<line x1="142.4" y1="432.8" x2="142.4" y2="459.2" stroke="rgb(0,0,0)"  stroke-width="2.0"/>
<line x1="176.6" y1="413.1" x2="199.4" y2="426.3" stroke="rgb(0,0,0)"  stroke-width="2.0"/>
<line x1="62.9" y1="426.3" x2="51.3" y2="419.6" stroke="rgb(0,0,0)"  stroke-width="2.0"/>
<line x1="250.1" y1="288.1" x2="250.1" y2="301.5" stroke="rgb(0,0,0)"  stroke-width="2.0"/>
<line x1="263.1" y1="275.1" x2="276.5" y2="275.1" stroke="rgb(0,0,0)"  stroke-width="2.0"/>
<line x1="250.1" y1="262.1" x2="250.1" y2="248.7" stroke="rgb(0,0,0)"  stroke-width="2.0"/>
<line x1="411.7" y1="181.8" x2="377.5" y2="201.5" stroke="rgb(0,0,0)"  stroke-width="2.0"/>
<line x1="377.5" y1="201.5" x2="377.5" y2="241.0" stroke="rgb(0,0,0)"  stroke-width="2.0"/>
<line x1="384.7" y1="207.5" x2="384.7" y2="235.0" stroke="rgb(0,0,0)"  stroke-width="2.0"/>
<line x1="377.5" y1="241.0" x2="411.7" y2="260.7" stroke="rgb(0,0,0)"  stroke-width="2.0"/>
<line x1="411.7" y1="260.7" x2="445.8" y2="241.0" stroke="rgb(0,0,0)"  stroke-width="2.0"/>
<line x1="413.3" y1="251.4" x2="437.0" y2="237.7" stroke="rgb(0,0,0)"  stroke-width="2.0"/>
<line x1="445.8" y1="241.0" x2="445.8" y2="201.5" stroke="rgb(0,0,0)"  stroke-width="2.0"/>
<line x1="445.8" y1="201.5" x2="411.7" y2="181.8" stroke="rgb(0,0,0)"  stroke-width="2.0"/>
<line x1="437.0" y1="204.8" x2="413.3" y2="191.1" stroke="rgb(0,0,0)"  stroke-width="2.0"/>
<line x1="185.7" y1="74.1" x2="146.3" y2="74.1" stroke="rgb(0,0,0)"  stroke-width="2.0"/>
<line x1="146.3" y1="74.1" x2="126.6" y2="108.3" stroke="rgb(0,0,0)"  stroke-width="2.0"/>
<line x1="149.5" y1="82.9" x2="135.8" y2="106.7" stroke="rgb(0,0,0)"  stroke-width="2.0"/>
<line x1="126.6" y1="108.3" x2="146.3" y2="142.4" stroke="rgb(0,0,0)"  stroke-width="2.0"/>
<line x1="146.3" y1="142.4" x2="185.7" y2="142.4" stroke="rgb(0,0,0)"  stroke-width="2.0"/>
<line x1="152.3" y1="135.2" x2="179.7" y2="135.2" stroke="rgb(0,0,0)"  stroke-width="2.0"/>
<line x1="185.7" y1="142.4" x2="205.4" y2="108.3" stroke="rgb(0,0,0)"  stroke-width="2.0"/>
<line x1="205.4" y1="108.3" x2="185.7" y2="74.1" stroke="rgb(0,0,0)"  stroke-width="2.0"/>
<line x1="196.2" y1="106.7" x2="182.5" y2="82.9" stroke="rgb(0,0,0)"  stroke-width="2.0"/>
<line x1="108.3" y1="373.7" x2="108.3" y2="413.1" stroke="rgb(0,0,0)"  stroke-width="2.0"/>
<line x1="108.3" y1="413.1" x2="142.4" y2="432.8" stroke="rgb(0,0,0)"  stroke-width="2.0"/>
<line x1="117.1" y1="409.8" x2="140.8" y2="423.6" stroke="rgb(0,0,0)"  stroke-width="2.0"/>
<line x1="142.4" y1="432.8" x2="176.6" y2="413.1" stroke="rgb(0,0,0)"  stroke-width="2.0"/>
<line x1="176.6" y1="413.1" x2="176.6" y2="373.7" stroke="rgb(0,0,0)"  stroke-width="2.0"/>
<line x1="169.4" y1="407.1" x2="169.4" y2="379.7" stroke="rgb(0,0,0)"  stroke-width="2.0"/>
<line x1="176.6" y1="373.7" x2="142.4" y2="353.9" stroke="rgb(0,0,0)"  stroke-width="2.0"/>
<line x1="142.4" y1="353.9" x2="108.3" y2="373.7" stroke="rgb(0,0,0)"  stroke-width="2.0"/>
<line x1="140.8" y1="363.2" x2="117.1" y2="376.9" stroke="rgb(0,0,0)"  stroke-width="2.0"/>
<text x="337.384559" y="268.677787" fill="rgb(191,191,191)"  stroke="rgb(191,191,191)" stroke-width="1" font-size="16" >H</text>
<text x="199.413545" y="223.976180" fill="rgb(191,191,191)"  stroke="rgb(191,191,191)" stroke-width="1" font-size="16" >H</text>
<text x="165.274572" y="204.266035" fill="rgb(191,191,191)"  stroke="rgb(191,191,191)" stroke-width="1" font-size="16" >H</text>
<text x="278.254124" y="116.277945" fill="rgb(191,191,191)"  stroke="rgb(191,191,191)" stroke-width="1" font-size="16" >H</text>
<text x="405.662504" y="110.996627" fill="rgb(191,191,191)"  stroke="rgb(191,191,191)" stroke-width="1" font-size="16" >H</text>
<text x="371.523532" y="51.866193" fill="rgb(191,191,191)"  stroke="rgb(191,191,191)" stroke-width="1" font-size="16" >H</text>
<text x="317.674414" y="223.976180" fill="rgb(191,191,191)"  stroke="rgb(191,191,191)" stroke-width="1" font-size="16" >H</text>
<text x="297.964269" y="189.837207" fill="rgb(191,191,191)"  stroke="rgb(191,191,191)" stroke-width="1" font-size="16" >H</text>
<text x="405.662504" y="308.098077" fill="rgb(191,191,191)"  stroke="rgb(191,191,191)" stroke-width="1" font-size="16" >H</text>
<text x="238.833835" y="116.277945" fill="rgb(191,191,191)"  stroke="rgb(191,191,191)" stroke-width="1" font-size="16" >H</text>
<text x="405.662504" y="150.416917" fill="rgb(191,191,191)"  stroke="rgb(191,191,191)" stroke-width="1" font-size="16" >H</text>
<text x="473.940449" y="189.837207" fill="rgb(191,191,191)"  stroke="rgb(191,191,191)" stroke-width="1" font-size="16" >H</text>
<text x="473.940449" y="268.677787" fill="rgb(191,191,191)"  stroke="rgb(191,191,191)" stroke-width="1" font-size="16" >H</text>
<text x="254.915152" y="271.074614" fill="rgb(12,12,255)"  stroke="rgb(12,12,255)" stroke-width="1" font-size="16" >+</text>
<text x="244.115152" y="283.106614" fill="rgb(12,12,255)"  stroke="rgb(12,12,255)" stroke-width="1" font-size="16" >N</text>
<text x="68.138972" y="440.787774" fill="rgb(255,12,12)"  stroke="rgb(255,12,12)" stroke-width="1" font-size="16" >O</text>
<text x="199.413545" y="48.000000" fill="rgb(191,191,191)"  stroke="rgb(191,191,191)" stroke-width="1" font-size="16" >H</text>
<text x="120.572965" y="48.000000" fill="rgb(191,191,191)"  stroke="rgb(191,191,191)" stroke-width="1" font-size="16" >H</text>
<text x="81.152675" y="116.277945" fill="rgb(191,191,191)"  stroke="rgb(191,191,191)" stroke-width="1" font-size="16" >H</text>
<text x="120.572965" y="184.555890" fill="rgb(191,191,191)"  stroke="rgb(191,191,191)" stroke-width="1" font-size="16" >H</text>
<text x="272.972807" y="243.686325" fill="rgb(191,191,191)"  stroke="rgb(191,191,191)" stroke-width="1" font-size="16" >H</text>
<text x="224.405007" y="396.086167" fill="rgb(191,191,191)"  stroke="rgb(191,191,191)" stroke-width="1" font-size="16" >H</text>
<text x="244.115152" y="361.947194" fill="rgb(191,191,191)"  stroke="rgb(191,191,191)" stroke-width="1" font-size="16" >H</text>
<text x="136.416917" y="322.526904" fill="rgb(191,191,191)"  stroke="rgb(191,191,191)" stroke-width="1" font-size="16" >H</text>
<text x="68.138972" y="361.947194" fill="rgb(191,191,191)"  stroke="rgb(191,191,191)" stroke-width="1" font-size="16" >H</text>
<text x="136.416917" y="480.208064" fill="rgb(191,191,191)"  stroke="rgb(191,191,191)" stroke-width="1" font-size="16" >H</text>
<text x="204.694862" y="440.787774" fill="rgb(191,191,191)"  stroke="rgb(191,191,191)" stroke-width="1" font-size="16" >H</text>
<text x="34.000000" y="421.077629" fill="rgb(191,191,191)"  stroke="rgb(191,191,191)" stroke-width="1" font-size="16" >H</text>
<text x="244.115152" y="322.526904" fill="rgb(191,191,191)"  stroke="rgb(191,191,191)" stroke-width="1" font-size="16" >H</text>
<text x="283.535442" y="283.106614" fill="rgb(191,191,191)"  stroke="rgb(191,191,191)" stroke-width="1" font-size="16" >H</text>
<text x="244.115152" y="243.686325" fill="rgb(191,191,191)"  stroke="rgb(191,191,191)" stroke-width="1" font-size="16" >H</text>
<text x="376.804849" y="150.416917" fill="rgb(191,191,191)"  stroke="rgb(191,191,191)" stroke-width="1" font-size="16" >H</text>
<text x="238.833835" y="145.135600" fill="rgb(191,191,191)"  stroke="rgb(191,191,191)" stroke-width="1" font-size="16" >H</text>
<text x="297.964269" y="218.694862" fill="rgb(255,12,12)"  stroke="rgb(255,12,12)" stroke-width="1" font-size="16" >O</text>
<text x="297.964269" y="150.416917" fill="rgb(12,12,255)"  stroke="rgb(12,12,255)" stroke-width="1" font-size="16" >N</text>
<text x="371.523532" y="91.286483" fill="rgb(12,12,255)"  stroke="rgb(12,12,255)" stroke-width="1" font-size="16" >N</text>
<text x="303.245587" y="91.286483" fill="rgb(255,12,12)"  stroke="rgb(255,12,12)" stroke-width="1" font-size="16" >O</text>
<text x="238.833835" y="223.976180" fill="rgb(12,12,255)"  stroke="rgb(12,12,255)" stroke-width="1" font-size="16" >N</text>
<text x="170.555890" y="223.976180" fill="rgb(255,12,12)"  stroke="rgb(255,12,12)" stroke-width="1" font-size="16" >O</text>
<text x="165.274572" y="283.106614" fill="rgb(191,191,191)"  stroke="rgb(191,191,191)" stroke-width="1" font-size="16" >H</text>
</svg>
</g>
<text font-size="18.000000" fill ="black" font-family="sans-serif"
x="10.000000" y="20.000000" >ZINC71766836</text>
</svg>
