<?xml version="1.0"?>
<svg version="1.1" id="topsvg"
xmlns="http://www.w3.org/2000/svg" xmlns:xlink="http://www.w3.org/1999/xlink"
xmlns:cml="http://www.xml-cml.org/schema" x="0" y="0" width="200px" height="200px" viewBox="0 0 100 100">
<title>ZINC34310004 - Open Babel Depiction</title>
<rect x="0" y="0" width="100" height="100" fill="white"/>
<g transform="translate(0,0)">
<svg width="100" height="100" x="0" y="0" viewBox="0 0 287.846 280"
font-family="sans-serif" stroke="rgb(0,0,0)" stroke-width="2"  stroke-linecap="round">
<line x1="143.9" y1="180.0" x2="143.9" y2="207.0" stroke="rgb(0,0,0)"  stroke-width="2.0"/>
<line x1="178.6" y1="160.0" x2="201.9" y2="173.5" stroke="rgb(0,0,0)"  stroke-width="2.0"/>
<line x1="178.6" y1="120.0" x2="201.9" y2="106.5" stroke="rgb(0,0,0)"  stroke-width="2.0"/>
<line x1="143.9" y1="100.0" x2="143.9" y2="73.0" stroke="rgb(0,0,0)"  stroke-width="2.0"/>
<line x1="109.3" y1="120.0" x2="85.9" y2="106.5" stroke="rgb(0,0,0)"  stroke-width="2.0"/>
<line x1="109.3" y1="160.0" x2="85.9" y2="173.5" stroke="rgb(0,0,0)"  stroke-width="2.0"/>
<line x1="77.6" y1="193.0" x2="77.6" y2="207.0" stroke="rgb(0,0,0)"  stroke-width="2.0"/>
<line x1="71.6" y1="193.0" x2="71.6" y2="207.0" stroke="rgb(0,0,0)"  stroke-width="2.0"/>
<line x1="64.9" y1="229.1" x2="52.8" y2="236.1" stroke="rgb(0,0,0)"  stroke-width="2.0"/>
<line x1="61.9" y1="223.9" x2="49.8" y2="230.9" stroke="rgb(0,0,0)"  stroke-width="2.0"/>
<line x1="153.7" y1="50.9" x2="165.8" y2="43.9" stroke="rgb(0,0,0)"  stroke-width="2.0"/>
<line x1="156.7" y1="56.1" x2="168.8" y2="49.1" stroke="rgb(0,0,0)"  stroke-width="2.0"/>
<line x1="132.7" y1="53.5" x2="120.5" y2="46.5" stroke="rgb(0,0,0)"  stroke-width="2.0"/>
<line x1="224.5" y1="106.5" x2="236.6" y2="113.5" stroke="rgb(0,0,0)"  stroke-width="2.0"/>
<line x1="178.6" y1="120.0" x2="143.9" y2="100.0" stroke="rgb(0,0,0)"  stroke-width="2.0"/>
<line x1="143.9" y1="100.0" x2="109.3" y2="120.0" stroke="rgb(0,0,0)"  stroke-width="2.0"/>
<line x1="142.3" y1="109.2" x2="118.1" y2="123.2" stroke="rgb(0,0,0)"  stroke-width="2.0"/>
<line x1="109.3" y1="120.0" x2="109.3" y2="160.0" stroke="rgb(0,0,0)"  stroke-width="2.0"/>
<line x1="109.3" y1="160.0" x2="143.9" y2="180.0" stroke="rgb(0,0,0)"  stroke-width="2.0"/>
<line x1="118.1" y1="156.8" x2="142.3" y2="170.8" stroke="rgb(0,0,0)"  stroke-width="2.0"/>
<line x1="143.9" y1="180.0" x2="178.6" y2="160.0" stroke="rgb(0,0,0)"  stroke-width="2.0"/>
<line x1="178.6" y1="160.0" x2="178.6" y2="120.0" stroke="rgb(0,0,0)"  stroke-width="2.0"/>
<line x1="171.4" y1="154.0" x2="171.4" y2="126.0" stroke="rgb(0,0,0)"  stroke-width="2.0"/>
<text x="22.000000" y="248.000000" fill="rgb(12,12,255)"  stroke="rgb(12,12,255)" stroke-width="1" font-size="16" >HN</text>
<text x="241.846097" y="128.000000" fill="rgb(191,191,191)"  stroke="rgb(191,191,191)" stroke-width="1" font-size="16" >H</text>
<text x="68.641016" y="108.000000" fill="rgb(191,191,191)"  stroke="rgb(191,191,191)" stroke-width="1" font-size="16" >H</text>
<text x="207.205081" y="188.000000" fill="rgb(191,191,191)"  stroke="rgb(191,191,191)" stroke-width="1" font-size="16" >H</text>
<text x="137.923048" y="228.000000" fill="rgb(191,191,191)"  stroke="rgb(191,191,191)" stroke-width="1" font-size="16" >H</text>
<text x="207.205081" y="108.000000" fill="rgb(255,12,12)"  stroke="rgb(255,12,12)" stroke-width="1" font-size="16" >O</text>
<text x="91.282032" y="48.000000" fill="rgb(255,12,12)"  stroke="rgb(255,12,12)" stroke-width="1" font-size="16" >HO</text>
<text x="172.564065" y="48.000000" fill="rgb(255,12,12)"  stroke="rgb(255,12,12)" stroke-width="1" font-size="16" >O</text>
<text x="137.923048" y="68.000000" fill="rgb(12,12,255)"  stroke="rgb(12,12,255)" stroke-width="1" font-size="16" >N</text>
<text x="68.641016" y="228.000000" fill="rgb(12,12,255)"  stroke="rgb(12,12,255)" stroke-width="1" font-size="16" >N</text>
<text x="68.641016" y="188.000000" fill="rgb(12,12,255)"  stroke="rgb(12,12,255)" stroke-width="1" font-size="16" >N</text>
</svg>
</g>
<text font-size="18.000000" fill ="black" font-family="sans-serif"
x="10.000000" y="20.000000" >ZINC34310004</text>
</svg>
