<?xml version="1.0"?>
<svg version="1.1" id="topsvg"
xmlns="http://www.w3.org/2000/svg" xmlns:xlink="http://www.w3.org/1999/xlink"
xmlns:cml="http://www.xml-cml.org/schema" x="0" y="0" width="200px" height="200px" viewBox="0 0 100 100">
<title>ZINC33309287 - Open Babel Depiction</title>
<rect x="0" y="0" width="100" height="100" fill="white"/>
<g transform="translate(0,0)">
<svg width="100" height="100" x="0" y="0" viewBox="0 0 455.175 269.961"
font-family="sans-serif" stroke="rgb(0,0,0)" stroke-width="2"  stroke-linecap="round">
<line x1="378.5" y1="103.5" x2="402.2" y2="103.5" stroke="rgb(0,0,0)"  stroke-width="2.0"/>
<line x1="360.2" y1="71.8" x2="372.0" y2="51.3" stroke="rgb(0,0,0)"  stroke-width="2.0"/>
<line x1="323.5" y1="71.8" x2="311.7" y2="51.3" stroke="rgb(0,0,0)"  stroke-width="2.0"/>
<line x1="305.2" y1="103.5" x2="158.5" y2="103.5" stroke="rgb(0,0,0)"  stroke-width="2.0"/>
<line x1="323.5" y1="135.3" x2="311.7" y2="155.8" stroke="rgb(0,0,0)"  stroke-width="2.0"/>
<line x1="360.2" y1="135.3" x2="372.0" y2="155.8" stroke="rgb(0,0,0)"  stroke-width="2.0"/>
<line x1="160.3" y1="98.9" x2="161.7" y2="99.7" stroke="rgb(0,0,0)"  stroke-width="1.0"/>
<line x1="161.7" y1="95.1" x2="164.2" y2="96.6" stroke="rgb(0,0,0)"  stroke-width="1.0"/>
<line x1="163.1" y1="91.4" x2="166.7" y2="93.5" stroke="rgb(0,0,0)"  stroke-width="1.0"/>
<line x1="164.5" y1="87.7" x2="169.2" y2="90.4" stroke="rgb(0,0,0)"  stroke-width="1.0"/>
<line x1="165.9" y1="84.0" x2="171.7" y2="87.3" stroke="rgb(0,0,0)"  stroke-width="1.0"/>
<line x1="167.3" y1="80.2" x2="174.3" y2="84.2" stroke="rgb(0,0,0)"  stroke-width="1.0"/>
<line x1="170.8" y1="198.2" x2="182.7" y2="218.7" stroke="rgb(0,0,0)"  stroke-width="2.0"/>
<line x1="198.5" y1="162.0" x2="208.9" y2="159.8" stroke="rgb(0,0,0)"  stroke-width="2.0"/>
<line x1="95.0" y1="140.2" x2="71.3" y2="140.2" stroke="rgb(0,0,0)"  stroke-width="2.0"/>
<line x1="95.0" y1="140.2" x2="83.2" y2="160.7" stroke="rgb(0,0,0)"  stroke-width="2.0"/>
<polygon points="95.000000 103.508530 79.252565 84.233172 86.180768 80.233172 " stroke-width="2.000000" fill="rgb(0,0,0)"  stroke="rgb(0,0,0)" />
<line x1="95.0" y1="103.5" x2="58.3" y2="103.5" stroke="rgb(0,0,0)"  stroke-width="2.0"/>
<line x1="133.3" y1="73.9" x2="138.6" y2="64.7" stroke="rgb(0,0,0)"  stroke-width="2.0"/>
<line x1="120.3" y1="73.9" x2="114.9" y2="64.7" stroke="rgb(0,0,0)"  stroke-width="2.0"/>
<line x1="55.7" y1="105.0" x2="43.9" y2="84.5" stroke="rgb(0,0,0)"  stroke-width="2.0"/>
<line x1="60.9" y1="102.0" x2="49.1" y2="81.5" stroke="rgb(0,0,0)"  stroke-width="2.0"/>
<line x1="58.3" y1="103.5" x2="46.5" y2="124.0" stroke="rgb(0,0,0)"  stroke-width="2.0"/>
<line x1="170.8" y1="198.2" x2="146.4" y2="195.6" stroke="rgb(0,0,0)"  stroke-width="2.0"/>
<line x1="165.6" y1="190.4" x2="149.5" y2="188.7" stroke="rgb(0,0,0)"  stroke-width="2.0"/>
<line x1="131.7" y1="181.7" x2="126.8" y2="158.5" stroke="rgb(0,0,0)"  stroke-width="2.0"/>
<line x1="126.8" y1="158.5" x2="158.5" y2="140.2" stroke="rgb(0,0,0)"  stroke-width="2.0"/>
<line x1="135.6" y1="161.7" x2="156.9" y2="149.4" stroke="rgb(0,0,0)"  stroke-width="2.0"/>
<line x1="158.5" y1="140.2" x2="176.1" y2="156.0" stroke="rgb(0,0,0)"  stroke-width="2.0"/>
<line x1="180.5" y1="176.6" x2="170.8" y2="198.2" stroke="rgb(0,0,0)"  stroke-width="2.0"/>
<line x1="323.5" y1="71.8" x2="305.2" y2="103.5" stroke="rgb(0,0,0)"  stroke-width="2.0"/>
<line x1="305.2" y1="103.5" x2="323.5" y2="135.3" stroke="rgb(0,0,0)"  stroke-width="2.0"/>
<line x1="314.4" y1="105.1" x2="326.7" y2="126.5" stroke="rgb(0,0,0)"  stroke-width="2.0"/>
<line x1="323.5" y1="135.3" x2="360.2" y2="135.3" stroke="rgb(0,0,0)"  stroke-width="2.0"/>
<line x1="360.2" y1="135.3" x2="378.5" y2="103.5" stroke="rgb(0,0,0)"  stroke-width="2.0"/>
<line x1="356.9" y1="126.5" x2="369.3" y2="105.1" stroke="rgb(0,0,0)"  stroke-width="2.0"/>
<line x1="378.5" y1="103.5" x2="360.2" y2="71.8" stroke="rgb(0,0,0)"  stroke-width="2.0"/>
<line x1="360.2" y1="71.8" x2="323.5" y2="71.8" stroke="rgb(0,0,0)"  stroke-width="2.0"/>
<line x1="354.2" y1="79.0" x2="329.5" y2="79.0" stroke="rgb(0,0,0)"  stroke-width="2.0"/>
<line x1="126.8" y1="158.5" x2="95.0" y2="140.2" stroke="rgb(0,0,0)"  stroke-width="2.0"/>
<line x1="95.0" y1="140.2" x2="95.0" y2="103.5" stroke="rgb(0,0,0)"  stroke-width="2.0"/>
<line x1="95.0" y1="103.5" x2="115.5" y2="91.7" stroke="rgb(0,0,0)"  stroke-width="2.0"/>
<line x1="138.0" y1="91.7" x2="158.5" y2="103.5" stroke="rgb(0,0,0)"  stroke-width="2.0"/>
<line x1="158.5" y1="103.5" x2="158.5" y2="140.2" stroke="rgb(0,0,0)"  stroke-width="2.0"/>
<text x="70.666667" y="79.754265" fill="rgb(191,191,191)"  stroke="rgb(191,191,191)" stroke-width="1" font-size="16" >H</text>
<text x="102.420931" y="61.420931" fill="rgb(191,191,191)"  stroke="rgb(191,191,191)" stroke-width="1" font-size="16" >H</text>
<text x="215.622585" y="165.086557" fill="rgb(191,191,191)"  stroke="rgb(191,191,191)" stroke-width="1" font-size="16" >H</text>
<text x="139.087598" y="61.420931" fill="rgb(191,191,191)"  stroke="rgb(191,191,191)" stroke-width="1" font-size="16" >H</text>
<text x="70.666667" y="179.929461" fill="rgb(191,191,191)"  stroke="rgb(191,191,191)" stroke-width="1" font-size="16" >H</text>
<text x="52.333333" y="148.175196" fill="rgb(191,191,191)"  stroke="rgb(191,191,191)" stroke-width="1" font-size="16" >H</text>
<text x="183.176830" y="237.960917" fill="rgb(191,191,191)"  stroke="rgb(191,191,191)" stroke-width="1" font-size="16" >H</text>
<text x="372.508530" y="175.017059" fill="rgb(191,191,191)"  stroke="rgb(191,191,191)" stroke-width="1" font-size="16" >H</text>
<text x="299.175196" y="175.017059" fill="rgb(191,191,191)"  stroke="rgb(191,191,191)" stroke-width="1" font-size="16" >H</text>
<text x="299.175196" y="48.000000" fill="rgb(191,191,191)"  stroke="rgb(191,191,191)" stroke-width="1" font-size="16" >H</text>
<text x="372.508530" y="48.000000" fill="rgb(191,191,191)"  stroke="rgb(191,191,191)" stroke-width="1" font-size="16" >H</text>
<text x="409.175196" y="111.508530" fill="rgb(191,191,191)"  stroke="rgb(191,191,191)" stroke-width="1" font-size="16" >H</text>
<text x="22.000000" y="143.262794" fill="rgb(255,12,12)"  stroke="rgb(255,12,12)" stroke-width="1" font-size="16" >HO</text>
<text x="34.000000" y="79.754265" fill="rgb(255,12,12)"  stroke="rgb(255,12,12)" stroke-width="1" font-size="16" >O</text>
<text x="131.554265" y="81.143196" fill="rgb(12,12,255)"  stroke="rgb(12,12,255)" stroke-width="1" font-size="16" >+</text>
<text x="120.754265" y="93.175196" fill="rgb(12,12,255)"  stroke="rgb(12,12,255)" stroke-width="1" font-size="16" >N</text>
<text x="179.757173" y="172.709985" fill="rgb(12,12,255)"  stroke="rgb(12,12,255)" stroke-width="1" font-size="16" >N</text>
<text x="128.377693" y="202.373942" fill="rgb(12,12,255)"  stroke="rgb(12,12,255)" stroke-width="1" font-size="16" >N</text>
<text x="170.841863" y="79.754265" fill="rgb(191,191,191)"  stroke="rgb(191,191,191)" stroke-width="1" font-size="16" >H</text>
</svg>
</g>
<text font-size="18.000000" fill ="black" font-family="sans-serif"
x="10.000000" y="20.000000" >ZINC33309287</text>
</svg>
