<?xml version="1.0"?>
<svg version="1.1" id="topsvg"
xmlns="http://www.w3.org/2000/svg" xmlns:xlink="http://www.w3.org/1999/xlink"
xmlns:cml="http://www.xml-cml.org/schema" x="0" y="0" width="200px" height="200px" viewBox="0 0 100 100">
<title>ZINC04556735 - Open Babel Depiction</title>
<rect x="0" y="0" width="100" height="100" fill="white"/>
<g transform="translate(0,0)">
<svg width="100" height="100" x="0" y="0" viewBox="0 0 660.842 535.859"
font-family="sans-serif" stroke="rgb(0,0,0)" stroke-width="2"  stroke-linecap="round">
<line x1="242.2" y1="428.4" x2="261.7" y2="394.7" stroke="rgb(0,0,0)"  stroke-width="2.0"/>
<line x1="242.2" y1="428.4" x2="242.2" y2="454.4" stroke="rgb(0,0,0)"  stroke-width="2.0"/>
<line x1="242.2" y1="428.4" x2="264.7" y2="441.4" stroke="rgb(0,0,0)"  stroke-width="2.0"/>
<line x1="242.2" y1="428.4" x2="216.3" y2="428.4" stroke="rgb(0,0,0)"  stroke-width="2.0"/>
<line x1="261.7" y1="394.7" x2="228.0" y2="375.3" stroke="rgb(0,0,0)"  stroke-width="2.0"/>
<line x1="261.7" y1="394.7" x2="281.1" y2="361.0" stroke="rgb(0,0,0)"  stroke-width="2.0"/>
<line x1="261.7" y1="394.7" x2="284.1" y2="407.7" stroke="rgb(0,0,0)"  stroke-width="2.0"/>
<line x1="228.0" y1="375.3" x2="202.1" y2="375.3" stroke="rgb(0,0,0)"  stroke-width="2.0"/>
<line x1="228.0" y1="375.3" x2="215.0" y2="397.7" stroke="rgb(0,0,0)"  stroke-width="2.0"/>
<line x1="228.0" y1="375.3" x2="228.0" y2="349.4" stroke="rgb(0,0,0)"  stroke-width="2.0"/>
<line x1="281.1" y1="361.0" x2="320.1" y2="361.0" stroke="rgb(0,0,0)"  stroke-width="2.0"/>
<line x1="281.1" y1="361.0" x2="281.1" y2="335.1" stroke="rgb(0,0,0)"  stroke-width="2.0"/>
<line x1="281.1" y1="361.0" x2="258.7" y2="348.1" stroke="rgb(0,0,0)"  stroke-width="2.0"/>
<line x1="320.9" y1="366.3" x2="319.3" y2="366.3" stroke="rgb(0,0,0)"  stroke-width="1.0"/>
<line x1="321.5" y1="370.4" x2="318.6" y2="370.4" stroke="rgb(0,0,0)"  stroke-width="1.0"/>
<line x1="322.1" y1="374.6" x2="318.0" y2="374.6" stroke="rgb(0,0,0)"  stroke-width="1.0"/>
<line x1="322.8" y1="378.8" x2="317.3" y2="378.8" stroke="rgb(0,0,0)"  stroke-width="1.0"/>
<line x1="323.4" y1="382.9" x2="316.7" y2="382.9" stroke="rgb(0,0,0)"  stroke-width="1.0"/>
<line x1="324.1" y1="387.1" x2="316.1" y2="387.1" stroke="rgb(0,0,0)"  stroke-width="1.0"/>
<line x1="320.1" y1="361.0" x2="397.9" y2="361.0" stroke="rgb(0,0,0)"  stroke-width="2.0"/>
<line x1="320.1" y1="361.0" x2="320.1" y2="335.1" stroke="rgb(0,0,0)"  stroke-width="2.0"/>
<line x1="400.5" y1="359.5" x2="413.5" y2="382.0" stroke="rgb(0,0,0)"  stroke-width="2.0"/>
<line x1="395.3" y1="362.5" x2="408.3" y2="385.0" stroke="rgb(0,0,0)"  stroke-width="2.0"/>
<line x1="397.9" y1="361.0" x2="410.9" y2="338.6" stroke="rgb(0,0,0)"  stroke-width="2.0"/>
<line x1="430.4" y1="327.3" x2="456.3" y2="327.3" stroke="rgb(0,0,0)"  stroke-width="2.0"/>
<line x1="410.9" y1="316.1" x2="404.4" y2="304.9" stroke="rgb(0,0,0)"  stroke-width="2.0"/>
<polygon points="456.282689 327.335443 460.282689 353.411119 452.282689 353.411119 " stroke-width="2.000000" fill="rgb(0,0,0)"  stroke="rgb(0,0,0)" />
<line x1="456.3" y1="327.3" x2="495.2" y2="327.3" stroke="rgb(0,0,0)"  stroke-width="2.0"/>
<line x1="456.3" y1="327.3" x2="456.3" y2="249.5" stroke="rgb(0,0,0)"  stroke-width="2.0"/>
<line x1="495.2" y1="327.3" x2="514.7" y2="361.0" stroke="rgb(0,0,0)"  stroke-width="2.0"/>
<line x1="495.2" y1="327.3" x2="517.6" y2="314.4" stroke="rgb(0,0,0)"  stroke-width="2.0"/>
<line x1="495.2" y1="327.3" x2="495.2" y2="301.4" stroke="rgb(0,0,0)"  stroke-width="2.0"/>
<line x1="514.7" y1="361.0" x2="495.2" y2="394.7" stroke="rgb(0,0,0)"  stroke-width="2.0"/>
<line x1="514.7" y1="361.0" x2="537.1" y2="374.0" stroke="rgb(0,0,0)"  stroke-width="2.0"/>
<line x1="514.7" y1="361.0" x2="537.1" y2="348.1" stroke="rgb(0,0,0)"  stroke-width="2.0"/>
<line x1="495.2" y1="394.7" x2="469.3" y2="394.7" stroke="rgb(0,0,0)"  stroke-width="2.0"/>
<line x1="495.2" y1="394.7" x2="495.2" y2="420.7" stroke="rgb(0,0,0)"  stroke-width="2.0"/>
<line x1="495.2" y1="394.7" x2="517.6" y2="407.7" stroke="rgb(0,0,0)"  stroke-width="2.0"/>
<line x1="449.8" y1="406.0" x2="436.8" y2="428.4" stroke="rgb(0,0,0)"  stroke-width="2.0"/>
<line x1="449.8" y1="383.5" x2="443.3" y2="372.3" stroke="rgb(0,0,0)"  stroke-width="2.0"/>
<line x1="439.4" y1="426.9" x2="452.4" y2="449.4" stroke="rgb(0,0,0)"  stroke-width="2.0"/>
<line x1="434.2" y1="429.9" x2="447.2" y2="452.4" stroke="rgb(0,0,0)"  stroke-width="2.0"/>
<line x1="436.8" y1="428.4" x2="410.9" y2="428.4" stroke="rgb(0,0,0)"  stroke-width="2.0"/>
<line x1="469.3" y1="462.2" x2="482.2" y2="462.2" stroke="rgb(0,0,0)"  stroke-width="2.0"/>
<line x1="449.8" y1="473.4" x2="443.3" y2="484.6" stroke="rgb(0,0,0)"  stroke-width="2.0"/>
<line x1="391.4" y1="439.7" x2="384.9" y2="450.9" stroke="rgb(0,0,0)"  stroke-width="2.0"/>
<line x1="391.4" y1="417.2" x2="384.9" y2="406.0" stroke="rgb(0,0,0)"  stroke-width="2.0"/>
<line x1="454.8" y1="252.1" x2="432.3" y2="239.1" stroke="rgb(0,0,0)"  stroke-width="2.0"/>
<line x1="457.8" y1="246.9" x2="435.3" y2="233.9" stroke="rgb(0,0,0)"  stroke-width="2.0"/>
<line x1="456.3" y1="249.5" x2="512.4" y2="217.1" stroke="rgb(0,0,0)"  stroke-width="2.0"/>
<line x1="559.2" y1="226.4" x2="551.2" y2="251.1" stroke="rgb(0,0,0)"  stroke-width="2.0"/>
<line x1="559.2" y1="226.4" x2="576.6" y2="245.7" stroke="rgb(0,0,0)"  stroke-width="2.0"/>
<line x1="585.3" y1="197.5" x2="606.3" y2="212.7" stroke="rgb(0,0,0)"  stroke-width="2.0"/>
<line x1="585.3" y1="197.5" x2="609.0" y2="186.9" stroke="rgb(0,0,0)"  stroke-width="2.0"/>
<line x1="565.8" y1="163.8" x2="586.8" y2="148.5" stroke="rgb(0,0,0)"  stroke-width="2.0"/>
<line x1="565.8" y1="163.8" x2="563.1" y2="138.0" stroke="rgb(0,0,0)"  stroke-width="2.0"/>
<line x1="525.4" y1="167.2" x2="526.9" y2="166.7" stroke="rgb(0,0,0)"  stroke-width="1.0"/>
<line x1="523.5" y1="163.4" x2="526.2" y2="162.5" stroke="rgb(0,0,0)"  stroke-width="1.0"/>
<line x1="521.6" y1="159.6" x2="525.5" y2="158.3" stroke="rgb(0,0,0)"  stroke-width="1.0"/>
<line x1="519.7" y1="155.8" x2="524.9" y2="154.2" stroke="rgb(0,0,0)"  stroke-width="1.0"/>
<line x1="517.8" y1="152.1" x2="524.2" y2="150.0" stroke="rgb(0,0,0)"  stroke-width="1.0"/>
<line x1="515.9" y1="148.3" x2="523.5" y2="145.8" stroke="rgb(0,0,0)"  stroke-width="1.0"/>
<line x1="527.8" y1="171.9" x2="489.7" y2="163.8" stroke="rgb(0,0,0)"  stroke-width="2.0"/>
<line x1="491.9" y1="165.8" x2="474.6" y2="185.1" stroke="rgb(0,0,0)"  stroke-width="2.0"/>
<line x1="487.5" y1="161.8" x2="470.1" y2="181.0" stroke="rgb(0,0,0)"  stroke-width="2.0"/>
<line x1="489.7" y1="163.8" x2="481.7" y2="139.1" stroke="rgb(0,0,0)"  stroke-width="2.0"/>
<line x1="486.4" y1="117.1" x2="503.7" y2="97.8" stroke="rgb(0,0,0)"  stroke-width="2.0"/>
<line x1="464.9" y1="124.1" x2="452.3" y2="121.4" stroke="rgb(0,0,0)"  stroke-width="2.0"/>
<line x1="503.7" y1="97.8" x2="541.8" y2="105.9" stroke="rgb(0,0,0)"  stroke-width="2.0"/>
<line x1="503.7" y1="97.8" x2="509.1" y2="72.5" stroke="rgb(0,0,0)"  stroke-width="2.0"/>
<line x1="503.7" y1="97.8" x2="484.4" y2="80.5" stroke="rgb(0,0,0)"  stroke-width="2.0"/>
<line x1="544.6" y1="105.0" x2="552.6" y2="129.7" stroke="rgb(0,0,0)"  stroke-width="2.0"/>
<line x1="538.9" y1="106.9" x2="546.9" y2="131.5" stroke="rgb(0,0,0)"  stroke-width="2.0"/>
<line x1="541.8" y1="105.9" x2="559.1" y2="86.7" stroke="rgb(0,0,0)"  stroke-width="2.0"/>
<line x1="580.5" y1="79.7" x2="593.2" y2="82.4" stroke="rgb(0,0,0)"  stroke-width="2.0"/>
<line x1="563.8" y1="64.7" x2="559.8" y2="52.4" stroke="rgb(0,0,0)"  stroke-width="2.0"/>
<line x1="308.8" y1="315.6" x2="286.4" y2="302.7" stroke="rgb(0,0,0)"  stroke-width="2.0"/>
<line x1="331.3" y1="315.6" x2="342.5" y2="309.2" stroke="rgb(0,0,0)"  stroke-width="2.0"/>
<line x1="287.9" y1="305.3" x2="265.4" y2="318.2" stroke="rgb(0,0,0)"  stroke-width="2.0"/>
<line x1="284.9" y1="300.1" x2="262.4" y2="313.0" stroke="rgb(0,0,0)"  stroke-width="2.0"/>
<line x1="286.4" y1="302.7" x2="286.4" y2="263.7" stroke="rgb(0,0,0)"  stroke-width="2.0"/>
<line x1="286.4" y1="263.7" x2="263.9" y2="250.8" stroke="rgb(0,0,0)"  stroke-width="2.0"/>
<line x1="286.4" y1="263.7" x2="299.3" y2="241.3" stroke="rgb(0,0,0)"  stroke-width="2.0"/>
<line x1="286.4" y1="263.7" x2="312.3" y2="263.7" stroke="rgb(0,0,0)"  stroke-width="2.0"/>
<line x1="241.4" y1="250.8" x2="219.0" y2="263.7" stroke="rgb(0,0,0)"  stroke-width="2.0"/>
<line x1="252.7" y1="231.3" x2="252.7" y2="218.4" stroke="rgb(0,0,0)"  stroke-width="2.0"/>
<line x1="222.0" y1="263.7" x2="222.0" y2="289.7" stroke="rgb(0,0,0)"  stroke-width="2.0"/>
<line x1="216.0" y1="263.7" x2="216.0" y2="289.7" stroke="rgb(0,0,0)"  stroke-width="2.0"/>
<line x1="219.0" y1="263.7" x2="185.2" y2="244.3" stroke="rgb(0,0,0)"  stroke-width="2.0"/>
<polygon points="185.247383 244.283459 194.821119 219.701261 201.749322 223.701261 " stroke-width="2.000000" fill="rgb(0,0,0)"  stroke="rgb(0,0,0)" />
<line x1="185.2" y1="244.3" x2="151.5" y2="224.8" stroke="rgb(0,0,0)"  stroke-width="2.0"/>
<line x1="185.2" y1="244.3" x2="172.3" y2="266.7" stroke="rgb(0,0,0)"  stroke-width="2.0"/>
<line x1="151.5" y1="224.8" x2="151.5" y2="185.9" stroke="rgb(0,0,0)"  stroke-width="2.0"/>
<line x1="151.5" y1="224.8" x2="125.6" y2="224.8" stroke="rgb(0,0,0)"  stroke-width="2.0"/>
<line x1="151.5" y1="224.8" x2="138.6" y2="247.3" stroke="rgb(0,0,0)"  stroke-width="2.0"/>
<line x1="185.2" y1="166.4" x2="207.7" y2="179.4" stroke="rgb(0,0,0)"  stroke-width="2.0"/>
<line x1="185.2" y1="127.5" x2="207.7" y2="114.6" stroke="rgb(0,0,0)"  stroke-width="2.0"/>
<line x1="151.5" y1="108.1" x2="151.5" y2="82.1" stroke="rgb(0,0,0)"  stroke-width="2.0"/>
<line x1="117.8" y1="127.5" x2="95.4" y2="114.6" stroke="rgb(0,0,0)"  stroke-width="2.0"/>
<line x1="117.8" y1="166.4" x2="95.4" y2="179.4" stroke="rgb(0,0,0)"  stroke-width="2.0"/>
<line x1="162.8" y1="62.6" x2="174.0" y2="56.2" stroke="rgb(0,0,0)"  stroke-width="2.0"/>
<line x1="152.8" y1="278.0" x2="126.9" y2="278.0" stroke="rgb(0,0,0)"  stroke-width="2.0"/>
<line x1="172.3" y1="289.2" x2="178.7" y2="300.4" stroke="rgb(0,0,0)"  stroke-width="2.0"/>
<line x1="124.3" y1="279.5" x2="111.3" y2="257.0" stroke="rgb(0,0,0)"  stroke-width="2.0"/>
<line x1="129.5" y1="276.5" x2="116.5" y2="254.0" stroke="rgb(0,0,0)"  stroke-width="2.0"/>
<line x1="126.9" y1="278.0" x2="107.4" y2="311.7" stroke="rgb(0,0,0)"  stroke-width="2.0"/>
<line x1="112.3" y1="313.6" x2="111.5" y2="315.0" stroke="rgb(0,0,0)"  stroke-width="1.0"/>
<line x1="116.3" y1="315.1" x2="114.8" y2="317.6" stroke="rgb(0,0,0)"  stroke-width="1.0"/>
<line x1="120.2" y1="316.7" x2="118.1" y2="320.3" stroke="rgb(0,0,0)"  stroke-width="1.0"/>
<line x1="124.1" y1="318.2" x2="121.4" y2="322.9" stroke="rgb(0,0,0)"  stroke-width="1.0"/>
<line x1="128.1" y1="319.7" x2="124.7" y2="325.6" stroke="rgb(0,0,0)"  stroke-width="1.0"/>
<line x1="132.0" y1="321.3" x2="128.0" y2="328.2" stroke="rgb(0,0,0)"  stroke-width="1.0"/>
<line x1="107.4" y1="311.7" x2="88.0" y2="345.4" stroke="rgb(0,0,0)"  stroke-width="2.0"/>
<line x1="107.4" y1="311.7" x2="85.0" y2="298.7" stroke="rgb(0,0,0)"  stroke-width="2.0"/>
<line x1="88.0" y1="345.4" x2="100.9" y2="367.8" stroke="rgb(0,0,0)"  stroke-width="2.0"/>
<line x1="88.0" y1="345.4" x2="65.5" y2="358.4" stroke="rgb(0,0,0)"  stroke-width="2.0"/>
<line x1="88.0" y1="345.4" x2="65.5" y2="332.4" stroke="rgb(0,0,0)"  stroke-width="2.0"/>
<line x1="100.9" y1="390.4" x2="94.5" y2="401.5" stroke="rgb(0,0,0)"  stroke-width="2.0"/>
<line x1="62.4" y1="298.7" x2="51.3" y2="305.2" stroke="rgb(0,0,0)"  stroke-width="2.0"/>
<line x1="73.7" y1="279.2" x2="73.7" y2="266.3" stroke="rgb(0,0,0)"  stroke-width="2.0"/>
<line x1="185.2" y1="127.5" x2="151.5" y2="108.1" stroke="rgb(0,0,0)"  stroke-width="2.0"/>
<line x1="151.5" y1="108.1" x2="117.8" y2="127.5" stroke="rgb(0,0,0)"  stroke-width="2.0"/>
<line x1="149.9" y1="117.3" x2="126.6" y2="130.8" stroke="rgb(0,0,0)"  stroke-width="2.0"/>
<line x1="117.8" y1="127.5" x2="117.8" y2="166.4" stroke="rgb(0,0,0)"  stroke-width="2.0"/>
<line x1="117.8" y1="166.4" x2="151.5" y2="185.9" stroke="rgb(0,0,0)"  stroke-width="2.0"/>
<line x1="126.6" y1="163.2" x2="149.9" y2="176.7" stroke="rgb(0,0,0)"  stroke-width="2.0"/>
<line x1="151.5" y1="185.9" x2="185.2" y2="166.4" stroke="rgb(0,0,0)"  stroke-width="2.0"/>
<line x1="185.2" y1="166.4" x2="185.2" y2="127.5" stroke="rgb(0,0,0)"  stroke-width="2.0"/>
<line x1="178.0" y1="160.4" x2="178.0" y2="133.5" stroke="rgb(0,0,0)"  stroke-width="2.0"/>
<line x1="585.3" y1="197.5" x2="565.8" y2="163.8" stroke="rgb(0,0,0)"  stroke-width="2.0"/>
<line x1="565.8" y1="163.8" x2="527.8" y2="171.9" stroke="rgb(0,0,0)"  stroke-width="2.0"/>
<line x1="527.8" y1="171.9" x2="525.1" y2="197.6" stroke="rgb(0,0,0)"  stroke-width="2.0"/>
<line x1="535.6" y1="215.9" x2="559.2" y2="226.4" stroke="rgb(0,0,0)"  stroke-width="2.0"/>
<line x1="559.2" y1="226.4" x2="585.3" y2="197.5" stroke="rgb(0,0,0)"  stroke-width="2.0"/>
<text x="241.442781" y="349.580756" fill="rgb(191,191,191)"  stroke="rgb(191,191,191)" stroke-width="1" font-size="16" >H</text>
<text x="579.288275" y="263.330830" fill="rgb(191,191,191)"  stroke="rgb(191,191,191)" stroke-width="1" font-size="16" >H</text>
<text x="541.219828" y="271.422528" fill="rgb(191,191,191)"  stroke="rgb(191,191,191)" stroke-width="1" font-size="16" >H</text>
<text x="372.444851" y="402.744988" fill="rgb(191,191,191)"  stroke="rgb(191,191,191)" stroke-width="1" font-size="16" >H</text>
<text x="372.444851" y="470.154533" fill="rgb(191,191,191)"  stroke="rgb(191,191,191)" stroke-width="1" font-size="16" >H</text>
<text x="489.201608" y="470.154533" fill="rgb(191,191,191)"  stroke="rgb(191,191,191)" stroke-width="1" font-size="16" >H</text>
<text x="430.823229" y="369.040216" fill="rgb(191,191,191)"  stroke="rgb(191,191,191)" stroke-width="1" font-size="16" >H</text>
<text x="522.906380" y="422.204447" fill="rgb(191,191,191)"  stroke="rgb(191,191,191)" stroke-width="1" font-size="16" >H</text>
<text x="489.201608" y="441.663907" fill="rgb(191,191,191)"  stroke="rgb(191,191,191)" stroke-width="1" font-size="16" >H</text>
<text x="542.365840" y="349.580756" fill="rgb(191,191,191)"  stroke="rgb(191,191,191)" stroke-width="1" font-size="16" >H</text>
<text x="542.365840" y="388.499675" fill="rgb(191,191,191)"  stroke="rgb(191,191,191)" stroke-width="1" font-size="16" >H</text>
<text x="489.201608" y="296.416524" fill="rgb(191,191,191)"  stroke="rgb(191,191,191)" stroke-width="1" font-size="16" >H</text>
<text x="522.906380" y="315.875984" fill="rgb(191,191,191)"  stroke="rgb(191,191,191)" stroke-width="1" font-size="16" >H</text>
<text x="391.904311" y="301.630671" fill="rgb(191,191,191)"  stroke="rgb(191,191,191)" stroke-width="1" font-size="16" >H</text>
<text x="610.774342" y="228.362010" fill="rgb(191,191,191)"  stroke="rgb(191,191,191)" stroke-width="1" font-size="16" >H</text>
<text x="275.147554" y="330.121297" fill="rgb(191,191,191)"  stroke="rgb(191,191,191)" stroke-width="1" font-size="16" >H</text>
<text x="221.983322" y="344.366610" fill="rgb(191,191,191)"  stroke="rgb(191,191,191)" stroke-width="1" font-size="16" >H</text>
<text x="202.523862" y="416.990301" fill="rgb(191,191,191)"  stroke="rgb(191,191,191)" stroke-width="1" font-size="16" >H</text>
<text x="183.064403" y="383.285529" fill="rgb(191,191,191)"  stroke="rgb(191,191,191)" stroke-width="1" font-size="16" >H</text>
<text x="289.392867" y="422.204447" fill="rgb(191,191,191)"  stroke="rgb(191,191,191)" stroke-width="1" font-size="16" >H</text>
<text x="197.309716" y="436.449760" fill="rgb(191,191,191)"  stroke="rgb(191,191,191)" stroke-width="1" font-size="16" >H</text>
<text x="269.933407" y="455.909220" fill="rgb(191,191,191)"  stroke="rgb(191,191,191)" stroke-width="1" font-size="16" >H</text>
<text x="236.228635" y="475.368679" fill="rgb(191,191,191)"  stroke="rgb(191,191,191)" stroke-width="1" font-size="16" >H</text>
<text x="67.704772" y="300.233544" fill="rgb(12,12,255)"  stroke="rgb(12,12,255)" stroke-width="1" font-size="16" >N</text>
<text x="101.409545" y="387.102549" fill="rgb(255,12,12)"  stroke="rgb(255,12,12)" stroke-width="1" font-size="16" >O</text>
<text x="135.114317" y="339.152463" fill="rgb(191,191,191)"  stroke="rgb(191,191,191)" stroke-width="1" font-size="16" >H</text>
<text x="106.623691" y="232.823999" fill="rgb(191,191,191)"  stroke="rgb(191,191,191)" stroke-width="1" font-size="16" >H</text>
<text x="67.704772" y="261.314625" fill="rgb(191,191,191)"  stroke="rgb(191,191,191)" stroke-width="1" font-size="16" >H</text>
<text x="430.823229" y="503.859305" fill="rgb(191,191,191)"  stroke="rgb(191,191,191)" stroke-width="1" font-size="16" >H</text>
<text x="34.000000" y="319.693004" fill="rgb(191,191,191)"  stroke="rgb(191,191,191)" stroke-width="1" font-size="16" >H</text>
<text x="81.950085" y="420.807321" fill="rgb(191,191,191)"  stroke="rgb(191,191,191)" stroke-width="1" font-size="16" >H</text>
<text x="48.245313" y="333.938317" fill="rgb(191,191,191)"  stroke="rgb(191,191,191)" stroke-width="1" font-size="16" >H</text>
<text x="48.245313" y="372.857236" fill="rgb(191,191,191)"  stroke="rgb(191,191,191)" stroke-width="1" font-size="16" >H</text>
<text x="179.247383" y="319.693004" fill="rgb(191,191,191)"  stroke="rgb(191,191,191)" stroke-width="1" font-size="16" >H</text>
<text x="179.247383" y="57.688864" fill="rgb(191,191,191)"  stroke="rgb(191,191,191)" stroke-width="1" font-size="16" >H</text>
<text x="78.133065" y="193.905080" fill="rgb(191,191,191)"  stroke="rgb(191,191,191)" stroke-width="1" font-size="16" >H</text>
<text x="78.133065" y="116.067243" fill="rgb(191,191,191)"  stroke="rgb(191,191,191)" stroke-width="1" font-size="16" >H</text>
<text x="212.952155" y="116.067243" fill="rgb(191,191,191)"  stroke="rgb(191,191,191)" stroke-width="1" font-size="16" >H</text>
<text x="212.952155" y="193.905080" fill="rgb(191,191,191)"  stroke="rgb(191,191,191)" stroke-width="1" font-size="16" >H</text>
<text x="126.083151" y="266.528772" fill="rgb(191,191,191)"  stroke="rgb(191,191,191)" stroke-width="1" font-size="16" >H</text>
<text x="246.656928" y="213.364540" fill="rgb(191,191,191)"  stroke="rgb(191,191,191)" stroke-width="1" font-size="16" >H</text>
<text x="319.280619" y="271.742918" fill="rgb(191,191,191)"  stroke="rgb(191,191,191)" stroke-width="1" font-size="16" >H</text>
<text x="299.821160" y="238.038146" fill="rgb(191,191,191)"  stroke="rgb(191,191,191)" stroke-width="1" font-size="16" >H</text>
<text x="347.771245" y="310.661837" fill="rgb(191,191,191)"  stroke="rgb(191,191,191)" stroke-width="1" font-size="16" >H</text>
<text x="549.790834" y="48.000000" fill="rgb(191,191,191)"  stroke="rgb(191,191,191)" stroke-width="1" font-size="16" >H</text>
<text x="599.885888" y="93.105790" fill="rgb(191,191,191)"  stroke="rgb(191,191,191)" stroke-width="1" font-size="16" >H</text>
<text x="468.784761" y="79.802947" fill="rgb(191,191,191)"  stroke="rgb(191,191,191)" stroke-width="1" font-size="16" >H</text>
<text x="505.798852" y="67.776339" fill="rgb(191,191,191)"  stroke="rgb(191,191,191)" stroke-width="1" font-size="16" >H</text>
<text x="433.596867" y="126.675481" fill="rgb(191,191,191)"  stroke="rgb(191,191,191)" stroke-width="1" font-size="16" >H</text>
<text x="555.760681" y="133.075554" fill="rgb(191,191,191)"  stroke="rgb(191,191,191)" stroke-width="1" font-size="16" >H</text>
<text x="591.314883" y="148.905304" fill="rgb(191,191,191)"  stroke="rgb(191,191,191)" stroke-width="1" font-size="16" >H</text>
<text x="614.842477" y="189.656293" fill="rgb(191,191,191)"  stroke="rgb(191,191,191)" stroke-width="1" font-size="16" >H</text>
<text x="509.733761" y="142.858878" fill="rgb(191,191,191)"  stroke="rgb(191,191,191)" stroke-width="1" font-size="16" >H</text>
<text x="517.692234" y="218.578686" fill="rgb(12,12,255)"  stroke="rgb(12,12,255)" stroke-width="1" font-size="16" >N</text>
<text x="416.577916" y="238.038146" fill="rgb(255,12,12)"  stroke="rgb(255,12,12)" stroke-width="1" font-size="16" >O</text>
<text x="391.904311" y="436.449760" fill="rgb(12,12,255)"  stroke="rgb(12,12,255)" stroke-width="1" font-size="16" >N</text>
<text x="450.282689" y="470.154533" fill="rgb(12,12,255)"  stroke="rgb(12,12,255)" stroke-width="1" font-size="16" >N</text>
<text x="450.282689" y="402.744988" fill="rgb(12,12,255)"  stroke="rgb(12,12,255)" stroke-width="1" font-size="16" >N</text>
<text x="457.650082" y="200.703664" fill="rgb(255,12,12)"  stroke="rgb(255,12,12)" stroke-width="1" font-size="16" >O</text>
<text x="450.282689" y="374.254362" fill="rgb(191,191,191)"  stroke="rgb(191,191,191)" stroke-width="1" font-size="16" >H</text>
<text x="411.363770" y="335.335443" fill="rgb(12,12,255)"  stroke="rgb(12,12,255)" stroke-width="1" font-size="16" >N</text>
<text x="411.363770" y="402.744988" fill="rgb(255,12,12)"  stroke="rgb(255,12,12)" stroke-width="1" font-size="16" >O</text>
<text x="314.066473" y="407.959134" fill="rgb(191,191,191)"  stroke="rgb(191,191,191)" stroke-width="1" font-size="16" >H</text>
<text x="101.409545" y="252.283459" fill="rgb(255,12,12)"  stroke="rgb(255,12,12)" stroke-width="1" font-size="16" >O</text>
<text x="159.787923" y="285.988231" fill="rgb(12,12,255)"  stroke="rgb(12,12,255)" stroke-width="1" font-size="16" >N</text>
<text x="145.542610" y="77.148324" fill="rgb(255,12,12)"  stroke="rgb(255,12,12)" stroke-width="1" font-size="16" >O</text>
<text x="198.706842" y="218.578686" fill="rgb(191,191,191)"  stroke="rgb(191,191,191)" stroke-width="1" font-size="16" >H</text>
<text x="212.952155" y="310.661837" fill="rgb(255,12,12)"  stroke="rgb(255,12,12)" stroke-width="1" font-size="16" >O</text>
<text x="246.656928" y="252.283459" fill="rgb(12,12,255)"  stroke="rgb(12,12,255)" stroke-width="1" font-size="16" >N</text>
<text x="246.656928" y="330.121297" fill="rgb(255,12,12)"  stroke="rgb(255,12,12)" stroke-width="1" font-size="16" >O</text>
<text x="314.066473" y="330.121297" fill="rgb(12,12,255)"  stroke="rgb(12,12,255)" stroke-width="1" font-size="16" >N</text>
<text x="561.817441" y="85.014091" fill="rgb(12,12,255)"  stroke="rgb(12,12,255)" stroke-width="1" font-size="16" >N</text>
<text x="547.802208" y="150.950576" fill="rgb(255,12,12)"  stroke="rgb(255,12,12)" stroke-width="1" font-size="16" >O</text>
<text x="471.665314" y="134.767180" fill="rgb(12,12,255)"  stroke="rgb(12,12,255)" stroke-width="1" font-size="16" >N</text>
</svg>
</g>
<text font-size="18.000000" fill ="black" font-family="sans-serif"
x="10.000000" y="20.000000" >ZINC04556735</text>
</svg>
