<?xml version="1.0"?>
<svg version="1.1" id="topsvg"
xmlns="http://www.w3.org/2000/svg" xmlns:xlink="http://www.w3.org/1999/xlink"
xmlns:cml="http://www.xml-cml.org/schema" x="0" y="0" width="200px" height="200px" viewBox="0 0 100 100">
<title>ZINC49584866 - Open Babel Depiction</title>
<rect x="0" y="0" width="100" height="100" fill="white"/>
<g transform="translate(0,0)">
<svg width="100" height="100" x="0" y="0" viewBox="0 0 373.079 246.538"
font-family="sans-serif" stroke="rgb(0,0,0)" stroke-width="2"  stroke-linecap="round">
<line x1="118.3" y1="145.3" x2="143.6" y2="142.6" stroke="rgb(0,0,0)"  stroke-width="2.0"/>
<line x1="118.3" y1="145.3" x2="97.6" y2="160.3" stroke="rgb(0,0,0)"  stroke-width="2.0"/>
<line x1="118.3" y1="145.3" x2="120.9" y2="170.7" stroke="rgb(0,0,0)"  stroke-width="2.0"/>
<line x1="118.3" y1="145.3" x2="103.3" y2="124.7" stroke="rgb(0,0,0)"  stroke-width="2.0"/>
<line x1="182.3" y1="169.9" x2="165.3" y2="188.9" stroke="rgb(0,0,0)"  stroke-width="2.0"/>
<line x1="182.3" y1="169.9" x2="190.2" y2="194.2" stroke="rgb(0,0,0)"  stroke-width="2.0"/>
<polygon points="217.523278 154.237812 233.891083 174.587682 226.962880 178.587682 " stroke-width="2.000000" fill="rgb(0,0,0)"  stroke="rgb(0,0,0)" />
<line x1="217.5" y1="154.2" x2="281.6" y2="154.2" stroke="rgb(0,0,0)"  stroke-width="2.0"/>
<line x1="213.5" y1="115.9" x2="238.5" y2="110.6" stroke="rgb(0,0,0)"  stroke-width="2.0"/>
<line x1="213.5" y1="115.9" x2="221.4" y2="91.7" stroke="rgb(0,0,0)"  stroke-width="2.0"/>
<polygon points="175.820200 107.921851 174.539721 81.837706 182.495896 82.673933 " stroke-width="2.000000" fill="rgb(0,0,0)"  stroke="rgb(0,0,0)" />
<line x1="175.8" y1="107.9" x2="144.7" y2="85.3" stroke="rgb(0,0,0)"  stroke-width="2.0"/>
<line x1="141.7" y1="85.0" x2="144.3" y2="59.6" stroke="rgb(0,0,0)"  stroke-width="2.0"/>
<line x1="147.6" y1="85.6" x2="150.3" y2="60.2" stroke="rgb(0,0,0)"  stroke-width="2.0"/>
<line x1="144.7" y1="85.3" x2="121.3" y2="95.7" stroke="rgb(0,0,0)"  stroke-width="2.0"/>
<line x1="99.0" y1="93.3" x2="78.3" y2="78.3" stroke="rgb(0,0,0)"  stroke-width="2.0"/>
<line x1="78.3" y1="78.3" x2="52.9" y2="75.6" stroke="rgb(0,0,0)"  stroke-width="2.0"/>
<line x1="78.3" y1="78.3" x2="63.3" y2="99.0" stroke="rgb(0,0,0)"  stroke-width="2.0"/>
<line x1="78.3" y1="78.3" x2="81.0" y2="52.9" stroke="rgb(0,0,0)"  stroke-width="2.0"/>
<line x1="294.6" y1="167.2" x2="294.6" y2="179.8" stroke="rgb(0,0,0)"  stroke-width="2.0"/>
<line x1="307.6" y1="154.2" x2="320.1" y2="154.2" stroke="rgb(0,0,0)"  stroke-width="2.0"/>
<line x1="294.6" y1="141.2" x2="294.6" y2="128.7" stroke="rgb(0,0,0)"  stroke-width="2.0"/>
<line x1="217.5" y1="154.2" x2="213.5" y2="115.9" stroke="rgb(0,0,0)"  stroke-width="2.0"/>
<line x1="213.5" y1="115.9" x2="175.8" y2="107.9" stroke="rgb(0,0,0)"  stroke-width="2.0"/>
<line x1="175.8" y1="107.9" x2="163.1" y2="130.0" stroke="rgb(0,0,0)"  stroke-width="2.0"/>
<line x1="165.3" y1="150.9" x2="182.3" y2="169.9" stroke="rgb(0,0,0)"  stroke-width="2.0"/>
<line x1="182.3" y1="169.9" x2="217.5" y2="154.2" stroke="rgb(0,0,0)"  stroke-width="2.0"/>
<text x="81.091294" y="175.946766" fill="rgb(191,191,191)"  stroke="rgb(191,191,191)" stroke-width="1" font-size="16" >H</text>
<text x="288.560315" y="123.719293" fill="rgb(191,191,191)"  stroke="rgb(191,191,191)" stroke-width="1" font-size="16" >H</text>
<text x="327.078833" y="162.237812" fill="rgb(191,191,191)"  stroke="rgb(191,191,191)" stroke-width="1" font-size="16" >H</text>
<text x="288.560315" y="200.756330" fill="rgb(191,191,191)"  stroke="rgb(191,191,191)" stroke-width="1" font-size="16" >H</text>
<text x="76.333792" y="48.000000" fill="rgb(191,191,191)"  stroke="rgb(191,191,191)" stroke-width="1" font-size="16" >H</text>
<text x="49.666893" y="117.469646" fill="rgb(191,191,191)"  stroke="rgb(191,191,191)" stroke-width="1" font-size="16" >H</text>
<text x="34.000000" y="82.281228" fill="rgb(191,191,191)"  stroke="rgb(191,191,191)" stroke-width="1" font-size="16" >H</text>
<text x="219.399873" y="87.297014" fill="rgb(191,191,191)"  stroke="rgb(191,191,191)" stroke-width="1" font-size="16" >H</text>
<text x="245.173793" y="115.921851" fill="rgb(191,191,191)"  stroke="rgb(191,191,191)" stroke-width="1" font-size="16" >H</text>
<text x="188.237737" y="214.537993" fill="rgb(191,191,191)"  stroke="rgb(191,191,191)" stroke-width="1" font-size="16" >H</text>
<text x="150.560941" y="206.529542" fill="rgb(191,191,191)"  stroke="rgb(191,191,191)" stroke-width="1" font-size="16" >H</text>
<text x="89.612813" y="122.144012" fill="rgb(191,191,191)"  stroke="rgb(191,191,191)" stroke-width="1" font-size="16" >H</text>
<text x="116.279712" y="191.613659" fill="rgb(191,191,191)"  stroke="rgb(191,191,191)" stroke-width="1" font-size="16" >H</text>
<text x="299.360315" y="150.205812" fill="rgb(12,12,255)"  stroke="rgb(12,12,255)" stroke-width="1" font-size="16" >+</text>
<text x="288.560315" y="162.237812" fill="rgb(12,12,255)"  stroke="rgb(12,12,255)" stroke-width="1" font-size="16" >N</text>
<text x="103.469646" y="108.948127" fill="rgb(255,12,12)"  stroke="rgb(255,12,12)" stroke-width="1" font-size="16" >O</text>
<text x="142.684345" y="54.973724" fill="rgb(255,12,12)"  stroke="rgb(255,12,12)" stroke-width="1" font-size="16" >O</text>
<text x="173.846481" y="77.614341" fill="rgb(191,191,191)"  stroke="rgb(191,191,191)" stroke-width="1" font-size="16" >H</text>
<text x="230.782537" y="195.595827" fill="rgb(191,191,191)"  stroke="rgb(191,191,191)" stroke-width="1" font-size="16" >H</text>
<text x="150.560941" y="149.279867" fill="rgb(12,12,255)"  stroke="rgb(12,12,255)" stroke-width="1" font-size="16" >N</text>
</svg>
</g>
<text font-size="18.000000" fill ="black" font-family="sans-serif"
x="10.000000" y="20.000000" >ZINC49584866</text>
</svg>
