<?xml version="1.0"?>
<svg version="1.1" id="topsvg"
xmlns="http://www.w3.org/2000/svg" xmlns:xlink="http://www.w3.org/1999/xlink"
xmlns:cml="http://www.xml-cml.org/schema" x="0" y="0" width="200px" height="200px" viewBox="0 0 100 100">
<title>ZINC00135709 - Open Babel Depiction</title>
<rect x="0" y="0" width="100" height="100" fill="white"/>
<g transform="translate(0,0)">
<svg width="100" height="100" x="0" y="0" viewBox="0 0 443.384 361.669"
font-family="sans-serif" stroke="rgb(0,0,0)" stroke-width="2"  stroke-linecap="round">
<line x1="73.7" y1="254.2" x2="112.7" y2="254.2" stroke="rgb(0,0,0)"  stroke-width="2.0"/>
<line x1="73.7" y1="254.2" x2="51.3" y2="267.2" stroke="rgb(0,0,0)"  stroke-width="2.0"/>
<line x1="73.7" y1="254.2" x2="73.7" y2="280.2" stroke="rgb(0,0,0)"  stroke-width="2.0"/>
<line x1="73.7" y1="254.2" x2="60.8" y2="231.7" stroke="rgb(0,0,0)"  stroke-width="2.0"/>
<line x1="132.2" y1="287.9" x2="119.2" y2="310.4" stroke="rgb(0,0,0)"  stroke-width="2.0"/>
<line x1="171.1" y1="287.9" x2="184.1" y2="310.4" stroke="rgb(0,0,0)"  stroke-width="2.0"/>
<line x1="190.6" y1="254.2" x2="255.5" y2="254.2" stroke="rgb(0,0,0)"  stroke-width="2.0"/>
<line x1="171.1" y1="220.5" x2="184.1" y2="198.0" stroke="rgb(0,0,0)"  stroke-width="2.0"/>
<line x1="132.2" y1="220.5" x2="119.2" y2="198.0" stroke="rgb(0,0,0)"  stroke-width="2.0"/>
<line x1="271.5" y1="267.2" x2="271.5" y2="280.2" stroke="rgb(0,0,0)"  stroke-width="2.0"/>
<line x1="265.5" y1="267.2" x2="265.5" y2="280.2" stroke="rgb(0,0,0)"  stroke-width="2.0"/>
<line x1="281.5" y1="251.2" x2="294.4" y2="251.2" stroke="rgb(0,0,0)"  stroke-width="2.0"/>
<line x1="281.5" y1="257.2" x2="294.4" y2="257.2" stroke="rgb(0,0,0)"  stroke-width="2.0"/>
<line x1="268.5" y1="241.2" x2="268.5" y2="228.3" stroke="rgb(0,0,0)"  stroke-width="2.0"/>
<line x1="279.7" y1="208.8" x2="302.2" y2="195.8" stroke="rgb(0,0,0)"  stroke-width="2.0"/>
<line x1="257.2" y1="208.8" x2="246.0" y2="202.3" stroke="rgb(0,0,0)"  stroke-width="2.0"/>
<line x1="335.9" y1="215.3" x2="335.9" y2="241.2" stroke="rgb(0,0,0)"  stroke-width="2.0"/>
<line x1="369.7" y1="195.8" x2="392.1" y2="208.8" stroke="rgb(0,0,0)"  stroke-width="2.0"/>
<line x1="369.7" y1="156.8" x2="392.1" y2="143.9" stroke="rgb(0,0,0)"  stroke-width="2.0"/>
<line x1="268.5" y1="98.4" x2="246.0" y2="85.4" stroke="rgb(0,0,0)"  stroke-width="2.0"/>
<line x1="302.2" y1="78.9" x2="302.2" y2="53.0" stroke="rgb(0,0,0)"  stroke-width="2.0"/>
<line x1="335.9" y1="98.4" x2="358.4" y2="85.4" stroke="rgb(0,0,0)"  stroke-width="2.0"/>
<line x1="171.1" y1="287.9" x2="190.6" y2="254.2" stroke="rgb(0,0,0)"  stroke-width="2.0"/>
<line x1="190.6" y1="254.2" x2="171.1" y2="220.5" stroke="rgb(0,0,0)"  stroke-width="2.0"/>
<line x1="181.3" y1="252.6" x2="167.9" y2="229.3" stroke="rgb(0,0,0)"  stroke-width="2.0"/>
<line x1="171.1" y1="220.5" x2="132.2" y2="220.5" stroke="rgb(0,0,0)"  stroke-width="2.0"/>
<line x1="132.2" y1="220.5" x2="112.7" y2="254.2" stroke="rgb(0,0,0)"  stroke-width="2.0"/>
<line x1="135.4" y1="229.3" x2="121.9" y2="252.6" stroke="rgb(0,0,0)"  stroke-width="2.0"/>
<line x1="112.7" y1="254.2" x2="132.2" y2="287.9" stroke="rgb(0,0,0)"  stroke-width="2.0"/>
<line x1="132.2" y1="287.9" x2="171.1" y2="287.9" stroke="rgb(0,0,0)"  stroke-width="2.0"/>
<line x1="138.2" y1="280.7" x2="165.1" y2="280.7" stroke="rgb(0,0,0)"  stroke-width="2.0"/>
<line x1="369.7" y1="195.8" x2="369.7" y2="156.8" stroke="rgb(0,0,0)"  stroke-width="2.0"/>
<line x1="369.7" y1="156.8" x2="335.9" y2="137.4" stroke="rgb(0,0,0)"  stroke-width="2.0"/>
<line x1="360.9" y1="160.1" x2="337.5" y2="146.6" stroke="rgb(0,0,0)"  stroke-width="2.0"/>
<line x1="335.9" y1="137.4" x2="302.2" y2="156.8" stroke="rgb(0,0,0)"  stroke-width="2.0"/>
<line x1="302.2" y1="156.8" x2="302.2" y2="195.8" stroke="rgb(0,0,0)"  stroke-width="2.0"/>
<line x1="309.4" y1="162.8" x2="309.4" y2="189.8" stroke="rgb(0,0,0)"  stroke-width="2.0"/>
<line x1="302.2" y1="195.8" x2="335.9" y2="215.3" stroke="rgb(0,0,0)"  stroke-width="2.0"/>
<line x1="335.9" y1="215.3" x2="369.7" y2="195.8" stroke="rgb(0,0,0)"  stroke-width="2.0"/>
<line x1="337.5" y1="206.0" x2="360.9" y2="192.6" stroke="rgb(0,0,0)"  stroke-width="2.0"/>
<line x1="302.2" y1="78.9" x2="268.5" y2="98.4" stroke="rgb(0,0,0)"  stroke-width="2.0"/>
<line x1="268.5" y1="98.4" x2="268.5" y2="124.5" stroke="rgb(0,0,0)"  stroke-width="2.0"/>
<line x1="275.7" y1="104.4" x2="275.7" y2="122.4" stroke="rgb(0,0,0)"  stroke-width="2.0"/>
<line x1="279.7" y1="143.9" x2="302.2" y2="156.8" stroke="rgb(0,0,0)"  stroke-width="2.0"/>
<line x1="335.9" y1="137.4" x2="335.9" y2="98.4" stroke="rgb(0,0,0)"  stroke-width="2.0"/>
<line x1="335.9" y1="98.4" x2="302.2" y2="78.9" stroke="rgb(0,0,0)"  stroke-width="2.0"/>
<line x1="327.1" y1="101.7" x2="303.8" y2="88.2" stroke="rgb(0,0,0)"  stroke-width="2.0"/>
<text x="184.571516" y="194.751705" fill="rgb(191,191,191)"  stroke="rgb(191,191,191)" stroke-width="1" font-size="16" >H</text>
<text x="34.000000" y="281.684211" fill="rgb(191,191,191)"  stroke="rgb(191,191,191)" stroke-width="1" font-size="16" >H</text>
<text x="67.729410" y="301.157895" fill="rgb(191,191,191)"  stroke="rgb(191,191,191)" stroke-width="1" font-size="16" >H</text>
<text x="48.255726" y="228.481116" fill="rgb(191,191,191)"  stroke="rgb(191,191,191)" stroke-width="1" font-size="16" >H</text>
<text x="106.676779" y="329.669347" fill="rgb(191,191,191)"  stroke="rgb(191,191,191)" stroke-width="1" font-size="16" >H</text>
<text x="184.571516" y="329.669347" fill="rgb(191,191,191)"  stroke="rgb(191,191,191)" stroke-width="1" font-size="16" >H</text>
<text x="262.466253" y="145.368421" fill="rgb(12,12,255)"  stroke="rgb(12,12,255)" stroke-width="1" font-size="16" >N</text>
<text x="106.676779" y="194.751705" fill="rgb(191,191,191)"  stroke="rgb(191,191,191)" stroke-width="1" font-size="16" >H</text>
<text x="329.925073" y="262.210526" fill="rgb(191,191,191)"  stroke="rgb(191,191,191)" stroke-width="1" font-size="16" >H</text>
<text x="397.383894" y="223.263158" fill="rgb(191,191,191)"  stroke="rgb(191,191,191)" stroke-width="1" font-size="16" >H</text>
<text x="397.383894" y="145.368421" fill="rgb(191,191,191)"  stroke="rgb(191,191,191)" stroke-width="1" font-size="16" >H</text>
<text x="228.736842" y="86.947368" fill="rgb(191,191,191)"  stroke="rgb(191,191,191)" stroke-width="1" font-size="16" >H</text>
<text x="296.195663" y="48.000000" fill="rgb(191,191,191)"  stroke="rgb(191,191,191)" stroke-width="1" font-size="16" >H</text>
<text x="363.654484" y="86.947368" fill="rgb(191,191,191)"  stroke="rgb(191,191,191)" stroke-width="1" font-size="16" >H</text>
<text x="228.736842" y="203.789474" fill="rgb(191,191,191)"  stroke="rgb(191,191,191)" stroke-width="1" font-size="16" >H</text>
<text x="301.413621" y="262.210526" fill="rgb(255,12,12)"  stroke="rgb(255,12,12)" stroke-width="1" font-size="16" >O</text>
<text x="262.466253" y="262.210526" fill="rgb(178,178,0)"  stroke="rgb(178,178,0)" stroke-width="1" font-size="16" >S</text>
<text x="262.466253" y="301.157895" fill="rgb(255,12,12)"  stroke="rgb(255,12,12)" stroke-width="1" font-size="16" >O</text>
<text x="262.466253" y="223.263158" fill="rgb(12,12,255)"  stroke="rgb(12,12,255)" stroke-width="1" font-size="16" >N</text>
</svg>
</g>
<text font-size="18.000000" fill ="black" font-family="sans-serif"
x="10.000000" y="20.000000" >ZINC00135709</text>
</svg>
