<?xml version="1.0"?>
<svg version="1.1" id="topsvg"
xmlns="http://www.w3.org/2000/svg" xmlns:xlink="http://www.w3.org/1999/xlink"
xmlns:cml="http://www.xml-cml.org/schema" x="0" y="0" width="200px" height="200px" viewBox="0 0 100 100">
<title>ZINC03880876 - Open Babel Depiction</title>
<rect x="0" y="0" width="100" height="100" fill="white"/>
<g transform="translate(0,0)">
<svg width="100" height="100" x="0" y="0" viewBox="0 0 320.118 260.129"
font-family="sans-serif" stroke="rgb(0,0,0)" stroke-width="2"  stroke-linecap="round">
<line x1="74.6" y1="140.1" x2="114.6" y2="140.1" stroke="rgb(0,0,0)"  stroke-width="2.0"/>
<line x1="74.6" y1="140.1" x2="51.3" y2="153.6" stroke="rgb(0,0,0)"  stroke-width="2.0"/>
<line x1="74.6" y1="140.1" x2="74.6" y2="167.1" stroke="rgb(0,0,0)"  stroke-width="2.0"/>
<line x1="74.6" y1="140.1" x2="61.1" y2="116.7" stroke="rgb(0,0,0)"  stroke-width="2.0"/>
<line x1="138.2" y1="107.8" x2="125.8" y2="69.7" stroke="rgb(0,0,0)"  stroke-width="2.0"/>
<line x1="210.8" y1="100.1" x2="210.8" y2="73.1" stroke="rgb(0,0,0)"  stroke-width="2.0"/>
<line x1="245.5" y1="120.1" x2="268.9" y2="106.6" stroke="rgb(0,0,0)"  stroke-width="2.0"/>
<line x1="245.5" y1="160.1" x2="268.9" y2="173.6" stroke="rgb(0,0,0)"  stroke-width="2.0"/>
<line x1="210.8" y1="180.1" x2="210.8" y2="207.1" stroke="rgb(0,0,0)"  stroke-width="2.0"/>
<line x1="125.8" y1="69.7" x2="143.9" y2="49.7" stroke="rgb(0,0,0)"  stroke-width="2.0"/>
<line x1="125.8" y1="69.7" x2="105.7" y2="51.7" stroke="rgb(0,0,0)"  stroke-width="2.0"/>
<line x1="125.8" y1="69.7" x2="100.1" y2="78.1" stroke="rgb(0,0,0)"  stroke-width="2.0"/>
<line x1="165.3" y1="42.7" x2="179.0" y2="45.6" stroke="rgb(0,0,0)"  stroke-width="2.0"/>
<line x1="134.1" y1="184.9" x2="129.8" y2="198.2" stroke="rgb(0,0,0)"  stroke-width="2.0"/>
<line x1="138.2" y1="107.8" x2="114.6" y2="140.1" stroke="rgb(0,0,0)"  stroke-width="2.0"/>
<line x1="140.5" y1="116.9" x2="124.0" y2="139.5" stroke="rgb(0,0,0)"  stroke-width="2.0"/>
<line x1="114.6" y1="140.1" x2="130.5" y2="162.0" stroke="rgb(0,0,0)"  stroke-width="2.0"/>
<line x1="150.7" y1="168.4" x2="176.2" y2="160.1" stroke="rgb(0,0,0)"  stroke-width="2.0"/>
<line x1="150.4" y1="160.9" x2="168.3" y2="155.1" stroke="rgb(0,0,0)"  stroke-width="2.0"/>
<line x1="176.2" y1="160.1" x2="176.2" y2="133.1" stroke="rgb(0,0,0)"  stroke-width="2.0"/>
<line x1="163.8" y1="116.1" x2="138.2" y2="107.8" stroke="rgb(0,0,0)"  stroke-width="2.0"/>
<line x1="245.5" y1="160.1" x2="245.5" y2="120.1" stroke="rgb(0,0,0)"  stroke-width="2.0"/>
<line x1="245.5" y1="120.1" x2="210.8" y2="100.1" stroke="rgb(0,0,0)"  stroke-width="2.0"/>
<line x1="236.7" y1="123.4" x2="212.4" y2="109.4" stroke="rgb(0,0,0)"  stroke-width="2.0"/>
<line x1="210.8" y1="100.1" x2="187.5" y2="113.6" stroke="rgb(0,0,0)"  stroke-width="2.0"/>
<line x1="176.2" y1="160.1" x2="210.8" y2="180.1" stroke="rgb(0,0,0)"  stroke-width="2.0"/>
<line x1="210.8" y1="180.1" x2="245.5" y2="160.1" stroke="rgb(0,0,0)"  stroke-width="2.0"/>
<line x1="212.4" y1="170.9" x2="236.7" y2="156.9" stroke="rgb(0,0,0)"  stroke-width="2.0"/>
<text x="34.000000" y="168.128733" fill="rgb(191,191,191)"  stroke="rgb(191,191,191)" stroke-width="1" font-size="16" >H</text>
<text x="119.791746" y="218.531674" fill="rgb(191,191,191)"  stroke="rgb(191,191,191)" stroke-width="1" font-size="16" >H</text>
<text x="132.152426" y="180.489413" fill="rgb(12,12,255)"  stroke="rgb(12,12,255)" stroke-width="1" font-size="16" >N</text>
<text x="185.682875" y="56.316468" fill="rgb(191,191,191)"  stroke="rgb(191,191,191)" stroke-width="1" font-size="16" >H</text>
<text x="81.749486" y="90.086473" fill="rgb(191,191,191)"  stroke="rgb(191,191,191)" stroke-width="1" font-size="16" >H</text>
<text x="90.065953" y="50.960569" fill="rgb(191,191,191)"  stroke="rgb(191,191,191)" stroke-width="1" font-size="16" >H</text>
<text x="204.835703" y="228.128733" fill="rgb(191,191,191)"  stroke="rgb(191,191,191)" stroke-width="1" font-size="16" >H</text>
<text x="274.117735" y="188.128733" fill="rgb(191,191,191)"  stroke="rgb(191,191,191)" stroke-width="1" font-size="16" >H</text>
<text x="274.117735" y="108.128733" fill="rgb(191,191,191)"  stroke="rgb(191,191,191)" stroke-width="1" font-size="16" >H</text>
<text x="204.835703" y="68.128733" fill="rgb(191,191,191)"  stroke="rgb(191,191,191)" stroke-width="1" font-size="16" >H</text>
<text x="48.641016" y="113.487717" fill="rgb(191,191,191)"  stroke="rgb(191,191,191)" stroke-width="1" font-size="16" >H</text>
<text x="68.641016" y="188.128733" fill="rgb(191,191,191)"  stroke="rgb(191,191,191)" stroke-width="1" font-size="16" >H</text>
<text x="146.556971" y="48.000000" fill="rgb(255,12,12)"  stroke="rgb(255,12,12)" stroke-width="1" font-size="16" >O</text>
<text x="170.194687" y="128.128733" fill="rgb(12,12,255)"  stroke="rgb(12,12,255)" stroke-width="1" font-size="16" >N</text>
</svg>
</g>
<text font-size="18.000000" fill ="black" font-family="sans-serif"
x="10.000000" y="20.000000" >ZINC03880876</text>
</svg>
