<?xml version="1.0"?>
<svg version="1.1" id="topsvg"
xmlns="http://www.w3.org/2000/svg" xmlns:xlink="http://www.w3.org/1999/xlink"
xmlns:cml="http://www.xml-cml.org/schema" x="0" y="0" width="200px" height="200px" viewBox="0 0 100 100">
<title>ZINC02584044 - Open Babel Depiction</title>
<rect x="0" y="0" width="100" height="100" fill="white"/>
<g transform="translate(0,0)">
<svg width="100" height="100" x="0" y="0" viewBox="0 0 424.131 488.37"
font-family="sans-serif" stroke="rgb(0,0,0)" stroke-width="2"  stroke-linecap="round">
<line x1="77.6" y1="132.0" x2="113.7" y2="130.1" stroke="rgb(0,0,0)"  stroke-width="2.0"/>
<line x1="77.6" y1="132.0" x2="58.3" y2="144.6" stroke="rgb(0,0,0)"  stroke-width="2.0"/>
<line x1="77.6" y1="132.0" x2="78.9" y2="155.1" stroke="rgb(0,0,0)"  stroke-width="2.0"/>
<line x1="77.6" y1="132.0" x2="65.1" y2="112.6" stroke="rgb(0,0,0)"  stroke-width="2.0"/>
<line x1="113.7" y1="130.1" x2="111.8" y2="94.1" stroke="rgb(0,0,0)"  stroke-width="2.0"/>
<line x1="113.7" y1="130.1" x2="185.8" y2="126.3" stroke="rgb(0,0,0)"  stroke-width="2.0"/>
<line x1="113.7" y1="130.1" x2="114.9" y2="153.2" stroke="rgb(0,0,0)"  stroke-width="2.0"/>
<line x1="111.8" y1="94.1" x2="99.2" y2="74.7" stroke="rgb(0,0,0)"  stroke-width="2.0"/>
<line x1="111.8" y1="94.1" x2="88.7" y2="95.3" stroke="rgb(0,0,0)"  stroke-width="2.0"/>
<line x1="111.8" y1="94.1" x2="131.2" y2="81.5" stroke="rgb(0,0,0)"  stroke-width="2.0"/>
<line x1="185.8" y1="126.3" x2="191.6" y2="148.7" stroke="rgb(0,0,0)"  stroke-width="2.0"/>
<line x1="190.7" y1="126.0" x2="190.5" y2="127.6" stroke="rgb(0,0,0)"  stroke-width="1.0"/>
<line x1="194.6" y1="125.8" x2="194.3" y2="128.7" stroke="rgb(0,0,0)"  stroke-width="1.0"/>
<line x1="198.5" y1="125.6" x2="198.1" y2="129.7" stroke="rgb(0,0,0)"  stroke-width="1.0"/>
<line x1="202.4" y1="125.3" x2="201.9" y2="130.8" stroke="rgb(0,0,0)"  stroke-width="1.0"/>
<line x1="206.3" y1="125.1" x2="205.6" y2="131.8" stroke="rgb(0,0,0)"  stroke-width="1.0"/>
<line x1="210.3" y1="124.9" x2="209.4" y2="132.8" stroke="rgb(0,0,0)"  stroke-width="1.0"/>
<line x1="178.3" y1="91.0" x2="155.3" y2="93.4" stroke="rgb(0,0,0)"  stroke-width="2.0"/>
<line x1="178.3" y1="91.0" x2="164.7" y2="72.3" stroke="rgb(0,0,0)"  stroke-width="2.0"/>
<line x1="209.5" y1="73.0" x2="200.2" y2="51.9" stroke="rgb(0,0,0)"  stroke-width="2.0"/>
<line x1="209.5" y1="73.0" x2="223.1" y2="54.3" stroke="rgb(0,0,0)"  stroke-width="2.0"/>
<line x1="236.4" y1="97.1" x2="253.5" y2="81.7" stroke="rgb(0,0,0)"  stroke-width="2.0"/>
<line x1="235.1" y1="101.9" x2="233.7" y2="101.2" stroke="rgb(0,0,0)"  stroke-width="1.0"/>
<line x1="234.1" y1="105.7" x2="231.5" y2="104.5" stroke="rgb(0,0,0)"  stroke-width="1.0"/>
<line x1="233.2" y1="109.5" x2="229.4" y2="107.8" stroke="rgb(0,0,0)"  stroke-width="1.0"/>
<line x1="232.2" y1="113.3" x2="227.2" y2="111.0" stroke="rgb(0,0,0)"  stroke-width="1.0"/>
<line x1="231.2" y1="117.1" x2="225.0" y2="114.3" stroke="rgb(0,0,0)"  stroke-width="1.0"/>
<line x1="230.2" y1="120.9" x2="222.9" y2="117.6" stroke="rgb(0,0,0)"  stroke-width="1.0"/>
<line x1="236.4" y1="97.1" x2="270.7" y2="108.3" stroke="rgb(0,0,0)"  stroke-width="2.0"/>
<polygon points="245.516542 171.372563 297.351375 253.153128 290.423172 257.153128 " stroke-width="2.000000" fill="rgb(0,0,0)"  stroke="rgb(0,0,0)" />
<line x1="330.0" y1="255.2" x2="341.5" y2="235.2" stroke="rgb(0,0,0)"  stroke-width="2.0"/>
<line x1="348.0" y1="286.4" x2="371.1" y2="286.4" stroke="rgb(0,0,0)"  stroke-width="2.0"/>
<line x1="330.0" y1="317.7" x2="341.5" y2="337.7" stroke="rgb(0,0,0)"  stroke-width="2.0"/>
<line x1="293.9" y1="317.7" x2="282.3" y2="337.7" stroke="rgb(0,0,0)"  stroke-width="2.0"/>
<line x1="198.4" y1="285.6" x2="198.4" y2="287.2" stroke="rgb(0,0,0)"  stroke-width="1.0"/>
<line x1="213.9" y1="285.0" x2="213.9" y2="287.9" stroke="rgb(0,0,0)"  stroke-width="1.0"/>
<line x1="229.4" y1="284.3" x2="229.4" y2="288.5" stroke="rgb(0,0,0)"  stroke-width="1.0"/>
<line x1="244.9" y1="283.7" x2="244.9" y2="289.1" stroke="rgb(0,0,0)"  stroke-width="1.0"/>
<line x1="260.4" y1="283.1" x2="260.4" y2="289.8" stroke="rgb(0,0,0)"  stroke-width="1.0"/>
<line x1="275.8" y1="282.4" x2="275.8" y2="290.4" stroke="rgb(0,0,0)"  stroke-width="1.0"/>
<line x1="113.7" y1="260.7" x2="112.4" y2="261.6" stroke="rgb(0,0,0)"  stroke-width="1.0"/>
<line x1="116.5" y1="263.4" x2="114.2" y2="265.1" stroke="rgb(0,0,0)"  stroke-width="1.0"/>
<line x1="119.3" y1="266.2" x2="115.9" y2="268.6" stroke="rgb(0,0,0)"  stroke-width="1.0"/>
<line x1="122.1" y1="268.9" x2="117.7" y2="272.1" stroke="rgb(0,0,0)"  stroke-width="1.0"/>
<line x1="124.9" y1="271.7" x2="119.5" y2="275.6" stroke="rgb(0,0,0)"  stroke-width="1.0"/>
<line x1="127.7" y1="274.4" x2="121.2" y2="279.1" stroke="rgb(0,0,0)"  stroke-width="1.0"/>
<line x1="112.4" y1="311.2" x2="113.7" y2="312.2" stroke="rgb(0,0,0)"  stroke-width="1.0"/>
<line x1="114.2" y1="307.7" x2="116.5" y2="309.4" stroke="rgb(0,0,0)"  stroke-width="1.0"/>
<line x1="115.9" y1="304.2" x2="119.3" y2="306.7" stroke="rgb(0,0,0)"  stroke-width="1.0"/>
<line x1="117.7" y1="300.7" x2="122.1" y2="303.9" stroke="rgb(0,0,0)"  stroke-width="1.0"/>
<line x1="119.5" y1="297.2" x2="124.9" y2="301.2" stroke="rgb(0,0,0)"  stroke-width="1.0"/>
<line x1="121.2" y1="293.7" x2="127.7" y2="298.4" stroke="rgb(0,0,0)"  stroke-width="1.0"/>
<line x1="110.2" y1="315.6" x2="127.4" y2="331.1" stroke="rgb(0,0,0)"  stroke-width="2.0"/>
<line x1="110.2" y1="315.6" x2="95.2" y2="386.2" stroke="rgb(0,0,0)"  stroke-width="2.0"/>
<line x1="75.9" y1="304.5" x2="66.5" y2="325.6" stroke="rgb(0,0,0)"  stroke-width="2.0"/>
<line x1="75.9" y1="304.5" x2="52.9" y2="306.9" stroke="rgb(0,0,0)"  stroke-width="2.0"/>
<line x1="75.9" y1="268.4" x2="52.9" y2="266.0" stroke="rgb(0,0,0)"  stroke-width="2.0"/>
<line x1="75.9" y1="268.4" x2="66.5" y2="247.3" stroke="rgb(0,0,0)"  stroke-width="2.0"/>
<line x1="110.2" y1="257.2" x2="105.4" y2="234.6" stroke="rgb(0,0,0)"  stroke-width="2.0"/>
<line x1="110.2" y1="257.2" x2="137.1" y2="233.1" stroke="rgb(0,0,0)"  stroke-width="2.0"/>
<line x1="137.1" y1="233.1" x2="161.2" y2="259.9" stroke="rgb(0,0,0)"  stroke-width="2.0"/>
<line x1="137.1" y1="233.1" x2="163.9" y2="208.9" stroke="rgb(0,0,0)"  stroke-width="2.0"/>
<line x1="137.1" y1="233.1" x2="121.6" y2="215.9" stroke="rgb(0,0,0)"  stroke-width="2.0"/>
<line x1="161.2" y1="259.9" x2="183.2" y2="267.0" stroke="rgb(0,0,0)"  stroke-width="2.0"/>
<line x1="161.2" y1="259.9" x2="178.4" y2="244.4" stroke="rgb(0,0,0)"  stroke-width="2.0"/>
<line x1="161.2" y1="259.9" x2="154.1" y2="281.8" stroke="rgb(0,0,0)"  stroke-width="2.0"/>
<line x1="163.9" y1="208.9" x2="171.0" y2="186.9" stroke="rgb(0,0,0)"  stroke-width="2.0"/>
<line x1="163.9" y1="208.9" x2="148.4" y2="191.7" stroke="rgb(0,0,0)"  stroke-width="2.0"/>
<line x1="163.9" y1="208.9" x2="185.8" y2="216.0" stroke="rgb(0,0,0)"  stroke-width="2.0"/>
<line x1="95.2" y1="386.2" x2="130.5" y2="393.7" stroke="rgb(0,0,0)"  stroke-width="2.0"/>
<line x1="95.2" y1="386.2" x2="87.7" y2="421.5" stroke="rgb(0,0,0)"  stroke-width="2.0"/>
<line x1="95.2" y1="386.2" x2="72.6" y2="381.4" stroke="rgb(0,0,0)"  stroke-width="2.0"/>
<line x1="130.5" y1="393.7" x2="147.7" y2="409.2" stroke="rgb(0,0,0)"  stroke-width="2.0"/>
<line x1="130.5" y1="393.7" x2="125.7" y2="416.3" stroke="rgb(0,0,0)"  stroke-width="2.0"/>
<line x1="130.5" y1="393.7" x2="146.0" y2="376.6" stroke="rgb(0,0,0)"  stroke-width="2.0"/>
<line x1="87.7" y1="421.5" x2="72.3" y2="438.7" stroke="rgb(0,0,0)"  stroke-width="2.0"/>
<line x1="87.7" y1="421.5" x2="65.1" y2="416.7" stroke="rgb(0,0,0)"  stroke-width="2.0"/>
<line x1="87.7" y1="421.5" x2="104.9" y2="437.0" stroke="rgb(0,0,0)"  stroke-width="2.0"/>
<line x1="270.7" y1="108.3" x2="281.9" y2="74.0" stroke="rgb(0,0,0)"  stroke-width="2.0"/>
<line x1="270.7" y1="108.3" x2="305.0" y2="119.4" stroke="rgb(0,0,0)"  stroke-width="2.0"/>
<line x1="270.7" y1="108.3" x2="263.6" y2="130.3" stroke="rgb(0,0,0)"  stroke-width="2.0"/>
<line x1="281.9" y1="74.0" x2="299.0" y2="58.5" stroke="rgb(0,0,0)"  stroke-width="2.0"/>
<line x1="281.9" y1="74.0" x2="303.8" y2="81.1" stroke="rgb(0,0,0)"  stroke-width="2.0"/>
<line x1="281.9" y1="74.0" x2="266.4" y2="56.8" stroke="rgb(0,0,0)"  stroke-width="2.0"/>
<line x1="305.0" y1="119.4" x2="320.5" y2="136.6" stroke="rgb(0,0,0)"  stroke-width="2.0"/>
<line x1="305.0" y1="119.4" x2="297.9" y2="141.4" stroke="rgb(0,0,0)"  stroke-width="2.0"/>
<line x1="305.0" y1="119.4" x2="322.2" y2="104.0" stroke="rgb(0,0,0)"  stroke-width="2.0"/>
<line x1="348.0" y1="286.4" x2="330.0" y2="317.7" stroke="rgb(0,0,0)"  stroke-width="2.0"/>
<line x1="330.0" y1="317.7" x2="293.9" y2="317.7" stroke="rgb(0,0,0)"  stroke-width="2.0"/>
<line x1="324.0" y1="310.5" x2="299.9" y2="310.5" stroke="rgb(0,0,0)"  stroke-width="2.0"/>
<line x1="293.9" y1="317.7" x2="275.8" y2="286.4" stroke="rgb(0,0,0)"  stroke-width="2.0"/>
<line x1="275.8" y1="286.4" x2="293.9" y2="255.2" stroke="rgb(0,0,0)"  stroke-width="2.0"/>
<line x1="285.1" y1="284.8" x2="297.1" y2="263.9" stroke="rgb(0,0,0)"  stroke-width="2.0"/>
<line x1="293.9" y1="255.2" x2="330.0" y2="255.2" stroke="rgb(0,0,0)"  stroke-width="2.0"/>
<line x1="330.0" y1="255.2" x2="348.0" y2="286.4" stroke="rgb(0,0,0)"  stroke-width="2.0"/>
<line x1="326.7" y1="263.9" x2="338.8" y2="284.8" stroke="rgb(0,0,0)"  stroke-width="2.0"/>
<line x1="209.5" y1="73.0" x2="236.4" y2="97.1" stroke="rgb(0,0,0)"  stroke-width="2.0"/>
<line x1="236.4" y1="97.1" x2="227.0" y2="118.2" stroke="rgb(0,0,0)"  stroke-width="2.0"/>
<line x1="208.8" y1="128.7" x2="185.8" y2="126.3" stroke="rgb(0,0,0)"  stroke-width="2.0"/>
<line x1="185.8" y1="126.3" x2="178.3" y2="91.0" stroke="rgb(0,0,0)"  stroke-width="2.0"/>
<line x1="178.3" y1="91.0" x2="209.5" y2="73.0" stroke="rgb(0,0,0)"  stroke-width="2.0"/>
<line x1="75.9" y1="304.5" x2="75.9" y2="268.4" stroke="rgb(0,0,0)"  stroke-width="2.0"/>
<line x1="75.9" y1="268.4" x2="110.2" y2="257.2" stroke="rgb(0,0,0)"  stroke-width="2.0"/>
<line x1="110.2" y1="257.2" x2="123.8" y2="275.9" stroke="rgb(0,0,0)"  stroke-width="2.0"/>
<line x1="123.8" y1="296.9" x2="110.2" y2="315.6" stroke="rgb(0,0,0)"  stroke-width="2.0"/>
<line x1="110.2" y1="315.6" x2="75.9" y2="304.5" stroke="rgb(0,0,0)"  stroke-width="2.0"/>
<text x="342.033615" y="356.937342" fill="rgb(191,191,191)"  stroke="rgb(191,191,191)" stroke-width="1" font-size="16" >H</text>
<text x="182.036050" y="243.728742" fill="rgb(191,191,191)"  stroke="rgb(191,191,191)" stroke-width="1" font-size="16" >H</text>
<text x="189.541154" y="279.037485" fill="rgb(191,191,191)"  stroke="rgb(191,191,191)" stroke-width="1" font-size="16" >H</text>
<text x="106.902368" y="214.231294" fill="rgb(191,191,191)"  stroke="rgb(191,191,191)" stroke-width="1" font-size="16" >H</text>
<text x="55.217614" y="243.388989" fill="rgb(191,191,191)"  stroke="rgb(191,191,191)" stroke-width="1" font-size="16" >H</text>
<text x="34.000000" y="272.592530" fill="rgb(191,191,191)"  stroke="rgb(191,191,191)" stroke-width="1" font-size="16" >H</text>
<text x="34.000000" y="316.236536" fill="rgb(191,191,191)"  stroke="rgb(191,191,191)" stroke-width="1" font-size="16" >H</text>
<text x="55.217614" y="345.440076" fill="rgb(191,191,191)"  stroke="rgb(191,191,191)" stroke-width="1" font-size="16" >H</text>
<text x="269.838493" y="356.937342" fill="rgb(191,191,191)"  stroke="rgb(191,191,191)" stroke-width="1" font-size="16" >H</text>
<text x="144.055574" y="302.213546" fill="rgb(191,191,191)"  stroke="rgb(191,191,191)" stroke-width="1" font-size="16" >H</text>
<text x="378.131176" y="294.414533" fill="rgb(191,191,191)"  stroke="rgb(191,191,191)" stroke-width="1" font-size="16" >H</text>
<text x="342.033615" y="231.891723" fill="rgb(191,191,191)"  stroke="rgb(191,191,191)" stroke-width="1" font-size="16" >H</text>
<text x="224.766251" y="51.773223" fill="rgb(191,191,191)"  stroke="rgb(191,191,191)" stroke-width="1" font-size="16" >H</text>
<text x="188.866436" y="48.000000" fill="rgb(191,191,191)"  stroke="rgb(191,191,191)" stroke-width="1" font-size="16" >H</text>
<text x="151.069618" y="69.822003" fill="rgb(191,191,191)"  stroke="rgb(191,191,191)" stroke-width="1" font-size="16" >H</text>
<text x="136.387417" y="102.798766" fill="rgb(191,191,191)"  stroke="rgb(191,191,191)" stroke-width="1" font-size="16" >H</text>
<text x="136.080918" y="82.404455" fill="rgb(191,191,191)"  stroke="rgb(191,191,191)" stroke-width="1" font-size="16" >H</text>
<text x="69.758865" y="103.953797" fill="rgb(191,191,191)"  stroke="rgb(191,191,191)" stroke-width="1" font-size="16" >H</text>
<text x="46.406578" y="422.039196" fill="rgb(191,191,191)"  stroke="rgb(191,191,191)" stroke-width="1" font-size="16" >H</text>
<text x="325.861709" y="103.286282" fill="rgb(191,191,191)"  stroke="rgb(191,191,191)" stroke-width="1" font-size="16" >H</text>
<text x="287.881234" y="161.771086" fill="rgb(191,191,191)"  stroke="rgb(191,191,191)" stroke-width="1" font-size="16" >H</text>
<text x="323.189977" y="154.265981" fill="rgb(191,191,191)"  stroke="rgb(191,191,191)" stroke-width="1" font-size="16" >H</text>
<text x="251.705950" y="55.128969" fill="rgb(191,191,191)"  stroke="rgb(191,191,191)" stroke-width="1" font-size="16" >H</text>
<text x="310.190754" y="93.109445" fill="rgb(191,191,191)"  stroke="rgb(191,191,191)" stroke-width="1" font-size="16" >H</text>
<text x="302.685649" y="57.800702" fill="rgb(191,191,191)"  stroke="rgb(191,191,191)" stroke-width="1" font-size="16" >H</text>
<text x="253.550413" y="150.616326" fill="rgb(191,191,191)"  stroke="rgb(191,191,191)" stroke-width="1" font-size="16" >H</text>
<text x="108.541036" y="453.698284" fill="rgb(191,191,191)"  stroke="rgb(191,191,191)" stroke-width="1" font-size="16" >H</text>
<text x="86.146815" y="71.790634" fill="rgb(191,191,191)"  stroke="rgb(191,191,191)" stroke-width="1" font-size="16" >H</text>
<text x="57.561338" y="456.370017" fill="rgb(191,191,191)"  stroke="rgb(191,191,191)" stroke-width="1" font-size="16" >H</text>
<text x="148.683151" y="374.914948" fill="rgb(191,191,191)"  stroke="rgb(191,191,191)" stroke-width="1" font-size="16" >H</text>
<text x="117.024063" y="437.049406" fill="rgb(191,191,191)"  stroke="rgb(191,191,191)" stroke-width="1" font-size="16" >H</text>
<text x="151.354884" y="425.894646" fill="rgb(191,191,191)"  stroke="rgb(191,191,191)" stroke-width="1" font-size="16" >H</text>
<text x="53.911683" y="386.730453" fill="rgb(191,191,191)"  stroke="rgb(191,191,191)" stroke-width="1" font-size="16" >H</text>
<text x="192.212887" y="228.057786" fill="rgb(191,191,191)"  stroke="rgb(191,191,191)" stroke-width="1" font-size="16" >H</text>
<text x="133.728084" y="190.077311" fill="rgb(191,191,191)"  stroke="rgb(191,191,191)" stroke-width="1" font-size="16" >H</text>
<text x="169.036826" y="182.572206" fill="rgb(191,191,191)"  stroke="rgb(191,191,191)" stroke-width="1" font-size="16" >H</text>
<text x="215.692152" y="138.107509" fill="rgb(255,127,0)"  stroke="rgb(255,127,0)" stroke-width="1" font-size="16" >P</text>
<text x="125.448249" y="294.414533" fill="rgb(255,127,0)"  stroke="rgb(255,127,0)" stroke-width="1" font-size="16" >P</text>
<text x="131.056351" y="347.772056" fill="rgb(191,191,191)"  stroke="rgb(191,191,191)" stroke-width="1" font-size="16" >H</text>
<text x="257.200068" y="80.976763" fill="rgb(191,191,191)"  stroke="rgb(191,191,191)" stroke-width="1" font-size="16" >H</text>
<text x="188.815328" y="169.285960" fill="rgb(191,191,191)"  stroke="rgb(191,191,191)" stroke-width="1" font-size="16" >H</text>
<text x="109.585356" y="174.160777" fill="rgb(191,191,191)"  stroke="rgb(191,191,191)" stroke-width="1" font-size="16" >H</text>
<text x="51.987925" y="109.727925" fill="rgb(191,191,191)"  stroke="rgb(191,191,191)" stroke-width="1" font-size="16" >H</text>
<text x="73.537266" y="176.049978" fill="rgb(191,191,191)"  stroke="rgb(191,191,191)" stroke-width="1" font-size="16" >H</text>
<text x="41.374103" y="159.662028" fill="rgb(191,191,191)"  stroke="rgb(191,191,191)" stroke-width="1" font-size="16" >H</text>
<text x="96.725530" y="229.902250" fill="rgb(191,191,191)"  stroke="rgb(191,191,191)" stroke-width="1" font-size="16" >H</text>
</svg>
</g>
<text font-size="18.000000" fill ="black" font-family="sans-serif"
x="10.000000" y="20.000000" >ZINC02584044</text>
</svg>
