<?xml version="1.0"?>
<svg version="1.1" id="topsvg"
xmlns="http://www.w3.org/2000/svg" xmlns:xlink="http://www.w3.org/1999/xlink"
xmlns:cml="http://www.xml-cml.org/schema" x="0" y="0" width="200px" height="200px" viewBox="0 0 100 100">
<title>ZINC01684230 - Open Babel Depiction</title>
<rect x="0" y="0" width="100" height="100" fill="white"/>
<g transform="translate(0,0)">
<svg width="100" height="100" x="0" y="0" viewBox="0 0 317.873 305.825"
font-family="sans-serif" stroke="rgb(0,0,0)" stroke-width="2"  stroke-linecap="round">
<line x1="90.9" y1="77.9" x2="117.4" y2="107.9" stroke="rgb(0,0,0)"  stroke-width="2.0"/>
<line x1="90.9" y1="77.9" x2="65.3" y2="69.3" stroke="rgb(0,0,0)"  stroke-width="2.0"/>
<line x1="90.9" y1="77.9" x2="70.7" y2="95.8" stroke="rgb(0,0,0)"  stroke-width="2.0"/>
<line x1="90.9" y1="77.9" x2="99.5" y2="52.3" stroke="rgb(0,0,0)"  stroke-width="2.0"/>
<line x1="106.5" y1="138.0" x2="108.0" y2="138.5" stroke="rgb(0,0,0)"  stroke-width="1.0"/>
<line x1="107.9" y1="131.7" x2="110.6" y2="132.6" stroke="rgb(0,0,0)"  stroke-width="1.0"/>
<line x1="109.3" y1="125.4" x2="113.2" y2="126.8" stroke="rgb(0,0,0)"  stroke-width="1.0"/>
<line x1="110.7" y1="119.2" x2="115.9" y2="120.9" stroke="rgb(0,0,0)"  stroke-width="1.0"/>
<line x1="112.2" y1="112.9" x2="118.5" y2="115.0" stroke="rgb(0,0,0)"  stroke-width="1.0"/>
<line x1="113.6" y1="106.6" x2="121.2" y2="109.2" stroke="rgb(0,0,0)"  stroke-width="1.0"/>
<line x1="117.4" y1="107.9" x2="143.0" y2="116.5" stroke="rgb(0,0,0)"  stroke-width="2.0"/>
<line x1="117.4" y1="107.9" x2="137.6" y2="90.0" stroke="rgb(0,0,0)"  stroke-width="2.0"/>
<line x1="104.7" y1="145.8" x2="139.3" y2="165.8" stroke="rgb(0,0,0)"  stroke-width="2.0"/>
<line x1="69.2" y1="127.3" x2="65.2" y2="100.6" stroke="rgb(0,0,0)"  stroke-width="2.0"/>
<line x1="61.1" y1="192.6" x2="48.7" y2="216.5" stroke="rgb(0,0,0)"  stroke-width="2.0"/>
<line x1="55.8" y1="189.8" x2="43.3" y2="213.7" stroke="rgb(0,0,0)"  stroke-width="2.0"/>
<line x1="107.2" y1="194.5" x2="117.0" y2="204.5" stroke="rgb(0,0,0)"  stroke-width="2.0"/>
<line x1="139.3" y1="205.8" x2="115.9" y2="219.3" stroke="rgb(0,0,0)"  stroke-width="2.0"/>
<line x1="173.9" y1="225.8" x2="173.9" y2="252.8" stroke="rgb(0,0,0)"  stroke-width="2.0"/>
<line x1="208.6" y1="205.8" x2="232.0" y2="219.3" stroke="rgb(0,0,0)"  stroke-width="2.0"/>
<line x1="208.6" y1="165.8" x2="232.0" y2="152.3" stroke="rgb(0,0,0)"  stroke-width="2.0"/>
<line x1="173.9" y1="145.8" x2="173.9" y2="118.8" stroke="rgb(0,0,0)"  stroke-width="2.0"/>
<line x1="254.5" y1="219.3" x2="266.6" y2="212.3" stroke="rgb(0,0,0)"  stroke-width="2.0"/>
<line x1="173.9" y1="225.8" x2="208.6" y2="205.8" stroke="rgb(0,0,0)"  stroke-width="2.0"/>
<line x1="208.6" y1="205.8" x2="208.6" y2="165.8" stroke="rgb(0,0,0)"  stroke-width="2.0"/>
<line x1="201.4" y1="199.8" x2="201.4" y2="171.8" stroke="rgb(0,0,0)"  stroke-width="2.0"/>
<line x1="208.6" y1="165.8" x2="173.9" y2="145.8" stroke="rgb(0,0,0)"  stroke-width="2.0"/>
<line x1="173.9" y1="145.8" x2="139.3" y2="165.8" stroke="rgb(0,0,0)"  stroke-width="2.0"/>
<line x1="172.4" y1="155.1" x2="148.1" y2="169.1" stroke="rgb(0,0,0)"  stroke-width="2.0"/>
<line x1="139.3" y1="165.8" x2="139.3" y2="205.8" stroke="rgb(0,0,0)"  stroke-width="2.0"/>
<line x1="139.3" y1="205.8" x2="173.9" y2="225.8" stroke="rgb(0,0,0)"  stroke-width="2.0"/>
<line x1="148.1" y1="202.6" x2="172.4" y2="216.6" stroke="rgb(0,0,0)"  stroke-width="2.0"/>
<line x1="46.4" y1="167.0" x2="58.5" y2="191.2" stroke="rgb(0,0,0)"  stroke-width="2.0"/>
<line x1="58.5" y1="191.2" x2="85.2" y2="187.2" stroke="rgb(0,0,0)"  stroke-width="2.0"/>
<line x1="100.2" y1="172.5" x2="104.7" y2="145.8" stroke="rgb(0,0,0)"  stroke-width="2.0"/>
<line x1="104.7" y1="145.8" x2="69.2" y2="127.3" stroke="rgb(0,0,0)"  stroke-width="2.0"/>
<line x1="69.2" y1="127.3" x2="50.1" y2="146.1" stroke="rgb(0,0,0)"  stroke-width="2.0"/>
<line x1="70.0" y1="136.7" x2="56.5" y2="149.9" stroke="rgb(0,0,0)"  stroke-width="2.0"/>
<text x="271.872525" y="213.824596" fill="rgb(191,191,191)"  stroke="rgb(191,191,191)" stroke-width="1" font-size="16" >H</text>
<text x="167.949477" y="113.824596" fill="rgb(191,191,191)"  stroke="rgb(191,191,191)" stroke-width="1" font-size="16" >H</text>
<text x="237.231509" y="153.824596" fill="rgb(191,191,191)"  stroke="rgb(191,191,191)" stroke-width="1" font-size="16" >H</text>
<text x="167.949477" y="273.824596" fill="rgb(191,191,191)"  stroke="rgb(191,191,191)" stroke-width="1" font-size="16" >H</text>
<text x="98.667444" y="233.824596" fill="rgb(191,191,191)"  stroke="rgb(191,191,191)" stroke-width="1" font-size="16" >H</text>
<text x="120.072505" y="221.815303" fill="rgb(191,191,191)"  stroke="rgb(191,191,191)" stroke-width="1" font-size="16" >H</text>
<text x="141.345727" y="89.405301" fill="rgb(191,191,191)"  stroke="rgb(191,191,191)" stroke-width="1" font-size="16" >H</text>
<text x="149.303489" y="128.605735" fill="rgb(191,191,191)"  stroke="rgb(191,191,191)" stroke-width="1" font-size="16" >H</text>
<text x="97.592787" y="48.000000" fill="rgb(191,191,191)"  stroke="rgb(191,191,191)" stroke-width="1" font-size="16" >H</text>
<text x="54.914505" y="112.419295" fill="rgb(191,191,191)"  stroke="rgb(191,191,191)" stroke-width="1" font-size="16" >H</text>
<text x="46.956742" y="73.218861" fill="rgb(191,191,191)"  stroke="rgb(191,191,191)" stroke-width="1" font-size="16" >H</text>
<text x="237.231509" y="233.824596" fill="rgb(255,12,12)"  stroke="rgb(255,12,12)" stroke-width="1" font-size="16" >O</text>
<text x="92.048477" y="193.273161" fill="rgb(12,12,255)"  stroke="rgb(12,12,255)" stroke-width="1" font-size="16" >N</text>
<text x="34.000000" y="234.640867" fill="rgb(255,12,12)"  stroke="rgb(255,12,12)" stroke-width="1" font-size="16" >O</text>
<text x="34.652861" y="163.363335" fill="rgb(12,12,255)"  stroke="rgb(12,12,255)" stroke-width="1" font-size="16" >N</text>
<text x="45.299738" y="95.776119" fill="rgb(255,12,12)"  stroke="rgb(255,12,12)" stroke-width="1" font-size="16" >HO</text>
</svg>
</g>
<text font-size="18.000000" fill ="black" font-family="sans-serif"
x="10.000000" y="20.000000" >ZINC01684230</text>
</svg>
