<?xml version="1.0"?>
<svg version="1.1" id="topsvg"
xmlns="http://www.w3.org/2000/svg" xmlns:xlink="http://www.w3.org/1999/xlink"
xmlns:cml="http://www.xml-cml.org/schema" x="0" y="0" width="200px" height="200px" viewBox="0 0 100 100">
<title>ZINC18098320 - Open Babel Depiction</title>
<rect x="0" y="0" width="100" height="100" fill="white"/>
<g transform="translate(0,0)">
<svg width="100" height="100" x="0" y="0" viewBox="0 0 718.532 409.851"
font-family="sans-serif" stroke="rgb(0,0,0)" stroke-width="2"  stroke-linecap="round">
<line x1="611.3" y1="253.4" x2="611.3" y2="279.2" stroke="rgb(0,0,0)"  stroke-width="2.0"/>
<line x1="644.9" y1="234.0" x2="667.3" y2="246.9" stroke="rgb(0,0,0)"  stroke-width="2.0"/>
<line x1="644.9" y1="195.2" x2="667.3" y2="182.3" stroke="rgb(0,0,0)"  stroke-width="2.0"/>
<line x1="611.3" y1="175.8" x2="611.3" y2="150.0" stroke="rgb(0,0,0)"  stroke-width="2.0"/>
<line x1="577.7" y1="195.2" x2="555.4" y2="182.3" stroke="rgb(0,0,0)"  stroke-width="2.0"/>
<line x1="577.7" y1="234.0" x2="521.8" y2="266.3" stroke="rgb(0,0,0)"  stroke-width="2.0"/>
<line x1="497.7" y1="268.9" x2="475.4" y2="256.0" stroke="rgb(0,0,0)"  stroke-width="2.0"/>
<line x1="500.7" y1="263.7" x2="478.4" y2="250.8" stroke="rgb(0,0,0)"  stroke-width="2.0"/>
<line x1="476.9" y1="253.4" x2="454.5" y2="266.3" stroke="rgb(0,0,0)"  stroke-width="2.0"/>
<line x1="476.9" y1="253.4" x2="476.9" y2="227.6" stroke="rgb(0,0,0)"  stroke-width="2.0"/>
<line x1="446.3" y1="285.8" x2="446.3" y2="311.6" stroke="rgb(0,0,0)"  stroke-width="2.0"/>
<line x1="440.3" y1="285.8" x2="440.3" y2="311.6" stroke="rgb(0,0,0)"  stroke-width="2.0"/>
<line x1="443.3" y1="311.6" x2="420.9" y2="324.5" stroke="rgb(0,0,0)"  stroke-width="2.0"/>
<line x1="443.3" y1="311.6" x2="465.6" y2="324.5" stroke="rgb(0,0,0)"  stroke-width="2.0"/>
<line x1="398.4" y1="324.5" x2="376.1" y2="311.6" stroke="rgb(0,0,0)"  stroke-width="2.0"/>
<line x1="409.7" y1="344.0" x2="409.7" y2="356.9" stroke="rgb(0,0,0)"  stroke-width="2.0"/>
<line x1="376.1" y1="311.6" x2="342.5" y2="331.0" stroke="rgb(0,0,0)"  stroke-width="2.0"/>
<line x1="376.1" y1="311.6" x2="363.2" y2="289.3" stroke="rgb(0,0,0)"  stroke-width="2.0"/>
<line x1="376.1" y1="311.6" x2="389.0" y2="289.3" stroke="rgb(0,0,0)"  stroke-width="2.0"/>
<line x1="342.5" y1="331.0" x2="308.9" y2="311.6" stroke="rgb(0,0,0)"  stroke-width="2.0"/>
<line x1="342.5" y1="331.0" x2="329.6" y2="353.4" stroke="rgb(0,0,0)"  stroke-width="2.0"/>
<line x1="342.5" y1="331.0" x2="355.4" y2="353.4" stroke="rgb(0,0,0)"  stroke-width="2.0"/>
<line x1="308.9" y1="311.6" x2="275.2" y2="331.0" stroke="rgb(0,0,0)"  stroke-width="2.0"/>
<line x1="308.9" y1="311.6" x2="296.0" y2="289.3" stroke="rgb(0,0,0)"  stroke-width="2.0"/>
<line x1="308.9" y1="311.6" x2="321.8" y2="289.3" stroke="rgb(0,0,0)"  stroke-width="2.0"/>
<line x1="275.2" y1="331.0" x2="241.6" y2="311.6" stroke="rgb(0,0,0)"  stroke-width="2.0"/>
<line x1="275.2" y1="331.0" x2="262.3" y2="353.4" stroke="rgb(0,0,0)"  stroke-width="2.0"/>
<line x1="275.2" y1="331.0" x2="288.2" y2="353.4" stroke="rgb(0,0,0)"  stroke-width="2.0"/>
<line x1="241.6" y1="311.6" x2="208.0" y2="331.0" stroke="rgb(0,0,0)"  stroke-width="2.0"/>
<line x1="241.6" y1="311.6" x2="228.7" y2="289.3" stroke="rgb(0,0,0)"  stroke-width="2.0"/>
<line x1="241.6" y1="311.6" x2="254.5" y2="289.3" stroke="rgb(0,0,0)"  stroke-width="2.0"/>
<line x1="208.0" y1="331.0" x2="185.7" y2="318.1" stroke="rgb(0,0,0)"  stroke-width="2.0"/>
<line x1="208.0" y1="331.0" x2="195.1" y2="353.4" stroke="rgb(0,0,0)"  stroke-width="2.0"/>
<line x1="208.0" y1="331.0" x2="220.9" y2="353.4" stroke="rgb(0,0,0)"  stroke-width="2.0"/>
<line x1="174.4" y1="298.6" x2="174.4" y2="272.8" stroke="rgb(0,0,0)"  stroke-width="2.0"/>
<line x1="163.2" y1="318.1" x2="152.1" y2="324.5" stroke="rgb(0,0,0)"  stroke-width="2.0"/>
<line x1="172.9" y1="270.2" x2="195.3" y2="257.3" stroke="rgb(0,0,0)"  stroke-width="2.0"/>
<line x1="175.9" y1="275.4" x2="198.3" y2="262.5" stroke="rgb(0,0,0)"  stroke-width="2.0"/>
<line x1="174.4" y1="272.8" x2="152.1" y2="259.9" stroke="rgb(0,0,0)"  stroke-width="2.0"/>
<line x1="219.3" y1="259.9" x2="230.4" y2="266.3" stroke="rgb(0,0,0)"  stroke-width="2.0"/>
<line x1="140.8" y1="240.4" x2="140.8" y2="214.6" stroke="rgb(0,0,0)"  stroke-width="2.0"/>
<line x1="129.6" y1="259.9" x2="118.5" y2="266.3" stroke="rgb(0,0,0)"  stroke-width="2.0"/>
<line x1="140.8" y1="214.6" x2="196.8" y2="182.3" stroke="rgb(0,0,0)"  stroke-width="2.0"/>
<line x1="139.3" y1="217.2" x2="117.0" y2="204.3" stroke="rgb(0,0,0)"  stroke-width="2.0"/>
<line x1="142.3" y1="212.0" x2="120.0" y2="199.1" stroke="rgb(0,0,0)"  stroke-width="2.0"/>
<line x1="219.3" y1="182.3" x2="230.4" y2="188.7" stroke="rgb(0,0,0)"  stroke-width="2.0"/>
<line x1="208.0" y1="162.8" x2="208.0" y2="150.0" stroke="rgb(0,0,0)"  stroke-width="2.0"/>
<line x1="107.2" y1="182.2" x2="107.2" y2="156.4" stroke="rgb(0,0,0)"  stroke-width="2.0"/>
<line x1="140.8" y1="137.0" x2="163.2" y2="149.9" stroke="rgb(0,0,0)"  stroke-width="2.0"/>
<line x1="140.8" y1="98.2" x2="163.2" y2="85.3" stroke="rgb(0,0,0)"  stroke-width="2.0"/>
<line x1="107.2" y1="78.8" x2="107.2" y2="53.0" stroke="rgb(0,0,0)"  stroke-width="2.0"/>
<line x1="73.6" y1="98.2" x2="51.3" y2="85.3" stroke="rgb(0,0,0)"  stroke-width="2.0"/>
<line x1="73.6" y1="137.0" x2="51.3" y2="149.9" stroke="rgb(0,0,0)"  stroke-width="2.0"/>
<line x1="476.9" y1="344.0" x2="476.9" y2="356.9" stroke="rgb(0,0,0)"  stroke-width="2.0"/>
<line x1="488.1" y1="324.5" x2="499.2" y2="318.1" stroke="rgb(0,0,0)"  stroke-width="2.0"/>
<line x1="465.6" y1="208.1" x2="454.5" y2="201.7" stroke="rgb(0,0,0)"  stroke-width="2.0"/>
<line x1="488.1" y1="208.1" x2="499.2" y2="201.7" stroke="rgb(0,0,0)"  stroke-width="2.0"/>
<line x1="644.9" y1="195.2" x2="611.3" y2="175.8" stroke="rgb(0,0,0)"  stroke-width="2.0"/>
<line x1="611.3" y1="175.8" x2="577.7" y2="195.2" stroke="rgb(0,0,0)"  stroke-width="2.0"/>
<line x1="609.7" y1="185.1" x2="586.5" y2="198.5" stroke="rgb(0,0,0)"  stroke-width="2.0"/>
<line x1="577.7" y1="195.2" x2="577.7" y2="234.0" stroke="rgb(0,0,0)"  stroke-width="2.0"/>
<line x1="577.7" y1="234.0" x2="611.3" y2="253.4" stroke="rgb(0,0,0)"  stroke-width="2.0"/>
<line x1="586.5" y1="230.8" x2="609.7" y2="244.2" stroke="rgb(0,0,0)"  stroke-width="2.0"/>
<line x1="611.3" y1="253.4" x2="644.9" y2="234.0" stroke="rgb(0,0,0)"  stroke-width="2.0"/>
<line x1="644.9" y1="234.0" x2="644.9" y2="195.2" stroke="rgb(0,0,0)"  stroke-width="2.0"/>
<line x1="637.7" y1="228.0" x2="637.7" y2="201.2" stroke="rgb(0,0,0)"  stroke-width="2.0"/>
<line x1="140.8" y1="98.2" x2="107.2" y2="78.8" stroke="rgb(0,0,0)"  stroke-width="2.0"/>
<line x1="107.2" y1="78.8" x2="73.6" y2="98.2" stroke="rgb(0,0,0)"  stroke-width="2.0"/>
<line x1="105.6" y1="88.0" x2="82.4" y2="101.4" stroke="rgb(0,0,0)"  stroke-width="2.0"/>
<line x1="73.6" y1="98.2" x2="73.6" y2="137.0" stroke="rgb(0,0,0)"  stroke-width="2.0"/>
<line x1="73.6" y1="137.0" x2="107.2" y2="156.4" stroke="rgb(0,0,0)"  stroke-width="2.0"/>
<line x1="82.4" y1="133.8" x2="105.6" y2="147.2" stroke="rgb(0,0,0)"  stroke-width="2.0"/>
<line x1="107.2" y1="156.4" x2="140.8" y2="137.0" stroke="rgb(0,0,0)"  stroke-width="2.0"/>
<line x1="140.8" y1="137.0" x2="140.8" y2="98.2" stroke="rgb(0,0,0)"  stroke-width="2.0"/>
<line x1="133.6" y1="131.0" x2="133.6" y2="104.2" stroke="rgb(0,0,0)"  stroke-width="2.0"/>
<text x="182.631795" y="372.651732" fill="rgb(191,191,191)"  stroke="rgb(191,191,191)" stroke-width="1" font-size="16" >H</text>
<text x="672.532163" y="183.820896" fill="rgb(30,239,30)"  stroke="rgb(30,239,30)" stroke-width="1" font-size="16" >Cl</text>
<text x="605.318251" y="300.238806" fill="rgb(191,191,191)"  stroke="rgb(191,191,191)" stroke-width="1" font-size="16" >H</text>
<text x="672.532163" y="261.432836" fill="rgb(191,191,191)"  stroke="rgb(191,191,191)" stroke-width="1" font-size="16" >H</text>
<text x="605.318251" y="145.014925" fill="rgb(191,191,191)"  stroke="rgb(191,191,191)" stroke-width="1" font-size="16" >H</text>
<text x="538.104340" y="183.820896" fill="rgb(191,191,191)"  stroke="rgb(191,191,191)" stroke-width="1" font-size="16" >H</text>
<text x="350.666575" y="286.034835" fill="rgb(191,191,191)"  stroke="rgb(191,191,191)" stroke-width="1" font-size="16" >H</text>
<text x="389.472545" y="286.034835" fill="rgb(191,191,191)"  stroke="rgb(191,191,191)" stroke-width="1" font-size="16" >H</text>
<text x="317.059619" y="372.651732" fill="rgb(191,191,191)"  stroke="rgb(191,191,191)" stroke-width="1" font-size="16" >H</text>
<text x="355.865589" y="372.651732" fill="rgb(191,191,191)"  stroke="rgb(191,191,191)" stroke-width="1" font-size="16" >H</text>
<text x="283.452663" y="286.034835" fill="rgb(191,191,191)"  stroke="rgb(191,191,191)" stroke-width="1" font-size="16" >H</text>
<text x="322.258633" y="286.034835" fill="rgb(191,191,191)"  stroke="rgb(191,191,191)" stroke-width="1" font-size="16" >H</text>
<text x="249.845707" y="372.651732" fill="rgb(191,191,191)"  stroke="rgb(191,191,191)" stroke-width="1" font-size="16" >H</text>
<text x="288.651677" y="372.651732" fill="rgb(191,191,191)"  stroke="rgb(191,191,191)" stroke-width="1" font-size="16" >H</text>
<text x="216.238751" y="286.034835" fill="rgb(191,191,191)"  stroke="rgb(191,191,191)" stroke-width="1" font-size="16" >H</text>
<text x="255.044721" y="286.034835" fill="rgb(191,191,191)"  stroke="rgb(191,191,191)" stroke-width="1" font-size="16" >H</text>
<text x="470.890428" y="222.626866" fill="rgb(12,12,255)"  stroke="rgb(12,12,255)" stroke-width="1" font-size="16" >N</text>
<text x="221.437765" y="372.651732" fill="rgb(191,191,191)"  stroke="rgb(191,191,191)" stroke-width="1" font-size="16" >H</text>
<text x="235.641736" y="280.835821" fill="rgb(191,191,191)"  stroke="rgb(191,191,191)" stroke-width="1" font-size="16" >H</text>
<text x="235.641736" y="203.223881" fill="rgb(191,191,191)"  stroke="rgb(191,191,191)" stroke-width="1" font-size="16" >H</text>
<text x="202.034780" y="145.014925" fill="rgb(191,191,191)"  stroke="rgb(191,191,191)" stroke-width="1" font-size="16" >H</text>
<text x="168.427824" y="164.417910" fill="rgb(191,191,191)"  stroke="rgb(191,191,191)" stroke-width="1" font-size="16" >H</text>
<text x="168.427824" y="86.805970" fill="rgb(191,191,191)"  stroke="rgb(191,191,191)" stroke-width="1" font-size="16" >H</text>
<text x="34.000000" y="86.805970" fill="rgb(191,191,191)"  stroke="rgb(191,191,191)" stroke-width="1" font-size="16" >H</text>
<text x="34.000000" y="164.417910" fill="rgb(191,191,191)"  stroke="rgb(191,191,191)" stroke-width="1" font-size="16" >H</text>
<text x="470.890428" y="377.850746" fill="rgb(191,191,191)"  stroke="rgb(191,191,191)" stroke-width="1" font-size="16" >H</text>
<text x="504.497384" y="319.641791" fill="rgb(191,191,191)"  stroke="rgb(191,191,191)" stroke-width="1" font-size="16" >H</text>
<text x="437.283472" y="203.223881" fill="rgb(191,191,191)"  stroke="rgb(191,191,191)" stroke-width="1" font-size="16" >H</text>
<text x="504.497384" y="203.223881" fill="rgb(191,191,191)"  stroke="rgb(191,191,191)" stroke-width="1" font-size="16" >H</text>
<text x="403.676516" y="377.850746" fill="rgb(191,191,191)"  stroke="rgb(191,191,191)" stroke-width="1" font-size="16" >H</text>
<text x="134.820868" y="339.044776" fill="rgb(191,191,191)"  stroke="rgb(191,191,191)" stroke-width="1" font-size="16" >H</text>
<text x="101.213912" y="280.835821" fill="rgb(191,191,191)"  stroke="rgb(191,191,191)" stroke-width="1" font-size="16" >H</text>
<text x="504.497384" y="280.835821" fill="rgb(12,12,255)"  stroke="rgb(12,12,255)" stroke-width="1" font-size="16" >N</text>
<text x="437.283472" y="280.835821" fill="rgb(12,12,255)"  stroke="rgb(12,12,255)" stroke-width="1" font-size="16" >N</text>
<text x="403.676516" y="339.044776" fill="rgb(12,12,255)"  stroke="rgb(12,12,255)" stroke-width="1" font-size="16" >N</text>
<text x="168.427824" y="319.641791" fill="rgb(12,12,255)"  stroke="rgb(12,12,255)" stroke-width="1" font-size="16" >N</text>
<text x="202.034780" y="261.432836" fill="rgb(12,12,255)"  stroke="rgb(12,12,255)" stroke-width="1" font-size="16" >N</text>
<text x="134.820868" y="261.432836" fill="rgb(12,12,255)"  stroke="rgb(12,12,255)" stroke-width="1" font-size="16" >N</text>
<text x="202.034780" y="183.820896" fill="rgb(12,12,255)"  stroke="rgb(12,12,255)" stroke-width="1" font-size="16" >N</text>
<text x="101.213912" y="203.223881" fill="rgb(12,12,255)"  stroke="rgb(12,12,255)" stroke-width="1" font-size="16" >N</text>
<text x="101.213912" y="48.000000" fill="rgb(30,239,30)"  stroke="rgb(30,239,30)" stroke-width="1" font-size="16" >Cl</text>
<text x="470.890428" y="339.044776" fill="rgb(12,12,255)"  stroke="rgb(12,12,255)" stroke-width="1" font-size="16" >N</text>
</svg>
</g>
<text font-size="18.000000" fill ="black" font-family="sans-serif"
x="10.000000" y="20.000000" >ZINC18098320</text>
</svg>
