<?xml version="1.0"?>
<svg version="1.1" id="topsvg"
xmlns="http://www.w3.org/2000/svg" xmlns:xlink="http://www.w3.org/1999/xlink"
xmlns:cml="http://www.xml-cml.org/schema" x="0" y="0" width="200px" height="200px" viewBox="0 0 100 100">
<title>ZINC04534038 - Open Babel Depiction</title>
<rect x="0" y="0" width="100" height="100" fill="white"/>
<g transform="translate(0,0)">
<svg width="100" height="100" x="0" y="0" viewBox="0 0 569.282 423.923"
font-family="sans-serif" stroke="rgb(0,0,0)" stroke-width="2"  stroke-linecap="round">
<line x1="80.0" y1="80.0" x2="100.0" y2="114.6" stroke="rgb(0,0,0)"  stroke-width="2.0"/>
<line x1="80.0" y1="80.0" x2="56.6" y2="66.5" stroke="rgb(0,0,0)"  stroke-width="2.0"/>
<line x1="80.0" y1="80.0" x2="56.6" y2="93.5" stroke="rgb(0,0,0)"  stroke-width="2.0"/>
<line x1="80.0" y1="80.0" x2="93.5" y2="56.6" stroke="rgb(0,0,0)"  stroke-width="2.0"/>
<line x1="80.0" y1="149.3" x2="53.0" y2="149.3" stroke="rgb(0,0,0)"  stroke-width="2.0"/>
<line x1="102.6" y1="185.4" x2="89.1" y2="208.8" stroke="rgb(0,0,0)"  stroke-width="2.0"/>
<line x1="97.4" y1="182.4" x2="83.9" y2="205.8" stroke="rgb(0,0,0)"  stroke-width="2.0"/>
<line x1="160.0" y1="80.0" x2="146.5" y2="56.6" stroke="rgb(0,0,0)"  stroke-width="2.0"/>
<line x1="200.0" y1="80.0" x2="213.5" y2="56.6" stroke="rgb(0,0,0)"  stroke-width="2.0"/>
<line x1="220.0" y1="114.6" x2="247.0" y2="114.6" stroke="rgb(0,0,0)"  stroke-width="2.0"/>
<line x1="200.0" y1="149.3" x2="213.5" y2="172.7" stroke="rgb(0,0,0)"  stroke-width="2.0"/>
<line x1="266.5" y1="125.9" x2="280.0" y2="149.3" stroke="rgb(0,0,0)"  stroke-width="2.0"/>
<line x1="266.5" y1="103.4" x2="273.5" y2="91.3" stroke="rgb(0,0,0)"  stroke-width="2.0"/>
<line x1="282.6" y1="150.8" x2="269.1" y2="174.2" stroke="rgb(0,0,0)"  stroke-width="2.0"/>
<line x1="277.4" y1="147.8" x2="263.9" y2="171.2" stroke="rgb(0,0,0)"  stroke-width="2.0"/>
<line x1="280.0" y1="149.3" x2="320.0" y2="149.3" stroke="rgb(0,0,0)"  stroke-width="2.0"/>
<polygon points="320.000000 149.282032 316.000000 122.482032 324.000000 122.482032 " stroke-width="2.000000" fill="rgb(0,0,0)"  stroke="rgb(0,0,0)" />
<line x1="320.0" y1="149.3" x2="360.0" y2="149.3" stroke="rgb(0,0,0)"  stroke-width="2.0"/>
<line x1="320.0" y1="149.3" x2="320.0" y2="176.3" stroke="rgb(0,0,0)"  stroke-width="2.0"/>
<line x1="360.0" y1="149.3" x2="380.0" y2="114.6" stroke="rgb(0,0,0)"  stroke-width="2.0"/>
<line x1="360.0" y1="149.3" x2="383.4" y2="162.8" stroke="rgb(0,0,0)"  stroke-width="2.0"/>
<line x1="360.0" y1="149.3" x2="360.0" y2="176.3" stroke="rgb(0,0,0)"  stroke-width="2.0"/>
<line x1="380.0" y1="114.6" x2="420.0" y2="114.6" stroke="rgb(0,0,0)"  stroke-width="2.0"/>
<line x1="380.0" y1="114.6" x2="380.0" y2="87.6" stroke="rgb(0,0,0)"  stroke-width="2.0"/>
<line x1="380.0" y1="114.6" x2="356.6" y2="101.1" stroke="rgb(0,0,0)"  stroke-width="2.0"/>
<line x1="420.0" y1="114.6" x2="440.0" y2="80.0" stroke="rgb(0,0,0)"  stroke-width="2.0"/>
<line x1="420.0" y1="114.6" x2="443.4" y2="128.1" stroke="rgb(0,0,0)"  stroke-width="2.0"/>
<line x1="420.0" y1="114.6" x2="420.0" y2="141.6" stroke="rgb(0,0,0)"  stroke-width="2.0"/>
<line x1="440.0" y1="80.0" x2="467.0" y2="80.0" stroke="rgb(0,0,0)"  stroke-width="2.0"/>
<line x1="440.0" y1="80.0" x2="440.0" y2="53.0" stroke="rgb(0,0,0)"  stroke-width="2.0"/>
<line x1="440.0" y1="80.0" x2="416.6" y2="66.5" stroke="rgb(0,0,0)"  stroke-width="2.0"/>
<line x1="480.0" y1="93.0" x2="480.0" y2="107.0" stroke="rgb(0,0,0)"  stroke-width="2.0"/>
<line x1="493.0" y1="80.0" x2="507.0" y2="80.0" stroke="rgb(0,0,0)"  stroke-width="2.0"/>
<line x1="480.0" y1="67.0" x2="480.0" y2="53.0" stroke="rgb(0,0,0)"  stroke-width="2.0"/>
<line x1="331.3" y1="195.8" x2="354.6" y2="209.3" stroke="rgb(0,0,0)"  stroke-width="2.0"/>
<line x1="308.7" y1="195.8" x2="296.6" y2="202.8" stroke="rgb(0,0,0)"  stroke-width="2.0"/>
<line x1="353.1" y1="206.7" x2="376.5" y2="193.2" stroke="rgb(0,0,0)"  stroke-width="2.0"/>
<line x1="356.1" y1="211.9" x2="379.5" y2="198.4" stroke="rgb(0,0,0)"  stroke-width="2.0"/>
<line x1="354.6" y1="209.3" x2="354.6" y2="249.3" stroke="rgb(0,0,0)"  stroke-width="2.0"/>
<polygon points="354.641016 249.282032 327.841016 253.282032 327.841016 245.282032 " stroke-width="2.000000" fill="rgb(0,0,0)"  stroke="rgb(0,0,0)" />
<line x1="354.6" y1="249.3" x2="354.6" y2="289.3" stroke="rgb(0,0,0)"  stroke-width="2.0"/>
<line x1="354.6" y1="249.3" x2="381.6" y2="249.3" stroke="rgb(0,0,0)"  stroke-width="2.0"/>
<line x1="354.6" y1="289.3" x2="320.0" y2="309.3" stroke="rgb(0,0,0)"  stroke-width="2.0"/>
<line x1="354.6" y1="289.3" x2="368.1" y2="312.7" stroke="rgb(0,0,0)"  stroke-width="2.0"/>
<line x1="354.6" y1="289.3" x2="381.6" y2="289.3" stroke="rgb(0,0,0)"  stroke-width="2.0"/>
<line x1="320.0" y1="309.3" x2="340.0" y2="343.9" stroke="rgb(0,0,0)"  stroke-width="2.0"/>
<line x1="320.0" y1="309.3" x2="285.4" y2="329.3" stroke="rgb(0,0,0)"  stroke-width="2.0"/>
<line x1="320.0" y1="309.3" x2="306.5" y2="285.9" stroke="rgb(0,0,0)"  stroke-width="2.0"/>
<line x1="340.0" y1="343.9" x2="340.0" y2="370.9" stroke="rgb(0,0,0)"  stroke-width="2.0"/>
<line x1="340.0" y1="343.9" x2="316.6" y2="357.4" stroke="rgb(0,0,0)"  stroke-width="2.0"/>
<line x1="340.0" y1="343.9" x2="367.0" y2="343.9" stroke="rgb(0,0,0)"  stroke-width="2.0"/>
<line x1="285.4" y1="329.3" x2="258.4" y2="329.3" stroke="rgb(0,0,0)"  stroke-width="2.0"/>
<line x1="285.4" y1="329.3" x2="271.9" y2="305.9" stroke="rgb(0,0,0)"  stroke-width="2.0"/>
<line x1="285.4" y1="329.3" x2="285.4" y2="356.3" stroke="rgb(0,0,0)"  stroke-width="2.0"/>
<line x1="401.1" y1="260.5" x2="414.6" y2="283.9" stroke="rgb(0,0,0)"  stroke-width="2.0"/>
<line x1="401.1" y1="238.0" x2="408.1" y2="225.9" stroke="rgb(0,0,0)"  stroke-width="2.0"/>
<line x1="417.2" y1="285.4" x2="403.7" y2="308.8" stroke="rgb(0,0,0)"  stroke-width="2.0"/>
<line x1="412.0" y1="282.4" x2="398.5" y2="305.8" stroke="rgb(0,0,0)"  stroke-width="2.0"/>
<line x1="414.6" y1="283.9" x2="454.6" y2="283.9" stroke="rgb(0,0,0)"  stroke-width="2.0"/>
<line x1="453.8" y1="278.6" x2="455.4" y2="278.6" stroke="rgb(0,0,0)"  stroke-width="1.0"/>
<line x1="453.2" y1="274.3" x2="456.1" y2="274.3" stroke="rgb(0,0,0)"  stroke-width="1.0"/>
<line x1="452.6" y1="270.0" x2="456.7" y2="270.0" stroke="rgb(0,0,0)"  stroke-width="1.0"/>
<line x1="451.9" y1="265.7" x2="457.4" y2="265.7" stroke="rgb(0,0,0)"  stroke-width="1.0"/>
<line x1="451.3" y1="261.4" x2="458.0" y2="261.4" stroke="rgb(0,0,0)"  stroke-width="1.0"/>
<line x1="450.6" y1="257.1" x2="458.6" y2="257.1" stroke="rgb(0,0,0)"  stroke-width="1.0"/>
<line x1="454.6" y1="283.9" x2="494.6" y2="283.9" stroke="rgb(0,0,0)"  stroke-width="2.0"/>
<line x1="454.6" y1="283.9" x2="454.6" y2="310.9" stroke="rgb(0,0,0)"  stroke-width="2.0"/>
<line x1="494.6" y1="283.9" x2="518.0" y2="297.4" stroke="rgb(0,0,0)"  stroke-width="2.0"/>
<line x1="494.6" y1="283.9" x2="494.6" y2="310.9" stroke="rgb(0,0,0)"  stroke-width="2.0"/>
<line x1="494.6" y1="283.9" x2="508.1" y2="260.5" stroke="rgb(0,0,0)"  stroke-width="2.0"/>
<line x1="465.9" y1="330.4" x2="478.0" y2="337.4" stroke="rgb(0,0,0)"  stroke-width="2.0"/>
<line x1="443.4" y1="330.4" x2="431.3" y2="337.4" stroke="rgb(0,0,0)"  stroke-width="2.0"/>
<line x1="100.0" y1="183.9" x2="127.0" y2="183.9" stroke="rgb(0,0,0)"  stroke-width="2.0"/>
<line x1="146.5" y1="172.7" x2="160.0" y2="149.3" stroke="rgb(0,0,0)"  stroke-width="2.0"/>
<line x1="160.0" y1="149.3" x2="140.0" y2="114.6" stroke="rgb(0,0,0)"  stroke-width="2.0"/>
<line x1="140.0" y1="114.6" x2="100.0" y2="114.6" stroke="rgb(0,0,0)"  stroke-width="2.0"/>
<line x1="100.0" y1="114.6" x2="80.0" y2="149.3" stroke="rgb(0,0,0)"  stroke-width="2.0"/>
<line x1="103.2" y1="123.4" x2="89.2" y2="147.7" stroke="rgb(0,0,0)"  stroke-width="2.0"/>
<line x1="80.0" y1="149.3" x2="100.0" y2="183.9" stroke="rgb(0,0,0)"  stroke-width="2.0"/>
<line x1="220.0" y1="114.6" x2="200.0" y2="80.0" stroke="rgb(0,0,0)"  stroke-width="2.0"/>
<line x1="210.8" y1="113.0" x2="196.8" y2="88.8" stroke="rgb(0,0,0)"  stroke-width="2.0"/>
<line x1="200.0" y1="80.0" x2="160.0" y2="80.0" stroke="rgb(0,0,0)"  stroke-width="2.0"/>
<line x1="160.0" y1="80.0" x2="140.0" y2="114.6" stroke="rgb(0,0,0)"  stroke-width="2.0"/>
<line x1="163.2" y1="88.8" x2="149.2" y2="113.0" stroke="rgb(0,0,0)"  stroke-width="2.0"/>
<line x1="160.0" y1="149.3" x2="200.0" y2="149.3" stroke="rgb(0,0,0)"  stroke-width="2.0"/>
<line x1="166.0" y1="142.1" x2="194.0" y2="142.1" stroke="rgb(0,0,0)"  stroke-width="2.0"/>
<line x1="200.0" y1="149.3" x2="220.0" y2="114.6" stroke="rgb(0,0,0)"  stroke-width="2.0"/>
<text x="274.000000" y="88.000000" fill="rgb(191,191,191)"  stroke="rgb(191,191,191)" stroke-width="1" font-size="16" >H</text>
<text x="474.000000" y="128.000000" fill="rgb(191,191,191)"  stroke="rgb(191,191,191)" stroke-width="1" font-size="16" >H</text>
<text x="399.358984" y="68.000000" fill="rgb(191,191,191)"  stroke="rgb(191,191,191)" stroke-width="1" font-size="16" >H</text>
<text x="434.000000" y="48.000000" fill="rgb(191,191,191)"  stroke="rgb(191,191,191)" stroke-width="1" font-size="16" >H</text>
<text x="414.000000" y="162.641016" fill="rgb(191,191,191)"  stroke="rgb(191,191,191)" stroke-width="1" font-size="16" >H</text>
<text x="448.641016" y="142.641016" fill="rgb(191,191,191)"  stroke="rgb(191,191,191)" stroke-width="1" font-size="16" >H</text>
<text x="339.358984" y="102.641016" fill="rgb(191,191,191)"  stroke="rgb(191,191,191)" stroke-width="1" font-size="16" >H</text>
<text x="374.000000" y="82.641016" fill="rgb(191,191,191)"  stroke="rgb(191,191,191)" stroke-width="1" font-size="16" >H</text>
<text x="354.000000" y="197.282032" fill="rgb(191,191,191)"  stroke="rgb(191,191,191)" stroke-width="1" font-size="16" >H</text>
<text x="388.641016" y="177.282032" fill="rgb(191,191,191)"  stroke="rgb(191,191,191)" stroke-width="1" font-size="16" >H</text>
<text x="514.000000" y="88.000000" fill="rgb(191,191,191)"  stroke="rgb(191,191,191)" stroke-width="1" font-size="16" >H</text>
<text x="214.000000" y="191.923048" fill="rgb(191,191,191)"  stroke="rgb(191,191,191)" stroke-width="1" font-size="16" >H</text>
<text x="214.000000" y="53.358984" fill="rgb(191,191,191)"  stroke="rgb(191,191,191)" stroke-width="1" font-size="16" >H</text>
<text x="134.000000" y="53.358984" fill="rgb(191,191,191)"  stroke="rgb(191,191,191)" stroke-width="1" font-size="16" >H</text>
<text x="34.000000" y="157.282032" fill="rgb(191,191,191)"  stroke="rgb(191,191,191)" stroke-width="1" font-size="16" >H</text>
<text x="94.000000" y="53.358984" fill="rgb(191,191,191)"  stroke="rgb(191,191,191)" stroke-width="1" font-size="16" >H</text>
<text x="39.358984" y="108.000000" fill="rgb(191,191,191)"  stroke="rgb(191,191,191)" stroke-width="1" font-size="16" >H</text>
<text x="39.358984" y="68.000000" fill="rgb(191,191,191)"  stroke="rgb(191,191,191)" stroke-width="1" font-size="16" >H</text>
<text x="448.641016" y="331.923048" fill="rgb(12,12,255)"  stroke="rgb(12,12,255)" stroke-width="1" font-size="16" >N</text>
<text x="259.358984" y="302.641016" fill="rgb(191,191,191)"  stroke="rgb(191,191,191)" stroke-width="1" font-size="16" >H</text>
<text x="414.000000" y="351.923048" fill="rgb(191,191,191)"  stroke="rgb(191,191,191)" stroke-width="1" font-size="16" >H</text>
<text x="474.000000" y="48.000000" fill="rgb(191,191,191)"  stroke="rgb(191,191,191)" stroke-width="1" font-size="16" >H</text>
<text x="483.282032" y="351.923048" fill="rgb(191,191,191)"  stroke="rgb(191,191,191)" stroke-width="1" font-size="16" >H</text>
<text x="508.641016" y="257.282032" fill="rgb(191,191,191)"  stroke="rgb(191,191,191)" stroke-width="1" font-size="16" >H</text>
<text x="488.641016" y="331.923048" fill="rgb(191,191,191)"  stroke="rgb(191,191,191)" stroke-width="1" font-size="16" >H</text>
<text x="523.282032" y="311.923048" fill="rgb(191,191,191)"  stroke="rgb(191,191,191)" stroke-width="1" font-size="16" >H</text>
<text x="408.641016" y="222.641016" fill="rgb(191,191,191)"  stroke="rgb(191,191,191)" stroke-width="1" font-size="16" >H</text>
<text x="279.358984" y="377.282032" fill="rgb(191,191,191)"  stroke="rgb(191,191,191)" stroke-width="1" font-size="16" >H</text>
<text x="239.358984" y="337.282032" fill="rgb(191,191,191)"  stroke="rgb(191,191,191)" stroke-width="1" font-size="16" >H</text>
<text x="374.000000" y="351.923048" fill="rgb(191,191,191)"  stroke="rgb(191,191,191)" stroke-width="1" font-size="16" >H</text>
<text x="299.358984" y="371.923048" fill="rgb(191,191,191)"  stroke="rgb(191,191,191)" stroke-width="1" font-size="16" >H</text>
<text x="334.000000" y="391.923048" fill="rgb(191,191,191)"  stroke="rgb(191,191,191)" stroke-width="1" font-size="16" >H</text>
<text x="294.000000" y="282.641016" fill="rgb(191,191,191)"  stroke="rgb(191,191,191)" stroke-width="1" font-size="16" >H</text>
<text x="388.641016" y="297.282032" fill="rgb(191,191,191)"  stroke="rgb(191,191,191)" stroke-width="1" font-size="16" >H</text>
<text x="368.641016" y="331.923048" fill="rgb(191,191,191)"  stroke="rgb(191,191,191)" stroke-width="1" font-size="16" >H</text>
<text x="279.358984" y="217.282032" fill="rgb(191,191,191)"  stroke="rgb(191,191,191)" stroke-width="1" font-size="16" >H</text>
<text x="314.000000" y="117.282032" fill="rgb(191,191,191)"  stroke="rgb(191,191,191)" stroke-width="1" font-size="16" >H</text>
<text x="254.000000" y="191.923048" fill="rgb(255,12,12)"  stroke="rgb(255,12,12)" stroke-width="1" font-size="16" >O</text>
<text x="254.000000" y="122.641016" fill="rgb(12,12,255)"  stroke="rgb(12,12,255)" stroke-width="1" font-size="16" >N</text>
<text x="134.000000" y="191.923048" fill="rgb(255,12,12)"  stroke="rgb(255,12,12)" stroke-width="1" font-size="16" >O</text>
<text x="74.000000" y="226.564065" fill="rgb(255,12,12)"  stroke="rgb(255,12,12)" stroke-width="1" font-size="16" >O</text>
<text x="448.641016" y="251.923048" fill="rgb(191,191,191)"  stroke="rgb(191,191,191)" stroke-width="1" font-size="16" >H</text>
<text x="388.641016" y="326.564065" fill="rgb(255,12,12)"  stroke="rgb(255,12,12)" stroke-width="1" font-size="16" >O</text>
<text x="388.641016" y="257.282032" fill="rgb(12,12,255)"  stroke="rgb(12,12,255)" stroke-width="1" font-size="16" >N</text>
<text x="308.641016" y="257.282032" fill="rgb(191,191,191)"  stroke="rgb(191,191,191)" stroke-width="1" font-size="16" >H</text>
<text x="383.282032" y="197.282032" fill="rgb(255,12,12)"  stroke="rgb(255,12,12)" stroke-width="1" font-size="16" >O</text>
<text x="314.000000" y="197.282032" fill="rgb(12,12,255)"  stroke="rgb(12,12,255)" stroke-width="1" font-size="16" >N</text>
<text x="484.800000" y="75.968000" fill="rgb(12,12,255)"  stroke="rgb(12,12,255)" stroke-width="1" font-size="16" >+</text>
<text x="474.000000" y="88.000000" fill="rgb(12,12,255)"  stroke="rgb(12,12,255)" stroke-width="1" font-size="16" >N</text>
</svg>
</g>
<text font-size="18.000000" fill ="black" font-family="sans-serif"
x="10.000000" y="20.000000" >ZINC04534038</text>
</svg>
