<?xml version="1.0"?>
<svg version="1.1" id="topsvg"
xmlns="http://www.w3.org/2000/svg" xmlns:xlink="http://www.w3.org/1999/xlink"
xmlns:cml="http://www.xml-cml.org/schema" x="0" y="0" width="200px" height="200px" viewBox="0 0 100 100">
<title>ZINC16696747 - Open Babel Depiction</title>
<rect x="0" y="0" width="100" height="100" fill="white"/>
<g transform="translate(0,0)">
<svg width="100" height="100" x="0" y="0" viewBox="0 0 220.806 268.555"
font-family="sans-serif" stroke="rgb(0,0,0)" stroke-width="2"  stroke-linecap="round">
<line x1="145.0" y1="74.6" x2="110.4" y2="94.6" stroke="rgb(0,0,0)"  stroke-width="2.0"/>
<line x1="145.0" y1="74.6" x2="158.5" y2="51.3" stroke="rgb(0,0,0)"  stroke-width="2.0"/>
<line x1="145.0" y1="74.6" x2="131.5" y2="51.3" stroke="rgb(0,0,0)"  stroke-width="2.0"/>
<line x1="145.0" y1="74.6" x2="168.4" y2="88.1" stroke="rgb(0,0,0)"  stroke-width="2.0"/>
<line x1="108.9" y1="97.2" x2="85.5" y2="83.7" stroke="rgb(0,0,0)"  stroke-width="2.0"/>
<line x1="111.9" y1="92.0" x2="88.5" y2="78.5" stroke="rgb(0,0,0)"  stroke-width="2.0"/>
<line x1="110.4" y1="94.6" x2="110.4" y2="134.6" stroke="rgb(0,0,0)"  stroke-width="2.0"/>
<line x1="155.1" y1="154.1" x2="168.4" y2="149.8" stroke="rgb(0,0,0)"  stroke-width="2.0"/>
<line x1="130.4" y1="196.2" x2="146.3" y2="218.0" stroke="rgb(0,0,0)"  stroke-width="2.0"/>
<line x1="90.4" y1="196.2" x2="74.5" y2="218.0" stroke="rgb(0,0,0)"  stroke-width="2.0"/>
<line x1="65.7" y1="154.1" x2="52.4" y2="149.8" stroke="rgb(0,0,0)"  stroke-width="2.0"/>
<line x1="132.2" y1="150.5" x2="110.4" y2="134.6" stroke="rgb(0,0,0)"  stroke-width="2.0"/>
<line x1="110.4" y1="134.6" x2="88.7" y2="150.4" stroke="rgb(0,0,0)"  stroke-width="2.0"/>
<line x1="109.8" y1="144.0" x2="94.6" y2="155.0" stroke="rgb(0,0,0)"  stroke-width="2.0"/>
<line x1="82.1" y1="170.5" x2="90.4" y2="196.2" stroke="rgb(0,0,0)"  stroke-width="2.0"/>
<line x1="90.4" y1="196.2" x2="130.4" y2="196.2" stroke="rgb(0,0,0)"  stroke-width="2.0"/>
<line x1="96.4" y1="189.0" x2="124.4" y2="189.0" stroke="rgb(0,0,0)"  stroke-width="2.0"/>
<line x1="130.4" y1="196.2" x2="138.7" y2="170.5" stroke="rgb(0,0,0)"  stroke-width="2.0"/>
<text x="69.761924" y="82.641016" fill="rgb(255,12,12)"  stroke="rgb(255,12,12)" stroke-width="1" font-size="16" >O</text>
<text x="136.763620" y="166.152426" fill="rgb(12,12,255)"  stroke="rgb(12,12,255)" stroke-width="1" font-size="16" >N</text>
<text x="174.805881" y="153.791746" fill="rgb(191,191,191)"  stroke="rgb(191,191,191)" stroke-width="1" font-size="16" >H</text>
<text x="159.043957" y="48.000000" fill="rgb(191,191,191)"  stroke="rgb(191,191,191)" stroke-width="1" font-size="16" >H</text>
<text x="119.043957" y="48.000000" fill="rgb(191,191,191)"  stroke="rgb(191,191,191)" stroke-width="1" font-size="16" >H</text>
<text x="173.684973" y="102.641016" fill="rgb(191,191,191)"  stroke="rgb(191,191,191)" stroke-width="1" font-size="16" >H</text>
<text x="147.914351" y="236.555367" fill="rgb(191,191,191)"  stroke="rgb(191,191,191)" stroke-width="1" font-size="16" >H</text>
<text x="60.891530" y="236.555367" fill="rgb(191,191,191)"  stroke="rgb(191,191,191)" stroke-width="1" font-size="16" >H</text>
<text x="72.042261" y="166.152426" fill="rgb(12,12,255)"  stroke="rgb(12,12,255)" stroke-width="1" font-size="16" >N</text>
<text x="34.000000" y="153.791746" fill="rgb(191,191,191)"  stroke="rgb(191,191,191)" stroke-width="1" font-size="16" >H</text>
</svg>
</g>
<text font-size="18.000000" fill ="black" font-family="sans-serif"
x="10.000000" y="20.000000" >ZINC16696747</text>
</svg>
