<?xml version="1.0"?>
<svg version="1.1" id="topsvg"
xmlns="http://www.w3.org/2000/svg" xmlns:xlink="http://www.w3.org/1999/xlink"
xmlns:cml="http://www.xml-cml.org/schema" x="0" y="0" width="200px" height="200px" viewBox="0 0 100 100">
<title>ZINC00819617 - Open Babel Depiction</title>
<rect x="0" y="0" width="100" height="100" fill="white"/>
<g transform="translate(0,0)">
<svg width="100" height="100" x="0" y="0" viewBox="0 0 378.975 274.385"
font-family="sans-serif" stroke="rgb(0,0,0)" stroke-width="2"  stroke-linecap="round">
<line x1="239.0" y1="176.7" x2="217.0" y2="189.4" stroke="rgb(0,0,0)"  stroke-width="2.0"/>
<line x1="272.4" y1="195.9" x2="272.4" y2="221.4" stroke="rgb(0,0,0)"  stroke-width="2.0"/>
<line x1="305.7" y1="138.2" x2="327.7" y2="125.5" stroke="rgb(0,0,0)"  stroke-width="2.0"/>
<line x1="272.4" y1="119.0" x2="272.4" y2="93.5" stroke="rgb(0,0,0)"  stroke-width="2.0"/>
<line x1="239.0" y1="138.2" x2="172.4" y2="99.8" stroke="rgb(0,0,0)"  stroke-width="2.0"/>
<line x1="172.4" y1="99.8" x2="150.4" y2="112.5" stroke="rgb(0,0,0)"  stroke-width="2.0"/>
<line x1="172.4" y1="99.8" x2="185.2" y2="77.7" stroke="rgb(0,0,0)"  stroke-width="2.0"/>
<line x1="172.4" y1="99.8" x2="159.7" y2="77.7" stroke="rgb(0,0,0)"  stroke-width="2.0"/>
<line x1="104.0" y1="103.4" x2="98.7" y2="78.5" stroke="rgb(0,0,0)"  stroke-width="2.0"/>
<line x1="78.3" y1="131.9" x2="52.9" y2="129.3" stroke="rgb(0,0,0)"  stroke-width="2.0"/>
<line x1="97.5" y1="165.2" x2="87.1" y2="188.5" stroke="rgb(0,0,0)"  stroke-width="2.0"/>
<line x1="144.8" y1="166.0" x2="154.0" y2="174.3" stroke="rgb(0,0,0)"  stroke-width="2.0"/>
<line x1="105.7" y1="57.0" x2="114.9" y2="48.7" stroke="rgb(0,0,0)"  stroke-width="2.0"/>
<line x1="83.6" y1="61.7" x2="71.8" y2="57.9" stroke="rgb(0,0,0)"  stroke-width="2.0"/>
<line x1="78.3" y1="131.9" x2="97.5" y2="165.2" stroke="rgb(0,0,0)"  stroke-width="2.0"/>
<line x1="97.5" y1="165.2" x2="122.7" y2="159.9" stroke="rgb(0,0,0)"  stroke-width="2.0"/>
<line x1="101.9" y1="157.0" x2="119.1" y2="153.3" stroke="rgb(0,0,0)"  stroke-width="2.0"/>
<line x1="136.5" y1="144.3" x2="137.8" y2="131.9" stroke="rgb(0,0,0)"  stroke-width="2.0"/>
<line x1="127.2" y1="113.7" x2="104.0" y2="103.4" stroke="rgb(0,0,0)"  stroke-width="2.0"/>
<line x1="104.0" y1="103.4" x2="78.3" y2="131.9" stroke="rgb(0,0,0)"  stroke-width="2.0"/>
<line x1="105.3" y1="112.6" x2="87.6" y2="132.3" stroke="rgb(0,0,0)"  stroke-width="2.0"/>
<line x1="305.7" y1="163.7" x2="305.7" y2="138.2" stroke="rgb(0,0,0)"  stroke-width="2.0"/>
<line x1="305.7" y1="138.2" x2="272.4" y2="119.0" stroke="rgb(0,0,0)"  stroke-width="2.0"/>
<line x1="296.9" y1="141.5" x2="274.0" y2="128.2" stroke="rgb(0,0,0)"  stroke-width="2.0"/>
<line x1="272.4" y1="119.0" x2="239.0" y2="138.2" stroke="rgb(0,0,0)"  stroke-width="2.0"/>
<line x1="239.0" y1="138.2" x2="239.0" y2="176.7" stroke="rgb(0,0,0)"  stroke-width="2.0"/>
<line x1="246.2" y1="144.2" x2="246.2" y2="170.7" stroke="rgb(0,0,0)"  stroke-width="2.0"/>
<line x1="239.0" y1="176.7" x2="272.4" y2="195.9" stroke="rgb(0,0,0)"  stroke-width="2.0"/>
<line x1="272.4" y1="195.9" x2="294.7" y2="183.0" stroke="rgb(0,0,0)"  stroke-width="2.0"/>
<line x1="274.0" y1="186.7" x2="289.2" y2="177.9" stroke="rgb(0,0,0)"  stroke-width="2.0"/>
<text x="89.990031" y="73.735793" fill="rgb(12,12,255)"  stroke="rgb(12,12,255)" stroke-width="1" font-size="16" >N</text>
<text x="157.685166" y="190.987206" fill="rgb(191,191,191)"  stroke="rgb(191,191,191)" stroke-width="1" font-size="16" >H</text>
<text x="53.410934" y="61.850524" fill="rgb(191,191,191)"  stroke="rgb(191,191,191)" stroke-width="1" font-size="16" >H</text>
<text x="118.572524" y="48.000000" fill="rgb(191,191,191)"  stroke="rgb(191,191,191)" stroke-width="1" font-size="16" >H</text>
<text x="75.837894" y="208.384381" fill="rgb(191,191,191)"  stroke="rgb(191,191,191)" stroke-width="1" font-size="16" >H</text>
<text x="34.000000" y="135.919022" fill="rgb(191,191,191)"  stroke="rgb(191,191,191)" stroke-width="1" font-size="16" >H</text>
<text x="147.200899" y="74.461133" fill="rgb(191,191,191)"  stroke="rgb(191,191,191)" stroke-width="1" font-size="16" >H</text>
<text x="185.662437" y="74.461133" fill="rgb(191,191,191)"  stroke="rgb(191,191,191)" stroke-width="1" font-size="16" >H</text>
<text x="266.357676" y="88.539033" fill="rgb(191,191,191)"  stroke="rgb(191,191,191)" stroke-width="1" font-size="16" >H</text>
<text x="332.975015" y="127.000571" fill="rgb(191,191,191)"  stroke="rgb(191,191,191)" stroke-width="1" font-size="16" >H</text>
<text x="266.357676" y="242.385187" fill="rgb(191,191,191)"  stroke="rgb(191,191,191)" stroke-width="1" font-size="16" >H</text>
<text x="199.740337" y="203.923648" fill="rgb(191,191,191)"  stroke="rgb(191,191,191)" stroke-width="1" font-size="16" >H</text>
<text x="129.102673" y="165.251413" fill="rgb(12,12,255)"  stroke="rgb(12,12,255)" stroke-width="1" font-size="16" >N</text>
<text x="133.122998" y="127.000571" fill="rgb(12,12,255)"  stroke="rgb(12,12,255)" stroke-width="1" font-size="16" >N</text>
<text x="299.666345" y="184.692879" fill="rgb(12,12,255)"  stroke="rgb(12,12,255)" stroke-width="1" font-size="16" >N</text>
</svg>
</g>
<text font-size="18.000000" fill ="black" font-family="sans-serif"
x="10.000000" y="20.000000" >ZINC00819617</text>
</svg>
