<?xml version="1.0"?>
<svg version="1.1" id="topsvg"
xmlns="http://www.w3.org/2000/svg" xmlns:xlink="http://www.w3.org/1999/xlink"
xmlns:cml="http://www.xml-cml.org/schema" x="0" y="0" width="200px" height="200px" viewBox="0 0 100 100">
<title>ZINC32099232 - Open Babel Depiction</title>
<rect x="0" y="0" width="100" height="100" fill="white"/>
<g transform="translate(0,0)">
<svg width="100" height="100" x="0" y="0" viewBox="0 0 327.846 274.641"
font-family="sans-serif" stroke="rgb(0,0,0)" stroke-width="2"  stroke-linecap="round">
<line x1="247.8" y1="74.6" x2="247.8" y2="114.6" stroke="rgb(0,0,0)"  stroke-width="2.0"/>
<line x1="247.8" y1="74.6" x2="234.3" y2="51.3" stroke="rgb(0,0,0)"  stroke-width="2.0"/>
<line x1="247.8" y1="74.6" x2="220.8" y2="74.6" stroke="rgb(0,0,0)"  stroke-width="2.0"/>
<line x1="247.8" y1="74.6" x2="271.2" y2="61.1" stroke="rgb(0,0,0)"  stroke-width="2.0"/>
<line x1="247.8" y1="114.6" x2="213.2" y2="134.6" stroke="rgb(0,0,0)"  stroke-width="2.0"/>
<line x1="247.8" y1="114.6" x2="261.3" y2="138.0" stroke="rgb(0,0,0)"  stroke-width="2.0"/>
<line x1="247.8" y1="114.6" x2="274.8" y2="114.6" stroke="rgb(0,0,0)"  stroke-width="2.0"/>
<line x1="178.6" y1="114.6" x2="178.6" y2="87.6" stroke="rgb(0,0,0)"  stroke-width="2.0"/>
<line x1="109.3" y1="114.6" x2="109.3" y2="87.6" stroke="rgb(0,0,0)"  stroke-width="2.0"/>
<line x1="74.6" y1="134.6" x2="51.3" y2="121.1" stroke="rgb(0,0,0)"  stroke-width="2.0"/>
<line x1="74.6" y1="174.6" x2="51.3" y2="188.1" stroke="rgb(0,0,0)"  stroke-width="2.0"/>
<line x1="109.3" y1="194.6" x2="109.3" y2="221.6" stroke="rgb(0,0,0)"  stroke-width="2.0"/>
<line x1="213.2" y1="174.6" x2="236.6" y2="188.1" stroke="rgb(0,0,0)"  stroke-width="2.0"/>
<line x1="247.8" y1="207.6" x2="247.8" y2="221.6" stroke="rgb(0,0,0)"  stroke-width="2.0"/>
<line x1="259.1" y1="188.1" x2="271.2" y2="181.1" stroke="rgb(0,0,0)"  stroke-width="2.0"/>
<line x1="143.9" y1="134.6" x2="143.9" y2="174.6" stroke="rgb(0,0,0)"  stroke-width="2.0"/>
<line x1="143.9" y1="174.6" x2="167.1" y2="188.0" stroke="rgb(0,0,0)"  stroke-width="2.0"/>
<line x1="152.7" y1="171.4" x2="169.0" y2="180.8" stroke="rgb(0,0,0)"  stroke-width="2.0"/>
<line x1="189.8" y1="188.1" x2="213.2" y2="174.6" stroke="rgb(0,0,0)"  stroke-width="2.0"/>
<line x1="213.2" y1="174.6" x2="213.2" y2="134.6" stroke="rgb(0,0,0)"  stroke-width="2.0"/>
<line x1="206.0" y1="168.6" x2="206.0" y2="140.6" stroke="rgb(0,0,0)"  stroke-width="2.0"/>
<line x1="213.2" y1="134.6" x2="178.6" y2="114.6" stroke="rgb(0,0,0)"  stroke-width="2.0"/>
<line x1="178.6" y1="114.6" x2="143.9" y2="134.6" stroke="rgb(0,0,0)"  stroke-width="2.0"/>
<line x1="177.0" y1="123.9" x2="152.7" y2="137.9" stroke="rgb(0,0,0)"  stroke-width="2.0"/>
<line x1="74.6" y1="174.6" x2="109.3" y2="194.6" stroke="rgb(0,0,0)"  stroke-width="2.0"/>
<line x1="83.4" y1="171.4" x2="107.7" y2="185.4" stroke="rgb(0,0,0)"  stroke-width="2.0"/>
<line x1="109.3" y1="194.6" x2="143.9" y2="174.6" stroke="rgb(0,0,0)"  stroke-width="2.0"/>
<line x1="143.9" y1="134.6" x2="109.3" y2="114.6" stroke="rgb(0,0,0)"  stroke-width="2.0"/>
<line x1="109.3" y1="114.6" x2="74.6" y2="134.6" stroke="rgb(0,0,0)"  stroke-width="2.0"/>
<line x1="107.7" y1="123.9" x2="83.4" y2="137.9" stroke="rgb(0,0,0)"  stroke-width="2.0"/>
<line x1="74.6" y1="134.6" x2="74.6" y2="174.6" stroke="rgb(0,0,0)"  stroke-width="2.0"/>
<text x="241.846097" y="202.641016" fill="rgb(12,12,255)"  stroke="rgb(12,12,255)" stroke-width="1" font-size="16" >N</text>
<text x="276.487113" y="182.641016" fill="rgb(191,191,191)"  stroke="rgb(191,191,191)" stroke-width="1" font-size="16" >H</text>
<text x="241.846097" y="242.641016" fill="rgb(191,191,191)"  stroke="rgb(191,191,191)" stroke-width="1" font-size="16" >H</text>
<text x="103.282032" y="242.641016" fill="rgb(191,191,191)"  stroke="rgb(191,191,191)" stroke-width="1" font-size="16" >H</text>
<text x="34.000000" y="202.641016" fill="rgb(191,191,191)"  stroke="rgb(191,191,191)" stroke-width="1" font-size="16" >H</text>
<text x="34.000000" y="122.641016" fill="rgb(191,191,191)"  stroke="rgb(191,191,191)" stroke-width="1" font-size="16" >H</text>
<text x="103.282032" y="82.641016" fill="rgb(191,191,191)"  stroke="rgb(191,191,191)" stroke-width="1" font-size="16" >H</text>
<text x="172.564065" y="82.641016" fill="rgb(191,191,191)"  stroke="rgb(191,191,191)" stroke-width="1" font-size="16" >H</text>
<text x="281.846097" y="122.641016" fill="rgb(191,191,191)"  stroke="rgb(191,191,191)" stroke-width="1" font-size="16" >H</text>
<text x="261.846097" y="157.282032" fill="rgb(191,191,191)"  stroke="rgb(191,191,191)" stroke-width="1" font-size="16" >H</text>
<text x="276.487113" y="62.641016" fill="rgb(191,191,191)"  stroke="rgb(191,191,191)" stroke-width="1" font-size="16" >H</text>
<text x="201.846097" y="82.641016" fill="rgb(191,191,191)"  stroke="rgb(191,191,191)" stroke-width="1" font-size="16" >H</text>
<text x="221.846097" y="48.000000" fill="rgb(191,191,191)"  stroke="rgb(191,191,191)" stroke-width="1" font-size="16" >H</text>
<text x="172.564065" y="202.641016" fill="rgb(12,12,255)"  stroke="rgb(12,12,255)" stroke-width="1" font-size="16" >N</text>
</svg>
</g>
<text font-size="18.000000" fill ="black" font-family="sans-serif"
x="10.000000" y="20.000000" >ZINC32099232</text>
</svg>
