<?xml version="1.0"?>
<svg version="1.1" id="topsvg"
xmlns="http://www.w3.org/2000/svg" xmlns:xlink="http://www.w3.org/1999/xlink"
xmlns:cml="http://www.xml-cml.org/schema" x="0" y="0" width="200px" height="200px" viewBox="0 0 100 100">
<title>ZINC12954959 - Open Babel Depiction</title>
<rect x="0" y="0" width="100" height="100" fill="white"/>
<g transform="translate(0,0)">
<svg width="100" height="100" x="0" y="0" viewBox="0 0 382.623 254.491"
font-family="sans-serif" stroke="rgb(0,0,0)" stroke-width="2"  stroke-linecap="round">
<line x1="271.3" y1="179.3" x2="272.6" y2="154.4" stroke="rgb(0,0,0)"  stroke-width="2.0"/>
<line x1="271.3" y1="179.3" x2="282.7" y2="201.5" stroke="rgb(0,0,0)"  stroke-width="2.0"/>
<line x1="271.3" y1="179.3" x2="296.2" y2="180.6" stroke="rgb(0,0,0)"  stroke-width="2.0"/>
<line x1="271.3" y1="179.3" x2="249.1" y2="190.6" stroke="rgb(0,0,0)"  stroke-width="2.0"/>
<line x1="305.1" y1="120.7" x2="320.8" y2="140.1" stroke="rgb(0,0,0)"  stroke-width="2.0"/>
<line x1="305.1" y1="120.7" x2="329.8" y2="116.8" stroke="rgb(0,0,0)"  stroke-width="2.0"/>
<line x1="295.3" y1="84.1" x2="318.6" y2="75.1" stroke="rgb(0,0,0)"  stroke-width="2.0"/>
<line x1="295.3" y1="84.1" x2="299.2" y2="59.4" stroke="rgb(0,0,0)"  stroke-width="2.0"/>
<line x1="257.4" y1="82.1" x2="256.1" y2="57.2" stroke="rgb(0,0,0)"  stroke-width="2.0"/>
<line x1="257.4" y1="82.1" x2="235.2" y2="70.8" stroke="rgb(0,0,0)"  stroke-width="2.0"/>
<polygon points="243.822915 117.513373 218.228355 114.796436 220.298908 107.069029 " stroke-width="2.000000" fill="rgb(0,0,0)"  stroke="rgb(0,0,0)" />
<line x1="243.8" y1="117.5" x2="217.0" y2="144.3" stroke="rgb(0,0,0)"  stroke-width="2.0"/>
<line x1="217.0" y1="144.3" x2="143.7" y2="124.7" stroke="rgb(0,0,0)"  stroke-width="2.0"/>
<line x1="217.0" y1="144.3" x2="210.5" y2="168.4" stroke="rgb(0,0,0)"  stroke-width="2.0"/>
<line x1="217.0" y1="144.3" x2="234.6" y2="162.0" stroke="rgb(0,0,0)"  stroke-width="2.0"/>
<line x1="142.2" y1="119.8" x2="143.8" y2="119.6" stroke="rgb(0,0,0)"  stroke-width="1.0"/>
<line x1="141.1" y1="115.8" x2="143.9" y2="115.4" stroke="rgb(0,0,0)"  stroke-width="1.0"/>
<line x1="139.9" y1="111.9" x2="144.0" y2="111.3" stroke="rgb(0,0,0)"  stroke-width="1.0"/>
<line x1="138.7" y1="107.9" x2="144.1" y2="107.2" stroke="rgb(0,0,0)"  stroke-width="1.0"/>
<line x1="137.6" y1="104.0" x2="144.2" y2="103.1" stroke="rgb(0,0,0)"  stroke-width="1.0"/>
<line x1="136.4" y1="100.0" x2="144.3" y2="99.0" stroke="rgb(0,0,0)"  stroke-width="1.0"/>
<line x1="143.7" y1="162.7" x2="168.6" y2="162.7" stroke="rgb(0,0,0)"  stroke-width="2.0"/>
<line x1="143.7" y1="162.7" x2="156.2" y2="184.3" stroke="rgb(0,0,0)"  stroke-width="2.0"/>
<line x1="110.8" y1="181.6" x2="123.3" y2="203.2" stroke="rgb(0,0,0)"  stroke-width="2.0"/>
<line x1="110.8" y1="181.6" x2="98.3" y2="203.2" stroke="rgb(0,0,0)"  stroke-width="2.0"/>
<line x1="77.9" y1="162.7" x2="65.5" y2="184.3" stroke="rgb(0,0,0)"  stroke-width="2.0"/>
<line x1="77.9" y1="162.7" x2="53.0" y2="162.7" stroke="rgb(0,0,0)"  stroke-width="2.0"/>
<line x1="77.9" y1="124.7" x2="53.0" y2="124.7" stroke="rgb(0,0,0)"  stroke-width="2.0"/>
<line x1="77.9" y1="124.7" x2="65.5" y2="103.1" stroke="rgb(0,0,0)"  stroke-width="2.0"/>
<line x1="104.3" y1="94.5" x2="98.3" y2="84.1" stroke="rgb(0,0,0)"  stroke-width="2.0"/>
<line x1="117.3" y1="94.5" x2="142.3" y2="51.3" stroke="rgb(0,0,0)"  stroke-width="2.0"/>
<line x1="295.3" y1="84.1" x2="257.4" y2="82.1" stroke="rgb(0,0,0)"  stroke-width="2.0"/>
<line x1="257.4" y1="82.1" x2="243.8" y2="117.5" stroke="rgb(0,0,0)"  stroke-width="2.0"/>
<line x1="243.8" y1="117.5" x2="263.2" y2="133.2" stroke="rgb(0,0,0)"  stroke-width="2.0"/>
<line x1="284.2" y1="134.3" x2="305.1" y2="120.7" stroke="rgb(0,0,0)"  stroke-width="2.0"/>
<line x1="305.1" y1="120.7" x2="295.3" y2="84.1" stroke="rgb(0,0,0)"  stroke-width="2.0"/>
<line x1="110.8" y1="181.6" x2="77.9" y2="162.7" stroke="rgb(0,0,0)"  stroke-width="2.0"/>
<line x1="77.9" y1="162.7" x2="77.9" y2="124.7" stroke="rgb(0,0,0)"  stroke-width="2.0"/>
<line x1="77.9" y1="124.7" x2="99.6" y2="112.2" stroke="rgb(0,0,0)"  stroke-width="2.0"/>
<line x1="122.1" y1="112.2" x2="143.7" y2="124.7" stroke="rgb(0,0,0)"  stroke-width="2.0"/>
<line x1="143.7" y1="124.7" x2="143.7" y2="162.7" stroke="rgb(0,0,0)"  stroke-width="2.0"/>
<line x1="143.7" y1="162.7" x2="110.8" y2="181.6" stroke="rgb(0,0,0)"  stroke-width="2.0"/>
<text x="156.652184" y="203.516738" fill="rgb(191,191,191)"  stroke="rgb(191,191,191)" stroke-width="1" font-size="16" >H</text>
<text x="336.622587" y="122.790434" fill="rgb(191,191,191)"  stroke="rgb(191,191,191)" stroke-width="1" font-size="16" >H</text>
<text x="324.747410" y="78.471671" fill="rgb(191,191,191)"  stroke="rgb(191,191,191)" stroke-width="1" font-size="16" >H</text>
<text x="295.255717" y="54.589769" fill="rgb(191,191,191)"  stroke="rgb(191,191,191)" stroke-width="1" font-size="16" >H</text>
<text x="249.436437" y="52.188482" fill="rgb(191,191,191)"  stroke="rgb(191,191,191)" stroke-width="1" font-size="16" >H</text>
<text x="217.609964" y="72.856835" fill="rgb(191,191,191)"  stroke="rgb(191,191,191)" stroke-width="1" font-size="16" >H</text>
<text x="201.167268" y="189.002815" fill="rgb(191,191,191)"  stroke="rgb(191,191,191)" stroke-width="1" font-size="16" >H</text>
<text x="237.822915" y="179.180964" fill="rgb(191,191,191)"  stroke="rgb(191,191,191)" stroke-width="1" font-size="16" >H</text>
<text x="175.626543" y="170.652184" fill="rgb(191,191,191)"  stroke="rgb(191,191,191)" stroke-width="1" font-size="16" >H</text>
<text x="323.022983" y="158.218614" fill="rgb(191,191,191)"  stroke="rgb(191,191,191)" stroke-width="1" font-size="16" >H</text>
<text x="123.787631" y="222.491097" fill="rgb(191,191,191)"  stroke="rgb(191,191,191)" stroke-width="1" font-size="16" >H</text>
<text x="85.838913" y="222.491097" fill="rgb(191,191,191)"  stroke="rgb(191,191,191)" stroke-width="1" font-size="16" >H</text>
<text x="52.974359" y="203.516738" fill="rgb(191,191,191)"  stroke="rgb(191,191,191)" stroke-width="1" font-size="16" >H</text>
<text x="34.000000" y="170.652184" fill="rgb(191,191,191)"  stroke="rgb(191,191,191)" stroke-width="1" font-size="16" >H</text>
<text x="34.000000" y="132.703467" fill="rgb(191,191,191)"  stroke="rgb(191,191,191)" stroke-width="1" font-size="16" >H</text>
<text x="52.974359" y="99.838913" fill="rgb(191,191,191)"  stroke="rgb(191,191,191)" stroke-width="1" font-size="16" >H</text>
<text x="85.838913" y="80.864554" fill="rgb(191,191,191)"  stroke="rgb(191,191,191)" stroke-width="1" font-size="16" >H</text>
<text x="142.761990" y="48.000000" fill="rgb(191,191,191)"  stroke="rgb(191,191,191)" stroke-width="1" font-size="16" >H</text>
<text x="132.724524" y="95.079405" fill="rgb(191,191,191)"  stroke="rgb(191,191,191)" stroke-width="1" font-size="16" >H</text>
<text x="267.314608" y="149.395275" fill="rgb(12,12,255)"  stroke="rgb(12,12,255)" stroke-width="1" font-size="16" >N</text>
<text x="201.167268" y="115.691522" fill="rgb(191,191,191)"  stroke="rgb(191,191,191)" stroke-width="1" font-size="16" >H</text>
<text x="115.613272" y="101.697108" fill="rgb(12,12,255)"  stroke="rgb(12,12,255)" stroke-width="1" font-size="16" >+</text>
<text x="104.813272" y="113.729108" fill="rgb(12,12,255)"  stroke="rgb(12,12,255)" stroke-width="1" font-size="16" >N</text>
<text x="282.556883" y="221.104540" fill="rgb(191,191,191)"  stroke="rgb(191,191,191)" stroke-width="1" font-size="16" >H</text>
<text x="303.225236" y="189.278068" fill="rgb(191,191,191)"  stroke="rgb(191,191,191)" stroke-width="1" font-size="16" >H</text>
<text x="231.515970" y="204.520343" fill="rgb(191,191,191)"  stroke="rgb(191,191,191)" stroke-width="1" font-size="16" >H</text>
</svg>
</g>
<text font-size="18.000000" fill ="black" font-family="sans-serif"
x="10.000000" y="20.000000" >ZINC12954959</text>
</svg>
