<?xml version="1.0"?>
<svg version="1.1" id="topsvg"
xmlns="http://www.w3.org/2000/svg" xmlns:xlink="http://www.w3.org/1999/xlink"
xmlns:cml="http://www.xml-cml.org/schema" x="0" y="0" width="200px" height="200px" viewBox="0 0 100 100">
<title>ZINC95908845 - Open Babel Depiction</title>
<rect x="0" y="0" width="100" height="100" fill="white"/>
<g transform="translate(0,0)">
<svg width="100" height="100" x="0" y="0" viewBox="0 0 400 249.282"
font-family="sans-serif" stroke="rgb(0,0,0)" stroke-width="2"  stroke-linecap="round">
<line x1="320.0" y1="80.0" x2="300.0" y2="114.6" stroke="rgb(0,0,0)"  stroke-width="2.0"/>
<line x1="320.0" y1="80.0" x2="320.0" y2="53.0" stroke="rgb(0,0,0)"  stroke-width="2.0"/>
<line x1="320.0" y1="80.0" x2="296.6" y2="66.5" stroke="rgb(0,0,0)"  stroke-width="2.0"/>
<line x1="320.0" y1="80.0" x2="347.0" y2="80.0" stroke="rgb(0,0,0)"  stroke-width="2.0"/>
<line x1="300.0" y1="114.6" x2="273.0" y2="114.6" stroke="rgb(0,0,0)"  stroke-width="2.0"/>
<line x1="300.0" y1="114.6" x2="300.0" y2="141.6" stroke="rgb(0,0,0)"  stroke-width="2.0"/>
<line x1="300.0" y1="114.6" x2="323.4" y2="128.1" stroke="rgb(0,0,0)"  stroke-width="2.0"/>
<line x1="260.0" y1="127.6" x2="260.0" y2="154.6" stroke="rgb(0,0,0)"  stroke-width="2.0"/>
<line x1="247.0" y1="114.6" x2="220.0" y2="114.6" stroke="rgb(0,0,0)"  stroke-width="2.0"/>
<line x1="260.0" y1="101.6" x2="260.0" y2="87.6" stroke="rgb(0,0,0)"  stroke-width="2.0"/>
<line x1="260.0" y1="154.6" x2="294.6" y2="174.6" stroke="rgb(0,0,0)"  stroke-width="2.0"/>
<line x1="260.0" y1="154.6" x2="246.5" y2="178.0" stroke="rgb(0,0,0)"  stroke-width="2.0"/>
<line x1="260.0" y1="154.6" x2="233.0" y2="154.6" stroke="rgb(0,0,0)"  stroke-width="2.0"/>
<line x1="294.6" y1="174.6" x2="308.1" y2="198.0" stroke="rgb(0,0,0)"  stroke-width="2.0"/>
<line x1="294.6" y1="174.6" x2="281.1" y2="198.0" stroke="rgb(0,0,0)"  stroke-width="2.0"/>
<line x1="294.6" y1="174.6" x2="318.0" y2="161.1" stroke="rgb(0,0,0)"  stroke-width="2.0"/>
<line x1="200.0" y1="149.3" x2="213.5" y2="172.7" stroke="rgb(0,0,0)"  stroke-width="2.0"/>
<line x1="160.0" y1="149.3" x2="146.5" y2="172.7" stroke="rgb(0,0,0)"  stroke-width="2.0"/>
<line x1="140.0" y1="114.6" x2="113.0" y2="114.6" stroke="rgb(0,0,0)"  stroke-width="2.0"/>
<line x1="160.0" y1="80.0" x2="146.5" y2="56.6" stroke="rgb(0,0,0)"  stroke-width="2.0"/>
<line x1="200.0" y1="80.0" x2="213.5" y2="56.6" stroke="rgb(0,0,0)"  stroke-width="2.0"/>
<line x1="93.5" y1="125.9" x2="80.0" y2="149.3" stroke="rgb(0,0,0)"  stroke-width="2.0"/>
<line x1="93.5" y1="103.4" x2="80.0" y2="80.0" stroke="rgb(0,0,0)"  stroke-width="2.0"/>
<line x1="80.0" y1="149.3" x2="56.6" y2="162.8" stroke="rgb(0,0,0)"  stroke-width="2.0"/>
<line x1="80.0" y1="149.3" x2="56.6" y2="135.8" stroke="rgb(0,0,0)"  stroke-width="2.0"/>
<line x1="80.0" y1="149.3" x2="93.5" y2="172.7" stroke="rgb(0,0,0)"  stroke-width="2.0"/>
<line x1="80.0" y1="80.0" x2="80.0" y2="53.0" stroke="rgb(0,0,0)"  stroke-width="2.0"/>
<line x1="80.0" y1="80.0" x2="103.4" y2="66.5" stroke="rgb(0,0,0)"  stroke-width="2.0"/>
<line x1="80.0" y1="80.0" x2="53.0" y2="80.0" stroke="rgb(0,0,0)"  stroke-width="2.0"/>
<line x1="160.0" y1="149.3" x2="140.0" y2="114.6" stroke="rgb(0,0,0)"  stroke-width="2.0"/>
<line x1="140.0" y1="114.6" x2="160.0" y2="80.0" stroke="rgb(0,0,0)"  stroke-width="2.0"/>
<line x1="149.2" y1="113.0" x2="163.2" y2="88.8" stroke="rgb(0,0,0)"  stroke-width="2.0"/>
<line x1="160.0" y1="80.0" x2="200.0" y2="80.0" stroke="rgb(0,0,0)"  stroke-width="2.0"/>
<line x1="200.0" y1="80.0" x2="220.0" y2="114.6" stroke="rgb(0,0,0)"  stroke-width="2.0"/>
<line x1="196.8" y1="88.8" x2="210.8" y2="113.0" stroke="rgb(0,0,0)"  stroke-width="2.0"/>
<line x1="220.0" y1="114.6" x2="200.0" y2="149.3" stroke="rgb(0,0,0)"  stroke-width="2.0"/>
<line x1="200.0" y1="149.3" x2="160.0" y2="149.3" stroke="rgb(0,0,0)"  stroke-width="2.0"/>
<line x1="194.0" y1="142.1" x2="166.0" y2="142.1" stroke="rgb(0,0,0)"  stroke-width="2.0"/>
<text x="134.000000" y="53.358984" fill="rgb(191,191,191)"  stroke="rgb(191,191,191)" stroke-width="1" font-size="16" >H</text>
<text x="328.641016" y="142.641016" fill="rgb(191,191,191)"  stroke="rgb(191,191,191)" stroke-width="1" font-size="16" >H</text>
<text x="234.000000" y="197.282032" fill="rgb(191,191,191)"  stroke="rgb(191,191,191)" stroke-width="1" font-size="16" >H</text>
<text x="214.000000" y="162.641016" fill="rgb(191,191,191)"  stroke="rgb(191,191,191)" stroke-width="1" font-size="16" >H</text>
<text x="308.641016" y="217.282032" fill="rgb(191,191,191)"  stroke="rgb(191,191,191)" stroke-width="1" font-size="16" >H</text>
<text x="268.641016" y="217.282032" fill="rgb(191,191,191)"  stroke="rgb(191,191,191)" stroke-width="1" font-size="16" >H</text>
<text x="323.282032" y="162.641016" fill="rgb(191,191,191)"  stroke="rgb(191,191,191)" stroke-width="1" font-size="16" >H</text>
<text x="214.000000" y="191.923048" fill="rgb(191,191,191)"  stroke="rgb(191,191,191)" stroke-width="1" font-size="16" >H</text>
<text x="134.000000" y="191.923048" fill="rgb(191,191,191)"  stroke="rgb(191,191,191)" stroke-width="1" font-size="16" >H</text>
<text x="294.000000" y="162.641016" fill="rgb(191,191,191)"  stroke="rgb(191,191,191)" stroke-width="1" font-size="16" >H</text>
<text x="214.000000" y="53.358984" fill="rgb(191,191,191)"  stroke="rgb(191,191,191)" stroke-width="1" font-size="16" >H</text>
<text x="39.358984" y="177.282032" fill="rgb(191,191,191)"  stroke="rgb(191,191,191)" stroke-width="1" font-size="16" >H</text>
<text x="39.358984" y="137.282032" fill="rgb(191,191,191)"  stroke="rgb(191,191,191)" stroke-width="1" font-size="16" >H</text>
<text x="94.000000" y="191.923048" fill="rgb(191,191,191)"  stroke="rgb(191,191,191)" stroke-width="1" font-size="16" >H</text>
<text x="74.000000" y="48.000000" fill="rgb(191,191,191)"  stroke="rgb(191,191,191)" stroke-width="1" font-size="16" >H</text>
<text x="108.641016" y="68.000000" fill="rgb(191,191,191)"  stroke="rgb(191,191,191)" stroke-width="1" font-size="16" >H</text>
<text x="34.000000" y="88.000000" fill="rgb(191,191,191)"  stroke="rgb(191,191,191)" stroke-width="1" font-size="16" >H</text>
<text x="254.000000" y="82.641016" fill="rgb(191,191,191)"  stroke="rgb(191,191,191)" stroke-width="1" font-size="16" >H</text>
<text x="254.000000" y="122.641016" fill="rgb(255,127,0)"  stroke="rgb(255,127,0)" stroke-width="1" font-size="16" >P</text>
<text x="94.000000" y="122.641016" fill="rgb(12,12,255)"  stroke="rgb(12,12,255)" stroke-width="1" font-size="16" >N</text>
<text x="314.000000" y="48.000000" fill="rgb(191,191,191)"  stroke="rgb(191,191,191)" stroke-width="1" font-size="16" >H</text>
<text x="279.358984" y="68.000000" fill="rgb(191,191,191)"  stroke="rgb(191,191,191)" stroke-width="1" font-size="16" >H</text>
<text x="354.000000" y="88.000000" fill="rgb(191,191,191)"  stroke="rgb(191,191,191)" stroke-width="1" font-size="16" >H</text>
</svg>
</g>
<text font-size="18.000000" fill ="black" font-family="sans-serif"
x="10.000000" y="20.000000" >ZINC95908845</text>
</svg>
