<?xml version="1.0"?>
<svg version="1.1" id="topsvg"
xmlns="http://www.w3.org/2000/svg" xmlns:xlink="http://www.w3.org/1999/xlink"
xmlns:cml="http://www.xml-cml.org/schema" x="0" y="0" width="200px" height="200px" viewBox="0 0 100 100">
<title>ZINC86022031 - Open Babel Depiction</title>
<rect x="0" y="0" width="100" height="100" fill="white"/>
<g transform="translate(0,0)">
<svg width="100" height="100" x="0" y="0" viewBox="0 0 450.932 313.597"
font-family="sans-serif" stroke="rgb(0,0,0)" stroke-width="2"  stroke-linecap="round">
<line x1="117.1" y1="238.5" x2="126.6" y2="203.3" stroke="rgb(0,0,0)"  stroke-width="2.0"/>
<line x1="117.1" y1="238.5" x2="123.2" y2="261.0" stroke="rgb(0,0,0)"  stroke-width="2.0"/>
<line x1="117.1" y1="238.5" x2="139.7" y2="244.5" stroke="rgb(0,0,0)"  stroke-width="2.0"/>
<line x1="117.1" y1="238.5" x2="94.6" y2="244.5" stroke="rgb(0,0,0)"  stroke-width="2.0"/>
<line x1="161.7" y1="193.9" x2="187.4" y2="219.6" stroke="rgb(0,0,0)"  stroke-width="2.0"/>
<line x1="171.1" y1="158.8" x2="311.6" y2="121.2" stroke="rgb(0,0,0)"  stroke-width="2.0"/>
<line x1="145.4" y1="133.1" x2="154.8" y2="98.0" stroke="rgb(0,0,0)"  stroke-width="2.0"/>
<line x1="100.8" y1="177.6" x2="65.7" y2="187.0" stroke="rgb(0,0,0)"  stroke-width="2.0"/>
<line x1="65.7" y1="187.0" x2="49.2" y2="203.6" stroke="rgb(0,0,0)"  stroke-width="2.0"/>
<line x1="65.7" y1="187.0" x2="71.8" y2="209.6" stroke="rgb(0,0,0)"  stroke-width="2.0"/>
<line x1="65.7" y1="187.0" x2="49.2" y2="170.5" stroke="rgb(0,0,0)"  stroke-width="2.0"/>
<line x1="154.8" y1="98.0" x2="148.7" y2="75.4" stroke="rgb(0,0,0)"  stroke-width="2.0"/>
<line x1="154.8" y1="98.0" x2="132.2" y2="91.9" stroke="rgb(0,0,0)"  stroke-width="2.0"/>
<line x1="154.8" y1="98.0" x2="177.4" y2="91.9" stroke="rgb(0,0,0)"  stroke-width="2.0"/>
<polygon points="311.585002 121.165484 310.799316 96.488177 318.730874 97.532387 " stroke-width="2.000000" fill="rgb(0,0,0)"  stroke="rgb(0,0,0)" />
<line x1="311.6" y1="157.5" x2="288.2" y2="157.5" stroke="rgb(0,0,0)"  stroke-width="2.0"/>
<line x1="311.6" y1="157.5" x2="299.9" y2="177.8" stroke="rgb(0,0,0)"  stroke-width="2.0"/>
<line x1="343.1" y1="175.7" x2="331.4" y2="195.9" stroke="rgb(0,0,0)"  stroke-width="2.0"/>
<line x1="343.1" y1="175.7" x2="354.8" y2="195.9" stroke="rgb(0,0,0)"  stroke-width="2.0"/>
<line x1="374.6" y1="157.5" x2="386.3" y2="177.8" stroke="rgb(0,0,0)"  stroke-width="2.0"/>
<line x1="374.6" y1="157.5" x2="397.9" y2="157.5" stroke="rgb(0,0,0)"  stroke-width="2.0"/>
<line x1="374.6" y1="121.2" x2="397.9" y2="121.2" stroke="rgb(0,0,0)"  stroke-width="2.0"/>
<line x1="374.6" y1="121.2" x2="386.3" y2="100.9" stroke="rgb(0,0,0)"  stroke-width="2.0"/>
<line x1="349.6" y1="91.7" x2="354.8" y2="82.8" stroke="rgb(0,0,0)"  stroke-width="2.0"/>
<line x1="336.6" y1="91.7" x2="313.2" y2="51.3" stroke="rgb(0,0,0)"  stroke-width="2.0"/>
<line x1="187.4" y1="219.6" x2="210.0" y2="225.7" stroke="rgb(0,0,0)"  stroke-width="2.0"/>
<line x1="187.4" y1="219.6" x2="203.9" y2="203.1" stroke="rgb(0,0,0)"  stroke-width="2.0"/>
<line x1="187.4" y1="219.6" x2="181.3" y2="242.2" stroke="rgb(0,0,0)"  stroke-width="2.0"/>
<line x1="171.1" y1="158.8" x2="145.4" y2="133.1" stroke="rgb(0,0,0)"  stroke-width="2.0"/>
<line x1="145.4" y1="133.1" x2="121.8" y2="139.4" stroke="rgb(0,0,0)"  stroke-width="2.0"/>
<line x1="141.4" y1="141.6" x2="126.0" y2="145.7" stroke="rgb(0,0,0)"  stroke-width="2.0"/>
<line x1="106.9" y1="155.1" x2="100.8" y2="177.6" stroke="rgb(0,0,0)"  stroke-width="2.0"/>
<line x1="100.8" y1="177.6" x2="126.6" y2="203.3" stroke="rgb(0,0,0)"  stroke-width="2.0"/>
<line x1="110.2" y1="176.8" x2="127.4" y2="194.0" stroke="rgb(0,0,0)"  stroke-width="2.0"/>
<line x1="126.6" y1="203.3" x2="161.7" y2="193.9" stroke="rgb(0,0,0)"  stroke-width="2.0"/>
<line x1="161.7" y1="193.9" x2="171.1" y2="158.8" stroke="rgb(0,0,0)"  stroke-width="2.0"/>
<line x1="156.3" y1="186.3" x2="162.6" y2="162.7" stroke="rgb(0,0,0)"  stroke-width="2.0"/>
<line x1="343.1" y1="175.7" x2="374.6" y2="157.5" stroke="rgb(0,0,0)"  stroke-width="2.0"/>
<line x1="374.6" y1="157.5" x2="374.6" y2="121.2" stroke="rgb(0,0,0)"  stroke-width="2.0"/>
<line x1="374.6" y1="121.2" x2="354.3" y2="109.5" stroke="rgb(0,0,0)"  stroke-width="2.0"/>
<line x1="331.8" y1="109.5" x2="311.6" y2="121.2" stroke="rgb(0,0,0)"  stroke-width="2.0"/>
<line x1="311.6" y1="121.2" x2="311.6" y2="157.5" stroke="rgb(0,0,0)"  stroke-width="2.0"/>
<line x1="311.6" y1="157.5" x2="343.1" y2="175.7" stroke="rgb(0,0,0)"  stroke-width="2.0"/>
<text x="355.258653" y="215.202771" fill="rgb(191,191,191)"  stroke="rgb(191,191,191)" stroke-width="1" font-size="16" >H</text>
<text x="34.000000" y="220.759669" fill="rgb(191,191,191)"  stroke="rgb(191,191,191)" stroke-width="1" font-size="16" >H</text>
<text x="69.124576" y="230.171271" fill="rgb(191,191,191)"  stroke="rgb(191,191,191)" stroke-width="1" font-size="16" >H</text>
<text x="34.000000" y="169.333722" fill="rgb(191,191,191)"  stroke="rgb(191,191,191)" stroke-width="1" font-size="16" >H</text>
<text x="139.373727" y="70.849766" fill="rgb(191,191,191)"  stroke="rgb(191,191,191)" stroke-width="1" font-size="16" >H</text>
<text x="113.660753" y="96.562739" fill="rgb(191,191,191)"  stroke="rgb(191,191,191)" stroke-width="1" font-size="16" >H</text>
<text x="183.909904" y="96.562739" fill="rgb(191,191,191)"  stroke="rgb(191,191,191)" stroke-width="1" font-size="16" >H</text>
<text x="269.221366" y="165.529120" fill="rgb(191,191,191)"  stroke="rgb(191,191,191)" stroke-width="1" font-size="16" >H</text>
<text x="287.403184" y="197.020953" fill="rgb(191,191,191)"  stroke="rgb(191,191,191)" stroke-width="1" font-size="16" >H</text>
<text x="318.895017" y="215.202771" fill="rgb(191,191,191)"  stroke="rgb(191,191,191)" stroke-width="1" font-size="16" >H</text>
<text x="76.014346" y="255.884245" fill="rgb(191,191,191)"  stroke="rgb(191,191,191)" stroke-width="1" font-size="16" >H</text>
<text x="386.750486" y="197.020953" fill="rgb(191,191,191)"  stroke="rgb(191,191,191)" stroke-width="1" font-size="16" >H</text>
<text x="404.932304" y="165.529120" fill="rgb(191,191,191)"  stroke="rgb(191,191,191)" stroke-width="1" font-size="16" >H</text>
<text x="404.932304" y="129.165484" fill="rgb(191,191,191)"  stroke="rgb(191,191,191)" stroke-width="1" font-size="16" >H</text>
<text x="386.750486" y="97.673651" fill="rgb(191,191,191)"  stroke="rgb(191,191,191)" stroke-width="1" font-size="16" >H</text>
<text x="355.258653" y="79.491833" fill="rgb(191,191,191)"  stroke="rgb(191,191,191)" stroke-width="1" font-size="16" >H</text>
<text x="216.512648" y="237.061041" fill="rgb(191,191,191)"  stroke="rgb(191,191,191)" stroke-width="1" font-size="16" >H</text>
<text x="207.101046" y="201.936466" fill="rgb(191,191,191)"  stroke="rgb(191,191,191)" stroke-width="1" font-size="16" >H</text>
<text x="171.976471" y="262.774015" fill="rgb(191,191,191)"  stroke="rgb(191,191,191)" stroke-width="1" font-size="16" >H</text>
<text x="300.713199" y="48.000000" fill="rgb(191,191,191)"  stroke="rgb(191,191,191)" stroke-width="1" font-size="16" >H</text>
<text x="310.331409" y="93.112943" fill="rgb(191,191,191)"  stroke="rgb(191,191,191)" stroke-width="1" font-size="16" >H</text>
<text x="104.249151" y="150.510518" fill="rgb(12,12,255)"  stroke="rgb(12,12,255)" stroke-width="1" font-size="16" >N</text>
<text x="347.876835" y="98.951666" fill="rgb(12,12,255)"  stroke="rgb(12,12,255)" stroke-width="1" font-size="16" >+</text>
<text x="337.076835" y="110.983666" fill="rgb(12,12,255)"  stroke="rgb(12,12,255)" stroke-width="1" font-size="16" >N</text>
<text x="120.550523" y="281.597219" fill="rgb(191,191,191)"  stroke="rgb(191,191,191)" stroke-width="1" font-size="16" >H</text>
<text x="146.263497" y="255.884245" fill="rgb(191,191,191)"  stroke="rgb(191,191,191)" stroke-width="1" font-size="16" >H</text>
</svg>
</g>
<text font-size="18.000000" fill ="black" font-family="sans-serif"
x="10.000000" y="20.000000" >ZINC86022031</text>
</svg>
