<?xml version="1.0"?>
<svg version="1.1" id="topsvg"
xmlns="http://www.w3.org/2000/svg" xmlns:xlink="http://www.w3.org/1999/xlink"
xmlns:cml="http://www.xml-cml.org/schema" x="0" y="0" width="200px" height="200px" viewBox="0 0 100 100">
<title>ZINC05603377 - Open Babel Depiction</title>
<rect x="0" y="0" width="100" height="100" fill="white"/>
<g transform="translate(0,0)">
<svg width="100" height="100" x="0" y="0" viewBox="0 0 289.658 238.431"
font-family="sans-serif" stroke="rgb(0,0,0)" stroke-width="2"  stroke-linecap="round">
<line x1="219.9" y1="79.1" x2="238.0" y2="59.1" stroke="rgb(0,0,0)"  stroke-width="2.0"/>
<line x1="219.9" y1="79.1" x2="211.6" y2="53.4" stroke="rgb(0,0,0)"  stroke-width="2.0"/>
<line x1="219.9" y1="79.1" x2="240.0" y2="97.2" stroke="rgb(0,0,0)"  stroke-width="2.0"/>
<line x1="219.9" y1="79.1" x2="194.3" y2="87.5" stroke="rgb(0,0,0)"  stroke-width="2.0"/>
<line x1="169.5" y1="129.5" x2="185.4" y2="151.4" stroke="rgb(0,0,0)"  stroke-width="2.0"/>
<line x1="129.5" y1="129.5" x2="113.7" y2="151.4" stroke="rgb(0,0,0)"  stroke-width="2.0"/>
<line x1="117.2" y1="91.5" x2="79.1" y2="79.1" stroke="rgb(0,0,0)"  stroke-width="2.0"/>
<line x1="79.1" y1="79.1" x2="52.7" y2="84.7" stroke="rgb(0,0,0)"  stroke-width="2.0"/>
<line x1="79.1" y1="79.1" x2="70.8" y2="104.8" stroke="rgb(0,0,0)"  stroke-width="2.0"/>
<line x1="79.1" y1="79.1" x2="73.5" y2="52.7" stroke="rgb(0,0,0)"  stroke-width="2.0"/>
<line x1="187.8" y1="173.8" x2="182.1" y2="186.6" stroke="rgb(0,0,0)"  stroke-width="2.0"/>
<line x1="169.5" y1="129.5" x2="177.9" y2="103.9" stroke="rgb(0,0,0)"  stroke-width="2.0"/>
<line x1="171.4" y1="83.8" x2="160.0" y2="75.6" stroke="rgb(0,0,0)"  stroke-width="2.0"/>
<line x1="138.8" y1="75.7" x2="117.2" y2="91.5" stroke="rgb(0,0,0)"  stroke-width="2.0"/>
<line x1="141.5" y1="82.7" x2="126.3" y2="93.8" stroke="rgb(0,0,0)"  stroke-width="2.0"/>
<line x1="117.2" y1="91.5" x2="129.5" y2="129.5" stroke="rgb(0,0,0)"  stroke-width="2.0"/>
<line x1="129.5" y1="129.5" x2="169.5" y2="129.5" stroke="rgb(0,0,0)"  stroke-width="2.0"/>
<line x1="135.5" y1="122.3" x2="163.5" y2="122.3" stroke="rgb(0,0,0)"  stroke-width="2.0"/>
<text x="175.889524" y="99.486584" fill="rgb(12,12,255)"  stroke="rgb(12,12,255)" stroke-width="1" font-size="16" >N</text>
<text x="143.528844" y="75.975174" fill="rgb(12,12,255)"  stroke="rgb(12,12,255)" stroke-width="1" font-size="16" >N</text>
<text x="34.000000" y="95.442372" fill="rgb(127,178,255)"  stroke="rgb(127,178,255)" stroke-width="1" font-size="16" >F</text>
<text x="60.765224" y="125.168165" fill="rgb(127,178,255)"  stroke="rgb(127,178,255)" stroke-width="1" font-size="16" >F</text>
<text x="64.809436" y="48.000000" fill="rgb(127,178,255)"  stroke="rgb(127,178,255)" stroke-width="1" font-size="16" >F</text>
<text x="187.040255" y="169.889524" fill="rgb(255,12,12)"  stroke="rgb(255,12,12)" stroke-width="1" font-size="16" >O</text>
<text x="240.697009" y="57.400111" fill="rgb(191,191,191)"  stroke="rgb(191,191,191)" stroke-width="1" font-size="16" >H</text>
<text x="201.571105" y="49.083643" fill="rgb(191,191,191)"  stroke="rgb(191,191,191)" stroke-width="1" font-size="16" >H</text>
<text x="243.657578" y="113.891128" fill="rgb(191,191,191)"  stroke="rgb(191,191,191)" stroke-width="1" font-size="16" >H</text>
<text x="100.017434" y="169.889524" fill="rgb(191,191,191)"  stroke="rgb(191,191,191)" stroke-width="1" font-size="16" >H</text>
<text x="170.770789" y="206.431343" fill="rgb(191,191,191)"  stroke="rgb(191,191,191)" stroke-width="1" font-size="16" >H</text>
</svg>
</g>
<text font-size="18.000000" fill ="black" font-family="sans-serif"
x="10.000000" y="20.000000" >ZINC05603377</text>
</svg>
