<?xml version="1.0"?>
<svg version="1.1" id="topsvg"
xmlns="http://www.w3.org/2000/svg" xmlns:xlink="http://www.w3.org/1999/xlink"
xmlns:cml="http://www.xml-cml.org/schema" x="0" y="0" width="200px" height="200px" viewBox="0 0 100 100">
<title>ZINC19872668 - Open Babel Depiction</title>
<rect x="0" y="0" width="100" height="100" fill="white"/>
<g transform="translate(0,0)">
<svg width="100" height="100" x="0" y="0" viewBox="0 0 357.128 294.641"
font-family="sans-serif" stroke="rgb(0,0,0)" stroke-width="2"  stroke-linecap="round">
<line x1="282.5" y1="74.6" x2="259.1" y2="88.1" stroke="rgb(0,0,0)"  stroke-width="2.0"/>
<line x1="282.5" y1="74.6" x2="296.0" y2="51.3" stroke="rgb(0,0,0)"  stroke-width="2.0"/>
<line x1="282.5" y1="74.6" x2="269.0" y2="51.3" stroke="rgb(0,0,0)"  stroke-width="2.0"/>
<line x1="282.5" y1="74.6" x2="305.9" y2="88.1" stroke="rgb(0,0,0)"  stroke-width="2.0"/>
<line x1="213.2" y1="74.6" x2="226.7" y2="51.3" stroke="rgb(0,0,0)"  stroke-width="2.0"/>
<line x1="213.2" y1="74.6" x2="199.7" y2="51.3" stroke="rgb(0,0,0)"  stroke-width="2.0"/>
<line x1="178.6" y1="94.6" x2="165.1" y2="71.3" stroke="rgb(0,0,0)"  stroke-width="2.0"/>
<line x1="178.6" y1="94.6" x2="151.6" y2="94.6" stroke="rgb(0,0,0)"  stroke-width="2.0"/>
<line x1="167.3" y1="141.1" x2="143.9" y2="154.6" stroke="rgb(0,0,0)"  stroke-width="2.0"/>
<line x1="213.2" y1="154.6" x2="199.7" y2="178.0" stroke="rgb(0,0,0)"  stroke-width="2.0"/>
<line x1="213.2" y1="154.6" x2="226.7" y2="178.0" stroke="rgb(0,0,0)"  stroke-width="2.0"/>
<line x1="247.8" y1="134.6" x2="261.3" y2="158.0" stroke="rgb(0,0,0)"  stroke-width="2.0"/>
<line x1="247.8" y1="134.6" x2="274.8" y2="134.6" stroke="rgb(0,0,0)"  stroke-width="2.0"/>
<line x1="109.3" y1="134.6" x2="109.3" y2="107.6" stroke="rgb(0,0,0)"  stroke-width="2.0"/>
<line x1="74.6" y1="154.6" x2="51.3" y2="141.1" stroke="rgb(0,0,0)"  stroke-width="2.0"/>
<line x1="74.6" y1="194.6" x2="51.3" y2="208.1" stroke="rgb(0,0,0)"  stroke-width="2.0"/>
<line x1="109.3" y1="214.6" x2="109.3" y2="241.6" stroke="rgb(0,0,0)"  stroke-width="2.0"/>
<line x1="155.2" y1="201.1" x2="167.3" y2="208.1" stroke="rgb(0,0,0)"  stroke-width="2.0"/>
<line x1="120.5" y1="88.1" x2="132.7" y2="81.1" stroke="rgb(0,0,0)"  stroke-width="2.0"/>
<line x1="98.0" y1="88.1" x2="85.9" y2="81.1" stroke="rgb(0,0,0)"  stroke-width="2.0"/>
<line x1="74.6" y1="154.6" x2="74.6" y2="194.6" stroke="rgb(0,0,0)"  stroke-width="2.0"/>
<line x1="74.6" y1="194.6" x2="109.3" y2="214.6" stroke="rgb(0,0,0)"  stroke-width="2.0"/>
<line x1="83.4" y1="191.4" x2="107.7" y2="205.4" stroke="rgb(0,0,0)"  stroke-width="2.0"/>
<line x1="109.3" y1="214.6" x2="132.7" y2="201.1" stroke="rgb(0,0,0)"  stroke-width="2.0"/>
<line x1="143.9" y1="181.4" x2="143.9" y2="154.6" stroke="rgb(0,0,0)"  stroke-width="2.0"/>
<line x1="136.7" y1="179.4" x2="136.7" y2="160.6" stroke="rgb(0,0,0)"  stroke-width="2.0"/>
<line x1="143.9" y1="154.6" x2="109.3" y2="134.6" stroke="rgb(0,0,0)"  stroke-width="2.0"/>
<line x1="109.3" y1="134.6" x2="74.6" y2="154.6" stroke="rgb(0,0,0)"  stroke-width="2.0"/>
<line x1="107.7" y1="143.9" x2="83.4" y2="157.9" stroke="rgb(0,0,0)"  stroke-width="2.0"/>
<line x1="178.6" y1="94.6" x2="178.6" y2="121.6" stroke="rgb(0,0,0)"  stroke-width="2.0"/>
<line x1="189.8" y1="141.1" x2="213.2" y2="154.6" stroke="rgb(0,0,0)"  stroke-width="2.0"/>
<line x1="213.2" y1="154.6" x2="247.8" y2="134.6" stroke="rgb(0,0,0)"  stroke-width="2.0"/>
<line x1="247.8" y1="134.6" x2="247.8" y2="107.6" stroke="rgb(0,0,0)"  stroke-width="2.0"/>
<line x1="236.6" y1="88.1" x2="213.2" y2="74.6" stroke="rgb(0,0,0)"  stroke-width="2.0"/>
<line x1="213.2" y1="74.6" x2="178.6" y2="94.6" stroke="rgb(0,0,0)"  stroke-width="2.0"/>
<text x="256.487113" y="48.000000" fill="rgb(191,191,191)"  stroke="rgb(191,191,191)" stroke-width="1" font-size="16" >H</text>
<text x="172.564065" y="222.641016" fill="rgb(191,191,191)"  stroke="rgb(191,191,191)" stroke-width="1" font-size="16" >H</text>
<text x="68.641016" y="82.641016" fill="rgb(191,191,191)"  stroke="rgb(191,191,191)" stroke-width="1" font-size="16" >H</text>
<text x="137.923048" y="82.641016" fill="rgb(191,191,191)"  stroke="rgb(191,191,191)" stroke-width="1" font-size="16" >H</text>
<text x="103.282032" y="262.641016" fill="rgb(191,191,191)"  stroke="rgb(191,191,191)" stroke-width="1" font-size="16" >H</text>
<text x="34.000000" y="222.641016" fill="rgb(191,191,191)"  stroke="rgb(191,191,191)" stroke-width="1" font-size="16" >H</text>
<text x="34.000000" y="142.641016" fill="rgb(191,191,191)"  stroke="rgb(191,191,191)" stroke-width="1" font-size="16" >H</text>
<text x="281.846097" y="142.641016" fill="rgb(191,191,191)"  stroke="rgb(191,191,191)" stroke-width="1" font-size="16" >H</text>
<text x="261.846097" y="177.282032" fill="rgb(191,191,191)"  stroke="rgb(191,191,191)" stroke-width="1" font-size="16" >H</text>
<text x="227.205081" y="197.282032" fill="rgb(191,191,191)"  stroke="rgb(191,191,191)" stroke-width="1" font-size="16" >H</text>
<text x="187.205081" y="197.282032" fill="rgb(191,191,191)"  stroke="rgb(191,191,191)" stroke-width="1" font-size="16" >H</text>
<text x="132.564065" y="102.641016" fill="rgb(191,191,191)"  stroke="rgb(191,191,191)" stroke-width="1" font-size="16" >H</text>
<text x="152.564065" y="68.000000" fill="rgb(191,191,191)"  stroke="rgb(191,191,191)" stroke-width="1" font-size="16" >H</text>
<text x="187.205081" y="48.000000" fill="rgb(191,191,191)"  stroke="rgb(191,191,191)" stroke-width="1" font-size="16" >H</text>
<text x="227.205081" y="48.000000" fill="rgb(191,191,191)"  stroke="rgb(191,191,191)" stroke-width="1" font-size="16" >H</text>
<text x="311.128129" y="102.641016" fill="rgb(191,191,191)"  stroke="rgb(191,191,191)" stroke-width="1" font-size="16" >H</text>
<text x="296.487113" y="48.000000" fill="rgb(191,191,191)"  stroke="rgb(191,191,191)" stroke-width="1" font-size="16" >H</text>
<text x="103.282032" y="102.641016" fill="rgb(12,12,255)"  stroke="rgb(12,12,255)" stroke-width="1" font-size="16" >N</text>
<text x="148.723048" y="190.609016" fill="rgb(12,12,255)"  stroke="rgb(12,12,255)" stroke-width="1" font-size="16" >+</text>
<text x="137.923048" y="202.641016" fill="rgb(12,12,255)"  stroke="rgb(12,12,255)" stroke-width="1" font-size="16" >N</text>
<text x="172.564065" y="142.641016" fill="rgb(12,12,255)"  stroke="rgb(12,12,255)" stroke-width="1" font-size="16" >N</text>
<text x="241.846097" y="102.641016" fill="rgb(12,12,255)"  stroke="rgb(12,12,255)" stroke-width="1" font-size="16" >N</text>
</svg>
</g>
<text font-size="18.000000" fill ="black" font-family="sans-serif"
x="10.000000" y="20.000000" >ZINC19872668</text>
</svg>
