<?xml version="1.0"?>
<svg version="1.1" id="topsvg"
xmlns="http://www.w3.org/2000/svg" xmlns:xlink="http://www.w3.org/1999/xlink"
xmlns:cml="http://www.xml-cml.org/schema" x="0" y="0" width="200px" height="200px" viewBox="0 0 100 100">
<title>ZINC98224576 - Open Babel Depiction</title>
<rect x="0" y="0" width="100" height="100" fill="white"/>
<g transform="translate(0,0)">
<svg width="100" height="100" x="0" y="0" viewBox="0 0 666.586 481.845"
font-family="sans-serif" stroke="rgb(0,0,0)" stroke-width="2"  stroke-linecap="round">
<line x1="351.6" y1="272.8" x2="339.4" y2="249.6" stroke="rgb(0,0,0)"  stroke-width="2.0"/>
<line x1="390.8" y1="271.3" x2="422.2" y2="199.4" stroke="rgb(0,0,0)"  stroke-width="2.0"/>
<line x1="416.4" y1="301.0" x2="441.8" y2="294.2" stroke="rgb(0,0,0)"  stroke-width="2.0"/>
<line x1="409.1" y1="339.6" x2="430.2" y2="355.1" stroke="rgb(0,0,0)"  stroke-width="2.0"/>
<line x1="377.4" y1="357.8" x2="378.4" y2="384.0" stroke="rgb(0,0,0)"  stroke-width="2.0"/>
<line x1="371.4" y1="358.0" x2="372.4" y2="384.2" stroke="rgb(0,0,0)"  stroke-width="2.0"/>
<line x1="290.4" y1="294.2" x2="270.1" y2="218.4" stroke="rgb(0,0,0)"  stroke-width="2.0"/>
<line x1="262.7" y1="321.9" x2="237.4" y2="315.1" stroke="rgb(0,0,0)"  stroke-width="2.0"/>
<line x1="272.8" y1="359.8" x2="254.3" y2="378.4" stroke="rgb(0,0,0)"  stroke-width="2.0"/>
<line x1="310.7" y1="370.0" x2="317.5" y2="395.3" stroke="rgb(0,0,0)"  stroke-width="2.0"/>
<line x1="311.7" y1="417.0" x2="302.3" y2="426.4" stroke="rgb(0,0,0)"  stroke-width="2.0"/>
<line x1="248.5" y1="400.1" x2="251.9" y2="412.9" stroke="rgb(0,0,0)"  stroke-width="2.0"/>
<line x1="270.1" y1="218.4" x2="290.9" y2="202.4" stroke="rgb(0,0,0)"  stroke-width="2.0"/>
<polygon points="270.128689 218.380673 238.153846 241.460160 234.153846 234.531956 " stroke-width="2.000000" fill="rgb(0,0,0)"  stroke="rgb(0,0,0)" />
<polygon points="236.153846 237.996058 252.760255 258.759203 245.832052 262.759203 " stroke-width="2.000000" fill="rgb(0,0,0)"  stroke="rgb(0,0,0)" />
<line x1="236.2" y1="238.0" x2="223.0" y2="260.7" stroke="rgb(0,0,0)"  stroke-width="2.0"/>
<line x1="202.2" y1="218.4" x2="189.1" y2="241.1" stroke="rgb(0,0,0)"  stroke-width="2.0"/>
<line x1="202.2" y1="218.4" x2="175.9" y2="218.4" stroke="rgb(0,0,0)"  stroke-width="2.0"/>
<line x1="168.2" y1="159.5" x2="145.5" y2="172.6" stroke="rgb(0,0,0)"  stroke-width="2.0"/>
<line x1="168.2" y1="120.3" x2="145.5" y2="107.2" stroke="rgb(0,0,0)"  stroke-width="2.0"/>
<line x1="202.2" y1="100.7" x2="202.2" y2="74.5" stroke="rgb(0,0,0)"  stroke-width="2.0"/>
<line x1="236.2" y1="120.3" x2="258.9" y2="107.2" stroke="rgb(0,0,0)"  stroke-width="2.0"/>
<line x1="190.9" y1="55.0" x2="179.5" y2="48.3" stroke="rgb(0,0,0)"  stroke-width="2.0"/>
<line x1="134.2" y1="192.1" x2="134.2" y2="205.4" stroke="rgb(0,0,0)"  stroke-width="2.0"/>
<line x1="203.5" y1="272.0" x2="177.3" y2="272.0" stroke="rgb(0,0,0)"  stroke-width="2.0"/>
<line x1="174.7" y1="273.5" x2="161.6" y2="250.8" stroke="rgb(0,0,0)"  stroke-width="2.0"/>
<line x1="179.9" y1="270.5" x2="166.8" y2="247.8" stroke="rgb(0,0,0)"  stroke-width="2.0"/>
<line x1="177.3" y1="272.0" x2="157.7" y2="305.9" stroke="rgb(0,0,0)"  stroke-width="2.0"/>
<line x1="118.5" y1="305.9" x2="105.3" y2="283.2" stroke="rgb(0,0,0)"  stroke-width="2.0"/>
<line x1="98.8" y1="339.9" x2="72.6" y2="339.9" stroke="rgb(0,0,0)"  stroke-width="2.0"/>
<line x1="118.5" y1="373.9" x2="105.3" y2="396.6" stroke="rgb(0,0,0)"  stroke-width="2.0"/>
<line x1="157.7" y1="373.9" x2="170.8" y2="396.6" stroke="rgb(0,0,0)"  stroke-width="2.0"/>
<line x1="177.3" y1="339.9" x2="203.5" y2="339.9" stroke="rgb(0,0,0)"  stroke-width="2.0"/>
<line x1="170.8" y1="419.1" x2="164.2" y2="430.6" stroke="rgb(0,0,0)"  stroke-width="2.0"/>
<line x1="85.8" y1="407.9" x2="72.6" y2="407.9" stroke="rgb(0,0,0)"  stroke-width="2.0"/>
<line x1="53.1" y1="351.2" x2="46.5" y2="362.6" stroke="rgb(0,0,0)"  stroke-width="2.0"/>
<line x1="439.2" y1="375.8" x2="437.8" y2="388.9" stroke="rgb(0,0,0)"  stroke-width="2.0"/>
<line x1="422.2" y1="199.4" x2="404.0" y2="180.5" stroke="rgb(0,0,0)"  stroke-width="2.0"/>
<line x1="428.8" y1="203.6" x2="427.8" y2="204.9" stroke="rgb(0,0,0)"  stroke-width="1.0"/>
<line x1="434.1" y1="207.1" x2="432.3" y2="209.3" stroke="rgb(0,0,0)"  stroke-width="1.0"/>
<line x1="439.5" y1="210.5" x2="436.9" y2="213.7" stroke="rgb(0,0,0)"  stroke-width="1.0"/>
<line x1="444.8" y1="213.9" x2="441.4" y2="218.1" stroke="rgb(0,0,0)"  stroke-width="1.0"/>
<line x1="450.1" y1="217.3" x2="445.9" y2="222.5" stroke="rgb(0,0,0)"  stroke-width="1.0"/>
<line x1="455.4" y1="220.7" x2="450.4" y2="227.0" stroke="rgb(0,0,0)"  stroke-width="1.0"/>
<line x1="450.2" y1="228.4" x2="449.0" y2="227.4" stroke="rgb(0,0,0)"  stroke-width="1.0"/>
<line x1="448.1" y1="232.1" x2="445.9" y2="230.3" stroke="rgb(0,0,0)"  stroke-width="1.0"/>
<line x1="446.0" y1="235.8" x2="442.7" y2="233.2" stroke="rgb(0,0,0)"  stroke-width="1.0"/>
<line x1="443.9" y1="239.5" x2="439.6" y2="236.1" stroke="rgb(0,0,0)"  stroke-width="1.0"/>
<line x1="441.7" y1="243.2" x2="436.5" y2="239.0" stroke="rgb(0,0,0)"  stroke-width="1.0"/>
<line x1="439.6" y1="246.9" x2="433.4" y2="241.9" stroke="rgb(0,0,0)"  stroke-width="1.0"/>
<line x1="452.9" y1="223.8" x2="462.5" y2="248.3" stroke="rgb(0,0,0)"  stroke-width="2.0"/>
<line x1="489.4" y1="209.5" x2="499.0" y2="233.9" stroke="rgb(0,0,0)"  stroke-width="2.0"/>
<line x1="489.4" y1="209.5" x2="515.3" y2="213.4" stroke="rgb(0,0,0)"  stroke-width="2.0"/>
<line x1="531.8" y1="156.4" x2="552.3" y2="172.7" stroke="rgb(0,0,0)"  stroke-width="2.0"/>
<line x1="537.6" y1="117.6" x2="562.0" y2="108.0" stroke="rgb(0,0,0)"  stroke-width="2.0"/>
<line x1="506.9" y1="93.1" x2="510.8" y2="67.2" stroke="rgb(0,0,0)"  stroke-width="2.0"/>
<line x1="470.4" y1="107.5" x2="449.9" y2="91.1" stroke="rgb(0,0,0)"  stroke-width="2.0"/>
<line x1="524.9" y1="49.6" x2="537.2" y2="44.7" stroke="rgb(0,0,0)"  stroke-width="2.0"/>
<line x1="560.5" y1="193.7" x2="558.5" y2="206.8" stroke="rgb(0,0,0)"  stroke-width="2.0"/>
<line x1="480.1" y1="262.3" x2="506.0" y2="266.2" stroke="rgb(0,0,0)"  stroke-width="2.0"/>
<line x1="503.7" y1="264.3" x2="520.0" y2="243.8" stroke="rgb(0,0,0)"  stroke-width="2.0"/>
<line x1="508.3" y1="268.1" x2="524.7" y2="247.6" stroke="rgb(0,0,0)"  stroke-width="2.0"/>
<line x1="506.0" y1="266.2" x2="520.3" y2="302.7" stroke="rgb(0,0,0)"  stroke-width="2.0"/>
<line x1="559.1" y1="308.6" x2="575.5" y2="288.1" stroke="rgb(0,0,0)"  stroke-width="2.0"/>
<line x1="573.5" y1="345.1" x2="599.4" y2="349.0" stroke="rgb(0,0,0)"  stroke-width="2.0"/>
<line x1="549.0" y1="375.8" x2="558.6" y2="400.2" stroke="rgb(0,0,0)"  stroke-width="2.0"/>
<line x1="510.2" y1="369.9" x2="493.9" y2="390.4" stroke="rgb(0,0,0)"  stroke-width="2.0"/>
<line x1="495.9" y1="333.4" x2="469.9" y2="329.5" stroke="rgb(0,0,0)"  stroke-width="2.0"/>
<line x1="490.5" y1="412.7" x2="495.3" y2="425.0" stroke="rgb(0,0,0)"  stroke-width="2.0"/>
<line x1="576.2" y1="414.2" x2="589.3" y2="416.2" stroke="rgb(0,0,0)"  stroke-width="2.0"/>
<line x1="617.0" y1="363.0" x2="621.8" y2="375.4" stroke="rgb(0,0,0)"  stroke-width="2.0"/>
<line x1="272.8" y1="359.8" x2="262.7" y2="321.9" stroke="rgb(0,0,0)"  stroke-width="2.0"/>
<line x1="278.3" y1="352.1" x2="271.2" y2="325.8" stroke="rgb(0,0,0)"  stroke-width="2.0"/>
<line x1="262.7" y1="321.9" x2="290.4" y2="294.2" stroke="rgb(0,0,0)"  stroke-width="2.0"/>
<line x1="290.4" y1="294.2" x2="328.3" y2="304.3" stroke="rgb(0,0,0)"  stroke-width="2.0"/>
<line x1="294.4" y1="302.7" x2="320.7" y2="309.7" stroke="rgb(0,0,0)"  stroke-width="2.0"/>
<line x1="328.3" y1="304.3" x2="338.5" y2="342.2" stroke="rgb(0,0,0)"  stroke-width="2.0"/>
<line x1="338.5" y1="342.2" x2="310.7" y2="370.0" stroke="rgb(0,0,0)"  stroke-width="2.0"/>
<line x1="329.1" y1="341.4" x2="309.9" y2="360.6" stroke="rgb(0,0,0)"  stroke-width="2.0"/>
<line x1="310.7" y1="370.0" x2="272.8" y2="359.8" stroke="rgb(0,0,0)"  stroke-width="2.0"/>
<line x1="202.2" y1="100.7" x2="236.2" y2="120.3" stroke="rgb(0,0,0)"  stroke-width="2.0"/>
<line x1="203.8" y1="109.9" x2="227.4" y2="123.5" stroke="rgb(0,0,0)"  stroke-width="2.0"/>
<line x1="236.2" y1="120.3" x2="236.2" y2="159.5" stroke="rgb(0,0,0)"  stroke-width="2.0"/>
<line x1="236.2" y1="159.5" x2="202.2" y2="179.1" stroke="rgb(0,0,0)"  stroke-width="2.0"/>
<line x1="227.4" y1="156.3" x2="203.8" y2="169.9" stroke="rgb(0,0,0)"  stroke-width="2.0"/>
<line x1="202.2" y1="179.1" x2="168.2" y2="159.5" stroke="rgb(0,0,0)"  stroke-width="2.0"/>
<line x1="168.2" y1="159.5" x2="168.2" y2="120.3" stroke="rgb(0,0,0)"  stroke-width="2.0"/>
<line x1="175.4" y1="153.5" x2="175.4" y2="126.3" stroke="rgb(0,0,0)"  stroke-width="2.0"/>
<line x1="168.2" y1="120.3" x2="202.2" y2="100.7" stroke="rgb(0,0,0)"  stroke-width="2.0"/>
<line x1="98.8" y1="339.9" x2="118.5" y2="373.9" stroke="rgb(0,0,0)"  stroke-width="2.0"/>
<line x1="118.5" y1="373.9" x2="157.7" y2="373.9" stroke="rgb(0,0,0)"  stroke-width="2.0"/>
<line x1="124.5" y1="366.7" x2="151.7" y2="366.7" stroke="rgb(0,0,0)"  stroke-width="2.0"/>
<line x1="157.7" y1="373.9" x2="177.3" y2="339.9" stroke="rgb(0,0,0)"  stroke-width="2.0"/>
<line x1="177.3" y1="339.9" x2="157.7" y2="305.9" stroke="rgb(0,0,0)"  stroke-width="2.0"/>
<line x1="168.1" y1="338.3" x2="154.5" y2="314.7" stroke="rgb(0,0,0)"  stroke-width="2.0"/>
<line x1="157.7" y1="305.9" x2="118.5" y2="305.9" stroke="rgb(0,0,0)"  stroke-width="2.0"/>
<line x1="118.5" y1="305.9" x2="98.8" y2="339.9" stroke="rgb(0,0,0)"  stroke-width="2.0"/>
<line x1="121.7" y1="314.7" x2="108.1" y2="338.3" stroke="rgb(0,0,0)"  stroke-width="2.0"/>
<line x1="506.9" y1="93.1" x2="470.4" y2="107.5" stroke="rgb(0,0,0)"  stroke-width="2.0"/>
<line x1="504.0" y1="102.0" x2="478.6" y2="112.0" stroke="rgb(0,0,0)"  stroke-width="2.0"/>
<line x1="470.4" y1="107.5" x2="464.6" y2="146.3" stroke="rgb(0,0,0)"  stroke-width="2.0"/>
<line x1="464.6" y1="146.3" x2="495.2" y2="170.7" stroke="rgb(0,0,0)"  stroke-width="2.0"/>
<line x1="473.8" y1="144.4" x2="495.0" y2="161.3" stroke="rgb(0,0,0)"  stroke-width="2.0"/>
<line x1="495.2" y1="170.7" x2="531.8" y2="156.4" stroke="rgb(0,0,0)"  stroke-width="2.0"/>
<line x1="531.8" y1="156.4" x2="537.6" y2="117.6" stroke="rgb(0,0,0)"  stroke-width="2.0"/>
<line x1="525.5" y1="149.4" x2="529.6" y2="122.4" stroke="rgb(0,0,0)"  stroke-width="2.0"/>
<line x1="537.6" y1="117.6" x2="506.9" y2="93.1" stroke="rgb(0,0,0)"  stroke-width="2.0"/>
<line x1="573.5" y1="345.1" x2="549.0" y2="375.8" stroke="rgb(0,0,0)"  stroke-width="2.0"/>
<line x1="549.0" y1="375.8" x2="510.2" y2="369.9" stroke="rgb(0,0,0)"  stroke-width="2.0"/>
<line x1="544.1" y1="367.7" x2="517.2" y2="363.7" stroke="rgb(0,0,0)"  stroke-width="2.0"/>
<line x1="510.2" y1="369.9" x2="495.9" y2="333.4" stroke="rgb(0,0,0)"  stroke-width="2.0"/>
<line x1="495.9" y1="333.4" x2="520.3" y2="302.7" stroke="rgb(0,0,0)"  stroke-width="2.0"/>
<line x1="505.2" y1="333.2" x2="522.2" y2="311.9" stroke="rgb(0,0,0)"  stroke-width="2.0"/>
<line x1="520.3" y1="302.7" x2="559.1" y2="308.6" stroke="rgb(0,0,0)"  stroke-width="2.0"/>
<line x1="559.1" y1="308.6" x2="573.5" y2="345.1" stroke="rgb(0,0,0)"  stroke-width="2.0"/>
<line x1="554.6" y1="316.8" x2="564.6" y2="342.1" stroke="rgb(0,0,0)"  stroke-width="2.0"/>
<line x1="416.4" y1="301.0" x2="409.1" y2="339.6" stroke="rgb(0,0,0)"  stroke-width="2.0"/>
<line x1="408.2" y1="305.6" x2="403.2" y2="332.3" stroke="rgb(0,0,0)"  stroke-width="2.0"/>
<line x1="409.1" y1="339.6" x2="374.4" y2="357.9" stroke="rgb(0,0,0)"  stroke-width="2.0"/>
<line x1="374.4" y1="357.9" x2="338.5" y2="342.2" stroke="rgb(0,0,0)"  stroke-width="2.0"/>
<line x1="328.3" y1="304.3" x2="351.6" y2="272.8" stroke="rgb(0,0,0)"  stroke-width="2.0"/>
<line x1="351.6" y1="272.8" x2="390.8" y2="271.3" stroke="rgb(0,0,0)"  stroke-width="2.0"/>
<line x1="357.9" y1="279.7" x2="385.1" y2="278.7" stroke="rgb(0,0,0)"  stroke-width="2.0"/>
<line x1="390.8" y1="271.3" x2="416.4" y2="301.0" stroke="rgb(0,0,0)"  stroke-width="2.0"/>
<line x1="202.2" y1="218.4" x2="202.2" y2="179.1" stroke="rgb(0,0,0)"  stroke-width="2.0"/>
<line x1="236.2" y1="159.5" x2="258.9" y2="172.6" stroke="rgb(0,0,0)"  stroke-width="2.0"/>
<line x1="270.1" y1="192.1" x2="270.1" y2="218.4" stroke="rgb(0,0,0)"  stroke-width="2.0"/>
<line x1="270.1" y1="218.4" x2="236.2" y2="238.0" stroke="rgb(0,0,0)"  stroke-width="2.0"/>
<line x1="236.2" y1="238.0" x2="202.2" y2="218.4" stroke="rgb(0,0,0)"  stroke-width="2.0"/>
<line x1="489.4" y1="209.5" x2="495.2" y2="170.7" stroke="rgb(0,0,0)"  stroke-width="2.0"/>
<line x1="464.6" y1="146.3" x2="440.2" y2="155.8" stroke="rgb(0,0,0)"  stroke-width="2.0"/>
<line x1="426.1" y1="173.4" x2="422.2" y2="199.4" stroke="rgb(0,0,0)"  stroke-width="2.0"/>
<line x1="422.2" y1="199.4" x2="452.9" y2="223.8" stroke="rgb(0,0,0)"  stroke-width="2.0"/>
<line x1="452.9" y1="223.8" x2="489.4" y2="209.5" stroke="rgb(0,0,0)"  stroke-width="2.0"/>
<text x="287.156697" y="443.591082" fill="rgb(191,191,191)"  stroke="rgb(191,191,191)" stroke-width="1" font-size="16" >H</text>
<text x="218.801673" y="319.755372" fill="rgb(191,191,191)"  stroke="rgb(191,191,191)" stroke-width="1" font-size="16" >H</text>
<text x="448.313151" y="298.872638" fill="rgb(191,191,191)"  stroke="rgb(191,191,191)" stroke-width="1" font-size="16" >H</text>
<text x="327.294758" y="246.072853" fill="rgb(191,191,191)"  stroke="rgb(191,191,191)" stroke-width="1" font-size="16" >H</text>
<text x="606.253005" y="358.933403" fill="rgb(255,12,12)"  stroke="rgb(255,12,12)" stroke-width="1" font-size="16" >O</text>
<text x="557.333036" y="420.277103" fill="rgb(255,12,12)"  stroke="rgb(255,12,12)" stroke-width="1" font-size="16" >O</text>
<text x="479.747848" y="408.583018" fill="rgb(255,12,12)"  stroke="rgb(255,12,12)" stroke-width="1" font-size="16" >O</text>
<text x="249.262684" y="433.437412" fill="rgb(191,191,191)"  stroke="rgb(191,191,191)" stroke-width="1" font-size="16" >H</text>
<text x="524.462582" y="243.529680" fill="rgb(255,12,12)"  stroke="rgb(255,12,12)" stroke-width="1" font-size="16" >O</text>
<text x="461.210004" y="268.354488" fill="rgb(255,12,12)"  stroke="rgb(255,12,12)" stroke-width="1" font-size="16" >O</text>
<text x="556.434074" y="188.837766" fill="rgb(255,12,12)"  stroke="rgb(255,12,12)" stroke-width="1" font-size="16" >O</text>
<text x="506.784459" y="62.332609" fill="rgb(255,12,12)"  stroke="rgb(255,12,12)" stroke-width="1" font-size="16" >O</text>
<text x="422.052587" y="168.583016" fill="rgb(255,12,12)"  stroke="rgb(255,12,12)" stroke-width="1" font-size="16" >O</text>
<text x="497.728897" y="254.021878" fill="rgb(191,191,191)"  stroke="rgb(191,191,191)" stroke-width="1" font-size="16" >H</text>
<text x="430.298219" y="409.853264" fill="rgb(191,191,191)"  stroke="rgb(191,191,191)" stroke-width="1" font-size="16" >H</text>
<text x="620.585614" y="395.452296" fill="rgb(191,191,191)"  stroke="rgb(191,191,191)" stroke-width="1" font-size="16" >H</text>
<text x="596.125629" y="426.124146" fill="rgb(191,191,191)"  stroke="rgb(191,191,191)" stroke-width="1" font-size="16" >H</text>
<text x="494.080457" y="445.101911" fill="rgb(191,191,191)"  stroke="rgb(191,191,191)" stroke-width="1" font-size="16" >H</text>
<text x="451.082629" y="335.545232" fill="rgb(191,191,191)"  stroke="rgb(191,191,191)" stroke-width="1" font-size="16" >H</text>
<text x="577.587786" y="285.895616" fill="rgb(191,191,191)"  stroke="rgb(191,191,191)" stroke-width="1" font-size="16" >H</text>
<text x="550.587031" y="227.630360" fill="rgb(191,191,191)"  stroke="rgb(191,191,191)" stroke-width="1" font-size="16" >H</text>
<text x="543.303352" y="48.000000" fill="rgb(191,191,191)"  stroke="rgb(191,191,191)" stroke-width="1" font-size="16" >H</text>
<text x="433.746672" y="90.997828" fill="rgb(191,191,191)"  stroke="rgb(191,191,191)" stroke-width="1" font-size="16" >H</text>
<text x="568.128160" y="111.252578" fill="rgb(191,191,191)"  stroke="rgb(191,191,191)" stroke-width="1" font-size="16" >H</text>
<text x="522.188882" y="223.350028" fill="rgb(191,191,191)"  stroke="rgb(191,191,191)" stroke-width="1" font-size="16" >H</text>
<text x="34.000000" y="381.895429" fill="rgb(191,191,191)"  stroke="rgb(191,191,191)" stroke-width="1" font-size="16" >H</text>
<text x="53.615385" y="415.870272" fill="rgb(191,191,191)"  stroke="rgb(191,191,191)" stroke-width="1" font-size="16" >H</text>
<text x="151.692308" y="449.845115" fill="rgb(191,191,191)"  stroke="rgb(191,191,191)" stroke-width="1" font-size="16" >H</text>
<text x="210.538462" y="347.920586" fill="rgb(191,191,191)"  stroke="rgb(191,191,191)" stroke-width="1" font-size="16" >H</text>
<text x="92.846154" y="279.970901" fill="rgb(191,191,191)"  stroke="rgb(191,191,191)" stroke-width="1" font-size="16" >H</text>
<text x="128.229318" y="226.380673" fill="rgb(191,191,191)"  stroke="rgb(191,191,191)" stroke-width="1" font-size="16" >H</text>
<text x="162.204161" y="49.842212" fill="rgb(191,191,191)"  stroke="rgb(191,191,191)" stroke-width="1" font-size="16" >H</text>
<text x="264.128689" y="108.688366" fill="rgb(191,191,191)"  stroke="rgb(191,191,191)" stroke-width="1" font-size="16" >H</text>
<text x="128.229318" y="108.688366" fill="rgb(191,191,191)"  stroke="rgb(191,191,191)" stroke-width="1" font-size="16" >H</text>
<text x="156.948234" y="226.380673" fill="rgb(191,191,191)"  stroke="rgb(191,191,191)" stroke-width="1" font-size="16" >H</text>
<text x="176.563619" y="260.355516" fill="rgb(191,191,191)"  stroke="rgb(191,191,191)" stroke-width="1" font-size="16" >H</text>
<text x="314.897040" y="415.850739" fill="rgb(255,12,12)"  stroke="rgb(255,12,12)" stroke-width="1" font-size="16" >O</text>
<text x="249.769231" y="279.970901" fill="rgb(191,191,191)"  stroke="rgb(191,191,191)" stroke-width="1" font-size="16" >H</text>
<text x="295.252551" y="202.498494" fill="rgb(191,191,191)"  stroke="rgb(191,191,191)" stroke-width="1" font-size="16" >H</text>
<text x="239.109014" y="395.543399" fill="rgb(255,12,12)"  stroke="rgb(255,12,12)" stroke-width="1" font-size="16" >O</text>
<text x="369.908040" y="405.107790" fill="rgb(255,12,12)"  stroke="rgb(255,12,12)" stroke-width="1" font-size="16" >O</text>
<text x="422.417410" y="262.507445" fill="rgb(191,191,191)"  stroke="rgb(191,191,191)" stroke-width="1" font-size="16" >H</text>
<text x="388.988764" y="179.121404" fill="rgb(191,191,191)"  stroke="rgb(191,191,191)" stroke-width="1" font-size="16" >H</text>
<text x="434.690672" y="370.869170" fill="rgb(255,12,12)"  stroke="rgb(255,12,12)" stroke-width="1" font-size="16" >O</text>
<text x="53.615385" y="347.920586" fill="rgb(255,12,12)"  stroke="rgb(255,12,12)" stroke-width="1" font-size="16" >O</text>
<text x="92.846154" y="415.870272" fill="rgb(255,12,12)"  stroke="rgb(255,12,12)" stroke-width="1" font-size="16" >O</text>
<text x="171.307692" y="415.870272" fill="rgb(255,12,12)"  stroke="rgb(255,12,12)" stroke-width="1" font-size="16" >O</text>
<text x="151.692308" y="245.996058" fill="rgb(255,12,12)"  stroke="rgb(255,12,12)" stroke-width="1" font-size="16" >O</text>
<text x="210.538462" y="279.970901" fill="rgb(255,12,12)"  stroke="rgb(255,12,12)" stroke-width="1" font-size="16" >O</text>
<text x="128.229318" y="187.149904" fill="rgb(255,12,12)"  stroke="rgb(255,12,12)" stroke-width="1" font-size="16" >O</text>
<text x="196.179003" y="69.457596" fill="rgb(255,12,12)"  stroke="rgb(255,12,12)" stroke-width="1" font-size="16" >O</text>
<text x="264.128689" y="187.149904" fill="rgb(255,12,12)"  stroke="rgb(255,12,12)" stroke-width="1" font-size="16" >O</text>
</svg>
</g>
<text font-size="18.000000" fill ="black" font-family="sans-serif"
x="10.000000" y="20.000000" >ZINC98224576</text>
</svg>
