<?xml version="1.0"?>
<svg version="1.1" id="topsvg"
xmlns="http://www.w3.org/2000/svg" xmlns:xlink="http://www.w3.org/1999/xlink"
xmlns:cml="http://www.xml-cml.org/schema" x="0" y="0" width="200px" height="200px" viewBox="0 0 100 100">
<title>ZINC08701316 - Open Babel Depiction</title>
<rect x="0" y="0" width="100" height="100" fill="white"/>
<g transform="translate(0,0)">
<svg width="100" height="100" x="0" y="0" viewBox="0 0 364.136 288.047"
font-family="sans-serif" stroke="rgb(0,0,0)" stroke-width="2"  stroke-linecap="round">
<line x1="258.7" y1="211.8" x2="241.3" y2="194.4" stroke="rgb(0,0,0)"  stroke-width="2.0"/>
<line x1="258.7" y1="211.8" x2="282.4" y2="218.1" stroke="rgb(0,0,0)"  stroke-width="2.0"/>
<line x1="258.7" y1="211.8" x2="276.0" y2="194.4" stroke="rgb(0,0,0)"  stroke-width="2.0"/>
<line x1="258.7" y1="211.8" x2="252.3" y2="235.5" stroke="rgb(0,0,0)"  stroke-width="2.0"/>
<line x1="235.5" y1="172.6" x2="241.8" y2="148.9" stroke="rgb(0,0,0)"  stroke-width="2.0"/>
<line x1="278.1" y1="139.2" x2="295.5" y2="156.5" stroke="rgb(0,0,0)"  stroke-width="2.0"/>
<line x1="287.8" y1="102.9" x2="311.6" y2="96.5" stroke="rgb(0,0,0)"  stroke-width="2.0"/>
<line x1="261.3" y1="76.3" x2="267.6" y2="52.6" stroke="rgb(0,0,0)"  stroke-width="2.0"/>
<line x1="225.0" y1="86.0" x2="207.6" y2="68.6" stroke="rgb(0,0,0)"  stroke-width="2.0"/>
<line x1="215.2" y1="122.3" x2="142.7" y2="141.8" stroke="rgb(0,0,0)"  stroke-width="2.0"/>
<line x1="142.7" y1="141.8" x2="134.5" y2="203.4" stroke="rgb(0,0,0)"  stroke-width="2.0"/>
<line x1="142.7" y1="104.2" x2="167.2" y2="104.2" stroke="rgb(0,0,0)"  stroke-width="2.0"/>
<line x1="142.7" y1="104.2" x2="154.9" y2="82.9" stroke="rgb(0,0,0)"  stroke-width="2.0"/>
<line x1="107.1" y1="85.4" x2="107.1" y2="60.8" stroke="rgb(0,0,0)"  stroke-width="2.0"/>
<line x1="113.1" y1="85.4" x2="113.1" y2="60.8" stroke="rgb(0,0,0)"  stroke-width="2.0"/>
<line x1="77.6" y1="104.2" x2="53.0" y2="104.2" stroke="rgb(0,0,0)"  stroke-width="2.0"/>
<line x1="77.6" y1="104.2" x2="65.3" y2="82.9" stroke="rgb(0,0,0)"  stroke-width="2.0"/>
<line x1="79.1" y1="144.4" x2="57.8" y2="156.7" stroke="rgb(0,0,0)"  stroke-width="2.0"/>
<line x1="76.1" y1="139.2" x2="54.8" y2="151.5" stroke="rgb(0,0,0)"  stroke-width="2.0"/>
<line x1="110.1" y1="160.6" x2="97.8" y2="181.8" stroke="rgb(0,0,0)"  stroke-width="2.0"/>
<line x1="110.1" y1="160.6" x2="122.4" y2="181.8" stroke="rgb(0,0,0)"  stroke-width="2.0"/>
<line x1="287.8" y1="102.9" x2="261.3" y2="76.3" stroke="rgb(0,0,0)"  stroke-width="2.0"/>
<line x1="261.3" y1="76.3" x2="225.0" y2="86.0" stroke="rgb(0,0,0)"  stroke-width="2.0"/>
<line x1="257.3" y1="84.8" x2="232.6" y2="91.4" stroke="rgb(0,0,0)"  stroke-width="2.0"/>
<line x1="225.0" y1="86.0" x2="215.2" y2="122.3" stroke="rgb(0,0,0)"  stroke-width="2.0"/>
<line x1="215.2" y1="122.3" x2="241.8" y2="148.9" stroke="rgb(0,0,0)"  stroke-width="2.0"/>
<line x1="224.6" y1="121.5" x2="242.7" y2="139.6" stroke="rgb(0,0,0)"  stroke-width="2.0"/>
<line x1="241.8" y1="148.9" x2="278.1" y2="139.2" stroke="rgb(0,0,0)"  stroke-width="2.0"/>
<line x1="278.1" y1="139.2" x2="287.8" y2="102.9" stroke="rgb(0,0,0)"  stroke-width="2.0"/>
<line x1="272.7" y1="131.5" x2="279.3" y2="106.8" stroke="rgb(0,0,0)"  stroke-width="2.0"/>
<line x1="110.1" y1="85.4" x2="77.6" y2="104.2" stroke="rgb(0,0,0)"  stroke-width="2.0"/>
<line x1="77.6" y1="104.2" x2="77.6" y2="141.8" stroke="rgb(0,0,0)"  stroke-width="2.0"/>
<line x1="77.6" y1="141.8" x2="110.1" y2="160.6" stroke="rgb(0,0,0)"  stroke-width="2.0"/>
<line x1="110.1" y1="160.6" x2="142.7" y2="141.8" stroke="rgb(0,0,0)"  stroke-width="2.0"/>
<line x1="142.7" y1="141.8" x2="142.7" y2="104.2" stroke="rgb(0,0,0)"  stroke-width="2.0"/>
<line x1="142.7" y1="104.2" x2="110.1" y2="85.4" stroke="rgb(0,0,0)"  stroke-width="2.0"/>
<text x="155.446758" y="79.649436" fill="rgb(191,191,191)"  stroke="rgb(191,191,191)" stroke-width="1" font-size="16" >H</text>
<text x="122.905197" y="201.096194" fill="rgb(191,191,191)"  stroke="rgb(191,191,191)" stroke-width="1" font-size="16" >H</text>
<text x="85.329439" y="201.096194" fill="rgb(191,191,191)"  stroke="rgb(191,191,191)" stroke-width="1" font-size="16" >H</text>
<text x="34.000000" y="112.190997" fill="rgb(191,191,191)"  stroke="rgb(191,191,191)" stroke-width="1" font-size="16" >H</text>
<text x="52.787879" y="79.649436" fill="rgb(191,191,191)"  stroke="rgb(191,191,191)" stroke-width="1" font-size="16" >H</text>
<text x="174.234636" y="112.190997" fill="rgb(191,191,191)"  stroke="rgb(191,191,191)" stroke-width="1" font-size="16" >H</text>
<text x="126.849638" y="224.275338" fill="rgb(191,191,191)"  stroke="rgb(191,191,191)" stroke-width="1" font-size="16" >H</text>
<text x="192.404917" y="67.450643" fill="rgb(191,191,191)"  stroke="rgb(191,191,191)" stroke-width="1" font-size="16" >H</text>
<text x="264.995706" y="48.000000" fill="rgb(191,191,191)"  stroke="rgb(191,191,191)" stroke-width="1" font-size="16" >H</text>
<text x="318.135852" y="101.140146" fill="rgb(191,191,191)"  stroke="rgb(191,191,191)" stroke-width="1" font-size="16" >H</text>
<text x="298.685209" y="173.730935" fill="rgb(191,191,191)"  stroke="rgb(191,191,191)" stroke-width="1" font-size="16" >H</text>
<text x="242.939171" y="256.047046" fill="rgb(191,191,191)"  stroke="rgb(191,191,191)" stroke-width="1" font-size="16" >H</text>
<text x="279.234565" y="193.181579" fill="rgb(191,191,191)"  stroke="rgb(191,191,191)" stroke-width="1" font-size="16" >H</text>
<text x="288.959887" y="229.476973" fill="rgb(191,191,191)"  stroke="rgb(191,191,191)" stroke-width="1" font-size="16" >H</text>
<text x="39.034197" y="168.554633" fill="rgb(255,12,12)"  stroke="rgb(255,12,12)" stroke-width="1" font-size="16" >O</text>
<text x="104.117318" y="55.827361" fill="rgb(255,12,12)"  stroke="rgb(255,12,12)" stroke-width="1" font-size="16" >O</text>
<text x="226.094419" y="193.181579" fill="rgb(255,12,12)"  stroke="rgb(255,12,12)" stroke-width="1" font-size="16" >O</text>
</svg>
</g>
<text font-size="18.000000" fill ="black" font-family="sans-serif"
x="10.000000" y="20.000000" >ZINC08701316</text>
</svg>
