<?xml version="1.0"?>
<svg version="1.1" id="topsvg"
xmlns="http://www.w3.org/2000/svg" xmlns:xlink="http://www.w3.org/1999/xlink"
xmlns:cml="http://www.xml-cml.org/schema" x="0" y="0" width="200px" height="200px" viewBox="0 0 100 100">
<title>ZINC95100133 - Open Babel Depiction</title>
<rect x="0" y="0" width="100" height="100" fill="white"/>
<g transform="translate(0,0)">
<svg width="100" height="100" x="0" y="0" viewBox="0 0 356.512 284.639"
font-family="sans-serif" stroke="rgb(0,0,0)" stroke-width="2"  stroke-linecap="round">
<line x1="276.5" y1="180.0" x2="276.5" y2="140.0" stroke="rgb(0,0,0)"  stroke-width="2.0"/>
<line x1="272.3" y1="180.0" x2="272.3" y2="140.0" stroke="rgb(0,0,0)"  stroke-width="2.0"/>
<line x1="280.7" y1="180.0" x2="280.7" y2="140.0" stroke="rgb(0,0,0)"  stroke-width="2.0"/>
<line x1="276.5" y1="180.0" x2="276.5" y2="207.0" stroke="rgb(0,0,0)"  stroke-width="2.0"/>
<line x1="276.5" y1="140.0" x2="276.5" y2="100.0" stroke="rgb(0,0,0)"  stroke-width="2.0"/>
<line x1="276.5" y1="100.0" x2="253.1" y2="86.5" stroke="rgb(0,0,0)"  stroke-width="2.0"/>
<line x1="276.5" y1="100.0" x2="303.5" y2="100.0" stroke="rgb(0,0,0)"  stroke-width="2.0"/>
<line x1="276.5" y1="100.0" x2="290.0" y2="76.6" stroke="rgb(0,0,0)"  stroke-width="2.0"/>
<line x1="230.6" y1="86.5" x2="207.2" y2="100.0" stroke="rgb(0,0,0)"  stroke-width="2.0"/>
<line x1="172.6" y1="80.0" x2="172.6" y2="53.0" stroke="rgb(0,0,0)"  stroke-width="2.0"/>
<line x1="137.9" y1="100.0" x2="114.6" y2="86.5" stroke="rgb(0,0,0)"  stroke-width="2.0"/>
<line x1="137.9" y1="140.0" x2="114.6" y2="153.5" stroke="rgb(0,0,0)"  stroke-width="2.0"/>
<line x1="172.6" y1="160.0" x2="172.6" y2="187.0" stroke="rgb(0,0,0)"  stroke-width="2.0"/>
<line x1="207.2" y1="140.0" x2="230.6" y2="153.5" stroke="rgb(0,0,0)"  stroke-width="2.0"/>
<line x1="66.8" y1="143.7" x2="61.2" y2="117.3" stroke="rgb(0,0,0)"  stroke-width="2.0"/>
<line x1="54.7" y1="220.0" x2="49.0" y2="232.8" stroke="rgb(0,0,0)"  stroke-width="2.0"/>
<line x1="101.1" y1="197.6" x2="121.2" y2="215.6" stroke="rgb(0,0,0)"  stroke-width="2.0"/>
<line x1="97.1" y1="202.0" x2="117.2" y2="220.1" stroke="rgb(0,0,0)"  stroke-width="2.0"/>
<line x1="46.5" y1="184.7" x2="53.5" y2="196.8" stroke="rgb(0,0,0)"  stroke-width="2.0"/>
<line x1="72.7" y1="205.4" x2="99.1" y2="199.8" stroke="rgb(0,0,0)"  stroke-width="2.0"/>
<line x1="99.1" y1="199.8" x2="101.9" y2="172.9" stroke="rgb(0,0,0)"  stroke-width="2.0"/>
<line x1="91.4" y1="154.7" x2="66.8" y2="143.7" stroke="rgb(0,0,0)"  stroke-width="2.0"/>
<line x1="66.8" y1="143.7" x2="48.8" y2="163.6" stroke="rgb(0,0,0)"  stroke-width="2.0"/>
<line x1="68.1" y1="153.0" x2="55.5" y2="167.0" stroke="rgb(0,0,0)"  stroke-width="2.0"/>
<line x1="137.9" y1="100.0" x2="137.9" y2="140.0" stroke="rgb(0,0,0)"  stroke-width="2.0"/>
<line x1="137.9" y1="140.0" x2="172.6" y2="160.0" stroke="rgb(0,0,0)"  stroke-width="2.0"/>
<line x1="146.7" y1="136.8" x2="171.0" y2="150.8" stroke="rgb(0,0,0)"  stroke-width="2.0"/>
<line x1="172.6" y1="160.0" x2="207.2" y2="140.0" stroke="rgb(0,0,0)"  stroke-width="2.0"/>
<line x1="207.2" y1="140.0" x2="207.2" y2="100.0" stroke="rgb(0,0,0)"  stroke-width="2.0"/>
<line x1="200.0" y1="134.0" x2="200.0" y2="106.0" stroke="rgb(0,0,0)"  stroke-width="2.0"/>
<line x1="207.2" y1="100.0" x2="172.6" y2="80.0" stroke="rgb(0,0,0)"  stroke-width="2.0"/>
<line x1="172.6" y1="80.0" x2="137.9" y2="100.0" stroke="rgb(0,0,0)"  stroke-width="2.0"/>
<line x1="171.0" y1="89.2" x2="146.7" y2="103.2" stroke="rgb(0,0,0)"  stroke-width="2.0"/>
<text x="40.448757" y="112.604630" fill="rgb(255,12,12)"  stroke="rgb(255,12,12)" stroke-width="1" font-size="16" >HO</text>
<text x="235.871107" y="168.000000" fill="rgb(191,191,191)"  stroke="rgb(191,191,191)" stroke-width="1" font-size="16" >H</text>
<text x="166.589075" y="208.000000" fill="rgb(191,191,191)"  stroke="rgb(191,191,191)" stroke-width="1" font-size="16" >H</text>
<text x="97.307043" y="88.000000" fill="rgb(191,191,191)"  stroke="rgb(191,191,191)" stroke-width="1" font-size="16" >H</text>
<text x="166.589075" y="48.000000" fill="rgb(191,191,191)"  stroke="rgb(191,191,191)" stroke-width="1" font-size="16" >H</text>
<text x="290.512123" y="73.358984" fill="rgb(191,191,191)"  stroke="rgb(191,191,191)" stroke-width="1" font-size="16" >H</text>
<text x="310.512123" y="108.000000" fill="rgb(191,191,191)"  stroke="rgb(191,191,191)" stroke-width="1" font-size="16" >H</text>
<text x="270.512123" y="228.000000" fill="rgb(191,191,191)"  stroke="rgb(191,191,191)" stroke-width="1" font-size="16" >H</text>
<text x="122.851697" y="234.546100" fill="rgb(255,12,12)"  stroke="rgb(255,12,12)" stroke-width="1" font-size="16" >O</text>
<text x="37.730534" y="252.639162" fill="rgb(191,191,191)"  stroke="rgb(191,191,191)" stroke-width="1" font-size="16" >H</text>
<text x="54.000000" y="216.097343" fill="rgb(12,12,255)"  stroke="rgb(12,12,255)" stroke-width="1" font-size="16" >N</text>
<text x="34.000000" y="181.456327" fill="rgb(12,12,255)"  stroke="rgb(12,12,255)" stroke-width="1" font-size="16" >N</text>
<text x="97.307043" y="168.000000" fill="rgb(12,12,255)"  stroke="rgb(12,12,255)" stroke-width="1" font-size="16" >N</text>
<text x="235.871107" y="88.000000" fill="rgb(255,12,12)"  stroke="rgb(255,12,12)" stroke-width="1" font-size="16" >O</text>
</svg>
</g>
<text font-size="18.000000" fill ="black" font-family="sans-serif"
x="10.000000" y="20.000000" >ZINC95100133</text>
</svg>
