<?xml version="1.0"?>
<svg version="1.1" id="topsvg"
xmlns="http://www.w3.org/2000/svg" xmlns:xlink="http://www.w3.org/1999/xlink"
xmlns:cml="http://www.xml-cml.org/schema" x="0" y="0" width="200px" height="200px" viewBox="0 0 100 100">
<title>ZINC04234693 - Open Babel Depiction</title>
<rect x="0" y="0" width="100" height="100" fill="white"/>
<g transform="translate(0,0)">
<svg width="100" height="100" x="0" y="0" viewBox="0 0 317.921 317"
font-family="sans-serif" stroke="rgb(0,0,0)" stroke-width="2"  stroke-linecap="round">
<line x1="208.6" y1="160.0" x2="208.6" y2="187.0" stroke="rgb(0,0,0)"  stroke-width="2.0"/>
<line x1="243.3" y1="140.0" x2="266.7" y2="153.5" stroke="rgb(0,0,0)"  stroke-width="2.0"/>
<line x1="243.3" y1="100.0" x2="266.7" y2="86.5" stroke="rgb(0,0,0)"  stroke-width="2.0"/>
<line x1="208.6" y1="80.0" x2="208.6" y2="53.0" stroke="rgb(0,0,0)"  stroke-width="2.0"/>
<line x1="174.0" y1="100.0" x2="150.6" y2="86.5" stroke="rgb(0,0,0)"  stroke-width="2.0"/>
<line x1="174.0" y1="140.0" x2="139.4" y2="160.0" stroke="rgb(0,0,0)"  stroke-width="2.0"/>
<line x1="135.2" y1="199.8" x2="155.2" y2="217.8" stroke="rgb(0,0,0)"  stroke-width="2.0"/>
<line x1="96.1" y1="208.1" x2="85.1" y2="232.8" stroke="rgb(0,0,0)"  stroke-width="2.0"/>
<line x1="97.2" y1="117.3" x2="100.1" y2="131.0" stroke="rgb(0,0,0)"  stroke-width="2.0"/>
<line x1="66.9" y1="246.0" x2="52.9" y2="247.5" stroke="rgb(0,0,0)"  stroke-width="2.0"/>
<line x1="87.4" y1="255.2" x2="95.7" y2="266.5" stroke="rgb(0,0,0)"  stroke-width="2.0"/>
<line x1="135.2" y1="199.8" x2="139.4" y2="160.0" stroke="rgb(0,0,0)"  stroke-width="2.0"/>
<line x1="128.6" y1="193.1" x2="131.6" y2="165.2" stroke="rgb(0,0,0)"  stroke-width="2.0"/>
<line x1="139.4" y1="160.0" x2="114.7" y2="149.0" stroke="rgb(0,0,0)"  stroke-width="2.0"/>
<line x1="94.1" y1="153.4" x2="84.7" y2="163.8" stroke="rgb(0,0,0)"  stroke-width="2.0"/>
<line x1="82.7" y1="184.9" x2="96.1" y2="208.1" stroke="rgb(0,0,0)"  stroke-width="2.0"/>
<line x1="89.9" y1="183.0" x2="99.3" y2="199.3" stroke="rgb(0,0,0)"  stroke-width="2.0"/>
<line x1="96.1" y1="208.1" x2="135.2" y2="199.8" stroke="rgb(0,0,0)"  stroke-width="2.0"/>
<line x1="243.3" y1="100.0" x2="208.6" y2="80.0" stroke="rgb(0,0,0)"  stroke-width="2.0"/>
<line x1="208.6" y1="80.0" x2="174.0" y2="100.0" stroke="rgb(0,0,0)"  stroke-width="2.0"/>
<line x1="207.0" y1="89.2" x2="182.8" y2="103.2" stroke="rgb(0,0,0)"  stroke-width="2.0"/>
<line x1="174.0" y1="100.0" x2="174.0" y2="140.0" stroke="rgb(0,0,0)"  stroke-width="2.0"/>
<line x1="174.0" y1="140.0" x2="208.6" y2="160.0" stroke="rgb(0,0,0)"  stroke-width="2.0"/>
<line x1="182.8" y1="136.8" x2="207.0" y2="150.8" stroke="rgb(0,0,0)"  stroke-width="2.0"/>
<line x1="208.6" y1="160.0" x2="243.3" y2="140.0" stroke="rgb(0,0,0)"  stroke-width="2.0"/>
<line x1="243.3" y1="140.0" x2="243.3" y2="100.0" stroke="rgb(0,0,0)"  stroke-width="2.0"/>
<line x1="236.1" y1="134.0" x2="236.1" y2="106.0" stroke="rgb(0,0,0)"  stroke-width="2.0"/>
<text x="88.499098" y="112.604630" fill="rgb(191,191,191)"  stroke="rgb(191,191,191)" stroke-width="1" font-size="16" >H</text>
<text x="97.292286" y="284.999842" fill="rgb(191,191,191)"  stroke="rgb(191,191,191)" stroke-width="1" font-size="16" >H</text>
<text x="34.000000" y="256.820300" fill="rgb(191,191,191)"  stroke="rgb(191,191,191)" stroke-width="1" font-size="16" >H</text>
<text x="158.902039" y="234.546100" fill="rgb(191,191,191)"  stroke="rgb(191,191,191)" stroke-width="1" font-size="16" >H</text>
<text x="133.357384" y="88.000000" fill="rgb(191,191,191)"  stroke="rgb(191,191,191)" stroke-width="1" font-size="16" >H</text>
<text x="202.639416" y="48.000000" fill="rgb(191,191,191)"  stroke="rgb(191,191,191)" stroke-width="1" font-size="16" >H</text>
<text x="271.921449" y="168.000000" fill="rgb(191,191,191)"  stroke="rgb(191,191,191)" stroke-width="1" font-size="16" >H</text>
<text x="202.639416" y="208.000000" fill="rgb(191,191,191)"  stroke="rgb(191,191,191)" stroke-width="1" font-size="16" >H</text>
<text x="271.921449" y="88.000000" fill="rgb(127,178,255)"  stroke="rgb(127,178,255)" stroke-width="1" font-size="16" >F</text>
<text x="73.780876" y="252.639162" fill="rgb(12,12,255)"  stroke="rgb(12,12,255)" stroke-width="1" font-size="16" >N</text>
<text x="96.815566" y="151.730534" fill="rgb(12,12,255)"  stroke="rgb(12,12,255)" stroke-width="1" font-size="16" >N</text>
<text x="70.050342" y="181.456327" fill="rgb(12,12,255)"  stroke="rgb(12,12,255)" stroke-width="1" font-size="16" >N</text>
</svg>
</g>
<text font-size="18.000000" fill ="black" font-family="sans-serif"
x="10.000000" y="20.000000" >ZINC04234693</text>
</svg>
