<?xml version="1.0"?>
<svg version="1.1" id="topsvg"
xmlns="http://www.w3.org/2000/svg" xmlns:xlink="http://www.w3.org/1999/xlink"
xmlns:cml="http://www.xml-cml.org/schema" x="0" y="0" width="200px" height="200px" viewBox="0 0 100 100">
<title>ZINC00484602 - Open Babel Depiction</title>
<rect x="0" y="0" width="100" height="100" fill="white"/>
<g transform="translate(0,0)">
<svg width="100" height="100" x="0" y="0" viewBox="0 0 347.323 335.106"
font-family="sans-serif" stroke="rgb(0,0,0)" stroke-width="2"  stroke-linecap="round">
<line x1="269.6" y1="266.4" x2="261.6" y2="228.7" stroke="rgb(0,0,0)"  stroke-width="2.0"/>
<line x1="269.6" y1="266.4" x2="286.7" y2="285.4" stroke="rgb(0,0,0)"  stroke-width="2.0"/>
<line x1="269.6" y1="266.4" x2="294.6" y2="261.1" stroke="rgb(0,0,0)"  stroke-width="2.0"/>
<line x1="269.6" y1="266.4" x2="250.6" y2="283.6" stroke="rgb(0,0,0)"  stroke-width="2.0"/>
<line x1="259.6" y1="226.5" x2="278.6" y2="209.4" stroke="rgb(0,0,0)"  stroke-width="2.0"/>
<line x1="263.6" y1="230.9" x2="282.6" y2="213.8" stroke="rgb(0,0,0)"  stroke-width="2.0"/>
<line x1="261.6" y1="228.7" x2="237.3" y2="220.8" stroke="rgb(0,0,0)"  stroke-width="2.0"/>
<line x1="222.2" y1="204.1" x2="208.9" y2="141.3" stroke="rgb(0,0,0)"  stroke-width="2.0"/>
<line x1="215.2" y1="225.5" x2="205.9" y2="233.9" stroke="rgb(0,0,0)"  stroke-width="2.0"/>
<line x1="173.6" y1="125.6" x2="140.2" y2="144.9" stroke="rgb(0,0,0)"  stroke-width="2.0"/>
<line x1="215.4" y1="79.3" x2="225.8" y2="55.9" stroke="rgb(0,0,0)"  stroke-width="2.0"/>
<line x1="244.0" y1="42.7" x2="256.5" y2="41.4" stroke="rgb(0,0,0)"  stroke-width="2.0"/>
<line x1="140.2" y1="183.5" x2="162.4" y2="196.3" stroke="rgb(0,0,0)"  stroke-width="2.0"/>
<line x1="106.8" y1="202.8" x2="106.8" y2="228.4" stroke="rgb(0,0,0)"  stroke-width="2.0"/>
<line x1="73.4" y1="183.5" x2="51.3" y2="196.3" stroke="rgb(0,0,0)"  stroke-width="2.0"/>
<line x1="73.4" y1="144.9" x2="51.3" y2="132.1" stroke="rgb(0,0,0)"  stroke-width="2.0"/>
<line x1="106.8" y1="125.6" x2="106.8" y2="100.1" stroke="rgb(0,0,0)"  stroke-width="2.0"/>
<line x1="190.1" y1="84.6" x2="215.4" y2="79.3" stroke="rgb(0,0,0)"  stroke-width="2.0"/>
<line x1="193.7" y1="91.2" x2="211.0" y2="87.6" stroke="rgb(0,0,0)"  stroke-width="2.0"/>
<line x1="215.4" y1="79.3" x2="228.2" y2="101.4" stroke="rgb(0,0,0)"  stroke-width="2.0"/>
<line x1="226.0" y1="122.3" x2="208.9" y2="141.3" stroke="rgb(0,0,0)"  stroke-width="2.0"/>
<line x1="208.9" y1="141.3" x2="173.6" y2="125.6" stroke="rgb(0,0,0)"  stroke-width="2.0"/>
<line x1="206.3" y1="132.3" x2="182.0" y2="121.5" stroke="rgb(0,0,0)"  stroke-width="2.0"/>
<line x1="173.6" y1="125.6" x2="176.3" y2="100.2" stroke="rgb(0,0,0)"  stroke-width="2.0"/>
<line x1="106.8" y1="202.8" x2="73.4" y2="183.5" stroke="rgb(0,0,0)"  stroke-width="2.0"/>
<line x1="73.4" y1="183.5" x2="73.4" y2="144.9" stroke="rgb(0,0,0)"  stroke-width="2.0"/>
<line x1="80.6" y1="177.5" x2="80.6" y2="150.9" stroke="rgb(0,0,0)"  stroke-width="2.0"/>
<line x1="73.4" y1="144.9" x2="106.8" y2="125.6" stroke="rgb(0,0,0)"  stroke-width="2.0"/>
<line x1="106.8" y1="125.6" x2="140.2" y2="144.9" stroke="rgb(0,0,0)"  stroke-width="2.0"/>
<line x1="108.4" y1="134.9" x2="131.4" y2="148.2" stroke="rgb(0,0,0)"  stroke-width="2.0"/>
<line x1="140.2" y1="144.9" x2="140.2" y2="183.5" stroke="rgb(0,0,0)"  stroke-width="2.0"/>
<line x1="140.2" y1="183.5" x2="106.8" y2="202.8" stroke="rgb(0,0,0)"  stroke-width="2.0"/>
<line x1="131.4" y1="180.3" x2="108.4" y2="193.6" stroke="rgb(0,0,0)"  stroke-width="2.0"/>
<text x="263.424254" y="48.000000" fill="rgb(191,191,191)"  stroke="rgb(191,191,191)" stroke-width="1" font-size="16" >H</text>
<text x="100.807674" y="95.076718" fill="rgb(191,191,191)"  stroke="rgb(191,191,191)" stroke-width="1" font-size="16" >H</text>
<text x="34.000000" y="133.648147" fill="rgb(191,191,191)"  stroke="rgb(191,191,191)" stroke-width="1" font-size="16" >H</text>
<text x="34.000000" y="210.791004" fill="rgb(191,191,191)"  stroke="rgb(191,191,191)" stroke-width="1" font-size="16" >H</text>
<text x="100.807674" y="249.362432" fill="rgb(191,191,191)"  stroke="rgb(191,191,191)" stroke-width="1" font-size="16" >H</text>
<text x="167.615348" y="210.791004" fill="rgb(191,191,191)"  stroke="rgb(191,191,191)" stroke-width="1" font-size="16" >H</text>
<text x="190.226846" y="250.602984" fill="rgb(191,191,191)"  stroke="rgb(191,191,191)" stroke-width="1" font-size="16" >H</text>
<text x="234.929905" y="300.250761" fill="rgb(191,191,191)"  stroke="rgb(191,191,191)" stroke-width="1" font-size="16" >H</text>
<text x="301.322613" y="266.421987" fill="rgb(191,191,191)"  stroke="rgb(191,191,191)" stroke-width="1" font-size="16" >H</text>
<text x="289.403386" y="303.105596" fill="rgb(191,191,191)"  stroke="rgb(191,191,191)" stroke-width="1" font-size="16" >H</text>
<text x="225.064124" y="52.031812" fill="rgb(12,12,255)"  stroke="rgb(12,12,255)" stroke-width="1" font-size="16" >N</text>
<text x="225.064124" y="36.031812" fill="rgb(12,12,255)"  stroke="rgb(12,12,255)" stroke-width="1" font-size="16" >H</text>
<text x="228.661425" y="120.672403" fill="rgb(178,178,0)"  stroke="rgb(178,178,0)" stroke-width="1" font-size="16" >S</text>
<text x="171.647160" y="95.288016" fill="rgb(12,12,255)"  stroke="rgb(12,12,255)" stroke-width="1" font-size="16" >N</text>
<text x="218.891003" y="224.793661" fill="rgb(12,12,255)"  stroke="rgb(12,12,255)" stroke-width="1" font-size="16" >N</text>
<text x="284.238769" y="210.903564" fill="rgb(255,12,12)"  stroke="rgb(255,12,12)" stroke-width="1" font-size="16" >O</text>
</svg>
</g>
<text font-size="18.000000" fill ="black" font-family="sans-serif"
x="10.000000" y="20.000000" >ZINC00484602</text>
</svg>
