<?xml version="1.0"?>
<svg version="1.1" id="topsvg"
xmlns="http://www.w3.org/2000/svg" xmlns:xlink="http://www.w3.org/1999/xlink"
xmlns:cml="http://www.xml-cml.org/schema" x="0" y="0" width="200px" height="200px" viewBox="0 0 100 100">
<title>ZINC05210902 - Open Babel Depiction</title>
<rect x="0" y="0" width="100" height="100" fill="white"/>
<g transform="translate(0,0)">
<svg width="100" height="100" x="0" y="0" viewBox="0 0 466.41 334.641"
font-family="sans-serif" stroke="rgb(0,0,0)" stroke-width="2"  stroke-linecap="round">
<line x1="357.1" y1="74.6" x2="357.1" y2="101.6" stroke="rgb(0,0,0)"  stroke-width="2.0"/>
<line x1="357.1" y1="74.6" x2="343.6" y2="51.3" stroke="rgb(0,0,0)"  stroke-width="2.0"/>
<line x1="357.1" y1="74.6" x2="330.1" y2="74.6" stroke="rgb(0,0,0)"  stroke-width="2.0"/>
<line x1="357.1" y1="74.6" x2="380.5" y2="61.1" stroke="rgb(0,0,0)"  stroke-width="2.0"/>
<line x1="345.9" y1="121.1" x2="322.5" y2="134.6" stroke="rgb(0,0,0)"  stroke-width="2.0"/>
<line x1="287.8" y1="114.6" x2="287.8" y2="87.6" stroke="rgb(0,0,0)"  stroke-width="2.0"/>
<line x1="253.2" y1="134.6" x2="229.8" y2="121.1" stroke="rgb(0,0,0)"  stroke-width="2.0"/>
<line x1="253.2" y1="174.6" x2="218.6" y2="194.6" stroke="rgb(0,0,0)"  stroke-width="2.0"/>
<line x1="287.8" y1="194.6" x2="287.8" y2="221.6" stroke="rgb(0,0,0)"  stroke-width="2.0"/>
<line x1="322.5" y1="174.6" x2="345.9" y2="188.1" stroke="rgb(0,0,0)"  stroke-width="2.0"/>
<line x1="368.4" y1="188.1" x2="391.8" y2="174.6" stroke="rgb(0,0,0)"  stroke-width="2.0"/>
<line x1="391.8" y1="174.6" x2="405.3" y2="151.3" stroke="rgb(0,0,0)"  stroke-width="2.0"/>
<line x1="391.8" y1="174.6" x2="378.3" y2="151.3" stroke="rgb(0,0,0)"  stroke-width="2.0"/>
<line x1="391.8" y1="174.6" x2="415.2" y2="188.1" stroke="rgb(0,0,0)"  stroke-width="2.0"/>
<line x1="218.6" y1="194.6" x2="195.2" y2="181.1" stroke="rgb(0,0,0)"  stroke-width="2.0"/>
<line x1="218.6" y1="194.6" x2="205.1" y2="218.0" stroke="rgb(0,0,0)"  stroke-width="2.0"/>
<line x1="218.6" y1="194.6" x2="232.1" y2="218.0" stroke="rgb(0,0,0)"  stroke-width="2.0"/>
<line x1="174.2" y1="183.7" x2="150.8" y2="197.2" stroke="rgb(0,0,0)"  stroke-width="2.0"/>
<line x1="171.2" y1="178.5" x2="147.8" y2="192.0" stroke="rgb(0,0,0)"  stroke-width="2.0"/>
<line x1="149.3" y1="234.6" x2="172.7" y2="248.1" stroke="rgb(0,0,0)"  stroke-width="2.0"/>
<line x1="114.6" y1="254.6" x2="114.6" y2="281.6" stroke="rgb(0,0,0)"  stroke-width="2.0"/>
<line x1="80.0" y1="234.6" x2="66.5" y2="258.0" stroke="rgb(0,0,0)"  stroke-width="2.0"/>
<line x1="80.0" y1="234.6" x2="53.0" y2="234.6" stroke="rgb(0,0,0)"  stroke-width="2.0"/>
<line x1="80.0" y1="194.6" x2="53.0" y2="194.6" stroke="rgb(0,0,0)"  stroke-width="2.0"/>
<line x1="80.0" y1="194.6" x2="66.5" y2="171.3" stroke="rgb(0,0,0)"  stroke-width="2.0"/>
<line x1="114.6" y1="174.6" x2="101.1" y2="151.3" stroke="rgb(0,0,0)"  stroke-width="2.0"/>
<line x1="114.6" y1="174.6" x2="128.1" y2="151.3" stroke="rgb(0,0,0)"  stroke-width="2.0"/>
<line x1="253.2" y1="134.6" x2="253.2" y2="174.6" stroke="rgb(0,0,0)"  stroke-width="2.0"/>
<line x1="253.2" y1="174.6" x2="287.8" y2="194.6" stroke="rgb(0,0,0)"  stroke-width="2.0"/>
<line x1="262.0" y1="171.4" x2="286.2" y2="185.4" stroke="rgb(0,0,0)"  stroke-width="2.0"/>
<line x1="287.8" y1="194.6" x2="322.5" y2="174.6" stroke="rgb(0,0,0)"  stroke-width="2.0"/>
<line x1="322.5" y1="174.6" x2="322.5" y2="134.6" stroke="rgb(0,0,0)"  stroke-width="2.0"/>
<line x1="315.3" y1="168.6" x2="315.3" y2="140.6" stroke="rgb(0,0,0)"  stroke-width="2.0"/>
<line x1="322.5" y1="134.6" x2="287.8" y2="114.6" stroke="rgb(0,0,0)"  stroke-width="2.0"/>
<line x1="287.8" y1="114.6" x2="253.2" y2="134.6" stroke="rgb(0,0,0)"  stroke-width="2.0"/>
<line x1="286.2" y1="123.9" x2="262.0" y2="137.9" stroke="rgb(0,0,0)"  stroke-width="2.0"/>
<line x1="114.6" y1="254.6" x2="80.0" y2="234.6" stroke="rgb(0,0,0)"  stroke-width="2.0"/>
<line x1="80.0" y1="234.6" x2="80.0" y2="194.6" stroke="rgb(0,0,0)"  stroke-width="2.0"/>
<line x1="80.0" y1="194.6" x2="114.6" y2="174.6" stroke="rgb(0,0,0)"  stroke-width="2.0"/>
<line x1="114.6" y1="174.6" x2="149.3" y2="194.6" stroke="rgb(0,0,0)"  stroke-width="2.0"/>
<line x1="149.3" y1="194.6" x2="149.3" y2="234.6" stroke="rgb(0,0,0)"  stroke-width="2.0"/>
<line x1="149.3" y1="234.6" x2="114.6" y2="254.6" stroke="rgb(0,0,0)"  stroke-width="2.0"/>
<line x1="140.5" y1="231.4" x2="116.2" y2="245.4" stroke="rgb(0,0,0)"  stroke-width="2.0"/>
<text x="192.564065" y="237.282032" fill="rgb(191,191,191)"  stroke="rgb(191,191,191)" stroke-width="1" font-size="16" >H</text>
<text x="331.128129" y="48.000000" fill="rgb(191,191,191)"  stroke="rgb(191,191,191)" stroke-width="1" font-size="16" >H</text>
<text x="311.128129" y="82.641016" fill="rgb(191,191,191)"  stroke="rgb(191,191,191)" stroke-width="1" font-size="16" >H</text>
<text x="385.769145" y="62.641016" fill="rgb(191,191,191)"  stroke="rgb(191,191,191)" stroke-width="1" font-size="16" >H</text>
<text x="281.846097" y="82.641016" fill="rgb(191,191,191)"  stroke="rgb(191,191,191)" stroke-width="1" font-size="16" >H</text>
<text x="212.564065" y="122.641016" fill="rgb(191,191,191)"  stroke="rgb(191,191,191)" stroke-width="1" font-size="16" >H</text>
<text x="281.846097" y="242.641016" fill="rgb(191,191,191)"  stroke="rgb(191,191,191)" stroke-width="1" font-size="16" >H</text>
<text x="405.769145" y="148.000000" fill="rgb(191,191,191)"  stroke="rgb(191,191,191)" stroke-width="1" font-size="16" >H</text>
<text x="365.769145" y="148.000000" fill="rgb(191,191,191)"  stroke="rgb(191,191,191)" stroke-width="1" font-size="16" >H</text>
<text x="420.410162" y="202.641016" fill="rgb(191,191,191)"  stroke="rgb(191,191,191)" stroke-width="1" font-size="16" >H</text>
<text x="232.564065" y="237.282032" fill="rgb(191,191,191)"  stroke="rgb(191,191,191)" stroke-width="1" font-size="16" >H</text>
<text x="177.923048" y="262.641016" fill="rgb(191,191,191)"  stroke="rgb(191,191,191)" stroke-width="1" font-size="16" >H</text>
<text x="54.000000" y="277.282032" fill="rgb(191,191,191)"  stroke="rgb(191,191,191)" stroke-width="1" font-size="16" >H</text>
<text x="34.000000" y="242.641016" fill="rgb(191,191,191)"  stroke="rgb(191,191,191)" stroke-width="1" font-size="16" >H</text>
<text x="34.000000" y="202.641016" fill="rgb(191,191,191)"  stroke="rgb(191,191,191)" stroke-width="1" font-size="16" >H</text>
<text x="54.000000" y="168.000000" fill="rgb(191,191,191)"  stroke="rgb(191,191,191)" stroke-width="1" font-size="16" >H</text>
<text x="88.641016" y="148.000000" fill="rgb(191,191,191)"  stroke="rgb(191,191,191)" stroke-width="1" font-size="16" >H</text>
<text x="128.641016" y="148.000000" fill="rgb(191,191,191)"  stroke="rgb(191,191,191)" stroke-width="1" font-size="16" >H</text>
<text x="351.128129" y="122.641016" fill="rgb(255,12,12)"  stroke="rgb(255,12,12)" stroke-width="1" font-size="16" >O</text>
<text x="351.128129" y="202.641016" fill="rgb(255,12,12)"  stroke="rgb(255,12,12)" stroke-width="1" font-size="16" >O</text>
<text x="177.923048" y="182.641016" fill="rgb(12,12,255)"  stroke="rgb(12,12,255)" stroke-width="1" font-size="16" >N</text>
<text x="108.641016" y="302.641016" fill="rgb(255,12,12)"  stroke="rgb(255,12,12)" stroke-width="1" font-size="16" >OH</text>
</svg>
</g>
<text font-size="18.000000" fill ="black" font-family="sans-serif"
x="10.000000" y="20.000000" >ZINC05210902</text>
</svg>
