<?xml version="1.0"?>
<svg version="1.1" id="topsvg"
xmlns="http://www.w3.org/2000/svg" xmlns:xlink="http://www.w3.org/1999/xlink"
xmlns:cml="http://www.xml-cml.org/schema" x="0" y="0" width="200px" height="200px" viewBox="0 0 100 100">
<title> - Open Babel Depiction</title>
<rect x="0" y="0" width="100" height="100" fill="white"/>
<g transform="translate(0,0)">
<svg width="100" height="100" x="0" y="0" viewBox="0 0 550.917 507.246"
font-family="sans-serif" stroke="rgb(0,0,0)" stroke-width="2"  stroke-linecap="round">
<line x1="432.4" y1="221.3" x2="410.0" y2="234.2" stroke="rgb(0,0,0)"  stroke-width="2.0"/>
<line x1="373.4" y1="214.8" x2="373.4" y2="188.9" stroke="rgb(0,0,0)"  stroke-width="2.0"/>
<line x1="379.4" y1="214.8" x2="379.4" y2="188.9" stroke="rgb(0,0,0)"  stroke-width="2.0"/>
<line x1="342.7" y1="234.2" x2="309.1" y2="214.8" stroke="rgb(0,0,0)"  stroke-width="2.0"/>
<line x1="309.1" y1="214.8" x2="309.1" y2="188.9" stroke="rgb(0,0,0)"  stroke-width="2.0"/>
<line x1="297.8" y1="169.4" x2="275.5" y2="156.5" stroke="rgb(0,0,0)"  stroke-width="2.0"/>
<line x1="275.5" y1="156.5" x2="241.8" y2="175.9" stroke="rgb(0,0,0)"  stroke-width="2.0"/>
<line x1="320.4" y1="169.4" x2="342.7" y2="156.5" stroke="rgb(0,0,0)"  stroke-width="2.0"/>
<line x1="342.7" y1="156.5" x2="342.7" y2="117.7" stroke="rgb(0,0,0)"  stroke-width="2.0"/>
<line x1="376.4" y1="331.3" x2="443.6" y2="370.1" stroke="rgb(0,0,0)"  stroke-width="2.0"/>
<line x1="443.6" y1="409.0" x2="410.0" y2="428.4" stroke="rgb(0,0,0)"  stroke-width="2.0"/>
<line x1="408.5" y1="431.0" x2="386.1" y2="418.1" stroke="rgb(0,0,0)"  stroke-width="2.0"/>
<line x1="411.5" y1="425.8" x2="389.1" y2="412.9" stroke="rgb(0,0,0)"  stroke-width="2.0"/>
<line x1="410.0" y1="428.4" x2="410.0" y2="454.2" stroke="rgb(0,0,0)"  stroke-width="2.0"/>
<line x1="275.5" y1="350.7" x2="241.8" y2="331.3" stroke="rgb(0,0,0)"  stroke-width="2.0"/>
<line x1="241.8" y1="331.3" x2="219.4" y2="344.2" stroke="rgb(0,0,0)"  stroke-width="2.0"/>
<line x1="196.9" y1="344.2" x2="140.9" y2="311.9" stroke="rgb(0,0,0)"  stroke-width="2.0"/>
<line x1="140.9" y1="311.9" x2="107.3" y2="331.3" stroke="rgb(0,0,0)"  stroke-width="2.0"/>
<line x1="73.6" y1="298.9" x2="73.6" y2="286.0" stroke="rgb(0,0,0)"  stroke-width="2.0"/>
<line x1="208.2" y1="363.7" x2="208.2" y2="389.6" stroke="rgb(0,0,0)"  stroke-width="2.0"/>
<line x1="208.2" y1="389.6" x2="174.5" y2="409.0" stroke="rgb(0,0,0)"  stroke-width="2.0"/>
<line x1="275.5" y1="389.6" x2="253.1" y2="402.5" stroke="rgb(0,0,0)"  stroke-width="2.0"/>
<line x1="309.1" y1="409.0" x2="309.1" y2="434.8" stroke="rgb(0,0,0)"  stroke-width="2.0"/>
<line x1="376.4" y1="292.5" x2="342.7" y2="273.0" stroke="rgb(0,0,0)"  stroke-width="2.0"/>
<line x1="342.7" y1="273.0" x2="342.7" y2="234.2" stroke="rgb(0,0,0)"  stroke-width="2.0"/>
<line x1="349.9" y1="267.0" x2="349.9" y2="240.2" stroke="rgb(0,0,0)"  stroke-width="2.0"/>
<line x1="342.7" y1="234.2" x2="376.4" y2="214.8" stroke="rgb(0,0,0)"  stroke-width="2.0"/>
<line x1="376.4" y1="214.8" x2="410.0" y2="234.2" stroke="rgb(0,0,0)"  stroke-width="2.0"/>
<line x1="410.0" y1="234.2" x2="410.0" y2="273.0" stroke="rgb(0,0,0)"  stroke-width="2.0"/>
<line x1="402.8" y1="240.2" x2="402.8" y2="267.0" stroke="rgb(0,0,0)"  stroke-width="2.0"/>
<line x1="410.0" y1="273.0" x2="376.4" y2="292.5" stroke="rgb(0,0,0)"  stroke-width="2.0"/>
<line x1="342.7" y1="350.7" x2="309.1" y2="331.3" stroke="rgb(0,0,0)"  stroke-width="2.0"/>
<line x1="341.1" y1="341.5" x2="317.9" y2="328.1" stroke="rgb(0,0,0)"  stroke-width="2.0"/>
<line x1="309.1" y1="331.3" x2="309.1" y2="305.5" stroke="rgb(0,0,0)"  stroke-width="2.0"/>
<line x1="320.4" y1="286.0" x2="342.7" y2="273.0" stroke="rgb(0,0,0)"  stroke-width="2.0"/>
<line x1="376.4" y1="292.5" x2="376.4" y2="331.3" stroke="rgb(0,0,0)"  stroke-width="2.0"/>
<line x1="369.2" y1="298.5" x2="369.2" y2="325.3" stroke="rgb(0,0,0)"  stroke-width="2.0"/>
<line x1="376.4" y1="331.3" x2="342.7" y2="350.7" stroke="rgb(0,0,0)"  stroke-width="2.0"/>
<line x1="275.5" y1="389.6" x2="275.5" y2="350.7" stroke="rgb(0,0,0)"  stroke-width="2.0"/>
<line x1="282.7" y1="383.6" x2="282.7" y2="356.7" stroke="rgb(0,0,0)"  stroke-width="2.0"/>
<line x1="275.5" y1="350.7" x2="309.1" y2="331.3" stroke="rgb(0,0,0)"  stroke-width="2.0"/>
<line x1="342.7" y1="350.7" x2="342.7" y2="389.6" stroke="rgb(0,0,0)"  stroke-width="2.0"/>
<line x1="342.7" y1="389.6" x2="309.1" y2="409.0" stroke="rgb(0,0,0)"  stroke-width="2.0"/>
<line x1="333.9" y1="386.3" x2="310.7" y2="399.8" stroke="rgb(0,0,0)"  stroke-width="2.0"/>
<line x1="309.1" y1="409.0" x2="275.5" y2="389.6" stroke="rgb(0,0,0)"  stroke-width="2.0"/>
<line x1="174.5" y1="175.9" x2="174.5" y2="214.8" stroke="rgb(0,0,0)"  stroke-width="2.0"/>
<line x1="181.7" y1="181.9" x2="181.7" y2="208.8" stroke="rgb(0,0,0)"  stroke-width="2.0"/>
<line x1="174.5" y1="214.8" x2="208.2" y2="234.2" stroke="rgb(0,0,0)"  stroke-width="2.0"/>
<line x1="208.2" y1="234.2" x2="230.7" y2="221.2" stroke="rgb(0,0,0)"  stroke-width="2.0"/>
<line x1="209.8" y1="225.0" x2="225.3" y2="216.0" stroke="rgb(0,0,0)"  stroke-width="2.0"/>
<line x1="241.8" y1="201.8" x2="241.8" y2="175.9" stroke="rgb(0,0,0)"  stroke-width="2.0"/>
<line x1="241.8" y1="175.9" x2="208.2" y2="156.5" stroke="rgb(0,0,0)"  stroke-width="2.0"/>
<line x1="233.0" y1="179.2" x2="209.8" y2="165.8" stroke="rgb(0,0,0)"  stroke-width="2.0"/>
<line x1="208.2" y1="156.5" x2="174.5" y2="175.9" stroke="rgb(0,0,0)"  stroke-width="2.0"/>
<line x1="376.4" y1="59.4" x2="342.7" y2="40.0" stroke="rgb(0,0,0)"  stroke-width="2.0"/>
<line x1="367.6" y1="62.7" x2="344.3" y2="49.2" stroke="rgb(0,0,0)"  stroke-width="2.0"/>
<line x1="342.7" y1="40.0" x2="309.1" y2="59.4" stroke="rgb(0,0,0)"  stroke-width="2.0"/>
<line x1="309.1" y1="59.4" x2="309.1" y2="85.4" stroke="rgb(0,0,0)"  stroke-width="2.0"/>
<line x1="316.3" y1="65.4" x2="316.3" y2="83.3" stroke="rgb(0,0,0)"  stroke-width="2.0"/>
<line x1="320.4" y1="104.8" x2="342.7" y2="117.7" stroke="rgb(0,0,0)"  stroke-width="2.0"/>
<line x1="342.7" y1="117.7" x2="376.4" y2="98.3" stroke="rgb(0,0,0)"  stroke-width="2.0"/>
<line x1="344.3" y1="108.4" x2="367.6" y2="95.0" stroke="rgb(0,0,0)"  stroke-width="2.0"/>
<line x1="376.4" y1="98.3" x2="376.4" y2="59.4" stroke="rgb(0,0,0)"  stroke-width="2.0"/>
<line x1="510.9" y1="370.1" x2="510.9" y2="409.0" stroke="rgb(0,0,0)"  stroke-width="2.0"/>
<line x1="503.7" y1="376.1" x2="503.7" y2="403.0" stroke="rgb(0,0,0)"  stroke-width="2.0"/>
<line x1="510.9" y1="409.0" x2="477.3" y2="428.4" stroke="rgb(0,0,0)"  stroke-width="2.0"/>
<line x1="477.3" y1="428.4" x2="443.6" y2="409.0" stroke="rgb(0,0,0)"  stroke-width="2.0"/>
<line x1="475.7" y1="419.2" x2="452.4" y2="405.8" stroke="rgb(0,0,0)"  stroke-width="2.0"/>
<line x1="443.6" y1="409.0" x2="443.6" y2="370.1" stroke="rgb(0,0,0)"  stroke-width="2.0"/>
<line x1="443.6" y1="370.1" x2="477.3" y2="350.7" stroke="rgb(0,0,0)"  stroke-width="2.0"/>
<line x1="452.4" y1="373.4" x2="475.7" y2="360.0" stroke="rgb(0,0,0)"  stroke-width="2.0"/>
<line x1="477.3" y1="350.7" x2="510.9" y2="370.1" stroke="rgb(0,0,0)"  stroke-width="2.0"/>
<line x1="73.6" y1="389.6" x2="40.0" y2="370.1" stroke="rgb(0,0,0)"  stroke-width="2.0"/>
<line x1="72.0" y1="380.3" x2="48.8" y2="366.9" stroke="rgb(0,0,0)"  stroke-width="2.0"/>
<line x1="40.0" y1="370.1" x2="40.0" y2="331.3" stroke="rgb(0,0,0)"  stroke-width="2.0"/>
<line x1="40.0" y1="331.3" x2="62.5" y2="318.3" stroke="rgb(0,0,0)"  stroke-width="2.0"/>
<line x1="48.8" y1="334.5" x2="64.3" y2="325.6" stroke="rgb(0,0,0)"  stroke-width="2.0"/>
<line x1="84.9" y1="318.4" x2="107.3" y2="331.3" stroke="rgb(0,0,0)"  stroke-width="2.0"/>
<line x1="107.3" y1="331.3" x2="107.3" y2="370.1" stroke="rgb(0,0,0)"  stroke-width="2.0"/>
<line x1="100.1" y1="337.3" x2="100.1" y2="364.1" stroke="rgb(0,0,0)"  stroke-width="2.0"/>
<line x1="107.3" y1="370.1" x2="73.6" y2="389.6" stroke="rgb(0,0,0)"  stroke-width="2.0"/>
<line x1="140.9" y1="467.2" x2="107.3" y2="447.8" stroke="rgb(0,0,0)"  stroke-width="2.0"/>
<line x1="139.3" y1="458.0" x2="116.1" y2="444.6" stroke="rgb(0,0,0)"  stroke-width="2.0"/>
<line x1="107.3" y1="447.8" x2="107.3" y2="409.0" stroke="rgb(0,0,0)"  stroke-width="2.0"/>
<line x1="107.3" y1="409.0" x2="129.8" y2="396.0" stroke="rgb(0,0,0)"  stroke-width="2.0"/>
<line x1="116.1" y1="412.2" x2="131.6" y2="403.3" stroke="rgb(0,0,0)"  stroke-width="2.0"/>
<line x1="152.2" y1="396.1" x2="174.5" y2="409.0" stroke="rgb(0,0,0)"  stroke-width="2.0"/>
<line x1="174.5" y1="409.0" x2="174.5" y2="447.8" stroke="rgb(0,0,0)"  stroke-width="2.0"/>
<line x1="167.3" y1="415.0" x2="167.3" y2="441.8" stroke="rgb(0,0,0)"  stroke-width="2.0"/>
<line x1="174.5" y1="447.8" x2="140.9" y2="467.2" stroke="rgb(0,0,0)"  stroke-width="2.0"/>
<text x="370.369287" y="416.985507" fill="rgb(255,12,12)"  stroke="rgb(255,12,12)" stroke-width="1" font-size="16" >O</text>
<text x="404.006216" y="475.246377" fill="rgb(255,12,12)"  stroke="rgb(255,12,12)" stroke-width="1" font-size="16" >OH</text>
<text x="202.184644" y="358.724638" fill="rgb(12,12,255)"  stroke="rgb(12,12,255)" stroke-width="1" font-size="16" >N</text>
<text x="78.436929" y="307.852058" fill="rgb(12,12,255)"  stroke="rgb(12,12,255)" stroke-width="1" font-size="16" >+</text>
<text x="67.636929" y="319.884058" fill="rgb(12,12,255)"  stroke="rgb(12,12,255)" stroke-width="1" font-size="16" >N</text>
<text x="67.636929" y="281.043478" fill="rgb(191,191,191)"  stroke="rgb(191,191,191)" stroke-width="1" font-size="16" >H</text>
<text x="134.910786" y="397.565217" fill="rgb(12,12,255)"  stroke="rgb(12,12,255)" stroke-width="1" font-size="16" >N</text>
<text x="223.821572" y="416.985507" fill="rgb(255,12,12)"  stroke="rgb(255,12,12)" stroke-width="1" font-size="16" >HO</text>
<text x="303.095430" y="455.826087" fill="rgb(30,239,30)"  stroke="rgb(30,239,30)" stroke-width="1" font-size="16" >Cl</text>
<text x="370.369287" y="183.942029" fill="rgb(255,12,12)"  stroke="rgb(255,12,12)" stroke-width="1" font-size="16" >O</text>
<text x="303.095430" y="183.942029" fill="rgb(12,12,255)"  stroke="rgb(12,12,255)" stroke-width="1" font-size="16" >N</text>
<text x="437.643145" y="222.782609" fill="rgb(30,239,30)"  stroke="rgb(30,239,30)" stroke-width="1" font-size="16" >Cl</text>
<text x="235.821572" y="222.782609" fill="rgb(12,12,255)"  stroke="rgb(12,12,255)" stroke-width="1" font-size="16" >N</text>
<text x="303.095430" y="106.260870" fill="rgb(12,12,255)"  stroke="rgb(12,12,255)" stroke-width="1" font-size="16" >N</text>
<text x="303.095430" y="300.463768" fill="rgb(255,12,12)"  stroke="rgb(255,12,12)" stroke-width="1" font-size="16" >O</text>
</svg>
</g>
<text font-size="18.000000" fill ="black" font-family="sans-serif"
x="10.000000" y="20.000000" ></text>
</svg>
