<?xml version="1.0"?>
<svg version="1.1" id="topsvg"
xmlns="http://www.w3.org/2000/svg" xmlns:xlink="http://www.w3.org/1999/xlink"
xmlns:cml="http://www.xml-cml.org/schema" x="0" y="0" width="200px" height="200px" viewBox="0 0 100 100">
<title>ZINC19796168 - Open Babel Depiction</title>
<rect x="0" y="0" width="100" height="100" fill="white"/>
<g transform="translate(0,0)">
<svg width="100" height="100" x="0" y="0" viewBox="0 0 547.068 509.461"
font-family="sans-serif" stroke="rgb(0,0,0)" stroke-width="2"  stroke-linecap="round">
<line x1="469.7" y1="196.4" x2="444.1" y2="224.8" stroke="rgb(0,0,0)"  stroke-width="2.0"/>
<line x1="469.7" y1="196.4" x2="474.9" y2="171.7" stroke="rgb(0,0,0)"  stroke-width="2.0"/>
<line x1="469.7" y1="196.4" x2="450.9" y2="179.5" stroke="rgb(0,0,0)"  stroke-width="2.0"/>
<line x1="469.7" y1="196.4" x2="494.4" y2="201.7" stroke="rgb(0,0,0)"  stroke-width="2.0"/>
<line x1="444.1" y1="224.8" x2="406.7" y2="216.9" stroke="rgb(0,0,0)"  stroke-width="2.0"/>
<line x1="444.1" y1="224.8" x2="438.8" y2="249.5" stroke="rgb(0,0,0)"  stroke-width="2.0"/>
<line x1="444.1" y1="224.8" x2="462.8" y2="241.7" stroke="rgb(0,0,0)"  stroke-width="2.0"/>
<line x1="406.7" y1="216.9" x2="394.9" y2="180.5" stroke="rgb(0,0,0)"  stroke-width="2.0"/>
<line x1="406.7" y1="216.9" x2="382.7" y2="224.7" stroke="rgb(0,0,0)"  stroke-width="2.0"/>
<line x1="406.7" y1="216.9" x2="401.4" y2="241.6" stroke="rgb(0,0,0)"  stroke-width="2.0"/>
<line x1="325.4" y1="111.3" x2="325.4" y2="86.1" stroke="rgb(0,0,0)"  stroke-width="2.0"/>
<line x1="292.3" y1="168.7" x2="259.2" y2="187.8" stroke="rgb(0,0,0)"  stroke-width="2.0"/>
<line x1="259.2" y1="226.1" x2="281.0" y2="238.7" stroke="rgb(0,0,0)"  stroke-width="2.0"/>
<line x1="226.1" y1="245.2" x2="226.1" y2="385.1" stroke="rgb(0,0,0)"  stroke-width="2.0"/>
<line x1="192.9" y1="226.1" x2="171.1" y2="238.7" stroke="rgb(0,0,0)"  stroke-width="2.0"/>
<line x1="192.9" y1="187.8" x2="171.1" y2="175.2" stroke="rgb(0,0,0)"  stroke-width="2.0"/>
<line x1="226.1" y1="168.7" x2="226.1" y2="143.5" stroke="rgb(0,0,0)"  stroke-width="2.0"/>
<line x1="214.8" y1="124.0" x2="192.9" y2="111.3" stroke="rgb(0,0,0)"  stroke-width="2.0"/>
<line x1="192.9" y1="111.3" x2="192.9" y2="73.1" stroke="rgb(0,0,0)"  stroke-width="2.0"/>
<line x1="192.9" y1="111.3" x2="167.7" y2="111.3" stroke="rgb(0,0,0)"  stroke-width="2.0"/>
<line x1="192.9" y1="111.3" x2="180.3" y2="133.2" stroke="rgb(0,0,0)"  stroke-width="2.0"/>
<line x1="192.9" y1="73.1" x2="180.3" y2="51.3" stroke="rgb(0,0,0)"  stroke-width="2.0"/>
<line x1="192.9" y1="73.1" x2="167.7" y2="73.1" stroke="rgb(0,0,0)"  stroke-width="2.0"/>
<line x1="192.9" y1="73.1" x2="214.8" y2="60.5" stroke="rgb(0,0,0)"  stroke-width="2.0"/>
<line x1="239.1" y1="395.1" x2="251.3" y2="395.1" stroke="rgb(0,0,0)"  stroke-width="2.0"/>
<line x1="239.1" y1="401.1" x2="251.3" y2="401.1" stroke="rgb(0,0,0)"  stroke-width="2.0"/>
<line x1="229.1" y1="411.1" x2="229.1" y2="423.3" stroke="rgb(0,0,0)"  stroke-width="2.0"/>
<line x1="223.1" y1="411.1" x2="223.1" y2="423.3" stroke="rgb(0,0,0)"  stroke-width="2.0"/>
<line x1="213.1" y1="398.1" x2="200.8" y2="398.1" stroke="rgb(0,0,0)"  stroke-width="2.0"/>
<line x1="168.7" y1="431.2" x2="190.6" y2="443.8" stroke="rgb(0,0,0)"  stroke-width="2.0"/>
<line x1="168.7" y1="431.2" x2="168.7" y2="456.5" stroke="rgb(0,0,0)"  stroke-width="2.0"/>
<line x1="130.5" y1="431.2" x2="130.5" y2="456.5" stroke="rgb(0,0,0)"  stroke-width="2.0"/>
<line x1="130.5" y1="431.2" x2="108.6" y2="443.8" stroke="rgb(0,0,0)"  stroke-width="2.0"/>
<line x1="98.3" y1="398.1" x2="73.1" y2="398.1" stroke="rgb(0,0,0)"  stroke-width="2.0"/>
<line x1="130.5" y1="365.0" x2="108.6" y2="352.4" stroke="rgb(0,0,0)"  stroke-width="2.0"/>
<line x1="130.5" y1="365.0" x2="130.5" y2="339.8" stroke="rgb(0,0,0)"  stroke-width="2.0"/>
<line x1="168.7" y1="365.0" x2="168.7" y2="339.8" stroke="rgb(0,0,0)"  stroke-width="2.0"/>
<line x1="168.7" y1="365.0" x2="190.6" y2="352.4" stroke="rgb(0,0,0)"  stroke-width="2.0"/>
<line x1="73.1" y1="398.1" x2="51.3" y2="385.5" stroke="rgb(0,0,0)"  stroke-width="2.0"/>
<line x1="73.1" y1="398.1" x2="73.1" y2="372.9" stroke="rgb(0,0,0)"  stroke-width="2.0"/>
<line x1="73.1" y1="398.1" x2="60.5" y2="420.0" stroke="rgb(0,0,0)"  stroke-width="2.0"/>
<line x1="398.9" y1="106.3" x2="406.7" y2="82.3" stroke="rgb(0,0,0)"  stroke-width="2.0"/>
<line x1="406.7" y1="82.3" x2="425.4" y2="65.4" stroke="rgb(0,0,0)"  stroke-width="2.0"/>
<line x1="406.7" y1="82.3" x2="430.7" y2="90.1" stroke="rgb(0,0,0)"  stroke-width="2.0"/>
<line x1="406.7" y1="82.3" x2="389.8" y2="63.5" stroke="rgb(0,0,0)"  stroke-width="2.0"/>
<line x1="358.5" y1="130.5" x2="382.5" y2="122.7" stroke="rgb(0,0,0)"  stroke-width="2.0"/>
<line x1="402.5" y1="129.2" x2="409.7" y2="139.1" stroke="rgb(0,0,0)"  stroke-width="2.0"/>
<line x1="409.9" y1="159.8" x2="394.9" y2="180.5" stroke="rgb(0,0,0)"  stroke-width="2.0"/>
<line x1="402.8" y1="157.3" x2="392.6" y2="171.4" stroke="rgb(0,0,0)"  stroke-width="2.0"/>
<line x1="394.9" y1="180.5" x2="358.5" y2="168.7" stroke="rgb(0,0,0)"  stroke-width="2.0"/>
<line x1="358.5" y1="168.7" x2="358.5" y2="130.5" stroke="rgb(0,0,0)"  stroke-width="2.0"/>
<line x1="292.3" y1="168.7" x2="292.3" y2="143.1" stroke="rgb(0,0,0)"  stroke-width="2.0"/>
<line x1="299.5" y1="162.7" x2="299.5" y2="145.3" stroke="rgb(0,0,0)"  stroke-width="2.0"/>
<line x1="303.5" y1="124.0" x2="325.4" y2="111.3" stroke="rgb(0,0,0)"  stroke-width="2.0"/>
<line x1="325.4" y1="111.3" x2="358.5" y2="130.5" stroke="rgb(0,0,0)"  stroke-width="2.0"/>
<line x1="327.0" y1="120.6" x2="349.7" y2="133.7" stroke="rgb(0,0,0)"  stroke-width="2.0"/>
<line x1="358.5" y1="168.7" x2="336.3" y2="181.5" stroke="rgb(0,0,0)"  stroke-width="2.0"/>
<line x1="349.7" y1="165.5" x2="334.6" y2="174.2" stroke="rgb(0,0,0)"  stroke-width="2.0"/>
<line x1="314.1" y1="181.3" x2="292.3" y2="168.7" stroke="rgb(0,0,0)"  stroke-width="2.0"/>
<line x1="226.1" y1="245.2" x2="192.9" y2="226.1" stroke="rgb(0,0,0)"  stroke-width="2.0"/>
<line x1="192.9" y1="226.1" x2="192.9" y2="187.8" stroke="rgb(0,0,0)"  stroke-width="2.0"/>
<line x1="200.1" y1="220.1" x2="200.1" y2="193.8" stroke="rgb(0,0,0)"  stroke-width="2.0"/>
<line x1="192.9" y1="187.8" x2="226.1" y2="168.7" stroke="rgb(0,0,0)"  stroke-width="2.0"/>
<line x1="226.1" y1="168.7" x2="259.2" y2="187.8" stroke="rgb(0,0,0)"  stroke-width="2.0"/>
<line x1="227.7" y1="177.9" x2="250.4" y2="191.1" stroke="rgb(0,0,0)"  stroke-width="2.0"/>
<line x1="259.2" y1="187.8" x2="259.2" y2="226.1" stroke="rgb(0,0,0)"  stroke-width="2.0"/>
<line x1="259.2" y1="226.1" x2="226.1" y2="245.2" stroke="rgb(0,0,0)"  stroke-width="2.0"/>
<line x1="250.4" y1="222.8" x2="227.7" y2="235.9" stroke="rgb(0,0,0)"  stroke-width="2.0"/>
<line x1="130.5" y1="431.2" x2="117.8" y2="409.4" stroke="rgb(0,0,0)"  stroke-width="2.0"/>
<line x1="117.8" y1="386.9" x2="130.5" y2="365.0" stroke="rgb(0,0,0)"  stroke-width="2.0"/>
<line x1="130.5" y1="365.0" x2="168.7" y2="365.0" stroke="rgb(0,0,0)"  stroke-width="2.0"/>
<line x1="168.7" y1="365.0" x2="181.3" y2="386.9" stroke="rgb(0,0,0)"  stroke-width="2.0"/>
<line x1="181.3" y1="409.4" x2="168.7" y2="431.2" stroke="rgb(0,0,0)"  stroke-width="2.0"/>
<line x1="168.7" y1="431.2" x2="130.5" y2="431.2" stroke="rgb(0,0,0)"  stroke-width="2.0"/>
<text x="220.053912" y="61.995089" fill="rgb(191,191,191)"  stroke="rgb(191,191,191)" stroke-width="1" font-size="16" >H</text>
<text x="471.617869" y="167.015695" fill="rgb(191,191,191)"  stroke="rgb(191,191,191)" stroke-width="1" font-size="16" >H</text>
<text x="435.253944" y="178.831051" fill="rgb(191,191,191)"  stroke="rgb(191,191,191)" stroke-width="1" font-size="16" >H</text>
<text x="501.068066" y="212.365021" fill="rgb(191,191,191)"  stroke="rgb(191,191,191)" stroke-width="1" font-size="16" >H</text>
<text x="430.134334" y="270.229578" fill="rgb(191,191,191)"  stroke="rgb(191,191,191)" stroke-width="1" font-size="16" >H</text>
<text x="466.498260" y="258.414223" fill="rgb(191,191,191)"  stroke="rgb(191,191,191)" stroke-width="1" font-size="16" >H</text>
<text x="364.320212" y="236.695608" fill="rgb(191,191,191)"  stroke="rgb(191,191,191)" stroke-width="1" font-size="16" >H</text>
<text x="392.734573" y="262.280014" fill="rgb(191,191,191)"  stroke="rgb(191,191,191)" stroke-width="1" font-size="16" >H</text>
<text x="286.279385" y="253.171560" fill="rgb(191,191,191)"  stroke="rgb(191,191,191)" stroke-width="1" font-size="16" >H</text>
<text x="153.828440" y="253.171560" fill="rgb(191,191,191)"  stroke="rgb(191,191,191)" stroke-width="1" font-size="16" >H</text>
<text x="153.828440" y="176.700971" fill="rgb(191,191,191)"  stroke="rgb(191,191,191)" stroke-width="1" font-size="16" >H</text>
<text x="148.705882" y="119.348030" fill="rgb(191,191,191)"  stroke="rgb(191,191,191)" stroke-width="1" font-size="16" >H</text>
<text x="167.823529" y="152.460766" fill="rgb(191,191,191)"  stroke="rgb(191,191,191)" stroke-width="1" font-size="16" >H</text>
<text x="167.823529" y="48.000000" fill="rgb(191,191,191)"  stroke="rgb(191,191,191)" stroke-width="1" font-size="16" >H</text>
<text x="148.705882" y="81.112736" fill="rgb(191,191,191)"  stroke="rgb(191,191,191)" stroke-width="1" font-size="16" >H</text>
<text x="411.342924" y="157.583324" fill="rgb(12,12,255)"  stroke="rgb(12,12,255)" stroke-width="1" font-size="16" >N</text>
<text x="195.813707" y="458.343119" fill="rgb(191,191,191)"  stroke="rgb(191,191,191)" stroke-width="1" font-size="16" >H</text>
<text x="162.700971" y="477.460766" fill="rgb(191,191,191)"  stroke="rgb(191,191,191)" stroke-width="1" font-size="16" >H</text>
<text x="124.465677" y="477.460766" fill="rgb(191,191,191)"  stroke="rgb(191,191,191)" stroke-width="1" font-size="16" >H</text>
<text x="91.352941" y="458.343119" fill="rgb(191,191,191)"  stroke="rgb(191,191,191)" stroke-width="1" font-size="16" >H</text>
<text x="91.352941" y="353.882353" fill="rgb(191,191,191)"  stroke="rgb(191,191,191)" stroke-width="1" font-size="16" >H</text>
<text x="124.465677" y="334.764706" fill="rgb(191,191,191)"  stroke="rgb(191,191,191)" stroke-width="1" font-size="16" >H</text>
<text x="162.700971" y="334.764706" fill="rgb(191,191,191)"  stroke="rgb(191,191,191)" stroke-width="1" font-size="16" >H</text>
<text x="195.813707" y="353.882353" fill="rgb(191,191,191)"  stroke="rgb(191,191,191)" stroke-width="1" font-size="16" >H</text>
<text x="34.000000" y="386.995089" fill="rgb(191,191,191)"  stroke="rgb(191,191,191)" stroke-width="1" font-size="16" >H</text>
<text x="67.112736" y="367.877442" fill="rgb(191,191,191)"  stroke="rgb(191,191,191)" stroke-width="1" font-size="16" >H</text>
<text x="47.995089" y="439.225472" fill="rgb(191,191,191)"  stroke="rgb(191,191,191)" stroke-width="1" font-size="16" >H</text>
<text x="429.098499" y="64.701990" fill="rgb(191,191,191)"  stroke="rgb(191,191,191)" stroke-width="1" font-size="16" >H</text>
<text x="437.048064" y="102.101752" fill="rgb(191,191,191)"  stroke="rgb(191,191,191)" stroke-width="1" font-size="16" >H</text>
<text x="375.099732" y="61.872035" fill="rgb(191,191,191)"  stroke="rgb(191,191,191)" stroke-width="1" font-size="16" >H</text>
<text x="319.392121" y="81.112736" fill="rgb(255,12,12)"  stroke="rgb(255,12,12)" stroke-width="1" font-size="16" >OH</text>
<text x="286.279385" y="138.465677" fill="rgb(12,12,255)"  stroke="rgb(12,12,255)" stroke-width="1" font-size="16" >N</text>
<text x="319.392121" y="195.818618" fill="rgb(12,12,255)"  stroke="rgb(12,12,255)" stroke-width="1" font-size="16" >N</text>
<text x="220.053912" y="138.465677" fill="rgb(255,12,12)"  stroke="rgb(255,12,12)" stroke-width="1" font-size="16" >O</text>
<text x="220.053912" y="406.112736" fill="rgb(178,178,0)"  stroke="rgb(178,178,0)" stroke-width="1" font-size="16" >S</text>
<text x="258.289207" y="406.112736" fill="rgb(255,12,12)"  stroke="rgb(255,12,12)" stroke-width="1" font-size="16" >O</text>
<text x="220.053912" y="444.348030" fill="rgb(255,12,12)"  stroke="rgb(255,12,12)" stroke-width="1" font-size="16" >O</text>
<text x="181.818618" y="406.112736" fill="rgb(12,12,255)"  stroke="rgb(12,12,255)" stroke-width="1" font-size="16" >N</text>
<text x="105.348030" y="406.112736" fill="rgb(12,12,255)"  stroke="rgb(12,12,255)" stroke-width="1" font-size="16" >N</text>
<text x="388.868782" y="126.650322" fill="rgb(12,12,255)"  stroke="rgb(12,12,255)" stroke-width="1" font-size="16" >N</text>
</svg>
</g>
<text font-size="18.000000" fill ="black" font-family="sans-serif"
x="10.000000" y="20.000000" >ZINC19796168</text>
</svg>
