<?xml version="1.0"?>
<svg version="1.1" id="topsvg"
xmlns="http://www.w3.org/2000/svg" xmlns:xlink="http://www.w3.org/1999/xlink"
xmlns:cml="http://www.xml-cml.org/schema" x="0" y="0" width="200px" height="200px" viewBox="0 0 100 100">
<title>ZINC42383652 - Open Babel Depiction</title>
<rect x="0" y="0" width="100" height="100" fill="white"/>
<g transform="translate(0,0)">
<svg width="100" height="100" x="0" y="0" viewBox="0 0 240.129 288.555"
font-family="sans-serif" stroke="rgb(0,0,0)" stroke-width="2"  stroke-linecap="round">
<line x1="140.1" y1="213.9" x2="140.1" y2="173.9" stroke="rgb(0,0,0)"  stroke-width="2.0"/>
<line x1="140.1" y1="213.9" x2="153.6" y2="237.3" stroke="rgb(0,0,0)"  stroke-width="2.0"/>
<line x1="140.1" y1="213.9" x2="167.1" y2="213.9" stroke="rgb(0,0,0)"  stroke-width="2.0"/>
<line x1="140.1" y1="213.9" x2="116.7" y2="227.4" stroke="rgb(0,0,0)"  stroke-width="2.0"/>
<polygon points="140.128733 173.914351 113.328733 177.914351 113.328733 169.914351 " stroke-width="2.000000" fill="rgb(0,0,0)"  stroke="rgb(0,0,0)" />
<line x1="140.1" y1="173.9" x2="140.1" y2="133.9" stroke="rgb(0,0,0)"  stroke-width="2.0"/>
<line x1="140.1" y1="173.9" x2="167.1" y2="173.9" stroke="rgb(0,0,0)"  stroke-width="2.0"/>
<line x1="160.1" y1="72.4" x2="176.0" y2="50.5" stroke="rgb(0,0,0)"  stroke-width="2.0"/>
<line x1="95.4" y1="114.4" x2="69.7" y2="122.8" stroke="rgb(0,0,0)"  stroke-width="2.0"/>
<line x1="69.7" y1="122.8" x2="51.7" y2="142.8" stroke="rgb(0,0,0)"  stroke-width="2.0"/>
<line x1="69.7" y1="122.8" x2="78.1" y2="148.4" stroke="rgb(0,0,0)"  stroke-width="2.0"/>
<line x1="69.7" y1="122.8" x2="49.7" y2="104.7" stroke="rgb(0,0,0)"  stroke-width="2.0"/>
<line x1="186.6" y1="162.7" x2="193.6" y2="150.5" stroke="rgb(0,0,0)"  stroke-width="2.0"/>
<line x1="186.6" y1="185.2" x2="193.6" y2="197.3" stroke="rgb(0,0,0)"  stroke-width="2.0"/>
<line x1="160.1" y1="72.4" x2="133.3" y2="72.4" stroke="rgb(0,0,0)"  stroke-width="2.0"/>
<line x1="154.1" y1="79.6" x2="135.3" y2="79.6" stroke="rgb(0,0,0)"  stroke-width="2.0"/>
<line x1="116.1" y1="84.7" x2="111.8" y2="98.0" stroke="rgb(0,0,0)"  stroke-width="2.0"/>
<line x1="118.3" y1="118.0" x2="140.1" y2="133.9" stroke="rgb(0,0,0)"  stroke-width="2.0"/>
<line x1="140.1" y1="133.9" x2="161.8" y2="118.2" stroke="rgb(0,0,0)"  stroke-width="2.0"/>
<line x1="140.8" y1="124.6" x2="156.0" y2="113.5" stroke="rgb(0,0,0)"  stroke-width="2.0"/>
<line x1="168.5" y1="98.0" x2="160.1" y2="72.4" stroke="rgb(0,0,0)"  stroke-width="2.0"/>
<text x="174.128733" y="181.914351" fill="rgb(12,12,255)"  stroke="rgb(12,12,255)" stroke-width="1" font-size="16" >N</text>
<text x="194.128733" y="216.555367" fill="rgb(191,191,191)"  stroke="rgb(191,191,191)" stroke-width="1" font-size="16" >H</text>
<text x="194.128733" y="147.273334" fill="rgb(191,191,191)"  stroke="rgb(191,191,191)" stroke-width="1" font-size="16" >H</text>
<text x="34.000000" y="103.998396" fill="rgb(191,191,191)"  stroke="rgb(191,191,191)" stroke-width="1" font-size="16" >H</text>
<text x="76.086473" y="168.805881" fill="rgb(191,191,191)"  stroke="rgb(191,191,191)" stroke-width="1" font-size="16" >H</text>
<text x="36.960569" y="160.489413" fill="rgb(191,191,191)"  stroke="rgb(191,191,191)" stroke-width="1" font-size="16" >H</text>
<text x="177.640144" y="48.000000" fill="rgb(191,191,191)"  stroke="rgb(191,191,191)" stroke-width="1" font-size="16" >H</text>
<text x="99.487717" y="241.914351" fill="rgb(191,191,191)"  stroke="rgb(191,191,191)" stroke-width="1" font-size="16" >H</text>
<text x="174.128733" y="221.914351" fill="rgb(191,191,191)"  stroke="rgb(191,191,191)" stroke-width="1" font-size="16" >H</text>
<text x="154.128733" y="256.555367" fill="rgb(191,191,191)"  stroke="rgb(191,191,191)" stroke-width="1" font-size="16" >H</text>
<text x="101.768054" y="118.402940" fill="rgb(12,12,255)"  stroke="rgb(12,12,255)" stroke-width="1" font-size="16" >N</text>
<text x="114.128733" y="80.360680" fill="rgb(12,12,255)"  stroke="rgb(12,12,255)" stroke-width="1" font-size="16" >N</text>
<text x="166.489413" y="118.402940" fill="rgb(12,12,255)"  stroke="rgb(12,12,255)" stroke-width="1" font-size="16" >N</text>
<text x="94.128733" y="181.914351" fill="rgb(191,191,191)"  stroke="rgb(191,191,191)" stroke-width="1" font-size="16" >H</text>
</svg>
</g>
<text font-size="18.000000" fill ="black" font-family="sans-serif"
x="10.000000" y="20.000000" >ZINC42383652</text>
</svg>
