<?xml version="1.0"?>
<svg version="1.1" id="topsvg"
xmlns="http://www.w3.org/2000/svg" xmlns:xlink="http://www.w3.org/1999/xlink"
xmlns:cml="http://www.xml-cml.org/schema" x="0" y="0" width="200px" height="200px" viewBox="0 0 100 100">
<title>ZINC32553268 - Open Babel Depiction</title>
<rect x="0" y="0" width="100" height="100" fill="white"/>
<g transform="translate(0,0)">
<svg width="100" height="100" x="0" y="0" viewBox="0 0 327.554 251.915"
font-family="sans-serif" stroke="rgb(0,0,0)" stroke-width="2"  stroke-linecap="round">
<line x1="248.9" y1="78.6" x2="238.6" y2="117.3" stroke="rgb(0,0,0)"  stroke-width="2.0"/>
<line x1="248.9" y1="78.6" x2="241.9" y2="52.6" stroke="rgb(0,0,0)"  stroke-width="2.0"/>
<line x1="248.9" y1="78.6" x2="222.8" y2="71.6" stroke="rgb(0,0,0)"  stroke-width="2.0"/>
<line x1="248.9" y1="78.6" x2="275.0" y2="71.6" stroke="rgb(0,0,0)"  stroke-width="2.0"/>
<line x1="243.3" y1="119.9" x2="242.3" y2="121.2" stroke="rgb(0,0,0)"  stroke-width="1.0"/>
<line x1="247.1" y1="122.0" x2="245.3" y2="124.3" stroke="rgb(0,0,0)"  stroke-width="1.0"/>
<line x1="250.9" y1="124.1" x2="248.4" y2="127.4" stroke="rgb(0,0,0)"  stroke-width="1.0"/>
<line x1="254.7" y1="126.2" x2="251.4" y2="130.5" stroke="rgb(0,0,0)"  stroke-width="1.0"/>
<line x1="258.5" y1="128.3" x2="254.4" y2="133.6" stroke="rgb(0,0,0)"  stroke-width="1.0"/>
<line x1="262.3" y1="130.4" x2="257.4" y2="136.8" stroke="rgb(0,0,0)"  stroke-width="1.0"/>
<line x1="203.9" y1="97.3" x2="217.4" y2="73.9" stroke="rgb(0,0,0)"  stroke-width="2.0"/>
<line x1="203.9" y1="97.3" x2="190.4" y2="73.9" stroke="rgb(0,0,0)"  stroke-width="2.0"/>
<line x1="169.3" y1="117.3" x2="155.8" y2="93.9" stroke="rgb(0,0,0)"  stroke-width="2.0"/>
<line x1="169.3" y1="117.3" x2="142.3" y2="117.3" stroke="rgb(0,0,0)"  stroke-width="2.0"/>
<line x1="156.3" y1="157.3" x2="129.3" y2="157.3" stroke="rgb(0,0,0)"  stroke-width="2.0"/>
<polygon points="162.682032 168.705601 159.346134 182.483547 152.417931 178.483547 " stroke-width="2.000000" fill="rgb(0,0,0)"  stroke="rgb(0,0,0)" />
<line x1="203.9" y1="177.3" x2="190.4" y2="200.7" stroke="rgb(0,0,0)"  stroke-width="2.0"/>
<line x1="203.9" y1="177.3" x2="217.4" y2="200.7" stroke="rgb(0,0,0)"  stroke-width="2.0"/>
<line x1="238.6" y1="157.3" x2="252.1" y2="180.7" stroke="rgb(0,0,0)"  stroke-width="2.0"/>
<line x1="238.6" y1="157.3" x2="265.6" y2="157.3" stroke="rgb(0,0,0)"  stroke-width="2.0"/>
<line x1="129.3" y1="157.3" x2="109.3" y2="122.6" stroke="rgb(0,0,0)"  stroke-width="2.0"/>
<line x1="129.3" y1="157.3" x2="105.9" y2="170.8" stroke="rgb(0,0,0)"  stroke-width="2.0"/>
<line x1="129.3" y1="157.3" x2="129.3" y2="184.3" stroke="rgb(0,0,0)"  stroke-width="2.0"/>
<polygon points="109.282032 122.633050 130.491513 105.768948 134.491513 112.697152 " stroke-width="2.000000" fill="rgb(0,0,0)"  stroke="rgb(0,0,0)" />
<line x1="109.3" y1="122.6" x2="89.3" y2="88.0" stroke="rgb(0,0,0)"  stroke-width="2.0"/>
<line x1="109.3" y1="122.6" x2="85.9" y2="136.1" stroke="rgb(0,0,0)"  stroke-width="2.0"/>
<line x1="89.3" y1="88.0" x2="65.9" y2="74.5" stroke="rgb(0,0,0)"  stroke-width="2.0"/>
<line x1="89.3" y1="88.0" x2="65.9" y2="101.5" stroke="rgb(0,0,0)"  stroke-width="2.0"/>
<line x1="89.3" y1="88.0" x2="102.8" y2="64.6" stroke="rgb(0,0,0)"  stroke-width="2.0"/>
<line x1="63.4" y1="136.1" x2="51.3" y2="129.1" stroke="rgb(0,0,0)"  stroke-width="2.0"/>
<line x1="74.6" y1="155.6" x2="74.6" y2="169.6" stroke="rgb(0,0,0)"  stroke-width="2.0"/>
<line x1="169.3" y1="117.3" x2="169.3" y2="144.3" stroke="rgb(0,0,0)"  stroke-width="2.0"/>
<line x1="180.5" y1="163.8" x2="203.9" y2="177.3" stroke="rgb(0,0,0)"  stroke-width="2.0"/>
<line x1="203.9" y1="177.3" x2="238.6" y2="157.3" stroke="rgb(0,0,0)"  stroke-width="2.0"/>
<line x1="238.6" y1="157.3" x2="238.6" y2="117.3" stroke="rgb(0,0,0)"  stroke-width="2.0"/>
<line x1="238.6" y1="117.3" x2="203.9" y2="97.3" stroke="rgb(0,0,0)"  stroke-width="2.0"/>
<line x1="203.9" y1="97.3" x2="169.3" y2="117.3" stroke="rgb(0,0,0)"  stroke-width="2.0"/>
<text x="217.923048" y="70.633050" fill="rgb(191,191,191)"  stroke="rgb(191,191,191)" stroke-width="1" font-size="16" >H</text>
<text x="68.641016" y="190.633050" fill="rgb(191,191,191)"  stroke="rgb(191,191,191)" stroke-width="1" font-size="16" >H</text>
<text x="143.282032" y="199.915082" fill="rgb(191,191,191)"  stroke="rgb(191,191,191)" stroke-width="1" font-size="16" >H</text>
<text x="34.000000" y="130.633050" fill="rgb(191,191,191)"  stroke="rgb(191,191,191)" stroke-width="1" font-size="16" >H</text>
<text x="103.282032" y="61.351018" fill="rgb(191,191,191)"  stroke="rgb(191,191,191)" stroke-width="1" font-size="16" >H</text>
<text x="48.641016" y="115.992034" fill="rgb(191,191,191)"  stroke="rgb(191,191,191)" stroke-width="1" font-size="16" >H</text>
<text x="48.641016" y="75.992034" fill="rgb(191,191,191)"  stroke="rgb(191,191,191)" stroke-width="1" font-size="16" >H</text>
<text x="123.282032" y="205.274066" fill="rgb(191,191,191)"  stroke="rgb(191,191,191)" stroke-width="1" font-size="16" >H</text>
<text x="88.641016" y="185.274066" fill="rgb(191,191,191)"  stroke="rgb(191,191,191)" stroke-width="1" font-size="16" >H</text>
<text x="272.564065" y="165.274066" fill="rgb(191,191,191)"  stroke="rgb(191,191,191)" stroke-width="1" font-size="16" >H</text>
<text x="252.564065" y="199.915082" fill="rgb(191,191,191)"  stroke="rgb(191,191,191)" stroke-width="1" font-size="16" >H</text>
<text x="217.923048" y="219.915082" fill="rgb(191,191,191)"  stroke="rgb(191,191,191)" stroke-width="1" font-size="16" >H</text>
<text x="177.923048" y="219.915082" fill="rgb(191,191,191)"  stroke="rgb(191,191,191)" stroke-width="1" font-size="16" >H</text>
<text x="123.282032" y="125.274066" fill="rgb(191,191,191)"  stroke="rgb(191,191,191)" stroke-width="1" font-size="16" >H</text>
<text x="143.282032" y="90.633050" fill="rgb(191,191,191)"  stroke="rgb(191,191,191)" stroke-width="1" font-size="16" >H</text>
<text x="177.923048" y="70.633050" fill="rgb(191,191,191)"  stroke="rgb(191,191,191)" stroke-width="1" font-size="16" >H</text>
<text x="264.298198" y="149.624523" fill="rgb(191,191,191)"  stroke="rgb(191,191,191)" stroke-width="1" font-size="16" >H</text>
<text x="281.553859" y="76.284271" fill="rgb(191,191,191)"  stroke="rgb(191,191,191)" stroke-width="1" font-size="16" >H</text>
<text x="204.279793" y="76.284271" fill="rgb(191,191,191)"  stroke="rgb(191,191,191)" stroke-width="1" font-size="16" >H</text>
<text x="232.564065" y="48.000000" fill="rgb(191,191,191)"  stroke="rgb(191,191,191)" stroke-width="1" font-size="16" >H</text>
<text x="68.641016" y="150.633050" fill="rgb(12,12,255)"  stroke="rgb(12,12,255)" stroke-width="1" font-size="16" >N</text>
<text x="137.923048" y="110.633050" fill="rgb(191,191,191)"  stroke="rgb(191,191,191)" stroke-width="1" font-size="16" >H</text>
<text x="174.082032" y="153.242066" fill="rgb(12,12,255)"  stroke="rgb(12,12,255)" stroke-width="1" font-size="16" >+</text>
<text x="163.282032" y="165.274066" fill="rgb(12,12,255)"  stroke="rgb(12,12,255)" stroke-width="1" font-size="16" >N</text>
</svg>
</g>
<text font-size="18.000000" fill ="black" font-family="sans-serif"
x="10.000000" y="20.000000" >ZINC32553268</text>
</svg>
