<?xml version="1.0"?>
<svg version="1.1" id="topsvg"
xmlns="http://www.w3.org/2000/svg" xmlns:xlink="http://www.w3.org/1999/xlink"
xmlns:cml="http://www.xml-cml.org/schema" x="0" y="0" width="200px" height="200px" viewBox="0 0 100 100">
<title>ZINC42011966 - Open Babel Depiction</title>
<rect x="0" y="0" width="100" height="100" fill="white"/>
<g transform="translate(0,0)">
<svg width="100" height="100" x="0" y="0" viewBox="0 0 318.564 314.641"
font-family="sans-serif" stroke="rgb(0,0,0)" stroke-width="2"  stroke-linecap="round">
<line x1="178.6" y1="74.6" x2="178.6" y2="101.6" stroke="rgb(0,0,0)"  stroke-width="2.0"/>
<line x1="178.6" y1="74.6" x2="165.1" y2="51.3" stroke="rgb(0,0,0)"  stroke-width="2.0"/>
<line x1="178.6" y1="74.6" x2="151.6" y2="74.6" stroke="rgb(0,0,0)"  stroke-width="2.0"/>
<line x1="178.6" y1="74.6" x2="201.9" y2="61.1" stroke="rgb(0,0,0)"  stroke-width="2.0"/>
<line x1="191.6" y1="114.6" x2="218.6" y2="114.6" stroke="rgb(0,0,0)"  stroke-width="2.0"/>
<line x1="178.6" y1="127.6" x2="178.6" y2="154.6" stroke="rgb(0,0,0)"  stroke-width="2.0"/>
<line x1="162.6" y1="115.4" x2="162.6" y2="113.8" stroke="rgb(0,0,0)"  stroke-width="1.0"/>
<line x1="160.5" y1="116.1" x2="160.5" y2="113.2" stroke="rgb(0,0,0)"  stroke-width="1.0"/>
<line x1="158.3" y1="116.7" x2="158.3" y2="112.6" stroke="rgb(0,0,0)"  stroke-width="1.0"/>
<line x1="156.1" y1="117.4" x2="156.1" y2="111.9" stroke="rgb(0,0,0)"  stroke-width="1.0"/>
<line x1="153.9" y1="118.0" x2="153.9" y2="111.3" stroke="rgb(0,0,0)"  stroke-width="1.0"/>
<line x1="151.8" y1="118.6" x2="151.8" y2="110.6" stroke="rgb(0,0,0)"  stroke-width="1.0"/>
<line x1="218.6" y1="114.6" x2="238.6" y2="149.3" stroke="rgb(0,0,0)"  stroke-width="2.0"/>
<line x1="218.6" y1="114.6" x2="241.9" y2="101.1" stroke="rgb(0,0,0)"  stroke-width="2.0"/>
<line x1="218.6" y1="114.6" x2="218.6" y2="87.6" stroke="rgb(0,0,0)"  stroke-width="2.0"/>
<line x1="238.6" y1="149.3" x2="258.6" y2="183.9" stroke="rgb(0,0,0)"  stroke-width="2.0"/>
<line x1="242.2" y1="147.2" x2="262.2" y2="181.8" stroke="rgb(0,0,0)"  stroke-width="2.0"/>
<line x1="234.9" y1="151.4" x2="254.9" y2="186.0" stroke="rgb(0,0,0)"  stroke-width="2.0"/>
<line x1="258.6" y1="183.9" x2="272.1" y2="207.3" stroke="rgb(0,0,0)"  stroke-width="2.0"/>
<line x1="178.6" y1="154.6" x2="143.9" y2="174.6" stroke="rgb(0,0,0)"  stroke-width="2.0"/>
<line x1="178.6" y1="154.6" x2="192.1" y2="178.0" stroke="rgb(0,0,0)"  stroke-width="2.0"/>
<line x1="178.6" y1="154.6" x2="205.6" y2="154.6" stroke="rgb(0,0,0)"  stroke-width="2.0"/>
<line x1="109.3" y1="154.6" x2="109.3" y2="127.6" stroke="rgb(0,0,0)"  stroke-width="2.0"/>
<line x1="74.6" y1="174.6" x2="51.3" y2="161.1" stroke="rgb(0,0,0)"  stroke-width="2.0"/>
<line x1="109.3" y1="234.6" x2="109.3" y2="261.6" stroke="rgb(0,0,0)"  stroke-width="2.0"/>
<line x1="143.9" y1="214.6" x2="167.3" y2="228.1" stroke="rgb(0,0,0)"  stroke-width="2.0"/>
<line x1="74.6" y1="174.6" x2="74.6" y2="201.6" stroke="rgb(0,0,0)"  stroke-width="2.0"/>
<line x1="86.1" y1="221.2" x2="109.3" y2="234.6" stroke="rgb(0,0,0)"  stroke-width="2.0"/>
<line x1="91.4" y1="216.0" x2="107.7" y2="225.4" stroke="rgb(0,0,0)"  stroke-width="2.0"/>
<line x1="109.3" y1="234.6" x2="143.9" y2="214.6" stroke="rgb(0,0,0)"  stroke-width="2.0"/>
<line x1="143.9" y1="214.6" x2="143.9" y2="174.6" stroke="rgb(0,0,0)"  stroke-width="2.0"/>
<line x1="136.7" y1="208.6" x2="136.7" y2="180.6" stroke="rgb(0,0,0)"  stroke-width="2.0"/>
<line x1="143.9" y1="174.6" x2="109.3" y2="154.6" stroke="rgb(0,0,0)"  stroke-width="2.0"/>
<line x1="109.3" y1="154.6" x2="74.6" y2="174.6" stroke="rgb(0,0,0)"  stroke-width="2.0"/>
<line x1="107.7" y1="163.9" x2="83.4" y2="177.9" stroke="rgb(0,0,0)"  stroke-width="2.0"/>
<text x="152.564065" y="48.000000" fill="rgb(191,191,191)"  stroke="rgb(191,191,191)" stroke-width="1" font-size="16" >H</text>
<text x="132.564065" y="122.641016" fill="rgb(191,191,191)"  stroke="rgb(191,191,191)" stroke-width="1" font-size="16" >H</text>
<text x="172.564065" y="242.641016" fill="rgb(191,191,191)"  stroke="rgb(191,191,191)" stroke-width="1" font-size="16" >H</text>
<text x="103.282032" y="282.641016" fill="rgb(191,191,191)"  stroke="rgb(191,191,191)" stroke-width="1" font-size="16" >H</text>
<text x="34.000000" y="162.641016" fill="rgb(191,191,191)"  stroke="rgb(191,191,191)" stroke-width="1" font-size="16" >H</text>
<text x="103.282032" y="122.641016" fill="rgb(191,191,191)"  stroke="rgb(191,191,191)" stroke-width="1" font-size="16" >H</text>
<text x="212.564065" y="162.641016" fill="rgb(191,191,191)"  stroke="rgb(191,191,191)" stroke-width="1" font-size="16" >H</text>
<text x="192.564065" y="197.282032" fill="rgb(191,191,191)"  stroke="rgb(191,191,191)" stroke-width="1" font-size="16" >H</text>
<text x="272.564065" y="226.564065" fill="rgb(191,191,191)"  stroke="rgb(191,191,191)" stroke-width="1" font-size="16" >H</text>
<text x="212.564065" y="82.641016" fill="rgb(191,191,191)"  stroke="rgb(191,191,191)" stroke-width="1" font-size="16" >H</text>
<text x="247.205081" y="102.641016" fill="rgb(191,191,191)"  stroke="rgb(191,191,191)" stroke-width="1" font-size="16" >H</text>
<text x="207.205081" y="62.641016" fill="rgb(191,191,191)"  stroke="rgb(191,191,191)" stroke-width="1" font-size="16" >H</text>
<text x="132.564065" y="82.641016" fill="rgb(191,191,191)"  stroke="rgb(191,191,191)" stroke-width="1" font-size="16" >H</text>
<text x="68.641016" y="222.641016" fill="rgb(12,12,255)"  stroke="rgb(12,12,255)" stroke-width="1" font-size="16" >N</text>
<text x="183.364065" y="110.609016" fill="rgb(12,12,255)"  stroke="rgb(12,12,255)" stroke-width="1" font-size="16" >+</text>
<text x="172.564065" y="122.641016" fill="rgb(12,12,255)"  stroke="rgb(12,12,255)" stroke-width="1" font-size="16" >N</text>
</svg>
</g>
<text font-size="18.000000" fill ="black" font-family="sans-serif"
x="10.000000" y="20.000000" >ZINC42011966</text>
</svg>
