<?xml version="1.0"?>
<svg version="1.1" id="topsvg"
xmlns="http://www.w3.org/2000/svg" xmlns:xlink="http://www.w3.org/1999/xlink"
xmlns:cml="http://www.xml-cml.org/schema" x="0" y="0" width="200px" height="200px" viewBox="0 0 100 100">
<title>ZINC19872142 - Open Babel Depiction</title>
<rect x="0" y="0" width="100" height="100" fill="white"/>
<g transform="translate(0,0)">
<svg width="100" height="100" x="0" y="0" viewBox="0 0 369.282 362.487"
font-family="sans-serif" stroke="rgb(0,0,0)" stroke-width="2"  stroke-linecap="round">
<line x1="294.6" y1="247.8" x2="267.6" y2="247.8" stroke="rgb(0,0,0)"  stroke-width="2.0"/>
<line x1="294.6" y1="247.8" x2="318.0" y2="234.3" stroke="rgb(0,0,0)"  stroke-width="2.0"/>
<line x1="294.6" y1="247.8" x2="294.6" y2="220.8" stroke="rgb(0,0,0)"  stroke-width="2.0"/>
<line x1="294.6" y1="247.8" x2="308.1" y2="271.2" stroke="rgb(0,0,0)"  stroke-width="2.0"/>
<line x1="254.6" y1="260.8" x2="254.6" y2="287.8" stroke="rgb(0,0,0)"  stroke-width="2.0"/>
<line x1="241.6" y1="247.8" x2="214.6" y2="247.8" stroke="rgb(0,0,0)"  stroke-width="2.0"/>
<line x1="254.6" y1="234.8" x2="254.6" y2="220.8" stroke="rgb(0,0,0)"  stroke-width="2.0"/>
<line x1="254.6" y1="287.8" x2="268.1" y2="311.2" stroke="rgb(0,0,0)"  stroke-width="2.0"/>
<line x1="254.6" y1="287.8" x2="281.6" y2="287.8" stroke="rgb(0,0,0)"  stroke-width="2.0"/>
<line x1="254.6" y1="287.8" x2="231.3" y2="301.3" stroke="rgb(0,0,0)"  stroke-width="2.0"/>
<line x1="214.6" y1="247.8" x2="194.6" y2="213.2" stroke="rgb(0,0,0)"  stroke-width="2.0"/>
<line x1="214.6" y1="247.8" x2="191.3" y2="261.3" stroke="rgb(0,0,0)"  stroke-width="2.0"/>
<line x1="214.6" y1="247.8" x2="214.6" y2="274.8" stroke="rgb(0,0,0)"  stroke-width="2.0"/>
<line x1="194.6" y1="213.2" x2="167.6" y2="213.2" stroke="rgb(0,0,0)"  stroke-width="2.0"/>
<line x1="194.6" y1="213.2" x2="194.6" y2="186.2" stroke="rgb(0,0,0)"  stroke-width="2.0"/>
<line x1="194.6" y1="213.2" x2="218.0" y2="199.7" stroke="rgb(0,0,0)"  stroke-width="2.0"/>
<line x1="148.1" y1="201.9" x2="134.6" y2="178.6" stroke="rgb(0,0,0)"  stroke-width="2.0"/>
<line x1="148.1" y1="224.5" x2="141.1" y2="236.6" stroke="rgb(0,0,0)"  stroke-width="2.0"/>
<line x1="134.6" y1="178.6" x2="154.6" y2="143.9" stroke="rgb(0,0,0)"  stroke-width="2.0"/>
<line x1="134.6" y1="178.6" x2="111.3" y2="165.1" stroke="rgb(0,0,0)"  stroke-width="2.0"/>
<line x1="134.6" y1="178.6" x2="111.3" y2="192.1" stroke="rgb(0,0,0)"  stroke-width="2.0"/>
<line x1="194.6" y1="143.9" x2="208.1" y2="167.3" stroke="rgb(0,0,0)"  stroke-width="2.0"/>
<line x1="214.6" y1="109.3" x2="241.6" y2="109.3" stroke="rgb(0,0,0)"  stroke-width="2.0"/>
<line x1="194.6" y1="74.6" x2="208.1" y2="51.3" stroke="rgb(0,0,0)"  stroke-width="2.0"/>
<line x1="154.6" y1="74.6" x2="141.1" y2="51.3" stroke="rgb(0,0,0)"  stroke-width="2.0"/>
<line x1="134.6" y1="109.3" x2="107.6" y2="109.3" stroke="rgb(0,0,0)"  stroke-width="2.0"/>
<line x1="88.1" y1="98.0" x2="74.6" y2="74.6" stroke="rgb(0,0,0)"  stroke-width="2.0"/>
<line x1="74.6" y1="74.6" x2="51.3" y2="61.1" stroke="rgb(0,0,0)"  stroke-width="2.0"/>
<line x1="74.6" y1="74.6" x2="51.3" y2="88.1" stroke="rgb(0,0,0)"  stroke-width="2.0"/>
<line x1="74.6" y1="74.6" x2="88.1" y2="51.3" stroke="rgb(0,0,0)"  stroke-width="2.0"/>
<line x1="214.6" y1="109.3" x2="194.6" y2="74.6" stroke="rgb(0,0,0)"  stroke-width="2.0"/>
<line x1="194.6" y1="74.6" x2="154.6" y2="74.6" stroke="rgb(0,0,0)"  stroke-width="2.0"/>
<line x1="188.6" y1="81.8" x2="160.6" y2="81.8" stroke="rgb(0,0,0)"  stroke-width="2.0"/>
<line x1="154.6" y1="74.6" x2="134.6" y2="109.3" stroke="rgb(0,0,0)"  stroke-width="2.0"/>
<line x1="134.6" y1="109.3" x2="154.6" y2="143.9" stroke="rgb(0,0,0)"  stroke-width="2.0"/>
<line x1="143.9" y1="110.9" x2="157.9" y2="135.1" stroke="rgb(0,0,0)"  stroke-width="2.0"/>
<line x1="154.6" y1="143.9" x2="194.6" y2="143.9" stroke="rgb(0,0,0)"  stroke-width="2.0"/>
<line x1="194.6" y1="143.9" x2="214.6" y2="109.3" stroke="rgb(0,0,0)"  stroke-width="2.0"/>
<line x1="191.4" y1="135.1" x2="205.4" y2="110.9" stroke="rgb(0,0,0)"  stroke-width="2.0"/>
<text x="94.000000" y="206.564065" fill="rgb(191,191,191)"  stroke="rgb(191,191,191)" stroke-width="1" font-size="16" >H</text>
<text x="268.641016" y="330.487113" fill="rgb(191,191,191)"  stroke="rgb(191,191,191)" stroke-width="1" font-size="16" >H</text>
<text x="288.641016" y="295.846097" fill="rgb(191,191,191)"  stroke="rgb(191,191,191)" stroke-width="1" font-size="16" >H</text>
<text x="214.000000" y="315.846097" fill="rgb(191,191,191)"  stroke="rgb(191,191,191)" stroke-width="1" font-size="16" >H</text>
<text x="174.000000" y="275.846097" fill="rgb(191,191,191)"  stroke="rgb(191,191,191)" stroke-width="1" font-size="16" >H</text>
<text x="208.641016" y="295.846097" fill="rgb(191,191,191)"  stroke="rgb(191,191,191)" stroke-width="1" font-size="16" >H</text>
<text x="188.641016" y="181.205081" fill="rgb(191,191,191)"  stroke="rgb(191,191,191)" stroke-width="1" font-size="16" >H</text>
<text x="223.282032" y="201.205081" fill="rgb(191,191,191)"  stroke="rgb(191,191,191)" stroke-width="1" font-size="16" >H</text>
<text x="94.000000" y="166.564065" fill="rgb(191,191,191)"  stroke="rgb(191,191,191)" stroke-width="1" font-size="16" >H</text>
<text x="308.641016" y="290.487113" fill="rgb(191,191,191)"  stroke="rgb(191,191,191)" stroke-width="1" font-size="16" >H</text>
<text x="208.641016" y="186.564065" fill="rgb(191,191,191)"  stroke="rgb(191,191,191)" stroke-width="1" font-size="16" >H</text>
<text x="208.641016" y="48.000000" fill="rgb(191,191,191)"  stroke="rgb(191,191,191)" stroke-width="1" font-size="16" >H</text>
<text x="128.641016" y="48.000000" fill="rgb(191,191,191)"  stroke="rgb(191,191,191)" stroke-width="1" font-size="16" >H</text>
<text x="34.000000" y="62.641016" fill="rgb(191,191,191)"  stroke="rgb(191,191,191)" stroke-width="1" font-size="16" >H</text>
<text x="34.000000" y="102.641016" fill="rgb(191,191,191)"  stroke="rgb(191,191,191)" stroke-width="1" font-size="16" >H</text>
<text x="88.641016" y="48.000000" fill="rgb(191,191,191)"  stroke="rgb(191,191,191)" stroke-width="1" font-size="16" >H</text>
<text x="128.641016" y="255.846097" fill="rgb(191,191,191)"  stroke="rgb(191,191,191)" stroke-width="1" font-size="16" >H</text>
<text x="248.641016" y="215.846097" fill="rgb(191,191,191)"  stroke="rgb(191,191,191)" stroke-width="1" font-size="16" >H</text>
<text x="259.441016" y="243.814097" fill="rgb(12,12,255)"  stroke="rgb(12,12,255)" stroke-width="1" font-size="16" >+</text>
<text x="248.641016" y="255.846097" fill="rgb(12,12,255)"  stroke="rgb(12,12,255)" stroke-width="1" font-size="16" >N</text>
<text x="148.641016" y="221.205081" fill="rgb(12,12,255)"  stroke="rgb(12,12,255)" stroke-width="1" font-size="16" >N</text>
<text x="88.641016" y="117.282032" fill="rgb(255,12,12)"  stroke="rgb(255,12,12)" stroke-width="1" font-size="16" >O</text>
<text x="248.641016" y="117.282032" fill="rgb(165,40,40)"  stroke="rgb(165,40,40)" stroke-width="1" font-size="16" >Br</text>
<text x="323.282032" y="235.846097" fill="rgb(191,191,191)"  stroke="rgb(191,191,191)" stroke-width="1" font-size="16" >H</text>
<text x="288.641016" y="215.846097" fill="rgb(191,191,191)"  stroke="rgb(191,191,191)" stroke-width="1" font-size="16" >H</text>
</svg>
</g>
<text font-size="18.000000" fill ="black" font-family="sans-serif"
x="10.000000" y="20.000000" >ZINC19872142</text>
</svg>
