<?xml version="1.0"?>
<svg version="1.1" id="topsvg"
xmlns="http://www.w3.org/2000/svg" xmlns:xlink="http://www.w3.org/1999/xlink"
xmlns:cml="http://www.xml-cml.org/schema" x="0" y="0" width="200px" height="200px" viewBox="0 0 100 100">
<title>ZINC11539186 - Open Babel Depiction</title>
<rect x="0" y="0" width="100" height="100" fill="white"/>
<g transform="translate(0,0)">
<svg width="100" height="100" x="0" y="0" viewBox="0 0 393.947 230.263"
font-family="sans-serif" stroke="rgb(0,0,0)" stroke-width="2"  stroke-linecap="round">
<line x1="90.1" y1="153.6" x2="69.6" y2="165.4" stroke="rgb(0,0,0)"  stroke-width="2.0"/>
<line x1="90.1" y1="153.6" x2="90.1" y2="177.3" stroke="rgb(0,0,0)"  stroke-width="2.0"/>
<line x1="126.8" y1="153.6" x2="126.8" y2="177.3" stroke="rgb(0,0,0)"  stroke-width="2.0"/>
<line x1="126.8" y1="153.6" x2="147.3" y2="165.4" stroke="rgb(0,0,0)"  stroke-width="2.0"/>
<line x1="145.1" y1="118.8" x2="168.8" y2="118.8" stroke="rgb(0,0,0)"  stroke-width="2.0"/>
<line x1="145.1" y1="124.8" x2="168.8" y2="124.8" stroke="rgb(0,0,0)"  stroke-width="2.0"/>
<line x1="126.8" y1="90.1" x2="158.5" y2="71.8" stroke="rgb(0,0,0)"  stroke-width="2.0"/>
<line x1="126.8" y1="90.1" x2="126.8" y2="66.4" stroke="rgb(0,0,0)"  stroke-width="2.0"/>
<line x1="87.5" y1="91.6" x2="75.7" y2="71.1" stroke="rgb(0,0,0)"  stroke-width="2.0"/>
<line x1="92.7" y1="88.6" x2="80.9" y2="68.1" stroke="rgb(0,0,0)"  stroke-width="2.0"/>
<line x1="71.8" y1="121.8" x2="51.3" y2="110.0" stroke="rgb(0,0,0)"  stroke-width="2.0"/>
<line x1="71.8" y1="121.8" x2="51.3" y2="133.7" stroke="rgb(0,0,0)"  stroke-width="2.0"/>
<line x1="158.5" y1="71.8" x2="170.3" y2="51.3" stroke="rgb(0,0,0)"  stroke-width="2.0"/>
<line x1="158.5" y1="71.8" x2="146.7" y2="51.3" stroke="rgb(0,0,0)"  stroke-width="2.0"/>
<line x1="158.5" y1="71.8" x2="285.5" y2="145.1" stroke="rgb(0,0,0)"  stroke-width="2.0"/>
<line x1="317.3" y1="126.8" x2="337.8" y2="138.6" stroke="rgb(0,0,0)"  stroke-width="2.0"/>
<line x1="317.3" y1="90.1" x2="329.1" y2="69.6" stroke="rgb(0,0,0)"  stroke-width="2.0"/>
<line x1="317.3" y1="90.1" x2="340.9" y2="90.1" stroke="rgb(0,0,0)"  stroke-width="2.0"/>
<line x1="285.5" y1="71.8" x2="273.7" y2="51.3" stroke="rgb(0,0,0)"  stroke-width="2.0"/>
<line x1="285.5" y1="71.8" x2="297.4" y2="51.3" stroke="rgb(0,0,0)"  stroke-width="2.0"/>
<line x1="253.8" y1="90.1" x2="230.1" y2="90.1" stroke="rgb(0,0,0)"  stroke-width="2.0"/>
<line x1="253.8" y1="90.1" x2="241.9" y2="69.6" stroke="rgb(0,0,0)"  stroke-width="2.0"/>
<line x1="255.3" y1="129.4" x2="234.8" y2="141.2" stroke="rgb(0,0,0)"  stroke-width="2.0"/>
<line x1="252.3" y1="124.2" x2="231.8" y2="136.0" stroke="rgb(0,0,0)"  stroke-width="2.0"/>
<line x1="145.1" y1="121.8" x2="126.8" y2="90.1" stroke="rgb(0,0,0)"  stroke-width="2.0"/>
<line x1="126.8" y1="90.1" x2="90.1" y2="90.1" stroke="rgb(0,0,0)"  stroke-width="2.0"/>
<line x1="90.1" y1="90.1" x2="71.8" y2="121.8" stroke="rgb(0,0,0)"  stroke-width="2.0"/>
<line x1="71.8" y1="121.8" x2="90.1" y2="153.6" stroke="rgb(0,0,0)"  stroke-width="2.0"/>
<line x1="90.1" y1="153.6" x2="126.8" y2="153.6" stroke="rgb(0,0,0)"  stroke-width="2.0"/>
<line x1="126.8" y1="153.6" x2="145.1" y2="121.8" stroke="rgb(0,0,0)"  stroke-width="2.0"/>
<line x1="317.3" y1="126.8" x2="285.5" y2="145.1" stroke="rgb(0,0,0)"  stroke-width="2.0"/>
<line x1="308.5" y1="123.5" x2="287.1" y2="135.9" stroke="rgb(0,0,0)"  stroke-width="2.0"/>
<line x1="285.5" y1="145.1" x2="253.8" y2="126.8" stroke="rgb(0,0,0)"  stroke-width="2.0"/>
<line x1="253.8" y1="126.8" x2="253.8" y2="90.1" stroke="rgb(0,0,0)"  stroke-width="2.0"/>
<line x1="253.8" y1="90.1" x2="285.5" y2="71.8" stroke="rgb(0,0,0)"  stroke-width="2.0"/>
<line x1="285.5" y1="71.8" x2="317.3" y2="90.1" stroke="rgb(0,0,0)"  stroke-width="2.0"/>
<line x1="317.3" y1="90.1" x2="317.3" y2="126.8" stroke="rgb(0,0,0)"  stroke-width="2.0"/>
<text x="216.017059" y="153.087598" fill="rgb(255,12,12)"  stroke="rgb(255,12,12)" stroke-width="1" font-size="16" >O</text>
<text x="120.754265" y="61.420931" fill="rgb(191,191,191)"  stroke="rgb(191,191,191)" stroke-width="1" font-size="16" >H</text>
<text x="229.437991" y="66.333333" fill="rgb(191,191,191)"  stroke="rgb(191,191,191)" stroke-width="1" font-size="16" >H</text>
<text x="211.104657" y="98.087598" fill="rgb(191,191,191)"  stroke="rgb(191,191,191)" stroke-width="1" font-size="16" >H</text>
<text x="297.858922" y="48.000000" fill="rgb(191,191,191)"  stroke="rgb(191,191,191)" stroke-width="1" font-size="16" >H</text>
<text x="261.192255" y="48.000000" fill="rgb(191,191,191)"  stroke="rgb(191,191,191)" stroke-width="1" font-size="16" >H</text>
<text x="347.946520" y="98.087598" fill="rgb(191,191,191)"  stroke="rgb(191,191,191)" stroke-width="1" font-size="16" >H</text>
<text x="329.613187" y="66.333333" fill="rgb(191,191,191)"  stroke="rgb(191,191,191)" stroke-width="1" font-size="16" >H</text>
<text x="134.175196" y="48.000000" fill="rgb(191,191,191)"  stroke="rgb(191,191,191)" stroke-width="1" font-size="16" >H</text>
<text x="170.841863" y="48.000000" fill="rgb(191,191,191)"  stroke="rgb(191,191,191)" stroke-width="1" font-size="16" >H</text>
<text x="34.000000" y="148.175196" fill="rgb(191,191,191)"  stroke="rgb(191,191,191)" stroke-width="1" font-size="16" >H</text>
<text x="34.000000" y="111.508530" fill="rgb(191,191,191)"  stroke="rgb(191,191,191)" stroke-width="1" font-size="16" >H</text>
<text x="152.508530" y="179.929461" fill="rgb(191,191,191)"  stroke="rgb(191,191,191)" stroke-width="1" font-size="16" >H</text>
<text x="120.754265" y="198.262794" fill="rgb(191,191,191)"  stroke="rgb(191,191,191)" stroke-width="1" font-size="16" >H</text>
<text x="84.087598" y="198.262794" fill="rgb(191,191,191)"  stroke="rgb(191,191,191)" stroke-width="1" font-size="16" >H</text>
<text x="52.333333" y="179.929461" fill="rgb(191,191,191)"  stroke="rgb(191,191,191)" stroke-width="1" font-size="16" >H</text>
<text x="343.034118" y="153.087598" fill="rgb(255,12,12)"  stroke="rgb(255,12,12)" stroke-width="1" font-size="16" >OH</text>
<text x="65.754265" y="66.333333" fill="rgb(255,12,12)"  stroke="rgb(255,12,12)" stroke-width="1" font-size="16" >O</text>
<text x="175.754265" y="129.841863" fill="rgb(255,12,12)"  stroke="rgb(255,12,12)" stroke-width="1" font-size="16" >O</text>
</svg>
</g>
<text font-size="18.000000" fill ="black" font-family="sans-serif"
x="10.000000" y="20.000000" >ZINC11539186</text>
</svg>
