<?xml version="1.0"?>
<svg version="1.1" id="topsvg"
xmlns="http://www.w3.org/2000/svg" xmlns:xlink="http://www.w3.org/1999/xlink"
xmlns:cml="http://www.xml-cml.org/schema" x="0" y="0" width="200px" height="200px" viewBox="0 0 100 100">
<title>ZINC19091407 - Open Babel Depiction</title>
<rect x="0" y="0" width="100" height="100" fill="white"/>
<g transform="translate(0,0)">
<svg width="100" height="100" x="0" y="0" viewBox="0 0 300.217 311.403"
font-family="sans-serif" stroke="rgb(0,0,0)" stroke-width="2"  stroke-linecap="round">
<line x1="109.3" y1="236.8" x2="109.3" y2="196.8" stroke="rgb(0,0,0)"  stroke-width="2.0"/>
<line x1="109.3" y1="236.8" x2="122.8" y2="260.1" stroke="rgb(0,0,0)"  stroke-width="2.0"/>
<line x1="109.3" y1="236.8" x2="136.3" y2="236.8" stroke="rgb(0,0,0)"  stroke-width="2.0"/>
<line x1="109.3" y1="236.8" x2="85.9" y2="250.3" stroke="rgb(0,0,0)"  stroke-width="2.0"/>
<line x1="74.6" y1="176.8" x2="51.3" y2="190.3" stroke="rgb(0,0,0)"  stroke-width="2.0"/>
<line x1="74.6" y1="136.8" x2="51.3" y2="123.3" stroke="rgb(0,0,0)"  stroke-width="2.0"/>
<line x1="109.3" y1="116.8" x2="109.3" y2="89.8" stroke="rgb(0,0,0)"  stroke-width="2.0"/>
<line x1="205.5" y1="156.8" x2="232.5" y2="156.8" stroke="rgb(0,0,0)"  stroke-width="2.0"/>
<line x1="182.0" y1="124.4" x2="194.3" y2="86.4" stroke="rgb(0,0,0)"  stroke-width="2.0"/>
<line x1="194.3" y1="86.4" x2="233.5" y2="78.0" stroke="rgb(0,0,0)"  stroke-width="2.0"/>
<line x1="194.3" y1="86.4" x2="188.7" y2="59.9" stroke="rgb(0,0,0)"  stroke-width="2.0"/>
<line x1="194.3" y1="86.4" x2="168.6" y2="78.0" stroke="rgb(0,0,0)"  stroke-width="2.0"/>
<line x1="235.7" y1="76.0" x2="253.7" y2="96.1" stroke="rgb(0,0,0)"  stroke-width="2.0"/>
<line x1="231.2" y1="80.0" x2="249.3" y2="100.1" stroke="rgb(0,0,0)"  stroke-width="2.0"/>
<line x1="233.5" y1="78.0" x2="241.8" y2="52.4" stroke="rgb(0,0,0)"  stroke-width="2.0"/>
<line x1="186.0" y1="201.5" x2="190.3" y2="214.8" stroke="rgb(0,0,0)"  stroke-width="2.0"/>
<line x1="205.5" y1="156.8" x2="189.6" y2="178.6" stroke="rgb(0,0,0)"  stroke-width="2.0"/>
<line x1="169.4" y1="185.0" x2="143.9" y2="176.8" stroke="rgb(0,0,0)"  stroke-width="2.0"/>
<line x1="169.7" y1="177.6" x2="151.9" y2="171.8" stroke="rgb(0,0,0)"  stroke-width="2.0"/>
<line x1="143.9" y1="176.8" x2="143.9" y2="149.8" stroke="rgb(0,0,0)"  stroke-width="2.0"/>
<line x1="156.3" y1="132.7" x2="182.0" y2="124.4" stroke="rgb(0,0,0)"  stroke-width="2.0"/>
<line x1="182.0" y1="124.4" x2="205.5" y2="156.8" stroke="rgb(0,0,0)"  stroke-width="2.0"/>
<line x1="179.7" y1="133.5" x2="196.1" y2="156.1" stroke="rgb(0,0,0)"  stroke-width="2.0"/>
<line x1="74.6" y1="136.8" x2="109.3" y2="116.8" stroke="rgb(0,0,0)"  stroke-width="2.0"/>
<line x1="83.4" y1="140.0" x2="107.7" y2="126.0" stroke="rgb(0,0,0)"  stroke-width="2.0"/>
<line x1="109.3" y1="116.8" x2="132.7" y2="130.3" stroke="rgb(0,0,0)"  stroke-width="2.0"/>
<line x1="143.9" y1="176.8" x2="109.3" y2="196.8" stroke="rgb(0,0,0)"  stroke-width="2.0"/>
<line x1="109.3" y1="196.8" x2="74.6" y2="176.8" stroke="rgb(0,0,0)"  stroke-width="2.0"/>
<line x1="107.7" y1="187.5" x2="83.4" y2="173.5" stroke="rgb(0,0,0)"  stroke-width="2.0"/>
<line x1="74.6" y1="176.8" x2="74.6" y2="136.8" stroke="rgb(0,0,0)"  stroke-width="2.0"/>
<text x="123.282032" y="279.402685" fill="rgb(191,191,191)"  stroke="rgb(191,191,191)" stroke-width="1" font-size="16" >H</text>
<text x="188.325989" y="235.164609" fill="rgb(191,191,191)"  stroke="rgb(191,191,191)" stroke-width="1" font-size="16" >H</text>
<text x="175.965309" y="197.122348" fill="rgb(12,12,255)"  stroke="rgb(12,12,255)" stroke-width="1" font-size="16" >N</text>
<text x="239.812573" y="48.000000" fill="rgb(255,12,12)"  stroke="rgb(255,12,12)" stroke-width="1" font-size="16" >OH</text>
<text x="150.283728" y="81.998049" fill="rgb(191,191,191)"  stroke="rgb(191,191,191)" stroke-width="1" font-size="16" >H</text>
<text x="180.009521" y="55.232824" fill="rgb(191,191,191)"  stroke="rgb(191,191,191)" stroke-width="1" font-size="16" >H</text>
<text x="239.476719" y="164.761669" fill="rgb(191,191,191)"  stroke="rgb(191,191,191)" stroke-width="1" font-size="16" >H</text>
<text x="103.282032" y="84.761669" fill="rgb(191,191,191)"  stroke="rgb(191,191,191)" stroke-width="1" font-size="16" >H</text>
<text x="34.000000" y="124.761669" fill="rgb(191,191,191)"  stroke="rgb(191,191,191)" stroke-width="1" font-size="16" >H</text>
<text x="34.000000" y="204.761669" fill="rgb(191,191,191)"  stroke="rgb(191,191,191)" stroke-width="1" font-size="16" >H</text>
<text x="68.641016" y="264.761669" fill="rgb(191,191,191)"  stroke="rgb(191,191,191)" stroke-width="1" font-size="16" >H</text>
<text x="143.282032" y="244.761669" fill="rgb(191,191,191)"  stroke="rgb(191,191,191)" stroke-width="1" font-size="16" >H</text>
<text x="254.217117" y="115.768054" fill="rgb(255,12,12)"  stroke="rgb(255,12,12)" stroke-width="1" font-size="16" >O</text>
<text x="137.923048" y="144.761669" fill="rgb(12,12,255)"  stroke="rgb(12,12,255)" stroke-width="1" font-size="16" >N</text>
</svg>
</g>
<text font-size="18.000000" fill ="black" font-family="sans-serif"
x="10.000000" y="20.000000" >ZINC19091407</text>
</svg>
