<?xml version="1.0"?>
<svg version="1.1" id="topsvg"
xmlns="http://www.w3.org/2000/svg" xmlns:xlink="http://www.w3.org/1999/xlink"
xmlns:cml="http://www.xml-cml.org/schema" x="0" y="0" width="200px" height="200px" viewBox="0 0 100 100">
<title>ZINC12410248 - Open Babel Depiction</title>
<rect x="0" y="0" width="100" height="100" fill="white"/>
<g transform="translate(0,0)">
<svg width="100" height="100" x="0" y="0" viewBox="0 0 293.205 180"
font-family="sans-serif" stroke="rgb(0,0,0)" stroke-width="2"  stroke-linecap="round">
<line x1="149.3" y1="80.0" x2="162.8" y2="56.6" stroke="rgb(0,0,0)"  stroke-width="2.0"/>
<line x1="149.3" y1="80.0" x2="135.8" y2="56.6" stroke="rgb(0,0,0)"  stroke-width="2.0"/>
<line x1="149.3" y1="80.0" x2="114.6" y2="100.0" stroke="rgb(0,0,0)"  stroke-width="2.0"/>
<line x1="149.3" y1="80.0" x2="183.9" y2="100.0" stroke="rgb(0,0,0)"  stroke-width="2.0"/>
<line x1="114.6" y1="100.0" x2="80.0" y2="80.0" stroke="rgb(0,0,0)"  stroke-width="2.0"/>
<line x1="117.6" y1="100.0" x2="117.6" y2="127.0" stroke="rgb(0,0,0)"  stroke-width="2.0"/>
<line x1="111.6" y1="100.0" x2="111.6" y2="127.0" stroke="rgb(0,0,0)"  stroke-width="2.0"/>
<line x1="80.0" y1="80.0" x2="53.0" y2="80.0" stroke="rgb(0,0,0)"  stroke-width="2.0"/>
<line x1="80.0" y1="80.0" x2="66.5" y2="103.4" stroke="rgb(0,0,0)"  stroke-width="2.0"/>
<line x1="80.0" y1="80.0" x2="80.0" y2="53.0" stroke="rgb(0,0,0)"  stroke-width="2.0"/>
<line x1="183.9" y1="100.0" x2="218.6" y2="80.0" stroke="rgb(0,0,0)"  stroke-width="2.0"/>
<line x1="186.9" y1="100.0" x2="186.9" y2="127.0" stroke="rgb(0,0,0)"  stroke-width="2.0"/>
<line x1="180.9" y1="100.0" x2="180.9" y2="127.0" stroke="rgb(0,0,0)"  stroke-width="2.0"/>
<line x1="218.6" y1="80.0" x2="232.1" y2="56.6" stroke="rgb(0,0,0)"  stroke-width="2.0"/>
<line x1="218.6" y1="80.0" x2="205.1" y2="56.6" stroke="rgb(0,0,0)"  stroke-width="2.0"/>
<line x1="218.6" y1="80.0" x2="241.9" y2="93.5" stroke="rgb(0,0,0)"  stroke-width="2.0"/>
<text x="34.000000" y="88.000000" fill="rgb(127,178,255)"  stroke="rgb(127,178,255)" stroke-width="1" font-size="16" >F</text>
<text x="54.000000" y="122.641016" fill="rgb(127,178,255)"  stroke="rgb(127,178,255)" stroke-width="1" font-size="16" >F</text>
<text x="74.000000" y="48.000000" fill="rgb(127,178,255)"  stroke="rgb(127,178,255)" stroke-width="1" font-size="16" >F</text>
<text x="108.641016" y="148.000000" fill="rgb(255,12,12)"  stroke="rgb(255,12,12)" stroke-width="1" font-size="16" >O</text>
<text x="177.923048" y="148.000000" fill="rgb(255,12,12)"  stroke="rgb(255,12,12)" stroke-width="1" font-size="16" >O</text>
<text x="232.564065" y="53.358984" fill="rgb(127,178,255)"  stroke="rgb(127,178,255)" stroke-width="1" font-size="16" >F</text>
<text x="192.564065" y="53.358984" fill="rgb(127,178,255)"  stroke="rgb(127,178,255)" stroke-width="1" font-size="16" >F</text>
<text x="247.205081" y="108.000000" fill="rgb(127,178,255)"  stroke="rgb(127,178,255)" stroke-width="1" font-size="16" >F</text>
<text x="123.282032" y="53.358984" fill="rgb(191,191,191)"  stroke="rgb(191,191,191)" stroke-width="1" font-size="16" >H</text>
<text x="163.282032" y="53.358984" fill="rgb(191,191,191)"  stroke="rgb(191,191,191)" stroke-width="1" font-size="16" >H</text>
</svg>
</g>
<text font-size="18.000000" fill ="black" font-family="sans-serif"
x="10.000000" y="20.000000" >ZINC12410248</text>
</svg>
