<?xml version="1.0"?>
<svg version="1.1" id="topsvg"
xmlns="http://www.w3.org/2000/svg" xmlns:xlink="http://www.w3.org/1999/xlink"
xmlns:cml="http://www.xml-cml.org/schema" x="0" y="0" width="200px" height="200px" viewBox="0 0 100 100">
<title>ZINC20130171 - Open Babel Depiction</title>
<rect x="0" y="0" width="100" height="100" fill="white"/>
<g transform="translate(0,0)">
<svg width="100" height="100" x="0" y="0" viewBox="0 0 431.769 280"
font-family="sans-serif" stroke="rgb(0,0,0)" stroke-width="2"  stroke-linecap="round">
<line x1="357.1" y1="120.0" x2="333.7" y2="133.5" stroke="rgb(0,0,0)"  stroke-width="2.0"/>
<line x1="357.1" y1="120.0" x2="370.6" y2="96.6" stroke="rgb(0,0,0)"  stroke-width="2.0"/>
<line x1="357.1" y1="120.0" x2="343.6" y2="96.6" stroke="rgb(0,0,0)"  stroke-width="2.0"/>
<line x1="357.1" y1="120.0" x2="380.5" y2="133.5" stroke="rgb(0,0,0)"  stroke-width="2.0"/>
<line x1="287.8" y1="120.0" x2="301.3" y2="96.6" stroke="rgb(0,0,0)"  stroke-width="2.0"/>
<line x1="287.8" y1="120.0" x2="274.3" y2="96.6" stroke="rgb(0,0,0)"  stroke-width="2.0"/>
<line x1="253.2" y1="140.0" x2="239.7" y2="116.6" stroke="rgb(0,0,0)"  stroke-width="2.0"/>
<line x1="253.2" y1="140.0" x2="226.2" y2="140.0" stroke="rgb(0,0,0)"  stroke-width="2.0"/>
<line x1="241.9" y1="186.5" x2="218.6" y2="200.0" stroke="rgb(0,0,0)"  stroke-width="2.0"/>
<line x1="287.8" y1="200.0" x2="274.3" y2="223.4" stroke="rgb(0,0,0)"  stroke-width="2.0"/>
<line x1="287.8" y1="200.0" x2="301.3" y2="223.4" stroke="rgb(0,0,0)"  stroke-width="2.0"/>
<line x1="322.5" y1="180.0" x2="336.0" y2="203.4" stroke="rgb(0,0,0)"  stroke-width="2.0"/>
<line x1="322.5" y1="180.0" x2="349.5" y2="180.0" stroke="rgb(0,0,0)"  stroke-width="2.0"/>
<line x1="218.6" y1="200.0" x2="183.9" y2="180.0" stroke="rgb(0,0,0)"  stroke-width="2.0"/>
<line x1="218.6" y1="200.0" x2="205.1" y2="223.4" stroke="rgb(0,0,0)"  stroke-width="2.0"/>
<line x1="218.6" y1="200.0" x2="232.1" y2="223.4" stroke="rgb(0,0,0)"  stroke-width="2.0"/>
<line x1="183.9" y1="140.0" x2="207.3" y2="126.5" stroke="rgb(0,0,0)"  stroke-width="2.0"/>
<line x1="149.3" y1="120.0" x2="149.3" y2="93.0" stroke="rgb(0,0,0)"  stroke-width="2.0"/>
<line x1="114.6" y1="140.0" x2="80.0" y2="120.0" stroke="rgb(0,0,0)"  stroke-width="2.0"/>
<line x1="114.6" y1="180.0" x2="91.3" y2="193.5" stroke="rgb(0,0,0)"  stroke-width="2.0"/>
<line x1="149.3" y1="200.0" x2="149.3" y2="227.0" stroke="rgb(0,0,0)"  stroke-width="2.0"/>
<line x1="80.0" y1="120.0" x2="80.0" y2="93.0" stroke="rgb(0,0,0)"  stroke-width="2.0"/>
<line x1="80.0" y1="120.0" x2="53.0" y2="120.0" stroke="rgb(0,0,0)"  stroke-width="2.0"/>
<line x1="80.0" y1="120.0" x2="66.5" y2="143.4" stroke="rgb(0,0,0)"  stroke-width="2.0"/>
<line x1="93.0" y1="80.0" x2="107.0" y2="80.0" stroke="rgb(0,0,0)"  stroke-width="2.0"/>
<line x1="80.0" y1="67.0" x2="80.0" y2="53.0" stroke="rgb(0,0,0)"  stroke-width="2.0"/>
<line x1="67.0" y1="80.0" x2="53.0" y2="80.0" stroke="rgb(0,0,0)"  stroke-width="2.0"/>
<line x1="149.3" y1="120.0" x2="114.6" y2="140.0" stroke="rgb(0,0,0)"  stroke-width="2.0"/>
<line x1="114.6" y1="140.0" x2="114.6" y2="180.0" stroke="rgb(0,0,0)"  stroke-width="2.0"/>
<line x1="121.8" y1="146.0" x2="121.8" y2="174.0" stroke="rgb(0,0,0)"  stroke-width="2.0"/>
<line x1="114.6" y1="180.0" x2="149.3" y2="200.0" stroke="rgb(0,0,0)"  stroke-width="2.0"/>
<line x1="149.3" y1="200.0" x2="183.9" y2="180.0" stroke="rgb(0,0,0)"  stroke-width="2.0"/>
<line x1="150.9" y1="190.8" x2="175.1" y2="176.8" stroke="rgb(0,0,0)"  stroke-width="2.0"/>
<line x1="183.9" y1="180.0" x2="183.9" y2="140.0" stroke="rgb(0,0,0)"  stroke-width="2.0"/>
<line x1="183.9" y1="140.0" x2="149.3" y2="120.0" stroke="rgb(0,0,0)"  stroke-width="2.0"/>
<line x1="175.1" y1="143.2" x2="150.9" y2="129.2" stroke="rgb(0,0,0)"  stroke-width="2.0"/>
<line x1="253.2" y1="140.0" x2="253.2" y2="167.0" stroke="rgb(0,0,0)"  stroke-width="2.0"/>
<line x1="264.5" y1="186.5" x2="287.8" y2="200.0" stroke="rgb(0,0,0)"  stroke-width="2.0"/>
<line x1="287.8" y1="200.0" x2="322.5" y2="180.0" stroke="rgb(0,0,0)"  stroke-width="2.0"/>
<line x1="322.5" y1="180.0" x2="322.5" y2="153.0" stroke="rgb(0,0,0)"  stroke-width="2.0"/>
<line x1="311.2" y1="133.5" x2="287.8" y2="120.0" stroke="rgb(0,0,0)"  stroke-width="2.0"/>
<line x1="287.8" y1="120.0" x2="253.2" y2="140.0" stroke="rgb(0,0,0)"  stroke-width="2.0"/>
<text x="212.564065" y="128.000000" fill="rgb(191,191,191)"  stroke="rgb(191,191,191)" stroke-width="1" font-size="16" >H</text>
<text x="261.846097" y="93.358984" fill="rgb(191,191,191)"  stroke="rgb(191,191,191)" stroke-width="1" font-size="16" >H</text>
<text x="227.205081" y="113.358984" fill="rgb(191,191,191)"  stroke="rgb(191,191,191)" stroke-width="1" font-size="16" >H</text>
<text x="207.205081" y="148.000000" fill="rgb(191,191,191)"  stroke="rgb(191,191,191)" stroke-width="1" font-size="16" >H</text>
<text x="261.846097" y="242.641016" fill="rgb(191,191,191)"  stroke="rgb(191,191,191)" stroke-width="1" font-size="16" >H</text>
<text x="301.846097" y="242.641016" fill="rgb(191,191,191)"  stroke="rgb(191,191,191)" stroke-width="1" font-size="16" >H</text>
<text x="336.487113" y="222.641016" fill="rgb(191,191,191)"  stroke="rgb(191,191,191)" stroke-width="1" font-size="16" >H</text>
<text x="356.487113" y="188.000000" fill="rgb(191,191,191)"  stroke="rgb(191,191,191)" stroke-width="1" font-size="16" >H</text>
<text x="192.564065" y="242.641016" fill="rgb(191,191,191)"  stroke="rgb(191,191,191)" stroke-width="1" font-size="16" >H</text>
<text x="232.564065" y="242.641016" fill="rgb(191,191,191)"  stroke="rgb(191,191,191)" stroke-width="1" font-size="16" >H</text>
<text x="301.846097" y="93.358984" fill="rgb(191,191,191)"  stroke="rgb(191,191,191)" stroke-width="1" font-size="16" >H</text>
<text x="143.282032" y="88.000000" fill="rgb(191,191,191)"  stroke="rgb(191,191,191)" stroke-width="1" font-size="16" >H</text>
<text x="74.000000" y="208.000000" fill="rgb(191,191,191)"  stroke="rgb(191,191,191)" stroke-width="1" font-size="16" >H</text>
<text x="143.282032" y="248.000000" fill="rgb(191,191,191)"  stroke="rgb(191,191,191)" stroke-width="1" font-size="16" >H</text>
<text x="34.000000" y="128.000000" fill="rgb(191,191,191)"  stroke="rgb(191,191,191)" stroke-width="1" font-size="16" >H</text>
<text x="54.000000" y="162.641016" fill="rgb(191,191,191)"  stroke="rgb(191,191,191)" stroke-width="1" font-size="16" >H</text>
<text x="114.000000" y="88.000000" fill="rgb(191,191,191)"  stroke="rgb(191,191,191)" stroke-width="1" font-size="16" >H</text>
<text x="74.000000" y="48.000000" fill="rgb(191,191,191)"  stroke="rgb(191,191,191)" stroke-width="1" font-size="16" >H</text>
<text x="34.000000" y="88.000000" fill="rgb(191,191,191)"  stroke="rgb(191,191,191)" stroke-width="1" font-size="16" >H</text>
<text x="316.487113" y="148.000000" fill="rgb(12,12,255)"  stroke="rgb(12,12,255)" stroke-width="1" font-size="16" >N</text>
<text x="247.205081" y="188.000000" fill="rgb(12,12,255)"  stroke="rgb(12,12,255)" stroke-width="1" font-size="16" >N</text>
<text x="84.800000" y="75.968000" fill="rgb(12,12,255)"  stroke="rgb(12,12,255)" stroke-width="1" font-size="16" >+</text>
<text x="74.000000" y="88.000000" fill="rgb(12,12,255)"  stroke="rgb(12,12,255)" stroke-width="1" font-size="16" >N</text>
<text x="371.128129" y="93.358984" fill="rgb(191,191,191)"  stroke="rgb(191,191,191)" stroke-width="1" font-size="16" >H</text>
<text x="331.128129" y="93.358984" fill="rgb(191,191,191)"  stroke="rgb(191,191,191)" stroke-width="1" font-size="16" >H</text>
<text x="385.769145" y="148.000000" fill="rgb(191,191,191)"  stroke="rgb(191,191,191)" stroke-width="1" font-size="16" >H</text>
</svg>
</g>
<text font-size="18.000000" fill ="black" font-family="sans-serif"
x="10.000000" y="20.000000" >ZINC20130171</text>
</svg>
