<?xml version="1.0"?>
<svg version="1.1" id="topsvg"
xmlns="http://www.w3.org/2000/svg" xmlns:xlink="http://www.w3.org/1999/xlink"
xmlns:cml="http://www.xml-cml.org/schema" x="0" y="0" width="200px" height="200px" viewBox="0 0 100 100">
<title> - Open Babel Depiction</title>
<rect x="0" y="0" width="100" height="100" fill="white"/>
<g transform="translate(0,0)">
<svg width="100" height="100" x="0" y="0" viewBox="0 0 818.564 654.641"
font-family="sans-serif" stroke="rgb(0,0,0)" stroke-width="2"  stroke-linecap="round">
<line x1="738.6" y1="238.4" x2="738.6" y2="252.4" stroke="rgb(0,0,0)"  stroke-width="2.0"/>
<line x1="751.6" y1="225.4" x2="765.6" y2="225.4" stroke="rgb(0,0,0)"  stroke-width="2.0"/>
<line x1="738.6" y1="212.4" x2="738.6" y2="198.4" stroke="rgb(0,0,0)"  stroke-width="2.0"/>
<line x1="725.6" y1="225.4" x2="698.6" y2="225.4" stroke="rgb(0,0,0)"  stroke-width="2.0"/>
<line x1="698.6" y1="225.4" x2="678.6" y2="260.0" stroke="rgb(0,0,0)"  stroke-width="2.0"/>
<line x1="678.6" y1="260.0" x2="638.6" y2="260.0" stroke="rgb(0,0,0)"  stroke-width="2.0"/>
<line x1="638.6" y1="260.0" x2="618.6" y2="294.6" stroke="rgb(0,0,0)"  stroke-width="2.0"/>
<line x1="618.6" y1="294.6" x2="578.6" y2="294.6" stroke="rgb(0,0,0)"  stroke-width="2.0"/>
<line x1="577.8" y1="289.3" x2="579.4" y2="289.3" stroke="rgb(0,0,0)"  stroke-width="1.0"/>
<line x1="577.1" y1="285.0" x2="580.0" y2="285.0" stroke="rgb(0,0,0)"  stroke-width="1.0"/>
<line x1="576.5" y1="280.7" x2="580.6" y2="280.7" stroke="rgb(0,0,0)"  stroke-width="1.0"/>
<line x1="575.8" y1="276.4" x2="581.3" y2="276.4" stroke="rgb(0,0,0)"  stroke-width="1.0"/>
<line x1="575.2" y1="272.1" x2="581.9" y2="272.1" stroke="rgb(0,0,0)"  stroke-width="1.0"/>
<line x1="574.6" y1="267.8" x2="582.6" y2="267.8" stroke="rgb(0,0,0)"  stroke-width="1.0"/>
<line x1="578.6" y1="294.6" x2="538.6" y2="294.6" stroke="rgb(0,0,0)"  stroke-width="2.0"/>
<line x1="541.2" y1="296.1" x2="527.7" y2="319.5" stroke="rgb(0,0,0)"  stroke-width="2.0"/>
<line x1="536.0" y1="293.1" x2="522.5" y2="316.5" stroke="rgb(0,0,0)"  stroke-width="2.0"/>
<line x1="538.6" y1="294.6" x2="525.1" y2="271.3" stroke="rgb(0,0,0)"  stroke-width="2.0"/>
<line x1="505.6" y1="260.0" x2="478.6" y2="260.0" stroke="rgb(0,0,0)"  stroke-width="2.0"/>
<line x1="479.4" y1="265.4" x2="477.8" y2="265.4" stroke="rgb(0,0,0)"  stroke-width="1.0"/>
<line x1="480.0" y1="269.6" x2="477.1" y2="269.6" stroke="rgb(0,0,0)"  stroke-width="1.0"/>
<line x1="480.6" y1="273.9" x2="476.5" y2="273.9" stroke="rgb(0,0,0)"  stroke-width="1.0"/>
<line x1="481.3" y1="278.2" x2="475.8" y2="278.2" stroke="rgb(0,0,0)"  stroke-width="1.0"/>
<line x1="481.9" y1="282.5" x2="475.2" y2="282.5" stroke="rgb(0,0,0)"  stroke-width="1.0"/>
<line x1="482.6" y1="286.8" x2="474.6" y2="286.8" stroke="rgb(0,0,0)"  stroke-width="1.0"/>
<line x1="478.6" y1="260.0" x2="438.6" y2="260.0" stroke="rgb(0,0,0)"  stroke-width="2.0"/>
<line x1="441.2" y1="261.5" x2="427.7" y2="284.9" stroke="rgb(0,0,0)"  stroke-width="2.0"/>
<line x1="436.0" y1="258.5" x2="422.5" y2="281.9" stroke="rgb(0,0,0)"  stroke-width="2.0"/>
<line x1="438.6" y1="260.0" x2="425.1" y2="236.6" stroke="rgb(0,0,0)"  stroke-width="2.0"/>
<line x1="405.6" y1="225.4" x2="378.6" y2="225.4" stroke="rgb(0,0,0)"  stroke-width="2.0"/>
<polygon points="378.564065 225.358984 353.354584 215.423085 357.354584 208.494882 " stroke-width="2.000000" fill="rgb(0,0,0)"  stroke="rgb(0,0,0)" />
<line x1="378.6" y1="225.4" x2="358.6" y2="260.0" stroke="rgb(0,0,0)"  stroke-width="2.0"/>
<line x1="361.2" y1="258.5" x2="374.7" y2="281.9" stroke="rgb(0,0,0)"  stroke-width="2.0"/>
<line x1="356.0" y1="261.5" x2="369.5" y2="284.9" stroke="rgb(0,0,0)"  stroke-width="2.0"/>
<line x1="358.6" y1="260.0" x2="331.6" y2="260.0" stroke="rgb(0,0,0)"  stroke-width="2.0"/>
<line x1="312.1" y1="271.3" x2="298.6" y2="294.6" stroke="rgb(0,0,0)"  stroke-width="2.0"/>
<polygon points="298.564065 294.641016 323.773545 304.576915 319.773545 311.505118 " stroke-width="2.000000" fill="rgb(0,0,0)"  stroke="rgb(0,0,0)" />
<line x1="298.6" y1="294.6" x2="278.6" y2="329.3" stroke="rgb(0,0,0)"  stroke-width="2.0"/>
<line x1="281.2" y1="327.8" x2="294.7" y2="351.2" stroke="rgb(0,0,0)"  stroke-width="2.0"/>
<line x1="276.0" y1="330.8" x2="289.5" y2="354.2" stroke="rgb(0,0,0)"  stroke-width="2.0"/>
<line x1="278.6" y1="329.3" x2="251.6" y2="329.3" stroke="rgb(0,0,0)"  stroke-width="2.0"/>
<line x1="232.1" y1="340.5" x2="218.6" y2="363.9" stroke="rgb(0,0,0)"  stroke-width="2.0"/>
<polygon points="218.564065 363.923048 243.773545 373.858947 239.773545 380.787150 " stroke-width="2.000000" fill="rgb(0,0,0)"  stroke="rgb(0,0,0)" />
<line x1="218.6" y1="363.9" x2="198.6" y2="398.6" stroke="rgb(0,0,0)"  stroke-width="2.0"/>
<line x1="198.6" y1="401.6" x2="171.6" y2="401.6" stroke="rgb(0,0,0)"  stroke-width="2.0"/>
<line x1="198.6" y1="395.6" x2="171.6" y2="395.6" stroke="rgb(0,0,0)"  stroke-width="2.0"/>
<line x1="198.6" y1="398.6" x2="212.1" y2="421.9" stroke="rgb(0,0,0)"  stroke-width="2.0"/>
<line x1="212.1" y1="444.5" x2="198.6" y2="467.8" stroke="rgb(0,0,0)"  stroke-width="2.0"/>
<line x1="193.5" y1="465.9" x2="194.3" y2="464.5" stroke="rgb(0,0,0)"  stroke-width="1.0"/>
<line x1="189.5" y1="464.3" x2="190.9" y2="461.8" stroke="rgb(0,0,0)"  stroke-width="1.0"/>
<line x1="185.5" y1="462.7" x2="187.5" y2="459.1" stroke="rgb(0,0,0)"  stroke-width="1.0"/>
<line x1="181.4" y1="461.1" x2="184.1" y2="456.4" stroke="rgb(0,0,0)"  stroke-width="1.0"/>
<line x1="177.4" y1="459.5" x2="180.7" y2="453.7" stroke="rgb(0,0,0)"  stroke-width="1.0"/>
<line x1="173.4" y1="457.9" x2="177.4" y2="451.0" stroke="rgb(0,0,0)"  stroke-width="1.0"/>
<line x1="198.6" y1="467.8" x2="178.6" y2="502.5" stroke="rgb(0,0,0)"  stroke-width="2.0"/>
<line x1="178.6" y1="505.5" x2="151.6" y2="505.5" stroke="rgb(0,0,0)"  stroke-width="2.0"/>
<line x1="178.6" y1="499.5" x2="151.6" y2="499.5" stroke="rgb(0,0,0)"  stroke-width="2.0"/>
<line x1="178.6" y1="502.5" x2="192.1" y2="525.9" stroke="rgb(0,0,0)"  stroke-width="2.0"/>
<line x1="198.6" y1="467.8" x2="233.2" y2="487.8" stroke="rgb(0,0,0)"  stroke-width="2.0"/>
<line x1="233.2" y1="487.8" x2="233.2" y2="527.8" stroke="rgb(0,0,0)"  stroke-width="2.0"/>
<line x1="233.2" y1="527.8" x2="267.8" y2="547.8" stroke="rgb(0,0,0)"  stroke-width="2.0"/>
<line x1="266.3" y1="545.2" x2="289.7" y2="531.7" stroke="rgb(0,0,0)"  stroke-width="2.0"/>
<line x1="269.3" y1="550.4" x2="292.7" y2="536.9" stroke="rgb(0,0,0)"  stroke-width="2.0"/>
<line x1="267.8" y1="547.8" x2="267.8" y2="574.8" stroke="rgb(0,0,0)"  stroke-width="2.0"/>
<line x1="218.6" y1="363.9" x2="183.9" y2="343.9" stroke="rgb(0,0,0)"  stroke-width="2.0"/>
<line x1="183.9" y1="343.9" x2="149.3" y2="363.9" stroke="rgb(0,0,0)"  stroke-width="2.0"/>
<line x1="149.3" y1="363.9" x2="114.6" y2="343.9" stroke="rgb(0,0,0)"  stroke-width="2.0"/>
<line x1="114.6" y1="343.9" x2="80.0" y2="363.9" stroke="rgb(0,0,0)"  stroke-width="2.0"/>
<line x1="80.0" y1="363.9" x2="80.0" y2="390.9" stroke="rgb(0,0,0)"  stroke-width="2.0"/>
<line x1="93.0" y1="403.9" x2="107.0" y2="403.9" stroke="rgb(0,0,0)"  stroke-width="2.0"/>
<line x1="80.0" y1="416.9" x2="80.0" y2="430.9" stroke="rgb(0,0,0)"  stroke-width="2.0"/>
<line x1="67.0" y1="403.9" x2="53.0" y2="403.9" stroke="rgb(0,0,0)"  stroke-width="2.0"/>
<line x1="298.6" y1="294.6" x2="263.9" y2="274.6" stroke="rgb(0,0,0)"  stroke-width="2.0"/>
<line x1="263.9" y1="274.6" x2="229.3" y2="294.6" stroke="rgb(0,0,0)"  stroke-width="2.0"/>
<line x1="229.3" y1="294.6" x2="194.6" y2="274.6" stroke="rgb(0,0,0)"  stroke-width="2.0"/>
<line x1="194.6" y1="274.6" x2="171.3" y2="288.1" stroke="rgb(0,0,0)"  stroke-width="2.0"/>
<line x1="148.7" y1="288.1" x2="125.4" y2="274.6" stroke="rgb(0,0,0)"  stroke-width="2.0"/>
<line x1="122.4" y1="274.6" x2="122.4" y2="247.6" stroke="rgb(0,0,0)"  stroke-width="2.0"/>
<line x1="128.4" y1="274.6" x2="128.4" y2="247.6" stroke="rgb(0,0,0)"  stroke-width="2.0"/>
<line x1="136.6" y1="228.1" x2="148.7" y2="221.1" stroke="rgb(0,0,0)"  stroke-width="2.0"/>
<line x1="114.1" y1="228.1" x2="102.0" y2="221.1" stroke="rgb(0,0,0)"  stroke-width="2.0"/>
<line x1="125.4" y1="274.6" x2="102.0" y2="288.1" stroke="rgb(0,0,0)"  stroke-width="2.0"/>
<line x1="378.6" y1="225.4" x2="378.6" y2="198.4" stroke="rgb(0,0,0)"  stroke-width="2.0"/>
<line x1="478.6" y1="260.0" x2="478.6" y2="220.0" stroke="rgb(0,0,0)"  stroke-width="2.0"/>
<line x1="478.6" y1="220.0" x2="443.9" y2="200.0" stroke="rgb(0,0,0)"  stroke-width="2.0"/>
<line x1="443.9" y1="200.0" x2="443.9" y2="160.0" stroke="rgb(0,0,0)"  stroke-width="2.0"/>
<line x1="443.9" y1="160.0" x2="420.5" y2="146.5" stroke="rgb(0,0,0)"  stroke-width="2.0"/>
<line x1="409.3" y1="127.0" x2="409.3" y2="100.0" stroke="rgb(0,0,0)"  stroke-width="2.0"/>
<line x1="407.8" y1="102.6" x2="384.4" y2="89.1" stroke="rgb(0,0,0)"  stroke-width="2.0"/>
<line x1="410.8" y1="97.4" x2="387.4" y2="83.9" stroke="rgb(0,0,0)"  stroke-width="2.0"/>
<line x1="363.4" y1="86.5" x2="351.3" y2="93.5" stroke="rgb(0,0,0)"  stroke-width="2.0"/>
<line x1="374.6" y1="67.0" x2="374.6" y2="53.0" stroke="rgb(0,0,0)"  stroke-width="2.0"/>
<line x1="409.3" y1="100.0" x2="432.7" y2="86.5" stroke="rgb(0,0,0)"  stroke-width="2.0"/>
<line x1="578.6" y1="294.6" x2="578.6" y2="321.6" stroke="rgb(0,0,0)"  stroke-width="2.0"/>
<line x1="589.8" y1="341.1" x2="613.2" y2="354.6" stroke="rgb(0,0,0)"  stroke-width="2.0"/>
<line x1="611.7" y1="352.0" x2="635.1" y2="338.5" stroke="rgb(0,0,0)"  stroke-width="2.0"/>
<line x1="614.7" y1="357.2" x2="638.1" y2="343.7" stroke="rgb(0,0,0)"  stroke-width="2.0"/>
<line x1="613.2" y1="354.6" x2="613.2" y2="394.6" stroke="rgb(0,0,0)"  stroke-width="2.0"/>
<line x1="618.6" y1="393.8" x2="618.6" y2="395.4" stroke="rgb(0,0,0)"  stroke-width="1.0"/>
<line x1="622.9" y1="393.2" x2="622.9" y2="396.1" stroke="rgb(0,0,0)"  stroke-width="1.0"/>
<line x1="627.1" y1="392.6" x2="627.1" y2="396.7" stroke="rgb(0,0,0)"  stroke-width="1.0"/>
<line x1="631.4" y1="391.9" x2="631.4" y2="397.4" stroke="rgb(0,0,0)"  stroke-width="1.0"/>
<line x1="635.7" y1="391.3" x2="635.7" y2="398.0" stroke="rgb(0,0,0)"  stroke-width="1.0"/>
<line x1="640.0" y1="390.6" x2="640.0" y2="398.6" stroke="rgb(0,0,0)"  stroke-width="1.0"/>
<line x1="613.2" y1="394.6" x2="613.2" y2="434.6" stroke="rgb(0,0,0)"  stroke-width="2.0"/>
<line x1="613.2" y1="434.6" x2="647.8" y2="454.6" stroke="rgb(0,0,0)"  stroke-width="2.0"/>
<line x1="647.8" y1="454.6" x2="647.8" y2="494.6" stroke="rgb(0,0,0)"  stroke-width="2.0"/>
<line x1="647.8" y1="494.6" x2="624.5" y2="508.1" stroke="rgb(0,0,0)"  stroke-width="2.0"/>
<line x1="613.2" y1="527.6" x2="613.2" y2="554.6" stroke="rgb(0,0,0)"  stroke-width="2.0"/>
<line x1="614.7" y1="557.2" x2="591.3" y2="570.7" stroke="rgb(0,0,0)"  stroke-width="2.0"/>
<line x1="611.7" y1="552.0" x2="588.3" y2="565.5" stroke="rgb(0,0,0)"  stroke-width="2.0"/>
<line x1="567.3" y1="568.1" x2="555.2" y2="561.1" stroke="rgb(0,0,0)"  stroke-width="2.0"/>
<line x1="578.6" y1="587.6" x2="578.6" y2="601.6" stroke="rgb(0,0,0)"  stroke-width="2.0"/>
<line x1="613.2" y1="554.6" x2="636.6" y2="568.1" stroke="rgb(0,0,0)"  stroke-width="2.0"/>
<line x1="613.2" y1="394.6" x2="586.2" y2="394.6" stroke="rgb(0,0,0)"  stroke-width="2.0"/>
<line x1="573.2" y1="407.6" x2="573.2" y2="421.6" stroke="rgb(0,0,0)"  stroke-width="2.0"/>
<line x1="560.2" y1="394.6" x2="546.2" y2="394.6" stroke="rgb(0,0,0)"  stroke-width="2.0"/>
<line x1="573.2" y1="381.6" x2="573.2" y2="367.6" stroke="rgb(0,0,0)"  stroke-width="2.0"/>
<text x="391.282032" y="148.000000" fill="rgb(12,12,255)"  stroke="rgb(12,12,255)" stroke-width="1" font-size="16" >HN</text>
<text x="374.564065" y="193.358984" fill="rgb(102,102,102)"  stroke="rgb(102,102,102)" stroke-width="1" font-size="16" >CH</text>
<text x="398.564065" y="197.038984" fill="rgb(102,102,102)"  stroke="rgb(102,102,102)" stroke-width="1" font-size="13" >3</text>
<text x="64.717968" y="302.641016" fill="rgb(12,12,255)"  stroke="rgb(12,12,255)" stroke-width="1" font-size="16" >H</text>
<text x="76.717968" y="306.321016" fill="rgb(12,12,255)"  stroke="rgb(12,12,255)" stroke-width="1" font-size="13" >2</text>
<text x="83.217968" y="302.641016" fill="rgb(12,12,255)"  stroke="rgb(12,12,255)" stroke-width="1" font-size="16" >N</text>
<text x="84.717968" y="222.641016" fill="rgb(191,191,191)"  stroke="rgb(191,191,191)" stroke-width="1" font-size="16" >H</text>
<text x="154.000000" y="222.641016" fill="rgb(191,191,191)"  stroke="rgb(191,191,191)" stroke-width="1" font-size="16" >H</text>
<text x="119.358984" y="242.641016" fill="rgb(12,12,255)"  stroke="rgb(12,12,255)" stroke-width="1" font-size="16" >N</text>
<text x="368.641016" y="88.000000" fill="rgb(12,12,255)"  stroke="rgb(12,12,255)" stroke-width="1" font-size="16" >N</text>
<text x="154.000000" y="302.641016" fill="rgb(12,12,255)"  stroke="rgb(12,12,255)" stroke-width="1" font-size="16" >N</text>
<text x="154.000000" y="318.641016" fill="rgb(12,12,255)"  stroke="rgb(12,12,255)" stroke-width="1" font-size="16" >H</text>
<text x="34.000000" y="411.923048" fill="rgb(191,191,191)"  stroke="rgb(191,191,191)" stroke-width="1" font-size="16" >H</text>
<text x="74.000000" y="451.923048" fill="rgb(191,191,191)"  stroke="rgb(191,191,191)" stroke-width="1" font-size="16" >H</text>
<text x="114.000000" y="411.923048" fill="rgb(191,191,191)"  stroke="rgb(191,191,191)" stroke-width="1" font-size="16" >H</text>
<text x="84.800000" y="399.891048" fill="rgb(12,12,255)"  stroke="rgb(12,12,255)" stroke-width="1" font-size="16" >+</text>
<text x="74.000000" y="411.923048" fill="rgb(12,12,255)"  stroke="rgb(12,12,255)" stroke-width="1" font-size="16" >N</text>
<text x="567.205081" y="362.641016" fill="rgb(191,191,191)"  stroke="rgb(191,191,191)" stroke-width="1" font-size="16" >H</text>
<text x="527.205081" y="402.641016" fill="rgb(191,191,191)"  stroke="rgb(191,191,191)" stroke-width="1" font-size="16" >H</text>
<text x="567.205081" y="442.641016" fill="rgb(191,191,191)"  stroke="rgb(191,191,191)" stroke-width="1" font-size="16" >H</text>
<text x="578.005081" y="390.609016" fill="rgb(12,12,255)"  stroke="rgb(12,12,255)" stroke-width="1" font-size="16" >+</text>
<text x="567.205081" y="402.641016" fill="rgb(12,12,255)"  stroke="rgb(12,12,255)" stroke-width="1" font-size="16" >N</text>
<text x="643.846097" y="582.641016" fill="rgb(12,12,255)"  stroke="rgb(12,12,255)" stroke-width="1" font-size="16" >NH</text>
<text x="667.846097" y="586.321016" fill="rgb(12,12,255)"  stroke="rgb(12,12,255)" stroke-width="1" font-size="13" >2</text>
<text x="572.564065" y="622.641016" fill="rgb(191,191,191)"  stroke="rgb(191,191,191)" stroke-width="1" font-size="16" >H</text>
<text x="537.923048" y="562.641016" fill="rgb(191,191,191)"  stroke="rgb(191,191,191)" stroke-width="1" font-size="16" >H</text>
<text x="572.564065" y="582.641016" fill="rgb(12,12,255)"  stroke="rgb(12,12,255)" stroke-width="1" font-size="16" >N</text>
<text x="595.205081" y="522.641016" fill="rgb(12,12,255)"  stroke="rgb(12,12,255)" stroke-width="1" font-size="16" >HN</text>
<text x="647.205081" y="402.641016" fill="rgb(191,191,191)"  stroke="rgb(191,191,191)" stroke-width="1" font-size="16" >H</text>
<text x="641.846097" y="342.641016" fill="rgb(255,12,12)"  stroke="rgb(255,12,12)" stroke-width="1" font-size="16" >O</text>
<text x="560.564065" y="342.641016" fill="rgb(12,12,255)"  stroke="rgb(12,12,255)" stroke-width="1" font-size="16" >HN</text>
<text x="439.923048" y="88.000000" fill="rgb(12,12,255)"  stroke="rgb(12,12,255)" stroke-width="1" font-size="16" >NH</text>
<text x="463.923048" y="91.680000" fill="rgb(12,12,255)"  stroke="rgb(12,12,255)" stroke-width="1" font-size="13" >2</text>
<text x="368.641016" y="48.000000" fill="rgb(191,191,191)"  stroke="rgb(191,191,191)" stroke-width="1" font-size="16" >H</text>
<text x="334.000000" y="108.000000" fill="rgb(191,191,191)"  stroke="rgb(191,191,191)" stroke-width="1" font-size="16" >H</text>
<text x="512.564065" y="337.282032" fill="rgb(255,12,12)"  stroke="rgb(255,12,12)" stroke-width="1" font-size="16" >O</text>
<text x="372.564065" y="302.641016" fill="rgb(255,12,12)"  stroke="rgb(255,12,12)" stroke-width="1" font-size="16" >O</text>
<text x="337.923048" y="213.358984" fill="rgb(191,191,191)"  stroke="rgb(191,191,191)" stroke-width="1" font-size="16" >H</text>
<text x="412.564065" y="233.358984" fill="rgb(12,12,255)"  stroke="rgb(12,12,255)" stroke-width="1" font-size="16" >N</text>
<text x="412.564065" y="217.358984" fill="rgb(12,12,255)"  stroke="rgb(12,12,255)" stroke-width="1" font-size="16" >H</text>
<text x="412.564065" y="302.641016" fill="rgb(255,12,12)"  stroke="rgb(255,12,12)" stroke-width="1" font-size="16" >O</text>
<text x="472.564065" y="308.000000" fill="rgb(191,191,191)"  stroke="rgb(191,191,191)" stroke-width="1" font-size="16" >H</text>
<text x="512.564065" y="268.000000" fill="rgb(12,12,255)"  stroke="rgb(12,12,255)" stroke-width="1" font-size="16" >N</text>
<text x="512.564065" y="252.000000" fill="rgb(12,12,255)"  stroke="rgb(12,12,255)" stroke-width="1" font-size="16" >H</text>
<text x="312.564065" y="268.000000" fill="rgb(12,12,255)"  stroke="rgb(12,12,255)" stroke-width="1" font-size="16" >N</text>
<text x="312.564065" y="252.000000" fill="rgb(12,12,255)"  stroke="rgb(12,12,255)" stroke-width="1" font-size="16" >H</text>
<text x="572.564065" y="262.641016" fill="rgb(191,191,191)"  stroke="rgb(191,191,191)" stroke-width="1" font-size="16" >H</text>
<text x="732.564065" y="193.358984" fill="rgb(191,191,191)"  stroke="rgb(191,191,191)" stroke-width="1" font-size="16" >H</text>
<text x="772.564065" y="233.358984" fill="rgb(191,191,191)"  stroke="rgb(191,191,191)" stroke-width="1" font-size="16" >H</text>
<text x="732.564065" y="273.358984" fill="rgb(191,191,191)"  stroke="rgb(191,191,191)" stroke-width="1" font-size="16" >H</text>
<text x="261.846097" y="595.846097" fill="rgb(255,12,12)"  stroke="rgb(255,12,12)" stroke-width="1" font-size="16" >OH</text>
<text x="296.487113" y="535.846097" fill="rgb(255,12,12)"  stroke="rgb(255,12,12)" stroke-width="1" font-size="16" >O</text>
<text x="192.564065" y="545.128129" fill="rgb(255,12,12)"  stroke="rgb(255,12,12)" stroke-width="1" font-size="16" >OH</text>
<text x="132.564065" y="510.487113" fill="rgb(255,12,12)"  stroke="rgb(255,12,12)" stroke-width="1" font-size="16" >O</text>
<text x="157.923048" y="455.846097" fill="rgb(191,191,191)"  stroke="rgb(191,191,191)" stroke-width="1" font-size="16" >H</text>
<text x="743.364065" y="221.326984" fill="rgb(12,12,255)"  stroke="rgb(12,12,255)" stroke-width="1" font-size="16" >+</text>
<text x="732.564065" y="233.358984" fill="rgb(12,12,255)"  stroke="rgb(12,12,255)" stroke-width="1" font-size="16" >N</text>
<text x="212.564065" y="441.205081" fill="rgb(12,12,255)"  stroke="rgb(12,12,255)" stroke-width="1" font-size="16" >NH</text>
<text x="152.564065" y="406.564065" fill="rgb(255,12,12)"  stroke="rgb(255,12,12)" stroke-width="1" font-size="16" >O</text>
<text x="247.205081" y="391.923048" fill="rgb(191,191,191)"  stroke="rgb(191,191,191)" stroke-width="1" font-size="16" >H</text>
<text x="232.564065" y="337.282032" fill="rgb(12,12,255)"  stroke="rgb(12,12,255)" stroke-width="1" font-size="16" >N</text>
<text x="232.564065" y="321.282032" fill="rgb(12,12,255)"  stroke="rgb(12,12,255)" stroke-width="1" font-size="16" >H</text>
<text x="292.564065" y="371.923048" fill="rgb(255,12,12)"  stroke="rgb(255,12,12)" stroke-width="1" font-size="16" >O</text>
<text x="327.205081" y="322.641016" fill="rgb(191,191,191)"  stroke="rgb(191,191,191)" stroke-width="1" font-size="16" >H</text>
</svg>
</g>
<text font-size="18.000000" fill ="black" font-family="sans-serif"
x="10.000000" y="20.000000" ></text>
</svg>
