<?xml version="1.0"?>
<svg version="1.1" id="topsvg"
xmlns="http://www.w3.org/2000/svg" xmlns:xlink="http://www.w3.org/1999/xlink"
xmlns:cml="http://www.xml-cml.org/schema" x="0" y="0" width="200px" height="200px" viewBox="0 0 100 100">
<title>ZINC37482610 - Open Babel Depiction</title>
<rect x="0" y="0" width="100" height="100" fill="white"/>
<g transform="translate(0,0)">
<svg width="100" height="100" x="0" y="0" viewBox="0 0 361.652 229.282"
font-family="sans-serif" stroke="rgb(0,0,0)" stroke-width="2"  stroke-linecap="round">
<line x1="79.8" y1="108.1" x2="52.9" y2="105.3" stroke="rgb(0,0,0)"  stroke-width="2.0"/>
<line x1="99.8" y1="142.7" x2="88.8" y2="167.4" stroke="rgb(0,0,0)"  stroke-width="2.0"/>
<line x1="148.6" y1="143.1" x2="159.0" y2="152.5" stroke="rgb(0,0,0)"  stroke-width="2.0"/>
<line x1="143.1" y1="94.6" x2="177.7" y2="74.6" stroke="rgb(0,0,0)"  stroke-width="2.0"/>
<line x1="177.7" y1="74.6" x2="201.1" y2="88.1" stroke="rgb(0,0,0)"  stroke-width="2.0"/>
<line x1="177.7" y1="74.6" x2="191.2" y2="51.3" stroke="rgb(0,0,0)"  stroke-width="2.0"/>
<line x1="177.7" y1="74.6" x2="164.2" y2="51.3" stroke="rgb(0,0,0)"  stroke-width="2.0"/>
<line x1="212.4" y1="134.6" x2="185.4" y2="134.6" stroke="rgb(0,0,0)"  stroke-width="2.0"/>
<line x1="212.4" y1="134.6" x2="198.9" y2="158.0" stroke="rgb(0,0,0)"  stroke-width="2.0"/>
<line x1="247.0" y1="154.6" x2="233.5" y2="178.0" stroke="rgb(0,0,0)"  stroke-width="2.0"/>
<line x1="247.0" y1="154.6" x2="260.5" y2="178.0" stroke="rgb(0,0,0)"  stroke-width="2.0"/>
<line x1="288.2" y1="145.9" x2="295.2" y2="158.0" stroke="rgb(0,0,0)"  stroke-width="2.0"/>
<line x1="294.7" y1="134.6" x2="308.7" y2="134.6" stroke="rgb(0,0,0)"  stroke-width="2.0"/>
<line x1="281.7" y1="94.6" x2="308.7" y2="94.6" stroke="rgb(0,0,0)"  stroke-width="2.0"/>
<line x1="281.7" y1="94.6" x2="295.2" y2="71.3" stroke="rgb(0,0,0)"  stroke-width="2.0"/>
<line x1="247.0" y1="74.6" x2="260.5" y2="51.3" stroke="rgb(0,0,0)"  stroke-width="2.0"/>
<line x1="247.0" y1="74.6" x2="233.5" y2="51.3" stroke="rgb(0,0,0)"  stroke-width="2.0"/>
<line x1="140.3" y1="121.5" x2="143.1" y2="94.6" stroke="rgb(0,0,0)"  stroke-width="2.0"/>
<line x1="143.1" y1="94.6" x2="118.6" y2="83.7" stroke="rgb(0,0,0)"  stroke-width="2.0"/>
<line x1="134.7" y1="98.8" x2="117.5" y2="91.1" stroke="rgb(0,0,0)"  stroke-width="2.0"/>
<line x1="97.8" y1="88.0" x2="79.8" y2="108.1" stroke="rgb(0,0,0)"  stroke-width="2.0"/>
<line x1="79.8" y1="108.1" x2="99.8" y2="142.7" stroke="rgb(0,0,0)"  stroke-width="2.0"/>
<line x1="89.0" y1="109.7" x2="103.0" y2="133.9" stroke="rgb(0,0,0)"  stroke-width="2.0"/>
<line x1="99.8" y1="142.7" x2="126.2" y2="137.1" stroke="rgb(0,0,0)"  stroke-width="2.0"/>
<line x1="247.0" y1="154.6" x2="270.4" y2="141.1" stroke="rgb(0,0,0)"  stroke-width="2.0"/>
<line x1="281.7" y1="121.6" x2="281.7" y2="94.6" stroke="rgb(0,0,0)"  stroke-width="2.0"/>
<line x1="281.7" y1="94.6" x2="247.0" y2="74.6" stroke="rgb(0,0,0)"  stroke-width="2.0"/>
<line x1="247.0" y1="74.6" x2="223.6" y2="88.1" stroke="rgb(0,0,0)"  stroke-width="2.0"/>
<line x1="212.4" y1="107.6" x2="212.4" y2="134.6" stroke="rgb(0,0,0)"  stroke-width="2.0"/>
<line x1="212.4" y1="134.6" x2="247.0" y2="154.6" stroke="rgb(0,0,0)"  stroke-width="2.0"/>
<text x="77.511410" y="187.280178" fill="rgb(191,191,191)"  stroke="rgb(191,191,191)" stroke-width="1" font-size="16" >H</text>
<text x="162.632573" y="169.187116" fill="rgb(191,191,191)"  stroke="rgb(191,191,191)" stroke-width="1" font-size="16" >H</text>
<text x="315.651983" y="142.641016" fill="rgb(191,191,191)"  stroke="rgb(191,191,191)" stroke-width="1" font-size="16" >H</text>
<text x="221.010967" y="48.000000" fill="rgb(191,191,191)"  stroke="rgb(191,191,191)" stroke-width="1" font-size="16" >H</text>
<text x="261.010967" y="48.000000" fill="rgb(191,191,191)"  stroke="rgb(191,191,191)" stroke-width="1" font-size="16" >H</text>
<text x="295.651983" y="68.000000" fill="rgb(191,191,191)"  stroke="rgb(191,191,191)" stroke-width="1" font-size="16" >H</text>
<text x="315.651983" y="102.641016" fill="rgb(191,191,191)"  stroke="rgb(191,191,191)" stroke-width="1" font-size="16" >H</text>
<text x="295.651983" y="177.282032" fill="rgb(191,191,191)"  stroke="rgb(191,191,191)" stroke-width="1" font-size="16" >H</text>
<text x="261.010967" y="197.282032" fill="rgb(191,191,191)"  stroke="rgb(191,191,191)" stroke-width="1" font-size="16" >H</text>
<text x="221.010967" y="197.282032" fill="rgb(191,191,191)"  stroke="rgb(191,191,191)" stroke-width="1" font-size="16" >H</text>
<text x="186.369951" y="177.282032" fill="rgb(191,191,191)"  stroke="rgb(191,191,191)" stroke-width="1" font-size="16" >H</text>
<text x="166.369951" y="142.641016" fill="rgb(191,191,191)"  stroke="rgb(191,191,191)" stroke-width="1" font-size="16" >H</text>
<text x="151.728935" y="48.000000" fill="rgb(191,191,191)"  stroke="rgb(191,191,191)" stroke-width="1" font-size="16" >H</text>
<text x="191.728935" y="48.000000" fill="rgb(191,191,191)"  stroke="rgb(191,191,191)" stroke-width="1" font-size="16" >H</text>
<text x="34.000000" y="111.916205" fill="rgb(191,191,191)"  stroke="rgb(191,191,191)" stroke-width="1" font-size="16" >H</text>
<text x="286.451983" y="130.609016" fill="rgb(12,12,255)"  stroke="rgb(12,12,255)" stroke-width="1" font-size="16" >+</text>
<text x="275.651983" y="142.641016" fill="rgb(12,12,255)"  stroke="rgb(12,12,255)" stroke-width="1" font-size="16" >N</text>
<text x="206.369951" y="102.641016" fill="rgb(12,12,255)"  stroke="rgb(12,12,255)" stroke-width="1" font-size="16" >N</text>
<text x="100.546100" y="86.371550" fill="rgb(12,12,255)"  stroke="rgb(12,12,255)" stroke-width="1" font-size="16" >N</text>
<text x="132.906780" y="142.421892" fill="rgb(12,12,255)"  stroke="rgb(12,12,255)" stroke-width="1" font-size="16" >N</text>
</svg>
</g>
<text font-size="18.000000" fill ="black" font-family="sans-serif"
x="10.000000" y="20.000000" >ZINC37482610</text>
</svg>
