<?xml version="1.0"?>
<svg version="1.1" id="topsvg"
xmlns="http://www.w3.org/2000/svg" xmlns:xlink="http://www.w3.org/1999/xlink"
xmlns:cml="http://www.xml-cml.org/schema" x="0" y="0" width="200px" height="200px" viewBox="0 0 100 100">
<title>ZINC08577171 - Open Babel Depiction</title>
<rect x="0" y="0" width="100" height="100" fill="white"/>
<g transform="translate(0,0)">
<svg width="100" height="100" x="0" y="0" viewBox="0 0 551.164 506.372"
font-family="sans-serif" stroke="rgb(0,0,0)" stroke-width="2"  stroke-linecap="round">
<line x1="180.7" y1="426.9" x2="200.5" y2="392.7" stroke="rgb(0,0,0)"  stroke-width="2.0"/>
<line x1="180.7" y1="426.9" x2="180.7" y2="453.4" stroke="rgb(0,0,0)"  stroke-width="2.0"/>
<line x1="180.7" y1="426.9" x2="203.7" y2="440.1" stroke="rgb(0,0,0)"  stroke-width="2.0"/>
<line x1="180.7" y1="426.9" x2="154.2" y2="426.9" stroke="rgb(0,0,0)"  stroke-width="2.0"/>
<line x1="200.5" y1="392.7" x2="240.0" y2="392.7" stroke="rgb(0,0,0)"  stroke-width="2.0"/>
<line x1="200.5" y1="392.7" x2="200.5" y2="366.2" stroke="rgb(0,0,0)"  stroke-width="2.0"/>
<line x1="200.5" y1="392.7" x2="177.5" y2="379.4" stroke="rgb(0,0,0)"  stroke-width="2.0"/>
<line x1="240.0" y1="392.7" x2="259.7" y2="358.5" stroke="rgb(0,0,0)"  stroke-width="2.0"/>
<line x1="240.0" y1="392.7" x2="262.9" y2="405.9" stroke="rgb(0,0,0)"  stroke-width="2.0"/>
<line x1="240.0" y1="392.7" x2="240.0" y2="419.2" stroke="rgb(0,0,0)"  stroke-width="2.0"/>
<line x1="259.7" y1="358.5" x2="299.2" y2="358.5" stroke="rgb(0,0,0)"  stroke-width="2.0"/>
<line x1="259.7" y1="358.5" x2="259.7" y2="332.0" stroke="rgb(0,0,0)"  stroke-width="2.0"/>
<line x1="259.7" y1="358.5" x2="236.8" y2="345.2" stroke="rgb(0,0,0)"  stroke-width="2.0"/>
<line x1="299.2" y1="358.5" x2="312.5" y2="335.5" stroke="rgb(0,0,0)"  stroke-width="2.0"/>
<line x1="299.2" y1="358.5" x2="322.2" y2="371.7" stroke="rgb(0,0,0)"  stroke-width="2.0"/>
<line x1="299.2" y1="358.5" x2="299.2" y2="385.0" stroke="rgb(0,0,0)"  stroke-width="2.0"/>
<line x1="332.0" y1="324.2" x2="398.0" y2="324.2" stroke="rgb(0,0,0)"  stroke-width="2.0"/>
<line x1="312.5" y1="313.0" x2="299.2" y2="290.0" stroke="rgb(0,0,0)"  stroke-width="2.0"/>
<line x1="398.0" y1="324.2" x2="417.7" y2="358.5" stroke="rgb(0,0,0)"  stroke-width="2.0"/>
<line x1="398.0" y1="324.2" x2="420.9" y2="311.0" stroke="rgb(0,0,0)"  stroke-width="2.0"/>
<line x1="398.0" y1="324.2" x2="398.0" y2="297.7" stroke="rgb(0,0,0)"  stroke-width="2.0"/>
<line x1="417.7" y1="358.5" x2="457.2" y2="358.5" stroke="rgb(0,0,0)"  stroke-width="2.0"/>
<line x1="417.7" y1="358.5" x2="417.7" y2="385.0" stroke="rgb(0,0,0)"  stroke-width="2.0"/>
<line x1="417.7" y1="358.5" x2="394.8" y2="371.7" stroke="rgb(0,0,0)"  stroke-width="2.0"/>
<line x1="457.2" y1="358.5" x2="477.0" y2="392.7" stroke="rgb(0,0,0)"  stroke-width="2.0"/>
<line x1="457.2" y1="358.5" x2="480.2" y2="345.2" stroke="rgb(0,0,0)"  stroke-width="2.0"/>
<line x1="457.2" y1="358.5" x2="457.2" y2="332.0" stroke="rgb(0,0,0)"  stroke-width="2.0"/>
<line x1="477.0" y1="392.7" x2="457.2" y2="426.9" stroke="rgb(0,0,0)"  stroke-width="2.0"/>
<line x1="477.0" y1="392.7" x2="499.9" y2="405.9" stroke="rgb(0,0,0)"  stroke-width="2.0"/>
<line x1="477.0" y1="392.7" x2="499.9" y2="379.4" stroke="rgb(0,0,0)"  stroke-width="2.0"/>
<line x1="457.2" y1="426.9" x2="457.2" y2="453.4" stroke="rgb(0,0,0)"  stroke-width="2.0"/>
<line x1="457.2" y1="426.9" x2="480.2" y2="440.1" stroke="rgb(0,0,0)"  stroke-width="2.0"/>
<line x1="457.2" y1="426.9" x2="430.7" y2="426.9" stroke="rgb(0,0,0)"  stroke-width="2.0"/>
<line x1="299.2" y1="293.0" x2="272.7" y2="293.0" stroke="rgb(0,0,0)"  stroke-width="2.0"/>
<line x1="299.2" y1="287.0" x2="272.7" y2="287.0" stroke="rgb(0,0,0)"  stroke-width="2.0"/>
<line x1="299.2" y1="290.0" x2="319.0" y2="255.8" stroke="rgb(0,0,0)"  stroke-width="2.0"/>
<line x1="323.9" y1="257.8" x2="323.1" y2="259.2" stroke="rgb(0,0,0)"  stroke-width="1.0"/>
<line x1="327.9" y1="259.3" x2="326.5" y2="261.8" stroke="rgb(0,0,0)"  stroke-width="1.0"/>
<line x1="331.9" y1="260.9" x2="329.8" y2="264.5" stroke="rgb(0,0,0)"  stroke-width="1.0"/>
<line x1="335.9" y1="262.5" x2="333.2" y2="267.2" stroke="rgb(0,0,0)"  stroke-width="1.0"/>
<line x1="339.9" y1="264.0" x2="336.5" y2="269.9" stroke="rgb(0,0,0)"  stroke-width="1.0"/>
<line x1="343.9" y1="265.6" x2="339.9" y2="272.5" stroke="rgb(0,0,0)"  stroke-width="1.0"/>
<line x1="319.0" y1="255.8" x2="338.7" y2="221.6" stroke="rgb(0,0,0)"  stroke-width="2.0"/>
<line x1="319.0" y1="255.8" x2="296.0" y2="242.6" stroke="rgb(0,0,0)"  stroke-width="2.0"/>
<line x1="338.7" y1="221.6" x2="378.2" y2="221.6" stroke="rgb(0,0,0)"  stroke-width="2.0"/>
<line x1="338.7" y1="221.6" x2="338.7" y2="195.1" stroke="rgb(0,0,0)"  stroke-width="2.0"/>
<line x1="338.7" y1="221.6" x2="315.8" y2="208.4" stroke="rgb(0,0,0)"  stroke-width="2.0"/>
<line x1="378.2" y1="221.6" x2="398.0" y2="187.4" stroke="rgb(0,0,0)"  stroke-width="2.0"/>
<line x1="378.2" y1="221.6" x2="401.2" y2="234.9" stroke="rgb(0,0,0)"  stroke-width="2.0"/>
<line x1="378.2" y1="221.6" x2="378.2" y2="248.1" stroke="rgb(0,0,0)"  stroke-width="2.0"/>
<line x1="395.4" y1="188.9" x2="382.1" y2="166.0" stroke="rgb(0,0,0)"  stroke-width="2.0"/>
<line x1="400.6" y1="185.9" x2="387.3" y2="163.0" stroke="rgb(0,0,0)"  stroke-width="2.0"/>
<line x1="398.0" y1="187.4" x2="424.5" y2="187.4" stroke="rgb(0,0,0)"  stroke-width="2.0"/>
<line x1="284.7" y1="223.1" x2="284.7" y2="196.6" stroke="rgb(0,0,0)"  stroke-width="2.0"/>
<line x1="273.5" y1="242.6" x2="261.8" y2="249.3" stroke="rgb(0,0,0)"  stroke-width="2.0"/>
<line x1="283.2" y1="194.0" x2="306.2" y2="180.7" stroke="rgb(0,0,0)"  stroke-width="2.0"/>
<line x1="286.2" y1="199.2" x2="309.2" y2="185.9" stroke="rgb(0,0,0)"  stroke-width="2.0"/>
<line x1="284.7" y1="196.6" x2="250.5" y2="176.8" stroke="rgb(0,0,0)"  stroke-width="2.0"/>
<polygon points="250.540017 176.832014 240.771619 201.751376 233.843416 197.751376 " stroke-width="2.000000" fill="rgb(0,0,0)"  stroke="rgb(0,0,0)" />
<line x1="250.5" y1="176.8" x2="216.3" y2="157.1" stroke="rgb(0,0,0)"  stroke-width="2.0"/>
<line x1="250.5" y1="176.8" x2="263.8" y2="153.9" stroke="rgb(0,0,0)"  stroke-width="2.0"/>
<line x1="216.3" y1="157.1" x2="182.1" y2="176.8" stroke="rgb(0,0,0)"  stroke-width="2.0"/>
<line x1="216.3" y1="157.1" x2="203.1" y2="134.1" stroke="rgb(0,0,0)"  stroke-width="2.0"/>
<line x1="216.3" y1="157.1" x2="229.6" y2="134.1" stroke="rgb(0,0,0)"  stroke-width="2.0"/>
<line x1="182.1" y1="216.3" x2="205.1" y2="229.6" stroke="rgb(0,0,0)"  stroke-width="2.0"/>
<line x1="147.9" y1="236.1" x2="147.9" y2="262.6" stroke="rgb(0,0,0)"  stroke-width="2.0"/>
<line x1="113.7" y1="216.3" x2="90.8" y2="229.6" stroke="rgb(0,0,0)"  stroke-width="2.0"/>
<line x1="113.7" y1="176.8" x2="90.8" y2="163.6" stroke="rgb(0,0,0)"  stroke-width="2.0"/>
<line x1="147.9" y1="157.1" x2="147.9" y2="130.6" stroke="rgb(0,0,0)"  stroke-width="2.0"/>
<line x1="79.5" y1="249.1" x2="79.5" y2="262.6" stroke="rgb(0,0,0)"  stroke-width="2.0"/>
<line x1="95.2" y1="274.8" x2="95.2" y2="276.4" stroke="rgb(0,0,0)"  stroke-width="1.0"/>
<line x1="97.4" y1="274.1" x2="97.4" y2="277.0" stroke="rgb(0,0,0)"  stroke-width="1.0"/>
<line x1="99.5" y1="273.5" x2="99.5" y2="277.7" stroke="rgb(0,0,0)"  stroke-width="1.0"/>
<line x1="101.7" y1="272.9" x2="101.7" y2="278.3" stroke="rgb(0,0,0)"  stroke-width="1.0"/>
<line x1="103.8" y1="272.2" x2="103.8" y2="278.9" stroke="rgb(0,0,0)"  stroke-width="1.0"/>
<line x1="106.0" y1="271.6" x2="106.0" y2="279.6" stroke="rgb(0,0,0)"  stroke-width="1.0"/>
<line x1="79.5" y1="288.6" x2="79.5" y2="302.1" stroke="rgb(0,0,0)"  stroke-width="2.0"/>
<line x1="66.5" y1="275.6" x2="53.0" y2="275.6" stroke="rgb(0,0,0)"  stroke-width="2.0"/>
<line x1="68.2" y1="321.6" x2="56.6" y2="328.3" stroke="rgb(0,0,0)"  stroke-width="2.0"/>
<line x1="263.8" y1="131.4" x2="250.5" y2="108.4" stroke="rgb(0,0,0)"  stroke-width="2.0"/>
<line x1="283.3" y1="142.6" x2="296.8" y2="142.6" stroke="rgb(0,0,0)"  stroke-width="2.0"/>
<line x1="250.5" y1="111.4" x2="224.0" y2="111.4" stroke="rgb(0,0,0)"  stroke-width="2.0"/>
<line x1="250.5" y1="105.4" x2="224.0" y2="105.4" stroke="rgb(0,0,0)"  stroke-width="2.0"/>
<line x1="250.5" y1="108.4" x2="270.3" y2="74.2" stroke="rgb(0,0,0)"  stroke-width="2.0"/>
<line x1="270.3" y1="74.2" x2="293.2" y2="61.0" stroke="rgb(0,0,0)"  stroke-width="2.0"/>
<line x1="270.3" y1="74.2" x2="293.2" y2="87.5" stroke="rgb(0,0,0)"  stroke-width="2.0"/>
<line x1="270.3" y1="74.2" x2="257.0" y2="51.3" stroke="rgb(0,0,0)"  stroke-width="2.0"/>
<line x1="147.9" y1="236.1" x2="113.7" y2="216.3" stroke="rgb(0,0,0)"  stroke-width="2.0"/>
<line x1="113.7" y1="216.3" x2="113.7" y2="176.8" stroke="rgb(0,0,0)"  stroke-width="2.0"/>
<line x1="120.9" y1="210.3" x2="120.9" y2="182.8" stroke="rgb(0,0,0)"  stroke-width="2.0"/>
<line x1="113.7" y1="176.8" x2="147.9" y2="157.1" stroke="rgb(0,0,0)"  stroke-width="2.0"/>
<line x1="147.9" y1="157.1" x2="182.1" y2="176.8" stroke="rgb(0,0,0)"  stroke-width="2.0"/>
<line x1="149.5" y1="166.3" x2="173.3" y2="180.1" stroke="rgb(0,0,0)"  stroke-width="2.0"/>
<line x1="182.1" y1="176.8" x2="182.1" y2="216.3" stroke="rgb(0,0,0)"  stroke-width="2.0"/>
<line x1="182.1" y1="216.3" x2="147.9" y2="236.1" stroke="rgb(0,0,0)"  stroke-width="2.0"/>
<line x1="173.3" y1="213.1" x2="149.5" y2="226.8" stroke="rgb(0,0,0)"  stroke-width="2.0"/>
<text x="219.498021" y="346.706024" fill="rgb(191,191,191)"  stroke="rgb(191,191,191)" stroke-width="1" font-size="16" >H</text>
<text x="505.164028" y="420.414028" fill="rgb(191,191,191)"  stroke="rgb(191,191,191)" stroke-width="1" font-size="16" >H</text>
<text x="451.206024" y="326.956024" fill="rgb(191,191,191)"  stroke="rgb(191,191,191)" stroke-width="1" font-size="16" >H</text>
<text x="485.414028" y="346.706024" fill="rgb(191,191,191)"  stroke="rgb(191,191,191)" stroke-width="1" font-size="16" >H</text>
<text x="377.498021" y="386.206024" fill="rgb(191,191,191)"  stroke="rgb(191,191,191)" stroke-width="1" font-size="16" >H</text>
<text x="411.706024" y="405.956024" fill="rgb(191,191,191)"  stroke="rgb(191,191,191)" stroke-width="1" font-size="16" >H</text>
<text x="391.956024" y="292.748021" fill="rgb(191,191,191)"  stroke="rgb(191,191,191)" stroke-width="1" font-size="16" >H</text>
<text x="426.164028" y="312.498021" fill="rgb(191,191,191)"  stroke="rgb(191,191,191)" stroke-width="1" font-size="16" >H</text>
<text x="293.206024" y="405.956024" fill="rgb(191,191,191)"  stroke="rgb(191,191,191)" stroke-width="1" font-size="16" >H</text>
<text x="327.414028" y="386.206024" fill="rgb(191,191,191)"  stroke="rgb(191,191,191)" stroke-width="1" font-size="16" >H</text>
<text x="505.164028" y="380.914028" fill="rgb(191,191,191)"  stroke="rgb(191,191,191)" stroke-width="1" font-size="16" >H</text>
<text x="253.706024" y="326.956024" fill="rgb(191,191,191)"  stroke="rgb(191,191,191)" stroke-width="1" font-size="16" >H</text>
<text x="233.956024" y="440.164028" fill="rgb(191,191,191)"  stroke="rgb(191,191,191)" stroke-width="1" font-size="16" >H</text>
<text x="268.164028" y="420.414028" fill="rgb(191,191,191)"  stroke="rgb(191,191,191)" stroke-width="1" font-size="16" >H</text>
<text x="160.248021" y="380.914028" fill="rgb(191,191,191)"  stroke="rgb(191,191,191)" stroke-width="1" font-size="16" >H</text>
<text x="194.456024" y="361.164028" fill="rgb(191,191,191)"  stroke="rgb(191,191,191)" stroke-width="1" font-size="16" >H</text>
<text x="135.206024" y="434.872031" fill="rgb(191,191,191)"  stroke="rgb(191,191,191)" stroke-width="1" font-size="16" >H</text>
<text x="208.914028" y="454.622031" fill="rgb(191,191,191)"  stroke="rgb(191,191,191)" stroke-width="1" font-size="16" >H</text>
<text x="174.706024" y="474.372031" fill="rgb(191,191,191)"  stroke="rgb(191,191,191)" stroke-width="1" font-size="16" >H</text>
<text x="230.082014" y="130.874010" fill="rgb(191,191,191)"  stroke="rgb(191,191,191)" stroke-width="1" font-size="16" >H</text>
<text x="39.291997" y="342.832014" fill="rgb(191,191,191)"  stroke="rgb(191,191,191)" stroke-width="1" font-size="16" >H</text>
<text x="244.540017" y="48.000000" fill="rgb(191,191,191)"  stroke="rgb(191,191,191)" stroke-width="1" font-size="16" >H</text>
<text x="298.498021" y="101.958003" fill="rgb(191,191,191)"  stroke="rgb(191,191,191)" stroke-width="1" font-size="16" >H</text>
<text x="298.498021" y="62.458003" fill="rgb(191,191,191)"  stroke="rgb(191,191,191)" stroke-width="1" font-size="16" >H</text>
<text x="303.790017" y="150.624010" fill="rgb(191,191,191)"  stroke="rgb(191,191,191)" stroke-width="1" font-size="16" >H</text>
<text x="141.916007" y="125.582014" fill="rgb(191,191,191)"  stroke="rgb(191,191,191)" stroke-width="1" font-size="16" >H</text>
<text x="73.500000" y="165.082014" fill="rgb(191,191,191)"  stroke="rgb(191,191,191)" stroke-width="1" font-size="16" >H</text>
<text x="141.916007" y="283.582014" fill="rgb(191,191,191)"  stroke="rgb(191,191,191)" stroke-width="1" font-size="16" >H</text>
<text x="210.332014" y="244.082014" fill="rgb(191,191,191)"  stroke="rgb(191,191,191)" stroke-width="1" font-size="16" >H</text>
<text x="205.040017" y="116.416007" fill="rgb(255,12,12)"  stroke="rgb(255,12,12)" stroke-width="1" font-size="16" >O</text>
<text x="190.582014" y="130.874010" fill="rgb(191,191,191)"  stroke="rgb(191,191,191)" stroke-width="1" font-size="16" >H</text>
<text x="244.540017" y="263.832014" fill="rgb(191,191,191)"  stroke="rgb(191,191,191)" stroke-width="1" font-size="16" >H</text>
<text x="372.206024" y="269.124010" fill="rgb(191,191,191)"  stroke="rgb(191,191,191)" stroke-width="1" font-size="16" >H</text>
<text x="406.414028" y="249.374010" fill="rgb(191,191,191)"  stroke="rgb(191,191,191)" stroke-width="1" font-size="16" >H</text>
<text x="298.498021" y="209.874010" fill="rgb(191,191,191)"  stroke="rgb(191,191,191)" stroke-width="1" font-size="16" >H</text>
<text x="332.706024" y="190.124010" fill="rgb(191,191,191)"  stroke="rgb(191,191,191)" stroke-width="1" font-size="16" >H</text>
<text x="411.706024" y="434.872031" fill="rgb(191,191,191)"  stroke="rgb(191,191,191)" stroke-width="1" font-size="16" >H</text>
<text x="485.414028" y="454.622031" fill="rgb(191,191,191)"  stroke="rgb(191,191,191)" stroke-width="1" font-size="16" >H</text>
<text x="451.206024" y="474.372031" fill="rgb(191,191,191)"  stroke="rgb(191,191,191)" stroke-width="1" font-size="16" >H</text>
<text x="431.456024" y="195.416007" fill="rgb(255,12,12)"  stroke="rgb(255,12,12)" stroke-width="1" font-size="16" >OH</text>
<text x="372.206024" y="161.208003" fill="rgb(255,12,12)"  stroke="rgb(255,12,12)" stroke-width="1" font-size="16" >O</text>
<text x="347.164028" y="283.582014" fill="rgb(191,191,191)"  stroke="rgb(191,191,191)" stroke-width="1" font-size="16" >H</text>
<text x="253.706024" y="298.040017" fill="rgb(255,12,12)"  stroke="rgb(255,12,12)" stroke-width="1" font-size="16" >O</text>
<text x="278.748021" y="244.082014" fill="rgb(12,12,255)"  stroke="rgb(12,12,255)" stroke-width="1" font-size="16" >N</text>
<text x="312.956024" y="332.248021" fill="rgb(12,12,255)"  stroke="rgb(12,12,255)" stroke-width="1" font-size="16" >N</text>
<text x="264.290017" y="150.624010" fill="rgb(12,12,255)"  stroke="rgb(12,12,255)" stroke-width="1" font-size="16" >N</text>
<text x="22.000000" y="283.582014" fill="rgb(255,12,12)"  stroke="rgb(255,12,12)" stroke-width="1" font-size="16" >HO</text>
<text x="73.500000" y="323.082014" fill="rgb(255,12,12)"  stroke="rgb(255,12,12)" stroke-width="1" font-size="16" >O</text>
<text x="113.000000" y="283.582014" fill="rgb(255,12,12)"  stroke="rgb(255,12,12)" stroke-width="1" font-size="16" >O</text>
<text x="73.500000" y="283.582014" fill="rgb(255,127,0)"  stroke="rgb(255,127,0)" stroke-width="1" font-size="16" >P</text>
<text x="73.500000" y="244.082014" fill="rgb(255,12,12)"  stroke="rgb(255,12,12)" stroke-width="1" font-size="16" >O</text>
<text x="224.790017" y="219.040017" fill="rgb(191,191,191)"  stroke="rgb(191,191,191)" stroke-width="1" font-size="16" >H</text>
<text x="312.956024" y="184.832014" fill="rgb(255,12,12)"  stroke="rgb(255,12,12)" stroke-width="1" font-size="16" >O</text>
</svg>
</g>
<text font-size="18.000000" fill ="black" font-family="sans-serif"
x="10.000000" y="20.000000" >ZINC08577171</text>
</svg>
