<?xml version="1.0"?>
<svg version="1.1" id="topsvg"
xmlns="http://www.w3.org/2000/svg" xmlns:xlink="http://www.w3.org/1999/xlink"
xmlns:cml="http://www.xml-cml.org/schema" x="0" y="0" width="200px" height="200px" viewBox="0 0 100 100">
<title>ZINC08585017 - Open Babel Depiction</title>
<rect x="0" y="0" width="100" height="100" fill="white"/>
<g transform="translate(0,0)">
<svg width="100" height="100" x="0" y="0" viewBox="0 0 370.909 315.139"
font-family="sans-serif" stroke="rgb(0,0,0)" stroke-width="2"  stroke-linecap="round">
<line x1="156.4" y1="73.6" x2="143.5" y2="51.3" stroke="rgb(0,0,0)"  stroke-width="2.0"/>
<line x1="137.0" y1="107.2" x2="111.2" y2="107.2" stroke="rgb(0,0,0)"  stroke-width="2.0"/>
<line x1="214.5" y1="107.2" x2="279.1" y2="107.2" stroke="rgb(0,0,0)"  stroke-width="2.0"/>
<line x1="195.2" y1="73.6" x2="208.0" y2="51.3" stroke="rgb(0,0,0)"  stroke-width="2.0"/>
<line x1="295.1" y1="120.2" x2="295.1" y2="133.0" stroke="rgb(0,0,0)"  stroke-width="2.0"/>
<line x1="289.1" y1="120.2" x2="289.1" y2="133.0" stroke="rgb(0,0,0)"  stroke-width="2.0"/>
<line x1="305.1" y1="104.2" x2="317.9" y2="104.2" stroke="rgb(0,0,0)"  stroke-width="2.0"/>
<line x1="305.1" y1="110.2" x2="317.9" y2="110.2" stroke="rgb(0,0,0)"  stroke-width="2.0"/>
<line x1="292.1" y1="94.2" x2="292.1" y2="81.4" stroke="rgb(0,0,0)"  stroke-width="2.0"/>
<line x1="303.4" y1="61.9" x2="314.5" y2="55.5" stroke="rgb(0,0,0)"  stroke-width="2.0"/>
<line x1="280.9" y1="61.9" x2="269.8" y2="55.5" stroke="rgb(0,0,0)"  stroke-width="2.0"/>
<line x1="214.5" y1="174.4" x2="240.3" y2="174.4" stroke="rgb(0,0,0)"  stroke-width="2.0"/>
<line x1="195.2" y1="208.0" x2="208.0" y2="230.3" stroke="rgb(0,0,0)"  stroke-width="2.0"/>
<line x1="78.8" y1="208.0" x2="53.0" y2="208.0" stroke="rgb(0,0,0)"  stroke-width="2.0"/>
<line x1="100.8" y1="243.0" x2="87.9" y2="265.4" stroke="rgb(0,0,0)"  stroke-width="2.0"/>
<line x1="95.6" y1="240.0" x2="82.7" y2="262.4" stroke="rgb(0,0,0)"  stroke-width="2.0"/>
<line x1="143.5" y1="252.8" x2="149.9" y2="263.9" stroke="rgb(0,0,0)"  stroke-width="2.0"/>
<line x1="262.4" y1="184.1" x2="268.8" y2="195.2" stroke="rgb(0,0,0)"  stroke-width="2.0"/>
<line x1="257.2" y1="187.1" x2="263.6" y2="198.2" stroke="rgb(0,0,0)"  stroke-width="2.0"/>
<line x1="259.8" y1="163.1" x2="266.2" y2="152.0" stroke="rgb(0,0,0)"  stroke-width="2.0"/>
<line x1="156.4" y1="140.8" x2="195.2" y2="140.8" stroke="rgb(0,0,0)"  stroke-width="2.0"/>
<line x1="195.2" y1="140.8" x2="214.5" y2="107.2" stroke="rgb(0,0,0)"  stroke-width="2.0"/>
<line x1="191.9" y1="132.0" x2="205.3" y2="108.8" stroke="rgb(0,0,0)"  stroke-width="2.0"/>
<line x1="214.5" y1="107.2" x2="195.2" y2="73.6" stroke="rgb(0,0,0)"  stroke-width="2.0"/>
<line x1="195.2" y1="73.6" x2="156.4" y2="73.6" stroke="rgb(0,0,0)"  stroke-width="2.0"/>
<line x1="189.2" y1="80.8" x2="162.4" y2="80.8" stroke="rgb(0,0,0)"  stroke-width="2.0"/>
<line x1="156.4" y1="73.6" x2="137.0" y2="107.2" stroke="rgb(0,0,0)"  stroke-width="2.0"/>
<line x1="137.0" y1="107.2" x2="156.4" y2="140.8" stroke="rgb(0,0,0)"  stroke-width="2.0"/>
<line x1="146.2" y1="108.8" x2="159.6" y2="132.0" stroke="rgb(0,0,0)"  stroke-width="2.0"/>
<line x1="156.4" y1="208.0" x2="195.2" y2="208.0" stroke="rgb(0,0,0)"  stroke-width="2.0"/>
<line x1="195.2" y1="208.0" x2="214.5" y2="174.4" stroke="rgb(0,0,0)"  stroke-width="2.0"/>
<line x1="191.9" y1="199.2" x2="205.3" y2="176.0" stroke="rgb(0,0,0)"  stroke-width="2.0"/>
<line x1="214.5" y1="174.4" x2="195.2" y2="140.8" stroke="rgb(0,0,0)"  stroke-width="2.0"/>
<line x1="156.4" y1="140.8" x2="137.0" y2="174.4" stroke="rgb(0,0,0)"  stroke-width="2.0"/>
<line x1="137.0" y1="174.4" x2="156.4" y2="208.0" stroke="rgb(0,0,0)"  stroke-width="2.0"/>
<line x1="146.2" y1="176.0" x2="159.6" y2="199.2" stroke="rgb(0,0,0)"  stroke-width="2.0"/>
<line x1="98.2" y1="241.5" x2="78.8" y2="208.0" stroke="rgb(0,0,0)"  stroke-width="2.0"/>
<line x1="78.8" y1="208.0" x2="91.8" y2="185.5" stroke="rgb(0,0,0)"  stroke-width="2.0"/>
<line x1="88.0" y1="206.4" x2="97.0" y2="190.9" stroke="rgb(0,0,0)"  stroke-width="2.0"/>
<line x1="111.2" y1="174.4" x2="137.0" y2="174.4" stroke="rgb(0,0,0)"  stroke-width="2.0"/>
<line x1="156.4" y1="208.0" x2="143.5" y2="230.3" stroke="rgb(0,0,0)"  stroke-width="2.0"/>
<line x1="124.0" y1="241.5" x2="98.2" y2="241.5" stroke="rgb(0,0,0)"  stroke-width="2.0"/>
<text x="208.545455" y="249.547730" fill="rgb(191,191,191)"  stroke="rgb(191,191,191)" stroke-width="1" font-size="16" >H</text>
<text x="252.529924" y="57.000759" fill="rgb(191,191,191)"  stroke="rgb(191,191,191)" stroke-width="1" font-size="16" >H</text>
<text x="319.712501" y="57.000759" fill="rgb(191,191,191)"  stroke="rgb(191,191,191)" stroke-width="1" font-size="16" >H</text>
<text x="208.545455" y="48.000000" fill="rgb(191,191,191)"  stroke="rgb(191,191,191)" stroke-width="1" font-size="16" >H</text>
<text x="92.181818" y="115.182577" fill="rgb(191,191,191)"  stroke="rgb(191,191,191)" stroke-width="1" font-size="16" >H</text>
<text x="130.969697" y="48.000000" fill="rgb(191,191,191)"  stroke="rgb(191,191,191)" stroke-width="1" font-size="16" >H</text>
<text x="266.727273" y="148.773865" fill="rgb(255,12,12)"  stroke="rgb(255,12,12)" stroke-width="1" font-size="16" >OH</text>
<text x="266.727273" y="215.956442" fill="rgb(255,12,12)"  stroke="rgb(255,12,12)" stroke-width="1" font-size="16" >O</text>
<text x="247.333333" y="182.365154" fill="rgb(12,12,255)"  stroke="rgb(12,12,255)" stroke-width="1" font-size="16" >N</text>
<text x="150.363636" y="283.139019" fill="rgb(191,191,191)"  stroke="rgb(191,191,191)" stroke-width="1" font-size="16" >H</text>
<text x="130.969697" y="249.547730" fill="rgb(12,12,255)"  stroke="rgb(12,12,255)" stroke-width="1" font-size="16" >N</text>
<text x="72.787879" y="283.139019" fill="rgb(255,12,12)"  stroke="rgb(255,12,12)" stroke-width="1" font-size="16" >O</text>
<text x="22.000000" y="215.956442" fill="rgb(255,12,12)"  stroke="rgb(255,12,12)" stroke-width="1" font-size="16" >HO</text>
<text x="92.181818" y="182.365154" fill="rgb(12,12,255)"  stroke="rgb(12,12,255)" stroke-width="1" font-size="16" >N</text>
<text x="286.121212" y="76.394698" fill="rgb(12,12,255)"  stroke="rgb(12,12,255)" stroke-width="1" font-size="16" >N</text>
<text x="324.909091" y="115.182577" fill="rgb(255,12,12)"  stroke="rgb(255,12,12)" stroke-width="1" font-size="16" >O</text>
<text x="286.121212" y="153.970456" fill="rgb(255,12,12)"  stroke="rgb(255,12,12)" stroke-width="1" font-size="16" >O</text>
<text x="286.121212" y="115.182577" fill="rgb(178,178,0)"  stroke="rgb(178,178,0)" stroke-width="1" font-size="16" >S</text>
</svg>
</g>
<text font-size="18.000000" fill ="black" font-family="sans-serif"
x="10.000000" y="20.000000" >ZINC08585017</text>
</svg>
