<?xml version="1.0"?>
<svg version="1.1" id="topsvg"
xmlns="http://www.w3.org/2000/svg" xmlns:xlink="http://www.w3.org/1999/xlink"
xmlns:cml="http://www.xml-cml.org/schema" x="0" y="0" width="200px" height="200px" viewBox="0 0 100 100">
<title>ZINC71773475 - Open Babel Depiction</title>
<rect x="0" y="0" width="100" height="100" fill="white"/>
<g transform="translate(0,0)">
<svg width="100" height="100" x="0" y="0" viewBox="0 0 534.62 401.319"
font-family="sans-serif" stroke="rgb(0,0,0)" stroke-width="2"  stroke-linecap="round">
<line x1="110.5" y1="115.6" x2="143.3" y2="134.5" stroke="rgb(0,0,0)"  stroke-width="2.0"/>
<line x1="110.5" y1="115.6" x2="85.7" y2="115.6" stroke="rgb(0,0,0)"  stroke-width="2.0"/>
<line x1="110.5" y1="115.6" x2="98.1" y2="137.1" stroke="rgb(0,0,0)"  stroke-width="2.0"/>
<line x1="110.5" y1="115.6" x2="110.5" y2="90.8" stroke="rgb(0,0,0)"  stroke-width="2.0"/>
<line x1="143.3" y1="134.5" x2="143.3" y2="159.3" stroke="rgb(0,0,0)"  stroke-width="2.0"/>
<line x1="143.3" y1="134.5" x2="168.1" y2="134.5" stroke="rgb(0,0,0)"  stroke-width="2.0"/>
<line x1="143.3" y1="134.5" x2="155.7" y2="113.0" stroke="rgb(0,0,0)"  stroke-width="2.0"/>
<line x1="156.3" y1="172.3" x2="181.1" y2="172.3" stroke="rgb(0,0,0)"  stroke-width="2.0"/>
<line x1="143.3" y1="185.3" x2="143.3" y2="234.9" stroke="rgb(0,0,0)"  stroke-width="2.0"/>
<line x1="130.3" y1="172.3" x2="118.5" y2="172.3" stroke="rgb(0,0,0)"  stroke-width="2.0"/>
<line x1="181.1" y1="172.3" x2="200.0" y2="139.6" stroke="rgb(0,0,0)"  stroke-width="2.0"/>
<line x1="181.1" y1="172.3" x2="202.6" y2="184.7" stroke="rgb(0,0,0)"  stroke-width="2.0"/>
<line x1="181.1" y1="172.3" x2="181.1" y2="197.1" stroke="rgb(0,0,0)"  stroke-width="2.0"/>
<line x1="200.0" y1="139.6" x2="221.5" y2="127.2" stroke="rgb(0,0,0)"  stroke-width="2.0"/>
<line x1="200.0" y1="139.6" x2="221.5" y2="152.0" stroke="rgb(0,0,0)"  stroke-width="2.0"/>
<line x1="200.0" y1="139.6" x2="187.6" y2="118.1" stroke="rgb(0,0,0)"  stroke-width="2.0"/>
<line x1="154.5" y1="254.4" x2="176.0" y2="266.8" stroke="rgb(0,0,0)"  stroke-width="2.0"/>
<line x1="130.6" y1="256.1" x2="129.8" y2="254.7" stroke="rgb(0,0,0)"  stroke-width="1.0"/>
<line x1="129.2" y1="257.7" x2="127.7" y2="255.2" stroke="rgb(0,0,0)"  stroke-width="1.0"/>
<line x1="127.7" y1="259.3" x2="125.6" y2="255.7" stroke="rgb(0,0,0)"  stroke-width="1.0"/>
<line x1="126.3" y1="260.9" x2="123.5" y2="256.2" stroke="rgb(0,0,0)"  stroke-width="1.0"/>
<line x1="124.8" y1="262.5" x2="121.4" y2="256.6" stroke="rgb(0,0,0)"  stroke-width="1.0"/>
<line x1="123.3" y1="264.0" x2="119.3" y2="257.1" stroke="rgb(0,0,0)"  stroke-width="1.0"/>
<line x1="176.0" y1="304.6" x2="154.5" y2="317.0" stroke="rgb(0,0,0)"  stroke-width="2.0"/>
<line x1="208.8" y1="323.5" x2="208.8" y2="348.3" stroke="rgb(0,0,0)"  stroke-width="2.0"/>
<line x1="241.5" y1="304.6" x2="263.0" y2="317.0" stroke="rgb(0,0,0)"  stroke-width="2.0"/>
<line x1="241.5" y1="266.8" x2="263.0" y2="254.4" stroke="rgb(0,0,0)"  stroke-width="2.0"/>
<line x1="208.8" y1="247.9" x2="208.8" y2="223.1" stroke="rgb(0,0,0)"  stroke-width="2.0"/>
<line x1="220.0" y1="203.6" x2="339.7" y2="134.5" stroke="rgb(0,0,0)"  stroke-width="2.0"/>
<line x1="339.7" y1="96.7" x2="318.2" y2="84.3" stroke="rgb(0,0,0)"  stroke-width="2.0"/>
<line x1="372.4" y1="77.8" x2="372.4" y2="53.0" stroke="rgb(0,0,0)"  stroke-width="2.0"/>
<line x1="405.2" y1="96.7" x2="426.7" y2="84.3" stroke="rgb(0,0,0)"  stroke-width="2.0"/>
<line x1="405.2" y1="134.5" x2="426.7" y2="146.9" stroke="rgb(0,0,0)"  stroke-width="2.0"/>
<line x1="372.4" y1="153.4" x2="372.4" y2="216.0" stroke="rgb(0,0,0)"  stroke-width="2.0"/>
<line x1="383.7" y1="235.5" x2="393.9" y2="241.4" stroke="rgb(0,0,0)"  stroke-width="2.0"/>
<polygon points="361.637741 235.248352 352.506936 245.138827 348.506936 238.210624 " stroke-width="2.000000" fill="rgb(0,0,0)"  stroke="rgb(0,0,0)" />
<line x1="411.7" y1="236.7" x2="424.1" y2="215.2" stroke="rgb(0,0,0)"  stroke-width="2.0"/>
<line x1="416.4" y1="254.4" x2="437.9" y2="266.8" stroke="rgb(0,0,0)"  stroke-width="2.0"/>
<line x1="398.7" y1="259.2" x2="392.8" y2="269.4" stroke="rgb(0,0,0)"  stroke-width="2.0"/>
<line x1="424.1" y1="215.2" x2="461.9" y2="215.2" stroke="rgb(0,0,0)"  stroke-width="2.0"/>
<line x1="424.1" y1="215.2" x2="424.1" y2="190.4" stroke="rgb(0,0,0)"  stroke-width="2.0"/>
<line x1="424.1" y1="215.2" x2="402.6" y2="202.8" stroke="rgb(0,0,0)"  stroke-width="2.0"/>
<line x1="461.9" y1="215.2" x2="483.4" y2="202.8" stroke="rgb(0,0,0)"  stroke-width="2.0"/>
<line x1="461.9" y1="215.2" x2="461.9" y2="190.4" stroke="rgb(0,0,0)"  stroke-width="2.0"/>
<line x1="461.9" y1="215.2" x2="474.3" y2="236.7" stroke="rgb(0,0,0)"  stroke-width="2.0"/>
<line x1="437.9" y1="266.8" x2="437.9" y2="304.6" stroke="rgb(0,0,0)"  stroke-width="2.0"/>
<line x1="437.9" y1="266.8" x2="462.7" y2="266.8" stroke="rgb(0,0,0)"  stroke-width="2.0"/>
<line x1="437.9" y1="266.8" x2="450.3" y2="245.3" stroke="rgb(0,0,0)"  stroke-width="2.0"/>
<line x1="437.9" y1="304.6" x2="450.3" y2="326.1" stroke="rgb(0,0,0)"  stroke-width="2.0"/>
<line x1="437.9" y1="304.6" x2="462.7" y2="304.6" stroke="rgb(0,0,0)"  stroke-width="2.0"/>
<line x1="437.9" y1="304.6" x2="416.4" y2="317.0" stroke="rgb(0,0,0)"  stroke-width="2.0"/>
<line x1="339.7" y1="260.9" x2="339.7" y2="285.7" stroke="rgb(0,0,0)"  stroke-width="2.0"/>
<line x1="328.4" y1="241.4" x2="307.0" y2="229.0" stroke="rgb(0,0,0)"  stroke-width="2.0"/>
<line x1="339.7" y1="285.7" x2="372.4" y2="304.6" stroke="rgb(0,0,0)"  stroke-width="2.0"/>
<line x1="339.7" y1="285.7" x2="327.3" y2="307.2" stroke="rgb(0,0,0)"  stroke-width="2.0"/>
<line x1="339.7" y1="285.7" x2="314.9" y2="285.7" stroke="rgb(0,0,0)"  stroke-width="2.0"/>
<line x1="372.4" y1="304.6" x2="384.8" y2="326.1" stroke="rgb(0,0,0)"  stroke-width="2.0"/>
<line x1="372.4" y1="304.6" x2="360.0" y2="326.1" stroke="rgb(0,0,0)"  stroke-width="2.0"/>
<line x1="372.4" y1="304.6" x2="393.9" y2="292.2" stroke="rgb(0,0,0)"  stroke-width="2.0"/>
<line x1="307.0" y1="229.0" x2="307.0" y2="191.2" stroke="rgb(0,0,0)"  stroke-width="2.0"/>
<line x1="307.0" y1="229.0" x2="282.2" y2="229.0" stroke="rgb(0,0,0)"  stroke-width="2.0"/>
<line x1="307.0" y1="229.0" x2="294.6" y2="250.5" stroke="rgb(0,0,0)"  stroke-width="2.0"/>
<line x1="307.0" y1="191.2" x2="319.4" y2="169.7" stroke="rgb(0,0,0)"  stroke-width="2.0"/>
<line x1="307.0" y1="191.2" x2="331.8" y2="191.2" stroke="rgb(0,0,0)"  stroke-width="2.0"/>
<line x1="307.0" y1="191.2" x2="285.5" y2="178.8" stroke="rgb(0,0,0)"  stroke-width="2.0"/>
<line x1="110.5" y1="279.8" x2="110.5" y2="304.6" stroke="rgb(0,0,0)"  stroke-width="2.0"/>
<line x1="99.3" y1="260.3" x2="77.8" y2="247.9" stroke="rgb(0,0,0)"  stroke-width="2.0"/>
<line x1="110.5" y1="304.6" x2="77.8" y2="323.5" stroke="rgb(0,0,0)"  stroke-width="2.0"/>
<line x1="110.5" y1="304.6" x2="122.9" y2="326.1" stroke="rgb(0,0,0)"  stroke-width="2.0"/>
<line x1="110.5" y1="304.6" x2="135.3" y2="304.6" stroke="rgb(0,0,0)"  stroke-width="2.0"/>
<line x1="77.8" y1="323.5" x2="65.4" y2="345.0" stroke="rgb(0,0,0)"  stroke-width="2.0"/>
<line x1="77.8" y1="323.5" x2="90.2" y2="345.0" stroke="rgb(0,0,0)"  stroke-width="2.0"/>
<line x1="77.8" y1="323.5" x2="56.3" y2="311.1" stroke="rgb(0,0,0)"  stroke-width="2.0"/>
<line x1="77.8" y1="247.9" x2="77.8" y2="210.1" stroke="rgb(0,0,0)"  stroke-width="2.0"/>
<line x1="77.8" y1="247.9" x2="53.0" y2="247.9" stroke="rgb(0,0,0)"  stroke-width="2.0"/>
<line x1="77.8" y1="247.9" x2="65.4" y2="269.4" stroke="rgb(0,0,0)"  stroke-width="2.0"/>
<line x1="77.8" y1="210.1" x2="65.4" y2="188.6" stroke="rgb(0,0,0)"  stroke-width="2.0"/>
<line x1="77.8" y1="210.1" x2="53.0" y2="210.1" stroke="rgb(0,0,0)"  stroke-width="2.0"/>
<line x1="77.8" y1="210.1" x2="99.3" y2="197.7" stroke="rgb(0,0,0)"  stroke-width="2.0"/>
<line x1="208.8" y1="323.5" x2="241.5" y2="304.6" stroke="rgb(0,0,0)"  stroke-width="2.0"/>
<line x1="241.5" y1="304.6" x2="241.5" y2="266.8" stroke="rgb(0,0,0)"  stroke-width="2.0"/>
<line x1="234.3" y1="298.6" x2="234.3" y2="272.8" stroke="rgb(0,0,0)"  stroke-width="2.0"/>
<line x1="241.5" y1="266.8" x2="208.8" y2="247.9" stroke="rgb(0,0,0)"  stroke-width="2.0"/>
<line x1="208.8" y1="247.9" x2="176.0" y2="266.8" stroke="rgb(0,0,0)"  stroke-width="2.0"/>
<line x1="207.2" y1="257.1" x2="184.8" y2="270.0" stroke="rgb(0,0,0)"  stroke-width="2.0"/>
<line x1="176.0" y1="266.8" x2="176.0" y2="304.6" stroke="rgb(0,0,0)"  stroke-width="2.0"/>
<line x1="176.0" y1="304.6" x2="208.8" y2="323.5" stroke="rgb(0,0,0)"  stroke-width="2.0"/>
<line x1="184.8" y1="301.4" x2="207.2" y2="314.3" stroke="rgb(0,0,0)"  stroke-width="2.0"/>
<line x1="372.4" y1="77.8" x2="405.2" y2="96.7" stroke="rgb(0,0,0)"  stroke-width="2.0"/>
<line x1="405.2" y1="96.7" x2="405.2" y2="134.5" stroke="rgb(0,0,0)"  stroke-width="2.0"/>
<line x1="398.0" y1="102.7" x2="398.0" y2="128.5" stroke="rgb(0,0,0)"  stroke-width="2.0"/>
<line x1="405.2" y1="134.5" x2="372.4" y2="153.4" stroke="rgb(0,0,0)"  stroke-width="2.0"/>
<line x1="372.4" y1="153.4" x2="339.7" y2="134.5" stroke="rgb(0,0,0)"  stroke-width="2.0"/>
<line x1="370.8" y1="144.2" x2="348.5" y2="131.3" stroke="rgb(0,0,0)"  stroke-width="2.0"/>
<line x1="339.7" y1="134.5" x2="339.7" y2="96.7" stroke="rgb(0,0,0)"  stroke-width="2.0"/>
<line x1="339.7" y1="96.7" x2="372.4" y2="77.8" stroke="rgb(0,0,0)"  stroke-width="2.0"/>
<line x1="348.5" y1="99.9" x2="370.8" y2="87.0" stroke="rgb(0,0,0)"  stroke-width="2.0"/>
<text x="418.079933" y="185.372226" fill="rgb(191,191,191)"  stroke="rgb(191,191,191)" stroke-width="1" font-size="16" >H</text>
<text x="314.802408" y="326.451949" fill="rgb(191,191,191)"  stroke="rgb(191,191,191)" stroke-width="1" font-size="16" >H</text>
<text x="399.178834" y="331.516484" fill="rgb(191,191,191)"  stroke="rgb(191,191,191)" stroke-width="1" font-size="16" >H</text>
<text x="469.718695" y="312.615385" fill="rgb(191,191,191)"  stroke="rgb(191,191,191)" stroke-width="1" font-size="16" >H</text>
<text x="450.817596" y="345.353048" fill="rgb(191,191,191)"  stroke="rgb(191,191,191)" stroke-width="1" font-size="16" >H</text>
<text x="450.817596" y="242.075523" fill="rgb(191,191,191)"  stroke="rgb(191,191,191)" stroke-width="1" font-size="16" >H</text>
<text x="469.718695" y="274.813187" fill="rgb(191,191,191)"  stroke="rgb(191,191,191)" stroke-width="1" font-size="16" >H</text>
<text x="474.783230" y="255.912088" fill="rgb(191,191,191)"  stroke="rgb(191,191,191)" stroke-width="1" font-size="16" >H</text>
<text x="455.882131" y="185.372226" fill="rgb(191,191,191)"  stroke="rgb(191,191,191)" stroke-width="1" font-size="16" >H</text>
<text x="488.619794" y="204.273325" fill="rgb(191,191,191)"  stroke="rgb(191,191,191)" stroke-width="1" font-size="16" >H</text>
<text x="385.342269" y="204.273325" fill="rgb(191,191,191)"  stroke="rgb(191,191,191)" stroke-width="1" font-size="16" >H</text>
<text x="295.901309" y="293.714286" fill="rgb(191,191,191)"  stroke="rgb(191,191,191)" stroke-width="1" font-size="16" >H</text>
<text x="431.916498" y="161.406593" fill="rgb(191,191,191)"  stroke="rgb(191,191,191)" stroke-width="1" font-size="16" >H</text>
<text x="431.916498" y="85.802198" fill="rgb(191,191,191)"  stroke="rgb(191,191,191)" stroke-width="1" font-size="16" >H</text>
<text x="366.441170" y="48.000000" fill="rgb(191,191,191)"  stroke="rgb(191,191,191)" stroke-width="1" font-size="16" >H</text>
<text x="300.965843" y="85.802198" fill="rgb(191,191,191)"  stroke="rgb(191,191,191)" stroke-width="1" font-size="16" >H</text>
<text x="268.228179" y="255.912088" fill="rgb(191,191,191)"  stroke="rgb(191,191,191)" stroke-width="1" font-size="16" >H</text>
<text x="268.228179" y="331.516484" fill="rgb(191,191,191)"  stroke="rgb(191,191,191)" stroke-width="1" font-size="16" >H</text>
<text x="202.752852" y="369.318681" fill="rgb(191,191,191)"  stroke="rgb(191,191,191)" stroke-width="1" font-size="16" >H</text>
<text x="137.277525" y="331.516484" fill="rgb(191,191,191)"  stroke="rgb(191,191,191)" stroke-width="1" font-size="16" >H</text>
<text x="175.079723" y="114.832365" fill="rgb(191,191,191)"  stroke="rgb(191,191,191)" stroke-width="1" font-size="16" >H</text>
<text x="226.718485" y="166.471128" fill="rgb(191,191,191)"  stroke="rgb(191,191,191)" stroke-width="1" font-size="16" >H</text>
<text x="142.342059" y="312.615385" fill="rgb(191,191,191)"  stroke="rgb(191,191,191)" stroke-width="1" font-size="16" >H</text>
<text x="99.475327" y="180.307692" fill="rgb(191,191,191)"  stroke="rgb(191,191,191)" stroke-width="1" font-size="16" >H</text>
<text x="380.277735" y="288.649752" fill="rgb(191,191,191)"  stroke="rgb(191,191,191)" stroke-width="1" font-size="16" >H</text>
<text x="104.539861" y="199.208791" fill="rgb(191,191,191)"  stroke="rgb(191,191,191)" stroke-width="1" font-size="16" >H</text>
<text x="34.000000" y="218.109890" fill="rgb(191,191,191)"  stroke="rgb(191,191,191)" stroke-width="1" font-size="16" >H</text>
<text x="52.901099" y="185.372226" fill="rgb(191,191,191)"  stroke="rgb(191,191,191)" stroke-width="1" font-size="16" >H</text>
<text x="52.901099" y="288.649752" fill="rgb(191,191,191)"  stroke="rgb(191,191,191)" stroke-width="1" font-size="16" >H</text>
<text x="34.000000" y="255.912088" fill="rgb(191,191,191)"  stroke="rgb(191,191,191)" stroke-width="1" font-size="16" >H</text>
<text x="39.064534" y="312.615385" fill="rgb(191,191,191)"  stroke="rgb(191,191,191)" stroke-width="1" font-size="16" >H</text>
<text x="90.703297" y="364.254147" fill="rgb(191,191,191)"  stroke="rgb(191,191,191)" stroke-width="1" font-size="16" >H</text>
<text x="52.901099" y="364.254147" fill="rgb(191,191,191)"  stroke="rgb(191,191,191)" stroke-width="1" font-size="16" >H</text>
<text x="226.718485" y="128.668930" fill="rgb(191,191,191)"  stroke="rgb(191,191,191)" stroke-width="1" font-size="16" >H</text>
<text x="123.440960" y="345.353048" fill="rgb(191,191,191)"  stroke="rgb(191,191,191)" stroke-width="1" font-size="16" >H</text>
<text x="268.228179" y="180.307692" fill="rgb(191,191,191)"  stroke="rgb(191,191,191)" stroke-width="1" font-size="16" >H</text>
<text x="338.768041" y="199.208791" fill="rgb(191,191,191)"  stroke="rgb(191,191,191)" stroke-width="1" font-size="16" >H</text>
<text x="319.866942" y="166.471128" fill="rgb(191,191,191)"  stroke="rgb(191,191,191)" stroke-width="1" font-size="16" >H</text>
<text x="282.064744" y="269.748653" fill="rgb(191,191,191)"  stroke="rgb(191,191,191)" stroke-width="1" font-size="16" >H</text>
<text x="263.163645" y="237.010989" fill="rgb(191,191,191)"  stroke="rgb(191,191,191)" stroke-width="1" font-size="16" >H</text>
<text x="399.178834" y="293.714286" fill="rgb(191,191,191)"  stroke="rgb(191,191,191)" stroke-width="1" font-size="16" >H</text>
<text x="347.540071" y="345.353048" fill="rgb(191,191,191)"  stroke="rgb(191,191,191)" stroke-width="1" font-size="16" >H</text>
<text x="385.342269" y="345.353048" fill="rgb(191,191,191)"  stroke="rgb(191,191,191)" stroke-width="1" font-size="16" >H</text>
<text x="409.978834" y="243.880088" fill="rgb(12,12,255)"  stroke="rgb(12,12,255)" stroke-width="1" font-size="16" >+</text>
<text x="399.178834" y="255.912088" fill="rgb(12,12,255)"  stroke="rgb(12,12,255)" stroke-width="1" font-size="16" >N</text>
<text x="366.441170" y="237.010989" fill="rgb(255,127,0)"  stroke="rgb(255,127,0)" stroke-width="1" font-size="16" >P</text>
<text x="202.752852" y="218.109890" fill="rgb(255,12,12)"  stroke="rgb(255,12,12)" stroke-width="1" font-size="16" >O</text>
<text x="137.277525" y="255.912088" fill="rgb(255,127,0)"  stroke="rgb(255,127,0)" stroke-width="1" font-size="16" >P</text>
<text x="148.077525" y="168.275692" fill="rgb(12,12,255)"  stroke="rgb(12,12,255)" stroke-width="1" font-size="16" >+</text>
<text x="137.277525" y="180.307692" fill="rgb(12,12,255)"  stroke="rgb(12,12,255)" stroke-width="1" font-size="16" >N</text>
<text x="175.079723" y="218.109890" fill="rgb(191,191,191)"  stroke="rgb(191,191,191)" stroke-width="1" font-size="16" >H</text>
<text x="207.817386" y="199.208791" fill="rgb(191,191,191)"  stroke="rgb(191,191,191)" stroke-width="1" font-size="16" >H</text>
<text x="156.178624" y="109.767831" fill="rgb(191,191,191)"  stroke="rgb(191,191,191)" stroke-width="1" font-size="16" >H</text>
<text x="175.079723" y="142.505495" fill="rgb(191,191,191)"  stroke="rgb(191,191,191)" stroke-width="1" font-size="16" >H</text>
<text x="104.539861" y="85.802198" fill="rgb(191,191,191)"  stroke="rgb(191,191,191)" stroke-width="1" font-size="16" >H</text>
<text x="85.638763" y="156.342059" fill="rgb(191,191,191)"  stroke="rgb(191,191,191)" stroke-width="1" font-size="16" >H</text>
<text x="66.737664" y="123.604396" fill="rgb(191,191,191)"  stroke="rgb(191,191,191)" stroke-width="1" font-size="16" >H</text>
<text x="104.539861" y="274.813187" fill="rgb(12,12,255)"  stroke="rgb(12,12,255)" stroke-width="1" font-size="16" >N</text>
<text x="333.703507" y="255.912088" fill="rgb(12,12,255)"  stroke="rgb(12,12,255)" stroke-width="1" font-size="16" >N</text>
</svg>
</g>
<text font-size="18.000000" fill ="black" font-family="sans-serif"
x="10.000000" y="20.000000" >ZINC71773475</text>
</svg>
