<?xml version="1.0"?>
<svg version="1.1" id="topsvg"
xmlns="http://www.w3.org/2000/svg" xmlns:xlink="http://www.w3.org/1999/xlink"
xmlns:cml="http://www.xml-cml.org/schema" x="0" y="0" width="200px" height="200px" viewBox="0 0 100 100">
<title>ZINC19943120 - Open Babel Depiction</title>
<rect x="0" y="0" width="100" height="100" fill="white"/>
<g transform="translate(0,0)">
<svg width="100" height="100" x="0" y="0" viewBox="0 0 344.319 365.477"
font-family="sans-serif" stroke="rgb(0,0,0)" stroke-width="2"  stroke-linecap="round">
<line x1="195.7" y1="71.2" x2="191.4" y2="90.3" stroke="rgb(0,0,0)"  stroke-width="2.0"/>
<line x1="195.7" y1="71.2" x2="189.9" y2="52.4" stroke="rgb(0,0,0)"  stroke-width="2.0"/>
<line x1="195.7" y1="71.2" x2="176.6" y2="66.8" stroke="rgb(0,0,0)"  stroke-width="2.0"/>
<line x1="195.7" y1="71.2" x2="214.5" y2="65.4" stroke="rgb(0,0,0)"  stroke-width="2.0"/>
<line x1="217.9" y1="117.1" x2="266.5" y2="98.0" stroke="rgb(0,0,0)"  stroke-width="2.0"/>
<line x1="217.9" y1="117.1" x2="220.8" y2="97.7" stroke="rgb(0,0,0)"  stroke-width="2.0"/>
<line x1="238.2" y1="142.6" x2="290.3" y2="146.5" stroke="rgb(0,0,0)"  stroke-width="2.0"/>
<line x1="238.2" y1="142.6" x2="249.2" y2="126.4" stroke="rgb(0,0,0)"  stroke-width="2.0"/>
<line x1="245.4" y1="174.4" x2="290.7" y2="200.5" stroke="rgb(0,0,0)"  stroke-width="2.0"/>
<line x1="245.4" y1="174.4" x2="262.4" y2="164.6" stroke="rgb(0,0,0)"  stroke-width="2.0"/>
<line x1="245.5" y1="217.0" x2="274.9" y2="260.1" stroke="rgb(0,0,0)"  stroke-width="2.0"/>
<line x1="251.1" y1="204.4" x2="251.2" y2="206.0" stroke="rgb(0,0,0)"  stroke-width="1.0"/>
<line x1="252.8" y1="203.7" x2="253.0" y2="206.5" stroke="rgb(0,0,0)"  stroke-width="1.0"/>
<line x1="254.5" y1="202.9" x2="254.8" y2="207.0" stroke="rgb(0,0,0)"  stroke-width="1.0"/>
<line x1="256.2" y1="202.1" x2="256.6" y2="207.6" stroke="rgb(0,0,0)"  stroke-width="1.0"/>
<line x1="258.0" y1="201.4" x2="258.5" y2="208.1" stroke="rgb(0,0,0)"  stroke-width="1.0"/>
<line x1="259.7" y1="200.6" x2="260.3" y2="208.6" stroke="rgb(0,0,0)"  stroke-width="1.0"/>
<line x1="217.9" y1="231.7" x2="225.6" y2="283.4" stroke="rgb(0,0,0)"  stroke-width="2.0"/>
<line x1="217.9" y1="231.7" x2="236.1" y2="238.9" stroke="rgb(0,0,0)"  stroke-width="2.0"/>
<line x1="188.5" y1="245.9" x2="173.1" y2="295.8" stroke="rgb(0,0,0)"  stroke-width="2.0"/>
<line x1="188.5" y1="245.9" x2="201.8" y2="260.2" stroke="rgb(0,0,0)"  stroke-width="2.0"/>
<line x1="147.0" y1="255.4" x2="111.5" y2="293.7" stroke="rgb(0,0,0)"  stroke-width="2.0"/>
<line x1="160.4" y1="258.0" x2="158.9" y2="258.5" stroke="rgb(0,0,0)"  stroke-width="1.0"/>
<line x1="161.6" y1="259.5" x2="158.8" y2="260.4" stroke="rgb(0,0,0)"  stroke-width="1.0"/>
<line x1="162.7" y1="261.0" x2="158.7" y2="262.3" stroke="rgb(0,0,0)"  stroke-width="1.0"/>
<line x1="163.8" y1="262.6" x2="158.6" y2="264.2" stroke="rgb(0,0,0)"  stroke-width="1.0"/>
<line x1="165.0" y1="264.1" x2="158.6" y2="266.0" stroke="rgb(0,0,0)"  stroke-width="1.0"/>
<line x1="166.1" y1="265.6" x2="158.5" y2="267.9" stroke="rgb(0,0,0)"  stroke-width="1.0"/>
<line x1="126.5" y1="231.7" x2="77.8" y2="250.8" stroke="rgb(0,0,0)"  stroke-width="2.0"/>
<line x1="126.5" y1="231.7" x2="123.5" y2="251.1" stroke="rgb(0,0,0)"  stroke-width="2.0"/>
<line x1="106.1" y1="206.2" x2="54.0" y2="202.3" stroke="rgb(0,0,0)"  stroke-width="2.0"/>
<line x1="106.1" y1="206.2" x2="95.1" y2="222.4" stroke="rgb(0,0,0)"  stroke-width="2.0"/>
<line x1="98.9" y1="174.4" x2="53.6" y2="148.3" stroke="rgb(0,0,0)"  stroke-width="2.0"/>
<line x1="98.9" y1="174.4" x2="81.9" y2="184.2" stroke="rgb(0,0,0)"  stroke-width="2.0"/>
<line x1="98.8" y1="131.9" x2="69.4" y2="88.7" stroke="rgb(0,0,0)"  stroke-width="2.0"/>
<line x1="93.2" y1="144.4" x2="93.1" y2="142.8" stroke="rgb(0,0,0)"  stroke-width="1.0"/>
<line x1="91.5" y1="145.2" x2="91.3" y2="142.3" stroke="rgb(0,0,0)"  stroke-width="1.0"/>
<line x1="89.8" y1="145.9" x2="89.5" y2="141.8" stroke="rgb(0,0,0)"  stroke-width="1.0"/>
<line x1="88.1" y1="146.7" x2="87.7" y2="141.3" stroke="rgb(0,0,0)"  stroke-width="1.0"/>
<line x1="86.4" y1="147.5" x2="85.9" y2="140.8" stroke="rgb(0,0,0)"  stroke-width="1.0"/>
<line x1="84.6" y1="148.2" x2="84.0" y2="140.3" stroke="rgb(0,0,0)"  stroke-width="1.0"/>
<line x1="126.5" y1="117.1" x2="118.7" y2="65.5" stroke="rgb(0,0,0)"  stroke-width="2.0"/>
<line x1="126.5" y1="117.1" x2="108.2" y2="109.9" stroke="rgb(0,0,0)"  stroke-width="2.0"/>
<line x1="155.9" y1="103.0" x2="175.3" y2="105.5" stroke="rgb(0,0,0)"  stroke-width="2.0"/>
<line x1="155.9" y1="103.0" x2="139.2" y2="92.5" stroke="rgb(0,0,0)"  stroke-width="2.0"/>
<line x1="69.4" y1="88.7" x2="51.7" y2="80.2" stroke="rgb(0,0,0)"  stroke-width="2.0"/>
<line x1="69.4" y1="88.7" x2="53.2" y2="99.8" stroke="rgb(0,0,0)"  stroke-width="2.0"/>
<line x1="69.4" y1="88.7" x2="77.9" y2="71.0" stroke="rgb(0,0,0)"  stroke-width="2.0"/>
<line x1="111.5" y1="293.7" x2="107.1" y2="312.8" stroke="rgb(0,0,0)"  stroke-width="2.0"/>
<line x1="111.5" y1="293.7" x2="125.9" y2="307.0" stroke="rgb(0,0,0)"  stroke-width="2.0"/>
<line x1="111.5" y1="293.7" x2="92.4" y2="289.3" stroke="rgb(0,0,0)"  stroke-width="2.0"/>
<line x1="274.9" y1="260.1" x2="292.6" y2="268.6" stroke="rgb(0,0,0)"  stroke-width="2.0"/>
<line x1="274.9" y1="260.1" x2="291.1" y2="249.1" stroke="rgb(0,0,0)"  stroke-width="2.0"/>
<line x1="274.9" y1="260.1" x2="266.4" y2="277.8" stroke="rgb(0,0,0)"  stroke-width="2.0"/>
<line x1="238.2" y1="142.6" x2="245.4" y2="174.4" stroke="rgb(0,0,0)"  stroke-width="2.0"/>
<line x1="245.4" y1="174.4" x2="241.1" y2="193.5" stroke="rgb(0,0,0)"  stroke-width="2.0"/>
<line x1="230.1" y1="216.4" x2="217.9" y2="231.7" stroke="rgb(0,0,0)"  stroke-width="2.0"/>
<line x1="217.9" y1="231.7" x2="188.5" y2="245.9" stroke="rgb(0,0,0)"  stroke-width="2.0"/>
<line x1="188.5" y1="245.9" x2="168.9" y2="245.9" stroke="rgb(0,0,0)"  stroke-width="2.0"/>
<line x1="144.1" y1="240.2" x2="126.5" y2="231.7" stroke="rgb(0,0,0)"  stroke-width="2.0"/>
<line x1="126.5" y1="231.7" x2="106.1" y2="206.2" stroke="rgb(0,0,0)"  stroke-width="2.0"/>
<line x1="106.1" y1="206.2" x2="98.9" y2="174.4" stroke="rgb(0,0,0)"  stroke-width="2.0"/>
<line x1="98.9" y1="174.4" x2="103.2" y2="155.3" stroke="rgb(0,0,0)"  stroke-width="2.0"/>
<line x1="114.2" y1="132.5" x2="126.5" y2="117.1" stroke="rgb(0,0,0)"  stroke-width="2.0"/>
<line x1="126.5" y1="117.1" x2="155.9" y2="103.0" stroke="rgb(0,0,0)"  stroke-width="2.0"/>
<line x1="155.9" y1="103.0" x2="175.5" y2="103.0" stroke="rgb(0,0,0)"  stroke-width="2.0"/>
<line x1="200.2" y1="108.6" x2="217.9" y2="117.1" stroke="rgb(0,0,0)"  stroke-width="2.0"/>
<line x1="217.9" y1="117.1" x2="238.2" y2="142.6" stroke="rgb(0,0,0)"  stroke-width="2.0"/>
<text x="122.235817" y="93.611593" fill="rgb(191,191,191)"  stroke="rgb(191,191,191)" stroke-width="1" font-size="16" >H</text>
<text x="221.575025" y="304.212271" fill="rgb(191,191,191)"  stroke="rgb(191,191,191)" stroke-width="1" font-size="16" >H</text>
<text x="242.213689" y="251.625813" fill="rgb(191,191,191)"  stroke="rgb(191,191,191)" stroke-width="1" font-size="16" >H</text>
<text x="163.240331" y="316.194109" fill="rgb(191,191,191)"  stroke="rgb(191,191,191)" stroke-width="1" font-size="16" >H</text>
<text x="204.651533" y="277.770129" fill="rgb(191,191,191)"  stroke="rgb(191,191,191)" stroke-width="1" font-size="16" >H</text>
<text x="59.744996" y="263.541551" fill="rgb(191,191,191)"  stroke="rgb(191,191,191)" stroke-width="1" font-size="16" >H</text>
<text x="115.605536" y="271.961173" fill="rgb(191,191,191)"  stroke="rgb(191,191,191)" stroke-width="1" font-size="16" >H</text>
<text x="35.082876" y="209.335639" fill="rgb(191,191,191)"  stroke="rgb(191,191,191)" stroke-width="1" font-size="16" >H</text>
<text x="81.758347" y="241.158436" fill="rgb(191,191,191)"  stroke="rgb(191,191,191)" stroke-width="1" font-size="16" >H</text>
<text x="36.382138" y="149.797307" fill="rgb(191,191,191)"  stroke="rgb(191,191,191)" stroke-width="1" font-size="16" >H</text>
<text x="64.627889" y="198.720384" fill="rgb(191,191,191)"  stroke="rgb(191,191,191)" stroke-width="1" font-size="16" >H</text>
<text x="110.744465" y="60.613113" fill="rgb(191,191,191)"  stroke="rgb(191,191,191)" stroke-width="1" font-size="16" >H</text>
<text x="90.105801" y="113.199570" fill="rgb(191,191,191)"  stroke="rgb(191,191,191)" stroke-width="1" font-size="16" >H</text>
<text x="182.190014" y="115.208970" fill="rgb(191,191,191)"  stroke="rgb(191,191,191)" stroke-width="1" font-size="16" >H</text>
<text x="267.691601" y="166.104999" fill="rgb(191,191,191)"  stroke="rgb(191,191,191)" stroke-width="1" font-size="16" >H</text>
<text x="34.000000" y="82.567567" fill="rgb(191,191,191)"  stroke="rgb(191,191,191)" stroke-width="1" font-size="16" >H</text>
<text x="36.437351" y="115.091752" fill="rgb(191,191,191)"  stroke="rgb(191,191,191)" stroke-width="1" font-size="16" >H</text>
<text x="77.536731" y="67.333406" fill="rgb(191,191,191)"  stroke="rgb(191,191,191)" stroke-width="1" font-size="16" >H</text>
<text x="98.226256" y="333.476546" fill="rgb(191,191,191)"  stroke="rgb(191,191,191)" stroke-width="1" font-size="16" >H</text>
<text x="129.392631" y="323.862993" fill="rgb(191,191,191)"  stroke="rgb(191,191,191)" stroke-width="1" font-size="16" >H</text>
<text x="73.686213" y="294.421292" fill="rgb(191,191,191)"  stroke="rgb(191,191,191)" stroke-width="1" font-size="16" >H</text>
<text x="298.319490" y="282.257816" fill="rgb(191,191,191)"  stroke="rgb(191,191,191)" stroke-width="1" font-size="16" >H</text>
<text x="295.882139" y="249.733631" fill="rgb(191,191,191)"  stroke="rgb(191,191,191)" stroke-width="1" font-size="16" >H</text>
<text x="254.782759" y="297.491978" fill="rgb(191,191,191)"  stroke="rgb(191,191,191)" stroke-width="1" font-size="16" >H</text>
<text x="67.607061" y="153.052394" fill="rgb(191,191,191)"  stroke="rgb(191,191,191)" stroke-width="1" font-size="16" >H</text>
<text x="264.712429" y="211.772990" fill="rgb(191,191,191)"  stroke="rgb(191,191,191)" stroke-width="1" font-size="16" >H</text>
<text x="159.465606" y="285.027735" fill="rgb(191,191,191)"  stroke="rgb(191,191,191)" stroke-width="1" font-size="16" >H</text>
<text x="182.467437" y="110.964023" fill="rgb(12,12,255)"  stroke="rgb(12,12,255)" stroke-width="1" font-size="16" >N</text>
<text x="242.988243" y="202.178341" fill="rgb(12,12,255)"  stroke="rgb(12,12,255)" stroke-width="1" font-size="16" >+</text>
<text x="232.188243" y="214.210341" fill="rgb(12,12,255)"  stroke="rgb(12,12,255)" stroke-width="1" font-size="16" >N</text>
<text x="160.652053" y="241.829360" fill="rgb(12,12,255)"  stroke="rgb(12,12,255)" stroke-width="1" font-size="16" >+</text>
<text x="149.852053" y="253.861360" fill="rgb(12,12,255)"  stroke="rgb(12,12,255)" stroke-width="1" font-size="16" >N</text>
<text x="110.931247" y="138.583043" fill="rgb(12,12,255)"  stroke="rgb(12,12,255)" stroke-width="1" font-size="16" >+</text>
<text x="100.131247" y="150.615043" fill="rgb(12,12,255)"  stroke="rgb(12,12,255)" stroke-width="1" font-size="16" >N</text>
<text x="180.111490" y="48.000000" fill="rgb(191,191,191)"  stroke="rgb(191,191,191)" stroke-width="1" font-size="16" >H</text>
<text x="157.927394" y="71.908769" fill="rgb(191,191,191)"  stroke="rgb(191,191,191)" stroke-width="1" font-size="16" >H</text>
<text x="220.891418" y="69.552821" fill="rgb(191,191,191)"  stroke="rgb(191,191,191)" stroke-width="1" font-size="16" >H</text>
<text x="272.574494" y="101.283832" fill="rgb(191,191,191)"  stroke="rgb(191,191,191)" stroke-width="1" font-size="16" >H</text>
<text x="216.713954" y="92.864211" fill="rgb(191,191,191)"  stroke="rgb(191,191,191)" stroke-width="1" font-size="16" >H</text>
<text x="297.236614" y="155.489744" fill="rgb(191,191,191)"  stroke="rgb(191,191,191)" stroke-width="1" font-size="16" >H</text>
<text x="250.561144" y="123.666948" fill="rgb(191,191,191)"  stroke="rgb(191,191,191)" stroke-width="1" font-size="16" >H</text>
<text x="295.937352" y="215.028076" fill="rgb(191,191,191)"  stroke="rgb(191,191,191)" stroke-width="1" font-size="16" >H</text>
</svg>
</g>
<text font-size="18.000000" fill ="black" font-family="sans-serif"
x="10.000000" y="20.000000" >ZINC19943120</text>
</svg>
