<?xml version="1.0"?>
<svg version="1.1" id="topsvg"
xmlns="http://www.w3.org/2000/svg" xmlns:xlink="http://www.w3.org/1999/xlink"
xmlns:cml="http://www.xml-cml.org/schema" x="0" y="0" width="200px" height="200px" viewBox="0 0 100 100">
<title>ZINC98219725 - Open Babel Depiction</title>
<rect x="0" y="0" width="100" height="100" fill="white"/>
<g transform="translate(0,0)">
<svg width="100" height="100" x="0" y="0" viewBox="0 0 431.846 380"
font-family="sans-serif" stroke="rgb(0,0,0)" stroke-width="2"  stroke-linecap="round">
<line x1="328.0" y1="187.1" x2="354.4" y2="181.5" stroke="rgb(0,0,0)"  stroke-width="2.0"/>
<line x1="315.6" y1="225.1" x2="333.7" y2="245.2" stroke="rgb(0,0,0)"  stroke-width="2.0"/>
<line x1="262.1" y1="165.7" x2="244.0" y2="145.6" stroke="rgb(0,0,0)"  stroke-width="2.0"/>
<line x1="301.2" y1="157.4" x2="309.6" y2="131.7" stroke="rgb(0,0,0)"  stroke-width="2.0"/>
<line x1="325.7" y1="113.7" x2="352.1" y2="108.1" stroke="rgb(0,0,0)"  stroke-width="2.0"/>
<line x1="326.9" y1="119.6" x2="353.3" y2="113.9" stroke="rgb(0,0,0)"  stroke-width="2.0"/>
<line x1="352.1" y1="108.1" x2="378.5" y2="102.5" stroke="rgb(0,0,0)"  stroke-width="2.0"/>
<line x1="353.3" y1="113.9" x2="379.8" y2="108.3" stroke="rgb(0,0,0)"  stroke-width="2.0"/>
<line x1="247.8" y1="160.0" x2="271.2" y2="173.5" stroke="rgb(0,0,0)"  stroke-width="2.0"/>
<line x1="247.8" y1="120.0" x2="271.2" y2="106.5" stroke="rgb(0,0,0)"  stroke-width="2.0"/>
<line x1="213.2" y1="100.0" x2="213.2" y2="73.0" stroke="rgb(0,0,0)"  stroke-width="2.0"/>
<line x1="178.6" y1="120.0" x2="155.2" y2="106.5" stroke="rgb(0,0,0)"  stroke-width="2.0"/>
<line x1="178.6" y1="280.0" x2="201.9" y2="293.5" stroke="rgb(0,0,0)"  stroke-width="2.0"/>
<line x1="143.9" y1="300.0" x2="143.9" y2="327.0" stroke="rgb(0,0,0)"  stroke-width="2.0"/>
<line x1="109.3" y1="280.0" x2="85.9" y2="293.5" stroke="rgb(0,0,0)"  stroke-width="2.0"/>
<line x1="109.3" y1="240.0" x2="85.9" y2="226.5" stroke="rgb(0,0,0)"  stroke-width="2.0"/>
<line x1="63.4" y1="293.5" x2="51.3" y2="286.5" stroke="rgb(0,0,0)"  stroke-width="2.0"/>
<line x1="224.5" y1="53.5" x2="236.6" y2="46.5" stroke="rgb(0,0,0)"  stroke-width="2.0"/>
<line x1="259.3" y1="266.9" x2="270.2" y2="291.5" stroke="rgb(0,0,0)"  stroke-width="2.0"/>
<line x1="253.8" y1="269.3" x2="264.8" y2="294.0" stroke="rgb(0,0,0)"  stroke-width="2.0"/>
<line x1="276.5" y1="233.5" x2="249.7" y2="203.7" stroke="rgb(0,0,0)"  stroke-width="2.0"/>
<line x1="249.7" y1="203.7" x2="262.1" y2="165.7" stroke="rgb(0,0,0)"  stroke-width="2.0"/>
<line x1="258.4" y1="200.2" x2="267.1" y2="173.6" stroke="rgb(0,0,0)"  stroke-width="2.0"/>
<line x1="262.1" y1="165.7" x2="301.2" y2="157.4" stroke="rgb(0,0,0)"  stroke-width="2.0"/>
<line x1="301.2" y1="157.4" x2="328.0" y2="187.1" stroke="rgb(0,0,0)"  stroke-width="2.0"/>
<line x1="299.9" y1="166.6" x2="318.6" y2="187.5" stroke="rgb(0,0,0)"  stroke-width="2.0"/>
<line x1="328.0" y1="187.1" x2="315.6" y2="225.1" stroke="rgb(0,0,0)"  stroke-width="2.0"/>
<line x1="315.6" y1="225.1" x2="276.5" y2="233.5" stroke="rgb(0,0,0)"  stroke-width="2.0"/>
<line x1="308.3" y1="219.3" x2="280.9" y2="225.2" stroke="rgb(0,0,0)"  stroke-width="2.0"/>
<line x1="247.8" y1="160.0" x2="247.8" y2="120.0" stroke="rgb(0,0,0)"  stroke-width="2.0"/>
<line x1="240.6" y1="154.0" x2="240.6" y2="126.0" stroke="rgb(0,0,0)"  stroke-width="2.0"/>
<line x1="247.8" y1="120.0" x2="213.2" y2="100.0" stroke="rgb(0,0,0)"  stroke-width="2.0"/>
<line x1="213.2" y1="100.0" x2="178.6" y2="120.0" stroke="rgb(0,0,0)"  stroke-width="2.0"/>
<line x1="211.6" y1="109.2" x2="187.4" y2="123.2" stroke="rgb(0,0,0)"  stroke-width="2.0"/>
<line x1="178.6" y1="120.0" x2="178.6" y2="160.0" stroke="rgb(0,0,0)"  stroke-width="2.0"/>
<line x1="178.6" y1="160.0" x2="213.2" y2="180.0" stroke="rgb(0,0,0)"  stroke-width="2.0"/>
<line x1="187.4" y1="156.8" x2="211.6" y2="170.8" stroke="rgb(0,0,0)"  stroke-width="2.0"/>
<line x1="213.2" y1="180.0" x2="247.8" y2="160.0" stroke="rgb(0,0,0)"  stroke-width="2.0"/>
<line x1="109.3" y1="280.0" x2="143.9" y2="300.0" stroke="rgb(0,0,0)"  stroke-width="2.0"/>
<line x1="118.1" y1="276.8" x2="142.3" y2="290.8" stroke="rgb(0,0,0)"  stroke-width="2.0"/>
<line x1="143.9" y1="300.0" x2="178.6" y2="280.0" stroke="rgb(0,0,0)"  stroke-width="2.0"/>
<line x1="178.6" y1="280.0" x2="178.6" y2="240.0" stroke="rgb(0,0,0)"  stroke-width="2.0"/>
<line x1="171.4" y1="274.0" x2="171.4" y2="246.0" stroke="rgb(0,0,0)"  stroke-width="2.0"/>
<line x1="178.6" y1="240.0" x2="143.9" y2="220.0" stroke="rgb(0,0,0)"  stroke-width="2.0"/>
<line x1="143.9" y1="220.0" x2="109.3" y2="240.0" stroke="rgb(0,0,0)"  stroke-width="2.0"/>
<line x1="142.3" y1="229.2" x2="118.1" y2="243.2" stroke="rgb(0,0,0)"  stroke-width="2.0"/>
<line x1="109.3" y1="240.0" x2="109.3" y2="280.0" stroke="rgb(0,0,0)"  stroke-width="2.0"/>
<line x1="216.0" y1="246.9" x2="213.2" y2="220.0" stroke="rgb(0,0,0)"  stroke-width="2.0"/>
<line x1="213.2" y1="220.0" x2="249.7" y2="203.7" stroke="rgb(0,0,0)"  stroke-width="2.0"/>
<line x1="276.5" y1="233.5" x2="256.5" y2="268.1" stroke="rgb(0,0,0)"  stroke-width="2.0"/>
<line x1="256.5" y1="268.1" x2="230.1" y2="262.5" stroke="rgb(0,0,0)"  stroke-width="2.0"/>
<line x1="178.6" y1="160.0" x2="155.2" y2="173.5" stroke="rgb(0,0,0)"  stroke-width="2.0"/>
<line x1="143.9" y1="193.0" x2="143.9" y2="220.0" stroke="rgb(0,0,0)"  stroke-width="2.0"/>
<line x1="178.6" y1="240.0" x2="213.2" y2="220.0" stroke="rgb(0,0,0)"  stroke-width="2.0"/>
<line x1="213.2" y1="220.0" x2="213.2" y2="180.0" stroke="rgb(0,0,0)"  stroke-width="2.0"/>
<text x="211.386219" y="267.780876" fill="rgb(255,12,12)"  stroke="rgb(255,12,12)" stroke-width="1" font-size="16" >O</text>
<text x="68.641016" y="228.000000" fill="rgb(147,0,147)"  stroke="rgb(147,0,147)" stroke-width="1" font-size="16" >I</text>
<text x="68.641016" y="308.000000" fill="rgb(255,12,12)"  stroke="rgb(255,12,12)" stroke-width="1" font-size="16" >O</text>
<text x="137.923048" y="348.000000" fill="rgb(147,0,147)"  stroke="rgb(147,0,147)" stroke-width="1" font-size="16" >I</text>
<text x="137.923048" y="108.000000" fill="rgb(147,0,147)"  stroke="rgb(147,0,147)" stroke-width="1" font-size="16" >I</text>
<text x="207.205081" y="68.000000" fill="rgb(255,12,12)"  stroke="rgb(255,12,12)" stroke-width="1" font-size="16" >O</text>
<text x="276.487113" y="108.000000" fill="rgb(147,0,147)"  stroke="rgb(147,0,147)" stroke-width="1" font-size="16" >I</text>
<text x="266.781589" y="312.639162" fill="rgb(255,12,12)"  stroke="rgb(255,12,12)" stroke-width="1" font-size="16" >O</text>
<text x="361.124611" y="186.781131" fill="rgb(191,191,191)"  stroke="rgb(191,191,191)" stroke-width="1" font-size="16" >H</text>
<text x="336.403252" y="262.865653" fill="rgb(191,191,191)"  stroke="rgb(191,191,191)" stroke-width="1" font-size="16" >H</text>
<text x="229.342355" y="143.962481" fill="rgb(191,191,191)"  stroke="rgb(191,191,191)" stroke-width="1" font-size="16" >H</text>
<text x="276.487113" y="188.000000" fill="rgb(191,191,191)"  stroke="rgb(191,191,191)" stroke-width="1" font-size="16" >H</text>
<text x="207.205081" y="308.000000" fill="rgb(191,191,191)"  stroke="rgb(191,191,191)" stroke-width="1" font-size="16" >H</text>
<text x="241.846097" y="48.000000" fill="rgb(191,191,191)"  stroke="rgb(191,191,191)" stroke-width="1" font-size="16" >H</text>
<text x="34.000000" y="288.000000" fill="rgb(191,191,191)"  stroke="rgb(191,191,191)" stroke-width="1" font-size="16" >H</text>
<text x="307.594163" y="127.329545" fill="rgb(12,12,255)"  stroke="rgb(12,12,255)" stroke-width="1" font-size="16" >N</text>
<text x="385.845971" y="110.696610" fill="rgb(178,178,0)"  stroke="rgb(178,178,0)" stroke-width="1" font-size="16" >S</text>
<text x="137.923048" y="188.000000" fill="rgb(255,12,12)"  stroke="rgb(255,12,12)" stroke-width="1" font-size="16" >O</text>
</svg>
</g>
<text font-size="18.000000" fill ="black" font-family="sans-serif"
x="10.000000" y="20.000000" >ZINC98219725</text>
</svg>
