<?xml version="1.0"?>
<svg version="1.1" id="topsvg"
xmlns="http://www.w3.org/2000/svg" xmlns:xlink="http://www.w3.org/1999/xlink"
xmlns:cml="http://www.xml-cml.org/schema" x="0" y="0" width="200px" height="200px" viewBox="0 0 100 100">
<title>ZINC98216289 - Open Babel Depiction</title>
<rect x="0" y="0" width="100" height="100" fill="white"/>
<g transform="translate(0,0)">
<svg width="100" height="100" x="0" y="0" viewBox="0 0 547.231 561.707"
font-family="sans-serif" stroke="rgb(0,0,0)" stroke-width="2"  stroke-linecap="round">
<line x1="473.9" y1="386.8" x2="496.0" y2="399.6" stroke="rgb(0,0,0)"  stroke-width="2.0"/>
<line x1="473.9" y1="348.3" x2="496.0" y2="335.5" stroke="rgb(0,0,0)"  stroke-width="2.0"/>
<line x1="440.5" y1="329.0" x2="440.5" y2="303.5" stroke="rgb(0,0,0)"  stroke-width="2.0"/>
<line x1="407.1" y1="348.3" x2="385.0" y2="335.5" stroke="rgb(0,0,0)"  stroke-width="2.0"/>
<line x1="407.1" y1="386.8" x2="351.6" y2="418.9" stroke="rgb(0,0,0)"  stroke-width="2.0"/>
<line x1="440.5" y1="406.1" x2="440.5" y2="431.6" stroke="rgb(0,0,0)"  stroke-width="2.0"/>
<line x1="340.4" y1="438.4" x2="340.4" y2="463.9" stroke="rgb(0,0,0)"  stroke-width="2.0"/>
<line x1="329.1" y1="418.9" x2="307.0" y2="406.1" stroke="rgb(0,0,0)"  stroke-width="2.0"/>
<line x1="340.4" y1="463.9" x2="373.7" y2="483.2" stroke="rgb(0,0,0)"  stroke-width="2.0"/>
<line x1="340.4" y1="463.9" x2="327.6" y2="486.0" stroke="rgb(0,0,0)"  stroke-width="2.0"/>
<line x1="340.4" y1="463.9" x2="314.8" y2="463.9" stroke="rgb(0,0,0)"  stroke-width="2.0"/>
<line x1="372.2" y1="480.6" x2="394.4" y2="467.8" stroke="rgb(0,0,0)"  stroke-width="2.0"/>
<line x1="375.2" y1="485.8" x2="397.4" y2="473.0" stroke="rgb(0,0,0)"  stroke-width="2.0"/>
<line x1="373.7" y1="483.2" x2="373.7" y2="508.7" stroke="rgb(0,0,0)"  stroke-width="2.0"/>
<line x1="307.0" y1="406.1" x2="273.6" y2="425.4" stroke="rgb(0,0,0)"  stroke-width="2.0"/>
<line x1="307.0" y1="406.1" x2="294.2" y2="384.0" stroke="rgb(0,0,0)"  stroke-width="2.0"/>
<line x1="307.0" y1="406.1" x2="319.8" y2="384.0" stroke="rgb(0,0,0)"  stroke-width="2.0"/>
<line x1="276.6" y1="425.4" x2="276.6" y2="450.9" stroke="rgb(0,0,0)"  stroke-width="2.0"/>
<line x1="270.6" y1="425.4" x2="270.6" y2="450.9" stroke="rgb(0,0,0)"  stroke-width="2.0"/>
<line x1="273.6" y1="425.4" x2="251.5" y2="412.6" stroke="rgb(0,0,0)"  stroke-width="2.0"/>
<line x1="373.7" y1="316.0" x2="373.7" y2="290.5" stroke="rgb(0,0,0)"  stroke-width="2.0"/>
<line x1="373.7" y1="290.5" x2="340.4" y2="271.2" stroke="rgb(0,0,0)"  stroke-width="2.0"/>
<line x1="373.7" y1="290.5" x2="386.5" y2="268.4" stroke="rgb(0,0,0)"  stroke-width="2.0"/>
<line x1="373.7" y1="290.5" x2="399.3" y2="290.5" stroke="rgb(0,0,0)"  stroke-width="2.0"/>
<line x1="340.4" y1="271.2" x2="340.4" y2="245.7" stroke="rgb(0,0,0)"  stroke-width="2.0"/>
<line x1="340.4" y1="271.2" x2="314.8" y2="271.2" stroke="rgb(0,0,0)"  stroke-width="2.0"/>
<line x1="340.4" y1="271.2" x2="327.6" y2="293.3" stroke="rgb(0,0,0)"  stroke-width="2.0"/>
<line x1="329.1" y1="226.2" x2="307.0" y2="213.4" stroke="rgb(0,0,0)"  stroke-width="2.0"/>
<line x1="273.6" y1="232.7" x2="273.6" y2="258.2" stroke="rgb(0,0,0)"  stroke-width="2.0"/>
<line x1="240.2" y1="213.4" x2="173.5" y2="252.0" stroke="rgb(0,0,0)"  stroke-width="2.0"/>
<line x1="240.2" y1="174.9" x2="218.1" y2="162.1" stroke="rgb(0,0,0)"  stroke-width="2.0"/>
<line x1="273.6" y1="155.6" x2="273.6" y2="130.1" stroke="rgb(0,0,0)"  stroke-width="2.0"/>
<line x1="307.0" y1="174.9" x2="362.5" y2="142.8" stroke="rgb(0,0,0)"  stroke-width="2.0"/>
<line x1="373.7" y1="123.3" x2="373.7" y2="97.8" stroke="rgb(0,0,0)"  stroke-width="2.0"/>
<line x1="385.0" y1="142.8" x2="407.1" y2="155.6" stroke="rgb(0,0,0)"  stroke-width="2.0"/>
<line x1="373.7" y1="97.8" x2="340.4" y2="78.5" stroke="rgb(0,0,0)"  stroke-width="2.0"/>
<line x1="373.7" y1="97.8" x2="386.5" y2="75.7" stroke="rgb(0,0,0)"  stroke-width="2.0"/>
<line x1="373.7" y1="97.8" x2="399.3" y2="97.8" stroke="rgb(0,0,0)"  stroke-width="2.0"/>
<line x1="341.9" y1="81.1" x2="319.7" y2="93.9" stroke="rgb(0,0,0)"  stroke-width="2.0"/>
<line x1="338.9" y1="75.9" x2="316.7" y2="88.7" stroke="rgb(0,0,0)"  stroke-width="2.0"/>
<line x1="340.4" y1="78.5" x2="340.4" y2="53.0" stroke="rgb(0,0,0)"  stroke-width="2.0"/>
<line x1="407.1" y1="155.6" x2="440.5" y2="136.3" stroke="rgb(0,0,0)"  stroke-width="2.0"/>
<line x1="407.1" y1="155.6" x2="419.9" y2="177.7" stroke="rgb(0,0,0)"  stroke-width="2.0"/>
<line x1="407.1" y1="155.6" x2="394.3" y2="177.7" stroke="rgb(0,0,0)"  stroke-width="2.0"/>
<line x1="437.5" y1="136.3" x2="437.5" y2="110.8" stroke="rgb(0,0,0)"  stroke-width="2.0"/>
<line x1="443.5" y1="136.3" x2="443.5" y2="110.8" stroke="rgb(0,0,0)"  stroke-width="2.0"/>
<line x1="440.5" y1="136.3" x2="462.6" y2="149.1" stroke="rgb(0,0,0)"  stroke-width="2.0"/>
<line x1="206.9" y1="309.8" x2="229.0" y2="297.0" stroke="rgb(0,0,0)"  stroke-width="2.0"/>
<line x1="206.9" y1="348.3" x2="229.0" y2="361.1" stroke="rgb(0,0,0)"  stroke-width="2.0"/>
<line x1="173.5" y1="367.6" x2="173.5" y2="393.1" stroke="rgb(0,0,0)"  stroke-width="2.0"/>
<line x1="140.1" y1="348.3" x2="118.0" y2="361.1" stroke="rgb(0,0,0)"  stroke-width="2.0"/>
<line x1="73.4" y1="232.7" x2="51.3" y2="245.5" stroke="rgb(0,0,0)"  stroke-width="2.0"/>
<line x1="71.9" y1="196.7" x2="49.8" y2="184.0" stroke="rgb(0,0,0)"  stroke-width="2.0"/>
<line x1="74.9" y1="191.5" x2="52.8" y2="178.8" stroke="rgb(0,0,0)"  stroke-width="2.0"/>
<line x1="106.7" y1="174.9" x2="106.7" y2="149.3" stroke="rgb(0,0,0)"  stroke-width="2.0"/>
<line x1="140.1" y1="194.1" x2="162.2" y2="181.4" stroke="rgb(0,0,0)"  stroke-width="2.0"/>
<line x1="440.5" y1="329.0" x2="407.1" y2="348.3" stroke="rgb(0,0,0)"  stroke-width="2.0"/>
<line x1="407.1" y1="348.3" x2="407.1" y2="386.8" stroke="rgb(0,0,0)"  stroke-width="2.0"/>
<line x1="414.3" y1="354.3" x2="414.3" y2="380.8" stroke="rgb(0,0,0)"  stroke-width="2.0"/>
<line x1="407.1" y1="386.8" x2="440.5" y2="406.1" stroke="rgb(0,0,0)"  stroke-width="2.0"/>
<line x1="440.5" y1="406.1" x2="473.9" y2="386.8" stroke="rgb(0,0,0)"  stroke-width="2.0"/>
<line x1="442.1" y1="396.9" x2="465.1" y2="383.6" stroke="rgb(0,0,0)"  stroke-width="2.0"/>
<line x1="473.9" y1="386.8" x2="473.9" y2="348.3" stroke="rgb(0,0,0)"  stroke-width="2.0"/>
<line x1="473.9" y1="348.3" x2="440.5" y2="329.0" stroke="rgb(0,0,0)"  stroke-width="2.0"/>
<line x1="465.1" y1="351.5" x2="442.1" y2="338.3" stroke="rgb(0,0,0)"  stroke-width="2.0"/>
<line x1="240.2" y1="213.4" x2="240.2" y2="174.9" stroke="rgb(0,0,0)"  stroke-width="2.0"/>
<line x1="240.2" y1="174.9" x2="273.6" y2="155.6" stroke="rgb(0,0,0)"  stroke-width="2.0"/>
<line x1="249.0" y1="178.1" x2="272.0" y2="164.8" stroke="rgb(0,0,0)"  stroke-width="2.0"/>
<line x1="273.6" y1="155.6" x2="307.0" y2="174.9" stroke="rgb(0,0,0)"  stroke-width="2.0"/>
<line x1="307.0" y1="174.9" x2="307.0" y2="213.4" stroke="rgb(0,0,0)"  stroke-width="2.0"/>
<line x1="299.8" y1="180.9" x2="299.8" y2="207.4" stroke="rgb(0,0,0)"  stroke-width="2.0"/>
<line x1="307.0" y1="213.4" x2="273.6" y2="232.7" stroke="rgb(0,0,0)"  stroke-width="2.0"/>
<line x1="273.6" y1="232.7" x2="240.2" y2="213.4" stroke="rgb(0,0,0)"  stroke-width="2.0"/>
<line x1="272.0" y1="223.4" x2="249.0" y2="210.2" stroke="rgb(0,0,0)"  stroke-width="2.0"/>
<line x1="206.9" y1="309.8" x2="206.9" y2="348.3" stroke="rgb(0,0,0)"  stroke-width="2.0"/>
<line x1="199.7" y1="315.8" x2="199.7" y2="342.3" stroke="rgb(0,0,0)"  stroke-width="2.0"/>
<line x1="206.9" y1="348.3" x2="173.5" y2="367.6" stroke="rgb(0,0,0)"  stroke-width="2.0"/>
<line x1="173.5" y1="367.6" x2="140.1" y2="348.3" stroke="rgb(0,0,0)"  stroke-width="2.0"/>
<line x1="171.9" y1="358.3" x2="148.9" y2="345.1" stroke="rgb(0,0,0)"  stroke-width="2.0"/>
<line x1="140.1" y1="348.3" x2="140.1" y2="309.8" stroke="rgb(0,0,0)"  stroke-width="2.0"/>
<line x1="140.1" y1="309.8" x2="173.5" y2="290.5" stroke="rgb(0,0,0)"  stroke-width="2.0"/>
<line x1="148.9" y1="313.0" x2="171.9" y2="299.7" stroke="rgb(0,0,0)"  stroke-width="2.0"/>
<line x1="173.5" y1="290.5" x2="206.9" y2="309.8" stroke="rgb(0,0,0)"  stroke-width="2.0"/>
<line x1="140.1" y1="309.8" x2="118.0" y2="297.0" stroke="rgb(0,0,0)"  stroke-width="2.0"/>
<line x1="106.7" y1="277.5" x2="106.7" y2="252.0" stroke="rgb(0,0,0)"  stroke-width="2.0"/>
<line x1="106.7" y1="252.0" x2="140.1" y2="232.7" stroke="rgb(0,0,0)"  stroke-width="2.0"/>
<line x1="140.1" y1="232.7" x2="173.5" y2="252.0" stroke="rgb(0,0,0)"  stroke-width="2.0"/>
<line x1="141.7" y1="241.9" x2="164.7" y2="255.2" stroke="rgb(0,0,0)"  stroke-width="2.0"/>
<line x1="173.5" y1="252.0" x2="173.5" y2="290.5" stroke="rgb(0,0,0)"  stroke-width="2.0"/>
<line x1="106.7" y1="174.9" x2="140.1" y2="194.1" stroke="rgb(0,0,0)"  stroke-width="2.0"/>
<line x1="108.3" y1="184.1" x2="131.3" y2="197.4" stroke="rgb(0,0,0)"  stroke-width="2.0"/>
<line x1="140.1" y1="194.1" x2="140.1" y2="232.7" stroke="rgb(0,0,0)"  stroke-width="2.0"/>
<line x1="106.7" y1="252.0" x2="73.4" y2="232.7" stroke="rgb(0,0,0)"  stroke-width="2.0"/>
<line x1="105.2" y1="242.7" x2="82.2" y2="229.4" stroke="rgb(0,0,0)"  stroke-width="2.0"/>
<line x1="73.4" y1="232.7" x2="73.4" y2="194.1" stroke="rgb(0,0,0)"  stroke-width="2.0"/>
<line x1="73.4" y1="194.1" x2="106.7" y2="174.9" stroke="rgb(0,0,0)"  stroke-width="2.0"/>
<text x="434.483943" y="452.634146" fill="rgb(191,191,191)"  stroke="rgb(191,191,191)" stroke-width="1" font-size="16" >H</text>
<text x="434.483943" y="298.487805" fill="rgb(191,191,191)"  stroke="rgb(191,191,191)" stroke-width="1" font-size="16" >H</text>
<text x="501.231267" y="337.024390" fill="rgb(191,191,191)"  stroke="rgb(191,191,191)" stroke-width="1" font-size="16" >H</text>
<text x="501.231267" y="414.097561" fill="rgb(191,191,191)"  stroke="rgb(191,191,191)" stroke-width="1" font-size="16" >H</text>
<text x="234.241971" y="375.560976" fill="rgb(30,239,30)"  stroke="rgb(30,239,30)" stroke-width="1" font-size="16" >Cl</text>
<text x="167.494648" y="414.097561" fill="rgb(255,12,12)"  stroke="rgb(255,12,12)" stroke-width="1" font-size="16" >OH</text>
<text x="100.747324" y="144.341463" fill="rgb(30,239,30)"  stroke="rgb(30,239,30)" stroke-width="1" font-size="16" >Cl</text>
<text x="315.094664" y="505.276101" fill="rgb(191,191,191)"  stroke="rgb(191,191,191)" stroke-width="1" font-size="16" >H</text>
<text x="34.000000" y="182.878049" fill="rgb(255,12,12)"  stroke="rgb(255,12,12)" stroke-width="1" font-size="16" >O</text>
<text x="100.747324" y="298.487805" fill="rgb(255,12,12)"  stroke="rgb(255,12,12)" stroke-width="1" font-size="16" >O</text>
<text x="200.868310" y="163.609756" fill="rgb(191,191,191)"  stroke="rgb(191,191,191)" stroke-width="1" font-size="16" >H</text>
<text x="167.494648" y="182.878049" fill="rgb(191,191,191)"  stroke="rgb(191,191,191)" stroke-width="1" font-size="16" >H</text>
<text x="34.000000" y="259.951220" fill="rgb(191,191,191)"  stroke="rgb(191,191,191)" stroke-width="1" font-size="16" >H</text>
<text x="100.747324" y="375.560976" fill="rgb(191,191,191)"  stroke="rgb(191,191,191)" stroke-width="1" font-size="16" >H</text>
<text x="234.241971" y="298.487805" fill="rgb(191,191,191)"  stroke="rgb(191,191,191)" stroke-width="1" font-size="16" >H</text>
<text x="381.841988" y="196.983418" fill="rgb(191,191,191)"  stroke="rgb(191,191,191)" stroke-width="1" font-size="16" >H</text>
<text x="420.378574" y="196.983418" fill="rgb(191,191,191)"  stroke="rgb(191,191,191)" stroke-width="1" font-size="16" >H</text>
<text x="406.273204" y="105.804878" fill="rgb(191,191,191)"  stroke="rgb(191,191,191)" stroke-width="1" font-size="16" >H</text>
<text x="387.004912" y="72.431216" fill="rgb(191,191,191)"  stroke="rgb(191,191,191)" stroke-width="1" font-size="16" >H</text>
<text x="267.615633" y="125.073171" fill="rgb(191,191,191)"  stroke="rgb(191,191,191)" stroke-width="1" font-size="16" >H</text>
<text x="267.615633" y="279.219512" fill="rgb(191,191,191)"  stroke="rgb(191,191,191)" stroke-width="1" font-size="16" >H</text>
<text x="315.094664" y="312.593174" fill="rgb(191,191,191)"  stroke="rgb(191,191,191)" stroke-width="1" font-size="16" >H</text>
<text x="295.826372" y="279.219512" fill="rgb(191,191,191)"  stroke="rgb(191,191,191)" stroke-width="1" font-size="16" >H</text>
<text x="406.273204" y="298.487805" fill="rgb(191,191,191)"  stroke="rgb(191,191,191)" stroke-width="1" font-size="16" >H</text>
<text x="387.004912" y="265.114143" fill="rgb(191,191,191)"  stroke="rgb(191,191,191)" stroke-width="1" font-size="16" >H</text>
<text x="320.257588" y="380.723899" fill="rgb(191,191,191)"  stroke="rgb(191,191,191)" stroke-width="1" font-size="16" >H</text>
<text x="281.721003" y="380.723899" fill="rgb(191,191,191)"  stroke="rgb(191,191,191)" stroke-width="1" font-size="16" >H</text>
<text x="295.826372" y="471.902439" fill="rgb(191,191,191)"  stroke="rgb(191,191,191)" stroke-width="1" font-size="16" >H</text>
<text x="401.110281" y="471.902439" fill="rgb(255,12,12)"  stroke="rgb(255,12,12)" stroke-width="1" font-size="16" >O</text>
<text x="334.362957" y="240.682927" fill="rgb(255,12,12)"  stroke="rgb(255,12,12)" stroke-width="1" font-size="16" >O</text>
<text x="367.736619" y="337.024390" fill="rgb(255,12,12)"  stroke="rgb(255,12,12)" stroke-width="1" font-size="16" >O</text>
<text x="222.241971" y="414.097561" fill="rgb(255,12,12)"  stroke="rgb(255,12,12)" stroke-width="1" font-size="16" >HO</text>
<text x="267.615633" y="471.902439" fill="rgb(255,12,12)"  stroke="rgb(255,12,12)" stroke-width="1" font-size="16" >O</text>
<text x="367.736619" y="529.707317" fill="rgb(255,12,12)"  stroke="rgb(255,12,12)" stroke-width="1" font-size="16" >OH</text>
<text x="334.362957" y="433.365854" fill="rgb(12,12,255)"  stroke="rgb(12,12,255)" stroke-width="1" font-size="16" >N</text>
<text x="300.989295" y="105.804878" fill="rgb(255,12,12)"  stroke="rgb(255,12,12)" stroke-width="1" font-size="16" >O</text>
<text x="467.857605" y="163.609756" fill="rgb(255,12,12)"  stroke="rgb(255,12,12)" stroke-width="1" font-size="16" >OH</text>
<text x="434.483943" y="105.804878" fill="rgb(255,12,12)"  stroke="rgb(255,12,12)" stroke-width="1" font-size="16" >O</text>
<text x="334.362957" y="48.000000" fill="rgb(255,12,12)"  stroke="rgb(255,12,12)" stroke-width="1" font-size="16" >OH</text>
<text x="367.736619" y="144.341463" fill="rgb(12,12,255)"  stroke="rgb(12,12,255)" stroke-width="1" font-size="16" >N</text>
</svg>
</g>
<text font-size="18.000000" fill ="black" font-family="sans-serif"
x="10.000000" y="20.000000" >ZINC98216289</text>
</svg>
