<?xml version="1.0"?>
<svg version="1.1" id="topsvg"
xmlns="http://www.w3.org/2000/svg" xmlns:xlink="http://www.w3.org/1999/xlink"
xmlns:cml="http://www.xml-cml.org/schema" x="0" y="0" width="200px" height="200px" viewBox="0 0 100 100">
<title>ZINC95099739 - Open Babel Depiction</title>
<rect x="0" y="0" width="100" height="100" fill="white"/>
<g transform="translate(0,0)">
<svg width="100" height="100" x="0" y="0" viewBox="0 0 417.105 461.442"
font-family="sans-serif" stroke="rgb(0,0,0)" stroke-width="2"  stroke-linecap="round">
<line x1="278.2" y1="375.8" x2="310.5" y2="354.8" stroke="rgb(0,0,0)"  stroke-width="2.0"/>
<line x1="278.2" y1="375.8" x2="266.6" y2="398.5" stroke="rgb(0,0,0)"  stroke-width="2.0"/>
<line x1="278.2" y1="375.8" x2="292.1" y2="397.2" stroke="rgb(0,0,0)"  stroke-width="2.0"/>
<line x1="278.2" y1="375.8" x2="255.4" y2="364.2" stroke="rgb(0,0,0)"  stroke-width="2.0"/>
<line x1="310.5" y1="354.8" x2="331.5" y2="387.1" stroke="rgb(0,0,0)"  stroke-width="2.0"/>
<line x1="310.5" y1="354.8" x2="342.8" y2="333.8" stroke="rgb(0,0,0)"  stroke-width="2.0"/>
<line x1="310.5" y1="354.8" x2="296.6" y2="333.4" stroke="rgb(0,0,0)"  stroke-width="2.0"/>
<line x1="331.5" y1="387.1" x2="354.2" y2="398.7" stroke="rgb(0,0,0)"  stroke-width="2.0"/>
<line x1="331.5" y1="387.1" x2="352.9" y2="373.2" stroke="rgb(0,0,0)"  stroke-width="2.0"/>
<line x1="331.5" y1="387.1" x2="319.9" y2="409.9" stroke="rgb(0,0,0)"  stroke-width="2.0"/>
<line x1="342.8" y1="333.8" x2="354.4" y2="311.1" stroke="rgb(0,0,0)"  stroke-width="2.0"/>
<line x1="342.8" y1="333.8" x2="328.9" y2="312.4" stroke="rgb(0,0,0)"  stroke-width="2.0"/>
<line x1="342.8" y1="333.8" x2="365.5" y2="345.4" stroke="rgb(0,0,0)"  stroke-width="2.0"/>
<line x1="295.4" y1="310.9" x2="307.0" y2="288.2" stroke="rgb(0,0,0)"  stroke-width="2.0"/>
<line x1="306.8" y1="285.2" x2="332.3" y2="283.9" stroke="rgb(0,0,0)"  stroke-width="2.0"/>
<line x1="307.1" y1="291.2" x2="332.6" y2="289.9" stroke="rgb(0,0,0)"  stroke-width="2.0"/>
<line x1="307.0" y1="288.2" x2="293.1" y2="266.8" stroke="rgb(0,0,0)"  stroke-width="2.0"/>
<line x1="303.5" y1="221.6" x2="326.2" y2="233.2" stroke="rgb(0,0,0)"  stroke-width="2.0"/>
<line x1="303.5" y1="221.6" x2="324.9" y2="207.7" stroke="rgb(0,0,0)"  stroke-width="2.0"/>
<line x1="282.5" y1="189.3" x2="303.9" y2="175.4" stroke="rgb(0,0,0)"  stroke-width="2.0"/>
<line x1="282.5" y1="189.3" x2="279.2" y2="125.3" stroke="rgb(0,0,0)"  stroke-width="2.0"/>
<line x1="244.1" y1="191.3" x2="181.4" y2="178.0" stroke="rgb(0,0,0)"  stroke-width="2.0"/>
<line x1="244.1" y1="191.3" x2="258.5" y2="170.2" stroke="rgb(0,0,0)"  stroke-width="2.0"/>
<line x1="226.6" y1="225.6" x2="203.8" y2="214.0" stroke="rgb(0,0,0)"  stroke-width="2.0"/>
<line x1="226.6" y1="225.6" x2="205.2" y2="239.5" stroke="rgb(0,0,0)"  stroke-width="2.0"/>
<line x1="247.5" y1="257.9" x2="226.1" y2="271.8" stroke="rgb(0,0,0)"  stroke-width="2.0"/>
<line x1="247.5" y1="257.9" x2="248.9" y2="283.4" stroke="rgb(0,0,0)"  stroke-width="2.0"/>
<line x1="140.1" y1="239.6" x2="162.2" y2="252.3" stroke="rgb(0,0,0)"  stroke-width="2.0"/>
<line x1="106.7" y1="258.8" x2="106.7" y2="284.3" stroke="rgb(0,0,0)"  stroke-width="2.0"/>
<line x1="73.4" y1="239.6" x2="51.3" y2="252.3" stroke="rgb(0,0,0)"  stroke-width="2.0"/>
<line x1="73.4" y1="201.0" x2="51.3" y2="188.3" stroke="rgb(0,0,0)"  stroke-width="2.0"/>
<line x1="153.0" y1="140.1" x2="172.3" y2="106.7" stroke="rgb(0,0,0)"  stroke-width="2.0"/>
<line x1="172.3" y1="106.7" x2="159.5" y2="84.6" stroke="rgb(0,0,0)"  stroke-width="2.0"/>
<line x1="172.3" y1="106.7" x2="194.4" y2="94.0" stroke="rgb(0,0,0)"  stroke-width="2.0"/>
<line x1="172.3" y1="106.7" x2="194.4" y2="119.5" stroke="rgb(0,0,0)"  stroke-width="2.0"/>
<line x1="140.0" y1="73.4" x2="127.5" y2="73.4" stroke="rgb(0,0,0)"  stroke-width="2.0"/>
<line x1="159.5" y1="62.1" x2="165.8" y2="51.3" stroke="rgb(0,0,0)"  stroke-width="2.0"/>
<line x1="106.7" y1="181.8" x2="112.0" y2="156.8" stroke="rgb(0,0,0)"  stroke-width="2.0"/>
<line x1="127.4" y1="142.8" x2="153.0" y2="140.1" stroke="rgb(0,0,0)"  stroke-width="2.0"/>
<line x1="130.3" y1="149.7" x2="147.8" y2="147.9" stroke="rgb(0,0,0)"  stroke-width="2.0"/>
<line x1="153.0" y1="140.1" x2="163.4" y2="163.4" stroke="rgb(0,0,0)"  stroke-width="2.0"/>
<line x1="159.0" y1="184.0" x2="140.1" y2="201.0" stroke="rgb(0,0,0)"  stroke-width="2.0"/>
<line x1="140.1" y1="201.0" x2="106.7" y2="181.8" stroke="rgb(0,0,0)"  stroke-width="2.0"/>
<line x1="138.5" y1="191.8" x2="115.5" y2="178.5" stroke="rgb(0,0,0)"  stroke-width="2.0"/>
<line x1="140.1" y1="239.6" x2="106.7" y2="258.8" stroke="rgb(0,0,0)"  stroke-width="2.0"/>
<line x1="131.3" y1="236.3" x2="108.3" y2="249.6" stroke="rgb(0,0,0)"  stroke-width="2.0"/>
<line x1="106.7" y1="258.8" x2="73.4" y2="239.6" stroke="rgb(0,0,0)"  stroke-width="2.0"/>
<line x1="73.4" y1="239.6" x2="73.4" y2="201.0" stroke="rgb(0,0,0)"  stroke-width="2.0"/>
<line x1="80.6" y1="233.6" x2="80.6" y2="207.0" stroke="rgb(0,0,0)"  stroke-width="2.0"/>
<line x1="73.4" y1="201.0" x2="106.7" y2="181.8" stroke="rgb(0,0,0)"  stroke-width="2.0"/>
<line x1="140.1" y1="201.0" x2="140.1" y2="239.6" stroke="rgb(0,0,0)"  stroke-width="2.0"/>
<line x1="282.5" y1="189.3" x2="244.1" y2="191.3" stroke="rgb(0,0,0)"  stroke-width="2.0"/>
<line x1="244.1" y1="191.3" x2="226.6" y2="225.6" stroke="rgb(0,0,0)"  stroke-width="2.0"/>
<line x1="226.6" y1="225.6" x2="247.5" y2="257.9" stroke="rgb(0,0,0)"  stroke-width="2.0"/>
<line x1="247.5" y1="257.9" x2="273.0" y2="256.6" stroke="rgb(0,0,0)"  stroke-width="2.0"/>
<line x1="291.9" y1="244.3" x2="303.5" y2="221.6" stroke="rgb(0,0,0)"  stroke-width="2.0"/>
<line x1="303.5" y1="221.6" x2="282.5" y2="189.3" stroke="rgb(0,0,0)"  stroke-width="2.0"/>
<text x="186.245185" y="216.112575" fill="rgb(191,191,191)"  stroke="rgb(191,191,191)" stroke-width="1" font-size="16" >H</text>
<text x="237.855592" y="366.308655" fill="rgb(191,191,191)"  stroke="rgb(191,191,191)" stroke-width="1" font-size="16" >H</text>
<text x="359.779131" y="412.608397" fill="rgb(191,191,191)"  stroke="rgb(191,191,191)" stroke-width="1" font-size="16" >H</text>
<text x="357.763227" y="374.142666" fill="rgb(191,191,191)"  stroke="rgb(191,191,191)" stroke-width="1" font-size="16" >H</text>
<text x="307.971838" y="429.441607" fill="rgb(191,191,191)"  stroke="rgb(191,191,191)" stroke-width="1" font-size="16" >H</text>
<text x="354.271580" y="307.518067" fill="rgb(191,191,191)"  stroke="rgb(191,191,191)" stroke-width="1" font-size="16" >H</text>
<text x="315.805850" y="309.533971" fill="rgb(191,191,191)"  stroke="rgb(191,191,191)" stroke-width="1" font-size="16" >H</text>
<text x="371.104790" y="359.325360" fill="rgb(191,191,191)"  stroke="rgb(191,191,191)" stroke-width="1" font-size="16" >H</text>
<text x="331.817148" y="247.054851" fill="rgb(191,191,191)"  stroke="rgb(191,191,191)" stroke-width="1" font-size="16" >H</text>
<text x="329.801244" y="208.589120" fill="rgb(191,191,191)"  stroke="rgb(191,191,191)" stroke-width="1" font-size="16" >H</text>
<text x="308.822555" y="176.284773" fill="rgb(191,191,191)"  stroke="rgb(191,191,191)" stroke-width="1" font-size="16" >H</text>
<text x="272.486401" y="120.332001" fill="rgb(191,191,191)"  stroke="rgb(191,191,191)" stroke-width="1" font-size="16" >H</text>
<text x="259.869606" y="167.535245" fill="rgb(191,191,191)"  stroke="rgb(191,191,191)" stroke-width="1" font-size="16" >H</text>
<text x="293.154532" y="416.100044" fill="rgb(191,191,191)"  stroke="rgb(191,191,191)" stroke-width="1" font-size="16" >H</text>
<text x="188.261088" y="254.578305" fill="rgb(191,191,191)"  stroke="rgb(191,191,191)" stroke-width="1" font-size="16" >H</text>
<text x="209.239777" y="286.882653" fill="rgb(191,191,191)"  stroke="rgb(191,191,191)" stroke-width="1" font-size="16" >H</text>
<text x="243.560028" y="304.369694" fill="rgb(191,191,191)"  stroke="rgb(191,191,191)" stroke-width="1" font-size="16" >H</text>
<text x="167.432062" y="266.814162" fill="rgb(191,191,191)"  stroke="rgb(191,191,191)" stroke-width="1" font-size="16" >H</text>
<text x="100.716031" y="305.332680" fill="rgb(191,191,191)"  stroke="rgb(191,191,191)" stroke-width="1" font-size="16" >H</text>
<text x="34.000000" y="266.814162" fill="rgb(191,191,191)"  stroke="rgb(191,191,191)" stroke-width="1" font-size="16" >H</text>
<text x="34.000000" y="189.777125" fill="rgb(191,191,191)"  stroke="rgb(191,191,191)" stroke-width="1" font-size="16" >H</text>
<text x="199.649266" y="95.456772" fill="rgb(191,191,191)"  stroke="rgb(191,191,191)" stroke-width="1" font-size="16" >H</text>
<text x="199.649266" y="133.975290" fill="rgb(191,191,191)"  stroke="rgb(191,191,191)" stroke-width="1" font-size="16" >H</text>
<text x="108.513473" y="81.358016" fill="rgb(191,191,191)"  stroke="rgb(191,191,191)" stroke-width="1" font-size="16" >H</text>
<text x="166.291251" y="48.000000" fill="rgb(191,191,191)"  stroke="rgb(191,191,191)" stroke-width="1" font-size="16" >H</text>
<text x="162.698884" y="183.262464" fill="rgb(12,12,255)"  stroke="rgb(12,12,255)" stroke-width="1" font-size="16" >N</text>
<text x="283.501502" y="330.512660" fill="rgb(255,12,12)"  stroke="rgb(255,12,12)" stroke-width="1" font-size="16" >O</text>
<text x="339.454274" y="294.176505" fill="rgb(255,12,12)"  stroke="rgb(255,12,12)" stroke-width="1" font-size="16" >O</text>
<text x="280.009855" y="263.888061" fill="rgb(12,12,255)"  stroke="rgb(12,12,255)" stroke-width="1" font-size="16" >N</text>
<text x="108.724481" y="152.100328" fill="rgb(12,12,255)"  stroke="rgb(12,12,255)" stroke-width="1" font-size="16" >N</text>
<text x="147.031991" y="81.358016" fill="rgb(12,12,255)"  stroke="rgb(12,12,255)" stroke-width="1" font-size="16" >N</text>
<text x="254.688802" y="418.115947" fill="rgb(191,191,191)"  stroke="rgb(191,191,191)" stroke-width="1" font-size="16" >H</text>
</svg>
</g>
<text font-size="18.000000" fill ="black" font-family="sans-serif"
x="10.000000" y="20.000000" >ZINC95099739</text>
</svg>
