<?xml version="1.0"?>
<svg version="1.1" id="topsvg"
xmlns="http://www.w3.org/2000/svg" xmlns:xlink="http://www.w3.org/1999/xlink"
xmlns:cml="http://www.xml-cml.org/schema" x="0" y="0" width="200px" height="200px" viewBox="0 0 100 100">
<title>ZINC00786412 - Open Babel Depiction</title>
<rect x="0" y="0" width="100" height="100" fill="white"/>
<g transform="translate(0,0)">
<svg width="100" height="100" x="0" y="0" viewBox="0 0 473.34 469.506"
font-family="sans-serif" stroke="rgb(0,0,0)" stroke-width="2"  stroke-linecap="round">
<line x1="162.5" y1="312.2" x2="139.9" y2="325.3" stroke="rgb(0,0,0)"  stroke-width="2.0"/>
<line x1="196.4" y1="331.8" x2="196.4" y2="357.9" stroke="rgb(0,0,0)"  stroke-width="2.0"/>
<line x1="230.2" y1="312.2" x2="264.1" y2="331.8" stroke="rgb(0,0,0)"  stroke-width="2.0"/>
<line x1="230.2" y1="273.1" x2="252.8" y2="260.1" stroke="rgb(0,0,0)"  stroke-width="2.0"/>
<line x1="196.4" y1="253.6" x2="196.4" y2="188.4" stroke="rgb(0,0,0)"  stroke-width="2.0"/>
<line x1="162.5" y1="273.1" x2="139.9" y2="260.1" stroke="rgb(0,0,0)"  stroke-width="2.0"/>
<line x1="209.4" y1="172.4" x2="222.5" y2="172.4" stroke="rgb(0,0,0)"  stroke-width="2.0"/>
<line x1="209.4" y1="178.4" x2="222.5" y2="178.4" stroke="rgb(0,0,0)"  stroke-width="2.0"/>
<line x1="193.4" y1="162.4" x2="193.4" y2="149.3" stroke="rgb(0,0,0)"  stroke-width="2.0"/>
<line x1="199.4" y1="162.4" x2="199.4" y2="149.3" stroke="rgb(0,0,0)"  stroke-width="2.0"/>
<line x1="183.4" y1="175.4" x2="170.3" y2="175.4" stroke="rgb(0,0,0)"  stroke-width="2.0"/>
<line x1="150.8" y1="164.2" x2="137.7" y2="141.6" stroke="rgb(0,0,0)"  stroke-width="2.0"/>
<line x1="150.8" y1="186.7" x2="144.2" y2="198.0" stroke="rgb(0,0,0)"  stroke-width="2.0"/>
<line x1="157.3" y1="107.7" x2="183.4" y2="107.7" stroke="rgb(0,0,0)"  stroke-width="2.0"/>
<line x1="137.7" y1="73.9" x2="150.8" y2="51.3" stroke="rgb(0,0,0)"  stroke-width="2.0"/>
<line x1="98.6" y1="73.9" x2="85.6" y2="51.3" stroke="rgb(0,0,0)"  stroke-width="2.0"/>
<line x1="79.1" y1="107.7" x2="53.0" y2="107.7" stroke="rgb(0,0,0)"  stroke-width="2.0"/>
<line x1="98.6" y1="141.6" x2="85.6" y2="164.2" stroke="rgb(0,0,0)"  stroke-width="2.0"/>
<line x1="267.1" y1="331.8" x2="267.1" y2="357.9" stroke="rgb(0,0,0)"  stroke-width="2.0"/>
<line x1="261.1" y1="331.8" x2="261.1" y2="357.9" stroke="rgb(0,0,0)"  stroke-width="2.0"/>
<line x1="264.1" y1="331.8" x2="286.7" y2="318.7" stroke="rgb(0,0,0)"  stroke-width="2.0"/>
<line x1="309.2" y1="318.7" x2="331.8" y2="331.8" stroke="rgb(0,0,0)"  stroke-width="2.0"/>
<line x1="297.9" y1="299.2" x2="297.9" y2="286.1" stroke="rgb(0,0,0)"  stroke-width="2.0"/>
<line x1="331.8" y1="370.9" x2="309.2" y2="383.9" stroke="rgb(0,0,0)"  stroke-width="2.0"/>
<line x1="365.6" y1="390.4" x2="365.6" y2="416.5" stroke="rgb(0,0,0)"  stroke-width="2.0"/>
<line x1="399.5" y1="370.9" x2="422.1" y2="383.9" stroke="rgb(0,0,0)"  stroke-width="2.0"/>
<line x1="399.5" y1="331.8" x2="422.1" y2="318.7" stroke="rgb(0,0,0)"  stroke-width="2.0"/>
<line x1="365.6" y1="312.2" x2="365.6" y2="286.1" stroke="rgb(0,0,0)"  stroke-width="2.0"/>
<line x1="230.2" y1="312.2" x2="230.2" y2="273.1" stroke="rgb(0,0,0)"  stroke-width="2.0"/>
<line x1="230.2" y1="273.1" x2="196.4" y2="253.6" stroke="rgb(0,0,0)"  stroke-width="2.0"/>
<line x1="221.4" y1="276.4" x2="198.0" y2="262.8" stroke="rgb(0,0,0)"  stroke-width="2.0"/>
<line x1="196.4" y1="253.6" x2="162.5" y2="273.1" stroke="rgb(0,0,0)"  stroke-width="2.0"/>
<line x1="162.5" y1="273.1" x2="162.5" y2="312.2" stroke="rgb(0,0,0)"  stroke-width="2.0"/>
<line x1="169.7" y1="279.1" x2="169.7" y2="306.2" stroke="rgb(0,0,0)"  stroke-width="2.0"/>
<line x1="162.5" y1="312.2" x2="196.4" y2="331.8" stroke="rgb(0,0,0)"  stroke-width="2.0"/>
<line x1="196.4" y1="331.8" x2="230.2" y2="312.2" stroke="rgb(0,0,0)"  stroke-width="2.0"/>
<line x1="198.0" y1="322.5" x2="221.4" y2="309.0" stroke="rgb(0,0,0)"  stroke-width="2.0"/>
<line x1="137.7" y1="73.9" x2="98.6" y2="73.9" stroke="rgb(0,0,0)"  stroke-width="2.0"/>
<line x1="98.6" y1="73.9" x2="79.1" y2="107.7" stroke="rgb(0,0,0)"  stroke-width="2.0"/>
<line x1="101.9" y1="82.6" x2="88.3" y2="106.1" stroke="rgb(0,0,0)"  stroke-width="2.0"/>
<line x1="79.1" y1="107.7" x2="98.6" y2="141.6" stroke="rgb(0,0,0)"  stroke-width="2.0"/>
<line x1="98.6" y1="141.6" x2="137.7" y2="141.6" stroke="rgb(0,0,0)"  stroke-width="2.0"/>
<line x1="104.6" y1="134.4" x2="131.7" y2="134.4" stroke="rgb(0,0,0)"  stroke-width="2.0"/>
<line x1="137.7" y1="141.6" x2="157.3" y2="107.7" stroke="rgb(0,0,0)"  stroke-width="2.0"/>
<line x1="157.3" y1="107.7" x2="137.7" y2="73.9" stroke="rgb(0,0,0)"  stroke-width="2.0"/>
<line x1="148.0" y1="106.1" x2="134.5" y2="82.6" stroke="rgb(0,0,0)"  stroke-width="2.0"/>
<line x1="365.6" y1="390.4" x2="399.5" y2="370.9" stroke="rgb(0,0,0)"  stroke-width="2.0"/>
<line x1="399.5" y1="370.9" x2="399.5" y2="331.8" stroke="rgb(0,0,0)"  stroke-width="2.0"/>
<line x1="392.3" y1="364.9" x2="392.3" y2="337.8" stroke="rgb(0,0,0)"  stroke-width="2.0"/>
<line x1="399.5" y1="331.8" x2="365.6" y2="312.2" stroke="rgb(0,0,0)"  stroke-width="2.0"/>
<line x1="365.6" y1="312.2" x2="331.8" y2="331.8" stroke="rgb(0,0,0)"  stroke-width="2.0"/>
<line x1="364.0" y1="321.5" x2="340.6" y2="335.0" stroke="rgb(0,0,0)"  stroke-width="2.0"/>
<line x1="331.8" y1="331.8" x2="331.8" y2="370.9" stroke="rgb(0,0,0)"  stroke-width="2.0"/>
<line x1="331.8" y1="370.9" x2="365.6" y2="390.4" stroke="rgb(0,0,0)"  stroke-width="2.0"/>
<line x1="340.6" y1="367.6" x2="364.0" y2="381.2" stroke="rgb(0,0,0)"  stroke-width="2.0"/>
<text x="190.363636" y="115.707441" fill="rgb(191,191,191)"  stroke="rgb(191,191,191)" stroke-width="1" font-size="16" >H</text>
<text x="427.339679" y="398.414881" fill="rgb(165,40,40)"  stroke="rgb(165,40,40)" stroke-width="1" font-size="16" >Br</text>
<text x="122.656196" y="339.778518" fill="rgb(191,191,191)"  stroke="rgb(191,191,191)" stroke-width="1" font-size="16" >H</text>
<text x="190.363636" y="378.869427" fill="rgb(191,191,191)"  stroke="rgb(191,191,191)" stroke-width="1" font-size="16" >H</text>
<text x="258.071077" y="261.596700" fill="rgb(191,191,191)"  stroke="rgb(191,191,191)" stroke-width="1" font-size="16" >H</text>
<text x="122.656196" y="261.596700" fill="rgb(191,191,191)"  stroke="rgb(191,191,191)" stroke-width="1" font-size="16" >H</text>
<text x="151.272727" y="48.000000" fill="rgb(191,191,191)"  stroke="rgb(191,191,191)" stroke-width="1" font-size="16" >H</text>
<text x="34.000000" y="115.707441" fill="rgb(191,191,191)"  stroke="rgb(191,191,191)" stroke-width="1" font-size="16" >H</text>
<text x="73.090909" y="183.414881" fill="rgb(191,191,191)"  stroke="rgb(191,191,191)" stroke-width="1" font-size="16" >H</text>
<text x="291.924797" y="281.142154" fill="rgb(191,191,191)"  stroke="rgb(191,191,191)" stroke-width="1" font-size="16" >H</text>
<text x="291.924797" y="398.414881" fill="rgb(191,191,191)"  stroke="rgb(191,191,191)" stroke-width="1" font-size="16" >H</text>
<text x="359.632238" y="437.505790" fill="rgb(191,191,191)"  stroke="rgb(191,191,191)" stroke-width="1" font-size="16" >H</text>
<text x="427.339679" y="320.233063" fill="rgb(191,191,191)"  stroke="rgb(191,191,191)" stroke-width="1" font-size="16" >H</text>
<text x="359.632238" y="281.142154" fill="rgb(191,191,191)"  stroke="rgb(191,191,191)" stroke-width="1" font-size="16" >H</text>
<text x="131.727273" y="217.268602" fill="rgb(191,191,191)"  stroke="rgb(191,191,191)" stroke-width="1" font-size="16" >H</text>
<text x="190.363636" y="183.414881" fill="rgb(178,178,0)"  stroke="rgb(178,178,0)" stroke-width="1" font-size="16" >S</text>
<text x="229.454545" y="183.414881" fill="rgb(255,12,12)"  stroke="rgb(255,12,12)" stroke-width="1" font-size="16" >O</text>
<text x="190.363636" y="144.323972" fill="rgb(255,12,12)"  stroke="rgb(255,12,12)" stroke-width="1" font-size="16" >O</text>
<text x="151.272727" y="183.414881" fill="rgb(12,12,255)"  stroke="rgb(12,12,255)" stroke-width="1" font-size="16" >N</text>
<text x="61.090909" y="48.000000" fill="rgb(165,40,40)"  stroke="rgb(165,40,40)" stroke-width="1" font-size="16" >Br</text>
<text x="258.071077" y="378.869427" fill="rgb(255,12,12)"  stroke="rgb(255,12,12)" stroke-width="1" font-size="16" >O</text>
<text x="291.924797" y="320.233063" fill="rgb(12,12,255)"  stroke="rgb(12,12,255)" stroke-width="1" font-size="16" >N</text>
</svg>
</g>
<text font-size="18.000000" fill ="black" font-family="sans-serif"
x="10.000000" y="20.000000" >ZINC00786412</text>
</svg>
