<?xml version="1.0"?>
<svg version="1.1" id="topsvg"
xmlns="http://www.w3.org/2000/svg" xmlns:xlink="http://www.w3.org/1999/xlink"
xmlns:cml="http://www.xml-cml.org/schema" x="0" y="0" width="200px" height="200px" viewBox="0 0 100 100">
<title>ZINC06176199 - Open Babel Depiction</title>
<rect x="0" y="0" width="100" height="100" fill="white"/>
<g transform="translate(0,0)">
<svg width="100" height="100" x="0" y="0" viewBox="0 0 414.204 403.21"
font-family="sans-serif" stroke="rgb(0,0,0)" stroke-width="2"  stroke-linecap="round">
<line x1="339.1" y1="261.8" x2="303.9" y2="282.0" stroke="rgb(0,0,0)"  stroke-width="2.0"/>
<line x1="339.1" y1="261.8" x2="352.8" y2="237.9" stroke="rgb(0,0,0)"  stroke-width="2.0"/>
<line x1="339.1" y1="261.8" x2="325.3" y2="237.9" stroke="rgb(0,0,0)"  stroke-width="2.0"/>
<line x1="339.1" y1="261.8" x2="362.9" y2="275.5" stroke="rgb(0,0,0)"  stroke-width="2.0"/>
<polygon points="303.911319 282.043308 320.970848 303.591278 314.042645 307.591278 " stroke-width="2.000000" fill="rgb(0,0,0)"  stroke="rgb(0,0,0)" />
<line x1="303.9" y1="282.0" x2="268.8" y2="302.3" stroke="rgb(0,0,0)"  stroke-width="2.0"/>
<line x1="303.9" y1="282.0" x2="290.1" y2="258.2" stroke="rgb(0,0,0)"  stroke-width="2.0"/>
<line x1="268.8" y1="302.3" x2="268.8" y2="329.9" stroke="rgb(0,0,0)"  stroke-width="2.0"/>
<line x1="268.8" y1="302.3" x2="241.2" y2="302.3" stroke="rgb(0,0,0)"  stroke-width="2.0"/>
<line x1="268.8" y1="302.3" x2="255.0" y2="278.4" stroke="rgb(0,0,0)"  stroke-width="2.0"/>
<line x1="257.5" y1="349.4" x2="244.9" y2="356.7" stroke="rgb(0,0,0)"  stroke-width="2.0"/>
<line x1="290.1" y1="235.6" x2="303.9" y2="211.8" stroke="rgb(0,0,0)"  stroke-width="2.0"/>
<line x1="270.6" y1="246.9" x2="256.0" y2="246.9" stroke="rgb(0,0,0)"  stroke-width="2.0"/>
<line x1="303.9" y1="208.8" x2="331.5" y2="208.8" stroke="rgb(0,0,0)"  stroke-width="2.0"/>
<line x1="303.9" y1="214.8" x2="331.5" y2="214.8" stroke="rgb(0,0,0)"  stroke-width="2.0"/>
<line x1="303.9" y1="211.8" x2="283.6" y2="176.6" stroke="rgb(0,0,0)"  stroke-width="2.0"/>
<polygon points="283.619637 176.604635 310.810491 172.604635 310.810491 180.604635 " stroke-width="2.000000" fill="rgb(0,0,0)"  stroke="rgb(0,0,0)" />
<line x1="248.5" y1="196.9" x2="234.7" y2="220.8" stroke="rgb(0,0,0)"  stroke-width="2.0"/>
<line x1="248.5" y1="196.9" x2="262.3" y2="220.8" stroke="rgb(0,0,0)"  stroke-width="2.0"/>
<line x1="213.3" y1="176.6" x2="213.3" y2="204.2" stroke="rgb(0,0,0)"  stroke-width="2.0"/>
<polygon points="213.327189 176.604635 209.327189 136.021271 217.327189 136.021271 " stroke-width="2.000000" fill="rgb(0,0,0)"  stroke="rgb(0,0,0)" />
<line x1="167.5" y1="228.1" x2="187.2" y2="247.5" stroke="rgb(0,0,0)"  stroke-width="2.0"/>
<line x1="136.4" y1="239.3" x2="133.6" y2="266.7" stroke="rgb(0,0,0)"  stroke-width="2.0"/>
<line x1="108.4" y1="221.9" x2="85.1" y2="236.8" stroke="rgb(0,0,0)"  stroke-width="2.0"/>
<line x1="104.4" y1="123.5" x2="95.9" y2="97.2" stroke="rgb(0,0,0)"  stroke-width="2.0"/>
<line x1="67.6" y1="156.3" x2="53.0" y2="156.3" stroke="rgb(0,0,0)"  stroke-width="2.0"/>
<line x1="178.2" y1="115.7" x2="192.0" y2="91.8" stroke="rgb(0,0,0)"  stroke-width="2.0"/>
<line x1="178.2" y1="115.7" x2="164.4" y2="91.8" stroke="rgb(0,0,0)"  stroke-width="2.0"/>
<polygon points="213.327189 136.021271 209.327189 108.830417 217.327189 108.830417 " stroke-width="2.000000" fill="rgb(0,0,0)"  stroke="rgb(0,0,0)" />
<line x1="248.5" y1="102.7" x2="248.5" y2="75.1" stroke="rgb(0,0,0)"  stroke-width="2.0"/>
<line x1="283.6" y1="136.0" x2="311.2" y2="136.0" stroke="rgb(0,0,0)"  stroke-width="2.0"/>
<line x1="283.6" y1="136.0" x2="297.4" y2="112.1" stroke="rgb(0,0,0)"  stroke-width="2.0"/>
<line x1="248.5" y1="75.1" x2="262.3" y2="51.3" stroke="rgb(0,0,0)"  stroke-width="2.0"/>
<line x1="248.5" y1="75.1" x2="276.1" y2="75.1" stroke="rgb(0,0,0)"  stroke-width="2.0"/>
<line x1="248.5" y1="75.1" x2="224.6" y2="61.4" stroke="rgb(0,0,0)"  stroke-width="2.0"/>
<line x1="88.2" y1="145.8" x2="104.4" y2="123.5" stroke="rgb(0,0,0)"  stroke-width="2.0"/>
<line x1="104.4" y1="123.5" x2="143.0" y2="136.0" stroke="rgb(0,0,0)"  stroke-width="2.0"/>
<line x1="107.9" y1="132.2" x2="135.1" y2="141.0" stroke="rgb(0,0,0)"  stroke-width="2.0"/>
<line x1="143.0" y1="136.0" x2="143.0" y2="176.6" stroke="rgb(0,0,0)"  stroke-width="2.0"/>
<line x1="143.0" y1="176.6" x2="104.4" y2="189.1" stroke="rgb(0,0,0)"  stroke-width="2.0"/>
<line x1="104.4" y1="189.1" x2="88.2" y2="166.8" stroke="rgb(0,0,0)"  stroke-width="2.0"/>
<line x1="136.4" y1="239.3" x2="108.4" y2="221.9" stroke="rgb(0,0,0)"  stroke-width="2.0"/>
<line x1="108.4" y1="221.9" x2="104.4" y2="189.1" stroke="rgb(0,0,0)"  stroke-width="2.0"/>
<line x1="114.8" y1="215.1" x2="112.3" y2="194.2" stroke="rgb(0,0,0)"  stroke-width="2.0"/>
<line x1="143.0" y1="176.6" x2="178.2" y2="196.9" stroke="rgb(0,0,0)"  stroke-width="2.0"/>
<line x1="144.6" y1="185.8" x2="169.4" y2="200.1" stroke="rgb(0,0,0)"  stroke-width="2.0"/>
<line x1="178.2" y1="196.9" x2="167.5" y2="228.1" stroke="rgb(0,0,0)"  stroke-width="2.0"/>
<line x1="167.5" y1="228.1" x2="136.4" y2="239.3" stroke="rgb(0,0,0)"  stroke-width="2.0"/>
<line x1="159.4" y1="223.4" x2="139.7" y2="230.5" stroke="rgb(0,0,0)"  stroke-width="2.0"/>
<line x1="213.3" y1="176.6" x2="213.3" y2="136.0" stroke="rgb(0,0,0)"  stroke-width="2.0"/>
<line x1="213.3" y1="136.0" x2="237.2" y2="122.2" stroke="rgb(0,0,0)"  stroke-width="2.0"/>
<line x1="259.7" y1="122.2" x2="283.6" y2="136.0" stroke="rgb(0,0,0)"  stroke-width="2.0"/>
<line x1="283.6" y1="136.0" x2="283.6" y2="176.6" stroke="rgb(0,0,0)"  stroke-width="2.0"/>
<line x1="283.6" y1="176.6" x2="248.5" y2="196.9" stroke="rgb(0,0,0)"  stroke-width="2.0"/>
<line x1="248.5" y1="196.9" x2="213.3" y2="176.6" stroke="rgb(0,0,0)"  stroke-width="2.0"/>
<line x1="143.0" y1="136.0" x2="178.2" y2="115.7" stroke="rgb(0,0,0)"  stroke-width="2.0"/>
<line x1="178.2" y1="115.7" x2="213.3" y2="136.0" stroke="rgb(0,0,0)"  stroke-width="2.0"/>
<line x1="213.3" y1="176.6" x2="178.2" y2="196.9" stroke="rgb(0,0,0)"  stroke-width="2.0"/>
<text x="262.765095" y="240.042541" fill="rgb(191,191,191)"  stroke="rgb(191,191,191)" stroke-width="1" font-size="16" >H</text>
<text x="207.327189" y="103.437906" fill="rgb(191,191,191)"  stroke="rgb(191,191,191)" stroke-width="1" font-size="16" >H</text>
<text x="242.473413" y="123.729588" fill="rgb(12,12,255)"  stroke="rgb(12,12,255)" stroke-width="1" font-size="16" >N</text>
<text x="353.349226" y="234.605401" fill="rgb(191,191,191)"  stroke="rgb(191,191,191)" stroke-width="1" font-size="16" >H</text>
<text x="312.765862" y="234.605401" fill="rgb(191,191,191)"  stroke="rgb(191,191,191)" stroke-width="1" font-size="16" >H</text>
<text x="368.203768" y="290.043308" fill="rgb(191,191,191)"  stroke="rgb(191,191,191)" stroke-width="1" font-size="16" >H</text>
<text x="222.181731" y="310.334990" fill="rgb(191,191,191)"  stroke="rgb(191,191,191)" stroke-width="1" font-size="16" >H</text>
<text x="242.473413" y="275.188765" fill="rgb(191,191,191)"  stroke="rgb(191,191,191)" stroke-width="1" font-size="16" >H</text>
<text x="227.618871" y="371.210036" fill="rgb(191,191,191)"  stroke="rgb(191,191,191)" stroke-width="1" font-size="16" >H</text>
<text x="237.036273" y="254.897083" fill="rgb(191,191,191)"  stroke="rgb(191,191,191)" stroke-width="1" font-size="16" >H</text>
<text x="222.181731" y="240.042541" fill="rgb(191,191,191)"  stroke="rgb(191,191,191)" stroke-width="1" font-size="16" >H</text>
<text x="190.425784" y="264.606090" fill="rgb(191,191,191)"  stroke="rgb(191,191,191)" stroke-width="1" font-size="16" >H</text>
<text x="126.207643" y="287.617580" fill="rgb(191,191,191)"  stroke="rgb(191,191,191)" stroke-width="1" font-size="16" >H</text>
<text x="68.177181" y="251.757244" fill="rgb(191,191,191)"  stroke="rgb(191,191,191)" stroke-width="1" font-size="16" >H</text>
<text x="85.896718" y="92.883248" fill="rgb(191,191,191)"  stroke="rgb(191,191,191)" stroke-width="1" font-size="16" >H</text>
<text x="192.472646" y="88.583364" fill="rgb(191,191,191)"  stroke="rgb(191,191,191)" stroke-width="1" font-size="16" >H</text>
<text x="151.889282" y="88.583364" fill="rgb(191,191,191)"  stroke="rgb(191,191,191)" stroke-width="1" font-size="16" >H</text>
<text x="318.203001" y="144.021271" fill="rgb(191,191,191)"  stroke="rgb(191,191,191)" stroke-width="1" font-size="16" >H</text>
<text x="297.911319" y="108.875046" fill="rgb(191,191,191)"  stroke="rgb(191,191,191)" stroke-width="1" font-size="16" >H</text>
<text x="262.765095" y="48.000000" fill="rgb(191,191,191)"  stroke="rgb(191,191,191)" stroke-width="1" font-size="16" >H</text>
<text x="283.056777" y="83.146224" fill="rgb(191,191,191)"  stroke="rgb(191,191,191)" stroke-width="1" font-size="16" >H</text>
<text x="207.327189" y="62.854542" fill="rgb(191,191,191)"  stroke="rgb(191,191,191)" stroke-width="1" font-size="16" >H</text>
<text x="207.327189" y="225.187999" fill="rgb(191,191,191)"  stroke="rgb(191,191,191)" stroke-width="1" font-size="16" >H</text>
<text x="318.203001" y="325.189532" fill="rgb(191,191,191)"  stroke="rgb(191,191,191)" stroke-width="1" font-size="16" >H</text>
<text x="262.765095" y="350.918354" fill="rgb(255,12,12)"  stroke="rgb(255,12,12)" stroke-width="1" font-size="16" >O</text>
<text x="277.619637" y="254.897083" fill="rgb(12,12,255)"  stroke="rgb(12,12,255)" stroke-width="1" font-size="16" >N</text>
<text x="338.494684" y="219.750859" fill="rgb(255,12,12)"  stroke="rgb(255,12,12)" stroke-width="1" font-size="16" >O</text>
<text x="318.203001" y="184.604635" fill="rgb(191,191,191)"  stroke="rgb(191,191,191)" stroke-width="1" font-size="16" >H</text>
<text x="74.583364" y="164.312953" fill="rgb(12,12,255)"  stroke="rgb(12,12,255)" stroke-width="1" font-size="16" >N</text>
<text x="34.000000" y="164.312953" fill="rgb(191,191,191)"  stroke="rgb(191,191,191)" stroke-width="1" font-size="16" >H</text>
</svg>
</g>
<text font-size="18.000000" fill ="black" font-family="sans-serif"
x="10.000000" y="20.000000" >ZINC06176199</text>
</svg>
