<?xml version="1.0"?>
<svg version="1.1" id="topsvg"
xmlns="http://www.w3.org/2000/svg" xmlns:xlink="http://www.w3.org/1999/xlink"
xmlns:cml="http://www.xml-cml.org/schema" x="0" y="0" width="200px" height="200px" viewBox="0 0 100 100">
<title>ZINC22852070 - Open Babel Depiction</title>
<rect x="0" y="0" width="100" height="100" fill="white"/>
<g transform="translate(0,0)">
<svg width="100" height="100" x="0" y="0" viewBox="0 0 421.719 269.08"
font-family="sans-serif" stroke="rgb(0,0,0)" stroke-width="2"  stroke-linecap="round">
<line x1="314.4" y1="156.6" x2="314.4" y2="182.4" stroke="rgb(0,0,0)"  stroke-width="2.0"/>
<line x1="348.1" y1="137.1" x2="370.5" y2="150.1" stroke="rgb(0,0,0)"  stroke-width="2.0"/>
<line x1="359.3" y1="91.8" x2="370.5" y2="85.4" stroke="rgb(0,0,0)"  stroke-width="2.0"/>
<line x1="314.4" y1="78.9" x2="314.4" y2="53.0" stroke="rgb(0,0,0)"  stroke-width="2.0"/>
<line x1="280.8" y1="98.3" x2="258.4" y2="85.4" stroke="rgb(0,0,0)"  stroke-width="2.0"/>
<line x1="280.8" y1="137.1" x2="247.1" y2="156.6" stroke="rgb(0,0,0)"  stroke-width="2.0"/>
<line x1="247.1" y1="156.6" x2="179.8" y2="117.7" stroke="rgb(0,0,0)"  stroke-width="2.0"/>
<line x1="247.1" y1="156.6" x2="234.2" y2="179.0" stroke="rgb(0,0,0)"  stroke-width="2.0"/>
<line x1="247.1" y1="156.6" x2="260.0" y2="179.0" stroke="rgb(0,0,0)"  stroke-width="2.0"/>
<line x1="179.8" y1="117.7" x2="157.4" y2="130.6" stroke="rgb(0,0,0)"  stroke-width="2.0"/>
<line x1="179.8" y1="117.7" x2="166.9" y2="95.3" stroke="rgb(0,0,0)"  stroke-width="2.0"/>
<line x1="179.8" y1="117.7" x2="192.7" y2="95.3" stroke="rgb(0,0,0)"  stroke-width="2.0"/>
<line x1="146.2" y1="176.0" x2="172.0" y2="176.0" stroke="rgb(0,0,0)"  stroke-width="2.0"/>
<line x1="146.2" y1="176.0" x2="159.1" y2="198.4" stroke="rgb(0,0,0)"  stroke-width="2.0"/>
<line x1="112.5" y1="195.4" x2="125.4" y2="217.8" stroke="rgb(0,0,0)"  stroke-width="2.0"/>
<line x1="112.5" y1="195.4" x2="99.6" y2="217.8" stroke="rgb(0,0,0)"  stroke-width="2.0"/>
<line x1="72.4" y1="187.3" x2="65.9" y2="198.4" stroke="rgb(0,0,0)"  stroke-width="2.0"/>
<line x1="65.9" y1="176.0" x2="53.0" y2="176.0" stroke="rgb(0,0,0)"  stroke-width="2.0"/>
<line x1="78.9" y1="137.1" x2="53.0" y2="137.1" stroke="rgb(0,0,0)"  stroke-width="2.0"/>
<line x1="78.9" y1="137.1" x2="65.9" y2="114.7" stroke="rgb(0,0,0)"  stroke-width="2.0"/>
<line x1="112.5" y1="117.7" x2="99.6" y2="95.3" stroke="rgb(0,0,0)"  stroke-width="2.0"/>
<line x1="112.5" y1="117.7" x2="125.4" y2="95.3" stroke="rgb(0,0,0)"  stroke-width="2.0"/>
<line x1="336.8" y1="91.8" x2="314.4" y2="78.9" stroke="rgb(0,0,0)"  stroke-width="2.0"/>
<line x1="314.4" y1="78.9" x2="280.8" y2="98.3" stroke="rgb(0,0,0)"  stroke-width="2.0"/>
<line x1="312.8" y1="88.1" x2="289.6" y2="101.5" stroke="rgb(0,0,0)"  stroke-width="2.0"/>
<line x1="280.8" y1="98.3" x2="280.8" y2="137.1" stroke="rgb(0,0,0)"  stroke-width="2.0"/>
<line x1="280.8" y1="137.1" x2="314.4" y2="156.6" stroke="rgb(0,0,0)"  stroke-width="2.0"/>
<line x1="289.6" y1="133.9" x2="312.8" y2="147.3" stroke="rgb(0,0,0)"  stroke-width="2.0"/>
<line x1="314.4" y1="156.6" x2="348.1" y2="137.1" stroke="rgb(0,0,0)"  stroke-width="2.0"/>
<line x1="348.1" y1="137.1" x2="348.1" y2="111.1" stroke="rgb(0,0,0)"  stroke-width="2.0"/>
<line x1="340.9" y1="131.1" x2="340.9" y2="113.2" stroke="rgb(0,0,0)"  stroke-width="2.0"/>
<line x1="112.5" y1="195.4" x2="90.1" y2="182.5" stroke="rgb(0,0,0)"  stroke-width="2.0"/>
<line x1="78.9" y1="163.0" x2="78.9" y2="137.1" stroke="rgb(0,0,0)"  stroke-width="2.0"/>
<line x1="78.9" y1="137.1" x2="112.5" y2="117.7" stroke="rgb(0,0,0)"  stroke-width="2.0"/>
<line x1="112.5" y1="117.7" x2="134.9" y2="130.6" stroke="rgb(0,0,0)"  stroke-width="2.0"/>
<line x1="146.2" y1="150.1" x2="146.2" y2="176.0" stroke="rgb(0,0,0)"  stroke-width="2.0"/>
<line x1="146.2" y1="176.0" x2="112.5" y2="195.4" stroke="rgb(0,0,0)"  stroke-width="2.0"/>
<text x="87.079844" y="237.079844" fill="rgb(191,191,191)"  stroke="rgb(191,191,191)" stroke-width="1" font-size="16" >H</text>
<text x="241.113507" y="86.857143" fill="rgb(191,191,191)"  stroke="rgb(191,191,191)" stroke-width="1" font-size="16" >H</text>
<text x="221.684936" y="198.222701" fill="rgb(191,191,191)"  stroke="rgb(191,191,191)" stroke-width="1" font-size="16" >H</text>
<text x="260.542078" y="198.222701" fill="rgb(191,191,191)"  stroke="rgb(191,191,191)" stroke-width="1" font-size="16" >H</text>
<text x="154.382390" y="92.063013" fill="rgb(191,191,191)"  stroke="rgb(191,191,191)" stroke-width="1" font-size="16" >H</text>
<text x="193.239533" y="92.063013" fill="rgb(191,191,191)"  stroke="rgb(191,191,191)" stroke-width="1" font-size="16" >H</text>
<text x="179.016831" y="184.000000" fill="rgb(191,191,191)"  stroke="rgb(191,191,191)" stroke-width="1" font-size="16" >H</text>
<text x="159.588260" y="217.651273" fill="rgb(191,191,191)"  stroke="rgb(191,191,191)" stroke-width="1" font-size="16" >H</text>
<text x="125.936987" y="237.079844" fill="rgb(191,191,191)"  stroke="rgb(191,191,191)" stroke-width="1" font-size="16" >H</text>
<text x="308.416053" y="48.000000" fill="rgb(191,191,191)"  stroke="rgb(191,191,191)" stroke-width="1" font-size="16" >H</text>
<text x="53.428571" y="217.651273" fill="rgb(191,191,191)"  stroke="rgb(191,191,191)" stroke-width="1" font-size="16" >H</text>
<text x="34.000000" y="145.142857" fill="rgb(191,191,191)"  stroke="rgb(191,191,191)" stroke-width="1" font-size="16" >H</text>
<text x="53.428571" y="111.491584" fill="rgb(191,191,191)"  stroke="rgb(191,191,191)" stroke-width="1" font-size="16" >H</text>
<text x="87.079844" y="92.063013" fill="rgb(191,191,191)"  stroke="rgb(191,191,191)" stroke-width="1" font-size="16" >H</text>
<text x="125.936987" y="92.063013" fill="rgb(191,191,191)"  stroke="rgb(191,191,191)" stroke-width="1" font-size="16" >H</text>
<text x="34.000000" y="184.000000" fill="rgb(191,191,191)"  stroke="rgb(191,191,191)" stroke-width="1" font-size="16" >H</text>
<text x="375.718598" y="86.857143" fill="rgb(191,191,191)"  stroke="rgb(191,191,191)" stroke-width="1" font-size="16" >H</text>
<text x="375.718598" y="164.571429" fill="rgb(191,191,191)"  stroke="rgb(191,191,191)" stroke-width="1" font-size="16" >H</text>
<text x="308.416053" y="203.428571" fill="rgb(191,191,191)"  stroke="rgb(191,191,191)" stroke-width="1" font-size="16" >H</text>
<text x="83.657143" y="171.968000" fill="rgb(12,12,255)"  stroke="rgb(12,12,255)" stroke-width="1" font-size="16" >+</text>
<text x="72.857143" y="184.000000" fill="rgb(12,12,255)"  stroke="rgb(12,12,255)" stroke-width="1" font-size="16" >N</text>
<text x="140.159689" y="145.142857" fill="rgb(12,12,255)"  stroke="rgb(12,12,255)" stroke-width="1" font-size="16" >N</text>
<text x="352.867326" y="94.253714" fill="rgb(12,12,255)"  stroke="rgb(12,12,255)" stroke-width="1" font-size="16" >+</text>
<text x="342.067326" y="106.285714" fill="rgb(12,12,255)"  stroke="rgb(12,12,255)" stroke-width="1" font-size="16" >N</text>
</svg>
</g>
<text font-size="18.000000" fill ="black" font-family="sans-serif"
x="10.000000" y="20.000000" >ZINC22852070</text>
</svg>
