<?xml version="1.0"?>
<svg version="1.1" id="topsvg"
xmlns="http://www.w3.org/2000/svg" xmlns:xlink="http://www.w3.org/1999/xlink"
xmlns:cml="http://www.xml-cml.org/schema" x="0" y="0" width="200px" height="200px" viewBox="0 0 100 100">
<title>ZINC08214486 - Open Babel Depiction</title>
<rect x="0" y="0" width="100" height="100" fill="white"/>
<g transform="translate(0,0)">
<svg width="100" height="100" x="0" y="0" viewBox="0 0 680.433 440.706"
font-family="sans-serif" stroke="rgb(0,0,0)" stroke-width="2"  stroke-linecap="round">
<line x1="248.1" y1="77.0" x2="272.0" y2="77.0" stroke="rgb(0,0,0)"  stroke-width="2.0"/>
<line x1="248.1" y1="77.0" x2="227.3" y2="88.9" stroke="rgb(0,0,0)"  stroke-width="2.0"/>
<line x1="248.1" y1="77.0" x2="248.1" y2="100.9" stroke="rgb(0,0,0)"  stroke-width="2.0"/>
<line x1="248.1" y1="77.0" x2="236.1" y2="56.2" stroke="rgb(0,0,0)"  stroke-width="2.0"/>
<line x1="285.0" y1="90.0" x2="285.0" y2="224.8" stroke="rgb(0,0,0)"  stroke-width="2.0"/>
<line x1="298.0" y1="77.0" x2="309.0" y2="77.0" stroke="rgb(0,0,0)"  stroke-width="2.0"/>
<line x1="285.0" y1="64.0" x2="285.0" y2="53.0" stroke="rgb(0,0,0)"  stroke-width="2.0"/>
<line x1="285.0" y1="224.8" x2="262.9" y2="234.0" stroke="rgb(0,0,0)"  stroke-width="2.0"/>
<polygon points="285.015393 224.782609 279.314045 261.515144 271.586638 259.444591 " stroke-width="2.000000" fill="rgb(0,0,0)"  stroke="rgb(0,0,0)" />
<polygon points="320.712652 215.217557 286.050669 228.646312 283.980117 220.918905 " stroke-width="2.000000" fill="rgb(0,0,0)"  stroke="rgb(0,0,0)" />
<line x1="320.7" y1="215.2" x2="314.5" y2="192.1" stroke="rgb(0,0,0)"  stroke-width="2.0"/>
<polygon points="346.844859 241.349764 317.884225 218.045984 323.541079 212.389130 " stroke-width="2.000000" fill="rgb(0,0,0)"  stroke="rgb(0,0,0)" />
<line x1="320.7" y1="215.2" x2="337.7" y2="198.3" stroke="rgb(0,0,0)"  stroke-width="2.0"/>
<line x1="346.8" y1="241.3" x2="353.0" y2="218.2" stroke="rgb(0,0,0)"  stroke-width="2.0"/>
<polygon points="337.279807 277.047023 342.981156 240.314488 350.708562 242.385040 " stroke-width="2.000000" fill="rgb(0,0,0)"  stroke="rgb(0,0,0)" />
<line x1="337.3" y1="277.0" x2="331.1" y2="300.2" stroke="rgb(0,0,0)"  stroke-width="2.0"/>
<line x1="363.4" y1="303.2" x2="369.6" y2="326.3" stroke="rgb(0,0,0)"  stroke-width="2.0"/>
<line x1="363.4" y1="303.2" x2="346.5" y2="320.1" stroke="rgb(0,0,0)"  stroke-width="2.0"/>
<line x1="399.1" y1="293.6" x2="422.2" y2="299.8" stroke="rgb(0,0,0)"  stroke-width="2.0"/>
<line x1="400.2" y1="286.3" x2="401.8" y2="286.7" stroke="rgb(0,0,0)"  stroke-width="1.0"/>
<line x1="401.2" y1="280.4" x2="403.9" y2="281.1" stroke="rgb(0,0,0)"  stroke-width="1.0"/>
<line x1="402.1" y1="274.5" x2="406.1" y2="275.6" stroke="rgb(0,0,0)"  stroke-width="1.0"/>
<line x1="403.0" y1="268.6" x2="408.2" y2="270.0" stroke="rgb(0,0,0)"  stroke-width="1.0"/>
<line x1="403.9" y1="262.8" x2="410.4" y2="264.5" stroke="rgb(0,0,0)"  stroke-width="1.0"/>
<line x1="404.8" y1="256.9" x2="412.5" y2="259.0" stroke="rgb(0,0,0)"  stroke-width="1.0"/>
<line x1="399.1" y1="293.6" x2="414.9" y2="352.5" stroke="rgb(0,0,0)"  stroke-width="2.0"/>
<polygon points="408.674325 257.916920 423.354477 237.579914 429.011331 243.236768 " stroke-width="2.000000" fill="rgb(0,0,0)"  stroke="rgb(0,0,0)" />
<line x1="408.7" y1="257.9" x2="431.8" y2="264.1" stroke="rgb(0,0,0)"  stroke-width="2.0"/>
<line x1="453.6" y1="258.3" x2="470.5" y2="241.3" stroke="rgb(0,0,0)"  stroke-width="2.0"/>
<line x1="470.5" y1="241.3" x2="461.3" y2="219.2" stroke="rgb(0,0,0)"  stroke-width="2.0"/>
<polygon points="470.503791 241.349764 485.517950 207.344477 492.446153 211.344477 " stroke-width="2.000000" fill="rgb(0,0,0)"  stroke="rgb(0,0,0)" />
<line x1="484.6" y1="267.4" x2="486.0" y2="266.6" stroke="rgb(0,0,0)"  stroke-width="1.0"/>
<line x1="481.1" y1="262.6" x2="483.6" y2="261.1" stroke="rgb(0,0,0)"  stroke-width="1.0"/>
<line x1="477.6" y1="257.8" x2="481.2" y2="255.7" stroke="rgb(0,0,0)"  stroke-width="1.0"/>
<line x1="474.1" y1="253.0" x2="478.8" y2="250.2" stroke="rgb(0,0,0)"  stroke-width="1.0"/>
<line x1="470.6" y1="248.2" x2="476.4" y2="244.8" stroke="rgb(0,0,0)"  stroke-width="1.0"/>
<line x1="467.0" y1="243.3" x2="474.0" y2="239.3" stroke="rgb(0,0,0)"  stroke-width="1.0"/>
<line x1="489.0" y1="273.4" x2="468.2" y2="285.3" stroke="rgb(0,0,0)"  stroke-width="2.0"/>
<line x1="489.0" y1="273.4" x2="489.0" y2="297.3" stroke="rgb(0,0,0)"  stroke-width="2.0"/>
<line x1="525.9" y1="273.4" x2="525.9" y2="297.3" stroke="rgb(0,0,0)"  stroke-width="2.0"/>
<line x1="525.9" y1="273.4" x2="546.7" y2="285.3" stroke="rgb(0,0,0)"  stroke-width="2.0"/>
<line x1="544.4" y1="241.3" x2="565.2" y2="253.3" stroke="rgb(0,0,0)"  stroke-width="2.0"/>
<polygon points="544.416834 241.349764 522.474472 211.344477 529.402675 207.344477 " stroke-width="2.000000" fill="rgb(0,0,0)"  stroke="rgb(0,0,0)" />
<line x1="544.4" y1="241.3" x2="597.2" y2="210.9" stroke="rgb(0,0,0)"  stroke-width="2.0"/>
<line x1="525.9" y1="209.3" x2="546.7" y2="197.4" stroke="rgb(0,0,0)"  stroke-width="2.0"/>
<line x1="518.5" y1="210.1" x2="518.5" y2="208.5" stroke="rgb(0,0,0)"  stroke-width="1.0"/>
<line x1="512.6" y1="210.8" x2="512.6" y2="207.9" stroke="rgb(0,0,0)"  stroke-width="1.0"/>
<line x1="506.7" y1="211.4" x2="506.7" y2="207.3" stroke="rgb(0,0,0)"  stroke-width="1.0"/>
<line x1="500.8" y1="212.1" x2="500.8" y2="206.6" stroke="rgb(0,0,0)"  stroke-width="1.0"/>
<line x1="494.9" y1="212.7" x2="494.9" y2="206.0" stroke="rgb(0,0,0)"  stroke-width="1.0"/>
<line x1="489.0" y1="213.3" x2="489.0" y2="205.3" stroke="rgb(0,0,0)"  stroke-width="1.0"/>
<line x1="525.9" y1="209.3" x2="525.9" y2="185.4" stroke="rgb(0,0,0)"  stroke-width="2.0"/>
<polygon points="488.982052 209.344477 484.982052 184.583608 492.982052 184.583608 " stroke-width="2.000000" fill="rgb(0,0,0)"  stroke="rgb(0,0,0)" />
<line x1="489.0" y1="209.3" x2="436.2" y2="178.9" stroke="rgb(0,0,0)"  stroke-width="2.0"/>
<line x1="413.7" y1="178.9" x2="404.2" y2="184.4" stroke="rgb(0,0,0)"  stroke-width="2.0"/>
<line x1="537.2" y1="165.9" x2="546.7" y2="160.4" stroke="rgb(0,0,0)"  stroke-width="2.0"/>
<line x1="614.9" y1="215.7" x2="620.4" y2="225.1" stroke="rgb(0,0,0)"  stroke-width="2.0"/>
<line x1="619.7" y1="197.9" x2="629.2" y2="192.4" stroke="rgb(0,0,0)"  stroke-width="2.0"/>
<line x1="601.9" y1="193.1" x2="596.4" y2="183.6" stroke="rgb(0,0,0)"  stroke-width="2.0"/>
<line x1="477.7" y1="316.8" x2="468.2" y2="322.3" stroke="rgb(0,0,0)"  stroke-width="2.0"/>
<line x1="500.2" y1="316.8" x2="509.7" y2="322.3" stroke="rgb(0,0,0)"  stroke-width="2.0"/>
<line x1="430.8" y1="361.6" x2="441.4" y2="358.8" stroke="rgb(0,0,0)"  stroke-width="2.0"/>
<line x1="421.6" y1="377.6" x2="424.4" y2="388.1" stroke="rgb(0,0,0)"  stroke-width="2.0"/>
<line x1="405.7" y1="368.4" x2="395.1" y2="371.2" stroke="rgb(0,0,0)"  stroke-width="2.0"/>
<polygon points="275.450342 260.479867 260.770190 280.816873 255.113336 275.160019 " stroke-width="2.000000" fill="rgb(0,0,0)"  stroke="rgb(0,0,0)" />
<line x1="275.5" y1="260.5" x2="216.6" y2="244.7" stroke="rgb(0,0,0)"  stroke-width="2.0"/>
<line x1="194.9" y1="250.5" x2="177.9" y2="267.5" stroke="rgb(0,0,0)"  stroke-width="2.0"/>
<line x1="177.9" y1="267.5" x2="187.1" y2="289.6" stroke="rgb(0,0,0)"  stroke-width="2.0"/>
<line x1="173.5" y1="261.5" x2="174.9" y2="260.7" stroke="rgb(0,0,0)"  stroke-width="1.0"/>
<line x1="170.0" y1="256.7" x2="172.5" y2="255.2" stroke="rgb(0,0,0)"  stroke-width="1.0"/>
<line x1="166.5" y1="251.9" x2="170.1" y2="249.8" stroke="rgb(0,0,0)"  stroke-width="1.0"/>
<line x1="163.0" y1="247.1" x2="167.7" y2="244.4" stroke="rgb(0,0,0)"  stroke-width="1.0"/>
<line x1="159.5" y1="242.3" x2="165.3" y2="238.9" stroke="rgb(0,0,0)"  stroke-width="1.0"/>
<line x1="156.0" y1="237.5" x2="162.9" y2="233.5" stroke="rgb(0,0,0)"  stroke-width="1.0"/>
<line x1="159.4" y1="235.5" x2="180.2" y2="223.5" stroke="rgb(0,0,0)"  stroke-width="2.0"/>
<line x1="152.1" y1="236.3" x2="152.1" y2="234.7" stroke="rgb(0,0,0)"  stroke-width="1.0"/>
<line x1="146.1" y1="236.9" x2="146.1" y2="234.0" stroke="rgb(0,0,0)"  stroke-width="1.0"/>
<line x1="140.2" y1="237.6" x2="140.2" y2="233.4" stroke="rgb(0,0,0)"  stroke-width="1.0"/>
<line x1="134.3" y1="238.2" x2="134.3" y2="232.8" stroke="rgb(0,0,0)"  stroke-width="1.0"/>
<line x1="128.4" y1="238.8" x2="128.4" y2="232.1" stroke="rgb(0,0,0)"  stroke-width="1.0"/>
<line x1="122.5" y1="239.5" x2="122.5" y2="231.5" stroke="rgb(0,0,0)"  stroke-width="1.0"/>
<line x1="159.4" y1="235.5" x2="159.4" y2="211.5" stroke="rgb(0,0,0)"  stroke-width="2.0"/>
<line x1="122.5" y1="235.5" x2="122.5" y2="211.5" stroke="rgb(0,0,0)"  stroke-width="2.0"/>
<polygon points="122.488834 235.476685 107.474675 269.481971 100.546472 265.481971 " stroke-width="2.000000" fill="rgb(0,0,0)"  stroke="rgb(0,0,0)" />
<line x1="122.5" y1="235.5" x2="101.7" y2="223.5" stroke="rgb(0,0,0)"  stroke-width="2.0"/>
<line x1="104.0" y1="267.5" x2="83.3" y2="255.5" stroke="rgb(0,0,0)"  stroke-width="2.0"/>
<line x1="108.4" y1="273.5" x2="107.0" y2="274.3" stroke="rgb(0,0,0)"  stroke-width="1.0"/>
<line x1="111.9" y1="278.3" x2="109.4" y2="279.7" stroke="rgb(0,0,0)"  stroke-width="1.0"/>
<line x1="115.4" y1="283.1" x2="111.8" y2="285.2" stroke="rgb(0,0,0)"  stroke-width="1.0"/>
<line x1="118.9" y1="287.9" x2="114.2" y2="290.6" stroke="rgb(0,0,0)"  stroke-width="1.0"/>
<line x1="122.4" y1="292.7" x2="116.6" y2="296.0" stroke="rgb(0,0,0)"  stroke-width="1.0"/>
<line x1="126.0" y1="297.5" x2="119.0" y2="301.5" stroke="rgb(0,0,0)"  stroke-width="1.0"/>
<line x1="104.0" y1="267.5" x2="83.3" y2="279.5" stroke="rgb(0,0,0)"  stroke-width="2.0"/>
<polygon points="122.488834 299.487258 103.045292 315.331794 99.045292 308.403591 " stroke-width="2.000000" fill="rgb(0,0,0)"  stroke="rgb(0,0,0)" />
<line x1="122.5" y1="299.5" x2="122.5" y2="336.4" stroke="rgb(0,0,0)"  stroke-width="2.0"/>
<line x1="122.5" y1="336.4" x2="101.7" y2="348.4" stroke="rgb(0,0,0)"  stroke-width="2.0"/>
<line x1="122.5" y1="336.4" x2="134.5" y2="357.2" stroke="rgb(0,0,0)"  stroke-width="2.0"/>
<line x1="122.5" y1="336.4" x2="146.4" y2="336.4" stroke="rgb(0,0,0)"  stroke-width="2.0"/>
<line x1="79.2" y1="348.4" x2="69.7" y2="342.9" stroke="rgb(0,0,0)"  stroke-width="2.0"/>
<line x1="65.5" y1="274.7" x2="60.0" y2="265.2" stroke="rgb(0,0,0)"  stroke-width="2.0"/>
<line x1="60.7" y1="292.5" x2="51.3" y2="297.9" stroke="rgb(0,0,0)"  stroke-width="2.0"/>
<line x1="78.5" y1="297.2" x2="84.0" y2="306.7" stroke="rgb(0,0,0)"  stroke-width="2.0"/>
<line x1="79.2" y1="223.5" x2="69.7" y2="229.0" stroke="rgb(0,0,0)"  stroke-width="2.0"/>
<line x1="148.2" y1="192.0" x2="138.7" y2="186.5" stroke="rgb(0,0,0)"  stroke-width="2.0"/>
<line x1="343.5" y1="176.5" x2="340.6" y2="165.9" stroke="rgb(0,0,0)"  stroke-width="2.0"/>
<line x1="346.8" y1="241.3" x2="337.3" y2="277.0" stroke="rgb(0,0,0)"  stroke-width="2.0"/>
<line x1="337.3" y1="277.0" x2="314.1" y2="283.2" stroke="rgb(0,0,0)"  stroke-width="2.0"/>
<line x1="292.4" y1="277.4" x2="275.5" y2="260.5" stroke="rgb(0,0,0)"  stroke-width="2.0"/>
<line x1="275.5" y1="260.5" x2="285.0" y2="224.8" stroke="rgb(0,0,0)"  stroke-width="2.0"/>
<line x1="285.0" y1="224.8" x2="320.7" y2="215.2" stroke="rgb(0,0,0)"  stroke-width="2.0"/>
<line x1="320.7" y1="215.2" x2="346.8" y2="241.3" stroke="rgb(0,0,0)"  stroke-width="2.0"/>
<line x1="408.7" y1="257.9" x2="399.1" y2="293.6" stroke="rgb(0,0,0)"  stroke-width="2.0"/>
<line x1="399.1" y1="293.6" x2="363.4" y2="303.2" stroke="rgb(0,0,0)"  stroke-width="2.0"/>
<line x1="363.4" y1="303.2" x2="337.3" y2="277.0" stroke="rgb(0,0,0)"  stroke-width="2.0"/>
<line x1="346.8" y1="241.3" x2="370.0" y2="235.1" stroke="rgb(0,0,0)"  stroke-width="2.0"/>
<line x1="391.7" y1="241.0" x2="408.7" y2="257.9" stroke="rgb(0,0,0)"  stroke-width="2.0"/>
<line x1="525.9" y1="273.4" x2="544.4" y2="241.3" stroke="rgb(0,0,0)"  stroke-width="2.0"/>
<line x1="544.4" y1="241.3" x2="525.9" y2="209.3" stroke="rgb(0,0,0)"  stroke-width="2.0"/>
<line x1="525.9" y1="209.3" x2="489.0" y2="209.3" stroke="rgb(0,0,0)"  stroke-width="2.0"/>
<line x1="489.0" y1="209.3" x2="470.5" y2="241.3" stroke="rgb(0,0,0)"  stroke-width="2.0"/>
<line x1="470.5" y1="241.3" x2="489.0" y2="273.4" stroke="rgb(0,0,0)"  stroke-width="2.0"/>
<line x1="489.0" y1="273.4" x2="525.9" y2="273.4" stroke="rgb(0,0,0)"  stroke-width="2.0"/>
<line x1="122.5" y1="235.5" x2="104.0" y2="267.5" stroke="rgb(0,0,0)"  stroke-width="2.0"/>
<line x1="104.0" y1="267.5" x2="122.5" y2="299.5" stroke="rgb(0,0,0)"  stroke-width="2.0"/>
<line x1="122.5" y1="299.5" x2="146.4" y2="299.5" stroke="rgb(0,0,0)"  stroke-width="2.0"/>
<line x1="165.9" y1="288.2" x2="177.9" y2="267.5" stroke="rgb(0,0,0)"  stroke-width="2.0"/>
<line x1="177.9" y1="267.5" x2="159.4" y2="235.5" stroke="rgb(0,0,0)"  stroke-width="2.0"/>
<line x1="159.4" y1="235.5" x2="122.5" y2="235.5" stroke="rgb(0,0,0)"  stroke-width="2.0"/>
<text x="84.483548" y="224.998424" fill="rgb(255,12,12)"  stroke="rgb(255,12,12)" stroke-width="1" font-size="16" >O</text>
<text x="551.943860" y="299.833312" fill="rgb(191,191,191)"  stroke="rgb(191,191,191)" stroke-width="1" font-size="16" >H</text>
<text x="519.938574" y="318.311573" fill="rgb(191,191,191)"  stroke="rgb(191,191,191)" stroke-width="1" font-size="16" >H</text>
<text x="331.279807" y="337.311437" fill="rgb(191,191,191)"  stroke="rgb(191,191,191)" stroke-width="1" font-size="16" >H</text>
<text x="366.977066" y="346.876489" fill="rgb(191,191,191)"  stroke="rgb(191,191,191)" stroke-width="1" font-size="16" >H</text>
<text x="315.971915" y="84.956522" fill="rgb(191,191,191)"  stroke="rgb(191,191,191)" stroke-width="1" font-size="16" >H</text>
<text x="223.580611" y="52.951235" fill="rgb(191,191,191)"  stroke="rgb(191,191,191)" stroke-width="1" font-size="16" >H</text>
<text x="242.058871" y="121.913043" fill="rgb(191,191,191)"  stroke="rgb(191,191,191)" stroke-width="1" font-size="16" >H</text>
<text x="210.053585" y="103.434783" fill="rgb(191,191,191)"  stroke="rgb(191,191,191)" stroke-width="1" font-size="16" >H</text>
<text x="340.844859" y="197.085350" fill="rgb(255,12,12)"  stroke="rgb(255,12,12)" stroke-width="1" font-size="16" >O</text>
<text x="153.445356" y="206.520163" fill="rgb(255,12,12)"  stroke="rgb(255,12,12)" stroke-width="1" font-size="16" >O</text>
<text x="386.966192" y="198.866217" fill="rgb(191,191,191)"  stroke="rgb(191,191,191)" stroke-width="1" font-size="16" >H</text>
<text x="76.805287" y="281.928232" fill="rgb(12,12,255)"  stroke="rgb(12,12,255)" stroke-width="1" font-size="16" >+</text>
<text x="66.005287" y="293.960232" fill="rgb(12,12,255)"  stroke="rgb(12,12,255)" stroke-width="1" font-size="16" >N</text>
<text x="84.483548" y="362.922041" fill="rgb(255,12,12)"  stroke="rgb(255,12,12)" stroke-width="1" font-size="16" >O</text>
<text x="153.445356" y="307.487258" fill="rgb(255,12,12)"  stroke="rgb(255,12,12)" stroke-width="1" font-size="16" >O</text>
<text x="84.483548" y="325.965519" fill="rgb(191,191,191)"  stroke="rgb(191,191,191)" stroke-width="1" font-size="16" >H</text>
<text x="66.005287" y="257.003710" fill="rgb(191,191,191)"  stroke="rgb(191,191,191)" stroke-width="1" font-size="16" >H</text>
<text x="116.488834" y="206.520163" fill="rgb(191,191,191)"  stroke="rgb(191,191,191)" stroke-width="1" font-size="16" >H</text>
<text x="47.527026" y="261.954945" fill="rgb(191,191,191)"  stroke="rgb(191,191,191)" stroke-width="1" font-size="16" >H</text>
<text x="279.015393" y="48.000000" fill="rgb(191,191,191)"  stroke="rgb(191,191,191)" stroke-width="1" font-size="16" >H</text>
<text x="84.483548" y="325.965519" fill="rgb(191,191,191)"  stroke="rgb(191,191,191)" stroke-width="1" font-size="16" >H</text>
<text x="583.949147" y="180.387956" fill="rgb(191,191,191)"  stroke="rgb(191,191,191)" stroke-width="1" font-size="16" >H</text>
<text x="376.542118" y="382.573748" fill="rgb(191,191,191)"  stroke="rgb(191,191,191)" stroke-width="1" font-size="16" >H</text>
<text x="514.987339" y="336.789833" fill="rgb(191,191,191)"  stroke="rgb(191,191,191)" stroke-width="1" font-size="16" >H</text>
<text x="331.279807" y="161.388091" fill="rgb(191,191,191)"  stroke="rgb(191,191,191)" stroke-width="1" font-size="16" >H</text>
<text x="121.440069" y="188.041902" fill="rgb(191,191,191)"  stroke="rgb(191,191,191)" stroke-width="1" font-size="16" >H</text>
<text x="52.478261" y="243.476685" fill="rgb(191,191,191)"  stroke="rgb(191,191,191)" stroke-width="1" font-size="16" >H</text>
<text x="34.000000" y="312.438493" fill="rgb(191,191,191)"  stroke="rgb(191,191,191)" stroke-width="1" font-size="16" >H</text>
<text x="52.478261" y="344.443780" fill="rgb(191,191,191)"  stroke="rgb(191,191,191)" stroke-width="1" font-size="16" >H</text>
<text x="153.445356" y="344.443780" fill="rgb(191,191,191)"  stroke="rgb(191,191,191)" stroke-width="1" font-size="16" >H</text>
<text x="134.967095" y="376.449066" fill="rgb(191,191,191)"  stroke="rgb(191,191,191)" stroke-width="1" font-size="16" >H</text>
<text x="421.804428" y="408.705955" fill="rgb(191,191,191)"  stroke="rgb(191,191,191)" stroke-width="1" font-size="16" >H</text>
<text x="447.936636" y="363.443644" fill="rgb(191,191,191)"  stroke="rgb(191,191,191)" stroke-width="1" font-size="16" >H</text>
<text x="450.976765" y="336.789833" fill="rgb(191,191,191)"  stroke="rgb(191,191,191)" stroke-width="1" font-size="16" >H</text>
<text x="634.432694" y="193.914982" fill="rgb(191,191,191)"  stroke="rgb(191,191,191)" stroke-width="1" font-size="16" >H</text>
<text x="620.905669" y="244.398529" fill="rgb(191,191,191)"  stroke="rgb(191,191,191)" stroke-width="1" font-size="16" >H</text>
<text x="551.943860" y="161.909695" fill="rgb(191,191,191)"  stroke="rgb(191,191,191)" stroke-width="1" font-size="16" >H</text>
<text x="450.976765" y="299.833312" fill="rgb(191,191,191)"  stroke="rgb(191,191,191)" stroke-width="1" font-size="16" >H</text>
<text x="450.361142" y="215.206390" fill="rgb(191,191,191)"  stroke="rgb(191,191,191)" stroke-width="1" font-size="16" >H</text>
<text x="438.371584" y="275.481971" fill="rgb(255,12,12)"  stroke="rgb(255,12,12)" stroke-width="1" font-size="16" >O</text>
<text x="376.542118" y="239.784712" fill="rgb(255,12,12)"  stroke="rgb(255,12,12)" stroke-width="1" font-size="16" >O</text>
<text x="428.806532" y="239.784712" fill="rgb(191,191,191)"  stroke="rgb(191,191,191)" stroke-width="1" font-size="16" >H</text>
<text x="428.806532" y="311.179230" fill="rgb(191,191,191)"  stroke="rgb(191,191,191)" stroke-width="1" font-size="16" >H</text>
<text x="321.714756" y="320.744282" fill="rgb(191,191,191)"  stroke="rgb(191,191,191)" stroke-width="1" font-size="16" >H</text>
<text x="350.409911" y="213.652505" fill="rgb(191,191,191)"  stroke="rgb(191,191,191)" stroke-width="1" font-size="16" >H</text>
<text x="305.147600" y="187.520298" fill="rgb(191,191,191)"  stroke="rgb(191,191,191)" stroke-width="1" font-size="16" >H</text>
<text x="244.872019" y="246.925257" fill="rgb(191,191,191)"  stroke="rgb(191,191,191)" stroke-width="1" font-size="16" >H</text>
<text x="289.815393" y="72.924522" fill="rgb(12,12,255)"  stroke="rgb(12,12,255)" stroke-width="1" font-size="16" >+</text>
<text x="279.015393" y="84.956522" fill="rgb(12,12,255)"  stroke="rgb(12,12,255)" stroke-width="1" font-size="16" >N</text>
<text x="482.982052" y="318.311573" fill="rgb(12,12,255)"  stroke="rgb(12,12,255)" stroke-width="1" font-size="16" >N</text>
<text x="185.450643" y="224.998424" fill="rgb(191,191,191)"  stroke="rgb(191,191,191)" stroke-width="1" font-size="16" >H</text>
<text x="186.066265" y="309.625345" fill="rgb(191,191,191)"  stroke="rgb(191,191,191)" stroke-width="1" font-size="16" >H</text>
<text x="198.055824" y="249.349764" fill="rgb(255,12,12)"  stroke="rgb(255,12,12)" stroke-width="1" font-size="16" >O</text>
<text x="243.318134" y="294.612075" fill="rgb(191,191,191)"  stroke="rgb(191,191,191)" stroke-width="1" font-size="16" >H</text>
<text x="295.582549" y="294.612075" fill="rgb(255,12,12)"  stroke="rgb(255,12,12)" stroke-width="1" font-size="16" >O</text>
<text x="423.039377" y="360.976696" fill="rgb(12,12,255)"  stroke="rgb(12,12,255)" stroke-width="1" font-size="16" >+</text>
<text x="412.239377" y="373.008696" fill="rgb(12,12,255)"  stroke="rgb(12,12,255)" stroke-width="1" font-size="16" >N</text>
<text x="613.227408" y="200.361242" fill="rgb(12,12,255)"  stroke="rgb(12,12,255)" stroke-width="1" font-size="16" >+</text>
<text x="602.427408" y="212.393242" fill="rgb(12,12,255)"  stroke="rgb(12,12,255)" stroke-width="1" font-size="16" >N</text>
<text x="519.938574" y="180.387956" fill="rgb(255,12,12)"  stroke="rgb(255,12,12)" stroke-width="1" font-size="16" >O</text>
<text x="418.971479" y="180.387956" fill="rgb(255,12,12)"  stroke="rgb(255,12,12)" stroke-width="1" font-size="16" >O</text>
<text x="482.982052" y="180.387956" fill="rgb(191,191,191)"  stroke="rgb(191,191,191)" stroke-width="1" font-size="16" >H</text>
<text x="551.943860" y="198.866217" fill="rgb(191,191,191)"  stroke="rgb(191,191,191)" stroke-width="1" font-size="16" >H</text>
<text x="570.422121" y="267.828025" fill="rgb(191,191,191)"  stroke="rgb(191,191,191)" stroke-width="1" font-size="16" >H</text>
</svg>
</g>
<text font-size="18.000000" fill ="black" font-family="sans-serif"
x="10.000000" y="20.000000" >ZINC08214486</text>
</svg>
