<?xml version="1.0"?>
<svg version="1.1" id="topsvg"
xmlns="http://www.w3.org/2000/svg" xmlns:xlink="http://www.w3.org/1999/xlink"
xmlns:cml="http://www.xml-cml.org/schema" x="0" y="0" width="200px" height="200px" viewBox="0 0 100 100">
<title>ZINC00819619 - Open Babel Depiction</title>
<rect x="0" y="0" width="100" height="100" fill="white"/>
<g transform="translate(0,0)">
<svg width="100" height="100" x="0" y="0" viewBox="0 0 392.835 262.161"
font-family="sans-serif" stroke="rgb(0,0,0)" stroke-width="2"  stroke-linecap="round">
<line x1="76.5" y1="131.4" x2="116.3" y2="135.6" stroke="rgb(0,0,0)"  stroke-width="2.0"/>
<line x1="76.5" y1="131.4" x2="51.9" y2="142.4" stroke="rgb(0,0,0)"  stroke-width="2.0"/>
<line x1="76.5" y1="131.4" x2="73.7" y2="158.3" stroke="rgb(0,0,0)"  stroke-width="2.0"/>
<line x1="76.5" y1="131.4" x2="65.6" y2="106.8" stroke="rgb(0,0,0)"  stroke-width="2.0"/>
<line x1="136.3" y1="170.3" x2="125.3" y2="194.9" stroke="rgb(0,0,0)"  stroke-width="2.0"/>
<line x1="190.9" y1="115.7" x2="214.3" y2="102.2" stroke="rgb(0,0,0)"  stroke-width="2.0"/>
<line x1="143.1" y1="105.9" x2="137.5" y2="79.5" stroke="rgb(0,0,0)"  stroke-width="2.0"/>
<line x1="144.4" y1="58.1" x2="154.8" y2="48.7" stroke="rgb(0,0,0)"  stroke-width="2.0"/>
<line x1="122.4" y1="62.7" x2="109.1" y2="58.4" stroke="rgb(0,0,0)"  stroke-width="2.0"/>
<line x1="214.3" y1="102.2" x2="248.9" y2="122.2" stroke="rgb(0,0,0)"  stroke-width="2.0"/>
<line x1="214.3" y1="102.2" x2="227.8" y2="78.8" stroke="rgb(0,0,0)"  stroke-width="2.0"/>
<line x1="214.3" y1="102.2" x2="200.8" y2="78.8" stroke="rgb(0,0,0)"  stroke-width="2.0"/>
<line x1="248.9" y1="162.2" x2="225.5" y2="175.7" stroke="rgb(0,0,0)"  stroke-width="2.0"/>
<line x1="283.6" y1="182.2" x2="283.6" y2="209.2" stroke="rgb(0,0,0)"  stroke-width="2.0"/>
<line x1="318.2" y1="162.2" x2="341.6" y2="175.7" stroke="rgb(0,0,0)"  stroke-width="2.0"/>
<line x1="283.6" y1="102.2" x2="283.6" y2="75.2" stroke="rgb(0,0,0)"  stroke-width="2.0"/>
<line x1="176.8" y1="149.0" x2="178.3" y2="135.1" stroke="rgb(0,0,0)"  stroke-width="2.0"/>
<line x1="167.8" y1="116.9" x2="143.1" y2="105.9" stroke="rgb(0,0,0)"  stroke-width="2.0"/>
<line x1="143.1" y1="105.9" x2="116.3" y2="135.6" stroke="rgb(0,0,0)"  stroke-width="2.0"/>
<line x1="144.4" y1="115.2" x2="125.7" y2="136.0" stroke="rgb(0,0,0)"  stroke-width="2.0"/>
<line x1="116.3" y1="135.6" x2="136.3" y2="170.3" stroke="rgb(0,0,0)"  stroke-width="2.0"/>
<line x1="136.3" y1="170.3" x2="162.5" y2="164.7" stroke="rgb(0,0,0)"  stroke-width="2.0"/>
<line x1="140.7" y1="162.0" x2="159.1" y2="158.1" stroke="rgb(0,0,0)"  stroke-width="2.0"/>
<line x1="283.6" y1="182.2" x2="318.2" y2="162.2" stroke="rgb(0,0,0)"  stroke-width="2.0"/>
<line x1="318.2" y1="162.2" x2="318.2" y2="135.4" stroke="rgb(0,0,0)"  stroke-width="2.0"/>
<line x1="311.0" y1="156.2" x2="311.0" y2="137.4" stroke="rgb(0,0,0)"  stroke-width="2.0"/>
<line x1="306.9" y1="115.7" x2="283.6" y2="102.2" stroke="rgb(0,0,0)"  stroke-width="2.0"/>
<line x1="283.6" y1="102.2" x2="248.9" y2="122.2" stroke="rgb(0,0,0)"  stroke-width="2.0"/>
<line x1="282.0" y1="111.4" x2="257.7" y2="125.4" stroke="rgb(0,0,0)"  stroke-width="2.0"/>
<line x1="248.9" y1="122.2" x2="248.9" y2="162.2" stroke="rgb(0,0,0)"  stroke-width="2.0"/>
<line x1="248.9" y1="162.2" x2="283.6" y2="182.2" stroke="rgb(0,0,0)"  stroke-width="2.0"/>
<line x1="257.7" y1="158.9" x2="282.0" y2="172.9" stroke="rgb(0,0,0)"  stroke-width="2.0"/>
<text x="277.552785" y="70.160594" fill="rgb(191,191,191)"  stroke="rgb(191,191,191)" stroke-width="1" font-size="16" >H</text>
<text x="346.834817" y="190.160594" fill="rgb(191,191,191)"  stroke="rgb(191,191,191)" stroke-width="1" font-size="16" >H</text>
<text x="277.552785" y="230.160594" fill="rgb(191,191,191)"  stroke="rgb(191,191,191)" stroke-width="1" font-size="16" >H</text>
<text x="208.270753" y="190.160594" fill="rgb(191,191,191)"  stroke="rgb(191,191,191)" stroke-width="1" font-size="16" >H</text>
<text x="188.270753" y="75.519578" fill="rgb(191,191,191)"  stroke="rgb(191,191,191)" stroke-width="1" font-size="16" >H</text>
<text x="228.270753" y="75.519578" fill="rgb(191,191,191)"  stroke="rgb(191,191,191)" stroke-width="1" font-size="16" >H</text>
<text x="90.729190" y="62.404544" fill="rgb(191,191,191)"  stroke="rgb(191,191,191)" stroke-width="1" font-size="16" >H</text>
<text x="158.497244" y="48.000000" fill="rgb(191,191,191)"  stroke="rgb(191,191,191)" stroke-width="1" font-size="16" >H</text>
<text x="114.053228" y="214.799756" fill="rgb(191,191,191)"  stroke="rgb(191,191,191)" stroke-width="1" font-size="16" >H</text>
<text x="54.272353" y="102.893964" fill="rgb(191,191,191)"  stroke="rgb(191,191,191)" stroke-width="1" font-size="16" >H</text>
<text x="66.360680" y="179.216659" fill="rgb(191,191,191)"  stroke="rgb(191,191,191)" stroke-width="1" font-size="16" >H</text>
<text x="34.000000" y="155.705248" fill="rgb(191,191,191)"  stroke="rgb(191,191,191)" stroke-width="1" font-size="16" >H</text>
<text x="312.193801" y="130.160594" fill="rgb(12,12,255)"  stroke="rgb(12,12,255)" stroke-width="1" font-size="16" >N</text>
<text x="128.771451" y="74.765224" fill="rgb(12,12,255)"  stroke="rgb(12,12,255)" stroke-width="1" font-size="16" >N</text>
<text x="173.629737" y="130.160594" fill="rgb(12,12,255)"  stroke="rgb(12,12,255)" stroke-width="1" font-size="16" >N</text>
<text x="169.448598" y="169.941470" fill="rgb(12,12,255)"  stroke="rgb(12,12,255)" stroke-width="1" font-size="16" >N</text>
</svg>
</g>
<text font-size="18.000000" fill ="black" font-family="sans-serif"
x="10.000000" y="20.000000" >ZINC00819619</text>
</svg>
