<?xml version="1.0"?>
<svg version="1.1" id="topsvg"
xmlns="http://www.w3.org/2000/svg" xmlns:xlink="http://www.w3.org/1999/xlink"
xmlns:cml="http://www.xml-cml.org/schema" x="0" y="0" width="200px" height="200px" viewBox="0 0 100 100">
<title>ZINC44630076 - Open Babel Depiction</title>
<rect x="0" y="0" width="100" height="100" fill="white"/>
<g transform="translate(0,0)">
<svg width="100" height="100" x="0" y="0" viewBox="0 0 402.487 354.641"
font-family="sans-serif" stroke="rgb(0,0,0)" stroke-width="2"  stroke-linecap="round">
<line x1="218.6" y1="200.0" x2="183.9" y2="220.0" stroke="rgb(0,0,0)"  stroke-width="2.0"/>
<line x1="218.6" y1="200.0" x2="253.2" y2="220.0" stroke="rgb(0,0,0)"  stroke-width="2.0"/>
<line x1="218.6" y1="200.0" x2="232.1" y2="176.6" stroke="rgb(0,0,0)"  stroke-width="2.0"/>
<line x1="218.6" y1="200.0" x2="205.1" y2="176.6" stroke="rgb(0,0,0)"  stroke-width="2.0"/>
<line x1="183.9" y1="220.0" x2="149.3" y2="200.0" stroke="rgb(0,0,0)"  stroke-width="2.0"/>
<line x1="183.9" y1="220.0" x2="170.4" y2="243.4" stroke="rgb(0,0,0)"  stroke-width="2.0"/>
<line x1="183.9" y1="220.0" x2="197.4" y2="243.4" stroke="rgb(0,0,0)"  stroke-width="2.0"/>
<line x1="149.3" y1="200.0" x2="114.6" y2="220.0" stroke="rgb(0,0,0)"  stroke-width="2.0"/>
<line x1="149.3" y1="200.0" x2="135.8" y2="176.6" stroke="rgb(0,0,0)"  stroke-width="2.0"/>
<line x1="149.3" y1="200.0" x2="162.8" y2="176.6" stroke="rgb(0,0,0)"  stroke-width="2.0"/>
<line x1="114.6" y1="220.0" x2="80.0" y2="200.0" stroke="rgb(0,0,0)"  stroke-width="2.0"/>
<line x1="114.6" y1="220.0" x2="101.1" y2="243.4" stroke="rgb(0,0,0)"  stroke-width="2.0"/>
<line x1="114.6" y1="220.0" x2="128.1" y2="243.4" stroke="rgb(0,0,0)"  stroke-width="2.0"/>
<line x1="80.0" y1="200.0" x2="80.0" y2="160.0" stroke="rgb(0,0,0)"  stroke-width="2.0"/>
<line x1="80.0" y1="200.0" x2="53.0" y2="200.0" stroke="rgb(0,0,0)"  stroke-width="2.0"/>
<line x1="80.0" y1="200.0" x2="66.5" y2="223.4" stroke="rgb(0,0,0)"  stroke-width="2.0"/>
<line x1="80.0" y1="160.0" x2="103.4" y2="146.5" stroke="rgb(0,0,0)"  stroke-width="2.0"/>
<line x1="80.0" y1="160.0" x2="66.5" y2="136.6" stroke="rgb(0,0,0)"  stroke-width="2.0"/>
<line x1="80.0" y1="160.0" x2="53.0" y2="160.0" stroke="rgb(0,0,0)"  stroke-width="2.0"/>
<line x1="114.6" y1="127.0" x2="114.6" y2="113.0" stroke="rgb(0,0,0)"  stroke-width="2.0"/>
<polygon points="127.841016 100.000000 141.441016 96.000000 141.441016 104.000000 " stroke-width="2.000000" fill="rgb(0,0,0)"  stroke="rgb(0,0,0)" />
<line x1="114.6" y1="87.0" x2="114.6" y2="73.0" stroke="rgb(0,0,0)"  stroke-width="2.0"/>
<line x1="101.6" y1="100.0" x2="87.6" y2="100.0" stroke="rgb(0,0,0)"  stroke-width="2.0"/>
<line x1="103.4" y1="53.5" x2="91.3" y2="46.5" stroke="rgb(0,0,0)"  stroke-width="2.0"/>
<line x1="253.2" y1="220.0" x2="287.8" y2="200.0" stroke="rgb(0,0,0)"  stroke-width="2.0"/>
<line x1="253.2" y1="220.0" x2="266.7" y2="243.4" stroke="rgb(0,0,0)"  stroke-width="2.0"/>
<line x1="253.2" y1="220.0" x2="239.7" y2="243.4" stroke="rgb(0,0,0)"  stroke-width="2.0"/>
<line x1="287.8" y1="200.0" x2="322.5" y2="220.0" stroke="rgb(0,0,0)"  stroke-width="2.0"/>
<line x1="287.8" y1="200.0" x2="301.3" y2="176.6" stroke="rgb(0,0,0)"  stroke-width="2.0"/>
<line x1="287.8" y1="200.0" x2="274.3" y2="176.6" stroke="rgb(0,0,0)"  stroke-width="2.0"/>
<line x1="322.5" y1="220.0" x2="322.5" y2="260.0" stroke="rgb(0,0,0)"  stroke-width="2.0"/>
<line x1="322.5" y1="220.0" x2="349.5" y2="220.0" stroke="rgb(0,0,0)"  stroke-width="2.0"/>
<line x1="322.5" y1="220.0" x2="336.0" y2="196.6" stroke="rgb(0,0,0)"  stroke-width="2.0"/>
<line x1="322.5" y1="260.0" x2="287.8" y2="280.0" stroke="rgb(0,0,0)"  stroke-width="2.0"/>
<line x1="322.5" y1="260.0" x2="336.0" y2="283.4" stroke="rgb(0,0,0)"  stroke-width="2.0"/>
<line x1="322.5" y1="260.0" x2="349.5" y2="260.0" stroke="rgb(0,0,0)"  stroke-width="2.0"/>
<line x1="287.8" y1="280.0" x2="264.5" y2="266.5" stroke="rgb(0,0,0)"  stroke-width="2.0"/>
<line x1="287.8" y1="280.0" x2="274.3" y2="303.4" stroke="rgb(0,0,0)"  stroke-width="2.0"/>
<line x1="287.8" y1="280.0" x2="301.3" y2="303.4" stroke="rgb(0,0,0)"  stroke-width="2.0"/>
<line x1="241.9" y1="266.5" x2="229.8" y2="273.5" stroke="rgb(0,0,0)"  stroke-width="2.0"/>
<text x="301.846097" y="173.358984" fill="rgb(191,191,191)"  stroke="rgb(191,191,191)" stroke-width="1" font-size="16" >H</text>
<text x="123.282032" y="173.358984" fill="rgb(191,191,191)"  stroke="rgb(191,191,191)" stroke-width="1" font-size="16" >H</text>
<text x="163.282032" y="173.358984" fill="rgb(191,191,191)"  stroke="rgb(191,191,191)" stroke-width="1" font-size="16" >H</text>
<text x="88.641016" y="262.641016" fill="rgb(191,191,191)"  stroke="rgb(191,191,191)" stroke-width="1" font-size="16" >H</text>
<text x="128.641016" y="262.641016" fill="rgb(191,191,191)"  stroke="rgb(191,191,191)" stroke-width="1" font-size="16" >H</text>
<text x="34.000000" y="208.000000" fill="rgb(191,191,191)"  stroke="rgb(191,191,191)" stroke-width="1" font-size="16" >H</text>
<text x="54.000000" y="242.641016" fill="rgb(191,191,191)"  stroke="rgb(191,191,191)" stroke-width="1" font-size="16" >H</text>
<text x="54.000000" y="133.358984" fill="rgb(191,191,191)"  stroke="rgb(191,191,191)" stroke-width="1" font-size="16" >H</text>
<text x="34.000000" y="168.000000" fill="rgb(191,191,191)"  stroke="rgb(191,191,191)" stroke-width="1" font-size="16" >H</text>
<text x="267.205081" y="262.641016" fill="rgb(191,191,191)"  stroke="rgb(191,191,191)" stroke-width="1" font-size="16" >H</text>
<text x="227.205081" y="262.641016" fill="rgb(191,191,191)"  stroke="rgb(191,191,191)" stroke-width="1" font-size="16" >H</text>
<text x="197.923048" y="262.641016" fill="rgb(191,191,191)"  stroke="rgb(191,191,191)" stroke-width="1" font-size="16" >H</text>
<text x="261.846097" y="173.358984" fill="rgb(191,191,191)"  stroke="rgb(191,191,191)" stroke-width="1" font-size="16" >H</text>
<text x="356.487113" y="228.000000" fill="rgb(191,191,191)"  stroke="rgb(191,191,191)" stroke-width="1" font-size="16" >H</text>
<text x="336.487113" y="193.358984" fill="rgb(191,191,191)"  stroke="rgb(191,191,191)" stroke-width="1" font-size="16" >H</text>
<text x="336.487113" y="302.641016" fill="rgb(191,191,191)"  stroke="rgb(191,191,191)" stroke-width="1" font-size="16" >H</text>
<text x="356.487113" y="268.000000" fill="rgb(191,191,191)"  stroke="rgb(191,191,191)" stroke-width="1" font-size="16" >H</text>
<text x="261.846097" y="322.641016" fill="rgb(191,191,191)"  stroke="rgb(191,191,191)" stroke-width="1" font-size="16" >H</text>
<text x="301.846097" y="322.641016" fill="rgb(191,191,191)"  stroke="rgb(191,191,191)" stroke-width="1" font-size="16" >H</text>
<text x="212.564065" y="288.000000" fill="rgb(191,191,191)"  stroke="rgb(191,191,191)" stroke-width="1" font-size="16" >H</text>
<text x="74.000000" y="48.000000" fill="rgb(191,191,191)"  stroke="rgb(191,191,191)" stroke-width="1" font-size="16" >H</text>
<text x="56.641016" y="108.000000" fill="rgb(255,12,12)"  stroke="rgb(255,12,12)" stroke-width="1" font-size="16" >HO</text>
<text x="108.641016" y="148.000000" fill="rgb(255,12,12)"  stroke="rgb(255,12,12)" stroke-width="1" font-size="16" >O</text>
<text x="108.641016" y="108.000000" fill="rgb(255,127,0)"  stroke="rgb(255,127,0)" stroke-width="1" font-size="16" >P</text>
<text x="148.641016" y="108.000000" fill="rgb(255,12,12)"  stroke="rgb(255,12,12)" stroke-width="1" font-size="16" >O</text>
<text x="108.641016" y="68.000000" fill="rgb(255,12,12)"  stroke="rgb(255,12,12)" stroke-width="1" font-size="16" >O</text>
<text x="247.205081" y="268.000000" fill="rgb(178,178,0)"  stroke="rgb(178,178,0)" stroke-width="1" font-size="16" >S</text>
<text x="232.564065" y="173.358984" fill="rgb(191,191,191)"  stroke="rgb(191,191,191)" stroke-width="1" font-size="16" >H</text>
<text x="192.564065" y="173.358984" fill="rgb(191,191,191)"  stroke="rgb(191,191,191)" stroke-width="1" font-size="16" >H</text>
<text x="157.923048" y="262.641016" fill="rgb(191,191,191)"  stroke="rgb(191,191,191)" stroke-width="1" font-size="16" >H</text>
</svg>
</g>
<text font-size="18.000000" fill ="black" font-family="sans-serif"
x="10.000000" y="20.000000" >ZINC44630076</text>
</svg>
