<?xml version="1.0"?>
<svg version="1.1" id="topsvg"
xmlns="http://www.w3.org/2000/svg" xmlns:xlink="http://www.w3.org/1999/xlink"
xmlns:cml="http://www.xml-cml.org/schema" x="0" y="0" width="200px" height="200px" viewBox="0 0 100 100">
<title> - Open Babel Depiction</title>
<rect x="0" y="0" width="100" height="100" fill="white"/>
<g transform="translate(0,0)">
<svg width="100" height="100" x="0" y="0" viewBox="0 0 653.804 591.469"
font-family="sans-serif" stroke="rgb(0,0,0)" stroke-width="2"  stroke-linecap="round">
<line x1="481.4" y1="456.3" x2="481.4" y2="469.8" stroke="rgb(0,0,0)"  stroke-width="2.0"/>
<line x1="494.4" y1="443.3" x2="507.9" y2="443.3" stroke="rgb(0,0,0)"  stroke-width="2.0"/>
<line x1="481.4" y1="430.3" x2="481.4" y2="416.7" stroke="rgb(0,0,0)"  stroke-width="2.0"/>
<line x1="468.4" y1="443.3" x2="441.8" y2="443.3" stroke="rgb(0,0,0)"  stroke-width="2.0"/>
<line x1="441.8" y1="443.3" x2="422.1" y2="477.5" stroke="rgb(0,0,0)"  stroke-width="2.0"/>
<line x1="422.1" y1="477.5" x2="382.5" y2="477.5" stroke="rgb(0,0,0)"  stroke-width="2.0"/>
<line x1="382.5" y1="477.5" x2="362.7" y2="443.3" stroke="rgb(0,0,0)"  stroke-width="2.0"/>
<line x1="362.7" y1="443.3" x2="382.5" y2="409.0" stroke="rgb(0,0,0)"  stroke-width="2.0"/>
<polygon points="382.517913 409.011765 407.466613 418.797102 403.466613 425.725305 " stroke-width="2.000000" fill="rgb(0,0,0)"  stroke="rgb(0,0,0)" />
<line x1="382.5" y1="409.0" x2="314.0" y2="369.5" stroke="rgb(0,0,0)"  stroke-width="2.0"/>
<line x1="311.0" y1="369.5" x2="311.0" y2="342.9" stroke="rgb(0,0,0)"  stroke-width="2.0"/>
<line x1="317.0" y1="369.5" x2="317.0" y2="342.9" stroke="rgb(0,0,0)"  stroke-width="2.0"/>
<line x1="314.0" y1="369.5" x2="291.0" y2="382.7" stroke="rgb(0,0,0)"  stroke-width="2.0"/>
<line x1="268.5" y1="382.7" x2="245.5" y2="369.5" stroke="rgb(0,0,0)"  stroke-width="2.0"/>
<line x1="247.5" y1="364.5" x2="248.9" y2="365.3" stroke="rgb(0,0,0)"  stroke-width="1.0"/>
<line x1="249.0" y1="360.5" x2="251.5" y2="361.9" stroke="rgb(0,0,0)"  stroke-width="1.0"/>
<line x1="250.6" y1="356.5" x2="254.2" y2="358.6" stroke="rgb(0,0,0)"  stroke-width="1.0"/>
<line x1="252.2" y1="352.5" x2="256.9" y2="355.2" stroke="rgb(0,0,0)"  stroke-width="1.0"/>
<line x1="253.7" y1="348.5" x2="259.6" y2="351.9" stroke="rgb(0,0,0)"  stroke-width="1.0"/>
<line x1="255.3" y1="344.5" x2="262.2" y2="348.5" stroke="rgb(0,0,0)"  stroke-width="1.0"/>
<line x1="245.5" y1="369.5" x2="211.3" y2="349.7" stroke="rgb(0,0,0)"  stroke-width="2.0"/>
<line x1="212.8" y1="352.3" x2="189.8" y2="365.6" stroke="rgb(0,0,0)"  stroke-width="2.0"/>
<line x1="209.8" y1="347.1" x2="186.8" y2="360.4" stroke="rgb(0,0,0)"  stroke-width="2.0"/>
<line x1="211.3" y1="349.7" x2="211.3" y2="323.1" stroke="rgb(0,0,0)"  stroke-width="2.0"/>
<line x1="200.0" y1="303.6" x2="177.0" y2="290.4" stroke="rgb(0,0,0)"  stroke-width="2.0"/>
<line x1="175.1" y1="295.3" x2="173.7" y2="294.5" stroke="rgb(0,0,0)"  stroke-width="1.0"/>
<line x1="173.5" y1="299.3" x2="171.0" y2="297.9" stroke="rgb(0,0,0)"  stroke-width="1.0"/>
<line x1="171.9" y1="303.3" x2="168.3" y2="301.3" stroke="rgb(0,0,0)"  stroke-width="1.0"/>
<line x1="170.4" y1="307.3" x2="165.6" y2="304.6" stroke="rgb(0,0,0)"  stroke-width="1.0"/>
<line x1="168.8" y1="311.3" x2="163.0" y2="308.0" stroke="rgb(0,0,0)"  stroke-width="1.0"/>
<line x1="167.2" y1="315.3" x2="160.3" y2="311.3" stroke="rgb(0,0,0)"  stroke-width="1.0"/>
<line x1="177.0" y1="290.4" x2="142.8" y2="270.6" stroke="rgb(0,0,0)"  stroke-width="2.0"/>
<line x1="144.3" y1="273.2" x2="121.3" y2="286.5" stroke="rgb(0,0,0)"  stroke-width="2.0"/>
<line x1="141.3" y1="268.0" x2="118.3" y2="281.3" stroke="rgb(0,0,0)"  stroke-width="2.0"/>
<line x1="142.8" y1="270.6" x2="142.8" y2="244.0" stroke="rgb(0,0,0)"  stroke-width="2.0"/>
<line x1="131.5" y1="224.5" x2="108.5" y2="211.3" stroke="rgb(0,0,0)"  stroke-width="2.0"/>
<polygon points="108.503583 211.258956 98.718246 236.207656 91.790043 232.207656 " stroke-width="2.000000" fill="rgb(0,0,0)"  stroke="rgb(0,0,0)" />
<line x1="108.5" y1="211.3" x2="74.3" y2="191.5" stroke="rgb(0,0,0)"  stroke-width="2.0"/>
<line x1="75.8" y1="194.1" x2="52.8" y2="207.4" stroke="rgb(0,0,0)"  stroke-width="2.0"/>
<line x1="72.8" y1="188.9" x2="49.8" y2="202.2" stroke="rgb(0,0,0)"  stroke-width="2.0"/>
<line x1="74.3" y1="191.5" x2="74.3" y2="164.9" stroke="rgb(0,0,0)"  stroke-width="2.0"/>
<line x1="108.5" y1="211.3" x2="128.3" y2="177.0" stroke="rgb(0,0,0)"  stroke-width="2.0"/>
<line x1="128.3" y1="177.0" x2="108.5" y2="142.8" stroke="rgb(0,0,0)"  stroke-width="2.0"/>
<line x1="108.5" y1="142.8" x2="128.3" y2="108.5" stroke="rgb(0,0,0)"  stroke-width="2.0"/>
<line x1="128.3" y1="108.5" x2="167.8" y2="108.5" stroke="rgb(0,0,0)"  stroke-width="2.0"/>
<line x1="167.8" y1="108.5" x2="181.1" y2="85.5" stroke="rgb(0,0,0)"  stroke-width="2.0"/>
<line x1="198.9" y1="80.8" x2="210.6" y2="87.5" stroke="rgb(0,0,0)"  stroke-width="2.0"/>
<line x1="194.1" y1="63.0" x2="200.9" y2="51.3" stroke="rgb(0,0,0)"  stroke-width="2.0"/>
<line x1="176.3" y1="67.8" x2="164.6" y2="61.0" stroke="rgb(0,0,0)"  stroke-width="2.0"/>
<line x1="177.0" y1="290.4" x2="196.8" y2="256.1" stroke="rgb(0,0,0)"  stroke-width="2.0"/>
<line x1="196.8" y1="256.1" x2="236.3" y2="256.1" stroke="rgb(0,0,0)"  stroke-width="2.0"/>
<line x1="245.5" y1="369.5" x2="225.7" y2="403.7" stroke="rgb(0,0,0)"  stroke-width="2.0"/>
<line x1="225.7" y1="403.7" x2="245.5" y2="438.0" stroke="rgb(0,0,0)"  stroke-width="2.0"/>
<line x1="304.9" y1="486.1" x2="317.3" y2="491.6" stroke="rgb(0,0,0)"  stroke-width="2.0"/>
<line x1="382.5" y1="409.0" x2="395.8" y2="386.0" stroke="rgb(0,0,0)"  stroke-width="2.0"/>
<line x1="415.3" y1="374.8" x2="441.8" y2="374.8" stroke="rgb(0,0,0)"  stroke-width="2.0"/>
<line x1="444.4" y1="373.3" x2="457.7" y2="396.3" stroke="rgb(0,0,0)"  stroke-width="2.0"/>
<line x1="439.2" y1="376.3" x2="452.5" y2="399.3" stroke="rgb(0,0,0)"  stroke-width="2.0"/>
<line x1="441.8" y1="374.8" x2="461.6" y2="340.5" stroke="rgb(0,0,0)"  stroke-width="2.0"/>
<polygon points="461.619036 340.508183 486.567736 350.293519 482.567736 357.221723 " stroke-width="2.000000" fill="rgb(0,0,0)"  stroke="rgb(0,0,0)" />
<line x1="461.6" y1="340.5" x2="481.4" y2="306.3" stroke="rgb(0,0,0)"  stroke-width="2.0"/>
<line x1="481.4" y1="306.3" x2="520.9" y2="306.3" stroke="rgb(0,0,0)"  stroke-width="2.0"/>
<line x1="592.3" y1="278.8" x2="603.3" y2="270.9" stroke="rgb(0,0,0)"  stroke-width="2.0"/>
<line x1="461.6" y1="340.5" x2="438.6" y2="327.2" stroke="rgb(0,0,0)"  stroke-width="2.0"/>
<line x1="427.4" y1="307.7" x2="427.4" y2="281.2" stroke="rgb(0,0,0)"  stroke-width="2.0"/>
<line x1="425.9" y1="278.6" x2="448.9" y2="265.3" stroke="rgb(0,0,0)"  stroke-width="2.0"/>
<line x1="428.9" y1="283.8" x2="451.9" y2="270.5" stroke="rgb(0,0,0)"  stroke-width="2.0"/>
<line x1="427.4" y1="281.2" x2="393.1" y2="261.4" stroke="rgb(0,0,0)"  stroke-width="2.0"/>
<line x1="387.8" y1="262.2" x2="387.8" y2="260.6" stroke="rgb(0,0,0)"  stroke-width="1.0"/>
<line x1="383.6" y1="262.8" x2="383.6" y2="260.0" stroke="rgb(0,0,0)"  stroke-width="1.0"/>
<line x1="379.3" y1="263.5" x2="379.3" y2="259.3" stroke="rgb(0,0,0)"  stroke-width="1.0"/>
<line x1="375.1" y1="264.1" x2="375.1" y2="258.7" stroke="rgb(0,0,0)"  stroke-width="1.0"/>
<line x1="370.9" y1="264.8" x2="370.9" y2="258.0" stroke="rgb(0,0,0)"  stroke-width="1.0"/>
<line x1="366.6" y1="265.4" x2="366.6" y2="257.4" stroke="rgb(0,0,0)"  stroke-width="1.0"/>
<line x1="393.1" y1="261.4" x2="393.1" y2="221.9" stroke="rgb(0,0,0)"  stroke-width="2.0"/>
<line x1="393.1" y1="221.9" x2="358.9" y2="202.1" stroke="rgb(0,0,0)"  stroke-width="2.0"/>
<line x1="364.4" y1="154.0" x2="374.5" y2="145.0" stroke="rgb(0,0,0)"  stroke-width="2.0"/>
<line x1="393.1" y1="261.4" x2="379.8" y2="284.4" stroke="rgb(0,0,0)"  stroke-width="2.0"/>
<line x1="281.8" y1="487.3" x2="258.8" y2="500.6" stroke="rgb(0,0,0)"  stroke-width="2.0"/>
<line x1="258.8" y1="500.6" x2="229.4" y2="474.1" stroke="rgb(0,0,0)"  stroke-width="2.0"/>
<line x1="259.2" y1="491.2" x2="238.7" y2="472.8" stroke="rgb(0,0,0)"  stroke-width="2.0"/>
<line x1="229.4" y1="474.1" x2="245.5" y2="438.0" stroke="rgb(0,0,0)"  stroke-width="2.0"/>
<line x1="245.5" y1="438.0" x2="284.8" y2="442.1" stroke="rgb(0,0,0)"  stroke-width="2.0"/>
<line x1="250.7" y1="445.8" x2="278.1" y2="448.6" stroke="rgb(0,0,0)"  stroke-width="2.0"/>
<line x1="284.8" y1="442.1" x2="290.4" y2="468.1" stroke="rgb(0,0,0)"  stroke-width="2.0"/>
<line x1="581.8" y1="299.5" x2="581.8" y2="326.0" stroke="rgb(0,0,0)"  stroke-width="2.0"/>
<line x1="581.8" y1="326.0" x2="544.2" y2="338.3" stroke="rgb(0,0,0)"  stroke-width="2.0"/>
<line x1="573.9" y1="321.0" x2="547.7" y2="329.6" stroke="rgb(0,0,0)"  stroke-width="2.0"/>
<line x1="544.2" y1="338.3" x2="520.9" y2="306.3" stroke="rgb(0,0,0)"  stroke-width="2.0"/>
<line x1="520.9" y1="306.3" x2="544.2" y2="274.3" stroke="rgb(0,0,0)"  stroke-width="2.0"/>
<line x1="530.3" y1="305.6" x2="546.5" y2="283.3" stroke="rgb(0,0,0)"  stroke-width="2.0"/>
<line x1="544.2" y1="274.3" x2="569.4" y2="282.5" stroke="rgb(0,0,0)"  stroke-width="2.0"/>
<line x1="302.8" y1="177.5" x2="316.0" y2="154.5" stroke="rgb(0,0,0)"  stroke-width="2.0"/>
<line x1="310.1" y1="179.3" x2="319.3" y2="163.3" stroke="rgb(0,0,0)"  stroke-width="2.0"/>
<line x1="316.0" y1="154.5" x2="342.0" y2="160.0" stroke="rgb(0,0,0)"  stroke-width="2.0"/>
<line x1="356.1" y1="175.7" x2="358.9" y2="202.1" stroke="rgb(0,0,0)"  stroke-width="2.0"/>
<line x1="358.9" y1="202.1" x2="322.7" y2="218.2" stroke="rgb(0,0,0)"  stroke-width="2.0"/>
<line x1="350.5" y1="197.9" x2="325.3" y2="209.1" stroke="rgb(0,0,0)"  stroke-width="2.0"/>
<line x1="322.7" y1="218.2" x2="305.0" y2="198.4" stroke="rgb(0,0,0)"  stroke-width="2.0"/>
<line x1="295.7" y1="290.4" x2="315.4" y2="256.1" stroke="rgb(0,0,0)"  stroke-width="2.0"/>
<line x1="292.4" y1="281.6" x2="306.2" y2="257.7" stroke="rgb(0,0,0)"  stroke-width="2.0"/>
<line x1="315.4" y1="256.1" x2="295.7" y2="221.9" stroke="rgb(0,0,0)"  stroke-width="2.0"/>
<line x1="295.7" y1="221.9" x2="256.1" y2="221.9" stroke="rgb(0,0,0)"  stroke-width="2.0"/>
<line x1="289.7" y1="229.1" x2="262.1" y2="229.1" stroke="rgb(0,0,0)"  stroke-width="2.0"/>
<line x1="256.1" y1="221.9" x2="236.3" y2="256.1" stroke="rgb(0,0,0)"  stroke-width="2.0"/>
<line x1="236.3" y1="256.1" x2="256.1" y2="290.4" stroke="rgb(0,0,0)"  stroke-width="2.0"/>
<line x1="245.6" y1="257.7" x2="259.3" y2="281.6" stroke="rgb(0,0,0)"  stroke-width="2.0"/>
<line x1="256.1" y1="290.4" x2="295.7" y2="290.4" stroke="rgb(0,0,0)"  stroke-width="2.0"/>
<line x1="213.0" y1="551.5" x2="183.6" y2="525.0" stroke="rgb(0,0,0)"  stroke-width="2.0"/>
<line x1="183.6" y1="525.0" x2="191.8" y2="486.3" stroke="rgb(0,0,0)"  stroke-width="2.0"/>
<line x1="191.9" y1="520.6" x2="197.6" y2="493.7" stroke="rgb(0,0,0)"  stroke-width="2.0"/>
<line x1="191.8" y1="486.3" x2="229.4" y2="474.1" stroke="rgb(0,0,0)"  stroke-width="2.0"/>
<line x1="258.8" y1="500.6" x2="250.6" y2="539.2" stroke="rgb(0,0,0)"  stroke-width="2.0"/>
<line x1="250.6" y1="539.2" x2="213.0" y2="551.5" stroke="rgb(0,0,0)"  stroke-width="2.0"/>
<line x1="242.7" y1="534.3" x2="216.5" y2="542.8" stroke="rgb(0,0,0)"  stroke-width="2.0"/>
<line x1="603.0" y1="391.2" x2="565.4" y2="403.4" stroke="rgb(0,0,0)"  stroke-width="2.0"/>
<line x1="565.4" y1="403.4" x2="536.0" y2="376.9" stroke="rgb(0,0,0)"  stroke-width="2.0"/>
<line x1="565.7" y1="394.0" x2="545.2" y2="375.6" stroke="rgb(0,0,0)"  stroke-width="2.0"/>
<line x1="536.0" y1="376.9" x2="544.2" y2="338.3" stroke="rgb(0,0,0)"  stroke-width="2.0"/>
<line x1="581.8" y1="326.0" x2="611.2" y2="352.5" stroke="rgb(0,0,0)"  stroke-width="2.0"/>
<line x1="611.2" y1="352.5" x2="603.0" y2="391.2" stroke="rgb(0,0,0)"  stroke-width="2.0"/>
<line x1="602.9" y1="356.9" x2="597.2" y2="383.8" stroke="rgb(0,0,0)"  stroke-width="2.0"/>
<text x="489.870827" y="368.283464" fill="rgb(191,191,191)"  stroke="rgb(191,191,191)" stroke-width="1" font-size="16" >H</text>
<text x="455.619036" y="417.011765" fill="rgb(255,12,12)"  stroke="rgb(255,12,12)" stroke-width="1" font-size="16" >O</text>
<text x="396.293193" y="382.759974" fill="rgb(12,12,255)"  stroke="rgb(12,12,255)" stroke-width="1" font-size="16" >N</text>
<text x="396.293193" y="366.759974" fill="rgb(12,12,255)"  stroke="rgb(12,12,255)" stroke-width="1" font-size="16" >H</text>
<text x="575.806935" y="294.481111" fill="rgb(12,12,255)"  stroke="rgb(12,12,255)" stroke-width="1" font-size="16" >N</text>
<text x="323.198907" y="504.871895" fill="rgb(191,191,191)"  stroke="rgb(191,191,191)" stroke-width="1" font-size="16" >H</text>
<text x="287.067671" y="488.785233" fill="rgb(12,12,255)"  stroke="rgb(12,12,255)" stroke-width="1" font-size="16" >N</text>
<text x="455.619036" y="269.407059" fill="rgb(255,12,12)"  stroke="rgb(255,12,12)" stroke-width="1" font-size="16" >O</text>
<text x="347.340173" y="303.658850" fill="rgb(12,12,255)"  stroke="rgb(12,12,255)" stroke-width="1" font-size="16" >H</text>
<text x="359.340173" y="307.338850" fill="rgb(12,12,255)"  stroke="rgb(12,12,255)" stroke-width="1" font-size="13" >2</text>
<text x="365.840173" y="303.658850" fill="rgb(12,12,255)"  stroke="rgb(12,12,255)" stroke-width="1" font-size="16" >N</text>
<text x="378.121298" y="144.282825" fill="rgb(191,191,191)"  stroke="rgb(191,191,191)" stroke-width="1" font-size="16" >H</text>
<text x="348.729503" y="170.747317" fill="rgb(12,12,255)"  stroke="rgb(12,12,255)" stroke-width="1" font-size="16" >N</text>
<text x="290.267935" y="196.776084" fill="rgb(12,12,255)"  stroke="rgb(12,12,255)" stroke-width="1" font-size="16" >N</text>
<text x="347.564892" y="269.407059" fill="rgb(191,191,191)"  stroke="rgb(191,191,191)" stroke-width="1" font-size="16" >H</text>
<text x="409.367245" y="328.732902" fill="rgb(12,12,255)"  stroke="rgb(12,12,255)" stroke-width="1" font-size="16" >HN</text>
<text x="607.804012" y="271.233874" fill="rgb(191,191,191)"  stroke="rgb(191,191,191)" stroke-width="1" font-size="16" >H</text>
<text x="151.231884" y="332.611871" fill="rgb(191,191,191)"  stroke="rgb(191,191,191)" stroke-width="1" font-size="16" >H</text>
<text x="205.258956" y="318.135361" fill="rgb(12,12,255)"  stroke="rgb(12,12,255)" stroke-width="1" font-size="16" >NH</text>
<text x="171.007165" y="377.461203" fill="rgb(255,12,12)"  stroke="rgb(255,12,12)" stroke-width="1" font-size="16" >O</text>
<text x="259.286028" y="343.209412" fill="rgb(191,191,191)"  stroke="rgb(191,191,191)" stroke-width="1" font-size="16" >H</text>
<text x="273.762539" y="397.236484" fill="rgb(12,12,255)"  stroke="rgb(12,12,255)" stroke-width="1" font-size="16" >N</text>
<text x="273.762539" y="413.236484" fill="rgb(12,12,255)"  stroke="rgb(12,12,255)" stroke-width="1" font-size="16" >H</text>
<text x="308.014330" y="337.910642" fill="rgb(255,12,12)"  stroke="rgb(255,12,12)" stroke-width="1" font-size="16" >O</text>
<text x="102.503583" y="298.360080" fill="rgb(255,12,12)"  stroke="rgb(255,12,12)" stroke-width="1" font-size="16" >O</text>
<text x="410.769704" y="436.787046" fill="rgb(191,191,191)"  stroke="rgb(191,191,191)" stroke-width="1" font-size="16" >H</text>
<text x="475.394317" y="411.712995" fill="rgb(191,191,191)"  stroke="rgb(191,191,191)" stroke-width="1" font-size="16" >H</text>
<text x="514.944879" y="451.263556" fill="rgb(191,191,191)"  stroke="rgb(191,191,191)" stroke-width="1" font-size="16" >H</text>
<text x="475.394317" y="490.814118" fill="rgb(191,191,191)"  stroke="rgb(191,191,191)" stroke-width="1" font-size="16" >H</text>
<text x="147.352915" y="62.476510" fill="rgb(191,191,191)"  stroke="rgb(191,191,191)" stroke-width="1" font-size="16" >H</text>
<text x="201.379987" y="48.000000" fill="rgb(191,191,191)"  stroke="rgb(191,191,191)" stroke-width="1" font-size="16" >H</text>
<text x="215.856497" y="102.027072" fill="rgb(191,191,191)"  stroke="rgb(191,191,191)" stroke-width="1" font-size="16" >H</text>
<text x="192.404706" y="70.219791" fill="rgb(12,12,255)"  stroke="rgb(12,12,255)" stroke-width="1" font-size="16" >+</text>
<text x="181.604706" y="82.251791" fill="rgb(12,12,255)"  stroke="rgb(12,12,255)" stroke-width="1" font-size="16" >N</text>
<text x="486.194317" y="439.231556" fill="rgb(12,12,255)"  stroke="rgb(12,12,255)" stroke-width="1" font-size="16" >+</text>
<text x="475.394317" y="451.263556" fill="rgb(12,12,255)"  stroke="rgb(12,12,255)" stroke-width="1" font-size="16" >N</text>
<text x="70.251791" y="159.933114" fill="rgb(12,12,255)"  stroke="rgb(12,12,255)" stroke-width="1" font-size="16" >NH</text>
<text x="94.251791" y="163.613114" fill="rgb(12,12,255)"  stroke="rgb(12,12,255)" stroke-width="1" font-size="13" >2</text>
<text x="34.000000" y="219.258956" fill="rgb(255,12,12)"  stroke="rgb(255,12,12)" stroke-width="1" font-size="16" >O</text>
<text x="82.728302" y="253.510748" fill="rgb(191,191,191)"  stroke="rgb(191,191,191)" stroke-width="1" font-size="16" >H</text>
<text x="136.755374" y="239.034237" fill="rgb(12,12,255)"  stroke="rgb(12,12,255)" stroke-width="1" font-size="16" >NH</text>
</svg>
</g>
<text font-size="18.000000" fill ="black" font-family="sans-serif"
x="10.000000" y="20.000000" ></text>
</svg>
