<?xml version="1.0"?>
<svg version="1.1" id="topsvg"
xmlns="http://www.w3.org/2000/svg" xmlns:xlink="http://www.w3.org/1999/xlink"
xmlns:cml="http://www.xml-cml.org/schema" x="0" y="0" width="200px" height="200px" viewBox="0 0 100 100">
<title>ZINC06680594 - Open Babel Depiction</title>
<rect x="0" y="0" width="100" height="100" fill="white"/>
<g transform="translate(0,0)">
<svg width="100" height="100" x="0" y="0" viewBox="0 0 293.205 274.641"
font-family="sans-serif" stroke="rgb(0,0,0)" stroke-width="2"  stroke-linecap="round">
<line x1="218.6" y1="114.6" x2="232.1" y2="91.3" stroke="rgb(0,0,0)"  stroke-width="2.0"/>
<line x1="218.6" y1="114.6" x2="205.1" y2="91.3" stroke="rgb(0,0,0)"  stroke-width="2.0"/>
<line x1="218.6" y1="114.6" x2="241.9" y2="128.1" stroke="rgb(0,0,0)"  stroke-width="2.0"/>
<line x1="218.6" y1="114.6" x2="183.9" y2="134.6" stroke="rgb(0,0,0)"  stroke-width="2.0"/>
<line x1="183.9" y1="174.6" x2="207.3" y2="188.1" stroke="rgb(0,0,0)"  stroke-width="2.0"/>
<line x1="152.3" y1="194.6" x2="152.3" y2="221.6" stroke="rgb(0,0,0)"  stroke-width="2.0"/>
<line x1="146.3" y1="194.6" x2="146.3" y2="221.6" stroke="rgb(0,0,0)"  stroke-width="2.0"/>
<line x1="114.6" y1="134.6" x2="91.3" y2="121.1" stroke="rgb(0,0,0)"  stroke-width="2.0"/>
<line x1="149.3" y1="101.6" x2="149.3" y2="87.6" stroke="rgb(0,0,0)"  stroke-width="2.0"/>
<line x1="80.0" y1="101.6" x2="80.0" y2="74.6" stroke="rgb(0,0,0)"  stroke-width="2.0"/>
<line x1="80.0" y1="74.6" x2="66.5" y2="51.3" stroke="rgb(0,0,0)"  stroke-width="2.0"/>
<line x1="80.0" y1="74.6" x2="53.0" y2="74.6" stroke="rgb(0,0,0)"  stroke-width="2.0"/>
<line x1="80.0" y1="74.6" x2="103.4" y2="61.1" stroke="rgb(0,0,0)"  stroke-width="2.0"/>
<line x1="183.9" y1="174.6" x2="183.9" y2="134.6" stroke="rgb(0,0,0)"  stroke-width="2.0"/>
<line x1="176.7" y1="168.6" x2="176.7" y2="140.6" stroke="rgb(0,0,0)"  stroke-width="2.0"/>
<line x1="183.9" y1="134.6" x2="160.5" y2="121.1" stroke="rgb(0,0,0)"  stroke-width="2.0"/>
<line x1="138.0" y1="121.1" x2="114.6" y2="134.6" stroke="rgb(0,0,0)"  stroke-width="2.0"/>
<line x1="114.6" y1="134.6" x2="114.6" y2="161.4" stroke="rgb(0,0,0)"  stroke-width="2.0"/>
<line x1="121.8" y1="140.6" x2="121.8" y2="159.4" stroke="rgb(0,0,0)"  stroke-width="2.0"/>
<line x1="125.9" y1="181.1" x2="149.3" y2="194.6" stroke="rgb(0,0,0)"  stroke-width="2.0"/>
<line x1="149.3" y1="194.6" x2="183.9" y2="174.6" stroke="rgb(0,0,0)"  stroke-width="2.0"/>
<text x="143.282032" y="242.641016" fill="rgb(255,12,12)"  stroke="rgb(255,12,12)" stroke-width="1" font-size="16" >O</text>
<text x="143.282032" y="82.641016" fill="rgb(191,191,191)"  stroke="rgb(191,191,191)" stroke-width="1" font-size="16" >H</text>
<text x="108.641016" y="62.641016" fill="rgb(191,191,191)"  stroke="rgb(191,191,191)" stroke-width="1" font-size="16" >H</text>
<text x="34.000000" y="82.641016" fill="rgb(191,191,191)"  stroke="rgb(191,191,191)" stroke-width="1" font-size="16" >H</text>
<text x="54.000000" y="48.000000" fill="rgb(191,191,191)"  stroke="rgb(191,191,191)" stroke-width="1" font-size="16" >H</text>
<text x="247.205081" y="142.641016" fill="rgb(191,191,191)"  stroke="rgb(191,191,191)" stroke-width="1" font-size="16" >H</text>
<text x="192.564065" y="88.000000" fill="rgb(191,191,191)"  stroke="rgb(191,191,191)" stroke-width="1" font-size="16" >H</text>
<text x="232.564065" y="88.000000" fill="rgb(191,191,191)"  stroke="rgb(191,191,191)" stroke-width="1" font-size="16" >H</text>
<text x="212.564065" y="202.641016" fill="rgb(147,0,147)"  stroke="rgb(147,0,147)" stroke-width="1" font-size="16" >I</text>
<text x="74.000000" y="122.641016" fill="rgb(178,178,0)"  stroke="rgb(178,178,0)" stroke-width="1" font-size="16" >S</text>
<text x="143.282032" y="122.641016" fill="rgb(12,12,255)"  stroke="rgb(12,12,255)" stroke-width="1" font-size="16" >N</text>
<text x="108.641016" y="182.641016" fill="rgb(12,12,255)"  stroke="rgb(12,12,255)" stroke-width="1" font-size="16" >N</text>
</svg>
</g>
<text font-size="18.000000" fill ="black" font-family="sans-serif"
x="10.000000" y="20.000000" >ZINC06680594</text>
</svg>
