<?xml version="1.0"?>
<svg version="1.1" id="topsvg"
xmlns="http://www.w3.org/2000/svg" xmlns:xlink="http://www.w3.org/1999/xlink"
xmlns:cml="http://www.xml-cml.org/schema" x="0" y="0" width="200px" height="200px" viewBox="0 0 100 100">
<title>ZINC01530571 - Open Babel Depiction</title>
<rect x="0" y="0" width="100" height="100" fill="white"/>
<g transform="translate(0,0)">
<svg width="100" height="100" x="0" y="0" viewBox="0 0 528.459 351.595"
font-family="sans-serif" stroke="rgb(0,0,0)" stroke-width="2"  stroke-linecap="round">
<line x1="454.4" y1="211.9" x2="477.2" y2="225.1" stroke="rgb(0,0,0)"  stroke-width="2.0"/>
<line x1="454.4" y1="172.5" x2="477.2" y2="159.3" stroke="rgb(0,0,0)"  stroke-width="2.0"/>
<line x1="386.2" y1="172.5" x2="363.4" y2="159.3" stroke="rgb(0,0,0)"  stroke-width="2.0"/>
<line x1="420.3" y1="231.6" x2="420.3" y2="257.9" stroke="rgb(0,0,0)"  stroke-width="2.0"/>
<line x1="352.1" y1="113.5" x2="378.5" y2="113.5" stroke="rgb(0,0,0)"  stroke-width="2.0"/>
<line x1="352.1" y1="113.5" x2="365.3" y2="90.6" stroke="rgb(0,0,0)"  stroke-width="2.0"/>
<line x1="318.0" y1="93.8" x2="331.2" y2="70.9" stroke="rgb(0,0,0)"  stroke-width="2.0"/>
<line x1="318.0" y1="93.8" x2="304.8" y2="70.9" stroke="rgb(0,0,0)"  stroke-width="2.0"/>
<line x1="272.7" y1="107.0" x2="215.7" y2="74.1" stroke="rgb(0,0,0)"  stroke-width="2.0"/>
<line x1="283.9" y1="152.8" x2="257.5" y2="152.8" stroke="rgb(0,0,0)"  stroke-width="2.0"/>
<line x1="283.9" y1="152.8" x2="270.7" y2="175.7" stroke="rgb(0,0,0)"  stroke-width="2.0"/>
<line x1="318.0" y1="172.5" x2="304.8" y2="195.3" stroke="rgb(0,0,0)"  stroke-width="2.0"/>
<line x1="318.0" y1="172.5" x2="331.2" y2="195.3" stroke="rgb(0,0,0)"  stroke-width="2.0"/>
<line x1="215.7" y1="74.1" x2="181.6" y2="93.8" stroke="rgb(0,0,0)"  stroke-width="2.0"/>
<line x1="215.7" y1="74.1" x2="228.9" y2="51.3" stroke="rgb(0,0,0)"  stroke-width="2.0"/>
<line x1="215.7" y1="74.1" x2="202.5" y2="51.3" stroke="rgb(0,0,0)"  stroke-width="2.0"/>
<line x1="181.6" y1="93.8" x2="147.5" y2="74.1" stroke="rgb(0,0,0)"  stroke-width="2.0"/>
<line x1="181.6" y1="93.8" x2="194.8" y2="116.6" stroke="rgb(0,0,0)"  stroke-width="2.0"/>
<line x1="181.6" y1="93.8" x2="168.5" y2="116.6" stroke="rgb(0,0,0)"  stroke-width="2.0"/>
<line x1="147.5" y1="74.1" x2="113.5" y2="93.8" stroke="rgb(0,0,0)"  stroke-width="2.0"/>
<line x1="147.5" y1="74.1" x2="160.7" y2="51.3" stroke="rgb(0,0,0)"  stroke-width="2.0"/>
<line x1="147.5" y1="74.1" x2="134.4" y2="51.3" stroke="rgb(0,0,0)"  stroke-width="2.0"/>
<line x1="113.5" y1="93.8" x2="113.5" y2="120.1" stroke="rgb(0,0,0)"  stroke-width="2.0"/>
<line x1="113.5" y1="93.8" x2="100.3" y2="70.9" stroke="rgb(0,0,0)"  stroke-width="2.0"/>
<line x1="113.5" y1="93.8" x2="87.1" y2="93.8" stroke="rgb(0,0,0)"  stroke-width="2.0"/>
<line x1="77.9" y1="155.4" x2="55.0" y2="142.2" stroke="rgb(0,0,0)"  stroke-width="2.0"/>
<line x1="80.9" y1="150.2" x2="58.0" y2="137.0" stroke="rgb(0,0,0)"  stroke-width="2.0"/>
<line x1="79.4" y1="192.2" x2="53.0" y2="192.2" stroke="rgb(0,0,0)"  stroke-width="2.0"/>
<line x1="79.4" y1="192.2" x2="66.2" y2="215.0" stroke="rgb(0,0,0)"  stroke-width="2.0"/>
<line x1="81.6" y1="235.0" x2="64.0" y2="215.4" stroke="rgb(0,0,0)"  stroke-width="2.0"/>
<line x1="81.6" y1="235.0" x2="55.8" y2="240.5" stroke="rgb(0,0,0)"  stroke-width="2.0"/>
<line x1="93.8" y1="272.4" x2="69.7" y2="283.2" stroke="rgb(0,0,0)"  stroke-width="2.0"/>
<line x1="93.8" y1="272.4" x2="91.0" y2="298.7" stroke="rgb(0,0,0)"  stroke-width="2.0"/>
<line x1="133.1" y1="272.4" x2="135.9" y2="298.7" stroke="rgb(0,0,0)"  stroke-width="2.0"/>
<line x1="133.1" y1="272.4" x2="157.2" y2="283.2" stroke="rgb(0,0,0)"  stroke-width="2.0"/>
<line x1="145.3" y1="235.0" x2="171.1" y2="240.5" stroke="rgb(0,0,0)"  stroke-width="2.0"/>
<line x1="145.3" y1="235.0" x2="162.9" y2="215.4" stroke="rgb(0,0,0)"  stroke-width="2.0"/>
<line x1="147.5" y1="192.2" x2="160.7" y2="215.0" stroke="rgb(0,0,0)"  stroke-width="2.0"/>
<line x1="147.5" y1="192.2" x2="173.9" y2="192.2" stroke="rgb(0,0,0)"  stroke-width="2.0"/>
<line x1="146.0" y1="150.2" x2="168.9" y2="137.0" stroke="rgb(0,0,0)"  stroke-width="2.0"/>
<line x1="149.0" y1="155.4" x2="171.9" y2="142.2" stroke="rgb(0,0,0)"  stroke-width="2.0"/>
<line x1="409.0" y1="159.3" x2="386.2" y2="172.5" stroke="rgb(0,0,0)"  stroke-width="2.0"/>
<line x1="386.2" y1="172.5" x2="386.2" y2="198.9" stroke="rgb(0,0,0)"  stroke-width="2.0"/>
<line x1="393.4" y1="178.5" x2="393.4" y2="196.8" stroke="rgb(0,0,0)"  stroke-width="2.0"/>
<line x1="397.4" y1="218.4" x2="420.3" y2="231.6" stroke="rgb(0,0,0)"  stroke-width="2.0"/>
<line x1="420.3" y1="231.6" x2="454.4" y2="211.9" stroke="rgb(0,0,0)"  stroke-width="2.0"/>
<line x1="421.9" y1="222.3" x2="445.6" y2="208.6" stroke="rgb(0,0,0)"  stroke-width="2.0"/>
<line x1="454.4" y1="211.9" x2="454.4" y2="172.5" stroke="rgb(0,0,0)"  stroke-width="2.0"/>
<line x1="454.4" y1="172.5" x2="431.5" y2="159.3" stroke="rgb(0,0,0)"  stroke-width="2.0"/>
<line x1="445.6" y1="175.7" x2="429.7" y2="166.6" stroke="rgb(0,0,0)"  stroke-width="2.0"/>
<line x1="93.8" y1="272.4" x2="133.1" y2="272.4" stroke="rgb(0,0,0)"  stroke-width="2.0"/>
<line x1="133.1" y1="272.4" x2="145.3" y2="235.0" stroke="rgb(0,0,0)"  stroke-width="2.0"/>
<line x1="145.3" y1="235.0" x2="113.5" y2="211.9" stroke="rgb(0,0,0)"  stroke-width="2.0"/>
<line x1="113.5" y1="211.9" x2="81.6" y2="235.0" stroke="rgb(0,0,0)"  stroke-width="2.0"/>
<line x1="81.6" y1="235.0" x2="93.8" y2="272.4" stroke="rgb(0,0,0)"  stroke-width="2.0"/>
<line x1="318.0" y1="93.8" x2="295.2" y2="107.0" stroke="rgb(0,0,0)"  stroke-width="2.0"/>
<line x1="283.9" y1="126.5" x2="283.9" y2="152.8" stroke="rgb(0,0,0)"  stroke-width="2.0"/>
<line x1="283.9" y1="152.8" x2="318.0" y2="172.5" stroke="rgb(0,0,0)"  stroke-width="2.0"/>
<line x1="318.0" y1="172.5" x2="340.8" y2="159.3" stroke="rgb(0,0,0)"  stroke-width="2.0"/>
<line x1="352.1" y1="139.8" x2="352.1" y2="113.5" stroke="rgb(0,0,0)"  stroke-width="2.0"/>
<line x1="352.1" y1="113.5" x2="318.0" y2="93.8" stroke="rgb(0,0,0)"  stroke-width="2.0"/>
<line x1="79.4" y1="192.2" x2="113.5" y2="211.9" stroke="rgb(0,0,0)"  stroke-width="2.0"/>
<line x1="113.5" y1="211.9" x2="147.5" y2="192.2" stroke="rgb(0,0,0)"  stroke-width="2.0"/>
<line x1="147.5" y1="192.2" x2="147.5" y2="152.8" stroke="rgb(0,0,0)"  stroke-width="2.0"/>
<line x1="147.5" y1="152.8" x2="124.7" y2="139.6" stroke="rgb(0,0,0)"  stroke-width="2.0"/>
<line x1="102.2" y1="139.6" x2="79.4" y2="152.8" stroke="rgb(0,0,0)"  stroke-width="2.0"/>
<line x1="79.4" y1="152.8" x2="79.4" y2="192.2" stroke="rgb(0,0,0)"  stroke-width="2.0"/>
<text x="121.864857" y="48.000000" fill="rgb(191,191,191)"  stroke="rgb(191,191,191)" stroke-width="1" font-size="16" >H</text>
<text x="414.276667" y="278.916556" fill="rgb(191,191,191)"  stroke="rgb(191,191,191)" stroke-width="1" font-size="16" >H</text>
<text x="385.459429" y="121.456238" fill="rgb(191,191,191)"  stroke="rgb(191,191,191)" stroke-width="1" font-size="16" >H</text>
<text x="365.776889" y="87.365079" fill="rgb(191,191,191)"  stroke="rgb(191,191,191)" stroke-width="1" font-size="16" >H</text>
<text x="331.685730" y="67.682540" fill="rgb(191,191,191)"  stroke="rgb(191,191,191)" stroke-width="1" font-size="16" >H</text>
<text x="292.320651" y="67.682540" fill="rgb(191,191,191)"  stroke="rgb(191,191,191)" stroke-width="1" font-size="16" >H</text>
<text x="238.546953" y="160.821317" fill="rgb(191,191,191)"  stroke="rgb(191,191,191)" stroke-width="1" font-size="16" >H</text>
<text x="258.229492" y="194.912476" fill="rgb(191,191,191)"  stroke="rgb(191,191,191)" stroke-width="1" font-size="16" >H</text>
<text x="292.320651" y="214.595016" fill="rgb(191,191,191)"  stroke="rgb(191,191,191)" stroke-width="1" font-size="16" >H</text>
<text x="331.685730" y="214.595016" fill="rgb(191,191,191)"  stroke="rgb(191,191,191)" stroke-width="1" font-size="16" >H</text>
<text x="229.412254" y="48.000000" fill="rgb(191,191,191)"  stroke="rgb(191,191,191)" stroke-width="1" font-size="16" >H</text>
<text x="190.047175" y="48.000000" fill="rgb(191,191,191)"  stroke="rgb(191,191,191)" stroke-width="1" font-size="16" >H</text>
<text x="195.321095" y="135.864857" fill="rgb(191,191,191)"  stroke="rgb(191,191,191)" stroke-width="1" font-size="16" >H</text>
<text x="155.956016" y="135.864857" fill="rgb(191,191,191)"  stroke="rgb(191,191,191)" stroke-width="1" font-size="16" >H</text>
<text x="161.229937" y="48.000000" fill="rgb(191,191,191)"  stroke="rgb(191,191,191)" stroke-width="1" font-size="16" >H</text>
<text x="482.458984" y="160.821317" fill="rgb(191,191,191)"  stroke="rgb(191,191,191)" stroke-width="1" font-size="16" >H</text>
<text x="87.773698" y="67.682540" fill="rgb(191,191,191)"  stroke="rgb(191,191,191)" stroke-width="1" font-size="16" >H</text>
<text x="68.091159" y="101.773698" fill="rgb(191,191,191)"  stroke="rgb(191,191,191)" stroke-width="1" font-size="16" >H</text>
<text x="34.000000" y="200.186397" fill="rgb(191,191,191)"  stroke="rgb(191,191,191)" stroke-width="1" font-size="16" >H</text>
<text x="53.682540" y="234.277556" fill="rgb(191,191,191)"  stroke="rgb(191,191,191)" stroke-width="1" font-size="16" >H</text>
<text x="49.268841" y="213.753195" fill="rgb(191,191,191)"  stroke="rgb(191,191,191)" stroke-width="1" font-size="16" >H</text>
<text x="37.104362" y="251.191610" fill="rgb(191,191,191)"  stroke="rgb(191,191,191)" stroke-width="1" font-size="16" >H</text>
<text x="51.811909" y="296.456785" fill="rgb(191,191,191)"  stroke="rgb(191,191,191)" stroke-width="1" font-size="16" >H</text>
<text x="83.658927" y="319.594998" fill="rgb(191,191,191)"  stroke="rgb(191,191,191)" stroke-width="1" font-size="16" >H</text>
<text x="131.253549" y="319.594998" fill="rgb(191,191,191)"  stroke="rgb(191,191,191)" stroke-width="1" font-size="16" >H</text>
<text x="163.100567" y="296.456785" fill="rgb(191,191,191)"  stroke="rgb(191,191,191)" stroke-width="1" font-size="16" >H</text>
<text x="177.808114" y="251.191610" fill="rgb(191,191,191)"  stroke="rgb(191,191,191)" stroke-width="1" font-size="16" >H</text>
<text x="165.643636" y="213.753195" fill="rgb(191,191,191)"  stroke="rgb(191,191,191)" stroke-width="1" font-size="16" >H</text>
<text x="161.229937" y="234.277556" fill="rgb(191,191,191)"  stroke="rgb(191,191,191)" stroke-width="1" font-size="16" >H</text>
<text x="180.912476" y="200.186397" fill="rgb(191,191,191)"  stroke="rgb(191,191,191)" stroke-width="1" font-size="16" >H</text>
<text x="414.276667" y="160.821317" fill="rgb(12,12,255)"  stroke="rgb(12,12,255)" stroke-width="1" font-size="16" >N</text>
<text x="380.185508" y="219.868937" fill="rgb(12,12,255)"  stroke="rgb(12,12,255)" stroke-width="1" font-size="16" >N</text>
<text x="346.094349" y="160.821317" fill="rgb(12,12,255)"  stroke="rgb(12,12,255)" stroke-width="1" font-size="16" >N</text>
<text x="277.912032" y="121.456238" fill="rgb(12,12,255)"  stroke="rgb(12,12,255)" stroke-width="1" font-size="16" >N</text>
<text x="107.456238" y="141.138778" fill="rgb(12,12,255)"  stroke="rgb(12,12,255)" stroke-width="1" font-size="16" >N</text>
<text x="39.273921" y="141.138778" fill="rgb(255,12,12)"  stroke="rgb(255,12,12)" stroke-width="1" font-size="16" >O</text>
<text x="175.638556" y="141.138778" fill="rgb(255,12,12)"  stroke="rgb(255,12,12)" stroke-width="1" font-size="16" >O</text>
<text x="482.458984" y="239.551476" fill="rgb(191,191,191)"  stroke="rgb(191,191,191)" stroke-width="1" font-size="16" >H</text>
</svg>
</g>
<text font-size="18.000000" fill ="black" font-family="sans-serif"
x="10.000000" y="20.000000" >ZINC01530571</text>
</svg>
