<?xml version="1.0"?>
<svg version="1.1" id="topsvg"
xmlns="http://www.w3.org/2000/svg" xmlns:xlink="http://www.w3.org/1999/xlink"
xmlns:cml="http://www.xml-cml.org/schema" x="0" y="0" width="200px" height="200px" viewBox="0 0 100 100">
<title>ZINC71773602 - Open Babel Depiction</title>
<rect x="0" y="0" width="100" height="100" fill="white"/>
<g transform="translate(0,0)">
<svg width="100" height="100" x="0" y="0" viewBox="0 0 370.152 381.427"
font-family="sans-serif" stroke="rgb(0,0,0)" stroke-width="2"  stroke-linecap="round">
<line x1="168.7" y1="175.8" x2="181.0" y2="213.9" stroke="rgb(0,0,0)"  stroke-width="2.0"/>
<line x1="168.7" y1="175.8" x2="174.3" y2="149.4" stroke="rgb(0,0,0)"  stroke-width="2.0"/>
<line x1="168.7" y1="175.8" x2="194.3" y2="167.5" stroke="rgb(0,0,0)"  stroke-width="2.0"/>
<line x1="168.7" y1="175.8" x2="142.2" y2="170.2" stroke="rgb(0,0,0)"  stroke-width="2.0"/>
<line x1="181.0" y1="213.9" x2="219.1" y2="201.5" stroke="rgb(0,0,0)"  stroke-width="2.0"/>
<line x1="181.0" y1="213.9" x2="155.3" y2="222.2" stroke="rgb(0,0,0)"  stroke-width="2.0"/>
<line x1="181.0" y1="213.9" x2="189.4" y2="239.5" stroke="rgb(0,0,0)"  stroke-width="2.0"/>
<line x1="219.1" y1="201.5" x2="245.5" y2="207.1" stroke="rgb(0,0,0)"  stroke-width="2.0"/>
<line x1="219.1" y1="201.5" x2="227.4" y2="227.2" stroke="rgb(0,0,0)"  stroke-width="2.0"/>
<line x1="219.1" y1="201.5" x2="224.7" y2="175.1" stroke="rgb(0,0,0)"  stroke-width="2.0"/>
<line x1="139.0" y1="213.9" x2="130.6" y2="188.2" stroke="rgb(0,0,0)"  stroke-width="2.0"/>
<line x1="147.0" y1="238.6" x2="155.3" y2="264.3" stroke="rgb(0,0,0)"  stroke-width="2.0"/>
<line x1="130.6" y1="230.2" x2="117.3" y2="234.6" stroke="rgb(0,0,0)"  stroke-width="2.0"/>
<line x1="91.5" y1="179.9" x2="73.4" y2="199.9" stroke="rgb(0,0,0)"  stroke-width="2.0"/>
<line x1="79.1" y1="141.8" x2="52.7" y2="136.2" stroke="rgb(0,0,0)"  stroke-width="2.0"/>
<line x1="105.9" y1="112.1" x2="97.5" y2="86.4" stroke="rgb(0,0,0)"  stroke-width="2.0"/>
<line x1="145.0" y1="120.4" x2="163.1" y2="100.3" stroke="rgb(0,0,0)"  stroke-width="2.0"/>
<line x1="157.4" y1="158.4" x2="183.8" y2="164.1" stroke="rgb(0,0,0)"  stroke-width="2.0"/>
<line x1="226.2" y1="100.0" x2="202.8" y2="86.5" stroke="rgb(0,0,0)"  stroke-width="2.0"/>
<line x1="260.9" y1="80.0" x2="260.9" y2="53.0" stroke="rgb(0,0,0)"  stroke-width="2.0"/>
<line x1="295.5" y1="100.0" x2="318.9" y2="86.5" stroke="rgb(0,0,0)"  stroke-width="2.0"/>
<line x1="295.5" y1="140.0" x2="318.9" y2="153.5" stroke="rgb(0,0,0)"  stroke-width="2.0"/>
<line x1="196.5" y1="239.8" x2="169.7" y2="242.7" stroke="rgb(0,0,0)"  stroke-width="2.0"/>
<line x1="220.0" y1="272.2" x2="209.0" y2="296.9" stroke="rgb(0,0,0)"  stroke-width="2.0"/>
<line x1="259.8" y1="268.0" x2="275.7" y2="289.9" stroke="rgb(0,0,0)"  stroke-width="2.0"/>
<line x1="276.1" y1="231.5" x2="302.9" y2="228.7" stroke="rgb(0,0,0)"  stroke-width="2.0"/>
<line x1="155.3" y1="264.3" x2="193.4" y2="251.9" stroke="rgb(0,0,0)"  stroke-width="2.0"/>
<line x1="155.3" y1="264.3" x2="167.7" y2="302.3" stroke="rgb(0,0,0)"  stroke-width="2.0"/>
<line x1="155.3" y1="264.3" x2="129.7" y2="272.6" stroke="rgb(0,0,0)"  stroke-width="2.0"/>
<line x1="193.4" y1="251.9" x2="219.8" y2="257.5" stroke="rgb(0,0,0)"  stroke-width="2.0"/>
<line x1="193.4" y1="251.9" x2="201.7" y2="277.6" stroke="rgb(0,0,0)"  stroke-width="2.0"/>
<line x1="193.4" y1="251.9" x2="199.0" y2="225.5" stroke="rgb(0,0,0)"  stroke-width="2.0"/>
<line x1="167.7" y1="302.3" x2="162.1" y2="328.7" stroke="rgb(0,0,0)"  stroke-width="2.0"/>
<line x1="167.7" y1="302.3" x2="142.0" y2="310.6" stroke="rgb(0,0,0)"  stroke-width="2.0"/>
<line x1="167.7" y1="302.3" x2="194.1" y2="307.9" stroke="rgb(0,0,0)"  stroke-width="2.0"/>
<line x1="260.9" y1="160.0" x2="252.6" y2="199.1" stroke="rgb(0,0,0)"  stroke-width="2.0"/>
<line x1="252.6" y1="199.1" x2="212.8" y2="203.3" stroke="rgb(0,0,0)"  stroke-width="2.0"/>
<line x1="212.8" y1="203.3" x2="201.8" y2="178.6" stroke="rgb(0,0,0)"  stroke-width="2.0"/>
<line x1="206.2" y1="158.1" x2="226.2" y2="140.0" stroke="rgb(0,0,0)"  stroke-width="2.0"/>
<line x1="226.2" y1="140.0" x2="260.9" y2="160.0" stroke="rgb(0,0,0)"  stroke-width="2.0"/>
<line x1="227.8" y1="149.2" x2="252.1" y2="163.2" stroke="rgb(0,0,0)"  stroke-width="2.0"/>
<line x1="79.1" y1="141.8" x2="105.9" y2="112.1" stroke="rgb(0,0,0)"  stroke-width="2.0"/>
<line x1="105.9" y1="112.1" x2="145.0" y2="120.4" stroke="rgb(0,0,0)"  stroke-width="2.0"/>
<line x1="110.3" y1="120.4" x2="137.7" y2="126.2" stroke="rgb(0,0,0)"  stroke-width="2.0"/>
<line x1="145.0" y1="120.4" x2="157.4" y2="158.4" stroke="rgb(0,0,0)"  stroke-width="2.0"/>
<line x1="157.4" y1="158.4" x2="130.6" y2="188.2" stroke="rgb(0,0,0)"  stroke-width="2.0"/>
<line x1="148.0" y1="158.1" x2="129.3" y2="178.9" stroke="rgb(0,0,0)"  stroke-width="2.0"/>
<line x1="130.6" y1="188.2" x2="91.5" y2="179.9" stroke="rgb(0,0,0)"  stroke-width="2.0"/>
<line x1="91.5" y1="179.9" x2="79.1" y2="141.8" stroke="rgb(0,0,0)"  stroke-width="2.0"/>
<line x1="96.5" y1="171.9" x2="87.8" y2="145.3" stroke="rgb(0,0,0)"  stroke-width="2.0"/>
<line x1="226.2" y1="100.0" x2="260.9" y2="80.0" stroke="rgb(0,0,0)"  stroke-width="2.0"/>
<line x1="235.0" y1="103.2" x2="259.3" y2="89.2" stroke="rgb(0,0,0)"  stroke-width="2.0"/>
<line x1="260.9" y1="80.0" x2="295.5" y2="100.0" stroke="rgb(0,0,0)"  stroke-width="2.0"/>
<line x1="295.5" y1="100.0" x2="295.5" y2="140.0" stroke="rgb(0,0,0)"  stroke-width="2.0"/>
<line x1="288.3" y1="106.0" x2="288.3" y2="134.0" stroke="rgb(0,0,0)"  stroke-width="2.0"/>
<line x1="295.5" y1="140.0" x2="260.9" y2="160.0" stroke="rgb(0,0,0)"  stroke-width="2.0"/>
<line x1="226.2" y1="140.0" x2="226.2" y2="100.0" stroke="rgb(0,0,0)"  stroke-width="2.0"/>
<line x1="259.8" y1="268.0" x2="220.0" y2="272.2" stroke="rgb(0,0,0)"  stroke-width="2.0"/>
<line x1="253.1" y1="261.5" x2="225.2" y2="264.4" stroke="rgb(0,0,0)"  stroke-width="2.0"/>
<line x1="220.0" y1="272.2" x2="196.5" y2="239.8" stroke="rgb(0,0,0)"  stroke-width="2.0"/>
<line x1="196.5" y1="239.8" x2="212.8" y2="203.3" stroke="rgb(0,0,0)"  stroke-width="2.0"/>
<line x1="205.5" y1="237.3" x2="216.9" y2="211.7" stroke="rgb(0,0,0)"  stroke-width="2.0"/>
<line x1="252.6" y1="199.1" x2="276.1" y2="231.5" stroke="rgb(0,0,0)"  stroke-width="2.0"/>
<line x1="250.3" y1="208.2" x2="266.7" y2="230.9" stroke="rgb(0,0,0)"  stroke-width="2.0"/>
<line x1="276.1" y1="231.5" x2="259.8" y2="268.0" stroke="rgb(0,0,0)"  stroke-width="2.0"/>
<text x="324.152458" y="168.000000" fill="rgb(191,191,191)"  stroke="rgb(191,191,191)" stroke-width="1" font-size="16" >H</text>
<text x="200.697009" y="171.453190" fill="rgb(191,191,191)"  stroke="rgb(191,191,191)" stroke-width="1" font-size="16" >H</text>
<text x="123.528844" y="175.497402" fill="rgb(191,191,191)"  stroke="rgb(191,191,191)" stroke-width="1" font-size="16" >H</text>
<text x="187.376108" y="259.898391" fill="rgb(191,191,191)"  stroke="rgb(191,191,191)" stroke-width="1" font-size="16" >H</text>
<text x="252.183593" y="217.811918" fill="rgb(191,191,191)"  stroke="rgb(191,191,191)" stroke-width="1" font-size="16" >H</text>
<text x="225.418369" y="247.537711" fill="rgb(191,191,191)"  stroke="rgb(191,191,191)" stroke-width="1" font-size="16" >H</text>
<text x="221.374157" y="170.369547" fill="rgb(191,191,191)"  stroke="rgb(191,191,191)" stroke-width="1" font-size="16" >H</text>
<text x="58.721360" y="217.583875" fill="rgb(191,191,191)"  stroke="rgb(191,191,191)" stroke-width="1" font-size="16" >H</text>
<text x="34.000000" y="141.499354" fill="rgb(191,191,191)"  stroke="rgb(191,191,191)" stroke-width="1" font-size="16" >H</text>
<text x="87.530449" y="82.047768" fill="rgb(191,191,191)"  stroke="rgb(191,191,191)" stroke-width="1" font-size="16" >H</text>
<text x="165.782257" y="98.680703" fill="rgb(191,191,191)"  stroke="rgb(191,191,191)" stroke-width="1" font-size="16" >H</text>
<text x="185.588393" y="88.000000" fill="rgb(191,191,191)"  stroke="rgb(191,191,191)" stroke-width="1" font-size="16" >H</text>
<text x="254.870425" y="48.000000" fill="rgb(191,191,191)"  stroke="rgb(191,191,191)" stroke-width="1" font-size="16" >H</text>
<text x="324.152458" y="88.000000" fill="rgb(191,191,191)"  stroke="rgb(191,191,191)" stroke-width="1" font-size="16" >H</text>
<text x="170.971216" y="144.687966" fill="rgb(191,191,191)"  stroke="rgb(191,191,191)" stroke-width="1" font-size="16" >H</text>
<text x="150.722740" y="252.029999" fill="rgb(191,191,191)"  stroke="rgb(191,191,191)" stroke-width="1" font-size="16" >H</text>
<text x="197.745560" y="316.751359" fill="rgb(191,191,191)"  stroke="rgb(191,191,191)" stroke-width="1" font-size="16" >H</text>
<text x="277.307312" y="308.389082" fill="rgb(191,191,191)"  stroke="rgb(191,191,191)" stroke-width="1" font-size="16" >H</text>
<text x="309.846244" y="235.305445" fill="rgb(191,191,191)"  stroke="rgb(191,191,191)" stroke-width="1" font-size="16" >H</text>
<text x="111.291587" y="284.619751" fill="rgb(191,191,191)"  stroke="rgb(191,191,191)" stroke-width="1" font-size="16" >H</text>
<text x="226.502012" y="268.214859" fill="rgb(191,191,191)"  stroke="rgb(191,191,191)" stroke-width="1" font-size="16" >H</text>
<text x="199.736788" y="297.940652" fill="rgb(191,191,191)"  stroke="rgb(191,191,191)" stroke-width="1" font-size="16" >H</text>
<text x="195.692576" y="220.772487" fill="rgb(191,191,191)"  stroke="rgb(191,191,191)" stroke-width="1" font-size="16" >H</text>
<text x="153.378060" y="349.427236" fill="rgb(191,191,191)"  stroke="rgb(191,191,191)" stroke-width="1" font-size="16" >H</text>
<text x="123.652267" y="322.662011" fill="rgb(191,191,191)"  stroke="rgb(191,191,191)" stroke-width="1" font-size="16" >H</text>
<text x="200.820431" y="318.617799" fill="rgb(191,191,191)"  stroke="rgb(191,191,191)" stroke-width="1" font-size="16" >H</text>
<text x="98.930907" y="246.577490" fill="rgb(191,191,191)"  stroke="rgb(191,191,191)" stroke-width="1" font-size="16" >H</text>
<text x="136.973168" y="234.216810" fill="rgb(255,127,0)"  stroke="rgb(255,127,0)" stroke-width="1" font-size="16" >P</text>
<text x="190.503616" y="174.765224" fill="rgb(12,12,255)"  stroke="rgb(12,12,255)" stroke-width="1" font-size="16" >N</text>
</svg>
</g>
<text font-size="18.000000" fill ="black" font-family="sans-serif"
x="10.000000" y="20.000000" >ZINC71773602</text>
</svg>
