<?xml version="1.0"?>
<svg version="1.1" id="topsvg"
xmlns="http://www.w3.org/2000/svg" xmlns:xlink="http://www.w3.org/1999/xlink"
xmlns:cml="http://www.xml-cml.org/schema" x="0" y="0" width="200px" height="200px" viewBox="0 0 100 100">
<title>ZINC01765039 - Open Babel Depiction</title>
<rect x="0" y="0" width="100" height="100" fill="white"/>
<g transform="translate(0,0)">
<svg width="100" height="100" x="0" y="0" viewBox="0 0 348.363 359.909"
font-family="sans-serif" stroke="rgb(0,0,0)" stroke-width="2"  stroke-linecap="round">
<line x1="242.5" y1="249.0" x2="204.5" y2="249.0" stroke="rgb(0,0,0)"  stroke-width="2.0"/>
<line x1="242.5" y1="249.0" x2="264.2" y2="236.5" stroke="rgb(0,0,0)"  stroke-width="2.0"/>
<line x1="242.5" y1="249.0" x2="242.5" y2="224.0" stroke="rgb(0,0,0)"  stroke-width="2.0"/>
<line x1="242.5" y1="249.0" x2="255.0" y2="270.7" stroke="rgb(0,0,0)"  stroke-width="2.0"/>
<line x1="204.5" y1="249.0" x2="204.5" y2="287.0" stroke="rgb(0,0,0)"  stroke-width="2.0"/>
<line x1="204.5" y1="249.0" x2="166.5" y2="249.0" stroke="rgb(0,0,0)"  stroke-width="2.0"/>
<line x1="204.5" y1="249.0" x2="204.5" y2="186.0" stroke="rgb(0,0,0)"  stroke-width="2.0"/>
<line x1="204.5" y1="287.0" x2="192.0" y2="308.7" stroke="rgb(0,0,0)"  stroke-width="2.0"/>
<line x1="204.5" y1="287.0" x2="179.5" y2="287.0" stroke="rgb(0,0,0)"  stroke-width="2.0"/>
<line x1="204.5" y1="287.0" x2="226.2" y2="299.5" stroke="rgb(0,0,0)"  stroke-width="2.0"/>
<line x1="166.5" y1="249.0" x2="144.9" y2="236.5" stroke="rgb(0,0,0)"  stroke-width="2.0"/>
<line x1="166.5" y1="249.0" x2="166.5" y2="224.0" stroke="rgb(0,0,0)"  stroke-width="2.0"/>
<line x1="166.5" y1="249.0" x2="154.0" y2="270.7" stroke="rgb(0,0,0)"  stroke-width="2.0"/>
<line x1="193.3" y1="166.5" x2="138.7" y2="135.0" stroke="rgb(0,0,0)"  stroke-width="2.0"/>
<line x1="215.8" y1="166.5" x2="237.5" y2="154.0" stroke="rgb(0,0,0)"  stroke-width="2.0"/>
<line x1="105.8" y1="154.0" x2="105.8" y2="179.0" stroke="rgb(0,0,0)"  stroke-width="2.0"/>
<line x1="72.9" y1="135.0" x2="51.3" y2="147.5" stroke="rgb(0,0,0)"  stroke-width="2.0"/>
<line x1="72.9" y1="97.0" x2="51.3" y2="84.5" stroke="rgb(0,0,0)"  stroke-width="2.0"/>
<line x1="105.8" y1="78.0" x2="105.8" y2="53.0" stroke="rgb(0,0,0)"  stroke-width="2.0"/>
<line x1="138.7" y1="97.0" x2="160.4" y2="84.5" stroke="rgb(0,0,0)"  stroke-width="2.0"/>
<line x1="237.5" y1="154.0" x2="218.5" y2="121.1" stroke="rgb(0,0,0)"  stroke-width="2.0"/>
<line x1="237.5" y1="154.0" x2="270.4" y2="135.0" stroke="rgb(0,0,0)"  stroke-width="2.0"/>
<line x1="237.5" y1="154.0" x2="256.5" y2="186.9" stroke="rgb(0,0,0)"  stroke-width="2.0"/>
<line x1="218.5" y1="121.1" x2="196.8" y2="108.6" stroke="rgb(0,0,0)"  stroke-width="2.0"/>
<line x1="218.5" y1="121.1" x2="196.8" y2="133.6" stroke="rgb(0,0,0)"  stroke-width="2.0"/>
<line x1="218.5" y1="121.1" x2="231.0" y2="99.4" stroke="rgb(0,0,0)"  stroke-width="2.0"/>
<line x1="270.4" y1="135.0" x2="295.4" y2="135.0" stroke="rgb(0,0,0)"  stroke-width="2.0"/>
<line x1="270.4" y1="135.0" x2="282.9" y2="156.7" stroke="rgb(0,0,0)"  stroke-width="2.0"/>
<line x1="270.4" y1="135.0" x2="270.4" y2="110.0" stroke="rgb(0,0,0)"  stroke-width="2.0"/>
<line x1="256.5" y1="186.9" x2="256.5" y2="211.9" stroke="rgb(0,0,0)"  stroke-width="2.0"/>
<line x1="256.5" y1="186.9" x2="234.8" y2="199.4" stroke="rgb(0,0,0)"  stroke-width="2.0"/>
<line x1="256.5" y1="186.9" x2="281.5" y2="186.9" stroke="rgb(0,0,0)"  stroke-width="2.0"/>
<line x1="72.9" y1="135.0" x2="72.9" y2="97.0" stroke="rgb(0,0,0)"  stroke-width="2.0"/>
<line x1="72.9" y1="97.0" x2="105.8" y2="78.0" stroke="rgb(0,0,0)"  stroke-width="2.0"/>
<line x1="81.7" y1="100.2" x2="104.2" y2="87.2" stroke="rgb(0,0,0)"  stroke-width="2.0"/>
<line x1="105.8" y1="78.0" x2="138.7" y2="97.0" stroke="rgb(0,0,0)"  stroke-width="2.0"/>
<line x1="138.7" y1="97.0" x2="138.7" y2="135.0" stroke="rgb(0,0,0)"  stroke-width="2.0"/>
<line x1="131.5" y1="103.0" x2="131.5" y2="129.0" stroke="rgb(0,0,0)"  stroke-width="2.0"/>
<line x1="138.7" y1="135.0" x2="105.8" y2="154.0" stroke="rgb(0,0,0)"  stroke-width="2.0"/>
<line x1="105.8" y1="154.0" x2="72.9" y2="135.0" stroke="rgb(0,0,0)"  stroke-width="2.0"/>
<line x1="104.2" y1="144.8" x2="81.7" y2="131.8" stroke="rgb(0,0,0)"  stroke-width="2.0"/>
<text x="179.544827" y="110.091035" fill="rgb(191,191,191)"  stroke="rgb(191,191,191)" stroke-width="1" font-size="16" >H</text>
<text x="231.453792" y="314.000000" fill="rgb(191,191,191)"  stroke="rgb(191,191,191)" stroke-width="1" font-size="16" >H</text>
<text x="127.635861" y="238.000000" fill="rgb(191,191,191)"  stroke="rgb(191,191,191)" stroke-width="1" font-size="16" >H</text>
<text x="160.544827" y="219.000000" fill="rgb(191,191,191)"  stroke="rgb(191,191,191)" stroke-width="1" font-size="16" >H</text>
<text x="141.544827" y="289.908965" fill="rgb(191,191,191)"  stroke="rgb(191,191,191)" stroke-width="1" font-size="16" >H</text>
<text x="99.817931" y="200.000000" fill="rgb(191,191,191)"  stroke="rgb(191,191,191)" stroke-width="1" font-size="16" >H</text>
<text x="34.000000" y="162.000000" fill="rgb(191,191,191)"  stroke="rgb(191,191,191)" stroke-width="1" font-size="16" >H</text>
<text x="34.000000" y="86.000000" fill="rgb(191,191,191)"  stroke="rgb(191,191,191)" stroke-width="1" font-size="16" >H</text>
<text x="99.817931" y="48.000000" fill="rgb(191,191,191)"  stroke="rgb(191,191,191)" stroke-width="1" font-size="16" >H</text>
<text x="165.635861" y="86.000000" fill="rgb(191,191,191)"  stroke="rgb(191,191,191)" stroke-width="1" font-size="16" >H</text>
<text x="160.544827" y="295.000000" fill="rgb(191,191,191)"  stroke="rgb(191,191,191)" stroke-width="1" font-size="16" >H</text>
<text x="179.544827" y="148.091035" fill="rgb(191,191,191)"  stroke="rgb(191,191,191)" stroke-width="1" font-size="16" >H</text>
<text x="231.453792" y="96.182069" fill="rgb(191,191,191)"  stroke="rgb(191,191,191)" stroke-width="1" font-size="16" >H</text>
<text x="302.362757" y="143.000000" fill="rgb(191,191,191)"  stroke="rgb(191,191,191)" stroke-width="1" font-size="16" >H</text>
<text x="283.362757" y="175.908965" fill="rgb(191,191,191)"  stroke="rgb(191,191,191)" stroke-width="1" font-size="16" >H</text>
<text x="264.362757" y="105.000000" fill="rgb(191,191,191)"  stroke="rgb(191,191,191)" stroke-width="1" font-size="16" >H</text>
<text x="250.453792" y="232.908965" fill="rgb(191,191,191)"  stroke="rgb(191,191,191)" stroke-width="1" font-size="16" >H</text>
<text x="217.544827" y="213.908965" fill="rgb(191,191,191)"  stroke="rgb(191,191,191)" stroke-width="1" font-size="16" >H</text>
<text x="288.453792" y="194.908965" fill="rgb(191,191,191)"  stroke="rgb(191,191,191)" stroke-width="1" font-size="16" >H</text>
<text x="198.544827" y="181.000000" fill="rgb(255,127,0)"  stroke="rgb(255,127,0)" stroke-width="1" font-size="16" >P</text>
<text x="269.453792" y="238.000000" fill="rgb(191,191,191)"  stroke="rgb(191,191,191)" stroke-width="1" font-size="16" >H</text>
<text x="236.544827" y="219.000000" fill="rgb(191,191,191)"  stroke="rgb(191,191,191)" stroke-width="1" font-size="16" >H</text>
<text x="255.544827" y="289.908965" fill="rgb(191,191,191)"  stroke="rgb(191,191,191)" stroke-width="1" font-size="16" >H</text>
<text x="179.544827" y="327.908965" fill="rgb(191,191,191)"  stroke="rgb(191,191,191)" stroke-width="1" font-size="16" >H</text>
</svg>
</g>
<text font-size="18.000000" fill ="black" font-family="sans-serif"
x="10.000000" y="20.000000" >ZINC01765039</text>
</svg>
