<?xml version="1.0"?>
<svg version="1.1" id="topsvg"
xmlns="http://www.w3.org/2000/svg" xmlns:xlink="http://www.w3.org/1999/xlink"
xmlns:cml="http://www.xml-cml.org/schema" x="0" y="0" width="200px" height="200px" viewBox="0 0 100 100">
<title>ZINC98229665 - Open Babel Depiction</title>
<rect x="0" y="0" width="100" height="100" fill="white"/>
<g transform="translate(0,0)">
<svg width="100" height="100" x="0" y="0" viewBox="0 0 334.641 298.564"
font-family="sans-serif" stroke="rgb(0,0,0)" stroke-width="2"  stroke-linecap="round">
<line x1="194.6" y1="114.6" x2="214.6" y2="80.0" stroke="rgb(0,0,0)"  stroke-width="2.0"/>
<line x1="194.6" y1="114.6" x2="154.6" y2="114.6" stroke="rgb(0,0,0)"  stroke-width="2.0"/>
<line x1="194.6" y1="114.6" x2="194.6" y2="141.6" stroke="rgb(0,0,0)"  stroke-width="2.0"/>
<line x1="194.6" y1="114.6" x2="218.0" y2="128.1" stroke="rgb(0,0,0)"  stroke-width="2.0"/>
<line x1="214.6" y1="80.0" x2="241.6" y2="80.0" stroke="rgb(0,0,0)"  stroke-width="2.0"/>
<line x1="214.6" y1="80.0" x2="214.6" y2="53.0" stroke="rgb(0,0,0)"  stroke-width="2.0"/>
<line x1="214.6" y1="80.0" x2="191.3" y2="66.5" stroke="rgb(0,0,0)"  stroke-width="2.0"/>
<line x1="257.6" y1="93.0" x2="257.6" y2="107.0" stroke="rgb(0,0,0)"  stroke-width="2.0"/>
<line x1="251.6" y1="93.0" x2="251.6" y2="107.0" stroke="rgb(0,0,0)"  stroke-width="2.0"/>
<line x1="267.6" y1="80.0" x2="281.6" y2="80.0" stroke="rgb(0,0,0)"  stroke-width="2.0"/>
<line x1="254.6" y1="67.0" x2="254.6" y2="53.0" stroke="rgb(0,0,0)"  stroke-width="2.0"/>
<line x1="154.6" y1="114.6" x2="134.6" y2="149.3" stroke="rgb(0,0,0)"  stroke-width="2.0"/>
<line x1="154.6" y1="114.6" x2="131.3" y2="101.1" stroke="rgb(0,0,0)"  stroke-width="2.0"/>
<line x1="154.6" y1="114.6" x2="154.6" y2="87.6" stroke="rgb(0,0,0)"  stroke-width="2.0"/>
<line x1="134.6" y1="149.3" x2="94.6" y2="149.3" stroke="rgb(0,0,0)"  stroke-width="2.0"/>
<line x1="134.6" y1="149.3" x2="134.6" y2="176.3" stroke="rgb(0,0,0)"  stroke-width="2.0"/>
<line x1="134.6" y1="149.3" x2="158.0" y2="162.8" stroke="rgb(0,0,0)"  stroke-width="2.0"/>
<line x1="94.6" y1="149.3" x2="74.6" y2="183.9" stroke="rgb(0,0,0)"  stroke-width="2.0"/>
<line x1="94.6" y1="149.3" x2="71.3" y2="135.8" stroke="rgb(0,0,0)"  stroke-width="2.0"/>
<line x1="94.6" y1="149.3" x2="94.6" y2="122.3" stroke="rgb(0,0,0)"  stroke-width="2.0"/>
<line x1="74.6" y1="183.9" x2="94.6" y2="218.6" stroke="rgb(0,0,0)"  stroke-width="2.0"/>
<line x1="74.6" y1="183.9" x2="51.3" y2="197.4" stroke="rgb(0,0,0)"  stroke-width="2.0"/>
<line x1="74.6" y1="183.9" x2="51.3" y2="170.4" stroke="rgb(0,0,0)"  stroke-width="2.0"/>
<line x1="94.6" y1="218.6" x2="134.6" y2="218.6" stroke="rgb(0,0,0)"  stroke-width="2.0"/>
<line x1="94.6" y1="218.6" x2="94.6" y2="245.6" stroke="rgb(0,0,0)"  stroke-width="2.0"/>
<line x1="94.6" y1="218.6" x2="71.3" y2="232.1" stroke="rgb(0,0,0)"  stroke-width="2.0"/>
<line x1="134.6" y1="218.6" x2="158.0" y2="232.1" stroke="rgb(0,0,0)"  stroke-width="2.0"/>
<line x1="134.6" y1="218.6" x2="134.6" y2="245.6" stroke="rgb(0,0,0)"  stroke-width="2.0"/>
<line x1="134.6" y1="218.6" x2="148.1" y2="195.2" stroke="rgb(0,0,0)"  stroke-width="2.0"/>
<text x="148.641016" y="191.923048" fill="rgb(127,178,255)"  stroke="rgb(127,178,255)" stroke-width="1" font-size="16" >F</text>
<text x="174.000000" y="68.000000" fill="rgb(191,191,191)"  stroke="rgb(191,191,191)" stroke-width="1" font-size="16" >H</text>
<text x="208.641016" y="48.000000" fill="rgb(191,191,191)"  stroke="rgb(191,191,191)" stroke-width="1" font-size="16" >H</text>
<text x="223.282032" y="142.641016" fill="rgb(191,191,191)"  stroke="rgb(191,191,191)" stroke-width="1" font-size="16" >H</text>
<text x="188.641016" y="162.641016" fill="rgb(191,191,191)"  stroke="rgb(191,191,191)" stroke-width="1" font-size="16" >H</text>
<text x="148.641016" y="82.641016" fill="rgb(127,178,255)"  stroke="rgb(127,178,255)" stroke-width="1" font-size="16" >F</text>
<text x="114.000000" y="102.641016" fill="rgb(127,178,255)"  stroke="rgb(127,178,255)" stroke-width="1" font-size="16" >F</text>
<text x="163.282032" y="177.282032" fill="rgb(127,178,255)"  stroke="rgb(127,178,255)" stroke-width="1" font-size="16" >F</text>
<text x="128.641016" y="197.282032" fill="rgb(127,178,255)"  stroke="rgb(127,178,255)" stroke-width="1" font-size="16" >F</text>
<text x="88.641016" y="117.282032" fill="rgb(127,178,255)"  stroke="rgb(127,178,255)" stroke-width="1" font-size="16" >F</text>
<text x="54.000000" y="137.282032" fill="rgb(127,178,255)"  stroke="rgb(127,178,255)" stroke-width="1" font-size="16" >F</text>
<text x="34.000000" y="171.923048" fill="rgb(127,178,255)"  stroke="rgb(127,178,255)" stroke-width="1" font-size="16" >F</text>
<text x="34.000000" y="211.923048" fill="rgb(127,178,255)"  stroke="rgb(127,178,255)" stroke-width="1" font-size="16" >F</text>
<text x="54.000000" y="246.564065" fill="rgb(127,178,255)"  stroke="rgb(127,178,255)" stroke-width="1" font-size="16" >F</text>
<text x="88.641016" y="266.564065" fill="rgb(127,178,255)"  stroke="rgb(127,178,255)" stroke-width="1" font-size="16" >F</text>
<text x="128.641016" y="266.564065" fill="rgb(127,178,255)"  stroke="rgb(127,178,255)" stroke-width="1" font-size="16" >F</text>
<text x="163.282032" y="246.564065" fill="rgb(127,178,255)"  stroke="rgb(127,178,255)" stroke-width="1" font-size="16" >F</text>
<text x="248.641016" y="48.000000" fill="rgb(255,12,12)"  stroke="rgb(255,12,12)" stroke-width="1" font-size="16" >OH</text>
<text x="288.641016" y="88.000000" fill="rgb(255,12,12)"  stroke="rgb(255,12,12)" stroke-width="1" font-size="16" >OH</text>
<text x="248.641016" y="128.000000" fill="rgb(255,12,12)"  stroke="rgb(255,12,12)" stroke-width="1" font-size="16" >O</text>
<text x="248.641016" y="88.000000" fill="rgb(255,127,0)"  stroke="rgb(255,127,0)" stroke-width="1" font-size="16" >P</text>
</svg>
</g>
<text font-size="18.000000" fill ="black" font-family="sans-serif"
x="10.000000" y="20.000000" >ZINC98229665</text>
</svg>
