<?xml version="1.0"?>
<svg version="1.1" id="topsvg"
xmlns="http://www.w3.org/2000/svg" xmlns:xlink="http://www.w3.org/1999/xlink"
xmlns:cml="http://www.xml-cml.org/schema" x="0" y="0" width="200px" height="200px" viewBox="0 0 100 100">
<title>ZINC01421749 - Open Babel Depiction</title>
<rect x="0" y="0" width="100" height="100" fill="white"/>
<g transform="translate(0,0)">
<svg width="100" height="100" x="0" y="0" viewBox="0 0 402.188 273.352"
font-family="sans-serif" stroke="rgb(0,0,0)" stroke-width="2"  stroke-linecap="round">
<line x1="243.9" y1="68.7" x2="255.8" y2="105.4" stroke="rgb(0,0,0)"  stroke-width="2.0"/>
<line x1="243.9" y1="68.7" x2="224.8" y2="51.6" stroke="rgb(0,0,0)"  stroke-width="2.0"/>
<line x1="243.9" y1="68.7" x2="219.5" y2="76.6" stroke="rgb(0,0,0)"  stroke-width="2.0"/>
<line x1="243.9" y1="68.7" x2="261.0" y2="49.7" stroke="rgb(0,0,0)"  stroke-width="2.0"/>
<line x1="233.1" y1="136.7" x2="155.9" y2="136.7" stroke="rgb(0,0,0)"  stroke-width="2.0"/>
<line x1="255.8" y1="167.9" x2="247.9" y2="192.3" stroke="rgb(0,0,0)"  stroke-width="2.0"/>
<line x1="303.1" y1="163.6" x2="323.8" y2="178.7" stroke="rgb(0,0,0)"  stroke-width="2.0"/>
<line x1="323.8" y1="178.7" x2="349.3" y2="181.4" stroke="rgb(0,0,0)"  stroke-width="2.0"/>
<line x1="323.8" y1="178.7" x2="338.8" y2="158.0" stroke="rgb(0,0,0)"  stroke-width="2.0"/>
<line x1="323.8" y1="178.7" x2="321.1" y2="204.2" stroke="rgb(0,0,0)"  stroke-width="2.0"/>
<line x1="231.2" y1="207.4" x2="218.8" y2="210.0" stroke="rgb(0,0,0)"  stroke-width="2.0"/>
<line x1="252.6" y1="214.3" x2="261.0" y2="223.7" stroke="rgb(0,0,0)"  stroke-width="2.0"/>
<line x1="136.6" y1="103.2" x2="149.4" y2="81.0" stroke="rgb(0,0,0)"  stroke-width="2.0"/>
<line x1="97.9" y1="103.2" x2="85.1" y2="81.0" stroke="rgb(0,0,0)"  stroke-width="2.0"/>
<line x1="78.6" y1="136.7" x2="53.0" y2="136.7" stroke="rgb(0,0,0)"  stroke-width="2.0"/>
<line x1="97.9" y1="170.1" x2="85.1" y2="192.3" stroke="rgb(0,0,0)"  stroke-width="2.0"/>
<line x1="136.6" y1="170.1" x2="149.4" y2="192.3" stroke="rgb(0,0,0)"  stroke-width="2.0"/>
<line x1="255.8" y1="167.9" x2="280.2" y2="160.0" stroke="rgb(0,0,0)"  stroke-width="2.0"/>
<line x1="292.5" y1="143.0" x2="292.5" y2="130.4" stroke="rgb(0,0,0)"  stroke-width="2.0"/>
<line x1="280.4" y1="113.4" x2="255.8" y2="105.4" stroke="rgb(0,0,0)"  stroke-width="2.0"/>
<line x1="276.2" y1="119.6" x2="259.3" y2="114.1" stroke="rgb(0,0,0)"  stroke-width="2.0"/>
<line x1="255.8" y1="105.4" x2="233.1" y2="136.7" stroke="rgb(0,0,0)"  stroke-width="2.0"/>
<line x1="233.1" y1="136.7" x2="255.8" y2="167.9" stroke="rgb(0,0,0)"  stroke-width="2.0"/>
<line x1="242.5" y1="137.3" x2="258.1" y2="158.8" stroke="rgb(0,0,0)"  stroke-width="2.0"/>
<line x1="97.9" y1="103.2" x2="78.6" y2="136.7" stroke="rgb(0,0,0)"  stroke-width="2.0"/>
<line x1="78.6" y1="136.7" x2="97.9" y2="170.1" stroke="rgb(0,0,0)"  stroke-width="2.0"/>
<line x1="87.9" y1="138.3" x2="101.2" y2="161.3" stroke="rgb(0,0,0)"  stroke-width="2.0"/>
<line x1="97.9" y1="170.1" x2="136.6" y2="170.1" stroke="rgb(0,0,0)"  stroke-width="2.0"/>
<line x1="136.6" y1="170.1" x2="155.9" y2="136.7" stroke="rgb(0,0,0)"  stroke-width="2.0"/>
<line x1="133.3" y1="161.3" x2="146.6" y2="138.3" stroke="rgb(0,0,0)"  stroke-width="2.0"/>
<line x1="155.9" y1="136.7" x2="136.6" y2="103.2" stroke="rgb(0,0,0)"  stroke-width="2.0"/>
<line x1="136.6" y1="103.2" x2="97.9" y2="103.2" stroke="rgb(0,0,0)"  stroke-width="2.0"/>
<line x1="130.6" y1="110.4" x2="103.9" y2="110.4" stroke="rgb(0,0,0)"  stroke-width="2.0"/>
<text x="149.862069" y="211.569015" fill="rgb(191,191,191)"  stroke="rgb(191,191,191)" stroke-width="1" font-size="16" >H</text>
<text x="72.620690" y="211.569015" fill="rgb(191,191,191)"  stroke="rgb(191,191,191)" stroke-width="1" font-size="16" >H</text>
<text x="34.000000" y="144.676018" fill="rgb(191,191,191)"  stroke="rgb(191,191,191)" stroke-width="1" font-size="16" >H</text>
<text x="72.620690" y="77.783022" fill="rgb(191,191,191)"  stroke="rgb(191,191,191)" stroke-width="1" font-size="16" >H</text>
<text x="149.862069" y="77.783022" fill="rgb(191,191,191)"  stroke="rgb(191,191,191)" stroke-width="1" font-size="16" >H</text>
<text x="263.711956" y="241.352037" fill="rgb(191,191,191)"  stroke="rgb(191,191,191)" stroke-width="1" font-size="16" >H</text>
<text x="200.092936" y="220.680964" fill="rgb(191,191,191)"  stroke="rgb(191,191,191)" stroke-width="1" font-size="16" >H</text>
<text x="313.742412" y="225.096157" fill="rgb(191,191,191)"  stroke="rgb(191,191,191)" stroke-width="1" font-size="16" >H</text>
<text x="340.480045" y="155.442241" fill="rgb(191,191,191)"  stroke="rgb(191,191,191)" stroke-width="1" font-size="16" >H</text>
<text x="356.188494" y="190.723996" fill="rgb(191,191,191)"  stroke="rgb(191,191,191)" stroke-width="1" font-size="16" >H</text>
<text x="263.711956" y="48.000000" fill="rgb(191,191,191)"  stroke="rgb(191,191,191)" stroke-width="1" font-size="16" >H</text>
<text x="201.139212" y="88.635215" fill="rgb(191,191,191)"  stroke="rgb(191,191,191)" stroke-width="1" font-size="16" >H</text>
<text x="209.168905" y="50.858480" fill="rgb(191,191,191)"  stroke="rgb(191,191,191)" stroke-width="1" font-size="16" >H</text>
<text x="237.869671" y="212.651271" fill="rgb(12,12,255)"  stroke="rgb(12,12,255)" stroke-width="1" font-size="16" >N</text>
<text x="286.534579" y="125.365674" fill="rgb(12,12,255)"  stroke="rgb(12,12,255)" stroke-width="1" font-size="16" >N</text>
<text x="286.534579" y="163.986363" fill="rgb(12,12,255)"  stroke="rgb(12,12,255)" stroke-width="1" font-size="16" >N</text>
</svg>
</g>
<text font-size="18.000000" fill ="black" font-family="sans-serif"
x="10.000000" y="20.000000" >ZINC01421749</text>
</svg>
