<?xml version="1.0"?>
<svg version="1.1" id="topsvg"
xmlns="http://www.w3.org/2000/svg" xmlns:xlink="http://www.w3.org/1999/xlink"
xmlns:cml="http://www.xml-cml.org/schema" x="0" y="0" width="200px" height="200px" viewBox="0 0 100 100">
<title>ZINC12370275 - Open Babel Depiction</title>
<rect x="0" y="0" width="100" height="100" fill="white"/>
<g transform="translate(0,0)">
<svg width="100" height="100" x="0" y="0" viewBox="0 0 378.497 248.38"
font-family="sans-serif" stroke="rgb(0,0,0)" stroke-width="2"  stroke-linecap="round">
<line x1="305.2" y1="112.4" x2="327.2" y2="99.7" stroke="rgb(0,0,0)"  stroke-width="2.0"/>
<line x1="272.0" y1="93.2" x2="272.0" y2="67.8" stroke="rgb(0,0,0)"  stroke-width="2.0"/>
<line x1="238.7" y1="112.4" x2="172.2" y2="74.0" stroke="rgb(0,0,0)"  stroke-width="2.0"/>
<line x1="238.7" y1="150.8" x2="216.7" y2="163.5" stroke="rgb(0,0,0)"  stroke-width="2.0"/>
<line x1="272.0" y1="170.0" x2="272.0" y2="195.4" stroke="rgb(0,0,0)"  stroke-width="2.0"/>
<line x1="305.2" y1="150.8" x2="327.2" y2="163.5" stroke="rgb(0,0,0)"  stroke-width="2.0"/>
<line x1="172.2" y1="74.0" x2="150.2" y2="86.7" stroke="rgb(0,0,0)"  stroke-width="2.0"/>
<line x1="172.2" y1="74.0" x2="184.9" y2="52.0" stroke="rgb(0,0,0)"  stroke-width="2.0"/>
<line x1="172.2" y1="74.0" x2="159.5" y2="52.0" stroke="rgb(0,0,0)"  stroke-width="2.0"/>
<line x1="103.9" y1="77.6" x2="98.6" y2="52.7" stroke="rgb(0,0,0)"  stroke-width="2.0"/>
<line x1="78.2" y1="106.1" x2="52.9" y2="103.4" stroke="rgb(0,0,0)"  stroke-width="2.0"/>
<line x1="135.0" y1="131.4" x2="153.8" y2="148.4" stroke="rgb(0,0,0)"  stroke-width="2.0"/>
<line x1="92.1" y1="151.2" x2="87.1" y2="162.6" stroke="rgb(0,0,0)"  stroke-width="2.0"/>
<line x1="78.2" y1="106.1" x2="90.9" y2="128.1" stroke="rgb(0,0,0)"  stroke-width="2.0"/>
<line x1="109.8" y1="136.7" x2="135.0" y2="131.4" stroke="rgb(0,0,0)"  stroke-width="2.0"/>
<line x1="110.4" y1="129.2" x2="127.6" y2="125.6" stroke="rgb(0,0,0)"  stroke-width="2.0"/>
<line x1="135.0" y1="131.4" x2="137.6" y2="106.1" stroke="rgb(0,0,0)"  stroke-width="2.0"/>
<line x1="127.1" y1="87.9" x2="103.9" y2="77.6" stroke="rgb(0,0,0)"  stroke-width="2.0"/>
<line x1="103.9" y1="77.6" x2="78.2" y2="106.1" stroke="rgb(0,0,0)"  stroke-width="2.0"/>
<line x1="105.2" y1="86.8" x2="87.6" y2="106.5" stroke="rgb(0,0,0)"  stroke-width="2.0"/>
<line x1="238.7" y1="112.4" x2="238.7" y2="150.8" stroke="rgb(0,0,0)"  stroke-width="2.0"/>
<line x1="238.7" y1="150.8" x2="272.0" y2="170.0" stroke="rgb(0,0,0)"  stroke-width="2.0"/>
<line x1="247.5" y1="147.5" x2="270.4" y2="160.7" stroke="rgb(0,0,0)"  stroke-width="2.0"/>
<line x1="272.0" y1="170.0" x2="305.2" y2="150.8" stroke="rgb(0,0,0)"  stroke-width="2.0"/>
<line x1="305.2" y1="150.8" x2="305.2" y2="112.4" stroke="rgb(0,0,0)"  stroke-width="2.0"/>
<line x1="298.0" y1="144.8" x2="298.0" y2="118.4" stroke="rgb(0,0,0)"  stroke-width="2.0"/>
<line x1="305.2" y1="112.4" x2="272.0" y2="93.2" stroke="rgb(0,0,0)"  stroke-width="2.0"/>
<line x1="272.0" y1="93.2" x2="238.7" y2="112.4" stroke="rgb(0,0,0)"  stroke-width="2.0"/>
<line x1="270.4" y1="102.4" x2="247.5" y2="115.6" stroke="rgb(0,0,0)"  stroke-width="2.0"/>
<text x="75.770954" y="182.433150" fill="rgb(191,191,191)"  stroke="rgb(191,191,191)" stroke-width="1" font-size="16" >H</text>
<text x="91.389641" y="147.353005" fill="rgb(12,12,255)"  stroke="rgb(12,12,255)" stroke-width="1" font-size="16" >N</text>
<text x="157.487270" y="165.063811" fill="rgb(191,191,191)"  stroke="rgb(191,191,191)" stroke-width="1" font-size="16" >H</text>
<text x="34.000000" y="110.083736" fill="rgb(191,191,191)"  stroke="rgb(191,191,191)" stroke-width="1" font-size="16" >H</text>
<text x="89.900447" y="48.000000" fill="rgb(191,191,191)"  stroke="rgb(191,191,191)" stroke-width="1" font-size="16" >H</text>
<text x="147.019777" y="48.724179" fill="rgb(191,191,191)"  stroke="rgb(191,191,191)" stroke-width="1" font-size="16" >H</text>
<text x="185.419777" y="48.724179" fill="rgb(191,191,191)"  stroke="rgb(191,191,191)" stroke-width="1" font-size="16" >H</text>
<text x="332.496655" y="177.979555" fill="rgb(191,191,191)"  stroke="rgb(191,191,191)" stroke-width="1" font-size="16" >H</text>
<text x="199.475153" y="177.979555" fill="rgb(191,191,191)"  stroke="rgb(191,191,191)" stroke-width="1" font-size="16" >H</text>
<text x="265.985904" y="62.779555" fill="rgb(191,191,191)"  stroke="rgb(191,191,191)" stroke-width="1" font-size="16" >H</text>
<text x="332.496655" y="101.179555" fill="rgb(191,191,191)"  stroke="rgb(191,191,191)" stroke-width="1" font-size="16" >H</text>
<text x="132.964402" y="101.179555" fill="rgb(12,12,255)"  stroke="rgb(12,12,255)" stroke-width="1" font-size="16" >N</text>
<text x="265.985904" y="216.379555" fill="rgb(165,40,40)"  stroke="rgb(165,40,40)" stroke-width="1" font-size="16" >Br</text>
</svg>
</g>
<text font-size="18.000000" fill ="black" font-family="sans-serif"
x="10.000000" y="20.000000" >ZINC12370275</text>
</svg>
