<?xml version="1.0"?>
<svg version="1.1" id="topsvg"
xmlns="http://www.w3.org/2000/svg" xmlns:xlink="http://www.w3.org/1999/xlink"
xmlns:cml="http://www.xml-cml.org/schema" x="0" y="0" width="200px" height="200px" viewBox="0 0 100 100">
<title>ZINC95616589 - Open Babel Depiction</title>
<rect x="0" y="0" width="100" height="100" fill="white"/>
<g transform="translate(0,0)">
<svg width="100" height="100" x="0" y="0" viewBox="0 0 461.065 403.307"
font-family="sans-serif" stroke="rgb(0,0,0)" stroke-width="2"  stroke-linecap="round">
<line x1="80.0" y1="83.3" x2="114.6" y2="103.3" stroke="rgb(0,0,0)"  stroke-width="2.0"/>
<line x1="80.0" y1="83.3" x2="53.0" y2="83.3" stroke="rgb(0,0,0)"  stroke-width="2.0"/>
<line x1="80.0" y1="83.3" x2="66.5" y2="106.7" stroke="rgb(0,0,0)"  stroke-width="2.0"/>
<line x1="80.0" y1="83.3" x2="80.0" y2="56.3" stroke="rgb(0,0,0)"  stroke-width="2.0"/>
<line x1="114.6" y1="103.3" x2="138.0" y2="89.8" stroke="rgb(0,0,0)"  stroke-width="2.0"/>
<line x1="114.6" y1="103.3" x2="101.1" y2="126.7" stroke="rgb(0,0,0)"  stroke-width="2.0"/>
<line x1="114.6" y1="103.3" x2="128.1" y2="126.7" stroke="rgb(0,0,0)"  stroke-width="2.0"/>
<line x1="160.5" y1="89.8" x2="183.9" y2="103.3" stroke="rgb(0,0,0)"  stroke-width="2.0"/>
<line x1="183.9" y1="103.3" x2="183.9" y2="130.3" stroke="rgb(0,0,0)"  stroke-width="2.0"/>
<line x1="182.4" y1="100.7" x2="205.8" y2="87.2" stroke="rgb(0,0,0)"  stroke-width="2.0"/>
<line x1="185.4" y1="105.9" x2="208.8" y2="92.4" stroke="rgb(0,0,0)"  stroke-width="2.0"/>
<line x1="229.8" y1="89.8" x2="253.2" y2="103.3" stroke="rgb(0,0,0)"  stroke-width="2.0"/>
<line x1="253.2" y1="143.3" x2="229.8" y2="156.8" stroke="rgb(0,0,0)"  stroke-width="2.0"/>
<line x1="287.8" y1="163.3" x2="287.8" y2="203.3" stroke="rgb(0,0,0)"  stroke-width="2.0"/>
<line x1="352.2" y1="76.5" x2="391.3" y2="84.9" stroke="rgb(0,0,0)"  stroke-width="2.0"/>
<line x1="391.3" y1="84.9" x2="411.4" y2="102.9" stroke="rgb(0,0,0)"  stroke-width="2.0"/>
<line x1="391.3" y1="84.9" x2="385.7" y2="111.3" stroke="rgb(0,0,0)"  stroke-width="2.0"/>
<line x1="391.3" y1="84.9" x2="409.4" y2="64.8" stroke="rgb(0,0,0)"  stroke-width="2.0"/>
<line x1="322.5" y1="223.3" x2="345.9" y2="209.8" stroke="rgb(0,0,0)"  stroke-width="2.0"/>
<line x1="322.5" y1="263.3" x2="345.9" y2="276.8" stroke="rgb(0,0,0)"  stroke-width="2.0"/>
<line x1="287.8" y1="283.3" x2="287.8" y2="323.3" stroke="rgb(0,0,0)"  stroke-width="2.0"/>
<line x1="253.2" y1="263.3" x2="229.8" y2="276.8" stroke="rgb(0,0,0)"  stroke-width="2.0"/>
<line x1="253.2" y1="223.3" x2="229.8" y2="209.8" stroke="rgb(0,0,0)"  stroke-width="2.0"/>
<line x1="218.6" y1="296.3" x2="218.6" y2="310.3" stroke="rgb(0,0,0)"  stroke-width="2.0"/>
<line x1="231.6" y1="320.3" x2="245.6" y2="320.3" stroke="rgb(0,0,0)"  stroke-width="2.0"/>
<line x1="231.6" y1="326.3" x2="245.6" y2="326.3" stroke="rgb(0,0,0)"  stroke-width="2.0"/>
<line x1="221.6" y1="336.3" x2="221.6" y2="350.3" stroke="rgb(0,0,0)"  stroke-width="2.0"/>
<line x1="215.6" y1="336.3" x2="215.6" y2="350.3" stroke="rgb(0,0,0)"  stroke-width="2.0"/>
<line x1="205.6" y1="323.3" x2="178.6" y2="323.3" stroke="rgb(0,0,0)"  stroke-width="2.0"/>
<line x1="178.6" y1="323.3" x2="155.2" y2="309.8" stroke="rgb(0,0,0)"  stroke-width="2.0"/>
<line x1="178.6" y1="323.3" x2="178.6" y2="296.3" stroke="rgb(0,0,0)"  stroke-width="2.0"/>
<line x1="178.6" y1="323.3" x2="165.1" y2="346.7" stroke="rgb(0,0,0)"  stroke-width="2.0"/>
<line x1="287.8" y1="323.3" x2="301.3" y2="346.7" stroke="rgb(0,0,0)"  stroke-width="2.0"/>
<line x1="287.8" y1="323.3" x2="314.8" y2="323.3" stroke="rgb(0,0,0)"  stroke-width="2.0"/>
<line x1="287.8" y1="323.3" x2="264.5" y2="336.8" stroke="rgb(0,0,0)"  stroke-width="2.0"/>
<line x1="323.0" y1="41.4" x2="309.1" y2="42.8" stroke="rgb(0,0,0)"  stroke-width="2.0"/>
<line x1="293.4" y1="57.1" x2="287.8" y2="83.3" stroke="rgb(0,0,0)"  stroke-width="2.0"/>
<line x1="300.0" y1="60.5" x2="296.1" y2="78.9" stroke="rgb(0,0,0)"  stroke-width="2.0"/>
<line x1="287.8" y1="83.3" x2="311.2" y2="96.8" stroke="rgb(0,0,0)"  stroke-width="2.0"/>
<line x1="332.1" y1="94.6" x2="352.2" y2="76.5" stroke="rgb(0,0,0)"  stroke-width="2.0"/>
<line x1="352.2" y1="76.5" x2="341.3" y2="52.1" stroke="rgb(0,0,0)"  stroke-width="2.0"/>
<line x1="343.2" y1="74.0" x2="335.5" y2="56.8" stroke="rgb(0,0,0)"  stroke-width="2.0"/>
<line x1="287.8" y1="163.3" x2="311.1" y2="149.9" stroke="rgb(0,0,0)"  stroke-width="2.0"/>
<line x1="289.4" y1="154.1" x2="305.7" y2="144.7" stroke="rgb(0,0,0)"  stroke-width="2.0"/>
<line x1="322.5" y1="130.3" x2="322.5" y2="116.3" stroke="rgb(0,0,0)"  stroke-width="2.0"/>
<line x1="287.8" y1="83.3" x2="253.2" y2="103.3" stroke="rgb(0,0,0)"  stroke-width="2.0"/>
<line x1="253.2" y1="103.3" x2="253.2" y2="143.3" stroke="rgb(0,0,0)"  stroke-width="2.0"/>
<line x1="260.4" y1="109.3" x2="260.4" y2="137.3" stroke="rgb(0,0,0)"  stroke-width="2.0"/>
<line x1="253.2" y1="143.3" x2="287.8" y2="163.3" stroke="rgb(0,0,0)"  stroke-width="2.0"/>
<line x1="322.5" y1="263.3" x2="287.8" y2="283.3" stroke="rgb(0,0,0)"  stroke-width="2.0"/>
<line x1="287.8" y1="283.3" x2="253.2" y2="263.3" stroke="rgb(0,0,0)"  stroke-width="2.0"/>
<line x1="286.2" y1="274.1" x2="262.0" y2="260.1" stroke="rgb(0,0,0)"  stroke-width="2.0"/>
<line x1="253.2" y1="263.3" x2="253.2" y2="223.3" stroke="rgb(0,0,0)"  stroke-width="2.0"/>
<line x1="253.2" y1="223.3" x2="287.8" y2="203.3" stroke="rgb(0,0,0)"  stroke-width="2.0"/>
<line x1="262.0" y1="226.5" x2="286.2" y2="212.5" stroke="rgb(0,0,0)"  stroke-width="2.0"/>
<line x1="287.8" y1="203.3" x2="322.5" y2="223.3" stroke="rgb(0,0,0)"  stroke-width="2.0"/>
<line x1="322.5" y1="223.3" x2="322.5" y2="263.3" stroke="rgb(0,0,0)"  stroke-width="2.0"/>
<line x1="315.3" y1="229.3" x2="315.3" y2="257.3" stroke="rgb(0,0,0)"  stroke-width="2.0"/>
<text x="377.022342" y="131.984190" fill="rgb(191,191,191)"  stroke="rgb(191,191,191)" stroke-width="1" font-size="16" >H</text>
<text x="252.564065" y="331.307043" fill="rgb(255,12,12)"  stroke="rgb(255,12,12)" stroke-width="1" font-size="16" >O</text>
<text x="212.564065" y="371.307043" fill="rgb(255,12,12)"  stroke="rgb(255,12,12)" stroke-width="1" font-size="16" >O</text>
<text x="34.000000" y="91.307043" fill="rgb(191,191,191)"  stroke="rgb(191,191,191)" stroke-width="1" font-size="16" >H</text>
<text x="54.000000" y="125.948059" fill="rgb(191,191,191)"  stroke="rgb(191,191,191)" stroke-width="1" font-size="16" >H</text>
<text x="74.000000" y="51.307043" fill="rgb(191,191,191)"  stroke="rgb(191,191,191)" stroke-width="1" font-size="16" >H</text>
<text x="88.641016" y="145.948059" fill="rgb(191,191,191)"  stroke="rgb(191,191,191)" stroke-width="1" font-size="16" >H</text>
<text x="128.641016" y="145.948059" fill="rgb(191,191,191)"  stroke="rgb(191,191,191)" stroke-width="1" font-size="16" >H</text>
<text x="212.564065" y="171.307043" fill="rgb(191,191,191)"  stroke="rgb(191,191,191)" stroke-width="1" font-size="16" >H</text>
<text x="415.064603" y="119.623510" fill="rgb(191,191,191)"  stroke="rgb(191,191,191)" stroke-width="1" font-size="16" >H</text>
<text x="212.564065" y="331.307043" fill="rgb(178,178,0)"  stroke="rgb(178,178,0)" stroke-width="1" font-size="16" >S</text>
<text x="412.104034" y="63.132493" fill="rgb(191,191,191)"  stroke="rgb(191,191,191)" stroke-width="1" font-size="16" >H</text>
<text x="351.128129" y="211.307043" fill="rgb(191,191,191)"  stroke="rgb(191,191,191)" stroke-width="1" font-size="16" >H</text>
<text x="351.128129" y="291.307043" fill="rgb(191,191,191)"  stroke="rgb(191,191,191)" stroke-width="1" font-size="16" >H</text>
<text x="212.564065" y="211.307043" fill="rgb(191,191,191)"  stroke="rgb(191,191,191)" stroke-width="1" font-size="16" >H</text>
<text x="137.923048" y="311.307043" fill="rgb(191,191,191)"  stroke="rgb(191,191,191)" stroke-width="1" font-size="16" >H</text>
<text x="172.564065" y="291.307043" fill="rgb(191,191,191)"  stroke="rgb(191,191,191)" stroke-width="1" font-size="16" >H</text>
<text x="152.564065" y="365.948059" fill="rgb(191,191,191)"  stroke="rgb(191,191,191)" stroke-width="1" font-size="16" >H</text>
<text x="301.846097" y="365.948059" fill="rgb(191,191,191)"  stroke="rgb(191,191,191)" stroke-width="1" font-size="16" >H</text>
<text x="321.846097" y="331.307043" fill="rgb(191,191,191)"  stroke="rgb(191,191,191)" stroke-width="1" font-size="16" >H</text>
<text x="247.205081" y="351.307043" fill="rgb(191,191,191)"  stroke="rgb(191,191,191)" stroke-width="1" font-size="16" >H</text>
<text x="290.162565" y="52.181139" fill="rgb(12,12,255)"  stroke="rgb(12,12,255)" stroke-width="1" font-size="16" >N</text>
<text x="143.282032" y="91.307043" fill="rgb(255,12,12)"  stroke="rgb(255,12,12)" stroke-width="1" font-size="16" >O</text>
<text x="177.923048" y="151.307043" fill="rgb(255,12,12)"  stroke="rgb(255,12,12)" stroke-width="1" font-size="16" >OH</text>
<text x="212.564065" y="91.307043" fill="rgb(12,12,255)"  stroke="rgb(12,12,255)" stroke-width="1" font-size="16" >N</text>
<text x="316.487113" y="151.307043" fill="rgb(12,12,255)"  stroke="rgb(12,12,255)" stroke-width="1" font-size="16" >N</text>
<text x="316.487113" y="111.307043" fill="rgb(12,12,255)"  stroke="rgb(12,12,255)" stroke-width="1" font-size="16" >N</text>
<text x="329.943440" y="48.000000" fill="rgb(12,12,255)"  stroke="rgb(12,12,255)" stroke-width="1" font-size="16" >N</text>
<text x="200.564065" y="291.307043" fill="rgb(12,12,255)"  stroke="rgb(12,12,255)" stroke-width="1" font-size="16" >HN</text>
</svg>
</g>
<text font-size="18.000000" fill ="black" font-family="sans-serif"
x="10.000000" y="20.000000" >ZINC95616589</text>
</svg>
