<?xml version="1.0"?>
<svg version="1.1" id="topsvg"
xmlns="http://www.w3.org/2000/svg" xmlns:xlink="http://www.w3.org/1999/xlink"
xmlns:cml="http://www.xml-cml.org/schema" x="0" y="0" width="200px" height="200px" viewBox="0 0 100 100">
<title>ZINC98216345 - Open Babel Depiction</title>
<rect x="0" y="0" width="100" height="100" fill="white"/>
<g transform="translate(0,0)">
<svg width="100" height="100" x="0" y="0" viewBox="0 0 718.951 588.153"
font-family="sans-serif" stroke="rgb(0,0,0)" stroke-width="2"  stroke-linecap="round">
<line x1="222.9" y1="269.4" x2="261.2" y2="277.5" stroke="rgb(0,0,0)"  stroke-width="2.0"/>
<line x1="222.9" y1="269.4" x2="197.9" y2="277.5" stroke="rgb(0,0,0)"  stroke-width="2.0"/>
<line x1="222.9" y1="269.4" x2="217.4" y2="295.0" stroke="rgb(0,0,0)"  stroke-width="2.0"/>
<line x1="222.9" y1="269.4" x2="214.8" y2="244.4" stroke="rgb(0,0,0)"  stroke-width="2.0"/>
<line x1="261.6" y1="272.2" x2="263.1" y2="272.6" stroke="rgb(0,0,0)"  stroke-width="1.0"/>
<line x1="261.8" y1="268.0" x2="264.6" y2="268.6" stroke="rgb(0,0,0)"  stroke-width="1.0"/>
<line x1="262.1" y1="263.7" x2="266.1" y2="264.6" stroke="rgb(0,0,0)"  stroke-width="1.0"/>
<line x1="262.3" y1="259.5" x2="267.6" y2="260.6" stroke="rgb(0,0,0)"  stroke-width="1.0"/>
<line x1="262.5" y1="255.2" x2="269.1" y2="256.6" stroke="rgb(0,0,0)"  stroke-width="1.0"/>
<line x1="262.8" y1="251.0" x2="270.6" y2="252.7" stroke="rgb(0,0,0)"  stroke-width="1.0"/>
<line x1="261.2" y1="277.5" x2="299.6" y2="285.7" stroke="rgb(0,0,0)"  stroke-width="2.0"/>
<line x1="261.2" y1="277.5" x2="255.8" y2="303.2" stroke="rgb(0,0,0)"  stroke-width="2.0"/>
<line x1="302.5" y1="284.8" x2="310.6" y2="309.7" stroke="rgb(0,0,0)"  stroke-width="2.0"/>
<line x1="296.8" y1="286.6" x2="304.9" y2="311.6" stroke="rgb(0,0,0)"  stroke-width="2.0"/>
<line x1="299.6" y1="285.7" x2="317.2" y2="266.2" stroke="rgb(0,0,0)"  stroke-width="2.0"/>
<line x1="338.6" y1="259.2" x2="364.2" y2="264.7" stroke="rgb(0,0,0)"  stroke-width="2.0"/>
<line x1="321.9" y1="244.2" x2="317.8" y2="231.6" stroke="rgb(0,0,0)"  stroke-width="2.0"/>
<polygon points="364.242689 264.693114 362.690401 291.234994 354.865220 289.571700 " stroke-width="2.000000" fill="rgb(0,0,0)"  stroke="rgb(0,0,0)" />
<line x1="364.2" y1="264.7" x2="402.6" y2="272.8" stroke="rgb(0,0,0)"  stroke-width="2.0"/>
<line x1="364.2" y1="264.7" x2="372.4" y2="226.3" stroke="rgb(0,0,0)"  stroke-width="2.0"/>
<line x1="402.6" y1="272.8" x2="414.7" y2="310.2" stroke="rgb(0,0,0)"  stroke-width="2.0"/>
<line x1="402.6" y1="272.8" x2="427.6" y2="264.7" stroke="rgb(0,0,0)"  stroke-width="2.0"/>
<line x1="402.6" y1="272.8" x2="408.1" y2="247.2" stroke="rgb(0,0,0)"  stroke-width="2.0"/>
<line x1="417.0" y1="312.2" x2="399.4" y2="331.7" stroke="rgb(0,0,0)"  stroke-width="2.0"/>
<line x1="412.5" y1="308.2" x2="395.0" y2="327.6" stroke="rgb(0,0,0)"  stroke-width="2.0"/>
<line x1="414.7" y1="310.2" x2="440.4" y2="315.6" stroke="rgb(0,0,0)"  stroke-width="2.0"/>
<line x1="370.4" y1="228.5" x2="350.9" y2="211.0" stroke="rgb(0,0,0)"  stroke-width="2.0"/>
<line x1="374.4" y1="224.1" x2="354.9" y2="206.5" stroke="rgb(0,0,0)"  stroke-width="2.0"/>
<line x1="372.4" y1="226.3" x2="397.3" y2="218.2" stroke="rgb(0,0,0)"  stroke-width="2.0"/>
<line x1="412.4" y1="201.5" x2="417.9" y2="175.8" stroke="rgb(0,0,0)"  stroke-width="2.0"/>
<line x1="419.4" y1="222.9" x2="429.2" y2="231.7" stroke="rgb(0,0,0)"  stroke-width="2.0"/>
<line x1="412.6" y1="175.5" x2="412.9" y2="173.9" stroke="rgb(0,0,0)"  stroke-width="1.0"/>
<line x1="408.3" y1="175.3" x2="408.9" y2="172.4" stroke="rgb(0,0,0)"  stroke-width="1.0"/>
<line x1="404.1" y1="175.0" x2="404.9" y2="170.9" stroke="rgb(0,0,0)"  stroke-width="1.0"/>
<line x1="399.8" y1="174.8" x2="400.9" y2="169.4" stroke="rgb(0,0,0)"  stroke-width="1.0"/>
<line x1="395.6" y1="174.5" x2="397.0" y2="167.9" stroke="rgb(0,0,0)"  stroke-width="1.0"/>
<line x1="391.3" y1="174.3" x2="393.0" y2="166.4" stroke="rgb(0,0,0)"  stroke-width="1.0"/>
<line x1="417.9" y1="175.8" x2="426.0" y2="137.4" stroke="rgb(0,0,0)"  stroke-width="2.0"/>
<line x1="417.9" y1="175.8" x2="494.6" y2="192.1" stroke="rgb(0,0,0)"  stroke-width="2.0"/>
<line x1="426.0" y1="137.4" x2="406.5" y2="119.9" stroke="rgb(0,0,0)"  stroke-width="2.0"/>
<line x1="426.0" y1="137.4" x2="443.6" y2="118.0" stroke="rgb(0,0,0)"  stroke-width="2.0"/>
<line x1="426.0" y1="137.4" x2="451.7" y2="142.9" stroke="rgb(0,0,0)"  stroke-width="2.0"/>
<line x1="384.5" y1="115.2" x2="371.9" y2="119.3" stroke="rgb(0,0,0)"  stroke-width="2.0"/>
<line x1="497.5" y1="191.2" x2="505.6" y2="216.2" stroke="rgb(0,0,0)"  stroke-width="2.0"/>
<line x1="491.8" y1="193.1" x2="499.9" y2="218.0" stroke="rgb(0,0,0)"  stroke-width="2.0"/>
<line x1="494.6" y1="192.1" x2="538.4" y2="143.5" stroke="rgb(0,0,0)"  stroke-width="2.0"/>
<line x1="539.0" y1="95.5" x2="512.9" y2="98.2" stroke="rgb(0,0,0)"  stroke-width="2.0"/>
<line x1="539.0" y1="95.5" x2="523.5" y2="74.2" stroke="rgb(0,0,0)"  stroke-width="2.0"/>
<line x1="572.9" y1="75.8" x2="562.3" y2="51.9" stroke="rgb(0,0,0)"  stroke-width="2.0"/>
<line x1="572.9" y1="75.8" x2="588.4" y2="54.6" stroke="rgb(0,0,0)"  stroke-width="2.0"/>
<line x1="602.1" y1="102.1" x2="621.6" y2="84.5" stroke="rgb(0,0,0)"  stroke-width="2.0"/>
<line x1="602.1" y1="102.1" x2="627.0" y2="110.2" stroke="rgb(0,0,0)"  stroke-width="2.0"/>
<line x1="591.1" y1="139.9" x2="590.3" y2="141.2" stroke="rgb(0,0,0)"  stroke-width="1.0"/>
<line x1="595.0" y1="141.4" x2="593.6" y2="143.9" stroke="rgb(0,0,0)"  stroke-width="1.0"/>
<line x1="599.0" y1="143.0" x2="596.9" y2="146.6" stroke="rgb(0,0,0)"  stroke-width="1.0"/>
<line x1="603.0" y1="144.5" x2="600.2" y2="149.2" stroke="rgb(0,0,0)"  stroke-width="1.0"/>
<line x1="606.9" y1="146.1" x2="603.6" y2="151.9" stroke="rgb(0,0,0)"  stroke-width="1.0"/>
<line x1="610.9" y1="147.6" x2="606.9" y2="154.5" stroke="rgb(0,0,0)"  stroke-width="1.0"/>
<line x1="586.1" y1="137.9" x2="586.1" y2="177.2" stroke="rgb(0,0,0)"  stroke-width="2.0"/>
<line x1="587.6" y1="179.8" x2="564.9" y2="192.9" stroke="rgb(0,0,0)"  stroke-width="2.0"/>
<line x1="584.6" y1="174.6" x2="561.9" y2="187.7" stroke="rgb(0,0,0)"  stroke-width="2.0"/>
<line x1="586.1" y1="177.2" x2="608.8" y2="190.3" stroke="rgb(0,0,0)"  stroke-width="2.0"/>
<line x1="620.1" y1="209.8" x2="620.1" y2="236.0" stroke="rgb(0,0,0)"  stroke-width="2.0"/>
<line x1="631.4" y1="190.3" x2="642.8" y2="183.7" stroke="rgb(0,0,0)"  stroke-width="2.0"/>
<polygon points="620.105123 236.005614 593.820508 240.005614 593.820508 232.005614 " stroke-width="2.000000" fill="rgb(0,0,0)"  stroke="rgb(0,0,0)" />
<line x1="620.1" y1="236.0" x2="620.1" y2="275.2" stroke="rgb(0,0,0)"  stroke-width="2.0"/>
<line x1="620.1" y1="236.0" x2="659.3" y2="236.0" stroke="rgb(0,0,0)"  stroke-width="2.0"/>
<line x1="620.1" y1="275.2" x2="586.1" y2="294.9" stroke="rgb(0,0,0)"  stroke-width="2.0"/>
<line x1="620.1" y1="275.2" x2="633.2" y2="298.0" stroke="rgb(0,0,0)"  stroke-width="2.0"/>
<line x1="620.1" y1="275.2" x2="646.3" y2="275.2" stroke="rgb(0,0,0)"  stroke-width="2.0"/>
<line x1="586.1" y1="294.9" x2="586.1" y2="334.1" stroke="rgb(0,0,0)"  stroke-width="2.0"/>
<line x1="586.1" y1="294.9" x2="559.9" y2="294.9" stroke="rgb(0,0,0)"  stroke-width="2.0"/>
<line x1="586.1" y1="294.9" x2="573.0" y2="272.1" stroke="rgb(0,0,0)"  stroke-width="2.0"/>
<line x1="586.1" y1="334.1" x2="552.2" y2="353.7" stroke="rgb(0,0,0)"  stroke-width="2.0"/>
<line x1="586.1" y1="334.1" x2="599.2" y2="356.8" stroke="rgb(0,0,0)"  stroke-width="2.0"/>
<line x1="586.1" y1="334.1" x2="612.4" y2="334.1" stroke="rgb(0,0,0)"  stroke-width="2.0"/>
<line x1="552.2" y1="353.7" x2="552.2" y2="379.9" stroke="rgb(0,0,0)"  stroke-width="2.0"/>
<line x1="552.2" y1="353.7" x2="525.9" y2="353.7" stroke="rgb(0,0,0)"  stroke-width="2.0"/>
<line x1="552.2" y1="353.7" x2="539.0" y2="331.0" stroke="rgb(0,0,0)"  stroke-width="2.0"/>
<line x1="565.2" y1="392.9" x2="578.4" y2="392.9" stroke="rgb(0,0,0)"  stroke-width="2.0"/>
<line x1="552.2" y1="405.9" x2="552.2" y2="419.2" stroke="rgb(0,0,0)"  stroke-width="2.0"/>
<line x1="539.2" y1="392.9" x2="525.9" y2="392.9" stroke="rgb(0,0,0)"  stroke-width="2.0"/>
<line x1="661.9" y1="234.5" x2="675.0" y2="257.2" stroke="rgb(0,0,0)"  stroke-width="2.0"/>
<line x1="656.7" y1="237.5" x2="669.9" y2="260.2" stroke="rgb(0,0,0)"  stroke-width="2.0"/>
<line x1="659.3" y1="236.0" x2="672.5" y2="213.3" stroke="rgb(0,0,0)"  stroke-width="2.0"/>
<line x1="240.7" y1="319.9" x2="215.8" y2="328.0" stroke="rgb(0,0,0)"  stroke-width="2.0"/>
<line x1="262.7" y1="324.6" x2="272.6" y2="333.5" stroke="rgb(0,0,0)"  stroke-width="2.0"/>
<line x1="213.8" y1="330.3" x2="194.3" y2="312.7" stroke="rgb(0,0,0)"  stroke-width="2.0"/>
<line x1="217.8" y1="325.8" x2="198.3" y2="308.2" stroke="rgb(0,0,0)"  stroke-width="2.0"/>
<line x1="215.8" y1="328.0" x2="207.6" y2="366.4" stroke="rgb(0,0,0)"  stroke-width="2.0"/>
<polygon points="207.621465 366.404126 234.163345 367.956414 232.500052 375.781595 " stroke-width="2.000000" fill="rgb(0,0,0)"  stroke="rgb(0,0,0)" />
<line x1="207.6" y1="366.4" x2="199.5" y2="404.8" stroke="rgb(0,0,0)"  stroke-width="2.0"/>
<line x1="207.6" y1="366.4" x2="182.0" y2="361.0" stroke="rgb(0,0,0)"  stroke-width="2.0"/>
<line x1="199.5" y1="404.8" x2="228.6" y2="431.0" stroke="rgb(0,0,0)"  stroke-width="2.0"/>
<line x1="199.5" y1="404.8" x2="181.9" y2="424.3" stroke="rgb(0,0,0)"  stroke-width="2.0"/>
<line x1="199.5" y1="404.8" x2="173.8" y2="399.3" stroke="rgb(0,0,0)"  stroke-width="2.0"/>
<line x1="228.6" y1="431.0" x2="220.5" y2="469.4" stroke="rgb(0,0,0)"  stroke-width="2.0"/>
<line x1="228.6" y1="431.0" x2="254.3" y2="436.5" stroke="rgb(0,0,0)"  stroke-width="2.0"/>
<line x1="228.6" y1="431.0" x2="246.2" y2="411.5" stroke="rgb(0,0,0)"  stroke-width="2.0"/>
<line x1="220.5" y1="469.4" x2="240.0" y2="487.0" stroke="rgb(0,0,0)"  stroke-width="2.0"/>
<line x1="220.5" y1="469.4" x2="202.9" y2="488.9" stroke="rgb(0,0,0)"  stroke-width="2.0"/>
<line x1="220.5" y1="469.4" x2="194.8" y2="463.9" stroke="rgb(0,0,0)"  stroke-width="2.0"/>
<line x1="262.0" y1="491.6" x2="286.9" y2="483.5" stroke="rgb(0,0,0)"  stroke-width="2.0"/>
<line x1="246.9" y1="508.4" x2="244.2" y2="521.3" stroke="rgb(0,0,0)"  stroke-width="2.0"/>
<line x1="284.0" y1="482.9" x2="289.4" y2="457.2" stroke="rgb(0,0,0)"  stroke-width="2.0"/>
<line x1="289.9" y1="484.2" x2="295.3" y2="458.5" stroke="rgb(0,0,0)"  stroke-width="2.0"/>
<line x1="286.9" y1="483.5" x2="306.4" y2="501.1" stroke="rgb(0,0,0)"  stroke-width="2.0"/>
<line x1="285.4" y1="436.5" x2="275.6" y2="427.6" stroke="rgb(0,0,0)"  stroke-width="2.0"/>
<line x1="307.4" y1="441.1" x2="320.0" y2="437.0" stroke="rgb(0,0,0)"  stroke-width="2.0"/>
<line x1="328.4" y1="505.8" x2="341.0" y2="501.7" stroke="rgb(0,0,0)"  stroke-width="2.0"/>
<line x1="313.4" y1="522.5" x2="310.6" y2="535.4" stroke="rgb(0,0,0)"  stroke-width="2.0"/>
<line x1="160.5" y1="367.9" x2="143.0" y2="387.4" stroke="rgb(0,0,0)"  stroke-width="2.0"/>
<line x1="165.2" y1="345.9" x2="161.1" y2="333.3" stroke="rgb(0,0,0)"  stroke-width="2.0"/>
<line x1="145.9" y1="386.5" x2="154.0" y2="411.4" stroke="rgb(0,0,0)"  stroke-width="2.0"/>
<line x1="140.1" y1="388.3" x2="148.3" y2="413.3" stroke="rgb(0,0,0)"  stroke-width="2.0"/>
<line x1="143.0" y1="387.4" x2="104.6" y2="379.2" stroke="rgb(0,0,0)"  stroke-width="2.0"/>
<line x1="104.6" y1="379.2" x2="87.1" y2="398.7" stroke="rgb(0,0,0)"  stroke-width="2.0"/>
<line x1="104.6" y1="379.2" x2="85.1" y2="361.7" stroke="rgb(0,0,0)"  stroke-width="2.0"/>
<line x1="104.6" y1="379.2" x2="110.1" y2="353.6" stroke="rgb(0,0,0)"  stroke-width="2.0"/>
<line x1="82.4" y1="420.8" x2="86.5" y2="433.3" stroke="rgb(0,0,0)"  stroke-width="2.0"/>
<line x1="65.7" y1="405.7" x2="52.7" y2="402.9" stroke="rgb(0,0,0)"  stroke-width="2.0"/>
<line x1="572.9" y1="75.8" x2="602.1" y2="102.1" stroke="rgb(0,0,0)"  stroke-width="2.0"/>
<line x1="602.1" y1="102.1" x2="586.1" y2="137.9" stroke="rgb(0,0,0)"  stroke-width="2.0"/>
<line x1="586.1" y1="137.9" x2="560.0" y2="135.2" stroke="rgb(0,0,0)"  stroke-width="2.0"/>
<line x1="544.4" y1="121.1" x2="539.0" y2="95.5" stroke="rgb(0,0,0)"  stroke-width="2.0"/>
<line x1="539.0" y1="95.5" x2="572.9" y2="75.8" stroke="rgb(0,0,0)"  stroke-width="2.0"/>
<text x="446.273483" y="116.295548" fill="rgb(191,191,191)"  stroke="rgb(191,191,191)" stroke-width="1" font-size="16" >H</text>
<text x="540.899511" y="302.851767" fill="rgb(191,191,191)"  stroke="rgb(191,191,191)" stroke-width="1" font-size="16" >H</text>
<text x="653.335892" y="283.236383" fill="rgb(191,191,191)"  stroke="rgb(191,191,191)" stroke-width="1" font-size="16" >H</text>
<text x="633.720508" y="317.211226" fill="rgb(191,191,191)"  stroke="rgb(191,191,191)" stroke-width="1" font-size="16" >H</text>
<text x="648.079966" y="185.159460" fill="rgb(191,191,191)"  stroke="rgb(191,191,191)" stroke-width="1" font-size="16" >H</text>
<text x="633.397550" y="122.212574" fill="rgb(191,191,191)"  stroke="rgb(191,191,191)" stroke-width="1" font-size="16" >H</text>
<text x="625.241015" y="83.839091" fill="rgb(191,191,191)"  stroke="rgb(191,191,191)" stroke-width="1" font-size="16" >H</text>
<text x="589.991996" y="52.100732" fill="rgb(191,191,191)"  stroke="rgb(191,191,191)" stroke-width="1" font-size="16" >H</text>
<text x="550.976137" y="48.000000" fill="rgb(191,191,191)"  stroke="rgb(191,191,191)" stroke-width="1" font-size="16" >H</text>
<text x="509.898618" y="71.716117" fill="rgb(191,191,191)"  stroke="rgb(191,191,191)" stroke-width="1" font-size="16" >H</text>
<text x="493.942027" y="107.555208" fill="rgb(191,191,191)"  stroke="rgb(191,191,191)" stroke-width="1" font-size="16" >H</text>
<text x="353.558153" y="131.322157" fill="rgb(191,191,191)"  stroke="rgb(191,191,191)" stroke-width="1" font-size="16" >H</text>
<text x="458.396457" y="153.606226" fill="rgb(191,191,191)"  stroke="rgb(191,191,191)" stroke-width="1" font-size="16" >H</text>
<text x="560.514896" y="268.876925" fill="rgb(191,191,191)"  stroke="rgb(191,191,191)" stroke-width="1" font-size="16" >H</text>
<text x="432.864046" y="248.447165" fill="rgb(191,191,191)"  stroke="rgb(191,191,191)" stroke-width="1" font-size="16" >H</text>
<text x="404.772707" y="242.476166" fill="rgb(191,191,191)"  stroke="rgb(191,191,191)" stroke-width="1" font-size="16" >H</text>
<text x="433.926851" y="268.726675" fill="rgb(191,191,191)"  stroke="rgb(191,191,191)" stroke-width="1" font-size="16" >H</text>
<text x="307.746232" y="227.225899" fill="rgb(191,191,191)"  stroke="rgb(191,191,191)" stroke-width="1" font-size="16" >H</text>
<text x="204.748758" y="240.066971" fill="rgb(191,191,191)"  stroke="rgb(191,191,191)" stroke-width="1" font-size="16" >H</text>
<text x="208.715197" y="315.751133" fill="rgb(191,191,191)"  stroke="rgb(191,191,191)" stroke-width="1" font-size="16" >H</text>
<text x="179.561054" y="289.500624" fill="rgb(191,191,191)"  stroke="rgb(191,191,191)" stroke-width="1" font-size="16" >H</text>
<text x="72.373483" y="416.399341" fill="rgb(12,12,255)"  stroke="rgb(12,12,255)" stroke-width="1" font-size="16" >N</text>
<text x="149.120448" y="432.712412" fill="rgb(255,12,12)"  stroke="rgb(255,12,12)" stroke-width="1" font-size="16" >O</text>
<text x="163.247982" y="366.247590" fill="rgb(12,12,255)"  stroke="rgb(12,12,255)" stroke-width="1" font-size="16" >N</text>
<text x="188.212029" y="506.555743" fill="rgb(191,191,191)"  stroke="rgb(191,191,191)" stroke-width="1" font-size="16" >H</text>
<text x="34.000000" y="408.242805" fill="rgb(191,191,191)"  stroke="rgb(191,191,191)" stroke-width="1" font-size="16" >H</text>
<text x="506.924668" y="400.928690" fill="rgb(191,191,191)"  stroke="rgb(191,191,191)" stroke-width="1" font-size="16" >H</text>
<text x="326.394573" y="441.032676" fill="rgb(191,191,191)"  stroke="rgb(191,191,191)" stroke-width="1" font-size="16" >H</text>
<text x="84.496457" y="453.710020" fill="rgb(191,191,191)"  stroke="rgb(191,191,191)" stroke-width="1" font-size="16" >H</text>
<text x="106.780527" y="348.871715" fill="rgb(191,191,191)"  stroke="rgb(191,191,191)" stroke-width="1" font-size="16" >H</text>
<text x="69.469848" y="360.994689" fill="rgb(191,191,191)"  stroke="rgb(191,191,191)" stroke-width="1" font-size="16" >H</text>
<text x="151.125008" y="328.936911" fill="rgb(191,191,191)"  stroke="rgb(191,191,191)" stroke-width="1" font-size="16" >H</text>
<text x="301.924967" y="556.153125" fill="rgb(191,191,191)"  stroke="rgb(191,191,191)" stroke-width="1" font-size="16" >H</text>
<text x="347.392181" y="505.656668" fill="rgb(191,191,191)"  stroke="rgb(191,191,191)" stroke-width="1" font-size="16" >H</text>
<text x="259.929752" y="426.905142" fill="rgb(191,191,191)"  stroke="rgb(191,191,191)" stroke-width="1" font-size="16" >H</text>
<text x="235.460145" y="542.025591" fill="rgb(191,191,191)"  stroke="rgb(191,191,191)" stroke-width="1" font-size="16" >H</text>
<text x="176.089054" y="469.245064" fill="rgb(191,191,191)"  stroke="rgb(191,191,191)" stroke-width="1" font-size="16" >H</text>
<text x="310.081502" y="517.779642" fill="rgb(12,12,255)"  stroke="rgb(12,12,255)" stroke-width="1" font-size="16" >N</text>
<text x="248.869581" y="409.873974" fill="rgb(191,191,191)"  stroke="rgb(191,191,191)" stroke-width="1" font-size="16" >H</text>
<text x="260.992556" y="447.184652" fill="rgb(191,191,191)"  stroke="rgb(191,191,191)" stroke-width="1" font-size="16" >H</text>
<text x="155.091447" y="404.621073" fill="rgb(191,191,191)"  stroke="rgb(191,191,191)" stroke-width="1" font-size="16" >H</text>
<text x="167.214421" y="441.931752" fill="rgb(191,191,191)"  stroke="rgb(191,191,191)" stroke-width="1" font-size="16" >H</text>
<text x="276.242823" y="350.158177" fill="rgb(191,191,191)"  stroke="rgb(191,191,191)" stroke-width="1" font-size="16" >H</text>
<text x="546.155437" y="440.159460" fill="rgb(191,191,191)"  stroke="rgb(191,191,191)" stroke-width="1" font-size="16" >H</text>
<text x="585.386207" y="400.928690" fill="rgb(191,191,191)"  stroke="rgb(191,191,191)" stroke-width="1" font-size="16" >H</text>
<text x="526.540053" y="327.723078" fill="rgb(191,191,191)"  stroke="rgb(191,191,191)" stroke-width="1" font-size="16" >H</text>
<text x="506.924668" y="361.697921" fill="rgb(191,191,191)"  stroke="rgb(191,191,191)" stroke-width="1" font-size="16" >H</text>
<text x="619.361049" y="342.082537" fill="rgb(191,191,191)"  stroke="rgb(191,191,191)" stroke-width="1" font-size="16" >H</text>
<text x="599.745665" y="376.057379" fill="rgb(191,191,191)"  stroke="rgb(191,191,191)" stroke-width="1" font-size="16" >H</text>
<text x="337.245081" y="208.069122" fill="rgb(255,12,12)"  stroke="rgb(255,12,12)" stroke-width="1" font-size="16" >O</text>
<text x="541.114421" y="141.827958" fill="rgb(12,12,255)"  stroke="rgb(12,12,255)" stroke-width="1" font-size="16" >N</text>
<text x="500.736379" y="237.446923" fill="rgb(255,12,12)"  stroke="rgb(255,12,12)" stroke-width="1" font-size="16" >O</text>
<text x="390.868831" y="119.199182" fill="rgb(255,12,12)"  stroke="rgb(255,12,12)" stroke-width="1" font-size="16" >O</text>
<text x="373.492956" y="175.666638" fill="rgb(191,191,191)"  stroke="rgb(191,191,191)" stroke-width="1" font-size="16" >H</text>
<text x="403.709903" y="222.196656" fill="rgb(12,12,255)"  stroke="rgb(12,12,255)" stroke-width="1" font-size="16" >N</text>
<text x="614.105123" y="165.544075" fill="rgb(191,191,191)"  stroke="rgb(191,191,191)" stroke-width="1" font-size="16" >H</text>
<text x="447.112629" y="326.316863" fill="rgb(255,12,12)"  stroke="rgb(255,12,12)" stroke-width="1" font-size="16" >OH</text>
<text x="382.488638" y="347.314471" fill="rgb(255,12,12)"  stroke="rgb(255,12,12)" stroke-width="1" font-size="16" >O</text>
<text x="350.086153" y="311.066596" fill="rgb(191,191,191)"  stroke="rgb(191,191,191)" stroke-width="1" font-size="16" >H</text>
<text x="319.869206" y="264.536578" fill="rgb(12,12,255)"  stroke="rgb(12,12,255)" stroke-width="1" font-size="16" >N</text>
<text x="305.741672" y="331.001400" fill="rgb(255,12,12)"  stroke="rgb(255,12,12)" stroke-width="1" font-size="16" >O</text>
<text x="263.401751" y="247.160703" fill="rgb(191,191,191)"  stroke="rgb(191,191,191)" stroke-width="1" font-size="16" >H</text>
<text x="672.951277" y="277.980456" fill="rgb(255,12,12)"  stroke="rgb(255,12,12)" stroke-width="1" font-size="16" >O</text>
<text x="289.083895" y="453.155651" fill="rgb(12,12,255)"  stroke="rgb(12,12,255)" stroke-width="1" font-size="16" >N</text>
<text x="243.616680" y="503.652108" fill="rgb(12,12,255)"  stroke="rgb(12,12,255)" stroke-width="1" font-size="16" >N</text>
<text x="239.994948" y="382.560661" fill="rgb(191,191,191)"  stroke="rgb(191,191,191)" stroke-width="1" font-size="16" >H</text>
<text x="180.623858" y="309.780134" fill="rgb(255,12,12)"  stroke="rgb(255,12,12)" stroke-width="1" font-size="16" >O</text>
<text x="247.088679" y="323.907668" fill="rgb(12,12,255)"  stroke="rgb(12,12,255)" stroke-width="1" font-size="16" >N</text>
<text x="672.951277" y="210.030771" fill="rgb(255,12,12)"  stroke="rgb(255,12,12)" stroke-width="1" font-size="16" >OH</text>
<text x="556.955437" y="388.896690" fill="rgb(12,12,255)"  stroke="rgb(12,12,255)" stroke-width="1" font-size="16" >+</text>
<text x="546.155437" y="400.928690" fill="rgb(12,12,255)"  stroke="rgb(12,12,255)" stroke-width="1" font-size="16" >N</text>
<text x="574.874354" y="244.005614" fill="rgb(191,191,191)"  stroke="rgb(191,191,191)" stroke-width="1" font-size="16" >H</text>
<text x="614.105123" y="204.774844" fill="rgb(12,12,255)"  stroke="rgb(12,12,255)" stroke-width="1" font-size="16" >N</text>
<text x="546.155437" y="204.774844" fill="rgb(255,12,12)"  stroke="rgb(255,12,12)" stroke-width="1" font-size="16" >O</text>
</svg>
</g>
<text font-size="18.000000" fill ="black" font-family="sans-serif"
x="10.000000" y="20.000000" >ZINC98216345</text>
</svg>
