<?xml version="1.0"?>
<svg version="1.1" id="topsvg"
xmlns="http://www.w3.org/2000/svg" xmlns:xlink="http://www.w3.org/1999/xlink"
xmlns:cml="http://www.xml-cml.org/schema" x="0" y="0" width="200px" height="200px" viewBox="0 0 100 100">
<title>ZINC03873156 - Open Babel Depiction</title>
<rect x="0" y="0" width="100" height="100" fill="white"/>
<g transform="translate(0,0)">
<svg width="100" height="100" x="0" y="0" viewBox="0 0 446.41 320"
font-family="sans-serif" stroke="rgb(0,0,0)" stroke-width="2"  stroke-linecap="round">
<line x1="337.1" y1="240.0" x2="302.5" y2="220.0" stroke="rgb(0,0,0)"  stroke-width="2.0"/>
<line x1="337.1" y1="240.0" x2="364.1" y2="240.0" stroke="rgb(0,0,0)"  stroke-width="2.0"/>
<line x1="337.1" y1="240.0" x2="350.6" y2="216.6" stroke="rgb(0,0,0)"  stroke-width="2.0"/>
<line x1="337.1" y1="240.0" x2="337.1" y2="267.0" stroke="rgb(0,0,0)"  stroke-width="2.0"/>
<line x1="302.5" y1="220.0" x2="302.5" y2="193.0" stroke="rgb(0,0,0)"  stroke-width="2.0"/>
<line x1="302.5" y1="220.0" x2="275.5" y2="220.0" stroke="rgb(0,0,0)"  stroke-width="2.0"/>
<line x1="302.5" y1="220.0" x2="289.0" y2="243.4" stroke="rgb(0,0,0)"  stroke-width="2.0"/>
<line x1="337.1" y1="160.0" x2="360.5" y2="173.5" stroke="rgb(0,0,0)"  stroke-width="2.0"/>
<line x1="337.1" y1="120.0" x2="371.8" y2="100.0" stroke="rgb(0,0,0)"  stroke-width="2.0"/>
<line x1="302.5" y1="100.0" x2="302.5" y2="73.0" stroke="rgb(0,0,0)"  stroke-width="2.0"/>
<line x1="313.7" y1="53.5" x2="325.9" y2="46.5" stroke="rgb(0,0,0)"  stroke-width="2.0"/>
<line x1="233.2" y1="180.0" x2="233.2" y2="207.0" stroke="rgb(0,0,0)"  stroke-width="2.0"/>
<line x1="200.1" y1="162.6" x2="176.7" y2="176.1" stroke="rgb(0,0,0)"  stroke-width="2.0"/>
<line x1="197.1" y1="157.4" x2="173.7" y2="170.9" stroke="rgb(0,0,0)"  stroke-width="2.0"/>
<line x1="198.6" y1="120.0" x2="175.2" y2="106.5" stroke="rgb(0,0,0)"  stroke-width="2.0"/>
<line x1="233.2" y1="100.0" x2="233.2" y2="73.0" stroke="rgb(0,0,0)"  stroke-width="2.0"/>
<line x1="163.9" y1="220.0" x2="190.9" y2="220.0" stroke="rgb(0,0,0)"  stroke-width="2.0"/>
<line x1="163.9" y1="220.0" x2="177.4" y2="243.4" stroke="rgb(0,0,0)"  stroke-width="2.0"/>
<line x1="129.3" y1="240.0" x2="142.8" y2="263.4" stroke="rgb(0,0,0)"  stroke-width="2.0"/>
<line x1="129.3" y1="240.0" x2="115.8" y2="263.4" stroke="rgb(0,0,0)"  stroke-width="2.0"/>
<line x1="88.1" y1="231.3" x2="81.1" y2="243.4" stroke="rgb(0,0,0)"  stroke-width="2.0"/>
<line x1="81.6" y1="220.0" x2="67.6" y2="220.0" stroke="rgb(0,0,0)"  stroke-width="2.0"/>
<polygon points="94.641016 180.000000 67.841016 184.000000 67.841016 176.000000 " stroke-width="2.000000" fill="rgb(0,0,0)"  stroke="rgb(0,0,0)" />
<line x1="94.6" y1="180.0" x2="74.6" y2="145.4" stroke="rgb(0,0,0)"  stroke-width="2.0"/>
<line x1="129.3" y1="160.0" x2="115.8" y2="136.6" stroke="rgb(0,0,0)"  stroke-width="2.0"/>
<line x1="129.3" y1="160.0" x2="142.8" y2="136.6" stroke="rgb(0,0,0)"  stroke-width="2.0"/>
<line x1="74.6" y1="145.4" x2="51.3" y2="131.9" stroke="rgb(0,0,0)"  stroke-width="2.0"/>
<line x1="74.6" y1="145.4" x2="51.3" y2="158.9" stroke="rgb(0,0,0)"  stroke-width="2.0"/>
<line x1="74.6" y1="145.4" x2="88.1" y2="122.0" stroke="rgb(0,0,0)"  stroke-width="2.0"/>
<line x1="373.3" y1="97.4" x2="396.7" y2="110.9" stroke="rgb(0,0,0)"  stroke-width="2.0"/>
<line x1="370.3" y1="102.6" x2="393.7" y2="116.1" stroke="rgb(0,0,0)"  stroke-width="2.0"/>
<line x1="371.8" y1="100.0" x2="371.8" y2="73.0" stroke="rgb(0,0,0)"  stroke-width="2.0"/>
<line x1="337.1" y1="120.0" x2="302.5" y2="100.0" stroke="rgb(0,0,0)"  stroke-width="2.0"/>
<line x1="302.5" y1="100.0" x2="267.8" y2="120.0" stroke="rgb(0,0,0)"  stroke-width="2.0"/>
<line x1="300.9" y1="109.2" x2="276.6" y2="123.2" stroke="rgb(0,0,0)"  stroke-width="2.0"/>
<line x1="267.8" y1="120.0" x2="267.8" y2="160.0" stroke="rgb(0,0,0)"  stroke-width="2.0"/>
<line x1="267.8" y1="160.0" x2="291.2" y2="173.5" stroke="rgb(0,0,0)"  stroke-width="2.0"/>
<line x1="313.7" y1="173.5" x2="337.1" y2="160.0" stroke="rgb(0,0,0)"  stroke-width="2.0"/>
<line x1="337.1" y1="160.0" x2="337.1" y2="120.0" stroke="rgb(0,0,0)"  stroke-width="2.0"/>
<line x1="329.9" y1="154.0" x2="329.9" y2="126.0" stroke="rgb(0,0,0)"  stroke-width="2.0"/>
<line x1="198.6" y1="120.0" x2="198.6" y2="160.0" stroke="rgb(0,0,0)"  stroke-width="2.0"/>
<line x1="198.6" y1="160.0" x2="233.2" y2="180.0" stroke="rgb(0,0,0)"  stroke-width="2.0"/>
<line x1="233.2" y1="180.0" x2="267.8" y2="160.0" stroke="rgb(0,0,0)"  stroke-width="2.0"/>
<line x1="234.8" y1="170.8" x2="259.0" y2="156.8" stroke="rgb(0,0,0)"  stroke-width="2.0"/>
<line x1="267.8" y1="120.0" x2="233.2" y2="100.0" stroke="rgb(0,0,0)"  stroke-width="2.0"/>
<line x1="233.2" y1="100.0" x2="198.6" y2="120.0" stroke="rgb(0,0,0)"  stroke-width="2.0"/>
<line x1="231.6" y1="109.2" x2="207.4" y2="123.2" stroke="rgb(0,0,0)"  stroke-width="2.0"/>
<line x1="129.3" y1="240.0" x2="105.9" y2="226.5" stroke="rgb(0,0,0)"  stroke-width="2.0"/>
<line x1="94.6" y1="207.0" x2="94.6" y2="180.0" stroke="rgb(0,0,0)"  stroke-width="2.0"/>
<line x1="94.6" y1="180.0" x2="129.3" y2="160.0" stroke="rgb(0,0,0)"  stroke-width="2.0"/>
<line x1="129.3" y1="160.0" x2="152.7" y2="173.5" stroke="rgb(0,0,0)"  stroke-width="2.0"/>
<line x1="163.9" y1="193.0" x2="163.9" y2="220.0" stroke="rgb(0,0,0)"  stroke-width="2.0"/>
<line x1="163.9" y1="220.0" x2="129.3" y2="240.0" stroke="rgb(0,0,0)"  stroke-width="2.0"/>
<text x="177.923048" y="262.641016" fill="rgb(191,191,191)"  stroke="rgb(191,191,191)" stroke-width="1" font-size="16" >H</text>
<text x="400.410162" y="128.000000" fill="rgb(255,12,12)"  stroke="rgb(255,12,12)" stroke-width="1" font-size="16" >O</text>
<text x="365.769145" y="68.000000" fill="rgb(255,12,12)"  stroke="rgb(255,12,12)" stroke-width="1" font-size="16" >OH</text>
<text x="371.128129" y="248.000000" fill="rgb(191,191,191)"  stroke="rgb(191,191,191)" stroke-width="1" font-size="16" >H</text>
<text x="351.128129" y="213.358984" fill="rgb(191,191,191)"  stroke="rgb(191,191,191)" stroke-width="1" font-size="16" >H</text>
<text x="331.128129" y="288.000000" fill="rgb(191,191,191)"  stroke="rgb(191,191,191)" stroke-width="1" font-size="16" >H</text>
<text x="256.487113" y="228.000000" fill="rgb(191,191,191)"  stroke="rgb(191,191,191)" stroke-width="1" font-size="16" >H</text>
<text x="276.487113" y="262.641016" fill="rgb(191,191,191)"  stroke="rgb(191,191,191)" stroke-width="1" font-size="16" >H</text>
<text x="365.769145" y="188.000000" fill="rgb(191,191,191)"  stroke="rgb(191,191,191)" stroke-width="1" font-size="16" >H</text>
<text x="227.205081" y="68.000000" fill="rgb(191,191,191)"  stroke="rgb(191,191,191)" stroke-width="1" font-size="16" >H</text>
<text x="197.923048" y="228.000000" fill="rgb(191,191,191)"  stroke="rgb(191,191,191)" stroke-width="1" font-size="16" >H</text>
<text x="227.205081" y="228.000000" fill="rgb(127,178,255)"  stroke="rgb(127,178,255)" stroke-width="1" font-size="16" >F</text>
<text x="143.282032" y="282.641016" fill="rgb(191,191,191)"  stroke="rgb(191,191,191)" stroke-width="1" font-size="16" >H</text>
<text x="103.282032" y="282.641016" fill="rgb(191,191,191)"  stroke="rgb(191,191,191)" stroke-width="1" font-size="16" >H</text>
<text x="68.641016" y="262.641016" fill="rgb(191,191,191)"  stroke="rgb(191,191,191)" stroke-width="1" font-size="16" >H</text>
<text x="103.282032" y="133.358984" fill="rgb(191,191,191)"  stroke="rgb(191,191,191)" stroke-width="1" font-size="16" >H</text>
<text x="143.282032" y="133.358984" fill="rgb(191,191,191)"  stroke="rgb(191,191,191)" stroke-width="1" font-size="16" >H</text>
<text x="34.000000" y="133.358984" fill="rgb(191,191,191)"  stroke="rgb(191,191,191)" stroke-width="1" font-size="16" >H</text>
<text x="34.000000" y="173.358984" fill="rgb(191,191,191)"  stroke="rgb(191,191,191)" stroke-width="1" font-size="16" >H</text>
<text x="88.641016" y="118.717968" fill="rgb(191,191,191)"  stroke="rgb(191,191,191)" stroke-width="1" font-size="16" >H</text>
<text x="48.641016" y="228.000000" fill="rgb(191,191,191)"  stroke="rgb(191,191,191)" stroke-width="1" font-size="16" >H</text>
<text x="331.128129" y="48.000000" fill="rgb(191,191,191)"  stroke="rgb(191,191,191)" stroke-width="1" font-size="16" >H</text>
<text x="296.487113" y="188.000000" fill="rgb(12,12,255)"  stroke="rgb(12,12,255)" stroke-width="1" font-size="16" >N</text>
<text x="296.487113" y="68.000000" fill="rgb(255,12,12)"  stroke="rgb(255,12,12)" stroke-width="1" font-size="16" >O</text>
<text x="157.923048" y="108.000000" fill="rgb(127,178,255)"  stroke="rgb(127,178,255)" stroke-width="1" font-size="16" >F</text>
<text x="157.923048" y="188.000000" fill="rgb(12,12,255)"  stroke="rgb(12,12,255)" stroke-width="1" font-size="16" >N</text>
<text x="99.441016" y="215.968000" fill="rgb(12,12,255)"  stroke="rgb(12,12,255)" stroke-width="1" font-size="16" >+</text>
<text x="88.641016" y="228.000000" fill="rgb(12,12,255)"  stroke="rgb(12,12,255)" stroke-width="1" font-size="16" >N</text>
<text x="48.641016" y="188.000000" fill="rgb(191,191,191)"  stroke="rgb(191,191,191)" stroke-width="1" font-size="16" >H</text>
</svg>
</g>
<text font-size="18.000000" fill ="black" font-family="sans-serif"
x="10.000000" y="20.000000" >ZINC03873156</text>
</svg>
