<?xml version="1.0"?>
<svg version="1.1" id="topsvg"
xmlns="http://www.w3.org/2000/svg" xmlns:xlink="http://www.w3.org/1999/xlink"
xmlns:cml="http://www.xml-cml.org/schema" x="0" y="0" width="200px" height="200px" viewBox="0 0 100 100">
<title>ZINC05934761 - Open Babel Depiction</title>
<rect x="0" y="0" width="100" height="100" fill="white"/>
<g transform="translate(0,0)">
<svg width="100" height="100" x="0" y="0" viewBox="0 0 438.564 294.641"
font-family="sans-serif" stroke="rgb(0,0,0)" stroke-width="2"  stroke-linecap="round">
<line x1="363.9" y1="100.0" x2="387.3" y2="86.5" stroke="rgb(0,0,0)"  stroke-width="2.0"/>
<line x1="329.3" y1="80.0" x2="329.3" y2="53.0" stroke="rgb(0,0,0)"  stroke-width="2.0"/>
<line x1="294.6" y1="100.0" x2="271.3" y2="86.5" stroke="rgb(0,0,0)"  stroke-width="2.0"/>
<line x1="363.9" y1="140.0" x2="387.3" y2="153.5" stroke="rgb(0,0,0)"  stroke-width="2.0"/>
<line x1="329.3" y1="200.0" x2="342.8" y2="223.4" stroke="rgb(0,0,0)"  stroke-width="2.0"/>
<line x1="329.3" y1="200.0" x2="356.3" y2="200.0" stroke="rgb(0,0,0)"  stroke-width="2.0"/>
<line x1="294.6" y1="220.0" x2="281.1" y2="243.4" stroke="rgb(0,0,0)"  stroke-width="2.0"/>
<line x1="294.6" y1="220.0" x2="308.1" y2="243.4" stroke="rgb(0,0,0)"  stroke-width="2.0"/>
<line x1="260.0" y1="200.0" x2="233.0" y2="200.0" stroke="rgb(0,0,0)"  stroke-width="2.0"/>
<line x1="260.0" y1="200.0" x2="246.5" y2="223.4" stroke="rgb(0,0,0)"  stroke-width="2.0"/>
<polygon points="260.000000 160.000000 243.135898 138.790519 250.064102 134.790519 " stroke-width="2.000000" fill="rgb(0,0,0)"  stroke="rgb(0,0,0)" />
<line x1="260.0" y1="160.0" x2="220.0" y2="160.0" stroke="rgb(0,0,0)"  stroke-width="2.0"/>
<line x1="200.0" y1="125.4" x2="213.5" y2="102.0" stroke="rgb(0,0,0)"  stroke-width="2.0"/>
<line x1="140.0" y1="90.7" x2="153.5" y2="67.3" stroke="rgb(0,0,0)"  stroke-width="2.0"/>
<line x1="100.0" y1="90.7" x2="86.5" y2="67.3" stroke="rgb(0,0,0)"  stroke-width="2.0"/>
<line x1="80.0" y1="125.4" x2="53.0" y2="125.4" stroke="rgb(0,0,0)"  stroke-width="2.0"/>
<line x1="100.0" y1="160.0" x2="86.5" y2="183.4" stroke="rgb(0,0,0)"  stroke-width="2.0"/>
<line x1="202.6" y1="193.1" x2="216.1" y2="216.5" stroke="rgb(0,0,0)"  stroke-width="2.0"/>
<line x1="197.4" y1="196.1" x2="210.9" y2="219.5" stroke="rgb(0,0,0)"  stroke-width="2.0"/>
<line x1="213.5" y1="79.5" x2="206.5" y2="67.3" stroke="rgb(0,0,0)"  stroke-width="2.0"/>
<line x1="294.6" y1="100.0" x2="294.6" y2="140.0" stroke="rgb(0,0,0)"  stroke-width="2.0"/>
<line x1="294.6" y1="140.0" x2="329.3" y2="160.0" stroke="rgb(0,0,0)"  stroke-width="2.0"/>
<line x1="303.4" y1="136.8" x2="327.7" y2="150.8" stroke="rgb(0,0,0)"  stroke-width="2.0"/>
<line x1="329.3" y1="160.0" x2="363.9" y2="140.0" stroke="rgb(0,0,0)"  stroke-width="2.0"/>
<line x1="363.9" y1="140.0" x2="363.9" y2="100.0" stroke="rgb(0,0,0)"  stroke-width="2.0"/>
<line x1="356.7" y1="134.0" x2="356.7" y2="106.0" stroke="rgb(0,0,0)"  stroke-width="2.0"/>
<line x1="363.9" y1="100.0" x2="329.3" y2="80.0" stroke="rgb(0,0,0)"  stroke-width="2.0"/>
<line x1="329.3" y1="80.0" x2="294.6" y2="100.0" stroke="rgb(0,0,0)"  stroke-width="2.0"/>
<line x1="327.7" y1="89.2" x2="303.4" y2="103.2" stroke="rgb(0,0,0)"  stroke-width="2.0"/>
<line x1="160.0" y1="125.4" x2="140.0" y2="160.0" stroke="rgb(0,0,0)"  stroke-width="2.0"/>
<line x1="163.2" y1="134.2" x2="149.2" y2="158.4" stroke="rgb(0,0,0)"  stroke-width="2.0"/>
<line x1="140.0" y1="160.0" x2="153.5" y2="183.4" stroke="rgb(0,0,0)"  stroke-width="2.0"/>
<line x1="173.0" y1="194.6" x2="200.0" y2="194.6" stroke="rgb(0,0,0)"  stroke-width="2.0"/>
<line x1="200.0" y1="194.6" x2="220.0" y2="160.0" stroke="rgb(0,0,0)"  stroke-width="2.0"/>
<line x1="220.0" y1="160.0" x2="200.0" y2="125.4" stroke="rgb(0,0,0)"  stroke-width="2.0"/>
<line x1="210.8" y1="158.4" x2="196.8" y2="134.2" stroke="rgb(0,0,0)"  stroke-width="2.0"/>
<line x1="200.0" y1="125.4" x2="160.0" y2="125.4" stroke="rgb(0,0,0)"  stroke-width="2.0"/>
<line x1="80.0" y1="125.4" x2="100.0" y2="160.0" stroke="rgb(0,0,0)"  stroke-width="2.0"/>
<line x1="89.2" y1="127.0" x2="103.2" y2="151.2" stroke="rgb(0,0,0)"  stroke-width="2.0"/>
<line x1="100.0" y1="160.0" x2="140.0" y2="160.0" stroke="rgb(0,0,0)"  stroke-width="2.0"/>
<line x1="160.0" y1="125.4" x2="140.0" y2="90.7" stroke="rgb(0,0,0)"  stroke-width="2.0"/>
<line x1="140.0" y1="90.7" x2="100.0" y2="90.7" stroke="rgb(0,0,0)"  stroke-width="2.0"/>
<line x1="134.0" y1="97.9" x2="106.0" y2="97.9" stroke="rgb(0,0,0)"  stroke-width="2.0"/>
<line x1="100.0" y1="90.7" x2="80.0" y2="125.4" stroke="rgb(0,0,0)"  stroke-width="2.0"/>
<line x1="260.0" y1="200.0" x2="294.6" y2="220.0" stroke="rgb(0,0,0)"  stroke-width="2.0"/>
<line x1="294.6" y1="220.0" x2="329.3" y2="200.0" stroke="rgb(0,0,0)"  stroke-width="2.0"/>
<line x1="329.3" y1="200.0" x2="329.3" y2="160.0" stroke="rgb(0,0,0)"  stroke-width="2.0"/>
<line x1="294.6" y1="140.0" x2="260.0" y2="160.0" stroke="rgb(0,0,0)"  stroke-width="2.0"/>
<line x1="260.0" y1="160.0" x2="260.0" y2="200.0" stroke="rgb(0,0,0)"  stroke-width="2.0"/>
<text x="268.641016" y="262.641016" fill="rgb(191,191,191)"  stroke="rgb(191,191,191)" stroke-width="1" font-size="16" >H</text>
<text x="214.000000" y="237.282032" fill="rgb(255,12,12)"  stroke="rgb(255,12,12)" stroke-width="1" font-size="16" >O</text>
<text x="214.000000" y="98.717968" fill="rgb(255,12,12)"  stroke="rgb(255,12,12)" stroke-width="1" font-size="16" >O</text>
<text x="392.564065" y="88.000000" fill="rgb(191,191,191)"  stroke="rgb(191,191,191)" stroke-width="1" font-size="16" >H</text>
<text x="323.282032" y="48.000000" fill="rgb(191,191,191)"  stroke="rgb(191,191,191)" stroke-width="1" font-size="16" >H</text>
<text x="254.000000" y="88.000000" fill="rgb(191,191,191)"  stroke="rgb(191,191,191)" stroke-width="1" font-size="16" >H</text>
<text x="392.564065" y="168.000000" fill="rgb(191,191,191)"  stroke="rgb(191,191,191)" stroke-width="1" font-size="16" >H</text>
<text x="343.282032" y="242.641016" fill="rgb(191,191,191)"  stroke="rgb(191,191,191)" stroke-width="1" font-size="16" >H</text>
<text x="363.282032" y="208.000000" fill="rgb(191,191,191)"  stroke="rgb(191,191,191)" stroke-width="1" font-size="16" >H</text>
<text x="154.000000" y="202.641016" fill="rgb(255,12,12)"  stroke="rgb(255,12,12)" stroke-width="1" font-size="16" >O</text>
<text x="308.641016" y="262.641016" fill="rgb(191,191,191)"  stroke="rgb(191,191,191)" stroke-width="1" font-size="16" >H</text>
<text x="214.000000" y="208.000000" fill="rgb(191,191,191)"  stroke="rgb(191,191,191)" stroke-width="1" font-size="16" >H</text>
<text x="234.000000" y="242.641016" fill="rgb(191,191,191)"  stroke="rgb(191,191,191)" stroke-width="1" font-size="16" >H</text>
<text x="154.000000" y="64.076952" fill="rgb(191,191,191)"  stroke="rgb(191,191,191)" stroke-width="1" font-size="16" >H</text>
<text x="74.000000" y="64.076952" fill="rgb(191,191,191)"  stroke="rgb(191,191,191)" stroke-width="1" font-size="16" >H</text>
<text x="34.000000" y="133.358984" fill="rgb(191,191,191)"  stroke="rgb(191,191,191)" stroke-width="1" font-size="16" >H</text>
<text x="74.000000" y="202.641016" fill="rgb(191,191,191)"  stroke="rgb(191,191,191)" stroke-width="1" font-size="16" >H</text>
<text x="194.000000" y="64.076952" fill="rgb(191,191,191)"  stroke="rgb(191,191,191)" stroke-width="1" font-size="16" >H</text>
<text x="234.000000" y="133.358984" fill="rgb(191,191,191)"  stroke="rgb(191,191,191)" stroke-width="1" font-size="16" >H</text>
</svg>
</g>
<text font-size="18.000000" fill ="black" font-family="sans-serif"
x="10.000000" y="20.000000" >ZINC05934761</text>
</svg>
