<?xml version="1.0"?>
<svg version="1.1" id="topsvg"
xmlns="http://www.w3.org/2000/svg" xmlns:xlink="http://www.w3.org/1999/xlink"
xmlns:cml="http://www.xml-cml.org/schema" x="0" y="0" width="200px" height="200px" viewBox="0 0 100 100">
<title>ZINC00270761 - Open Babel Depiction</title>
<rect x="0" y="0" width="100" height="100" fill="white"/>
<g transform="translate(0,0)">
<svg width="100" height="100" x="0" y="0" viewBox="0 0 401.778 253.506"
font-family="sans-serif" stroke="rgb(0,0,0)" stroke-width="2"  stroke-linecap="round">
<line x1="323.4" y1="149.8" x2="292.2" y2="127.2" stroke="rgb(0,0,0)"  stroke-width="2.0"/>
<line x1="323.4" y1="149.8" x2="348.8" y2="152.5" stroke="rgb(0,0,0)"  stroke-width="2.0"/>
<line x1="323.4" y1="149.8" x2="338.4" y2="129.2" stroke="rgb(0,0,0)"  stroke-width="2.0"/>
<line x1="323.4" y1="149.8" x2="320.7" y2="175.3" stroke="rgb(0,0,0)"  stroke-width="2.0"/>
<line x1="292.2" y1="88.6" x2="312.9" y2="73.6" stroke="rgb(0,0,0)"  stroke-width="2.0"/>
<line x1="252.7" y1="77.6" x2="244.8" y2="53.3" stroke="rgb(0,0,0)"  stroke-width="2.0"/>
<line x1="258.4" y1="75.8" x2="250.5" y2="51.4" stroke="rgb(0,0,0)"  stroke-width="2.0"/>
<line x1="219.9" y1="107.9" x2="155.7" y2="107.9" stroke="rgb(0,0,0)"  stroke-width="2.0"/>
<line x1="251.5" y1="151.5" x2="243.6" y2="175.8" stroke="rgb(0,0,0)"  stroke-width="2.0"/>
<line x1="243.6" y1="175.8" x2="248.9" y2="200.8" stroke="rgb(0,0,0)"  stroke-width="2.0"/>
<line x1="243.6" y1="175.8" x2="267.9" y2="183.7" stroke="rgb(0,0,0)"  stroke-width="2.0"/>
<line x1="243.6" y1="175.8" x2="218.6" y2="181.1" stroke="rgb(0,0,0)"  stroke-width="2.0"/>
<line x1="136.4" y1="74.5" x2="149.2" y2="52.3" stroke="rgb(0,0,0)"  stroke-width="2.0"/>
<line x1="97.9" y1="74.5" x2="85.1" y2="52.3" stroke="rgb(0,0,0)"  stroke-width="2.0"/>
<line x1="78.6" y1="107.9" x2="53.0" y2="107.9" stroke="rgb(0,0,0)"  stroke-width="2.0"/>
<line x1="97.9" y1="141.3" x2="85.1" y2="163.4" stroke="rgb(0,0,0)"  stroke-width="2.0"/>
<line x1="136.4" y1="141.3" x2="149.2" y2="163.4" stroke="rgb(0,0,0)"  stroke-width="2.0"/>
<line x1="255.5" y1="76.7" x2="240.5" y2="97.4" stroke="rgb(0,0,0)"  stroke-width="2.0"/>
<line x1="240.5" y1="118.4" x2="247.9" y2="128.6" stroke="rgb(0,0,0)"  stroke-width="2.0"/>
<line x1="267.9" y1="135.1" x2="292.2" y2="127.2" stroke="rgb(0,0,0)"  stroke-width="2.0"/>
<line x1="292.2" y1="127.2" x2="292.2" y2="88.6" stroke="rgb(0,0,0)"  stroke-width="2.0"/>
<line x1="285.0" y1="121.2" x2="285.0" y2="94.6" stroke="rgb(0,0,0)"  stroke-width="2.0"/>
<line x1="292.2" y1="88.6" x2="255.5" y2="76.7" stroke="rgb(0,0,0)"  stroke-width="2.0"/>
<line x1="97.9" y1="74.5" x2="78.6" y2="107.9" stroke="rgb(0,0,0)"  stroke-width="2.0"/>
<line x1="78.6" y1="107.9" x2="97.9" y2="141.3" stroke="rgb(0,0,0)"  stroke-width="2.0"/>
<line x1="87.8" y1="109.5" x2="101.1" y2="132.5" stroke="rgb(0,0,0)"  stroke-width="2.0"/>
<line x1="97.9" y1="141.3" x2="136.4" y2="141.3" stroke="rgb(0,0,0)"  stroke-width="2.0"/>
<line x1="136.4" y1="141.3" x2="155.7" y2="107.9" stroke="rgb(0,0,0)"  stroke-width="2.0"/>
<line x1="133.2" y1="132.5" x2="146.5" y2="109.5" stroke="rgb(0,0,0)"  stroke-width="2.0"/>
<line x1="155.7" y1="107.9" x2="136.4" y2="74.5" stroke="rgb(0,0,0)"  stroke-width="2.0"/>
<line x1="136.4" y1="74.5" x2="97.9" y2="74.5" stroke="rgb(0,0,0)"  stroke-width="2.0"/>
<line x1="130.4" y1="81.7" x2="103.9" y2="81.7" stroke="rgb(0,0,0)"  stroke-width="2.0"/>
<text x="149.714286" y="182.696224" fill="rgb(191,191,191)"  stroke="rgb(191,191,191)" stroke-width="1" font-size="16" >H</text>
<text x="72.571429" y="182.696224" fill="rgb(191,191,191)"  stroke="rgb(191,191,191)" stroke-width="1" font-size="16" >H</text>
<text x="34.000000" y="115.888550" fill="rgb(191,191,191)"  stroke="rgb(191,191,191)" stroke-width="1" font-size="16" >H</text>
<text x="72.571429" y="49.080876" fill="rgb(191,191,191)"  stroke="rgb(191,191,191)" stroke-width="1" font-size="16" >H</text>
<text x="149.714286" y="49.080876" fill="rgb(191,191,191)"  stroke="rgb(191,191,191)" stroke-width="1" font-size="16" >H</text>
<text x="199.881082" y="191.796550" fill="rgb(191,191,191)"  stroke="rgb(191,191,191)" stroke-width="1" font-size="16" >H</text>
<text x="274.293241" y="195.696326" fill="rgb(191,191,191)"  stroke="rgb(191,191,191)" stroke-width="1" font-size="16" >H</text>
<text x="245.629084" y="221.505650" fill="rgb(191,191,191)"  stroke="rgb(191,191,191)" stroke-width="1" font-size="16" >H</text>
<text x="317.417409" y="73.931119" fill="rgb(191,191,191)"  stroke="rgb(191,191,191)" stroke-width="1" font-size="16" >H</text>
<text x="313.385597" y="196.206111" fill="rgb(191,191,191)"  stroke="rgb(191,191,191)" stroke-width="1" font-size="16" >H</text>
<text x="340.089126" y="126.641040" fill="rgb(191,191,191)"  stroke="rgb(191,191,191)" stroke-width="1" font-size="16" >H</text>
<text x="355.777540" y="161.877793" fill="rgb(191,191,191)"  stroke="rgb(191,191,191)" stroke-width="1" font-size="16" >H</text>
<text x="249.528860" y="147.093491" fill="rgb(12,12,255)"  stroke="rgb(12,12,255)" stroke-width="1" font-size="16" >N</text>
<text x="226.857143" y="115.888550" fill="rgb(12,12,255)"  stroke="rgb(12,12,255)" stroke-width="1" font-size="16" >N</text>
<text x="237.609633" y="48.000000" fill="rgb(178,178,0)"  stroke="rgb(178,178,0)" stroke-width="1" font-size="16" >S</text>
</svg>
</g>
<text font-size="18.000000" fill ="black" font-family="sans-serif"
x="10.000000" y="20.000000" >ZINC00270761</text>
</svg>
