<?xml version="1.0"?>
<svg version="1.1" id="topsvg"
xmlns="http://www.w3.org/2000/svg" xmlns:xlink="http://www.w3.org/1999/xlink"
xmlns:cml="http://www.xml-cml.org/schema" x="0" y="0" width="200px" height="200px" viewBox="0 0 100 100">
<title>ZINC50885779 - Open Babel Depiction</title>
<rect x="0" y="0" width="100" height="100" fill="white"/>
<g transform="translate(0,0)">
<svg width="100" height="100" x="0" y="0" viewBox="0 0 234.641 269.282"
font-family="sans-serif" stroke="rgb(0,0,0)" stroke-width="2"  stroke-linecap="round">
<line x1="120.0" y1="194.6" x2="106.5" y2="218.0" stroke="rgb(0,0,0)"  stroke-width="2.0"/>
<line x1="120.0" y1="194.6" x2="133.5" y2="218.0" stroke="rgb(0,0,0)"  stroke-width="2.0"/>
<line x1="154.6" y1="174.6" x2="168.1" y2="198.0" stroke="rgb(0,0,0)"  stroke-width="2.0"/>
<line x1="154.6" y1="174.6" x2="181.6" y2="174.6" stroke="rgb(0,0,0)"  stroke-width="2.0"/>
<polygon points="120.000000 114.641016 129.935898 89.431535 136.864102 93.431535 " stroke-width="2.000000" fill="rgb(0,0,0)"  stroke="rgb(0,0,0)" />
<line x1="120.0" y1="114.6" x2="100.0" y2="80.0" stroke="rgb(0,0,0)"  stroke-width="2.0"/>
<line x1="85.4" y1="134.6" x2="71.9" y2="111.3" stroke="rgb(0,0,0)"  stroke-width="2.0"/>
<line x1="85.4" y1="134.6" x2="58.4" y2="134.6" stroke="rgb(0,0,0)"  stroke-width="2.0"/>
<line x1="72.4" y1="174.6" x2="58.4" y2="174.6" stroke="rgb(0,0,0)"  stroke-width="2.0"/>
<line x1="78.9" y1="185.9" x2="71.9" y2="198.0" stroke="rgb(0,0,0)"  stroke-width="2.0"/>
<line x1="100.0" y1="80.0" x2="73.0" y2="80.0" stroke="rgb(0,0,0)"  stroke-width="2.0"/>
<line x1="100.0" y1="80.0" x2="100.0" y2="53.0" stroke="rgb(0,0,0)"  stroke-width="2.0"/>
<line x1="100.0" y1="80.0" x2="123.4" y2="66.5" stroke="rgb(0,0,0)"  stroke-width="2.0"/>
<line x1="53.5" y1="91.3" x2="46.5" y2="103.4" stroke="rgb(0,0,0)"  stroke-width="2.0"/>
<line x1="53.5" y1="68.7" x2="46.5" y2="56.6" stroke="rgb(0,0,0)"  stroke-width="2.0"/>
<line x1="143.4" y1="128.1" x2="120.0" y2="114.6" stroke="rgb(0,0,0)"  stroke-width="2.0"/>
<line x1="120.0" y1="114.6" x2="85.4" y2="134.6" stroke="rgb(0,0,0)"  stroke-width="2.0"/>
<line x1="85.4" y1="134.6" x2="85.4" y2="161.6" stroke="rgb(0,0,0)"  stroke-width="2.0"/>
<line x1="96.6" y1="181.1" x2="120.0" y2="194.6" stroke="rgb(0,0,0)"  stroke-width="2.0"/>
<line x1="120.0" y1="194.6" x2="154.6" y2="174.6" stroke="rgb(0,0,0)"  stroke-width="2.0"/>
<line x1="154.6" y1="174.6" x2="154.6" y2="147.6" stroke="rgb(0,0,0)"  stroke-width="2.0"/>
<text x="134.000000" y="237.282032" fill="rgb(191,191,191)"  stroke="rgb(191,191,191)" stroke-width="1" font-size="16" >H</text>
<text x="59.358984" y="217.282032" fill="rgb(191,191,191)"  stroke="rgb(191,191,191)" stroke-width="1" font-size="16" >H</text>
<text x="34.000000" y="53.358984" fill="rgb(191,191,191)"  stroke="rgb(191,191,191)" stroke-width="1" font-size="16" >H</text>
<text x="34.000000" y="122.641016" fill="rgb(191,191,191)"  stroke="rgb(191,191,191)" stroke-width="1" font-size="16" >H</text>
<text x="128.641016" y="68.000000" fill="rgb(191,191,191)"  stroke="rgb(191,191,191)" stroke-width="1" font-size="16" >H</text>
<text x="94.000000" y="48.000000" fill="rgb(191,191,191)"  stroke="rgb(191,191,191)" stroke-width="1" font-size="16" >H</text>
<text x="39.358984" y="182.641016" fill="rgb(191,191,191)"  stroke="rgb(191,191,191)" stroke-width="1" font-size="16" >H</text>
<text x="39.358984" y="142.641016" fill="rgb(191,191,191)"  stroke="rgb(191,191,191)" stroke-width="1" font-size="16" >H</text>
<text x="59.358984" y="108.000000" fill="rgb(191,191,191)"  stroke="rgb(191,191,191)" stroke-width="1" font-size="16" >H</text>
<text x="188.641016" y="182.641016" fill="rgb(191,191,191)"  stroke="rgb(191,191,191)" stroke-width="1" font-size="16" >H</text>
<text x="168.641016" y="217.282032" fill="rgb(191,191,191)"  stroke="rgb(191,191,191)" stroke-width="1" font-size="16" >H</text>
<text x="94.000000" y="237.282032" fill="rgb(191,191,191)"  stroke="rgb(191,191,191)" stroke-width="1" font-size="16" >H</text>
<text x="54.000000" y="88.000000" fill="rgb(12,12,255)"  stroke="rgb(12,12,255)" stroke-width="1" font-size="16" >N</text>
<text x="90.158984" y="170.609016" fill="rgb(12,12,255)"  stroke="rgb(12,12,255)" stroke-width="1" font-size="16" >+</text>
<text x="79.358984" y="182.641016" fill="rgb(12,12,255)"  stroke="rgb(12,12,255)" stroke-width="1" font-size="16" >N</text>
<text x="134.000000" y="88.000000" fill="rgb(191,191,191)"  stroke="rgb(191,191,191)" stroke-width="1" font-size="16" >H</text>
<text x="148.641016" y="142.641016" fill="rgb(255,12,12)"  stroke="rgb(255,12,12)" stroke-width="1" font-size="16" >O</text>
</svg>
</g>
<text font-size="18.000000" fill ="black" font-family="sans-serif"
x="10.000000" y="20.000000" >ZINC50885779</text>
</svg>
