<?xml version="1.0"?>
<svg version="1.1" id="topsvg"
xmlns="http://www.w3.org/2000/svg" xmlns:xlink="http://www.w3.org/1999/xlink"
xmlns:cml="http://www.xml-cml.org/schema" x="0" y="0" width="200px" height="200px" viewBox="0 0 100 100">
<title>ZINC14879992 - Open Babel Depiction</title>
<rect x="0" y="0" width="100" height="100" fill="white"/>
<g transform="translate(0,0)">
<svg width="100" height="100" x="0" y="0" viewBox="0 0 428.75 415.585"
font-family="sans-serif" stroke="rgb(0,0,0)" stroke-width="2"  stroke-linecap="round">
<line x1="195.0" y1="107.1" x2="169.2" y2="107.1" stroke="rgb(0,0,0)"  stroke-width="2.0"/>
<line x1="195.0" y1="107.1" x2="217.3" y2="94.2" stroke="rgb(0,0,0)"  stroke-width="2.0"/>
<line x1="195.0" y1="107.1" x2="195.0" y2="81.4" stroke="rgb(0,0,0)"  stroke-width="2.0"/>
<line x1="195.0" y1="107.1" x2="207.9" y2="129.4" stroke="rgb(0,0,0)"  stroke-width="2.0"/>
<line x1="149.7" y1="95.9" x2="136.9" y2="73.6" stroke="rgb(0,0,0)"  stroke-width="2.0"/>
<line x1="149.7" y1="118.4" x2="136.9" y2="140.7" stroke="rgb(0,0,0)"  stroke-width="2.0"/>
<line x1="136.9" y1="73.6" x2="114.6" y2="60.7" stroke="rgb(0,0,0)"  stroke-width="2.0"/>
<line x1="136.9" y1="73.6" x2="114.6" y2="86.4" stroke="rgb(0,0,0)"  stroke-width="2.0"/>
<line x1="136.9" y1="73.6" x2="149.7" y2="51.3" stroke="rgb(0,0,0)"  stroke-width="2.0"/>
<line x1="98.1" y1="140.7" x2="85.2" y2="118.4" stroke="rgb(0,0,0)"  stroke-width="2.0"/>
<line x1="78.8" y1="174.2" x2="53.0" y2="174.2" stroke="rgb(0,0,0)"  stroke-width="2.0"/>
<line x1="98.1" y1="207.8" x2="85.3" y2="230.1" stroke="rgb(0,0,0)"  stroke-width="2.0"/>
<line x1="195.0" y1="174.2" x2="217.3" y2="161.4" stroke="rgb(0,0,0)"  stroke-width="2.0"/>
<line x1="195.0" y1="174.2" x2="195.0" y2="148.5" stroke="rgb(0,0,0)"  stroke-width="2.0"/>
<line x1="216.3" y1="202.9" x2="217.7" y2="203.7" stroke="rgb(0,0,0)"  stroke-width="1.0"/>
<line x1="217.8" y1="199.0" x2="220.3" y2="200.4" stroke="rgb(0,0,0)"  stroke-width="1.0"/>
<line x1="219.3" y1="195.1" x2="222.9" y2="197.1" stroke="rgb(0,0,0)"  stroke-width="1.0"/>
<line x1="220.8" y1="191.1" x2="225.6" y2="193.9" stroke="rgb(0,0,0)"  stroke-width="1.0"/>
<line x1="222.4" y1="187.2" x2="228.2" y2="190.6" stroke="rgb(0,0,0)"  stroke-width="1.0"/>
<line x1="223.9" y1="183.3" x2="230.8" y2="187.3" stroke="rgb(0,0,0)"  stroke-width="1.0"/>
<line x1="253.1" y1="207.8" x2="275.4" y2="194.9" stroke="rgb(0,0,0)"  stroke-width="2.0"/>
<line x1="253.1" y1="207.8" x2="253.1" y2="182.0" stroke="rgb(0,0,0)"  stroke-width="2.0"/>
<line x1="272.5" y1="241.4" x2="285.4" y2="219.1" stroke="rgb(0,0,0)"  stroke-width="2.0"/>
<line x1="269.3" y1="248.5" x2="267.9" y2="247.7" stroke="rgb(0,0,0)"  stroke-width="1.0"/>
<line x1="266.8" y1="254.2" x2="264.3" y2="252.7" stroke="rgb(0,0,0)"  stroke-width="1.0"/>
<line x1="264.2" y1="259.8" x2="260.6" y2="257.8" stroke="rgb(0,0,0)"  stroke-width="1.0"/>
<line x1="261.7" y1="265.5" x2="257.0" y2="262.8" stroke="rgb(0,0,0)"  stroke-width="1.0"/>
<line x1="259.1" y1="271.2" x2="253.3" y2="267.9" stroke="rgb(0,0,0)"  stroke-width="1.0"/>
<line x1="256.6" y1="276.9" x2="249.7" y2="272.9" stroke="rgb(0,0,0)"  stroke-width="1.0"/>
<polygon points="311.250000 241.350906 272.500000 245.350906 272.500000 237.350906 " stroke-width="2.000000" fill="rgb(0,0,0)"  stroke="rgb(0,0,0)" />
<line x1="311.3" y1="241.4" x2="333.6" y2="228.5" stroke="rgb(0,0,0)"  stroke-width="2.0"/>
<line x1="311.3" y1="241.4" x2="311.3" y2="176.9" stroke="rgb(0,0,0)"  stroke-width="2.0"/>
<line x1="330.6" y1="271.9" x2="356.4" y2="271.9" stroke="rgb(0,0,0)"  stroke-width="2.0"/>
<line x1="330.6" y1="277.9" x2="356.4" y2="277.9" stroke="rgb(0,0,0)"  stroke-width="2.0"/>
<line x1="311.3" y1="308.5" x2="330.6" y2="342.0" stroke="rgb(0,0,0)"  stroke-width="2.0"/>
<line x1="272.5" y1="308.5" x2="259.6" y2="330.8" stroke="rgb(0,0,0)"  stroke-width="2.0"/>
<line x1="248.6" y1="284.3" x2="247.2" y2="283.5" stroke="rgb(0,0,0)"  stroke-width="1.0"/>
<line x1="245.0" y1="291.8" x2="242.5" y2="290.4" stroke="rgb(0,0,0)"  stroke-width="1.0"/>
<line x1="241.4" y1="299.3" x2="237.8" y2="297.3" stroke="rgb(0,0,0)"  stroke-width="1.0"/>
<line x1="237.8" y1="306.8" x2="233.1" y2="304.1" stroke="rgb(0,0,0)"  stroke-width="1.0"/>
<line x1="234.2" y1="314.4" x2="228.4" y2="311.0" stroke="rgb(0,0,0)"  stroke-width="1.0"/>
<line x1="230.6" y1="321.9" x2="223.7" y2="317.9" stroke="rgb(0,0,0)"  stroke-width="1.0"/>
<line x1="214.4" y1="274.9" x2="201.5" y2="297.2" stroke="rgb(0,0,0)"  stroke-width="2.0"/>
<line x1="158.8" y1="242.9" x2="146.0" y2="265.2" stroke="rgb(0,0,0)"  stroke-width="2.0"/>
<line x1="153.7" y1="239.9" x2="140.8" y2="262.2" stroke="rgb(0,0,0)"  stroke-width="2.0"/>
<line x1="201.4" y1="342.0" x2="188.6" y2="342.0" stroke="rgb(0,0,0)"  stroke-width="2.0"/>
<line x1="333.2" y1="343.5" x2="320.3" y2="365.8" stroke="rgb(0,0,0)"  stroke-width="2.0"/>
<line x1="328.0" y1="340.5" x2="315.2" y2="362.8" stroke="rgb(0,0,0)"  stroke-width="2.0"/>
<line x1="330.6" y1="342.0" x2="356.4" y2="342.0" stroke="rgb(0,0,0)"  stroke-width="2.0"/>
<line x1="375.9" y1="353.3" x2="382.3" y2="364.3" stroke="rgb(0,0,0)"  stroke-width="2.0"/>
<line x1="375.9" y1="330.8" x2="382.3" y2="319.7" stroke="rgb(0,0,0)"  stroke-width="2.0"/>
<line x1="324.3" y1="163.9" x2="350.0" y2="163.9" stroke="rgb(0,0,0)"  stroke-width="2.0"/>
<line x1="311.3" y1="150.9" x2="311.3" y2="125.1" stroke="rgb(0,0,0)"  stroke-width="2.0"/>
<line x1="298.3" y1="163.9" x2="285.5" y2="163.9" stroke="rgb(0,0,0)"  stroke-width="2.0"/>
<line x1="350.0" y1="163.9" x2="372.3" y2="151.0" stroke="rgb(0,0,0)"  stroke-width="2.0"/>
<line x1="350.0" y1="163.9" x2="350.0" y2="138.1" stroke="rgb(0,0,0)"  stroke-width="2.0"/>
<line x1="350.0" y1="163.9" x2="362.9" y2="186.2" stroke="rgb(0,0,0)"  stroke-width="2.0"/>
<line x1="311.3" y1="125.1" x2="298.4" y2="102.8" stroke="rgb(0,0,0)"  stroke-width="2.0"/>
<line x1="311.3" y1="125.1" x2="285.5" y2="125.1" stroke="rgb(0,0,0)"  stroke-width="2.0"/>
<line x1="311.3" y1="125.1" x2="333.6" y2="112.2" stroke="rgb(0,0,0)"  stroke-width="2.0"/>
<line x1="65.8" y1="241.4" x2="53.0" y2="241.4" stroke="rgb(0,0,0)"  stroke-width="2.0"/>
<line x1="78.8" y1="174.2" x2="98.1" y2="207.8" stroke="rgb(0,0,0)"  stroke-width="2.0"/>
<line x1="98.1" y1="207.8" x2="136.9" y2="207.8" stroke="rgb(0,0,0)"  stroke-width="2.0"/>
<line x1="104.1" y1="200.6" x2="130.9" y2="200.6" stroke="rgb(0,0,0)"  stroke-width="2.0"/>
<line x1="136.9" y1="207.8" x2="156.2" y2="174.2" stroke="rgb(0,0,0)"  stroke-width="2.0"/>
<line x1="156.2" y1="174.2" x2="136.9" y2="140.7" stroke="rgb(0,0,0)"  stroke-width="2.0"/>
<line x1="147.0" y1="172.6" x2="133.6" y2="149.5" stroke="rgb(0,0,0)"  stroke-width="2.0"/>
<line x1="136.9" y1="140.7" x2="98.1" y2="140.7" stroke="rgb(0,0,0)"  stroke-width="2.0"/>
<line x1="98.1" y1="140.7" x2="78.8" y2="174.2" stroke="rgb(0,0,0)"  stroke-width="2.0"/>
<line x1="101.4" y1="149.5" x2="88.0" y2="172.6" stroke="rgb(0,0,0)"  stroke-width="2.0"/>
<line x1="311.3" y1="308.5" x2="330.6" y2="274.9" stroke="rgb(0,0,0)"  stroke-width="2.0"/>
<line x1="330.6" y1="274.9" x2="311.3" y2="241.4" stroke="rgb(0,0,0)"  stroke-width="2.0"/>
<line x1="311.3" y1="241.4" x2="272.5" y2="241.4" stroke="rgb(0,0,0)"  stroke-width="2.0"/>
<line x1="272.5" y1="241.4" x2="253.1" y2="274.9" stroke="rgb(0,0,0)"  stroke-width="2.0"/>
<line x1="253.1" y1="274.9" x2="272.5" y2="308.5" stroke="rgb(0,0,0)"  stroke-width="2.0"/>
<line x1="272.5" y1="308.5" x2="311.3" y2="308.5" stroke="rgb(0,0,0)"  stroke-width="2.0"/>
<line x1="278.5" y1="301.3" x2="305.3" y2="301.3" stroke="rgb(0,0,0)"  stroke-width="2.0"/>
<line x1="272.5" y1="241.4" x2="253.1" y2="207.8" stroke="rgb(0,0,0)"  stroke-width="2.0"/>
<line x1="253.1" y1="207.8" x2="214.4" y2="207.8" stroke="rgb(0,0,0)"  stroke-width="2.0"/>
<line x1="214.4" y1="207.8" x2="195.0" y2="241.4" stroke="rgb(0,0,0)"  stroke-width="2.0"/>
<line x1="195.0" y1="241.4" x2="214.4" y2="274.9" stroke="rgb(0,0,0)"  stroke-width="2.0"/>
<line x1="204.2" y1="242.9" x2="217.6" y2="266.1" stroke="rgb(0,0,0)"  stroke-width="2.0"/>
<line x1="214.4" y1="274.9" x2="253.1" y2="274.9" stroke="rgb(0,0,0)"  stroke-width="2.0"/>
<line x1="214.4" y1="207.8" x2="195.0" y2="174.2" stroke="rgb(0,0,0)"  stroke-width="2.0"/>
<line x1="195.0" y1="174.2" x2="156.2" y2="174.2" stroke="rgb(0,0,0)"  stroke-width="2.0"/>
<line x1="136.9" y1="207.8" x2="156.3" y2="241.4" stroke="rgb(0,0,0)"  stroke-width="2.0"/>
<line x1="156.3" y1="241.4" x2="195.0" y2="241.4" stroke="rgb(0,0,0)"  stroke-width="2.0"/>
<text x="222.558484" y="162.858938" fill="rgb(191,191,191)"  stroke="rgb(191,191,191)" stroke-width="1" font-size="16" >H</text>
<text x="305.250000" y="383.584844" fill="rgb(255,12,12)"  stroke="rgb(255,12,12)" stroke-width="1" font-size="16" >O</text>
<text x="363.375000" y="350.026360" fill="rgb(12,12,255)"  stroke="rgb(12,12,255)" stroke-width="1" font-size="16" >N</text>
<text x="316.050000" y="159.818906" fill="rgb(12,12,255)"  stroke="rgb(12,12,255)" stroke-width="1" font-size="16" >+</text>
<text x="305.250000" y="171.850906" fill="rgb(12,12,255)"  stroke="rgb(12,12,255)" stroke-width="1" font-size="16" >N</text>
<text x="72.750000" y="249.350906" fill="rgb(255,12,12)"  stroke="rgb(255,12,12)" stroke-width="1" font-size="16" >O</text>
<text x="222.558484" y="95.741969" fill="rgb(191,191,191)"  stroke="rgb(191,191,191)" stroke-width="1" font-size="16" >H</text>
<text x="189.000000" y="76.366969" fill="rgb(191,191,191)"  stroke="rgb(191,191,191)" stroke-width="1" font-size="16" >H</text>
<text x="208.375000" y="148.675453" fill="rgb(191,191,191)"  stroke="rgb(191,191,191)" stroke-width="1" font-size="16" >H</text>
<text x="97.316516" y="62.183484" fill="rgb(191,191,191)"  stroke="rgb(191,191,191)" stroke-width="1" font-size="16" >H</text>
<text x="97.316516" y="100.933484" fill="rgb(191,191,191)"  stroke="rgb(191,191,191)" stroke-width="1" font-size="16" >H</text>
<text x="150.250000" y="48.000000" fill="rgb(191,191,191)"  stroke="rgb(191,191,191)" stroke-width="1" font-size="16" >H</text>
<text x="72.750000" y="115.116969" fill="rgb(191,191,191)"  stroke="rgb(191,191,191)" stroke-width="1" font-size="16" >H</text>
<text x="34.000000" y="182.233938" fill="rgb(191,191,191)"  stroke="rgb(191,191,191)" stroke-width="1" font-size="16" >H</text>
<text x="189.000000" y="143.483938" fill="rgb(191,191,191)"  stroke="rgb(191,191,191)" stroke-width="1" font-size="16" >H</text>
<text x="280.683484" y="196.417422" fill="rgb(191,191,191)"  stroke="rgb(191,191,191)" stroke-width="1" font-size="16" >H</text>
<text x="247.125000" y="177.042422" fill="rgb(191,191,191)"  stroke="rgb(191,191,191)" stroke-width="1" font-size="16" >H</text>
<text x="169.625000" y="350.026360" fill="rgb(191,191,191)"  stroke="rgb(191,191,191)" stroke-width="1" font-size="16" >H</text>
<text x="382.750000" y="383.584844" fill="rgb(191,191,191)"  stroke="rgb(191,191,191)" stroke-width="1" font-size="16" >H</text>
<text x="382.750000" y="316.467875" fill="rgb(191,191,191)"  stroke="rgb(191,191,191)" stroke-width="1" font-size="16" >H</text>
<text x="377.558484" y="152.475906" fill="rgb(191,191,191)"  stroke="rgb(191,191,191)" stroke-width="1" font-size="16" >H</text>
<text x="344.000000" y="133.100906" fill="rgb(191,191,191)"  stroke="rgb(191,191,191)" stroke-width="1" font-size="16" >H</text>
<text x="363.375000" y="205.409391" fill="rgb(191,191,191)"  stroke="rgb(191,191,191)" stroke-width="1" font-size="16" >H</text>
<text x="285.875000" y="99.542422" fill="rgb(191,191,191)"  stroke="rgb(191,191,191)" stroke-width="1" font-size="16" >H</text>
<text x="266.500000" y="133.100906" fill="rgb(191,191,191)"  stroke="rgb(191,191,191)" stroke-width="1" font-size="16" >H</text>
<text x="338.808484" y="113.725906" fill="rgb(191,191,191)"  stroke="rgb(191,191,191)" stroke-width="1" font-size="16" >H</text>
<text x="34.000000" y="249.350906" fill="rgb(191,191,191)"  stroke="rgb(191,191,191)" stroke-width="1" font-size="16" >H</text>
<text x="266.500000" y="171.850906" fill="rgb(191,191,191)"  stroke="rgb(191,191,191)" stroke-width="1" font-size="16" >H</text>
<text x="150.250000" y="115.116969" fill="rgb(12,12,255)"  stroke="rgb(12,12,255)" stroke-width="1" font-size="16" >N</text>
<text x="227.750000" y="182.233938" fill="rgb(191,191,191)"  stroke="rgb(191,191,191)" stroke-width="1" font-size="16" >H</text>
<text x="285.875000" y="215.792422" fill="rgb(191,191,191)"  stroke="rgb(191,191,191)" stroke-width="1" font-size="16" >H</text>
<text x="338.808484" y="229.975906" fill="rgb(191,191,191)"  stroke="rgb(191,191,191)" stroke-width="1" font-size="16" >H</text>
<text x="363.375000" y="282.909391" fill="rgb(255,12,12)"  stroke="rgb(255,12,12)" stroke-width="1" font-size="16" >O</text>
<text x="177.000000" y="316.467875" fill="rgb(255,12,12)"  stroke="rgb(255,12,12)" stroke-width="1" font-size="16" >HO</text>
<text x="130.875000" y="282.909391" fill="rgb(255,12,12)"  stroke="rgb(255,12,12)" stroke-width="1" font-size="16" >O</text>
<text x="208.375000" y="350.026360" fill="rgb(255,12,12)"  stroke="rgb(255,12,12)" stroke-width="1" font-size="16" >O</text>
<text x="235.125000" y="350.026360" fill="rgb(255,12,12)"  stroke="rgb(255,12,12)" stroke-width="1" font-size="16" >HO</text>
</svg>
</g>
<text font-size="18.000000" fill ="black" font-family="sans-serif"
x="10.000000" y="20.000000" >ZINC14879992</text>
</svg>
