<?xml version="1.0"?>
<svg version="1.1" id="topsvg"
xmlns="http://www.w3.org/2000/svg" xmlns:xlink="http://www.w3.org/1999/xlink"
xmlns:cml="http://www.xml-cml.org/schema" x="0" y="0" width="200px" height="200px" viewBox="0 0 100 100">
<title>ZINC09466706 - Open Babel Depiction</title>
<rect x="0" y="0" width="100" height="100" fill="white"/>
<g transform="translate(0,0)">
<svg width="100" height="100" x="0" y="0" viewBox="0 0 383.788 315.75"
font-family="sans-serif" stroke="rgb(0,0,0)" stroke-width="2"  stroke-linecap="round">
<line x1="136.8" y1="242.2" x2="123.9" y2="264.5" stroke="rgb(0,0,0)"  stroke-width="2.0"/>
<line x1="175.5" y1="242.2" x2="188.3" y2="264.5" stroke="rgb(0,0,0)"  stroke-width="2.0"/>
<line x1="194.8" y1="208.7" x2="220.5" y2="208.7" stroke="rgb(0,0,0)"  stroke-width="2.0"/>
<line x1="175.5" y1="175.2" x2="214.2" y2="108.1" stroke="rgb(0,0,0)"  stroke-width="2.0"/>
<line x1="136.8" y1="175.2" x2="117.4" y2="141.7" stroke="rgb(0,0,0)"  stroke-width="2.0"/>
<line x1="117.4" y1="208.7" x2="91.7" y2="208.7" stroke="rgb(0,0,0)"  stroke-width="2.0"/>
<line x1="117.4" y1="141.7" x2="117.4" y2="115.9" stroke="rgb(0,0,0)"  stroke-width="2.0"/>
<line x1="117.4" y1="141.7" x2="139.7" y2="128.8" stroke="rgb(0,0,0)"  stroke-width="2.0"/>
<line x1="117.4" y1="141.7" x2="91.7" y2="141.7" stroke="rgb(0,0,0)"  stroke-width="2.0"/>
<line x1="214.2" y1="108.1" x2="239.9" y2="108.1" stroke="rgb(0,0,0)"  stroke-width="2.0"/>
<line x1="214.2" y1="108.1" x2="191.9" y2="95.3" stroke="rgb(0,0,0)"  stroke-width="2.0"/>
<line x1="214.2" y1="108.1" x2="214.2" y2="82.4" stroke="rgb(0,0,0)"  stroke-width="2.0"/>
<line x1="275.7" y1="76.8" x2="267.7" y2="52.4" stroke="rgb(0,0,0)"  stroke-width="2.0"/>
<line x1="312.5" y1="88.8" x2="333.3" y2="73.7" stroke="rgb(0,0,0)"  stroke-width="2.0"/>
<line x1="275.7" y1="139.4" x2="267.7" y2="163.9" stroke="rgb(0,0,0)"  stroke-width="2.0"/>
<line x1="78.7" y1="167.4" x2="78.7" y2="154.7" stroke="rgb(0,0,0)"  stroke-width="2.0"/>
<line x1="53.0" y1="141.7" x2="65.7" y2="141.7" stroke="rgb(0,0,0)"  stroke-width="2.0"/>
<line x1="78.7" y1="128.7" x2="78.7" y2="115.9" stroke="rgb(0,0,0)"  stroke-width="2.0"/>
<line x1="323.0" y1="135.1" x2="333.3" y2="142.6" stroke="rgb(0,0,0)"  stroke-width="2.0"/>
<line x1="312.5" y1="88.8" x2="312.5" y2="114.5" stroke="rgb(0,0,0)"  stroke-width="2.0"/>
<line x1="300.3" y1="131.4" x2="275.7" y2="139.4" stroke="rgb(0,0,0)"  stroke-width="2.0"/>
<line x1="296.1" y1="125.2" x2="279.1" y2="130.7" stroke="rgb(0,0,0)"  stroke-width="2.0"/>
<line x1="275.7" y1="139.4" x2="260.5" y2="118.6" stroke="rgb(0,0,0)"  stroke-width="2.0"/>
<line x1="260.5" y1="97.6" x2="275.7" y2="76.8" stroke="rgb(0,0,0)"  stroke-width="2.0"/>
<line x1="275.7" y1="76.8" x2="312.5" y2="88.8" stroke="rgb(0,0,0)"  stroke-width="2.0"/>
<line x1="279.1" y1="85.5" x2="304.5" y2="93.8" stroke="rgb(0,0,0)"  stroke-width="2.0"/>
<line x1="194.8" y1="208.7" x2="175.5" y2="175.2" stroke="rgb(0,0,0)"  stroke-width="2.0"/>
<line x1="175.5" y1="175.2" x2="136.8" y2="175.2" stroke="rgb(0,0,0)"  stroke-width="2.0"/>
<line x1="169.5" y1="182.4" x2="142.8" y2="182.4" stroke="rgb(0,0,0)"  stroke-width="2.0"/>
<line x1="136.8" y1="175.2" x2="117.4" y2="208.7" stroke="rgb(0,0,0)"  stroke-width="2.0"/>
<line x1="117.4" y1="208.7" x2="136.8" y2="242.2" stroke="rgb(0,0,0)"  stroke-width="2.0"/>
<line x1="126.7" y1="210.3" x2="140.0" y2="233.4" stroke="rgb(0,0,0)"  stroke-width="2.0"/>
<line x1="136.8" y1="242.2" x2="175.5" y2="242.2" stroke="rgb(0,0,0)"  stroke-width="2.0"/>
<line x1="175.5" y1="242.2" x2="194.8" y2="208.7" stroke="rgb(0,0,0)"  stroke-width="2.0"/>
<line x1="172.2" y1="233.4" x2="185.6" y2="210.3" stroke="rgb(0,0,0)"  stroke-width="2.0"/>
<text x="227.548387" y="216.702570" fill="rgb(191,191,191)"  stroke="rgb(191,191,191)" stroke-width="1" font-size="16" >H</text>
<text x="337.788081" y="158.239694" fill="rgb(191,191,191)"  stroke="rgb(191,191,191)" stroke-width="1" font-size="16" >H</text>
<text x="306.471294" y="135.486717" fill="rgb(12,12,255)"  stroke="rgb(12,12,255)" stroke-width="1" font-size="16" >N</text>
<text x="72.709677" y="110.945764" fill="rgb(191,191,191)"  stroke="rgb(191,191,191)" stroke-width="1" font-size="16" >H</text>
<text x="83.509677" y="137.623442" fill="rgb(12,12,255)"  stroke="rgb(12,12,255)" stroke-width="1" font-size="16" >+</text>
<text x="72.709677" y="149.655442" fill="rgb(12,12,255)"  stroke="rgb(12,12,255)" stroke-width="1" font-size="16" >N</text>
<text x="257.694255" y="184.263756" fill="rgb(191,191,191)"  stroke="rgb(191,191,191)" stroke-width="1" font-size="16" >H</text>
<text x="337.788081" y="74.024062" fill="rgb(191,191,191)"  stroke="rgb(191,191,191)" stroke-width="1" font-size="16" >H</text>
<text x="257.694255" y="48.000000" fill="rgb(191,191,191)"  stroke="rgb(191,191,191)" stroke-width="1" font-size="16" >H</text>
<text x="208.193548" y="77.422200" fill="rgb(191,191,191)"  stroke="rgb(191,191,191)" stroke-width="1" font-size="16" >H</text>
<text x="174.669984" y="96.777039" fill="rgb(191,191,191)"  stroke="rgb(191,191,191)" stroke-width="1" font-size="16" >H</text>
<text x="34.000000" y="149.655442" fill="rgb(191,191,191)"  stroke="rgb(191,191,191)" stroke-width="1" font-size="16" >H</text>
<text x="72.709677" y="188.365119" fill="rgb(191,191,191)"  stroke="rgb(191,191,191)" stroke-width="1" font-size="16" >H</text>
<text x="144.942919" y="130.300603" fill="rgb(191,191,191)"  stroke="rgb(191,191,191)" stroke-width="1" font-size="16" >H</text>
<text x="111.419355" y="110.945764" fill="rgb(191,191,191)"  stroke="rgb(191,191,191)" stroke-width="1" font-size="16" >H</text>
<text x="72.709677" y="216.702570" fill="rgb(191,191,191)"  stroke="rgb(191,191,191)" stroke-width="1" font-size="16" >H</text>
<text x="188.838710" y="283.749698" fill="rgb(191,191,191)"  stroke="rgb(191,191,191)" stroke-width="1" font-size="16" >H</text>
<text x="111.419355" y="283.749698" fill="rgb(191,191,191)"  stroke="rgb(191,191,191)" stroke-width="1" font-size="16" >H</text>
<text x="246.903226" y="116.131878" fill="rgb(12,12,255)"  stroke="rgb(12,12,255)" stroke-width="1" font-size="16" >N</text>
</svg>
</g>
<text font-size="18.000000" fill ="black" font-family="sans-serif"
x="10.000000" y="20.000000" >ZINC09466706</text>
</svg>
