<?xml version="1.0"?>
<svg version="1.1" id="topsvg"
xmlns="http://www.w3.org/2000/svg" xmlns:xlink="http://www.w3.org/1999/xlink"
xmlns:cml="http://www.xml-cml.org/schema" x="0" y="0" width="200px" height="200px" viewBox="0 0 100 100">
<title>ZINC38531428 - Open Babel Depiction</title>
<rect x="0" y="0" width="100" height="100" fill="white"/>
<g transform="translate(0,0)">
<svg width="100" height="100" x="0" y="0" viewBox="0 0 345.087 236.018"
font-family="sans-serif" stroke="rgb(0,0,0)" stroke-width="2"  stroke-linecap="round">
<line x1="219.7" y1="78.2" x2="240.3" y2="63.3" stroke="rgb(0,0,0)"  stroke-width="2.0"/>
<line x1="219.7" y1="78.2" x2="217.1" y2="52.9" stroke="rgb(0,0,0)"  stroke-width="2.0"/>
<line x1="182.2" y1="86.2" x2="174.3" y2="62.0" stroke="rgb(0,0,0)"  stroke-width="2.0"/>
<line x1="182.2" y1="86.2" x2="157.3" y2="80.9" stroke="rgb(0,0,0)"  stroke-width="2.0"/>
<line x1="166.9" y1="130.9" x2="111.7" y2="162.8" stroke="rgb(0,0,0)"  stroke-width="2.0"/>
<line x1="213.2" y1="140.0" x2="205.4" y2="164.1" stroke="rgb(0,0,0)"  stroke-width="2.0"/>
<line x1="213.2" y1="140.0" x2="230.2" y2="158.9" stroke="rgb(0,0,0)"  stroke-width="2.0"/>
<line x1="243.6" y1="113.8" x2="242.6" y2="115.1" stroke="rgb(0,0,0)"  stroke-width="1.0"/>
<line x1="247.3" y1="115.7" x2="245.6" y2="118.1" stroke="rgb(0,0,0)"  stroke-width="1.0"/>
<line x1="251.0" y1="117.6" x2="248.5" y2="121.0" stroke="rgb(0,0,0)"  stroke-width="1.0"/>
<line x1="254.7" y1="119.5" x2="251.5" y2="123.9" stroke="rgb(0,0,0)"  stroke-width="1.0"/>
<line x1="258.4" y1="121.4" x2="254.5" y2="126.9" stroke="rgb(0,0,0)"  stroke-width="1.0"/>
<line x1="262.1" y1="123.3" x2="257.4" y2="129.8" stroke="rgb(0,0,0)"  stroke-width="1.0"/>
<line x1="238.9" y1="111.4" x2="262.1" y2="101.1" stroke="rgb(0,0,0)"  stroke-width="2.0"/>
<line x1="284.5" y1="103.5" x2="294.6" y2="110.8" stroke="rgb(0,0,0)"  stroke-width="2.0"/>
<line x1="111.7" y1="162.8" x2="78.4" y2="143.6" stroke="rgb(0,0,0)"  stroke-width="2.0"/>
<line x1="111.7" y1="162.8" x2="99.0" y2="184.8" stroke="rgb(0,0,0)"  stroke-width="2.0"/>
<line x1="111.7" y1="162.8" x2="124.4" y2="184.8" stroke="rgb(0,0,0)"  stroke-width="2.0"/>
<line x1="78.4" y1="143.6" x2="78.4" y2="118.2" stroke="rgb(0,0,0)"  stroke-width="2.0"/>
<line x1="78.4" y1="143.6" x2="53.0" y2="143.6" stroke="rgb(0,0,0)"  stroke-width="2.0"/>
<line x1="78.4" y1="143.6" x2="65.7" y2="165.6" stroke="rgb(0,0,0)"  stroke-width="2.0"/>
<line x1="91.4" y1="105.2" x2="103.8" y2="105.2" stroke="rgb(0,0,0)"  stroke-width="2.0"/>
<line x1="78.4" y1="92.2" x2="78.4" y2="79.8" stroke="rgb(0,0,0)"  stroke-width="2.0"/>
<line x1="65.4" y1="105.2" x2="53.0" y2="105.2" stroke="rgb(0,0,0)"  stroke-width="2.0"/>
<line x1="190.0" y1="129.7" x2="213.2" y2="140.0" stroke="rgb(0,0,0)"  stroke-width="2.0"/>
<line x1="213.2" y1="140.0" x2="238.9" y2="111.4" stroke="rgb(0,0,0)"  stroke-width="2.0"/>
<line x1="238.9" y1="111.4" x2="219.7" y2="78.2" stroke="rgb(0,0,0)"  stroke-width="2.0"/>
<line x1="219.7" y1="78.2" x2="182.2" y2="86.2" stroke="rgb(0,0,0)"  stroke-width="2.0"/>
<line x1="182.2" y1="86.2" x2="179.5" y2="111.4" stroke="rgb(0,0,0)"  stroke-width="2.0"/>
<text x="164.313767" y="57.652879" fill="rgb(191,191,191)"  stroke="rgb(191,191,191)" stroke-width="1" font-size="16" >H</text>
<text x="34.000000" y="113.163090" fill="rgb(191,191,191)"  stroke="rgb(191,191,191)" stroke-width="1" font-size="16" >H</text>
<text x="72.400000" y="74.763090" fill="rgb(191,191,191)"  stroke="rgb(191,191,191)" stroke-width="1" font-size="16" >H</text>
<text x="110.800000" y="113.163090" fill="rgb(191,191,191)"  stroke="rgb(191,191,191)" stroke-width="1" font-size="16" >H</text>
<text x="53.200000" y="184.818466" fill="rgb(191,191,191)"  stroke="rgb(191,191,191)" stroke-width="1" font-size="16" >H</text>
<text x="34.000000" y="151.563090" fill="rgb(191,191,191)"  stroke="rgb(191,191,191)" stroke-width="1" font-size="16" >H</text>
<text x="124.855376" y="204.018466" fill="rgb(191,191,191)"  stroke="rgb(191,191,191)" stroke-width="1" font-size="16" >H</text>
<text x="86.455376" y="204.018466" fill="rgb(191,191,191)"  stroke="rgb(191,191,191)" stroke-width="1" font-size="16" >H</text>
<text x="299.087286" y="126.397283" fill="rgb(191,191,191)"  stroke="rgb(191,191,191)" stroke-width="1" font-size="16" >H</text>
<text x="232.940887" y="176.518539" fill="rgb(191,191,191)"  stroke="rgb(191,191,191)" stroke-width="1" font-size="16" >H</text>
<text x="195.380020" y="184.502348" fill="rgb(191,191,191)"  stroke="rgb(191,191,191)" stroke-width="1" font-size="16" >H</text>
<text x="138.619152" y="86.189641" fill="rgb(191,191,191)"  stroke="rgb(191,191,191)" stroke-width="1" font-size="16" >H</text>
<text x="209.726994" y="48.000000" fill="rgb(191,191,191)"  stroke="rgb(191,191,191)" stroke-width="1" font-size="16" >H</text>
<text x="244.807140" y="63.618687" fill="rgb(191,191,191)"  stroke="rgb(191,191,191)" stroke-width="1" font-size="16" >H</text>
<text x="83.200000" y="101.131090" fill="rgb(12,12,255)"  stroke="rgb(12,12,255)" stroke-width="1" font-size="16" >+</text>
<text x="72.400000" y="113.163090" fill="rgb(12,12,255)"  stroke="rgb(12,12,255)" stroke-width="1" font-size="16" >N</text>
<text x="268.021033" y="103.826329" fill="rgb(255,12,12)"  stroke="rgb(255,12,12)" stroke-width="1" font-size="16" >O</text>
<text x="264.007140" y="142.015970" fill="rgb(191,191,191)"  stroke="rgb(191,191,191)" stroke-width="1" font-size="16" >H</text>
<text x="172.166127" y="132.363090" fill="rgb(12,12,255)"  stroke="rgb(12,12,255)" stroke-width="1" font-size="16" >N</text>
</svg>
</g>
<text font-size="18.000000" fill ="black" font-family="sans-serif"
x="10.000000" y="20.000000" >ZINC38531428</text>
</svg>
