<?xml version="1.0"?>
<svg version="1.1" id="topsvg"
xmlns="http://www.w3.org/2000/svg" xmlns:xlink="http://www.w3.org/1999/xlink"
xmlns:cml="http://www.xml-cml.org/schema" x="0" y="0" width="200px" height="200px" viewBox="0 0 100 100">
<title>ZINC22933029 - Open Babel Depiction</title>
<rect x="0" y="0" width="100" height="100" fill="white"/>
<g transform="translate(0,0)">
<svg width="100" height="100" x="0" y="0" viewBox="0 0 453.623 448.128"
font-family="sans-serif" stroke="rgb(0,0,0)" stroke-width="2"  stroke-linecap="round">
<line x1="168.1" y1="72.0" x2="168.1" y2="96.0" stroke="rgb(0,0,0)"  stroke-width="2.0"/>
<line x1="168.1" y1="72.0" x2="156.1" y2="51.3" stroke="rgb(0,0,0)"  stroke-width="2.0"/>
<line x1="168.1" y1="72.0" x2="144.1" y2="72.0" stroke="rgb(0,0,0)"  stroke-width="2.0"/>
<line x1="168.1" y1="72.0" x2="188.9" y2="60.0" stroke="rgb(0,0,0)"  stroke-width="2.0"/>
<line x1="156.8" y1="115.5" x2="136.1" y2="127.5" stroke="rgb(0,0,0)"  stroke-width="2.0"/>
<line x1="104.1" y1="109.0" x2="104.1" y2="85.0" stroke="rgb(0,0,0)"  stroke-width="2.0"/>
<line x1="72.0" y1="127.5" x2="51.3" y2="115.5" stroke="rgb(0,0,0)"  stroke-width="2.0"/>
<line x1="72.0" y1="164.5" x2="51.3" y2="176.5" stroke="rgb(0,0,0)"  stroke-width="2.0"/>
<line x1="104.1" y1="183.0" x2="104.1" y2="207.0" stroke="rgb(0,0,0)"  stroke-width="2.0"/>
<line x1="136.1" y1="164.5" x2="168.1" y2="183.0" stroke="rgb(0,0,0)"  stroke-width="2.0"/>
<line x1="168.1" y1="183.0" x2="168.1" y2="207.0" stroke="rgb(0,0,0)"  stroke-width="2.0"/>
<line x1="168.1" y1="183.0" x2="192.1" y2="183.0" stroke="rgb(0,0,0)"  stroke-width="2.0"/>
<line x1="168.1" y1="183.0" x2="180.1" y2="162.2" stroke="rgb(0,0,0)"  stroke-width="2.0"/>
<line x1="181.1" y1="220.0" x2="316.0" y2="220.0" stroke="rgb(0,0,0)"  stroke-width="2.0"/>
<line x1="168.1" y1="233.0" x2="168.1" y2="243.9" stroke="rgb(0,0,0)"  stroke-width="2.0"/>
<line x1="155.1" y1="220.0" x2="144.1" y2="220.0" stroke="rgb(0,0,0)"  stroke-width="2.0"/>
<line x1="316.0" y1="220.0" x2="325.2" y2="242.1" stroke="rgb(0,0,0)"  stroke-width="2.0"/>
<line x1="323.4" y1="221.1" x2="323.0" y2="222.6" stroke="rgb(0,0,0)"  stroke-width="1.0"/>
<line x1="329.3" y1="222.0" x2="328.5" y2="224.8" stroke="rgb(0,0,0)"  stroke-width="1.0"/>
<line x1="335.1" y1="222.9" x2="334.1" y2="226.9" stroke="rgb(0,0,0)"  stroke-width="1.0"/>
<line x1="341.0" y1="223.8" x2="339.6" y2="229.1" stroke="rgb(0,0,0)"  stroke-width="1.0"/>
<line x1="346.9" y1="224.7" x2="345.2" y2="231.2" stroke="rgb(0,0,0)"  stroke-width="1.0"/>
<line x1="352.8" y1="225.7" x2="350.7" y2="233.4" stroke="rgb(0,0,0)"  stroke-width="1.0"/>
<line x1="306.5" y1="184.2" x2="283.3" y2="190.4" stroke="rgb(0,0,0)"  stroke-width="2.0"/>
<line x1="306.5" y1="184.2" x2="289.5" y2="167.3" stroke="rgb(0,0,0)"  stroke-width="2.0"/>
<line x1="332.6" y1="158.1" x2="315.7" y2="141.1" stroke="rgb(0,0,0)"  stroke-width="2.0"/>
<line x1="332.6" y1="158.1" x2="338.8" y2="134.9" stroke="rgb(0,0,0)"  stroke-width="2.0"/>
<line x1="368.3" y1="167.7" x2="374.5" y2="144.5" stroke="rgb(0,0,0)"  stroke-width="2.0"/>
<line x1="368.3" y1="167.7" x2="391.5" y2="161.4" stroke="rgb(0,0,0)"  stroke-width="2.0"/>
<line x1="390.5" y1="206.7" x2="401.1" y2="209.6" stroke="rgb(0,0,0)"  stroke-width="2.0"/>
<polygon points="351.751958 229.522549 372.100624 244.214361 366.443769 249.871215 " stroke-width="2.000000" fill="rgb(0,0,0)"  stroke="rgb(0,0,0)" />
<line x1="351.8" y1="229.5" x2="332.6" y2="301.0" stroke="rgb(0,0,0)"  stroke-width="2.0"/>
<line x1="358.8" y1="327.1" x2="381.9" y2="320.9" stroke="rgb(0,0,0)"  stroke-width="2.0"/>
<line x1="349.2" y1="362.8" x2="366.1" y2="379.8" stroke="rgb(0,0,0)"  stroke-width="2.0"/>
<line x1="313.5" y1="372.4" x2="307.3" y2="395.6" stroke="rgb(0,0,0)"  stroke-width="2.0"/>
<line x1="287.3" y1="346.3" x2="264.2" y2="352.5" stroke="rgb(0,0,0)"  stroke-width="2.0"/>
<line x1="296.9" y1="310.5" x2="279.9" y2="293.6" stroke="rgb(0,0,0)"  stroke-width="2.0"/>
<line x1="72.0" y1="127.5" x2="72.0" y2="164.5" stroke="rgb(0,0,0)"  stroke-width="2.0"/>
<line x1="72.0" y1="164.5" x2="104.1" y2="183.0" stroke="rgb(0,0,0)"  stroke-width="2.0"/>
<line x1="80.8" y1="161.2" x2="102.5" y2="173.7" stroke="rgb(0,0,0)"  stroke-width="2.0"/>
<line x1="104.1" y1="183.0" x2="136.1" y2="164.5" stroke="rgb(0,0,0)"  stroke-width="2.0"/>
<line x1="136.1" y1="164.5" x2="136.1" y2="127.5" stroke="rgb(0,0,0)"  stroke-width="2.0"/>
<line x1="128.9" y1="158.5" x2="128.9" y2="133.5" stroke="rgb(0,0,0)"  stroke-width="2.0"/>
<line x1="136.1" y1="127.5" x2="104.1" y2="109.0" stroke="rgb(0,0,0)"  stroke-width="2.0"/>
<line x1="104.1" y1="109.0" x2="72.0" y2="127.5" stroke="rgb(0,0,0)"  stroke-width="2.0"/>
<line x1="102.5" y1="118.2" x2="80.8" y2="130.7" stroke="rgb(0,0,0)"  stroke-width="2.0"/>
<line x1="349.2" y1="362.8" x2="313.5" y2="372.4" stroke="rgb(0,0,0)"  stroke-width="2.0"/>
<line x1="313.5" y1="372.4" x2="287.3" y2="346.3" stroke="rgb(0,0,0)"  stroke-width="2.0"/>
<line x1="314.3" y1="363.1" x2="296.7" y2="345.4" stroke="rgb(0,0,0)"  stroke-width="2.0"/>
<line x1="287.3" y1="346.3" x2="296.9" y2="310.5" stroke="rgb(0,0,0)"  stroke-width="2.0"/>
<line x1="296.9" y1="310.5" x2="332.6" y2="301.0" stroke="rgb(0,0,0)"  stroke-width="2.0"/>
<line x1="304.5" y1="315.9" x2="328.7" y2="309.5" stroke="rgb(0,0,0)"  stroke-width="2.0"/>
<line x1="332.6" y1="301.0" x2="358.8" y2="327.1" stroke="rgb(0,0,0)"  stroke-width="2.0"/>
<line x1="358.8" y1="327.1" x2="349.2" y2="362.8" stroke="rgb(0,0,0)"  stroke-width="2.0"/>
<line x1="350.3" y1="331.0" x2="343.8" y2="355.2" stroke="rgb(0,0,0)"  stroke-width="2.0"/>
<line x1="332.6" y1="158.1" x2="368.3" y2="167.7" stroke="rgb(0,0,0)"  stroke-width="2.0"/>
<line x1="368.3" y1="167.7" x2="374.5" y2="190.8" stroke="rgb(0,0,0)"  stroke-width="2.0"/>
<line x1="368.7" y1="212.6" x2="351.8" y2="229.5" stroke="rgb(0,0,0)"  stroke-width="2.0"/>
<line x1="351.8" y1="229.5" x2="316.0" y2="220.0" stroke="rgb(0,0,0)"  stroke-width="2.0"/>
<line x1="316.0" y1="220.0" x2="306.5" y2="184.2" stroke="rgb(0,0,0)"  stroke-width="2.0"/>
<line x1="306.5" y1="184.2" x2="332.6" y2="158.1" stroke="rgb(0,0,0)"  stroke-width="2.0"/>
<text x="274.309897" y="166.080488" fill="rgb(191,191,191)"  stroke="rgb(191,191,191)" stroke-width="1" font-size="16" >H</text>
<text x="143.615833" y="48.000000" fill="rgb(191,191,191)"  stroke="rgb(191,191,191)" stroke-width="1" font-size="16" >H</text>
<text x="125.125267" y="80.026600" fill="rgb(191,191,191)"  stroke="rgb(191,191,191)" stroke-width="1" font-size="16" >H</text>
<text x="194.132999" y="61.536034" fill="rgb(191,191,191)"  stroke="rgb(191,191,191)" stroke-width="1" font-size="16" >H</text>
<text x="98.053200" y="80.026600" fill="rgb(191,191,191)"  stroke="rgb(191,191,191)" stroke-width="1" font-size="16" >H</text>
<text x="34.000000" y="117.007732" fill="rgb(191,191,191)"  stroke="rgb(191,191,191)" stroke-width="1" font-size="16" >H</text>
<text x="34.000000" y="190.969996" fill="rgb(191,191,191)"  stroke="rgb(191,191,191)" stroke-width="1" font-size="16" >H</text>
<text x="98.053200" y="227.951128" fill="rgb(191,191,191)"  stroke="rgb(191,191,191)" stroke-width="1" font-size="16" >H</text>
<text x="199.087531" y="190.969996" fill="rgb(191,191,191)"  stroke="rgb(191,191,191)" stroke-width="1" font-size="16" >H</text>
<text x="180.596965" y="158.943396" fill="rgb(191,191,191)"  stroke="rgb(191,191,191)" stroke-width="1" font-size="16" >H</text>
<text x="162.106399" y="264.932260" fill="rgb(191,191,191)"  stroke="rgb(191,191,191)" stroke-width="1" font-size="16" >H</text>
<text x="264.738476" y="201.801519" fill="rgb(191,191,191)"  stroke="rgb(191,191,191)" stroke-width="1" font-size="16" >H</text>
<text x="300.459506" y="139.930879" fill="rgb(191,191,191)"  stroke="rgb(191,191,191)" stroke-width="1" font-size="16" >H</text>
<text x="336.180537" y="130.359458" fill="rgb(191,191,191)"  stroke="rgb(191,191,191)" stroke-width="1" font-size="16" >H</text>
<text x="371.901567" y="139.930879" fill="rgb(191,191,191)"  stroke="rgb(191,191,191)" stroke-width="1" font-size="16" >H</text>
<text x="398.051177" y="166.080488" fill="rgb(191,191,191)"  stroke="rgb(191,191,191)" stroke-width="1" font-size="16" >H</text>
<text x="388.479755" y="325.542799" fill="rgb(191,191,191)"  stroke="rgb(191,191,191)" stroke-width="1" font-size="16" >H</text>
<text x="369.336913" y="396.984860" fill="rgb(191,191,191)"  stroke="rgb(191,191,191)" stroke-width="1" font-size="16" >H</text>
<text x="297.894852" y="416.127702" fill="rgb(191,191,191)"  stroke="rgb(191,191,191)" stroke-width="1" font-size="16" >H</text>
<text x="245.595633" y="363.828484" fill="rgb(191,191,191)"  stroke="rgb(191,191,191)" stroke-width="1" font-size="16" >H</text>
<text x="264.738476" y="292.386423" fill="rgb(191,191,191)"  stroke="rgb(191,191,191)" stroke-width="1" font-size="16" >H</text>
<text x="407.622598" y="220.944361" fill="rgb(191,191,191)"  stroke="rgb(191,191,191)" stroke-width="1" font-size="16" >H</text>
<text x="125.125267" y="227.951128" fill="rgb(191,191,191)"  stroke="rgb(191,191,191)" stroke-width="1" font-size="16" >H</text>
<text x="162.106399" y="117.007732" fill="rgb(255,12,12)"  stroke="rgb(255,12,12)" stroke-width="1" font-size="16" >O</text>
<text x="172.906399" y="215.919128" fill="rgb(12,12,255)"  stroke="rgb(12,12,255)" stroke-width="1" font-size="16" >+</text>
<text x="162.106399" y="227.951128" fill="rgb(12,12,255)"  stroke="rgb(12,12,255)" stroke-width="1" font-size="16" >N</text>
<text x="324.182994" y="262.117239" fill="rgb(191,191,191)"  stroke="rgb(191,191,191)" stroke-width="1" font-size="16" >H</text>
<text x="371.901567" y="211.372940" fill="rgb(12,12,255)"  stroke="rgb(12,12,255)" stroke-width="1" font-size="16" >N</text>
<text x="371.901567" y="263.672159" fill="rgb(191,191,191)"  stroke="rgb(191,191,191)" stroke-width="1" font-size="16" >H</text>
</svg>
</g>
<text font-size="18.000000" fill ="black" font-family="sans-serif"
x="10.000000" y="20.000000" >ZINC22933029</text>
</svg>
