<?xml version="1.0"?>
<svg version="1.1" id="topsvg"
xmlns="http://www.w3.org/2000/svg" xmlns:xlink="http://www.w3.org/1999/xlink"
xmlns:cml="http://www.xml-cml.org/schema" x="0" y="0" width="200px" height="200px" viewBox="0 0 100 100">
<title>ZINC71773527 - Open Babel Depiction</title>
<rect x="0" y="0" width="100" height="100" fill="white"/>
<g transform="translate(0,0)">
<svg width="100" height="100" x="0" y="0" viewBox="0 0 402.836 409.326"
font-family="sans-serif" stroke="rgb(0,0,0)" stroke-width="2"  stroke-linecap="round">
<line x1="297.7" y1="336.8" x2="297.7" y2="299.2" stroke="rgb(0,0,0)"  stroke-width="2.0"/>
<line x1="297.7" y1="336.8" x2="310.0" y2="358.1" stroke="rgb(0,0,0)"  stroke-width="2.0"/>
<line x1="297.7" y1="336.8" x2="322.3" y2="336.8" stroke="rgb(0,0,0)"  stroke-width="2.0"/>
<line x1="297.7" y1="336.8" x2="276.4" y2="349.1" stroke="rgb(0,0,0)"  stroke-width="2.0"/>
<line x1="330.3" y1="280.4" x2="351.6" y2="292.7" stroke="rgb(0,0,0)"  stroke-width="2.0"/>
<line x1="330.3" y1="242.8" x2="351.6" y2="230.5" stroke="rgb(0,0,0)"  stroke-width="2.0"/>
<line x1="297.7" y1="224.0" x2="297.7" y2="186.4" stroke="rgb(0,0,0)"  stroke-width="2.0"/>
<line x1="265.1" y1="242.8" x2="200.0" y2="205.2" stroke="rgb(0,0,0)"  stroke-width="2.0"/>
<line x1="265.1" y1="280.4" x2="243.8" y2="292.7" stroke="rgb(0,0,0)"  stroke-width="2.0"/>
<line x1="204.0" y1="202.0" x2="204.8" y2="203.3" stroke="rgb(0,0,0)"  stroke-width="1.0"/>
<line x1="207.2" y1="199.4" x2="208.6" y2="201.9" stroke="rgb(0,0,0)"  stroke-width="1.0"/>
<line x1="210.3" y1="196.8" x2="212.4" y2="200.4" stroke="rgb(0,0,0)"  stroke-width="1.0"/>
<line x1="213.5" y1="194.2" x2="216.2" y2="199.0" stroke="rgb(0,0,0)"  stroke-width="1.0"/>
<line x1="216.7" y1="191.7" x2="220.0" y2="197.5" stroke="rgb(0,0,0)"  stroke-width="1.0"/>
<line x1="219.8" y1="189.1" x2="223.8" y2="196.0" stroke="rgb(0,0,0)"  stroke-width="1.0"/>
<line x1="175.1" y1="173.8" x2="194.3" y2="114.7" stroke="rgb(0,0,0)"  stroke-width="2.0"/>
<line x1="180.8" y1="175.7" x2="200.0" y2="116.5" stroke="rgb(0,0,0)"  stroke-width="2.0"/>
<polygon points="142.162371 186.363822 176.686028 170.940557 179.158164 178.549010 " stroke-width="2.000000" fill="rgb(0,0,0)"  stroke="rgb(0,0,0)" />
<line x1="146.1" y1="149.0" x2="170.6" y2="151.5" stroke="rgb(0,0,0)"  stroke-width="2.0"/>
<line x1="146.1" y1="149.0" x2="160.6" y2="129.1" stroke="rgb(0,0,0)"  stroke-width="2.0"/>
<line x1="115.7" y1="126.9" x2="130.1" y2="107.0" stroke="rgb(0,0,0)"  stroke-width="2.0"/>
<line x1="115.7" y1="126.9" x2="105.7" y2="104.4" stroke="rgb(0,0,0)"  stroke-width="2.0"/>
<line x1="81.3" y1="142.2" x2="71.3" y2="119.7" stroke="rgb(0,0,0)"  stroke-width="2.0"/>
<line x1="76.2" y1="142.4" x2="76.4" y2="140.8" stroke="rgb(0,0,0)"  stroke-width="1.0"/>
<line x1="72.2" y1="142.6" x2="72.5" y2="139.8" stroke="rgb(0,0,0)"  stroke-width="1.0"/>
<line x1="68.1" y1="142.9" x2="68.5" y2="138.7" stroke="rgb(0,0,0)"  stroke-width="1.0"/>
<line x1="64.0" y1="143.1" x2="64.6" y2="137.7" stroke="rgb(0,0,0)"  stroke-width="1.0"/>
<line x1="59.9" y1="143.3" x2="60.6" y2="136.6" stroke="rgb(0,0,0)"  stroke-width="1.0"/>
<line x1="55.9" y1="143.5" x2="56.7" y2="135.6" stroke="rgb(0,0,0)"  stroke-width="1.0"/>
<line x1="77.4" y1="179.6" x2="52.9" y2="177.0" stroke="rgb(0,0,0)"  stroke-width="2.0"/>
<line x1="77.4" y1="179.6" x2="62.9" y2="199.5" stroke="rgb(0,0,0)"  stroke-width="2.0"/>
<line x1="107.8" y1="201.7" x2="93.4" y2="221.6" stroke="rgb(0,0,0)"  stroke-width="2.0"/>
<line x1="107.8" y1="201.7" x2="133.1" y2="258.5" stroke="rgb(0,0,0)"  stroke-width="2.0"/>
<line x1="73.7" y1="97.3" x2="88.1" y2="77.4" stroke="rgb(0,0,0)"  stroke-width="2.0"/>
<line x1="88.1" y1="77.4" x2="90.7" y2="52.9" stroke="rgb(0,0,0)"  stroke-width="2.0"/>
<line x1="88.1" y1="77.4" x2="68.2" y2="62.9" stroke="rgb(0,0,0)"  stroke-width="2.0"/>
<line x1="88.1" y1="77.4" x2="112.6" y2="80.0" stroke="rgb(0,0,0)"  stroke-width="2.0"/>
<line x1="131.6" y1="231.6" x2="122.3" y2="238.4" stroke="rgb(0,0,0)"  stroke-width="2.0"/>
<line x1="180.8" y1="234.7" x2="188.4" y2="258.1" stroke="rgb(0,0,0)"  stroke-width="2.0"/>
<line x1="175.1" y1="236.5" x2="182.7" y2="259.9" stroke="rgb(0,0,0)"  stroke-width="2.0"/>
<line x1="297.7" y1="186.4" x2="285.4" y2="165.1" stroke="rgb(0,0,0)"  stroke-width="2.0"/>
<line x1="297.7" y1="186.4" x2="273.1" y2="186.4" stroke="rgb(0,0,0)"  stroke-width="2.0"/>
<line x1="297.7" y1="186.4" x2="319.0" y2="174.1" stroke="rgb(0,0,0)"  stroke-width="2.0"/>
<line x1="330.3" y1="242.8" x2="297.7" y2="224.0" stroke="rgb(0,0,0)"  stroke-width="2.0"/>
<line x1="297.7" y1="224.0" x2="265.1" y2="242.8" stroke="rgb(0,0,0)"  stroke-width="2.0"/>
<line x1="296.1" y1="233.2" x2="273.9" y2="246.0" stroke="rgb(0,0,0)"  stroke-width="2.0"/>
<line x1="265.1" y1="242.8" x2="265.1" y2="280.4" stroke="rgb(0,0,0)"  stroke-width="2.0"/>
<line x1="265.1" y1="280.4" x2="297.7" y2="299.2" stroke="rgb(0,0,0)"  stroke-width="2.0"/>
<line x1="273.9" y1="277.1" x2="296.1" y2="289.9" stroke="rgb(0,0,0)"  stroke-width="2.0"/>
<line x1="297.7" y1="299.2" x2="330.3" y2="280.4" stroke="rgb(0,0,0)"  stroke-width="2.0"/>
<line x1="330.3" y1="280.4" x2="330.3" y2="242.8" stroke="rgb(0,0,0)"  stroke-width="2.0"/>
<line x1="323.1" y1="274.4" x2="323.1" y2="248.8" stroke="rgb(0,0,0)"  stroke-width="2.0"/>
<line x1="142.2" y1="186.4" x2="142.2" y2="211.0" stroke="rgb(0,0,0)"  stroke-width="2.0"/>
<line x1="154.5" y1="228.0" x2="177.9" y2="235.6" stroke="rgb(0,0,0)"  stroke-width="2.0"/>
<line x1="177.9" y1="235.6" x2="200.0" y2="205.2" stroke="rgb(0,0,0)"  stroke-width="2.0"/>
<line x1="200.0" y1="205.2" x2="177.9" y2="174.7" stroke="rgb(0,0,0)"  stroke-width="2.0"/>
<line x1="177.9" y1="174.7" x2="142.2" y2="186.4" stroke="rgb(0,0,0)"  stroke-width="2.0"/>
<line x1="115.7" y1="126.9" x2="81.3" y2="142.2" stroke="rgb(0,0,0)"  stroke-width="2.0"/>
<line x1="81.3" y1="142.2" x2="77.4" y2="179.6" stroke="rgb(0,0,0)"  stroke-width="2.0"/>
<line x1="77.4" y1="179.6" x2="107.8" y2="201.7" stroke="rgb(0,0,0)"  stroke-width="2.0"/>
<line x1="107.8" y1="201.7" x2="142.2" y2="186.4" stroke="rgb(0,0,0)"  stroke-width="2.0"/>
<line x1="142.2" y1="186.4" x2="146.1" y2="149.0" stroke="rgb(0,0,0)"  stroke-width="2.0"/>
<line x1="146.1" y1="149.0" x2="115.7" y2="126.9" stroke="rgb(0,0,0)"  stroke-width="2.0"/>
<text x="34.000000" y="183.626125" fill="rgb(191,191,191)"  stroke="rgb(191,191,191)" stroke-width="1" font-size="16" >H</text>
<text x="310.510488" y="377.326378" fill="rgb(191,191,191)"  stroke="rgb(191,191,191)" stroke-width="1" font-size="16" >H</text>
<text x="329.310488" y="344.763822" fill="rgb(191,191,191)"  stroke="rgb(191,191,191)" stroke-width="1" font-size="16" >H</text>
<text x="259.147932" y="363.563822" fill="rgb(191,191,191)"  stroke="rgb(191,191,191)" stroke-width="1" font-size="16" >H</text>
<text x="356.835598" y="307.163822" fill="rgb(191,191,191)"  stroke="rgb(191,191,191)" stroke-width="1" font-size="16" >H</text>
<text x="356.835598" y="231.963822" fill="rgb(191,191,191)"  stroke="rgb(191,191,191)" stroke-width="1" font-size="16" >H</text>
<text x="226.585377" y="307.163822" fill="rgb(191,191,191)"  stroke="rgb(191,191,191)" stroke-width="1" font-size="16" >H</text>
<text x="177.486665" y="160.900069" fill="rgb(191,191,191)"  stroke="rgb(191,191,191)" stroke-width="1" font-size="16" >H</text>
<text x="162.193367" y="126.550760" fill="rgb(191,191,191)"  stroke="rgb(191,191,191)" stroke-width="1" font-size="16" >H</text>
<text x="131.774328" y="104.450035" fill="rgb(191,191,191)"  stroke="rgb(191,191,191)" stroke-width="1" font-size="16" >H</text>
<text x="94.380305" y="100.519764" fill="rgb(191,191,191)"  stroke="rgb(191,191,191)" stroke-width="1" font-size="16" >H</text>
<text x="37.930270" y="146.232101" fill="rgb(191,191,191)"  stroke="rgb(191,191,191)" stroke-width="1" font-size="16" >H</text>
<text x="49.293298" y="217.975434" fill="rgb(191,191,191)"  stroke="rgb(191,191,191)" stroke-width="1" font-size="16" >H</text>
<text x="79.712337" y="240.076159" fill="rgb(191,191,191)"  stroke="rgb(191,191,191)" stroke-width="1" font-size="16" >H</text>
<text x="132.399658" y="278.355739" fill="rgb(191,191,191)"  stroke="rgb(191,191,191)" stroke-width="1" font-size="16" >H</text>
<text x="86.061991" y="48.000000" fill="rgb(191,191,191)"  stroke="rgb(191,191,191)" stroke-width="1" font-size="16" >H</text>
<text x="51.712682" y="63.293298" fill="rgb(191,191,191)"  stroke="rgb(191,191,191)" stroke-width="1" font-size="16" >H</text>
<text x="119.525744" y="89.324293" fill="rgb(191,191,191)"  stroke="rgb(191,191,191)" stroke-width="1" font-size="16" >H</text>
<text x="105.743332" y="254.064548" fill="rgb(191,191,191)"  stroke="rgb(191,191,191)" stroke-width="1" font-size="16" >H</text>
<text x="272.910488" y="161.801267" fill="rgb(191,191,191)"  stroke="rgb(191,191,191)" stroke-width="1" font-size="16" >H</text>
<text x="254.110488" y="194.363822" fill="rgb(191,191,191)"  stroke="rgb(191,191,191)" stroke-width="1" font-size="16" >H</text>
<text x="324.273043" y="175.563822" fill="rgb(191,191,191)"  stroke="rgb(191,191,191)" stroke-width="1" font-size="16" >H</text>
<text x="195.160174" y="111.225333" fill="rgb(255,12,12)"  stroke="rgb(255,12,12)" stroke-width="1" font-size="16" >O</text>
<text x="60.030996" y="115.813062" fill="rgb(255,12,12)"  stroke="rgb(255,12,12)" stroke-width="1" font-size="16" >O</text>
<text x="136.162371" y="231.963822" fill="rgb(12,12,255)"  stroke="rgb(12,12,255)" stroke-width="1" font-size="16" >N</text>
<text x="183.541135" y="279.342586" fill="rgb(255,12,12)"  stroke="rgb(255,12,12)" stroke-width="1" font-size="16" >O</text>
<text x="226.585377" y="194.363822" fill="rgb(255,12,12)"  stroke="rgb(255,12,12)" stroke-width="1" font-size="16" >OH</text>
</svg>
</g>
<text font-size="18.000000" fill ="black" font-family="sans-serif"
x="10.000000" y="20.000000" >ZINC71773527</text>
</svg>
