<?xml version="1.0"?>
<svg version="1.1" id="topsvg"
xmlns="http://www.w3.org/2000/svg" xmlns:xlink="http://www.w3.org/1999/xlink"
xmlns:cml="http://www.xml-cml.org/schema" x="0" y="0" width="200px" height="200px" viewBox="0 0 100 100">
<title>ZINC35458600 - Open Babel Depiction</title>
<rect x="0" y="0" width="100" height="100" fill="white"/>
<g transform="translate(0,0)">
<svg width="100" height="100" x="0" y="0" viewBox="0 0 466.741 362.338"
font-family="sans-serif" stroke="rgb(0,0,0)" stroke-width="2"  stroke-linecap="round">
<line x1="177.4" y1="266.8" x2="149.1" y2="238.5" stroke="rgb(0,0,0)"  stroke-width="2.0"/>
<line x1="177.4" y1="266.8" x2="184.4" y2="292.9" stroke="rgb(0,0,0)"  stroke-width="2.0"/>
<line x1="177.4" y1="266.8" x2="158.3" y2="285.9" stroke="rgb(0,0,0)"  stroke-width="2.0"/>
<line x1="177.4" y1="266.8" x2="203.5" y2="259.8" stroke="rgb(0,0,0)"  stroke-width="2.0"/>
<line x1="149.1" y1="238.5" x2="120.8" y2="266.8" stroke="rgb(0,0,0)"  stroke-width="2.0"/>
<line x1="149.1" y1="238.5" x2="120.8" y2="210.2" stroke="rgb(0,0,0)"  stroke-width="2.0"/>
<line x1="149.1" y1="238.5" x2="177.4" y2="210.2" stroke="rgb(0,0,0)"  stroke-width="2.0"/>
<line x1="120.8" y1="266.8" x2="94.7" y2="273.8" stroke="rgb(0,0,0)"  stroke-width="2.0"/>
<line x1="120.8" y1="266.8" x2="101.7" y2="247.7" stroke="rgb(0,0,0)"  stroke-width="2.0"/>
<line x1="120.8" y1="266.8" x2="127.8" y2="292.9" stroke="rgb(0,0,0)"  stroke-width="2.0"/>
<line x1="121.6" y1="213.1" x2="82.9" y2="223.5" stroke="rgb(0,0,0)"  stroke-width="2.0"/>
<line x1="120.0" y1="207.3" x2="81.4" y2="217.7" stroke="rgb(0,0,0)"  stroke-width="2.0"/>
<line x1="120.8" y1="210.2" x2="127.8" y2="184.2" stroke="rgb(0,0,0)"  stroke-width="2.0"/>
<line x1="82.2" y1="220.6" x2="75.2" y2="246.7" stroke="rgb(0,0,0)"  stroke-width="2.0"/>
<line x1="82.2" y1="220.6" x2="63.1" y2="201.5" stroke="rgb(0,0,0)"  stroke-width="2.0"/>
<line x1="183.4" y1="204.9" x2="184.3" y2="206.2" stroke="rgb(0,0,0)"  stroke-width="1.0"/>
<line x1="188.2" y1="200.6" x2="189.9" y2="202.9" stroke="rgb(0,0,0)"  stroke-width="1.0"/>
<line x1="193.0" y1="196.3" x2="195.4" y2="199.7" stroke="rgb(0,0,0)"  stroke-width="1.0"/>
<line x1="197.8" y1="192.0" x2="201.0" y2="196.4" stroke="rgb(0,0,0)"  stroke-width="1.0"/>
<line x1="202.6" y1="187.8" x2="206.5" y2="193.2" stroke="rgb(0,0,0)"  stroke-width="1.0"/>
<line x1="207.4" y1="183.5" x2="212.1" y2="190.0" stroke="rgb(0,0,0)"  stroke-width="1.0"/>
<line x1="181.6" y1="250.0" x2="159.7" y2="265.9" stroke="rgb(0,0,0)"  stroke-width="2.0"/>
<line x1="218.1" y1="266.3" x2="220.9" y2="293.1" stroke="rgb(0,0,0)"  stroke-width="2.0"/>
<line x1="251.7" y1="240.0" x2="276.3" y2="251.0" stroke="rgb(0,0,0)"  stroke-width="2.0"/>
<line x1="249.2" y1="245.5" x2="273.9" y2="256.5" stroke="rgb(0,0,0)"  stroke-width="2.0"/>
<polygon points="209.738392 186.725635 235.848357 193.971995 232.594464 201.280358 " stroke-width="2.000000" fill="rgb(0,0,0)"  stroke="rgb(0,0,0)" />
<line x1="204.3" y1="138.2" x2="193.9" y2="128.9" stroke="rgb(0,0,0)"  stroke-width="2.0"/>
<line x1="250.3" y1="137.4" x2="261.3" y2="112.7" stroke="rgb(0,0,0)"  stroke-width="2.0"/>
<line x1="255.8" y1="139.8" x2="266.8" y2="115.2" stroke="rgb(0,0,0)"  stroke-width="2.0"/>
<line x1="273.4" y1="170.3" x2="313.1" y2="174.5" stroke="rgb(0,0,0)"  stroke-width="2.0"/>
<line x1="272.7" y1="176.3" x2="312.5" y2="180.4" stroke="rgb(0,0,0)"  stroke-width="2.0"/>
<line x1="312.8" y1="177.5" x2="336.3" y2="145.1" stroke="rgb(0,0,0)"  stroke-width="2.0"/>
<line x1="312.8" y1="177.5" x2="323.8" y2="202.1" stroke="rgb(0,0,0)"  stroke-width="2.0"/>
<line x1="324.0" y1="107.0" x2="298.3" y2="98.7" stroke="rgb(0,0,0)"  stroke-width="2.0"/>
<line x1="388.7" y1="107.0" x2="414.4" y2="98.7" stroke="rgb(0,0,0)"  stroke-width="2.0"/>
<line x1="384.0" y1="155.6" x2="392.2" y2="166.9" stroke="rgb(0,0,0)"  stroke-width="2.0"/>
<line x1="205.0" y1="138.2" x2="213.2" y2="126.8" stroke="rgb(0,0,0)"  stroke-width="2.0"/>
<line x1="105.9" y1="195.0" x2="97.5" y2="220.7" stroke="rgb(0,0,0)"  stroke-width="2.0"/>
<line x1="79.1" y1="165.3" x2="52.7" y2="170.9" stroke="rgb(0,0,0)"  stroke-width="2.0"/>
<line x1="91.5" y1="127.3" x2="73.4" y2="107.2" stroke="rgb(0,0,0)"  stroke-width="2.0"/>
<line x1="130.6" y1="119.0" x2="139.0" y2="93.3" stroke="rgb(0,0,0)"  stroke-width="2.0"/>
<line x1="215.6" y1="104.4" x2="204.6" y2="79.8" stroke="rgb(0,0,0)"  stroke-width="2.0"/>
<line x1="204.6" y1="79.8" x2="207.4" y2="52.9" stroke="rgb(0,0,0)"  stroke-width="2.0"/>
<line x1="204.6" y1="79.8" x2="229.3" y2="68.8" stroke="rgb(0,0,0)"  stroke-width="2.0"/>
<line x1="204.6" y1="79.8" x2="177.8" y2="77.0" stroke="rgb(0,0,0)"  stroke-width="2.0"/>
<line x1="234.2" y1="311.4" x2="246.9" y2="317.1" stroke="rgb(0,0,0)"  stroke-width="2.0"/>
<line x1="367.0" y1="91.3" x2="388.7" y2="107.0" stroke="rgb(0,0,0)"  stroke-width="2.0"/>
<line x1="364.4" y1="98.3" x2="379.6" y2="109.3" stroke="rgb(0,0,0)"  stroke-width="2.0"/>
<line x1="388.7" y1="107.0" x2="380.4" y2="132.7" stroke="rgb(0,0,0)"  stroke-width="2.0"/>
<line x1="363.3" y1="145.1" x2="336.3" y2="145.1" stroke="rgb(0,0,0)"  stroke-width="2.0"/>
<line x1="336.3" y1="145.1" x2="324.0" y2="107.0" stroke="rgb(0,0,0)"  stroke-width="2.0"/>
<line x1="341.3" y1="137.2" x2="332.7" y2="110.5" stroke="rgb(0,0,0)"  stroke-width="2.0"/>
<line x1="324.0" y1="107.0" x2="345.8" y2="91.2" stroke="rgb(0,0,0)"  stroke-width="2.0"/>
<line x1="105.9" y1="195.0" x2="79.1" y2="165.3" stroke="rgb(0,0,0)"  stroke-width="2.0"/>
<line x1="79.1" y1="165.3" x2="91.5" y2="127.3" stroke="rgb(0,0,0)"  stroke-width="2.0"/>
<line x1="87.8" y1="161.8" x2="96.5" y2="135.2" stroke="rgb(0,0,0)"  stroke-width="2.0"/>
<line x1="91.5" y1="127.3" x2="130.6" y2="119.0" stroke="rgb(0,0,0)"  stroke-width="2.0"/>
<line x1="130.6" y1="119.0" x2="157.4" y2="148.7" stroke="rgb(0,0,0)"  stroke-width="2.0"/>
<line x1="129.3" y1="128.2" x2="148.0" y2="149.0" stroke="rgb(0,0,0)"  stroke-width="2.0"/>
<line x1="157.4" y1="148.7" x2="145.0" y2="186.7" stroke="rgb(0,0,0)"  stroke-width="2.0"/>
<line x1="145.0" y1="186.7" x2="105.9" y2="195.0" stroke="rgb(0,0,0)"  stroke-width="2.0"/>
<line x1="137.7" y1="180.9" x2="110.3" y2="186.8" stroke="rgb(0,0,0)"  stroke-width="2.0"/>
<line x1="209.7" y1="186.7" x2="177.4" y2="210.2" stroke="rgb(0,0,0)"  stroke-width="2.0"/>
<line x1="177.4" y1="210.2" x2="145.0" y2="186.7" stroke="rgb(0,0,0)"  stroke-width="2.0"/>
<line x1="157.4" y1="148.7" x2="184.4" y2="148.7" stroke="rgb(0,0,0)"  stroke-width="2.0"/>
<line x1="201.4" y1="161.0" x2="209.7" y2="186.7" stroke="rgb(0,0,0)"  stroke-width="2.0"/>
<line x1="253.0" y1="138.6" x2="226.6" y2="144.2" stroke="rgb(0,0,0)"  stroke-width="2.0"/>
<line x1="212.6" y1="159.9" x2="209.7" y2="186.7" stroke="rgb(0,0,0)"  stroke-width="2.0"/>
<line x1="209.7" y1="186.7" x2="234.4" y2="197.7" stroke="rgb(0,0,0)"  stroke-width="2.0"/>
<line x1="255.0" y1="193.3" x2="273.0" y2="173.3" stroke="rgb(0,0,0)"  stroke-width="2.0"/>
<line x1="273.0" y1="173.3" x2="253.0" y2="138.6" stroke="rgb(0,0,0)"  stroke-width="2.0"/>
<line x1="181.6" y1="250.0" x2="177.4" y2="210.2" stroke="rgb(0,0,0)"  stroke-width="2.0"/>
<line x1="247.6" y1="215.9" x2="250.5" y2="242.8" stroke="rgb(0,0,0)"  stroke-width="2.0"/>
<line x1="250.5" y1="242.8" x2="218.1" y2="266.3" stroke="rgb(0,0,0)"  stroke-width="2.0"/>
<line x1="218.1" y1="266.3" x2="181.6" y2="250.0" stroke="rgb(0,0,0)"  stroke-width="2.0"/>
<line x1="215.5" y1="257.3" x2="190.0" y2="245.9" stroke="rgb(0,0,0)"  stroke-width="2.0"/>
<text x="47.887865" y="200.305535" fill="rgb(191,191,191)"  stroke="rgb(191,191,191)" stroke-width="1" font-size="16" >H</text>
<text x="214.889122" y="124.322694" fill="rgb(255,12,12)"  stroke="rgb(255,12,12)" stroke-width="1" font-size="16" >O</text>
<text x="216.281807" y="314.068262" fill="rgb(255,12,12)"  stroke="rgb(255,12,12)" stroke-width="1" font-size="16" >O</text>
<text x="181.730474" y="313.442620" fill="rgb(191,191,191)"  stroke="rgb(191,191,191)" stroke-width="1" font-size="16" >H</text>
<text x="143.093441" y="303.089858" fill="rgb(191,191,191)"  stroke="rgb(191,191,191)" stroke-width="1" font-size="16" >H</text>
<text x="210.014745" y="264.452825" fill="rgb(191,191,191)"  stroke="rgb(191,191,191)" stroke-width="1" font-size="16" >H</text>
<text x="76.172137" y="285.158349" fill="rgb(191,191,191)"  stroke="rgb(191,191,191)" stroke-width="1" font-size="16" >H</text>
<text x="86.524898" y="246.521316" fill="rgb(191,191,191)"  stroke="rgb(191,191,191)" stroke-width="1" font-size="16" >H</text>
<text x="125.161931" y="313.442620" fill="rgb(191,191,191)"  stroke="rgb(191,191,191)" stroke-width="1" font-size="16" >H</text>
<text x="125.161931" y="179.600012" fill="rgb(191,191,191)"  stroke="rgb(191,191,191)" stroke-width="1" font-size="16" >H</text>
<text x="65.819375" y="267.226839" fill="rgb(191,191,191)"  stroke="rgb(191,191,191)" stroke-width="1" font-size="16" >H</text>
<text x="143.198171" y="281.529331" fill="rgb(191,191,191)"  stroke="rgb(191,191,191)" stroke-width="1" font-size="16" >H</text>
<text x="178.193737" y="128.179534" fill="rgb(191,191,191)"  stroke="rgb(191,191,191)" stroke-width="1" font-size="16" >H</text>
<text x="323.095776" y="221.992264" fill="rgb(191,191,191)"  stroke="rgb(191,191,191)" stroke-width="1" font-size="16" >H</text>
<text x="279.934780" y="102.686826" fill="rgb(191,191,191)"  stroke="rgb(191,191,191)" stroke-width="1" font-size="16" >H</text>
<text x="420.740661" y="102.686826" fill="rgb(191,191,191)"  stroke="rgb(191,191,191)" stroke-width="1" font-size="16" >H</text>
<text x="87.530449" y="241.084363" fill="rgb(191,191,191)"  stroke="rgb(191,191,191)" stroke-width="1" font-size="16" >H</text>
<text x="34.000000" y="181.632777" fill="rgb(191,191,191)"  stroke="rgb(191,191,191)" stroke-width="1" font-size="16" >H</text>
<text x="58.721360" y="105.548255" fill="rgb(191,191,191)"  stroke="rgb(191,191,191)" stroke-width="1" font-size="16" >H</text>
<text x="136.973168" y="88.915320" fill="rgb(191,191,191)"  stroke="rgb(191,191,191)" stroke-width="1" font-size="16" >H</text>
<text x="202.800795" y="48.000000" fill="rgb(191,191,191)"  stroke="rgb(191,191,191)" stroke-width="1" font-size="16" >H</text>
<text x="235.161475" y="71.511410" fill="rgb(191,191,191)"  stroke="rgb(191,191,191)" stroke-width="1" font-size="16" >H</text>
<text x="158.838781" y="83.599737" fill="rgb(191,191,191)"  stroke="rgb(191,191,191)" stroke-width="1" font-size="16" >H</text>
<text x="252.823626" y="330.337728" fill="rgb(191,191,191)"  stroke="rgb(191,191,191)" stroke-width="1" font-size="16" >H</text>
<text x="263.314900" y="110.086473" fill="rgb(255,12,12)"  stroke="rgb(255,12,12)" stroke-width="1" font-size="16" >O</text>
<text x="281.003167" y="267.045442" fill="rgb(255,12,12)"  stroke="rgb(255,12,12)" stroke-width="1" font-size="16" >O</text>
<text x="240.280210" y="210.995100" fill="rgb(12,12,255)"  stroke="rgb(12,12,255)" stroke-width="1" font-size="16" >N</text>
<text x="207.919530" y="154.944759" fill="rgb(12,12,255)"  stroke="rgb(12,12,255)" stroke-width="1" font-size="16" >N</text>
<text x="350.337720" y="91.536095" fill="rgb(12,12,255)"  stroke="rgb(12,12,255)" stroke-width="1" font-size="16" >N</text>
<text x="370.337720" y="153.089766" fill="rgb(12,12,255)"  stroke="rgb(12,12,255)" stroke-width="1" font-size="16" >N</text>
<text x="393.849130" y="185.450446" fill="rgb(191,191,191)"  stroke="rgb(191,191,191)" stroke-width="1" font-size="16" >H</text>
<text x="191.377712" y="156.683374" fill="rgb(12,12,255)"  stroke="rgb(12,12,255)" stroke-width="1" font-size="16" >N</text>
</svg>
</g>
<text font-size="18.000000" fill ="black" font-family="sans-serif"
x="10.000000" y="20.000000" >ZINC35458600</text>
</svg>
