<?xml version="1.0"?>
<svg version="1.1" id="topsvg"
xmlns="http://www.w3.org/2000/svg" xmlns:xlink="http://www.w3.org/1999/xlink"
xmlns:cml="http://www.xml-cml.org/schema" x="0" y="0" width="200px" height="200px" viewBox="0 0 100 100">
<title>ZINC77029766 - Open Babel Depiction</title>
<rect x="0" y="0" width="100" height="100" fill="white"/>
<g transform="translate(0,0)">
<svg width="100" height="100" x="0" y="0" viewBox="0 0 657.471 622.935"
font-family="sans-serif" stroke="rgb(0,0,0)" stroke-width="2"  stroke-linecap="round">
<line x1="79.6" y1="197.5" x2="99.4" y2="231.8" stroke="rgb(0,0,0)"  stroke-width="2.0"/>
<line x1="79.6" y1="197.5" x2="56.6" y2="184.2" stroke="rgb(0,0,0)"  stroke-width="2.0"/>
<line x1="79.6" y1="197.5" x2="56.6" y2="210.8" stroke="rgb(0,0,0)"  stroke-width="2.0"/>
<line x1="79.6" y1="197.5" x2="92.9" y2="174.5" stroke="rgb(0,0,0)"  stroke-width="2.0"/>
<line x1="79.6" y1="266.1" x2="53.0" y2="266.1" stroke="rgb(0,0,0)"  stroke-width="2.0"/>
<line x1="99.4" y1="300.4" x2="86.1" y2="323.4" stroke="rgb(0,0,0)"  stroke-width="2.0"/>
<line x1="139.0" y1="231.8" x2="152.3" y2="208.8" stroke="rgb(0,0,0)"  stroke-width="2.0"/>
<line x1="207.2" y1="265.6" x2="217.3" y2="256.5" stroke="rgb(0,0,0)"  stroke-width="2.0"/>
<line x1="201.6" y1="313.7" x2="235.9" y2="333.5" stroke="rgb(0,0,0)"  stroke-width="2.0"/>
<line x1="235.9" y1="333.5" x2="235.9" y2="360.1" stroke="rgb(0,0,0)"  stroke-width="2.0"/>
<line x1="235.9" y1="333.5" x2="262.5" y2="333.5" stroke="rgb(0,0,0)"  stroke-width="2.0"/>
<line x1="235.9" y1="333.5" x2="249.2" y2="310.5" stroke="rgb(0,0,0)"  stroke-width="2.0"/>
<line x1="248.9" y1="373.1" x2="275.5" y2="373.1" stroke="rgb(0,0,0)"  stroke-width="2.0"/>
<line x1="235.9" y1="386.1" x2="235.9" y2="412.7" stroke="rgb(0,0,0)"  stroke-width="2.0"/>
<line x1="222.9" y1="373.1" x2="209.3" y2="373.1" stroke="rgb(0,0,0)"  stroke-width="2.0"/>
<line x1="275.5" y1="373.1" x2="315.1" y2="304.5" stroke="rgb(0,0,0)"  stroke-width="2.0"/>
<line x1="275.5" y1="373.1" x2="298.5" y2="386.4" stroke="rgb(0,0,0)"  stroke-width="2.0"/>
<line x1="275.5" y1="373.1" x2="275.5" y2="399.7" stroke="rgb(0,0,0)"  stroke-width="2.0"/>
<line x1="315.1" y1="304.5" x2="341.7" y2="304.5" stroke="rgb(0,0,0)"  stroke-width="2.0"/>
<line x1="315.1" y1="304.5" x2="315.1" y2="277.9" stroke="rgb(0,0,0)"  stroke-width="2.0"/>
<line x1="315.1" y1="304.5" x2="292.1" y2="291.2" stroke="rgb(0,0,0)"  stroke-width="2.0"/>
<line x1="361.2" y1="315.8" x2="374.5" y2="338.8" stroke="rgb(0,0,0)"  stroke-width="2.0"/>
<line x1="361.2" y1="293.2" x2="374.5" y2="270.2" stroke="rgb(0,0,0)"  stroke-width="2.0"/>
<line x1="374.5" y1="338.8" x2="414.1" y2="338.8" stroke="rgb(0,0,0)"  stroke-width="2.0"/>
<line x1="374.5" y1="338.8" x2="374.5" y2="365.4" stroke="rgb(0,0,0)"  stroke-width="2.0"/>
<line x1="374.5" y1="338.8" x2="351.5" y2="352.1" stroke="rgb(0,0,0)"  stroke-width="2.0"/>
<line x1="433.3" y1="294.4" x2="429.1" y2="281.5" stroke="rgb(0,0,0)"  stroke-width="2.0"/>
<line x1="509.3" y1="299.2" x2="509.3" y2="272.6" stroke="rgb(0,0,0)"  stroke-width="2.0"/>
<line x1="543.6" y1="319.0" x2="577.9" y2="299.2" stroke="rgb(0,0,0)"  stroke-width="2.0"/>
<line x1="543.6" y1="358.6" x2="566.6" y2="371.9" stroke="rgb(0,0,0)"  stroke-width="2.0"/>
<line x1="509.3" y1="378.4" x2="509.3" y2="405.0" stroke="rgb(0,0,0)"  stroke-width="2.0"/>
<line x1="433.3" y1="383.2" x2="429.1" y2="396.1" stroke="rgb(0,0,0)"  stroke-width="2.0"/>
<line x1="577.9" y1="299.2" x2="604.5" y2="299.2" stroke="rgb(0,0,0)"  stroke-width="2.0"/>
<line x1="577.9" y1="299.2" x2="591.2" y2="322.2" stroke="rgb(0,0,0)"  stroke-width="2.0"/>
<line x1="577.9" y1="299.2" x2="577.9" y2="272.6" stroke="rgb(0,0,0)"  stroke-width="2.0"/>
<line x1="374.5" y1="270.2" x2="354.7" y2="235.9" stroke="rgb(0,0,0)"  stroke-width="2.0"/>
<line x1="374.5" y1="270.2" x2="397.5" y2="256.9" stroke="rgb(0,0,0)"  stroke-width="2.0"/>
<line x1="374.5" y1="270.2" x2="397.5" y2="283.5" stroke="rgb(0,0,0)"  stroke-width="2.0"/>
<line x1="383.5" y1="197.1" x2="396.8" y2="194.2" stroke="rgb(0,0,0)"  stroke-width="2.0"/>
<line x1="341.4" y1="133.7" x2="364.4" y2="120.4" stroke="rgb(0,0,0)"  stroke-width="2.0"/>
<line x1="307.1" y1="113.9" x2="307.1" y2="74.3" stroke="rgb(0,0,0)"  stroke-width="2.0"/>
<line x1="272.8" y1="133.7" x2="249.8" y2="120.4" stroke="rgb(0,0,0)"  stroke-width="2.0"/>
<line x1="272.8" y1="173.3" x2="249.8" y2="186.6" stroke="rgb(0,0,0)"  stroke-width="2.0"/>
<line x1="307.1" y1="74.3" x2="293.8" y2="51.3" stroke="rgb(0,0,0)"  stroke-width="2.0"/>
<line x1="307.1" y1="74.3" x2="280.5" y2="74.3" stroke="rgb(0,0,0)"  stroke-width="2.0"/>
<line x1="307.1" y1="74.3" x2="330.1" y2="61.0" stroke="rgb(0,0,0)"  stroke-width="2.0"/>
<line x1="235.9" y1="412.7" x2="270.2" y2="432.5" stroke="rgb(0,0,0)"  stroke-width="2.0"/>
<line x1="235.9" y1="412.7" x2="222.6" y2="435.7" stroke="rgb(0,0,0)"  stroke-width="2.0"/>
<line x1="235.9" y1="412.7" x2="209.3" y2="412.7" stroke="rgb(0,0,0)"  stroke-width="2.0"/>
<line x1="264.7" y1="480.5" x2="254.6" y2="489.6" stroke="rgb(0,0,0)"  stroke-width="2.0"/>
<line x1="332.9" y1="514.4" x2="319.6" y2="537.4" stroke="rgb(0,0,0)"  stroke-width="2.0"/>
<line x1="372.5" y1="514.4" x2="392.3" y2="548.6" stroke="rgb(0,0,0)"  stroke-width="2.0"/>
<line x1="392.3" y1="480.1" x2="418.9" y2="480.1" stroke="rgb(0,0,0)"  stroke-width="2.0"/>
<line x1="372.5" y1="445.8" x2="385.8" y2="422.8" stroke="rgb(0,0,0)"  stroke-width="2.0"/>
<line x1="392.3" y1="548.6" x2="415.3" y2="561.9" stroke="rgb(0,0,0)"  stroke-width="2.0"/>
<line x1="392.3" y1="548.6" x2="415.3" y2="535.4" stroke="rgb(0,0,0)"  stroke-width="2.0"/>
<line x1="392.3" y1="548.6" x2="379.0" y2="571.7" stroke="rgb(0,0,0)"  stroke-width="2.0"/>
<line x1="201.6" y1="313.7" x2="198.9" y2="287.2" stroke="rgb(0,0,0)"  stroke-width="2.0"/>
<line x1="184.8" y1="271.6" x2="158.8" y2="266.1" stroke="rgb(0,0,0)"  stroke-width="2.0"/>
<line x1="158.8" y1="266.1" x2="139.0" y2="300.4" stroke="rgb(0,0,0)"  stroke-width="2.0"/>
<line x1="162.0" y1="274.9" x2="148.2" y2="298.8" stroke="rgb(0,0,0)"  stroke-width="2.0"/>
<line x1="139.0" y1="300.4" x2="156.8" y2="320.1" stroke="rgb(0,0,0)"  stroke-width="2.0"/>
<line x1="177.4" y1="324.5" x2="201.6" y2="313.7" stroke="rgb(0,0,0)"  stroke-width="2.0"/>
<line x1="176.3" y1="317.1" x2="193.2" y2="309.6" stroke="rgb(0,0,0)"  stroke-width="2.0"/>
<line x1="475.0" y1="319.0" x2="475.0" y2="358.6" stroke="rgb(0,0,0)"  stroke-width="2.0"/>
<line x1="467.8" y1="325.0" x2="467.8" y2="352.6" stroke="rgb(0,0,0)"  stroke-width="2.0"/>
<line x1="475.0" y1="358.6" x2="449.7" y2="366.8" stroke="rgb(0,0,0)"  stroke-width="2.0"/>
<line x1="429.7" y1="360.3" x2="414.1" y2="338.8" stroke="rgb(0,0,0)"  stroke-width="2.0"/>
<line x1="414.1" y1="338.8" x2="429.7" y2="317.3" stroke="rgb(0,0,0)"  stroke-width="2.0"/>
<line x1="423.4" y1="338.2" x2="434.3" y2="323.2" stroke="rgb(0,0,0)"  stroke-width="2.0"/>
<line x1="449.7" y1="310.8" x2="475.0" y2="319.0" stroke="rgb(0,0,0)"  stroke-width="2.0"/>
<line x1="341.4" y1="173.3" x2="307.1" y2="193.1" stroke="rgb(0,0,0)"  stroke-width="2.0"/>
<line x1="339.8" y1="182.5" x2="315.9" y2="196.3" stroke="rgb(0,0,0)"  stroke-width="2.0"/>
<line x1="307.1" y1="193.1" x2="312.6" y2="219.1" stroke="rgb(0,0,0)"  stroke-width="2.0"/>
<line x1="328.3" y1="233.2" x2="354.7" y2="235.9" stroke="rgb(0,0,0)"  stroke-width="2.0"/>
<line x1="331.1" y1="226.2" x2="349.5" y2="228.1" stroke="rgb(0,0,0)"  stroke-width="2.0"/>
<line x1="354.7" y1="235.9" x2="365.5" y2="211.6" stroke="rgb(0,0,0)"  stroke-width="2.0"/>
<line x1="361.1" y1="191.1" x2="341.4" y2="173.3" stroke="rgb(0,0,0)"  stroke-width="2.0"/>
<line x1="313.1" y1="480.1" x2="332.9" y2="445.8" stroke="rgb(0,0,0)"  stroke-width="2.0"/>
<line x1="309.8" y1="471.3" x2="323.6" y2="447.4" stroke="rgb(0,0,0)"  stroke-width="2.0"/>
<line x1="332.9" y1="445.8" x2="315.1" y2="426.0" stroke="rgb(0,0,0)"  stroke-width="2.0"/>
<line x1="294.4" y1="421.7" x2="270.2" y2="432.5" stroke="rgb(0,0,0)"  stroke-width="2.0"/>
<line x1="295.5" y1="429.1" x2="278.6" y2="436.6" stroke="rgb(0,0,0)"  stroke-width="2.0"/>
<line x1="270.2" y1="432.5" x2="273.0" y2="458.9" stroke="rgb(0,0,0)"  stroke-width="2.0"/>
<line x1="287.1" y1="474.5" x2="313.1" y2="480.1" stroke="rgb(0,0,0)"  stroke-width="2.0"/>
<line x1="99.4" y1="300.4" x2="139.0" y2="300.4" stroke="rgb(0,0,0)"  stroke-width="2.0"/>
<line x1="158.8" y1="266.1" x2="139.0" y2="231.8" stroke="rgb(0,0,0)"  stroke-width="2.0"/>
<line x1="139.0" y1="231.8" x2="99.4" y2="231.8" stroke="rgb(0,0,0)"  stroke-width="2.0"/>
<line x1="133.0" y1="239.0" x2="105.4" y2="239.0" stroke="rgb(0,0,0)"  stroke-width="2.0"/>
<line x1="99.4" y1="231.8" x2="79.6" y2="266.1" stroke="rgb(0,0,0)"  stroke-width="2.0"/>
<line x1="79.6" y1="266.1" x2="99.4" y2="300.4" stroke="rgb(0,0,0)"  stroke-width="2.0"/>
<line x1="88.8" y1="267.7" x2="102.6" y2="291.6" stroke="rgb(0,0,0)"  stroke-width="2.0"/>
<line x1="543.6" y1="358.6" x2="509.3" y2="378.4" stroke="rgb(0,0,0)"  stroke-width="2.0"/>
<line x1="534.8" y1="355.4" x2="510.9" y2="369.1" stroke="rgb(0,0,0)"  stroke-width="2.0"/>
<line x1="509.3" y1="378.4" x2="475.0" y2="358.6" stroke="rgb(0,0,0)"  stroke-width="2.0"/>
<line x1="475.0" y1="319.0" x2="509.3" y2="299.2" stroke="rgb(0,0,0)"  stroke-width="2.0"/>
<line x1="509.3" y1="299.2" x2="543.6" y2="319.0" stroke="rgb(0,0,0)"  stroke-width="2.0"/>
<line x1="510.9" y1="308.4" x2="534.8" y2="322.2" stroke="rgb(0,0,0)"  stroke-width="2.0"/>
<line x1="543.6" y1="319.0" x2="543.6" y2="358.6" stroke="rgb(0,0,0)"  stroke-width="2.0"/>
<line x1="272.8" y1="133.7" x2="272.8" y2="173.3" stroke="rgb(0,0,0)"  stroke-width="2.0"/>
<line x1="280.0" y1="139.7" x2="280.0" y2="167.3" stroke="rgb(0,0,0)"  stroke-width="2.0"/>
<line x1="272.8" y1="173.3" x2="307.1" y2="193.1" stroke="rgb(0,0,0)"  stroke-width="2.0"/>
<line x1="341.4" y1="173.3" x2="341.4" y2="133.7" stroke="rgb(0,0,0)"  stroke-width="2.0"/>
<line x1="341.4" y1="133.7" x2="307.1" y2="113.9" stroke="rgb(0,0,0)"  stroke-width="2.0"/>
<line x1="332.6" y1="136.9" x2="308.7" y2="123.1" stroke="rgb(0,0,0)"  stroke-width="2.0"/>
<line x1="307.1" y1="113.9" x2="272.8" y2="133.7" stroke="rgb(0,0,0)"  stroke-width="2.0"/>
<line x1="392.3" y1="480.1" x2="372.5" y2="445.8" stroke="rgb(0,0,0)"  stroke-width="2.0"/>
<line x1="383.0" y1="478.5" x2="369.2" y2="454.6" stroke="rgb(0,0,0)"  stroke-width="2.0"/>
<line x1="372.5" y1="445.8" x2="332.9" y2="445.8" stroke="rgb(0,0,0)"  stroke-width="2.0"/>
<line x1="313.1" y1="480.1" x2="332.9" y2="514.4" stroke="rgb(0,0,0)"  stroke-width="2.0"/>
<line x1="332.9" y1="514.4" x2="372.5" y2="514.4" stroke="rgb(0,0,0)"  stroke-width="2.0"/>
<line x1="338.9" y1="507.2" x2="366.5" y2="507.2" stroke="rgb(0,0,0)"  stroke-width="2.0"/>
<line x1="372.5" y1="514.4" x2="392.3" y2="480.1" stroke="rgb(0,0,0)"  stroke-width="2.0"/>
<text x="152.775510" y="205.508944" fill="rgb(191,191,191)"  stroke="rgb(191,191,191)" stroke-width="1" font-size="16" >H</text>
<text x="503.304554" y="425.974463" fill="rgb(191,191,191)"  stroke="rgb(191,191,191)" stroke-width="1" font-size="16" >H</text>
<text x="571.879627" y="386.382626" fill="rgb(191,191,191)"  stroke="rgb(191,191,191)" stroke-width="1" font-size="16" >H</text>
<text x="503.304554" y="267.607116" fill="rgb(191,191,191)"  stroke="rgb(191,191,191)" stroke-width="1" font-size="16" >H</text>
<text x="334.212073" y="366.586708" fill="rgb(191,191,191)"  stroke="rgb(191,191,191)" stroke-width="1" font-size="16" >H</text>
<text x="368.499609" y="386.382626" fill="rgb(191,191,191)"  stroke="rgb(191,191,191)" stroke-width="1" font-size="16" >H</text>
<text x="274.824318" y="292.707335" fill="rgb(191,191,191)"  stroke="rgb(191,191,191)" stroke-width="1" font-size="16" >H</text>
<text x="309.111854" y="272.911417" fill="rgb(191,191,191)"  stroke="rgb(191,191,191)" stroke-width="1" font-size="16" >H</text>
<text x="269.520017" y="420.670163" fill="rgb(191,191,191)"  stroke="rgb(191,191,191)" stroke-width="1" font-size="16" >H</text>
<text x="303.807554" y="400.874245" fill="rgb(191,191,191)"  stroke="rgb(191,191,191)" stroke-width="1" font-size="16" >H</text>
<text x="249.724099" y="307.198953" fill="rgb(191,191,191)"  stroke="rgb(191,191,191)" stroke-width="1" font-size="16" >H</text>
<text x="269.520017" y="341.486489" fill="rgb(191,191,191)"  stroke="rgb(191,191,191)" stroke-width="1" font-size="16" >H</text>
<text x="611.471464" y="307.198953" fill="rgb(191,191,191)"  stroke="rgb(191,191,191)" stroke-width="1" font-size="16" >H</text>
<text x="73.591837" y="342.659090" fill="rgb(191,191,191)"  stroke="rgb(191,191,191)" stroke-width="1" font-size="16" >H</text>
<text x="34.000000" y="274.084017" fill="rgb(191,191,191)"  stroke="rgb(191,191,191)" stroke-width="1" font-size="16" >H</text>
<text x="93.387755" y="171.221408" fill="rgb(191,191,191)"  stroke="rgb(191,191,191)" stroke-width="1" font-size="16" >H</text>
<text x="39.304300" y="225.304862" fill="rgb(191,191,191)"  stroke="rgb(191,191,191)" stroke-width="1" font-size="16" >H</text>
<text x="39.304300" y="185.713026" fill="rgb(191,191,191)"  stroke="rgb(191,191,191)" stroke-width="1" font-size="16" >H</text>
<text x="300.384660" y="424.362630" fill="rgb(12,12,255)"  stroke="rgb(12,12,255)" stroke-width="1" font-size="16" >N</text>
<text x="210.132262" y="454.957699" fill="rgb(191,191,191)"  stroke="rgb(191,191,191)" stroke-width="1" font-size="16" >H</text>
<text x="419.128393" y="277.106247" fill="rgb(191,191,191)"  stroke="rgb(191,191,191)" stroke-width="1" font-size="16" >H</text>
<text x="419.128393" y="416.475333" fill="rgb(191,191,191)"  stroke="rgb(191,191,191)" stroke-width="1" font-size="16" >H</text>
<text x="190.336344" y="381.078326" fill="rgb(191,191,191)"  stroke="rgb(191,191,191)" stroke-width="1" font-size="16" >H</text>
<text x="366.468606" y="590.935245" fill="rgb(191,191,191)"  stroke="rgb(191,191,191)" stroke-width="1" font-size="16" >H</text>
<text x="420.552061" y="536.851790" fill="rgb(191,191,191)"  stroke="rgb(191,191,191)" stroke-width="1" font-size="16" >H</text>
<text x="420.552061" y="576.443627" fill="rgb(191,191,191)"  stroke="rgb(191,191,191)" stroke-width="1" font-size="16" >H</text>
<text x="386.264524" y="419.497563" fill="rgb(191,191,191)"  stroke="rgb(191,191,191)" stroke-width="1" font-size="16" >H</text>
<text x="425.856361" y="488.072635" fill="rgb(191,191,191)"  stroke="rgb(191,191,191)" stroke-width="1" font-size="16" >H</text>
<text x="307.080851" y="556.647708" fill="rgb(191,191,191)"  stroke="rgb(191,191,191)" stroke-width="1" font-size="16" >H</text>
<text x="190.336344" y="420.670163" fill="rgb(191,191,191)"  stroke="rgb(191,191,191)" stroke-width="1" font-size="16" >H</text>
<text x="335.384673" y="62.491618" fill="rgb(191,191,191)"  stroke="rgb(191,191,191)" stroke-width="1" font-size="16" >H</text>
<text x="261.505300" y="82.287536" fill="rgb(191,191,191)"  stroke="rgb(191,191,191)" stroke-width="1" font-size="16" >H</text>
<text x="281.301218" y="48.000000" fill="rgb(191,191,191)"  stroke="rgb(191,191,191)" stroke-width="1" font-size="16" >H</text>
<text x="232.522064" y="201.063047" fill="rgb(191,191,191)"  stroke="rgb(191,191,191)" stroke-width="1" font-size="16" >H</text>
<text x="232.522064" y="121.879373" fill="rgb(191,191,191)"  stroke="rgb(191,191,191)" stroke-width="1" font-size="16" >H</text>
<text x="369.672209" y="121.879373" fill="rgb(191,191,191)"  stroke="rgb(191,191,191)" stroke-width="1" font-size="16" >H</text>
<text x="402.787146" y="298.011635" fill="rgb(191,191,191)"  stroke="rgb(191,191,191)" stroke-width="1" font-size="16" >H</text>
<text x="402.787146" y="258.419799" fill="rgb(191,191,191)"  stroke="rgb(191,191,191)" stroke-width="1" font-size="16" >H</text>
<text x="571.879627" y="267.607116" fill="rgb(191,191,191)"  stroke="rgb(191,191,191)" stroke-width="1" font-size="16" >H</text>
<text x="591.675545" y="341.486489" fill="rgb(191,191,191)"  stroke="rgb(191,191,191)" stroke-width="1" font-size="16" >H</text>
<text x="431.362944" y="314.760321" fill="rgb(12,12,255)"  stroke="rgb(12,12,255)" stroke-width="1" font-size="16" >N</text>
<text x="348.703691" y="312.503253" fill="rgb(12,12,255)"  stroke="rgb(12,12,255)" stroke-width="1" font-size="16" >N</text>
<text x="240.728181" y="369.046326" fill="rgb(12,12,255)"  stroke="rgb(12,12,255)" stroke-width="1" font-size="16" >+</text>
<text x="229.928181" y="381.078326" fill="rgb(12,12,255)"  stroke="rgb(12,12,255)" stroke-width="1" font-size="16" >N</text>
<text x="159.471702" y="337.794022" fill="rgb(12,12,255)"  stroke="rgb(12,12,255)" stroke-width="1" font-size="16" >N</text>
<text x="220.924639" y="255.823513" fill="rgb(191,191,191)"  stroke="rgb(191,191,191)" stroke-width="1" font-size="16" >H</text>
<text x="191.502170" y="282.315623" fill="rgb(12,12,255)"  stroke="rgb(12,12,255)" stroke-width="1" font-size="16" >N</text>
<text x="238.931722" y="506.333139" fill="rgb(191,191,191)"  stroke="rgb(191,191,191)" stroke-width="1" font-size="16" >H</text>
<text x="268.354191" y="479.841030" fill="rgb(12,12,255)"  stroke="rgb(12,12,255)" stroke-width="1" font-size="16" >N</text>
<text x="309.328742" y="239.789707" fill="rgb(12,12,255)"  stroke="rgb(12,12,255)" stroke-width="1" font-size="16" >N</text>
<text x="403.533802" y="199.527632" fill="rgb(191,191,191)"  stroke="rgb(191,191,191)" stroke-width="1" font-size="16" >H</text>
<text x="364.807142" y="207.759238" fill="rgb(12,12,255)"  stroke="rgb(12,12,255)" stroke-width="1" font-size="16" >N</text>
<text x="431.362944" y="378.821259" fill="rgb(12,12,255)"  stroke="rgb(12,12,255)" stroke-width="1" font-size="16" >N</text>
</svg>
</g>
<text font-size="18.000000" fill ="black" font-family="sans-serif"
x="10.000000" y="20.000000" >ZINC77029766</text>
</svg>
