<?xml version="1.0"?>
<svg version="1.1" id="topsvg"
xmlns="http://www.w3.org/2000/svg" xmlns:xlink="http://www.w3.org/1999/xlink"
xmlns:cml="http://www.xml-cml.org/schema" x="0" y="0" width="200px" height="200px" viewBox="0 0 100 100">
<title>ZINC02244332 - Open Babel Depiction</title>
<rect x="0" y="0" width="100" height="100" fill="white"/>
<g transform="translate(0,0)">
<svg width="100" height="100" x="0" y="0" viewBox="0 0 477.966 388.387"
font-family="sans-serif" stroke="rgb(0,0,0)" stroke-width="2"  stroke-linecap="round">
<line x1="137.8" y1="162.6" x2="150.8" y2="140.0" stroke="rgb(0,0,0)"  stroke-width="2.0"/>
<line x1="98.7" y1="162.6" x2="85.6" y2="140.0" stroke="rgb(0,0,0)"  stroke-width="2.0"/>
<line x1="79.1" y1="196.4" x2="53.0" y2="196.4" stroke="rgb(0,0,0)"  stroke-width="2.0"/>
<line x1="98.7" y1="230.3" x2="85.6" y2="252.9" stroke="rgb(0,0,0)"  stroke-width="2.0"/>
<line x1="137.8" y1="230.3" x2="150.8" y2="252.9" stroke="rgb(0,0,0)"  stroke-width="2.0"/>
<line x1="157.3" y1="196.4" x2="235.6" y2="196.4" stroke="rgb(0,0,0)"  stroke-width="2.0"/>
<line x1="235.6" y1="196.4" x2="235.6" y2="157.3" stroke="rgb(0,0,0)"  stroke-width="2.0"/>
<line x1="235.6" y1="196.4" x2="235.6" y2="222.6" stroke="rgb(0,0,0)"  stroke-width="2.0"/>
<line x1="235.6" y1="196.4" x2="261.7" y2="196.4" stroke="rgb(0,0,0)"  stroke-width="2.0"/>
<line x1="201.7" y1="137.8" x2="179.1" y2="150.8" stroke="rgb(0,0,0)"  stroke-width="2.0"/>
<line x1="201.7" y1="98.7" x2="179.1" y2="85.6" stroke="rgb(0,0,0)"  stroke-width="2.0"/>
<line x1="235.6" y1="79.1" x2="235.6" y2="53.0" stroke="rgb(0,0,0)"  stroke-width="2.0"/>
<line x1="269.4" y1="98.7" x2="292.0" y2="85.6" stroke="rgb(0,0,0)"  stroke-width="2.0"/>
<line x1="269.4" y1="137.8" x2="292.0" y2="150.8" stroke="rgb(0,0,0)"  stroke-width="2.0"/>
<line x1="246.8" y1="242.1" x2="269.4" y2="255.1" stroke="rgb(0,0,0)"  stroke-width="2.0"/>
<line x1="269.4" y1="255.1" x2="269.4" y2="294.2" stroke="rgb(0,0,0)"  stroke-width="2.0"/>
<line x1="269.4" y1="255.1" x2="282.5" y2="232.5" stroke="rgb(0,0,0)"  stroke-width="2.0"/>
<line x1="269.4" y1="255.1" x2="295.5" y2="255.1" stroke="rgb(0,0,0)"  stroke-width="2.0"/>
<line x1="269.4" y1="294.2" x2="303.3" y2="313.8" stroke="rgb(0,0,0)"  stroke-width="2.0"/>
<line x1="269.4" y1="294.2" x2="243.3" y2="294.2" stroke="rgb(0,0,0)"  stroke-width="2.0"/>
<line x1="269.4" y1="294.2" x2="256.4" y2="316.8" stroke="rgb(0,0,0)"  stroke-width="2.0"/>
<line x1="303.3" y1="313.8" x2="337.2" y2="294.2" stroke="rgb(0,0,0)"  stroke-width="2.0"/>
<line x1="303.3" y1="313.8" x2="290.2" y2="336.4" stroke="rgb(0,0,0)"  stroke-width="2.0"/>
<line x1="303.3" y1="313.8" x2="316.4" y2="336.4" stroke="rgb(0,0,0)"  stroke-width="2.0"/>
<line x1="372.9" y1="310.1" x2="378.3" y2="335.7" stroke="rgb(0,0,0)"  stroke-width="2.0"/>
<line x1="412.0" y1="282.4" x2="425.0" y2="283.8" stroke="rgb(0,0,0)"  stroke-width="2.0"/>
<line x1="379.5" y1="247.2" x2="390.1" y2="223.3" stroke="rgb(0,0,0)"  stroke-width="2.0"/>
<line x1="392.6" y1="269.8" x2="379.5" y2="247.2" stroke="rgb(0,0,0)"  stroke-width="2.0"/>
<line x1="379.5" y1="247.2" x2="353.9" y2="252.6" stroke="rgb(0,0,0)"  stroke-width="2.0"/>
<line x1="375.1" y1="255.5" x2="357.4" y2="259.3" stroke="rgb(0,0,0)"  stroke-width="2.0"/>
<line x1="339.9" y1="268.3" x2="337.2" y2="294.2" stroke="rgb(0,0,0)"  stroke-width="2.0"/>
<line x1="337.2" y1="294.2" x2="372.9" y2="310.1" stroke="rgb(0,0,0)"  stroke-width="2.0"/>
<line x1="345.6" y1="290.1" x2="370.3" y2="301.1" stroke="rgb(0,0,0)"  stroke-width="2.0"/>
<line x1="372.9" y1="310.1" x2="390.4" y2="290.7" stroke="rgb(0,0,0)"  stroke-width="2.0"/>
<line x1="79.1" y1="196.4" x2="98.7" y2="230.3" stroke="rgb(0,0,0)"  stroke-width="2.0"/>
<line x1="98.7" y1="230.3" x2="137.8" y2="230.3" stroke="rgb(0,0,0)"  stroke-width="2.0"/>
<line x1="104.7" y1="223.1" x2="131.8" y2="223.1" stroke="rgb(0,0,0)"  stroke-width="2.0"/>
<line x1="137.8" y1="230.3" x2="157.3" y2="196.4" stroke="rgb(0,0,0)"  stroke-width="2.0"/>
<line x1="157.3" y1="196.4" x2="137.8" y2="162.6" stroke="rgb(0,0,0)"  stroke-width="2.0"/>
<line x1="148.1" y1="194.8" x2="134.5" y2="171.4" stroke="rgb(0,0,0)"  stroke-width="2.0"/>
<line x1="137.8" y1="162.6" x2="98.7" y2="162.6" stroke="rgb(0,0,0)"  stroke-width="2.0"/>
<line x1="98.7" y1="162.6" x2="79.1" y2="196.4" stroke="rgb(0,0,0)"  stroke-width="2.0"/>
<line x1="101.9" y1="171.4" x2="88.3" y2="194.8" stroke="rgb(0,0,0)"  stroke-width="2.0"/>
<line x1="201.7" y1="98.7" x2="235.6" y2="79.1" stroke="rgb(0,0,0)"  stroke-width="2.0"/>
<line x1="235.6" y1="79.1" x2="269.4" y2="98.7" stroke="rgb(0,0,0)"  stroke-width="2.0"/>
<line x1="237.2" y1="88.3" x2="260.6" y2="101.9" stroke="rgb(0,0,0)"  stroke-width="2.0"/>
<line x1="269.4" y1="98.7" x2="269.4" y2="137.8" stroke="rgb(0,0,0)"  stroke-width="2.0"/>
<line x1="269.4" y1="137.8" x2="235.6" y2="157.3" stroke="rgb(0,0,0)"  stroke-width="2.0"/>
<line x1="260.6" y1="134.5" x2="237.2" y2="148.1" stroke="rgb(0,0,0)"  stroke-width="2.0"/>
<line x1="235.6" y1="157.3" x2="201.7" y2="137.8" stroke="rgb(0,0,0)"  stroke-width="2.0"/>
<line x1="201.7" y1="137.8" x2="201.7" y2="98.7" stroke="rgb(0,0,0)"  stroke-width="2.0"/>
<line x1="208.9" y1="131.8" x2="208.9" y2="104.7" stroke="rgb(0,0,0)"  stroke-width="2.0"/>
<text x="297.297987" y="165.333333" fill="rgb(191,191,191)"  stroke="rgb(191,191,191)" stroke-width="1" font-size="16" >H</text>
<text x="335.257427" y="263.325366" fill="rgb(12,12,255)"  stroke="rgb(12,12,255)" stroke-width="1" font-size="16" >N</text>
<text x="34.000000" y="204.444444" fill="rgb(127,178,255)"  stroke="rgb(127,178,255)" stroke-width="1" font-size="16" >F</text>
<text x="151.333333" y="136.702013" fill="rgb(191,191,191)"  stroke="rgb(191,191,191)" stroke-width="1" font-size="16" >H</text>
<text x="73.111111" y="136.702013" fill="rgb(191,191,191)"  stroke="rgb(191,191,191)" stroke-width="1" font-size="16" >H</text>
<text x="73.111111" y="272.186876" fill="rgb(191,191,191)"  stroke="rgb(191,191,191)" stroke-width="1" font-size="16" >H</text>
<text x="151.333333" y="272.186876" fill="rgb(191,191,191)"  stroke="rgb(191,191,191)" stroke-width="1" font-size="16" >H</text>
<text x="268.666667" y="204.444444" fill="rgb(191,191,191)"  stroke="rgb(191,191,191)" stroke-width="1" font-size="16" >H</text>
<text x="161.813124" y="165.333333" fill="rgb(191,191,191)"  stroke="rgb(191,191,191)" stroke-width="1" font-size="16" >H</text>
<text x="161.813124" y="87.111111" fill="rgb(191,191,191)"  stroke="rgb(191,191,191)" stroke-width="1" font-size="16" >H</text>
<text x="297.297987" y="87.111111" fill="rgb(191,191,191)"  stroke="rgb(191,191,191)" stroke-width="1" font-size="16" >H</text>
<text x="282.982327" y="229.239895" fill="rgb(191,191,191)"  stroke="rgb(191,191,191)" stroke-width="1" font-size="16" >H</text>
<text x="302.537882" y="263.111111" fill="rgb(191,191,191)"  stroke="rgb(191,191,191)" stroke-width="1" font-size="16" >H</text>
<text x="224.315660" y="302.222222" fill="rgb(191,191,191)"  stroke="rgb(191,191,191)" stroke-width="1" font-size="16" >H</text>
<text x="243.871216" y="336.093438" fill="rgb(191,191,191)"  stroke="rgb(191,191,191)" stroke-width="1" font-size="16" >H</text>
<text x="277.742432" y="355.648994" fill="rgb(191,191,191)"  stroke="rgb(191,191,191)" stroke-width="1" font-size="16" >H</text>
<text x="316.853543" y="355.648994" fill="rgb(191,191,191)"  stroke="rgb(191,191,191)" stroke-width="1" font-size="16" >H</text>
<text x="375.030638" y="356.386584" fill="rgb(191,191,191)"  stroke="rgb(191,191,191)" stroke-width="1" font-size="16" >H</text>
<text x="389.421789" y="219.463931" fill="rgb(191,191,191)"  stroke="rgb(191,191,191)" stroke-width="1" font-size="16" >H</text>
<text x="431.966279" y="293.153149" fill="rgb(191,191,191)"  stroke="rgb(191,191,191)" stroke-width="1" font-size="16" >H</text>
<text x="229.555556" y="48.000000" fill="rgb(127,178,255)"  stroke="rgb(127,178,255)" stroke-width="1" font-size="16" >F</text>
<text x="229.555556" y="243.555556" fill="rgb(255,12,12)"  stroke="rgb(255,12,12)" stroke-width="1" font-size="16" >O</text>
<text x="393.069422" y="289.064924" fill="rgb(12,12,255)"  stroke="rgb(12,12,255)" stroke-width="1" font-size="16" >N</text>
</svg>
</g>
<text font-size="18.000000" fill ="black" font-family="sans-serif"
x="10.000000" y="20.000000" >ZINC02244332</text>
</svg>
