<?xml version="1.0"?>
<svg version="1.1" id="topsvg"
xmlns="http://www.w3.org/2000/svg" xmlns:xlink="http://www.w3.org/1999/xlink"
xmlns:cml="http://www.xml-cml.org/schema" x="0" y="0" width="200px" height="200px" viewBox="0 0 100 100">
<title>ZINC98052863 - Open Babel Depiction</title>
<rect x="0" y="0" width="100" height="100" fill="white"/>
<g transform="translate(0,0)">
<svg width="100" height="100" x="0" y="0" viewBox="0 0 727.305 672.026"
font-family="sans-serif" stroke="rgb(0,0,0)" stroke-width="2"  stroke-linecap="round">
<line x1="133.1" y1="270.9" x2="172.5" y2="270.9" stroke="rgb(0,0,0)"  stroke-width="2.0"/>
<line x1="133.1" y1="270.9" x2="110.3" y2="284.1" stroke="rgb(0,0,0)"  stroke-width="2.0"/>
<line x1="133.1" y1="270.9" x2="133.1" y2="297.2" stroke="rgb(0,0,0)"  stroke-width="2.0"/>
<line x1="133.1" y1="270.9" x2="119.9" y2="248.1" stroke="rgb(0,0,0)"  stroke-width="2.0"/>
<line x1="172.5" y1="270.9" x2="172.5" y2="349.6" stroke="rgb(0,0,0)"  stroke-width="2.0"/>
<line x1="172.5" y1="270.9" x2="172.5" y2="231.5" stroke="rgb(0,0,0)"  stroke-width="2.0"/>
<line x1="172.5" y1="270.9" x2="198.8" y2="270.9" stroke="rgb(0,0,0)"  stroke-width="2.0"/>
<line x1="172.5" y1="349.6" x2="185.7" y2="372.4" stroke="rgb(0,0,0)"  stroke-width="2.0"/>
<line x1="172.5" y1="349.6" x2="198.8" y2="349.6" stroke="rgb(0,0,0)"  stroke-width="2.0"/>
<line x1="172.5" y1="349.6" x2="149.7" y2="362.8" stroke="rgb(0,0,0)"  stroke-width="2.0"/>
<line x1="167.2" y1="232.3" x2="167.2" y2="230.7" stroke="rgb(0,0,0)"  stroke-width="1.0"/>
<line x1="163.0" y1="233.0" x2="163.0" y2="230.1" stroke="rgb(0,0,0)"  stroke-width="1.0"/>
<line x1="158.8" y1="233.6" x2="158.8" y2="229.4" stroke="rgb(0,0,0)"  stroke-width="1.0"/>
<line x1="154.6" y1="234.2" x2="154.6" y2="228.8" stroke="rgb(0,0,0)"  stroke-width="1.0"/>
<line x1="150.3" y1="234.9" x2="150.3" y2="228.2" stroke="rgb(0,0,0)"  stroke-width="1.0"/>
<line x1="146.1" y1="235.5" x2="146.1" y2="227.5" stroke="rgb(0,0,0)"  stroke-width="1.0"/>
<line x1="172.5" y1="231.5" x2="172.5" y2="192.2" stroke="rgb(0,0,0)"  stroke-width="2.0"/>
<line x1="172.5" y1="231.5" x2="198.8" y2="231.5" stroke="rgb(0,0,0)"  stroke-width="2.0"/>
<line x1="171.0" y1="189.6" x2="193.8" y2="176.4" stroke="rgb(0,0,0)"  stroke-width="2.0"/>
<line x1="174.0" y1="194.8" x2="196.8" y2="181.6" stroke="rgb(0,0,0)"  stroke-width="2.0"/>
<line x1="172.5" y1="192.2" x2="149.7" y2="179.0" stroke="rgb(0,0,0)"  stroke-width="2.0"/>
<line x1="138.4" y1="159.5" x2="138.4" y2="133.1" stroke="rgb(0,0,0)"  stroke-width="2.0"/>
<line x1="127.1" y1="179.0" x2="115.6" y2="185.7" stroke="rgb(0,0,0)"  stroke-width="2.0"/>
<line x1="143.7" y1="132.3" x2="143.7" y2="133.9" stroke="rgb(0,0,0)"  stroke-width="1.0"/>
<line x1="147.9" y1="131.7" x2="147.9" y2="134.6" stroke="rgb(0,0,0)"  stroke-width="1.0"/>
<line x1="152.1" y1="131.0" x2="152.1" y2="135.2" stroke="rgb(0,0,0)"  stroke-width="1.0"/>
<line x1="156.3" y1="130.4" x2="156.3" y2="135.8" stroke="rgb(0,0,0)"  stroke-width="1.0"/>
<line x1="160.6" y1="129.8" x2="160.6" y2="136.5" stroke="rgb(0,0,0)"  stroke-width="1.0"/>
<line x1="164.8" y1="129.1" x2="164.8" y2="137.1" stroke="rgb(0,0,0)"  stroke-width="1.0"/>
<line x1="138.4" y1="133.1" x2="138.4" y2="93.8" stroke="rgb(0,0,0)"  stroke-width="2.0"/>
<line x1="138.4" y1="133.1" x2="99.0" y2="133.1" stroke="rgb(0,0,0)"  stroke-width="2.0"/>
<line x1="138.4" y1="93.8" x2="172.5" y2="74.1" stroke="rgb(0,0,0)"  stroke-width="2.0"/>
<line x1="138.4" y1="93.8" x2="125.2" y2="70.9" stroke="rgb(0,0,0)"  stroke-width="2.0"/>
<line x1="138.4" y1="93.8" x2="112.0" y2="93.8" stroke="rgb(0,0,0)"  stroke-width="2.0"/>
<line x1="172.5" y1="74.1" x2="195.3" y2="87.3" stroke="rgb(0,0,0)"  stroke-width="2.0"/>
<line x1="172.5" y1="74.1" x2="185.7" y2="51.3" stroke="rgb(0,0,0)"  stroke-width="2.0"/>
<line x1="172.5" y1="74.1" x2="159.3" y2="51.3" stroke="rgb(0,0,0)"  stroke-width="2.0"/>
<line x1="217.8" y1="87.3" x2="240.7" y2="74.1" stroke="rgb(0,0,0)"  stroke-width="2.0"/>
<line x1="240.7" y1="74.1" x2="253.8" y2="51.3" stroke="rgb(0,0,0)"  stroke-width="2.0"/>
<line x1="240.7" y1="74.1" x2="227.5" y2="51.3" stroke="rgb(0,0,0)"  stroke-width="2.0"/>
<line x1="240.7" y1="74.1" x2="263.5" y2="87.3" stroke="rgb(0,0,0)"  stroke-width="2.0"/>
<line x1="101.6" y1="134.6" x2="88.5" y2="157.5" stroke="rgb(0,0,0)"  stroke-width="2.0"/>
<line x1="96.4" y1="131.6" x2="83.3" y2="154.5" stroke="rgb(0,0,0)"  stroke-width="2.0"/>
<line x1="99.0" y1="133.1" x2="85.9" y2="110.3" stroke="rgb(0,0,0)"  stroke-width="2.0"/>
<line x1="66.4" y1="99.0" x2="53.0" y2="99.0" stroke="rgb(0,0,0)"  stroke-width="2.0"/>
<line x1="85.9" y1="87.8" x2="92.5" y2="76.2" stroke="rgb(0,0,0)"  stroke-width="2.0"/>
<line x1="218.3" y1="242.8" x2="231.5" y2="265.6" stroke="rgb(0,0,0)"  stroke-width="2.0"/>
<line x1="218.3" y1="220.3" x2="225.0" y2="208.7" stroke="rgb(0,0,0)"  stroke-width="2.0"/>
<line x1="234.1" y1="267.1" x2="220.9" y2="289.9" stroke="rgb(0,0,0)"  stroke-width="2.0"/>
<line x1="228.9" y1="264.1" x2="215.7" y2="286.9" stroke="rgb(0,0,0)"  stroke-width="2.0"/>
<line x1="231.5" y1="265.6" x2="270.9" y2="265.6" stroke="rgb(0,0,0)"  stroke-width="2.0"/>
<polygon points="270.886760 265.613520 266.886760 239.242320 274.886760 239.242320 " stroke-width="2.000000" fill="rgb(0,0,0)"  stroke="rgb(0,0,0)" />
<line x1="270.9" y1="265.6" x2="310.2" y2="265.6" stroke="rgb(0,0,0)"  stroke-width="2.0"/>
<line x1="270.9" y1="265.6" x2="270.9" y2="292.0" stroke="rgb(0,0,0)"  stroke-width="2.0"/>
<line x1="310.2" y1="265.6" x2="329.9" y2="231.5" stroke="rgb(0,0,0)"  stroke-width="2.0"/>
<line x1="310.2" y1="265.6" x2="333.1" y2="278.8" stroke="rgb(0,0,0)"  stroke-width="2.0"/>
<line x1="310.2" y1="265.6" x2="310.2" y2="292.0" stroke="rgb(0,0,0)"  stroke-width="2.0"/>
<line x1="329.9" y1="231.5" x2="356.3" y2="231.5" stroke="rgb(0,0,0)"  stroke-width="2.0"/>
<line x1="329.9" y1="231.5" x2="329.9" y2="205.2" stroke="rgb(0,0,0)"  stroke-width="2.0"/>
<line x1="329.9" y1="231.5" x2="307.1" y2="218.3" stroke="rgb(0,0,0)"  stroke-width="2.0"/>
<line x1="375.8" y1="220.3" x2="389.0" y2="197.4" stroke="rgb(0,0,0)"  stroke-width="2.0"/>
<line x1="389.0" y1="197.4" x2="389.0" y2="171.1" stroke="rgb(0,0,0)"  stroke-width="2.0"/>
<line x1="389.0" y1="197.4" x2="366.1" y2="184.3" stroke="rgb(0,0,0)"  stroke-width="2.0"/>
<line x1="389.0" y1="197.4" x2="415.3" y2="197.4" stroke="rgb(0,0,0)"  stroke-width="2.0"/>
<line x1="282.1" y1="311.5" x2="305.0" y2="324.7" stroke="rgb(0,0,0)"  stroke-width="2.0"/>
<line x1="259.6" y1="311.5" x2="248.1" y2="318.2" stroke="rgb(0,0,0)"  stroke-width="2.0"/>
<line x1="303.5" y1="322.1" x2="326.3" y2="308.9" stroke="rgb(0,0,0)"  stroke-width="2.0"/>
<line x1="306.5" y1="327.3" x2="329.3" y2="314.1" stroke="rgb(0,0,0)"  stroke-width="2.0"/>
<line x1="305.0" y1="324.7" x2="305.0" y2="364.0" stroke="rgb(0,0,0)"  stroke-width="2.0"/>
<line x1="299.7" y1="364.8" x2="299.7" y2="363.2" stroke="rgb(0,0,0)"  stroke-width="1.0"/>
<line x1="295.5" y1="365.5" x2="295.5" y2="362.6" stroke="rgb(0,0,0)"  stroke-width="1.0"/>
<line x1="291.3" y1="366.1" x2="291.3" y2="361.9" stroke="rgb(0,0,0)"  stroke-width="1.0"/>
<line x1="287.0" y1="366.7" x2="287.0" y2="361.3" stroke="rgb(0,0,0)"  stroke-width="1.0"/>
<line x1="282.8" y1="367.4" x2="282.8" y2="360.7" stroke="rgb(0,0,0)"  stroke-width="1.0"/>
<line x1="278.6" y1="368.0" x2="278.6" y2="360.0" stroke="rgb(0,0,0)"  stroke-width="1.0"/>
<line x1="305.0" y1="364.0" x2="305.0" y2="403.4" stroke="rgb(0,0,0)"  stroke-width="2.0"/>
<line x1="305.0" y1="364.0" x2="331.3" y2="364.0" stroke="rgb(0,0,0)"  stroke-width="2.0"/>
<line x1="305.0" y1="403.4" x2="270.9" y2="423.1" stroke="rgb(0,0,0)"  stroke-width="2.0"/>
<line x1="305.0" y1="403.4" x2="318.2" y2="426.2" stroke="rgb(0,0,0)"  stroke-width="2.0"/>
<line x1="305.0" y1="403.4" x2="331.3" y2="403.4" stroke="rgb(0,0,0)"  stroke-width="2.0"/>
<line x1="236.8" y1="403.4" x2="236.8" y2="377.0" stroke="rgb(0,0,0)"  stroke-width="2.0"/>
<line x1="202.7" y1="423.1" x2="179.9" y2="409.9" stroke="rgb(0,0,0)"  stroke-width="2.0"/>
<line x1="202.7" y1="462.4" x2="179.9" y2="475.6" stroke="rgb(0,0,0)"  stroke-width="2.0"/>
<line x1="236.8" y1="482.1" x2="236.8" y2="508.5" stroke="rgb(0,0,0)"  stroke-width="2.0"/>
<line x1="270.9" y1="462.4" x2="293.7" y2="475.6" stroke="rgb(0,0,0)"  stroke-width="2.0"/>
<line x1="157.4" y1="475.6" x2="145.8" y2="468.9" stroke="rgb(0,0,0)"  stroke-width="2.0"/>
<line x1="350.8" y1="375.3" x2="364.0" y2="398.1" stroke="rgb(0,0,0)"  stroke-width="2.0"/>
<line x1="350.8" y1="352.8" x2="357.5" y2="341.2" stroke="rgb(0,0,0)"  stroke-width="2.0"/>
<line x1="366.6" y1="399.6" x2="353.4" y2="422.4" stroke="rgb(0,0,0)"  stroke-width="2.0"/>
<line x1="361.4" y1="396.6" x2="348.2" y2="419.4" stroke="rgb(0,0,0)"  stroke-width="2.0"/>
<line x1="364.0" y1="398.1" x2="403.4" y2="398.1" stroke="rgb(0,0,0)"  stroke-width="2.0"/>
<polygon points="403.373520 398.100280 399.373520 371.729080 407.373520 371.729080 " stroke-width="2.000000" fill="rgb(0,0,0)"  stroke="rgb(0,0,0)" />
<line x1="403.4" y1="398.1" x2="442.7" y2="398.1" stroke="rgb(0,0,0)"  stroke-width="2.0"/>
<line x1="403.4" y1="398.1" x2="403.4" y2="424.5" stroke="rgb(0,0,0)"  stroke-width="2.0"/>
<line x1="442.7" y1="398.1" x2="462.4" y2="364.0" stroke="rgb(0,0,0)"  stroke-width="2.0"/>
<line x1="442.7" y1="398.1" x2="465.6" y2="411.3" stroke="rgb(0,0,0)"  stroke-width="2.0"/>
<line x1="442.7" y1="398.1" x2="442.7" y2="424.5" stroke="rgb(0,0,0)"  stroke-width="2.0"/>
<line x1="462.4" y1="364.0" x2="501.8" y2="364.0" stroke="rgb(0,0,0)"  stroke-width="2.0"/>
<line x1="462.4" y1="364.0" x2="462.4" y2="337.7" stroke="rgb(0,0,0)"  stroke-width="2.0"/>
<line x1="462.4" y1="364.0" x2="439.6" y2="350.8" stroke="rgb(0,0,0)"  stroke-width="2.0"/>
<line x1="501.8" y1="364.0" x2="521.5" y2="329.9" stroke="rgb(0,0,0)"  stroke-width="2.0"/>
<line x1="501.8" y1="364.0" x2="524.6" y2="377.2" stroke="rgb(0,0,0)"  stroke-width="2.0"/>
<line x1="501.8" y1="364.0" x2="501.8" y2="390.4" stroke="rgb(0,0,0)"  stroke-width="2.0"/>
<line x1="521.5" y1="329.9" x2="547.8" y2="329.9" stroke="rgb(0,0,0)"  stroke-width="2.0"/>
<line x1="521.5" y1="329.9" x2="521.5" y2="303.6" stroke="rgb(0,0,0)"  stroke-width="2.0"/>
<line x1="521.5" y1="329.9" x2="498.6" y2="316.7" stroke="rgb(0,0,0)"  stroke-width="2.0"/>
<line x1="560.8" y1="342.9" x2="560.8" y2="356.3" stroke="rgb(0,0,0)"  stroke-width="2.0"/>
<line x1="573.8" y1="329.9" x2="587.2" y2="329.9" stroke="rgb(0,0,0)"  stroke-width="2.0"/>
<line x1="560.8" y1="316.9" x2="560.8" y2="303.6" stroke="rgb(0,0,0)"  stroke-width="2.0"/>
<line x1="414.6" y1="444.0" x2="437.5" y2="457.1" stroke="rgb(0,0,0)"  stroke-width="2.0"/>
<line x1="392.1" y1="444.0" x2="380.5" y2="450.6" stroke="rgb(0,0,0)"  stroke-width="2.0"/>
<line x1="436.0" y1="454.5" x2="458.8" y2="441.4" stroke="rgb(0,0,0)"  stroke-width="2.0"/>
<line x1="439.0" y1="459.7" x2="461.8" y2="446.6" stroke="rgb(0,0,0)"  stroke-width="2.0"/>
<line x1="437.5" y1="457.1" x2="437.5" y2="496.5" stroke="rgb(0,0,0)"  stroke-width="2.0"/>
<polygon points="437.460280 496.500280 411.089080 500.500280 411.089080 492.500280 " stroke-width="2.000000" fill="rgb(0,0,0)"  stroke="rgb(0,0,0)" />
<line x1="437.5" y1="496.5" x2="516.2" y2="496.5" stroke="rgb(0,0,0)"  stroke-width="2.0"/>
<line x1="437.5" y1="496.5" x2="437.5" y2="522.9" stroke="rgb(0,0,0)"  stroke-width="2.0"/>
<line x1="516.2" y1="496.5" x2="535.9" y2="530.6" stroke="rgb(0,0,0)"  stroke-width="2.0"/>
<line x1="516.2" y1="496.5" x2="516.2" y2="470.1" stroke="rgb(0,0,0)"  stroke-width="2.0"/>
<line x1="516.2" y1="496.5" x2="539.0" y2="483.3" stroke="rgb(0,0,0)"  stroke-width="2.0"/>
<line x1="519.9" y1="566.5" x2="494.1" y2="572.0" stroke="rgb(0,0,0)"  stroke-width="2.0"/>
<line x1="547.7" y1="605.8" x2="546.3" y2="619.1" stroke="rgb(0,0,0)"  stroke-width="2.0"/>
<line x1="604.3" y1="508.4" x2="598.8" y2="482.6" stroke="rgb(0,0,0)"  stroke-width="2.0"/>
<line x1="641.7" y1="520.5" x2="661.3" y2="502.9" stroke="rgb(0,0,0)"  stroke-width="2.0"/>
<line x1="649.9" y1="559.0" x2="674.9" y2="567.2" stroke="rgb(0,0,0)"  stroke-width="2.0"/>
<line x1="620.6" y1="585.4" x2="626.1" y2="611.1" stroke="rgb(0,0,0)"  stroke-width="2.0"/>
<line x1="426.2" y1="542.4" x2="414.6" y2="549.0" stroke="rgb(0,0,0)"  stroke-width="2.0"/>
<line x1="448.7" y1="542.4" x2="460.3" y2="549.0" stroke="rgb(0,0,0)"  stroke-width="2.0"/>
<line x1="560.4" y1="586.4" x2="583.2" y2="573.2" stroke="rgb(0,0,0)"  stroke-width="2.0"/>
<line x1="583.2" y1="573.2" x2="575.0" y2="534.7" stroke="rgb(0,0,0)"  stroke-width="2.0"/>
<line x1="575.0" y1="534.7" x2="535.9" y2="530.6" stroke="rgb(0,0,0)"  stroke-width="2.0"/>
<line x1="535.9" y1="530.6" x2="519.9" y2="566.5" stroke="rgb(0,0,0)"  stroke-width="2.0"/>
<line x1="540.0" y1="539.0" x2="528.9" y2="564.0" stroke="rgb(0,0,0)"  stroke-width="2.0"/>
<line x1="519.9" y1="566.5" x2="539.4" y2="584.2" stroke="rgb(0,0,0)"  stroke-width="2.0"/>
<line x1="202.7" y1="423.1" x2="202.7" y2="462.4" stroke="rgb(0,0,0)"  stroke-width="2.0"/>
<line x1="202.7" y1="462.4" x2="236.8" y2="482.1" stroke="rgb(0,0,0)"  stroke-width="2.0"/>
<line x1="211.5" y1="459.2" x2="235.2" y2="472.9" stroke="rgb(0,0,0)"  stroke-width="2.0"/>
<line x1="236.8" y1="482.1" x2="270.9" y2="462.4" stroke="rgb(0,0,0)"  stroke-width="2.0"/>
<line x1="270.9" y1="462.4" x2="270.9" y2="423.1" stroke="rgb(0,0,0)"  stroke-width="2.0"/>
<line x1="263.7" y1="456.4" x2="263.7" y2="429.1" stroke="rgb(0,0,0)"  stroke-width="2.0"/>
<line x1="270.9" y1="423.1" x2="236.8" y2="403.4" stroke="rgb(0,0,0)"  stroke-width="2.0"/>
<line x1="236.8" y1="403.4" x2="202.7" y2="423.1" stroke="rgb(0,0,0)"  stroke-width="2.0"/>
<line x1="235.2" y1="412.6" x2="211.5" y2="426.3" stroke="rgb(0,0,0)"  stroke-width="2.0"/>
<line x1="649.9" y1="559.0" x2="641.7" y2="520.5" stroke="rgb(0,0,0)"  stroke-width="2.0"/>
<line x1="641.6" y1="554.7" x2="635.9" y2="527.9" stroke="rgb(0,0,0)"  stroke-width="2.0"/>
<line x1="641.7" y1="520.5" x2="604.3" y2="508.4" stroke="rgb(0,0,0)"  stroke-width="2.0"/>
<line x1="604.3" y1="508.4" x2="575.0" y2="534.7" stroke="rgb(0,0,0)"  stroke-width="2.0"/>
<line x1="604.6" y1="517.7" x2="584.3" y2="536.0" stroke="rgb(0,0,0)"  stroke-width="2.0"/>
<line x1="583.2" y1="573.2" x2="620.6" y2="585.4" stroke="rgb(0,0,0)"  stroke-width="2.0"/>
<line x1="591.1" y1="568.2" x2="617.1" y2="576.7" stroke="rgb(0,0,0)"  stroke-width="2.0"/>
<line x1="620.6" y1="585.4" x2="649.9" y2="559.0" stroke="rgb(0,0,0)"  stroke-width="2.0"/>
<text x="93.040000" y="101.766760" fill="rgb(191,191,191)"  stroke="rgb(191,191,191)" stroke-width="1" font-size="16" >H</text>
<text x="422.326760" y="205.440000" fill="rgb(191,191,191)"  stroke="rgb(191,191,191)" stroke-width="1" font-size="16" >H</text>
<text x="348.880000" y="185.760000" fill="rgb(191,191,191)"  stroke="rgb(191,191,191)" stroke-width="1" font-size="16" >H</text>
<text x="382.966760" y="166.080000" fill="rgb(191,191,191)"  stroke="rgb(191,191,191)" stroke-width="1" font-size="16" >H</text>
<text x="289.840000" y="219.846760" fill="rgb(191,191,191)"  stroke="rgb(191,191,191)" stroke-width="1" font-size="16" >H</text>
<text x="323.926760" y="200.166760" fill="rgb(191,191,191)"  stroke="rgb(191,191,191)" stroke-width="1" font-size="16" >H</text>
<text x="304.246760" y="312.973520" fill="rgb(191,191,191)"  stroke="rgb(191,191,191)" stroke-width="1" font-size="16" >H</text>
<text x="338.333520" y="293.293520" fill="rgb(191,191,191)"  stroke="rgb(191,191,191)" stroke-width="1" font-size="16" >H</text>
<text x="225.526760" y="205.440000" fill="rgb(191,191,191)"  stroke="rgb(191,191,191)" stroke-width="1" font-size="16" >H</text>
<text x="93.040000" y="72.953240" fill="rgb(191,191,191)"  stroke="rgb(191,191,191)" stroke-width="1" font-size="16" >H</text>
<text x="34.000000" y="107.040000" fill="rgb(191,191,191)"  stroke="rgb(191,191,191)" stroke-width="1" font-size="16" >H</text>
<text x="268.747040" y="101.766760" fill="rgb(191,191,191)"  stroke="rgb(191,191,191)" stroke-width="1" font-size="16" >H</text>
<text x="214.980280" y="48.000000" fill="rgb(191,191,191)"  stroke="rgb(191,191,191)" stroke-width="1" font-size="16" >H</text>
<text x="254.340280" y="48.000000" fill="rgb(191,191,191)"  stroke="rgb(191,191,191)" stroke-width="1" font-size="16" >H</text>
<text x="146.806760" y="48.000000" fill="rgb(191,191,191)"  stroke="rgb(191,191,191)" stroke-width="1" font-size="16" >H</text>
<text x="186.166760" y="48.000000" fill="rgb(191,191,191)"  stroke="rgb(191,191,191)" stroke-width="1" font-size="16" >H</text>
<text x="230.800000" y="332.653520" fill="rgb(191,191,191)"  stroke="rgb(191,191,191)" stroke-width="1" font-size="16" >H</text>
<text x="112.720000" y="67.680000" fill="rgb(191,191,191)"  stroke="rgb(191,191,191)" stroke-width="1" font-size="16" >H</text>
<text x="98.313240" y="200.166760" fill="rgb(191,191,191)"  stroke="rgb(191,191,191)" stroke-width="1" font-size="16" >H</text>
<text x="132.400000" y="377.286760" fill="rgb(191,191,191)"  stroke="rgb(191,191,191)" stroke-width="1" font-size="16" >H</text>
<text x="205.846760" y="357.606760" fill="rgb(191,191,191)"  stroke="rgb(191,191,191)" stroke-width="1" font-size="16" >H</text>
<text x="186.166760" y="391.693520" fill="rgb(191,191,191)"  stroke="rgb(191,191,191)" stroke-width="1" font-size="16" >H</text>
<text x="205.846760" y="278.886760" fill="rgb(191,191,191)"  stroke="rgb(191,191,191)" stroke-width="1" font-size="16" >H</text>
<text x="107.446760" y="244.800000" fill="rgb(191,191,191)"  stroke="rgb(191,191,191)" stroke-width="1" font-size="16" >H</text>
<text x="127.126760" y="318.246760" fill="rgb(191,191,191)"  stroke="rgb(191,191,191)" stroke-width="1" font-size="16" >H</text>
<text x="93.040000" y="298.566760" fill="rgb(191,191,191)"  stroke="rgb(191,191,191)" stroke-width="1" font-size="16" >H</text>
<text x="431.460280" y="543.860280" fill="rgb(12,12,255)"  stroke="rgb(12,12,255)" stroke-width="1" font-size="16" >N</text>
<text x="515.453520" y="298.566760" fill="rgb(191,191,191)"  stroke="rgb(191,191,191)" stroke-width="1" font-size="16" >H</text>
<text x="465.547040" y="563.540280" fill="rgb(191,191,191)"  stroke="rgb(191,191,191)" stroke-width="1" font-size="16" >H</text>
<text x="554.813520" y="298.566760" fill="rgb(191,191,191)"  stroke="rgb(191,191,191)" stroke-width="1" font-size="16" >H</text>
<text x="397.373520" y="563.540280" fill="rgb(191,191,191)"  stroke="rgb(191,191,191)" stroke-width="1" font-size="16" >H</text>
<text x="622.805054" y="631.863968" fill="rgb(191,191,191)"  stroke="rgb(191,191,191)" stroke-width="1" font-size="16" >H</text>
<text x="681.305415" y="579.190007" fill="rgb(191,191,191)"  stroke="rgb(191,191,191)" stroke-width="1" font-size="16" >H</text>
<text x="664.938607" y="502.190227" fill="rgb(191,191,191)"  stroke="rgb(191,191,191)" stroke-width="1" font-size="16" >H</text>
<text x="590.071438" y="477.864410" fill="rgb(191,191,191)"  stroke="rgb(191,191,191)" stroke-width="1" font-size="16" >H</text>
<text x="475.351236" y="582.727593" fill="rgb(191,191,191)"  stroke="rgb(191,191,191)" stroke-width="1" font-size="16" >H</text>
<text x="544.267040" y="484.820280" fill="rgb(191,191,191)"  stroke="rgb(191,191,191)" stroke-width="1" font-size="16" >H</text>
<text x="510.180280" y="465.140280" fill="rgb(191,191,191)"  stroke="rgb(191,191,191)" stroke-width="1" font-size="16" >H</text>
<text x="363.286760" y="465.140280" fill="rgb(191,191,191)"  stroke="rgb(191,191,191)" stroke-width="1" font-size="16" >H</text>
<text x="594.173520" y="337.926760" fill="rgb(191,191,191)"  stroke="rgb(191,191,191)" stroke-width="1" font-size="16" >H</text>
<text x="554.813520" y="377.286760" fill="rgb(191,191,191)"  stroke="rgb(191,191,191)" stroke-width="1" font-size="16" >H</text>
<text x="481.366760" y="318.246760" fill="rgb(191,191,191)"  stroke="rgb(191,191,191)" stroke-width="1" font-size="16" >H</text>
<text x="495.773520" y="411.373520" fill="rgb(191,191,191)"  stroke="rgb(191,191,191)" stroke-width="1" font-size="16" >H</text>
<text x="529.860280" y="391.693520" fill="rgb(191,191,191)"  stroke="rgb(191,191,191)" stroke-width="1" font-size="16" >H</text>
<text x="422.326760" y="352.333520" fill="rgb(191,191,191)"  stroke="rgb(191,191,191)" stroke-width="1" font-size="16" >H</text>
<text x="456.413520" y="332.653520" fill="rgb(191,191,191)"  stroke="rgb(191,191,191)" stroke-width="1" font-size="16" >H</text>
<text x="436.733520" y="445.460280" fill="rgb(191,191,191)"  stroke="rgb(191,191,191)" stroke-width="1" font-size="16" >H</text>
<text x="470.820280" y="425.780280" fill="rgb(191,191,191)"  stroke="rgb(191,191,191)" stroke-width="1" font-size="16" >H</text>
<text x="358.013520" y="337.926760" fill="rgb(191,191,191)"  stroke="rgb(191,191,191)" stroke-width="1" font-size="16" >H</text>
<text x="128.539720" y="470.413520" fill="rgb(191,191,191)"  stroke="rgb(191,191,191)" stroke-width="1" font-size="16" >H</text>
<text x="298.973520" y="490.093520" fill="rgb(191,191,191)"  stroke="rgb(191,191,191)" stroke-width="1" font-size="16" >H</text>
<text x="230.800000" y="529.453520" fill="rgb(191,191,191)"  stroke="rgb(191,191,191)" stroke-width="1" font-size="16" >H</text>
<text x="162.626480" y="411.373520" fill="rgb(191,191,191)"  stroke="rgb(191,191,191)" stroke-width="1" font-size="16" >H</text>
<text x="230.800000" y="372.013520" fill="rgb(191,191,191)"  stroke="rgb(191,191,191)" stroke-width="1" font-size="16" >H</text>
<text x="338.333520" y="411.373520" fill="rgb(191,191,191)"  stroke="rgb(191,191,191)" stroke-width="1" font-size="16" >H</text>
<text x="318.653520" y="445.460280" fill="rgb(191,191,191)"  stroke="rgb(191,191,191)" stroke-width="1" font-size="16" >H</text>
<text x="73.360000" y="175.213520" fill="rgb(255,12,12)"  stroke="rgb(255,12,12)" stroke-width="1" font-size="16" >O</text>
<text x="333.060280" y="312.973520" fill="rgb(255,12,12)"  stroke="rgb(255,12,12)" stroke-width="1" font-size="16" >O</text>
<text x="264.886760" y="312.973520" fill="rgb(12,12,255)"  stroke="rgb(12,12,255)" stroke-width="1" font-size="16" >N</text>
<text x="363.286760" y="239.526760" fill="rgb(178,178,0)"  stroke="rgb(178,178,0)" stroke-width="1" font-size="16" >S</text>
<text x="264.886760" y="234.253520" fill="rgb(191,191,191)"  stroke="rgb(191,191,191)" stroke-width="1" font-size="16" >H</text>
<text x="205.846760" y="307.700280" fill="rgb(255,12,12)"  stroke="rgb(255,12,12)" stroke-width="1" font-size="16" >O</text>
<text x="205.846760" y="239.526760" fill="rgb(12,12,255)"  stroke="rgb(12,12,255)" stroke-width="1" font-size="16" >N</text>
<text x="73.360000" y="107.040000" fill="rgb(12,12,255)"  stroke="rgb(12,12,255)" stroke-width="1" font-size="16" >N</text>
<text x="259.613520" y="372.013520" fill="rgb(191,191,191)"  stroke="rgb(191,191,191)" stroke-width="1" font-size="16" >H</text>
<text x="200.573520" y="101.766760" fill="rgb(178,178,0)"  stroke="rgb(178,178,0)" stroke-width="1" font-size="16" >S</text>
<text x="171.760000" y="141.126760" fill="rgb(191,191,191)"  stroke="rgb(191,191,191)" stroke-width="1" font-size="16" >H</text>
<text x="132.400000" y="180.486760" fill="rgb(12,12,255)"  stroke="rgb(12,12,255)" stroke-width="1" font-size="16" >N</text>
<text x="200.573520" y="180.486760" fill="rgb(255,12,12)"  stroke="rgb(255,12,12)" stroke-width="1" font-size="16" >O</text>
<text x="127.126760" y="239.526760" fill="rgb(191,191,191)"  stroke="rgb(191,191,191)" stroke-width="1" font-size="16" >H</text>
<text x="538.987065" y="640.025551" fill="rgb(191,191,191)"  stroke="rgb(191,191,191)" stroke-width="1" font-size="16" >H</text>
<text x="543.101306" y="600.881169" fill="rgb(12,12,255)"  stroke="rgb(12,12,255)" stroke-width="1" font-size="16" >N</text>
<text x="392.100280" y="504.500280" fill="rgb(191,191,191)"  stroke="rgb(191,191,191)" stroke-width="1" font-size="16" >H</text>
<text x="465.547040" y="445.460280" fill="rgb(255,12,12)"  stroke="rgb(255,12,12)" stroke-width="1" font-size="16" >O</text>
<text x="397.373520" y="445.460280" fill="rgb(12,12,255)"  stroke="rgb(12,12,255)" stroke-width="1" font-size="16" >N</text>
<text x="565.613520" y="325.894760" fill="rgb(12,12,255)"  stroke="rgb(12,12,255)" stroke-width="1" font-size="16" >+</text>
<text x="554.813520" y="337.926760" fill="rgb(12,12,255)"  stroke="rgb(12,12,255)" stroke-width="1" font-size="16" >N</text>
<text x="397.373520" y="366.740280" fill="rgb(191,191,191)"  stroke="rgb(191,191,191)" stroke-width="1" font-size="16" >H</text>
<text x="338.333520" y="440.187040" fill="rgb(255,12,12)"  stroke="rgb(255,12,12)" stroke-width="1" font-size="16" >O</text>
<text x="338.333520" y="372.013520" fill="rgb(12,12,255)"  stroke="rgb(12,12,255)" stroke-width="1" font-size="16" >N</text>
<text x="162.626480" y="490.093520" fill="rgb(255,12,12)"  stroke="rgb(255,12,12)" stroke-width="1" font-size="16" >O</text>
</svg>
</g>
<text font-size="18.000000" fill ="black" font-family="sans-serif"
x="10.000000" y="20.000000" >ZINC98052863</text>
</svg>
