<?xml version="1.0"?>
<svg version="1.1" id="topsvg"
xmlns="http://www.w3.org/2000/svg" xmlns:xlink="http://www.w3.org/1999/xlink"
xmlns:cml="http://www.xml-cml.org/schema" x="0" y="0" width="200px" height="200px" viewBox="0 0 100 100">
<title>ZINC12402869 - Open Babel Depiction</title>
<rect x="0" y="0" width="100" height="100" fill="white"/>
<g transform="translate(0,0)">
<svg width="100" height="100" x="0" y="0" viewBox="0 0 475.162 374.857"
font-family="sans-serif" stroke="rgb(0,0,0)" stroke-width="2"  stroke-linecap="round">
<line x1="302.8" y1="304.4" x2="286.3" y2="324.8" stroke="rgb(0,0,0)"  stroke-width="2.0"/>
<line x1="394.4" y1="253.5" x2="414.7" y2="270.0" stroke="rgb(0,0,0)"  stroke-width="2.0"/>
<line x1="390.6" y1="258.2" x2="410.9" y2="274.7" stroke="rgb(0,0,0)"  stroke-width="2.0"/>
<line x1="410.7" y1="212.5" x2="423.0" y2="207.8" stroke="rgb(0,0,0)"  stroke-width="2.0"/>
<line x1="368.2" y1="192.5" x2="372.3" y2="166.7" stroke="rgb(0,0,0)"  stroke-width="2.0"/>
<line x1="280.5" y1="261.9" x2="219.5" y2="238.5" stroke="rgb(0,0,0)"  stroke-width="2.0"/>
<line x1="219.5" y1="238.5" x2="205.4" y2="260.6" stroke="rgb(0,0,0)"  stroke-width="2.0"/>
<polygon points="219.488146 238.514644 235.607378 202.595315 242.535581 206.595315 " stroke-width="2.000000" fill="rgb(0,0,0)"  stroke="rgb(0,0,0)" />
<line x1="239.1" y1="204.6" x2="263.0" y2="215.2" stroke="rgb(0,0,0)"  stroke-width="2.0"/>
<line x1="233.2" y1="199.3" x2="234.4" y2="198.2" stroke="rgb(0,0,0)"  stroke-width="1.0"/>
<line x1="228.6" y1="195.1" x2="230.7" y2="193.2" stroke="rgb(0,0,0)"  stroke-width="1.0"/>
<line x1="223.9" y1="190.9" x2="227.0" y2="188.1" stroke="rgb(0,0,0)"  stroke-width="1.0"/>
<line x1="219.2" y1="186.6" x2="223.3" y2="183.0" stroke="rgb(0,0,0)"  stroke-width="1.0"/>
<line x1="214.6" y1="182.4" x2="219.6" y2="177.9" stroke="rgb(0,0,0)"  stroke-width="1.0"/>
<line x1="209.9" y1="178.2" x2="215.8" y2="172.8" stroke="rgb(0,0,0)"  stroke-width="1.0"/>
<line x1="239.1" y1="204.6" x2="260.2" y2="189.2" stroke="rgb(0,0,0)"  stroke-width="2.0"/>
<line x1="212.9" y1="175.5" x2="230.4" y2="156.0" stroke="rgb(0,0,0)"  stroke-width="2.0"/>
<line x1="206.0" y1="179.4" x2="205.4" y2="177.9" stroke="rgb(0,0,0)"  stroke-width="1.0"/>
<line x1="200.6" y1="182.5" x2="199.4" y2="179.9" stroke="rgb(0,0,0)"  stroke-width="1.0"/>
<line x1="195.1" y1="185.7" x2="193.4" y2="181.9" stroke="rgb(0,0,0)"  stroke-width="1.0"/>
<line x1="189.6" y1="188.8" x2="187.4" y2="183.8" stroke="rgb(0,0,0)"  stroke-width="1.0"/>
<line x1="184.2" y1="191.9" x2="181.4" y2="185.8" stroke="rgb(0,0,0)"  stroke-width="1.0"/>
<line x1="178.7" y1="195.1" x2="175.5" y2="187.8" stroke="rgb(0,0,0)"  stroke-width="1.0"/>
<line x1="212.9" y1="175.5" x2="204.8" y2="150.6" stroke="rgb(0,0,0)"  stroke-width="2.0"/>
<polygon points="177.083333 191.419328 160.498398 170.693378 167.426602 166.693378 " stroke-width="2.000000" fill="rgb(0,0,0)"  stroke="rgb(0,0,0)" />
<line x1="177.1" y1="191.4" x2="137.9" y2="191.4" stroke="rgb(0,0,0)"  stroke-width="2.0"/>
<line x1="137.9" y1="191.4" x2="124.8" y2="168.8" stroke="rgb(0,0,0)"  stroke-width="2.0"/>
<line x1="137.9" y1="191.4" x2="115.3" y2="204.5" stroke="rgb(0,0,0)"  stroke-width="2.0"/>
<line x1="137.9" y1="191.4" x2="137.9" y2="217.6" stroke="rgb(0,0,0)"  stroke-width="2.0"/>
<line x1="105.3" y1="157.5" x2="92.2" y2="157.5" stroke="rgb(0,0,0)"  stroke-width="2.0"/>
<line x1="80.0" y1="173.1" x2="78.4" y2="173.1" stroke="rgb(0,0,0)"  stroke-width="1.0"/>
<line x1="80.6" y1="175.2" x2="77.7" y2="175.2" stroke="rgb(0,0,0)"  stroke-width="1.0"/>
<line x1="81.2" y1="177.3" x2="77.1" y2="177.3" stroke="rgb(0,0,0)"  stroke-width="1.0"/>
<line x1="81.9" y1="179.5" x2="76.4" y2="179.5" stroke="rgb(0,0,0)"  stroke-width="1.0"/>
<line x1="82.5" y1="181.6" x2="75.8" y2="181.6" stroke="rgb(0,0,0)"  stroke-width="1.0"/>
<line x1="83.2" y1="183.7" x2="75.2" y2="183.7" stroke="rgb(0,0,0)"  stroke-width="1.0"/>
<line x1="66.2" y1="157.5" x2="53.0" y2="157.5" stroke="rgb(0,0,0)"  stroke-width="2.0"/>
<line x1="79.2" y1="144.5" x2="79.2" y2="131.3" stroke="rgb(0,0,0)"  stroke-width="2.0"/>
<line x1="79.2" y1="105.3" x2="79.2" y2="92.2" stroke="rgb(0,0,0)"  stroke-width="2.0"/>
<line x1="63.6" y1="80.0" x2="63.6" y2="78.4" stroke="rgb(0,0,0)"  stroke-width="1.0"/>
<line x1="61.4" y1="80.6" x2="61.4" y2="77.7" stroke="rgb(0,0,0)"  stroke-width="1.0"/>
<line x1="59.3" y1="81.2" x2="59.3" y2="77.1" stroke="rgb(0,0,0)"  stroke-width="1.0"/>
<line x1="57.2" y1="81.9" x2="57.2" y2="76.4" stroke="rgb(0,0,0)"  stroke-width="1.0"/>
<line x1="55.1" y1="82.5" x2="55.1" y2="75.8" stroke="rgb(0,0,0)"  stroke-width="1.0"/>
<line x1="52.9" y1="83.2" x2="52.9" y2="75.2" stroke="rgb(0,0,0)"  stroke-width="1.0"/>
<line x1="79.2" y1="66.2" x2="79.2" y2="53.0" stroke="rgb(0,0,0)"  stroke-width="2.0"/>
<line x1="92.2" y1="79.2" x2="105.3" y2="79.2" stroke="rgb(0,0,0)"  stroke-width="2.0"/>
<line x1="131.3" y1="79.2" x2="144.5" y2="79.2" stroke="rgb(0,0,0)"  stroke-width="2.0"/>
<line x1="156.7" y1="63.6" x2="158.3" y2="63.6" stroke="rgb(0,0,0)"  stroke-width="1.0"/>
<line x1="156.1" y1="61.4" x2="158.9" y2="61.4" stroke="rgb(0,0,0)"  stroke-width="1.0"/>
<line x1="155.4" y1="59.3" x2="159.6" y2="59.3" stroke="rgb(0,0,0)"  stroke-width="1.0"/>
<line x1="154.8" y1="57.2" x2="160.2" y2="57.2" stroke="rgb(0,0,0)"  stroke-width="1.0"/>
<line x1="154.1" y1="55.1" x2="160.9" y2="55.1" stroke="rgb(0,0,0)"  stroke-width="1.0"/>
<line x1="153.5" y1="52.9" x2="161.5" y2="52.9" stroke="rgb(0,0,0)"  stroke-width="1.0"/>
<line x1="170.5" y1="79.2" x2="183.7" y2="79.2" stroke="rgb(0,0,0)"  stroke-width="2.0"/>
<line x1="157.5" y1="92.2" x2="157.5" y2="105.3" stroke="rgb(0,0,0)"  stroke-width="2.0"/>
<line x1="203.2" y1="67.9" x2="209.8" y2="56.5" stroke="rgb(0,0,0)"  stroke-width="2.0"/>
<line x1="209.5" y1="128.6" x2="218.3" y2="118.8" stroke="rgb(0,0,0)"  stroke-width="2.0"/>
<line x1="269.4" y1="168.6" x2="268.0" y2="155.6" stroke="rgb(0,0,0)"  stroke-width="2.0"/>
<line x1="386.4" y1="149.2" x2="398.7" y2="144.5" stroke="rgb(0,0,0)"  stroke-width="2.0"/>
<line x1="364.2" y1="145.7" x2="354.0" y2="137.4" stroke="rgb(0,0,0)"  stroke-width="2.0"/>
<line x1="355.9" y1="269.9" x2="325.5" y2="245.3" stroke="rgb(0,0,0)"  stroke-width="2.0"/>
<line x1="346.7" y1="271.7" x2="325.6" y2="254.6" stroke="rgb(0,0,0)"  stroke-width="2.0"/>
<line x1="325.5" y1="245.3" x2="303.5" y2="259.5" stroke="rgb(0,0,0)"  stroke-width="2.0"/>
<line x1="296.0" y1="279.1" x2="302.8" y2="304.4" stroke="rgb(0,0,0)"  stroke-width="2.0"/>
<line x1="302.8" y1="304.4" x2="329.0" y2="305.8" stroke="rgb(0,0,0)"  stroke-width="2.0"/>
<line x1="309.1" y1="297.5" x2="327.3" y2="298.5" stroke="rgb(0,0,0)"  stroke-width="2.0"/>
<line x1="346.5" y1="294.3" x2="355.9" y2="269.9" stroke="rgb(0,0,0)"  stroke-width="2.0"/>
<line x1="368.2" y1="192.5" x2="343.7" y2="201.9" stroke="rgb(0,0,0)"  stroke-width="2.0"/>
<line x1="365.1" y1="201.4" x2="348.2" y2="207.9" stroke="rgb(0,0,0)"  stroke-width="2.0"/>
<line x1="329.6" y1="219.4" x2="325.5" y2="245.3" stroke="rgb(0,0,0)"  stroke-width="2.0"/>
<line x1="355.9" y1="269.9" x2="392.5" y2="255.9" stroke="rgb(0,0,0)"  stroke-width="2.0"/>
<line x1="392.5" y1="255.9" x2="396.6" y2="230.0" stroke="rgb(0,0,0)"  stroke-width="2.0"/>
<line x1="388.5" y1="209.0" x2="368.2" y2="192.5" stroke="rgb(0,0,0)"  stroke-width="2.0"/>
<line x1="212.9" y1="175.5" x2="177.1" y2="191.4" stroke="rgb(0,0,0)"  stroke-width="2.0"/>
<line x1="177.1" y1="191.4" x2="179.8" y2="217.4" stroke="rgb(0,0,0)"  stroke-width="2.0"/>
<line x1="193.9" y1="233.1" x2="219.5" y2="238.5" stroke="rgb(0,0,0)"  stroke-width="2.0"/>
<line x1="219.5" y1="238.5" x2="239.1" y2="204.6" stroke="rgb(0,0,0)"  stroke-width="2.0"/>
<line x1="239.1" y1="204.6" x2="212.9" y2="175.5" stroke="rgb(0,0,0)"  stroke-width="2.0"/>
<text x="194.760698" y="146.239096" fill="rgb(255,12,12)"  stroke="rgb(255,12,12)" stroke-width="1" font-size="16" >O</text>
<text x="73.166667" y="204.666667" fill="rgb(255,12,12)"  stroke="rgb(255,12,12)" stroke-width="1" font-size="16" >O</text>
<text x="22.000000" y="165.500000" fill="rgb(255,12,12)"  stroke="rgb(255,12,12)" stroke-width="1" font-size="16" >HO</text>
<text x="73.166667" y="126.333333" fill="rgb(255,12,12)"  stroke="rgb(255,12,12)" stroke-width="1" font-size="16" >O</text>
<text x="73.166667" y="87.166667" fill="rgb(255,127,0)"  stroke="rgb(255,127,0)" stroke-width="1" font-size="16" >P</text>
<text x="34.000000" y="87.166667" fill="rgb(255,12,12)"  stroke="rgb(255,12,12)" stroke-width="1" font-size="16" >O</text>
<text x="73.166667" y="48.000000" fill="rgb(255,12,12)"  stroke="rgb(255,12,12)" stroke-width="1" font-size="16" >OH</text>
<text x="112.333333" y="87.166667" fill="rgb(255,12,12)"  stroke="rgb(255,12,12)" stroke-width="1" font-size="16" >O</text>
<text x="151.500000" y="87.166667" fill="rgb(255,127,0)"  stroke="rgb(255,127,0)" stroke-width="1" font-size="16" >P</text>
<text x="151.500000" y="48.000000" fill="rgb(255,12,12)"  stroke="rgb(255,12,12)" stroke-width="1" font-size="16" >O</text>
<text x="190.666667" y="87.166667" fill="rgb(255,12,12)"  stroke="rgb(255,12,12)" stroke-width="1" font-size="16" >O</text>
<text x="151.500000" y="126.333333" fill="rgb(255,12,12)"  stroke="rgb(255,12,12)" stroke-width="1" font-size="16" >OH</text>
<text x="73.166667" y="165.500000" fill="rgb(255,127,0)"  stroke="rgb(255,127,0)" stroke-width="1" font-size="16" >P</text>
<text x="264.757978" y="189.573726" fill="rgb(255,12,12)"  stroke="rgb(255,12,12)" stroke-width="1" font-size="16" >O</text>
<text x="368.285810" y="161.850106" fill="rgb(12,12,255)"  stroke="rgb(12,12,255)" stroke-width="1" font-size="16" >N</text>
<text x="272.107310" y="342.857112" fill="rgb(191,191,191)"  stroke="rgb(191,191,191)" stroke-width="1" font-size="16" >H</text>
<text x="97.997338" y="219.002662" fill="rgb(191,191,191)"  stroke="rgb(191,191,191)" stroke-width="1" font-size="16" >H</text>
<text x="131.916667" y="238.585995" fill="rgb(191,191,191)"  stroke="rgb(191,191,191)" stroke-width="1" font-size="16" >H</text>
<text x="220.968314" y="117.132591" fill="rgb(191,191,191)"  stroke="rgb(191,191,191)" stroke-width="1" font-size="16" >H</text>
<text x="260.663947" y="150.621619" fill="rgb(191,191,191)"  stroke="rgb(191,191,191)" stroke-width="1" font-size="16" >H</text>
<text x="404.851043" y="147.814028" fill="rgb(191,191,191)"  stroke="rgb(191,191,191)" stroke-width="1" font-size="16" >H</text>
<text x="337.847593" y="137.201724" fill="rgb(191,191,191)"  stroke="rgb(191,191,191)" stroke-width="1" font-size="16" >H</text>
<text x="210.250000" y="53.247338" fill="rgb(191,191,191)"  stroke="rgb(191,191,191)" stroke-width="1" font-size="16" >H</text>
<text x="335.868682" y="314.468720" fill="rgb(12,12,255)"  stroke="rgb(12,12,255)" stroke-width="1" font-size="16" >N</text>
<text x="416.908210" y="288.515790" fill="rgb(255,12,12)"  stroke="rgb(255,12,12)" stroke-width="1" font-size="16" >O</text>
<text x="392.597010" y="225.182948" fill="rgb(12,12,255)"  stroke="rgb(12,12,255)" stroke-width="1" font-size="16" >N</text>
<text x="429.162243" y="211.146870" fill="rgb(191,191,191)"  stroke="rgb(191,191,191)" stroke-width="1" font-size="16" >H</text>
<text x="325.593560" y="214.570644" fill="rgb(12,12,255)"  stroke="rgb(12,12,255)" stroke-width="1" font-size="16" >N</text>
<text x="286.618613" y="274.586800" fill="rgb(12,12,255)"  stroke="rgb(12,12,255)" stroke-width="1" font-size="16" >N</text>
<text x="192.458201" y="279.556574" fill="rgb(191,191,191)"  stroke="rgb(191,191,191)" stroke-width="1" font-size="16" >H</text>
<text x="268.852010" y="228.525834" fill="rgb(191,191,191)"  stroke="rgb(191,191,191)" stroke-width="1" font-size="16" >H</text>
<text x="233.071479" y="154.382304" fill="rgb(191,191,191)"  stroke="rgb(191,191,191)" stroke-width="1" font-size="16" >H</text>
<text x="151.500000" y="165.500000" fill="rgb(191,191,191)"  stroke="rgb(191,191,191)" stroke-width="1" font-size="16" >H</text>
<text x="175.177365" y="238.371436" fill="rgb(255,12,12)"  stroke="rgb(255,12,12)" stroke-width="1" font-size="16" >O</text>
<text x="112.333333" y="165.500000" fill="rgb(255,12,12)"  stroke="rgb(255,12,12)" stroke-width="1" font-size="16" >O</text>
</svg>
</g>
<text font-size="18.000000" fill ="black" font-family="sans-serif"
x="10.000000" y="20.000000" >ZINC12402869</text>
</svg>
