<?xml version="1.0"?>
<svg version="1.1" id="topsvg"
xmlns="http://www.w3.org/2000/svg" xmlns:xlink="http://www.w3.org/1999/xlink"
xmlns:cml="http://www.xml-cml.org/schema" x="0" y="0" width="200px" height="200px" viewBox="0 0 100 100">
<title>ZINC19798333 - Open Babel Depiction</title>
<rect x="0" y="0" width="100" height="100" fill="white"/>
<g transform="translate(0,0)">
<svg width="100" height="100" x="0" y="0" viewBox="0 0 409.835 256.961"
font-family="sans-serif" stroke="rgb(0,0,0)" stroke-width="2"  stroke-linecap="round">
<line x1="279.8" y1="76.5" x2="306.5" y2="103.3" stroke="rgb(0,0,0)"  stroke-width="2.0"/>
<line x1="279.8" y1="76.5" x2="255.8" y2="70.1" stroke="rgb(0,0,0)"  stroke-width="2.0"/>
<line x1="279.8" y1="76.5" x2="262.2" y2="94.1" stroke="rgb(0,0,0)"  stroke-width="2.0"/>
<line x1="279.8" y1="76.5" x2="286.2" y2="52.6" stroke="rgb(0,0,0)"  stroke-width="2.0"/>
<line x1="306.5" y1="103.3" x2="333.3" y2="76.5" stroke="rgb(0,0,0)"  stroke-width="2.0"/>
<line x1="306.5" y1="103.3" x2="333.3" y2="130.1" stroke="rgb(0,0,0)"  stroke-width="2.0"/>
<line x1="306.5" y1="103.3" x2="289.0" y2="120.9" stroke="rgb(0,0,0)"  stroke-width="2.0"/>
<line x1="333.3" y1="76.5" x2="357.3" y2="70.1" stroke="rgb(0,0,0)"  stroke-width="2.0"/>
<line x1="333.3" y1="76.5" x2="350.8" y2="94.1" stroke="rgb(0,0,0)"  stroke-width="2.0"/>
<line x1="333.3" y1="76.5" x2="326.9" y2="52.6" stroke="rgb(0,0,0)"  stroke-width="2.0"/>
<line x1="333.3" y1="130.1" x2="339.7" y2="154.1" stroke="rgb(0,0,0)"  stroke-width="2.0"/>
<line x1="333.3" y1="130.1" x2="315.7" y2="147.6" stroke="rgb(0,0,0)"  stroke-width="2.0"/>
<line x1="333.3" y1="130.1" x2="357.3" y2="123.6" stroke="rgb(0,0,0)"  stroke-width="2.0"/>
<line x1="267.2" y1="126.7" x2="243.2" y2="120.3" stroke="rgb(0,0,0)"  stroke-width="2.0"/>
<line x1="240.3" y1="121.0" x2="233.9" y2="97.1" stroke="rgb(0,0,0)"  stroke-width="2.0"/>
<line x1="246.1" y1="119.5" x2="239.7" y2="95.5" stroke="rgb(0,0,0)"  stroke-width="2.0"/>
<line x1="243.2" y1="120.3" x2="216.5" y2="147.0" stroke="rgb(0,0,0)"  stroke-width="2.0"/>
<line x1="216.5" y1="147.0" x2="155.9" y2="130.8" stroke="rgb(0,0,0)"  stroke-width="2.0"/>
<line x1="216.5" y1="147.0" x2="210.0" y2="171.0" stroke="rgb(0,0,0)"  stroke-width="2.0"/>
<line x1="216.5" y1="147.0" x2="234.0" y2="164.6" stroke="rgb(0,0,0)"  stroke-width="2.0"/>
<line x1="141.7" y1="114.5" x2="135.2" y2="65.3" stroke="rgb(0,0,0)"  stroke-width="2.0"/>
<line x1="143.4" y1="165.3" x2="168.2" y2="165.3" stroke="rgb(0,0,0)"  stroke-width="2.0"/>
<line x1="143.4" y1="165.3" x2="155.8" y2="186.8" stroke="rgb(0,0,0)"  stroke-width="2.0"/>
<line x1="110.6" y1="184.2" x2="123.0" y2="205.7" stroke="rgb(0,0,0)"  stroke-width="2.0"/>
<line x1="110.6" y1="184.2" x2="98.2" y2="205.7" stroke="rgb(0,0,0)"  stroke-width="2.0"/>
<line x1="66.6" y1="171.8" x2="56.3" y2="177.7" stroke="rgb(0,0,0)"  stroke-width="2.0"/>
<line x1="77.8" y1="127.4" x2="53.0" y2="127.4" stroke="rgb(0,0,0)"  stroke-width="2.0"/>
<line x1="77.8" y1="127.4" x2="65.4" y2="105.9" stroke="rgb(0,0,0)"  stroke-width="2.0"/>
<line x1="110.6" y1="108.5" x2="98.2" y2="87.0" stroke="rgb(0,0,0)"  stroke-width="2.0"/>
<line x1="110.6" y1="108.5" x2="123.0" y2="87.0" stroke="rgb(0,0,0)"  stroke-width="2.0"/>
<line x1="110.6" y1="184.2" x2="89.1" y2="171.8" stroke="rgb(0,0,0)"  stroke-width="2.0"/>
<line x1="77.8" y1="152.3" x2="77.8" y2="127.4" stroke="rgb(0,0,0)"  stroke-width="2.0"/>
<line x1="77.8" y1="127.4" x2="110.6" y2="108.5" stroke="rgb(0,0,0)"  stroke-width="2.0"/>
<line x1="110.6" y1="108.5" x2="132.1" y2="120.9" stroke="rgb(0,0,0)"  stroke-width="2.0"/>
<line x1="143.4" y1="140.4" x2="143.4" y2="165.3" stroke="rgb(0,0,0)"  stroke-width="2.0"/>
<line x1="143.4" y1="165.3" x2="110.6" y2="184.2" stroke="rgb(0,0,0)"  stroke-width="2.0"/>
<text x="156.293814" y="206.041627" fill="rgb(191,191,191)"  stroke="rgb(191,191,191)" stroke-width="1" font-size="16" >H</text>
<text x="354.042097" y="111.303936" fill="rgb(191,191,191)"  stroke="rgb(191,191,191)" stroke-width="1" font-size="16" >H</text>
<text x="317.493552" y="48.000000" fill="rgb(191,191,191)"  stroke="rgb(191,191,191)" stroke-width="1" font-size="16" >H</text>
<text x="337.079858" y="174.607873" fill="rgb(191,191,191)"  stroke="rgb(191,191,191)" stroke-width="1" font-size="16" >H</text>
<text x="300.531313" y="164.814720" fill="rgb(191,191,191)"  stroke="rgb(191,191,191)" stroke-width="1" font-size="16" >H</text>
<text x="363.835250" y="128.266175" fill="rgb(191,191,191)"  stroke="rgb(191,191,191)" stroke-width="1" font-size="16" >H</text>
<text x="200.678832" y="191.570112" fill="rgb(191,191,191)"  stroke="rgb(191,191,191)" stroke-width="1" font-size="16" >H</text>
<text x="237.227377" y="181.776959" fill="rgb(191,191,191)"  stroke="rgb(191,191,191)" stroke-width="1" font-size="16" >H</text>
<text x="175.212733" y="173.273099" fill="rgb(191,191,191)"  stroke="rgb(191,191,191)" stroke-width="1" font-size="16" >H</text>
<text x="363.835250" y="74.755392" fill="rgb(191,191,191)"  stroke="rgb(191,191,191)" stroke-width="1" font-size="16" >H</text>
<text x="123.525286" y="224.960546" fill="rgb(191,191,191)"  stroke="rgb(191,191,191)" stroke-width="1" font-size="16" >H</text>
<text x="85.687448" y="224.960546" fill="rgb(191,191,191)"  stroke="rgb(191,191,191)" stroke-width="1" font-size="16" >H</text>
<text x="34.000000" y="135.435261" fill="rgb(191,191,191)"  stroke="rgb(191,191,191)" stroke-width="1" font-size="16" >H</text>
<text x="52.918919" y="102.666732" fill="rgb(191,191,191)"  stroke="rgb(191,191,191)" stroke-width="1" font-size="16" >H</text>
<text x="85.687448" y="83.747813" fill="rgb(191,191,191)"  stroke="rgb(191,191,191)" stroke-width="1" font-size="16" >H</text>
<text x="123.525286" y="83.747813" fill="rgb(191,191,191)"  stroke="rgb(191,191,191)" stroke-width="1" font-size="16" >H</text>
<text x="39.069309" y="192.192018" fill="rgb(191,191,191)"  stroke="rgb(191,191,191)" stroke-width="1" font-size="16" >H</text>
<text x="127.497238" y="60.407001" fill="rgb(191,191,191)"  stroke="rgb(191,191,191)" stroke-width="1" font-size="16" >H</text>
<text x="273.775921" y="138.059328" fill="rgb(255,12,12)"  stroke="rgb(255,12,12)" stroke-width="1" font-size="16" >O</text>
<text x="227.434224" y="91.717630" fill="rgb(255,12,12)"  stroke="rgb(255,12,12)" stroke-width="1" font-size="16" >O</text>
<text x="148.174895" y="123.403261" fill="rgb(12,12,255)"  stroke="rgb(12,12,255)" stroke-width="1" font-size="16" >+</text>
<text x="137.374895" y="135.435261" fill="rgb(12,12,255)"  stroke="rgb(12,12,255)" stroke-width="1" font-size="16" >N</text>
<text x="71.837838" y="173.273099" fill="rgb(12,12,255)"  stroke="rgb(12,12,255)" stroke-width="1" font-size="16" >N</text>
<text x="237.227377" y="74.755392" fill="rgb(191,191,191)"  stroke="rgb(191,191,191)" stroke-width="1" font-size="16" >H</text>
<text x="247.020530" y="111.303936" fill="rgb(191,191,191)"  stroke="rgb(191,191,191)" stroke-width="1" font-size="16" >H</text>
<text x="283.569075" y="48.000000" fill="rgb(191,191,191)"  stroke="rgb(191,191,191)" stroke-width="1" font-size="16" >H</text>
</svg>
</g>
<text font-size="18.000000" fill ="black" font-family="sans-serif"
x="10.000000" y="20.000000" >ZINC19798333</text>
</svg>
