<?xml version="1.0"?>
<svg version="1.1" id="topsvg"
xmlns="http://www.w3.org/2000/svg" xmlns:xlink="http://www.w3.org/1999/xlink"
xmlns:cml="http://www.xml-cml.org/schema" x="0" y="0" width="200px" height="200px" viewBox="0 0 100 100">
<title>ZINC19688349 - Open Babel Depiction</title>
<rect x="0" y="0" width="100" height="100" fill="white"/>
<g transform="translate(0,0)">
<svg width="100" height="100" x="0" y="0" viewBox="0 0 265.348 335.174"
font-family="sans-serif" stroke="rgb(0,0,0)" stroke-width="2"  stroke-linecap="round">
<line x1="189.2" y1="259.0" x2="162.7" y2="232.6" stroke="rgb(0,0,0)"  stroke-width="2.0"/>
<line x1="189.2" y1="259.0" x2="212.8" y2="265.3" stroke="rgb(0,0,0)"  stroke-width="2.0"/>
<line x1="189.2" y1="259.0" x2="206.5" y2="241.8" stroke="rgb(0,0,0)"  stroke-width="2.0"/>
<line x1="189.2" y1="259.0" x2="182.9" y2="282.6" stroke="rgb(0,0,0)"  stroke-width="2.0"/>
<line x1="162.7" y1="232.6" x2="136.3" y2="259.0" stroke="rgb(0,0,0)"  stroke-width="2.0"/>
<line x1="162.7" y1="232.6" x2="119.0" y2="188.8" stroke="rgb(0,0,0)"  stroke-width="2.0"/>
<line x1="162.7" y1="232.6" x2="180.0" y2="215.3" stroke="rgb(0,0,0)"  stroke-width="2.0"/>
<line x1="136.3" y1="259.0" x2="130.0" y2="282.6" stroke="rgb(0,0,0)"  stroke-width="2.0"/>
<line x1="136.3" y1="259.0" x2="153.6" y2="276.3" stroke="rgb(0,0,0)"  stroke-width="2.0"/>
<line x1="136.3" y1="259.0" x2="112.7" y2="252.7" stroke="rgb(0,0,0)"  stroke-width="2.0"/>
<polygon points="98.417045 184.376457 88.193646 192.940696 85.132179 185.549659 " stroke-width="2.000000" fill="rgb(0,0,0)"  stroke="rgb(0,0,0)" />
<line x1="142.2" y1="160.9" x2="154.4" y2="182.1" stroke="rgb(0,0,0)"  stroke-width="2.0"/>
<line x1="142.2" y1="160.9" x2="166.7" y2="160.9" stroke="rgb(0,0,0)"  stroke-width="2.0"/>
<line x1="142.2" y1="123.5" x2="166.7" y2="123.5" stroke="rgb(0,0,0)"  stroke-width="2.0"/>
<line x1="142.2" y1="123.5" x2="154.4" y2="102.4" stroke="rgb(0,0,0)"  stroke-width="2.0"/>
<line x1="109.8" y1="104.8" x2="122.0" y2="83.7" stroke="rgb(0,0,0)"  stroke-width="2.0"/>
<line x1="106.6" y1="100.9" x2="108.0" y2="100.1" stroke="rgb(0,0,0)"  stroke-width="1.0"/>
<line x1="104.1" y1="97.7" x2="106.6" y2="96.3" stroke="rgb(0,0,0)"  stroke-width="1.0"/>
<line x1="101.5" y1="94.6" x2="105.1" y2="92.5" stroke="rgb(0,0,0)"  stroke-width="1.0"/>
<line x1="98.9" y1="91.4" x2="103.7" y2="88.7" stroke="rgb(0,0,0)"  stroke-width="1.0"/>
<line x1="96.4" y1="88.3" x2="102.2" y2="84.9" stroke="rgb(0,0,0)"  stroke-width="1.0"/>
<line x1="93.8" y1="85.1" x2="100.8" y2="81.1" stroke="rgb(0,0,0)"  stroke-width="1.0"/>
<line x1="77.4" y1="123.5" x2="65.2" y2="102.4" stroke="rgb(0,0,0)"  stroke-width="2.0"/>
<line x1="77.4" y1="123.5" x2="53.0" y2="123.5" stroke="rgb(0,0,0)"  stroke-width="2.0"/>
<line x1="77.4" y1="160.9" x2="53.0" y2="160.9" stroke="rgb(0,0,0)"  stroke-width="2.0"/>
<line x1="77.4" y1="160.9" x2="46.5" y2="214.5" stroke="rgb(0,0,0)"  stroke-width="2.0"/>
<line x1="141.5" y1="72.4" x2="153.0" y2="72.4" stroke="rgb(0,0,0)"  stroke-width="2.0"/>
<line x1="122.0" y1="61.1" x2="116.3" y2="51.3" stroke="rgb(0,0,0)"  stroke-width="2.0"/>
<line x1="142.2" y1="123.5" x2="109.8" y2="104.8" stroke="rgb(0,0,0)"  stroke-width="2.0"/>
<line x1="109.8" y1="104.8" x2="77.4" y2="123.5" stroke="rgb(0,0,0)"  stroke-width="2.0"/>
<line x1="77.4" y1="123.5" x2="77.4" y2="160.9" stroke="rgb(0,0,0)"  stroke-width="2.0"/>
<line x1="77.4" y1="160.9" x2="98.6" y2="173.2" stroke="rgb(0,0,0)"  stroke-width="2.0"/>
<line x1="121.1" y1="173.2" x2="142.2" y2="160.9" stroke="rgb(0,0,0)"  stroke-width="2.0"/>
<line x1="142.2" y1="160.9" x2="142.2" y2="123.5" stroke="rgb(0,0,0)"  stroke-width="2.0"/>
<text x="120.600105" y="303.173693" fill="rgb(191,191,191)"  stroke="rgb(191,191,191)" stroke-width="1" font-size="16" >H</text>
<text x="69.254491" y="201.970701" fill="rgb(191,191,191)"  stroke="rgb(191,191,191)" stroke-width="1" font-size="16" >H</text>
<text x="103.825467" y="48.000000" fill="rgb(191,191,191)"  stroke="rgb(191,191,191)" stroke-width="1" font-size="16" >H</text>
<text x="159.954499" y="80.406112" fill="rgb(191,191,191)"  stroke="rgb(191,191,191)" stroke-width="1" font-size="16" >H</text>
<text x="34.000000" y="233.753480" fill="rgb(191,191,191)"  stroke="rgb(191,191,191)" stroke-width="1" font-size="16" >H</text>
<text x="34.000000" y="168.941256" fill="rgb(191,191,191)"  stroke="rgb(191,191,191)" stroke-width="1" font-size="16" >H</text>
<text x="34.000000" y="131.521901" fill="rgb(191,191,191)"  stroke="rgb(191,191,191)" stroke-width="1" font-size="16" >H</text>
<text x="52.709677" y="99.115789" fill="rgb(191,191,191)"  stroke="rgb(191,191,191)" stroke-width="1" font-size="16" >H</text>
<text x="85.115789" y="80.406112" fill="rgb(191,191,191)"  stroke="rgb(191,191,191)" stroke-width="1" font-size="16" >H</text>
<text x="154.941256" y="99.115789" fill="rgb(191,191,191)"  stroke="rgb(191,191,191)" stroke-width="1" font-size="16" >H</text>
<text x="173.650933" y="131.521901" fill="rgb(191,191,191)"  stroke="rgb(191,191,191)" stroke-width="1" font-size="16" >H</text>
<text x="173.650933" y="168.941256" fill="rgb(191,191,191)"  stroke="rgb(191,191,191)" stroke-width="1" font-size="16" >H</text>
<text x="154.941256" y="201.347368" fill="rgb(191,191,191)"  stroke="rgb(191,191,191)" stroke-width="1" font-size="16" >H</text>
<text x="94.140625" y="257.344530" fill="rgb(191,191,191)"  stroke="rgb(191,191,191)" stroke-width="1" font-size="16" >H</text>
<text x="156.744426" y="293.488852" fill="rgb(191,191,191)"  stroke="rgb(191,191,191)" stroke-width="1" font-size="16" >H</text>
<text x="183.203905" y="214.110413" fill="rgb(191,191,191)"  stroke="rgb(191,191,191)" stroke-width="1" font-size="16" >H</text>
<text x="173.519064" y="303.173693" fill="rgb(191,191,191)"  stroke="rgb(191,191,191)" stroke-width="1" font-size="16" >H</text>
<text x="209.663385" y="240.569893" fill="rgb(191,191,191)"  stroke="rgb(191,191,191)" stroke-width="1" font-size="16" >H</text>
<text x="219.348227" y="276.714214" fill="rgb(191,191,191)"  stroke="rgb(191,191,191)" stroke-width="1" font-size="16" >H</text>
<text x="122.535144" y="80.406112" fill="rgb(12,12,255)"  stroke="rgb(12,12,255)" stroke-width="1" font-size="16" >N</text>
<text x="114.625467" y="175.618933" fill="rgb(12,12,255)"  stroke="rgb(12,12,255)" stroke-width="1" font-size="16" >+</text>
<text x="103.825467" y="187.650933" fill="rgb(12,12,255)"  stroke="rgb(12,12,255)" stroke-width="1" font-size="16" >N</text>
</svg>
</g>
<text font-size="18.000000" fill ="black" font-family="sans-serif"
x="10.000000" y="20.000000" >ZINC19688349</text>
</svg>
