<?xml version="1.0"?>
<svg version="1.1" id="topsvg"
xmlns="http://www.w3.org/2000/svg" xmlns:xlink="http://www.w3.org/1999/xlink"
xmlns:cml="http://www.xml-cml.org/schema" x="0" y="0" width="200px" height="200px" viewBox="0 0 100 100">
<title>ZINC24708103 - Open Babel Depiction</title>
<rect x="0" y="0" width="100" height="100" fill="white"/>
<g transform="translate(0,0)">
<svg width="100" height="100" x="0" y="0" viewBox="0 0 560 529.282"
font-family="sans-serif" stroke="rgb(0,0,0)" stroke-width="2"  stroke-linecap="round">
<line x1="420.0" y1="200.0" x2="400.0" y2="234.6" stroke="rgb(0,0,0)"  stroke-width="2.0"/>
<line x1="420.0" y1="200.0" x2="460.0" y2="200.0" stroke="rgb(0,0,0)"  stroke-width="2.0"/>
<line x1="420.0" y1="200.0" x2="420.0" y2="173.0" stroke="rgb(0,0,0)"  stroke-width="2.0"/>
<line x1="420.0" y1="200.0" x2="396.6" y2="186.5" stroke="rgb(0,0,0)"  stroke-width="2.0"/>
<line x1="400.0" y1="234.6" x2="360.0" y2="234.6" stroke="rgb(0,0,0)"  stroke-width="2.0"/>
<line x1="400.0" y1="234.6" x2="400.0" y2="261.6" stroke="rgb(0,0,0)"  stroke-width="2.0"/>
<line x1="400.0" y1="234.6" x2="423.4" y2="248.1" stroke="rgb(0,0,0)"  stroke-width="2.0"/>
<line x1="362.6" y1="236.1" x2="349.1" y2="259.5" stroke="rgb(0,0,0)"  stroke-width="2.0"/>
<line x1="357.4" y1="233.1" x2="343.9" y2="256.5" stroke="rgb(0,0,0)"  stroke-width="2.0"/>
<line x1="360.0" y1="234.6" x2="346.5" y2="211.3" stroke="rgb(0,0,0)"  stroke-width="2.0"/>
<line x1="327.0" y1="200.0" x2="300.0" y2="200.0" stroke="rgb(0,0,0)"  stroke-width="2.0"/>
<line x1="346.5" y1="188.7" x2="353.5" y2="176.6" stroke="rgb(0,0,0)"  stroke-width="2.0"/>
<line x1="300.8" y1="205.4" x2="299.2" y2="205.4" stroke="rgb(0,0,0)"  stroke-width="1.0"/>
<line x1="301.4" y1="209.6" x2="298.6" y2="209.6" stroke="rgb(0,0,0)"  stroke-width="1.0"/>
<line x1="302.1" y1="213.9" x2="297.9" y2="213.9" stroke="rgb(0,0,0)"  stroke-width="1.0"/>
<line x1="302.7" y1="218.2" x2="297.3" y2="218.2" stroke="rgb(0,0,0)"  stroke-width="1.0"/>
<line x1="303.4" y1="222.5" x2="296.6" y2="222.5" stroke="rgb(0,0,0)"  stroke-width="1.0"/>
<line x1="304.0" y1="226.8" x2="296.0" y2="226.8" stroke="rgb(0,0,0)"  stroke-width="1.0"/>
<line x1="300.0" y1="200.0" x2="260.0" y2="200.0" stroke="rgb(0,0,0)"  stroke-width="2.0"/>
<line x1="300.0" y1="200.0" x2="300.0" y2="160.0" stroke="rgb(0,0,0)"  stroke-width="2.0"/>
<line x1="260.0" y1="200.0" x2="246.5" y2="223.4" stroke="rgb(0,0,0)"  stroke-width="2.0"/>
<line x1="260.0" y1="200.0" x2="236.6" y2="186.5" stroke="rgb(0,0,0)"  stroke-width="2.0"/>
<line x1="260.0" y1="200.0" x2="260.0" y2="173.0" stroke="rgb(0,0,0)"  stroke-width="2.0"/>
<line x1="227.0" y1="234.6" x2="213.0" y2="234.6" stroke="rgb(0,0,0)"  stroke-width="2.0"/>
<line x1="193.5" y1="245.9" x2="180.0" y2="269.3" stroke="rgb(0,0,0)"  stroke-width="2.0"/>
<line x1="180.0" y1="269.3" x2="140.0" y2="269.3" stroke="rgb(0,0,0)"  stroke-width="2.0"/>
<line x1="180.0" y1="269.3" x2="180.0" y2="296.3" stroke="rgb(0,0,0)"  stroke-width="2.0"/>
<line x1="180.0" y1="269.3" x2="203.4" y2="282.8" stroke="rgb(0,0,0)"  stroke-width="2.0"/>
<polygon points="140.000000 269.282032 136.000000 242.482032 144.000000 242.482032 " stroke-width="2.000000" fill="rgb(0,0,0)"  stroke="rgb(0,0,0)" />
<line x1="140.0" y1="269.3" x2="100.0" y2="269.3" stroke="rgb(0,0,0)"  stroke-width="2.0"/>
<line x1="140.0" y1="269.3" x2="140.0" y2="296.3" stroke="rgb(0,0,0)"  stroke-width="2.0"/>
<line x1="102.6" y1="270.8" x2="89.1" y2="294.2" stroke="rgb(0,0,0)"  stroke-width="2.0"/>
<line x1="97.4" y1="267.8" x2="83.9" y2="291.2" stroke="rgb(0,0,0)"  stroke-width="2.0"/>
<line x1="100.0" y1="269.3" x2="86.5" y2="245.9" stroke="rgb(0,0,0)"  stroke-width="2.0"/>
<line x1="86.5" y1="223.4" x2="100.0" y2="200.0" stroke="rgb(0,0,0)"  stroke-width="2.0"/>
<line x1="67.0" y1="234.6" x2="53.0" y2="234.6" stroke="rgb(0,0,0)"  stroke-width="2.0"/>
<line x1="100.0" y1="200.0" x2="140.0" y2="200.0" stroke="rgb(0,0,0)"  stroke-width="2.0"/>
<line x1="100.0" y1="200.0" x2="100.0" y2="173.0" stroke="rgb(0,0,0)"  stroke-width="2.0"/>
<line x1="100.0" y1="200.0" x2="76.6" y2="186.5" stroke="rgb(0,0,0)"  stroke-width="2.0"/>
<line x1="142.6" y1="198.5" x2="156.1" y2="221.9" stroke="rgb(0,0,0)"  stroke-width="2.0"/>
<line x1="137.4" y1="201.5" x2="150.9" y2="224.9" stroke="rgb(0,0,0)"  stroke-width="2.0"/>
<line x1="140.0" y1="200.0" x2="153.5" y2="176.6" stroke="rgb(0,0,0)"  stroke-width="2.0"/>
<line x1="151.3" y1="315.8" x2="174.6" y2="329.3" stroke="rgb(0,0,0)"  stroke-width="2.0"/>
<line x1="128.7" y1="315.8" x2="116.6" y2="322.8" stroke="rgb(0,0,0)"  stroke-width="2.0"/>
<line x1="173.1" y1="326.7" x2="196.5" y2="313.2" stroke="rgb(0,0,0)"  stroke-width="2.0"/>
<line x1="176.1" y1="331.9" x2="199.5" y2="318.4" stroke="rgb(0,0,0)"  stroke-width="2.0"/>
<line x1="174.6" y1="329.3" x2="174.6" y2="369.3" stroke="rgb(0,0,0)"  stroke-width="2.0"/>
<line x1="174.6" y1="369.3" x2="209.3" y2="389.3" stroke="rgb(0,0,0)"  stroke-width="2.0"/>
<line x1="174.6" y1="369.3" x2="161.1" y2="392.7" stroke="rgb(0,0,0)"  stroke-width="2.0"/>
<line x1="174.6" y1="369.3" x2="147.6" y2="369.3" stroke="rgb(0,0,0)"  stroke-width="2.0"/>
<line x1="209.3" y1="389.3" x2="209.3" y2="429.3" stroke="rgb(0,0,0)"  stroke-width="2.0"/>
<line x1="209.3" y1="389.3" x2="236.3" y2="389.3" stroke="rgb(0,0,0)"  stroke-width="2.0"/>
<line x1="209.3" y1="389.3" x2="222.8" y2="365.9" stroke="rgb(0,0,0)"  stroke-width="2.0"/>
<line x1="214.6" y1="428.5" x2="214.6" y2="430.1" stroke="rgb(0,0,0)"  stroke-width="1.0"/>
<line x1="218.9" y1="427.8" x2="218.9" y2="430.7" stroke="rgb(0,0,0)"  stroke-width="1.0"/>
<line x1="223.2" y1="427.2" x2="223.2" y2="431.4" stroke="rgb(0,0,0)"  stroke-width="1.0"/>
<line x1="227.5" y1="426.6" x2="227.5" y2="432.0" stroke="rgb(0,0,0)"  stroke-width="1.0"/>
<line x1="231.8" y1="425.9" x2="231.8" y2="432.6" stroke="rgb(0,0,0)"  stroke-width="1.0"/>
<line x1="236.1" y1="425.3" x2="236.1" y2="433.3" stroke="rgb(0,0,0)"  stroke-width="1.0"/>
<line x1="209.3" y1="429.3" x2="209.3" y2="469.3" stroke="rgb(0,0,0)"  stroke-width="2.0"/>
<line x1="209.3" y1="429.3" x2="182.3" y2="429.3" stroke="rgb(0,0,0)"  stroke-width="2.0"/>
<line x1="210.8" y1="466.7" x2="234.2" y2="480.2" stroke="rgb(0,0,0)"  stroke-width="2.0"/>
<line x1="207.8" y1="471.9" x2="231.2" y2="485.4" stroke="rgb(0,0,0)"  stroke-width="2.0"/>
<line x1="209.3" y1="469.3" x2="185.9" y2="482.8" stroke="rgb(0,0,0)"  stroke-width="2.0"/>
<line x1="169.3" y1="442.3" x2="169.3" y2="456.3" stroke="rgb(0,0,0)"  stroke-width="2.0"/>
<line x1="156.3" y1="429.3" x2="142.3" y2="429.3" stroke="rgb(0,0,0)"  stroke-width="2.0"/>
<line x1="169.3" y1="416.3" x2="169.3" y2="402.3" stroke="rgb(0,0,0)"  stroke-width="2.0"/>
<line x1="298.5" y1="157.4" x2="321.9" y2="143.9" stroke="rgb(0,0,0)"  stroke-width="2.0"/>
<line x1="301.5" y1="162.6" x2="324.9" y2="149.1" stroke="rgb(0,0,0)"  stroke-width="2.0"/>
<line x1="300.0" y1="160.0" x2="276.6" y2="146.5" stroke="rgb(0,0,0)"  stroke-width="2.0"/>
<line x1="265.4" y1="127.0" x2="265.4" y2="100.0" stroke="rgb(0,0,0)"  stroke-width="2.0"/>
<line x1="254.1" y1="146.5" x2="242.0" y2="153.5" stroke="rgb(0,0,0)"  stroke-width="2.0"/>
<line x1="265.4" y1="100.0" x2="230.7" y2="80.0" stroke="rgb(0,0,0)"  stroke-width="2.0"/>
<line x1="265.4" y1="100.0" x2="278.9" y2="76.6" stroke="rgb(0,0,0)"  stroke-width="2.0"/>
<line x1="265.4" y1="100.0" x2="292.4" y2="100.0" stroke="rgb(0,0,0)"  stroke-width="2.0"/>
<line x1="232.2" y1="82.6" x2="208.8" y2="96.1" stroke="rgb(0,0,0)"  stroke-width="2.0"/>
<line x1="229.2" y1="77.4" x2="205.8" y2="90.9" stroke="rgb(0,0,0)"  stroke-width="2.0"/>
<line x1="230.7" y1="80.0" x2="230.7" y2="53.0" stroke="rgb(0,0,0)"  stroke-width="2.0"/>
<line x1="459.2" y1="194.6" x2="460.8" y2="194.6" stroke="rgb(0,0,0)"  stroke-width="1.0"/>
<line x1="458.6" y1="190.4" x2="461.4" y2="190.4" stroke="rgb(0,0,0)"  stroke-width="1.0"/>
<line x1="457.9" y1="186.1" x2="462.1" y2="186.1" stroke="rgb(0,0,0)"  stroke-width="1.0"/>
<line x1="457.3" y1="181.8" x2="462.7" y2="181.8" stroke="rgb(0,0,0)"  stroke-width="1.0"/>
<line x1="456.6" y1="177.5" x2="463.4" y2="177.5" stroke="rgb(0,0,0)"  stroke-width="1.0"/>
<line x1="456.0" y1="173.2" x2="464.0" y2="173.2" stroke="rgb(0,0,0)"  stroke-width="1.0"/>
<line x1="460.0" y1="200.0" x2="500.0" y2="200.0" stroke="rgb(0,0,0)"  stroke-width="2.0"/>
<line x1="460.0" y1="200.0" x2="460.0" y2="227.0" stroke="rgb(0,0,0)"  stroke-width="2.0"/>
<line x1="497.4" y1="198.5" x2="510.9" y2="175.1" stroke="rgb(0,0,0)"  stroke-width="2.0"/>
<line x1="502.6" y1="201.5" x2="516.1" y2="178.1" stroke="rgb(0,0,0)"  stroke-width="2.0"/>
<line x1="500.0" y1="200.0" x2="513.5" y2="223.4" stroke="rgb(0,0,0)"  stroke-width="2.0"/>
<line x1="473.0" y1="240.0" x2="487.0" y2="240.0" stroke="rgb(0,0,0)"  stroke-width="2.0"/>
<line x1="460.0" y1="253.0" x2="460.0" y2="267.0" stroke="rgb(0,0,0)"  stroke-width="2.0"/>
<line x1="447.0" y1="240.0" x2="433.0" y2="240.0" stroke="rgb(0,0,0)"  stroke-width="2.0"/>
<text x="414.000000" y="168.000000" fill="rgb(191,191,191)"  stroke="rgb(191,191,191)" stroke-width="1" font-size="16" >H</text>
<text x="208.641016" y="297.282032" fill="rgb(191,191,191)"  stroke="rgb(191,191,191)" stroke-width="1" font-size="16" >H</text>
<text x="174.000000" y="317.282032" fill="rgb(191,191,191)"  stroke="rgb(191,191,191)" stroke-width="1" font-size="16" >H</text>
<text x="254.000000" y="168.000000" fill="rgb(191,191,191)"  stroke="rgb(191,191,191)" stroke-width="1" font-size="16" >H</text>
<text x="219.358984" y="188.000000" fill="rgb(191,191,191)"  stroke="rgb(191,191,191)" stroke-width="1" font-size="16" >H</text>
<text x="354.000000" y="173.358984" fill="rgb(191,191,191)"  stroke="rgb(191,191,191)" stroke-width="1" font-size="16" >H</text>
<text x="428.641016" y="262.641016" fill="rgb(191,191,191)"  stroke="rgb(191,191,191)" stroke-width="1" font-size="16" >H</text>
<text x="394.000000" y="282.641016" fill="rgb(191,191,191)"  stroke="rgb(191,191,191)" stroke-width="1" font-size="16" >H</text>
<text x="379.358984" y="188.000000" fill="rgb(191,191,191)"  stroke="rgb(191,191,191)" stroke-width="1" font-size="16" >H</text>
<text x="34.000000" y="242.641016" fill="rgb(191,191,191)"  stroke="rgb(191,191,191)" stroke-width="1" font-size="16" >H</text>
<text x="464.800000" y="235.968000" fill="rgb(12,12,255)"  stroke="rgb(12,12,255)" stroke-width="1" font-size="16" >+</text>
<text x="454.000000" y="248.000000" fill="rgb(12,12,255)"  stroke="rgb(12,12,255)" stroke-width="1" font-size="16" >N</text>
<text x="514.000000" y="242.641016" fill="rgb(255,12,12)"  stroke="rgb(255,12,12)" stroke-width="1" font-size="16" >OH</text>
<text x="514.000000" y="173.358984" fill="rgb(255,12,12)"  stroke="rgb(255,12,12)" stroke-width="1" font-size="16" >O</text>
<text x="454.000000" y="168.000000" fill="rgb(191,191,191)"  stroke="rgb(191,191,191)" stroke-width="1" font-size="16" >H</text>
<text x="224.717968" y="48.000000" fill="rgb(255,12,12)"  stroke="rgb(255,12,12)" stroke-width="1" font-size="16" >OH</text>
<text x="190.076952" y="108.000000" fill="rgb(255,12,12)"  stroke="rgb(255,12,12)" stroke-width="1" font-size="16" >O</text>
<text x="163.282032" y="477.282032" fill="rgb(191,191,191)"  stroke="rgb(191,191,191)" stroke-width="1" font-size="16" >H</text>
<text x="414.000000" y="248.000000" fill="rgb(191,191,191)"  stroke="rgb(191,191,191)" stroke-width="1" font-size="16" >H</text>
<text x="163.282032" y="397.282032" fill="rgb(191,191,191)"  stroke="rgb(191,191,191)" stroke-width="1" font-size="16" >H</text>
<text x="454.000000" y="288.000000" fill="rgb(191,191,191)"  stroke="rgb(191,191,191)" stroke-width="1" font-size="16" >H</text>
<text x="494.000000" y="248.000000" fill="rgb(191,191,191)"  stroke="rgb(191,191,191)" stroke-width="1" font-size="16" >H</text>
<text x="299.358984" y="108.000000" fill="rgb(191,191,191)"  stroke="rgb(191,191,191)" stroke-width="1" font-size="16" >H</text>
<text x="279.358984" y="73.358984" fill="rgb(191,191,191)"  stroke="rgb(191,191,191)" stroke-width="1" font-size="16" >H</text>
<text x="224.717968" y="168.000000" fill="rgb(191,191,191)"  stroke="rgb(191,191,191)" stroke-width="1" font-size="16" >H</text>
<text x="123.282032" y="437.282032" fill="rgb(191,191,191)"  stroke="rgb(191,191,191)" stroke-width="1" font-size="16" >H</text>
<text x="223.282032" y="362.641016" fill="rgb(191,191,191)"  stroke="rgb(191,191,191)" stroke-width="1" font-size="16" >H</text>
<text x="243.282032" y="397.282032" fill="rgb(191,191,191)"  stroke="rgb(191,191,191)" stroke-width="1" font-size="16" >H</text>
<text x="128.641016" y="377.282032" fill="rgb(191,191,191)"  stroke="rgb(191,191,191)" stroke-width="1" font-size="16" >H</text>
<text x="148.641016" y="411.923048" fill="rgb(191,191,191)"  stroke="rgb(191,191,191)" stroke-width="1" font-size="16" >H</text>
<text x="99.358984" y="337.282032" fill="rgb(191,191,191)"  stroke="rgb(191,191,191)" stroke-width="1" font-size="16" >H</text>
<text x="59.358984" y="188.000000" fill="rgb(191,191,191)"  stroke="rgb(191,191,191)" stroke-width="1" font-size="16" >H</text>
<text x="94.000000" y="168.000000" fill="rgb(191,191,191)"  stroke="rgb(191,191,191)" stroke-width="1" font-size="16" >H</text>
<text x="194.000000" y="242.641016" fill="rgb(178,178,0)"  stroke="rgb(178,178,0)" stroke-width="1" font-size="16" >S</text>
<text x="74.000000" y="242.641016" fill="rgb(12,12,255)"  stroke="rgb(12,12,255)" stroke-width="1" font-size="16" >N</text>
<text x="74.000000" y="311.923048" fill="rgb(255,12,12)"  stroke="rgb(255,12,12)" stroke-width="1" font-size="16" >O</text>
<text x="134.000000" y="237.282032" fill="rgb(191,191,191)"  stroke="rgb(191,191,191)" stroke-width="1" font-size="16" >H</text>
<text x="154.000000" y="242.641016" fill="rgb(255,12,12)"  stroke="rgb(255,12,12)" stroke-width="1" font-size="16" >O</text>
<text x="234.000000" y="242.641016" fill="rgb(178,178,0)"  stroke="rgb(178,178,0)" stroke-width="1" font-size="16" >S</text>
<text x="294.000000" y="248.000000" fill="rgb(191,191,191)"  stroke="rgb(191,191,191)" stroke-width="1" font-size="16" >H</text>
<text x="334.000000" y="208.000000" fill="rgb(12,12,255)"  stroke="rgb(12,12,255)" stroke-width="1" font-size="16" >N</text>
<text x="334.000000" y="277.282032" fill="rgb(255,12,12)"  stroke="rgb(255,12,12)" stroke-width="1" font-size="16" >O</text>
<text x="243.282032" y="437.282032" fill="rgb(191,191,191)"  stroke="rgb(191,191,191)" stroke-width="1" font-size="16" >H</text>
<text x="259.358984" y="148.000000" fill="rgb(12,12,255)"  stroke="rgb(12,12,255)" stroke-width="1" font-size="16" >N</text>
<text x="328.641016" y="148.000000" fill="rgb(255,12,12)"  stroke="rgb(255,12,12)" stroke-width="1" font-size="16" >O</text>
<text x="174.082032" y="425.250032" fill="rgb(12,12,255)"  stroke="rgb(12,12,255)" stroke-width="1" font-size="16" >+</text>
<text x="163.282032" y="437.282032" fill="rgb(12,12,255)"  stroke="rgb(12,12,255)" stroke-width="1" font-size="16" >N</text>
<text x="156.641016" y="497.282032" fill="rgb(255,12,12)"  stroke="rgb(255,12,12)" stroke-width="1" font-size="16" >HO</text>
<text x="237.923048" y="497.282032" fill="rgb(255,12,12)"  stroke="rgb(255,12,12)" stroke-width="1" font-size="16" >O</text>
<text x="203.282032" y="317.282032" fill="rgb(255,12,12)"  stroke="rgb(255,12,12)" stroke-width="1" font-size="16" >O</text>
<text x="134.000000" y="317.282032" fill="rgb(12,12,255)"  stroke="rgb(12,12,255)" stroke-width="1" font-size="16" >N</text>
<text x="154.000000" y="173.358984" fill="rgb(255,12,12)"  stroke="rgb(255,12,12)" stroke-width="1" font-size="16" >OH</text>
</svg>
</g>
<text font-size="18.000000" fill ="black" font-family="sans-serif"
x="10.000000" y="20.000000" >ZINC24708103</text>
</svg>
