<?xml version="1.0"?>
<svg version="1.1" id="topsvg"
xmlns="http://www.w3.org/2000/svg" xmlns:xlink="http://www.w3.org/1999/xlink"
xmlns:cml="http://www.xml-cml.org/schema" x="0" y="0" width="200px" height="200px" viewBox="0 0 100 100">
<title>ZINC19942862 - Open Babel Depiction</title>
<rect x="0" y="0" width="100" height="100" fill="white"/>
<g transform="translate(0,0)">
<svg width="100" height="100" x="0" y="0" viewBox="0 0 343.247 349.501"
font-family="sans-serif" stroke="rgb(0,0,0)" stroke-width="2"  stroke-linecap="round">
<line x1="154.3" y1="108.4" x2="139.9" y2="88.6" stroke="rgb(0,0,0)"  stroke-width="2.0"/>
<line x1="154.3" y1="108.4" x2="179.5" y2="51.9" stroke="rgb(0,0,0)"  stroke-width="2.0"/>
<line x1="191.6" y1="104.5" x2="201.5" y2="82.2" stroke="rgb(0,0,0)"  stroke-width="2.0"/>
<line x1="191.6" y1="104.5" x2="177.2" y2="84.7" stroke="rgb(0,0,0)"  stroke-width="2.0"/>
<line x1="207.0" y1="146.1" x2="201.3" y2="156.0" stroke="rgb(0,0,0)"  stroke-width="2.0"/>
<line x1="221.2" y1="145.3" x2="227.9" y2="154.6" stroke="rgb(0,0,0)"  stroke-width="2.0"/>
<line x1="250.8" y1="138.8" x2="265.2" y2="119.0" stroke="rgb(0,0,0)"  stroke-width="2.0"/>
<line x1="250.8" y1="138.8" x2="275.1" y2="141.3" stroke="rgb(0,0,0)"  stroke-width="2.0"/>
<line x1="266.0" y1="173.0" x2="290.3" y2="175.5" stroke="rgb(0,0,0)"  stroke-width="2.0"/>
<line x1="266.0" y1="173.0" x2="275.9" y2="195.3" stroke="rgb(0,0,0)"  stroke-width="2.0"/>
<line x1="244.0" y1="203.2" x2="220.1" y2="198.1" stroke="rgb(0,0,0)"  stroke-width="2.0"/>
<line x1="244.0" y1="203.2" x2="229.6" y2="223.0" stroke="rgb(0,0,0)"  stroke-width="2.0"/>
<line x1="264.1" y1="243.9" x2="275.0" y2="247.4" stroke="rgb(0,0,0)"  stroke-width="2.0"/>
<line x1="223.9" y1="264.9" x2="229.0" y2="288.8" stroke="rgb(0,0,0)"  stroke-width="2.0"/>
<line x1="223.9" y1="264.9" x2="247.2" y2="272.5" stroke="rgb(0,0,0)"  stroke-width="2.0"/>
<line x1="188.3" y1="253.3" x2="185.7" y2="229.0" stroke="rgb(0,0,0)"  stroke-width="2.0"/>
<line x1="188.3" y1="253.3" x2="165.0" y2="245.8" stroke="rgb(0,0,0)"  stroke-width="2.0"/>
<line x1="155.9" y1="285.1" x2="155.9" y2="296.5" stroke="rgb(0,0,0)"  stroke-width="2.0"/>
<line x1="144.6" y1="278.6" x2="102.3" y2="303.0" stroke="rgb(0,0,0)"  stroke-width="2.0"/>
<line x1="123.5" y1="253.3" x2="102.3" y2="265.6" stroke="rgb(0,0,0)"  stroke-width="2.0"/>
<line x1="123.5" y1="253.3" x2="123.5" y2="277.8" stroke="rgb(0,0,0)"  stroke-width="2.0"/>
<line x1="123.4" y1="215.8" x2="145.8" y2="205.9" stroke="rgb(0,0,0)"  stroke-width="2.0"/>
<line x1="123.4" y1="215.8" x2="123.4" y2="191.4" stroke="rgb(0,0,0)"  stroke-width="2.0"/>
<line x1="95.6" y1="190.8" x2="72.4" y2="198.3" stroke="rgb(0,0,0)"  stroke-width="2.0"/>
<line x1="95.6" y1="190.8" x2="49.7" y2="149.3" stroke="rgb(0,0,0)"  stroke-width="2.0"/>
<line x1="93.8" y1="145.5" x2="85.3" y2="137.8" stroke="rgb(0,0,0)"  stroke-width="2.0"/>
<line x1="91.1" y1="158.2" x2="80.2" y2="161.7" stroke="rgb(0,0,0)"  stroke-width="2.0"/>
<line x1="139.0" y1="142.6" x2="155.4" y2="160.8" stroke="rgb(0,0,0)"  stroke-width="2.0"/>
<line x1="139.0" y1="142.6" x2="162.3" y2="135.1" stroke="rgb(0,0,0)"  stroke-width="2.0"/>
<line x1="226.5" y1="136.2" x2="250.8" y2="138.8" stroke="rgb(0,0,0)"  stroke-width="2.0"/>
<line x1="250.8" y1="138.8" x2="266.0" y2="173.0" stroke="rgb(0,0,0)"  stroke-width="2.0"/>
<line x1="266.0" y1="173.0" x2="244.0" y2="203.2" stroke="rgb(0,0,0)"  stroke-width="2.0"/>
<line x1="244.0" y1="203.2" x2="249.0" y2="227.2" stroke="rgb(0,0,0)"  stroke-width="2.0"/>
<line x1="242.1" y1="248.6" x2="223.9" y2="264.9" stroke="rgb(0,0,0)"  stroke-width="2.0"/>
<line x1="223.9" y1="264.9" x2="188.3" y2="253.3" stroke="rgb(0,0,0)"  stroke-width="2.0"/>
<line x1="188.3" y1="253.3" x2="167.1" y2="265.6" stroke="rgb(0,0,0)"  stroke-width="2.0"/>
<line x1="144.6" y1="265.6" x2="123.5" y2="253.3" stroke="rgb(0,0,0)"  stroke-width="2.0"/>
<line x1="123.5" y1="253.3" x2="123.4" y2="215.8" stroke="rgb(0,0,0)"  stroke-width="2.0"/>
<line x1="123.4" y1="215.8" x2="95.6" y2="190.8" stroke="rgb(0,0,0)"  stroke-width="2.0"/>
<line x1="95.6" y1="190.8" x2="100.7" y2="166.9" stroke="rgb(0,0,0)"  stroke-width="2.0"/>
<line x1="115.8" y1="150.2" x2="139.0" y2="142.6" stroke="rgb(0,0,0)"  stroke-width="2.0"/>
<line x1="139.0" y1="142.6" x2="154.3" y2="108.4" stroke="rgb(0,0,0)"  stroke-width="2.0"/>
<line x1="154.3" y1="108.4" x2="191.6" y2="104.5" stroke="rgb(0,0,0)"  stroke-width="2.0"/>
<line x1="191.6" y1="104.5" x2="205.9" y2="124.3" stroke="rgb(0,0,0)"  stroke-width="2.0"/>
<text x="117.460525" y="298.787232" fill="rgb(191,191,191)"  stroke="rgb(191,191,191)" stroke-width="1" font-size="16" >H</text>
<text x="275.223268" y="215.177605" fill="rgb(191,191,191)"  stroke="rgb(191,191,191)" stroke-width="1" font-size="16" >H</text>
<text x="201.338116" y="203.430903" fill="rgb(191,191,191)"  stroke="rgb(191,191,191)" stroke-width="1" font-size="16" >H</text>
<text x="215.919847" y="241.510518" fill="rgb(191,191,191)"  stroke="rgb(191,191,191)" stroke-width="1" font-size="16" >H</text>
<text x="281.354048" y="259.466382" fill="rgb(191,191,191)"  stroke="rgb(191,191,191)" stroke-width="1" font-size="16" >H</text>
<text x="225.673307" y="309.548748" fill="rgb(191,191,191)"  stroke="rgb(191,191,191)" stroke-width="1" font-size="16" >H</text>
<text x="253.514235" y="284.490970" fill="rgb(191,191,191)"  stroke="rgb(191,191,191)" stroke-width="1" font-size="16" >H</text>
<text x="178.377831" y="224.102067" fill="rgb(191,191,191)"  stroke="rgb(191,191,191)" stroke-width="1" font-size="16" >H</text>
<text x="146.674586" y="249.770651" fill="rgb(191,191,191)"  stroke="rgb(191,191,191)" stroke-width="1" font-size="16" >H</text>
<text x="149.865056" y="317.501353" fill="rgb(191,191,191)"  stroke="rgb(191,191,191)" stroke-width="1" font-size="16" >H</text>
<text x="85.021360" y="280.058407" fill="rgb(191,191,191)"  stroke="rgb(191,191,191)" stroke-width="1" font-size="16" >H</text>
<text x="297.246625" y="184.899631" fill="rgb(191,191,191)"  stroke="rgb(191,191,191)" stroke-width="1" font-size="16" >H</text>
<text x="151.660100" y="208.621018" fill="rgb(191,191,191)"  stroke="rgb(191,191,191)" stroke-width="1" font-size="16" >H</text>
<text x="117.442071" y="186.399541" fill="rgb(191,191,191)"  stroke="rgb(191,191,191)" stroke-width="1" font-size="16" >H</text>
<text x="54.009967" y="210.322632" fill="rgb(191,191,191)"  stroke="rgb(191,191,191)" stroke-width="1" font-size="16" >H</text>
<text x="34.000000" y="148.634412" fill="rgb(191,191,191)"  stroke="rgb(191,191,191)" stroke-width="1" font-size="16" >H</text>
<text x="69.630280" y="137.101569" fill="rgb(191,191,191)"  stroke="rgb(191,191,191)" stroke-width="1" font-size="16" >H</text>
<text x="158.093397" y="178.453127" fill="rgb(191,191,191)"  stroke="rgb(191,191,191)" stroke-width="1" font-size="16" >H</text>
<text x="168.664320" y="139.052935" fill="rgb(191,191,191)"  stroke="rgb(191,191,191)" stroke-width="1" font-size="16" >H</text>
<text x="229.530319" y="173.126406" fill="rgb(191,191,191)"  stroke="rgb(191,191,191)" stroke-width="1" font-size="16" >H</text>
<text x="85.002152" y="317.490512" fill="rgb(191,191,191)"  stroke="rgb(191,191,191)" stroke-width="1" font-size="16" >H</text>
<text x="61.829170" y="173.734375" fill="rgb(191,191,191)"  stroke="rgb(191,191,191)" stroke-width="1" font-size="16" >H</text>
<text x="218.336260" y="130.787232" fill="rgb(12,12,255)"  stroke="rgb(12,12,255)" stroke-width="1" font-size="16" >+</text>
<text x="207.536260" y="142.819232" fill="rgb(12,12,255)"  stroke="rgb(12,12,255)" stroke-width="1" font-size="16" >N</text>
<text x="245.744734" y="247.880175" fill="rgb(12,12,255)"  stroke="rgb(12,12,255)" stroke-width="1" font-size="16" >N</text>
<text x="160.668185" y="268.022545" fill="rgb(12,12,255)"  stroke="rgb(12,12,255)" stroke-width="1" font-size="16" >+</text>
<text x="149.868185" y="280.054545" fill="rgb(12,12,255)"  stroke="rgb(12,12,255)" stroke-width="1" font-size="16" >N</text>
<text x="108.246277" y="150.140145" fill="rgb(12,12,255)"  stroke="rgb(12,12,255)" stroke-width="1" font-size="16" >+</text>
<text x="97.446277" y="162.172145" fill="rgb(12,12,255)"  stroke="rgb(12,12,255)" stroke-width="1" font-size="16" >N</text>
<text x="126.313005" y="86.090968" fill="rgb(191,191,191)"  stroke="rgb(191,191,191)" stroke-width="1" font-size="16" >H</text>
<text x="178.795590" y="48.000000" fill="rgb(191,191,191)"  stroke="rgb(191,191,191)" stroke-width="1" font-size="16" >H</text>
<text x="200.802555" y="78.327296" fill="rgb(191,191,191)"  stroke="rgb(191,191,191)" stroke-width="1" font-size="16" >H</text>
<text x="163.560495" y="82.221904" fill="rgb(191,191,191)"  stroke="rgb(191,191,191)" stroke-width="1" font-size="16" >H</text>
<text x="188.793562" y="175.237972" fill="rgb(191,191,191)"  stroke="rgb(191,191,191)" stroke-width="1" font-size="16" >H</text>
<text x="266.825212" y="116.476625" fill="rgb(191,191,191)"  stroke="rgb(191,191,191)" stroke-width="1" font-size="16" >H</text>
<text x="282.037241" y="150.697925" fill="rgb(191,191,191)"  stroke="rgb(191,191,191)" stroke-width="1" font-size="16" >H</text>
</svg>
</g>
<text font-size="18.000000" fill ="black" font-family="sans-serif"
x="10.000000" y="20.000000" >ZINC19942862</text>
</svg>
