<?xml version="1.0"?>
<svg version="1.1" id="topsvg"
xmlns="http://www.w3.org/2000/svg" xmlns:xlink="http://www.w3.org/1999/xlink"
xmlns:cml="http://www.xml-cml.org/schema" x="0" y="0" width="200px" height="200px" viewBox="0 0 100 100">
<title>ZINC06119231 - Open Babel Depiction</title>
<rect x="0" y="0" width="100" height="100" fill="white"/>
<g transform="translate(0,0)">
<svg width="100" height="100" x="0" y="0" viewBox="0 0 155.872 213.914"
font-family="sans-serif" stroke="rgb(0,0,0)" stroke-width="2"  stroke-linecap="round">
<line x1="72.4" y1="80.0" x2="72.4" y2="53.0" stroke="rgb(0,0,0)"  stroke-width="2.0"/>
<line x1="92.4" y1="141.6" x2="108.2" y2="163.4" stroke="rgb(0,0,0)"  stroke-width="2.0"/>
<line x1="94.2" y1="95.9" x2="72.4" y2="80.0" stroke="rgb(0,0,0)"  stroke-width="2.0"/>
<line x1="72.4" y1="80.0" x2="50.7" y2="95.8" stroke="rgb(0,0,0)"  stroke-width="2.0"/>
<line x1="71.7" y1="89.4" x2="56.5" y2="100.4" stroke="rgb(0,0,0)"  stroke-width="2.0"/>
<line x1="44.0" y1="115.9" x2="48.3" y2="129.2" stroke="rgb(0,0,0)"  stroke-width="2.0"/>
<line x1="65.4" y1="141.6" x2="92.4" y2="141.6" stroke="rgb(0,0,0)"  stroke-width="2.0"/>
<line x1="92.4" y1="141.6" x2="100.6" y2="116.1" stroke="rgb(0,0,0)"  stroke-width="2.0"/>
<line x1="87.4" y1="133.6" x2="93.2" y2="115.7" stroke="rgb(0,0,0)"  stroke-width="2.0"/>
<text x="98.721360" y="111.511410" fill="rgb(12,12,255)"  stroke="rgb(12,12,255)" stroke-width="1" font-size="16" >N</text>
<text x="46.360680" y="149.553671" fill="rgb(12,12,255)"  stroke="rgb(12,12,255)" stroke-width="1" font-size="16" >N</text>
<text x="46.360680" y="165.553671" fill="rgb(12,12,255)"  stroke="rgb(12,12,255)" stroke-width="1" font-size="16" >H</text>
<text x="34.000000" y="111.511410" fill="rgb(12,12,255)"  stroke="rgb(12,12,255)" stroke-width="1" font-size="16" >N</text>
<text x="109.872090" y="181.914351" fill="rgb(165,40,40)"  stroke="rgb(165,40,40)" stroke-width="1" font-size="16" >Br</text>
<text x="66.360680" y="48.000000" fill="rgb(191,191,191)"  stroke="rgb(191,191,191)" stroke-width="1" font-size="16" >H</text>
</svg>
</g>
<text font-size="18.000000" fill ="black" font-family="sans-serif"
x="10.000000" y="20.000000" >ZINC06119231</text>
</svg>
