<?xml version="1.0"?>
<svg version="1.1" id="topsvg"
xmlns="http://www.w3.org/2000/svg" xmlns:xlink="http://www.w3.org/1999/xlink"
xmlns:cml="http://www.xml-cml.org/schema" x="0" y="0" width="200px" height="200px" viewBox="0 0 100 100">
<title>ZINC03630253 - Open Babel Depiction</title>
<rect x="0" y="0" width="100" height="100" fill="white"/>
<g transform="translate(0,0)">
<svg width="100" height="100" x="0" y="0" viewBox="0 0 634.256 320"
font-family="sans-serif" stroke="rgb(0,0,0)" stroke-width="2"  stroke-linecap="round">
<line x1="74.6" y1="160.0" x2="51.3" y2="146.5" stroke="rgb(0,0,0)"  stroke-width="2.0"/>
<line x1="74.6" y1="200.0" x2="51.3" y2="213.5" stroke="rgb(0,0,0)"  stroke-width="2.0"/>
<line x1="109.3" y1="220.0" x2="109.3" y2="247.0" stroke="rgb(0,0,0)"  stroke-width="2.0"/>
<line x1="143.9" y1="200.0" x2="178.6" y2="220.0" stroke="rgb(0,0,0)"  stroke-width="2.0"/>
<line x1="143.9" y1="160.0" x2="167.3" y2="146.5" stroke="rgb(0,0,0)"  stroke-width="2.0"/>
<line x1="109.3" y1="140.0" x2="109.3" y2="113.0" stroke="rgb(0,0,0)"  stroke-width="2.0"/>
<line x1="178.6" y1="220.0" x2="201.9" y2="206.5" stroke="rgb(0,0,0)"  stroke-width="2.0"/>
<line x1="178.6" y1="220.0" x2="192.1" y2="243.4" stroke="rgb(0,0,0)"  stroke-width="2.0"/>
<line x1="178.6" y1="220.0" x2="165.1" y2="243.4" stroke="rgb(0,0,0)"  stroke-width="2.0"/>
<line x1="226.0" y1="203.9" x2="249.3" y2="217.4" stroke="rgb(0,0,0)"  stroke-width="2.0"/>
<line x1="223.0" y1="209.1" x2="246.3" y2="222.6" stroke="rgb(0,0,0)"  stroke-width="2.0"/>
<line x1="213.2" y1="187.0" x2="213.2" y2="173.0" stroke="rgb(0,0,0)"  stroke-width="2.0"/>
<line x1="247.8" y1="220.0" x2="282.5" y2="200.0" stroke="rgb(0,0,0)"  stroke-width="2.0"/>
<line x1="247.8" y1="220.0" x2="247.8" y2="247.0" stroke="rgb(0,0,0)"  stroke-width="2.0"/>
<line x1="282.5" y1="160.0" x2="259.1" y2="146.5" stroke="rgb(0,0,0)"  stroke-width="2.0"/>
<line x1="317.1" y1="140.0" x2="317.1" y2="113.0" stroke="rgb(0,0,0)"  stroke-width="2.0"/>
<line x1="317.1" y1="220.0" x2="317.1" y2="247.0" stroke="rgb(0,0,0)"  stroke-width="2.0"/>
<line x1="422.6" y1="197.4" x2="445.9" y2="210.9" stroke="rgb(0,0,0)"  stroke-width="2.0"/>
<line x1="419.6" y1="202.6" x2="442.9" y2="216.1" stroke="rgb(0,0,0)"  stroke-width="2.0"/>
<line x1="432.3" y1="153.5" x2="455.7" y2="140.0" stroke="rgb(0,0,0)"  stroke-width="2.0"/>
<line x1="386.4" y1="140.0" x2="386.4" y2="113.0" stroke="rgb(0,0,0)"  stroke-width="2.0"/>
<line x1="455.7" y1="100.0" x2="432.3" y2="86.5" stroke="rgb(0,0,0)"  stroke-width="2.0"/>
<line x1="490.3" y1="80.0" x2="490.3" y2="53.0" stroke="rgb(0,0,0)"  stroke-width="2.0"/>
<line x1="525.0" y1="100.0" x2="548.4" y2="86.5" stroke="rgb(0,0,0)"  stroke-width="2.0"/>
<line x1="525.0" y1="140.0" x2="559.6" y2="160.0" stroke="rgb(0,0,0)"  stroke-width="2.0"/>
<line x1="490.3" y1="160.0" x2="490.3" y2="187.0" stroke="rgb(0,0,0)"  stroke-width="2.0"/>
<line x1="559.6" y1="160.0" x2="573.1" y2="183.4" stroke="rgb(0,0,0)"  stroke-width="2.0"/>
<line x1="559.6" y1="160.0" x2="546.1" y2="183.4" stroke="rgb(0,0,0)"  stroke-width="2.0"/>
<line x1="559.6" y1="160.0" x2="583.0" y2="146.5" stroke="rgb(0,0,0)"  stroke-width="2.0"/>
<line x1="236.6" y1="266.5" x2="224.5" y2="273.5" stroke="rgb(0,0,0)"  stroke-width="2.0"/>
<line x1="109.3" y1="220.0" x2="143.9" y2="200.0" stroke="rgb(0,0,0)"  stroke-width="2.0"/>
<line x1="143.9" y1="200.0" x2="143.9" y2="160.0" stroke="rgb(0,0,0)"  stroke-width="2.0"/>
<line x1="136.7" y1="194.0" x2="136.7" y2="166.0" stroke="rgb(0,0,0)"  stroke-width="2.0"/>
<line x1="143.9" y1="160.0" x2="109.3" y2="140.0" stroke="rgb(0,0,0)"  stroke-width="2.0"/>
<line x1="109.3" y1="140.0" x2="74.6" y2="160.0" stroke="rgb(0,0,0)"  stroke-width="2.0"/>
<line x1="107.7" y1="149.2" x2="83.4" y2="163.2" stroke="rgb(0,0,0)"  stroke-width="2.0"/>
<line x1="74.6" y1="160.0" x2="74.6" y2="200.0" stroke="rgb(0,0,0)"  stroke-width="2.0"/>
<line x1="74.6" y1="200.0" x2="109.3" y2="220.0" stroke="rgb(0,0,0)"  stroke-width="2.0"/>
<line x1="83.4" y1="196.8" x2="107.7" y2="210.8" stroke="rgb(0,0,0)"  stroke-width="2.0"/>
<line x1="317.1" y1="140.0" x2="351.8" y2="160.0" stroke="rgb(0,0,0)"  stroke-width="2.0"/>
<line x1="351.8" y1="160.0" x2="351.8" y2="200.0" stroke="rgb(0,0,0)"  stroke-width="2.0"/>
<line x1="351.8" y1="200.0" x2="317.1" y2="220.0" stroke="rgb(0,0,0)"  stroke-width="2.0"/>
<line x1="317.1" y1="220.0" x2="282.5" y2="200.0" stroke="rgb(0,0,0)"  stroke-width="2.0"/>
<line x1="315.5" y1="210.8" x2="291.3" y2="196.8" stroke="rgb(0,0,0)"  stroke-width="2.0"/>
<line x1="282.5" y1="200.0" x2="282.5" y2="160.0" stroke="rgb(0,0,0)"  stroke-width="2.0"/>
<line x1="282.5" y1="160.0" x2="317.1" y2="140.0" stroke="rgb(0,0,0)"  stroke-width="2.0"/>
<line x1="291.3" y1="163.2" x2="315.5" y2="149.2" stroke="rgb(0,0,0)"  stroke-width="2.0"/>
<line x1="421.1" y1="173.0" x2="421.1" y2="200.0" stroke="rgb(0,0,0)"  stroke-width="2.0"/>
<line x1="421.1" y1="200.0" x2="397.7" y2="213.5" stroke="rgb(0,0,0)"  stroke-width="2.0"/>
<line x1="375.0" y1="213.4" x2="351.8" y2="200.0" stroke="rgb(0,0,0)"  stroke-width="2.0"/>
<line x1="376.8" y1="206.2" x2="360.6" y2="196.8" stroke="rgb(0,0,0)"  stroke-width="2.0"/>
<line x1="351.8" y1="160.0" x2="386.4" y2="140.0" stroke="rgb(0,0,0)"  stroke-width="2.0"/>
<line x1="360.6" y1="163.2" x2="384.8" y2="149.2" stroke="rgb(0,0,0)"  stroke-width="2.0"/>
<line x1="386.4" y1="140.0" x2="409.8" y2="153.5" stroke="rgb(0,0,0)"  stroke-width="2.0"/>
<line x1="490.3" y1="80.0" x2="525.0" y2="100.0" stroke="rgb(0,0,0)"  stroke-width="2.0"/>
<line x1="525.0" y1="100.0" x2="525.0" y2="140.0" stroke="rgb(0,0,0)"  stroke-width="2.0"/>
<line x1="517.8" y1="106.0" x2="517.8" y2="134.0" stroke="rgb(0,0,0)"  stroke-width="2.0"/>
<line x1="525.0" y1="140.0" x2="490.3" y2="160.0" stroke="rgb(0,0,0)"  stroke-width="2.0"/>
<line x1="490.3" y1="160.0" x2="455.7" y2="140.0" stroke="rgb(0,0,0)"  stroke-width="2.0"/>
<line x1="488.7" y1="150.8" x2="464.5" y2="136.8" stroke="rgb(0,0,0)"  stroke-width="2.0"/>
<line x1="455.7" y1="140.0" x2="455.7" y2="100.0" stroke="rgb(0,0,0)"  stroke-width="2.0"/>
<line x1="455.7" y1="100.0" x2="490.3" y2="80.0" stroke="rgb(0,0,0)"  stroke-width="2.0"/>
<line x1="464.5" y1="103.2" x2="488.7" y2="89.2" stroke="rgb(0,0,0)"  stroke-width="2.0"/>
<text x="103.282032" y="108.000000" fill="rgb(191,191,191)"  stroke="rgb(191,191,191)" stroke-width="1" font-size="16" >H</text>
<text x="573.615242" y="202.641016" fill="rgb(127,178,255)"  stroke="rgb(127,178,255)" stroke-width="1" font-size="16" >F</text>
<text x="533.615242" y="202.641016" fill="rgb(127,178,255)"  stroke="rgb(127,178,255)" stroke-width="1" font-size="16" >F</text>
<text x="588.256258" y="148.000000" fill="rgb(127,178,255)"  stroke="rgb(127,178,255)" stroke-width="1" font-size="16" >F</text>
<text x="449.692194" y="228.000000" fill="rgb(178,178,0)"  stroke="rgb(178,178,0)" stroke-width="1" font-size="16" >S</text>
<text x="241.846097" y="268.000000" fill="rgb(255,12,12)"  stroke="rgb(255,12,12)" stroke-width="1" font-size="16" >O</text>
<text x="34.000000" y="148.000000" fill="rgb(191,191,191)"  stroke="rgb(191,191,191)" stroke-width="1" font-size="16" >H</text>
<text x="34.000000" y="228.000000" fill="rgb(191,191,191)"  stroke="rgb(191,191,191)" stroke-width="1" font-size="16" >H</text>
<text x="103.282032" y="268.000000" fill="rgb(191,191,191)"  stroke="rgb(191,191,191)" stroke-width="1" font-size="16" >H</text>
<text x="172.564065" y="148.000000" fill="rgb(191,191,191)"  stroke="rgb(191,191,191)" stroke-width="1" font-size="16" >H</text>
<text x="192.564065" y="262.641016" fill="rgb(191,191,191)"  stroke="rgb(191,191,191)" stroke-width="1" font-size="16" >H</text>
<text x="152.564065" y="262.641016" fill="rgb(191,191,191)"  stroke="rgb(191,191,191)" stroke-width="1" font-size="16" >H</text>
<text x="241.846097" y="148.000000" fill="rgb(191,191,191)"  stroke="rgb(191,191,191)" stroke-width="1" font-size="16" >H</text>
<text x="311.128129" y="108.000000" fill="rgb(191,191,191)"  stroke="rgb(191,191,191)" stroke-width="1" font-size="16" >H</text>
<text x="311.128129" y="268.000000" fill="rgb(191,191,191)"  stroke="rgb(191,191,191)" stroke-width="1" font-size="16" >H</text>
<text x="415.051178" y="88.000000" fill="rgb(191,191,191)"  stroke="rgb(191,191,191)" stroke-width="1" font-size="16" >H</text>
<text x="484.333210" y="48.000000" fill="rgb(191,191,191)"  stroke="rgb(191,191,191)" stroke-width="1" font-size="16" >H</text>
<text x="553.615242" y="88.000000" fill="rgb(191,191,191)"  stroke="rgb(191,191,191)" stroke-width="1" font-size="16" >H</text>
<text x="484.333210" y="208.000000" fill="rgb(191,191,191)"  stroke="rgb(191,191,191)" stroke-width="1" font-size="16" >H</text>
<text x="207.205081" y="288.000000" fill="rgb(191,191,191)"  stroke="rgb(191,191,191)" stroke-width="1" font-size="16" >H</text>
<text x="207.205081" y="168.000000" fill="rgb(191,191,191)"  stroke="rgb(191,191,191)" stroke-width="1" font-size="16" >H</text>
<text x="207.205081" y="208.000000" fill="rgb(12,12,255)"  stroke="rgb(12,12,255)" stroke-width="1" font-size="16" >N</text>
<text x="380.410162" y="228.000000" fill="rgb(12,12,255)"  stroke="rgb(12,12,255)" stroke-width="1" font-size="16" >N</text>
<text x="415.051178" y="168.000000" fill="rgb(12,12,255)"  stroke="rgb(12,12,255)" stroke-width="1" font-size="16" >N</text>
<text x="380.410162" y="108.000000" fill="rgb(255,12,12)"  stroke="rgb(255,12,12)" stroke-width="1" font-size="16" >OH</text>
</svg>
</g>
<text font-size="18.000000" fill ="black" font-family="sans-serif"
x="10.000000" y="20.000000" >ZINC03630253</text>
</svg>
