<?xml version="1.0"?>
<svg version="1.1" id="topsvg"
xmlns="http://www.w3.org/2000/svg" xmlns:xlink="http://www.w3.org/1999/xlink"
xmlns:cml="http://www.xml-cml.org/schema" x="0" y="0" width="200px" height="200px" viewBox="0 0 100 100">
<title>ZINC04386409 - Open Babel Depiction</title>
<rect x="0" y="0" width="100" height="100" fill="white"/>
<g transform="translate(0,0)">
<svg width="100" height="100" x="0" y="0" viewBox="0 0 396.293 284.639"
font-family="sans-serif" stroke="rgb(0,0,0)" stroke-width="2"  stroke-linecap="round">
<line x1="183.9" y1="204.6" x2="183.9" y2="231.6" stroke="rgb(0,0,0)"  stroke-width="2.0"/>
<line x1="218.6" y1="184.6" x2="241.9" y2="198.1" stroke="rgb(0,0,0)"  stroke-width="2.0"/>
<line x1="218.6" y1="144.6" x2="241.9" y2="131.1" stroke="rgb(0,0,0)"  stroke-width="2.0"/>
<line x1="149.3" y1="184.6" x2="125.9" y2="198.1" stroke="rgb(0,0,0)"  stroke-width="2.0"/>
<line x1="103.4" y1="198.1" x2="80.0" y2="184.6" stroke="rgb(0,0,0)"  stroke-width="2.0"/>
<line x1="114.6" y1="217.6" x2="114.6" y2="231.6" stroke="rgb(0,0,0)"  stroke-width="2.0"/>
<line x1="80.0" y1="184.6" x2="80.0" y2="144.6" stroke="rgb(0,0,0)"  stroke-width="2.0"/>
<line x1="80.0" y1="184.6" x2="53.0" y2="184.6" stroke="rgb(0,0,0)"  stroke-width="2.0"/>
<line x1="80.0" y1="184.6" x2="66.5" y2="208.0" stroke="rgb(0,0,0)"  stroke-width="2.0"/>
<line x1="78.5" y1="142.0" x2="101.9" y2="128.5" stroke="rgb(0,0,0)"  stroke-width="2.0"/>
<line x1="81.5" y1="147.2" x2="104.9" y2="133.7" stroke="rgb(0,0,0)"  stroke-width="2.0"/>
<line x1="80.0" y1="144.6" x2="56.6" y2="131.1" stroke="rgb(0,0,0)"  stroke-width="2.0"/>
<line x1="289.7" y1="140.9" x2="295.4" y2="167.3" stroke="rgb(0,0,0)"  stroke-width="2.0"/>
<line x1="316.5" y1="111.2" x2="343.4" y2="114.0" stroke="rgb(0,0,0)"  stroke-width="2.0"/>
<line x1="257.4" y1="84.9" x2="237.3" y2="66.8" stroke="rgb(0,0,0)"  stroke-width="2.0"/>
<line x1="301.8" y1="64.7" x2="307.5" y2="51.9" stroke="rgb(0,0,0)"  stroke-width="2.0"/>
<line x1="316.5" y1="111.2" x2="303.0" y2="87.8" stroke="rgb(0,0,0)"  stroke-width="2.0"/>
<line x1="283.6" y1="79.3" x2="257.4" y2="84.9" stroke="rgb(0,0,0)"  stroke-width="2.0"/>
<line x1="283.1" y1="86.7" x2="264.8" y2="90.7" stroke="rgb(0,0,0)"  stroke-width="2.0"/>
<line x1="257.4" y1="84.9" x2="254.6" y2="111.7" stroke="rgb(0,0,0)"  stroke-width="2.0"/>
<line x1="265.1" y1="129.9" x2="289.7" y2="140.9" stroke="rgb(0,0,0)"  stroke-width="2.0"/>
<line x1="289.7" y1="140.9" x2="316.5" y2="111.2" stroke="rgb(0,0,0)"  stroke-width="2.0"/>
<line x1="288.4" y1="131.6" x2="307.1" y2="110.8" stroke="rgb(0,0,0)"  stroke-width="2.0"/>
<line x1="218.6" y1="144.6" x2="195.2" y2="131.1" stroke="rgb(0,0,0)"  stroke-width="2.0"/>
<line x1="172.5" y1="131.2" x2="160.7" y2="138.0" stroke="rgb(0,0,0)"  stroke-width="2.0"/>
<line x1="174.4" y1="138.5" x2="166.0" y2="143.3" stroke="rgb(0,0,0)"  stroke-width="2.0"/>
<line x1="149.3" y1="157.6" x2="149.3" y2="184.6" stroke="rgb(0,0,0)"  stroke-width="2.0"/>
<line x1="149.3" y1="184.6" x2="183.9" y2="204.6" stroke="rgb(0,0,0)"  stroke-width="2.0"/>
<line x1="158.1" y1="181.4" x2="182.3" y2="195.4" stroke="rgb(0,0,0)"  stroke-width="2.0"/>
<line x1="183.9" y1="204.6" x2="218.6" y2="184.6" stroke="rgb(0,0,0)"  stroke-width="2.0"/>
<line x1="218.6" y1="184.6" x2="218.6" y2="144.6" stroke="rgb(0,0,0)"  stroke-width="2.0"/>
<line x1="211.4" y1="178.6" x2="211.4" y2="150.6" stroke="rgb(0,0,0)"  stroke-width="2.0"/>
<text x="306.781589" y="48.000000" fill="rgb(191,191,191)"  stroke="rgb(191,191,191)" stroke-width="1" font-size="16" >H</text>
<text x="290.512123" y="84.541818" fill="rgb(12,12,255)"  stroke="rgb(12,12,255)" stroke-width="1" font-size="16" >N</text>
<text x="27.358984" y="132.639162" fill="rgb(255,12,12)"  stroke="rgb(255,12,12)" stroke-width="1" font-size="16" >HO</text>
<text x="221.660426" y="66.093062" fill="rgb(191,191,191)"  stroke="rgb(191,191,191)" stroke-width="1" font-size="16" >H</text>
<text x="350.292999" y="123.363973" fill="rgb(191,191,191)"  stroke="rgb(191,191,191)" stroke-width="1" font-size="16" >H</text>
<text x="292.063367" y="188.034532" fill="rgb(191,191,191)"  stroke="rgb(191,191,191)" stroke-width="1" font-size="16" >H</text>
<text x="54.000000" y="227.280178" fill="rgb(191,191,191)"  stroke="rgb(191,191,191)" stroke-width="1" font-size="16" >H</text>
<text x="34.000000" y="192.639162" fill="rgb(191,191,191)"  stroke="rgb(191,191,191)" stroke-width="1" font-size="16" >H</text>
<text x="108.641016" y="252.639162" fill="rgb(191,191,191)"  stroke="rgb(191,191,191)" stroke-width="1" font-size="16" >H</text>
<text x="247.205081" y="212.639162" fill="rgb(191,191,191)"  stroke="rgb(191,191,191)" stroke-width="1" font-size="16" >H</text>
<text x="177.923048" y="252.639162" fill="rgb(191,191,191)"  stroke="rgb(191,191,191)" stroke-width="1" font-size="16" >H</text>
<text x="247.205081" y="132.639162" fill="rgb(12,12,255)"  stroke="rgb(12,12,255)" stroke-width="1" font-size="16" >N</text>
<text x="108.641016" y="132.639162" fill="rgb(255,12,12)"  stroke="rgb(255,12,12)" stroke-width="1" font-size="16" >O</text>
<text x="108.641016" y="212.639162" fill="rgb(12,12,255)"  stroke="rgb(12,12,255)" stroke-width="1" font-size="16" >N</text>
<text x="143.282032" y="152.639162" fill="rgb(12,12,255)"  stroke="rgb(12,12,255)" stroke-width="1" font-size="16" >N</text>
<text x="177.923048" y="132.639162" fill="rgb(12,12,255)"  stroke="rgb(12,12,255)" stroke-width="1" font-size="16" >N</text>
</svg>
</g>
<text font-size="18.000000" fill ="black" font-family="sans-serif"
x="10.000000" y="20.000000" >ZINC04386409</text>
</svg>
