<?xml version="1.0"?>
<svg version="1.1" id="topsvg"
xmlns="http://www.w3.org/2000/svg" xmlns:xlink="http://www.w3.org/1999/xlink"
xmlns:cml="http://www.xml-cml.org/schema" x="0" y="0" width="200px" height="200px" viewBox="0 0 100 100">
<title>ZINC59447694 - Open Babel Depiction</title>
<rect x="0" y="0" width="100" height="100" fill="white"/>
<g transform="translate(0,0)">
<svg width="100" height="100" x="0" y="0" viewBox="0 0 309.282 258.564"
font-family="sans-serif" stroke="rgb(0,0,0)" stroke-width="2"  stroke-linecap="round">
<line x1="74.6" y1="74.6" x2="88.1" y2="98.0" stroke="rgb(0,0,0)"  stroke-width="2.0"/>
<line x1="74.6" y1="74.6" x2="51.3" y2="61.1" stroke="rgb(0,0,0)"  stroke-width="2.0"/>
<line x1="74.6" y1="74.6" x2="51.3" y2="88.1" stroke="rgb(0,0,0)"  stroke-width="2.0"/>
<line x1="74.6" y1="74.6" x2="88.1" y2="51.3" stroke="rgb(0,0,0)"  stroke-width="2.0"/>
<line x1="88.1" y1="120.5" x2="74.6" y2="143.9" stroke="rgb(0,0,0)"  stroke-width="2.0"/>
<line x1="107.6" y1="109.3" x2="134.6" y2="109.3" stroke="rgb(0,0,0)"  stroke-width="2.0"/>
<line x1="74.6" y1="143.9" x2="51.3" y2="157.4" stroke="rgb(0,0,0)"  stroke-width="2.0"/>
<line x1="74.6" y1="143.9" x2="51.3" y2="130.4" stroke="rgb(0,0,0)"  stroke-width="2.0"/>
<line x1="74.6" y1="143.9" x2="88.1" y2="167.3" stroke="rgb(0,0,0)"  stroke-width="2.0"/>
<line x1="134.6" y1="109.3" x2="154.6" y2="143.9" stroke="rgb(0,0,0)"  stroke-width="2.0"/>
<line x1="134.6" y1="109.3" x2="158.0" y2="95.8" stroke="rgb(0,0,0)"  stroke-width="2.0"/>
<line x1="134.6" y1="109.3" x2="134.6" y2="82.3" stroke="rgb(0,0,0)"  stroke-width="2.0"/>
<line x1="154.6" y1="143.9" x2="181.6" y2="143.9" stroke="rgb(0,0,0)"  stroke-width="2.0"/>
<line x1="154.6" y1="143.9" x2="154.6" y2="170.9" stroke="rgb(0,0,0)"  stroke-width="2.0"/>
<line x1="154.6" y1="143.9" x2="131.3" y2="157.4" stroke="rgb(0,0,0)"  stroke-width="2.0"/>
<line x1="194.6" y1="156.9" x2="194.6" y2="183.9" stroke="rgb(0,0,0)"  stroke-width="2.0"/>
<line x1="207.6" y1="143.9" x2="234.6" y2="143.9" stroke="rgb(0,0,0)"  stroke-width="2.0"/>
<line x1="194.6" y1="130.9" x2="194.6" y2="116.9" stroke="rgb(0,0,0)"  stroke-width="2.0"/>
<line x1="194.6" y1="183.9" x2="208.1" y2="207.3" stroke="rgb(0,0,0)"  stroke-width="2.0"/>
<line x1="194.6" y1="183.9" x2="221.6" y2="183.9" stroke="rgb(0,0,0)"  stroke-width="2.0"/>
<line x1="194.6" y1="183.9" x2="171.3" y2="197.4" stroke="rgb(0,0,0)"  stroke-width="2.0"/>
<line x1="234.6" y1="143.9" x2="258.0" y2="130.4" stroke="rgb(0,0,0)"  stroke-width="2.0"/>
<line x1="234.6" y1="143.9" x2="234.6" y2="116.9" stroke="rgb(0,0,0)"  stroke-width="2.0"/>
<line x1="234.6" y1="143.9" x2="248.1" y2="167.3" stroke="rgb(0,0,0)"  stroke-width="2.0"/>
<text x="34.000000" y="131.923048" fill="rgb(191,191,191)"  stroke="rgb(191,191,191)" stroke-width="1" font-size="16" >H</text>
<text x="188.641016" y="111.923048" fill="rgb(191,191,191)"  stroke="rgb(191,191,191)" stroke-width="1" font-size="16" >H</text>
<text x="248.641016" y="186.564065" fill="rgb(191,191,191)"  stroke="rgb(191,191,191)" stroke-width="1" font-size="16" >H</text>
<text x="228.641016" y="111.923048" fill="rgb(191,191,191)"  stroke="rgb(191,191,191)" stroke-width="1" font-size="16" >H</text>
<text x="263.282032" y="131.923048" fill="rgb(191,191,191)"  stroke="rgb(191,191,191)" stroke-width="1" font-size="16" >H</text>
<text x="154.000000" y="211.923048" fill="rgb(191,191,191)"  stroke="rgb(191,191,191)" stroke-width="1" font-size="16" >H</text>
<text x="228.641016" y="191.923048" fill="rgb(191,191,191)"  stroke="rgb(191,191,191)" stroke-width="1" font-size="16" >H</text>
<text x="208.641016" y="226.564065" fill="rgb(191,191,191)"  stroke="rgb(191,191,191)" stroke-width="1" font-size="16" >H</text>
<text x="114.000000" y="171.923048" fill="rgb(191,191,191)"  stroke="rgb(191,191,191)" stroke-width="1" font-size="16" >H</text>
<text x="148.641016" y="191.923048" fill="rgb(191,191,191)"  stroke="rgb(191,191,191)" stroke-width="1" font-size="16" >H</text>
<text x="128.641016" y="77.282032" fill="rgb(191,191,191)"  stroke="rgb(191,191,191)" stroke-width="1" font-size="16" >H</text>
<text x="163.282032" y="97.282032" fill="rgb(191,191,191)"  stroke="rgb(191,191,191)" stroke-width="1" font-size="16" >H</text>
<text x="88.641016" y="186.564065" fill="rgb(191,191,191)"  stroke="rgb(191,191,191)" stroke-width="1" font-size="16" >H</text>
<text x="34.000000" y="171.923048" fill="rgb(191,191,191)"  stroke="rgb(191,191,191)" stroke-width="1" font-size="16" >H</text>
<text x="88.641016" y="48.000000" fill="rgb(191,191,191)"  stroke="rgb(191,191,191)" stroke-width="1" font-size="16" >H</text>
<text x="34.000000" y="102.641016" fill="rgb(191,191,191)"  stroke="rgb(191,191,191)" stroke-width="1" font-size="16" >H</text>
<text x="34.000000" y="62.641016" fill="rgb(191,191,191)"  stroke="rgb(191,191,191)" stroke-width="1" font-size="16" >H</text>
<text x="188.641016" y="151.923048" fill="rgb(255,127,0)"  stroke="rgb(255,127,0)" stroke-width="1" font-size="16" >P</text>
<text x="88.641016" y="117.282032" fill="rgb(255,127,0)"  stroke="rgb(255,127,0)" stroke-width="1" font-size="16" >P</text>
</svg>
</g>
<text font-size="18.000000" fill ="black" font-family="sans-serif"
x="10.000000" y="20.000000" >ZINC59447694</text>
</svg>
