<?xml version="1.0"?>
<svg version="1.1" id="topsvg"
xmlns="http://www.w3.org/2000/svg" xmlns:xlink="http://www.w3.org/1999/xlink"
xmlns:cml="http://www.xml-cml.org/schema" x="0" y="0" width="200px" height="200px" viewBox="0 0 100 100">
<title>ZINC40450110 - Open Babel Depiction</title>
<rect x="0" y="0" width="100" height="100" fill="white"/>
<g transform="translate(0,0)">
<svg width="100" height="100" x="0" y="0" viewBox="0 0 464.471 448.366"
font-family="sans-serif" stroke="rgb(0,0,0)" stroke-width="2"  stroke-linecap="round">
<line x1="75.8" y1="228.1" x2="52.4" y2="220.4" stroke="rgb(0,0,0)"  stroke-width="2.0"/>
<line x1="83.7" y1="264.9" x2="65.3" y2="281.4" stroke="rgb(0,0,0)"  stroke-width="2.0"/>
<line x1="119.5" y1="276.6" x2="124.6" y2="300.7" stroke="rgb(0,0,0)"  stroke-width="2.0"/>
<line x1="147.5" y1="251.3" x2="206.8" y2="270.6" stroke="rgb(0,0,0)"  stroke-width="2.0"/>
<line x1="139.7" y1="214.5" x2="158.0" y2="198.0" stroke="rgb(0,0,0)"  stroke-width="2.0"/>
<line x1="103.8" y1="202.8" x2="98.7" y2="178.7" stroke="rgb(0,0,0)"  stroke-width="2.0"/>
<line x1="212.0" y1="343.1" x2="187.3" y2="343.1" stroke="rgb(0,0,0)"  stroke-width="2.0"/>
<line x1="230.8" y1="375.7" x2="218.5" y2="397.1" stroke="rgb(0,0,0)"  stroke-width="2.0"/>
<line x1="268.5" y1="375.7" x2="280.9" y2="397.1" stroke="rgb(0,0,0)"  stroke-width="2.0"/>
<line x1="287.4" y1="343.1" x2="312.0" y2="343.1" stroke="rgb(0,0,0)"  stroke-width="2.0"/>
<line x1="280.2" y1="274.6" x2="303.6" y2="267.0" stroke="rgb(0,0,0)"  stroke-width="2.0"/>
<line x1="249.7" y1="252.5" x2="249.7" y2="227.8" stroke="rgb(0,0,0)"  stroke-width="2.0"/>
<line x1="262.7" y1="214.8" x2="325.0" y2="214.8" stroke="rgb(0,0,0)"  stroke-width="2.0"/>
<line x1="249.7" y1="201.8" x2="249.7" y2="139.4" stroke="rgb(0,0,0)"  stroke-width="2.0"/>
<line x1="236.7" y1="214.8" x2="225.0" y2="214.8" stroke="rgb(0,0,0)"  stroke-width="2.0"/>
<line x1="325.0" y1="214.8" x2="348.9" y2="272.4" stroke="rgb(0,0,0)"  stroke-width="2.0"/>
<line x1="315.3" y1="178.4" x2="291.4" y2="184.8" stroke="rgb(0,0,0)"  stroke-width="2.0"/>
<line x1="315.3" y1="178.4" x2="297.8" y2="161.0" stroke="rgb(0,0,0)"  stroke-width="2.0"/>
<line x1="341.9" y1="151.8" x2="324.5" y2="134.3" stroke="rgb(0,0,0)"  stroke-width="2.0"/>
<line x1="341.9" y1="151.8" x2="348.3" y2="127.9" stroke="rgb(0,0,0)"  stroke-width="2.0"/>
<line x1="378.3" y1="161.5" x2="384.7" y2="137.7" stroke="rgb(0,0,0)"  stroke-width="2.0"/>
<line x1="378.3" y1="161.5" x2="402.2" y2="155.1" stroke="rgb(0,0,0)"  stroke-width="2.0"/>
<line x1="388.1" y1="197.9" x2="411.9" y2="191.5" stroke="rgb(0,0,0)"  stroke-width="2.0"/>
<line x1="388.1" y1="197.9" x2="405.5" y2="215.4" stroke="rgb(0,0,0)"  stroke-width="2.0"/>
<line x1="361.4" y1="224.6" x2="378.9" y2="242.0" stroke="rgb(0,0,0)"  stroke-width="2.0"/>
<line x1="361.4" y1="224.6" x2="355.0" y2="248.4" stroke="rgb(0,0,0)"  stroke-width="2.0"/>
<line x1="249.7" y1="139.4" x2="272.5" y2="130.0" stroke="rgb(0,0,0)"  stroke-width="2.0"/>
<line x1="213.3" y1="149.2" x2="219.7" y2="173.0" stroke="rgb(0,0,0)"  stroke-width="2.0"/>
<line x1="213.3" y1="149.2" x2="195.8" y2="166.6" stroke="rgb(0,0,0)"  stroke-width="2.0"/>
<line x1="186.6" y1="122.5" x2="169.2" y2="140.0" stroke="rgb(0,0,0)"  stroke-width="2.0"/>
<line x1="186.6" y1="122.5" x2="162.8" y2="116.2" stroke="rgb(0,0,0)"  stroke-width="2.0"/>
<line x1="196.4" y1="86.1" x2="172.5" y2="79.8" stroke="rgb(0,0,0)"  stroke-width="2.0"/>
<line x1="196.4" y1="86.1" x2="190.0" y2="62.3" stroke="rgb(0,0,0)"  stroke-width="2.0"/>
<line x1="232.8" y1="76.4" x2="226.4" y2="52.6" stroke="rgb(0,0,0)"  stroke-width="2.0"/>
<line x1="232.8" y1="76.4" x2="250.2" y2="58.9" stroke="rgb(0,0,0)"  stroke-width="2.0"/>
<line x1="259.4" y1="103.0" x2="276.9" y2="85.6" stroke="rgb(0,0,0)"  stroke-width="2.0"/>
<line x1="259.4" y1="103.0" x2="283.3" y2="109.4" stroke="rgb(0,0,0)"  stroke-width="2.0"/>
<line x1="268.5" y1="310.5" x2="280.2" y2="274.6" stroke="rgb(0,0,0)"  stroke-width="2.0"/>
<line x1="280.2" y1="274.6" x2="249.7" y2="252.5" stroke="rgb(0,0,0)"  stroke-width="2.0"/>
<line x1="271.1" y1="276.9" x2="250.3" y2="261.8" stroke="rgb(0,0,0)"  stroke-width="2.0"/>
<line x1="249.7" y1="252.5" x2="229.7" y2="267.0" stroke="rgb(0,0,0)"  stroke-width="2.0"/>
<line x1="223.2" y1="287.0" x2="230.8" y2="310.5" stroke="rgb(0,0,0)"  stroke-width="2.0"/>
<line x1="230.8" y1="310.5" x2="268.5" y2="310.5" stroke="rgb(0,0,0)"  stroke-width="2.0"/>
<line x1="236.8" y1="303.3" x2="262.5" y2="303.3" stroke="rgb(0,0,0)"  stroke-width="2.0"/>
<line x1="119.5" y1="276.6" x2="147.5" y2="251.3" stroke="rgb(0,0,0)"  stroke-width="2.0"/>
<line x1="147.5" y1="251.3" x2="139.7" y2="214.5" stroke="rgb(0,0,0)"  stroke-width="2.0"/>
<line x1="139.2" y1="247.0" x2="133.9" y2="221.9" stroke="rgb(0,0,0)"  stroke-width="2.0"/>
<line x1="139.7" y1="214.5" x2="103.8" y2="202.8" stroke="rgb(0,0,0)"  stroke-width="2.0"/>
<line x1="103.8" y1="202.8" x2="75.8" y2="228.1" stroke="rgb(0,0,0)"  stroke-width="2.0"/>
<line x1="104.2" y1="212.2" x2="85.1" y2="229.4" stroke="rgb(0,0,0)"  stroke-width="2.0"/>
<line x1="75.8" y1="228.1" x2="83.7" y2="264.9" stroke="rgb(0,0,0)"  stroke-width="2.0"/>
<line x1="83.7" y1="264.9" x2="119.5" y2="276.6" stroke="rgb(0,0,0)"  stroke-width="2.0"/>
<line x1="91.6" y1="259.9" x2="116.0" y2="267.9" stroke="rgb(0,0,0)"  stroke-width="2.0"/>
<line x1="212.0" y1="343.1" x2="230.8" y2="375.7" stroke="rgb(0,0,0)"  stroke-width="2.0"/>
<line x1="221.2" y1="344.7" x2="234.1" y2="366.9" stroke="rgb(0,0,0)"  stroke-width="2.0"/>
<line x1="230.8" y1="375.7" x2="268.5" y2="375.7" stroke="rgb(0,0,0)"  stroke-width="2.0"/>
<line x1="268.5" y1="375.7" x2="287.4" y2="343.1" stroke="rgb(0,0,0)"  stroke-width="2.0"/>
<line x1="265.3" y1="366.9" x2="278.1" y2="344.7" stroke="rgb(0,0,0)"  stroke-width="2.0"/>
<line x1="287.4" y1="343.1" x2="268.5" y2="310.5" stroke="rgb(0,0,0)"  stroke-width="2.0"/>
<line x1="230.8" y1="310.5" x2="212.0" y2="343.1" stroke="rgb(0,0,0)"  stroke-width="2.0"/>
<line x1="341.9" y1="151.8" x2="378.3" y2="161.5" stroke="rgb(0,0,0)"  stroke-width="2.0"/>
<line x1="378.3" y1="161.5" x2="388.1" y2="197.9" stroke="rgb(0,0,0)"  stroke-width="2.0"/>
<line x1="388.1" y1="197.9" x2="361.4" y2="224.6" stroke="rgb(0,0,0)"  stroke-width="2.0"/>
<line x1="361.4" y1="224.6" x2="325.0" y2="214.8" stroke="rgb(0,0,0)"  stroke-width="2.0"/>
<line x1="325.0" y1="214.8" x2="315.3" y2="178.4" stroke="rgb(0,0,0)"  stroke-width="2.0"/>
<line x1="315.3" y1="178.4" x2="341.9" y2="151.8" stroke="rgb(0,0,0)"  stroke-width="2.0"/>
<line x1="186.6" y1="122.5" x2="196.4" y2="86.1" stroke="rgb(0,0,0)"  stroke-width="2.0"/>
<line x1="196.4" y1="86.1" x2="232.8" y2="76.4" stroke="rgb(0,0,0)"  stroke-width="2.0"/>
<line x1="232.8" y1="76.4" x2="259.4" y2="103.0" stroke="rgb(0,0,0)"  stroke-width="2.0"/>
<line x1="259.4" y1="103.0" x2="249.7" y2="139.4" stroke="rgb(0,0,0)"  stroke-width="2.0"/>
<line x1="249.7" y1="139.4" x2="213.3" y2="149.2" stroke="rgb(0,0,0)"  stroke-width="2.0"/>
<line x1="213.3" y1="149.2" x2="186.6" y2="122.5" stroke="rgb(0,0,0)"  stroke-width="2.0"/>
<text x="408.717990" y="232.553934" fill="rgb(191,191,191)"  stroke="rgb(191,191,191)" stroke-width="1" font-size="16" >H</text>
<text x="161.678942" y="197.271332" fill="rgb(191,191,191)"  stroke="rgb(191,191,191)" stroke-width="1" font-size="16" >H</text>
<text x="90.005117" y="173.983094" fill="rgb(191,191,191)"  stroke="rgb(191,191,191)" stroke-width="1" font-size="16" >H</text>
<text x="168.306941" y="351.100675" fill="rgb(191,191,191)"  stroke="rgb(191,191,191)" stroke-width="1" font-size="16" >H</text>
<text x="205.988100" y="416.366358" fill="rgb(191,191,191)"  stroke="rgb(191,191,191)" stroke-width="1" font-size="16" >H</text>
<text x="281.350419" y="416.366358" fill="rgb(191,191,191)"  stroke="rgb(191,191,191)" stroke-width="1" font-size="16" >H</text>
<text x="319.031578" y="351.100675" fill="rgb(191,191,191)"  stroke="rgb(191,191,191)" stroke-width="1" font-size="16" >H</text>
<text x="309.990870" y="270.986803" fill="rgb(191,191,191)"  stroke="rgb(191,191,191)" stroke-width="1" font-size="16" >H</text>
<text x="347.871489" y="292.427036" fill="rgb(191,191,191)"  stroke="rgb(191,191,191)" stroke-width="1" font-size="16" >H</text>
<text x="272.881771" y="196.156729" fill="rgb(191,191,191)"  stroke="rgb(191,191,191)" stroke-width="1" font-size="16" >H</text>
<text x="282.634373" y="159.759524" fill="rgb(191,191,191)"  stroke="rgb(191,191,191)" stroke-width="1" font-size="16" >H</text>
<text x="309.278977" y="133.114921" fill="rgb(191,191,191)"  stroke="rgb(191,191,191)" stroke-width="1" font-size="16" >H</text>
<text x="345.676182" y="123.362319" fill="rgb(191,191,191)"  stroke="rgb(191,191,191)" stroke-width="1" font-size="16" >H</text>
<text x="382.073387" y="133.114921" fill="rgb(191,191,191)"  stroke="rgb(191,191,191)" stroke-width="1" font-size="16" >H</text>
<text x="408.717990" y="159.759524" fill="rgb(191,191,191)"  stroke="rgb(191,191,191)" stroke-width="1" font-size="16" >H</text>
<text x="418.470592" y="196.156729" fill="rgb(191,191,191)"  stroke="rgb(191,191,191)" stroke-width="1" font-size="16" >H</text>
<text x="121.342532" y="321.414037" fill="rgb(191,191,191)"  stroke="rgb(191,191,191)" stroke-width="1" font-size="16" >H</text>
<text x="382.073387" y="259.198537" fill="rgb(191,191,191)"  stroke="rgb(191,191,191)" stroke-width="1" font-size="16" >H</text>
<text x="345.676182" y="268.951139" fill="rgb(191,191,191)"  stroke="rgb(191,191,191)" stroke-width="1" font-size="16" >H</text>
<text x="278.482111" y="133.019058" fill="rgb(191,191,191)"  stroke="rgb(191,191,191)" stroke-width="1" font-size="16" >H</text>
<text x="217.024656" y="193.588820" fill="rgb(191,191,191)"  stroke="rgb(191,191,191)" stroke-width="1" font-size="16" >H</text>
<text x="180.627451" y="183.836218" fill="rgb(191,191,191)"  stroke="rgb(191,191,191)" stroke-width="1" font-size="16" >H</text>
<text x="153.982848" y="157.191615" fill="rgb(191,191,191)"  stroke="rgb(191,191,191)" stroke-width="1" font-size="16" >H</text>
<text x="144.230246" y="120.794410" fill="rgb(191,191,191)"  stroke="rgb(191,191,191)" stroke-width="1" font-size="16" >H</text>
<text x="153.982848" y="84.397205" fill="rgb(191,191,191)"  stroke="rgb(191,191,191)" stroke-width="1" font-size="16" >H</text>
<text x="180.627451" y="57.752602" fill="rgb(191,191,191)"  stroke="rgb(191,191,191)" stroke-width="1" font-size="16" >H</text>
<text x="217.024656" y="48.000000" fill="rgb(191,191,191)"  stroke="rgb(191,191,191)" stroke-width="1" font-size="16" >H</text>
<text x="253.421861" y="57.752602" fill="rgb(191,191,191)"  stroke="rgb(191,191,191)" stroke-width="1" font-size="16" >H</text>
<text x="280.066464" y="84.397205" fill="rgb(191,191,191)"  stroke="rgb(191,191,191)" stroke-width="1" font-size="16" >H</text>
<text x="289.819066" y="120.794410" fill="rgb(191,191,191)"  stroke="rgb(191,191,191)" stroke-width="1" font-size="16" >H</text>
<text x="205.988100" y="222.801332" fill="rgb(191,191,191)"  stroke="rgb(191,191,191)" stroke-width="1" font-size="16" >H</text>
<text x="243.669259" y="222.801332" fill="rgb(255,127,0)"  stroke="rgb(255,127,0)" stroke-width="1" font-size="16" >P</text>
<text x="213.184561" y="282.630922" fill="rgb(12,12,255)"  stroke="rgb(12,12,255)" stroke-width="1" font-size="16" >N</text>
<text x="34.000000" y="224.410328" fill="rgb(191,191,191)"  stroke="rgb(191,191,191)" stroke-width="1" font-size="16" >H</text>
<text x="49.668707" y="298.125800" fill="rgb(191,191,191)"  stroke="rgb(191,191,191)" stroke-width="1" font-size="16" >H</text>
</svg>
</g>
<text font-size="18.000000" fill ="black" font-family="sans-serif"
x="10.000000" y="20.000000" >ZINC40450110</text>
</svg>
