<?xml version="1.0"?>
<svg version="1.1" id="topsvg"
xmlns="http://www.w3.org/2000/svg" xmlns:xlink="http://www.w3.org/1999/xlink"
xmlns:cml="http://www.xml-cml.org/schema" x="0" y="0" width="200px" height="200px" viewBox="0 0 100 100">
<title>ZINC98216843 - Open Babel Depiction</title>
<rect x="0" y="0" width="100" height="100" fill="white"/>
<g transform="translate(0,0)">
<svg width="100" height="100" x="0" y="0" viewBox="0 0 764.974 491.809"
font-family="sans-serif" stroke="rgb(0,0,0)" stroke-width="2"  stroke-linecap="round">
<line x1="74.6" y1="249.3" x2="109.3" y2="229.3" stroke="rgb(0,0,0)"  stroke-width="2.0"/>
<line x1="74.6" y1="249.3" x2="61.1" y2="272.7" stroke="rgb(0,0,0)"  stroke-width="2.0"/>
<line x1="74.6" y1="249.3" x2="88.1" y2="272.7" stroke="rgb(0,0,0)"  stroke-width="2.0"/>
<line x1="74.6" y1="249.3" x2="51.3" y2="235.8" stroke="rgb(0,0,0)"  stroke-width="2.0"/>
<line x1="106.3" y1="229.3" x2="106.3" y2="202.3" stroke="rgb(0,0,0)"  stroke-width="2.0"/>
<line x1="112.3" y1="229.3" x2="112.3" y2="202.3" stroke="rgb(0,0,0)"  stroke-width="2.0"/>
<line x1="109.3" y1="229.3" x2="132.7" y2="242.8" stroke="rgb(0,0,0)"  stroke-width="2.0"/>
<line x1="155.2" y1="242.8" x2="178.6" y2="229.3" stroke="rgb(0,0,0)"  stroke-width="2.0"/>
<line x1="143.9" y1="262.3" x2="143.9" y2="276.3" stroke="rgb(0,0,0)"  stroke-width="2.0"/>
<line x1="175.2" y1="225.1" x2="176.6" y2="224.3" stroke="rgb(0,0,0)"  stroke-width="1.0"/>
<line x1="172.5" y1="221.7" x2="175.0" y2="220.2" stroke="rgb(0,0,0)"  stroke-width="1.0"/>
<line x1="169.8" y1="218.3" x2="173.4" y2="216.2" stroke="rgb(0,0,0)"  stroke-width="1.0"/>
<line x1="167.1" y1="214.9" x2="171.8" y2="212.2" stroke="rgb(0,0,0)"  stroke-width="1.0"/>
<line x1="164.4" y1="211.5" x2="170.2" y2="208.1" stroke="rgb(0,0,0)"  stroke-width="1.0"/>
<line x1="161.7" y1="208.1" x2="168.6" y2="204.1" stroke="rgb(0,0,0)"  stroke-width="1.0"/>
<line x1="178.6" y1="229.3" x2="213.2" y2="209.3" stroke="rgb(0,0,0)"  stroke-width="2.0"/>
<line x1="178.6" y1="229.3" x2="198.6" y2="264.0" stroke="rgb(0,0,0)"  stroke-width="2.0"/>
<line x1="213.2" y1="209.3" x2="213.2" y2="169.3" stroke="rgb(0,0,0)"  stroke-width="2.0"/>
<line x1="213.2" y1="209.3" x2="240.2" y2="209.3" stroke="rgb(0,0,0)"  stroke-width="2.0"/>
<line x1="213.2" y1="209.3" x2="226.7" y2="232.7" stroke="rgb(0,0,0)"  stroke-width="2.0"/>
<line x1="245.6" y1="145.8" x2="271.2" y2="154.2" stroke="rgb(0,0,0)"  stroke-width="2.0"/>
<line x1="240.8" y1="97.3" x2="249.1" y2="85.9" stroke="rgb(0,0,0)"  stroke-width="2.0"/>
<line x1="141.7" y1="154.1" x2="133.4" y2="179.8" stroke="rgb(0,0,0)"  stroke-width="2.0"/>
<line x1="115.0" y1="124.4" x2="88.5" y2="130.0" stroke="rgb(0,0,0)"  stroke-width="2.0"/>
<line x1="127.3" y1="86.4" x2="109.2" y2="66.3" stroke="rgb(0,0,0)"  stroke-width="2.0"/>
<line x1="166.4" y1="78.0" x2="174.8" y2="52.4" stroke="rgb(0,0,0)"  stroke-width="2.0"/>
<line x1="201.2" y1="265.5" x2="187.7" y2="288.8" stroke="rgb(0,0,0)"  stroke-width="2.0"/>
<line x1="196.0" y1="262.5" x2="182.5" y2="285.8" stroke="rgb(0,0,0)"  stroke-width="2.0"/>
<line x1="198.6" y1="264.0" x2="225.6" y2="264.0" stroke="rgb(0,0,0)"  stroke-width="2.0"/>
<line x1="245.1" y1="275.2" x2="258.6" y2="298.6" stroke="rgb(0,0,0)"  stroke-width="2.0"/>
<line x1="245.1" y1="252.7" x2="252.1" y2="240.6" stroke="rgb(0,0,0)"  stroke-width="2.0"/>
<polygon points="258.564065 298.603757 237.354584 315.467858 233.354584 308.539655 " stroke-width="2.000000" fill="rgb(0,0,0)"  stroke="rgb(0,0,0)" />
<line x1="258.6" y1="298.6" x2="278.6" y2="333.2" stroke="rgb(0,0,0)"  stroke-width="2.0"/>
<line x1="258.6" y1="298.6" x2="293.2" y2="278.6" stroke="rgb(0,0,0)"  stroke-width="2.0"/>
<line x1="278.6" y1="333.2" x2="258.6" y2="367.9" stroke="rgb(0,0,0)"  stroke-width="2.0"/>
<line x1="278.6" y1="333.2" x2="301.9" y2="346.7" stroke="rgb(0,0,0)"  stroke-width="2.0"/>
<line x1="278.6" y1="333.2" x2="301.9" y2="319.7" stroke="rgb(0,0,0)"  stroke-width="2.0"/>
<line x1="258.6" y1="367.9" x2="278.6" y2="402.5" stroke="rgb(0,0,0)"  stroke-width="2.0"/>
<line x1="258.6" y1="367.9" x2="235.2" y2="381.4" stroke="rgb(0,0,0)"  stroke-width="2.0"/>
<line x1="258.6" y1="367.9" x2="235.2" y2="354.4" stroke="rgb(0,0,0)"  stroke-width="2.0"/>
<line x1="278.6" y1="399.5" x2="305.6" y2="399.5" stroke="rgb(0,0,0)"  stroke-width="2.0"/>
<line x1="278.6" y1="405.5" x2="305.6" y2="405.5" stroke="rgb(0,0,0)"  stroke-width="2.0"/>
<line x1="278.6" y1="402.5" x2="265.1" y2="425.9" stroke="rgb(0,0,0)"  stroke-width="2.0"/>
<line x1="290.2" y1="278.6" x2="290.2" y2="251.6" stroke="rgb(0,0,0)"  stroke-width="2.0"/>
<line x1="296.2" y1="278.6" x2="296.2" y2="251.6" stroke="rgb(0,0,0)"  stroke-width="2.0"/>
<line x1="293.2" y1="278.6" x2="316.6" y2="292.1" stroke="rgb(0,0,0)"  stroke-width="2.0"/>
<line x1="339.1" y1="292.1" x2="362.5" y2="278.6" stroke="rgb(0,0,0)"  stroke-width="2.0"/>
<line x1="327.8" y1="311.6" x2="327.8" y2="325.6" stroke="rgb(0,0,0)"  stroke-width="2.0"/>
<line x1="359.1" y1="274.4" x2="360.5" y2="273.6" stroke="rgb(0,0,0)"  stroke-width="1.0"/>
<line x1="356.4" y1="271.0" x2="358.9" y2="269.5" stroke="rgb(0,0,0)"  stroke-width="1.0"/>
<line x1="353.7" y1="267.6" x2="357.3" y2="265.5" stroke="rgb(0,0,0)"  stroke-width="1.0"/>
<line x1="351.0" y1="264.2" x2="355.7" y2="261.5" stroke="rgb(0,0,0)"  stroke-width="1.0"/>
<line x1="348.3" y1="260.8" x2="354.1" y2="257.4" stroke="rgb(0,0,0)"  stroke-width="1.0"/>
<line x1="345.6" y1="257.4" x2="352.6" y2="253.4" stroke="rgb(0,0,0)"  stroke-width="1.0"/>
<line x1="362.5" y1="278.6" x2="397.1" y2="258.6" stroke="rgb(0,0,0)"  stroke-width="2.0"/>
<line x1="362.5" y1="278.6" x2="382.5" y2="313.2" stroke="rgb(0,0,0)"  stroke-width="2.0"/>
<line x1="397.1" y1="258.6" x2="424.1" y2="258.6" stroke="rgb(0,0,0)"  stroke-width="2.0"/>
<line x1="397.1" y1="258.6" x2="410.6" y2="282.0" stroke="rgb(0,0,0)"  stroke-width="2.0"/>
<line x1="397.1" y1="258.6" x2="397.1" y2="218.6" stroke="rgb(0,0,0)"  stroke-width="2.0"/>
<line x1="364.8" y1="195.1" x2="339.1" y2="203.4" stroke="rgb(0,0,0)"  stroke-width="2.0"/>
<line x1="369.5" y1="146.5" x2="361.3" y2="135.2" stroke="rgb(0,0,0)"  stroke-width="2.0"/>
<line x1="417.1" y1="157.1" x2="433.0" y2="135.2" stroke="rgb(0,0,0)"  stroke-width="2.0"/>
<line x1="385.1" y1="314.7" x2="371.6" y2="338.1" stroke="rgb(0,0,0)"  stroke-width="2.0"/>
<line x1="379.9" y1="311.7" x2="366.4" y2="335.1" stroke="rgb(0,0,0)"  stroke-width="2.0"/>
<line x1="382.5" y1="313.2" x2="409.5" y2="313.2" stroke="rgb(0,0,0)"  stroke-width="2.0"/>
<line x1="429.0" y1="324.5" x2="442.5" y2="347.9" stroke="rgb(0,0,0)"  stroke-width="2.0"/>
<line x1="429.0" y1="302.0" x2="436.0" y2="289.9" stroke="rgb(0,0,0)"  stroke-width="2.0"/>
<polygon points="442.487113 347.885789 421.277632 364.749891 417.277632 357.821687 " stroke-width="2.000000" fill="rgb(0,0,0)"  stroke="rgb(0,0,0)" />
<line x1="442.5" y1="347.9" x2="462.5" y2="382.5" stroke="rgb(0,0,0)"  stroke-width="2.0"/>
<line x1="442.5" y1="347.9" x2="477.1" y2="327.9" stroke="rgb(0,0,0)"  stroke-width="2.0"/>
<line x1="462.5" y1="382.5" x2="442.5" y2="417.2" stroke="rgb(0,0,0)"  stroke-width="2.0"/>
<line x1="462.5" y1="382.5" x2="485.9" y2="396.0" stroke="rgb(0,0,0)"  stroke-width="2.0"/>
<line x1="462.5" y1="382.5" x2="485.9" y2="369.0" stroke="rgb(0,0,0)"  stroke-width="2.0"/>
<line x1="442.5" y1="420.2" x2="415.5" y2="420.2" stroke="rgb(0,0,0)"  stroke-width="2.0"/>
<line x1="442.5" y1="414.2" x2="415.5" y2="414.2" stroke="rgb(0,0,0)"  stroke-width="2.0"/>
<line x1="442.5" y1="417.2" x2="456.0" y2="440.6" stroke="rgb(0,0,0)"  stroke-width="2.0"/>
<line x1="474.1" y1="327.9" x2="474.1" y2="300.9" stroke="rgb(0,0,0)"  stroke-width="2.0"/>
<line x1="480.1" y1="327.9" x2="480.1" y2="300.9" stroke="rgb(0,0,0)"  stroke-width="2.0"/>
<line x1="477.1" y1="327.9" x2="500.5" y2="341.4" stroke="rgb(0,0,0)"  stroke-width="2.0"/>
<line x1="523.0" y1="341.4" x2="546.4" y2="327.9" stroke="rgb(0,0,0)"  stroke-width="2.0"/>
<line x1="511.8" y1="360.9" x2="511.8" y2="374.9" stroke="rgb(0,0,0)"  stroke-width="2.0"/>
<line x1="581.1" y1="347.9" x2="581.1" y2="374.9" stroke="rgb(0,0,0)"  stroke-width="2.0"/>
<line x1="615.7" y1="327.9" x2="639.1" y2="341.4" stroke="rgb(0,0,0)"  stroke-width="2.0"/>
<line x1="650.3" y1="267.9" x2="685.0" y2="287.9" stroke="rgb(0,0,0)"  stroke-width="2.0"/>
<line x1="650.3" y1="227.9" x2="673.7" y2="214.4" stroke="rgb(0,0,0)"  stroke-width="2.0"/>
<line x1="612.7" y1="207.9" x2="612.7" y2="180.9" stroke="rgb(0,0,0)"  stroke-width="2.0"/>
<line x1="618.7" y1="207.9" x2="618.7" y2="180.9" stroke="rgb(0,0,0)"  stroke-width="2.0"/>
<line x1="546.4" y1="287.9" x2="523.0" y2="274.4" stroke="rgb(0,0,0)"  stroke-width="2.0"/>
<line x1="685.0" y1="287.9" x2="712.0" y2="287.9" stroke="rgb(0,0,0)"  stroke-width="2.0"/>
<line x1="685.0" y1="287.9" x2="698.5" y2="264.5" stroke="rgb(0,0,0)"  stroke-width="2.0"/>
<line x1="685.0" y1="287.9" x2="685.0" y2="314.9" stroke="rgb(0,0,0)"  stroke-width="2.0"/>
<line x1="220.2" y1="107.8" x2="193.2" y2="107.8" stroke="rgb(0,0,0)"  stroke-width="2.0"/>
<line x1="193.2" y1="107.8" x2="180.8" y2="145.8" stroke="rgb(0,0,0)"  stroke-width="2.0"/>
<line x1="180.8" y1="145.8" x2="213.2" y2="169.3" stroke="rgb(0,0,0)"  stroke-width="2.0"/>
<line x1="213.2" y1="169.3" x2="245.6" y2="145.8" stroke="rgb(0,0,0)"  stroke-width="2.0"/>
<line x1="213.8" y1="160.0" x2="236.5" y2="143.5" stroke="rgb(0,0,0)"  stroke-width="2.0"/>
<line x1="245.6" y1="145.8" x2="237.2" y2="120.1" stroke="rgb(0,0,0)"  stroke-width="2.0"/>
<line x1="390.1" y1="157.1" x2="417.1" y2="157.1" stroke="rgb(0,0,0)"  stroke-width="2.0"/>
<line x1="417.1" y1="157.1" x2="425.4" y2="182.5" stroke="rgb(0,0,0)"  stroke-width="2.0"/>
<line x1="412.1" y1="165.0" x2="417.9" y2="182.9" stroke="rgb(0,0,0)"  stroke-width="2.0"/>
<line x1="419.0" y1="202.7" x2="397.1" y2="218.6" stroke="rgb(0,0,0)"  stroke-width="2.0"/>
<line x1="397.1" y1="218.6" x2="364.8" y2="195.1" stroke="rgb(0,0,0)"  stroke-width="2.0"/>
<line x1="396.5" y1="209.3" x2="373.9" y2="192.8" stroke="rgb(0,0,0)"  stroke-width="2.0"/>
<line x1="364.8" y1="195.1" x2="373.1" y2="169.4" stroke="rgb(0,0,0)"  stroke-width="2.0"/>
<line x1="127.3" y1="86.4" x2="115.0" y2="124.4" stroke="rgb(0,0,0)"  stroke-width="2.0"/>
<line x1="132.3" y1="94.3" x2="123.7" y2="120.9" stroke="rgb(0,0,0)"  stroke-width="2.0"/>
<line x1="115.0" y1="124.4" x2="141.7" y2="154.1" stroke="rgb(0,0,0)"  stroke-width="2.0"/>
<line x1="141.7" y1="154.1" x2="180.8" y2="145.8" stroke="rgb(0,0,0)"  stroke-width="2.0"/>
<line x1="146.1" y1="145.8" x2="173.5" y2="140.0" stroke="rgb(0,0,0)"  stroke-width="2.0"/>
<line x1="193.2" y1="107.8" x2="166.4" y2="78.0" stroke="rgb(0,0,0)"  stroke-width="2.0"/>
<line x1="183.8" y1="108.1" x2="165.1" y2="87.3" stroke="rgb(0,0,0)"  stroke-width="2.0"/>
<line x1="166.4" y1="78.0" x2="127.3" y2="86.4" stroke="rgb(0,0,0)"  stroke-width="2.0"/>
<line x1="615.7" y1="327.9" x2="615.7" y2="287.9" stroke="rgb(0,0,0)"  stroke-width="2.0"/>
<line x1="615.7" y1="287.9" x2="581.1" y2="267.9" stroke="rgb(0,0,0)"  stroke-width="2.0"/>
<line x1="606.9" y1="291.1" x2="582.6" y2="277.1" stroke="rgb(0,0,0)"  stroke-width="2.0"/>
<line x1="581.1" y1="267.9" x2="546.4" y2="287.9" stroke="rgb(0,0,0)"  stroke-width="2.0"/>
<line x1="546.4" y1="287.9" x2="546.4" y2="327.9" stroke="rgb(0,0,0)"  stroke-width="2.0"/>
<line x1="553.6" y1="293.9" x2="553.6" y2="321.9" stroke="rgb(0,0,0)"  stroke-width="2.0"/>
<line x1="546.4" y1="327.9" x2="581.1" y2="347.9" stroke="rgb(0,0,0)"  stroke-width="2.0"/>
<line x1="581.1" y1="347.9" x2="615.7" y2="327.9" stroke="rgb(0,0,0)"  stroke-width="2.0"/>
<line x1="582.6" y1="338.7" x2="606.9" y2="324.7" stroke="rgb(0,0,0)"  stroke-width="2.0"/>
<line x1="615.7" y1="207.9" x2="592.3" y2="221.4" stroke="rgb(0,0,0)"  stroke-width="2.0"/>
<line x1="581.1" y1="240.9" x2="581.1" y2="267.9" stroke="rgb(0,0,0)"  stroke-width="2.0"/>
<line x1="615.7" y1="287.9" x2="650.3" y2="267.9" stroke="rgb(0,0,0)"  stroke-width="2.0"/>
<line x1="650.3" y1="267.9" x2="650.3" y2="227.9" stroke="rgb(0,0,0)"  stroke-width="2.0"/>
<line x1="643.1" y1="261.9" x2="643.1" y2="233.9" stroke="rgb(0,0,0)"  stroke-width="2.0"/>
<line x1="650.3" y1="227.9" x2="615.7" y2="207.9" stroke="rgb(0,0,0)"  stroke-width="2.0"/>
<text x="575.051178" y="235.885789" fill="rgb(255,12,12)"  stroke="rgb(255,12,12)" stroke-width="1" font-size="16" >O</text>
<text x="247.205081" y="217.321724" fill="rgb(191,191,191)"  stroke="rgb(191,191,191)" stroke-width="1" font-size="16" >H</text>
<text x="137.923048" y="297.321724" fill="rgb(191,191,191)"  stroke="rgb(191,191,191)" stroke-width="1" font-size="16" >H</text>
<text x="34.000000" y="237.321724" fill="rgb(191,191,191)"  stroke="rgb(191,191,191)" stroke-width="1" font-size="16" >H</text>
<text x="88.641016" y="291.962741" fill="rgb(191,191,191)"  stroke="rgb(191,191,191)" stroke-width="1" font-size="16" >H</text>
<text x="48.641016" y="291.962741" fill="rgb(191,191,191)"  stroke="rgb(191,191,191)" stroke-width="1" font-size="16" >H</text>
<text x="678.974226" y="335.885789" fill="rgb(127,178,255)"  stroke="rgb(127,178,255)" stroke-width="1" font-size="16" >F</text>
<text x="698.974226" y="261.244773" fill="rgb(127,178,255)"  stroke="rgb(127,178,255)" stroke-width="1" font-size="16" >F</text>
<text x="718.974226" y="295.885789" fill="rgb(127,178,255)"  stroke="rgb(127,178,255)" stroke-width="1" font-size="16" >F</text>
<text x="227.205081" y="251.962741" fill="rgb(191,191,191)"  stroke="rgb(191,191,191)" stroke-width="1" font-size="16" >H</text>
<text x="609.692194" y="175.885789" fill="rgb(255,12,12)"  stroke="rgb(255,12,12)" stroke-width="1" font-size="16" >O</text>
<text x="505.769145" y="355.885789" fill="rgb(12,12,255)"  stroke="rgb(12,12,255)" stroke-width="1" font-size="16" >N</text>
<text x="471.128129" y="295.885789" fill="rgb(255,12,12)"  stroke="rgb(255,12,12)" stroke-width="1" font-size="16" >O</text>
<text x="431.128129" y="266.603757" fill="rgb(191,191,191)"  stroke="rgb(191,191,191)" stroke-width="1" font-size="16" >H</text>
<text x="505.769145" y="275.885789" fill="rgb(191,191,191)"  stroke="rgb(191,191,191)" stroke-width="1" font-size="16" >H</text>
<text x="678.974226" y="215.885789" fill="rgb(191,191,191)"  stroke="rgb(191,191,191)" stroke-width="1" font-size="16" >H</text>
<text x="644.333210" y="355.885789" fill="rgb(191,191,191)"  stroke="rgb(191,191,191)" stroke-width="1" font-size="16" >H</text>
<text x="575.051178" y="395.885789" fill="rgb(191,191,191)"  stroke="rgb(191,191,191)" stroke-width="1" font-size="16" >H</text>
<text x="505.769145" y="395.885789" fill="rgb(191,191,191)"  stroke="rgb(191,191,191)" stroke-width="1" font-size="16" >H</text>
<text x="491.128129" y="370.526805" fill="rgb(191,191,191)"  stroke="rgb(191,191,191)" stroke-width="1" font-size="16" >H</text>
<text x="491.128129" y="410.526805" fill="rgb(191,191,191)"  stroke="rgb(191,191,191)" stroke-width="1" font-size="16" >H</text>
<text x="436.487113" y="286.603757" fill="rgb(191,191,191)"  stroke="rgb(191,191,191)" stroke-width="1" font-size="16" >H</text>
<text x="434.639539" y="132.689406" fill="rgb(191,191,191)"  stroke="rgb(191,191,191)" stroke-width="1" font-size="16" >H</text>
<text x="320.725189" y="215.453026" fill="rgb(191,191,191)"  stroke="rgb(191,191,191)" stroke-width="1" font-size="16" >H</text>
<text x="411.128129" y="301.244773" fill="rgb(191,191,191)"  stroke="rgb(191,191,191)" stroke-width="1" font-size="16" >H</text>
<text x="456.487113" y="459.808837" fill="rgb(255,12,12)"  stroke="rgb(255,12,12)" stroke-width="1" font-size="16" >OH</text>
<text x="321.846097" y="346.603757" fill="rgb(191,191,191)"  stroke="rgb(191,191,191)" stroke-width="1" font-size="16" >H</text>
<text x="217.923048" y="355.885789" fill="rgb(191,191,191)"  stroke="rgb(191,191,191)" stroke-width="1" font-size="16" >H</text>
<text x="217.923048" y="395.885789" fill="rgb(191,191,191)"  stroke="rgb(191,191,191)" stroke-width="1" font-size="16" >H</text>
<text x="307.205081" y="321.244773" fill="rgb(191,191,191)"  stroke="rgb(191,191,191)" stroke-width="1" font-size="16" >H</text>
<text x="307.205081" y="361.244773" fill="rgb(191,191,191)"  stroke="rgb(191,191,191)" stroke-width="1" font-size="16" >H</text>
<text x="252.564065" y="237.321724" fill="rgb(191,191,191)"  stroke="rgb(191,191,191)" stroke-width="1" font-size="16" >H</text>
<text x="172.800536" y="48.000000" fill="rgb(191,191,191)"  stroke="rgb(191,191,191)" stroke-width="1" font-size="16" >H</text>
<text x="94.548728" y="64.632935" fill="rgb(191,191,191)"  stroke="rgb(191,191,191)" stroke-width="1" font-size="16" >H</text>
<text x="69.827369" y="140.717457" fill="rgb(191,191,191)"  stroke="rgb(191,191,191)" stroke-width="1" font-size="16" >H</text>
<text x="123.357817" y="200.169043" fill="rgb(191,191,191)"  stroke="rgb(191,191,191)" stroke-width="1" font-size="16" >H</text>
<text x="277.608021" y="166.170994" fill="rgb(191,191,191)"  stroke="rgb(191,191,191)" stroke-width="1" font-size="16" >H</text>
<text x="217.923048" y="326.603757" fill="rgb(191,191,191)"  stroke="rgb(191,191,191)" stroke-width="1" font-size="16" >H</text>
<text x="232.564065" y="271.962741" fill="rgb(12,12,255)"  stroke="rgb(12,12,255)" stroke-width="1" font-size="16" >N</text>
<text x="172.564065" y="306.603757" fill="rgb(255,12,12)"  stroke="rgb(255,12,12)" stroke-width="1" font-size="16" >O</text>
<text x="250.716491" y="83.407374" fill="rgb(191,191,191)"  stroke="rgb(191,191,191)" stroke-width="1" font-size="16" >H</text>
<text x="227.205081" y="115.768054" fill="rgb(12,12,255)"  stroke="rgb(12,12,255)" stroke-width="1" font-size="16" >N</text>
<text x="152.564065" y="202.680708" fill="rgb(191,191,191)"  stroke="rgb(191,191,191)" stroke-width="1" font-size="16" >H</text>
<text x="137.923048" y="257.321724" fill="rgb(12,12,255)"  stroke="rgb(12,12,255)" stroke-width="1" font-size="16" >N</text>
<text x="103.282032" y="197.321724" fill="rgb(255,12,12)"  stroke="rgb(255,12,12)" stroke-width="1" font-size="16" >O</text>
<text x="371.128129" y="165.050086" fill="rgb(12,12,255)"  stroke="rgb(12,12,255)" stroke-width="1" font-size="16" >N</text>
<text x="396.487113" y="425.167821" fill="rgb(255,12,12)"  stroke="rgb(255,12,12)" stroke-width="1" font-size="16" >O</text>
<text x="401.846097" y="375.885789" fill="rgb(191,191,191)"  stroke="rgb(191,191,191)" stroke-width="1" font-size="16" >H</text>
<text x="416.487113" y="321.244773" fill="rgb(12,12,255)"  stroke="rgb(12,12,255)" stroke-width="1" font-size="16" >N</text>
<text x="356.487113" y="355.885789" fill="rgb(255,12,12)"  stroke="rgb(255,12,12)" stroke-width="1" font-size="16" >O</text>
<text x="423.488809" y="203.092347" fill="rgb(12,12,255)"  stroke="rgb(12,12,255)" stroke-width="1" font-size="16" >N</text>
<text x="347.616719" y="132.689406" fill="rgb(191,191,191)"  stroke="rgb(191,191,191)" stroke-width="1" font-size="16" >H</text>
<text x="336.487113" y="251.962741" fill="rgb(191,191,191)"  stroke="rgb(191,191,191)" stroke-width="1" font-size="16" >H</text>
<text x="321.846097" y="306.603757" fill="rgb(12,12,255)"  stroke="rgb(12,12,255)" stroke-width="1" font-size="16" >N</text>
<text x="287.205081" y="246.603757" fill="rgb(255,12,12)"  stroke="rgb(255,12,12)" stroke-width="1" font-size="16" >O</text>
<text x="240.564065" y="445.167821" fill="rgb(255,12,12)"  stroke="rgb(255,12,12)" stroke-width="1" font-size="16" >HO</text>
<text x="312.564065" y="410.526805" fill="rgb(255,12,12)"  stroke="rgb(255,12,12)" stroke-width="1" font-size="16" >O</text>
</svg>
</g>
<text font-size="18.000000" fill ="black" font-family="sans-serif"
x="10.000000" y="20.000000" >ZINC98216843</text>
</svg>
