<?xml version="1.0"?>
<svg version="1.1" id="topsvg"
xmlns="http://www.w3.org/2000/svg" xmlns:xlink="http://www.w3.org/1999/xlink"
xmlns:cml="http://www.xml-cml.org/schema" x="0" y="0" width="200px" height="200px" viewBox="0 0 100 100">
<title>ZINC25757012 - Open Babel Depiction</title>
<rect x="0" y="0" width="100" height="100" fill="white"/>
<g transform="translate(0,0)">
<svg width="100" height="100" x="0" y="0" viewBox="0 0 388.154 408.694"
font-family="sans-serif" stroke="rgb(0,0,0)" stroke-width="2"  stroke-linecap="round">
<line x1="78.2" y1="234.9" x2="111.3" y2="254.0" stroke="rgb(0,0,0)"  stroke-width="2.0"/>
<line x1="78.2" y1="234.9" x2="53.0" y2="234.9" stroke="rgb(0,0,0)"  stroke-width="2.0"/>
<line x1="78.2" y1="234.9" x2="65.6" y2="256.8" stroke="rgb(0,0,0)"  stroke-width="2.0"/>
<line x1="78.2" y1="234.9" x2="78.2" y2="209.7" stroke="rgb(0,0,0)"  stroke-width="2.0"/>
<line x1="111.3" y1="292.2" x2="89.5" y2="304.9" stroke="rgb(0,0,0)"  stroke-width="2.0"/>
<line x1="144.4" y1="311.4" x2="144.4" y2="336.6" stroke="rgb(0,0,0)"  stroke-width="2.0"/>
<line x1="177.5" y1="292.2" x2="243.7" y2="330.5" stroke="rgb(0,0,0)"  stroke-width="2.0"/>
<line x1="177.5" y1="254.0" x2="210.6" y2="234.9" stroke="rgb(0,0,0)"  stroke-width="2.0"/>
<line x1="144.4" y1="234.9" x2="144.4" y2="209.7" stroke="rgb(0,0,0)"  stroke-width="2.0"/>
<line x1="205.0" y1="188.2" x2="195.9" y2="180.0" stroke="rgb(0,0,0)"  stroke-width="2.0"/>
<line x1="257.7" y1="183.8" x2="258.7" y2="185.1" stroke="rgb(0,0,0)"  stroke-width="1.0"/>
<line x1="262.3" y1="179.7" x2="264.0" y2="182.0" stroke="rgb(0,0,0)"  stroke-width="1.0"/>
<line x1="266.9" y1="175.6" x2="269.3" y2="179.0" stroke="rgb(0,0,0)"  stroke-width="1.0"/>
<line x1="271.4" y1="171.5" x2="274.6" y2="175.9" stroke="rgb(0,0,0)"  stroke-width="1.0"/>
<line x1="276.0" y1="167.4" x2="280.0" y2="172.8" stroke="rgb(0,0,0)"  stroke-width="1.0"/>
<line x1="280.6" y1="163.3" x2="285.3" y2="169.7" stroke="rgb(0,0,0)"  stroke-width="1.0"/>
<line x1="252.0" y1="189.0" x2="244.0" y2="112.9" stroke="rgb(0,0,0)"  stroke-width="2.0"/>
<line x1="271.4" y1="219.1" x2="296.5" y2="221.7" stroke="rgb(0,0,0)"  stroke-width="2.0"/>
<line x1="270.8" y1="225.0" x2="295.9" y2="227.7" stroke="rgb(0,0,0)"  stroke-width="2.0"/>
<line x1="248.2" y1="263.2" x2="250.8" y2="275.1" stroke="rgb(0,0,0)"  stroke-width="2.0"/>
<line x1="282.9" y1="166.5" x2="308.0" y2="163.9" stroke="rgb(0,0,0)"  stroke-width="2.0"/>
<line x1="282.9" y1="166.5" x2="297.8" y2="186.9" stroke="rgb(0,0,0)"  stroke-width="2.0"/>
<line x1="282.9" y1="166.5" x2="280.3" y2="141.4" stroke="rgb(0,0,0)"  stroke-width="2.0"/>
<line x1="244.0" y1="112.9" x2="206.0" y2="116.9" stroke="rgb(0,0,0)"  stroke-width="2.0"/>
<line x1="244.0" y1="112.9" x2="240.0" y2="74.9" stroke="rgb(0,0,0)"  stroke-width="2.0"/>
<line x1="244.0" y1="112.9" x2="269.1" y2="110.3" stroke="rgb(0,0,0)"  stroke-width="2.0"/>
<line x1="206.0" y1="116.9" x2="183.0" y2="106.7" stroke="rgb(0,0,0)"  stroke-width="2.0"/>
<line x1="206.0" y1="116.9" x2="203.4" y2="91.8" stroke="rgb(0,0,0)"  stroke-width="2.0"/>
<line x1="206.0" y1="116.9" x2="195.7" y2="140.0" stroke="rgb(0,0,0)"  stroke-width="2.0"/>
<line x1="240.0" y1="74.9" x2="250.3" y2="51.9" stroke="rgb(0,0,0)"  stroke-width="2.0"/>
<line x1="240.0" y1="74.9" x2="265.1" y2="72.3" stroke="rgb(0,0,0)"  stroke-width="2.0"/>
<line x1="240.0" y1="74.9" x2="217.0" y2="64.7" stroke="rgb(0,0,0)"  stroke-width="2.0"/>
<line x1="246.7" y1="330.5" x2="246.7" y2="355.7" stroke="rgb(0,0,0)"  stroke-width="2.0"/>
<line x1="240.7" y1="330.5" x2="240.7" y2="355.7" stroke="rgb(0,0,0)"  stroke-width="2.0"/>
<line x1="243.7" y1="330.5" x2="265.6" y2="317.9" stroke="rgb(0,0,0)"  stroke-width="2.0"/>
<line x1="288.1" y1="317.9" x2="309.9" y2="330.5" stroke="rgb(0,0,0)"  stroke-width="2.0"/>
<line x1="309.9" y1="330.5" x2="335.2" y2="330.5" stroke="rgb(0,0,0)"  stroke-width="2.0"/>
<line x1="309.9" y1="330.5" x2="322.5" y2="308.6" stroke="rgb(0,0,0)"  stroke-width="2.0"/>
<line x1="309.9" y1="330.5" x2="309.9" y2="355.7" stroke="rgb(0,0,0)"  stroke-width="2.0"/>
<line x1="144.4" y1="311.4" x2="177.5" y2="292.2" stroke="rgb(0,0,0)"  stroke-width="2.0"/>
<line x1="177.5" y1="292.2" x2="177.5" y2="254.0" stroke="rgb(0,0,0)"  stroke-width="2.0"/>
<line x1="170.3" y1="286.2" x2="170.3" y2="260.0" stroke="rgb(0,0,0)"  stroke-width="2.0"/>
<line x1="177.5" y1="254.0" x2="144.4" y2="234.9" stroke="rgb(0,0,0)"  stroke-width="2.0"/>
<line x1="144.4" y1="234.9" x2="111.3" y2="254.0" stroke="rgb(0,0,0)"  stroke-width="2.0"/>
<line x1="142.8" y1="244.2" x2="120.1" y2="257.3" stroke="rgb(0,0,0)"  stroke-width="2.0"/>
<line x1="111.3" y1="254.0" x2="111.3" y2="292.2" stroke="rgb(0,0,0)"  stroke-width="2.0"/>
<line x1="111.3" y1="292.2" x2="144.4" y2="311.4" stroke="rgb(0,0,0)"  stroke-width="2.0"/>
<line x1="120.1" y1="289.0" x2="142.8" y2="302.1" stroke="rgb(0,0,0)"  stroke-width="2.0"/>
<line x1="213.3" y1="209.8" x2="210.6" y2="234.9" stroke="rgb(0,0,0)"  stroke-width="2.0"/>
<line x1="210.6" y1="234.9" x2="234.0" y2="245.3" stroke="rgb(0,0,0)"  stroke-width="2.0"/>
<line x1="219.0" y1="230.8" x2="235.0" y2="237.9" stroke="rgb(0,0,0)"  stroke-width="2.0"/>
<line x1="254.2" y1="240.8" x2="271.1" y2="222.1" stroke="rgb(0,0,0)"  stroke-width="2.0"/>
<line x1="271.1" y1="222.1" x2="252.0" y2="189.0" stroke="rgb(0,0,0)"  stroke-width="2.0"/>
<line x1="252.0" y1="189.0" x2="227.3" y2="194.2" stroke="rgb(0,0,0)"  stroke-width="2.0"/>
<text x="165.088974" y="109.379506" fill="rgb(191,191,191)"  stroke="rgb(191,191,191)" stroke-width="1" font-size="16" >H</text>
<text x="53.111111" y="276.017347" fill="rgb(191,191,191)"  stroke="rgb(191,191,191)" stroke-width="1" font-size="16" >H</text>
<text x="72.222222" y="204.693710" fill="rgb(191,191,191)"  stroke="rgb(191,191,191)" stroke-width="1" font-size="16" >H</text>
<text x="72.222222" y="319.360376" fill="rgb(191,191,191)"  stroke="rgb(191,191,191)" stroke-width="1" font-size="16" >H</text>
<text x="138.425053" y="357.582599" fill="rgb(191,191,191)"  stroke="rgb(191,191,191)" stroke-width="1" font-size="16" >H</text>
<text x="138.425053" y="204.693710" fill="rgb(191,191,191)"  stroke="rgb(191,191,191)" stroke-width="1" font-size="16" >H</text>
<text x="180.218547" y="179.327436" fill="rgb(191,191,191)"  stroke="rgb(191,191,191)" stroke-width="1" font-size="16" >H</text>
<text x="314.945433" y="170.494479" fill="rgb(191,191,191)"  stroke="rgb(191,191,191)" stroke-width="1" font-size="16" >H</text>
<text x="299.399055" y="205.412217" fill="rgb(191,191,191)"  stroke="rgb(191,191,191)" stroke-width="1" font-size="16" >H</text>
<text x="272.937286" y="136.476953" fill="rgb(191,191,191)"  stroke="rgb(191,191,191)" stroke-width="1" font-size="16" >H</text>
<text x="276.032386" y="116.935264" fill="rgb(191,191,191)"  stroke="rgb(191,191,191)" stroke-width="1" font-size="16" >H</text>
<text x="34.000000" y="242.915932" fill="rgb(191,191,191)"  stroke="rgb(191,191,191)" stroke-width="1" font-size="16" >H</text>
<text x="196.011402" y="86.913048" fill="rgb(191,191,191)"  stroke="rgb(191,191,191)" stroke-width="1" font-size="16" >H</text>
<text x="184.460334" y="159.843622" fill="rgb(191,191,191)"  stroke="rgb(191,191,191)" stroke-width="1" font-size="16" >H</text>
<text x="249.570617" y="48.000000" fill="rgb(191,191,191)"  stroke="rgb(191,191,191)" stroke-width="1" font-size="16" >H</text>
<text x="272.037076" y="78.922427" fill="rgb(191,191,191)"  stroke="rgb(191,191,191)" stroke-width="1" font-size="16" >H</text>
<text x="199.106501" y="67.371359" fill="rgb(191,191,191)"  stroke="rgb(191,191,191)" stroke-width="1" font-size="16" >H</text>
<text x="342.154352" y="338.471487" fill="rgb(191,191,191)"  stroke="rgb(191,191,191)" stroke-width="1" font-size="16" >H</text>
<text x="323.043241" y="305.370072" fill="rgb(191,191,191)"  stroke="rgb(191,191,191)" stroke-width="1" font-size="16" >H</text>
<text x="303.932130" y="376.693710" fill="rgb(191,191,191)"  stroke="rgb(191,191,191)" stroke-width="1" font-size="16" >H</text>
<text x="247.492468" y="295.849285" fill="rgb(191,191,191)"  stroke="rgb(191,191,191)" stroke-width="1" font-size="16" >H</text>
<text x="303.134117" y="234.052974" fill="rgb(255,12,12)"  stroke="rgb(255,12,12)" stroke-width="1" font-size="16" >O</text>
<text x="208.623194" y="204.903095" fill="rgb(12,12,255)"  stroke="rgb(12,12,255)" stroke-width="1" font-size="16" >N</text>
<text x="239.545621" y="258.462310" fill="rgb(12,12,255)"  stroke="rgb(12,12,255)" stroke-width="1" font-size="16" >N</text>
<text x="237.729299" y="376.693710" fill="rgb(255,12,12)"  stroke="rgb(255,12,12)" stroke-width="1" font-size="16" >O</text>
<text x="270.830715" y="319.360376" fill="rgb(255,12,12)"  stroke="rgb(255,12,12)" stroke-width="1" font-size="16" >O</text>
</svg>
</g>
<text font-size="18.000000" fill ="black" font-family="sans-serif"
x="10.000000" y="20.000000" >ZINC25757012</text>
</svg>
