<?xml version="1.0"?>
<svg version="1.1" id="topsvg"
xmlns="http://www.w3.org/2000/svg" xmlns:xlink="http://www.w3.org/1999/xlink"
xmlns:cml="http://www.xml-cml.org/schema" x="0" y="0" width="200px" height="200px" viewBox="0 0 100 100">
<title>ZINC08215662 - Open Babel Depiction</title>
<rect x="0" y="0" width="100" height="100" fill="white"/>
<g transform="translate(0,0)">
<svg width="100" height="100" x="0" y="0" viewBox="0 0 499.085 374.584"
font-family="sans-serif" stroke="rgb(0,0,0)" stroke-width="2"  stroke-linecap="round">
<line x1="367.9" y1="192.4" x2="371.9" y2="166.6" stroke="rgb(0,0,0)"  stroke-width="2.0"/>
<line x1="392.1" y1="255.7" x2="412.5" y2="272.1" stroke="rgb(0,0,0)"  stroke-width="2.0"/>
<line x1="280.2" y1="261.7" x2="219.3" y2="238.3" stroke="rgb(0,0,0)"  stroke-width="2.0"/>
<line x1="302.5" y1="304.2" x2="286.1" y2="324.5" stroke="rgb(0,0,0)"  stroke-width="2.0"/>
<polygon points="219.322107 238.331004 208.619573 262.596357 201.870583 258.300879 " stroke-width="2.000000" fill="rgb(0,0,0)"  stroke="rgb(0,0,0)" />
<line x1="238.9" y1="204.4" x2="262.8" y2="215.1" stroke="rgb(0,0,0)"  stroke-width="2.0"/>
<line x1="238.9" y1="204.4" x2="260.0" y2="189.1" stroke="rgb(0,0,0)"  stroke-width="2.0"/>
<line x1="212.7" y1="175.4" x2="230.2" y2="155.9" stroke="rgb(0,0,0)"  stroke-width="2.0"/>
<line x1="205.9" y1="179.3" x2="205.2" y2="177.8" stroke="rgb(0,0,0)"  stroke-width="1.0"/>
<line x1="200.4" y1="182.4" x2="199.2" y2="179.8" stroke="rgb(0,0,0)"  stroke-width="1.0"/>
<line x1="195.0" y1="185.5" x2="193.3" y2="181.7" stroke="rgb(0,0,0)"  stroke-width="1.0"/>
<line x1="189.5" y1="188.7" x2="187.3" y2="183.7" stroke="rgb(0,0,0)"  stroke-width="1.0"/>
<line x1="184.0" y1="191.8" x2="181.3" y2="185.7" stroke="rgb(0,0,0)"  stroke-width="1.0"/>
<line x1="178.6" y1="194.9" x2="175.3" y2="187.6" stroke="rgb(0,0,0)"  stroke-width="1.0"/>
<line x1="212.7" y1="175.4" x2="204.6" y2="150.5" stroke="rgb(0,0,0)"  stroke-width="2.0"/>
<polygon points="176.956522 191.279255 160.383724 170.574328 167.311928 166.574328 " stroke-width="2.000000" fill="rgb(0,0,0)"  stroke="rgb(0,0,0)" />
<line x1="177.0" y1="191.3" x2="137.8" y2="191.3" stroke="rgb(0,0,0)"  stroke-width="2.0"/>
<line x1="137.8" y1="191.3" x2="124.8" y2="168.6" stroke="rgb(0,0,0)"  stroke-width="2.0"/>
<line x1="137.8" y1="191.3" x2="115.2" y2="204.3" stroke="rgb(0,0,0)"  stroke-width="2.0"/>
<line x1="137.8" y1="191.3" x2="137.8" y2="217.4" stroke="rgb(0,0,0)"  stroke-width="2.0"/>
<line x1="105.3" y1="157.4" x2="92.1" y2="157.4" stroke="rgb(0,0,0)"  stroke-width="2.0"/>
<line x1="79.9" y1="173.0" x2="78.3" y2="173.0" stroke="rgb(0,0,0)"  stroke-width="1.0"/>
<line x1="80.6" y1="175.1" x2="77.7" y2="175.1" stroke="rgb(0,0,0)"  stroke-width="1.0"/>
<line x1="81.2" y1="177.2" x2="77.1" y2="177.2" stroke="rgb(0,0,0)"  stroke-width="1.0"/>
<line x1="81.9" y1="179.4" x2="76.4" y2="179.4" stroke="rgb(0,0,0)"  stroke-width="1.0"/>
<line x1="82.5" y1="181.5" x2="75.8" y2="181.5" stroke="rgb(0,0,0)"  stroke-width="1.0"/>
<line x1="83.1" y1="183.6" x2="75.1" y2="183.6" stroke="rgb(0,0,0)"  stroke-width="1.0"/>
<line x1="66.1" y1="157.4" x2="53.0" y2="157.4" stroke="rgb(0,0,0)"  stroke-width="2.0"/>
<line x1="79.1" y1="144.4" x2="79.1" y2="131.3" stroke="rgb(0,0,0)"  stroke-width="2.0"/>
<line x1="79.1" y1="105.3" x2="79.1" y2="92.1" stroke="rgb(0,0,0)"  stroke-width="2.0"/>
<line x1="63.6" y1="79.9" x2="63.6" y2="78.3" stroke="rgb(0,0,0)"  stroke-width="1.0"/>
<line x1="61.4" y1="80.6" x2="61.4" y2="77.7" stroke="rgb(0,0,0)"  stroke-width="1.0"/>
<line x1="59.3" y1="81.2" x2="59.3" y2="77.1" stroke="rgb(0,0,0)"  stroke-width="1.0"/>
<line x1="57.2" y1="81.9" x2="57.2" y2="76.4" stroke="rgb(0,0,0)"  stroke-width="1.0"/>
<line x1="55.0" y1="82.5" x2="55.0" y2="75.8" stroke="rgb(0,0,0)"  stroke-width="1.0"/>
<line x1="52.9" y1="83.1" x2="52.9" y2="75.1" stroke="rgb(0,0,0)"  stroke-width="1.0"/>
<line x1="79.1" y1="66.1" x2="79.1" y2="53.0" stroke="rgb(0,0,0)"  stroke-width="2.0"/>
<line x1="92.1" y1="79.1" x2="105.3" y2="79.1" stroke="rgb(0,0,0)"  stroke-width="2.0"/>
<line x1="131.3" y1="79.1" x2="144.4" y2="79.1" stroke="rgb(0,0,0)"  stroke-width="2.0"/>
<line x1="156.6" y1="63.6" x2="158.2" y2="63.6" stroke="rgb(0,0,0)"  stroke-width="1.0"/>
<line x1="156.0" y1="61.4" x2="158.8" y2="61.4" stroke="rgb(0,0,0)"  stroke-width="1.0"/>
<line x1="155.3" y1="59.3" x2="159.5" y2="59.3" stroke="rgb(0,0,0)"  stroke-width="1.0"/>
<line x1="154.7" y1="57.2" x2="160.1" y2="57.2" stroke="rgb(0,0,0)"  stroke-width="1.0"/>
<line x1="154.0" y1="55.0" x2="160.8" y2="55.0" stroke="rgb(0,0,0)"  stroke-width="1.0"/>
<line x1="153.4" y1="52.9" x2="161.4" y2="52.9" stroke="rgb(0,0,0)"  stroke-width="1.0"/>
<line x1="170.4" y1="79.1" x2="183.5" y2="79.1" stroke="rgb(0,0,0)"  stroke-width="2.0"/>
<line x1="157.4" y1="92.1" x2="157.4" y2="105.3" stroke="rgb(0,0,0)"  stroke-width="2.0"/>
<line x1="203.0" y1="67.9" x2="209.6" y2="56.5" stroke="rgb(0,0,0)"  stroke-width="2.0"/>
<line x1="209.3" y1="128.5" x2="218.1" y2="118.7" stroke="rgb(0,0,0)"  stroke-width="2.0"/>
<line x1="420.5" y1="293.1" x2="418.5" y2="306.1" stroke="rgb(0,0,0)"  stroke-width="2.0"/>
<line x1="434.7" y1="275.6" x2="446.9" y2="270.9" stroke="rgb(0,0,0)"  stroke-width="2.0"/>
<line x1="302.5" y1="304.2" x2="295.7" y2="278.9" stroke="rgb(0,0,0)"  stroke-width="2.0"/>
<line x1="303.3" y1="259.3" x2="325.2" y2="245.1" stroke="rgb(0,0,0)"  stroke-width="2.0"/>
<line x1="325.2" y1="245.1" x2="355.6" y2="269.7" stroke="rgb(0,0,0)"  stroke-width="2.0"/>
<line x1="325.3" y1="254.4" x2="346.4" y2="271.5" stroke="rgb(0,0,0)"  stroke-width="2.0"/>
<line x1="355.6" y1="269.7" x2="346.2" y2="294.1" stroke="rgb(0,0,0)"  stroke-width="2.0"/>
<line x1="328.7" y1="305.5" x2="302.5" y2="304.2" stroke="rgb(0,0,0)"  stroke-width="2.0"/>
<line x1="327.0" y1="298.2" x2="308.9" y2="297.3" stroke="rgb(0,0,0)"  stroke-width="2.0"/>
<line x1="392.1" y1="255.7" x2="355.6" y2="269.7" stroke="rgb(0,0,0)"  stroke-width="2.0"/>
<line x1="325.2" y1="245.1" x2="329.3" y2="219.3" stroke="rgb(0,0,0)"  stroke-width="2.0"/>
<line x1="343.4" y1="201.8" x2="367.9" y2="192.4" stroke="rgb(0,0,0)"  stroke-width="2.0"/>
<line x1="347.9" y1="207.8" x2="364.8" y2="201.3" stroke="rgb(0,0,0)"  stroke-width="2.0"/>
<line x1="367.9" y1="192.4" x2="388.2" y2="208.8" stroke="rgb(0,0,0)"  stroke-width="2.0"/>
<line x1="396.2" y1="229.8" x2="392.1" y2="255.7" stroke="rgb(0,0,0)"  stroke-width="2.0"/>
<line x1="388.8" y1="230.7" x2="386.0" y2="248.6" stroke="rgb(0,0,0)"  stroke-width="2.0"/>
<line x1="212.7" y1="175.4" x2="177.0" y2="191.3" stroke="rgb(0,0,0)"  stroke-width="2.0"/>
<line x1="177.0" y1="191.3" x2="179.7" y2="217.3" stroke="rgb(0,0,0)"  stroke-width="2.0"/>
<line x1="193.8" y1="232.9" x2="219.3" y2="238.3" stroke="rgb(0,0,0)"  stroke-width="2.0"/>
<line x1="219.3" y1="238.3" x2="238.9" y2="204.4" stroke="rgb(0,0,0)"  stroke-width="2.0"/>
<line x1="238.9" y1="204.4" x2="212.7" y2="175.4" stroke="rgb(0,0,0)"  stroke-width="2.0"/>
<text x="416.553994" y="288.293296" fill="rgb(12,12,255)"  stroke="rgb(12,12,255)" stroke-width="1" font-size="16" >N</text>
<text x="73.130435" y="126.260870" fill="rgb(255,12,12)"  stroke="rgb(255,12,12)" stroke-width="1" font-size="16" >O</text>
<text x="73.130435" y="87.130435" fill="rgb(255,127,0)"  stroke="rgb(255,127,0)" stroke-width="1" font-size="16" >P</text>
<text x="34.000000" y="87.130435" fill="rgb(255,12,12)"  stroke="rgb(255,12,12)" stroke-width="1" font-size="16" >O</text>
<text x="73.130435" y="48.000000" fill="rgb(255,12,12)"  stroke="rgb(255,12,12)" stroke-width="1" font-size="16" >OH</text>
<text x="112.260870" y="87.130435" fill="rgb(255,12,12)"  stroke="rgb(255,12,12)" stroke-width="1" font-size="16" >O</text>
<text x="151.391304" y="87.130435" fill="rgb(255,127,0)"  stroke="rgb(255,127,0)" stroke-width="1" font-size="16" >P</text>
<text x="151.391304" y="48.000000" fill="rgb(255,12,12)"  stroke="rgb(255,12,12)" stroke-width="1" font-size="16" >O</text>
<text x="190.521739" y="87.130435" fill="rgb(255,12,12)"  stroke="rgb(255,12,12)" stroke-width="1" font-size="16" >O</text>
<text x="151.391304" y="126.260870" fill="rgb(255,12,12)"  stroke="rgb(255,12,12)" stroke-width="1" font-size="16" >OH</text>
<text x="194.611983" y="146.148218" fill="rgb(255,12,12)"  stroke="rgb(255,12,12)" stroke-width="1" font-size="16" >O</text>
<text x="22.000000" y="165.391304" fill="rgb(255,12,12)"  stroke="rgb(255,12,12)" stroke-width="1" font-size="16" >HO</text>
<text x="367.976572" y="161.744787" fill="rgb(191,191,191)"  stroke="rgb(191,191,191)" stroke-width="1" font-size="16" >H</text>
<text x="271.887044" y="342.584348" fill="rgb(191,191,191)"  stroke="rgb(191,191,191)" stroke-width="1" font-size="16" >H</text>
<text x="268.634755" y="228.358835" fill="rgb(191,191,191)"  stroke="rgb(191,191,191)" stroke-width="1" font-size="16" >H</text>
<text x="264.544511" y="189.442761" fill="rgb(191,191,191)"  stroke="rgb(191,191,191)" stroke-width="1" font-size="16" >H</text>
<text x="97.938136" y="218.844472" fill="rgb(191,191,191)"  stroke="rgb(191,191,191)" stroke-width="1" font-size="16" >H</text>
<text x="131.826087" y="238.409690" fill="rgb(191,191,191)"  stroke="rgb(191,191,191)" stroke-width="1" font-size="16" >H</text>
<text x="220.795355" y="117.068638" fill="rgb(191,191,191)"  stroke="rgb(191,191,191)" stroke-width="1" font-size="16" >H</text>
<text x="410.432645" y="326.941971" fill="rgb(191,191,191)"  stroke="rgb(191,191,191)" stroke-width="1" font-size="16" >H</text>
<text x="453.085402" y="274.270203" fill="rgb(191,191,191)"  stroke="rgb(191,191,191)" stroke-width="1" font-size="16" >H</text>
<text x="210.086957" y="53.242484" fill="rgb(191,191,191)"  stroke="rgb(191,191,191)" stroke-width="1" font-size="16" >H</text>
<text x="392.265283" y="225.019042" fill="rgb(12,12,255)"  stroke="rgb(12,12,255)" stroke-width="1" font-size="16" >N</text>
<text x="325.323815" y="214.416555" fill="rgb(12,12,255)"  stroke="rgb(12,12,255)" stroke-width="1" font-size="16" >N</text>
<text x="286.384923" y="274.377191" fill="rgb(12,12,255)"  stroke="rgb(12,12,255)" stroke-width="1" font-size="16" >N</text>
<text x="335.589432" y="314.222218" fill="rgb(12,12,255)"  stroke="rgb(12,12,255)" stroke-width="1" font-size="16" >N</text>
<text x="192.311616" y="279.342369" fill="rgb(191,191,191)"  stroke="rgb(191,191,191)" stroke-width="1" font-size="16" >H</text>
<text x="232.887324" y="154.283893" fill="rgb(191,191,191)"  stroke="rgb(191,191,191)" stroke-width="1" font-size="16" >H</text>
<text x="151.391304" y="165.391304" fill="rgb(191,191,191)"  stroke="rgb(191,191,191)" stroke-width="1" font-size="16" >H</text>
<text x="175.046766" y="238.195329" fill="rgb(255,12,12)"  stroke="rgb(255,12,12)" stroke-width="1" font-size="16" >O</text>
<text x="112.260870" y="165.391304" fill="rgb(255,12,12)"  stroke="rgb(255,12,12)" stroke-width="1" font-size="16" >O</text>
<text x="73.130435" y="165.391304" fill="rgb(255,127,0)"  stroke="rgb(255,127,0)" stroke-width="1" font-size="16" >P</text>
<text x="73.130435" y="204.521739" fill="rgb(255,12,12)"  stroke="rgb(255,12,12)" stroke-width="1" font-size="16" >O</text>
</svg>
</g>
<text font-size="18.000000" fill ="black" font-family="sans-serif"
x="10.000000" y="20.000000" >ZINC08215662</text>
</svg>
