<?xml version="1.0"?>
<svg version="1.1" id="topsvg"
xmlns="http://www.w3.org/2000/svg" xmlns:xlink="http://www.w3.org/1999/xlink"
xmlns:cml="http://www.xml-cml.org/schema" x="0" y="0" width="200px" height="200px" viewBox="0 0 100 100">
<title>ZINC13831539 - Open Babel Depiction</title>
<rect x="0" y="0" width="100" height="100" fill="white"/>
<g transform="translate(0,0)">
<svg width="100" height="100" x="0" y="0" viewBox="0 0 538.564 327.846"
font-family="sans-serif" stroke="rgb(0,0,0)" stroke-width="2"  stroke-linecap="round">
<line x1="458.6" y1="149.3" x2="445.1" y2="172.7" stroke="rgb(0,0,0)"  stroke-width="2.0"/>
<line x1="458.6" y1="149.3" x2="458.6" y2="122.3" stroke="rgb(0,0,0)"  stroke-width="2.0"/>
<line x1="458.6" y1="149.3" x2="435.2" y2="135.8" stroke="rgb(0,0,0)"  stroke-width="2.0"/>
<line x1="458.6" y1="149.3" x2="485.6" y2="149.3" stroke="rgb(0,0,0)"  stroke-width="2.0"/>
<line x1="425.6" y1="183.9" x2="398.6" y2="183.9" stroke="rgb(0,0,0)"  stroke-width="2.0"/>
<line x1="378.6" y1="149.3" x2="392.1" y2="125.9" stroke="rgb(0,0,0)"  stroke-width="2.0"/>
<line x1="338.6" y1="149.3" x2="325.1" y2="125.9" stroke="rgb(0,0,0)"  stroke-width="2.0"/>
<line x1="338.6" y1="218.6" x2="325.1" y2="241.9" stroke="rgb(0,0,0)"  stroke-width="2.0"/>
<line x1="305.6" y1="253.2" x2="278.6" y2="253.2" stroke="rgb(0,0,0)"  stroke-width="2.0"/>
<line x1="276.0" y1="254.7" x2="262.5" y2="231.3" stroke="rgb(0,0,0)"  stroke-width="2.0"/>
<line x1="281.2" y1="251.7" x2="267.7" y2="228.3" stroke="rgb(0,0,0)"  stroke-width="2.0"/>
<line x1="278.6" y1="253.2" x2="265.1" y2="276.6" stroke="rgb(0,0,0)"  stroke-width="2.0"/>
<line x1="245.6" y1="218.6" x2="231.6" y2="218.6" stroke="rgb(0,0,0)"  stroke-width="2.0"/>
<line x1="221.6" y1="231.6" x2="221.6" y2="245.6" stroke="rgb(0,0,0)"  stroke-width="2.0"/>
<line x1="215.6" y1="231.6" x2="215.6" y2="245.6" stroke="rgb(0,0,0)"  stroke-width="2.0"/>
<line x1="205.6" y1="221.6" x2="191.6" y2="221.6" stroke="rgb(0,0,0)"  stroke-width="2.0"/>
<line x1="205.6" y1="215.6" x2="191.6" y2="215.6" stroke="rgb(0,0,0)"  stroke-width="2.0"/>
<line x1="218.6" y1="205.6" x2="218.6" y2="178.6" stroke="rgb(0,0,0)"  stroke-width="2.0"/>
<line x1="183.9" y1="158.6" x2="160.5" y2="172.1" stroke="rgb(0,0,0)"  stroke-width="2.0"/>
<line x1="183.9" y1="118.6" x2="160.5" y2="105.1" stroke="rgb(0,0,0)"  stroke-width="2.0"/>
<line x1="218.6" y1="98.6" x2="218.6" y2="71.6" stroke="rgb(0,0,0)"  stroke-width="2.0"/>
<line x1="253.2" y1="118.6" x2="276.6" y2="105.1" stroke="rgb(0,0,0)"  stroke-width="2.0"/>
<line x1="264.5" y1="165.1" x2="276.6" y2="172.1" stroke="rgb(0,0,0)"  stroke-width="2.0"/>
<line x1="138.0" y1="172.1" x2="114.6" y2="158.6" stroke="rgb(0,0,0)"  stroke-width="2.0"/>
<line x1="114.6" y1="158.6" x2="80.0" y2="178.6" stroke="rgb(0,0,0)"  stroke-width="2.0"/>
<line x1="114.6" y1="158.6" x2="101.1" y2="135.2" stroke="rgb(0,0,0)"  stroke-width="2.0"/>
<line x1="114.6" y1="158.6" x2="128.1" y2="135.2" stroke="rgb(0,0,0)"  stroke-width="2.0"/>
<line x1="80.0" y1="178.6" x2="53.0" y2="178.6" stroke="rgb(0,0,0)"  stroke-width="2.0"/>
<line x1="80.0" y1="178.6" x2="66.5" y2="155.2" stroke="rgb(0,0,0)"  stroke-width="2.0"/>
<line x1="80.0" y1="178.6" x2="80.0" y2="205.6" stroke="rgb(0,0,0)"  stroke-width="2.0"/>
<line x1="245.6" y1="287.8" x2="231.6" y2="287.8" stroke="rgb(0,0,0)"  stroke-width="2.0"/>
<line x1="325.1" y1="103.4" x2="338.6" y2="80.0" stroke="rgb(0,0,0)"  stroke-width="2.0"/>
<line x1="338.6" y1="80.0" x2="338.6" y2="53.0" stroke="rgb(0,0,0)"  stroke-width="2.0"/>
<line x1="338.6" y1="80.0" x2="315.2" y2="66.5" stroke="rgb(0,0,0)"  stroke-width="2.0"/>
<line x1="338.6" y1="80.0" x2="365.6" y2="80.0" stroke="rgb(0,0,0)"  stroke-width="2.0"/>
<line x1="338.6" y1="149.3" x2="325.1" y2="172.7" stroke="rgb(0,0,0)"  stroke-width="2.0"/>
<line x1="325.2" y1="195.4" x2="338.6" y2="218.6" stroke="rgb(0,0,0)"  stroke-width="2.0"/>
<line x1="332.4" y1="193.5" x2="341.8" y2="209.8" stroke="rgb(0,0,0)"  stroke-width="2.0"/>
<line x1="338.6" y1="218.6" x2="365.6" y2="218.6" stroke="rgb(0,0,0)"  stroke-width="2.0"/>
<line x1="385.2" y1="207.1" x2="398.6" y2="183.9" stroke="rgb(0,0,0)"  stroke-width="2.0"/>
<line x1="379.9" y1="201.8" x2="389.3" y2="185.5" stroke="rgb(0,0,0)"  stroke-width="2.0"/>
<line x1="398.6" y1="183.9" x2="378.6" y2="149.3" stroke="rgb(0,0,0)"  stroke-width="2.0"/>
<line x1="378.6" y1="149.3" x2="338.6" y2="149.3" stroke="rgb(0,0,0)"  stroke-width="2.0"/>
<line x1="372.6" y1="156.5" x2="344.6" y2="156.5" stroke="rgb(0,0,0)"  stroke-width="2.0"/>
<line x1="183.9" y1="118.6" x2="218.6" y2="98.6" stroke="rgb(0,0,0)"  stroke-width="2.0"/>
<line x1="218.6" y1="98.6" x2="253.2" y2="118.6" stroke="rgb(0,0,0)"  stroke-width="2.0"/>
<line x1="220.2" y1="107.8" x2="244.4" y2="121.8" stroke="rgb(0,0,0)"  stroke-width="2.0"/>
<line x1="253.2" y1="118.6" x2="253.2" y2="145.6" stroke="rgb(0,0,0)"  stroke-width="2.0"/>
<line x1="241.8" y1="165.2" x2="218.6" y2="178.6" stroke="rgb(0,0,0)"  stroke-width="2.0"/>
<line x1="236.4" y1="159.9" x2="220.2" y2="169.3" stroke="rgb(0,0,0)"  stroke-width="2.0"/>
<line x1="218.6" y1="178.6" x2="183.9" y2="158.6" stroke="rgb(0,0,0)"  stroke-width="2.0"/>
<line x1="183.9" y1="158.6" x2="183.9" y2="118.6" stroke="rgb(0,0,0)"  stroke-width="2.0"/>
<line x1="191.1" y1="152.6" x2="191.1" y2="124.6" stroke="rgb(0,0,0)"  stroke-width="2.0"/>
<text x="392.564065" y="122.641016" fill="rgb(191,191,191)"  stroke="rgb(191,191,191)" stroke-width="1" font-size="16" >H</text>
<text x="34.000000" y="186.564065" fill="rgb(127,178,255)"  stroke="rgb(127,178,255)" stroke-width="1" font-size="16" >F</text>
<text x="54.000000" y="151.923048" fill="rgb(127,178,255)"  stroke="rgb(127,178,255)" stroke-width="1" font-size="16" >F</text>
<text x="74.000000" y="226.564065" fill="rgb(127,178,255)"  stroke="rgb(127,178,255)" stroke-width="1" font-size="16" >F</text>
<text x="252.564065" y="295.846097" fill="rgb(255,12,12)"  stroke="rgb(255,12,12)" stroke-width="1" font-size="16" >O</text>
<text x="312.564065" y="122.641016" fill="rgb(255,12,12)"  stroke="rgb(255,12,12)" stroke-width="1" font-size="16" >O</text>
<text x="452.564065" y="117.282032" fill="rgb(191,191,191)"  stroke="rgb(191,191,191)" stroke-width="1" font-size="16" >H</text>
<text x="417.923048" y="137.282032" fill="rgb(191,191,191)"  stroke="rgb(191,191,191)" stroke-width="1" font-size="16" >H</text>
<text x="492.564065" y="157.282032" fill="rgb(191,191,191)"  stroke="rgb(191,191,191)" stroke-width="1" font-size="16" >H</text>
<text x="143.282032" y="106.564065" fill="rgb(191,191,191)"  stroke="rgb(191,191,191)" stroke-width="1" font-size="16" >H</text>
<text x="212.564065" y="66.564065" fill="rgb(191,191,191)"  stroke="rgb(191,191,191)" stroke-width="1" font-size="16" >H</text>
<text x="281.846097" y="106.564065" fill="rgb(191,191,191)"  stroke="rgb(191,191,191)" stroke-width="1" font-size="16" >H</text>
<text x="88.641016" y="131.923048" fill="rgb(191,191,191)"  stroke="rgb(191,191,191)" stroke-width="1" font-size="16" >H</text>
<text x="128.641016" y="131.923048" fill="rgb(191,191,191)"  stroke="rgb(191,191,191)" stroke-width="1" font-size="16" >H</text>
<text x="212.564065" y="295.846097" fill="rgb(191,191,191)"  stroke="rgb(191,191,191)" stroke-width="1" font-size="16" >H</text>
<text x="332.564065" y="48.000000" fill="rgb(191,191,191)"  stroke="rgb(191,191,191)" stroke-width="1" font-size="16" >H</text>
<text x="297.923048" y="68.000000" fill="rgb(191,191,191)"  stroke="rgb(191,191,191)" stroke-width="1" font-size="16" >H</text>
<text x="372.564065" y="88.000000" fill="rgb(191,191,191)"  stroke="rgb(191,191,191)" stroke-width="1" font-size="16" >H</text>
<text x="281.846097" y="186.564065" fill="rgb(191,191,191)"  stroke="rgb(191,191,191)" stroke-width="1" font-size="16" >H</text>
<text x="212.564065" y="226.564065" fill="rgb(178,178,0)"  stroke="rgb(178,178,0)" stroke-width="1" font-size="16" >S</text>
<text x="432.564065" y="191.923048" fill="rgb(255,12,12)"  stroke="rgb(255,12,12)" stroke-width="1" font-size="16" >O</text>
<text x="312.564065" y="191.923048" fill="rgb(12,12,255)"  stroke="rgb(12,12,255)" stroke-width="1" font-size="16" >N</text>
<text x="372.564065" y="226.564065" fill="rgb(12,12,255)"  stroke="rgb(12,12,255)" stroke-width="1" font-size="16" >N</text>
<text x="312.564065" y="261.205081" fill="rgb(12,12,255)"  stroke="rgb(12,12,255)" stroke-width="1" font-size="16" >N</text>
<text x="312.564065" y="277.205081" fill="rgb(12,12,255)"  stroke="rgb(12,12,255)" stroke-width="1" font-size="16" >H</text>
<text x="252.564065" y="226.564065" fill="rgb(12,12,255)"  stroke="rgb(12,12,255)" stroke-width="1" font-size="16" >N</text>
<text x="212.564065" y="266.564065" fill="rgb(255,12,12)"  stroke="rgb(255,12,12)" stroke-width="1" font-size="16" >O</text>
<text x="172.564065" y="226.564065" fill="rgb(255,12,12)"  stroke="rgb(255,12,12)" stroke-width="1" font-size="16" >O</text>
<text x="258.005081" y="154.532065" fill="rgb(12,12,255)"  stroke="rgb(12,12,255)" stroke-width="1" font-size="16" >+</text>
<text x="247.205081" y="166.564065" fill="rgb(12,12,255)"  stroke="rgb(12,12,255)" stroke-width="1" font-size="16" >N</text>
<text x="143.282032" y="186.564065" fill="rgb(255,12,12)"  stroke="rgb(255,12,12)" stroke-width="1" font-size="16" >O</text>
</svg>
</g>
<text font-size="18.000000" fill ="black" font-family="sans-serif"
x="10.000000" y="20.000000" >ZINC13831539</text>
</svg>
