<?xml version="1.0"?>
<svg version="1.1" id="topsvg"
xmlns="http://www.w3.org/2000/svg" xmlns:xlink="http://www.w3.org/1999/xlink"
xmlns:cml="http://www.xml-cml.org/schema" x="0" y="0" width="200px" height="200px" viewBox="0 0 100 100">
<title>ZINC12953377 - Open Babel Depiction</title>
<rect x="0" y="0" width="100" height="100" fill="white"/>
<g transform="translate(0,0)">
<svg width="100" height="100" x="0" y="0" viewBox="0 0 391.769 274.641"
font-family="sans-serif" stroke="rgb(0,0,0)" stroke-width="2"  stroke-linecap="round">
<line x1="143.9" y1="200.0" x2="178.6" y2="180.0" stroke="rgb(0,0,0)"  stroke-width="2.0"/>
<line x1="143.9" y1="200.0" x2="120.5" y2="186.5" stroke="rgb(0,0,0)"  stroke-width="2.0"/>
<line x1="143.9" y1="200.0" x2="130.4" y2="223.4" stroke="rgb(0,0,0)"  stroke-width="2.0"/>
<line x1="143.9" y1="200.0" x2="157.4" y2="223.4" stroke="rgb(0,0,0)"  stroke-width="2.0"/>
<polygon points="178.564065 180.000000 195.428166 201.209481 188.499963 205.209481 " stroke-width="2.000000" fill="rgb(0,0,0)"  stroke="rgb(0,0,0)" />
<line x1="178.6" y1="180.0" x2="213.2" y2="160.0" stroke="rgb(0,0,0)"  stroke-width="2.0"/>
<line x1="178.6" y1="180.0" x2="165.1" y2="156.6" stroke="rgb(0,0,0)"  stroke-width="2.0"/>
<polygon points="213.205081 160.000000 230.069182 181.209481 223.140979 185.209481 " stroke-width="2.000000" fill="rgb(0,0,0)"  stroke="rgb(0,0,0)" />
<line x1="213.2" y1="160.0" x2="247.8" y2="140.0" stroke="rgb(0,0,0)"  stroke-width="2.0"/>
<line x1="213.2" y1="160.0" x2="199.7" y2="136.6" stroke="rgb(0,0,0)"  stroke-width="2.0"/>
<polygon points="247.846097 140.000000 264.710199 161.209481 257.781995 165.209481 " stroke-width="2.000000" fill="rgb(0,0,0)"  stroke="rgb(0,0,0)" />
<line x1="247.8" y1="140.0" x2="282.5" y2="120.0" stroke="rgb(0,0,0)"  stroke-width="2.0"/>
<line x1="247.8" y1="140.0" x2="234.3" y2="116.6" stroke="rgb(0,0,0)"  stroke-width="2.0"/>
<line x1="284.0" y1="117.4" x2="318.6" y2="137.4" stroke="rgb(0,0,0)"  stroke-width="2.0"/>
<line x1="281.0" y1="122.6" x2="315.6" y2="142.6" stroke="rgb(0,0,0)"  stroke-width="2.0"/>
<line x1="282.5" y1="120.0" x2="282.5" y2="93.0" stroke="rgb(0,0,0)"  stroke-width="2.0"/>
<line x1="317.1" y1="140.0" x2="340.5" y2="126.5" stroke="rgb(0,0,0)"  stroke-width="2.0"/>
<line x1="317.1" y1="140.0" x2="317.1" y2="167.0" stroke="rgb(0,0,0)"  stroke-width="2.0"/>
<line x1="295.5" y1="80.0" x2="309.5" y2="80.0" stroke="rgb(0,0,0)"  stroke-width="2.0"/>
<line x1="282.5" y1="67.0" x2="282.5" y2="53.0" stroke="rgb(0,0,0)"  stroke-width="2.0"/>
<line x1="269.5" y1="80.0" x2="255.5" y2="80.0" stroke="rgb(0,0,0)"  stroke-width="2.0"/>
<line x1="214.8" y1="105.4" x2="200.8" y2="105.4" stroke="rgb(0,0,0)"  stroke-width="2.0"/>
<line x1="180.2" y1="125.4" x2="166.2" y2="125.4" stroke="rgb(0,0,0)"  stroke-width="2.0"/>
<line x1="145.6" y1="145.4" x2="131.6" y2="145.4" stroke="rgb(0,0,0)"  stroke-width="2.0"/>
<line x1="98.0" y1="186.5" x2="85.9" y2="193.5" stroke="rgb(0,0,0)"  stroke-width="2.0"/>
<line x1="65.5" y1="190.2" x2="58.5" y2="178.1" stroke="rgb(0,0,0)"  stroke-width="2.0"/>
<line x1="70.7" y1="187.2" x2="63.7" y2="175.1" stroke="rgb(0,0,0)"  stroke-width="2.0"/>
<line x1="64.9" y1="209.1" x2="52.8" y2="216.1" stroke="rgb(0,0,0)"  stroke-width="2.0"/>
<line x1="61.9" y1="203.9" x2="49.8" y2="210.9" stroke="rgb(0,0,0)"  stroke-width="2.0"/>
<line x1="81.1" y1="211.3" x2="88.1" y2="223.4" stroke="rgb(0,0,0)"  stroke-width="2.0"/>
<text x="103.282032" y="188.000000" fill="rgb(255,12,12)"  stroke="rgb(255,12,12)" stroke-width="1" font-size="16" >O</text>
<text x="236.487113" y="88.000000" fill="rgb(191,191,191)"  stroke="rgb(191,191,191)" stroke-width="1" font-size="16" >H</text>
<text x="276.487113" y="48.000000" fill="rgb(191,191,191)"  stroke="rgb(191,191,191)" stroke-width="1" font-size="16" >H</text>
<text x="112.564065" y="153.358984" fill="rgb(191,191,191)"  stroke="rgb(191,191,191)" stroke-width="1" font-size="16" >H</text>
<text x="147.205081" y="133.358984" fill="rgb(191,191,191)"  stroke="rgb(191,191,191)" stroke-width="1" font-size="16" >H</text>
<text x="181.846097" y="113.358984" fill="rgb(191,191,191)"  stroke="rgb(191,191,191)" stroke-width="1" font-size="16" >H</text>
<text x="316.487113" y="88.000000" fill="rgb(191,191,191)"  stroke="rgb(191,191,191)" stroke-width="1" font-size="16" >H</text>
<text x="311.128129" y="188.000000" fill="rgb(191,191,191)"  stroke="rgb(191,191,191)" stroke-width="1" font-size="16" >H</text>
<text x="157.923048" y="242.641016" fill="rgb(191,191,191)"  stroke="rgb(191,191,191)" stroke-width="1" font-size="16" >H</text>
<text x="117.923048" y="242.641016" fill="rgb(191,191,191)"  stroke="rgb(191,191,191)" stroke-width="1" font-size="16" >H</text>
<text x="88.641016" y="242.641016" fill="rgb(255,12,12)"  stroke="rgb(255,12,12)" stroke-width="1" font-size="16" >OH</text>
<text x="34.000000" y="228.000000" fill="rgb(255,12,12)"  stroke="rgb(255,12,12)" stroke-width="1" font-size="16" >O</text>
<text x="48.641016" y="173.358984" fill="rgb(255,12,12)"  stroke="rgb(255,12,12)" stroke-width="1" font-size="16" >O</text>
<text x="68.641016" y="208.000000" fill="rgb(178,178,0)"  stroke="rgb(178,178,0)" stroke-width="1" font-size="16" >S</text>
<text x="152.564065" y="153.358984" fill="rgb(255,12,12)"  stroke="rgb(255,12,12)" stroke-width="1" font-size="16" >O</text>
<text x="187.205081" y="133.358984" fill="rgb(255,12,12)"  stroke="rgb(255,12,12)" stroke-width="1" font-size="16" >O</text>
<text x="221.846097" y="113.358984" fill="rgb(255,12,12)"  stroke="rgb(255,12,12)" stroke-width="1" font-size="16" >O</text>
<text x="287.287113" y="75.968000" fill="rgb(12,12,255)"  stroke="rgb(12,12,255)" stroke-width="1" font-size="16" >+</text>
<text x="276.487113" y="88.000000" fill="rgb(12,12,255)"  stroke="rgb(12,12,255)" stroke-width="1" font-size="16" >N</text>
<text x="345.769145" y="128.000000" fill="rgb(255,12,12)"  stroke="rgb(255,12,12)" stroke-width="1" font-size="16" >OH</text>
<text x="261.846097" y="182.641016" fill="rgb(191,191,191)"  stroke="rgb(191,191,191)" stroke-width="1" font-size="16" >H</text>
<text x="227.205081" y="202.641016" fill="rgb(191,191,191)"  stroke="rgb(191,191,191)" stroke-width="1" font-size="16" >H</text>
<text x="192.564065" y="222.641016" fill="rgb(191,191,191)"  stroke="rgb(191,191,191)" stroke-width="1" font-size="16" >H</text>
</svg>
</g>
<text font-size="18.000000" fill ="black" font-family="sans-serif"
x="10.000000" y="20.000000" >ZINC12953377</text>
</svg>
