<?xml version="1.0"?>
<svg version="1.1" id="topsvg"
xmlns="http://www.w3.org/2000/svg" xmlns:xlink="http://www.w3.org/1999/xlink"
xmlns:cml="http://www.xml-cml.org/schema" x="0" y="0" width="200px" height="200px" viewBox="0 0 100 100">
<title>ZINC22926532 - Open Babel Depiction</title>
<rect x="0" y="0" width="100" height="100" fill="white"/>
<g transform="translate(0,0)">
<svg width="100" height="100" x="0" y="0" viewBox="0 0 432.38 311.227"
font-family="sans-serif" stroke="rgb(0,0,0)" stroke-width="2"  stroke-linecap="round">
<line x1="360.3" y1="202.0" x2="336.2" y2="202.0" stroke="rgb(0,0,0)"  stroke-width="2.0"/>
<line x1="360.3" y1="202.0" x2="381.1" y2="190.0" stroke="rgb(0,0,0)"  stroke-width="2.0"/>
<line x1="360.3" y1="202.0" x2="360.3" y2="178.0" stroke="rgb(0,0,0)"  stroke-width="2.0"/>
<line x1="360.3" y1="202.0" x2="372.3" y2="222.9" stroke="rgb(0,0,0)"  stroke-width="2.0"/>
<line x1="323.2" y1="215.0" x2="323.2" y2="239.1" stroke="rgb(0,0,0)"  stroke-width="2.0"/>
<line x1="310.2" y1="202.0" x2="286.1" y2="202.0" stroke="rgb(0,0,0)"  stroke-width="2.0"/>
<line x1="323.2" y1="189.0" x2="323.2" y2="178.0" stroke="rgb(0,0,0)"  stroke-width="2.0"/>
<line x1="323.2" y1="239.1" x2="335.2" y2="260.0" stroke="rgb(0,0,0)"  stroke-width="2.0"/>
<line x1="323.2" y1="239.1" x2="347.3" y2="239.1" stroke="rgb(0,0,0)"  stroke-width="2.0"/>
<line x1="323.2" y1="239.1" x2="302.4" y2="251.2" stroke="rgb(0,0,0)"  stroke-width="2.0"/>
<line x1="286.1" y1="202.0" x2="249.1" y2="137.8" stroke="rgb(0,0,0)"  stroke-width="2.0"/>
<line x1="286.1" y1="202.0" x2="265.3" y2="214.1" stroke="rgb(0,0,0)"  stroke-width="2.0"/>
<line x1="286.1" y1="202.0" x2="286.1" y2="226.1" stroke="rgb(0,0,0)"  stroke-width="2.0"/>
<line x1="249.1" y1="137.8" x2="225.0" y2="137.8" stroke="rgb(0,0,0)"  stroke-width="2.0"/>
<line x1="249.1" y1="137.8" x2="249.1" y2="113.8" stroke="rgb(0,0,0)"  stroke-width="2.0"/>
<line x1="249.1" y1="137.8" x2="269.9" y2="125.8" stroke="rgb(0,0,0)"  stroke-width="2.0"/>
<line x1="212.0" y1="150.8" x2="212.0" y2="174.9" stroke="rgb(0,0,0)"  stroke-width="2.0"/>
<line x1="199.0" y1="137.8" x2="137.8" y2="137.8" stroke="rgb(0,0,0)"  stroke-width="2.0"/>
<polygon points="211.980898 125.600410 207.980898 112.995532 215.980898 112.995532 " stroke-width="2.000000" fill="rgb(0,0,0)"  stroke="rgb(0,0,0)" />
<line x1="212.0" y1="174.9" x2="224.0" y2="195.8" stroke="rgb(0,0,0)"  stroke-width="2.0"/>
<line x1="212.0" y1="174.9" x2="236.1" y2="174.9" stroke="rgb(0,0,0)"  stroke-width="2.0"/>
<line x1="212.0" y1="174.9" x2="191.1" y2="186.9" stroke="rgb(0,0,0)"  stroke-width="2.0"/>
<line x1="137.8" y1="137.8" x2="128.6" y2="160.1" stroke="rgb(0,0,0)"  stroke-width="2.0"/>
<line x1="147.4" y1="102.0" x2="170.7" y2="108.3" stroke="rgb(0,0,0)"  stroke-width="2.0"/>
<line x1="147.4" y1="102.0" x2="164.5" y2="85.0" stroke="rgb(0,0,0)"  stroke-width="2.0"/>
<line x1="121.2" y1="75.8" x2="138.2" y2="58.8" stroke="rgb(0,0,0)"  stroke-width="2.0"/>
<line x1="121.2" y1="75.8" x2="115.0" y2="52.6" stroke="rgb(0,0,0)"  stroke-width="2.0"/>
<line x1="76.2" y1="76.2" x2="68.4" y2="68.4" stroke="rgb(0,0,0)"  stroke-width="2.0"/>
<line x1="75.8" y1="121.2" x2="52.6" y2="115.0" stroke="rgb(0,0,0)"  stroke-width="2.0"/>
<line x1="75.8" y1="121.2" x2="58.8" y2="138.2" stroke="rgb(0,0,0)"  stroke-width="2.0"/>
<line x1="102.0" y1="147.4" x2="85.0" y2="164.5" stroke="rgb(0,0,0)"  stroke-width="2.0"/>
<line x1="102.0" y1="147.4" x2="117.9" y2="206.5" stroke="rgb(0,0,0)"  stroke-width="2.0"/>
<line x1="121.2" y1="75.8" x2="98.0" y2="82.0" stroke="rgb(0,0,0)"  stroke-width="2.0"/>
<line x1="82.0" y1="98.0" x2="75.8" y2="121.2" stroke="rgb(0,0,0)"  stroke-width="2.0"/>
<line x1="75.8" y1="121.2" x2="102.0" y2="147.4" stroke="rgb(0,0,0)"  stroke-width="2.0"/>
<line x1="102.0" y1="147.4" x2="137.8" y2="137.8" stroke="rgb(0,0,0)"  stroke-width="2.0"/>
<line x1="137.8" y1="137.8" x2="147.4" y2="102.0" stroke="rgb(0,0,0)"  stroke-width="2.0"/>
<line x1="147.4" y1="102.0" x2="121.2" y2="75.8" stroke="rgb(0,0,0)"  stroke-width="2.0"/>
<text x="141.429799" y="57.595243" fill="rgb(191,191,191)"  stroke="rgb(191,191,191)" stroke-width="1" font-size="16" >H</text>
<text x="280.127239" y="247.120343" fill="rgb(191,191,191)"  stroke="rgb(191,191,191)" stroke-width="1" font-size="16" >H</text>
<text x="243.054069" y="108.761386" fill="rgb(191,191,191)"  stroke="rgb(191,191,191)" stroke-width="1" font-size="16" >H</text>
<text x="275.160376" y="127.297971" fill="rgb(191,191,191)"  stroke="rgb(191,191,191)" stroke-width="1" font-size="16" >H</text>
<text x="224.517483" y="215.014035" fill="rgb(191,191,191)"  stroke="rgb(191,191,191)" stroke-width="1" font-size="16" >H</text>
<text x="243.054069" y="182.907727" fill="rgb(191,191,191)"  stroke="rgb(191,191,191)" stroke-width="1" font-size="16" >H</text>
<text x="173.874590" y="201.444313" fill="rgb(191,191,191)"  stroke="rgb(191,191,191)" stroke-width="1" font-size="16" >H</text>
<text x="117.647268" y="180.085700" fill="rgb(191,191,191)"  stroke="rgb(191,191,191)" stroke-width="1" font-size="16" >H</text>
<text x="177.239732" y="119.619866" fill="rgb(191,191,191)"  stroke="rgb(191,191,191)" stroke-width="1" font-size="16" >H</text>
<text x="167.644490" y="83.809933" fill="rgb(191,191,191)"  stroke="rgb(191,191,191)" stroke-width="1" font-size="16" >H</text>
<text x="248.020932" y="228.583757" fill="rgb(191,191,191)"  stroke="rgb(191,191,191)" stroke-width="1" font-size="16" >H</text>
<text x="105.619866" y="48.000000" fill="rgb(191,191,191)"  stroke="rgb(191,191,191)" stroke-width="1" font-size="16" >H</text>
<text x="34.000000" y="119.619866" fill="rgb(191,191,191)"  stroke="rgb(191,191,191)" stroke-width="1" font-size="16" >H</text>
<text x="43.595243" y="155.429799" fill="rgb(191,191,191)"  stroke="rgb(191,191,191)" stroke-width="1" font-size="16" >H</text>
<text x="69.809933" y="181.644490" fill="rgb(191,191,191)"  stroke="rgb(191,191,191)" stroke-width="1" font-size="16" >H</text>
<text x="115.215109" y="227.049665" fill="rgb(191,191,191)"  stroke="rgb(191,191,191)" stroke-width="1" font-size="16" >H</text>
<text x="53.190485" y="67.190485" fill="rgb(191,191,191)"  stroke="rgb(191,191,191)" stroke-width="1" font-size="16" >H</text>
<text x="317.200410" y="172.974001" fill="rgb(191,191,191)"  stroke="rgb(191,191,191)" stroke-width="1" font-size="16" >H</text>
<text x="205.980898" y="108.761386" fill="rgb(191,191,191)"  stroke="rgb(191,191,191)" stroke-width="1" font-size="16" >H</text>
<text x="79.405176" y="93.405176" fill="rgb(12,12,255)"  stroke="rgb(12,12,255)" stroke-width="1" font-size="16" >N</text>
<text x="328.000410" y="198.015172" fill="rgb(12,12,255)"  stroke="rgb(12,12,255)" stroke-width="1" font-size="16" >+</text>
<text x="317.200410" y="210.047172" fill="rgb(12,12,255)"  stroke="rgb(12,12,255)" stroke-width="1" font-size="16" >N</text>
<text x="216.780898" y="133.802557" fill="rgb(12,12,255)"  stroke="rgb(12,12,255)" stroke-width="1" font-size="16" >+</text>
<text x="205.980898" y="145.834557" fill="rgb(12,12,255)"  stroke="rgb(12,12,255)" stroke-width="1" font-size="16" >N</text>
<text x="386.379889" y="191.510587" fill="rgb(191,191,191)"  stroke="rgb(191,191,191)" stroke-width="1" font-size="16" >H</text>
<text x="354.273581" y="172.974001" fill="rgb(191,191,191)"  stroke="rgb(191,191,191)" stroke-width="1" font-size="16" >H</text>
<text x="372.810166" y="242.153480" fill="rgb(191,191,191)"  stroke="rgb(191,191,191)" stroke-width="1" font-size="16" >H</text>
<text x="335.736996" y="279.226650" fill="rgb(191,191,191)"  stroke="rgb(191,191,191)" stroke-width="1" font-size="16" >H</text>
<text x="354.273581" y="247.120343" fill="rgb(191,191,191)"  stroke="rgb(191,191,191)" stroke-width="1" font-size="16" >H</text>
<text x="285.094103" y="265.656928" fill="rgb(191,191,191)"  stroke="rgb(191,191,191)" stroke-width="1" font-size="16" >H</text>
</svg>
</g>
<text font-size="18.000000" fill ="black" font-family="sans-serif"
x="10.000000" y="20.000000" >ZINC22926532</text>
</svg>
