<?xml version="1.0"?>
<svg version="1.1" id="topsvg"
xmlns="http://www.w3.org/2000/svg" xmlns:xlink="http://www.w3.org/1999/xlink"
xmlns:cml="http://www.xml-cml.org/schema" x="0" y="0" width="200px" height="200px" viewBox="0 0 100 100">
<title>ZINC13831225 - Open Babel Depiction</title>
<rect x="0" y="0" width="100" height="100" fill="white"/>
<g transform="translate(0,0)">
<svg width="100" height="100" x="0" y="0" viewBox="0 0 573.993 371.831"
font-family="sans-serif" stroke="rgb(0,0,0)" stroke-width="2"  stroke-linecap="round">
<line x1="417.9" y1="76.0" x2="441.0" y2="107.9" stroke="rgb(0,0,0)"  stroke-width="2.0"/>
<line x1="417.9" y1="76.0" x2="393.7" y2="65.3" stroke="rgb(0,0,0)"  stroke-width="2.0"/>
<line x1="417.9" y1="76.0" x2="396.5" y2="91.5" stroke="rgb(0,0,0)"  stroke-width="2.0"/>
<line x1="417.9" y1="76.0" x2="428.6" y2="51.9" stroke="rgb(0,0,0)"  stroke-width="2.0"/>
<line x1="441.0" y1="107.9" x2="430.3" y2="132.0" stroke="rgb(0,0,0)"  stroke-width="2.0"/>
<line x1="441.0" y1="107.9" x2="465.2" y2="118.6" stroke="rgb(0,0,0)"  stroke-width="2.0"/>
<line x1="441.0" y1="107.9" x2="462.4" y2="92.4" stroke="rgb(0,0,0)"  stroke-width="2.0"/>
<line x1="483.3" y1="186.2" x2="500.9" y2="166.6" stroke="rgb(0,0,0)"  stroke-width="2.0"/>
<line x1="495.4" y1="223.7" x2="521.3" y2="229.2" stroke="rgb(0,0,0)"  stroke-width="2.0"/>
<line x1="469.1" y1="253.0" x2="477.2" y2="278.1" stroke="rgb(0,0,0)"  stroke-width="2.0"/>
<line x1="430.5" y1="244.8" x2="412.8" y2="264.4" stroke="rgb(0,0,0)"  stroke-width="2.0"/>
<line x1="371.1" y1="197.8" x2="348.2" y2="211.0" stroke="rgb(0,0,0)"  stroke-width="2.0"/>
<line x1="384.4" y1="154.3" x2="364.8" y2="136.6" stroke="rgb(0,0,0)"  stroke-width="2.0"/>
<line x1="388.5" y1="149.9" x2="368.8" y2="132.2" stroke="rgb(0,0,0)"  stroke-width="2.0"/>
<line x1="314.1" y1="191.3" x2="314.1" y2="151.9" stroke="rgb(0,0,0)"  stroke-width="2.0"/>
<line x1="279.9" y1="211.0" x2="266.7" y2="188.1" stroke="rgb(0,0,0)"  stroke-width="2.0"/>
<line x1="279.9" y1="211.0" x2="253.5" y2="211.0" stroke="rgb(0,0,0)"  stroke-width="2.0"/>
<line x1="268.7" y1="256.9" x2="245.8" y2="270.1" stroke="rgb(0,0,0)"  stroke-width="2.0"/>
<line x1="314.1" y1="270.1" x2="300.9" y2="293.0" stroke="rgb(0,0,0)"  stroke-width="2.0"/>
<line x1="314.1" y1="270.1" x2="327.3" y2="293.0" stroke="rgb(0,0,0)"  stroke-width="2.0"/>
<line x1="348.2" y1="250.4" x2="361.4" y2="273.3" stroke="rgb(0,0,0)"  stroke-width="2.0"/>
<line x1="348.2" y1="250.4" x2="374.6" y2="250.4" stroke="rgb(0,0,0)"  stroke-width="2.0"/>
<line x1="245.8" y1="270.1" x2="177.5" y2="230.7" stroke="rgb(0,0,0)"  stroke-width="2.0"/>
<line x1="245.8" y1="270.1" x2="232.6" y2="293.0" stroke="rgb(0,0,0)"  stroke-width="2.0"/>
<line x1="245.8" y1="270.1" x2="259.0" y2="293.0" stroke="rgb(0,0,0)"  stroke-width="2.0"/>
<line x1="177.5" y1="230.7" x2="172.8" y2="204.7" stroke="rgb(0,0,0)"  stroke-width="2.0"/>
<line x1="172.4" y1="269.8" x2="198.8" y2="269.8" stroke="rgb(0,0,0)"  stroke-width="2.0"/>
<line x1="172.4" y1="269.8" x2="185.6" y2="292.6" stroke="rgb(0,0,0)"  stroke-width="2.0"/>
<line x1="141.1" y1="293.8" x2="159.8" y2="312.4" stroke="rgb(0,0,0)"  stroke-width="2.0"/>
<line x1="141.1" y1="293.8" x2="134.3" y2="319.3" stroke="rgb(0,0,0)"  stroke-width="2.0"/>
<line x1="102.1" y1="288.6" x2="102.1" y2="315.0" stroke="rgb(0,0,0)"  stroke-width="2.0"/>
<line x1="102.1" y1="288.6" x2="79.2" y2="301.8" stroke="rgb(0,0,0)"  stroke-width="2.0"/>
<line x1="78.1" y1="257.4" x2="59.4" y2="276.0" stroke="rgb(0,0,0)"  stroke-width="2.0"/>
<line x1="78.1" y1="257.4" x2="52.6" y2="250.5" stroke="rgb(0,0,0)"  stroke-width="2.0"/>
<line x1="83.2" y1="218.3" x2="56.8" y2="218.3" stroke="rgb(0,0,0)"  stroke-width="2.0"/>
<line x1="83.2" y1="218.3" x2="70.0" y2="195.4" stroke="rgb(0,0,0)"  stroke-width="2.0"/>
<line x1="114.5" y1="194.3" x2="95.8" y2="175.6" stroke="rgb(0,0,0)"  stroke-width="2.0"/>
<line x1="114.5" y1="194.3" x2="121.3" y2="168.8" stroke="rgb(0,0,0)"  stroke-width="2.0"/>
<line x1="153.6" y1="199.4" x2="153.6" y2="173.0" stroke="rgb(0,0,0)"  stroke-width="2.0"/>
<line x1="153.6" y1="199.4" x2="176.4" y2="186.2" stroke="rgb(0,0,0)"  stroke-width="2.0"/>
<line x1="314.1" y1="151.9" x2="291.2" y2="138.7" stroke="rgb(0,0,0)"  stroke-width="2.0"/>
<line x1="314.1" y1="151.9" x2="327.3" y2="129.0" stroke="rgb(0,0,0)"  stroke-width="2.0"/>
<line x1="314.1" y1="151.9" x2="340.5" y2="151.9" stroke="rgb(0,0,0)"  stroke-width="2.0"/>
<line x1="279.9" y1="119.2" x2="279.9" y2="105.8" stroke="rgb(0,0,0)"  stroke-width="2.0"/>
<line x1="418.3" y1="207.3" x2="394.2" y2="196.6" stroke="rgb(0,0,0)"  stroke-width="2.0"/>
<line x1="383.7" y1="178.4" x2="386.5" y2="152.1" stroke="rgb(0,0,0)"  stroke-width="2.0"/>
<line x1="386.5" y1="152.1" x2="412.3" y2="146.6" stroke="rgb(0,0,0)"  stroke-width="2.0"/>
<line x1="431.5" y1="155.2" x2="444.7" y2="178.0" stroke="rgb(0,0,0)"  stroke-width="2.0"/>
<line x1="444.7" y1="178.0" x2="418.3" y2="207.3" stroke="rgb(0,0,0)"  stroke-width="2.0"/>
<line x1="435.3" y1="177.7" x2="417.0" y2="198.0" stroke="rgb(0,0,0)"  stroke-width="2.0"/>
<line x1="483.3" y1="186.2" x2="495.4" y2="223.7" stroke="rgb(0,0,0)"  stroke-width="2.0"/>
<line x1="478.3" y1="194.2" x2="486.7" y2="220.2" stroke="rgb(0,0,0)"  stroke-width="2.0"/>
<line x1="495.4" y1="223.7" x2="469.1" y2="253.0" stroke="rgb(0,0,0)"  stroke-width="2.0"/>
<line x1="469.1" y1="253.0" x2="430.5" y2="244.8" stroke="rgb(0,0,0)"  stroke-width="2.0"/>
<line x1="464.7" y1="244.7" x2="437.9" y2="239.0" stroke="rgb(0,0,0)"  stroke-width="2.0"/>
<line x1="430.5" y1="244.8" x2="418.3" y2="207.3" stroke="rgb(0,0,0)"  stroke-width="2.0"/>
<line x1="444.7" y1="178.0" x2="483.3" y2="186.2" stroke="rgb(0,0,0)"  stroke-width="2.0"/>
<line x1="279.9" y1="211.0" x2="279.9" y2="237.4" stroke="rgb(0,0,0)"  stroke-width="2.0"/>
<line x1="291.2" y1="256.9" x2="314.1" y2="270.1" stroke="rgb(0,0,0)"  stroke-width="2.0"/>
<line x1="314.1" y1="270.1" x2="348.2" y2="250.4" stroke="rgb(0,0,0)"  stroke-width="2.0"/>
<line x1="348.2" y1="250.4" x2="348.2" y2="211.0" stroke="rgb(0,0,0)"  stroke-width="2.0"/>
<line x1="348.2" y1="211.0" x2="314.1" y2="191.3" stroke="rgb(0,0,0)"  stroke-width="2.0"/>
<line x1="339.4" y1="214.2" x2="315.7" y2="200.5" stroke="rgb(0,0,0)"  stroke-width="2.0"/>
<line x1="314.1" y1="191.3" x2="279.9" y2="211.0" stroke="rgb(0,0,0)"  stroke-width="2.0"/>
<line x1="141.1" y1="293.8" x2="102.1" y2="288.6" stroke="rgb(0,0,0)"  stroke-width="2.0"/>
<line x1="102.1" y1="288.6" x2="78.1" y2="257.4" stroke="rgb(0,0,0)"  stroke-width="2.0"/>
<line x1="78.1" y1="257.4" x2="83.2" y2="218.3" stroke="rgb(0,0,0)"  stroke-width="2.0"/>
<line x1="83.2" y1="218.3" x2="114.5" y2="194.3" stroke="rgb(0,0,0)"  stroke-width="2.0"/>
<line x1="114.5" y1="194.3" x2="153.6" y2="199.4" stroke="rgb(0,0,0)"  stroke-width="2.0"/>
<line x1="153.6" y1="199.4" x2="177.5" y2="230.7" stroke="rgb(0,0,0)"  stroke-width="2.0"/>
<line x1="177.5" y1="230.7" x2="172.4" y2="269.8" stroke="rgb(0,0,0)"  stroke-width="2.0"/>
<line x1="172.4" y1="269.8" x2="141.1" y2="293.8" stroke="rgb(0,0,0)"  stroke-width="2.0"/>
<text x="186.109133" y="311.901640" fill="rgb(191,191,191)"  stroke="rgb(191,191,191)" stroke-width="1" font-size="16" >H</text>
<text x="466.922225" y="92.723572" fill="rgb(191,191,191)"  stroke="rgb(191,191,191)" stroke-width="1" font-size="16" >H</text>
<text x="503.635252" y="164.930772" fill="rgb(191,191,191)"  stroke="rgb(191,191,191)" stroke-width="1" font-size="16" >H</text>
<text x="527.993062" y="239.896403" fill="rgb(191,191,191)"  stroke="rgb(191,191,191)" stroke-width="1" font-size="16" >H</text>
<text x="475.249826" y="298.473701" fill="rgb(191,191,191)"  stroke="rgb(191,191,191)" stroke-width="1" font-size="16" >H</text>
<text x="398.148780" y="282.085368" fill="rgb(191,191,191)"  stroke="rgb(191,191,191)" stroke-width="1" font-size="16" >H</text>
<text x="254.236404" y="184.857987" fill="rgb(191,191,191)"  stroke="rgb(191,191,191)" stroke-width="1" font-size="16" >H</text>
<text x="234.530522" y="218.989577" fill="rgb(191,191,191)"  stroke="rgb(191,191,191)" stroke-width="1" font-size="16" >H</text>
<text x="288.367993" y="312.238813" fill="rgb(191,191,191)"  stroke="rgb(191,191,191)" stroke-width="1" font-size="16" >H</text>
<text x="327.779758" y="312.238813" fill="rgb(191,191,191)"  stroke="rgb(191,191,191)" stroke-width="1" font-size="16" >H</text>
<text x="361.911348" y="292.532931" fill="rgb(191,191,191)"  stroke="rgb(191,191,191)" stroke-width="1" font-size="16" >H</text>
<text x="381.617230" y="258.401341" fill="rgb(191,191,191)"  stroke="rgb(191,191,191)" stroke-width="1" font-size="16" >H</text>
<text x="220.104814" y="312.238813" fill="rgb(191,191,191)"  stroke="rgb(191,191,191)" stroke-width="1" font-size="16" >H</text>
<text x="259.516579" y="312.238813" fill="rgb(191,191,191)"  stroke="rgb(191,191,191)" stroke-width="1" font-size="16" >H</text>
<text x="164.507434" y="199.917573" fill="rgb(191,191,191)"  stroke="rgb(191,191,191)" stroke-width="1" font-size="16" >H</text>
<text x="205.815015" y="277.770051" fill="rgb(191,191,191)"  stroke="rgb(191,191,191)" stroke-width="1" font-size="16" >H</text>
<text x="471.041876" y="131.919435" fill="rgb(191,191,191)"  stroke="rgb(191,191,191)" stroke-width="1" font-size="16" >H</text>
<text x="163.004121" y="329.630739" fill="rgb(191,191,191)"  stroke="rgb(191,191,191)" stroke-width="1" font-size="16" >H</text>
<text x="124.935280" y="339.831254" fill="rgb(191,191,191)"  stroke="rgb(191,191,191)" stroke-width="1" font-size="16" >H</text>
<text x="96.061204" y="336.029910" fill="rgb(191,191,191)"  stroke="rgb(191,191,191)" stroke-width="1" font-size="16" >H</text>
<text x="61.929614" y="316.324028" fill="rgb(191,191,191)"  stroke="rgb(191,191,191)" stroke-width="1" font-size="16" >H</text>
<text x="44.200515" y="293.219016" fill="rgb(191,191,191)"  stroke="rgb(191,191,191)" stroke-width="1" font-size="16" >H</text>
<text x="34.000000" y="255.150175" fill="rgb(191,191,191)"  stroke="rgb(191,191,191)" stroke-width="1" font-size="16" >H</text>
<text x="37.801344" y="226.276098" fill="rgb(191,191,191)"  stroke="rgb(191,191,191)" stroke-width="1" font-size="16" >H</text>
<text x="57.507227" y="192.144509" fill="rgb(191,191,191)"  stroke="rgb(191,191,191)" stroke-width="1" font-size="16" >H</text>
<text x="80.612238" y="174.415410" fill="rgb(191,191,191)"  stroke="rgb(191,191,191)" stroke-width="1" font-size="16" >H</text>
<text x="118.681079" y="164.214895" fill="rgb(191,191,191)"  stroke="rgb(191,191,191)" stroke-width="1" font-size="16" >H</text>
<text x="147.555156" y="168.016239" fill="rgb(191,191,191)"  stroke="rgb(191,191,191)" stroke-width="1" font-size="16" >H</text>
<text x="181.686745" y="187.722121" fill="rgb(191,191,191)"  stroke="rgb(191,191,191)" stroke-width="1" font-size="16" >H</text>
<text x="327.779758" y="125.740340" fill="rgb(191,191,191)"  stroke="rgb(191,191,191)" stroke-width="1" font-size="16" >H</text>
<text x="347.485640" y="159.871930" fill="rgb(191,191,191)"  stroke="rgb(191,191,191)" stroke-width="1" font-size="16" >H</text>
<text x="273.942286" y="100.754282" fill="rgb(191,191,191)"  stroke="rgb(191,191,191)" stroke-width="1" font-size="16" >H</text>
<text x="419.007229" y="151.893665" fill="rgb(12,12,255)"  stroke="rgb(12,12,255)" stroke-width="1" font-size="16" >N</text>
<text x="376.337055" y="199.283694" fill="rgb(12,12,255)"  stroke="rgb(12,12,255)" stroke-width="1" font-size="16" >N</text>
<text x="351.168057" y="133.716213" fill="rgb(255,12,12)"  stroke="rgb(255,12,12)" stroke-width="1" font-size="16" >O</text>
<text x="273.942286" y="258.401341" fill="rgb(12,12,255)"  stroke="rgb(12,12,255)" stroke-width="1" font-size="16" >N</text>
<text x="273.942286" y="140.166047" fill="rgb(255,12,12)"  stroke="rgb(255,12,12)" stroke-width="1" font-size="16" >O</text>
<text x="375.867345" y="67.974230" fill="rgb(191,191,191)"  stroke="rgb(191,191,191)" stroke-width="1" font-size="16" >H</text>
<text x="379.986996" y="107.170093" fill="rgb(191,191,191)"  stroke="rgb(191,191,191)" stroke-width="1" font-size="16" >H</text>
<text x="427.901993" y="48.000000" fill="rgb(191,191,191)"  stroke="rgb(191,191,191)" stroke-width="1" font-size="16" >H</text>
</svg>
</g>
<text font-size="18.000000" fill ="black" font-family="sans-serif"
x="10.000000" y="20.000000" >ZINC13831225</text>
</svg>
