<?xml version="1.0"?>
<svg version="1.1" id="topsvg"
xmlns="http://www.w3.org/2000/svg" xmlns:xlink="http://www.w3.org/1999/xlink"
xmlns:cml="http://www.xml-cml.org/schema" x="0" y="0" width="200px" height="200px" viewBox="0 0 100 100">
<title>ZINC32522364 - Open Babel Depiction</title>
<rect x="0" y="0" width="100" height="100" fill="white"/>
<g transform="translate(0,0)">
<svg width="100" height="100" x="0" y="0" viewBox="0 0 364.581 350.371"
font-family="sans-serif" stroke="rgb(0,0,0)" stroke-width="2"  stroke-linecap="round">
<line x1="257.3" y1="214.7" x2="257.3" y2="188.9" stroke="rgb(0,0,0)"  stroke-width="2.0"/>
<line x1="257.3" y1="214.7" x2="270.2" y2="237.1" stroke="rgb(0,0,0)"  stroke-width="2.0"/>
<line x1="257.3" y1="214.7" x2="283.2" y2="214.7" stroke="rgb(0,0,0)"  stroke-width="2.0"/>
<line x1="257.3" y1="214.7" x2="235.0" y2="227.6" stroke="rgb(0,0,0)"  stroke-width="2.0"/>
<line x1="268.6" y1="169.4" x2="291.0" y2="156.5" stroke="rgb(0,0,0)"  stroke-width="2.0"/>
<line x1="246.1" y1="169.4" x2="190.1" y2="137.1" stroke="rgb(0,0,0)"  stroke-width="2.0"/>
<line x1="291.0" y1="156.5" x2="303.9" y2="134.1" stroke="rgb(0,0,0)"  stroke-width="2.0"/>
<line x1="291.0" y1="156.5" x2="278.0" y2="134.1" stroke="rgb(0,0,0)"  stroke-width="2.0"/>
<line x1="291.0" y1="156.5" x2="313.3" y2="169.4" stroke="rgb(0,0,0)"  stroke-width="2.0"/>
<polygon points="190.092751 137.058824 199.634532 112.531974 206.562735 116.531974 " stroke-width="2.000000" fill="rgb(0,0,0)"  stroke="rgb(0,0,0)" />
<line x1="190.1" y1="137.1" x2="156.5" y2="117.6" stroke="rgb(0,0,0)"  stroke-width="2.0"/>
<line x1="190.1" y1="137.1" x2="170.7" y2="170.7" stroke="rgb(0,0,0)"  stroke-width="2.0"/>
<line x1="156.5" y1="117.6" x2="156.5" y2="91.8" stroke="rgb(0,0,0)"  stroke-width="2.0"/>
<line x1="156.5" y1="117.6" x2="130.6" y2="117.6" stroke="rgb(0,0,0)"  stroke-width="2.0"/>
<line x1="156.5" y1="117.6" x2="143.6" y2="140.0" stroke="rgb(0,0,0)"  stroke-width="2.0"/>
<line x1="169.5" y1="78.8" x2="182.3" y2="78.8" stroke="rgb(0,0,0)"  stroke-width="2.0"/>
<line x1="156.5" y1="65.8" x2="156.5" y2="53.0" stroke="rgb(0,0,0)"  stroke-width="2.0"/>
<line x1="143.5" y1="78.8" x2="130.6" y2="78.8" stroke="rgb(0,0,0)"  stroke-width="2.0"/>
<line x1="131.9" y1="170.7" x2="118.9" y2="148.3" stroke="rgb(0,0,0)"  stroke-width="2.0"/>
<line x1="112.4" y1="204.3" x2="86.6" y2="204.3" stroke="rgb(0,0,0)"  stroke-width="2.0"/>
<line x1="131.9" y1="237.9" x2="118.9" y2="260.3" stroke="rgb(0,0,0)"  stroke-width="2.0"/>
<line x1="170.7" y1="237.9" x2="183.6" y2="260.3" stroke="rgb(0,0,0)"  stroke-width="2.0"/>
<line x1="190.1" y1="204.3" x2="215.9" y2="204.3" stroke="rgb(0,0,0)"  stroke-width="2.0"/>
<line x1="99.4" y1="271.5" x2="73.6" y2="271.5" stroke="rgb(0,0,0)"  stroke-width="2.0"/>
<line x1="73.6" y1="271.5" x2="51.3" y2="284.5" stroke="rgb(0,0,0)"  stroke-width="2.0"/>
<line x1="73.6" y1="271.5" x2="73.6" y2="297.4" stroke="rgb(0,0,0)"  stroke-width="2.0"/>
<line x1="73.6" y1="271.5" x2="60.7" y2="249.2" stroke="rgb(0,0,0)"  stroke-width="2.0"/>
<line x1="112.4" y1="204.3" x2="131.9" y2="237.9" stroke="rgb(0,0,0)"  stroke-width="2.0"/>
<line x1="131.9" y1="237.9" x2="170.7" y2="237.9" stroke="rgb(0,0,0)"  stroke-width="2.0"/>
<line x1="137.9" y1="230.7" x2="164.7" y2="230.7" stroke="rgb(0,0,0)"  stroke-width="2.0"/>
<line x1="170.7" y1="237.9" x2="190.1" y2="204.3" stroke="rgb(0,0,0)"  stroke-width="2.0"/>
<line x1="190.1" y1="204.3" x2="170.7" y2="170.7" stroke="rgb(0,0,0)"  stroke-width="2.0"/>
<line x1="180.9" y1="202.7" x2="167.4" y2="179.5" stroke="rgb(0,0,0)"  stroke-width="2.0"/>
<line x1="170.7" y1="170.7" x2="131.9" y2="170.7" stroke="rgb(0,0,0)"  stroke-width="2.0"/>
<line x1="131.9" y1="170.7" x2="112.4" y2="204.3" stroke="rgb(0,0,0)"  stroke-width="2.0"/>
<line x1="135.1" y1="179.5" x2="121.7" y2="202.7" stroke="rgb(0,0,0)"  stroke-width="2.0"/>
<text x="106.445692" y="145.058824" fill="rgb(191,191,191)"  stroke="rgb(191,191,191)" stroke-width="1" font-size="16" >H</text>
<text x="217.714914" y="242.117647" fill="rgb(191,191,191)"  stroke="rgb(191,191,191)" stroke-width="1" font-size="16" >H</text>
<text x="304.371004" y="130.848426" fill="rgb(191,191,191)"  stroke="rgb(191,191,191)" stroke-width="1" font-size="16" >H</text>
<text x="265.547474" y="130.848426" fill="rgb(191,191,191)"  stroke="rgb(191,191,191)" stroke-width="1" font-size="16" >H</text>
<text x="318.581402" y="183.882353" fill="rgb(191,191,191)"  stroke="rgb(191,191,191)" stroke-width="1" font-size="16" >H</text>
<text x="111.647059" y="125.647059" fill="rgb(191,191,191)"  stroke="rgb(191,191,191)" stroke-width="1" font-size="16" >H</text>
<text x="131.058824" y="159.269222" fill="rgb(191,191,191)"  stroke="rgb(191,191,191)" stroke-width="1" font-size="16" >H</text>
<text x="189.294118" y="86.823529" fill="rgb(191,191,191)"  stroke="rgb(191,191,191)" stroke-width="1" font-size="16" >H</text>
<text x="150.470588" y="48.000000" fill="rgb(191,191,191)"  stroke="rgb(191,191,191)" stroke-width="1" font-size="16" >H</text>
<text x="290.160606" y="222.705882" fill="rgb(191,191,191)"  stroke="rgb(191,191,191)" stroke-width="1" font-size="16" >H</text>
<text x="67.622163" y="212.303149" fill="rgb(191,191,191)"  stroke="rgb(191,191,191)" stroke-width="1" font-size="16" >H</text>
<text x="184.092751" y="279.547474" fill="rgb(191,191,191)"  stroke="rgb(191,191,191)" stroke-width="1" font-size="16" >H</text>
<text x="222.916280" y="212.303149" fill="rgb(191,191,191)"  stroke="rgb(191,191,191)" stroke-width="1" font-size="16" >H</text>
<text x="34.000000" y="298.959239" fill="rgb(191,191,191)"  stroke="rgb(191,191,191)" stroke-width="1" font-size="16" >H</text>
<text x="67.622163" y="318.371004" fill="rgb(191,191,191)"  stroke="rgb(191,191,191)" stroke-width="1" font-size="16" >H</text>
<text x="48.210398" y="245.925312" fill="rgb(191,191,191)"  stroke="rgb(191,191,191)" stroke-width="1" font-size="16" >H</text>
<text x="111.647059" y="86.823529" fill="rgb(191,191,191)"  stroke="rgb(191,191,191)" stroke-width="1" font-size="16" >H</text>
<text x="270.748841" y="256.328045" fill="rgb(191,191,191)"  stroke="rgb(191,191,191)" stroke-width="1" font-size="16" >H</text>
<text x="106.445692" y="279.547474" fill="rgb(255,12,12)"  stroke="rgb(255,12,12)" stroke-width="1" font-size="16" >O</text>
<text x="161.270588" y="74.791529" fill="rgb(12,12,255)"  stroke="rgb(12,12,255)" stroke-width="1" font-size="16" >+</text>
<text x="150.470588" y="86.823529" fill="rgb(12,12,255)"  stroke="rgb(12,12,255)" stroke-width="1" font-size="16" >N</text>
<text x="203.504516" y="111.436661" fill="rgb(191,191,191)"  stroke="rgb(191,191,191)" stroke-width="1" font-size="16" >H</text>
<text x="251.337076" y="183.882353" fill="rgb(12,12,255)"  stroke="rgb(12,12,255)" stroke-width="1" font-size="16" >N</text>
</svg>
</g>
<text font-size="18.000000" fill ="black" font-family="sans-serif"
x="10.000000" y="20.000000" >ZINC32522364</text>
</svg>
