<?xml version="1.0"?>
<svg version="1.1" id="topsvg"
xmlns="http://www.w3.org/2000/svg" xmlns:xlink="http://www.w3.org/1999/xlink"
xmlns:cml="http://www.xml-cml.org/schema" x="0" y="0" width="200px" height="200px" viewBox="0 0 100 100">
<title>ZINC43220891 - Open Babel Depiction</title>
<rect x="0" y="0" width="100" height="100" fill="white"/>
<g transform="translate(0,0)">
<svg width="100" height="100" x="0" y="0" viewBox="0 0 628.462 492.443"
font-family="sans-serif" stroke="rgb(0,0,0)" stroke-width="2"  stroke-linecap="round">
<line x1="71.0" y1="304.1" x2="102.1" y2="286.1" stroke="rgb(0,0,0)"  stroke-width="2.0"/>
<line x1="71.0" y1="304.1" x2="59.6" y2="323.9" stroke="rgb(0,0,0)"  stroke-width="2.0"/>
<line x1="71.0" y1="304.1" x2="82.5" y2="323.9" stroke="rgb(0,0,0)"  stroke-width="2.0"/>
<line x1="71.0" y1="304.1" x2="51.3" y2="292.6" stroke="rgb(0,0,0)"  stroke-width="2.0"/>
<line x1="102.1" y1="286.1" x2="84.2" y2="255.1" stroke="rgb(0,0,0)"  stroke-width="2.0"/>
<line x1="102.1" y1="286.1" x2="133.1" y2="268.2" stroke="rgb(0,0,0)"  stroke-width="2.0"/>
<line x1="102.1" y1="286.1" x2="113.5" y2="305.9" stroke="rgb(0,0,0)"  stroke-width="2.0"/>
<line x1="84.2" y1="255.1" x2="84.2" y2="232.2" stroke="rgb(0,0,0)"  stroke-width="2.0"/>
<line x1="84.2" y1="255.1" x2="104.0" y2="243.7" stroke="rgb(0,0,0)"  stroke-width="2.0"/>
<line x1="84.2" y1="255.1" x2="61.3" y2="255.1" stroke="rgb(0,0,0)"  stroke-width="2.0"/>
<line x1="133.1" y1="232.4" x2="113.4" y2="220.9" stroke="rgb(0,0,0)"  stroke-width="2.0"/>
<line x1="164.2" y1="214.4" x2="164.2" y2="178.6" stroke="rgb(0,0,0)"  stroke-width="2.0"/>
<line x1="195.2" y1="232.4" x2="319.4" y2="160.7" stroke="rgb(0,0,0)"  stroke-width="2.0"/>
<line x1="195.2" y1="268.2" x2="226.3" y2="286.1" stroke="rgb(0,0,0)"  stroke-width="2.0"/>
<line x1="164.2" y1="286.1" x2="164.2" y2="309.0" stroke="rgb(0,0,0)"  stroke-width="2.0"/>
<line x1="226.3" y1="286.1" x2="208.4" y2="317.2" stroke="rgb(0,0,0)"  stroke-width="2.0"/>
<line x1="226.3" y1="286.1" x2="257.3" y2="304.1" stroke="rgb(0,0,0)"  stroke-width="2.0"/>
<line x1="226.3" y1="286.1" x2="237.7" y2="266.4" stroke="rgb(0,0,0)"  stroke-width="2.0"/>
<line x1="208.4" y1="317.2" x2="188.6" y2="328.6" stroke="rgb(0,0,0)"  stroke-width="2.0"/>
<line x1="208.4" y1="317.2" x2="188.6" y2="305.8" stroke="rgb(0,0,0)"  stroke-width="2.0"/>
<line x1="208.4" y1="317.2" x2="219.8" y2="337.0" stroke="rgb(0,0,0)"  stroke-width="2.0"/>
<line x1="257.3" y1="304.1" x2="268.7" y2="323.9" stroke="rgb(0,0,0)"  stroke-width="2.0"/>
<line x1="257.3" y1="304.1" x2="245.9" y2="323.9" stroke="rgb(0,0,0)"  stroke-width="2.0"/>
<line x1="257.3" y1="304.1" x2="277.1" y2="292.6" stroke="rgb(0,0,0)"  stroke-width="2.0"/>
<line x1="319.4" y1="124.8" x2="299.6" y2="113.4" stroke="rgb(0,0,0)"  stroke-width="2.0"/>
<line x1="350.5" y1="106.9" x2="350.5" y2="84.0" stroke="rgb(0,0,0)"  stroke-width="2.0"/>
<line x1="381.5" y1="124.8" x2="401.3" y2="113.4" stroke="rgb(0,0,0)"  stroke-width="2.0"/>
<line x1="381.5" y1="160.7" x2="401.3" y2="172.1" stroke="rgb(0,0,0)"  stroke-width="2.0"/>
<line x1="350.5" y1="178.6" x2="350.5" y2="201.4" stroke="rgb(0,0,0)"  stroke-width="2.0"/>
<line x1="363.5" y1="214.4" x2="493.9" y2="214.4" stroke="rgb(0,0,0)"  stroke-width="2.0"/>
<line x1="350.5" y1="227.4" x2="350.5" y2="357.8" stroke="rgb(0,0,0)"  stroke-width="2.0"/>
<line x1="337.5" y1="214.4" x2="327.6" y2="214.4" stroke="rgb(0,0,0)"  stroke-width="2.0"/>
<line x1="493.9" y1="214.4" x2="502.6" y2="193.3" stroke="rgb(0,0,0)"  stroke-width="2.0"/>
<line x1="484.6" y1="249.1" x2="462.5" y2="243.2" stroke="rgb(0,0,0)"  stroke-width="2.0"/>
<line x1="484.6" y1="249.1" x2="468.4" y2="265.2" stroke="rgb(0,0,0)"  stroke-width="2.0"/>
<line x1="509.9" y1="274.4" x2="493.8" y2="290.6" stroke="rgb(0,0,0)"  stroke-width="2.0"/>
<line x1="509.9" y1="274.4" x2="515.8" y2="296.5" stroke="rgb(0,0,0)"  stroke-width="2.0"/>
<line x1="544.6" y1="265.1" x2="550.5" y2="287.2" stroke="rgb(0,0,0)"  stroke-width="2.0"/>
<line x1="544.6" y1="265.1" x2="566.6" y2="271.1" stroke="rgb(0,0,0)"  stroke-width="2.0"/>
<line x1="553.8" y1="230.5" x2="575.9" y2="236.4" stroke="rgb(0,0,0)"  stroke-width="2.0"/>
<line x1="553.8" y1="230.5" x2="570.0" y2="214.4" stroke="rgb(0,0,0)"  stroke-width="2.0"/>
<line x1="528.5" y1="205.2" x2="544.6" y2="189.0" stroke="rgb(0,0,0)"  stroke-width="2.0"/>
<line x1="528.5" y1="205.2" x2="513.3" y2="148.5" stroke="rgb(0,0,0)"  stroke-width="2.0"/>
<line x1="350.5" y1="357.8" x2="296.2" y2="380.3" stroke="rgb(0,0,0)"  stroke-width="2.0"/>
<line x1="385.1" y1="348.6" x2="379.2" y2="326.5" stroke="rgb(0,0,0)"  stroke-width="2.0"/>
<line x1="385.1" y1="348.6" x2="401.2" y2="332.4" stroke="rgb(0,0,0)"  stroke-width="2.0"/>
<line x1="410.4" y1="373.9" x2="426.6" y2="357.8" stroke="rgb(0,0,0)"  stroke-width="2.0"/>
<line x1="410.4" y1="373.9" x2="432.5" y2="379.8" stroke="rgb(0,0,0)"  stroke-width="2.0"/>
<line x1="401.2" y1="408.5" x2="423.2" y2="414.5" stroke="rgb(0,0,0)"  stroke-width="2.0"/>
<line x1="401.2" y1="408.5" x2="407.1" y2="430.6" stroke="rgb(0,0,0)"  stroke-width="2.0"/>
<line x1="366.5" y1="417.8" x2="372.4" y2="439.9" stroke="rgb(0,0,0)"  stroke-width="2.0"/>
<line x1="366.5" y1="417.8" x2="350.4" y2="434.0" stroke="rgb(0,0,0)"  stroke-width="2.0"/>
<line x1="341.2" y1="392.5" x2="325.0" y2="408.6" stroke="rgb(0,0,0)"  stroke-width="2.0"/>
<line x1="341.2" y1="392.5" x2="319.1" y2="386.6" stroke="rgb(0,0,0)"  stroke-width="2.0"/>
<line x1="423.8" y1="172.1" x2="443.6" y2="160.7" stroke="rgb(0,0,0)"  stroke-width="2.0"/>
<line x1="443.6" y1="160.7" x2="455.0" y2="140.9" stroke="rgb(0,0,0)"  stroke-width="2.0"/>
<line x1="443.6" y1="160.7" x2="432.2" y2="140.9" stroke="rgb(0,0,0)"  stroke-width="2.0"/>
<line x1="443.6" y1="160.7" x2="463.4" y2="172.1" stroke="rgb(0,0,0)"  stroke-width="2.0"/>
<line x1="288.4" y1="93.9" x2="288.4" y2="71.0" stroke="rgb(0,0,0)"  stroke-width="2.0"/>
<line x1="288.4" y1="71.0" x2="299.8" y2="51.3" stroke="rgb(0,0,0)"  stroke-width="2.0"/>
<line x1="288.4" y1="71.0" x2="311.2" y2="71.0" stroke="rgb(0,0,0)"  stroke-width="2.0"/>
<line x1="288.4" y1="71.0" x2="268.6" y2="59.6" stroke="rgb(0,0,0)"  stroke-width="2.0"/>
<line x1="164.2" y1="178.6" x2="128.3" y2="178.6" stroke="rgb(0,0,0)"  stroke-width="2.0"/>
<line x1="164.2" y1="178.6" x2="164.2" y2="142.7" stroke="rgb(0,0,0)"  stroke-width="2.0"/>
<line x1="164.2" y1="178.6" x2="187.0" y2="178.6" stroke="rgb(0,0,0)"  stroke-width="2.0"/>
<line x1="128.3" y1="178.6" x2="108.5" y2="190.0" stroke="rgb(0,0,0)"  stroke-width="2.0"/>
<line x1="128.3" y1="178.6" x2="128.3" y2="201.4" stroke="rgb(0,0,0)"  stroke-width="2.0"/>
<line x1="128.3" y1="178.6" x2="116.9" y2="158.8" stroke="rgb(0,0,0)"  stroke-width="2.0"/>
<line x1="164.2" y1="142.7" x2="175.6" y2="123.0" stroke="rgb(0,0,0)"  stroke-width="2.0"/>
<line x1="164.2" y1="142.7" x2="187.0" y2="142.7" stroke="rgb(0,0,0)"  stroke-width="2.0"/>
<line x1="164.2" y1="142.7" x2="144.4" y2="131.3" stroke="rgb(0,0,0)"  stroke-width="2.0"/>
<line x1="164.2" y1="214.4" x2="195.2" y2="232.4" stroke="rgb(0,0,0)"  stroke-width="2.0"/>
<line x1="195.2" y1="232.4" x2="195.2" y2="268.2" stroke="rgb(0,0,0)"  stroke-width="2.0"/>
<line x1="188.0" y1="238.4" x2="188.0" y2="262.2" stroke="rgb(0,0,0)"  stroke-width="2.0"/>
<line x1="195.2" y1="268.2" x2="164.2" y2="286.1" stroke="rgb(0,0,0)"  stroke-width="2.0"/>
<line x1="164.2" y1="286.1" x2="133.1" y2="268.2" stroke="rgb(0,0,0)"  stroke-width="2.0"/>
<line x1="162.6" y1="276.9" x2="141.9" y2="265.0" stroke="rgb(0,0,0)"  stroke-width="2.0"/>
<line x1="133.1" y1="268.2" x2="133.1" y2="232.4" stroke="rgb(0,0,0)"  stroke-width="2.0"/>
<line x1="133.1" y1="232.4" x2="164.2" y2="214.4" stroke="rgb(0,0,0)"  stroke-width="2.0"/>
<line x1="141.9" y1="235.6" x2="162.6" y2="223.7" stroke="rgb(0,0,0)"  stroke-width="2.0"/>
<line x1="350.5" y1="106.9" x2="381.5" y2="124.8" stroke="rgb(0,0,0)"  stroke-width="2.0"/>
<line x1="381.5" y1="124.8" x2="381.5" y2="160.7" stroke="rgb(0,0,0)"  stroke-width="2.0"/>
<line x1="374.3" y1="130.8" x2="374.3" y2="154.7" stroke="rgb(0,0,0)"  stroke-width="2.0"/>
<line x1="381.5" y1="160.7" x2="350.5" y2="178.6" stroke="rgb(0,0,0)"  stroke-width="2.0"/>
<line x1="350.5" y1="178.6" x2="319.4" y2="160.7" stroke="rgb(0,0,0)"  stroke-width="2.0"/>
<line x1="348.9" y1="169.4" x2="328.2" y2="157.4" stroke="rgb(0,0,0)"  stroke-width="2.0"/>
<line x1="319.4" y1="160.7" x2="319.4" y2="124.8" stroke="rgb(0,0,0)"  stroke-width="2.0"/>
<line x1="319.4" y1="124.8" x2="350.5" y2="106.9" stroke="rgb(0,0,0)"  stroke-width="2.0"/>
<line x1="328.2" y1="128.1" x2="348.9" y2="116.1" stroke="rgb(0,0,0)"  stroke-width="2.0"/>
<line x1="509.9" y1="274.4" x2="544.6" y2="265.1" stroke="rgb(0,0,0)"  stroke-width="2.0"/>
<line x1="544.6" y1="265.1" x2="553.8" y2="230.5" stroke="rgb(0,0,0)"  stroke-width="2.0"/>
<line x1="553.8" y1="230.5" x2="528.5" y2="205.2" stroke="rgb(0,0,0)"  stroke-width="2.0"/>
<line x1="528.5" y1="205.2" x2="493.9" y2="214.4" stroke="rgb(0,0,0)"  stroke-width="2.0"/>
<line x1="493.9" y1="214.4" x2="484.6" y2="249.1" stroke="rgb(0,0,0)"  stroke-width="2.0"/>
<line x1="484.6" y1="249.1" x2="509.9" y2="274.4" stroke="rgb(0,0,0)"  stroke-width="2.0"/>
<line x1="410.4" y1="373.9" x2="401.2" y2="408.5" stroke="rgb(0,0,0)"  stroke-width="2.0"/>
<line x1="401.2" y1="408.5" x2="366.5" y2="417.8" stroke="rgb(0,0,0)"  stroke-width="2.0"/>
<line x1="366.5" y1="417.8" x2="341.2" y2="392.5" stroke="rgb(0,0,0)"  stroke-width="2.0"/>
<line x1="341.2" y1="392.5" x2="350.5" y2="357.8" stroke="rgb(0,0,0)"  stroke-width="2.0"/>
<line x1="350.5" y1="357.8" x2="385.1" y2="348.6" stroke="rgb(0,0,0)"  stroke-width="2.0"/>
<line x1="385.1" y1="348.6" x2="410.4" y2="373.9" stroke="rgb(0,0,0)"  stroke-width="2.0"/>
<text x="443.952215" y="247.791531" fill="rgb(191,191,191)"  stroke="rgb(191,191,191)" stroke-width="1" font-size="16" >H</text>
<text x="369.811048" y="321.932698" fill="rgb(191,191,191)"  stroke="rgb(191,191,191)" stroke-width="1" font-size="16" >H</text>
<text x="278.221518" y="393.276327" fill="rgb(191,191,191)"  stroke="rgb(191,191,191)" stroke-width="1" font-size="16" >H</text>
<text x="503.928856" y="143.908942" fill="rgb(191,191,191)"  stroke="rgb(191,191,191)" stroke-width="1" font-size="16" >H</text>
<text x="547.834804" y="187.814891" fill="rgb(191,191,191)"  stroke="rgb(191,191,191)" stroke-width="1" font-size="16" >H</text>
<text x="573.183915" y="213.164002" fill="rgb(191,191,191)"  stroke="rgb(191,191,191)" stroke-width="1" font-size="16" >H</text>
<text x="582.462334" y="247.791531" fill="rgb(191,191,191)"  stroke="rgb(191,191,191)" stroke-width="1" font-size="16" >H</text>
<text x="573.183915" y="282.419061" fill="rgb(191,191,191)"  stroke="rgb(191,191,191)" stroke-width="1" font-size="16" >H</text>
<text x="547.834804" y="307.768172" fill="rgb(191,191,191)"  stroke="rgb(191,191,191)" stroke-width="1" font-size="16" >H</text>
<text x="513.207275" y="317.046590" fill="rgb(191,191,191)"  stroke="rgb(191,191,191)" stroke-width="1" font-size="16" >H</text>
<text x="478.579745" y="307.768172" fill="rgb(191,191,191)"  stroke="rgb(191,191,191)" stroke-width="1" font-size="16" >H</text>
<text x="453.230634" y="282.419061" fill="rgb(191,191,191)"  stroke="rgb(191,191,191)" stroke-width="1" font-size="16" >H</text>
<text x="404.438578" y="331.211117" fill="rgb(191,191,191)"  stroke="rgb(191,191,191)" stroke-width="1" font-size="16" >H</text>
<text x="501.577004" y="189.322210" fill="rgb(191,191,191)"  stroke="rgb(191,191,191)" stroke-width="1" font-size="16" >H</text>
<text x="406.554325" y="114.895250" fill="rgb(191,191,191)"  stroke="rgb(191,191,191)" stroke-width="1" font-size="16" >H</text>
<text x="344.461937" y="79.046194" fill="rgb(191,191,191)"  stroke="rgb(191,191,191)" stroke-width="1" font-size="16" >H</text>
<text x="282.369550" y="294.140533" fill="rgb(191,191,191)"  stroke="rgb(191,191,191)" stroke-width="1" font-size="16" >H</text>
<text x="233.398828" y="343.111255" fill="rgb(191,191,191)"  stroke="rgb(191,191,191)" stroke-width="1" font-size="16" >H</text>
<text x="269.247884" y="343.111255" fill="rgb(191,191,191)"  stroke="rgb(191,191,191)" stroke-width="1" font-size="16" >H</text>
<text x="220.277162" y="356.232921" fill="rgb(191,191,191)"  stroke="rgb(191,191,191)" stroke-width="1" font-size="16" >H</text>
<text x="171.306440" y="307.262199" fill="rgb(191,191,191)"  stroke="rgb(191,191,191)" stroke-width="1" font-size="16" >H</text>
<text x="171.306440" y="343.111255" fill="rgb(191,191,191)"  stroke="rgb(191,191,191)" stroke-width="1" font-size="16" >H</text>
<text x="238.201691" y="263.094340" fill="rgb(191,191,191)"  stroke="rgb(191,191,191)" stroke-width="1" font-size="16" >H</text>
<text x="468.646712" y="186.593364" fill="rgb(191,191,191)"  stroke="rgb(191,191,191)" stroke-width="1" font-size="16" >H</text>
<text x="308.612881" y="222.442420" fill="rgb(191,191,191)"  stroke="rgb(191,191,191)" stroke-width="1" font-size="16" >H</text>
<text x="127.138581" y="132.819779" fill="rgb(191,191,191)"  stroke="rgb(191,191,191)" stroke-width="1" font-size="16" >H</text>
<text x="194.033831" y="150.744307" fill="rgb(191,191,191)"  stroke="rgb(191,191,191)" stroke-width="1" font-size="16" >H</text>
<text x="176.109303" y="119.698113" fill="rgb(191,191,191)"  stroke="rgb(191,191,191)" stroke-width="1" font-size="16" >H</text>
<text x="104.411190" y="155.547170" fill="rgb(191,191,191)"  stroke="rgb(191,191,191)" stroke-width="1" font-size="16" >H</text>
<text x="122.335718" y="222.442420" fill="rgb(191,191,191)"  stroke="rgb(191,191,191)" stroke-width="1" font-size="16" >H</text>
<text x="91.289525" y="204.517892" fill="rgb(191,191,191)"  stroke="rgb(191,191,191)" stroke-width="1" font-size="16" >H</text>
<text x="194.033831" y="186.593364" fill="rgb(191,191,191)"  stroke="rgb(191,191,191)" stroke-width="1" font-size="16" >H</text>
<text x="251.323356" y="61.121665" fill="rgb(191,191,191)"  stroke="rgb(191,191,191)" stroke-width="1" font-size="16" >H</text>
<text x="318.218606" y="79.046194" fill="rgb(191,191,191)"  stroke="rgb(191,191,191)" stroke-width="1" font-size="16" >H</text>
<text x="300.294078" y="48.000000" fill="rgb(191,191,191)"  stroke="rgb(191,191,191)" stroke-width="1" font-size="16" >H</text>
<text x="158.184775" y="329.989590" fill="rgb(191,191,191)"  stroke="rgb(191,191,191)" stroke-width="1" font-size="16" >H</text>
<text x="419.675990" y="137.622642" fill="rgb(191,191,191)"  stroke="rgb(191,191,191)" stroke-width="1" font-size="16" >H</text>
<text x="455.525047" y="137.622642" fill="rgb(191,191,191)"  stroke="rgb(191,191,191)" stroke-width="1" font-size="16" >H</text>
<text x="300.555989" y="391.187758" fill="rgb(191,191,191)"  stroke="rgb(191,191,191)" stroke-width="1" font-size="16" >H</text>
<text x="309.834408" y="425.815287" fill="rgb(191,191,191)"  stroke="rgb(191,191,191)" stroke-width="1" font-size="16" >H</text>
<text x="335.183519" y="451.164398" fill="rgb(191,191,191)"  stroke="rgb(191,191,191)" stroke-width="1" font-size="16" >H</text>
<text x="369.811048" y="460.442817" fill="rgb(191,191,191)"  stroke="rgb(191,191,191)" stroke-width="1" font-size="16" >H</text>
<text x="404.438578" y="451.164398" fill="rgb(191,191,191)"  stroke="rgb(191,191,191)" stroke-width="1" font-size="16" >H</text>
<text x="429.787689" y="425.815287" fill="rgb(191,191,191)"  stroke="rgb(191,191,191)" stroke-width="1" font-size="16" >H</text>
<text x="439.066107" y="391.187758" fill="rgb(191,191,191)"  stroke="rgb(191,191,191)" stroke-width="1" font-size="16" >H</text>
<text x="429.787689" y="356.560228" fill="rgb(191,191,191)"  stroke="rgb(191,191,191)" stroke-width="1" font-size="16" >H</text>
<text x="344.461937" y="222.442420" fill="rgb(255,127,0)"  stroke="rgb(255,127,0)" stroke-width="1" font-size="16" >P</text>
<text x="96.092387" y="222.442420" fill="rgb(191,191,191)"  stroke="rgb(191,191,191)" stroke-width="1" font-size="16" >H</text>
<text x="42.318803" y="263.094340" fill="rgb(191,191,191)"  stroke="rgb(191,191,191)" stroke-width="1" font-size="16" >H</text>
<text x="109.214053" y="245.169811" fill="rgb(191,191,191)"  stroke="rgb(191,191,191)" stroke-width="1" font-size="16" >H</text>
<text x="78.167859" y="227.245283" fill="rgb(191,191,191)"  stroke="rgb(191,191,191)" stroke-width="1" font-size="16" >H</text>
<text x="114.016916" y="325.186727" fill="rgb(191,191,191)"  stroke="rgb(191,191,191)" stroke-width="1" font-size="16" >H</text>
<text x="34.000000" y="294.140533" fill="rgb(191,191,191)"  stroke="rgb(191,191,191)" stroke-width="1" font-size="16" >H</text>
<text x="82.970722" y="343.111255" fill="rgb(191,191,191)"  stroke="rgb(191,191,191)" stroke-width="1" font-size="16" >H</text>
<text x="47.121665" y="343.111255" fill="rgb(191,191,191)"  stroke="rgb(191,191,191)" stroke-width="1" font-size="16" >H</text>
<text x="282.369550" y="114.895250" fill="rgb(255,12,12)"  stroke="rgb(255,12,12)" stroke-width="1" font-size="16" >O</text>
<text x="406.554325" y="186.593364" fill="rgb(255,12,12)"  stroke="rgb(255,12,12)" stroke-width="1" font-size="16" >O</text>
</svg>
</g>
<text font-size="18.000000" fill ="black" font-family="sans-serif"
x="10.000000" y="20.000000" >ZINC43220891</text>
</svg>
