<?xml version="1.0"?>
<svg version="1.1" id="topsvg"
xmlns="http://www.w3.org/2000/svg" xmlns:xlink="http://www.w3.org/1999/xlink"
xmlns:cml="http://www.xml-cml.org/schema" x="0" y="0" width="200px" height="200px" viewBox="0 0 100 100">
<title>ZINC86032785 - Open Babel Depiction</title>
<rect x="0" y="0" width="100" height="100" fill="white"/>
<g transform="translate(0,0)">
<svg width="100" height="100" x="0" y="0" viewBox="0 0 456.261 431.134"
font-family="sans-serif" stroke="rgb(0,0,0)" stroke-width="2"  stroke-linecap="round">
<line x1="185.4" y1="354.7" x2="210.8" y2="327.4" stroke="rgb(0,0,0)"  stroke-width="2.0"/>
<line x1="185.4" y1="354.7" x2="180.0" y2="378.5" stroke="rgb(0,0,0)"  stroke-width="2.0"/>
<line x1="185.4" y1="354.7" x2="203.3" y2="371.3" stroke="rgb(0,0,0)"  stroke-width="2.0"/>
<line x1="185.4" y1="354.7" x2="161.7" y2="349.3" stroke="rgb(0,0,0)"  stroke-width="2.0"/>
<line x1="203.6" y1="290.7" x2="181.5" y2="280.5" stroke="rgb(0,0,0)"  stroke-width="2.0"/>
<line x1="307.8" y1="303.1" x2="314.2" y2="312.5" stroke="rgb(0,0,0)"  stroke-width="2.0"/>
<line x1="356.1" y1="265.6" x2="365.0" y2="288.3" stroke="rgb(0,0,0)"  stroke-width="2.0"/>
<line x1="379.3" y1="236.4" x2="403.4" y2="240.1" stroke="rgb(0,0,0)"  stroke-width="2.0"/>
<line x1="365.7" y1="201.7" x2="380.9" y2="182.7" stroke="rgb(0,0,0)"  stroke-width="2.0"/>
<line x1="328.8" y1="196.1" x2="319.9" y2="173.5" stroke="rgb(0,0,0)"  stroke-width="2.0"/>
<line x1="239.0" y1="235.3" x2="185.6" y2="204.5" stroke="rgb(0,0,0)"  stroke-width="2.0"/>
<line x1="142.0" y1="216.7" x2="160.7" y2="249.0" stroke="rgb(0,0,0)"  stroke-width="2.0"/>
<line x1="142.0" y1="216.7" x2="104.7" y2="281.3" stroke="rgb(0,0,0)"  stroke-width="2.0"/>
<line x1="109.7" y1="198.0" x2="72.3" y2="262.7" stroke="rgb(0,0,0)"  stroke-width="2.0"/>
<line x1="109.7" y1="198.0" x2="72.3" y2="198.0" stroke="rgb(0,0,0)"  stroke-width="2.0"/>
<line x1="96.7" y1="160.7" x2="72.3" y2="160.7" stroke="rgb(0,0,0)"  stroke-width="2.0"/>
<line x1="101.5" y1="148.2" x2="102.9" y2="147.4" stroke="rgb(0,0,0)"  stroke-width="1.0"/>
<line x1="100.0" y1="146.8" x2="102.5" y2="145.3" stroke="rgb(0,0,0)"  stroke-width="1.0"/>
<line x1="98.4" y1="145.3" x2="102.0" y2="143.2" stroke="rgb(0,0,0)"  stroke-width="1.0"/>
<line x1="96.8" y1="143.9" x2="101.5" y2="141.2" stroke="rgb(0,0,0)"  stroke-width="1.0"/>
<line x1="95.3" y1="142.4" x2="101.1" y2="139.1" stroke="rgb(0,0,0)"  stroke-width="1.0"/>
<line x1="93.7" y1="141.0" x2="100.6" y2="137.0" stroke="rgb(0,0,0)"  stroke-width="1.0"/>
<line x1="142.0" y1="142.0" x2="104.7" y2="77.3" stroke="rgb(0,0,0)"  stroke-width="2.0"/>
<line x1="142.0" y1="142.0" x2="160.7" y2="109.7" stroke="rgb(0,0,0)"  stroke-width="2.0"/>
<line x1="174.3" y1="160.7" x2="211.7" y2="96.0" stroke="rgb(0,0,0)"  stroke-width="2.0"/>
<line x1="174.3" y1="160.7" x2="211.7" y2="160.7" stroke="rgb(0,0,0)"  stroke-width="2.0"/>
<line x1="211.7" y1="96.0" x2="232.7" y2="83.8" stroke="rgb(0,0,0)"  stroke-width="2.0"/>
<line x1="211.7" y1="96.0" x2="232.7" y2="108.2" stroke="rgb(0,0,0)"  stroke-width="2.0"/>
<line x1="211.7" y1="96.0" x2="199.5" y2="74.9" stroke="rgb(0,0,0)"  stroke-width="2.0"/>
<line x1="211.7" y1="160.7" x2="232.7" y2="172.8" stroke="rgb(0,0,0)"  stroke-width="2.0"/>
<line x1="211.7" y1="160.7" x2="211.7" y2="185.0" stroke="rgb(0,0,0)"  stroke-width="2.0"/>
<line x1="211.7" y1="160.7" x2="223.8" y2="139.6" stroke="rgb(0,0,0)"  stroke-width="2.0"/>
<line x1="104.7" y1="77.3" x2="104.7" y2="53.0" stroke="rgb(0,0,0)"  stroke-width="2.0"/>
<line x1="104.7" y1="77.3" x2="125.7" y2="65.2" stroke="rgb(0,0,0)"  stroke-width="2.0"/>
<line x1="104.7" y1="77.3" x2="80.3" y2="77.3" stroke="rgb(0,0,0)"  stroke-width="2.0"/>
<line x1="160.7" y1="109.7" x2="160.7" y2="85.3" stroke="rgb(0,0,0)"  stroke-width="2.0"/>
<line x1="160.7" y1="109.7" x2="139.6" y2="97.5" stroke="rgb(0,0,0)"  stroke-width="2.0"/>
<line x1="160.7" y1="109.7" x2="185.0" y2="109.7" stroke="rgb(0,0,0)"  stroke-width="2.0"/>
<line x1="72.3" y1="160.7" x2="51.3" y2="148.5" stroke="rgb(0,0,0)"  stroke-width="2.0"/>
<line x1="72.3" y1="160.7" x2="72.3" y2="136.3" stroke="rgb(0,0,0)"  stroke-width="2.0"/>
<line x1="72.3" y1="160.7" x2="60.2" y2="181.7" stroke="rgb(0,0,0)"  stroke-width="2.0"/>
<line x1="72.3" y1="262.7" x2="51.3" y2="274.8" stroke="rgb(0,0,0)"  stroke-width="2.0"/>
<line x1="72.3" y1="262.7" x2="51.3" y2="250.5" stroke="rgb(0,0,0)"  stroke-width="2.0"/>
<line x1="72.3" y1="262.7" x2="84.5" y2="283.7" stroke="rgb(0,0,0)"  stroke-width="2.0"/>
<line x1="72.3" y1="198.0" x2="51.3" y2="210.2" stroke="rgb(0,0,0)"  stroke-width="2.0"/>
<line x1="72.3" y1="198.0" x2="72.3" y2="222.3" stroke="rgb(0,0,0)"  stroke-width="2.0"/>
<line x1="72.3" y1="198.0" x2="60.2" y2="176.9" stroke="rgb(0,0,0)"  stroke-width="2.0"/>
<line x1="160.7" y1="249.0" x2="181.7" y2="261.2" stroke="rgb(0,0,0)"  stroke-width="2.0"/>
<line x1="160.7" y1="249.0" x2="181.7" y2="236.8" stroke="rgb(0,0,0)"  stroke-width="2.0"/>
<line x1="160.7" y1="249.0" x2="148.5" y2="270.1" stroke="rgb(0,0,0)"  stroke-width="2.0"/>
<line x1="104.7" y1="281.3" x2="104.7" y2="305.7" stroke="rgb(0,0,0)"  stroke-width="2.0"/>
<line x1="104.7" y1="281.3" x2="125.7" y2="293.5" stroke="rgb(0,0,0)"  stroke-width="2.0"/>
<line x1="104.7" y1="281.3" x2="80.3" y2="281.3" stroke="rgb(0,0,0)"  stroke-width="2.0"/>
<line x1="236.2" y1="272.6" x2="263.6" y2="298.0" stroke="rgb(0,0,0)"  stroke-width="2.0"/>
<line x1="235.7" y1="281.9" x2="254.3" y2="299.1" stroke="rgb(0,0,0)"  stroke-width="2.0"/>
<line x1="263.6" y1="298.0" x2="253.3" y2="320.0" stroke="rgb(0,0,0)"  stroke-width="2.0"/>
<line x1="235.0" y1="330.3" x2="210.8" y2="327.4" stroke="rgb(0,0,0)"  stroke-width="2.0"/>
<line x1="210.8" y1="327.4" x2="203.6" y2="290.7" stroke="rgb(0,0,0)"  stroke-width="2.0"/>
<line x1="216.7" y1="320.1" x2="211.8" y2="295.2" stroke="rgb(0,0,0)"  stroke-width="2.0"/>
<line x1="203.6" y1="290.7" x2="236.2" y2="272.6" stroke="rgb(0,0,0)"  stroke-width="2.0"/>
<line x1="365.7" y1="201.7" x2="379.3" y2="236.4" stroke="rgb(0,0,0)"  stroke-width="2.0"/>
<line x1="379.3" y1="236.4" x2="356.1" y2="265.6" stroke="rgb(0,0,0)"  stroke-width="2.0"/>
<line x1="370.0" y1="236.6" x2="354.2" y2="256.4" stroke="rgb(0,0,0)"  stroke-width="2.0"/>
<line x1="356.1" y1="265.6" x2="319.2" y2="260.1" stroke="rgb(0,0,0)"  stroke-width="2.0"/>
<line x1="319.2" y1="260.1" x2="305.5" y2="225.3" stroke="rgb(0,0,0)"  stroke-width="2.0"/>
<line x1="323.7" y1="251.8" x2="314.4" y2="228.3" stroke="rgb(0,0,0)"  stroke-width="2.0"/>
<line x1="305.5" y1="225.3" x2="328.8" y2="196.1" stroke="rgb(0,0,0)"  stroke-width="2.0"/>
<line x1="328.8" y1="196.1" x2="365.7" y2="201.7" stroke="rgb(0,0,0)"  stroke-width="2.0"/>
<line x1="333.6" y1="204.1" x2="358.7" y2="207.9" stroke="rgb(0,0,0)"  stroke-width="2.0"/>
<line x1="109.7" y1="198.0" x2="109.7" y2="173.7" stroke="rgb(0,0,0)"  stroke-width="2.0"/>
<line x1="120.9" y1="154.2" x2="142.0" y2="142.0" stroke="rgb(0,0,0)"  stroke-width="2.0"/>
<line x1="142.0" y1="142.0" x2="174.3" y2="160.7" stroke="rgb(0,0,0)"  stroke-width="2.0"/>
<line x1="174.3" y1="160.7" x2="174.3" y2="185.0" stroke="rgb(0,0,0)"  stroke-width="2.0"/>
<line x1="163.1" y1="204.5" x2="142.0" y2="216.7" stroke="rgb(0,0,0)"  stroke-width="2.0"/>
<line x1="142.0" y1="216.7" x2="109.7" y2="198.0" stroke="rgb(0,0,0)"  stroke-width="2.0"/>
<line x1="319.2" y1="260.1" x2="307.0" y2="281.1" stroke="rgb(0,0,0)"  stroke-width="2.0"/>
<line x1="287.6" y1="294.3" x2="263.6" y2="298.0" stroke="rgb(0,0,0)"  stroke-width="2.0"/>
<line x1="236.2" y1="272.6" x2="239.0" y2="235.3" stroke="rgb(0,0,0)"  stroke-width="2.0"/>
<line x1="239.0" y1="235.3" x2="259.7" y2="221.2" stroke="rgb(0,0,0)"  stroke-width="2.0"/>
<line x1="248.0" y1="237.9" x2="261.8" y2="228.5" stroke="rgb(0,0,0)"  stroke-width="2.0"/>
<line x1="282.3" y1="218.1" x2="305.5" y2="225.3" stroke="rgb(0,0,0)"  stroke-width="2.0"/>
<text x="186.994845" y="71.668385" fill="rgb(191,191,191)"  stroke="rgb(191,191,191)" stroke-width="1" font-size="16" >H</text>
<text x="122.331615" y="98.998282" fill="rgb(191,191,191)"  stroke="rgb(191,191,191)" stroke-width="1" font-size="16" >H</text>
<text x="154.663230" y="80.331615" fill="rgb(191,191,191)"  stroke="rgb(191,191,191)" stroke-width="1" font-size="16" >H</text>
<text x="61.329897" y="85.333333" fill="rgb(191,191,191)"  stroke="rgb(191,191,191)" stroke-width="1" font-size="16" >H</text>
<text x="130.994845" y="66.666667" fill="rgb(191,191,191)"  stroke="rgb(191,191,191)" stroke-width="1" font-size="16" >H</text>
<text x="98.663230" y="48.000000" fill="rgb(191,191,191)"  stroke="rgb(191,191,191)" stroke-width="1" font-size="16" >H</text>
<text x="224.328179" y="136.331615" fill="rgb(191,191,191)"  stroke="rgb(191,191,191)" stroke-width="1" font-size="16" >H</text>
<text x="205.661512" y="205.996563" fill="rgb(191,191,191)"  stroke="rgb(191,191,191)" stroke-width="1" font-size="16" >H</text>
<text x="237.993127" y="187.329897" fill="rgb(191,191,191)"  stroke="rgb(191,191,191)" stroke-width="1" font-size="16" >H</text>
<text x="191.996563" y="117.664948" fill="rgb(191,191,191)"  stroke="rgb(191,191,191)" stroke-width="1" font-size="16" >H</text>
<text x="237.993127" y="122.666667" fill="rgb(191,191,191)"  stroke="rgb(191,191,191)" stroke-width="1" font-size="16" >H</text>
<text x="237.993127" y="85.333333" fill="rgb(191,191,191)"  stroke="rgb(191,191,191)" stroke-width="1" font-size="16" >H</text>
<text x="309.149929" y="169.362479" fill="rgb(191,191,191)"  stroke="rgb(191,191,191)" stroke-width="1" font-size="16" >H</text>
<text x="382.982630" y="180.490968" fill="rgb(191,191,191)"  stroke="rgb(191,191,191)" stroke-width="1" font-size="16" >H</text>
<text x="410.261427" y="249.996208" fill="rgb(191,191,191)"  stroke="rgb(191,191,191)" stroke-width="1" font-size="16" >H</text>
<text x="363.707522" y="308.372959" fill="rgb(191,191,191)"  stroke="rgb(191,191,191)" stroke-width="1" font-size="16" >H</text>
<text x="315.515721" y="331.233957" fill="rgb(191,191,191)"  stroke="rgb(191,191,191)" stroke-width="1" font-size="16" >H</text>
<text x="66.331615" y="243.329897" fill="rgb(191,191,191)"  stroke="rgb(191,191,191)" stroke-width="1" font-size="16" >H</text>
<text x="84.998282" y="136.331615" fill="rgb(191,191,191)"  stroke="rgb(191,191,191)" stroke-width="1" font-size="16" >H</text>
<text x="61.329897" y="289.326460" fill="rgb(191,191,191)"  stroke="rgb(191,191,191)" stroke-width="1" font-size="16" >H</text>
<text x="130.994845" y="307.993127" fill="rgb(191,191,191)"  stroke="rgb(191,191,191)" stroke-width="1" font-size="16" >H</text>
<text x="98.663230" y="326.659794" fill="rgb(191,191,191)"  stroke="rgb(191,191,191)" stroke-width="1" font-size="16" >H</text>
<text x="135.996563" y="289.326460" fill="rgb(191,191,191)"  stroke="rgb(191,191,191)" stroke-width="1" font-size="16" >H</text>
<text x="186.994845" y="238.328179" fill="rgb(191,191,191)"  stroke="rgb(191,191,191)" stroke-width="1" font-size="16" >H</text>
<text x="186.994845" y="275.661512" fill="rgb(191,191,191)"  stroke="rgb(191,191,191)" stroke-width="1" font-size="16" >H</text>
<text x="47.664948" y="173.664948" fill="rgb(191,191,191)"  stroke="rgb(191,191,191)" stroke-width="1" font-size="16" >H</text>
<text x="163.719521" y="283.046418" fill="rgb(191,191,191)"  stroke="rgb(191,191,191)" stroke-width="1" font-size="16" >H</text>
<text x="34.000000" y="224.663230" fill="rgb(191,191,191)"  stroke="rgb(191,191,191)" stroke-width="1" font-size="16" >H</text>
<text x="84.998282" y="302.991409" fill="rgb(191,191,191)"  stroke="rgb(191,191,191)" stroke-width="1" font-size="16" >H</text>
<text x="34.000000" y="251.993127" fill="rgb(191,191,191)"  stroke="rgb(191,191,191)" stroke-width="1" font-size="16" >H</text>
<text x="34.000000" y="289.326460" fill="rgb(191,191,191)"  stroke="rgb(191,191,191)" stroke-width="1" font-size="16" >H</text>
<text x="47.664948" y="200.994845" fill="rgb(191,191,191)"  stroke="rgb(191,191,191)" stroke-width="1" font-size="16" >H</text>
<text x="66.331615" y="131.329897" fill="rgb(191,191,191)"  stroke="rgb(191,191,191)" stroke-width="1" font-size="16" >H</text>
<text x="34.000000" y="149.996563" fill="rgb(191,191,191)"  stroke="rgb(191,191,191)" stroke-width="1" font-size="16" >H</text>
<text x="168.328179" y="205.996563" fill="rgb(12,12,255)"  stroke="rgb(12,12,255)" stroke-width="1" font-size="16" >N</text>
<text x="263.837656" y="222.299281" fill="rgb(12,12,255)"  stroke="rgb(12,12,255)" stroke-width="1" font-size="16" >N</text>
<text x="294.485106" y="300.387710" fill="rgb(12,12,255)"  stroke="rgb(12,12,255)" stroke-width="1" font-size="16" >N</text>
<text x="241.875419" y="339.826679" fill="rgb(178,178,0)"  stroke="rgb(178,178,0)" stroke-width="1" font-size="16" >S</text>
<text x="114.464948" y="156.631230" fill="rgb(12,12,255)"  stroke="rgb(12,12,255)" stroke-width="1" font-size="16" >+</text>
<text x="103.664948" y="168.663230" fill="rgb(12,12,255)"  stroke="rgb(12,12,255)" stroke-width="1" font-size="16" >N</text>
<text x="171.108570" y="399.133873" fill="rgb(191,191,191)"  stroke="rgb(191,191,191)" stroke-width="1" font-size="16" >H</text>
<text x="206.783288" y="388.129680" fill="rgb(191,191,191)"  stroke="rgb(191,191,191)" stroke-width="1" font-size="16" >H</text>
<text x="143.018709" y="354.429116" fill="rgb(191,191,191)"  stroke="rgb(191,191,191)" stroke-width="1" font-size="16" >H</text>
</svg>
</g>
<text font-size="18.000000" fill ="black" font-family="sans-serif"
x="10.000000" y="20.000000" >ZINC86032785</text>
</svg>
