<?xml version="1.0"?>
<svg version="1.1" id="topsvg"
xmlns="http://www.w3.org/2000/svg" xmlns:xlink="http://www.w3.org/1999/xlink"
xmlns:cml="http://www.xml-cml.org/schema" x="0" y="0" width="200px" height="200px" viewBox="0 0 100 100">
<title>ZINC18172925 - Open Babel Depiction</title>
<rect x="0" y="0" width="100" height="100" fill="white"/>
<g transform="translate(0,0)">
<svg width="100" height="100" x="0" y="0" viewBox="0 0 281.871 305.672"
font-family="sans-serif" stroke="rgb(0,0,0)" stroke-width="2"  stroke-linecap="round">
<line x1="153.0" y1="79.1" x2="173.1" y2="97.2" stroke="rgb(0,0,0)"  stroke-width="2.0"/>
<line x1="153.0" y1="79.1" x2="126.6" y2="73.5" stroke="rgb(0,0,0)"  stroke-width="2.0"/>
<line x1="153.0" y1="79.1" x2="135.0" y2="99.2" stroke="rgb(0,0,0)"  stroke-width="2.0"/>
<line x1="153.0" y1="79.1" x2="158.6" y2="52.7" stroke="rgb(0,0,0)"  stroke-width="2.0"/>
<line x1="178.6" y1="145.7" x2="143.9" y2="165.7" stroke="rgb(0,0,0)"  stroke-width="2.0"/>
<line x1="221.9" y1="97.6" x2="232.9" y2="72.9" stroke="rgb(0,0,0)"  stroke-width="2.0"/>
<line x1="109.3" y1="145.7" x2="109.3" y2="118.7" stroke="rgb(0,0,0)"  stroke-width="2.0"/>
<line x1="74.6" y1="165.7" x2="51.3" y2="152.2" stroke="rgb(0,0,0)"  stroke-width="2.0"/>
<line x1="74.6" y1="205.7" x2="51.3" y2="219.2" stroke="rgb(0,0,0)"  stroke-width="2.0"/>
<line x1="109.3" y1="225.7" x2="109.3" y2="252.7" stroke="rgb(0,0,0)"  stroke-width="2.0"/>
<line x1="143.9" y1="205.7" x2="167.3" y2="219.2" stroke="rgb(0,0,0)"  stroke-width="2.0"/>
<line x1="223.8" y1="152.3" x2="233.2" y2="141.9" stroke="rgb(0,0,0)"  stroke-width="2.0"/>
<line x1="235.3" y1="120.8" x2="221.9" y2="97.6" stroke="rgb(0,0,0)"  stroke-width="2.0"/>
<line x1="228.0" y1="122.7" x2="218.6" y2="106.4" stroke="rgb(0,0,0)"  stroke-width="2.0"/>
<line x1="221.9" y1="97.6" x2="195.5" y2="103.2" stroke="rgb(0,0,0)"  stroke-width="2.0"/>
<line x1="181.4" y1="118.8" x2="178.6" y2="145.7" stroke="rgb(0,0,0)"  stroke-width="2.0"/>
<line x1="178.6" y1="145.7" x2="203.0" y2="156.6" stroke="rgb(0,0,0)"  stroke-width="2.0"/>
<line x1="187.0" y1="141.5" x2="204.1" y2="149.2" stroke="rgb(0,0,0)"  stroke-width="2.0"/>
<line x1="74.6" y1="165.7" x2="74.6" y2="205.7" stroke="rgb(0,0,0)"  stroke-width="2.0"/>
<line x1="74.6" y1="205.7" x2="109.3" y2="225.7" stroke="rgb(0,0,0)"  stroke-width="2.0"/>
<line x1="83.4" y1="202.4" x2="107.7" y2="216.4" stroke="rgb(0,0,0)"  stroke-width="2.0"/>
<line x1="109.3" y1="225.7" x2="143.9" y2="205.7" stroke="rgb(0,0,0)"  stroke-width="2.0"/>
<line x1="143.9" y1="205.7" x2="143.9" y2="165.7" stroke="rgb(0,0,0)"  stroke-width="2.0"/>
<line x1="136.7" y1="199.7" x2="136.7" y2="171.7" stroke="rgb(0,0,0)"  stroke-width="2.0"/>
<line x1="143.9" y1="165.7" x2="109.3" y2="145.7" stroke="rgb(0,0,0)"  stroke-width="2.0"/>
<line x1="109.3" y1="145.7" x2="74.6" y2="165.7" stroke="rgb(0,0,0)"  stroke-width="2.0"/>
<line x1="107.7" y1="154.9" x2="83.4" y2="168.9" stroke="rgb(0,0,0)"  stroke-width="2.0"/>
<text x="172.564065" y="233.672004" fill="rgb(191,191,191)"  stroke="rgb(191,191,191)" stroke-width="1" font-size="16" >H</text>
<text x="103.282032" y="273.672004" fill="rgb(191,191,191)"  stroke="rgb(191,191,191)" stroke-width="1" font-size="16" >H</text>
<text x="34.000000" y="233.672004" fill="rgb(191,191,191)"  stroke="rgb(191,191,191)" stroke-width="1" font-size="16" >H</text>
<text x="34.000000" y="153.672004" fill="rgb(191,191,191)"  stroke="rgb(191,191,191)" stroke-width="1" font-size="16" >H</text>
<text x="103.282032" y="113.672004" fill="rgb(191,191,191)"  stroke="rgb(191,191,191)" stroke-width="1" font-size="16" >H</text>
<text x="155.335878" y="48.000000" fill="rgb(191,191,191)"  stroke="rgb(191,191,191)" stroke-width="1" font-size="16" >H</text>
<text x="120.254186" y="116.851697" fill="rgb(191,191,191)"  stroke="rgb(191,191,191)" stroke-width="1" font-size="16" >H</text>
<text x="107.893506" y="78.809436" fill="rgb(191,191,191)"  stroke="rgb(191,191,191)" stroke-width="1" font-size="16" >H</text>
<text x="232.140573" y="69.032842" fill="rgb(178,178,0)"  stroke="rgb(178,178,0)" stroke-width="1" font-size="16" >SH</text>
<text x="235.871107" y="140.215677" fill="rgb(12,12,255)"  stroke="rgb(12,12,255)" stroke-width="1" font-size="16" >N</text>
<text x="209.105883" y="169.941470" fill="rgb(12,12,255)"  stroke="rgb(12,12,255)" stroke-width="1" font-size="16" >N</text>
<text x="176.745203" y="113.891128" fill="rgb(12,12,255)"  stroke="rgb(12,12,255)" stroke-width="1" font-size="16" >N</text>
</svg>
</g>
<text font-size="18.000000" fill ="black" font-family="sans-serif"
x="10.000000" y="20.000000" >ZINC18172925</text>
</svg>
