<?xml version="1.0"?>
<svg version="1.1" id="topsvg"
xmlns="http://www.w3.org/2000/svg" xmlns:xlink="http://www.w3.org/1999/xlink"
xmlns:cml="http://www.xml-cml.org/schema" x="0" y="0" width="200px" height="200px" viewBox="0 0 100 100">
<title>ZINC38197764 - Open Babel Depiction</title>
<rect x="0" y="0" width="100" height="100" fill="white"/>
<g transform="translate(0,0)">
<svg width="100" height="100" x="0" y="0" viewBox="0 0 431.769 354.641"
font-family="sans-serif" stroke="rgb(0,0,0)" stroke-width="2"  stroke-linecap="round">
<line x1="53.0" y1="174.6" x2="80.0" y2="174.6" stroke="rgb(0,0,0)"  stroke-width="2.0"/>
<line x1="80.0" y1="174.6" x2="66.5" y2="198.0" stroke="rgb(0,0,0)"  stroke-width="2.0"/>
<line x1="114.6" y1="194.6" x2="101.1" y2="218.0" stroke="rgb(0,0,0)"  stroke-width="2.0"/>
<line x1="114.6" y1="194.6" x2="128.1" y2="218.0" stroke="rgb(0,0,0)"  stroke-width="2.0"/>
<line x1="162.0" y1="178.5" x2="185.4" y2="192.0" stroke="rgb(0,0,0)"  stroke-width="2.0"/>
<line x1="159.0" y1="183.7" x2="182.4" y2="197.2" stroke="rgb(0,0,0)"  stroke-width="2.0"/>
<line x1="149.3" y1="134.6" x2="176.3" y2="134.6" stroke="rgb(0,0,0)"  stroke-width="2.0"/>
<line x1="149.3" y1="134.6" x2="162.8" y2="111.3" stroke="rgb(0,0,0)"  stroke-width="2.0"/>
<line x1="116.6" y1="109.6" x2="118.0" y2="110.4" stroke="rgb(0,0,0)"  stroke-width="1.0"/>
<line x1="118.2" y1="105.6" x2="120.7" y2="107.0" stroke="rgb(0,0,0)"  stroke-width="1.0"/>
<line x1="119.8" y1="101.5" x2="123.4" y2="103.6" stroke="rgb(0,0,0)"  stroke-width="1.0"/>
<line x1="121.4" y1="97.5" x2="126.1" y2="100.2" stroke="rgb(0,0,0)"  stroke-width="1.0"/>
<line x1="123.0" y1="93.5" x2="128.8" y2="96.8" stroke="rgb(0,0,0)"  stroke-width="1.0"/>
<line x1="124.6" y1="89.4" x2="131.5" y2="93.4" stroke="rgb(0,0,0)"  stroke-width="1.0"/>
<line x1="114.6" y1="114.6" x2="94.6" y2="80.0" stroke="rgb(0,0,0)"  stroke-width="2.0"/>
<line x1="73.5" y1="123.4" x2="66.5" y2="111.3" stroke="rgb(0,0,0)"  stroke-width="2.0"/>
<line x1="67.0" y1="134.6" x2="53.0" y2="134.6" stroke="rgb(0,0,0)"  stroke-width="2.0"/>
<line x1="94.6" y1="80.0" x2="94.6" y2="53.0" stroke="rgb(0,0,0)"  stroke-width="2.0"/>
<line x1="94.6" y1="80.0" x2="118.0" y2="66.5" stroke="rgb(0,0,0)"  stroke-width="2.0"/>
<line x1="94.6" y1="80.0" x2="67.6" y2="80.0" stroke="rgb(0,0,0)"  stroke-width="2.0"/>
<line x1="183.9" y1="234.6" x2="160.5" y2="248.1" stroke="rgb(0,0,0)"  stroke-width="2.0"/>
<line x1="218.6" y1="254.6" x2="218.6" y2="281.6" stroke="rgb(0,0,0)"  stroke-width="2.0"/>
<line x1="218.6" y1="174.6" x2="218.6" y2="147.6" stroke="rgb(0,0,0)"  stroke-width="2.0"/>
<line x1="207.3" y1="128.1" x2="183.9" y2="114.6" stroke="rgb(0,0,0)"  stroke-width="2.0"/>
<line x1="183.9" y1="114.6" x2="156.9" y2="114.6" stroke="rgb(0,0,0)"  stroke-width="2.0"/>
<line x1="183.9" y1="114.6" x2="170.4" y2="138.0" stroke="rgb(0,0,0)"  stroke-width="2.0"/>
<line x1="183.9" y1="114.6" x2="183.9" y2="87.6" stroke="rgb(0,0,0)"  stroke-width="2.0"/>
<line x1="287.8" y1="161.6" x2="287.8" y2="134.6" stroke="rgb(0,0,0)"  stroke-width="2.0"/>
<line x1="322.5" y1="194.6" x2="345.9" y2="181.1" stroke="rgb(0,0,0)"  stroke-width="2.0"/>
<line x1="322.5" y1="234.6" x2="357.1" y2="254.6" stroke="rgb(0,0,0)"  stroke-width="2.0"/>
<line x1="287.8" y1="254.6" x2="287.8" y2="281.6" stroke="rgb(0,0,0)"  stroke-width="2.0"/>
<line x1="299.1" y1="301.1" x2="311.2" y2="308.1" stroke="rgb(0,0,0)"  stroke-width="2.0"/>
<line x1="355.6" y1="252.0" x2="379.0" y2="238.5" stroke="rgb(0,0,0)"  stroke-width="2.0"/>
<line x1="358.6" y1="257.2" x2="382.0" y2="243.7" stroke="rgb(0,0,0)"  stroke-width="2.0"/>
<line x1="357.1" y1="254.6" x2="357.1" y2="281.6" stroke="rgb(0,0,0)"  stroke-width="2.0"/>
<line x1="287.8" y1="134.6" x2="264.5" y2="148.1" stroke="rgb(0,0,0)"  stroke-width="2.0"/>
<line x1="287.8" y1="94.6" x2="264.5" y2="81.1" stroke="rgb(0,0,0)"  stroke-width="2.0"/>
<line x1="287.8" y1="94.6" x2="287.8" y2="67.6" stroke="rgb(0,0,0)"  stroke-width="2.0"/>
<line x1="322.5" y1="114.6" x2="345.9" y2="101.1" stroke="rgb(0,0,0)"  stroke-width="2.0"/>
<line x1="322.5" y1="114.6" x2="345.9" y2="128.1" stroke="rgb(0,0,0)"  stroke-width="2.0"/>
<line x1="218.6" y1="254.6" x2="253.2" y2="234.6" stroke="rgb(0,0,0)"  stroke-width="2.0"/>
<line x1="253.2" y1="234.6" x2="253.2" y2="194.6" stroke="rgb(0,0,0)"  stroke-width="2.0"/>
<line x1="253.2" y1="194.6" x2="218.6" y2="174.6" stroke="rgb(0,0,0)"  stroke-width="2.0"/>
<line x1="244.4" y1="197.9" x2="220.2" y2="183.9" stroke="rgb(0,0,0)"  stroke-width="2.0"/>
<line x1="218.6" y1="174.6" x2="183.9" y2="194.6" stroke="rgb(0,0,0)"  stroke-width="2.0"/>
<line x1="183.9" y1="194.6" x2="183.9" y2="234.6" stroke="rgb(0,0,0)"  stroke-width="2.0"/>
<line x1="183.9" y1="234.6" x2="218.6" y2="254.6" stroke="rgb(0,0,0)"  stroke-width="2.0"/>
<line x1="192.7" y1="231.4" x2="217.0" y2="245.4" stroke="rgb(0,0,0)"  stroke-width="2.0"/>
<line x1="322.5" y1="234.6" x2="322.5" y2="194.6" stroke="rgb(0,0,0)"  stroke-width="2.0"/>
<line x1="315.3" y1="228.6" x2="315.3" y2="200.6" stroke="rgb(0,0,0)"  stroke-width="2.0"/>
<line x1="322.5" y1="194.6" x2="299.1" y2="181.1" stroke="rgb(0,0,0)"  stroke-width="2.0"/>
<line x1="276.6" y1="181.1" x2="253.2" y2="194.6" stroke="rgb(0,0,0)"  stroke-width="2.0"/>
<line x1="253.2" y1="234.6" x2="287.8" y2="254.6" stroke="rgb(0,0,0)"  stroke-width="2.0"/>
<line x1="262.0" y1="231.4" x2="286.2" y2="245.4" stroke="rgb(0,0,0)"  stroke-width="2.0"/>
<line x1="287.8" y1="254.6" x2="322.5" y2="234.6" stroke="rgb(0,0,0)"  stroke-width="2.0"/>
<line x1="322.5" y1="114.6" x2="287.8" y2="134.6" stroke="rgb(0,0,0)"  stroke-width="2.0"/>
<line x1="287.8" y1="134.6" x2="287.8" y2="94.6" stroke="rgb(0,0,0)"  stroke-width="2.0"/>
<line x1="287.8" y1="94.6" x2="322.5" y2="114.6" stroke="rgb(0,0,0)"  stroke-width="2.0"/>
<line x1="149.3" y1="161.6" x2="149.3" y2="134.6" stroke="rgb(0,0,0)"  stroke-width="2.0"/>
<line x1="149.3" y1="134.6" x2="114.6" y2="114.6" stroke="rgb(0,0,0)"  stroke-width="2.0"/>
<line x1="114.6" y1="114.6" x2="91.3" y2="128.1" stroke="rgb(0,0,0)"  stroke-width="2.0"/>
<line x1="80.0" y1="147.6" x2="80.0" y2="174.6" stroke="rgb(0,0,0)"  stroke-width="2.0"/>
<line x1="80.0" y1="174.6" x2="114.6" y2="194.6" stroke="rgb(0,0,0)"  stroke-width="2.0"/>
<line x1="114.6" y1="194.6" x2="138.0" y2="181.1" stroke="rgb(0,0,0)"  stroke-width="2.0"/>
<text x="212.564065" y="302.641016" fill="rgb(191,191,191)"  stroke="rgb(191,191,191)" stroke-width="1" font-size="16" >H</text>
<text x="351.128129" y="302.641016" fill="rgb(255,12,12)"  stroke="rgb(255,12,12)" stroke-width="1" font-size="16" >OH</text>
<text x="143.282032" y="262.641016" fill="rgb(127,178,255)"  stroke="rgb(127,178,255)" stroke-width="1" font-size="16" >F</text>
<text x="54.000000" y="217.282032" fill="rgb(191,191,191)"  stroke="rgb(191,191,191)" stroke-width="1" font-size="16" >H</text>
<text x="88.641016" y="237.282032" fill="rgb(191,191,191)"  stroke="rgb(191,191,191)" stroke-width="1" font-size="16" >H</text>
<text x="128.641016" y="237.282032" fill="rgb(191,191,191)"  stroke="rgb(191,191,191)" stroke-width="1" font-size="16" >H</text>
<text x="54.000000" y="108.000000" fill="rgb(191,191,191)"  stroke="rgb(191,191,191)" stroke-width="1" font-size="16" >H</text>
<text x="88.641016" y="48.000000" fill="rgb(191,191,191)"  stroke="rgb(191,191,191)" stroke-width="1" font-size="16" >H</text>
<text x="123.282032" y="68.000000" fill="rgb(191,191,191)"  stroke="rgb(191,191,191)" stroke-width="1" font-size="16" >H</text>
<text x="48.641016" y="88.000000" fill="rgb(191,191,191)"  stroke="rgb(191,191,191)" stroke-width="1" font-size="16" >H</text>
<text x="385.769145" y="242.641016" fill="rgb(255,12,12)"  stroke="rgb(255,12,12)" stroke-width="1" font-size="16" >O</text>
<text x="137.923048" y="122.641016" fill="rgb(191,191,191)"  stroke="rgb(191,191,191)" stroke-width="1" font-size="16" >H</text>
<text x="157.923048" y="157.282032" fill="rgb(191,191,191)"  stroke="rgb(191,191,191)" stroke-width="1" font-size="16" >H</text>
<text x="177.923048" y="82.641016" fill="rgb(191,191,191)"  stroke="rgb(191,191,191)" stroke-width="1" font-size="16" >H</text>
<text x="351.128129" y="182.641016" fill="rgb(191,191,191)"  stroke="rgb(191,191,191)" stroke-width="1" font-size="16" >H</text>
<text x="247.205081" y="162.641016" fill="rgb(191,191,191)"  stroke="rgb(191,191,191)" stroke-width="1" font-size="16" >H</text>
<text x="247.205081" y="82.641016" fill="rgb(191,191,191)"  stroke="rgb(191,191,191)" stroke-width="1" font-size="16" >H</text>
<text x="281.846097" y="62.641016" fill="rgb(191,191,191)"  stroke="rgb(191,191,191)" stroke-width="1" font-size="16" >H</text>
<text x="351.128129" y="102.641016" fill="rgb(191,191,191)"  stroke="rgb(191,191,191)" stroke-width="1" font-size="16" >H</text>
<text x="351.128129" y="142.641016" fill="rgb(191,191,191)"  stroke="rgb(191,191,191)" stroke-width="1" font-size="16" >H</text>
<text x="34.000000" y="142.641016" fill="rgb(191,191,191)"  stroke="rgb(191,191,191)" stroke-width="1" font-size="16" >H</text>
<text x="316.487113" y="322.641016" fill="rgb(191,191,191)"  stroke="rgb(191,191,191)" stroke-width="1" font-size="16" >H</text>
<text x="143.282032" y="182.641016" fill="rgb(12,12,255)"  stroke="rgb(12,12,255)" stroke-width="1" font-size="16" >N</text>
<text x="128.641016" y="88.000000" fill="rgb(191,191,191)"  stroke="rgb(191,191,191)" stroke-width="1" font-size="16" >H</text>
<text x="84.800000" y="130.609016" fill="rgb(12,12,255)"  stroke="rgb(12,12,255)" stroke-width="1" font-size="16" >+</text>
<text x="74.000000" y="142.641016" fill="rgb(12,12,255)"  stroke="rgb(12,12,255)" stroke-width="1" font-size="16" >N</text>
<text x="183.282032" y="142.641016" fill="rgb(191,191,191)"  stroke="rgb(191,191,191)" stroke-width="1" font-size="16" >H</text>
<text x="163.282032" y="108.000000" fill="rgb(191,191,191)"  stroke="rgb(191,191,191)" stroke-width="1" font-size="16" >H</text>
<text x="34.000000" y="182.641016" fill="rgb(191,191,191)"  stroke="rgb(191,191,191)" stroke-width="1" font-size="16" >H</text>
<text x="212.564065" y="142.641016" fill="rgb(255,12,12)"  stroke="rgb(255,12,12)" stroke-width="1" font-size="16" >O</text>
<text x="281.846097" y="182.641016" fill="rgb(12,12,255)"  stroke="rgb(12,12,255)" stroke-width="1" font-size="16" >N</text>
<text x="281.846097" y="302.641016" fill="rgb(255,12,12)"  stroke="rgb(255,12,12)" stroke-width="1" font-size="16" >O</text>
</svg>
</g>
<text font-size="18.000000" fill ="black" font-family="sans-serif"
x="10.000000" y="20.000000" >ZINC38197764</text>
</svg>
