<?xml version="1.0"?>
<svg version="1.1" id="topsvg"
xmlns="http://www.w3.org/2000/svg" xmlns:xlink="http://www.w3.org/1999/xlink"
xmlns:cml="http://www.xml-cml.org/schema" x="0" y="0" width="200px" height="200px" viewBox="0 0 100 100">
<title>ZINC98216439 - Open Babel Depiction</title>
<rect x="0" y="0" width="100" height="100" fill="white"/>
<g transform="translate(0,0)">
<svg width="100" height="100" x="0" y="0" viewBox="0 0 642.089 598.274"
font-family="sans-serif" stroke="rgb(0,0,0)" stroke-width="2"  stroke-linecap="round">
<line x1="390.2" y1="78.8" x2="423.8" y2="98.2" stroke="rgb(0,0,0)"  stroke-width="2.0"/>
<line x1="390.2" y1="78.8" x2="364.4" y2="78.8" stroke="rgb(0,0,0)"  stroke-width="2.0"/>
<line x1="390.2" y1="78.8" x2="377.3" y2="101.1" stroke="rgb(0,0,0)"  stroke-width="2.0"/>
<line x1="390.2" y1="78.8" x2="390.2" y2="53.0" stroke="rgb(0,0,0)"  stroke-width="2.0"/>
<polygon points="423.796747 98.163265 414.271053 122.662252 407.342850 118.662252 " stroke-width="2.000000" fill="rgb(0,0,0)"  stroke="rgb(0,0,0)" />
<line x1="423.8" y1="98.2" x2="457.4" y2="117.6" stroke="rgb(0,0,0)"  stroke-width="2.0"/>
<line x1="423.8" y1="98.2" x2="436.7" y2="75.8" stroke="rgb(0,0,0)"  stroke-width="2.0"/>
<line x1="457.4" y1="117.6" x2="457.4" y2="156.3" stroke="rgb(0,0,0)"  stroke-width="2.0"/>
<line x1="457.4" y1="117.6" x2="483.2" y2="117.6" stroke="rgb(0,0,0)"  stroke-width="2.0"/>
<line x1="457.4" y1="117.6" x2="470.3" y2="95.2" stroke="rgb(0,0,0)"  stroke-width="2.0"/>
<line x1="458.9" y1="158.9" x2="436.6" y2="171.8" stroke="rgb(0,0,0)"  stroke-width="2.0"/>
<line x1="455.9" y1="153.7" x2="433.6" y2="166.6" stroke="rgb(0,0,0)"  stroke-width="2.0"/>
<line x1="457.4" y1="156.3" x2="479.7" y2="169.2" stroke="rgb(0,0,0)"  stroke-width="2.0"/>
<line x1="491.0" y1="188.7" x2="491.0" y2="214.5" stroke="rgb(0,0,0)"  stroke-width="2.0"/>
<line x1="491.0" y1="214.5" x2="457.4" y2="233.9" stroke="rgb(0,0,0)"  stroke-width="2.0"/>
<line x1="491.0" y1="214.5" x2="503.8" y2="236.8" stroke="rgb(0,0,0)"  stroke-width="2.0"/>
<line x1="491.0" y1="214.5" x2="516.7" y2="214.5" stroke="rgb(0,0,0)"  stroke-width="2.0"/>
<line x1="457.4" y1="233.9" x2="457.4" y2="259.7" stroke="rgb(0,0,0)"  stroke-width="2.0"/>
<line x1="457.4" y1="233.9" x2="431.6" y2="233.9" stroke="rgb(0,0,0)"  stroke-width="2.0"/>
<line x1="457.4" y1="233.9" x2="444.5" y2="211.6" stroke="rgb(0,0,0)"  stroke-width="2.0"/>
<line x1="468.6" y1="279.2" x2="491.0" y2="292.0" stroke="rgb(0,0,0)"  stroke-width="2.0"/>
<line x1="446.1" y1="279.2" x2="435.1" y2="285.5" stroke="rgb(0,0,0)"  stroke-width="2.0"/>
<line x1="489.5" y1="289.4" x2="511.8" y2="276.6" stroke="rgb(0,0,0)"  stroke-width="2.0"/>
<line x1="492.5" y1="294.6" x2="514.8" y2="281.8" stroke="rgb(0,0,0)"  stroke-width="2.0"/>
<line x1="491.0" y1="292.0" x2="491.0" y2="330.8" stroke="rgb(0,0,0)"  stroke-width="2.0"/>
<line x1="491.0" y1="330.8" x2="524.5" y2="350.2" stroke="rgb(0,0,0)"  stroke-width="2.0"/>
<line x1="491.0" y1="330.8" x2="478.1" y2="353.1" stroke="rgb(0,0,0)"  stroke-width="2.0"/>
<line x1="491.0" y1="330.8" x2="465.2" y2="330.8" stroke="rgb(0,0,0)"  stroke-width="2.0"/>
<line x1="524.5" y1="350.2" x2="524.5" y2="376.0" stroke="rgb(0,0,0)"  stroke-width="2.0"/>
<line x1="524.5" y1="350.2" x2="550.3" y2="350.2" stroke="rgb(0,0,0)"  stroke-width="2.0"/>
<line x1="524.5" y1="350.2" x2="537.4" y2="327.9" stroke="rgb(0,0,0)"  stroke-width="2.0"/>
<line x1="513.3" y1="395.5" x2="491.0" y2="408.4" stroke="rgb(0,0,0)"  stroke-width="2.0"/>
<line x1="535.8" y1="395.5" x2="546.9" y2="401.9" stroke="rgb(0,0,0)"  stroke-width="2.0"/>
<line x1="489.5" y1="411.0" x2="467.1" y2="398.1" stroke="rgb(0,0,0)"  stroke-width="2.0"/>
<line x1="492.5" y1="405.8" x2="470.1" y2="392.9" stroke="rgb(0,0,0)"  stroke-width="2.0"/>
<line x1="491.0" y1="408.4" x2="491.0" y2="447.1" stroke="rgb(0,0,0)"  stroke-width="2.0"/>
<line x1="496.2" y1="446.3" x2="496.2" y2="447.9" stroke="rgb(0,0,0)"  stroke-width="1.0"/>
<line x1="500.3" y1="445.7" x2="500.3" y2="448.6" stroke="rgb(0,0,0)"  stroke-width="1.0"/>
<line x1="504.5" y1="445.1" x2="504.5" y2="449.2" stroke="rgb(0,0,0)"  stroke-width="1.0"/>
<line x1="508.6" y1="444.4" x2="508.6" y2="449.9" stroke="rgb(0,0,0)"  stroke-width="1.0"/>
<line x1="512.8" y1="443.8" x2="512.8" y2="450.5" stroke="rgb(0,0,0)"  stroke-width="1.0"/>
<line x1="516.9" y1="443.1" x2="516.9" y2="451.1" stroke="rgb(0,0,0)"  stroke-width="1.0"/>
<line x1="491.0" y1="447.1" x2="491.0" y2="485.9" stroke="rgb(0,0,0)"  stroke-width="2.0"/>
<line x1="491.0" y1="447.1" x2="465.2" y2="447.1" stroke="rgb(0,0,0)"  stroke-width="2.0"/>
<line x1="491.0" y1="485.9" x2="568.5" y2="485.9" stroke="rgb(0,0,0)"  stroke-width="2.0"/>
<line x1="491.0" y1="485.9" x2="491.0" y2="524.7" stroke="rgb(0,0,0)"  stroke-width="2.0"/>
<line x1="491.0" y1="485.9" x2="452.2" y2="485.9" stroke="rgb(0,0,0)"  stroke-width="2.0"/>
<line x1="568.5" y1="485.9" x2="590.8" y2="473.0" stroke="rgb(0,0,0)"  stroke-width="2.0"/>
<line x1="568.5" y1="485.9" x2="568.5" y2="460.1" stroke="rgb(0,0,0)"  stroke-width="2.0"/>
<line x1="568.5" y1="485.9" x2="581.4" y2="508.2" stroke="rgb(0,0,0)"  stroke-width="2.0"/>
<line x1="491.0" y1="524.7" x2="503.8" y2="547.0" stroke="rgb(0,0,0)"  stroke-width="2.0"/>
<line x1="491.0" y1="524.7" x2="516.7" y2="524.7" stroke="rgb(0,0,0)"  stroke-width="2.0"/>
<line x1="491.0" y1="524.7" x2="468.6" y2="537.6" stroke="rgb(0,0,0)"  stroke-width="2.0"/>
<line x1="452.2" y1="485.9" x2="439.3" y2="463.6" stroke="rgb(0,0,0)"  stroke-width="2.0"/>
<line x1="452.2" y1="485.9" x2="429.9" y2="498.8" stroke="rgb(0,0,0)"  stroke-width="2.0"/>
<line x1="452.2" y1="485.9" x2="452.2" y2="511.7" stroke="rgb(0,0,0)"  stroke-width="2.0"/>
<line x1="419.8" y1="452.3" x2="407.0" y2="452.3" stroke="rgb(0,0,0)"  stroke-width="2.0"/>
<line x1="394.8" y1="467.8" x2="393.2" y2="467.8" stroke="rgb(0,0,0)"  stroke-width="1.0"/>
<line x1="395.5" y1="469.9" x2="392.6" y2="469.9" stroke="rgb(0,0,0)"  stroke-width="1.0"/>
<line x1="396.1" y1="472.0" x2="391.9" y2="472.0" stroke="rgb(0,0,0)"  stroke-width="1.0"/>
<line x1="396.7" y1="474.1" x2="391.3" y2="474.1" stroke="rgb(0,0,0)"  stroke-width="1.0"/>
<line x1="397.4" y1="476.2" x2="390.7" y2="476.2" stroke="rgb(0,0,0)"  stroke-width="1.0"/>
<line x1="398.0" y1="478.3" x2="390.0" y2="478.3" stroke="rgb(0,0,0)"  stroke-width="1.0"/>
<line x1="381.0" y1="452.3" x2="368.2" y2="452.3" stroke="rgb(0,0,0)"  stroke-width="2.0"/>
<line x1="394.0" y1="439.3" x2="394.0" y2="426.6" stroke="rgb(0,0,0)"  stroke-width="2.0"/>
<line x1="394.0" y1="400.6" x2="394.0" y2="387.8" stroke="rgb(0,0,0)"  stroke-width="2.0"/>
<polygon points="406.815044 374.786770 419.998717 370.786770 419.998717 378.786770 " stroke-width="2.000000" fill="rgb(0,0,0)"  stroke="rgb(0,0,0)" />
<line x1="394.0" y1="361.8" x2="394.0" y2="349.0" stroke="rgb(0,0,0)"  stroke-width="2.0"/>
<line x1="381.0" y1="374.8" x2="368.2" y2="374.8" stroke="rgb(0,0,0)"  stroke-width="2.0"/>
<line x1="348.7" y1="386.0" x2="335.9" y2="408.4" stroke="rgb(0,0,0)"  stroke-width="2.0"/>
<line x1="335.9" y1="408.4" x2="258.3" y2="408.4" stroke="rgb(0,0,0)"  stroke-width="2.0"/>
<line x1="335.9" y1="408.4" x2="335.9" y2="434.1" stroke="rgb(0,0,0)"  stroke-width="2.0"/>
<line x1="335.9" y1="408.4" x2="358.2" y2="421.3" stroke="rgb(0,0,0)"  stroke-width="2.0"/>
<line x1="258.3" y1="408.4" x2="253.2" y2="433.6" stroke="rgb(0,0,0)"  stroke-width="2.0"/>
<line x1="258.7" y1="400.6" x2="260.3" y2="400.8" stroke="rgb(0,0,0)"  stroke-width="1.0"/>
<line x1="259.1" y1="394.4" x2="261.9" y2="394.8" stroke="rgb(0,0,0)"  stroke-width="1.0"/>
<line x1="259.4" y1="388.1" x2="263.5" y2="388.8" stroke="rgb(0,0,0)"  stroke-width="1.0"/>
<line x1="259.7" y1="381.9" x2="265.1" y2="382.8" stroke="rgb(0,0,0)"  stroke-width="1.0"/>
<line x1="260.1" y1="375.7" x2="266.7" y2="376.7" stroke="rgb(0,0,0)"  stroke-width="1.0"/>
<line x1="260.4" y1="369.4" x2="268.3" y2="370.7" stroke="rgb(0,0,0)"  stroke-width="1.0"/>
<line x1="264.4" y1="370.1" x2="290.1" y2="371.4" stroke="rgb(0,0,0)"  stroke-width="2.0"/>
<line x1="257.1" y1="367.3" x2="257.8" y2="365.8" stroke="rgb(0,0,0)"  stroke-width="1.0"/>
<line x1="251.3" y1="365.0" x2="252.6" y2="362.4" stroke="rgb(0,0,0)"  stroke-width="1.0"/>
<line x1="245.5" y1="362.8" x2="247.3" y2="359.1" stroke="rgb(0,0,0)"  stroke-width="1.0"/>
<line x1="239.6" y1="360.5" x2="242.1" y2="355.7" stroke="rgb(0,0,0)"  stroke-width="1.0"/>
<line x1="233.8" y1="358.3" x2="236.9" y2="352.3" stroke="rgb(0,0,0)"  stroke-width="1.0"/>
<line x1="228.0" y1="356.0" x2="231.6" y2="348.9" stroke="rgb(0,0,0)"  stroke-width="1.0"/>
<line x1="264.4" y1="370.1" x2="299.5" y2="315.9" stroke="rgb(0,0,0)"  stroke-width="2.0"/>
<line x1="229.8" y1="352.5" x2="239.1" y2="328.4" stroke="rgb(0,0,0)"  stroke-width="2.0"/>
<line x1="224.9" y1="358.5" x2="223.8" y2="357.4" stroke="rgb(0,0,0)"  stroke-width="1.0"/>
<line x1="221.0" y1="363.4" x2="218.9" y2="361.3" stroke="rgb(0,0,0)"  stroke-width="1.0"/>
<line x1="217.0" y1="368.2" x2="214.1" y2="365.3" stroke="rgb(0,0,0)"  stroke-width="1.0"/>
<line x1="213.1" y1="373.0" x2="209.3" y2="369.2" stroke="rgb(0,0,0)"  stroke-width="1.0"/>
<line x1="209.2" y1="377.9" x2="204.4" y2="373.1" stroke="rgb(0,0,0)"  stroke-width="1.0"/>
<line x1="205.2" y1="382.7" x2="199.6" y2="377.1" stroke="rgb(0,0,0)"  stroke-width="1.0"/>
<line x1="229.8" y1="352.5" x2="213.6" y2="332.4" stroke="rgb(0,0,0)"  stroke-width="2.0"/>
<line x1="197.9" y1="377.2" x2="198.9" y2="376.0" stroke="rgb(0,0,0)"  stroke-width="1.0"/>
<line x1="194.2" y1="375.1" x2="196.0" y2="372.9" stroke="rgb(0,0,0)"  stroke-width="1.0"/>
<line x1="190.6" y1="373.0" x2="193.2" y2="369.8" stroke="rgb(0,0,0)"  stroke-width="1.0"/>
<line x1="187.0" y1="370.9" x2="190.4" y2="366.7" stroke="rgb(0,0,0)"  stroke-width="1.0"/>
<line x1="183.3" y1="368.8" x2="187.6" y2="363.5" stroke="rgb(0,0,0)"  stroke-width="1.0"/>
<line x1="179.7" y1="366.6" x2="184.7" y2="360.4" stroke="rgb(0,0,0)"  stroke-width="1.0"/>
<line x1="202.4" y1="379.9" x2="178.3" y2="389.1" stroke="rgb(0,0,0)"  stroke-width="2.0"/>
<line x1="133.7" y1="372.7" x2="132.3" y2="346.9" stroke="rgb(0,0,0)"  stroke-width="2.0"/>
<line x1="159.7" y1="498.3" x2="173.7" y2="519.9" stroke="rgb(0,0,0)"  stroke-width="2.0"/>
<line x1="99.8" y1="467.8" x2="74.1" y2="469.2" stroke="rgb(0,0,0)"  stroke-width="2.0"/>
<line x1="54.0" y1="458.9" x2="47.1" y2="448.2" stroke="rgb(0,0,0)"  stroke-width="2.0"/>
<line x1="55.2" y1="481.4" x2="49.4" y2="492.8" stroke="rgb(0,0,0)"  stroke-width="2.0"/>
<line x1="192.6" y1="324.4" x2="180.0" y2="326.4" stroke="rgb(0,0,0)"  stroke-width="2.0"/>
<line x1="300.7" y1="293.4" x2="294.9" y2="282.1" stroke="rgb(0,0,0)"  stroke-width="2.0"/>
<line x1="275.6" y1="278.2" x2="274.9" y2="276.8" stroke="rgb(0,0,0)"  stroke-width="1.0"/>
<line x1="274.0" y1="279.7" x2="272.7" y2="277.2" stroke="rgb(0,0,0)"  stroke-width="1.0"/>
<line x1="272.4" y1="281.3" x2="270.6" y2="277.5" stroke="rgb(0,0,0)"  stroke-width="1.0"/>
<line x1="270.9" y1="282.8" x2="268.4" y2="277.9" stroke="rgb(0,0,0)"  stroke-width="1.0"/>
<line x1="269.3" y1="284.3" x2="266.2" y2="278.3" stroke="rgb(0,0,0)"  stroke-width="1.0"/>
<line x1="267.7" y1="285.8" x2="264.0" y2="278.7" stroke="rgb(0,0,0)"  stroke-width="1.0"/>
<line x1="283.1" y1="258.9" x2="277.3" y2="247.5" stroke="rgb(0,0,0)"  stroke-width="2.0"/>
<line x1="300.6" y1="264.6" x2="312.0" y2="258.8" stroke="rgb(0,0,0)"  stroke-width="2.0"/>
<line x1="258.4" y1="235.3" x2="245.7" y2="234.6" stroke="rgb(0,0,0)"  stroke-width="2.0"/>
<line x1="445.7" y1="435.9" x2="439.3" y2="424.8" stroke="rgb(0,0,0)"  stroke-width="2.0"/>
<line x1="456.2" y1="64.6" x2="469.0" y2="64.6" stroke="rgb(0,0,0)"  stroke-width="2.0"/>
<line x1="108.2" y1="409.2" x2="117.4" y2="433.3" stroke="rgb(0,0,0)"  stroke-width="2.0"/>
<line x1="117.4" y1="433.3" x2="156.2" y2="431.2" stroke="rgb(0,0,0)"  stroke-width="2.0"/>
<line x1="156.2" y1="431.2" x2="162.8" y2="406.3" stroke="rgb(0,0,0)"  stroke-width="2.0"/>
<line x1="155.3" y1="386.7" x2="133.7" y2="372.7" stroke="rgb(0,0,0)"  stroke-width="2.0"/>
<line x1="133.7" y1="372.7" x2="113.5" y2="389.0" stroke="rgb(0,0,0)"  stroke-width="2.0"/>
<line x1="133.6" y1="382.0" x2="119.7" y2="393.3" stroke="rgb(0,0,0)"  stroke-width="2.0"/>
<line x1="133.7" y1="499.7" x2="159.7" y2="498.3" stroke="rgb(0,0,0)"  stroke-width="2.0"/>
<line x1="135.5" y1="492.4" x2="153.3" y2="491.4" stroke="rgb(0,0,0)"  stroke-width="2.0"/>
<line x1="159.7" y1="498.3" x2="171.4" y2="475.3" stroke="rgb(0,0,0)"  stroke-width="2.0"/>
<line x1="170.3" y1="453.0" x2="156.2" y2="431.2" stroke="rgb(0,0,0)"  stroke-width="2.0"/>
<line x1="163.1" y1="455.2" x2="153.4" y2="440.2" stroke="rgb(0,0,0)"  stroke-width="2.0"/>
<line x1="117.4" y1="433.3" x2="99.8" y2="467.8" stroke="rgb(0,0,0)"  stroke-width="2.0"/>
<line x1="121.1" y1="441.9" x2="109.0" y2="465.7" stroke="rgb(0,0,0)"  stroke-width="2.0"/>
<line x1="99.8" y1="467.8" x2="113.9" y2="489.4" stroke="rgb(0,0,0)"  stroke-width="2.0"/>
<line x1="229.8" y1="352.5" x2="202.4" y2="379.9" stroke="rgb(0,0,0)"  stroke-width="2.0"/>
<line x1="202.4" y1="379.9" x2="214.1" y2="402.9" stroke="rgb(0,0,0)"  stroke-width="2.0"/>
<line x1="232.8" y1="412.4" x2="258.3" y2="408.4" stroke="rgb(0,0,0)"  stroke-width="2.0"/>
<line x1="258.3" y1="408.4" x2="264.4" y2="370.1" stroke="rgb(0,0,0)"  stroke-width="2.0"/>
<line x1="264.4" y1="370.1" x2="229.8" y2="352.5" stroke="rgb(0,0,0)"  stroke-width="2.0"/>
<text x="446.182391" y="455.142857" fill="rgb(255,12,12)"  stroke="rgb(255,12,12)" stroke-width="1" font-size="16" >O</text>
<text x="417.796747" y="300.040816" fill="rgb(191,191,191)"  stroke="rgb(191,191,191)" stroke-width="1" font-size="16" >H</text>
<text x="431.989569" y="208.296974" fill="rgb(191,191,191)"  stroke="rgb(191,191,191)" stroke-width="1" font-size="16" >H</text>
<text x="412.601814" y="241.877551" fill="rgb(191,191,191)"  stroke="rgb(191,191,191)" stroke-width="1" font-size="16" >H</text>
<text x="523.733411" y="222.489796" fill="rgb(191,191,191)"  stroke="rgb(191,191,191)" stroke-width="1" font-size="16" >H</text>
<text x="504.345656" y="256.070373" fill="rgb(191,191,191)"  stroke="rgb(191,191,191)" stroke-width="1" font-size="16" >H</text>
<text x="470.765079" y="91.970444" fill="rgb(191,191,191)"  stroke="rgb(191,191,191)" stroke-width="1" font-size="16" >H</text>
<text x="490.152834" y="125.551020" fill="rgb(191,191,191)"  stroke="rgb(191,191,191)" stroke-width="1" font-size="16" >H</text>
<text x="384.216170" y="48.000000" fill="rgb(191,191,191)"  stroke="rgb(191,191,191)" stroke-width="1" font-size="16" >H</text>
<text x="364.828415" y="120.356087" fill="rgb(191,191,191)"  stroke="rgb(191,191,191)" stroke-width="1" font-size="16" >H</text>
<text x="345.440660" y="86.775510" fill="rgb(191,191,191)"  stroke="rgb(191,191,191)" stroke-width="1" font-size="16" >H</text>
<text x="437.184502" y="72.582688" fill="rgb(255,12,12)"  stroke="rgb(255,12,12)" stroke-width="1" font-size="16" >O</text>
<text x="465.570146" y="372.396903" fill="rgb(191,191,191)"  stroke="rgb(191,191,191)" stroke-width="1" font-size="16" >H</text>
<text x="317.553498" y="260.876523" fill="rgb(255,12,12)"  stroke="rgb(255,12,12)" stroke-width="1" font-size="16" >OH</text>
<text x="265.400552" y="243.931004" fill="rgb(255,12,12)"  stroke="rgb(255,12,12)" stroke-width="1" font-size="16" >O</text>
<text x="248.455033" y="296.083950" fill="rgb(255,12,12)"  stroke="rgb(255,12,12)" stroke-width="1" font-size="16" >O</text>
<text x="283.004265" y="278.480237" fill="rgb(255,127,0)"  stroke="rgb(255,127,0)" stroke-width="1" font-size="16" >P</text>
<text x="300.607979" y="313.029469" fill="rgb(255,12,12)"  stroke="rgb(255,12,12)" stroke-width="1" font-size="16" >O</text>
<text x="199.419214" y="330.331283" fill="rgb(255,12,12)"  stroke="rgb(255,12,12)" stroke-width="1" font-size="16" >O</text>
<text x="55.118656" y="477.842047" fill="rgb(12,12,255)"  stroke="rgb(12,12,255)" stroke-width="1" font-size="16" >N</text>
<text x="114.959683" y="508.332573" fill="rgb(12,12,255)"  stroke="rgb(12,12,255)" stroke-width="1" font-size="16" >N</text>
<text x="171.285766" y="471.753987" fill="rgb(12,12,255)"  stroke="rgb(12,12,255)" stroke-width="1" font-size="16" >N</text>
<text x="412.601814" y="513.306122" fill="rgb(191,191,191)"  stroke="rgb(191,191,191)" stroke-width="1" font-size="16" >H</text>
<text x="226.678182" y="241.901651" fill="rgb(191,191,191)"  stroke="rgb(191,191,191)" stroke-width="1" font-size="16" >H</text>
<text x="475.960012" y="72.582688" fill="rgb(191,191,191)"  stroke="rgb(191,191,191)" stroke-width="1" font-size="16" >H</text>
<text x="426.794636" y="421.562280" fill="rgb(191,191,191)"  stroke="rgb(191,191,191)" stroke-width="1" font-size="16" >H</text>
<text x="161.121095" y="336.397109" fill="rgb(191,191,191)"  stroke="rgb(191,191,191)" stroke-width="1" font-size="16" >H</text>
<text x="37.514943" y="512.391279" fill="rgb(191,191,191)"  stroke="rgb(191,191,191)" stroke-width="1" font-size="16" >H</text>
<text x="34.000000" y="445.322168" fill="rgb(191,191,191)"  stroke="rgb(191,191,191)" stroke-width="1" font-size="16" >H</text>
<text x="174.800709" y="538.823098" fill="rgb(191,191,191)"  stroke="rgb(191,191,191)" stroke-width="1" font-size="16" >H</text>
<text x="125.653717" y="341.938814" fill="rgb(191,191,191)"  stroke="rgb(191,191,191)" stroke-width="1" font-size="16" >H</text>
<text x="363.436437" y="435.755102" fill="rgb(191,191,191)"  stroke="rgb(191,191,191)" stroke-width="1" font-size="16" >H</text>
<text x="329.855860" y="455.142857" fill="rgb(191,191,191)"  stroke="rgb(191,191,191)" stroke-width="1" font-size="16" >H</text>
<text x="446.182391" y="532.693878" fill="rgb(191,191,191)"  stroke="rgb(191,191,191)" stroke-width="1" font-size="16" >H</text>
<text x="451.377324" y="552.081633" fill="rgb(191,191,191)"  stroke="rgb(191,191,191)" stroke-width="1" font-size="16" >H</text>
<text x="523.733411" y="532.693878" fill="rgb(191,191,191)"  stroke="rgb(191,191,191)" stroke-width="1" font-size="16" >H</text>
<text x="504.345656" y="566.274454" fill="rgb(191,191,191)"  stroke="rgb(191,191,191)" stroke-width="1" font-size="16" >H</text>
<text x="581.896676" y="527.498944" fill="rgb(191,191,191)"  stroke="rgb(191,191,191)" stroke-width="1" font-size="16" >H</text>
<text x="562.508921" y="455.142857" fill="rgb(191,191,191)"  stroke="rgb(191,191,191)" stroke-width="1" font-size="16" >H</text>
<text x="596.089498" y="474.530612" fill="rgb(191,191,191)"  stroke="rgb(191,191,191)" stroke-width="1" font-size="16" >H</text>
<text x="552.119055" y="416.367347" fill="rgb(191,191,191)"  stroke="rgb(191,191,191)" stroke-width="1" font-size="16" >H</text>
<text x="537.926233" y="324.623505" fill="rgb(191,191,191)"  stroke="rgb(191,191,191)" stroke-width="1" font-size="16" >H</text>
<text x="557.313988" y="358.204082" fill="rgb(191,191,191)"  stroke="rgb(191,191,191)" stroke-width="1" font-size="16" >H</text>
<text x="446.182391" y="338.816327" fill="rgb(191,191,191)"  stroke="rgb(191,191,191)" stroke-width="1" font-size="16" >H</text>
<text x="518.538478" y="280.653061" fill="rgb(255,12,12)"  stroke="rgb(255,12,12)" stroke-width="1" font-size="16" >O</text>
<text x="523.733411" y="455.142857" fill="rgb(191,191,191)"  stroke="rgb(191,191,191)" stroke-width="1" font-size="16" >H</text>
<text x="451.377324" y="396.979592" fill="rgb(255,12,12)"  stroke="rgb(255,12,12)" stroke-width="1" font-size="16" >O</text>
<text x="518.538478" y="396.979592" fill="rgb(12,12,255)"  stroke="rgb(12,12,255)" stroke-width="1" font-size="16" >N</text>
<text x="426.794636" y="460.337790" fill="rgb(255,12,12)"  stroke="rgb(255,12,12)" stroke-width="1" font-size="16" >O</text>
<text x="451.377324" y="280.653061" fill="rgb(12,12,255)"  stroke="rgb(12,12,255)" stroke-width="1" font-size="16" >N</text>
<text x="484.957901" y="183.714286" fill="rgb(178,178,0)"  stroke="rgb(178,178,0)" stroke-width="1" font-size="16" >S</text>
<text x="417.796747" y="183.714286" fill="rgb(255,12,12)"  stroke="rgb(255,12,12)" stroke-width="1" font-size="16" >O</text>
<text x="398.408992" y="139.743842" fill="rgb(191,191,191)"  stroke="rgb(191,191,191)" stroke-width="1" font-size="16" >H</text>
<text x="244.590682" y="454.367767" fill="rgb(191,191,191)"  stroke="rgb(191,191,191)" stroke-width="1" font-size="16" >H</text>
<text x="97.548839" y="405.063403" fill="rgb(12,12,255)"  stroke="rgb(12,12,255)" stroke-width="1" font-size="16" >N</text>
<text x="160.202950" y="401.779841" fill="rgb(12,12,255)"  stroke="rgb(12,12,255)" stroke-width="1" font-size="16" >N</text>
<text x="214.006720" y="422.433173" fill="rgb(255,12,12)"  stroke="rgb(255,12,12)" stroke-width="1" font-size="16" >O</text>
<text x="166.268776" y="363.481721" fill="rgb(191,191,191)"  stroke="rgb(191,191,191)" stroke-width="1" font-size="16" >H</text>
<text x="237.717333" y="324.265457" fill="rgb(191,191,191)"  stroke="rgb(191,191,191)" stroke-width="1" font-size="16" >H</text>
<text x="297.093036" y="380.098581" fill="rgb(191,191,191)"  stroke="rgb(191,191,191)" stroke-width="1" font-size="16" >H</text>
<text x="349.243615" y="382.786770" fill="rgb(255,12,12)"  stroke="rgb(255,12,12)" stroke-width="1" font-size="16" >O</text>
<text x="388.019125" y="344.011260" fill="rgb(255,12,12)"  stroke="rgb(255,12,12)" stroke-width="1" font-size="16" >OH</text>
<text x="426.794636" y="382.786770" fill="rgb(255,12,12)"  stroke="rgb(255,12,12)" stroke-width="1" font-size="16" >O</text>
<text x="388.019125" y="382.786770" fill="rgb(255,127,0)"  stroke="rgb(255,127,0)" stroke-width="1" font-size="16" >P</text>
<text x="388.019125" y="421.562280" fill="rgb(255,12,12)"  stroke="rgb(255,12,12)" stroke-width="1" font-size="16" >O</text>
<text x="337.243615" y="460.337790" fill="rgb(255,12,12)"  stroke="rgb(255,12,12)" stroke-width="1" font-size="16" >HO</text>
<text x="388.019125" y="499.113301" fill="rgb(255,12,12)"  stroke="rgb(255,12,12)" stroke-width="1" font-size="16" >O</text>
<text x="388.019125" y="460.337790" fill="rgb(255,127,0)"  stroke="rgb(255,127,0)" stroke-width="1" font-size="16" >P</text>
</svg>
</g>
<text font-size="18.000000" fill ="black" font-family="sans-serif"
x="10.000000" y="20.000000" >ZINC98216439</text>
</svg>
