<?xml version="1.0"?>
<svg version="1.1" id="topsvg"
xmlns="http://www.w3.org/2000/svg" xmlns:xlink="http://www.w3.org/1999/xlink"
xmlns:cml="http://www.xml-cml.org/schema" x="0" y="0" width="200px" height="200px" viewBox="0 0 100 100">
<title>ZINC98219259 - Open Babel Depiction</title>
<rect x="0" y="0" width="100" height="100" fill="white"/>
<g transform="translate(0,0)">
<svg width="100" height="100" x="0" y="0" viewBox="0 0 726.045 578"
font-family="sans-serif" stroke="rgb(0,0,0)" stroke-width="2"  stroke-linecap="round">
<line x1="583.4" y1="232.7" x2="615.2" y2="209.6" stroke="rgb(0,0,0)"  stroke-width="2.0"/>
<line x1="583.4" y1="232.7" x2="572.7" y2="256.8" stroke="rgb(0,0,0)"  stroke-width="2.0"/>
<line x1="583.4" y1="232.7" x2="598.8" y2="254.0" stroke="rgb(0,0,0)"  stroke-width="2.0"/>
<line x1="583.4" y1="232.7" x2="559.3" y2="222.0" stroke="rgb(0,0,0)"  stroke-width="2.0"/>
<line x1="615.2" y1="209.6" x2="592.1" y2="177.8" stroke="rgb(0,0,0)"  stroke-width="2.0"/>
<line x1="615.2" y1="209.6" x2="647.0" y2="186.5" stroke="rgb(0,0,0)"  stroke-width="2.0"/>
<line x1="615.2" y1="209.6" x2="630.6" y2="230.9" stroke="rgb(0,0,0)"  stroke-width="2.0"/>
<line x1="592.1" y1="177.8" x2="589.3" y2="151.7" stroke="rgb(0,0,0)"  stroke-width="2.0"/>
<line x1="592.1" y1="177.8" x2="613.3" y2="162.4" stroke="rgb(0,0,0)"  stroke-width="2.0"/>
<line x1="592.1" y1="177.8" x2="565.9" y2="180.6" stroke="rgb(0,0,0)"  stroke-width="2.0"/>
<line x1="647.0" y1="186.5" x2="673.1" y2="183.8" stroke="rgb(0,0,0)"  stroke-width="2.0"/>
<line x1="647.0" y1="186.5" x2="662.4" y2="207.8" stroke="rgb(0,0,0)"  stroke-width="2.0"/>
<line x1="647.0" y1="186.5" x2="644.2" y2="160.4" stroke="rgb(0,0,0)"  stroke-width="2.0"/>
<line x1="633.0" y1="253.3" x2="622.3" y2="277.3" stroke="rgb(0,0,0)"  stroke-width="2.0"/>
<line x1="622.6" y1="280.3" x2="596.4" y2="283.1" stroke="rgb(0,0,0)"  stroke-width="2.0"/>
<line x1="622.0" y1="274.4" x2="595.8" y2="277.1" stroke="rgb(0,0,0)"  stroke-width="2.0"/>
<line x1="622.3" y1="277.3" x2="637.7" y2="298.6" stroke="rgb(0,0,0)"  stroke-width="2.0"/>
<line x1="640.1" y1="321.0" x2="629.4" y2="345.0" stroke="rgb(0,0,0)"  stroke-width="2.0"/>
<line x1="658.3" y1="307.8" x2="671.5" y2="306.4" stroke="rgb(0,0,0)"  stroke-width="2.0"/>
<line x1="629.4" y1="345.0" x2="590.3" y2="349.2" stroke="rgb(0,0,0)"  stroke-width="2.0"/>
<line x1="629.4" y1="345.0" x2="632.1" y2="371.2" stroke="rgb(0,0,0)"  stroke-width="2.0"/>
<line x1="629.4" y1="345.0" x2="653.4" y2="355.7" stroke="rgb(0,0,0)"  stroke-width="2.0"/>
<line x1="590.3" y1="349.2" x2="574.3" y2="385.1" stroke="rgb(0,0,0)"  stroke-width="2.0"/>
<line x1="590.3" y1="349.2" x2="566.3" y2="338.5" stroke="rgb(0,0,0)"  stroke-width="2.0"/>
<line x1="590.3" y1="349.2" x2="587.6" y2="323.0" stroke="rgb(0,0,0)"  stroke-width="2.0"/>
<line x1="574.3" y1="385.1" x2="535.2" y2="389.2" stroke="rgb(0,0,0)"  stroke-width="2.0"/>
<line x1="574.3" y1="385.1" x2="577.1" y2="411.2" stroke="rgb(0,0,0)"  stroke-width="2.0"/>
<line x1="574.3" y1="385.1" x2="598.3" y2="395.8" stroke="rgb(0,0,0)"  stroke-width="2.0"/>
<line x1="535.2" y1="389.2" x2="519.2" y2="425.1" stroke="rgb(0,0,0)"  stroke-width="2.0"/>
<line x1="535.2" y1="389.2" x2="511.2" y2="378.5" stroke="rgb(0,0,0)"  stroke-width="2.0"/>
<line x1="535.2" y1="389.2" x2="532.5" y2="363.0" stroke="rgb(0,0,0)"  stroke-width="2.0"/>
<line x1="524.4" y1="426.5" x2="523.7" y2="427.9" stroke="rgb(0,0,0)"  stroke-width="1.0"/>
<line x1="528.5" y1="427.6" x2="527.3" y2="430.2" stroke="rgb(0,0,0)"  stroke-width="1.0"/>
<line x1="532.6" y1="428.7" x2="530.9" y2="432.5" stroke="rgb(0,0,0)"  stroke-width="1.0"/>
<line x1="536.7" y1="429.9" x2="534.5" y2="434.8" stroke="rgb(0,0,0)"  stroke-width="1.0"/>
<line x1="540.8" y1="431.0" x2="538.1" y2="437.1" stroke="rgb(0,0,0)"  stroke-width="1.0"/>
<line x1="544.9" y1="432.1" x2="541.7" y2="439.4" stroke="rgb(0,0,0)"  stroke-width="1.0"/>
<line x1="519.2" y1="425.1" x2="503.3" y2="461.0" stroke="rgb(0,0,0)"  stroke-width="2.0"/>
<line x1="519.2" y1="425.1" x2="495.2" y2="414.4" stroke="rgb(0,0,0)"  stroke-width="2.0"/>
<line x1="505.7" y1="459.2" x2="521.1" y2="480.5" stroke="rgb(0,0,0)"  stroke-width="2.0"/>
<line x1="500.8" y1="462.7" x2="516.3" y2="484.0" stroke="rgb(0,0,0)"  stroke-width="2.0"/>
<line x1="503.3" y1="461.0" x2="477.1" y2="463.7" stroke="rgb(0,0,0)"  stroke-width="2.0"/>
<line x1="482.0" y1="396.2" x2="479.2" y2="370.0" stroke="rgb(0,0,0)"  stroke-width="2.0"/>
<line x1="472.8" y1="416.7" x2="462.1" y2="424.6" stroke="rgb(0,0,0)"  stroke-width="2.0"/>
<line x1="477.5" y1="367.6" x2="498.7" y2="352.1" stroke="rgb(0,0,0)"  stroke-width="2.0"/>
<line x1="481.0" y1="372.4" x2="502.3" y2="357.0" stroke="rgb(0,0,0)"  stroke-width="2.0"/>
<line x1="479.2" y1="370.0" x2="443.3" y2="354.0" stroke="rgb(0,0,0)"  stroke-width="2.0"/>
<polygon points="443.317801 354.014233 436.261015 379.698406 428.952651 376.444513 " stroke-width="2.000000" fill="rgb(0,0,0)"  stroke="rgb(0,0,0)" />
<line x1="443.3" y1="354.0" x2="407.4" y2="338.0" stroke="rgb(0,0,0)"  stroke-width="2.0"/>
<line x1="443.3" y1="354.0" x2="454.0" y2="330.0" stroke="rgb(0,0,0)"  stroke-width="2.0"/>
<line x1="407.4" y1="338.0" x2="375.6" y2="361.1" stroke="rgb(0,0,0)"  stroke-width="2.0"/>
<line x1="407.4" y1="338.0" x2="392.0" y2="316.7" stroke="rgb(0,0,0)"  stroke-width="2.0"/>
<line x1="407.4" y1="338.0" x2="418.1" y2="314.0" stroke="rgb(0,0,0)"  stroke-width="2.0"/>
<line x1="338.2" y1="349.0" x2="330.1" y2="324.0" stroke="rgb(0,0,0)"  stroke-width="2.0"/>
<line x1="302.1" y1="380.8" x2="236.5" y2="380.8" stroke="rgb(0,0,0)"  stroke-width="2.0"/>
<line x1="338.2" y1="412.6" x2="330.1" y2="437.6" stroke="rgb(0,0,0)"  stroke-width="2.0"/>
<line x1="236.5" y1="380.8" x2="236.5" y2="420.1" stroke="rgb(0,0,0)"  stroke-width="2.0"/>
<line x1="236.5" y1="380.8" x2="157.9" y2="380.8" stroke="rgb(0,0,0)"  stroke-width="2.0"/>
<line x1="236.5" y1="380.8" x2="236.5" y2="341.5" stroke="rgb(0,0,0)"  stroke-width="2.0"/>
<line x1="202.5" y1="439.7" x2="179.7" y2="426.6" stroke="rgb(0,0,0)"  stroke-width="2.0"/>
<line x1="202.5" y1="479.0" x2="179.7" y2="492.2" stroke="rgb(0,0,0)"  stroke-width="2.0"/>
<line x1="236.5" y1="498.7" x2="236.5" y2="525.0" stroke="rgb(0,0,0)"  stroke-width="2.0"/>
<line x1="270.6" y1="479.0" x2="293.3" y2="492.2" stroke="rgb(0,0,0)"  stroke-width="2.0"/>
<line x1="270.6" y1="439.7" x2="293.3" y2="426.6" stroke="rgb(0,0,0)"  stroke-width="2.0"/>
<line x1="138.3" y1="346.7" x2="151.4" y2="324.0" stroke="rgb(0,0,0)"  stroke-width="2.0"/>
<line x1="99.0" y1="346.7" x2="85.8" y2="324.0" stroke="rgb(0,0,0)"  stroke-width="2.0"/>
<line x1="79.3" y1="380.8" x2="53.0" y2="380.8" stroke="rgb(0,0,0)"  stroke-width="2.0"/>
<line x1="99.0" y1="414.8" x2="85.8" y2="437.6" stroke="rgb(0,0,0)"  stroke-width="2.0"/>
<line x1="138.3" y1="414.8" x2="151.4" y2="437.6" stroke="rgb(0,0,0)"  stroke-width="2.0"/>
<line x1="270.6" y1="321.8" x2="293.3" y2="335.0" stroke="rgb(0,0,0)"  stroke-width="2.0"/>
<line x1="270.6" y1="282.5" x2="293.3" y2="269.4" stroke="rgb(0,0,0)"  stroke-width="2.0"/>
<line x1="236.5" y1="262.9" x2="236.5" y2="236.6" stroke="rgb(0,0,0)"  stroke-width="2.0"/>
<line x1="202.5" y1="282.5" x2="179.7" y2="269.4" stroke="rgb(0,0,0)"  stroke-width="2.0"/>
<line x1="202.5" y1="321.8" x2="179.7" y2="335.0" stroke="rgb(0,0,0)"  stroke-width="2.0"/>
<line x1="451.7" y1="307.6" x2="436.2" y2="286.3" stroke="rgb(0,0,0)"  stroke-width="2.0"/>
<line x1="472.2" y1="316.7" x2="485.5" y2="315.4" stroke="rgb(0,0,0)"  stroke-width="2.0"/>
<line x1="436.5" y1="289.3" x2="410.4" y2="292.0" stroke="rgb(0,0,0)"  stroke-width="2.0"/>
<line x1="435.9" y1="283.3" x2="409.7" y2="286.1" stroke="rgb(0,0,0)"  stroke-width="2.0"/>
<line x1="436.2" y1="286.3" x2="452.2" y2="250.4" stroke="rgb(0,0,0)"  stroke-width="2.0"/>
<line x1="452.2" y1="250.4" x2="436.7" y2="229.1" stroke="rgb(0,0,0)"  stroke-width="2.0"/>
<line x1="452.2" y1="250.4" x2="473.5" y2="234.9" stroke="rgb(0,0,0)"  stroke-width="2.0"/>
<line x1="452.2" y1="250.4" x2="476.2" y2="261.1" stroke="rgb(0,0,0)"  stroke-width="2.0"/>
<line x1="434.4" y1="206.7" x2="445.1" y2="182.7" stroke="rgb(0,0,0)"  stroke-width="2.0"/>
<line x1="416.2" y1="220.0" x2="402.9" y2="221.4" stroke="rgb(0,0,0)"  stroke-width="2.0"/>
<line x1="444.8" y1="179.7" x2="470.9" y2="177.0" stroke="rgb(0,0,0)"  stroke-width="2.0"/>
<line x1="445.4" y1="185.7" x2="471.5" y2="182.9" stroke="rgb(0,0,0)"  stroke-width="2.0"/>
<line x1="445.1" y1="182.7" x2="429.6" y2="161.4" stroke="rgb(0,0,0)"  stroke-width="2.0"/>
<line x1="427.3" y1="139.0" x2="438.0" y2="115.0" stroke="rgb(0,0,0)"  stroke-width="2.0"/>
<line x1="438.0" y1="115.0" x2="402.1" y2="99.0" stroke="rgb(0,0,0)"  stroke-width="2.0"/>
<line x1="438.0" y1="115.0" x2="453.9" y2="79.1" stroke="rgb(0,0,0)"  stroke-width="2.0"/>
<line x1="438.0" y1="115.0" x2="473.9" y2="131.0" stroke="rgb(0,0,0)"  stroke-width="2.0"/>
<line x1="402.1" y1="99.0" x2="375.9" y2="101.8" stroke="rgb(0,0,0)"  stroke-width="2.0"/>
<line x1="402.1" y1="99.0" x2="391.4" y2="123.0" stroke="rgb(0,0,0)"  stroke-width="2.0"/>
<line x1="402.1" y1="99.0" x2="399.3" y2="72.8" stroke="rgb(0,0,0)"  stroke-width="2.0"/>
<line x1="453.9" y1="79.1" x2="451.2" y2="52.9" stroke="rgb(0,0,0)"  stroke-width="2.0"/>
<line x1="453.9" y1="79.1" x2="429.9" y2="68.4" stroke="rgb(0,0,0)"  stroke-width="2.0"/>
<line x1="453.9" y1="79.1" x2="480.1" y2="76.3" stroke="rgb(0,0,0)"  stroke-width="2.0"/>
<line x1="473.9" y1="131.0" x2="489.3" y2="152.3" stroke="rgb(0,0,0)"  stroke-width="2.0"/>
<line x1="473.9" y1="131.0" x2="463.2" y2="155.0" stroke="rgb(0,0,0)"  stroke-width="2.0"/>
<line x1="473.9" y1="131.0" x2="495.1" y2="115.5" stroke="rgb(0,0,0)"  stroke-width="2.0"/>
<line x1="322.8" y1="391.3" x2="338.2" y2="412.6" stroke="rgb(0,0,0)"  stroke-width="2.0"/>
<line x1="338.2" y1="412.6" x2="363.3" y2="404.4" stroke="rgb(0,0,0)"  stroke-width="2.0"/>
<line x1="341.7" y1="403.9" x2="359.1" y2="398.2" stroke="rgb(0,0,0)"  stroke-width="2.0"/>
<line x1="375.6" y1="387.4" x2="375.6" y2="361.1" stroke="rgb(0,0,0)"  stroke-width="2.0"/>
<line x1="375.6" y1="361.1" x2="338.2" y2="349.0" stroke="rgb(0,0,0)"  stroke-width="2.0"/>
<line x1="367.7" y1="366.1" x2="341.7" y2="357.7" stroke="rgb(0,0,0)"  stroke-width="2.0"/>
<line x1="338.2" y1="349.0" x2="322.8" y2="370.3" stroke="rgb(0,0,0)"  stroke-width="2.0"/>
<line x1="202.5" y1="479.0" x2="236.5" y2="498.7" stroke="rgb(0,0,0)"  stroke-width="2.0"/>
<line x1="236.5" y1="498.7" x2="270.6" y2="479.0" stroke="rgb(0,0,0)"  stroke-width="2.0"/>
<line x1="238.1" y1="489.5" x2="261.8" y2="475.8" stroke="rgb(0,0,0)"  stroke-width="2.0"/>
<line x1="270.6" y1="479.0" x2="270.6" y2="439.7" stroke="rgb(0,0,0)"  stroke-width="2.0"/>
<line x1="270.6" y1="439.7" x2="236.5" y2="420.1" stroke="rgb(0,0,0)"  stroke-width="2.0"/>
<line x1="261.8" y1="443.0" x2="238.1" y2="429.3" stroke="rgb(0,0,0)"  stroke-width="2.0"/>
<line x1="236.5" y1="420.1" x2="202.5" y2="439.7" stroke="rgb(0,0,0)"  stroke-width="2.0"/>
<line x1="202.5" y1="439.7" x2="202.5" y2="479.0" stroke="rgb(0,0,0)"  stroke-width="2.0"/>
<line x1="209.7" y1="445.7" x2="209.7" y2="473.0" stroke="rgb(0,0,0)"  stroke-width="2.0"/>
<line x1="99.0" y1="346.7" x2="79.3" y2="380.8" stroke="rgb(0,0,0)"  stroke-width="2.0"/>
<line x1="79.3" y1="380.8" x2="99.0" y2="414.8" stroke="rgb(0,0,0)"  stroke-width="2.0"/>
<line x1="88.5" y1="382.4" x2="102.2" y2="406.0" stroke="rgb(0,0,0)"  stroke-width="2.0"/>
<line x1="99.0" y1="414.8" x2="138.3" y2="414.8" stroke="rgb(0,0,0)"  stroke-width="2.0"/>
<line x1="138.3" y1="414.8" x2="157.9" y2="380.8" stroke="rgb(0,0,0)"  stroke-width="2.0"/>
<line x1="135.0" y1="406.0" x2="148.7" y2="382.4" stroke="rgb(0,0,0)"  stroke-width="2.0"/>
<line x1="157.9" y1="380.8" x2="138.3" y2="346.7" stroke="rgb(0,0,0)"  stroke-width="2.0"/>
<line x1="138.3" y1="346.7" x2="99.0" y2="346.7" stroke="rgb(0,0,0)"  stroke-width="2.0"/>
<line x1="132.3" y1="353.9" x2="105.0" y2="353.9" stroke="rgb(0,0,0)"  stroke-width="2.0"/>
<line x1="270.6" y1="282.5" x2="236.5" y2="262.9" stroke="rgb(0,0,0)"  stroke-width="2.0"/>
<line x1="236.5" y1="262.9" x2="202.5" y2="282.5" stroke="rgb(0,0,0)"  stroke-width="2.0"/>
<line x1="234.9" y1="272.1" x2="211.3" y2="285.8" stroke="rgb(0,0,0)"  stroke-width="2.0"/>
<line x1="202.5" y1="282.5" x2="202.5" y2="321.8" stroke="rgb(0,0,0)"  stroke-width="2.0"/>
<line x1="202.5" y1="321.8" x2="236.5" y2="341.5" stroke="rgb(0,0,0)"  stroke-width="2.0"/>
<line x1="211.3" y1="318.6" x2="234.9" y2="332.2" stroke="rgb(0,0,0)"  stroke-width="2.0"/>
<line x1="236.5" y1="341.5" x2="270.6" y2="321.8" stroke="rgb(0,0,0)"  stroke-width="2.0"/>
<line x1="270.6" y1="321.8" x2="270.6" y2="282.5" stroke="rgb(0,0,0)"  stroke-width="2.0"/>
<line x1="263.4" y1="315.8" x2="263.4" y2="288.5" stroke="rgb(0,0,0)"  stroke-width="2.0"/>
<text x="627.498370" y="392.135876" fill="rgb(191,191,191)"  stroke="rgb(191,191,191)" stroke-width="1" font-size="16" >H</text>
<text x="162.444612" y="428.086752" fill="rgb(191,191,191)"  stroke="rgb(191,191,191)" stroke-width="1" font-size="16" >H</text>
<text x="320.087239" y="457.960946" fill="rgb(191,191,191)"  stroke="rgb(191,191,191)" stroke-width="1" font-size="16" >H</text>
<text x="320.087239" y="319.603863" fill="rgb(191,191,191)"  stroke="rgb(191,191,191)" stroke-width="1" font-size="16" >H</text>
<text x="417.398011" y="310.121406" fill="rgb(191,191,191)"  stroke="rgb(191,191,191)" stroke-width="1" font-size="16" >H</text>
<text x="378.308976" y="314.229829" fill="rgb(191,191,191)"  stroke="rgb(191,191,191)" stroke-width="1" font-size="16" >H</text>
<text x="445.534647" y="440.192302" fill="rgb(191,191,191)"  stroke="rgb(191,191,191)" stroke-width="1" font-size="16" >H</text>
<text x="525.116936" y="358.080961" fill="rgb(191,191,191)"  stroke="rgb(191,191,191)" stroke-width="1" font-size="16" >H</text>
<text x="493.319051" y="381.183477" fill="rgb(191,191,191)"  stroke="rgb(191,191,191)" stroke-width="1" font-size="16" >H</text>
<text x="604.220702" y="409.048091" fill="rgb(191,191,191)"  stroke="rgb(191,191,191)" stroke-width="1" font-size="16" >H</text>
<text x="572.422817" y="432.150607" fill="rgb(191,191,191)"  stroke="rgb(191,191,191)" stroke-width="1" font-size="16" >H</text>
<text x="580.192489" y="318.066230" fill="rgb(191,191,191)"  stroke="rgb(191,191,191)" stroke-width="1" font-size="16" >H</text>
<text x="548.394604" y="341.168746" fill="rgb(191,191,191)"  stroke="rgb(191,191,191)" stroke-width="1" font-size="16" >H</text>
<text x="659.296255" y="369.033360" fill="rgb(191,191,191)"  stroke="rgb(191,191,191)" stroke-width="1" font-size="16" >H</text>
<text x="162.444612" y="506.695448" fill="rgb(191,191,191)"  stroke="rgb(191,191,191)" stroke-width="1" font-size="16" >H</text>
<text x="678.465500" y="313.032110" fill="rgb(191,191,191)"  stroke="rgb(191,191,191)" stroke-width="1" font-size="16" >H</text>
<text x="636.847414" y="155.446903" fill="rgb(191,191,191)"  stroke="rgb(191,191,191)" stroke-width="1" font-size="16" >H</text>
<text x="664.058353" y="226.333823" fill="rgb(191,191,191)"  stroke="rgb(191,191,191)" stroke-width="1" font-size="16" >H</text>
<text x="680.044871" y="190.427515" fill="rgb(191,191,191)"  stroke="rgb(191,191,191)" stroke-width="1" font-size="16" >H</text>
<text x="546.966401" y="189.948991" fill="rgb(191,191,191)"  stroke="rgb(191,191,191)" stroke-width="1" font-size="16" >H</text>
<text x="617.853321" y="162.738052" fill="rgb(191,191,191)"  stroke="rgb(191,191,191)" stroke-width="1" font-size="16" >H</text>
<text x="581.947012" y="146.751534" fill="rgb(191,191,191)"  stroke="rgb(191,191,191)" stroke-width="1" font-size="16" >H</text>
<text x="541.453758" y="224.754451" fill="rgb(191,191,191)"  stroke="rgb(191,191,191)" stroke-width="1" font-size="16" >H</text>
<text x="600.462582" y="272.538855" fill="rgb(191,191,191)"  stroke="rgb(191,191,191)" stroke-width="1" font-size="16" >H</text>
<text x="561.373548" y="276.647278" fill="rgb(191,191,191)"  stroke="rgb(191,191,191)" stroke-width="1" font-size="16" >H</text>
<text x="162.444612" y="349.478056" fill="rgb(191,191,191)"  stroke="rgb(191,191,191)" stroke-width="1" font-size="16" >H</text>
<text x="499.660520" y="115.879345" fill="rgb(191,191,191)"  stroke="rgb(191,191,191)" stroke-width="1" font-size="16" >H</text>
<text x="451.876117" y="174.888170" fill="rgb(191,191,191)"  stroke="rgb(191,191,191)" stroke-width="1" font-size="16" >H</text>
<text x="490.965151" y="170.779747" fill="rgb(191,191,191)"  stroke="rgb(191,191,191)" stroke-width="1" font-size="16" >H</text>
<text x="487.031880" y="82.980611" fill="rgb(191,191,191)"  stroke="rgb(191,191,191)" stroke-width="1" font-size="16" >H</text>
<text x="412.036537" y="71.102516" fill="rgb(191,191,191)"  stroke="rgb(191,191,191)" stroke-width="1" font-size="16" >H</text>
<text x="443.834422" y="48.000000" fill="rgb(191,191,191)"  stroke="rgb(191,191,191)" stroke-width="1" font-size="16" >H</text>
<text x="391.941595" y="67.919790" fill="rgb(191,191,191)"  stroke="rgb(191,191,191)" stroke-width="1" font-size="16" >H</text>
<text x="380.063500" y="142.915133" fill="rgb(191,191,191)"  stroke="rgb(191,191,191)" stroke-width="1" font-size="16" >H</text>
<text x="356.960984" y="111.117248" fill="rgb(191,191,191)"  stroke="rgb(191,191,191)" stroke-width="1" font-size="16" >H</text>
<text x="383.996771" y="230.714268" fill="rgb(191,191,191)"  stroke="rgb(191,191,191)" stroke-width="1" font-size="16" >H</text>
<text x="482.094630" y="274.390249" fill="rgb(191,191,191)"  stroke="rgb(191,191,191)" stroke-width="1" font-size="16" >H</text>
<text x="477.986207" y="235.301214" fill="rgb(191,191,191)"  stroke="rgb(191,191,191)" stroke-width="1" font-size="16" >H</text>
<text x="492.393354" y="321.999501" fill="rgb(191,191,191)"  stroke="rgb(191,191,191)" stroke-width="1" font-size="16" >H</text>
<text x="162.444612" y="270.869361" fill="rgb(191,191,191)"  stroke="rgb(191,191,191)" stroke-width="1" font-size="16" >H</text>
<text x="230.521739" y="231.565013" fill="rgb(191,191,191)"  stroke="rgb(191,191,191)" stroke-width="1" font-size="16" >H</text>
<text x="298.598867" y="270.869361" fill="rgb(191,191,191)"  stroke="rgb(191,191,191)" stroke-width="1" font-size="16" >H</text>
<text x="298.598867" y="349.478056" fill="rgb(191,191,191)"  stroke="rgb(191,191,191)" stroke-width="1" font-size="16" >H</text>
<text x="151.913043" y="456.859531" fill="rgb(191,191,191)"  stroke="rgb(191,191,191)" stroke-width="1" font-size="16" >H</text>
<text x="73.304348" y="456.859531" fill="rgb(191,191,191)"  stroke="rgb(191,191,191)" stroke-width="1" font-size="16" >H</text>
<text x="34.000000" y="388.782404" fill="rgb(191,191,191)"  stroke="rgb(191,191,191)" stroke-width="1" font-size="16" >H</text>
<text x="73.304348" y="320.705277" fill="rgb(191,191,191)"  stroke="rgb(191,191,191)" stroke-width="1" font-size="16" >H</text>
<text x="151.913043" y="320.705277" fill="rgb(191,191,191)"  stroke="rgb(191,191,191)" stroke-width="1" font-size="16" >H</text>
<text x="298.598867" y="428.086752" fill="rgb(191,191,191)"  stroke="rgb(191,191,191)" stroke-width="1" font-size="16" >H</text>
<text x="298.598867" y="506.695448" fill="rgb(191,191,191)"  stroke="rgb(191,191,191)" stroke-width="1" font-size="16" >H</text>
<text x="230.521739" y="545.999795" fill="rgb(191,191,191)"  stroke="rgb(191,191,191)" stroke-width="1" font-size="16" >H</text>
<text x="369.613607" y="408.434578" fill="rgb(12,12,255)"  stroke="rgb(12,12,255)" stroke-width="1" font-size="16" >N</text>
<text x="309.130435" y="388.782404" fill="rgb(12,12,255)"  stroke="rgb(12,12,255)" stroke-width="1" font-size="16" >N</text>
<text x="421.331282" y="397.920541" fill="rgb(191,191,191)"  stroke="rgb(191,191,191)" stroke-width="1" font-size="16" >H</text>
<text x="505.021994" y="354.898235" fill="rgb(255,12,12)"  stroke="rgb(255,12,12)" stroke-width="1" font-size="16" >O</text>
<text x="477.332532" y="417.089786" fill="rgb(12,12,255)"  stroke="rgb(12,12,255)" stroke-width="1" font-size="16" >N</text>
<text x="446.163288" y="473.091036" fill="rgb(255,12,12)"  stroke="rgb(255,12,12)" stroke-width="1" font-size="16" >HO</text>
<text x="520.354838" y="500.780498" fill="rgb(255,12,12)"  stroke="rgb(255,12,12)" stroke-width="1" font-size="16" >O</text>
<text x="549.145149" y="449.062823" fill="rgb(191,191,191)"  stroke="rgb(191,191,191)" stroke-width="1" font-size="16" >H</text>
<text x="639.376465" y="317.140533" fill="rgb(12,12,255)"  stroke="rgb(12,12,255)" stroke-width="1" font-size="16" >N</text>
<text x="577.184915" y="289.451070" fill="rgb(255,12,12)"  stroke="rgb(255,12,12)" stroke-width="1" font-size="16" >O</text>
<text x="632.260468" y="249.436339" fill="rgb(255,12,12)"  stroke="rgb(255,12,12)" stroke-width="1" font-size="16" >O</text>
<text x="415.969808" y="158.901651" fill="rgb(255,12,12)"  stroke="rgb(255,12,12)" stroke-width="1" font-size="16" >O</text>
<text x="478.161359" y="186.591114" fill="rgb(255,12,12)"  stroke="rgb(255,12,12)" stroke-width="1" font-size="16" >O</text>
<text x="423.085806" y="226.605845" fill="rgb(12,12,255)"  stroke="rgb(12,12,255)" stroke-width="1" font-size="16" >N</text>
<text x="391.112769" y="298.418462" fill="rgb(255,12,12)"  stroke="rgb(255,12,12)" stroke-width="1" font-size="16" >O</text>
<text x="453.304319" y="326.107924" fill="rgb(12,12,255)"  stroke="rgb(12,12,255)" stroke-width="1" font-size="16" >N</text>
</svg>
</g>
<text font-size="18.000000" fill ="black" font-family="sans-serif"
x="10.000000" y="20.000000" >ZINC98219259</text>
</svg>
