<?xml version="1.0"?>
<svg version="1.1" id="topsvg"
xmlns="http://www.w3.org/2000/svg" xmlns:xlink="http://www.w3.org/1999/xlink"
xmlns:cml="http://www.xml-cml.org/schema" x="0" y="0" width="200px" height="200px" viewBox="0 0 100 100">
<title>ZINC03869249 - Open Babel Depiction</title>
<rect x="0" y="0" width="100" height="100" fill="white"/>
<g transform="translate(0,0)">
<svg width="100" height="100" x="0" y="0" viewBox="0 0 507.543 328.148"
font-family="sans-serif" stroke="rgb(0,0,0)" stroke-width="2"  stroke-linecap="round">
<line x1="128.9" y1="178.6" x2="125.0" y2="203.4" stroke="rgb(0,0,0)"  stroke-width="2.0"/>
<line x1="105.2" y1="116.9" x2="85.7" y2="101.1" stroke="rgb(0,0,0)"  stroke-width="2.0"/>
<line x1="214.6" y1="111.1" x2="273.7" y2="133.8" stroke="rgb(0,0,0)"  stroke-width="2.0"/>
<line x1="192.6" y1="69.6" x2="208.4" y2="50.1" stroke="rgb(0,0,0)"  stroke-width="2.0"/>
<line x1="273.7" y1="133.8" x2="287.2" y2="112.6" stroke="rgb(0,0,0)"  stroke-width="2.0"/>
<line x1="270.6" y1="140.8" x2="269.2" y2="140.0" stroke="rgb(0,0,0)"  stroke-width="1.0"/>
<line x1="268.1" y1="146.4" x2="265.6" y2="145.0" stroke="rgb(0,0,0)"  stroke-width="1.0"/>
<line x1="265.6" y1="152.0" x2="262.0" y2="150.0" stroke="rgb(0,0,0)"  stroke-width="1.0"/>
<line x1="263.1" y1="157.6" x2="258.4" y2="154.9" stroke="rgb(0,0,0)"  stroke-width="1.0"/>
<line x1="260.6" y1="163.2" x2="254.8" y2="159.9" stroke="rgb(0,0,0)"  stroke-width="1.0"/>
<line x1="258.1" y1="168.8" x2="251.2" y2="164.8" stroke="rgb(0,0,0)"  stroke-width="1.0"/>
<line x1="254.6" y1="166.8" x2="231.7" y2="156.6" stroke="rgb(0,0,0)"  stroke-width="2.0"/>
<polygon points="254.622002 166.845727 283.114911 192.512403 277.169753 197.865448 " stroke-width="2.000000" fill="rgb(0,0,0)"  stroke="rgb(0,0,0)" />
<line x1="254.6" y1="166.8" x2="203.4" y2="204.0" stroke="rgb(0,0,0)"  stroke-width="2.0"/>
<line x1="280.1" y1="195.2" x2="263.3" y2="213.9" stroke="rgb(0,0,0)"  stroke-width="2.0"/>
<line x1="286.8" y1="191.4" x2="287.4" y2="192.8" stroke="rgb(0,0,0)"  stroke-width="1.0"/>
<line x1="292.1" y1="188.3" x2="293.3" y2="190.9" stroke="rgb(0,0,0)"  stroke-width="1.0"/>
<line x1="297.4" y1="185.2" x2="299.1" y2="189.0" stroke="rgb(0,0,0)"  stroke-width="1.0"/>
<line x1="302.7" y1="182.2" x2="304.9" y2="187.1" stroke="rgb(0,0,0)"  stroke-width="1.0"/>
<line x1="308.0" y1="179.1" x2="310.8" y2="185.2" stroke="rgb(0,0,0)"  stroke-width="1.0"/>
<line x1="313.4" y1="176.0" x2="316.6" y2="183.3" stroke="rgb(0,0,0)"  stroke-width="1.0"/>
<line x1="280.1" y1="195.2" x2="287.9" y2="219.1" stroke="rgb(0,0,0)"  stroke-width="2.0"/>
<line x1="318.2" y1="183.7" x2="316.8" y2="184.5" stroke="rgb(0,0,0)"  stroke-width="1.0"/>
<line x1="320.8" y1="186.9" x2="318.3" y2="188.4" stroke="rgb(0,0,0)"  stroke-width="1.0"/>
<line x1="323.4" y1="190.1" x2="319.8" y2="192.2" stroke="rgb(0,0,0)"  stroke-width="1.0"/>
<line x1="326.0" y1="193.4" x2="321.3" y2="196.1" stroke="rgb(0,0,0)"  stroke-width="1.0"/>
<line x1="328.6" y1="196.6" x2="322.8" y2="199.9" stroke="rgb(0,0,0)"  stroke-width="1.0"/>
<line x1="331.2" y1="199.8" x2="324.3" y2="203.8" stroke="rgb(0,0,0)"  stroke-width="1.0"/>
<line x1="315.0" y1="179.7" x2="353.1" y2="179.7" stroke="rgb(0,0,0)"  stroke-width="2.0"/>
<line x1="353.1" y1="179.7" x2="365.7" y2="201.4" stroke="rgb(0,0,0)"  stroke-width="2.0"/>
<line x1="353.1" y1="179.7" x2="374.9" y2="167.1" stroke="rgb(0,0,0)"  stroke-width="2.0"/>
<line x1="353.1" y1="179.7" x2="353.1" y2="154.5" stroke="rgb(0,0,0)"  stroke-width="2.0"/>
<line x1="385.2" y1="212.7" x2="397.3" y2="212.7" stroke="rgb(0,0,0)"  stroke-width="2.0"/>
<polygon points="410.333368 225.292031 414.333368 238.259473 406.333368 238.259473 " stroke-width="2.000000" fill="rgb(0,0,0)"  stroke="rgb(0,0,0)" />
<line x1="423.3" y1="212.7" x2="435.5" y2="212.7" stroke="rgb(0,0,0)"  stroke-width="2.0"/>
<line x1="410.3" y1="199.7" x2="410.3" y2="187.6" stroke="rgb(0,0,0)"  stroke-width="2.0"/>
<line x1="455.0" y1="224.0" x2="461.0" y2="234.5" stroke="rgb(0,0,0)"  stroke-width="2.0"/>
<line x1="283.2" y1="241.1" x2="275.1" y2="250.1" stroke="rgb(0,0,0)"  stroke-width="2.0"/>
<line x1="254.7" y1="253.3" x2="245.7" y2="245.2" stroke="rgb(0,0,0)"  stroke-width="2.0"/>
<line x1="258.8" y1="248.9" x2="249.7" y2="240.8" stroke="rgb(0,0,0)"  stroke-width="2.0"/>
<line x1="257.7" y1="269.5" x2="249.6" y2="278.5" stroke="rgb(0,0,0)"  stroke-width="2.0"/>
<line x1="276.1" y1="268.5" x2="285.1" y2="276.6" stroke="rgb(0,0,0)"  stroke-width="2.0"/>
<line x1="194.3" y1="224.6" x2="195.5" y2="236.7" stroke="rgb(0,0,0)"  stroke-width="2.0"/>
<line x1="77.6" y1="80.1" x2="79.5" y2="68.1" stroke="rgb(0,0,0)"  stroke-width="2.0"/>
<line x1="63.5" y1="97.6" x2="52.1" y2="101.9" stroke="rgb(0,0,0)"  stroke-width="2.0"/>
<line x1="192.6" y1="69.6" x2="199.1" y2="93.9" stroke="rgb(0,0,0)"  stroke-width="2.0"/>
<line x1="191.6" y1="113.6" x2="170.5" y2="127.3" stroke="rgb(0,0,0)"  stroke-width="2.0"/>
<line x1="170.5" y1="127.3" x2="140.9" y2="103.3" stroke="rgb(0,0,0)"  stroke-width="2.0"/>
<line x1="170.4" y1="117.9" x2="150.0" y2="101.4" stroke="rgb(0,0,0)"  stroke-width="2.0"/>
<line x1="140.9" y1="103.3" x2="149.9" y2="79.8" stroke="rgb(0,0,0)"  stroke-width="2.0"/>
<line x1="167.1" y1="68.3" x2="192.6" y2="69.6" stroke="rgb(0,0,0)"  stroke-width="2.0"/>
<line x1="168.9" y1="75.6" x2="186.2" y2="76.5" stroke="rgb(0,0,0)"  stroke-width="2.0"/>
<line x1="105.2" y1="116.9" x2="140.9" y2="103.3" stroke="rgb(0,0,0)"  stroke-width="2.0"/>
<line x1="170.5" y1="127.3" x2="166.6" y2="152.1" stroke="rgb(0,0,0)"  stroke-width="2.0"/>
<line x1="152.8" y1="169.4" x2="128.9" y2="178.6" stroke="rgb(0,0,0)"  stroke-width="2.0"/>
<line x1="148.2" y1="163.5" x2="131.9" y2="169.7" stroke="rgb(0,0,0)"  stroke-width="2.0"/>
<line x1="128.9" y1="178.6" x2="109.4" y2="162.8" stroke="rgb(0,0,0)"  stroke-width="2.0"/>
<line x1="101.2" y1="142.2" x2="105.2" y2="116.9" stroke="rgb(0,0,0)"  stroke-width="2.0"/>
<line x1="108.7" y1="141.1" x2="111.4" y2="124.0" stroke="rgb(0,0,0)"  stroke-width="2.0"/>
<line x1="280.1" y1="195.2" x2="315.0" y2="179.7" stroke="rgb(0,0,0)"  stroke-width="2.0"/>
<line x1="315.0" y1="179.7" x2="312.4" y2="154.7" stroke="rgb(0,0,0)"  stroke-width="2.0"/>
<line x1="298.3" y1="139.0" x2="273.7" y2="133.8" stroke="rgb(0,0,0)"  stroke-width="2.0"/>
<line x1="273.7" y1="133.8" x2="254.6" y2="166.8" stroke="rgb(0,0,0)"  stroke-width="2.0"/>
<line x1="254.6" y1="166.8" x2="280.1" y2="195.2" stroke="rgb(0,0,0)"  stroke-width="2.0"/>
<text x="186.910938" y="219.681439" fill="rgb(255,12,12)"  stroke="rgb(255,12,12)" stroke-width="1" font-size="16" >O</text>
<text x="404.333368" y="220.705985" fill="rgb(255,127,0)"  stroke="rgb(255,127,0)" stroke-width="1" font-size="16" >P</text>
<text x="404.333368" y="258.845520" fill="rgb(255,12,12)"  stroke="rgb(255,12,12)" stroke-width="1" font-size="16" >O</text>
<text x="442.472903" y="220.705985" fill="rgb(255,12,12)"  stroke="rgb(255,12,12)" stroke-width="1" font-size="16" >O</text>
<text x="404.333368" y="182.566450" fill="rgb(255,12,12)"  stroke="rgb(255,12,12)" stroke-width="1" font-size="16" >OH</text>
<text x="285.928096" y="239.461778" fill="rgb(255,12,12)"  stroke="rgb(255,12,12)" stroke-width="1" font-size="16" >O</text>
<text x="260.407766" y="267.804976" fill="rgb(255,127,0)"  stroke="rgb(255,127,0)" stroke-width="1" font-size="16" >P</text>
<text x="232.064568" y="242.284646" fill="rgb(255,12,12)"  stroke="rgb(255,12,12)" stroke-width="1" font-size="16" >O</text>
<text x="222.887436" y="296.148174" fill="rgb(255,12,12)"  stroke="rgb(255,12,12)" stroke-width="1" font-size="16" >HO</text>
<text x="288.750964" y="293.325306" fill="rgb(255,12,12)"  stroke="rgb(255,12,12)" stroke-width="1" font-size="16" >OH</text>
<text x="366.193833" y="220.705985" fill="rgb(255,12,12)"  stroke="rgb(255,12,12)" stroke-width="1" font-size="16" >O</text>
<text x="69.606323" y="100.916240" fill="rgb(12,12,255)"  stroke="rgb(12,12,255)" stroke-width="1" font-size="16" >N</text>
<text x="116.953619" y="224.260161" fill="rgb(191,191,191)"  stroke="rgb(191,191,191)" stroke-width="1" font-size="16" >H</text>
<text x="210.609872" y="48.000000" fill="rgb(191,191,191)"  stroke="rgb(191,191,191)" stroke-width="1" font-size="16" >H</text>
<text x="380.153872" y="168.606411" fill="rgb(191,191,191)"  stroke="rgb(191,191,191)" stroke-width="1" font-size="16" >H</text>
<text x="347.124066" y="149.536644" fill="rgb(191,191,191)"  stroke="rgb(191,191,191)" stroke-width="1" font-size="16" >H</text>
<text x="190.897605" y="257.612042" fill="rgb(191,191,191)"  stroke="rgb(191,191,191)" stroke-width="1" font-size="16" >H</text>
<text x="75.572661" y="63.246266" fill="rgb(191,191,191)"  stroke="rgb(191,191,191)" stroke-width="1" font-size="16" >H</text>
<text x="34.000000" y="114.584227" fill="rgb(191,191,191)"  stroke="rgb(191,191,191)" stroke-width="1" font-size="16" >H</text>
<text x="461.542670" y="253.735791" fill="rgb(191,191,191)"  stroke="rgb(191,191,191)" stroke-width="1" font-size="16" >H</text>
<text x="288.170212" y="109.640503" fill="rgb(191,191,191)"  stroke="rgb(191,191,191)" stroke-width="1" font-size="16" >H</text>
<text x="93.279971" y="162.588201" fill="rgb(12,12,255)"  stroke="rgb(12,12,255)" stroke-width="1" font-size="16" >N</text>
<text x="158.526280" y="172.922201" fill="rgb(12,12,255)"  stroke="rgb(12,12,255)" stroke-width="1" font-size="16" >N</text>
<text x="196.479123" y="114.479947" fill="rgb(12,12,255)"  stroke="rgb(12,12,255)" stroke-width="1" font-size="16" >N</text>
<text x="148.520619" y="75.643916" fill="rgb(12,12,255)"  stroke="rgb(12,12,255)" stroke-width="1" font-size="16" >N</text>
<text x="213.779803" y="159.332981" fill="rgb(191,191,191)"  stroke="rgb(191,191,191)" stroke-width="1" font-size="16" >H</text>
<text x="248.622002" y="231.532123" fill="rgb(191,191,191)"  stroke="rgb(191,191,191)" stroke-width="1" font-size="16" >H</text>
<text x="328.054298" y="220.705985" fill="rgb(191,191,191)"  stroke="rgb(191,191,191)" stroke-width="1" font-size="16" >H</text>
<text x="304.997864" y="149.745576" fill="rgb(255,12,12)"  stroke="rgb(255,12,12)" stroke-width="1" font-size="16" >O</text>
</svg>
</g>
<text font-size="18.000000" fill ="black" font-family="sans-serif"
x="10.000000" y="20.000000" >ZINC03869249</text>
</svg>
