<?xml version="1.0"?>
<svg version="1.1" id="topsvg"
xmlns="http://www.w3.org/2000/svg" xmlns:xlink="http://www.w3.org/1999/xlink"
xmlns:cml="http://www.xml-cml.org/schema" x="0" y="0" width="200px" height="200px" viewBox="0 0 100 100">
<title>ZINC12404729 - Open Babel Depiction</title>
<rect x="0" y="0" width="100" height="100" fill="white"/>
<g transform="translate(0,0)">
<svg width="100" height="100" x="0" y="0" viewBox="0 0 356.293 317"
font-family="sans-serif" stroke="rgb(0,0,0)" stroke-width="2"  stroke-linecap="round">
<line x1="74.6" y1="237.0" x2="109.3" y2="217.0" stroke="rgb(0,0,0)"  stroke-width="2.0"/>
<line x1="74.6" y1="237.0" x2="61.1" y2="260.4" stroke="rgb(0,0,0)"  stroke-width="2.0"/>
<line x1="74.6" y1="237.0" x2="88.1" y2="260.4" stroke="rgb(0,0,0)"  stroke-width="2.0"/>
<line x1="74.6" y1="237.0" x2="51.3" y2="223.5" stroke="rgb(0,0,0)"  stroke-width="2.0"/>
<line x1="143.9" y1="237.0" x2="143.9" y2="264.0" stroke="rgb(0,0,0)"  stroke-width="2.0"/>
<line x1="178.6" y1="217.0" x2="201.9" y2="230.5" stroke="rgb(0,0,0)"  stroke-width="2.0"/>
<line x1="178.6" y1="177.0" x2="213.2" y2="157.0" stroke="rgb(0,0,0)"  stroke-width="2.0"/>
<line x1="143.9" y1="157.0" x2="143.9" y2="130.0" stroke="rgb(0,0,0)"  stroke-width="2.0"/>
<line x1="109.3" y1="177.0" x2="85.9" y2="163.5" stroke="rgb(0,0,0)"  stroke-width="2.0"/>
<line x1="249.7" y1="173.3" x2="255.4" y2="199.7" stroke="rgb(0,0,0)"  stroke-width="2.0"/>
<line x1="256.5" y1="108.9" x2="267.5" y2="84.2" stroke="rgb(0,0,0)"  stroke-width="2.0"/>
<line x1="207.7" y1="108.5" x2="197.3" y2="99.2" stroke="rgb(0,0,0)"  stroke-width="2.0"/>
<line x1="285.7" y1="71.0" x2="299.6" y2="69.5" stroke="rgb(0,0,0)"  stroke-width="2.0"/>
<line x1="265.1" y1="61.8" x2="256.9" y2="50.5" stroke="rgb(0,0,0)"  stroke-width="2.0"/>
<line x1="289.4" y1="144.9" x2="303.4" y2="146.4" stroke="rgb(0,0,0)"  stroke-width="2.0"/>
<line x1="256.5" y1="108.9" x2="230.1" y2="114.5" stroke="rgb(0,0,0)"  stroke-width="2.0"/>
<line x1="216.0" y1="130.1" x2="213.2" y2="157.0" stroke="rgb(0,0,0)"  stroke-width="2.0"/>
<line x1="213.2" y1="157.0" x2="249.7" y2="173.3" stroke="rgb(0,0,0)"  stroke-width="2.0"/>
<line x1="221.6" y1="152.9" x2="247.2" y2="164.3" stroke="rgb(0,0,0)"  stroke-width="2.0"/>
<line x1="249.7" y1="173.3" x2="267.8" y2="153.2" stroke="rgb(0,0,0)"  stroke-width="2.0"/>
<line x1="269.9" y1="132.1" x2="256.5" y2="108.9" stroke="rgb(0,0,0)"  stroke-width="2.0"/>
<line x1="262.7" y1="134.0" x2="253.3" y2="117.7" stroke="rgb(0,0,0)"  stroke-width="2.0"/>
<line x1="178.6" y1="217.0" x2="178.6" y2="177.0" stroke="rgb(0,0,0)"  stroke-width="2.0"/>
<line x1="178.6" y1="177.0" x2="143.9" y2="157.0" stroke="rgb(0,0,0)"  stroke-width="2.0"/>
<line x1="169.8" y1="180.2" x2="145.5" y2="166.2" stroke="rgb(0,0,0)"  stroke-width="2.0"/>
<line x1="143.9" y1="157.0" x2="109.3" y2="177.0" stroke="rgb(0,0,0)"  stroke-width="2.0"/>
<line x1="109.3" y1="177.0" x2="109.3" y2="217.0" stroke="rgb(0,0,0)"  stroke-width="2.0"/>
<line x1="116.5" y1="183.0" x2="116.5" y2="211.0" stroke="rgb(0,0,0)"  stroke-width="2.0"/>
<line x1="109.3" y1="217.0" x2="143.9" y2="237.0" stroke="rgb(0,0,0)"  stroke-width="2.0"/>
<line x1="143.9" y1="237.0" x2="178.6" y2="217.0" stroke="rgb(0,0,0)"  stroke-width="2.0"/>
<line x1="145.5" y1="227.8" x2="169.8" y2="213.8" stroke="rgb(0,0,0)"  stroke-width="2.0"/>
<text x="266.781589" y="80.360680" fill="rgb(12,12,255)"  stroke="rgb(12,12,255)" stroke-width="1" font-size="16" >N</text>
<text x="310.292999" y="155.724653" fill="rgb(191,191,191)"  stroke="rgb(191,191,191)" stroke-width="1" font-size="16" >H</text>
<text x="270.512123" y="151.543514" fill="rgb(12,12,255)"  stroke="rgb(12,12,255)" stroke-width="1" font-size="16" >N</text>
<text x="243.270179" y="48.000000" fill="rgb(191,191,191)"  stroke="rgb(191,191,191)" stroke-width="1" font-size="16" >H</text>
<text x="306.562465" y="76.179541" fill="rgb(191,191,191)"  stroke="rgb(191,191,191)" stroke-width="1" font-size="16" >H</text>
<text x="252.063367" y="220.395211" fill="rgb(191,191,191)"  stroke="rgb(191,191,191)" stroke-width="1" font-size="16" >H</text>
<text x="68.641016" y="164.999842" fill="rgb(191,191,191)"  stroke="rgb(191,191,191)" stroke-width="1" font-size="16" >H</text>
<text x="137.923048" y="124.999842" fill="rgb(191,191,191)"  stroke="rgb(191,191,191)" stroke-width="1" font-size="16" >H</text>
<text x="207.205081" y="244.999842" fill="rgb(191,191,191)"  stroke="rgb(191,191,191)" stroke-width="1" font-size="16" >H</text>
<text x="137.923048" y="284.999842" fill="rgb(191,191,191)"  stroke="rgb(191,191,191)" stroke-width="1" font-size="16" >H</text>
<text x="34.000000" y="224.999842" fill="rgb(191,191,191)"  stroke="rgb(191,191,191)" stroke-width="1" font-size="16" >H</text>
<text x="88.641016" y="279.640858" fill="rgb(191,191,191)"  stroke="rgb(191,191,191)" stroke-width="1" font-size="16" >H</text>
<text x="48.641016" y="279.640858" fill="rgb(191,191,191)"  stroke="rgb(191,191,191)" stroke-width="1" font-size="16" >H</text>
<text x="181.660426" y="98.453741" fill="rgb(191,191,191)"  stroke="rgb(191,191,191)" stroke-width="1" font-size="16" >H</text>
<text x="211.386219" y="125.218966" fill="rgb(12,12,255)"  stroke="rgb(12,12,255)" stroke-width="1" font-size="16" >N</text>
</svg>
</g>
<text font-size="18.000000" fill ="black" font-family="sans-serif"
x="10.000000" y="20.000000" >ZINC12404729</text>
</svg>
