<?xml version="1.0"?>
<svg version="1.1" id="topsvg"
xmlns="http://www.w3.org/2000/svg" xmlns:xlink="http://www.w3.org/1999/xlink"
xmlns:cml="http://www.xml-cml.org/schema" x="0" y="0" width="200px" height="200px" viewBox="0 0 100 100">
<title>ZINC08214486 - Open Babel Depiction</title>
<rect x="0" y="0" width="100" height="100" fill="white"/>
<g transform="translate(0,0)">
<svg width="100" height="100" x="0" y="0" viewBox="0 0 665.617 438.455"
font-family="sans-serif" stroke="rgb(0,0,0)" stroke-width="2"  stroke-linecap="round">
<line x1="313.5" y1="72.4" x2="325.6" y2="93.5" stroke="rgb(0,0,0)"  stroke-width="2.0"/>
<line x1="313.5" y1="72.4" x2="292.4" y2="60.2" stroke="rgb(0,0,0)"  stroke-width="2.0"/>
<line x1="313.5" y1="72.4" x2="292.4" y2="84.5" stroke="rgb(0,0,0)"  stroke-width="2.0"/>
<line x1="313.5" y1="72.4" x2="325.6" y2="51.3" stroke="rgb(0,0,0)"  stroke-width="2.0"/>
<line x1="325.6" y1="116.0" x2="294.8" y2="169.4" stroke="rgb(0,0,0)"  stroke-width="2.0"/>
<line x1="345.1" y1="104.7" x2="356.5" y2="104.7" stroke="rgb(0,0,0)"  stroke-width="2.0"/>
<line x1="294.8" y1="169.4" x2="270.6" y2="166.2" stroke="rgb(0,0,0)"  stroke-width="2.0"/>
<polygon points="294.786920 169.427972 271.195973 198.675774 265.539119 193.018920 " stroke-width="2.000000" fill="rgb(0,0,0)"  stroke="rgb(0,0,0)" />
<polygon points="330.876456 179.098135 293.751644 173.291676 295.822196 165.564269 " stroke-width="2.000000" fill="rgb(0,0,0)"  stroke="rgb(0,0,0)" />
<line x1="330.9" y1="179.1" x2="337.2" y2="155.6" stroke="rgb(0,0,0)"  stroke-width="2.0"/>
<polygon points="340.546619 215.187671 327.012753 180.133411 334.740160 178.062858 " stroke-width="2.000000" fill="rgb(0,0,0)"  stroke="rgb(0,0,0)" />
<line x1="330.9" y1="179.1" x2="354.4" y2="172.8" stroke="rgb(0,0,0)"  stroke-width="2.0"/>
<line x1="340.5" y1="215.2" x2="357.8" y2="198.0" stroke="rgb(0,0,0)"  stroke-width="2.0"/>
<polygon points="314.127244 241.607045 337.718191 212.359244 343.375046 218.016098 " stroke-width="2.000000" fill="rgb(0,0,0)"  stroke="rgb(0,0,0)" />
<line x1="314.1" y1="241.6" x2="296.9" y2="258.8" stroke="rgb(0,0,0)"  stroke-width="2.0"/>
<line x1="323.8" y1="277.7" x2="317.5" y2="301.2" stroke="rgb(0,0,0)"  stroke-width="2.0"/>
<line x1="323.8" y1="277.7" x2="300.3" y2="284.0" stroke="rgb(0,0,0)"  stroke-width="2.0"/>
<line x1="359.9" y1="287.4" x2="377.1" y2="304.6" stroke="rgb(0,0,0)"  stroke-width="2.0"/>
<line x1="364.6" y1="281.5" x2="365.7" y2="282.6" stroke="rgb(0,0,0)"  stroke-width="1.0"/>
<line x1="368.4" y1="276.8" x2="370.4" y2="278.9" stroke="rgb(0,0,0)"  stroke-width="1.0"/>
<line x1="372.2" y1="272.2" x2="375.1" y2="275.1" stroke="rgb(0,0,0)"  stroke-width="1.0"/>
<line x1="375.9" y1="267.5" x2="379.8" y2="271.3" stroke="rgb(0,0,0)"  stroke-width="1.0"/>
<line x1="379.7" y1="262.8" x2="384.5" y2="267.6" stroke="rgb(0,0,0)"  stroke-width="1.0"/>
<line x1="383.5" y1="258.1" x2="389.1" y2="263.8" stroke="rgb(0,0,0)"  stroke-width="1.0"/>
<line x1="359.9" y1="287.4" x2="343.9" y2="347.0" stroke="rgb(0,0,0)"  stroke-width="2.0"/>
<polygon points="386.306317 260.947369 409.451030 250.604657 411.521583 258.332064 " stroke-width="2.000000" fill="rgb(0,0,0)"  stroke="rgb(0,0,0)" />
<line x1="386.3" y1="260.9" x2="403.5" y2="278.2" stroke="rgb(0,0,0)"  stroke-width="2.0"/>
<line x1="425.3" y1="284.0" x2="448.8" y2="277.7" stroke="rgb(0,0,0)"  stroke-width="2.0"/>
<line x1="448.8" y1="277.7" x2="452.0" y2="253.5" stroke="rgb(0,0,0)"  stroke-width="2.0"/>
<polygon points="448.815228 277.696582 479.172221 255.551161 483.172221 262.479364 " stroke-width="2.000000" fill="rgb(0,0,0)"  stroke="rgb(0,0,0)" />
<line x1="448.0" y1="307.6" x2="449.6" y2="307.6" stroke="rgb(0,0,0)"  stroke-width="1.0"/>
<line x1="447.4" y1="301.6" x2="450.3" y2="301.6" stroke="rgb(0,0,0)"  stroke-width="1.0"/>
<line x1="446.7" y1="295.6" x2="450.9" y2="295.6" stroke="rgb(0,0,0)"  stroke-width="1.0"/>
<line x1="446.1" y1="289.7" x2="451.5" y2="289.7" stroke="rgb(0,0,0)"  stroke-width="1.0"/>
<line x1="445.5" y1="283.7" x2="452.2" y2="283.7" stroke="rgb(0,0,0)"  stroke-width="1.0"/>
<line x1="444.8" y1="277.7" x2="452.8" y2="277.7" stroke="rgb(0,0,0)"  stroke-width="1.0"/>
<line x1="448.8" y1="315.1" x2="424.5" y2="315.1" stroke="rgb(0,0,0)"  stroke-width="2.0"/>
<line x1="448.8" y1="315.1" x2="436.6" y2="336.2" stroke="rgb(0,0,0)"  stroke-width="2.0"/>
<line x1="481.2" y1="333.7" x2="450.3" y2="387.2" stroke="rgb(0,0,0)"  stroke-width="2.0"/>
<line x1="481.2" y1="333.7" x2="493.4" y2="354.8" stroke="rgb(0,0,0)"  stroke-width="2.0"/>
<line x1="513.5" y1="315.1" x2="525.7" y2="336.2" stroke="rgb(0,0,0)"  stroke-width="2.0"/>
<polygon points="513.529214 315.059219 509.529214 277.696582 517.529214 277.696582 " stroke-width="2.000000" fill="rgb(0,0,0)"  stroke="rgb(0,0,0)" />
<line x1="513.5" y1="315.1" x2="575.3" y2="315.1" stroke="rgb(0,0,0)"  stroke-width="2.0"/>
<line x1="513.5" y1="277.7" x2="537.9" y2="277.7" stroke="rgb(0,0,0)"  stroke-width="2.0"/>
<line x1="506.7" y1="274.7" x2="507.5" y2="273.3" stroke="rgb(0,0,0)"  stroke-width="1.0"/>
<line x1="501.2" y1="272.2" x2="502.6" y2="269.7" stroke="rgb(0,0,0)"  stroke-width="1.0"/>
<line x1="495.7" y1="269.8" x2="497.7" y2="266.2" stroke="rgb(0,0,0)"  stroke-width="1.0"/>
<line x1="490.2" y1="267.3" x2="492.9" y2="262.6" stroke="rgb(0,0,0)"  stroke-width="1.0"/>
<line x1="484.7" y1="264.9" x2="488.0" y2="259.1" stroke="rgb(0,0,0)"  stroke-width="1.0"/>
<line x1="479.2" y1="262.5" x2="483.2" y2="255.6" stroke="rgb(0,0,0)"  stroke-width="1.0"/>
<line x1="513.5" y1="277.7" x2="525.7" y2="256.6" stroke="rgb(0,0,0)"  stroke-width="2.0"/>
<polygon points="481.172221 259.015263 490.224603 235.336077 497.152806 239.336077 " stroke-width="2.000000" fill="rgb(0,0,0)"  stroke="rgb(0,0,0)" />
<line x1="481.2" y1="259.0" x2="450.3" y2="205.6" stroke="rgb(0,0,0)"  stroke-width="2.0"/>
<line x1="450.3" y1="183.0" x2="456.0" y2="173.2" stroke="rgb(0,0,0)"  stroke-width="2.0"/>
<line x1="545.2" y1="245.3" x2="556.6" y2="245.3" stroke="rgb(0,0,0)"  stroke-width="2.0"/>
<line x1="588.3" y1="328.1" x2="588.3" y2="339.4" stroke="rgb(0,0,0)"  stroke-width="2.0"/>
<line x1="601.3" y1="315.1" x2="612.6" y2="315.1" stroke="rgb(0,0,0)"  stroke-width="2.0"/>
<line x1="588.3" y1="302.1" x2="588.3" y2="290.7" stroke="rgb(0,0,0)"  stroke-width="2.0"/>
<line x1="418.9" y1="340.9" x2="409.0" y2="335.2" stroke="rgb(0,0,0)"  stroke-width="2.0"/>
<line x1="423.6" y1="358.7" x2="418.0" y2="368.5" stroke="rgb(0,0,0)"  stroke-width="2.0"/>
<line x1="441.4" y1="353.9" x2="451.2" y2="359.6" stroke="rgb(0,0,0)"  stroke-width="2.0"/>
<line x1="353.1" y1="362.9" x2="364.1" y2="365.9" stroke="rgb(0,0,0)"  stroke-width="2.0"/>
<line x1="337.2" y1="372.1" x2="334.2" y2="383.1" stroke="rgb(0,0,0)"  stroke-width="2.0"/>
<line x1="328.0" y1="356.2" x2="317.0" y2="353.2" stroke="rgb(0,0,0)"  stroke-width="2.0"/>
<polygon points="268.367546 195.847347 245.222833 206.190059 243.152280 198.462652 " stroke-width="2.000000" fill="rgb(0,0,0)"  stroke="rgb(0,0,0)" />
<line x1="268.4" y1="195.8" x2="224.7" y2="152.2" stroke="rgb(0,0,0)"  stroke-width="2.0"/>
<line x1="203.0" y1="146.4" x2="179.4" y2="152.7" stroke="rgb(0,0,0)"  stroke-width="2.0"/>
<line x1="179.4" y1="152.7" x2="176.3" y2="176.8" stroke="rgb(0,0,0)"  stroke-width="2.0"/>
<line x1="178.6" y1="145.2" x2="180.2" y2="145.2" stroke="rgb(0,0,0)"  stroke-width="1.0"/>
<line x1="178.0" y1="139.2" x2="180.9" y2="139.2" stroke="rgb(0,0,0)"  stroke-width="1.0"/>
<line x1="177.4" y1="133.3" x2="181.5" y2="133.3" stroke="rgb(0,0,0)"  stroke-width="1.0"/>
<line x1="176.7" y1="127.3" x2="182.2" y2="127.3" stroke="rgb(0,0,0)"  stroke-width="1.0"/>
<line x1="176.1" y1="121.3" x2="182.8" y2="121.3" stroke="rgb(0,0,0)"  stroke-width="1.0"/>
<line x1="175.4" y1="115.3" x2="183.4" y2="115.3" stroke="rgb(0,0,0)"  stroke-width="1.0"/>
<line x1="179.4" y1="115.3" x2="203.8" y2="115.3" stroke="rgb(0,0,0)"  stroke-width="2.0"/>
<line x1="172.6" y1="112.3" x2="173.4" y2="110.9" stroke="rgb(0,0,0)"  stroke-width="1.0"/>
<line x1="167.1" y1="109.8" x2="168.5" y2="107.3" stroke="rgb(0,0,0)"  stroke-width="1.0"/>
<line x1="161.6" y1="107.4" x2="163.7" y2="103.8" stroke="rgb(0,0,0)"  stroke-width="1.0"/>
<line x1="156.1" y1="105.0" x2="158.8" y2="100.3" stroke="rgb(0,0,0)"  stroke-width="1.0"/>
<line x1="150.6" y1="102.5" x2="153.9" y2="96.7" stroke="rgb(0,0,0)"  stroke-width="1.0"/>
<line x1="145.1" y1="100.1" x2="149.1" y2="93.2" stroke="rgb(0,0,0)"  stroke-width="1.0"/>
<line x1="179.4" y1="115.3" x2="191.6" y2="94.2" stroke="rgb(0,0,0)"  stroke-width="2.0"/>
<line x1="147.1" y1="96.6" x2="159.3" y2="75.5" stroke="rgb(0,0,0)"  stroke-width="2.0"/>
<polygon points="147.082268 96.634804 116.725275 118.780225 112.725275 111.852021 " stroke-width="2.000000" fill="rgb(0,0,0)"  stroke="rgb(0,0,0)" />
<line x1="147.1" y1="96.6" x2="134.9" y2="75.5" stroke="rgb(0,0,0)"  stroke-width="2.0"/>
<line x1="114.7" y1="115.3" x2="102.5" y2="94.2" stroke="rgb(0,0,0)"  stroke-width="2.0"/>
<line x1="115.5" y1="122.8" x2="113.9" y2="122.8" stroke="rgb(0,0,0)"  stroke-width="1.0"/>
<line x1="116.2" y1="128.8" x2="113.3" y2="128.8" stroke="rgb(0,0,0)"  stroke-width="1.0"/>
<line x1="116.8" y1="134.7" x2="112.6" y2="134.7" stroke="rgb(0,0,0)"  stroke-width="1.0"/>
<line x1="117.4" y1="140.7" x2="112.0" y2="140.7" stroke="rgb(0,0,0)"  stroke-width="1.0"/>
<line x1="118.1" y1="146.7" x2="111.4" y2="146.7" stroke="rgb(0,0,0)"  stroke-width="1.0"/>
<line x1="118.7" y1="152.7" x2="110.7" y2="152.7" stroke="rgb(0,0,0)"  stroke-width="1.0"/>
<line x1="114.7" y1="115.3" x2="90.4" y2="115.3" stroke="rgb(0,0,0)"  stroke-width="2.0"/>
<polygon points="114.725275 152.678760 89.692308 156.678760 89.692308 148.678760 " stroke-width="2.000000" fill="rgb(0,0,0)"  stroke="rgb(0,0,0)" />
<line x1="114.7" y1="152.7" x2="96.0" y2="185.0" stroke="rgb(0,0,0)"  stroke-width="2.0"/>
<line x1="96.0" y1="185.0" x2="71.7" y2="185.0" stroke="rgb(0,0,0)"  stroke-width="2.0"/>
<line x1="96.0" y1="185.0" x2="96.0" y2="209.4" stroke="rgb(0,0,0)"  stroke-width="2.0"/>
<line x1="96.0" y1="185.0" x2="117.1" y2="197.2" stroke="rgb(0,0,0)"  stroke-width="2.0"/>
<line x1="52.2" y1="173.8" x2="46.5" y2="163.9" stroke="rgb(0,0,0)"  stroke-width="2.0"/>
<line x1="77.4" y1="102.3" x2="77.4" y2="91.0" stroke="rgb(0,0,0)"  stroke-width="2.0"/>
<line x1="64.4" y1="115.3" x2="53.0" y2="115.3" stroke="rgb(0,0,0)"  stroke-width="2.0"/>
<line x1="77.4" y1="128.3" x2="77.4" y2="139.7" stroke="rgb(0,0,0)"  stroke-width="2.0"/>
<line x1="115.4" y1="64.3" x2="104.0" y2="64.3" stroke="rgb(0,0,0)"  stroke-width="2.0"/>
<line x1="191.6" y1="71.7" x2="185.9" y2="61.9" stroke="rgb(0,0,0)"  stroke-width="2.0"/>
<line x1="376.2" y1="178.6" x2="384.2" y2="186.7" stroke="rgb(0,0,0)"  stroke-width="2.0"/>
<line x1="340.5" y1="215.2" x2="314.1" y2="241.6" stroke="rgb(0,0,0)"  stroke-width="2.0"/>
<line x1="314.1" y1="241.6" x2="290.6" y2="235.3" stroke="rgb(0,0,0)"  stroke-width="2.0"/>
<line x1="274.7" y1="219.4" x2="268.4" y2="195.8" stroke="rgb(0,0,0)"  stroke-width="2.0"/>
<line x1="268.4" y1="195.8" x2="294.8" y2="169.4" stroke="rgb(0,0,0)"  stroke-width="2.0"/>
<line x1="294.8" y1="169.4" x2="330.9" y2="179.1" stroke="rgb(0,0,0)"  stroke-width="2.0"/>
<line x1="330.9" y1="179.1" x2="340.5" y2="215.2" stroke="rgb(0,0,0)"  stroke-width="2.0"/>
<line x1="386.3" y1="260.9" x2="359.9" y2="287.4" stroke="rgb(0,0,0)"  stroke-width="2.0"/>
<line x1="359.9" y1="287.4" x2="323.8" y2="277.7" stroke="rgb(0,0,0)"  stroke-width="2.0"/>
<line x1="323.8" y1="277.7" x2="314.1" y2="241.6" stroke="rgb(0,0,0)"  stroke-width="2.0"/>
<line x1="340.5" y1="215.2" x2="364.1" y2="221.5" stroke="rgb(0,0,0)"  stroke-width="2.0"/>
<line x1="380.0" y1="237.4" x2="386.3" y2="260.9" stroke="rgb(0,0,0)"  stroke-width="2.0"/>
<line x1="481.2" y1="333.7" x2="513.5" y2="315.1" stroke="rgb(0,0,0)"  stroke-width="2.0"/>
<line x1="513.5" y1="315.1" x2="513.5" y2="277.7" stroke="rgb(0,0,0)"  stroke-width="2.0"/>
<line x1="513.5" y1="277.7" x2="481.2" y2="259.0" stroke="rgb(0,0,0)"  stroke-width="2.0"/>
<line x1="481.2" y1="259.0" x2="448.8" y2="277.7" stroke="rgb(0,0,0)"  stroke-width="2.0"/>
<line x1="448.8" y1="277.7" x2="448.8" y2="315.1" stroke="rgb(0,0,0)"  stroke-width="2.0"/>
<line x1="448.8" y1="315.1" x2="481.2" y2="333.7" stroke="rgb(0,0,0)"  stroke-width="2.0"/>
<line x1="147.1" y1="96.6" x2="114.7" y2="115.3" stroke="rgb(0,0,0)"  stroke-width="2.0"/>
<line x1="114.7" y1="115.3" x2="114.7" y2="152.7" stroke="rgb(0,0,0)"  stroke-width="2.0"/>
<line x1="114.7" y1="152.7" x2="135.8" y2="164.9" stroke="rgb(0,0,0)"  stroke-width="2.0"/>
<line x1="158.3" y1="164.9" x2="179.4" y2="152.7" stroke="rgb(0,0,0)"  stroke-width="2.0"/>
<line x1="179.4" y1="152.7" x2="179.4" y2="115.3" stroke="rgb(0,0,0)"  stroke-width="2.0"/>
<line x1="179.4" y1="115.3" x2="147.1" y2="96.6" stroke="rgb(0,0,0)"  stroke-width="2.0"/>
<text x="122.400949" y="72.277811" fill="rgb(255,12,12)"  stroke="rgb(255,12,12)" stroke-width="1" font-size="16" >O</text>
<text x="456.490902" y="169.944284" fill="rgb(191,191,191)"  stroke="rgb(191,191,191)" stroke-width="1" font-size="16" >H</text>
<text x="493.853539" y="374.097531" fill="rgb(191,191,191)"  stroke="rgb(191,191,191)" stroke-width="1" font-size="16" >H</text>
<text x="437.809583" y="406.454524" fill="rgb(191,191,191)"  stroke="rgb(191,191,191)" stroke-width="1" font-size="16" >H</text>
<text x="281.707870" y="295.366744" fill="rgb(191,191,191)"  stroke="rgb(191,191,191)" stroke-width="1" font-size="16" >H</text>
<text x="308.127244" y="321.786118" fill="rgb(191,191,191)"  stroke="rgb(191,191,191)" stroke-width="1" font-size="16" >H</text>
<text x="326.149557" y="48.000000" fill="rgb(191,191,191)"  stroke="rgb(191,191,191)" stroke-width="1" font-size="16" >H</text>
<text x="275.111246" y="99.038312" fill="rgb(191,191,191)"  stroke="rgb(191,191,191)" stroke-width="1" font-size="16" >H</text>
<text x="275.111246" y="61.675674" fill="rgb(191,191,191)"  stroke="rgb(191,191,191)" stroke-width="1" font-size="16" >H</text>
<text x="360.965993" y="177.427972" fill="rgb(255,12,12)"  stroke="rgb(255,12,12)" stroke-width="1" font-size="16" >O</text>
<text x="192.120580" y="90.959130" fill="rgb(255,12,12)"  stroke="rgb(255,12,12)" stroke-width="1" font-size="16" >O</text>
<text x="563.573170" y="253.339588" fill="rgb(191,191,191)"  stroke="rgb(191,191,191)" stroke-width="1" font-size="16" >H</text>
<text x="82.162637" y="111.284123" fill="rgb(12,12,255)"  stroke="rgb(12,12,255)" stroke-width="1" font-size="16" >+</text>
<text x="71.362637" y="123.316123" fill="rgb(12,12,255)"  stroke="rgb(12,12,255)" stroke-width="1" font-size="16" >N</text>
<text x="52.681319" y="193.035753" fill="rgb(255,12,12)"  stroke="rgb(255,12,12)" stroke-width="1" font-size="16" >O</text>
<text x="141.082268" y="179.360079" fill="rgb(255,12,12)"  stroke="rgb(255,12,12)" stroke-width="1" font-size="16" >O</text>
<text x="71.362637" y="160.678760" fill="rgb(191,191,191)"  stroke="rgb(191,191,191)" stroke-width="1" font-size="16" >H</text>
<text x="90.043956" y="90.959130" fill="rgb(191,191,191)"  stroke="rgb(191,191,191)" stroke-width="1" font-size="16" >H</text>
<text x="159.763587" y="72.277811" fill="rgb(191,191,191)"  stroke="rgb(191,191,191)" stroke-width="1" font-size="16" >H</text>
<text x="71.362637" y="85.953486" fill="rgb(191,191,191)"  stroke="rgb(191,191,191)" stroke-width="1" font-size="16" >H</text>
<text x="363.512195" y="112.713986" fill="rgb(191,191,191)"  stroke="rgb(191,191,191)" stroke-width="1" font-size="16" >H</text>
<text x="71.362637" y="160.678760" fill="rgb(191,191,191)"  stroke="rgb(191,191,191)" stroke-width="1" font-size="16" >H</text>
<text x="582.254489" y="285.696582" fill="rgb(191,191,191)"  stroke="rgb(191,191,191)" stroke-width="1" font-size="16" >H</text>
<text x="298.457082" y="357.875654" fill="rgb(191,191,191)"  stroke="rgb(191,191,191)" stroke-width="1" font-size="16" >H</text>
<text x="456.490902" y="374.097531" fill="rgb(191,191,191)"  stroke="rgb(191,191,191)" stroke-width="1" font-size="16" >H</text>
<text x="387.385367" y="203.847347" fill="rgb(191,191,191)"  stroke="rgb(191,191,191)" stroke-width="1" font-size="16" >H</text>
<text x="173.439261" y="58.602137" fill="rgb(191,191,191)"  stroke="rgb(191,191,191)" stroke-width="1" font-size="16" >H</text>
<text x="85.038312" y="72.277811" fill="rgb(191,191,191)"  stroke="rgb(191,191,191)" stroke-width="1" font-size="16" >H</text>
<text x="34.000000" y="123.316123" fill="rgb(191,191,191)"  stroke="rgb(191,191,191)" stroke-width="1" font-size="16" >H</text>
<text x="34.000000" y="160.678760" fill="rgb(191,191,191)"  stroke="rgb(191,191,191)" stroke-width="1" font-size="16" >H</text>
<text x="122.400949" y="211.717072" fill="rgb(191,191,191)"  stroke="rgb(191,191,191)" stroke-width="1" font-size="16" >H</text>
<text x="90.043956" y="230.398391" fill="rgb(191,191,191)"  stroke="rgb(191,191,191)" stroke-width="1" font-size="16" >H</text>
<text x="324.876456" y="403.635353" fill="rgb(191,191,191)"  stroke="rgb(191,191,191)" stroke-width="1" font-size="16" >H</text>
<text x="370.636155" y="377.215979" fill="rgb(191,191,191)"  stroke="rgb(191,191,191)" stroke-width="1" font-size="16" >H</text>
<text x="405.452590" y="387.773205" fill="rgb(191,191,191)"  stroke="rgb(191,191,191)" stroke-width="1" font-size="16" >H</text>
<text x="391.776916" y="336.734893" fill="rgb(191,191,191)"  stroke="rgb(191,191,191)" stroke-width="1" font-size="16" >H</text>
<text x="619.617126" y="323.059219" fill="rgb(191,191,191)"  stroke="rgb(191,191,191)" stroke-width="1" font-size="16" >H</text>
<text x="582.254489" y="360.421856" fill="rgb(191,191,191)"  stroke="rgb(191,191,191)" stroke-width="1" font-size="16" >H</text>
<text x="405.452590" y="323.059219" fill="rgb(191,191,191)"  stroke="rgb(191,191,191)" stroke-width="1" font-size="16" >H</text>
<text x="447.692030" y="248.653587" fill="rgb(191,191,191)"  stroke="rgb(191,191,191)" stroke-width="1" font-size="16" >H</text>
<text x="406.725691" y="295.366744" fill="rgb(255,12,12)"  stroke="rgb(255,12,12)" stroke-width="1" font-size="16" >O</text>
<text x="370.636155" y="232.857833" fill="rgb(255,12,12)"  stroke="rgb(255,12,12)" stroke-width="1" font-size="16" >O</text>
<text x="416.395853" y="259.277207" fill="rgb(191,191,191)"  stroke="rgb(191,191,191)" stroke-width="1" font-size="16" >H</text>
<text x="380.306317" y="321.786118" fill="rgb(191,191,191)"  stroke="rgb(191,191,191)" stroke-width="1" font-size="16" >H</text>
<text x="281.707870" y="276.026419" fill="rgb(191,191,191)"  stroke="rgb(191,191,191)" stroke-width="1" font-size="16" >H</text>
<text x="360.965993" y="196.768297" fill="rgb(191,191,191)"  stroke="rgb(191,191,191)" stroke-width="1" font-size="16" >H</text>
<text x="334.546619" y="151.008598" fill="rgb(191,191,191)"  stroke="rgb(191,191,191)" stroke-width="1" font-size="16" >H</text>
<text x="251.743925" y="172.551170" fill="rgb(191,191,191)"  stroke="rgb(191,191,191)" stroke-width="1" font-size="16" >H</text>
<text x="326.149557" y="112.713986" fill="rgb(12,12,255)"  stroke="rgb(12,12,255)" stroke-width="1" font-size="16" >N</text>
<text x="434.933909" y="343.384212" fill="rgb(12,12,255)"  stroke="rgb(12,12,255)" stroke-width="1" font-size="16" >+</text>
<text x="424.133909" y="355.416212" fill="rgb(12,12,255)"  stroke="rgb(12,12,255)" stroke-width="1" font-size="16" >N</text>
<text x="210.801898" y="123.316123" fill="rgb(191,191,191)"  stroke="rgb(191,191,191)" stroke-width="1" font-size="16" >H</text>
<text x="168.562458" y="197.721755" fill="rgb(191,191,191)"  stroke="rgb(191,191,191)" stroke-width="1" font-size="16" >H</text>
<text x="209.528797" y="151.008598" fill="rgb(255,12,12)"  stroke="rgb(255,12,12)" stroke-width="1" font-size="16" >O</text>
<text x="226.278009" y="213.517509" fill="rgb(191,191,191)"  stroke="rgb(191,191,191)" stroke-width="1" font-size="16" >H</text>
<text x="272.037708" y="239.936883" fill="rgb(255,12,12)"  stroke="rgb(255,12,12)" stroke-width="1" font-size="16" >O</text>
<text x="345.346619" y="355.513816" fill="rgb(12,12,255)"  stroke="rgb(12,12,255)" stroke-width="1" font-size="16" >+</text>
<text x="334.546619" y="367.545816" fill="rgb(12,12,255)"  stroke="rgb(12,12,255)" stroke-width="1" font-size="16" >N</text>
<text x="593.054489" y="311.027219" fill="rgb(12,12,255)"  stroke="rgb(12,12,255)" stroke-width="1" font-size="16" >+</text>
<text x="582.254489" y="323.059219" fill="rgb(12,12,255)"  stroke="rgb(12,12,255)" stroke-width="1" font-size="16" >N</text>
<text x="526.210533" y="253.339588" fill="rgb(255,12,12)"  stroke="rgb(255,12,12)" stroke-width="1" font-size="16" >O</text>
<text x="437.809583" y="202.301277" fill="rgb(255,12,12)"  stroke="rgb(255,12,12)" stroke-width="1" font-size="16" >O</text>
<text x="493.853539" y="234.658270" fill="rgb(191,191,191)"  stroke="rgb(191,191,191)" stroke-width="1" font-size="16" >H</text>
<text x="544.891851" y="285.696582" fill="rgb(191,191,191)"  stroke="rgb(191,191,191)" stroke-width="1" font-size="16" >H</text>
<text x="526.210533" y="355.416212" fill="rgb(191,191,191)"  stroke="rgb(191,191,191)" stroke-width="1" font-size="16" >H</text>
</svg>
</g>
<text font-size="18.000000" fill ="black" font-family="sans-serif"
x="10.000000" y="20.000000" >ZINC08214486</text>
</svg>
