<?xml version="1.0"?>
<svg version="1.1" id="topsvg"
xmlns="http://www.w3.org/2000/svg" xmlns:xlink="http://www.w3.org/1999/xlink"
xmlns:cml="http://www.xml-cml.org/schema" x="0" y="0" width="200px" height="200px" viewBox="0 0 100 100">
<title>ZINC17744111 - Open Babel Depiction</title>
<rect x="0" y="0" width="100" height="100" fill="white"/>
<g transform="translate(0,0)">
<svg width="100" height="100" x="0" y="0" viewBox="0 0 437.664 285.088"
font-family="sans-serif" stroke="rgb(0,0,0)" stroke-width="2"  stroke-linecap="round">
<line x1="361.4" y1="76.3" x2="355.0" y2="100.0" stroke="rgb(0,0,0)"  stroke-width="2.0"/>
<line x1="361.4" y1="76.3" x2="355.0" y2="52.6" stroke="rgb(0,0,0)"  stroke-width="2.0"/>
<line x1="361.4" y1="76.3" x2="337.6" y2="69.9" stroke="rgb(0,0,0)"  stroke-width="2.0"/>
<line x1="361.4" y1="76.3" x2="385.1" y2="69.9" stroke="rgb(0,0,0)"  stroke-width="2.0"/>
<line x1="339.1" y1="116.0" x2="315.3" y2="122.3" stroke="rgb(0,0,0)"  stroke-width="2.0"/>
<line x1="288.8" y1="95.7" x2="295.1" y2="72.0" stroke="rgb(0,0,0)"  stroke-width="2.0"/>
<line x1="252.5" y1="105.5" x2="235.1" y2="88.1" stroke="rgb(0,0,0)"  stroke-width="2.0"/>
<line x1="242.8" y1="141.8" x2="170.2" y2="161.2" stroke="rgb(0,0,0)"  stroke-width="2.0"/>
<line x1="269.3" y1="168.3" x2="263.0" y2="192.1" stroke="rgb(0,0,0)"  stroke-width="2.0"/>
<line x1="305.6" y1="158.6" x2="323.0" y2="176.0" stroke="rgb(0,0,0)"  stroke-width="2.0"/>
<line x1="170.3" y1="166.3" x2="168.7" y2="166.1" stroke="rgb(0,0,0)"  stroke-width="1.0"/>
<line x1="170.4" y1="170.4" x2="167.6" y2="170.0" stroke="rgb(0,0,0)"  stroke-width="1.0"/>
<line x1="170.5" y1="174.5" x2="166.4" y2="173.9" stroke="rgb(0,0,0)"  stroke-width="1.0"/>
<line x1="170.6" y1="178.5" x2="165.2" y2="177.8" stroke="rgb(0,0,0)"  stroke-width="1.0"/>
<line x1="170.7" y1="182.6" x2="164.1" y2="181.7" stroke="rgb(0,0,0)"  stroke-width="1.0"/>
<line x1="170.8" y1="186.7" x2="162.9" y2="185.7" stroke="rgb(0,0,0)"  stroke-width="1.0"/>
<line x1="170.2" y1="123.6" x2="194.7" y2="123.6" stroke="rgb(0,0,0)"  stroke-width="2.0"/>
<line x1="170.2" y1="123.6" x2="182.5" y2="102.4" stroke="rgb(0,0,0)"  stroke-width="2.0"/>
<line x1="134.6" y1="104.9" x2="134.6" y2="80.3" stroke="rgb(0,0,0)"  stroke-width="2.0"/>
<line x1="140.6" y1="104.9" x2="140.6" y2="80.3" stroke="rgb(0,0,0)"  stroke-width="2.0"/>
<line x1="105.1" y1="123.6" x2="83.8" y2="111.4" stroke="rgb(0,0,0)"  stroke-width="2.0"/>
<line x1="105.1" y1="161.2" x2="83.8" y2="173.5" stroke="rgb(0,0,0)"  stroke-width="2.0"/>
<line x1="61.3" y1="173.5" x2="51.3" y2="167.7" stroke="rgb(0,0,0)"  stroke-width="2.0"/>
<line x1="137.6" y1="180.0" x2="125.3" y2="201.3" stroke="rgb(0,0,0)"  stroke-width="2.0"/>
<line x1="137.6" y1="180.0" x2="168.7" y2="233.8" stroke="rgb(0,0,0)"  stroke-width="2.0"/>
<line x1="252.5" y1="105.5" x2="242.8" y2="141.8" stroke="rgb(0,0,0)"  stroke-width="2.0"/>
<line x1="242.8" y1="141.8" x2="269.3" y2="168.3" stroke="rgb(0,0,0)"  stroke-width="2.0"/>
<line x1="252.1" y1="140.9" x2="270.2" y2="159.0" stroke="rgb(0,0,0)"  stroke-width="2.0"/>
<line x1="269.3" y1="168.3" x2="305.6" y2="158.6" stroke="rgb(0,0,0)"  stroke-width="2.0"/>
<line x1="305.6" y1="158.6" x2="315.3" y2="122.3" stroke="rgb(0,0,0)"  stroke-width="2.0"/>
<line x1="300.2" y1="151.0" x2="306.8" y2="126.2" stroke="rgb(0,0,0)"  stroke-width="2.0"/>
<line x1="315.3" y1="122.3" x2="288.8" y2="95.7" stroke="rgb(0,0,0)"  stroke-width="2.0"/>
<line x1="288.8" y1="95.7" x2="252.5" y2="105.5" stroke="rgb(0,0,0)"  stroke-width="2.0"/>
<line x1="284.8" y1="104.3" x2="260.1" y2="110.9" stroke="rgb(0,0,0)"  stroke-width="2.0"/>
<line x1="137.6" y1="104.9" x2="105.1" y2="123.6" stroke="rgb(0,0,0)"  stroke-width="2.0"/>
<line x1="105.1" y1="123.6" x2="105.1" y2="161.2" stroke="rgb(0,0,0)"  stroke-width="2.0"/>
<line x1="112.3" y1="129.6" x2="112.3" y2="155.2" stroke="rgb(0,0,0)"  stroke-width="2.0"/>
<line x1="105.1" y1="161.2" x2="137.6" y2="180.0" stroke="rgb(0,0,0)"  stroke-width="2.0"/>
<line x1="137.6" y1="180.0" x2="170.2" y2="161.2" stroke="rgb(0,0,0)"  stroke-width="2.0"/>
<line x1="170.2" y1="161.2" x2="170.2" y2="123.6" stroke="rgb(0,0,0)"  stroke-width="2.0"/>
<line x1="170.2" y1="123.6" x2="137.6" y2="104.9" stroke="rgb(0,0,0)"  stroke-width="2.0"/>
<text x="34.000000" y="169.217398" fill="rgb(191,191,191)"  stroke="rgb(191,191,191)" stroke-width="1" font-size="16" >H</text>
<text x="182.954121" y="99.100080" fill="rgb(191,191,191)"  stroke="rgb(191,191,191)" stroke-width="1" font-size="16" >H</text>
<text x="169.200439" y="253.088398" fill="rgb(191,191,191)"  stroke="rgb(191,191,191)" stroke-width="1" font-size="16" >H</text>
<text x="112.836803" y="220.546837" fill="rgb(191,191,191)"  stroke="rgb(191,191,191)" stroke-width="1" font-size="16" >H</text>
<text x="66.541561" y="112.853761" fill="rgb(191,191,191)"  stroke="rgb(191,191,191)" stroke-width="1" font-size="16" >H</text>
<text x="201.742000" y="131.641640" fill="rgb(191,191,191)"  stroke="rgb(191,191,191)" stroke-width="1" font-size="16" >H</text>
<text x="326.192573" y="193.181579" fill="rgb(191,191,191)"  stroke="rgb(191,191,191)" stroke-width="1" font-size="16" >H</text>
<text x="253.601783" y="212.632222" fill="rgb(191,191,191)"  stroke="rgb(191,191,191)" stroke-width="1" font-size="16" >H</text>
<text x="219.912281" y="86.901287" fill="rgb(191,191,191)"  stroke="rgb(191,191,191)" stroke-width="1" font-size="16" >H</text>
<text x="292.503070" y="67.450643" fill="rgb(191,191,191)"  stroke="rgb(191,191,191)" stroke-width="1" font-size="16" >H</text>
<text x="391.663932" y="74.570073" fill="rgb(191,191,191)"  stroke="rgb(191,191,191)" stroke-width="1" font-size="16" >H</text>
<text x="319.073143" y="74.570073" fill="rgb(191,191,191)"  stroke="rgb(191,191,191)" stroke-width="1" font-size="16" >H</text>
<text x="345.643216" y="48.000000" fill="rgb(191,191,191)"  stroke="rgb(191,191,191)" stroke-width="1" font-size="16" >H</text>
<text x="131.624682" y="75.278004" fill="rgb(255,12,12)"  stroke="rgb(255,12,12)" stroke-width="1" font-size="16" >O</text>
<text x="66.541561" y="188.005277" fill="rgb(255,12,12)"  stroke="rgb(255,12,12)" stroke-width="1" font-size="16" >O</text>
<text x="159.261622" y="206.471690" fill="rgb(191,191,191)"  stroke="rgb(191,191,191)" stroke-width="1" font-size="16" >H</text>
<text x="345.643216" y="120.590789" fill="rgb(255,12,12)"  stroke="rgb(255,12,12)" stroke-width="1" font-size="16" >O</text>
</svg>
</g>
<text font-size="18.000000" fill ="black" font-family="sans-serif"
x="10.000000" y="20.000000" >ZINC17744111</text>
</svg>
