<?xml version="1.0"?>
<svg version="1.1" id="topsvg"
xmlns="http://www.w3.org/2000/svg" xmlns:xlink="http://www.w3.org/1999/xlink"
xmlns:cml="http://www.xml-cml.org/schema" x="0" y="0" width="200px" height="200px" viewBox="0 0 100 100">
<title>ZINC03137566 - Open Babel Depiction</title>
<rect x="0" y="0" width="100" height="100" fill="white"/>
<g transform="translate(0,0)">
<svg width="100" height="100" x="0" y="0" viewBox="0 0 349.555 312.931"
font-family="sans-serif" stroke="rgb(0,0,0)" stroke-width="2"  stroke-linecap="round">
<line x1="233.1" y1="75.7" x2="202.4" y2="99.3" stroke="rgb(0,0,0)"  stroke-width="2.0"/>
<line x1="233.1" y1="75.7" x2="242.9" y2="52.0" stroke="rgb(0,0,0)"  stroke-width="2.0"/>
<line x1="233.1" y1="75.7" x2="217.4" y2="55.4" stroke="rgb(0,0,0)"  stroke-width="2.0"/>
<line x1="233.1" y1="75.7" x2="256.8" y2="85.5" stroke="rgb(0,0,0)"  stroke-width="2.0"/>
<polygon points="207.431578 137.597985 198.418786 99.784222 206.350345 98.740012 " stroke-width="2.000000" fill="rgb(0,0,0)"  stroke="rgb(0,0,0)" />
<line x1="202.4" y1="99.3" x2="176.9" y2="102.6" stroke="rgb(0,0,0)"  stroke-width="2.0"/>
<line x1="202.4" y1="99.3" x2="186.8" y2="78.9" stroke="rgb(0,0,0)"  stroke-width="2.0"/>
<line x1="207.4" y1="137.6" x2="140.5" y2="176.3" stroke="rgb(0,0,0)"  stroke-width="2.0"/>
<line x1="240.2" y1="122.4" x2="243.5" y2="97.0" stroke="rgb(0,0,0)"  stroke-width="2.0"/>
<line x1="246.1" y1="123.2" x2="249.5" y2="97.7" stroke="rgb(0,0,0)"  stroke-width="2.0"/>
<line x1="285.8" y1="141.4" x2="297.5" y2="136.5" stroke="rgb(0,0,0)"  stroke-width="2.0"/>
<line x1="268.8" y1="184.7" x2="289.1" y2="200.3" stroke="rgb(0,0,0)"  stroke-width="2.0"/>
<line x1="203.5" y1="178.7" x2="179.8" y2="188.5" stroke="rgb(0,0,0)"  stroke-width="2.0"/>
<line x1="201.2" y1="173.2" x2="177.5" y2="183.0" stroke="rgb(0,0,0)"  stroke-width="2.0"/>
<line x1="140.5" y1="214.9" x2="162.7" y2="227.8" stroke="rgb(0,0,0)"  stroke-width="2.0"/>
<line x1="107.0" y1="234.3" x2="107.0" y2="259.9" stroke="rgb(0,0,0)"  stroke-width="2.0"/>
<line x1="73.5" y1="214.9" x2="51.3" y2="227.8" stroke="rgb(0,0,0)"  stroke-width="2.0"/>
<line x1="73.5" y1="176.3" x2="51.3" y2="163.4" stroke="rgb(0,0,0)"  stroke-width="2.0"/>
<line x1="107.0" y1="156.9" x2="107.0" y2="131.3" stroke="rgb(0,0,0)"  stroke-width="2.0"/>
<line x1="107.0" y1="234.3" x2="73.5" y2="214.9" stroke="rgb(0,0,0)"  stroke-width="2.0"/>
<line x1="73.5" y1="214.9" x2="73.5" y2="176.3" stroke="rgb(0,0,0)"  stroke-width="2.0"/>
<line x1="80.7" y1="208.9" x2="80.7" y2="182.3" stroke="rgb(0,0,0)"  stroke-width="2.0"/>
<line x1="73.5" y1="176.3" x2="107.0" y2="156.9" stroke="rgb(0,0,0)"  stroke-width="2.0"/>
<line x1="107.0" y1="156.9" x2="140.5" y2="176.3" stroke="rgb(0,0,0)"  stroke-width="2.0"/>
<line x1="108.6" y1="166.2" x2="131.7" y2="179.5" stroke="rgb(0,0,0)"  stroke-width="2.0"/>
<line x1="140.5" y1="176.3" x2="140.5" y2="214.9" stroke="rgb(0,0,0)"  stroke-width="2.0"/>
<line x1="140.5" y1="214.9" x2="107.0" y2="234.3" stroke="rgb(0,0,0)"  stroke-width="2.0"/>
<line x1="131.7" y1="211.7" x2="108.6" y2="225.0" stroke="rgb(0,0,0)"  stroke-width="2.0"/>
<line x1="272.1" y1="159.2" x2="268.8" y2="184.7" stroke="rgb(0,0,0)"  stroke-width="2.0"/>
<line x1="268.8" y1="184.7" x2="244.8" y2="194.6" stroke="rgb(0,0,0)"  stroke-width="2.0"/>
<line x1="260.5" y1="180.3" x2="244.1" y2="187.1" stroke="rgb(0,0,0)"  stroke-width="2.0"/>
<line x1="222.7" y1="191.6" x2="202.4" y2="175.9" stroke="rgb(0,0,0)"  stroke-width="2.0"/>
<line x1="202.4" y1="175.9" x2="207.4" y2="137.6" stroke="rgb(0,0,0)"  stroke-width="2.0"/>
<line x1="207.4" y1="137.6" x2="243.2" y2="122.8" stroke="rgb(0,0,0)"  stroke-width="2.0"/>
<line x1="243.2" y1="122.8" x2="263.5" y2="138.4" stroke="rgb(0,0,0)"  stroke-width="2.0"/>
<text x="100.972631" y="126.264652" fill="rgb(191,191,191)"  stroke="rgb(191,191,191)" stroke-width="1" font-size="16" >H</text>
<text x="34.000000" y="164.931318" fill="rgb(191,191,191)"  stroke="rgb(191,191,191)" stroke-width="1" font-size="16" >H</text>
<text x="34.000000" y="242.264652" fill="rgb(191,191,191)"  stroke="rgb(191,191,191)" stroke-width="1" font-size="16" >H</text>
<text x="100.972631" y="280.931318" fill="rgb(191,191,191)"  stroke="rgb(191,191,191)" stroke-width="1" font-size="16" >H</text>
<text x="167.945262" y="242.264652" fill="rgb(191,191,191)"  stroke="rgb(191,191,191)" stroke-width="1" font-size="16" >H</text>
<text x="303.554591" y="139.542575" fill="rgb(191,191,191)"  stroke="rgb(191,191,191)" stroke-width="1" font-size="16" >H</text>
<text x="172.845790" y="76.585788" fill="rgb(191,191,191)"  stroke="rgb(191,191,191)" stroke-width="1" font-size="16" >H</text>
<text x="158.048697" y="112.309130" fill="rgb(191,191,191)"  stroke="rgb(191,191,191)" stroke-width="1" font-size="16" >H</text>
<text x="262.784236" y="98.520435" fill="rgb(191,191,191)"  stroke="rgb(191,191,191)" stroke-width="1" font-size="16" >H</text>
<text x="203.522119" y="53.047013" fill="rgb(191,191,191)"  stroke="rgb(191,191,191)" stroke-width="1" font-size="16" >H</text>
<text x="241.857987" y="48.000000" fill="rgb(191,191,191)"  stroke="rgb(191,191,191)" stroke-width="1" font-size="16" >H</text>
<text x="160.661223" y="198.730946" fill="rgb(255,12,12)"  stroke="rgb(255,12,12)" stroke-width="1" font-size="16" >O</text>
<text x="227.060894" y="207.472628" fill="rgb(12,12,255)"  stroke="rgb(12,12,255)" stroke-width="1" font-size="16" >N</text>
<text x="293.460566" y="216.214311" fill="rgb(255,12,12)"  stroke="rgb(255,12,12)" stroke-width="1" font-size="16" >OH</text>
<text x="267.831249" y="154.339668" fill="rgb(12,12,255)"  stroke="rgb(12,12,255)" stroke-width="1" font-size="16" >N</text>
<text x="242.201933" y="92.465024" fill="rgb(255,12,12)"  stroke="rgb(255,12,12)" stroke-width="1" font-size="16" >O</text>
</svg>
</g>
<text font-size="18.000000" fill ="black" font-family="sans-serif"
x="10.000000" y="20.000000" >ZINC03137566</text>
</svg>
