<?xml version="1.0"?>
<svg version="1.1" id="topsvg"
xmlns="http://www.w3.org/2000/svg" xmlns:xlink="http://www.w3.org/1999/xlink"
xmlns:cml="http://www.xml-cml.org/schema" x="0" y="0" width="200px" height="200px" viewBox="0 0 100 100">
<title>ZINC77029766 - Open Babel Depiction</title>
<rect x="0" y="0" width="100" height="100" fill="white"/>
<g transform="translate(0,0)">
<svg width="100" height="100" x="0" y="0" viewBox="0 0 672.707 489.968"
font-family="sans-serif" stroke="rgb(0,0,0)" stroke-width="2"  stroke-linecap="round">
<line x1="114.6" y1="394.8" x2="134.6" y2="360.1" stroke="rgb(0,0,0)"  stroke-width="2.0"/>
<line x1="114.6" y1="394.8" x2="114.6" y2="421.8" stroke="rgb(0,0,0)"  stroke-width="2.0"/>
<line x1="114.6" y1="394.8" x2="138.0" y2="408.3" stroke="rgb(0,0,0)"  stroke-width="2.0"/>
<line x1="114.6" y1="394.8" x2="87.6" y2="394.8" stroke="rgb(0,0,0)"  stroke-width="2.0"/>
<line x1="114.6" y1="325.5" x2="87.6" y2="325.5" stroke="rgb(0,0,0)"  stroke-width="2.0"/>
<line x1="134.6" y1="290.8" x2="121.1" y2="267.5" stroke="rgb(0,0,0)"  stroke-width="2.0"/>
<line x1="174.6" y1="360.1" x2="188.1" y2="383.5" stroke="rgb(0,0,0)"  stroke-width="2.0"/>
<line x1="237.9" y1="277.4" x2="272.6" y2="257.4" stroke="rgb(0,0,0)"  stroke-width="2.0"/>
<line x1="198.7" y1="248.4" x2="195.8" y2="234.7" stroke="rgb(0,0,0)"  stroke-width="2.0"/>
<line x1="272.6" y1="257.4" x2="272.6" y2="230.4" stroke="rgb(0,0,0)"  stroke-width="2.0"/>
<line x1="272.6" y1="257.4" x2="299.6" y2="257.4" stroke="rgb(0,0,0)"  stroke-width="2.0"/>
<line x1="272.6" y1="257.4" x2="286.1" y2="280.8" stroke="rgb(0,0,0)"  stroke-width="2.0"/>
<line x1="285.6" y1="217.4" x2="312.6" y2="217.4" stroke="rgb(0,0,0)"  stroke-width="2.0"/>
<line x1="272.6" y1="204.4" x2="272.6" y2="177.4" stroke="rgb(0,0,0)"  stroke-width="2.0"/>
<line x1="259.6" y1="217.4" x2="245.6" y2="217.4" stroke="rgb(0,0,0)"  stroke-width="2.0"/>
<line x1="312.6" y1="217.4" x2="332.6" y2="182.7" stroke="rgb(0,0,0)"  stroke-width="2.0"/>
<line x1="312.6" y1="217.4" x2="336.0" y2="230.9" stroke="rgb(0,0,0)"  stroke-width="2.0"/>
<line x1="312.6" y1="217.4" x2="312.6" y2="244.4" stroke="rgb(0,0,0)"  stroke-width="2.0"/>
<line x1="332.6" y1="182.7" x2="359.6" y2="182.7" stroke="rgb(0,0,0)"  stroke-width="2.0"/>
<line x1="332.6" y1="182.7" x2="332.6" y2="155.7" stroke="rgb(0,0,0)"  stroke-width="2.0"/>
<line x1="332.6" y1="182.7" x2="309.2" y2="169.2" stroke="rgb(0,0,0)"  stroke-width="2.0"/>
<line x1="379.1" y1="194.0" x2="392.6" y2="217.4" stroke="rgb(0,0,0)"  stroke-width="2.0"/>
<line x1="379.1" y1="171.5" x2="392.6" y2="148.1" stroke="rgb(0,0,0)"  stroke-width="2.0"/>
<line x1="392.6" y1="217.4" x2="372.6" y2="252.0" stroke="rgb(0,0,0)"  stroke-width="2.0"/>
<line x1="392.6" y1="217.4" x2="416.0" y2="230.9" stroke="rgb(0,0,0)"  stroke-width="2.0"/>
<line x1="392.6" y1="217.4" x2="416.0" y2="203.9" stroke="rgb(0,0,0)"  stroke-width="2.0"/>
<line x1="289.9" y1="315.3" x2="266.5" y2="301.8" stroke="rgb(0,0,0)"  stroke-width="2.0"/>
<line x1="289.9" y1="355.3" x2="266.5" y2="368.8" stroke="rgb(0,0,0)"  stroke-width="2.0"/>
<line x1="324.5" y1="375.3" x2="324.5" y2="415.3" stroke="rgb(0,0,0)"  stroke-width="2.0"/>
<line x1="359.1" y1="355.3" x2="382.5" y2="368.8" stroke="rgb(0,0,0)"  stroke-width="2.0"/>
<line x1="401.6" y1="291.3" x2="415.3" y2="294.2" stroke="rgb(0,0,0)"  stroke-width="2.0"/>
<line x1="324.5" y1="415.3" x2="338.0" y2="438.7" stroke="rgb(0,0,0)"  stroke-width="2.0"/>
<line x1="324.5" y1="415.3" x2="351.5" y2="415.3" stroke="rgb(0,0,0)"  stroke-width="2.0"/>
<line x1="324.5" y1="415.3" x2="301.1" y2="428.8" stroke="rgb(0,0,0)"  stroke-width="2.0"/>
<line x1="392.6" y1="148.1" x2="432.6" y2="148.1" stroke="rgb(0,0,0)"  stroke-width="2.0"/>
<line x1="392.6" y1="148.1" x2="392.6" y2="121.1" stroke="rgb(0,0,0)"  stroke-width="2.0"/>
<line x1="392.6" y1="148.1" x2="369.2" y2="134.6" stroke="rgb(0,0,0)"  stroke-width="2.0"/>
<line x1="452.1" y1="192.8" x2="447.8" y2="206.1" stroke="rgb(0,0,0)"  stroke-width="2.0"/>
<line x1="528.8" y1="188.1" x2="528.8" y2="215.1" stroke="rgb(0,0,0)"  stroke-width="2.0"/>
<line x1="563.4" y1="168.1" x2="586.8" y2="181.6" stroke="rgb(0,0,0)"  stroke-width="2.0"/>
<line x1="563.4" y1="128.1" x2="598.1" y2="108.1" stroke="rgb(0,0,0)"  stroke-width="2.0"/>
<line x1="528.8" y1="108.1" x2="528.8" y2="81.1" stroke="rgb(0,0,0)"  stroke-width="2.0"/>
<line x1="452.1" y1="103.4" x2="447.8" y2="90.1" stroke="rgb(0,0,0)"  stroke-width="2.0"/>
<line x1="598.1" y1="108.1" x2="611.6" y2="84.7" stroke="rgb(0,0,0)"  stroke-width="2.0"/>
<line x1="598.1" y1="108.1" x2="584.6" y2="84.7" stroke="rgb(0,0,0)"  stroke-width="2.0"/>
<line x1="598.1" y1="108.1" x2="621.4" y2="121.6" stroke="rgb(0,0,0)"  stroke-width="2.0"/>
<line x1="272.6" y1="177.4" x2="237.9" y2="157.4" stroke="rgb(0,0,0)"  stroke-width="2.0"/>
<line x1="272.6" y1="177.4" x2="286.1" y2="154.0" stroke="rgb(0,0,0)"  stroke-width="2.0"/>
<line x1="272.6" y1="177.4" x2="299.6" y2="177.4" stroke="rgb(0,0,0)"  stroke-width="2.0"/>
<line x1="243.4" y1="108.9" x2="253.8" y2="99.5" stroke="rgb(0,0,0)"  stroke-width="2.0"/>
<line x1="174.6" y1="74.6" x2="188.1" y2="51.3" stroke="rgb(0,0,0)"  stroke-width="2.0"/>
<line x1="134.6" y1="74.6" x2="121.1" y2="51.3" stroke="rgb(0,0,0)"  stroke-width="2.0"/>
<line x1="114.6" y1="109.3" x2="74.6" y2="109.3" stroke="rgb(0,0,0)"  stroke-width="2.0"/>
<line x1="134.6" y1="143.9" x2="121.1" y2="167.3" stroke="rgb(0,0,0)"  stroke-width="2.0"/>
<line x1="74.6" y1="109.3" x2="51.3" y2="122.8" stroke="rgb(0,0,0)"  stroke-width="2.0"/>
<line x1="74.6" y1="109.3" x2="74.6" y2="136.3" stroke="rgb(0,0,0)"  stroke-width="2.0"/>
<line x1="74.6" y1="109.3" x2="61.1" y2="85.9" stroke="rgb(0,0,0)"  stroke-width="2.0"/>
<line x1="237.9" y1="277.4" x2="235.1" y2="304.0" stroke="rgb(0,0,0)"  stroke-width="2.0"/>
<line x1="230.2" y1="282.6" x2="228.2" y2="301.3" stroke="rgb(0,0,0)"  stroke-width="2.0"/>
<line x1="221.1" y1="319.9" x2="194.6" y2="325.5" stroke="rgb(0,0,0)"  stroke-width="2.0"/>
<line x1="194.6" y1="325.5" x2="174.6" y2="290.8" stroke="rgb(0,0,0)"  stroke-width="2.0"/>
<line x1="197.9" y1="316.7" x2="183.9" y2="292.4" stroke="rgb(0,0,0)"  stroke-width="2.0"/>
<line x1="174.6" y1="290.8" x2="192.7" y2="270.8" stroke="rgb(0,0,0)"  stroke-width="2.0"/>
<line x1="213.3" y1="266.4" x2="237.9" y2="277.4" stroke="rgb(0,0,0)"  stroke-width="2.0"/>
<line x1="324.5" y1="295.3" x2="359.1" y2="315.3" stroke="rgb(0,0,0)"  stroke-width="2.0"/>
<line x1="333.3" y1="292.1" x2="357.5" y2="306.1" stroke="rgb(0,0,0)"  stroke-width="2.0"/>
<line x1="359.1" y1="315.3" x2="379.2" y2="297.3" stroke="rgb(0,0,0)"  stroke-width="2.0"/>
<line x1="383.6" y1="276.7" x2="372.6" y2="252.0" stroke="rgb(0,0,0)"  stroke-width="2.0"/>
<line x1="372.6" y1="252.0" x2="345.9" y2="254.8" stroke="rgb(0,0,0)"  stroke-width="2.0"/>
<line x1="367.4" y1="259.8" x2="348.7" y2="261.8" stroke="rgb(0,0,0)"  stroke-width="2.0"/>
<line x1="330.1" y1="268.9" x2="324.5" y2="295.3" stroke="rgb(0,0,0)"  stroke-width="2.0"/>
<line x1="494.1" y1="168.1" x2="494.1" y2="128.1" stroke="rgb(0,0,0)"  stroke-width="2.0"/>
<line x1="486.9" y1="162.1" x2="486.9" y2="134.1" stroke="rgb(0,0,0)"  stroke-width="2.0"/>
<line x1="494.1" y1="128.1" x2="468.5" y2="119.8" stroke="rgb(0,0,0)"  stroke-width="2.0"/>
<line x1="448.3" y1="126.4" x2="432.6" y2="148.1" stroke="rgb(0,0,0)"  stroke-width="2.0"/>
<line x1="453.0" y1="132.3" x2="441.9" y2="147.5" stroke="rgb(0,0,0)"  stroke-width="2.0"/>
<line x1="432.6" y1="148.1" x2="448.5" y2="169.9" stroke="rgb(0,0,0)"  stroke-width="2.0"/>
<line x1="468.5" y1="176.4" x2="494.1" y2="168.1" stroke="rgb(0,0,0)"  stroke-width="2.0"/>
<line x1="194.6" y1="109.3" x2="174.6" y2="143.9" stroke="rgb(0,0,0)"  stroke-width="2.0"/>
<line x1="197.9" y1="118.1" x2="183.9" y2="142.3" stroke="rgb(0,0,0)"  stroke-width="2.0"/>
<line x1="174.6" y1="143.9" x2="192.7" y2="164.0" stroke="rgb(0,0,0)"  stroke-width="2.0"/>
<line x1="213.5" y1="168.3" x2="237.9" y2="157.4" stroke="rgb(0,0,0)"  stroke-width="2.0"/>
<line x1="212.4" y1="160.9" x2="229.5" y2="153.2" stroke="rgb(0,0,0)"  stroke-width="2.0"/>
<line x1="237.9" y1="157.4" x2="235.1" y2="130.5" stroke="rgb(0,0,0)"  stroke-width="2.0"/>
<line x1="221.1" y1="114.9" x2="194.6" y2="109.3" stroke="rgb(0,0,0)"  stroke-width="2.0"/>
<line x1="134.6" y1="290.8" x2="174.6" y2="290.8" stroke="rgb(0,0,0)"  stroke-width="2.0"/>
<line x1="194.6" y1="325.5" x2="174.6" y2="360.1" stroke="rgb(0,0,0)"  stroke-width="2.0"/>
<line x1="174.6" y1="360.1" x2="134.6" y2="360.1" stroke="rgb(0,0,0)"  stroke-width="2.0"/>
<line x1="168.6" y1="352.9" x2="140.6" y2="352.9" stroke="rgb(0,0,0)"  stroke-width="2.0"/>
<line x1="134.6" y1="360.1" x2="114.6" y2="325.5" stroke="rgb(0,0,0)"  stroke-width="2.0"/>
<line x1="114.6" y1="325.5" x2="134.6" y2="290.8" stroke="rgb(0,0,0)"  stroke-width="2.0"/>
<line x1="123.9" y1="323.9" x2="137.9" y2="299.6" stroke="rgb(0,0,0)"  stroke-width="2.0"/>
<line x1="324.5" y1="375.3" x2="359.1" y2="355.3" stroke="rgb(0,0,0)"  stroke-width="2.0"/>
<line x1="326.1" y1="366.1" x2="350.3" y2="352.1" stroke="rgb(0,0,0)"  stroke-width="2.0"/>
<line x1="359.1" y1="355.3" x2="359.1" y2="315.3" stroke="rgb(0,0,0)"  stroke-width="2.0"/>
<line x1="324.5" y1="295.3" x2="289.9" y2="315.3" stroke="rgb(0,0,0)"  stroke-width="2.0"/>
<line x1="289.9" y1="315.3" x2="289.9" y2="355.3" stroke="rgb(0,0,0)"  stroke-width="2.0"/>
<line x1="297.1" y1="321.3" x2="297.1" y2="349.3" stroke="rgb(0,0,0)"  stroke-width="2.0"/>
<line x1="289.9" y1="355.3" x2="324.5" y2="375.3" stroke="rgb(0,0,0)"  stroke-width="2.0"/>
<line x1="563.4" y1="128.1" x2="528.8" y2="108.1" stroke="rgb(0,0,0)"  stroke-width="2.0"/>
<line x1="554.6" y1="131.3" x2="530.4" y2="117.3" stroke="rgb(0,0,0)"  stroke-width="2.0"/>
<line x1="528.8" y1="108.1" x2="494.1" y2="128.1" stroke="rgb(0,0,0)"  stroke-width="2.0"/>
<line x1="494.1" y1="168.1" x2="528.8" y2="188.1" stroke="rgb(0,0,0)"  stroke-width="2.0"/>
<line x1="528.8" y1="188.1" x2="563.4" y2="168.1" stroke="rgb(0,0,0)"  stroke-width="2.0"/>
<line x1="530.4" y1="178.9" x2="554.6" y2="164.9" stroke="rgb(0,0,0)"  stroke-width="2.0"/>
<line x1="563.4" y1="168.1" x2="563.4" y2="128.1" stroke="rgb(0,0,0)"  stroke-width="2.0"/>
<line x1="114.6" y1="109.3" x2="134.6" y2="143.9" stroke="rgb(0,0,0)"  stroke-width="2.0"/>
<line x1="123.9" y1="110.9" x2="137.9" y2="135.1" stroke="rgb(0,0,0)"  stroke-width="2.0"/>
<line x1="134.6" y1="143.9" x2="174.6" y2="143.9" stroke="rgb(0,0,0)"  stroke-width="2.0"/>
<line x1="194.6" y1="109.3" x2="174.6" y2="74.6" stroke="rgb(0,0,0)"  stroke-width="2.0"/>
<line x1="174.6" y1="74.6" x2="134.6" y2="74.6" stroke="rgb(0,0,0)"  stroke-width="2.0"/>
<line x1="168.6" y1="81.8" x2="140.6" y2="81.8" stroke="rgb(0,0,0)"  stroke-width="2.0"/>
<line x1="134.6" y1="74.6" x2="114.6" y2="109.3" stroke="rgb(0,0,0)"  stroke-width="2.0"/>
<text x="188.641016" y="402.758752" fill="rgb(191,191,191)"  stroke="rgb(191,191,191)" stroke-width="1" font-size="16" >H</text>
<text x="387.773764" y="383.327434" fill="rgb(191,191,191)"  stroke="rgb(191,191,191)" stroke-width="1" font-size="16" >H</text>
<text x="249.209699" y="383.327434" fill="rgb(191,191,191)"  stroke="rgb(191,191,191)" stroke-width="1" font-size="16" >H</text>
<text x="249.209699" y="303.327434" fill="rgb(191,191,191)"  stroke="rgb(191,191,191)" stroke-width="1" font-size="16" >H</text>
<text x="421.230091" y="205.379376" fill="rgb(191,191,191)"  stroke="rgb(191,191,191)" stroke-width="1" font-size="16" >H</text>
<text x="421.230091" y="245.379376" fill="rgb(191,191,191)"  stroke="rgb(191,191,191)" stroke-width="1" font-size="16" >H</text>
<text x="291.948059" y="170.738360" fill="rgb(191,191,191)"  stroke="rgb(191,191,191)" stroke-width="1" font-size="16" >H</text>
<text x="326.589075" y="150.738360" fill="rgb(191,191,191)"  stroke="rgb(191,191,191)" stroke-width="1" font-size="16" >H</text>
<text x="306.589075" y="265.379376" fill="rgb(191,191,191)"  stroke="rgb(191,191,191)" stroke-width="1" font-size="16" >H</text>
<text x="341.230091" y="245.379376" fill="rgb(191,191,191)"  stroke="rgb(191,191,191)" stroke-width="1" font-size="16" >H</text>
<text x="286.589075" y="300.020392" fill="rgb(191,191,191)"  stroke="rgb(191,191,191)" stroke-width="1" font-size="16" >H</text>
<text x="306.589075" y="265.379376" fill="rgb(191,191,191)"  stroke="rgb(191,191,191)" stroke-width="1" font-size="16" >H</text>
<text x="338.491731" y="457.968451" fill="rgb(191,191,191)"  stroke="rgb(191,191,191)" stroke-width="1" font-size="16" >H</text>
<text x="108.641016" y="264.194687" fill="rgb(191,191,191)"  stroke="rgb(191,191,191)" stroke-width="1" font-size="16" >H</text>
<text x="68.641016" y="333.476719" fill="rgb(191,191,191)"  stroke="rgb(191,191,191)" stroke-width="1" font-size="16" >H</text>
<text x="68.641016" y="402.758752" fill="rgb(191,191,191)"  stroke="rgb(191,191,191)" stroke-width="1" font-size="16" >H</text>
<text x="143.282032" y="422.758752" fill="rgb(191,191,191)"  stroke="rgb(191,191,191)" stroke-width="1" font-size="16" >H</text>
<text x="108.641016" y="442.758752" fill="rgb(191,191,191)"  stroke="rgb(191,191,191)" stroke-width="1" font-size="16" >H</text>
<text x="195.406240" y="181.648841" fill="rgb(12,12,255)"  stroke="rgb(12,12,255)" stroke-width="1" font-size="16" >N</text>
<text x="286.589075" y="150.738360" fill="rgb(191,191,191)"  stroke="rgb(191,191,191)" stroke-width="1" font-size="16" >H</text>
<text x="437.739805" y="85.694403" fill="rgb(191,191,191)"  stroke="rgb(191,191,191)" stroke-width="1" font-size="16" >H</text>
<text x="421.984445" y="304.878678" fill="rgb(191,191,191)"  stroke="rgb(191,191,191)" stroke-width="1" font-size="16" >H</text>
<text x="226.589075" y="225.379376" fill="rgb(191,191,191)"  stroke="rgb(191,191,191)" stroke-width="1" font-size="16" >H</text>
<text x="48.641016" y="82.641016" fill="rgb(191,191,191)"  stroke="rgb(191,191,191)" stroke-width="1" font-size="16" >H</text>
<text x="68.641016" y="157.282032" fill="rgb(191,191,191)"  stroke="rgb(191,191,191)" stroke-width="1" font-size="16" >H</text>
<text x="34.000000" y="137.282032" fill="rgb(191,191,191)"  stroke="rgb(191,191,191)" stroke-width="1" font-size="16" >H</text>
<text x="108.641016" y="186.564065" fill="rgb(191,191,191)"  stroke="rgb(191,191,191)" stroke-width="1" font-size="16" >H</text>
<text x="108.641016" y="48.000000" fill="rgb(191,191,191)"  stroke="rgb(191,191,191)" stroke-width="1" font-size="16" >H</text>
<text x="188.641016" y="48.000000" fill="rgb(191,191,191)"  stroke="rgb(191,191,191)" stroke-width="1" font-size="16" >H</text>
<text x="306.589075" y="185.379376" fill="rgb(191,191,191)"  stroke="rgb(191,191,191)" stroke-width="1" font-size="16" >H</text>
<text x="626.706810" y="136.097343" fill="rgb(191,191,191)"  stroke="rgb(191,191,191)" stroke-width="1" font-size="16" >H</text>
<text x="572.065794" y="81.456327" fill="rgb(191,191,191)"  stroke="rgb(191,191,191)" stroke-width="1" font-size="16" >H</text>
<text x="612.065794" y="81.456327" fill="rgb(191,191,191)"  stroke="rgb(191,191,191)" stroke-width="1" font-size="16" >H</text>
<text x="522.783762" y="76.097343" fill="rgb(191,191,191)"  stroke="rgb(191,191,191)" stroke-width="1" font-size="16" >H</text>
<text x="592.065794" y="196.097343" fill="rgb(191,191,191)"  stroke="rgb(191,191,191)" stroke-width="1" font-size="16" >H</text>
<text x="522.783762" y="236.097343" fill="rgb(191,191,191)"  stroke="rgb(191,191,191)" stroke-width="1" font-size="16" >H</text>
<text x="351.948059" y="136.097343" fill="rgb(191,191,191)"  stroke="rgb(191,191,191)" stroke-width="1" font-size="16" >H</text>
<text x="386.589075" y="116.097343" fill="rgb(191,191,191)"  stroke="rgb(191,191,191)" stroke-width="1" font-size="16" >H</text>
<text x="283.850715" y="443.327434" fill="rgb(191,191,191)"  stroke="rgb(191,191,191)" stroke-width="1" font-size="16" >H</text>
<text x="358.491731" y="423.327434" fill="rgb(191,191,191)"  stroke="rgb(191,191,191)" stroke-width="1" font-size="16" >H</text>
<text x="326.808199" y="264.201530" fill="rgb(12,12,255)"  stroke="rgb(12,12,255)" stroke-width="1" font-size="16" >N</text>
<text x="366.589075" y="190.738360" fill="rgb(12,12,255)"  stroke="rgb(12,12,255)" stroke-width="1" font-size="16" >N</text>
<text x="277.389075" y="213.347376" fill="rgb(12,12,255)"  stroke="rgb(12,12,255)" stroke-width="1" font-size="16" >+</text>
<text x="266.589075" y="225.379376" fill="rgb(12,12,255)"  stroke="rgb(12,12,255)" stroke-width="1" font-size="16" >N</text>
<text x="187.089773" y="229.984006" fill="rgb(191,191,191)"  stroke="rgb(191,191,191)" stroke-width="1" font-size="16" >H</text>
<text x="195.406240" y="269.109910" fill="rgb(12,12,255)"  stroke="rgb(12,12,255)" stroke-width="1" font-size="16" >N</text>
<text x="227.766920" y="325.160252" fill="rgb(12,12,255)"  stroke="rgb(12,12,255)" stroke-width="1" font-size="16" >N</text>
<text x="257.492713" y="98.833276" fill="rgb(191,191,191)"  stroke="rgb(191,191,191)" stroke-width="1" font-size="16" >H</text>
<text x="227.766920" y="125.598500" fill="rgb(12,12,255)"  stroke="rgb(12,12,255)" stroke-width="1" font-size="16" >N</text>
<text x="450.100485" y="123.736664" fill="rgb(12,12,255)"  stroke="rgb(12,12,255)" stroke-width="1" font-size="16" >N</text>
<text x="437.739805" y="226.500284" fill="rgb(191,191,191)"  stroke="rgb(191,191,191)" stroke-width="1" font-size="16" >H</text>
<text x="450.100485" y="188.458023" fill="rgb(12,12,255)"  stroke="rgb(12,12,255)" stroke-width="1" font-size="16" >N</text>
<text x="382.858541" y="296.562210" fill="rgb(12,12,255)"  stroke="rgb(12,12,255)" stroke-width="1" font-size="16" >N</text>
</svg>
</g>
<text font-size="18.000000" fill ="black" font-family="sans-serif"
x="10.000000" y="20.000000" >ZINC77029766</text>
</svg>
