<?xml version="1.0"?>
<svg version="1.1" id="topsvg"
xmlns="http://www.w3.org/2000/svg" xmlns:xlink="http://www.w3.org/1999/xlink"
xmlns:cml="http://www.xml-cml.org/schema" x="0" y="0" width="200px" height="200px" viewBox="0 0 100 100">
<title>ZINC02575146 - Open Babel Depiction</title>
<rect x="0" y="0" width="100" height="100" fill="white"/>
<g transform="translate(0,0)">
<svg width="100" height="100" x="0" y="0" viewBox="0 0 590.333 433.205"
font-family="sans-serif" stroke="rgb(0,0,0)" stroke-width="2"  stroke-linecap="round">
<line x1="282.5" y1="358.6" x2="269.0" y2="381.9" stroke="rgb(0,0,0)"  stroke-width="2.0"/>
<line x1="322.5" y1="358.6" x2="336.0" y2="381.9" stroke="rgb(0,0,0)"  stroke-width="2.0"/>
<line x1="342.5" y1="323.9" x2="369.5" y2="323.9" stroke="rgb(0,0,0)"  stroke-width="2.0"/>
<line x1="262.5" y1="323.9" x2="235.5" y2="323.9" stroke="rgb(0,0,0)"  stroke-width="2.0"/>
<line x1="262.5" y1="254.6" x2="239.1" y2="241.1" stroke="rgb(0,0,0)"  stroke-width="2.0"/>
<line x1="262.5" y1="254.6" x2="239.1" y2="268.1" stroke="rgb(0,0,0)"  stroke-width="2.0"/>
<polygon points="282.487113 220.000000 278.487113 193.200000 286.487113 193.200000 " stroke-width="2.000000" fill="rgb(0,0,0)"  stroke="rgb(0,0,0)" />
<line x1="282.5" y1="220.0" x2="247.8" y2="200.0" stroke="rgb(0,0,0)"  stroke-width="2.0"/>
<line x1="322.5" y1="220.0" x2="345.9" y2="206.5" stroke="rgb(0,0,0)"  stroke-width="2.0"/>
<line x1="322.5" y1="220.0" x2="322.5" y2="193.0" stroke="rgb(0,0,0)"  stroke-width="2.0"/>
<polygon points="342.487113 254.641016 367.696594 264.576915 363.696594 271.505118 " stroke-width="2.000000" fill="rgb(0,0,0)"  stroke="rgb(0,0,0)" />
<line x1="342.5" y1="254.6" x2="377.1" y2="234.6" stroke="rgb(0,0,0)"  stroke-width="2.0"/>
<line x1="411.8" y1="254.6" x2="411.8" y2="281.6" stroke="rgb(0,0,0)"  stroke-width="2.0"/>
<line x1="481.1" y1="254.6" x2="481.1" y2="281.6" stroke="rgb(0,0,0)"  stroke-width="2.0"/>
<line x1="515.7" y1="234.6" x2="539.1" y2="248.1" stroke="rgb(0,0,0)"  stroke-width="2.0"/>
<line x1="515.7" y1="194.6" x2="539.1" y2="181.1" stroke="rgb(0,0,0)"  stroke-width="2.0"/>
<line x1="481.1" y1="174.6" x2="481.1" y2="147.6" stroke="rgb(0,0,0)"  stroke-width="2.0"/>
<line x1="375.6" y1="197.2" x2="352.2" y2="183.7" stroke="rgb(0,0,0)"  stroke-width="2.0"/>
<line x1="378.6" y1="192.0" x2="355.2" y2="178.5" stroke="rgb(0,0,0)"  stroke-width="2.0"/>
<line x1="423.0" y1="301.1" x2="435.2" y2="308.1" stroke="rgb(0,0,0)"  stroke-width="2.0"/>
<line x1="247.8" y1="160.0" x2="271.2" y2="146.5" stroke="rgb(0,0,0)"  stroke-width="2.0"/>
<line x1="213.2" y1="140.0" x2="213.2" y2="113.0" stroke="rgb(0,0,0)"  stroke-width="2.0"/>
<line x1="178.6" y1="160.0" x2="143.9" y2="140.0" stroke="rgb(0,0,0)"  stroke-width="2.0"/>
<line x1="178.6" y1="200.0" x2="155.2" y2="213.5" stroke="rgb(0,0,0)"  stroke-width="2.0"/>
<line x1="213.2" y1="220.0" x2="213.2" y2="247.0" stroke="rgb(0,0,0)"  stroke-width="2.0"/>
<line x1="143.9" y1="100.0" x2="167.3" y2="86.5" stroke="rgb(0,0,0)"  stroke-width="2.0"/>
<line x1="109.3" y1="80.0" x2="109.3" y2="53.0" stroke="rgb(0,0,0)"  stroke-width="2.0"/>
<line x1="74.6" y1="100.0" x2="51.3" y2="86.5" stroke="rgb(0,0,0)"  stroke-width="2.0"/>
<line x1="74.6" y1="140.0" x2="51.3" y2="153.5" stroke="rgb(0,0,0)"  stroke-width="2.0"/>
<line x1="109.3" y1="160.0" x2="109.3" y2="187.0" stroke="rgb(0,0,0)"  stroke-width="2.0"/>
<line x1="342.5" y1="323.9" x2="322.5" y2="289.3" stroke="rgb(0,0,0)"  stroke-width="2.0"/>
<line x1="322.5" y1="289.3" x2="282.5" y2="289.3" stroke="rgb(0,0,0)"  stroke-width="2.0"/>
<line x1="316.5" y1="296.5" x2="288.5" y2="296.5" stroke="rgb(0,0,0)"  stroke-width="2.0"/>
<line x1="282.5" y1="289.3" x2="262.5" y2="323.9" stroke="rgb(0,0,0)"  stroke-width="2.0"/>
<line x1="262.5" y1="323.9" x2="282.5" y2="358.6" stroke="rgb(0,0,0)"  stroke-width="2.0"/>
<line x1="271.7" y1="325.5" x2="285.7" y2="349.8" stroke="rgb(0,0,0)"  stroke-width="2.0"/>
<line x1="282.5" y1="358.6" x2="322.5" y2="358.6" stroke="rgb(0,0,0)"  stroke-width="2.0"/>
<line x1="322.5" y1="358.6" x2="342.5" y2="323.9" stroke="rgb(0,0,0)"  stroke-width="2.0"/>
<line x1="319.3" y1="349.8" x2="333.3" y2="325.5" stroke="rgb(0,0,0)"  stroke-width="2.0"/>
<line x1="446.4" y1="234.6" x2="446.4" y2="194.6" stroke="rgb(0,0,0)"  stroke-width="2.0"/>
<line x1="439.2" y1="228.6" x2="439.2" y2="200.6" stroke="rgb(0,0,0)"  stroke-width="2.0"/>
<line x1="446.4" y1="194.6" x2="423.0" y2="181.1" stroke="rgb(0,0,0)"  stroke-width="2.0"/>
<line x1="400.5" y1="181.1" x2="377.1" y2="194.6" stroke="rgb(0,0,0)"  stroke-width="2.0"/>
<line x1="377.1" y1="194.6" x2="377.1" y2="234.6" stroke="rgb(0,0,0)"  stroke-width="2.0"/>
<line x1="377.1" y1="234.6" x2="411.8" y2="254.6" stroke="rgb(0,0,0)"  stroke-width="2.0"/>
<line x1="385.9" y1="231.4" x2="410.2" y2="245.4" stroke="rgb(0,0,0)"  stroke-width="2.0"/>
<line x1="411.8" y1="254.6" x2="446.4" y2="234.6" stroke="rgb(0,0,0)"  stroke-width="2.0"/>
<line x1="515.7" y1="194.6" x2="481.1" y2="174.6" stroke="rgb(0,0,0)"  stroke-width="2.0"/>
<line x1="506.9" y1="197.9" x2="482.6" y2="183.9" stroke="rgb(0,0,0)"  stroke-width="2.0"/>
<line x1="481.1" y1="174.6" x2="446.4" y2="194.6" stroke="rgb(0,0,0)"  stroke-width="2.0"/>
<line x1="446.4" y1="234.6" x2="481.1" y2="254.6" stroke="rgb(0,0,0)"  stroke-width="2.0"/>
<line x1="481.1" y1="254.6" x2="515.7" y2="234.6" stroke="rgb(0,0,0)"  stroke-width="2.0"/>
<line x1="482.6" y1="245.4" x2="506.9" y2="231.4" stroke="rgb(0,0,0)"  stroke-width="2.0"/>
<line x1="515.7" y1="234.6" x2="515.7" y2="194.6" stroke="rgb(0,0,0)"  stroke-width="2.0"/>
<line x1="213.2" y1="140.0" x2="178.6" y2="160.0" stroke="rgb(0,0,0)"  stroke-width="2.0"/>
<line x1="178.6" y1="160.0" x2="178.6" y2="200.0" stroke="rgb(0,0,0)"  stroke-width="2.0"/>
<line x1="185.8" y1="166.0" x2="185.8" y2="194.0" stroke="rgb(0,0,0)"  stroke-width="2.0"/>
<line x1="178.6" y1="200.0" x2="213.2" y2="220.0" stroke="rgb(0,0,0)"  stroke-width="2.0"/>
<line x1="213.2" y1="220.0" x2="247.8" y2="200.0" stroke="rgb(0,0,0)"  stroke-width="2.0"/>
<line x1="214.8" y1="210.8" x2="239.0" y2="196.8" stroke="rgb(0,0,0)"  stroke-width="2.0"/>
<line x1="247.8" y1="200.0" x2="247.8" y2="160.0" stroke="rgb(0,0,0)"  stroke-width="2.0"/>
<line x1="247.8" y1="160.0" x2="213.2" y2="140.0" stroke="rgb(0,0,0)"  stroke-width="2.0"/>
<line x1="239.0" y1="163.2" x2="214.8" y2="149.2" stroke="rgb(0,0,0)"  stroke-width="2.0"/>
<line x1="109.3" y1="80.0" x2="74.6" y2="100.0" stroke="rgb(0,0,0)"  stroke-width="2.0"/>
<line x1="74.6" y1="100.0" x2="74.6" y2="140.0" stroke="rgb(0,0,0)"  stroke-width="2.0"/>
<line x1="81.8" y1="106.0" x2="81.8" y2="134.0" stroke="rgb(0,0,0)"  stroke-width="2.0"/>
<line x1="74.6" y1="140.0" x2="109.3" y2="160.0" stroke="rgb(0,0,0)"  stroke-width="2.0"/>
<line x1="109.3" y1="160.0" x2="143.9" y2="140.0" stroke="rgb(0,0,0)"  stroke-width="2.0"/>
<line x1="110.9" y1="150.8" x2="135.1" y2="136.8" stroke="rgb(0,0,0)"  stroke-width="2.0"/>
<line x1="143.9" y1="140.0" x2="143.9" y2="100.0" stroke="rgb(0,0,0)"  stroke-width="2.0"/>
<line x1="143.9" y1="100.0" x2="109.3" y2="80.0" stroke="rgb(0,0,0)"  stroke-width="2.0"/>
<line x1="135.1" y1="103.2" x2="110.9" y2="89.2" stroke="rgb(0,0,0)"  stroke-width="2.0"/>
<line x1="322.5" y1="220.0" x2="282.5" y2="220.0" stroke="rgb(0,0,0)"  stroke-width="2.0"/>
<line x1="282.5" y1="220.0" x2="262.5" y2="254.6" stroke="rgb(0,0,0)"  stroke-width="2.0"/>
<line x1="262.5" y1="254.6" x2="282.5" y2="289.3" stroke="rgb(0,0,0)"  stroke-width="2.0"/>
<line x1="322.5" y1="289.3" x2="342.5" y2="254.6" stroke="rgb(0,0,0)"  stroke-width="2.0"/>
<line x1="342.5" y1="254.6" x2="322.5" y2="220.0" stroke="rgb(0,0,0)"  stroke-width="2.0"/>
<text x="316.487113" y="188.000000" fill="rgb(191,191,191)"  stroke="rgb(191,191,191)" stroke-width="1" font-size="16" >H</text>
<text x="22.000000" y="88.000000" fill="rgb(165,40,40)"  stroke="rgb(165,40,40)" stroke-width="1" font-size="16" >Br</text>
<text x="256.487113" y="401.205081" fill="rgb(191,191,191)"  stroke="rgb(191,191,191)" stroke-width="1" font-size="16" >H</text>
<text x="336.487113" y="401.205081" fill="rgb(191,191,191)"  stroke="rgb(191,191,191)" stroke-width="1" font-size="16" >H</text>
<text x="376.487113" y="331.923048" fill="rgb(191,191,191)"  stroke="rgb(191,191,191)" stroke-width="1" font-size="16" >H</text>
<text x="216.487113" y="331.923048" fill="rgb(191,191,191)"  stroke="rgb(191,191,191)" stroke-width="1" font-size="16" >H</text>
<text x="221.846097" y="242.641016" fill="rgb(191,191,191)"  stroke="rgb(191,191,191)" stroke-width="1" font-size="16" >H</text>
<text x="221.846097" y="282.641016" fill="rgb(191,191,191)"  stroke="rgb(191,191,191)" stroke-width="1" font-size="16" >H</text>
<text x="351.128129" y="208.000000" fill="rgb(191,191,191)"  stroke="rgb(191,191,191)" stroke-width="1" font-size="16" >H</text>
<text x="475.051178" y="302.641016" fill="rgb(191,191,191)"  stroke="rgb(191,191,191)" stroke-width="1" font-size="16" >H</text>
<text x="544.333210" y="262.641016" fill="rgb(191,191,191)"  stroke="rgb(191,191,191)" stroke-width="1" font-size="16" >H</text>
<text x="544.333210" y="182.641016" fill="rgb(191,191,191)"  stroke="rgb(191,191,191)" stroke-width="1" font-size="16" >H</text>
<text x="475.051178" y="142.641016" fill="rgb(191,191,191)"  stroke="rgb(191,191,191)" stroke-width="1" font-size="16" >H</text>
<text x="276.487113" y="148.000000" fill="rgb(191,191,191)"  stroke="rgb(191,191,191)" stroke-width="1" font-size="16" >H</text>
<text x="207.205081" y="108.000000" fill="rgb(191,191,191)"  stroke="rgb(191,191,191)" stroke-width="1" font-size="16" >H</text>
<text x="137.923048" y="228.000000" fill="rgb(191,191,191)"  stroke="rgb(191,191,191)" stroke-width="1" font-size="16" >H</text>
<text x="207.205081" y="268.000000" fill="rgb(191,191,191)"  stroke="rgb(191,191,191)" stroke-width="1" font-size="16" >H</text>
<text x="172.564065" y="88.000000" fill="rgb(191,191,191)"  stroke="rgb(191,191,191)" stroke-width="1" font-size="16" >H</text>
<text x="103.282032" y="48.000000" fill="rgb(191,191,191)"  stroke="rgb(191,191,191)" stroke-width="1" font-size="16" >H</text>
<text x="34.000000" y="168.000000" fill="rgb(191,191,191)"  stroke="rgb(191,191,191)" stroke-width="1" font-size="16" >H</text>
<text x="103.282032" y="208.000000" fill="rgb(191,191,191)"  stroke="rgb(191,191,191)" stroke-width="1" font-size="16" >H</text>
<text x="440.410162" y="322.641016" fill="rgb(191,191,191)"  stroke="rgb(191,191,191)" stroke-width="1" font-size="16" >H</text>
<text x="276.487113" y="188.000000" fill="rgb(191,191,191)"  stroke="rgb(191,191,191)" stroke-width="1" font-size="16" >H</text>
<text x="371.128129" y="282.641016" fill="rgb(191,191,191)"  stroke="rgb(191,191,191)" stroke-width="1" font-size="16" >H</text>
<text x="405.769145" y="182.641016" fill="rgb(255,12,12)"  stroke="rgb(255,12,12)" stroke-width="1" font-size="16" >O</text>
<text x="336.487113" y="182.641016" fill="rgb(255,12,12)"  stroke="rgb(255,12,12)" stroke-width="1" font-size="16" >O</text>
<text x="405.769145" y="302.641016" fill="rgb(255,12,12)"  stroke="rgb(255,12,12)" stroke-width="1" font-size="16" >O</text>
</svg>
</g>
<text font-size="18.000000" fill ="black" font-family="sans-serif"
x="10.000000" y="20.000000" >ZINC02575146</text>
</svg>
