<?xml version="1.0"?>
<svg version="1.1" id="topsvg"
xmlns="http://www.w3.org/2000/svg" xmlns:xlink="http://www.w3.org/1999/xlink"
xmlns:cml="http://www.xml-cml.org/schema" x="0" y="0" width="200px" height="200px" viewBox="0 0 100 100">
<title>ZINC03866288 - Open Babel Depiction</title>
<rect x="0" y="0" width="100" height="100" fill="white"/>
<g transform="translate(0,0)">
<svg width="100" height="100" x="0" y="0" viewBox="0 0 434.402 288.262"
font-family="sans-serif" stroke="rgb(0,0,0)" stroke-width="2"  stroke-linecap="round">
<line x1="107.2" y1="214.7" x2="107.2" y2="175.9" stroke="rgb(0,0,0)"  stroke-width="2.0"/>
<line x1="107.2" y1="214.7" x2="120.1" y2="237.0" stroke="rgb(0,0,0)"  stroke-width="2.0"/>
<line x1="107.2" y1="214.7" x2="133.0" y2="214.7" stroke="rgb(0,0,0)"  stroke-width="2.0"/>
<line x1="107.2" y1="214.7" x2="84.8" y2="227.6" stroke="rgb(0,0,0)"  stroke-width="2.0"/>
<line x1="73.6" y1="156.5" x2="51.3" y2="169.4" stroke="rgb(0,0,0)"  stroke-width="2.0"/>
<line x1="73.6" y1="117.7" x2="51.3" y2="104.8" stroke="rgb(0,0,0)"  stroke-width="2.0"/>
<line x1="107.2" y1="98.3" x2="107.2" y2="72.5" stroke="rgb(0,0,0)"  stroke-width="2.0"/>
<line x1="200.5" y1="137.1" x2="278.0" y2="137.1" stroke="rgb(0,0,0)"  stroke-width="2.0"/>
<line x1="177.7" y1="105.7" x2="185.6" y2="81.2" stroke="rgb(0,0,0)"  stroke-width="2.0"/>
<line x1="202.4" y1="66.1" x2="214.9" y2="63.5" stroke="rgb(0,0,0)"  stroke-width="2.0"/>
<line x1="181.0" y1="59.2" x2="172.4" y2="49.7" stroke="rgb(0,0,0)"  stroke-width="2.0"/>
<line x1="297.4" y1="170.7" x2="284.5" y2="193.0" stroke="rgb(0,0,0)"  stroke-width="2.0"/>
<line x1="336.2" y1="170.7" x2="349.1" y2="193.0" stroke="rgb(0,0,0)"  stroke-width="2.0"/>
<line x1="355.6" y1="137.1" x2="381.4" y2="137.1" stroke="rgb(0,0,0)"  stroke-width="2.0"/>
<line x1="336.2" y1="103.5" x2="349.1" y2="81.2" stroke="rgb(0,0,0)"  stroke-width="2.0"/>
<line x1="297.4" y1="103.5" x2="284.5" y2="81.2" stroke="rgb(0,0,0)"  stroke-width="2.0"/>
<line x1="200.5" y1="137.1" x2="185.3" y2="158.0" stroke="rgb(0,0,0)"  stroke-width="2.0"/>
<line x1="165.5" y1="164.5" x2="140.8" y2="156.5" stroke="rgb(0,0,0)"  stroke-width="2.0"/>
<line x1="165.7" y1="157.0" x2="148.7" y2="151.5" stroke="rgb(0,0,0)"  stroke-width="2.0"/>
<line x1="140.8" y1="156.5" x2="140.8" y2="130.7" stroke="rgb(0,0,0)"  stroke-width="2.0"/>
<line x1="153.1" y1="113.7" x2="177.7" y2="105.7" stroke="rgb(0,0,0)"  stroke-width="2.0"/>
<line x1="177.7" y1="105.7" x2="200.5" y2="137.1" stroke="rgb(0,0,0)"  stroke-width="2.0"/>
<line x1="175.4" y1="114.8" x2="191.1" y2="136.5" stroke="rgb(0,0,0)"  stroke-width="2.0"/>
<line x1="73.6" y1="117.7" x2="107.2" y2="98.3" stroke="rgb(0,0,0)"  stroke-width="2.0"/>
<line x1="82.4" y1="120.9" x2="105.6" y2="107.5" stroke="rgb(0,0,0)"  stroke-width="2.0"/>
<line x1="107.2" y1="98.3" x2="129.5" y2="111.2" stroke="rgb(0,0,0)"  stroke-width="2.0"/>
<line x1="140.8" y1="156.5" x2="107.2" y2="175.9" stroke="rgb(0,0,0)"  stroke-width="2.0"/>
<line x1="107.2" y1="175.9" x2="73.6" y2="156.5" stroke="rgb(0,0,0)"  stroke-width="2.0"/>
<line x1="105.6" y1="166.6" x2="82.4" y2="153.3" stroke="rgb(0,0,0)"  stroke-width="2.0"/>
<line x1="73.6" y1="156.5" x2="73.6" y2="117.7" stroke="rgb(0,0,0)"  stroke-width="2.0"/>
<line x1="336.2" y1="170.7" x2="355.6" y2="137.1" stroke="rgb(0,0,0)"  stroke-width="2.0"/>
<line x1="355.6" y1="137.1" x2="336.2" y2="103.5" stroke="rgb(0,0,0)"  stroke-width="2.0"/>
<line x1="346.4" y1="135.5" x2="333.0" y2="112.3" stroke="rgb(0,0,0)"  stroke-width="2.0"/>
<line x1="336.2" y1="103.5" x2="297.4" y2="103.5" stroke="rgb(0,0,0)"  stroke-width="2.0"/>
<line x1="297.4" y1="103.5" x2="278.0" y2="137.1" stroke="rgb(0,0,0)"  stroke-width="2.0"/>
<line x1="300.7" y1="112.3" x2="287.3" y2="135.5" stroke="rgb(0,0,0)"  stroke-width="2.0"/>
<line x1="278.0" y1="137.1" x2="297.4" y2="170.7" stroke="rgb(0,0,0)"  stroke-width="2.0"/>
<line x1="297.4" y1="170.7" x2="336.2" y2="170.7" stroke="rgb(0,0,0)"  stroke-width="2.0"/>
<line x1="303.4" y1="163.5" x2="330.2" y2="163.5" stroke="rgb(0,0,0)"  stroke-width="2.0"/>
<text x="272.038031" y="77.911953" fill="rgb(191,191,191)"  stroke="rgb(191,191,191)" stroke-width="1" font-size="16" >H</text>
<text x="349.613788" y="77.911953" fill="rgb(191,191,191)"  stroke="rgb(191,191,191)" stroke-width="1" font-size="16" >H</text>
<text x="388.401667" y="145.094529" fill="rgb(191,191,191)"  stroke="rgb(191,191,191)" stroke-width="1" font-size="16" >H</text>
<text x="349.613788" y="212.277106" fill="rgb(191,191,191)"  stroke="rgb(191,191,191)" stroke-width="1" font-size="16" >H</text>
<text x="272.038031" y="212.277106" fill="rgb(191,191,191)"  stroke="rgb(191,191,191)" stroke-width="1" font-size="16" >H</text>
<text x="157.695287" y="48.000000" fill="rgb(191,191,191)"  stroke="rgb(191,191,191)" stroke-width="1" font-size="16" >H</text>
<text x="221.589714" y="68.760558" fill="rgb(191,191,191)"  stroke="rgb(191,191,191)" stroke-width="1" font-size="16" >H</text>
<text x="101.182577" y="67.518772" fill="rgb(191,191,191)"  stroke="rgb(191,191,191)" stroke-width="1" font-size="16" >H</text>
<text x="34.000000" y="106.306651" fill="rgb(191,191,191)"  stroke="rgb(191,191,191)" stroke-width="1" font-size="16" >H</text>
<text x="34.000000" y="183.882408" fill="rgb(191,191,191)"  stroke="rgb(191,191,191)" stroke-width="1" font-size="16" >H</text>
<text x="67.591288" y="242.064226" fill="rgb(191,191,191)"  stroke="rgb(191,191,191)" stroke-width="1" font-size="16" >H</text>
<text x="139.970456" y="222.670287" fill="rgb(191,191,191)"  stroke="rgb(191,191,191)" stroke-width="1" font-size="16" >H</text>
<text x="120.576516" y="256.261575" fill="rgb(191,191,191)"  stroke="rgb(191,191,191)" stroke-width="1" font-size="16" >H</text>
<text x="183.649444" y="76.825011" fill="rgb(12,12,255)"  stroke="rgb(12,12,255)" stroke-width="1" font-size="16" >N</text>
<text x="171.663330" y="176.474583" fill="rgb(12,12,255)"  stroke="rgb(12,12,255)" stroke-width="1" font-size="16" >N</text>
<text x="134.773865" y="125.700590" fill="rgb(12,12,255)"  stroke="rgb(12,12,255)" stroke-width="1" font-size="16" >N</text>
</svg>
</g>
<text font-size="18.000000" fill ="black" font-family="sans-serif"
x="10.000000" y="20.000000" >ZINC03866288</text>
</svg>
