<?xml version="1.0"?>
<svg version="1.1" id="topsvg"
xmlns="http://www.w3.org/2000/svg" xmlns:xlink="http://www.w3.org/1999/xlink"
xmlns:cml="http://www.xml-cml.org/schema" x="0" y="0" width="200px" height="200px" viewBox="0 0 100 100">
<title>ZINC25336426 - Open Babel Depiction</title>
<rect x="0" y="0" width="100" height="100" fill="white"/>
<g transform="translate(0,0)">
<svg width="100" height="100" x="0" y="0" viewBox="0 0 275.391 400.026"
font-family="sans-serif" stroke="rgb(0,0,0)" stroke-width="2"  stroke-linecap="round">
<line x1="191.2" y1="266.0" x2="167.4" y2="295.4" stroke="rgb(0,0,0)"  stroke-width="2.0"/>
<line x1="191.2" y1="266.0" x2="195.0" y2="241.6" stroke="rgb(0,0,0)"  stroke-width="2.0"/>
<line x1="191.2" y1="266.0" x2="171.9" y2="250.4" stroke="rgb(0,0,0)"  stroke-width="2.0"/>
<line x1="191.2" y1="266.0" x2="215.6" y2="269.9" stroke="rgb(0,0,0)"  stroke-width="2.0"/>
<line x1="167.4" y1="295.4" x2="196.8" y2="319.2" stroke="rgb(0,0,0)"  stroke-width="2.0"/>
<line x1="167.4" y1="295.4" x2="143.6" y2="324.8" stroke="rgb(0,0,0)"  stroke-width="2.0"/>
<line x1="167.4" y1="295.4" x2="148.1" y2="279.8" stroke="rgb(0,0,0)"  stroke-width="2.0"/>
<line x1="196.8" y1="319.2" x2="205.6" y2="342.3" stroke="rgb(0,0,0)"  stroke-width="2.0"/>
<line x1="196.8" y1="319.2" x2="181.2" y2="338.4" stroke="rgb(0,0,0)"  stroke-width="2.0"/>
<line x1="196.8" y1="319.2" x2="219.9" y2="310.3" stroke="rgb(0,0,0)"  stroke-width="2.0"/>
<line x1="143.6" y1="324.8" x2="120.5" y2="333.6" stroke="rgb(0,0,0)"  stroke-width="2.0"/>
<line x1="143.6" y1="324.8" x2="124.4" y2="309.2" stroke="rgb(0,0,0)"  stroke-width="2.0"/>
<line x1="143.6" y1="324.8" x2="152.5" y2="347.9" stroke="rgb(0,0,0)"  stroke-width="2.0"/>
<line x1="140.1" y1="258.8" x2="143.9" y2="234.3" stroke="rgb(0,0,0)"  stroke-width="2.0"/>
<line x1="142.9" y1="231.5" x2="166.0" y2="222.6" stroke="rgb(0,0,0)"  stroke-width="2.0"/>
<line x1="145.0" y1="237.1" x2="168.2" y2="228.2" stroke="rgb(0,0,0)"  stroke-width="2.0"/>
<line x1="143.9" y1="234.3" x2="124.7" y2="218.7" stroke="rgb(0,0,0)"  stroke-width="2.0"/>
<polygon points="126.403996 135.911800 122.435689 186.536517 114.534182 185.285041 " stroke-width="2.000000" fill="rgb(0,0,0)"  stroke="rgb(0,0,0)" />
<line x1="102.4" y1="215.2" x2="91.5" y2="219.4" stroke="rgb(0,0,0)"  stroke-width="2.0"/>
<line x1="126.4" y1="135.9" x2="201.9" y2="132.6" stroke="rgb(0,0,0)"  stroke-width="2.0"/>
<line x1="88.6" y1="135.9" x2="86.0" y2="160.6" stroke="rgb(0,0,0)"  stroke-width="2.0"/>
<line x1="88.6" y1="135.9" x2="66.0" y2="146.0" stroke="rgb(0,0,0)"  stroke-width="2.0"/>
<line x1="77.0" y1="100.0" x2="52.7" y2="105.1" stroke="rgb(0,0,0)"  stroke-width="2.0"/>
<line x1="77.0" y1="100.0" x2="60.4" y2="81.6" stroke="rgb(0,0,0)"  stroke-width="2.0"/>
<line x1="107.5" y1="64.8" x2="107.5" y2="53.0" stroke="rgb(0,0,0)"  stroke-width="2.0"/>
<line x1="138.1" y1="100.0" x2="154.7" y2="81.6" stroke="rgb(0,0,0)"  stroke-width="2.0"/>
<line x1="138.1" y1="100.0" x2="162.3" y2="105.1" stroke="rgb(0,0,0)"  stroke-width="2.0"/>
<line x1="201.9" y1="132.6" x2="223.9" y2="144.1" stroke="rgb(0,0,0)"  stroke-width="2.0"/>
<line x1="201.9" y1="132.6" x2="203.0" y2="157.4" stroke="rgb(0,0,0)"  stroke-width="2.0"/>
<line x1="201.9" y1="132.6" x2="213.3" y2="110.7" stroke="rgb(0,0,0)"  stroke-width="2.0"/>
<line x1="77.0" y1="100.0" x2="97.0" y2="85.4" stroke="rgb(0,0,0)"  stroke-width="2.0"/>
<line x1="118.0" y1="85.4" x2="138.1" y2="100.0" stroke="rgb(0,0,0)"  stroke-width="2.0"/>
<line x1="138.1" y1="100.0" x2="126.4" y2="135.9" stroke="rgb(0,0,0)"  stroke-width="2.0"/>
<line x1="126.4" y1="135.9" x2="88.6" y2="135.9" stroke="rgb(0,0,0)"  stroke-width="2.0"/>
<line x1="88.6" y1="135.9" x2="77.0" y2="100.0" stroke="rgb(0,0,0)"  stroke-width="2.0"/>
<text x="73.315909" y="232.075486" fill="rgb(191,191,191)"  stroke="rgb(191,191,191)" stroke-width="1" font-size="16" >H</text>
<text x="155.807930" y="250.265291" fill="rgb(191,191,191)"  stroke="rgb(191,191,191)" stroke-width="1" font-size="16" >H</text>
<text x="222.479448" y="279.949363" fill="rgb(191,191,191)"  stroke="rgb(191,191,191)" stroke-width="1" font-size="16" >H</text>
<text x="204.289644" y="362.441384" fill="rgb(191,191,191)"  stroke="rgb(191,191,191)" stroke-width="1" font-size="16" >H</text>
<text x="166.976973" y="356.531637" fill="rgb(191,191,191)"  stroke="rgb(191,191,191)" stroke-width="1" font-size="16" >H</text>
<text x="226.019893" y="313.634445" fill="rgb(191,191,191)"  stroke="rgb(191,191,191)" stroke-width="1" font-size="16" >H</text>
<text x="102.349532" y="346.295656" fill="rgb(191,191,191)"  stroke="rgb(191,191,191)" stroke-width="1" font-size="16" >H</text>
<text x="108.259278" y="308.982985" fill="rgb(191,191,191)"  stroke="rgb(191,191,191)" stroke-width="1" font-size="16" >H</text>
<text x="151.156470" y="368.025905" fill="rgb(191,191,191)"  stroke="rgb(191,191,191)" stroke-width="1" font-size="16" >H</text>
<text x="191.076524" y="236.726946" fill="rgb(191,191,191)"  stroke="rgb(191,191,191)" stroke-width="1" font-size="16" >H</text>
<text x="78.677365" y="181.482627" fill="rgb(191,191,191)"  stroke="rgb(191,191,191)" stroke-width="1" font-size="16" >H</text>
<text x="48.114501" y="159.277407" fill="rgb(191,191,191)"  stroke="rgb(191,191,191)" stroke-width="1" font-size="16" >H</text>
<text x="34.000000" y="115.837440" fill="rgb(191,191,191)"  stroke="rgb(191,191,191)" stroke-width="1" font-size="16" >H</text>
<text x="45.673975" y="79.908638" fill="rgb(191,191,191)"  stroke="rgb(191,191,191)" stroke-width="1" font-size="16" >H</text>
<text x="157.356239" y="79.908638" fill="rgb(191,191,191)"  stroke="rgb(191,191,191)" stroke-width="1" font-size="16" >H</text>
<text x="169.030214" y="115.837440" fill="rgb(191,191,191)"  stroke="rgb(191,191,191)" stroke-width="1" font-size="16" >H</text>
<text x="101.515107" y="48.000000" fill="rgb(191,191,191)"  stroke="rgb(191,191,191)" stroke-width="1" font-size="16" >H</text>
<text x="132.033604" y="279.624138" fill="rgb(255,12,12)"  stroke="rgb(255,12,12)" stroke-width="1" font-size="16" >O</text>
<text x="173.211944" y="228.773123" fill="rgb(255,12,12)"  stroke="rgb(255,12,12)" stroke-width="1" font-size="16" >O</text>
<text x="108.584503" y="218.537141" fill="rgb(12,12,255)"  stroke="rgb(12,12,255)" stroke-width="1" font-size="16" >N</text>
<text x="101.515107" y="85.777778" fill="rgb(12,12,255)"  stroke="rgb(12,12,255)" stroke-width="1" font-size="16" >N</text>
<text x="229.390808" y="158.107091" fill="rgb(127,178,255)"  stroke="rgb(127,178,255)" stroke-width="1" font-size="16" >F</text>
<text x="197.520577" y="178.391293" fill="rgb(127,178,255)"  stroke="rgb(127,178,255)" stroke-width="1" font-size="16" >F</text>
<text x="213.347386" y="107.147012" fill="rgb(127,178,255)"  stroke="rgb(127,178,255)" stroke-width="1" font-size="16" >F</text>
</svg>
</g>
<text font-size="18.000000" fill ="black" font-family="sans-serif"
x="10.000000" y="20.000000" >ZINC25336426</text>
</svg>
