<?xml version="1.0"?>
<svg version="1.1" id="topsvg"
xmlns="http://www.w3.org/2000/svg" xmlns:xlink="http://www.w3.org/1999/xlink"
xmlns:cml="http://www.xml-cml.org/schema" x="0" y="0" width="200px" height="200px" viewBox="0 0 100 100">
<title>ZINC98229878 - Open Babel Depiction</title>
<rect x="0" y="0" width="100" height="100" fill="white"/>
<g transform="translate(0,0)">
<svg width="100" height="100" x="0" y="0" viewBox="0 0 723.19 619.28"
font-family="sans-serif" stroke="rgb(0,0,0)" stroke-width="2"  stroke-linecap="round">
<line x1="557.8" y1="519.3" x2="581.2" y2="532.8" stroke="rgb(0,0,0)"  stroke-width="2.0"/>
<line x1="557.8" y1="479.3" x2="581.2" y2="465.8" stroke="rgb(0,0,0)"  stroke-width="2.0"/>
<line x1="523.2" y1="459.3" x2="523.2" y2="432.3" stroke="rgb(0,0,0)"  stroke-width="2.0"/>
<line x1="488.5" y1="479.3" x2="453.9" y2="459.3" stroke="rgb(0,0,0)"  stroke-width="2.0"/>
<line x1="488.5" y1="519.3" x2="465.2" y2="532.8" stroke="rgb(0,0,0)"  stroke-width="2.0"/>
<line x1="523.2" y1="539.3" x2="523.2" y2="566.3" stroke="rgb(0,0,0)"  stroke-width="2.0"/>
<line x1="453.9" y1="459.3" x2="453.9" y2="419.3" stroke="rgb(0,0,0)"  stroke-width="2.0"/>
<line x1="453.9" y1="459.3" x2="440.4" y2="482.7" stroke="rgb(0,0,0)"  stroke-width="2.0"/>
<line x1="453.9" y1="459.3" x2="426.9" y2="459.3" stroke="rgb(0,0,0)"  stroke-width="2.0"/>
<line x1="459.3" y1="418.5" x2="459.3" y2="420.1" stroke="rgb(0,0,0)"  stroke-width="1.0"/>
<line x1="463.6" y1="417.8" x2="463.6" y2="420.7" stroke="rgb(0,0,0)"  stroke-width="1.0"/>
<line x1="467.8" y1="417.2" x2="467.8" y2="421.4" stroke="rgb(0,0,0)"  stroke-width="1.0"/>
<line x1="472.1" y1="416.6" x2="472.1" y2="422.0" stroke="rgb(0,0,0)"  stroke-width="1.0"/>
<line x1="476.4" y1="415.9" x2="476.4" y2="422.6" stroke="rgb(0,0,0)"  stroke-width="1.0"/>
<line x1="480.7" y1="415.3" x2="480.7" y2="423.3" stroke="rgb(0,0,0)"  stroke-width="1.0"/>
<line x1="453.9" y1="419.3" x2="413.9" y2="419.3" stroke="rgb(0,0,0)"  stroke-width="2.0"/>
<line x1="453.9" y1="419.3" x2="453.9" y2="392.3" stroke="rgb(0,0,0)"  stroke-width="2.0"/>
<line x1="411.3" y1="420.8" x2="397.8" y2="397.4" stroke="rgb(0,0,0)"  stroke-width="2.0"/>
<line x1="416.5" y1="417.8" x2="403.0" y2="394.4" stroke="rgb(0,0,0)"  stroke-width="2.0"/>
<line x1="413.9" y1="419.3" x2="400.4" y2="442.7" stroke="rgb(0,0,0)"  stroke-width="2.0"/>
<line x1="380.9" y1="453.9" x2="353.9" y2="453.9" stroke="rgb(0,0,0)"  stroke-width="2.0"/>
<line x1="400.4" y1="465.2" x2="407.4" y2="477.3" stroke="rgb(0,0,0)"  stroke-width="2.0"/>
<polygon points="353.907658 453.921194 357.907658 480.721194 349.907658 480.721194 " stroke-width="2.000000" fill="rgb(0,0,0)"  stroke="rgb(0,0,0)" />
<line x1="353.9" y1="453.9" x2="353.9" y2="413.9" stroke="rgb(0,0,0)"  stroke-width="2.0"/>
<line x1="353.9" y1="453.9" x2="313.9" y2="453.9" stroke="rgb(0,0,0)"  stroke-width="2.0"/>
<line x1="353.9" y1="413.9" x2="319.3" y2="393.9" stroke="rgb(0,0,0)"  stroke-width="2.0"/>
<line x1="353.9" y1="413.9" x2="380.9" y2="413.9" stroke="rgb(0,0,0)"  stroke-width="2.0"/>
<line x1="353.9" y1="413.9" x2="367.4" y2="390.5" stroke="rgb(0,0,0)"  stroke-width="2.0"/>
<line x1="282.7" y1="410.2" x2="277.1" y2="436.6" stroke="rgb(0,0,0)"  stroke-width="2.0"/>
<line x1="243.0" y1="381.8" x2="229.1" y2="383.3" stroke="rgb(0,0,0)"  stroke-width="2.0"/>
<line x1="341.9" y1="324.4" x2="368.3" y2="330.0" stroke="rgb(0,0,0)"  stroke-width="2.0"/>
<line x1="329.5" y1="286.4" x2="347.6" y2="266.3" stroke="rgb(0,0,0)"  stroke-width="2.0"/>
<line x1="290.4" y1="278.1" x2="282.0" y2="252.4" stroke="rgb(0,0,0)"  stroke-width="2.0"/>
<line x1="263.6" y1="307.8" x2="237.2" y2="302.2" stroke="rgb(0,0,0)"  stroke-width="2.0"/>
<line x1="311.3" y1="455.4" x2="297.8" y2="432.0" stroke="rgb(0,0,0)"  stroke-width="2.0"/>
<line x1="316.5" y1="452.4" x2="303.0" y2="429.0" stroke="rgb(0,0,0)"  stroke-width="2.0"/>
<line x1="313.9" y1="453.9" x2="300.4" y2="477.3" stroke="rgb(0,0,0)"  stroke-width="2.0"/>
<line x1="280.9" y1="488.6" x2="253.9" y2="488.6" stroke="rgb(0,0,0)"  stroke-width="2.0"/>
<line x1="300.4" y1="499.8" x2="307.4" y2="511.9" stroke="rgb(0,0,0)"  stroke-width="2.0"/>
<polygon points="253.907658 488.562210 249.907658 461.762210 257.907658 461.762210 " stroke-width="2.000000" fill="rgb(0,0,0)"  stroke="rgb(0,0,0)" />
<line x1="253.9" y1="488.6" x2="213.9" y2="488.6" stroke="rgb(0,0,0)"  stroke-width="2.0"/>
<line x1="253.9" y1="488.6" x2="253.9" y2="528.6" stroke="rgb(0,0,0)"  stroke-width="2.0"/>
<line x1="213.9" y1="488.6" x2="193.9" y2="453.9" stroke="rgb(0,0,0)"  stroke-width="2.0"/>
<line x1="213.9" y1="488.6" x2="190.5" y2="502.1" stroke="rgb(0,0,0)"  stroke-width="2.0"/>
<line x1="213.9" y1="488.6" x2="213.9" y2="515.6" stroke="rgb(0,0,0)"  stroke-width="2.0"/>
<line x1="210.2" y1="417.4" x2="236.6" y2="411.8" stroke="rgb(0,0,0)"  stroke-width="2.0"/>
<line x1="181.8" y1="377.7" x2="183.3" y2="363.8" stroke="rgb(0,0,0)"  stroke-width="2.0"/>
<line x1="124.4" y1="476.5" x2="130.0" y2="502.9" stroke="rgb(0,0,0)"  stroke-width="2.0"/>
<line x1="86.4" y1="464.1" x2="66.3" y2="482.2" stroke="rgb(0,0,0)"  stroke-width="2.0"/>
<line x1="78.0" y1="425.0" x2="52.4" y2="416.7" stroke="rgb(0,0,0)"  stroke-width="2.0"/>
<line x1="107.8" y1="398.3" x2="102.2" y2="371.8" stroke="rgb(0,0,0)"  stroke-width="2.0"/>
<line x1="255.4" y1="531.2" x2="232.0" y2="544.7" stroke="rgb(0,0,0)"  stroke-width="2.0"/>
<line x1="252.4" y1="526.0" x2="229.0" y2="539.5" stroke="rgb(0,0,0)"  stroke-width="2.0"/>
<line x1="253.9" y1="528.6" x2="277.3" y2="542.1" stroke="rgb(0,0,0)"  stroke-width="2.0"/>
<line x1="465.2" y1="372.8" x2="488.5" y2="359.3" stroke="rgb(0,0,0)"  stroke-width="2.0"/>
<line x1="442.6" y1="372.8" x2="430.5" y2="365.8" stroke="rgb(0,0,0)"  stroke-width="2.0"/>
<line x1="490.0" y1="356.7" x2="513.4" y2="370.2" stroke="rgb(0,0,0)"  stroke-width="2.0"/>
<line x1="487.0" y1="361.9" x2="510.4" y2="375.4" stroke="rgb(0,0,0)"  stroke-width="2.0"/>
<line x1="488.5" y1="359.3" x2="488.5" y2="319.3" stroke="rgb(0,0,0)"  stroke-width="2.0"/>
<polygon points="488.548674 319.280178 461.748674 323.280178 461.748674 315.280178 " stroke-width="2.000000" fill="rgb(0,0,0)"  stroke="rgb(0,0,0)" />
<line x1="488.5" y1="319.3" x2="488.5" y2="279.3" stroke="rgb(0,0,0)"  stroke-width="2.0"/>
<line x1="488.5" y1="319.3" x2="515.5" y2="319.3" stroke="rgb(0,0,0)"  stroke-width="2.0"/>
<line x1="488.5" y1="279.3" x2="453.9" y2="259.3" stroke="rgb(0,0,0)"  stroke-width="2.0"/>
<line x1="488.5" y1="279.3" x2="502.0" y2="255.9" stroke="rgb(0,0,0)"  stroke-width="2.0"/>
<line x1="488.5" y1="279.3" x2="515.5" y2="279.3" stroke="rgb(0,0,0)"  stroke-width="2.0"/>
<line x1="453.9" y1="259.3" x2="453.9" y2="219.3" stroke="rgb(0,0,0)"  stroke-width="2.0"/>
<line x1="453.9" y1="259.3" x2="426.9" y2="259.3" stroke="rgb(0,0,0)"  stroke-width="2.0"/>
<line x1="453.9" y1="259.3" x2="440.4" y2="282.7" stroke="rgb(0,0,0)"  stroke-width="2.0"/>
<line x1="453.9" y1="219.3" x2="419.3" y2="199.3" stroke="rgb(0,0,0)"  stroke-width="2.0"/>
<line x1="453.9" y1="219.3" x2="467.4" y2="195.9" stroke="rgb(0,0,0)"  stroke-width="2.0"/>
<line x1="453.9" y1="219.3" x2="480.9" y2="219.3" stroke="rgb(0,0,0)"  stroke-width="2.0"/>
<line x1="419.3" y1="199.3" x2="419.3" y2="172.3" stroke="rgb(0,0,0)"  stroke-width="2.0"/>
<line x1="419.3" y1="199.3" x2="392.3" y2="199.3" stroke="rgb(0,0,0)"  stroke-width="2.0"/>
<line x1="419.3" y1="199.3" x2="405.8" y2="222.7" stroke="rgb(0,0,0)"  stroke-width="2.0"/>
<line x1="432.3" y1="159.3" x2="446.3" y2="159.3" stroke="rgb(0,0,0)"  stroke-width="2.0"/>
<line x1="419.3" y1="146.3" x2="419.3" y2="132.3" stroke="rgb(0,0,0)"  stroke-width="2.0"/>
<line x1="406.3" y1="159.3" x2="392.3" y2="159.3" stroke="rgb(0,0,0)"  stroke-width="2.0"/>
<line x1="535.0" y1="308.0" x2="548.5" y2="284.6" stroke="rgb(0,0,0)"  stroke-width="2.0"/>
<line x1="535.0" y1="330.5" x2="542.0" y2="342.7" stroke="rgb(0,0,0)"  stroke-width="2.0"/>
<line x1="546.0" y1="286.1" x2="532.5" y2="262.8" stroke="rgb(0,0,0)"  stroke-width="2.0"/>
<line x1="551.1" y1="283.1" x2="537.6" y2="259.8" stroke="rgb(0,0,0)"  stroke-width="2.0"/>
<line x1="548.5" y1="284.6" x2="588.5" y2="284.6" stroke="rgb(0,0,0)"  stroke-width="2.0"/>
<line x1="589.3" y1="290.0" x2="587.7" y2="290.0" stroke="rgb(0,0,0)"  stroke-width="1.0"/>
<line x1="590.0" y1="294.3" x2="587.1" y2="294.3" stroke="rgb(0,0,0)"  stroke-width="1.0"/>
<line x1="590.6" y1="298.6" x2="586.5" y2="298.6" stroke="rgb(0,0,0)"  stroke-width="1.0"/>
<line x1="591.3" y1="302.9" x2="585.8" y2="302.9" stroke="rgb(0,0,0)"  stroke-width="1.0"/>
<line x1="591.9" y1="307.2" x2="585.2" y2="307.2" stroke="rgb(0,0,0)"  stroke-width="1.0"/>
<line x1="592.5" y1="311.4" x2="584.5" y2="311.4" stroke="rgb(0,0,0)"  stroke-width="1.0"/>
<line x1="588.5" y1="284.6" x2="628.5" y2="284.6" stroke="rgb(0,0,0)"  stroke-width="2.0"/>
<line x1="588.5" y1="284.6" x2="588.5" y2="257.6" stroke="rgb(0,0,0)"  stroke-width="2.0"/>
<line x1="628.5" y1="284.6" x2="642.0" y2="308.0" stroke="rgb(0,0,0)"  stroke-width="2.0"/>
<line x1="628.5" y1="284.6" x2="651.9" y2="271.1" stroke="rgb(0,0,0)"  stroke-width="2.0"/>
<line x1="628.5" y1="284.6" x2="628.5" y2="257.6" stroke="rgb(0,0,0)"  stroke-width="2.0"/>
<line x1="642.0" y1="330.5" x2="635.0" y2="342.7" stroke="rgb(0,0,0)"  stroke-width="2.0"/>
<line x1="599.8" y1="238.1" x2="623.2" y2="224.6" stroke="rgb(0,0,0)"  stroke-width="2.0"/>
<line x1="577.3" y1="238.1" x2="565.2" y2="231.1" stroke="rgb(0,0,0)"  stroke-width="2.0"/>
<line x1="624.7" y1="222.0" x2="648.1" y2="235.5" stroke="rgb(0,0,0)"  stroke-width="2.0"/>
<line x1="621.7" y1="227.2" x2="645.1" y2="240.7" stroke="rgb(0,0,0)"  stroke-width="2.0"/>
<line x1="623.2" y1="224.6" x2="623.2" y2="184.6" stroke="rgb(0,0,0)"  stroke-width="2.0"/>
<polygon points="623.189690 184.639162 596.389690 188.639162 596.389690 180.639162 " stroke-width="2.000000" fill="rgb(0,0,0)"  stroke="rgb(0,0,0)" />
<line x1="623.2" y1="184.6" x2="623.2" y2="144.6" stroke="rgb(0,0,0)"  stroke-width="2.0"/>
<line x1="623.2" y1="184.6" x2="650.2" y2="184.6" stroke="rgb(0,0,0)"  stroke-width="2.0"/>
<line x1="623.2" y1="144.6" x2="636.7" y2="121.3" stroke="rgb(0,0,0)"  stroke-width="2.0"/>
<line x1="623.2" y1="144.6" x2="650.2" y2="144.6" stroke="rgb(0,0,0)"  stroke-width="2.0"/>
<line x1="623.2" y1="144.6" x2="588.5" y2="124.6" stroke="rgb(0,0,0)"  stroke-width="2.0"/>
<line x1="552.0" y1="140.9" x2="546.4" y2="167.3" stroke="rgb(0,0,0)"  stroke-width="2.0"/>
<line x1="512.3" y1="112.5" x2="498.4" y2="114.0" stroke="rgb(0,0,0)"  stroke-width="2.0"/>
<line x1="545.2" y1="76.5" x2="534.3" y2="51.9" stroke="rgb(0,0,0)"  stroke-width="2.0"/>
<line x1="669.7" y1="173.4" x2="676.7" y2="161.3" stroke="rgb(0,0,0)"  stroke-width="2.0"/>
<line x1="669.7" y1="195.9" x2="676.7" y2="208.0" stroke="rgb(0,0,0)"  stroke-width="2.0"/>
<line x1="262.5" y1="369.2" x2="276.0" y2="345.8" stroke="rgb(0,0,0)"  stroke-width="2.0"/>
<line x1="276.0" y1="345.8" x2="315.1" y2="354.1" stroke="rgb(0,0,0)"  stroke-width="2.0"/>
<line x1="315.1" y1="354.1" x2="319.3" y2="393.9" stroke="rgb(0,0,0)"  stroke-width="2.0"/>
<line x1="319.3" y1="393.9" x2="282.7" y2="410.2" stroke="rgb(0,0,0)"  stroke-width="2.0"/>
<line x1="310.9" y1="389.8" x2="285.3" y2="401.2" stroke="rgb(0,0,0)"  stroke-width="2.0"/>
<line x1="282.7" y1="410.2" x2="264.7" y2="390.1" stroke="rgb(0,0,0)"  stroke-width="2.0"/>
<line x1="169.2" y1="397.1" x2="145.8" y2="410.6" stroke="rgb(0,0,0)"  stroke-width="2.0"/>
<line x1="145.8" y1="410.6" x2="154.1" y2="449.7" stroke="rgb(0,0,0)"  stroke-width="2.0"/>
<line x1="154.1" y1="449.7" x2="193.9" y2="453.9" stroke="rgb(0,0,0)"  stroke-width="2.0"/>
<line x1="193.9" y1="453.9" x2="210.2" y2="417.4" stroke="rgb(0,0,0)"  stroke-width="2.0"/>
<line x1="189.8" y1="445.5" x2="201.2" y2="419.9" stroke="rgb(0,0,0)"  stroke-width="2.0"/>
<line x1="210.2" y1="417.4" x2="190.1" y2="399.3" stroke="rgb(0,0,0)"  stroke-width="2.0"/>
<line x1="531.7" y1="99.9" x2="545.2" y2="76.5" stroke="rgb(0,0,0)"  stroke-width="2.0"/>
<line x1="545.2" y1="76.5" x2="571.5" y2="82.1" stroke="rgb(0,0,0)"  stroke-width="2.0"/>
<line x1="549.6" y1="84.8" x2="568.0" y2="88.7" stroke="rgb(0,0,0)"  stroke-width="2.0"/>
<line x1="585.7" y1="97.8" x2="588.5" y2="124.6" stroke="rgb(0,0,0)"  stroke-width="2.0"/>
<line x1="588.5" y1="124.6" x2="552.0" y2="140.9" stroke="rgb(0,0,0)"  stroke-width="2.0"/>
<line x1="580.1" y1="120.5" x2="554.6" y2="131.9" stroke="rgb(0,0,0)"  stroke-width="2.0"/>
<line x1="552.0" y1="140.9" x2="533.9" y2="120.8" stroke="rgb(0,0,0)"  stroke-width="2.0"/>
<line x1="523.2" y1="459.3" x2="488.5" y2="479.3" stroke="rgb(0,0,0)"  stroke-width="2.0"/>
<line x1="488.5" y1="479.3" x2="488.5" y2="519.3" stroke="rgb(0,0,0)"  stroke-width="2.0"/>
<line x1="495.7" y1="485.3" x2="495.7" y2="513.3" stroke="rgb(0,0,0)"  stroke-width="2.0"/>
<line x1="488.5" y1="519.3" x2="523.2" y2="539.3" stroke="rgb(0,0,0)"  stroke-width="2.0"/>
<line x1="523.2" y1="539.3" x2="557.8" y2="519.3" stroke="rgb(0,0,0)"  stroke-width="2.0"/>
<line x1="524.8" y1="530.0" x2="549.0" y2="516.0" stroke="rgb(0,0,0)"  stroke-width="2.0"/>
<line x1="557.8" y1="519.3" x2="557.8" y2="479.3" stroke="rgb(0,0,0)"  stroke-width="2.0"/>
<line x1="557.8" y1="479.3" x2="523.2" y2="459.3" stroke="rgb(0,0,0)"  stroke-width="2.0"/>
<line x1="549.0" y1="482.5" x2="524.8" y2="468.5" stroke="rgb(0,0,0)"  stroke-width="2.0"/>
<line x1="290.4" y1="278.1" x2="329.5" y2="286.4" stroke="rgb(0,0,0)"  stroke-width="2.0"/>
<line x1="294.7" y1="286.3" x2="322.1" y2="292.2" stroke="rgb(0,0,0)"  stroke-width="2.0"/>
<line x1="329.5" y1="286.4" x2="341.9" y2="324.4" stroke="rgb(0,0,0)"  stroke-width="2.0"/>
<line x1="341.9" y1="324.4" x2="315.1" y2="354.1" stroke="rgb(0,0,0)"  stroke-width="2.0"/>
<line x1="332.5" y1="324.1" x2="313.7" y2="344.9" stroke="rgb(0,0,0)"  stroke-width="2.0"/>
<line x1="276.0" y1="345.8" x2="263.6" y2="307.8" stroke="rgb(0,0,0)"  stroke-width="2.0"/>
<line x1="281.0" y1="337.9" x2="272.3" y2="311.3" stroke="rgb(0,0,0)"  stroke-width="2.0"/>
<line x1="263.6" y1="307.8" x2="290.4" y2="278.1" stroke="rgb(0,0,0)"  stroke-width="2.0"/>
<line x1="78.0" y1="425.0" x2="86.4" y2="464.1" stroke="rgb(0,0,0)"  stroke-width="2.0"/>
<line x1="86.3" y1="429.4" x2="92.2" y2="456.8" stroke="rgb(0,0,0)"  stroke-width="2.0"/>
<line x1="86.4" y1="464.1" x2="124.4" y2="476.5" stroke="rgb(0,0,0)"  stroke-width="2.0"/>
<line x1="124.4" y1="476.5" x2="154.1" y2="449.7" stroke="rgb(0,0,0)"  stroke-width="2.0"/>
<line x1="124.0" y1="467.1" x2="144.9" y2="448.4" stroke="rgb(0,0,0)"  stroke-width="2.0"/>
<line x1="145.8" y1="410.6" x2="107.8" y2="398.3" stroke="rgb(0,0,0)"  stroke-width="2.0"/>
<line x1="137.9" y1="415.6" x2="111.2" y2="407.0" stroke="rgb(0,0,0)"  stroke-width="2.0"/>
<line x1="107.8" y1="398.3" x2="78.0" y2="425.0" stroke="rgb(0,0,0)"  stroke-width="2.0"/>
<text x="517.189690" y="427.280178" fill="rgb(191,191,191)"  stroke="rgb(191,191,191)" stroke-width="1" font-size="16" >H</text>
<text x="173.266642" y="516.562210" fill="rgb(191,191,191)"  stroke="rgb(191,191,191)" stroke-width="1" font-size="16" >H</text>
<text x="307.907658" y="531.203226" fill="rgb(191,191,191)"  stroke="rgb(191,191,191)" stroke-width="1" font-size="16" >H</text>
<text x="218.473015" y="307.465122" fill="rgb(191,191,191)"  stroke="rgb(191,191,191)" stroke-width="1" font-size="16" >H</text>
<text x="272.003464" y="248.013536" fill="rgb(191,191,191)"  stroke="rgb(191,191,191)" stroke-width="1" font-size="16" >H</text>
<text x="350.255272" y="264.646472" fill="rgb(191,191,191)"  stroke="rgb(191,191,191)" stroke-width="1" font-size="16" >H</text>
<text x="374.976631" y="340.730993" fill="rgb(191,191,191)"  stroke="rgb(191,191,191)" stroke-width="1" font-size="16" >H</text>
<text x="268.408356" y="457.316564" fill="rgb(191,191,191)"  stroke="rgb(191,191,191)" stroke-width="1" font-size="16" >H</text>
<text x="367.907658" y="387.280178" fill="rgb(191,191,191)"  stroke="rgb(191,191,191)" stroke-width="1" font-size="16" >H</text>
<text x="387.907658" y="421.921194" fill="rgb(191,191,191)"  stroke="rgb(191,191,191)" stroke-width="1" font-size="16" >H</text>
<text x="407.907658" y="496.562210" fill="rgb(191,191,191)"  stroke="rgb(191,191,191)" stroke-width="1" font-size="16" >H</text>
<text x="407.907658" y="467.280178" fill="rgb(191,191,191)"  stroke="rgb(191,191,191)" stroke-width="1" font-size="16" >H</text>
<text x="427.907658" y="501.921194" fill="rgb(191,191,191)"  stroke="rgb(191,191,191)" stroke-width="1" font-size="16" >H</text>
<text x="517.189690" y="587.280178" fill="rgb(191,191,191)"  stroke="rgb(191,191,191)" stroke-width="1" font-size="16" >H</text>
<text x="447.907658" y="547.280178" fill="rgb(191,191,191)"  stroke="rgb(191,191,191)" stroke-width="1" font-size="16" >H</text>
<text x="207.907658" y="536.562210" fill="rgb(191,191,191)"  stroke="rgb(191,191,191)" stroke-width="1" font-size="16" >H</text>
<text x="586.471722" y="467.280178" fill="rgb(191,191,191)"  stroke="rgb(191,191,191)" stroke-width="1" font-size="16" >H</text>
<text x="586.471722" y="547.280178" fill="rgb(191,191,191)"  stroke="rgb(191,191,191)" stroke-width="1" font-size="16" >H</text>
<text x="657.189690" y="192.639162" fill="rgb(12,12,255)"  stroke="rgb(12,12,255)" stroke-width="1" font-size="16" >N</text>
<text x="578.367535" y="92.858286" fill="rgb(12,12,255)"  stroke="rgb(12,12,255)" stroke-width="1" font-size="16" >N</text>
<text x="519.241631" y="119.182834" fill="rgb(12,12,255)"  stroke="rgb(12,12,255)" stroke-width="1" font-size="16" >N</text>
<text x="577.189690" y="192.639162" fill="rgb(191,191,191)"  stroke="rgb(191,191,191)" stroke-width="1" font-size="16" >H</text>
<text x="651.830706" y="252.639162" fill="rgb(255,12,12)"  stroke="rgb(255,12,12)" stroke-width="1" font-size="16" >O</text>
<text x="582.548674" y="252.639162" fill="rgb(12,12,255)"  stroke="rgb(12,12,255)" stroke-width="1" font-size="16" >N</text>
<text x="453.266642" y="167.280178" fill="rgb(191,191,191)"  stroke="rgb(191,191,191)" stroke-width="1" font-size="16" >H</text>
<text x="677.189690" y="227.280178" fill="rgb(191,191,191)"  stroke="rgb(191,191,191)" stroke-width="1" font-size="16" >H</text>
<text x="479.460756" y="123.363973" fill="rgb(191,191,191)"  stroke="rgb(191,191,191)" stroke-width="1" font-size="16" >H</text>
<text x="373.266642" y="167.280178" fill="rgb(191,191,191)"  stroke="rgb(191,191,191)" stroke-width="1" font-size="16" >H</text>
<text x="677.189690" y="157.998146" fill="rgb(191,191,191)"  stroke="rgb(191,191,191)" stroke-width="1" font-size="16" >H</text>
<text x="522.972166" y="48.000000" fill="rgb(191,191,191)"  stroke="rgb(191,191,191)" stroke-width="1" font-size="16" >H</text>
<text x="537.690388" y="188.034532" fill="rgb(191,191,191)"  stroke="rgb(191,191,191)" stroke-width="1" font-size="16" >H</text>
<text x="657.189690" y="152.639162" fill="rgb(191,191,191)"  stroke="rgb(191,191,191)" stroke-width="1" font-size="16" >H</text>
<text x="637.189690" y="117.998146" fill="rgb(191,191,191)"  stroke="rgb(191,191,191)" stroke-width="1" font-size="16" >H</text>
<text x="547.907658" y="232.639162" fill="rgb(191,191,191)"  stroke="rgb(191,191,191)" stroke-width="1" font-size="16" >H</text>
<text x="622.548674" y="361.921194" fill="rgb(191,191,191)"  stroke="rgb(191,191,191)" stroke-width="1" font-size="16" >H</text>
<text x="622.548674" y="252.639162" fill="rgb(191,191,191)"  stroke="rgb(191,191,191)" stroke-width="1" font-size="16" >H</text>
<text x="657.189690" y="272.639162" fill="rgb(191,191,191)"  stroke="rgb(191,191,191)" stroke-width="1" font-size="16" >H</text>
<text x="542.548674" y="361.921194" fill="rgb(191,191,191)"  stroke="rgb(191,191,191)" stroke-width="1" font-size="16" >H</text>
<text x="413.266642" y="127.280178" fill="rgb(191,191,191)"  stroke="rgb(191,191,191)" stroke-width="1" font-size="16" >H</text>
<text x="642.548674" y="327.280178" fill="rgb(178,178,0)"  stroke="rgb(178,178,0)" stroke-width="1" font-size="16" >S</text>
<text x="393.266642" y="241.921194" fill="rgb(191,191,191)"  stroke="rgb(191,191,191)" stroke-width="1" font-size="16" >H</text>
<text x="373.266642" y="207.280178" fill="rgb(191,191,191)"  stroke="rgb(191,191,191)" stroke-width="1" font-size="16" >H</text>
<text x="487.907658" y="227.280178" fill="rgb(191,191,191)"  stroke="rgb(191,191,191)" stroke-width="1" font-size="16" >H</text>
<text x="467.907658" y="192.639162" fill="rgb(191,191,191)"  stroke="rgb(191,191,191)" stroke-width="1" font-size="16" >H</text>
<text x="427.907658" y="301.921194" fill="rgb(191,191,191)"  stroke="rgb(191,191,191)" stroke-width="1" font-size="16" >H</text>
<text x="407.907658" y="267.280178" fill="rgb(191,191,191)"  stroke="rgb(191,191,191)" stroke-width="1" font-size="16" >H</text>
<text x="522.548674" y="287.280178" fill="rgb(191,191,191)"  stroke="rgb(191,191,191)" stroke-width="1" font-size="16" >H</text>
<text x="502.548674" y="252.639162" fill="rgb(191,191,191)"  stroke="rgb(191,191,191)" stroke-width="1" font-size="16" >H</text>
<text x="413.266642" y="367.280178" fill="rgb(191,191,191)"  stroke="rgb(191,191,191)" stroke-width="1" font-size="16" >H</text>
<text x="93.451586" y="367.127568" fill="rgb(191,191,191)"  stroke="rgb(191,191,191)" stroke-width="1" font-size="16" >H</text>
<text x="34.000000" y="420.658016" fill="rgb(191,191,191)"  stroke="rgb(191,191,191)" stroke-width="1" font-size="16" >H</text>
<text x="50.632935" y="498.909824" fill="rgb(191,191,191)"  stroke="rgb(191,191,191)" stroke-width="1" font-size="16" >H</text>
<text x="126.717457" y="523.631184" fill="rgb(191,191,191)"  stroke="rgb(191,191,191)" stroke-width="1" font-size="16" >H</text>
<text x="243.303028" y="417.062908" fill="rgb(191,191,191)"  stroke="rgb(191,191,191)" stroke-width="1" font-size="16" >H</text>
<text x="247.907658" y="456.562210" fill="rgb(191,191,191)"  stroke="rgb(191,191,191)" stroke-width="1" font-size="16" >H</text>
<text x="287.907658" y="496.562210" fill="rgb(12,12,255)"  stroke="rgb(12,12,255)" stroke-width="1" font-size="16" >N</text>
<text x="287.907658" y="427.280178" fill="rgb(255,12,12)"  stroke="rgb(255,12,12)" stroke-width="1" font-size="16" >O</text>
<text x="210.178723" y="392.646005" fill="rgb(191,191,191)"  stroke="rgb(191,191,191)" stroke-width="1" font-size="16" >H</text>
<text x="249.959599" y="388.464867" fill="rgb(12,12,255)"  stroke="rgb(12,12,255)" stroke-width="1" font-size="16" >N</text>
<text x="347.907658" y="501.921194" fill="rgb(191,191,191)"  stroke="rgb(191,191,191)" stroke-width="1" font-size="16" >H</text>
<text x="387.907658" y="461.921194" fill="rgb(12,12,255)"  stroke="rgb(12,12,255)" stroke-width="1" font-size="16" >N</text>
<text x="387.907658" y="392.639162" fill="rgb(255,12,12)"  stroke="rgb(255,12,12)" stroke-width="1" font-size="16" >O</text>
<text x="487.907658" y="427.280178" fill="rgb(191,191,191)"  stroke="rgb(191,191,191)" stroke-width="1" font-size="16" >H</text>
<text x="582.548674" y="332.639162" fill="rgb(191,191,191)"  stroke="rgb(191,191,191)" stroke-width="1" font-size="16" >H</text>
<text x="522.548674" y="257.998146" fill="rgb(255,12,12)"  stroke="rgb(255,12,12)" stroke-width="1" font-size="16" >O</text>
<text x="522.548674" y="327.280178" fill="rgb(12,12,255)"  stroke="rgb(12,12,255)" stroke-width="1" font-size="16" >N</text>
<text x="424.066642" y="155.248178" fill="rgb(12,12,255)"  stroke="rgb(12,12,255)" stroke-width="1" font-size="16" >+</text>
<text x="413.266642" y="167.280178" fill="rgb(12,12,255)"  stroke="rgb(12,12,255)" stroke-width="1" font-size="16" >N</text>
<text x="442.548674" y="327.280178" fill="rgb(191,191,191)"  stroke="rgb(191,191,191)" stroke-width="1" font-size="16" >H</text>
<text x="517.189690" y="387.280178" fill="rgb(255,12,12)"  stroke="rgb(255,12,12)" stroke-width="1" font-size="16" >O</text>
<text x="447.907658" y="387.280178" fill="rgb(12,12,255)"  stroke="rgb(12,12,255)" stroke-width="1" font-size="16" >N</text>
<text x="282.548674" y="556.562210" fill="rgb(255,12,12)"  stroke="rgb(255,12,12)" stroke-width="1" font-size="16" >OH</text>
<text x="213.266642" y="556.562210" fill="rgb(255,12,12)"  stroke="rgb(255,12,12)" stroke-width="1" font-size="16" >O</text>
<text x="178.632469" y="358.833276" fill="rgb(191,191,191)"  stroke="rgb(191,191,191)" stroke-width="1" font-size="16" >H</text>
<text x="174.451330" y="398.614151" fill="rgb(12,12,255)"  stroke="rgb(12,12,255)" stroke-width="1" font-size="16" >N</text>
</svg>
</g>
<text font-size="18.000000" fill ="black" font-family="sans-serif"
x="10.000000" y="20.000000" >ZINC98229878</text>
</svg>
