<?xml version="1.0"?>
<svg version="1.1" id="topsvg"
xmlns="http://www.w3.org/2000/svg" xmlns:xlink="http://www.w3.org/1999/xlink"
xmlns:cml="http://www.xml-cml.org/schema" x="0" y="0" width="200px" height="200px" viewBox="0 0 100 100">
<title>ZINC03860603 - Open Babel Depiction</title>
<rect x="0" y="0" width="100" height="100" fill="white"/>
<g transform="translate(0,0)">
<svg width="100" height="100" x="0" y="0" viewBox="0 0 257.228 226.909"
font-family="sans-serif" stroke="rgb(0,0,0)" stroke-width="2"  stroke-linecap="round">
<line x1="180.5" y1="106.8" x2="204.7" y2="100.4" stroke="rgb(0,0,0)"  stroke-width="2.0"/>
<line x1="180.5" y1="106.8" x2="187.0" y2="82.7" stroke="rgb(0,0,0)"  stroke-width="2.0"/>
<line x1="180.5" y1="106.8" x2="196.8" y2="167.7" stroke="rgb(0,0,0)"  stroke-width="2.0"/>
<line x1="180.5" y1="106.8" x2="143.8" y2="97.0" stroke="rgb(0,0,0)"  stroke-width="2.0"/>
<line x1="143.8" y1="97.0" x2="140.6" y2="72.2" stroke="rgb(0,0,0)"  stroke-width="2.0"/>
<line x1="107.9" y1="78.0" x2="107.9" y2="53.0" stroke="rgb(0,0,0)"  stroke-width="2.0"/>
<line x1="113.9" y1="78.0" x2="113.9" y2="53.0" stroke="rgb(0,0,0)"  stroke-width="2.0"/>
<line x1="78.0" y1="97.0" x2="53.0" y2="97.0" stroke="rgb(0,0,0)"  stroke-width="2.0"/>
<line x1="78.0" y1="97.0" x2="65.5" y2="75.3" stroke="rgb(0,0,0)"  stroke-width="2.0"/>
<line x1="78.0" y1="135.0" x2="65.5" y2="156.7" stroke="rgb(0,0,0)"  stroke-width="2.0"/>
<line x1="78.0" y1="135.0" x2="53.0" y2="135.0" stroke="rgb(0,0,0)"  stroke-width="2.0"/>
<line x1="110.9" y1="154.0" x2="123.4" y2="175.7" stroke="rgb(0,0,0)"  stroke-width="2.0"/>
<line x1="110.9" y1="154.0" x2="98.4" y2="175.7" stroke="rgb(0,0,0)"  stroke-width="2.0"/>
<line x1="145.3" y1="132.4" x2="167.0" y2="144.9" stroke="rgb(0,0,0)"  stroke-width="2.0"/>
<line x1="142.3" y1="137.6" x2="164.0" y2="150.1" stroke="rgb(0,0,0)"  stroke-width="2.0"/>
<line x1="110.9" y1="78.0" x2="143.8" y2="97.0" stroke="rgb(0,0,0)"  stroke-width="2.0"/>
<line x1="143.8" y1="97.0" x2="143.8" y2="135.0" stroke="rgb(0,0,0)"  stroke-width="2.0"/>
<line x1="143.8" y1="135.0" x2="110.9" y2="154.0" stroke="rgb(0,0,0)"  stroke-width="2.0"/>
<line x1="110.9" y1="154.0" x2="78.0" y2="135.0" stroke="rgb(0,0,0)"  stroke-width="2.0"/>
<line x1="78.0" y1="135.0" x2="78.0" y2="97.0" stroke="rgb(0,0,0)"  stroke-width="2.0"/>
<line x1="78.0" y1="97.0" x2="110.9" y2="78.0" stroke="rgb(0,0,0)"  stroke-width="2.0"/>
<text x="211.228293" y="105.000000" fill="rgb(191,191,191)"  stroke="rgb(191,191,191)" stroke-width="1" font-size="16" >H</text>
<text x="132.857935" y="67.325095" fill="rgb(191,191,191)"  stroke="rgb(191,191,191)" stroke-width="1" font-size="16" >H</text>
<text x="85.908965" y="194.908965" fill="rgb(191,191,191)"  stroke="rgb(191,191,191)" stroke-width="1" font-size="16" >H</text>
<text x="123.908965" y="194.908965" fill="rgb(191,191,191)"  stroke="rgb(191,191,191)" stroke-width="1" font-size="16" >H</text>
<text x="34.000000" y="143.000000" fill="rgb(191,191,191)"  stroke="rgb(191,191,191)" stroke-width="1" font-size="16" >H</text>
<text x="53.000000" y="175.908965" fill="rgb(191,191,191)"  stroke="rgb(191,191,191)" stroke-width="1" font-size="16" >H</text>
<text x="53.000000" y="72.091035" fill="rgb(191,191,191)"  stroke="rgb(191,191,191)" stroke-width="1" font-size="16" >H</text>
<text x="34.000000" y="105.000000" fill="rgb(191,191,191)"  stroke="rgb(191,191,191)" stroke-width="1" font-size="16" >H</text>
<text x="194.193360" y="188.245487" fill="rgb(191,191,191)"  stroke="rgb(191,191,191)" stroke-width="1" font-size="16" >H</text>
<text x="184.358236" y="78.129942" fill="rgb(191,191,191)"  stroke="rgb(191,191,191)" stroke-width="1" font-size="16" >H</text>
<text x="104.908965" y="48.000000" fill="rgb(255,12,12)"  stroke="rgb(255,12,12)" stroke-width="1" font-size="16" >O</text>
<text x="170.726896" y="162.000000" fill="rgb(255,12,12)"  stroke="rgb(255,12,12)" stroke-width="1" font-size="16" >O</text>
</svg>
</g>
<text font-size="18.000000" fill ="black" font-family="sans-serif"
x="10.000000" y="20.000000" >ZINC03860603</text>
</svg>
