<?xml version="1.0"?>
<svg version="1.1" id="topsvg"
xmlns="http://www.w3.org/2000/svg" xmlns:xlink="http://www.w3.org/1999/xlink"
xmlns:cml="http://www.xml-cml.org/schema" x="0" y="0" width="200px" height="200px" viewBox="0 0 100 100">
<title>ZINC19171887 - Open Babel Depiction</title>
<rect x="0" y="0" width="100" height="100" fill="white"/>
<g transform="translate(0,0)">
<svg width="100" height="100" x="0" y="0" viewBox="0 0 327.846 234.641"
font-family="sans-serif" stroke="rgb(0,0,0)" stroke-width="2"  stroke-linecap="round">
<line x1="149.3" y1="100.0" x2="176.3" y2="100.0" stroke="rgb(0,0,0)"  stroke-width="2.0"/>
<line x1="149.3" y1="100.0" x2="162.8" y2="76.6" stroke="rgb(0,0,0)"  stroke-width="2.0"/>
<line x1="114.6" y1="80.0" x2="128.1" y2="56.6" stroke="rgb(0,0,0)"  stroke-width="2.0"/>
<line x1="114.6" y1="80.0" x2="101.1" y2="56.6" stroke="rgb(0,0,0)"  stroke-width="2.0"/>
<line x1="80.0" y1="140.0" x2="53.0" y2="140.0" stroke="rgb(0,0,0)"  stroke-width="2.0"/>
<line x1="80.0" y1="140.0" x2="66.5" y2="163.4" stroke="rgb(0,0,0)"  stroke-width="2.0"/>
<line x1="114.6" y1="160.0" x2="101.1" y2="183.4" stroke="rgb(0,0,0)"  stroke-width="2.0"/>
<line x1="114.6" y1="160.0" x2="128.1" y2="183.4" stroke="rgb(0,0,0)"  stroke-width="2.0"/>
<line x1="160.5" y1="146.5" x2="183.9" y2="160.0" stroke="rgb(0,0,0)"  stroke-width="2.0"/>
<line x1="183.9" y1="160.0" x2="218.6" y2="140.0" stroke="rgb(0,0,0)"  stroke-width="2.0"/>
<line x1="183.9" y1="160.0" x2="197.4" y2="183.4" stroke="rgb(0,0,0)"  stroke-width="2.0"/>
<line x1="183.9" y1="160.0" x2="170.4" y2="183.4" stroke="rgb(0,0,0)"  stroke-width="2.0"/>
<line x1="218.6" y1="140.0" x2="218.6" y2="113.0" stroke="rgb(0,0,0)"  stroke-width="2.0"/>
<line x1="218.6" y1="140.0" x2="245.6" y2="140.0" stroke="rgb(0,0,0)"  stroke-width="2.0"/>
<line x1="218.6" y1="140.0" x2="232.1" y2="163.4" stroke="rgb(0,0,0)"  stroke-width="2.0"/>
<line x1="229.8" y1="93.5" x2="241.9" y2="86.5" stroke="rgb(0,0,0)"  stroke-width="2.0"/>
<line x1="207.3" y1="93.5" x2="195.2" y2="86.5" stroke="rgb(0,0,0)"  stroke-width="2.0"/>
<line x1="264.5" y1="86.5" x2="276.6" y2="93.5" stroke="rgb(0,0,0)"  stroke-width="2.0"/>
<line x1="253.2" y1="67.0" x2="253.2" y2="53.0" stroke="rgb(0,0,0)"  stroke-width="2.0"/>
<line x1="80.0" y1="113.0" x2="80.0" y2="140.0" stroke="rgb(0,0,0)"  stroke-width="2.0"/>
<line x1="80.0" y1="140.0" x2="114.6" y2="160.0" stroke="rgb(0,0,0)"  stroke-width="2.0"/>
<line x1="114.6" y1="160.0" x2="138.0" y2="146.5" stroke="rgb(0,0,0)"  stroke-width="2.0"/>
<line x1="149.3" y1="127.0" x2="149.3" y2="100.0" stroke="rgb(0,0,0)"  stroke-width="2.0"/>
<line x1="149.3" y1="100.0" x2="114.6" y2="80.0" stroke="rgb(0,0,0)"  stroke-width="2.0"/>
<line x1="114.6" y1="80.0" x2="91.3" y2="93.5" stroke="rgb(0,0,0)"  stroke-width="2.0"/>
<text x="128.641016" y="53.358984" fill="rgb(191,191,191)"  stroke="rgb(191,191,191)" stroke-width="1" font-size="16" >H</text>
<text x="177.923048" y="88.000000" fill="rgb(191,191,191)"  stroke="rgb(191,191,191)" stroke-width="1" font-size="16" >H</text>
<text x="247.205081" y="48.000000" fill="rgb(191,191,191)"  stroke="rgb(191,191,191)" stroke-width="1" font-size="16" >H</text>
<text x="281.846097" y="108.000000" fill="rgb(191,191,191)"  stroke="rgb(191,191,191)" stroke-width="1" font-size="16" >H</text>
<text x="232.564065" y="182.641016" fill="rgb(191,191,191)"  stroke="rgb(191,191,191)" stroke-width="1" font-size="16" >H</text>
<text x="252.564065" y="148.000000" fill="rgb(191,191,191)"  stroke="rgb(191,191,191)" stroke-width="1" font-size="16" >H</text>
<text x="157.923048" y="202.641016" fill="rgb(191,191,191)"  stroke="rgb(191,191,191)" stroke-width="1" font-size="16" >H</text>
<text x="197.923048" y="202.641016" fill="rgb(191,191,191)"  stroke="rgb(191,191,191)" stroke-width="1" font-size="16" >H</text>
<text x="128.641016" y="202.641016" fill="rgb(191,191,191)"  stroke="rgb(191,191,191)" stroke-width="1" font-size="16" >H</text>
<text x="88.641016" y="202.641016" fill="rgb(191,191,191)"  stroke="rgb(191,191,191)" stroke-width="1" font-size="16" >H</text>
<text x="54.000000" y="182.641016" fill="rgb(191,191,191)"  stroke="rgb(191,191,191)" stroke-width="1" font-size="16" >H</text>
<text x="34.000000" y="148.000000" fill="rgb(191,191,191)"  stroke="rgb(191,191,191)" stroke-width="1" font-size="16" >H</text>
<text x="88.641016" y="53.358984" fill="rgb(191,191,191)"  stroke="rgb(191,191,191)" stroke-width="1" font-size="16" >H</text>
<text x="163.282032" y="73.358984" fill="rgb(191,191,191)"  stroke="rgb(191,191,191)" stroke-width="1" font-size="16" >H</text>
<text x="183.282032" y="108.000000" fill="rgb(191,191,191)"  stroke="rgb(191,191,191)" stroke-width="1" font-size="16" >H</text>
<text x="247.205081" y="88.000000" fill="rgb(12,12,255)"  stroke="rgb(12,12,255)" stroke-width="1" font-size="16" >N</text>
<text x="212.564065" y="108.000000" fill="rgb(12,12,255)"  stroke="rgb(12,12,255)" stroke-width="1" font-size="16" >N</text>
<text x="143.282032" y="148.000000" fill="rgb(12,12,255)"  stroke="rgb(12,12,255)" stroke-width="1" font-size="16" >N</text>
<text x="74.000000" y="108.000000" fill="rgb(255,12,12)"  stroke="rgb(255,12,12)" stroke-width="1" font-size="16" >O</text>
</svg>
</g>
<text font-size="18.000000" fill ="black" font-family="sans-serif"
x="10.000000" y="20.000000" >ZINC19171887</text>
</svg>
