<?xml version="1.0"?>
<svg version="1.1" id="topsvg"
xmlns="http://www.w3.org/2000/svg" xmlns:xlink="http://www.w3.org/1999/xlink"
xmlns:cml="http://www.xml-cml.org/schema" x="0" y="0" width="200px" height="200px" viewBox="0 0 100 100">
<title>ZINC86032737 - Open Babel Depiction</title>
<rect x="0" y="0" width="100" height="100" fill="white"/>
<g transform="translate(0,0)">
<svg width="100" height="100" x="0" y="0" viewBox="0 0 381.044 319.651"
font-family="sans-serif" stroke="rgb(0,0,0)" stroke-width="2"  stroke-linecap="round">
<line x1="141.2" y1="245.9" x2="141.2" y2="207.0" stroke="rgb(0,0,0)"  stroke-width="2.0"/>
<line x1="141.2" y1="245.9" x2="154.2" y2="268.4" stroke="rgb(0,0,0)"  stroke-width="2.0"/>
<line x1="141.2" y1="245.9" x2="167.1" y2="245.9" stroke="rgb(0,0,0)"  stroke-width="2.0"/>
<line x1="141.2" y1="245.9" x2="118.7" y2="258.9" stroke="rgb(0,0,0)"  stroke-width="2.0"/>
<line x1="174.9" y1="187.5" x2="208.6" y2="207.0" stroke="rgb(0,0,0)"  stroke-width="2.0"/>
<line x1="174.9" y1="148.6" x2="242.4" y2="109.6" stroke="rgb(0,0,0)"  stroke-width="2.0"/>
<line x1="141.2" y1="129.1" x2="141.2" y2="90.1" stroke="rgb(0,0,0)"  stroke-width="2.0"/>
<line x1="96.2" y1="142.1" x2="85.0" y2="135.6" stroke="rgb(0,0,0)"  stroke-width="2.0"/>
<line x1="107.5" y1="187.5" x2="73.7" y2="207.0" stroke="rgb(0,0,0)"  stroke-width="2.0"/>
<line x1="73.7" y1="207.0" x2="60.8" y2="229.4" stroke="rgb(0,0,0)"  stroke-width="2.0"/>
<line x1="73.7" y1="207.0" x2="86.7" y2="229.4" stroke="rgb(0,0,0)"  stroke-width="2.0"/>
<line x1="73.7" y1="207.0" x2="51.3" y2="194.0" stroke="rgb(0,0,0)"  stroke-width="2.0"/>
<line x1="141.2" y1="90.1" x2="128.2" y2="67.7" stroke="rgb(0,0,0)"  stroke-width="2.0"/>
<line x1="141.2" y1="90.1" x2="115.2" y2="90.1" stroke="rgb(0,0,0)"  stroke-width="2.0"/>
<line x1="141.2" y1="90.1" x2="163.7" y2="77.2" stroke="rgb(0,0,0)"  stroke-width="2.0"/>
<polygon points="242.376463 109.605358 217.777758 100.022091 221.777758 93.093888 " stroke-width="2.000000" fill="rgb(0,0,0)"  stroke="rgb(0,0,0)" />
<line x1="265.3" y1="78.1" x2="246.0" y2="60.7" stroke="rgb(0,0,0)"  stroke-width="2.0"/>
<line x1="265.3" y1="78.1" x2="270.7" y2="52.7" stroke="rgb(0,0,0)"  stroke-width="2.0"/>
<line x1="302.3" y1="90.1" x2="312.9" y2="66.4" stroke="rgb(0,0,0)"  stroke-width="2.0"/>
<line x1="302.3" y1="90.1" x2="328.1" y2="87.4" stroke="rgb(0,0,0)"  stroke-width="2.0"/>
<line x1="302.3" y1="129.1" x2="328.1" y2="131.8" stroke="rgb(0,0,0)"  stroke-width="2.0"/>
<line x1="302.3" y1="129.1" x2="312.9" y2="152.8" stroke="rgb(0,0,0)"  stroke-width="2.0"/>
<line x1="261.3" y1="153.5" x2="257.3" y2="165.8" stroke="rgb(0,0,0)"  stroke-width="2.0"/>
<line x1="208.6" y1="207.0" x2="234.6" y2="207.0" stroke="rgb(0,0,0)"  stroke-width="2.0"/>
<line x1="208.6" y1="207.0" x2="221.6" y2="184.5" stroke="rgb(0,0,0)"  stroke-width="2.0"/>
<line x1="208.6" y1="207.0" x2="208.6" y2="232.9" stroke="rgb(0,0,0)"  stroke-width="2.0"/>
<line x1="174.9" y1="148.6" x2="141.2" y2="129.1" stroke="rgb(0,0,0)"  stroke-width="2.0"/>
<line x1="141.2" y1="129.1" x2="118.6" y2="142.1" stroke="rgb(0,0,0)"  stroke-width="2.0"/>
<line x1="139.6" y1="138.3" x2="124.0" y2="147.3" stroke="rgb(0,0,0)"  stroke-width="2.0"/>
<line x1="107.5" y1="161.6" x2="107.5" y2="187.5" stroke="rgb(0,0,0)"  stroke-width="2.0"/>
<line x1="107.5" y1="187.5" x2="141.2" y2="207.0" stroke="rgb(0,0,0)"  stroke-width="2.0"/>
<line x1="116.3" y1="184.3" x2="139.6" y2="197.7" stroke="rgb(0,0,0)"  stroke-width="2.0"/>
<line x1="141.2" y1="207.0" x2="174.9" y2="187.5" stroke="rgb(0,0,0)"  stroke-width="2.0"/>
<line x1="174.9" y1="187.5" x2="174.9" y2="148.6" stroke="rgb(0,0,0)"  stroke-width="2.0"/>
<line x1="167.7" y1="181.5" x2="167.7" y2="154.6" stroke="rgb(0,0,0)"  stroke-width="2.0"/>
<line x1="302.3" y1="90.1" x2="302.3" y2="129.1" stroke="rgb(0,0,0)"  stroke-width="2.0"/>
<line x1="302.3" y1="129.1" x2="277.6" y2="137.1" stroke="rgb(0,0,0)"  stroke-width="2.0"/>
<line x1="257.6" y1="130.6" x2="242.4" y2="109.6" stroke="rgb(0,0,0)"  stroke-width="2.0"/>
<line x1="242.4" y1="109.6" x2="265.3" y2="78.1" stroke="rgb(0,0,0)"  stroke-width="2.0"/>
<line x1="265.3" y1="78.1" x2="302.3" y2="90.1" stroke="rgb(0,0,0)"  stroke-width="2.0"/>
<text x="312.151622" y="62.551482" fill="rgb(191,191,191)"  stroke="rgb(191,191,191)" stroke-width="1" font-size="16" >H</text>
<text x="48.255726" y="248.703189" fill="rgb(191,191,191)"  stroke="rgb(191,191,191)" stroke-width="1" font-size="16" >H</text>
<text x="87.203095" y="248.703189" fill="rgb(191,191,191)"  stroke="rgb(191,191,191)" stroke-width="1" font-size="16" >H</text>
<text x="34.000000" y="195.500095" fill="rgb(191,191,191)"  stroke="rgb(191,191,191)" stroke-width="1" font-size="16" >H</text>
<text x="115.714547" y="64.402263" fill="rgb(191,191,191)"  stroke="rgb(191,191,191)" stroke-width="1" font-size="16" >H</text>
<text x="96.240863" y="98.131674" fill="rgb(191,191,191)"  stroke="rgb(191,191,191)" stroke-width="1" font-size="16" >H</text>
<text x="168.917642" y="78.657989" fill="rgb(191,191,191)"  stroke="rgb(191,191,191)" stroke-width="1" font-size="16" >H</text>
<text x="230.325616" y="60.035399" fill="rgb(191,191,191)"  stroke="rgb(191,191,191)" stroke-width="1" font-size="16" >H</text>
<text x="267.366765" y="48.000000" fill="rgb(191,191,191)"  stroke="rgb(191,191,191)" stroke-width="1" font-size="16" >H</text>
<text x="101.458821" y="273.394832" fill="rgb(191,191,191)"  stroke="rgb(191,191,191)" stroke-width="1" font-size="16" >H</text>
<text x="335.044311" y="94.060565" fill="rgb(191,191,191)"  stroke="rgb(191,191,191)" stroke-width="1" font-size="16" >H</text>
<text x="335.044311" y="141.150151" fill="rgb(191,191,191)"  stroke="rgb(191,191,191)" stroke-width="1" font-size="16" >H</text>
<text x="312.151622" y="172.659234" fill="rgb(191,191,191)"  stroke="rgb(191,191,191)" stroke-width="1" font-size="16" >H</text>
<text x="241.594421" y="214.973779" fill="rgb(191,191,191)"  stroke="rgb(191,191,191)" stroke-width="1" font-size="16" >H</text>
<text x="222.120737" y="181.244369" fill="rgb(191,191,191)"  stroke="rgb(191,191,191)" stroke-width="1" font-size="16" >H</text>
<text x="202.647052" y="253.921147" fill="rgb(191,191,191)"  stroke="rgb(191,191,191)" stroke-width="1" font-size="16" >H</text>
<text x="247.233753" y="186.155589" fill="rgb(191,191,191)"  stroke="rgb(191,191,191)" stroke-width="1" font-size="16" >H</text>
<text x="67.729410" y="137.079042" fill="rgb(191,191,191)"  stroke="rgb(191,191,191)" stroke-width="1" font-size="16" >H</text>
<text x="112.258821" y="144.520726" fill="rgb(12,12,255)"  stroke="rgb(12,12,255)" stroke-width="1" font-size="16" >+</text>
<text x="101.458821" y="156.552726" fill="rgb(12,12,255)"  stroke="rgb(12,12,255)" stroke-width="1" font-size="16" >N</text>
<text x="202.647052" y="98.131674" fill="rgb(191,191,191)"  stroke="rgb(191,191,191)" stroke-width="1" font-size="16" >H</text>
<text x="259.269152" y="149.114441" fill="rgb(12,12,255)"  stroke="rgb(12,12,255)" stroke-width="1" font-size="16" >N</text>
<text x="154.661916" y="287.650558" fill="rgb(191,191,191)"  stroke="rgb(191,191,191)" stroke-width="1" font-size="16" >H</text>
<text x="174.135600" y="253.921147" fill="rgb(191,191,191)"  stroke="rgb(191,191,191)" stroke-width="1" font-size="16" >H</text>
</svg>
</g>
<text font-size="18.000000" fill ="black" font-family="sans-serif"
x="10.000000" y="20.000000" >ZINC86032737</text>
</svg>
