<?xml version="1.0"?>
<svg version="1.1" id="topsvg"
xmlns="http://www.w3.org/2000/svg" xmlns:xlink="http://www.w3.org/1999/xlink"
xmlns:cml="http://www.xml-cml.org/schema" x="0" y="0" width="200px" height="200px" viewBox="0 0 100 100">
<title>ZINC98222223 - Open Babel Depiction</title>
<rect x="0" y="0" width="100" height="100" fill="white"/>
<g transform="translate(0,0)">
<svg width="100" height="100" x="0" y="0" viewBox="0 0 229.282 314.641"
font-family="sans-serif" stroke="rgb(0,0,0)" stroke-width="2"  stroke-linecap="round">
<line x1="109.3" y1="234.6" x2="109.3" y2="261.6" stroke="rgb(0,0,0)"  stroke-width="2.0"/>
<line x1="143.9" y1="214.6" x2="167.3" y2="228.1" stroke="rgb(0,0,0)"  stroke-width="2.0"/>
<line x1="143.9" y1="174.6" x2="167.3" y2="161.1" stroke="rgb(0,0,0)"  stroke-width="2.0"/>
<line x1="109.3" y1="154.6" x2="109.3" y2="114.6" stroke="rgb(0,0,0)"  stroke-width="2.0"/>
<line x1="74.6" y1="174.6" x2="51.3" y2="161.1" stroke="rgb(0,0,0)"  stroke-width="2.0"/>
<line x1="74.6" y1="214.6" x2="51.3" y2="228.1" stroke="rgb(0,0,0)"  stroke-width="2.0"/>
<line x1="109.3" y1="114.6" x2="149.3" y2="114.6" stroke="rgb(0,0,0)"  stroke-width="2.0"/>
<line x1="109.3" y1="114.6" x2="109.3" y2="74.6" stroke="rgb(0,0,0)"  stroke-width="2.0"/>
<polygon points="109.282032 114.641016 82.482032 118.641016 82.482032 110.641016 " stroke-width="2.000000" fill="rgb(0,0,0)"  stroke="rgb(0,0,0)" />
<line x1="149.3" y1="114.6" x2="176.3" y2="114.6" stroke="rgb(0,0,0)"  stroke-width="2.0"/>
<line x1="149.3" y1="110.4" x2="176.3" y2="110.4" stroke="rgb(0,0,0)"  stroke-width="2.0"/>
<line x1="149.3" y1="118.8" x2="176.3" y2="118.8" stroke="rgb(0,0,0)"  stroke-width="2.0"/>
<line x1="109.3" y1="74.6" x2="95.8" y2="51.3" stroke="rgb(0,0,0)"  stroke-width="2.0"/>
<line x1="109.3" y1="74.6" x2="82.3" y2="74.6" stroke="rgb(0,0,0)"  stroke-width="2.0"/>
<line x1="109.3" y1="74.6" x2="132.7" y2="61.1" stroke="rgb(0,0,0)"  stroke-width="2.0"/>
<line x1="143.9" y1="174.6" x2="109.3" y2="154.6" stroke="rgb(0,0,0)"  stroke-width="2.0"/>
<line x1="109.3" y1="154.6" x2="74.6" y2="174.6" stroke="rgb(0,0,0)"  stroke-width="2.0"/>
<line x1="107.7" y1="163.9" x2="83.4" y2="177.9" stroke="rgb(0,0,0)"  stroke-width="2.0"/>
<line x1="74.6" y1="174.6" x2="74.6" y2="214.6" stroke="rgb(0,0,0)"  stroke-width="2.0"/>
<line x1="74.6" y1="214.6" x2="109.3" y2="234.6" stroke="rgb(0,0,0)"  stroke-width="2.0"/>
<line x1="83.4" y1="211.4" x2="107.7" y2="225.4" stroke="rgb(0,0,0)"  stroke-width="2.0"/>
<line x1="109.3" y1="234.6" x2="143.9" y2="214.6" stroke="rgb(0,0,0)"  stroke-width="2.0"/>
<line x1="143.9" y1="214.6" x2="143.9" y2="174.6" stroke="rgb(0,0,0)"  stroke-width="2.0"/>
<line x1="136.7" y1="208.6" x2="136.7" y2="180.6" stroke="rgb(0,0,0)"  stroke-width="2.0"/>
<text x="34.000000" y="242.641016" fill="rgb(191,191,191)"  stroke="rgb(191,191,191)" stroke-width="1" font-size="16" >H</text>
<text x="34.000000" y="162.641016" fill="rgb(191,191,191)"  stroke="rgb(191,191,191)" stroke-width="1" font-size="16" >H</text>
<text x="172.564065" y="162.641016" fill="rgb(191,191,191)"  stroke="rgb(191,191,191)" stroke-width="1" font-size="16" >H</text>
<text x="172.564065" y="242.641016" fill="rgb(191,191,191)"  stroke="rgb(191,191,191)" stroke-width="1" font-size="16" >H</text>
<text x="103.282032" y="282.641016" fill="rgb(191,191,191)"  stroke="rgb(191,191,191)" stroke-width="1" font-size="16" >H</text>
<text x="51.282032" y="122.641016" fill="rgb(255,12,12)"  stroke="rgb(255,12,12)" stroke-width="1" font-size="16" >HO</text>
<text x="137.923048" y="62.641016" fill="rgb(127,178,255)"  stroke="rgb(127,178,255)" stroke-width="1" font-size="16" >F</text>
<text x="63.282032" y="82.641016" fill="rgb(127,178,255)"  stroke="rgb(127,178,255)" stroke-width="1" font-size="16" >F</text>
<text x="83.282032" y="48.000000" fill="rgb(127,178,255)"  stroke="rgb(127,178,255)" stroke-width="1" font-size="16" >F</text>
<text x="183.282032" y="122.641016" fill="rgb(12,12,255)"  stroke="rgb(12,12,255)" stroke-width="1" font-size="16" >N</text>
</svg>
</g>
<text font-size="18.000000" fill ="black" font-family="sans-serif"
x="10.000000" y="20.000000" >ZINC98222223</text>
</svg>
