<?xml version="1.0"?>
<svg version="1.1" id="topsvg"
xmlns="http://www.w3.org/2000/svg" xmlns:xlink="http://www.w3.org/1999/xlink"
xmlns:cml="http://www.xml-cml.org/schema" x="0" y="0" width="200px" height="200px" viewBox="0 0 100 100">
<title>ZINC71773558 - Open Babel Depiction</title>
<rect x="0" y="0" width="100" height="100" fill="white"/>
<g transform="translate(0,0)">
<svg width="100" height="100" x="0" y="0" viewBox="0 0 529.44 495.834"
font-family="sans-serif" stroke="rgb(0,0,0)" stroke-width="2"  stroke-linecap="round">
<line x1="72.3" y1="391.3" x2="109.5" y2="391.3" stroke="rgb(0,0,0)"  stroke-width="2.0"/>
<line x1="72.3" y1="391.3" x2="51.3" y2="403.4" stroke="rgb(0,0,0)"  stroke-width="2.0"/>
<line x1="72.3" y1="391.3" x2="72.3" y2="415.6" stroke="rgb(0,0,0)"  stroke-width="2.0"/>
<line x1="72.3" y1="391.3" x2="60.1" y2="370.3" stroke="rgb(0,0,0)"  stroke-width="2.0"/>
<line x1="128.2" y1="423.6" x2="116.0" y2="444.6" stroke="rgb(0,0,0)"  stroke-width="2.0"/>
<line x1="165.4" y1="423.6" x2="177.5" y2="444.6" stroke="rgb(0,0,0)"  stroke-width="2.0"/>
<line x1="184.0" y1="391.3" x2="245.6" y2="391.3" stroke="rgb(0,0,0)"  stroke-width="2.0"/>
<line x1="165.4" y1="359.0" x2="177.5" y2="338.0" stroke="rgb(0,0,0)"  stroke-width="2.0"/>
<line x1="128.2" y1="359.0" x2="116.0" y2="338.0" stroke="rgb(0,0,0)"  stroke-width="2.0"/>
<line x1="261.6" y1="404.3" x2="261.6" y2="415.6" stroke="rgb(0,0,0)"  stroke-width="2.0"/>
<line x1="255.6" y1="404.3" x2="255.6" y2="415.6" stroke="rgb(0,0,0)"  stroke-width="2.0"/>
<line x1="271.6" y1="388.3" x2="282.8" y2="388.3" stroke="rgb(0,0,0)"  stroke-width="2.0"/>
<line x1="271.6" y1="394.3" x2="282.8" y2="394.3" stroke="rgb(0,0,0)"  stroke-width="2.0"/>
<line x1="258.6" y1="378.3" x2="258.6" y2="367.0" stroke="rgb(0,0,0)"  stroke-width="2.0"/>
<line x1="269.8" y1="347.5" x2="290.8" y2="335.4" stroke="rgb(0,0,0)"  stroke-width="2.0"/>
<line x1="247.3" y1="347.5" x2="237.6" y2="341.9" stroke="rgb(0,0,0)"  stroke-width="2.0"/>
<polygon points="290.838057 335.407024 306.784351 355.026815 299.856148 359.026815 " stroke-width="2.000000" fill="rgb(0,0,0)"  stroke="rgb(0,0,0)" />
<line x1="290.8" y1="335.4" x2="355.4" y2="298.1" stroke="rgb(0,0,0)"  stroke-width="2.0"/>
<line x1="290.8" y1="335.4" x2="272.2" y2="303.1" stroke="rgb(0,0,0)"  stroke-width="2.0"/>
<line x1="355.4" y1="260.9" x2="323.1" y2="242.3" stroke="rgb(0,0,0)"  stroke-width="2.0"/>
<line x1="387.6" y1="242.3" x2="387.6" y2="218.0" stroke="rgb(0,0,0)"  stroke-width="2.0"/>
<line x1="419.9" y1="260.9" x2="452.2" y2="242.3" stroke="rgb(0,0,0)"  stroke-width="2.0"/>
<line x1="419.9" y1="298.1" x2="440.9" y2="310.3" stroke="rgb(0,0,0)"  stroke-width="2.0"/>
<line x1="387.6" y1="316.8" x2="387.6" y2="354.0" stroke="rgb(0,0,0)"  stroke-width="2.0"/>
<line x1="387.6" y1="354.0" x2="375.5" y2="375.0" stroke="rgb(0,0,0)"  stroke-width="2.0"/>
<line x1="387.6" y1="354.0" x2="363.4" y2="354.0" stroke="rgb(0,0,0)"  stroke-width="2.0"/>
<line x1="387.6" y1="354.0" x2="408.7" y2="366.2" stroke="rgb(0,0,0)"  stroke-width="2.0"/>
<line x1="452.2" y1="242.3" x2="476.4" y2="242.3" stroke="rgb(0,0,0)"  stroke-width="2.0"/>
<line x1="452.2" y1="242.3" x2="464.3" y2="263.3" stroke="rgb(0,0,0)"  stroke-width="2.0"/>
<line x1="452.2" y1="242.3" x2="452.2" y2="218.0" stroke="rgb(0,0,0)"  stroke-width="2.0"/>
<line x1="323.1" y1="242.3" x2="311.0" y2="221.2" stroke="rgb(0,0,0)"  stroke-width="2.0"/>
<line x1="323.1" y1="242.3" x2="335.2" y2="221.2" stroke="rgb(0,0,0)"  stroke-width="2.0"/>
<line x1="323.1" y1="242.3" x2="302.1" y2="254.4" stroke="rgb(0,0,0)"  stroke-width="2.0"/>
<line x1="276.1" y1="299.9" x2="276.9" y2="301.3" stroke="rgb(0,0,0)"  stroke-width="1.0"/>
<line x1="279.3" y1="297.4" x2="280.7" y2="299.9" stroke="rgb(0,0,0)"  stroke-width="1.0"/>
<line x1="282.4" y1="294.8" x2="284.5" y2="298.4" stroke="rgb(0,0,0)"  stroke-width="1.0"/>
<line x1="285.5" y1="292.3" x2="288.3" y2="297.0" stroke="rgb(0,0,0)"  stroke-width="1.0"/>
<line x1="288.7" y1="289.7" x2="292.0" y2="295.6" stroke="rgb(0,0,0)"  stroke-width="1.0"/>
<line x1="291.8" y1="287.2" x2="295.8" y2="294.1" stroke="rgb(0,0,0)"  stroke-width="1.0"/>
<line x1="272.2" y1="303.1" x2="197.7" y2="174.1" stroke="rgb(0,0,0)"  stroke-width="2.0"/>
<line x1="272.2" y1="303.1" x2="251.2" y2="315.3" stroke="rgb(0,0,0)"  stroke-width="2.0"/>
<line x1="160.4" y1="174.1" x2="141.8" y2="206.3" stroke="rgb(0,0,0)"  stroke-width="2.0"/>
<line x1="141.8" y1="141.8" x2="117.5" y2="141.8" stroke="rgb(0,0,0)"  stroke-width="2.0"/>
<line x1="160.4" y1="109.5" x2="141.8" y2="77.3" stroke="rgb(0,0,0)"  stroke-width="2.0"/>
<line x1="197.7" y1="109.5" x2="209.8" y2="88.5" stroke="rgb(0,0,0)"  stroke-width="2.0"/>
<line x1="216.3" y1="141.8" x2="253.6" y2="141.8" stroke="rgb(0,0,0)"  stroke-width="2.0"/>
<line x1="253.6" y1="141.8" x2="274.6" y2="129.7" stroke="rgb(0,0,0)"  stroke-width="2.0"/>
<line x1="253.6" y1="141.8" x2="253.6" y2="117.5" stroke="rgb(0,0,0)"  stroke-width="2.0"/>
<line x1="253.6" y1="141.8" x2="265.7" y2="162.8" stroke="rgb(0,0,0)"  stroke-width="2.0"/>
<line x1="141.8" y1="77.3" x2="141.8" y2="53.0" stroke="rgb(0,0,0)"  stroke-width="2.0"/>
<line x1="141.8" y1="77.3" x2="162.8" y2="65.1" stroke="rgb(0,0,0)"  stroke-width="2.0"/>
<line x1="141.8" y1="77.3" x2="117.5" y2="77.3" stroke="rgb(0,0,0)"  stroke-width="2.0"/>
<line x1="141.8" y1="206.3" x2="120.8" y2="218.5" stroke="rgb(0,0,0)"  stroke-width="2.0"/>
<line x1="141.8" y1="206.3" x2="120.8" y2="194.2" stroke="rgb(0,0,0)"  stroke-width="2.0"/>
<line x1="141.8" y1="206.3" x2="153.9" y2="227.3" stroke="rgb(0,0,0)"  stroke-width="2.0"/>
<line x1="228.7" y1="315.3" x2="218.9" y2="309.6" stroke="rgb(0,0,0)"  stroke-width="2.0"/>
<line x1="239.9" y1="334.8" x2="239.9" y2="346.0" stroke="rgb(0,0,0)"  stroke-width="2.0"/>
<line x1="165.4" y1="423.6" x2="184.0" y2="391.3" stroke="rgb(0,0,0)"  stroke-width="2.0"/>
<line x1="184.0" y1="391.3" x2="165.4" y2="359.0" stroke="rgb(0,0,0)"  stroke-width="2.0"/>
<line x1="174.8" y1="389.7" x2="162.2" y2="367.8" stroke="rgb(0,0,0)"  stroke-width="2.0"/>
<line x1="165.4" y1="359.0" x2="128.2" y2="359.0" stroke="rgb(0,0,0)"  stroke-width="2.0"/>
<line x1="128.2" y1="359.0" x2="109.5" y2="391.3" stroke="rgb(0,0,0)"  stroke-width="2.0"/>
<line x1="131.4" y1="367.8" x2="118.8" y2="389.7" stroke="rgb(0,0,0)"  stroke-width="2.0"/>
<line x1="109.5" y1="391.3" x2="128.2" y2="423.6" stroke="rgb(0,0,0)"  stroke-width="2.0"/>
<line x1="128.2" y1="423.6" x2="165.4" y2="423.6" stroke="rgb(0,0,0)"  stroke-width="2.0"/>
<line x1="134.2" y1="416.4" x2="159.4" y2="416.4" stroke="rgb(0,0,0)"  stroke-width="2.0"/>
<line x1="387.6" y1="242.3" x2="419.9" y2="260.9" stroke="rgb(0,0,0)"  stroke-width="2.0"/>
<line x1="419.9" y1="260.9" x2="419.9" y2="298.1" stroke="rgb(0,0,0)"  stroke-width="2.0"/>
<line x1="412.7" y1="266.9" x2="412.7" y2="292.1" stroke="rgb(0,0,0)"  stroke-width="2.0"/>
<line x1="419.9" y1="298.1" x2="387.6" y2="316.8" stroke="rgb(0,0,0)"  stroke-width="2.0"/>
<line x1="387.6" y1="316.8" x2="355.4" y2="298.1" stroke="rgb(0,0,0)"  stroke-width="2.0"/>
<line x1="386.0" y1="307.5" x2="364.2" y2="294.9" stroke="rgb(0,0,0)"  stroke-width="2.0"/>
<line x1="355.4" y1="298.1" x2="355.4" y2="260.9" stroke="rgb(0,0,0)"  stroke-width="2.0"/>
<line x1="355.4" y1="260.9" x2="387.6" y2="242.3" stroke="rgb(0,0,0)"  stroke-width="2.0"/>
<line x1="364.2" y1="264.1" x2="386.0" y2="251.5" stroke="rgb(0,0,0)"  stroke-width="2.0"/>
<line x1="141.8" y1="141.8" x2="160.4" y2="109.5" stroke="rgb(0,0,0)"  stroke-width="2.0"/>
<line x1="160.4" y1="109.5" x2="197.7" y2="109.5" stroke="rgb(0,0,0)"  stroke-width="2.0"/>
<line x1="166.4" y1="116.7" x2="191.7" y2="116.7" stroke="rgb(0,0,0)"  stroke-width="2.0"/>
<line x1="197.7" y1="109.5" x2="216.3" y2="141.8" stroke="rgb(0,0,0)"  stroke-width="2.0"/>
<line x1="216.3" y1="141.8" x2="197.7" y2="174.1" stroke="rgb(0,0,0)"  stroke-width="2.0"/>
<line x1="207.1" y1="143.4" x2="194.5" y2="165.3" stroke="rgb(0,0,0)"  stroke-width="2.0"/>
<line x1="197.7" y1="174.1" x2="160.4" y2="174.1" stroke="rgb(0,0,0)"  stroke-width="2.0"/>
<line x1="160.4" y1="174.1" x2="141.8" y2="141.8" stroke="rgb(0,0,0)"  stroke-width="2.0"/>
<line x1="163.7" y1="165.3" x2="151.0" y2="143.4" stroke="rgb(0,0,0)"  stroke-width="2.0"/>
<text x="220.301370" y="343.407024" fill="rgb(191,191,191)"  stroke="rgb(191,191,191)" stroke-width="1" font-size="16" >H</text>
<text x="446.179777" y="212.996066" fill="rgb(191,191,191)"  stroke="rgb(191,191,191)" stroke-width="1" font-size="16" >H</text>
<text x="464.809914" y="282.524683" fill="rgb(191,191,191)"  stroke="rgb(191,191,191)" stroke-width="1" font-size="16" >H</text>
<text x="483.440051" y="250.256340" fill="rgb(191,191,191)"  stroke="rgb(191,191,191)" stroke-width="1" font-size="16" >H</text>
<text x="413.911433" y="380.667298" fill="rgb(191,191,191)"  stroke="rgb(191,191,191)" stroke-width="1" font-size="16" >H</text>
<text x="344.382815" y="362.037161" fill="rgb(191,191,191)"  stroke="rgb(191,191,191)" stroke-width="1" font-size="16" >H</text>
<text x="363.012952" y="394.305505" fill="rgb(191,191,191)"  stroke="rgb(191,191,191)" stroke-width="1" font-size="16" >H</text>
<text x="446.179777" y="324.776887" fill="rgb(191,191,191)"  stroke="rgb(191,191,191)" stroke-width="1" font-size="16" >H</text>
<text x="381.643089" y="212.996066" fill="rgb(191,191,191)"  stroke="rgb(191,191,191)" stroke-width="1" font-size="16" >H</text>
<text x="298.476264" y="217.987996" fill="rgb(191,191,191)"  stroke="rgb(191,191,191)" stroke-width="1" font-size="16" >H</text>
<text x="103.528618" y="334.760748" fill="rgb(191,191,191)"  stroke="rgb(191,191,191)" stroke-width="1" font-size="16" >H</text>
<text x="178.049166" y="334.760748" fill="rgb(191,191,191)"  stroke="rgb(191,191,191)" stroke-width="1" font-size="16" >H</text>
<text x="178.049166" y="463.834123" fill="rgb(191,191,191)"  stroke="rgb(191,191,191)" stroke-width="1" font-size="16" >H</text>
<text x="103.528618" y="463.834123" fill="rgb(191,191,191)"  stroke="rgb(191,191,191)" stroke-width="1" font-size="16" >H</text>
<text x="47.638207" y="367.029092" fill="rgb(191,191,191)"  stroke="rgb(191,191,191)" stroke-width="1" font-size="16" >H</text>
<text x="66.268344" y="436.557709" fill="rgb(191,191,191)"  stroke="rgb(191,191,191)" stroke-width="1" font-size="16" >H</text>
<text x="34.000000" y="417.927572" fill="rgb(191,191,191)"  stroke="rgb(191,191,191)" stroke-width="1" font-size="16" >H</text>
<text x="233.939577" y="329.768818" fill="rgb(12,12,255)"  stroke="rgb(12,12,255)" stroke-width="1" font-size="16" >N</text>
<text x="335.736538" y="217.987996" fill="rgb(191,191,191)"  stroke="rgb(191,191,191)" stroke-width="1" font-size="16" >H</text>
<text x="284.838057" y="268.886477" fill="rgb(191,191,191)"  stroke="rgb(191,191,191)" stroke-width="1" font-size="16" >H</text>
<text x="98.536688" y="149.796962" fill="rgb(191,191,191)"  stroke="rgb(191,191,191)" stroke-width="1" font-size="16" >H</text>
<text x="210.317510" y="85.260274" fill="rgb(191,191,191)"  stroke="rgb(191,191,191)" stroke-width="1" font-size="16" >H</text>
<text x="279.846127" y="131.166825" fill="rgb(191,191,191)"  stroke="rgb(191,191,191)" stroke-width="1" font-size="16" >H</text>
<text x="247.577784" y="112.536688" fill="rgb(191,191,191)"  stroke="rgb(191,191,191)" stroke-width="1" font-size="16" >H</text>
<text x="266.207921" y="182.065305" fill="rgb(191,191,191)"  stroke="rgb(191,191,191)" stroke-width="1" font-size="16" >H</text>
<text x="135.796962" y="48.000000" fill="rgb(191,191,191)"  stroke="rgb(191,191,191)" stroke-width="1" font-size="16" >H</text>
<text x="168.065305" y="66.630137" fill="rgb(191,191,191)"  stroke="rgb(191,191,191)" stroke-width="1" font-size="16" >H</text>
<text x="98.536688" y="85.260274" fill="rgb(191,191,191)"  stroke="rgb(191,191,191)" stroke-width="1" font-size="16" >H</text>
<text x="103.528618" y="232.963786" fill="rgb(191,191,191)"  stroke="rgb(191,191,191)" stroke-width="1" font-size="16" >H</text>
<text x="103.528618" y="195.703512" fill="rgb(191,191,191)"  stroke="rgb(191,191,191)" stroke-width="1" font-size="16" >H</text>
<text x="154.427099" y="246.601993" fill="rgb(191,191,191)"  stroke="rgb(191,191,191)" stroke-width="1" font-size="16" >H</text>
<text x="201.671233" y="311.138681" fill="rgb(191,191,191)"  stroke="rgb(191,191,191)" stroke-width="1" font-size="16" >H</text>
<text x="233.939577" y="367.029092" fill="rgb(191,191,191)"  stroke="rgb(191,191,191)" stroke-width="1" font-size="16" >H</text>
<text x="252.569714" y="436.557709" fill="rgb(255,12,12)"  stroke="rgb(255,12,12)" stroke-width="1" font-size="16" >O</text>
<text x="303.468194" y="375.675368" fill="rgb(191,191,191)"  stroke="rgb(191,191,191)" stroke-width="1" font-size="16" >H</text>
<text x="252.569714" y="362.037161" fill="rgb(12,12,255)"  stroke="rgb(12,12,255)" stroke-width="1" font-size="16" >N</text>
<text x="289.829988" y="399.297435" fill="rgb(255,12,12)"  stroke="rgb(255,12,12)" stroke-width="1" font-size="16" >O</text>
<text x="252.569714" y="399.297435" fill="rgb(178,178,0)"  stroke="rgb(178,178,0)" stroke-width="1" font-size="16" >S</text>
<text x="298.476264" y="292.508544" fill="rgb(191,191,191)"  stroke="rgb(191,191,191)" stroke-width="1" font-size="16" >H</text>
</svg>
</g>
<text font-size="18.000000" fill ="black" font-family="sans-serif"
x="10.000000" y="20.000000" >ZINC71773558</text>
</svg>
