<?xml version="1.0"?>
<svg version="1.1" id="topsvg"
xmlns="http://www.w3.org/2000/svg" xmlns:xlink="http://www.w3.org/1999/xlink"
xmlns:cml="http://www.xml-cml.org/schema" x="0" y="0" width="200px" height="200px" viewBox="0 0 100 100">
<title>ZINC19168174 - Open Babel Depiction</title>
<rect x="0" y="0" width="100" height="100" fill="white"/>
<g transform="translate(0,0)">
<svg width="100" height="100" x="0" y="0" viewBox="0 0 254.641 243.923"
font-family="sans-serif" stroke="rgb(0,0,0)" stroke-width="2"  stroke-linecap="round">
<line x1="180.0" y1="143.9" x2="140.0" y2="143.9" stroke="rgb(0,0,0)"  stroke-width="2.0"/>
<line x1="180.0" y1="143.9" x2="203.4" y2="130.4" stroke="rgb(0,0,0)"  stroke-width="2.0"/>
<line x1="180.0" y1="143.9" x2="180.0" y2="116.9" stroke="rgb(0,0,0)"  stroke-width="2.0"/>
<line x1="180.0" y1="143.9" x2="193.5" y2="167.3" stroke="rgb(0,0,0)"  stroke-width="2.0"/>
<line x1="139.2" y1="138.6" x2="140.8" y2="138.6" stroke="rgb(0,0,0)"  stroke-width="1.0"/>
<line x1="138.6" y1="134.3" x2="141.4" y2="134.3" stroke="rgb(0,0,0)"  stroke-width="1.0"/>
<line x1="137.9" y1="130.0" x2="142.1" y2="130.0" stroke="rgb(0,0,0)"  stroke-width="1.0"/>
<line x1="137.3" y1="125.7" x2="142.7" y2="125.7" stroke="rgb(0,0,0)"  stroke-width="1.0"/>
<line x1="136.6" y1="121.4" x2="143.4" y2="121.4" stroke="rgb(0,0,0)"  stroke-width="1.0"/>
<line x1="136.0" y1="117.1" x2="144.0" y2="117.1" stroke="rgb(0,0,0)"  stroke-width="1.0"/>
<line x1="140.0" y1="143.9" x2="100.0" y2="143.9" stroke="rgb(0,0,0)"  stroke-width="2.0"/>
<line x1="140.0" y1="143.9" x2="140.0" y2="170.9" stroke="rgb(0,0,0)"  stroke-width="2.0"/>
<line x1="100.0" y1="143.9" x2="86.5" y2="120.5" stroke="rgb(0,0,0)"  stroke-width="2.0"/>
<line x1="100.0" y1="143.9" x2="76.6" y2="157.4" stroke="rgb(0,0,0)"  stroke-width="2.0"/>
<line x1="100.0" y1="143.9" x2="100.0" y2="170.9" stroke="rgb(0,0,0)"  stroke-width="2.0"/>
<line x1="86.5" y1="98.0" x2="93.5" y2="85.9" stroke="rgb(0,0,0)"  stroke-width="2.0"/>
<line x1="67.0" y1="109.3" x2="53.0" y2="109.3" stroke="rgb(0,0,0)"  stroke-width="2.0"/>
<line x1="113.0" y1="74.6" x2="127.0" y2="74.6" stroke="rgb(0,0,0)"  stroke-width="2.0"/>
<line x1="93.5" y1="63.4" x2="86.5" y2="51.3" stroke="rgb(0,0,0)"  stroke-width="2.0"/>
<line x1="128.7" y1="190.4" x2="116.6" y2="197.4" stroke="rgb(0,0,0)"  stroke-width="2.0"/>
<text x="134.000000" y="111.923048" fill="rgb(191,191,191)"  stroke="rgb(191,191,191)" stroke-width="1" font-size="16" >H</text>
<text x="74.000000" y="117.282032" fill="rgb(12,12,255)"  stroke="rgb(12,12,255)" stroke-width="1" font-size="16" >N</text>
<text x="94.000000" y="82.641016" fill="rgb(12,12,255)"  stroke="rgb(12,12,255)" stroke-width="1" font-size="16" >N</text>
<text x="134.000000" y="191.923048" fill="rgb(255,12,12)"  stroke="rgb(255,12,12)" stroke-width="1" font-size="16" >O</text>
<text x="208.641016" y="131.923048" fill="rgb(191,191,191)"  stroke="rgb(191,191,191)" stroke-width="1" font-size="16" >H</text>
<text x="174.000000" y="111.923048" fill="rgb(191,191,191)"  stroke="rgb(191,191,191)" stroke-width="1" font-size="16" >H</text>
<text x="194.000000" y="186.564065" fill="rgb(191,191,191)"  stroke="rgb(191,191,191)" stroke-width="1" font-size="16" >H</text>
<text x="59.358984" y="171.923048" fill="rgb(191,191,191)"  stroke="rgb(191,191,191)" stroke-width="1" font-size="16" >H</text>
<text x="94.000000" y="191.923048" fill="rgb(191,191,191)"  stroke="rgb(191,191,191)" stroke-width="1" font-size="16" >H</text>
<text x="134.000000" y="82.641016" fill="rgb(191,191,191)"  stroke="rgb(191,191,191)" stroke-width="1" font-size="16" >H</text>
<text x="74.000000" y="48.000000" fill="rgb(191,191,191)"  stroke="rgb(191,191,191)" stroke-width="1" font-size="16" >H</text>
<text x="99.358984" y="211.923048" fill="rgb(191,191,191)"  stroke="rgb(191,191,191)" stroke-width="1" font-size="16" >H</text>
<text x="34.000000" y="117.282032" fill="rgb(191,191,191)"  stroke="rgb(191,191,191)" stroke-width="1" font-size="16" >H</text>
</svg>
</g>
<text font-size="18.000000" fill ="black" font-family="sans-serif"
x="10.000000" y="20.000000" >ZINC19168174</text>
</svg>
