<?xml version="1.0"?>
<svg version="1.1" id="topsvg"
xmlns="http://www.w3.org/2000/svg" xmlns:xlink="http://www.w3.org/1999/xlink"
xmlns:cml="http://www.xml-cml.org/schema" x="0" y="0" width="200px" height="200px" viewBox="0 0 100 100">
<title>ZINC32445534 - Open Babel Depiction</title>
<rect x="0" y="0" width="100" height="100" fill="white"/>
<g transform="translate(0,0)">
<svg width="100" height="100" x="0" y="0" viewBox="0 0 362.689 269.445"
font-family="sans-serif" stroke="rgb(0,0,0)" stroke-width="2"  stroke-linecap="round">
<line x1="286.2" y1="179.6" x2="298.0" y2="200.0" stroke="rgb(0,0,0)"  stroke-width="2.0"/>
<line x1="286.2" y1="179.6" x2="309.7" y2="179.6" stroke="rgb(0,0,0)"  stroke-width="2.0"/>
<line x1="286.2" y1="143.2" x2="309.7" y2="143.2" stroke="rgb(0,0,0)"  stroke-width="2.0"/>
<line x1="286.2" y1="143.2" x2="298.0" y2="122.8" stroke="rgb(0,0,0)"  stroke-width="2.0"/>
<line x1="254.6" y1="124.9" x2="266.4" y2="104.6" stroke="rgb(0,0,0)"  stroke-width="2.0"/>
<line x1="254.6" y1="124.9" x2="224.7" y2="73.0" stroke="rgb(0,0,0)"  stroke-width="2.0"/>
<line x1="210.5" y1="146.5" x2="152.6" y2="162.0" stroke="rgb(0,0,0)"  stroke-width="2.0"/>
<line x1="224.7" y1="130.3" x2="226.1" y2="119.9" stroke="rgb(0,0,0)"  stroke-width="2.0"/>
<line x1="223.0" y1="179.6" x2="199.6" y2="179.6" stroke="rgb(0,0,0)"  stroke-width="2.0"/>
<line x1="223.0" y1="179.6" x2="211.3" y2="200.0" stroke="rgb(0,0,0)"  stroke-width="2.0"/>
<line x1="254.6" y1="197.9" x2="242.9" y2="218.2" stroke="rgb(0,0,0)"  stroke-width="2.0"/>
<line x1="254.6" y1="197.9" x2="266.4" y2="218.2" stroke="rgb(0,0,0)"  stroke-width="2.0"/>
<line x1="152.6" y1="162.0" x2="101.0" y2="110.5" stroke="rgb(0,0,0)"  stroke-width="2.0"/>
<line x1="152.6" y1="162.0" x2="158.7" y2="184.7" stroke="rgb(0,0,0)"  stroke-width="2.0"/>
<line x1="152.6" y1="162.0" x2="136.0" y2="178.6" stroke="rgb(0,0,0)"  stroke-width="2.0"/>
<line x1="101.0" y1="110.5" x2="94.9" y2="133.1" stroke="rgb(0,0,0)"  stroke-width="2.0"/>
<line x1="75.2" y1="84.7" x2="52.6" y2="90.7" stroke="rgb(0,0,0)"  stroke-width="2.0"/>
<line x1="75.2" y1="84.7" x2="58.6" y2="68.1" stroke="rgb(0,0,0)"  stroke-width="2.0"/>
<line x1="110.5" y1="75.2" x2="116.5" y2="52.6" stroke="rgb(0,0,0)"  stroke-width="2.0"/>
<line x1="110.5" y1="75.2" x2="133.1" y2="69.2" stroke="rgb(0,0,0)"  stroke-width="2.0"/>
<line x1="100.8" y1="154.9" x2="108.2" y2="162.3" stroke="rgb(0,0,0)"  stroke-width="2.0"/>
<line x1="79.0" y1="149.0" x2="68.9" y2="151.8" stroke="rgb(0,0,0)"  stroke-width="2.0"/>
<line x1="110.5" y1="75.2" x2="101.0" y2="110.5" stroke="rgb(0,0,0)"  stroke-width="2.0"/>
<line x1="101.0" y1="110.5" x2="75.2" y2="84.7" stroke="rgb(0,0,0)"  stroke-width="2.0"/>
<line x1="75.2" y1="84.7" x2="110.5" y2="75.2" stroke="rgb(0,0,0)"  stroke-width="2.0"/>
<line x1="254.6" y1="124.9" x2="234.3" y2="136.7" stroke="rgb(0,0,0)"  stroke-width="2.0"/>
<line x1="223.0" y1="156.2" x2="223.0" y2="179.6" stroke="rgb(0,0,0)"  stroke-width="2.0"/>
<line x1="223.0" y1="179.6" x2="254.6" y2="197.9" stroke="rgb(0,0,0)"  stroke-width="2.0"/>
<line x1="254.6" y1="197.9" x2="286.2" y2="179.6" stroke="rgb(0,0,0)"  stroke-width="2.0"/>
<line x1="286.2" y1="179.6" x2="286.2" y2="143.2" stroke="rgb(0,0,0)"  stroke-width="2.0"/>
<line x1="286.2" y1="143.2" x2="254.6" y2="124.9" stroke="rgb(0,0,0)"  stroke-width="2.0"/>
<text x="266.869200" y="101.334651" fill="rgb(191,191,191)"  stroke="rgb(191,191,191)" stroke-width="1" font-size="16" >H</text>
<text x="50.349317" y="163.122932" fill="rgb(191,191,191)"  stroke="rgb(191,191,191)" stroke-width="1" font-size="16" >H</text>
<text x="221.809817" y="114.995824" fill="rgb(191,191,191)"  stroke="rgb(191,191,191)" stroke-width="1" font-size="16" >H</text>
<text x="111.365801" y="179.472249" fill="rgb(191,191,191)"  stroke="rgb(191,191,191)" stroke-width="1" font-size="16" >H</text>
<text x="139.683649" y="73.788600" fill="rgb(191,191,191)"  stroke="rgb(191,191,191)" stroke-width="1" font-size="16" >H</text>
<text x="113.895049" y="48.000000" fill="rgb(191,191,191)"  stroke="rgb(191,191,191)" stroke-width="1" font-size="16" >H</text>
<text x="43.439283" y="66.878566" fill="rgb(191,191,191)"  stroke="rgb(191,191,191)" stroke-width="1" font-size="16" >H</text>
<text x="34.000000" y="102.106449" fill="rgb(191,191,191)"  stroke="rgb(191,191,191)" stroke-width="1" font-size="16" >H</text>
<text x="120.805084" y="195.821567" fill="rgb(191,191,191)"  stroke="rgb(191,191,191)" stroke-width="1" font-size="16" >H</text>
<text x="156.032967" y="205.260850" fill="rgb(191,191,191)"  stroke="rgb(191,191,191)" stroke-width="1" font-size="16" >H</text>
<text x="266.869200" y="237.444739" fill="rgb(191,191,191)"  stroke="rgb(191,191,191)" stroke-width="1" font-size="16" >H</text>
<text x="230.398612" y="237.444739" fill="rgb(191,191,191)"  stroke="rgb(191,191,191)" stroke-width="1" font-size="16" >H</text>
<text x="198.814156" y="219.209445" fill="rgb(191,191,191)"  stroke="rgb(191,191,191)" stroke-width="1" font-size="16" >H</text>
<text x="180.578862" y="187.624989" fill="rgb(191,191,191)"  stroke="rgb(191,191,191)" stroke-width="1" font-size="16" >H</text>
<text x="212.163318" y="69.750195" fill="rgb(191,191,191)"  stroke="rgb(191,191,191)" stroke-width="1" font-size="16" >H</text>
<text x="298.453656" y="119.569945" fill="rgb(191,191,191)"  stroke="rgb(191,191,191)" stroke-width="1" font-size="16" >H</text>
<text x="316.688950" y="151.154401" fill="rgb(191,191,191)"  stroke="rgb(191,191,191)" stroke-width="1" font-size="16" >H</text>
<text x="316.688950" y="187.624989" fill="rgb(191,191,191)"  stroke="rgb(191,191,191)" stroke-width="1" font-size="16" >H</text>
<text x="298.453656" y="219.209445" fill="rgb(191,191,191)"  stroke="rgb(191,191,191)" stroke-width="1" font-size="16" >H</text>
<text x="85.577201" y="153.683649" fill="rgb(12,12,255)"  stroke="rgb(12,12,255)" stroke-width="1" font-size="16" >N</text>
<text x="227.849450" y="139.122401" fill="rgb(12,12,255)"  stroke="rgb(12,12,255)" stroke-width="1" font-size="16" >+</text>
<text x="217.049450" y="151.154401" fill="rgb(12,12,255)"  stroke="rgb(12,12,255)" stroke-width="1" font-size="16" >N</text>
</svg>
</g>
<text font-size="18.000000" fill ="black" font-family="sans-serif"
x="10.000000" y="20.000000" >ZINC32445534</text>
</svg>
