<?xml version="1.0"?>
<svg version="1.1" id="topsvg"
xmlns="http://www.w3.org/2000/svg" xmlns:xlink="http://www.w3.org/1999/xlink"
xmlns:cml="http://www.xml-cml.org/schema" x="0" y="0" width="200px" height="200px" viewBox="0 0 100 100">
<title>ZINC02512182 - Open Babel Depiction</title>
<rect x="0" y="0" width="100" height="100" fill="white"/>
<g transform="translate(0,0)">
<svg width="100" height="100" x="0" y="0" viewBox="0 0 491.302 368.566"
font-family="sans-serif" stroke="rgb(0,0,0)" stroke-width="2"  stroke-linecap="round">
<line x1="419.7" y1="93.2" x2="382.1" y2="95.2" stroke="rgb(0,0,0)"  stroke-width="2.0"/>
<line x1="419.7" y1="93.2" x2="440.4" y2="79.8" stroke="rgb(0,0,0)"  stroke-width="2.0"/>
<line x1="419.7" y1="93.2" x2="418.4" y2="68.6" stroke="rgb(0,0,0)"  stroke-width="2.0"/>
<line x1="419.7" y1="93.2" x2="433.2" y2="113.9" stroke="rgb(0,0,0)"  stroke-width="2.0"/>
<line x1="382.1" y1="95.2" x2="365.0" y2="128.7" stroke="rgb(0,0,0)"  stroke-width="2.0"/>
<line x1="382.1" y1="95.2" x2="360.2" y2="84.0" stroke="rgb(0,0,0)"  stroke-width="2.0"/>
<line x1="382.1" y1="95.2" x2="380.8" y2="70.5" stroke="rgb(0,0,0)"  stroke-width="2.0"/>
<line x1="365.0" y1="128.7" x2="341.3" y2="122.1" stroke="rgb(0,0,0)"  stroke-width="2.0"/>
<polygon points="365.041214 128.696941 353.451263 151.454345 346.979127 146.752063 " stroke-width="2.000000" fill="rgb(0,0,0)"  stroke="rgb(0,0,0)" />
<line x1="400.8" y1="140.3" x2="410.9" y2="117.8" stroke="rgb(0,0,0)"  stroke-width="2.0"/>
<line x1="400.8" y1="140.3" x2="425.4" y2="137.8" stroke="rgb(0,0,0)"  stroke-width="2.0"/>
<line x1="400.8" y1="178.0" x2="425.4" y2="180.6" stroke="rgb(0,0,0)"  stroke-width="2.0"/>
<line x1="400.8" y1="178.0" x2="410.9" y2="200.5" stroke="rgb(0,0,0)"  stroke-width="2.0"/>
<line x1="365.0" y1="189.6" x2="370.2" y2="213.7" stroke="rgb(0,0,0)"  stroke-width="2.0"/>
<polygon points="365.041214 189.611161 346.979127 171.556038 353.451263 166.853756 " stroke-width="2.000000" fill="rgb(0,0,0)"  stroke="rgb(0,0,0)" />
<line x1="365.0" y1="189.6" x2="337.1" y2="214.8" stroke="rgb(0,0,0)"  stroke-width="2.0"/>
<line x1="331.7" y1="165.7" x2="212.5" y2="234.4" stroke="rgb(0,0,0)"  stroke-width="2.0"/>
<line x1="329.5" y1="152.4" x2="330.3" y2="151.0" stroke="rgb(0,0,0)"  stroke-width="1.0"/>
<line x1="327.4" y1="151.9" x2="328.9" y2="149.4" stroke="rgb(0,0,0)"  stroke-width="1.0"/>
<line x1="325.3" y1="151.4" x2="327.4" y2="147.8" stroke="rgb(0,0,0)"  stroke-width="1.0"/>
<line x1="323.3" y1="150.9" x2="326.0" y2="146.2" stroke="rgb(0,0,0)"  stroke-width="1.0"/>
<line x1="321.2" y1="150.5" x2="324.5" y2="144.7" stroke="rgb(0,0,0)"  stroke-width="1.0"/>
<line x1="319.1" y1="150.0" x2="323.1" y2="143.1" stroke="rgb(0,0,0)"  stroke-width="1.0"/>
<line x1="212.5" y1="272.1" x2="233.8" y2="284.4" stroke="rgb(0,0,0)"  stroke-width="2.0"/>
<line x1="179.9" y1="290.9" x2="179.9" y2="315.6" stroke="rgb(0,0,0)"  stroke-width="2.0"/>
<line x1="147.3" y1="272.1" x2="125.9" y2="284.4" stroke="rgb(0,0,0)"  stroke-width="2.0"/>
<line x1="147.3" y1="234.4" x2="125.9" y2="222.1" stroke="rgb(0,0,0)"  stroke-width="2.0"/>
<line x1="179.9" y1="215.6" x2="179.9" y2="153.3" stroke="rgb(0,0,0)"  stroke-width="2.0"/>
<polygon points="185.785579 103.146960 185.790503 128.685684 177.888996 127.434208 " stroke-width="2.000000" fill="rgb(0,0,0)"  stroke="rgb(0,0,0)" />
<polygon points="142.712720 146.219819 166.999968 138.323236 168.251444 146.224743 " stroke-width="2.000000" fill="rgb(0,0,0)"  stroke="rgb(0,0,0)" />
<polygon points="192.071475 137.858934 203.819837 131.392406 205.411390 139.232493 " stroke-width="2.000000" fill="rgb(0,0,0)"  stroke="rgb(0,0,0)" />
<line x1="142.7" y1="146.2" x2="144.0" y2="170.8" stroke="rgb(0,0,0)"  stroke-width="2.0"/>
<line x1="142.7" y1="146.2" x2="111.1" y2="166.7" stroke="rgb(0,0,0)"  stroke-width="2.0"/>
<line x1="125.6" y1="112.7" x2="102.6" y2="121.5" stroke="rgb(0,0,0)"  stroke-width="2.0"/>
<line x1="125.6" y1="112.7" x2="106.5" y2="97.2" stroke="rgb(0,0,0)"  stroke-width="2.0"/>
<line x1="152.2" y1="86.1" x2="136.7" y2="66.9" stroke="rgb(0,0,0)"  stroke-width="2.0"/>
<line x1="152.2" y1="86.1" x2="161.1" y2="63.0" stroke="rgb(0,0,0)"  stroke-width="2.0"/>
<line x1="185.8" y1="103.1" x2="199.2" y2="82.5" stroke="rgb(0,0,0)"  stroke-width="2.0"/>
<line x1="185.8" y1="103.1" x2="223.4" y2="105.1" stroke="rgb(0,0,0)"  stroke-width="2.0"/>
<line x1="223.4" y1="105.1" x2="243.9" y2="73.5" stroke="rgb(0,0,0)"  stroke-width="2.0"/>
<line x1="223.4" y1="105.1" x2="244.1" y2="118.5" stroke="rgb(0,0,0)"  stroke-width="2.0"/>
<line x1="223.4" y1="105.1" x2="222.1" y2="129.7" stroke="rgb(0,0,0)"  stroke-width="2.0"/>
<line x1="243.9" y1="73.5" x2="265.8" y2="62.4" stroke="rgb(0,0,0)"  stroke-width="2.0"/>
<line x1="243.9" y1="73.5" x2="264.6" y2="87.0" stroke="rgb(0,0,0)"  stroke-width="2.0"/>
<line x1="243.9" y1="73.5" x2="232.7" y2="51.6" stroke="rgb(0,0,0)"  stroke-width="2.0"/>
<line x1="111.1" y1="166.7" x2="77.6" y2="149.6" stroke="rgb(0,0,0)"  stroke-width="2.0"/>
<line x1="111.1" y1="166.7" x2="99.9" y2="188.7" stroke="rgb(0,0,0)"  stroke-width="2.0"/>
<line x1="111.1" y1="166.7" x2="124.6" y2="187.4" stroke="rgb(0,0,0)"  stroke-width="2.0"/>
<line x1="77.6" y1="149.6" x2="53.0" y2="150.9" stroke="rgb(0,0,0)"  stroke-width="2.0"/>
<line x1="77.6" y1="149.6" x2="66.4" y2="171.6" stroke="rgb(0,0,0)"  stroke-width="2.0"/>
<line x1="77.6" y1="149.6" x2="76.3" y2="125.0" stroke="rgb(0,0,0)"  stroke-width="2.0"/>
<line x1="337.1" y1="214.8" x2="301.3" y2="203.2" stroke="rgb(0,0,0)"  stroke-width="2.0"/>
<line x1="337.1" y1="214.8" x2="329.4" y2="238.2" stroke="rgb(0,0,0)"  stroke-width="2.0"/>
<line x1="337.1" y1="214.8" x2="353.6" y2="233.1" stroke="rgb(0,0,0)"  stroke-width="2.0"/>
<line x1="301.3" y1="203.2" x2="277.2" y2="208.3" stroke="rgb(0,0,0)"  stroke-width="2.0"/>
<line x1="301.3" y1="203.2" x2="293.6" y2="226.6" stroke="rgb(0,0,0)"  stroke-width="2.0"/>
<line x1="301.3" y1="203.2" x2="296.1" y2="179.1" stroke="rgb(0,0,0)"  stroke-width="2.0"/>
<line x1="179.9" y1="290.9" x2="147.3" y2="272.1" stroke="rgb(0,0,0)"  stroke-width="2.0"/>
<line x1="147.3" y1="272.1" x2="147.3" y2="234.4" stroke="rgb(0,0,0)"  stroke-width="2.0"/>
<line x1="154.5" y1="266.1" x2="154.5" y2="240.4" stroke="rgb(0,0,0)"  stroke-width="2.0"/>
<line x1="147.3" y1="234.4" x2="179.9" y2="215.6" stroke="rgb(0,0,0)"  stroke-width="2.0"/>
<line x1="179.9" y1="215.6" x2="212.5" y2="234.4" stroke="rgb(0,0,0)"  stroke-width="2.0"/>
<line x1="181.5" y1="224.9" x2="203.7" y2="237.7" stroke="rgb(0,0,0)"  stroke-width="2.0"/>
<line x1="212.5" y1="234.4" x2="212.5" y2="272.1" stroke="rgb(0,0,0)"  stroke-width="2.0"/>
<line x1="212.5" y1="272.1" x2="179.9" y2="290.9" stroke="rgb(0,0,0)"  stroke-width="2.0"/>
<line x1="203.7" y1="268.9" x2="181.5" y2="281.7" stroke="rgb(0,0,0)"  stroke-width="2.0"/>
<line x1="400.8" y1="178.0" x2="365.0" y2="189.6" stroke="rgb(0,0,0)"  stroke-width="2.0"/>
<line x1="365.0" y1="189.6" x2="350.6" y2="169.7" stroke="rgb(0,0,0)"  stroke-width="2.0"/>
<line x1="350.6" y1="148.6" x2="365.0" y2="128.7" stroke="rgb(0,0,0)"  stroke-width="2.0"/>
<line x1="365.0" y1="128.7" x2="400.8" y2="140.3" stroke="rgb(0,0,0)"  stroke-width="2.0"/>
<line x1="400.8" y1="140.3" x2="400.8" y2="178.0" stroke="rgb(0,0,0)"  stroke-width="2.0"/>
<line x1="125.6" y1="112.7" x2="152.2" y2="86.1" stroke="rgb(0,0,0)"  stroke-width="2.0"/>
<line x1="152.2" y1="86.1" x2="185.8" y2="103.1" stroke="rgb(0,0,0)"  stroke-width="2.0"/>
<line x1="185.8" y1="103.1" x2="181.9" y2="127.5" stroke="rgb(0,0,0)"  stroke-width="2.0"/>
<line x1="167.1" y1="142.4" x2="142.7" y2="146.2" stroke="rgb(0,0,0)"  stroke-width="2.0"/>
<line x1="142.7" y1="146.2" x2="125.6" y2="112.7" stroke="rgb(0,0,0)"  stroke-width="2.0"/>
<text x="271.428876" y="64.452368" fill="rgb(191,191,191)"  stroke="rgb(191,191,191)" stroke-width="1" font-size="16" >H</text>
<text x="374.162326" y="65.557701" fill="rgb(191,191,191)"  stroke="rgb(191,191,191)" stroke-width="1" font-size="16" >H</text>
<text x="410.158133" y="113.938222" fill="rgb(191,191,191)"  stroke="rgb(191,191,191)" stroke-width="1" font-size="16" >H</text>
<text x="432.286519" y="144.395332" fill="rgb(191,191,191)"  stroke="rgb(191,191,191)" stroke-width="1" font-size="16" >H</text>
<text x="432.286519" y="189.912769" fill="rgb(191,191,191)"  stroke="rgb(191,191,191)" stroke-width="1" font-size="16" >H</text>
<text x="410.158133" y="220.369880" fill="rgb(191,191,191)"  stroke="rgb(191,191,191)" stroke-width="1" font-size="16" >H</text>
<text x="239.102900" y="298.918757" fill="rgb(191,191,191)"  stroke="rgb(191,191,191)" stroke-width="1" font-size="16" >H</text>
<text x="173.896281" y="336.565816" fill="rgb(191,191,191)"  stroke="rgb(191,191,191)" stroke-width="1" font-size="16" >H</text>
<text x="108.689662" y="298.918757" fill="rgb(191,191,191)"  stroke="rgb(191,191,191)" stroke-width="1" font-size="16" >H</text>
<text x="108.689662" y="223.624639" fill="rgb(191,191,191)"  stroke="rgb(191,191,191)" stroke-width="1" font-size="16" >H</text>
<text x="84.474756" y="134.167543" fill="rgb(191,191,191)"  stroke="rgb(191,191,191)" stroke-width="1" font-size="16" >H</text>
<text x="90.364053" y="96.983982" fill="rgb(191,191,191)"  stroke="rgb(191,191,191)" stroke-width="1" font-size="16" >H</text>
<text x="122.549742" y="64.798294" fill="rgb(191,191,191)"  stroke="rgb(191,191,191)" stroke-width="1" font-size="16" >H</text>
<text x="159.733303" y="58.908996" fill="rgb(191,191,191)"  stroke="rgb(191,191,191)" stroke-width="1" font-size="16" >H</text>
<text x="248.954524" y="133.621313" fill="rgb(191,191,191)"  stroke="rgb(191,191,191)" stroke-width="1" font-size="16" >H</text>
<text x="215.410749" y="150.712720" fill="rgb(191,191,191)"  stroke="rgb(191,191,191)" stroke-width="1" font-size="16" >H</text>
<text x="342.588846" y="86.061758" fill="rgb(191,191,191)"  stroke="rgb(191,191,191)" stroke-width="1" font-size="16" >H</text>
<text x="269.458581" y="102.047833" fill="rgb(191,191,191)"  stroke="rgb(191,191,191)" stroke-width="1" font-size="16" >H</text>
<text x="220.793694" y="48.000000" fill="rgb(191,191,191)"  stroke="rgb(191,191,191)" stroke-width="1" font-size="16" >H</text>
<text x="88.047833" y="208.267652" fill="rgb(191,191,191)"  stroke="rgb(191,191,191)" stroke-width="1" font-size="16" >H</text>
<text x="125.643298" y="206.297357" fill="rgb(191,191,191)"  stroke="rgb(191,191,191)" stroke-width="1" font-size="16" >H</text>
<text x="34.000000" y="159.602765" fill="rgb(191,191,191)"  stroke="rgb(191,191,191)" stroke-width="1" font-size="16" >H</text>
<text x="54.504058" y="191.176245" fill="rgb(191,191,191)"  stroke="rgb(191,191,191)" stroke-width="1" font-size="16" >H</text>
<text x="69.625170" y="120.037005" fill="rgb(191,191,191)"  stroke="rgb(191,191,191)" stroke-width="1" font-size="16" >H</text>
<text x="319.430416" y="258.606441" fill="rgb(191,191,191)"  stroke="rgb(191,191,191)" stroke-width="1" font-size="16" >H</text>
<text x="356.254796" y="250.779178" fill="rgb(191,191,191)"  stroke="rgb(191,191,191)" stroke-width="1" font-size="16" >H</text>
<text x="258.435136" y="218.995643" fill="rgb(191,191,191)"  stroke="rgb(191,191,191)" stroke-width="1" font-size="16" >H</text>
<text x="283.625935" y="246.972860" fill="rgb(191,191,191)"  stroke="rgb(191,191,191)" stroke-width="1" font-size="16" >H</text>
<text x="287.432252" y="174.343999" fill="rgb(191,191,191)"  stroke="rgb(191,191,191)" stroke-width="1" font-size="16" >H</text>
<text x="304.309518" y="148.330521" fill="rgb(191,191,191)"  stroke="rgb(191,191,191)" stroke-width="1" font-size="16" >H</text>
<text x="210.790807" y="140.840862" fill="rgb(191,191,191)"  stroke="rgb(191,191,191)" stroke-width="1" font-size="16" >H</text>
<text x="322.767716" y="126.620511" fill="rgb(191,191,191)"  stroke="rgb(191,191,191)" stroke-width="1" font-size="16" >H</text>
<text x="366.868477" y="234.435542" fill="rgb(191,191,191)"  stroke="rgb(191,191,191)" stroke-width="1" font-size="16" >H</text>
<text x="336.912828" y="167.154051" fill="rgb(255,127,0)"  stroke="rgb(255,127,0)" stroke-width="1" font-size="16" >P</text>
<text x="173.896281" y="148.330521" fill="rgb(255,127,0)"  stroke="rgb(255,127,0)" stroke-width="1" font-size="16" >P</text>
<text x="138.683015" y="191.815284" fill="rgb(191,191,191)"  stroke="rgb(191,191,191)" stroke-width="1" font-size="16" >H</text>
<text x="200.289636" y="79.573480" fill="rgb(191,191,191)"  stroke="rgb(191,191,191)" stroke-width="1" font-size="16" >H</text>
<text x="445.301566" y="80.678813" fill="rgb(191,191,191)"  stroke="rgb(191,191,191)" stroke-width="1" font-size="16" >H</text>
<text x="411.757791" y="63.587406" fill="rgb(191,191,191)"  stroke="rgb(191,191,191)" stroke-width="1" font-size="16" >H</text>
<text x="434.232143" y="132.756351" fill="rgb(191,191,191)"  stroke="rgb(191,191,191)" stroke-width="1" font-size="16" >H</text>
</svg>
</g>
<text font-size="18.000000" fill ="black" font-family="sans-serif"
x="10.000000" y="20.000000" >ZINC02512182</text>
</svg>
