<?xml version="1.0"?>
<svg version="1.1" id="topsvg"
xmlns="http://www.w3.org/2000/svg" xmlns:xlink="http://www.w3.org/1999/xlink"
xmlns:cml="http://www.xml-cml.org/schema" x="0" y="0" width="200px" height="200px" viewBox="0 0 100 100">
<title>ZINC00057490 - Open Babel Depiction</title>
<rect x="0" y="0" width="100" height="100" fill="white"/>
<g transform="translate(0,0)">
<svg width="100" height="100" x="0" y="0" viewBox="0 0 415.082 330.812"
font-family="sans-serif" stroke="rgb(0,0,0)" stroke-width="2"  stroke-linecap="round">
<line x1="309.1" y1="78.1" x2="314.5" y2="52.7" stroke="rgb(0,0,0)"  stroke-width="2.0"/>
<line x1="272.0" y1="90.2" x2="252.7" y2="72.8" stroke="rgb(0,0,0)"  stroke-width="2.0"/>
<line x1="263.9" y1="128.3" x2="239.2" y2="136.3" stroke="rgb(0,0,0)"  stroke-width="2.0"/>
<line x1="292.8" y1="154.4" x2="287.4" y2="179.8" stroke="rgb(0,0,0)"  stroke-width="2.0"/>
<line x1="329.9" y1="142.3" x2="349.2" y2="159.7" stroke="rgb(0,0,0)"  stroke-width="2.0"/>
<line x1="338.0" y1="104.2" x2="362.7" y2="96.2" stroke="rgb(0,0,0)"  stroke-width="2.0"/>
<line x1="249.1" y1="208.3" x2="226.6" y2="195.4" stroke="rgb(0,0,0)"  stroke-width="2.0"/>
<line x1="253.2" y1="247.1" x2="233.9" y2="264.5" stroke="rgb(0,0,0)"  stroke-width="2.0"/>
<line x1="291.3" y1="255.2" x2="301.9" y2="278.9" stroke="rgb(0,0,0)"  stroke-width="2.0"/>
<line x1="215.4" y1="175.9" x2="215.4" y2="123.9" stroke="rgb(0,0,0)"  stroke-width="2.0"/>
<line x1="204.1" y1="195.4" x2="192.9" y2="201.8" stroke="rgb(0,0,0)"  stroke-width="2.0"/>
<line x1="228.4" y1="107.9" x2="241.4" y2="107.9" stroke="rgb(0,0,0)"  stroke-width="2.0"/>
<line x1="228.4" y1="113.9" x2="241.4" y2="113.9" stroke="rgb(0,0,0)"  stroke-width="2.0"/>
<line x1="212.4" y1="97.9" x2="212.4" y2="84.9" stroke="rgb(0,0,0)"  stroke-width="2.0"/>
<line x1="218.4" y1="97.9" x2="218.4" y2="84.9" stroke="rgb(0,0,0)"  stroke-width="2.0"/>
<line x1="202.4" y1="110.9" x2="176.4" y2="110.9" stroke="rgb(0,0,0)"  stroke-width="2.0"/>
<line x1="156.9" y1="77.2" x2="169.9" y2="54.7" stroke="rgb(0,0,0)"  stroke-width="2.0"/>
<line x1="117.9" y1="77.2" x2="105.0" y2="54.7" stroke="rgb(0,0,0)"  stroke-width="2.0"/>
<line x1="98.5" y1="110.9" x2="72.5" y2="110.9" stroke="rgb(0,0,0)"  stroke-width="2.0"/>
<line x1="117.9" y1="144.7" x2="105.0" y2="167.2" stroke="rgb(0,0,0)"  stroke-width="2.0"/>
<line x1="156.9" y1="144.7" x2="169.9" y2="167.2" stroke="rgb(0,0,0)"  stroke-width="2.0"/>
<line x1="53.0" y1="99.6" x2="46.5" y2="88.4" stroke="rgb(0,0,0)"  stroke-width="2.0"/>
<line x1="53.0" y1="122.2" x2="46.5" y2="133.4" stroke="rgb(0,0,0)"  stroke-width="2.0"/>
<line x1="253.2" y1="247.1" x2="291.3" y2="255.2" stroke="rgb(0,0,0)"  stroke-width="2.0"/>
<line x1="291.3" y1="255.2" x2="304.4" y2="232.6" stroke="rgb(0,0,0)"  stroke-width="2.0"/>
<line x1="288.1" y1="246.4" x2="297.1" y2="230.8" stroke="rgb(0,0,0)"  stroke-width="2.0"/>
<line x1="302.1" y1="211.8" x2="293.4" y2="202.2" stroke="rgb(0,0,0)"  stroke-width="2.0"/>
<line x1="272.9" y1="197.8" x2="249.1" y2="208.3" stroke="rgb(0,0,0)"  stroke-width="2.0"/>
<line x1="249.1" y1="208.3" x2="253.2" y2="247.1" stroke="rgb(0,0,0)"  stroke-width="2.0"/>
<line x1="256.9" y1="213.6" x2="259.7" y2="240.4" stroke="rgb(0,0,0)"  stroke-width="2.0"/>
<line x1="263.9" y1="128.3" x2="292.8" y2="154.4" stroke="rgb(0,0,0)"  stroke-width="2.0"/>
<line x1="292.8" y1="154.4" x2="329.9" y2="142.3" stroke="rgb(0,0,0)"  stroke-width="2.0"/>
<line x1="296.3" y1="145.7" x2="322.0" y2="137.3" stroke="rgb(0,0,0)"  stroke-width="2.0"/>
<line x1="329.9" y1="142.3" x2="338.0" y2="104.2" stroke="rgb(0,0,0)"  stroke-width="2.0"/>
<line x1="338.0" y1="104.2" x2="309.1" y2="78.1" stroke="rgb(0,0,0)"  stroke-width="2.0"/>
<line x1="328.7" y1="105.5" x2="308.7" y2="87.5" stroke="rgb(0,0,0)"  stroke-width="2.0"/>
<line x1="309.1" y1="78.1" x2="272.0" y2="90.2" stroke="rgb(0,0,0)"  stroke-width="2.0"/>
<line x1="272.0" y1="90.2" x2="263.9" y2="128.3" stroke="rgb(0,0,0)"  stroke-width="2.0"/>
<line x1="277.8" y1="97.5" x2="272.2" y2="123.9" stroke="rgb(0,0,0)"  stroke-width="2.0"/>
<line x1="117.9" y1="77.2" x2="98.5" y2="110.9" stroke="rgb(0,0,0)"  stroke-width="2.0"/>
<line x1="98.5" y1="110.9" x2="117.9" y2="144.7" stroke="rgb(0,0,0)"  stroke-width="2.0"/>
<line x1="107.7" y1="112.5" x2="121.2" y2="135.9" stroke="rgb(0,0,0)"  stroke-width="2.0"/>
<line x1="117.9" y1="144.7" x2="156.9" y2="144.7" stroke="rgb(0,0,0)"  stroke-width="2.0"/>
<line x1="156.9" y1="144.7" x2="176.4" y2="110.9" stroke="rgb(0,0,0)"  stroke-width="2.0"/>
<line x1="153.7" y1="135.9" x2="167.2" y2="112.5" stroke="rgb(0,0,0)"  stroke-width="2.0"/>
<line x1="176.4" y1="110.9" x2="156.9" y2="77.2" stroke="rgb(0,0,0)"  stroke-width="2.0"/>
<line x1="156.9" y1="77.2" x2="117.9" y2="77.2" stroke="rgb(0,0,0)"  stroke-width="2.0"/>
<line x1="150.9" y1="84.4" x2="123.9" y2="84.4" stroke="rgb(0,0,0)"  stroke-width="2.0"/>
<text x="218.247737" y="281.182793" fill="rgb(191,191,191)"  stroke="rgb(191,191,191)" stroke-width="1" font-size="16" >H</text>
<text x="53.487179" y="118.907105" fill="rgb(12,12,255)"  stroke="rgb(12,12,255)" stroke-width="1" font-size="16" >N</text>
<text x="311.155148" y="48.000000" fill="rgb(191,191,191)"  stroke="rgb(191,191,191)" stroke-width="1" font-size="16" >H</text>
<text x="237.021512" y="72.087479" fill="rgb(191,191,191)"  stroke="rgb(191,191,191)" stroke-width="1" font-size="16" >H</text>
<text x="220.815063" y="148.332830" fill="rgb(191,191,191)"  stroke="rgb(191,191,191)" stroke-width="1" font-size="16" >H</text>
<text x="352.875885" y="176.403224" fill="rgb(191,191,191)"  stroke="rgb(191,191,191)" stroke-width="1" font-size="16" >H</text>
<text x="369.082335" y="100.157873" fill="rgb(191,191,191)"  stroke="rgb(191,191,191)" stroke-width="1" font-size="16" >H</text>
<text x="301.186306" y="298.811930" fill="rgb(191,191,191)"  stroke="rgb(191,191,191)" stroke-width="1" font-size="16" >H</text>
<text x="170.410256" y="51.401535" fill="rgb(191,191,191)"  stroke="rgb(191,191,191)" stroke-width="1" font-size="16" >H</text>
<text x="92.461538" y="51.401535" fill="rgb(191,191,191)"  stroke="rgb(191,191,191)" stroke-width="1" font-size="16" >H</text>
<text x="92.461538" y="186.412675" fill="rgb(191,191,191)"  stroke="rgb(191,191,191)" stroke-width="1" font-size="16" >H</text>
<text x="170.410256" y="186.412675" fill="rgb(191,191,191)"  stroke="rgb(191,191,191)" stroke-width="1" font-size="16" >H</text>
<text x="34.000000" y="85.154320" fill="rgb(191,191,191)"  stroke="rgb(191,191,191)" stroke-width="1" font-size="16" >H</text>
<text x="34.000000" y="152.659890" fill="rgb(191,191,191)"  stroke="rgb(191,191,191)" stroke-width="1" font-size="16" >H</text>
<text x="175.631830" y="216.343003" fill="rgb(191,191,191)"  stroke="rgb(191,191,191)" stroke-width="1" font-size="16" >H</text>
<text x="278.742249" y="200.490703" fill="rgb(12,12,255)"  stroke="rgb(12,12,255)" stroke-width="1" font-size="16" >N</text>
<text x="304.821185" y="229.454296" fill="rgb(12,12,255)"  stroke="rgb(12,12,255)" stroke-width="1" font-size="16" >N</text>
<text x="209.384615" y="196.855823" fill="rgb(12,12,255)"  stroke="rgb(12,12,255)" stroke-width="1" font-size="16" >N</text>
<text x="209.384615" y="118.907105" fill="rgb(178,178,0)"  stroke="rgb(178,178,0)" stroke-width="1" font-size="16" >S</text>
<text x="248.358974" y="118.907105" fill="rgb(255,12,12)"  stroke="rgb(255,12,12)" stroke-width="1" font-size="16" >O</text>
<text x="209.384615" y="79.932746" fill="rgb(255,12,12)"  stroke="rgb(255,12,12)" stroke-width="1" font-size="16" >O</text>
</svg>
</g>
<text font-size="18.000000" fill ="black" font-family="sans-serif"
x="10.000000" y="20.000000" >ZINC00057490</text>
</svg>
