<?xml version="1.0"?>
<svg version="1.1" id="topsvg"
xmlns="http://www.w3.org/2000/svg" xmlns:xlink="http://www.w3.org/1999/xlink"
xmlns:cml="http://www.xml-cml.org/schema" x="0" y="0" width="200px" height="200px" viewBox="0 0 100 100">
<title>ZINC86032181 - Open Babel Depiction</title>
<rect x="0" y="0" width="100" height="100" fill="white"/>
<g transform="translate(0,0)">
<svg width="100" height="100" x="0" y="0" viewBox="0 0 312.949 438.139"
font-family="sans-serif" stroke="rgb(0,0,0)" stroke-width="2"  stroke-linecap="round">
<line x1="185.9" y1="90.3" x2="204.3" y2="122.1" stroke="rgb(0,0,0)"  stroke-width="2.0"/>
<line x1="185.9" y1="90.3" x2="165.3" y2="78.4" stroke="rgb(0,0,0)"  stroke-width="2.0"/>
<line x1="185.9" y1="90.3" x2="165.3" y2="102.2" stroke="rgb(0,0,0)"  stroke-width="2.0"/>
<line x1="185.9" y1="90.3" x2="197.8" y2="69.7" stroke="rgb(0,0,0)"  stroke-width="2.0"/>
<line x1="204.3" y1="122.1" x2="236.1" y2="103.7" stroke="rgb(0,0,0)"  stroke-width="2.0"/>
<line x1="204.3" y1="122.1" x2="222.7" y2="154.0" stroke="rgb(0,0,0)"  stroke-width="2.0"/>
<line x1="204.3" y1="122.1" x2="183.7" y2="134.0" stroke="rgb(0,0,0)"  stroke-width="2.0"/>
<line x1="236.1" y1="103.7" x2="259.9" y2="103.7" stroke="rgb(0,0,0)"  stroke-width="2.0"/>
<line x1="236.1" y1="103.7" x2="248.0" y2="124.4" stroke="rgb(0,0,0)"  stroke-width="2.0"/>
<line x1="236.1" y1="103.7" x2="236.1" y2="79.9" stroke="rgb(0,0,0)"  stroke-width="2.0"/>
<line x1="222.7" y1="154.0" x2="222.7" y2="177.8" stroke="rgb(0,0,0)"  stroke-width="2.0"/>
<line x1="222.7" y1="154.0" x2="202.1" y2="165.9" stroke="rgb(0,0,0)"  stroke-width="2.0"/>
<line x1="222.7" y1="154.0" x2="246.5" y2="154.0" stroke="rgb(0,0,0)"  stroke-width="2.0"/>
<line x1="172.4" y1="153.5" x2="172.4" y2="287.7" stroke="rgb(0,0,0)"  stroke-width="2.0"/>
<line x1="161.2" y1="134.0" x2="108.7" y2="103.7" stroke="rgb(0,0,0)"  stroke-width="2.0"/>
<line x1="204.3" y1="306.1" x2="224.9" y2="294.2" stroke="rgb(0,0,0)"  stroke-width="2.0"/>
<line x1="204.3" y1="342.9" x2="224.9" y2="354.8" stroke="rgb(0,0,0)"  stroke-width="2.0"/>
<line x1="172.4" y1="361.3" x2="172.4" y2="385.1" stroke="rgb(0,0,0)"  stroke-width="2.0"/>
<line x1="140.5" y1="342.9" x2="119.9" y2="354.8" stroke="rgb(0,0,0)"  stroke-width="2.0"/>
<line x1="140.5" y1="306.1" x2="119.9" y2="294.2" stroke="rgb(0,0,0)"  stroke-width="2.0"/>
<line x1="97.4" y1="294.2" x2="76.8" y2="306.1" stroke="rgb(0,0,0)"  stroke-width="2.0"/>
<line x1="108.7" y1="274.7" x2="108.7" y2="250.9" stroke="rgb(0,0,0)"  stroke-width="2.0"/>
<line x1="76.8" y1="306.1" x2="53.0" y2="306.1" stroke="rgb(0,0,0)"  stroke-width="2.0"/>
<line x1="76.8" y1="306.1" x2="64.9" y2="285.5" stroke="rgb(0,0,0)"  stroke-width="2.0"/>
<line x1="76.8" y1="306.1" x2="76.8" y2="329.9" stroke="rgb(0,0,0)"  stroke-width="2.0"/>
<line x1="108.7" y1="250.9" x2="120.6" y2="230.3" stroke="rgb(0,0,0)"  stroke-width="2.0"/>
<line x1="108.7" y1="250.9" x2="132.5" y2="250.9" stroke="rgb(0,0,0)"  stroke-width="2.0"/>
<line x1="108.7" y1="250.9" x2="88.1" y2="239.0" stroke="rgb(0,0,0)"  stroke-width="2.0"/>
<line x1="108.7" y1="103.7" x2="90.3" y2="135.6" stroke="rgb(0,0,0)"  stroke-width="2.0"/>
<line x1="108.7" y1="103.7" x2="76.8" y2="85.3" stroke="rgb(0,0,0)"  stroke-width="2.0"/>
<line x1="108.7" y1="103.7" x2="127.1" y2="71.9" stroke="rgb(0,0,0)"  stroke-width="2.0"/>
<line x1="90.3" y1="135.6" x2="90.3" y2="159.4" stroke="rgb(0,0,0)"  stroke-width="2.0"/>
<line x1="90.3" y1="135.6" x2="110.9" y2="147.5" stroke="rgb(0,0,0)"  stroke-width="2.0"/>
<line x1="90.3" y1="135.6" x2="66.5" y2="135.6" stroke="rgb(0,0,0)"  stroke-width="2.0"/>
<line x1="76.8" y1="85.3" x2="64.9" y2="64.7" stroke="rgb(0,0,0)"  stroke-width="2.0"/>
<line x1="76.8" y1="85.3" x2="88.7" y2="64.7" stroke="rgb(0,0,0)"  stroke-width="2.0"/>
<line x1="76.8" y1="85.3" x2="56.2" y2="97.2" stroke="rgb(0,0,0)"  stroke-width="2.0"/>
<line x1="127.1" y1="71.9" x2="147.7" y2="60.0" stroke="rgb(0,0,0)"  stroke-width="2.0"/>
<line x1="127.1" y1="71.9" x2="147.7" y2="83.8" stroke="rgb(0,0,0)"  stroke-width="2.0"/>
<line x1="127.1" y1="71.9" x2="115.2" y2="51.3" stroke="rgb(0,0,0)"  stroke-width="2.0"/>
<line x1="204.3" y1="342.9" x2="172.4" y2="361.3" stroke="rgb(0,0,0)"  stroke-width="2.0"/>
<line x1="172.4" y1="361.3" x2="140.5" y2="342.9" stroke="rgb(0,0,0)"  stroke-width="2.0"/>
<line x1="170.8" y1="352.1" x2="149.3" y2="339.7" stroke="rgb(0,0,0)"  stroke-width="2.0"/>
<line x1="140.5" y1="342.9" x2="140.5" y2="306.1" stroke="rgb(0,0,0)"  stroke-width="2.0"/>
<line x1="140.5" y1="306.1" x2="172.4" y2="287.7" stroke="rgb(0,0,0)"  stroke-width="2.0"/>
<line x1="149.3" y1="309.4" x2="170.8" y2="297.0" stroke="rgb(0,0,0)"  stroke-width="2.0"/>
<line x1="172.4" y1="287.7" x2="204.3" y2="306.1" stroke="rgb(0,0,0)"  stroke-width="2.0"/>
<line x1="204.3" y1="306.1" x2="204.3" y2="342.9" stroke="rgb(0,0,0)"  stroke-width="2.0"/>
<line x1="197.1" y1="312.1" x2="197.1" y2="336.9" stroke="rgb(0,0,0)"  stroke-width="2.0"/>
<text x="139.469735" y="258.939470" fill="rgb(191,191,191)"  stroke="rgb(191,191,191)" stroke-width="1" font-size="16" >H</text>
<text x="216.678939" y="198.809205" fill="rgb(191,191,191)"  stroke="rgb(191,191,191)" stroke-width="1" font-size="16" >H</text>
<text x="184.809205" y="180.409205" fill="rgb(191,191,191)"  stroke="rgb(191,191,191)" stroke-width="1" font-size="16" >H</text>
<text x="253.478939" y="162.009205" fill="rgb(191,191,191)"  stroke="rgb(191,191,191)" stroke-width="1" font-size="16" >H</text>
<text x="230.148674" y="295.739470" fill="rgb(191,191,191)"  stroke="rgb(191,191,191)" stroke-width="1" font-size="16" >H</text>
<text x="230.148674" y="369.339470" fill="rgb(191,191,191)"  stroke="rgb(191,191,191)" stroke-width="1" font-size="16" >H</text>
<text x="166.409205" y="406.139470" fill="rgb(191,191,191)"  stroke="rgb(191,191,191)" stroke-width="1" font-size="16" >H</text>
<text x="102.669735" y="369.339470" fill="rgb(191,191,191)"  stroke="rgb(191,191,191)" stroke-width="1" font-size="16" >H</text>
<text x="34.000000" y="314.139470" fill="rgb(191,191,191)"  stroke="rgb(191,191,191)" stroke-width="1" font-size="16" >H</text>
<text x="52.400000" y="282.269735" fill="rgb(191,191,191)"  stroke="rgb(191,191,191)" stroke-width="1" font-size="16" >H</text>
<text x="70.800000" y="350.939470" fill="rgb(191,191,191)"  stroke="rgb(191,191,191)" stroke-width="1" font-size="16" >H</text>
<text x="121.069735" y="227.069735" fill="rgb(191,191,191)"  stroke="rgb(191,191,191)" stroke-width="1" font-size="16" >H</text>
<text x="230.148674" y="74.939470" fill="rgb(191,191,191)"  stroke="rgb(191,191,191)" stroke-width="1" font-size="16" >H</text>
<text x="70.800000" y="240.539470" fill="rgb(191,191,191)"  stroke="rgb(191,191,191)" stroke-width="1" font-size="16" >H</text>
<text x="84.269735" y="180.409205" fill="rgb(191,191,191)"  stroke="rgb(191,191,191)" stroke-width="1" font-size="16" >H</text>
<text x="116.139470" y="162.009205" fill="rgb(191,191,191)"  stroke="rgb(191,191,191)" stroke-width="1" font-size="16" >H</text>
<text x="47.469735" y="143.609205" fill="rgb(191,191,191)"  stroke="rgb(191,191,191)" stroke-width="1" font-size="16" >H</text>
<text x="52.400000" y="61.469735" fill="rgb(191,191,191)"  stroke="rgb(191,191,191)" stroke-width="1" font-size="16" >H</text>
<text x="89.200000" y="61.469735" fill="rgb(191,191,191)"  stroke="rgb(191,191,191)" stroke-width="1" font-size="16" >H</text>
<text x="38.930265" y="111.739470" fill="rgb(191,191,191)"  stroke="rgb(191,191,191)" stroke-width="1" font-size="16" >H</text>
<text x="152.939470" y="61.469735" fill="rgb(191,191,191)"  stroke="rgb(191,191,191)" stroke-width="1" font-size="16" >H</text>
<text x="152.939470" y="98.269735" fill="rgb(191,191,191)"  stroke="rgb(191,191,191)" stroke-width="1" font-size="16" >H</text>
<text x="102.669735" y="48.000000" fill="rgb(191,191,191)"  stroke="rgb(191,191,191)" stroke-width="1" font-size="16" >H</text>
<text x="166.409205" y="148.539470" fill="rgb(255,127,0)"  stroke="rgb(255,127,0)" stroke-width="1" font-size="16" >P</text>
<text x="102.669735" y="295.739470" fill="rgb(12,12,255)"  stroke="rgb(12,12,255)" stroke-width="1" font-size="16" >N</text>
<text x="148.009205" y="79.869735" fill="rgb(191,191,191)"  stroke="rgb(191,191,191)" stroke-width="1" font-size="16" >H</text>
<text x="148.009205" y="116.669735" fill="rgb(191,191,191)"  stroke="rgb(191,191,191)" stroke-width="1" font-size="16" >H</text>
<text x="198.278939" y="66.400000" fill="rgb(191,191,191)"  stroke="rgb(191,191,191)" stroke-width="1" font-size="16" >H</text>
<text x="266.948674" y="111.739470" fill="rgb(191,191,191)"  stroke="rgb(191,191,191)" stroke-width="1" font-size="16" >H</text>
<text x="248.548674" y="143.609205" fill="rgb(191,191,191)"  stroke="rgb(191,191,191)" stroke-width="1" font-size="16" >H</text>
</svg>
</g>
<text font-size="18.000000" fill ="black" font-family="sans-serif"
x="10.000000" y="20.000000" >ZINC86032181</text>
</svg>
