<?xml version="1.0"?>
<svg version="1.1" id="topsvg"
xmlns="http://www.w3.org/2000/svg" xmlns:xlink="http://www.w3.org/1999/xlink"
xmlns:cml="http://www.xml-cml.org/schema" x="0" y="0" width="200px" height="200px" viewBox="0 0 100 100">
<title>ZINC71775444 - Open Babel Depiction</title>
<rect x="0" y="0" width="100" height="100" fill="white"/>
<g transform="translate(0,0)">
<svg width="100" height="100" x="0" y="0" viewBox="0 0 535.013 447.413"
font-family="sans-serif" stroke="rgb(0,0,0)" stroke-width="2"  stroke-linecap="round">
<line x1="157.9" y1="257.7" x2="134.3" y2="225.3" stroke="rgb(0,0,0)"  stroke-width="2.0"/>
<line x1="157.9" y1="257.7" x2="182.5" y2="268.7" stroke="rgb(0,0,0)"  stroke-width="2.0"/>
<line x1="157.9" y1="257.7" x2="179.7" y2="241.8" stroke="rgb(0,0,0)"  stroke-width="2.0"/>
<line x1="157.9" y1="257.7" x2="146.9" y2="282.3" stroke="rgb(0,0,0)"  stroke-width="2.0"/>
<line x1="134.3" y1="225.3" x2="145.3" y2="200.6" stroke="rgb(0,0,0)"  stroke-width="2.0"/>
<line x1="134.3" y1="225.3" x2="109.7" y2="214.3" stroke="rgb(0,0,0)"  stroke-width="2.0"/>
<line x1="134.3" y1="225.3" x2="112.5" y2="241.2" stroke="rgb(0,0,0)"  stroke-width="2.0"/>
<line x1="91.5" y1="145.8" x2="73.4" y2="165.9" stroke="rgb(0,0,0)"  stroke-width="2.0"/>
<line x1="79.1" y1="107.8" x2="52.7" y2="102.2" stroke="rgb(0,0,0)"  stroke-width="2.0"/>
<line x1="105.9" y1="78.0" x2="97.5" y2="52.4" stroke="rgb(0,0,0)"  stroke-width="2.0"/>
<line x1="145.0" y1="86.4" x2="163.1" y2="66.3" stroke="rgb(0,0,0)"  stroke-width="2.0"/>
<line x1="189.7" y1="180.5" x2="219.5" y2="207.2" stroke="rgb(0,0,0)"  stroke-width="2.0"/>
<line x1="218.5" y1="204.4" x2="256.6" y2="192.0" stroke="rgb(0,0,0)"  stroke-width="2.0"/>
<line x1="220.4" y1="210.1" x2="258.4" y2="197.7" stroke="rgb(0,0,0)"  stroke-width="2.0"/>
<line x1="219.5" y1="207.2" x2="213.9" y2="233.6" stroke="rgb(0,0,0)"  stroke-width="2.0"/>
<line x1="257.5" y1="194.9" x2="265.8" y2="155.7" stroke="rgb(0,0,0)"  stroke-width="2.0"/>
<line x1="257.5" y1="194.9" x2="287.2" y2="221.6" stroke="rgb(0,0,0)"  stroke-width="2.0"/>
<line x1="265.8" y1="155.7" x2="283.9" y2="135.7" stroke="rgb(0,0,0)"  stroke-width="2.0"/>
<line x1="265.8" y1="155.7" x2="292.2" y2="161.3" stroke="rgb(0,0,0)"  stroke-width="2.0"/>
<line x1="265.8" y1="155.7" x2="245.8" y2="137.7" stroke="rgb(0,0,0)"  stroke-width="2.0"/>
<line x1="286.3" y1="218.8" x2="324.3" y2="206.4" stroke="rgb(0,0,0)"  stroke-width="2.0"/>
<line x1="288.2" y1="224.5" x2="326.2" y2="212.1" stroke="rgb(0,0,0)"  stroke-width="2.0"/>
<line x1="287.2" y1="221.6" x2="281.6" y2="248.0" stroke="rgb(0,0,0)"  stroke-width="2.0"/>
<line x1="357.6" y1="245.8" x2="357.6" y2="272.8" stroke="rgb(0,0,0)"  stroke-width="2.0"/>
<line x1="429.1" y1="217.6" x2="437.5" y2="243.3" stroke="rgb(0,0,0)"  stroke-width="2.0"/>
<line x1="455.9" y1="187.9" x2="482.3" y2="193.5" stroke="rgb(0,0,0)"  stroke-width="2.0"/>
<line x1="443.5" y1="149.8" x2="461.6" y2="129.7" stroke="rgb(0,0,0)"  stroke-width="2.0"/>
<line x1="404.4" y1="141.5" x2="396.1" y2="115.8" stroke="rgb(0,0,0)"  stroke-width="2.0"/>
<line x1="357.6" y1="272.8" x2="392.3" y2="292.8" stroke="rgb(0,0,0)"  stroke-width="2.0"/>
<line x1="357.6" y1="272.8" x2="344.1" y2="296.2" stroke="rgb(0,0,0)"  stroke-width="2.0"/>
<line x1="357.6" y1="272.8" x2="330.6" y2="272.8" stroke="rgb(0,0,0)"  stroke-width="2.0"/>
<line x1="392.3" y1="292.8" x2="392.3" y2="332.8" stroke="rgb(0,0,0)"  stroke-width="2.0"/>
<line x1="392.3" y1="292.8" x2="419.3" y2="292.8" stroke="rgb(0,0,0)"  stroke-width="2.0"/>
<line x1="392.3" y1="292.8" x2="405.8" y2="269.4" stroke="rgb(0,0,0)"  stroke-width="2.0"/>
<line x1="397.6" y1="332.0" x2="397.6" y2="333.6" stroke="rgb(0,0,0)"  stroke-width="1.0"/>
<line x1="401.9" y1="331.3" x2="401.9" y2="334.2" stroke="rgb(0,0,0)"  stroke-width="1.0"/>
<line x1="406.2" y1="330.7" x2="406.2" y2="334.9" stroke="rgb(0,0,0)"  stroke-width="1.0"/>
<line x1="410.5" y1="330.1" x2="410.5" y2="335.5" stroke="rgb(0,0,0)"  stroke-width="1.0"/>
<line x1="414.8" y1="329.4" x2="414.8" y2="336.1" stroke="rgb(0,0,0)"  stroke-width="1.0"/>
<line x1="419.1" y1="328.8" x2="419.1" y2="336.8" stroke="rgb(0,0,0)"  stroke-width="1.0"/>
<line x1="392.3" y1="332.8" x2="392.3" y2="372.8" stroke="rgb(0,0,0)"  stroke-width="2.0"/>
<line x1="392.3" y1="332.8" x2="365.3" y2="332.8" stroke="rgb(0,0,0)"  stroke-width="2.0"/>
<line x1="392.3" y1="372.8" x2="405.8" y2="396.2" stroke="rgb(0,0,0)"  stroke-width="2.0"/>
<line x1="392.3" y1="372.8" x2="419.3" y2="372.8" stroke="rgb(0,0,0)"  stroke-width="2.0"/>
<line x1="392.3" y1="372.8" x2="368.9" y2="386.3" stroke="rgb(0,0,0)"  stroke-width="2.0"/>
<line x1="355.3" y1="345.8" x2="355.3" y2="359.8" stroke="rgb(0,0,0)"  stroke-width="2.0"/>
<line x1="349.3" y1="345.8" x2="349.3" y2="359.8" stroke="rgb(0,0,0)"  stroke-width="2.0"/>
<line x1="339.3" y1="335.8" x2="325.3" y2="335.8" stroke="rgb(0,0,0)"  stroke-width="2.0"/>
<line x1="339.3" y1="329.8" x2="325.3" y2="329.8" stroke="rgb(0,0,0)"  stroke-width="2.0"/>
<line x1="352.3" y1="319.8" x2="352.3" y2="305.8" stroke="rgb(0,0,0)"  stroke-width="2.0"/>
<line x1="157.4" y1="124.4" x2="182.0" y2="135.4" stroke="rgb(0,0,0)"  stroke-width="2.0"/>
<line x1="192.6" y1="153.6" x2="189.7" y2="180.5" stroke="rgb(0,0,0)"  stroke-width="2.0"/>
<line x1="189.7" y1="180.5" x2="163.5" y2="186.0" stroke="rgb(0,0,0)"  stroke-width="2.0"/>
<line x1="182.4" y1="174.7" x2="164.0" y2="178.6" stroke="rgb(0,0,0)"  stroke-width="2.0"/>
<line x1="144.1" y1="177.5" x2="130.6" y2="154.1" stroke="rgb(0,0,0)"  stroke-width="2.0"/>
<line x1="130.6" y1="154.1" x2="157.4" y2="124.4" stroke="rgb(0,0,0)"  stroke-width="2.0"/>
<line x1="140.0" y1="154.5" x2="158.7" y2="133.7" stroke="rgb(0,0,0)"  stroke-width="2.0"/>
<line x1="390.0" y1="209.3" x2="377.6" y2="171.2" stroke="rgb(0,0,0)"  stroke-width="2.0"/>
<line x1="381.3" y1="205.8" x2="372.6" y2="179.1" stroke="rgb(0,0,0)"  stroke-width="2.0"/>
<line x1="377.6" y1="171.2" x2="350.6" y2="171.2" stroke="rgb(0,0,0)"  stroke-width="2.0"/>
<line x1="333.6" y1="183.6" x2="325.3" y2="209.3" stroke="rgb(0,0,0)"  stroke-width="2.0"/>
<line x1="325.3" y1="209.3" x2="347.1" y2="225.1" stroke="rgb(0,0,0)"  stroke-width="2.0"/>
<line x1="368.2" y1="225.1" x2="390.0" y2="209.3" stroke="rgb(0,0,0)"  stroke-width="2.0"/>
<line x1="91.5" y1="145.8" x2="79.1" y2="107.8" stroke="rgb(0,0,0)"  stroke-width="2.0"/>
<line x1="96.5" y1="137.9" x2="87.8" y2="111.2" stroke="rgb(0,0,0)"  stroke-width="2.0"/>
<line x1="79.1" y1="107.8" x2="105.9" y2="78.0" stroke="rgb(0,0,0)"  stroke-width="2.0"/>
<line x1="105.9" y1="78.0" x2="145.0" y2="86.4" stroke="rgb(0,0,0)"  stroke-width="2.0"/>
<line x1="110.3" y1="86.3" x2="137.7" y2="92.2" stroke="rgb(0,0,0)"  stroke-width="2.0"/>
<line x1="145.0" y1="86.4" x2="157.4" y2="124.4" stroke="rgb(0,0,0)"  stroke-width="2.0"/>
<line x1="130.6" y1="154.1" x2="91.5" y2="145.8" stroke="rgb(0,0,0)"  stroke-width="2.0"/>
<line x1="443.5" y1="149.8" x2="404.4" y2="141.5" stroke="rgb(0,0,0)"  stroke-width="2.0"/>
<line x1="436.2" y1="155.6" x2="408.8" y2="149.8" stroke="rgb(0,0,0)"  stroke-width="2.0"/>
<line x1="404.4" y1="141.5" x2="377.6" y2="171.2" stroke="rgb(0,0,0)"  stroke-width="2.0"/>
<line x1="390.0" y1="209.3" x2="429.1" y2="217.6" stroke="rgb(0,0,0)"  stroke-width="2.0"/>
<line x1="429.1" y1="217.6" x2="455.9" y2="187.9" stroke="rgb(0,0,0)"  stroke-width="2.0"/>
<line x1="427.8" y1="208.3" x2="446.5" y2="187.5" stroke="rgb(0,0,0)"  stroke-width="2.0"/>
<line x1="455.9" y1="187.9" x2="443.5" y2="149.8" stroke="rgb(0,0,0)"  stroke-width="2.0"/>
<text x="298.948817" y="172.046439" fill="rgb(191,191,191)"  stroke="rgb(191,191,191)" stroke-width="1" font-size="16" >H</text>
<text x="346.276195" y="380.771830" fill="rgb(255,12,12)"  stroke="rgb(255,12,12)" stroke-width="1" font-size="16" >O</text>
<text x="306.276195" y="340.771830" fill="rgb(255,12,12)"  stroke="rgb(255,12,12)" stroke-width="1" font-size="16" >O</text>
<text x="346.276195" y="300.771830" fill="rgb(255,12,12)"  stroke="rgb(255,12,12)" stroke-width="1" font-size="16" >OH</text>
<text x="188.396251" y="281.939762" fill="rgb(191,191,191)"  stroke="rgb(191,191,191)" stroke-width="1" font-size="16" >H</text>
<text x="184.215112" y="242.158886" fill="rgb(191,191,191)"  stroke="rgb(191,191,191)" stroke-width="1" font-size="16" >H</text>
<text x="135.584966" y="302.212114" fill="rgb(191,191,191)"  stroke="rgb(191,191,191)" stroke-width="1" font-size="16" >H</text>
<text x="91.801204" y="217.040151" fill="rgb(191,191,191)"  stroke="rgb(191,191,191)" stroke-width="1" font-size="16" >H</text>
<text x="95.982342" y="256.821027" fill="rgb(191,191,191)"  stroke="rgb(191,191,191)" stroke-width="1" font-size="16" >H</text>
<text x="58.721360" y="183.536107" fill="rgb(191,191,191)"  stroke="rgb(191,191,191)" stroke-width="1" font-size="16" >H</text>
<text x="34.000000" y="107.451586" fill="rgb(191,191,191)"  stroke="rgb(191,191,191)" stroke-width="1" font-size="16" >H</text>
<text x="87.530449" y="48.000000" fill="rgb(191,191,191)"  stroke="rgb(191,191,191)" stroke-width="1" font-size="16" >H</text>
<text x="165.782257" y="64.632935" fill="rgb(191,191,191)"  stroke="rgb(191,191,191)" stroke-width="1" font-size="16" >H</text>
<text x="205.147717" y="254.342459" fill="rgb(191,191,191)"  stroke="rgb(191,191,191)" stroke-width="1" font-size="16" >H</text>
<text x="286.588137" y="134.004178" fill="rgb(191,191,191)"  stroke="rgb(191,191,191)" stroke-width="1" font-size="16" >H</text>
<text x="346.276195" y="340.771830" fill="rgb(178,178,0)"  stroke="rgb(178,178,0)" stroke-width="1" font-size="16" >S</text>
<text x="230.097120" y="136.964747" fill="rgb(191,191,191)"  stroke="rgb(191,191,191)" stroke-width="1" font-size="16" >H</text>
<text x="272.915771" y="268.747003" fill="rgb(191,191,191)"  stroke="rgb(191,191,191)" stroke-width="1" font-size="16" >H</text>
<text x="435.482443" y="263.619148" fill="rgb(191,191,191)"  stroke="rgb(191,191,191)" stroke-width="1" font-size="16" >H</text>
<text x="489.012891" y="204.167562" fill="rgb(191,191,191)"  stroke="rgb(191,191,191)" stroke-width="1" font-size="16" >H</text>
<text x="464.291532" y="128.083040" fill="rgb(191,191,191)"  stroke="rgb(191,191,191)" stroke-width="1" font-size="16" >H</text>
<text x="386.039723" y="111.450105" fill="rgb(191,191,191)"  stroke="rgb(191,191,191)" stroke-width="1" font-size="16" >H</text>
<text x="331.635179" y="315.412846" fill="rgb(191,191,191)"  stroke="rgb(191,191,191)" stroke-width="1" font-size="16" >H</text>
<text x="311.635179" y="280.771830" fill="rgb(191,191,191)"  stroke="rgb(191,191,191)" stroke-width="1" font-size="16" >H</text>
<text x="426.276195" y="300.771830" fill="rgb(191,191,191)"  stroke="rgb(191,191,191)" stroke-width="1" font-size="16" >H</text>
<text x="406.276195" y="266.130813" fill="rgb(191,191,191)"  stroke="rgb(191,191,191)" stroke-width="1" font-size="16" >H</text>
<text x="406.276195" y="415.412846" fill="rgb(191,191,191)"  stroke="rgb(191,191,191)" stroke-width="1" font-size="16" >H</text>
<text x="426.276195" y="380.771830" fill="rgb(191,191,191)"  stroke="rgb(191,191,191)" stroke-width="1" font-size="16" >H</text>
<text x="351.635179" y="400.771830" fill="rgb(191,191,191)"  stroke="rgb(191,191,191)" stroke-width="1" font-size="16" >H</text>
<text x="144.612488" y="196.767798" fill="rgb(12,12,255)"  stroke="rgb(12,12,255)" stroke-width="1" font-size="16" >N</text>
<text x="187.919530" y="148.670455" fill="rgb(178,178,0)"  stroke="rgb(178,178,0)" stroke-width="1" font-size="16" >S</text>
<text x="351.635179" y="240.771830" fill="rgb(12,12,255)"  stroke="rgb(12,12,255)" stroke-width="1" font-size="16" >N</text>
<text x="331.635179" y="179.218159" fill="rgb(178,178,0)"  stroke="rgb(178,178,0)" stroke-width="1" font-size="16" >S</text>
<text x="426.276195" y="340.771830" fill="rgb(191,191,191)"  stroke="rgb(191,191,191)" stroke-width="1" font-size="16" >H</text>
</svg>
</g>
<text font-size="18.000000" fill ="black" font-family="sans-serif"
x="10.000000" y="20.000000" >ZINC71775444</text>
</svg>
