<?xml version="1.0"?>
<svg version="1.1" id="topsvg"
xmlns="http://www.w3.org/2000/svg" xmlns:xlink="http://www.w3.org/1999/xlink"
xmlns:cml="http://www.xml-cml.org/schema" x="0" y="0" width="200px" height="200px" viewBox="0 0 100 100">
<title>ZINC32098729 - Open Babel Depiction</title>
<rect x="0" y="0" width="100" height="100" fill="white"/>
<g transform="translate(0,0)">
<svg width="100" height="100" x="0" y="0" viewBox="0 0 260 189.282"
font-family="sans-serif" stroke="rgb(0,0,0)" stroke-width="2"  stroke-linecap="round">
<line x1="180.0" y1="109.3" x2="140.0" y2="109.3" stroke="rgb(0,0,0)"  stroke-width="2.0"/>
<line x1="180.0" y1="113.5" x2="140.0" y2="113.5" stroke="rgb(0,0,0)"  stroke-width="2.0"/>
<line x1="180.0" y1="105.1" x2="140.0" y2="105.1" stroke="rgb(0,0,0)"  stroke-width="2.0"/>
<line x1="180.0" y1="109.3" x2="207.0" y2="109.3" stroke="rgb(0,0,0)"  stroke-width="2.0"/>
<line x1="140.0" y1="109.3" x2="100.0" y2="109.3" stroke="rgb(0,0,0)"  stroke-width="2.0"/>
<line x1="100.0" y1="109.3" x2="86.5" y2="85.9" stroke="rgb(0,0,0)"  stroke-width="2.0"/>
<line x1="100.0" y1="109.3" x2="76.6" y2="122.8" stroke="rgb(0,0,0)"  stroke-width="2.0"/>
<line x1="100.0" y1="109.3" x2="100.0" y2="136.3" stroke="rgb(0,0,0)"  stroke-width="2.0"/>
<line x1="86.5" y1="63.4" x2="93.5" y2="51.3" stroke="rgb(0,0,0)"  stroke-width="2.0"/>
<line x1="67.0" y1="74.6" x2="53.0" y2="74.6" stroke="rgb(0,0,0)"  stroke-width="2.0"/>
<text x="74.000000" y="82.641016" fill="rgb(12,12,255)"  stroke="rgb(12,12,255)" stroke-width="1" font-size="16" >N</text>
<text x="214.000000" y="117.282032" fill="rgb(191,191,191)"  stroke="rgb(191,191,191)" stroke-width="1" font-size="16" >H</text>
<text x="59.358984" y="137.282032" fill="rgb(191,191,191)"  stroke="rgb(191,191,191)" stroke-width="1" font-size="16" >H</text>
<text x="94.000000" y="157.282032" fill="rgb(191,191,191)"  stroke="rgb(191,191,191)" stroke-width="1" font-size="16" >H</text>
<text x="94.000000" y="48.000000" fill="rgb(191,191,191)"  stroke="rgb(191,191,191)" stroke-width="1" font-size="16" >H</text>
<text x="34.000000" y="82.641016" fill="rgb(191,191,191)"  stroke="rgb(191,191,191)" stroke-width="1" font-size="16" >H</text>
</svg>
</g>
<text font-size="18.000000" fill ="black" font-family="sans-serif"
x="10.000000" y="20.000000" >ZINC32098729</text>
</svg>
