<?xml version="1.0"?>
<svg version="1.1" id="topsvg"
xmlns="http://www.w3.org/2000/svg" xmlns:xlink="http://www.w3.org/1999/xlink"
xmlns:cml="http://www.xml-cml.org/schema" x="0" y="0" width="200px" height="200px" viewBox="0 0 100 100">
<title>ZINC00005823 - Open Babel Depiction</title>
<rect x="0" y="0" width="100" height="100" fill="white"/>
<g transform="translate(0,0)">
<svg width="100" height="100" x="0" y="0" viewBox="0 0 546.525 396.725"
font-family="sans-serif" stroke="rgb(0,0,0)" stroke-width="2"  stroke-linecap="round">
<line x1="467.4" y1="157.3" x2="433.5" y2="137.8" stroke="rgb(0,0,0)"  stroke-width="2.0"/>
<line x1="467.4" y1="157.3" x2="493.5" y2="157.3" stroke="rgb(0,0,0)"  stroke-width="2.0"/>
<line x1="467.4" y1="157.3" x2="480.5" y2="134.7" stroke="rgb(0,0,0)"  stroke-width="2.0"/>
<line x1="467.4" y1="157.3" x2="467.4" y2="183.4" stroke="rgb(0,0,0)"  stroke-width="2.0"/>
<line x1="433.5" y1="98.7" x2="456.2" y2="85.6" stroke="rgb(0,0,0)"  stroke-width="2.0"/>
<line x1="399.7" y1="79.1" x2="399.7" y2="53.0" stroke="rgb(0,0,0)"  stroke-width="2.0"/>
<line x1="365.8" y1="98.7" x2="343.2" y2="85.6" stroke="rgb(0,0,0)"  stroke-width="2.0"/>
<line x1="365.8" y1="137.8" x2="309.3" y2="170.4" stroke="rgb(0,0,0)"  stroke-width="2.0"/>
<line x1="399.7" y1="157.3" x2="399.7" y2="183.4" stroke="rgb(0,0,0)"  stroke-width="2.0"/>
<line x1="286.8" y1="170.4" x2="264.2" y2="157.3" stroke="rgb(0,0,0)"  stroke-width="2.0"/>
<line x1="298.1" y1="189.9" x2="298.1" y2="203.0" stroke="rgb(0,0,0)"  stroke-width="2.0"/>
<line x1="264.2" y1="118.2" x2="286.8" y2="105.2" stroke="rgb(0,0,0)"  stroke-width="2.0"/>
<line x1="230.3" y1="98.7" x2="230.3" y2="72.6" stroke="rgb(0,0,0)"  stroke-width="2.0"/>
<line x1="196.4" y1="157.3" x2="173.8" y2="170.4" stroke="rgb(0,0,0)"  stroke-width="2.0"/>
<line x1="230.3" y1="176.9" x2="230.3" y2="203.0" stroke="rgb(0,0,0)"  stroke-width="2.0"/>
<line x1="243.3" y1="213.0" x2="256.4" y2="213.0" stroke="rgb(0,0,0)"  stroke-width="2.0"/>
<line x1="243.3" y1="219.0" x2="256.4" y2="219.0" stroke="rgb(0,0,0)"  stroke-width="2.0"/>
<line x1="233.3" y1="229.0" x2="233.3" y2="242.1" stroke="rgb(0,0,0)"  stroke-width="2.0"/>
<line x1="227.3" y1="229.0" x2="227.3" y2="242.1" stroke="rgb(0,0,0)"  stroke-width="2.0"/>
<line x1="217.3" y1="216.0" x2="204.2" y2="216.0" stroke="rgb(0,0,0)"  stroke-width="2.0"/>
<line x1="187.3" y1="228.8" x2="174.2" y2="251.4" stroke="rgb(0,0,0)"  stroke-width="2.0"/>
<line x1="182.1" y1="225.8" x2="169.1" y2="248.4" stroke="rgb(0,0,0)"  stroke-width="2.0"/>
<line x1="171.6" y1="249.9" x2="184.7" y2="272.5" stroke="rgb(0,0,0)"  stroke-width="2.0"/>
<line x1="171.6" y1="249.9" x2="145.5" y2="249.9" stroke="rgb(0,0,0)"  stroke-width="2.0"/>
<line x1="126.0" y1="261.1" x2="113.0" y2="283.7" stroke="rgb(0,0,0)"  stroke-width="2.0"/>
<line x1="126.0" y1="238.6" x2="119.5" y2="227.3" stroke="rgb(0,0,0)"  stroke-width="2.0"/>
<line x1="113.0" y1="283.7" x2="79.1" y2="264.2" stroke="rgb(0,0,0)"  stroke-width="2.0"/>
<line x1="113.0" y1="283.7" x2="93.4" y2="317.6" stroke="rgb(0,0,0)"  stroke-width="2.0"/>
<line x1="113.0" y1="283.7" x2="135.6" y2="296.8" stroke="rgb(0,0,0)"  stroke-width="2.0"/>
<line x1="79.1" y1="264.2" x2="53.0" y2="264.2" stroke="rgb(0,0,0)"  stroke-width="2.0"/>
<line x1="79.1" y1="264.2" x2="66.1" y2="286.8" stroke="rgb(0,0,0)"  stroke-width="2.0"/>
<line x1="79.1" y1="264.2" x2="79.1" y2="238.1" stroke="rgb(0,0,0)"  stroke-width="2.0"/>
<line x1="93.4" y1="317.6" x2="93.4" y2="343.7" stroke="rgb(0,0,0)"  stroke-width="2.0"/>
<line x1="93.4" y1="317.6" x2="116.0" y2="330.7" stroke="rgb(0,0,0)"  stroke-width="2.0"/>
<line x1="93.4" y1="317.6" x2="67.3" y2="317.6" stroke="rgb(0,0,0)"  stroke-width="2.0"/>
<line x1="399.7" y1="79.1" x2="365.8" y2="98.7" stroke="rgb(0,0,0)"  stroke-width="2.0"/>
<line x1="365.8" y1="98.7" x2="365.8" y2="137.8" stroke="rgb(0,0,0)"  stroke-width="2.0"/>
<line x1="373.0" y1="104.7" x2="373.0" y2="131.8" stroke="rgb(0,0,0)"  stroke-width="2.0"/>
<line x1="365.8" y1="137.8" x2="399.7" y2="157.3" stroke="rgb(0,0,0)"  stroke-width="2.0"/>
<line x1="399.7" y1="157.3" x2="433.5" y2="137.8" stroke="rgb(0,0,0)"  stroke-width="2.0"/>
<line x1="401.3" y1="148.1" x2="424.7" y2="134.5" stroke="rgb(0,0,0)"  stroke-width="2.0"/>
<line x1="433.5" y1="137.8" x2="433.5" y2="98.7" stroke="rgb(0,0,0)"  stroke-width="2.0"/>
<line x1="433.5" y1="98.7" x2="399.7" y2="79.1" stroke="rgb(0,0,0)"  stroke-width="2.0"/>
<line x1="424.7" y1="101.9" x2="401.3" y2="88.3" stroke="rgb(0,0,0)"  stroke-width="2.0"/>
<line x1="230.3" y1="98.7" x2="207.7" y2="111.7" stroke="rgb(0,0,0)"  stroke-width="2.0"/>
<line x1="196.4" y1="131.1" x2="196.4" y2="157.3" stroke="rgb(0,0,0)"  stroke-width="2.0"/>
<line x1="203.6" y1="133.2" x2="203.6" y2="151.3" stroke="rgb(0,0,0)"  stroke-width="2.0"/>
<line x1="196.4" y1="157.3" x2="230.3" y2="176.9" stroke="rgb(0,0,0)"  stroke-width="2.0"/>
<line x1="230.3" y1="176.9" x2="264.2" y2="157.3" stroke="rgb(0,0,0)"  stroke-width="2.0"/>
<line x1="231.9" y1="167.7" x2="255.4" y2="154.1" stroke="rgb(0,0,0)"  stroke-width="2.0"/>
<line x1="264.2" y1="157.3" x2="264.2" y2="118.2" stroke="rgb(0,0,0)"  stroke-width="2.0"/>
<line x1="264.2" y1="118.2" x2="230.3" y2="98.7" stroke="rgb(0,0,0)"  stroke-width="2.0"/>
<line x1="255.4" y1="121.5" x2="231.9" y2="107.9" stroke="rgb(0,0,0)"  stroke-width="2.0"/>
<text x="292.058092" y="106.666667" fill="rgb(191,191,191)"  stroke="rgb(191,191,191)" stroke-width="1" font-size="16" >H</text>
<text x="500.525282" y="165.333333" fill="rgb(191,191,191)"  stroke="rgb(191,191,191)" stroke-width="1" font-size="16" >H</text>
<text x="480.969726" y="131.462118" fill="rgb(191,191,191)"  stroke="rgb(191,191,191)" stroke-width="1" font-size="16" >H</text>
<text x="461.414171" y="204.444444" fill="rgb(191,191,191)"  stroke="rgb(191,191,191)" stroke-width="1" font-size="16" >H</text>
<text x="461.414171" y="87.111111" fill="rgb(191,191,191)"  stroke="rgb(191,191,191)" stroke-width="1" font-size="16" >H</text>
<text x="393.671739" y="48.000000" fill="rgb(191,191,191)"  stroke="rgb(191,191,191)" stroke-width="1" font-size="16" >H</text>
<text x="325.929308" y="87.111111" fill="rgb(191,191,191)"  stroke="rgb(191,191,191)" stroke-width="1" font-size="16" >H</text>
<text x="393.671739" y="204.444444" fill="rgb(191,191,191)"  stroke="rgb(191,191,191)" stroke-width="1" font-size="16" >H</text>
<text x="292.058092" y="224.000000" fill="rgb(191,191,191)"  stroke="rgb(191,191,191)" stroke-width="1" font-size="16" >H</text>
<text x="224.315660" y="67.555556" fill="rgb(191,191,191)"  stroke="rgb(191,191,191)" stroke-width="1" font-size="16" >H</text>
<text x="156.573229" y="184.888889" fill="rgb(191,191,191)"  stroke="rgb(191,191,191)" stroke-width="1" font-size="16" >H</text>
<text x="106.982327" y="224.000000" fill="rgb(191,191,191)"  stroke="rgb(191,191,191)" stroke-width="1" font-size="16" >H</text>
<text x="140.853543" y="311.297987" fill="rgb(191,191,191)"  stroke="rgb(191,191,191)" stroke-width="1" font-size="16" >H</text>
<text x="34.000000" y="272.186876" fill="rgb(191,191,191)"  stroke="rgb(191,191,191)" stroke-width="1" font-size="16" >H</text>
<text x="53.555556" y="306.058092" fill="rgb(191,191,191)"  stroke="rgb(191,191,191)" stroke-width="1" font-size="16" >H</text>
<text x="73.111111" y="233.075765" fill="rgb(191,191,191)"  stroke="rgb(191,191,191)" stroke-width="1" font-size="16" >H</text>
<text x="87.426771" y="364.724758" fill="rgb(191,191,191)"  stroke="rgb(191,191,191)" stroke-width="1" font-size="16" >H</text>
<text x="121.297987" y="345.169203" fill="rgb(191,191,191)"  stroke="rgb(191,191,191)" stroke-width="1" font-size="16" >H</text>
<text x="48.315660" y="325.613647" fill="rgb(191,191,191)"  stroke="rgb(191,191,191)" stroke-width="1" font-size="16" >H</text>
<text x="190.444444" y="126.222222" fill="rgb(12,12,255)"  stroke="rgb(12,12,255)" stroke-width="1" font-size="16" >N</text>
<text x="292.058092" y="184.888889" fill="rgb(12,12,255)"  stroke="rgb(12,12,255)" stroke-width="1" font-size="16" >N</text>
<text x="224.315660" y="224.000000" fill="rgb(178,178,0)"  stroke="rgb(178,178,0)" stroke-width="1" font-size="16" >S</text>
<text x="263.426771" y="224.000000" fill="rgb(255,12,12)"  stroke="rgb(255,12,12)" stroke-width="1" font-size="16" >O</text>
<text x="224.315660" y="263.111111" fill="rgb(255,12,12)"  stroke="rgb(255,12,12)" stroke-width="1" font-size="16" >O</text>
<text x="185.204549" y="224.000000" fill="rgb(12,12,255)"  stroke="rgb(12,12,255)" stroke-width="1" font-size="16" >N</text>
<text x="185.204549" y="291.742432" fill="rgb(255,12,12)"  stroke="rgb(255,12,12)" stroke-width="1" font-size="16" >OH</text>
<text x="126.537882" y="257.871216" fill="rgb(12,12,255)"  stroke="rgb(12,12,255)" stroke-width="1" font-size="16" >N</text>
</svg>
</g>
<text font-size="18.000000" fill ="black" font-family="sans-serif"
x="10.000000" y="20.000000" >ZINC00005823</text>
</svg>
