<?xml version="1.0"?>
<svg version="1.1" id="topsvg"
xmlns="http://www.w3.org/2000/svg" xmlns:xlink="http://www.w3.org/1999/xlink"
xmlns:cml="http://www.xml-cml.org/schema" x="0" y="0" width="200px" height="200px" viewBox="0 0 100 100">
<title>ZINC86003101 - Open Babel Depiction</title>
<rect x="0" y="0" width="100" height="100" fill="white"/>
<g transform="translate(0,0)">
<svg width="100" height="100" x="0" y="0" viewBox="0 0 441.356 425.616"
font-family="sans-serif" stroke="rgb(0,0,0)" stroke-width="2"  stroke-linecap="round">
<line x1="346.7" y1="77.9" x2="339.9" y2="103.2" stroke="rgb(0,0,0)"  stroke-width="2.0"/>
<line x1="346.7" y1="77.9" x2="339.9" y2="52.6" stroke="rgb(0,0,0)"  stroke-width="2.0"/>
<line x1="346.7" y1="77.9" x2="321.4" y2="71.1" stroke="rgb(0,0,0)"  stroke-width="2.0"/>
<line x1="346.7" y1="77.9" x2="372.0" y2="71.1" stroke="rgb(0,0,0)"  stroke-width="2.0"/>
<line x1="324.0" y1="119.1" x2="298.7" y2="125.9" stroke="rgb(0,0,0)"  stroke-width="2.0"/>
<line x1="345.7" y1="125.0" x2="355.1" y2="134.3" stroke="rgb(0,0,0)"  stroke-width="2.0"/>
<line x1="296.5" y1="128.0" x2="278.0" y2="109.5" stroke="rgb(0,0,0)"  stroke-width="2.0"/>
<line x1="300.8" y1="123.8" x2="282.2" y2="105.3" stroke="rgb(0,0,0)"  stroke-width="2.0"/>
<line x1="298.7" y1="125.9" x2="288.5" y2="163.8" stroke="rgb(0,0,0)"  stroke-width="2.0"/>
<polygon points="288.507258 163.788099 314.921761 166.724739 312.851209 174.452146 " stroke-width="2.000000" fill="rgb(0,0,0)"  stroke="rgb(0,0,0)" />
<line x1="288.5" y1="163.8" x2="278.4" y2="201.7" stroke="rgb(0,0,0)"  stroke-width="2.0"/>
<line x1="288.5" y1="163.8" x2="263.2" y2="157.0" stroke="rgb(0,0,0)"  stroke-width="2.0"/>
<line x1="278.4" y1="201.7" x2="306.1" y2="229.4" stroke="rgb(0,0,0)"  stroke-width="2.0"/>
<line x1="278.4" y1="201.7" x2="259.8" y2="220.2" stroke="rgb(0,0,0)"  stroke-width="2.0"/>
<line x1="278.4" y1="201.7" x2="253.0" y2="194.9" stroke="rgb(0,0,0)"  stroke-width="2.0"/>
<line x1="344.8" y1="223.3" x2="356.7" y2="199.9" stroke="rgb(0,0,0)"  stroke-width="2.0"/>
<line x1="375.5" y1="260.2" x2="388.5" y2="262.3" stroke="rgb(0,0,0)"  stroke-width="2.0"/>
<line x1="267.1" y1="289.5" x2="243.7" y2="277.6" stroke="rgb(0,0,0)"  stroke-width="2.0"/>
<line x1="269.1" y1="328.7" x2="247.1" y2="342.9" stroke="rgb(0,0,0)"  stroke-width="2.0"/>
<line x1="304.1" y1="346.5" x2="305.4" y2="372.6" stroke="rgb(0,0,0)"  stroke-width="2.0"/>
<line x1="336.9" y1="325.1" x2="360.3" y2="337.0" stroke="rgb(0,0,0)"  stroke-width="2.0"/>
<line x1="241.4" y1="162.8" x2="222.9" y2="181.4" stroke="rgb(0,0,0)"  stroke-width="2.0"/>
<line x1="247.3" y1="141.1" x2="243.8" y2="128.3" stroke="rgb(0,0,0)"  stroke-width="2.0"/>
<line x1="225.8" y1="180.6" x2="232.6" y2="205.9" stroke="rgb(0,0,0)"  stroke-width="2.0"/>
<line x1="220.0" y1="182.1" x2="226.8" y2="207.5" stroke="rgb(0,0,0)"  stroke-width="2.0"/>
<line x1="222.9" y1="181.4" x2="147.1" y2="161.1" stroke="rgb(0,0,0)"  stroke-width="2.0"/>
<polygon points="147.139247 161.068477 139.743956 135.540854 147.675515 134.496645 " stroke-width="2.000000" fill="rgb(0,0,0)"  stroke="rgb(0,0,0)" />
<line x1="147.1" y1="200.3" x2="173.4" y2="200.3" stroke="rgb(0,0,0)"  stroke-width="2.0"/>
<line x1="147.1" y1="200.3" x2="160.2" y2="223.0" stroke="rgb(0,0,0)"  stroke-width="2.0"/>
<line x1="113.2" y1="219.9" x2="126.3" y2="242.6" stroke="rgb(0,0,0)"  stroke-width="2.0"/>
<line x1="113.2" y1="219.9" x2="100.1" y2="242.6" stroke="rgb(0,0,0)"  stroke-width="2.0"/>
<line x1="79.2" y1="200.3" x2="66.1" y2="223.0" stroke="rgb(0,0,0)"  stroke-width="2.0"/>
<line x1="79.2" y1="200.3" x2="53.0" y2="200.3" stroke="rgb(0,0,0)"  stroke-width="2.0"/>
<line x1="79.2" y1="161.1" x2="53.0" y2="161.1" stroke="rgb(0,0,0)"  stroke-width="2.0"/>
<line x1="79.2" y1="161.1" x2="66.1" y2="138.4" stroke="rgb(0,0,0)"  stroke-width="2.0"/>
<line x1="113.2" y1="128.5" x2="113.2" y2="115.2" stroke="rgb(0,0,0)"  stroke-width="2.0"/>
<line x1="353.4" y1="267.4" x2="334.9" y2="285.9" stroke="rgb(0,0,0)"  stroke-width="2.0"/>
<line x1="334.9" y1="285.9" x2="300.0" y2="268.1" stroke="rgb(0,0,0)"  stroke-width="2.0"/>
<line x1="300.0" y1="268.1" x2="306.1" y2="229.4" stroke="rgb(0,0,0)"  stroke-width="2.0"/>
<line x1="306.1" y1="229.4" x2="344.8" y2="223.3" stroke="rgb(0,0,0)"  stroke-width="2.0"/>
<line x1="313.1" y1="235.6" x2="340.0" y2="231.3" stroke="rgb(0,0,0)"  stroke-width="2.0"/>
<line x1="344.8" y1="223.3" x2="356.7" y2="246.6" stroke="rgb(0,0,0)"  stroke-width="2.0"/>
<line x1="304.1" y1="346.5" x2="269.1" y2="328.7" stroke="rgb(0,0,0)"  stroke-width="2.0"/>
<line x1="302.0" y1="337.3" x2="277.7" y2="325.0" stroke="rgb(0,0,0)"  stroke-width="2.0"/>
<line x1="269.1" y1="328.7" x2="267.1" y2="289.5" stroke="rgb(0,0,0)"  stroke-width="2.0"/>
<line x1="267.1" y1="289.5" x2="300.0" y2="268.1" stroke="rgb(0,0,0)"  stroke-width="2.0"/>
<line x1="276.0" y1="292.3" x2="298.8" y2="277.4" stroke="rgb(0,0,0)"  stroke-width="2.0"/>
<line x1="334.9" y1="285.9" x2="336.9" y2="325.1" stroke="rgb(0,0,0)"  stroke-width="2.0"/>
<line x1="328.0" y1="292.3" x2="329.4" y2="319.5" stroke="rgb(0,0,0)"  stroke-width="2.0"/>
<line x1="336.9" y1="325.1" x2="304.1" y2="346.5" stroke="rgb(0,0,0)"  stroke-width="2.0"/>
<line x1="113.2" y1="219.9" x2="79.2" y2="200.3" stroke="rgb(0,0,0)"  stroke-width="2.0"/>
<line x1="79.2" y1="200.3" x2="79.2" y2="161.1" stroke="rgb(0,0,0)"  stroke-width="2.0"/>
<line x1="79.2" y1="161.1" x2="101.9" y2="148.0" stroke="rgb(0,0,0)"  stroke-width="2.0"/>
<line x1="124.4" y1="148.0" x2="147.1" y2="161.1" stroke="rgb(0,0,0)"  stroke-width="2.0"/>
<line x1="147.1" y1="161.1" x2="147.1" y2="200.3" stroke="rgb(0,0,0)"  stroke-width="2.0"/>
<line x1="147.1" y1="200.3" x2="113.2" y2="219.9" stroke="rgb(0,0,0)"  stroke-width="2.0"/>
<text x="300.109655" y="393.615925" fill="rgb(191,191,191)"  stroke="rgb(191,191,191)" stroke-width="1" font-size="16" >H</text>
<text x="107.177467" y="149.460634" fill="rgb(12,12,255)"  stroke="rgb(12,12,255)" stroke-width="1" font-size="16" >N</text>
<text x="330.536468" y="48.000000" fill="rgb(191,191,191)"  stroke="rgb(191,191,191)" stroke-width="1" font-size="16" >H</text>
<text x="302.806791" y="75.729678" fill="rgb(191,191,191)"  stroke="rgb(191,191,191)" stroke-width="1" font-size="16" >H</text>
<text x="378.565679" y="75.729678" fill="rgb(191,191,191)"  stroke="rgb(191,191,191)" stroke-width="1" font-size="16" >H</text>
<text x="358.266146" y="151.488566" fill="rgb(191,191,191)"  stroke="rgb(191,191,191)" stroke-width="1" font-size="16" >H</text>
<text x="244.627813" y="237.397221" fill="rgb(191,191,191)"  stroke="rgb(191,191,191)" stroke-width="1" font-size="16" >H</text>
<text x="234.478047" y="199.517777" fill="rgb(191,191,191)"  stroke="rgb(191,191,191)" stroke-width="1" font-size="16" >H</text>
<text x="356.623594" y="196.321104" fill="rgb(191,191,191)"  stroke="rgb(191,191,191)" stroke-width="1" font-size="16" >H</text>
<text x="226.122010" y="279.684941" fill="rgb(191,191,191)"  stroke="rgb(191,191,191)" stroke-width="1" font-size="16" >H</text>
<text x="230.226791" y="358.008827" fill="rgb(191,191,191)"  stroke="rgb(191,191,191)" stroke-width="1" font-size="16" >H</text>
<text x="365.887739" y="350.899138" fill="rgb(191,191,191)"  stroke="rgb(191,191,191)" stroke-width="1" font-size="16" >H</text>
<text x="234.478047" y="123.758888" fill="rgb(191,191,191)"  stroke="rgb(191,191,191)" stroke-width="1" font-size="16" >H</text>
<text x="180.354934" y="208.284164" fill="rgb(191,191,191)"  stroke="rgb(191,191,191)" stroke-width="1" font-size="16" >H</text>
<text x="160.747090" y="242.245944" fill="rgb(191,191,191)"  stroke="rgb(191,191,191)" stroke-width="1" font-size="16" >H</text>
<text x="126.785310" y="261.853787" fill="rgb(191,191,191)"  stroke="rgb(191,191,191)" stroke-width="1" font-size="16" >H</text>
<text x="87.569624" y="261.853787" fill="rgb(191,191,191)"  stroke="rgb(191,191,191)" stroke-width="1" font-size="16" >H</text>
<text x="53.607843" y="242.245944" fill="rgb(191,191,191)"  stroke="rgb(191,191,191)" stroke-width="1" font-size="16" >H</text>
<text x="34.000000" y="208.284164" fill="rgb(191,191,191)"  stroke="rgb(191,191,191)" stroke-width="1" font-size="16" >H</text>
<text x="34.000000" y="169.068477" fill="rgb(191,191,191)"  stroke="rgb(191,191,191)" stroke-width="1" font-size="16" >H</text>
<text x="53.607843" y="135.106697" fill="rgb(191,191,191)"  stroke="rgb(191,191,191)" stroke-width="1" font-size="16" >H</text>
<text x="107.177467" y="110.244948" fill="rgb(191,191,191)"  stroke="rgb(191,191,191)" stroke-width="1" font-size="16" >H</text>
<text x="330.536468" y="123.758888" fill="rgb(12,12,255)"  stroke="rgb(12,12,255)" stroke-width="1" font-size="16" >N</text>
<text x="264.927346" y="106.178977" fill="rgb(255,12,12)"  stroke="rgb(255,12,12)" stroke-width="1" font-size="16" >O</text>
<text x="320.386702" y="181.937865" fill="rgb(191,191,191)"  stroke="rgb(191,191,191)" stroke-width="1" font-size="16" >H</text>
<text x="356.623594" y="266.203968" fill="rgb(12,12,255)"  stroke="rgb(12,12,255)" stroke-width="1" font-size="16" >N</text>
<text x="395.356470" y="272.338653" fill="rgb(191,191,191)"  stroke="rgb(191,191,191)" stroke-width="1" font-size="16" >H</text>
<text x="244.627813" y="161.638333" fill="rgb(12,12,255)"  stroke="rgb(12,12,255)" stroke-width="1" font-size="16" >N</text>
<text x="227.047902" y="227.247454" fill="rgb(255,12,12)"  stroke="rgb(255,12,12)" stroke-width="1" font-size="16" >O</text>
<text x="136.020573" y="130.188287" fill="rgb(191,191,191)"  stroke="rgb(191,191,191)" stroke-width="1" font-size="16" >H</text>
</svg>
</g>
<text font-size="18.000000" fill ="black" font-family="sans-serif"
x="10.000000" y="20.000000" >ZINC86003101</text>
</svg>
