<?xml version="1.0"?>
<svg version="1.1" id="topsvg"
xmlns="http://www.w3.org/2000/svg" xmlns:xlink="http://www.w3.org/1999/xlink"
xmlns:cml="http://www.xml-cml.org/schema" x="0" y="0" width="200px" height="200px" viewBox="0 0 100 100">
<title>ZINC19171864 - Open Babel Depiction</title>
<rect x="0" y="0" width="100" height="100" fill="white"/>
<g transform="translate(0,0)">
<svg width="100" height="100" x="0" y="0" viewBox="0 0 314.641 278.564"
font-family="sans-serif" stroke="rgb(0,0,0)" stroke-width="2"  stroke-linecap="round">
<line x1="240.0" y1="109.3" x2="200.0" y2="109.3" stroke="rgb(0,0,0)"  stroke-width="2.0"/>
<line x1="240.0" y1="109.3" x2="263.4" y2="95.8" stroke="rgb(0,0,0)"  stroke-width="2.0"/>
<line x1="240.0" y1="109.3" x2="240.0" y2="82.3" stroke="rgb(0,0,0)"  stroke-width="2.0"/>
<line x1="240.0" y1="109.3" x2="253.5" y2="132.7" stroke="rgb(0,0,0)"  stroke-width="2.0"/>
<line x1="180.0" y1="74.6" x2="193.5" y2="51.3" stroke="rgb(0,0,0)"  stroke-width="2.0"/>
<line x1="140.0" y1="74.6" x2="126.5" y2="51.3" stroke="rgb(0,0,0)"  stroke-width="2.0"/>
<line x1="120.0" y1="109.3" x2="93.0" y2="109.3" stroke="rgb(0,0,0)"  stroke-width="2.0"/>
<line x1="140.0" y1="143.9" x2="120.0" y2="178.6" stroke="rgb(0,0,0)"  stroke-width="2.0"/>
<line x1="180.0" y1="143.9" x2="193.5" y2="167.3" stroke="rgb(0,0,0)"  stroke-width="2.0"/>
<line x1="120.0" y1="178.6" x2="93.0" y2="178.6" stroke="rgb(0,0,0)"  stroke-width="2.0"/>
<line x1="120.0" y1="178.6" x2="120.0" y2="205.6" stroke="rgb(0,0,0)"  stroke-width="2.0"/>
<line x1="120.0" y1="178.6" x2="143.4" y2="192.1" stroke="rgb(0,0,0)"  stroke-width="2.0"/>
<line x1="80.0" y1="191.6" x2="80.0" y2="205.6" stroke="rgb(0,0,0)"  stroke-width="2.0"/>
<line x1="67.0" y1="178.6" x2="53.0" y2="178.6" stroke="rgb(0,0,0)"  stroke-width="2.0"/>
<line x1="80.0" y1="165.6" x2="80.0" y2="151.6" stroke="rgb(0,0,0)"  stroke-width="2.0"/>
<line x1="91.3" y1="225.1" x2="103.4" y2="232.1" stroke="rgb(0,0,0)"  stroke-width="2.0"/>
<line x1="68.7" y1="225.1" x2="56.6" y2="232.1" stroke="rgb(0,0,0)"  stroke-width="2.0"/>
<line x1="140.0" y1="74.6" x2="120.0" y2="109.3" stroke="rgb(0,0,0)"  stroke-width="2.0"/>
<line x1="120.0" y1="109.3" x2="140.0" y2="143.9" stroke="rgb(0,0,0)"  stroke-width="2.0"/>
<line x1="129.2" y1="110.9" x2="143.2" y2="135.1" stroke="rgb(0,0,0)"  stroke-width="2.0"/>
<line x1="140.0" y1="143.9" x2="180.0" y2="143.9" stroke="rgb(0,0,0)"  stroke-width="2.0"/>
<line x1="180.0" y1="143.9" x2="200.0" y2="109.3" stroke="rgb(0,0,0)"  stroke-width="2.0"/>
<line x1="176.8" y1="135.1" x2="190.8" y2="110.9" stroke="rgb(0,0,0)"  stroke-width="2.0"/>
<line x1="200.0" y1="109.3" x2="180.0" y2="74.6" stroke="rgb(0,0,0)"  stroke-width="2.0"/>
<line x1="180.0" y1="74.6" x2="140.0" y2="74.6" stroke="rgb(0,0,0)"  stroke-width="2.0"/>
<line x1="174.0" y1="81.8" x2="146.0" y2="81.8" stroke="rgb(0,0,0)"  stroke-width="2.0"/>
<text x="234.000000" y="77.282032" fill="rgb(191,191,191)"  stroke="rgb(191,191,191)" stroke-width="1" font-size="16" >H</text>
<text x="74.000000" y="146.564065" fill="rgb(191,191,191)"  stroke="rgb(191,191,191)" stroke-width="1" font-size="16" >H</text>
<text x="39.358984" y="246.564065" fill="rgb(191,191,191)"  stroke="rgb(191,191,191)" stroke-width="1" font-size="16" >H</text>
<text x="108.641016" y="246.564065" fill="rgb(191,191,191)"  stroke="rgb(191,191,191)" stroke-width="1" font-size="16" >H</text>
<text x="34.000000" y="186.564065" fill="rgb(191,191,191)"  stroke="rgb(191,191,191)" stroke-width="1" font-size="16" >H</text>
<text x="148.641016" y="206.564065" fill="rgb(191,191,191)"  stroke="rgb(191,191,191)" stroke-width="1" font-size="16" >H</text>
<text x="114.000000" y="226.564065" fill="rgb(191,191,191)"  stroke="rgb(191,191,191)" stroke-width="1" font-size="16" >H</text>
<text x="194.000000" y="186.564065" fill="rgb(191,191,191)"  stroke="rgb(191,191,191)" stroke-width="1" font-size="16" >H</text>
<text x="74.000000" y="117.282032" fill="rgb(191,191,191)"  stroke="rgb(191,191,191)" stroke-width="1" font-size="16" >H</text>
<text x="114.000000" y="48.000000" fill="rgb(191,191,191)"  stroke="rgb(191,191,191)" stroke-width="1" font-size="16" >H</text>
<text x="194.000000" y="48.000000" fill="rgb(191,191,191)"  stroke="rgb(191,191,191)" stroke-width="1" font-size="16" >H</text>
<text x="254.000000" y="151.923048" fill="rgb(191,191,191)"  stroke="rgb(191,191,191)" stroke-width="1" font-size="16" >H</text>
<text x="268.641016" y="97.282032" fill="rgb(191,191,191)"  stroke="rgb(191,191,191)" stroke-width="1" font-size="16" >H</text>
<text x="74.000000" y="226.564065" fill="rgb(12,12,255)"  stroke="rgb(12,12,255)" stroke-width="1" font-size="16" >N</text>
<text x="84.800000" y="174.532065" fill="rgb(12,12,255)"  stroke="rgb(12,12,255)" stroke-width="1" font-size="16" >+</text>
<text x="74.000000" y="186.564065" fill="rgb(12,12,255)"  stroke="rgb(12,12,255)" stroke-width="1" font-size="16" >N</text>
</svg>
</g>
<text font-size="18.000000" fill ="black" font-family="sans-serif"
x="10.000000" y="20.000000" >ZINC19171864</text>
</svg>
