<?xml version="1.0"?>
<svg version="1.1" id="topsvg"
xmlns="http://www.w3.org/2000/svg" xmlns:xlink="http://www.w3.org/1999/xlink"
xmlns:cml="http://www.xml-cml.org/schema" x="0" y="0" width="200px" height="200px" viewBox="0 0 100 100">
<title>ZINC03861309 - Open Babel Depiction</title>
<rect x="0" y="0" width="100" height="100" fill="white"/>
<g transform="translate(0,0)">
<svg width="100" height="100" x="0" y="0" viewBox="0 0 520 287.846"
font-family="sans-serif" stroke="rgb(0,0,0)" stroke-width="2"  stroke-linecap="round">
<line x1="440.0" y1="109.3" x2="420.0" y2="143.9" stroke="rgb(0,0,0)"  stroke-width="2.0"/>
<line x1="440.0" y1="109.3" x2="440.0" y2="82.3" stroke="rgb(0,0,0)"  stroke-width="2.0"/>
<line x1="440.0" y1="109.3" x2="416.6" y2="95.8" stroke="rgb(0,0,0)"  stroke-width="2.0"/>
<line x1="440.0" y1="109.3" x2="467.0" y2="109.3" stroke="rgb(0,0,0)"  stroke-width="2.0"/>
<line x1="420.0" y1="143.9" x2="393.0" y2="143.9" stroke="rgb(0,0,0)"  stroke-width="2.0"/>
<line x1="420.0" y1="143.9" x2="420.0" y2="170.9" stroke="rgb(0,0,0)"  stroke-width="2.0"/>
<line x1="420.0" y1="143.9" x2="443.4" y2="157.4" stroke="rgb(0,0,0)"  stroke-width="2.0"/>
<line x1="380.0" y1="156.9" x2="380.0" y2="183.9" stroke="rgb(0,0,0)"  stroke-width="2.0"/>
<line x1="367.0" y1="143.9" x2="340.0" y2="143.9" stroke="rgb(0,0,0)"  stroke-width="2.0"/>
<line x1="380.0" y1="130.9" x2="380.0" y2="116.9" stroke="rgb(0,0,0)"  stroke-width="2.0"/>
<line x1="380.0" y1="183.9" x2="414.6" y2="203.9" stroke="rgb(0,0,0)"  stroke-width="2.0"/>
<line x1="380.0" y1="183.9" x2="366.5" y2="207.3" stroke="rgb(0,0,0)"  stroke-width="2.0"/>
<line x1="380.0" y1="183.9" x2="353.0" y2="183.9" stroke="rgb(0,0,0)"  stroke-width="2.0"/>
<line x1="414.6" y1="203.9" x2="428.1" y2="227.3" stroke="rgb(0,0,0)"  stroke-width="2.0"/>
<line x1="414.6" y1="203.9" x2="401.1" y2="227.3" stroke="rgb(0,0,0)"  stroke-width="2.0"/>
<line x1="414.6" y1="203.9" x2="438.0" y2="190.4" stroke="rgb(0,0,0)"  stroke-width="2.0"/>
<line x1="320.0" y1="178.6" x2="333.5" y2="201.9" stroke="rgb(0,0,0)"  stroke-width="2.0"/>
<line x1="282.6" y1="180.1" x2="269.1" y2="203.4" stroke="rgb(0,0,0)"  stroke-width="2.0"/>
<line x1="277.4" y1="177.1" x2="263.9" y2="200.4" stroke="rgb(0,0,0)"  stroke-width="2.0"/>
<line x1="266.5" y1="224.5" x2="273.5" y2="236.6" stroke="rgb(0,0,0)"  stroke-width="2.0"/>
<line x1="260.0" y1="146.9" x2="233.0" y2="146.9" stroke="rgb(0,0,0)"  stroke-width="2.0"/>
<line x1="260.0" y1="140.9" x2="233.0" y2="140.9" stroke="rgb(0,0,0)"  stroke-width="2.0"/>
<line x1="213.5" y1="132.7" x2="206.5" y2="120.5" stroke="rgb(0,0,0)"  stroke-width="2.0"/>
<line x1="187.0" y1="109.3" x2="160.0" y2="109.3" stroke="rgb(0,0,0)"  stroke-width="2.0"/>
<line x1="206.5" y1="98.0" x2="213.5" y2="85.9" stroke="rgb(0,0,0)"  stroke-width="2.0"/>
<line x1="140.0" y1="143.9" x2="153.5" y2="167.3" stroke="rgb(0,0,0)"  stroke-width="2.0"/>
<line x1="100.0" y1="143.9" x2="86.5" y2="167.3" stroke="rgb(0,0,0)"  stroke-width="2.0"/>
<line x1="80.0" y1="109.3" x2="53.0" y2="109.3" stroke="rgb(0,0,0)"  stroke-width="2.0"/>
<line x1="100.0" y1="74.6" x2="86.5" y2="51.3" stroke="rgb(0,0,0)"  stroke-width="2.0"/>
<line x1="280.0" y1="109.3" x2="266.5" y2="85.9" stroke="rgb(0,0,0)"  stroke-width="2.0"/>
<line x1="320.0" y1="109.3" x2="333.5" y2="85.9" stroke="rgb(0,0,0)"  stroke-width="2.0"/>
<line x1="100.0" y1="143.9" x2="80.0" y2="109.3" stroke="rgb(0,0,0)"  stroke-width="2.0"/>
<line x1="80.0" y1="109.3" x2="100.0" y2="74.6" stroke="rgb(0,0,0)"  stroke-width="2.0"/>
<line x1="89.2" y1="107.7" x2="103.2" y2="83.4" stroke="rgb(0,0,0)"  stroke-width="2.0"/>
<line x1="100.0" y1="74.6" x2="127.0" y2="74.6" stroke="rgb(0,0,0)"  stroke-width="2.0"/>
<line x1="146.6" y1="86.1" x2="160.0" y2="109.3" stroke="rgb(0,0,0)"  stroke-width="2.0"/>
<line x1="141.4" y1="91.4" x2="150.8" y2="107.7" stroke="rgb(0,0,0)"  stroke-width="2.0"/>
<line x1="160.0" y1="109.3" x2="140.0" y2="143.9" stroke="rgb(0,0,0)"  stroke-width="2.0"/>
<line x1="140.0" y1="143.9" x2="100.0" y2="143.9" stroke="rgb(0,0,0)"  stroke-width="2.0"/>
<line x1="134.0" y1="136.7" x2="106.0" y2="136.7" stroke="rgb(0,0,0)"  stroke-width="2.0"/>
<line x1="280.0" y1="178.6" x2="260.0" y2="143.9" stroke="rgb(0,0,0)"  stroke-width="2.0"/>
<line x1="260.0" y1="143.9" x2="280.0" y2="109.3" stroke="rgb(0,0,0)"  stroke-width="2.0"/>
<line x1="280.0" y1="109.3" x2="320.0" y2="109.3" stroke="rgb(0,0,0)"  stroke-width="2.0"/>
<line x1="286.0" y1="116.5" x2="314.0" y2="116.5" stroke="rgb(0,0,0)"  stroke-width="2.0"/>
<line x1="320.0" y1="109.3" x2="340.0" y2="143.9" stroke="rgb(0,0,0)"  stroke-width="2.0"/>
<line x1="340.0" y1="143.9" x2="320.0" y2="178.6" stroke="rgb(0,0,0)"  stroke-width="2.0"/>
<line x1="330.8" y1="145.5" x2="316.8" y2="169.8" stroke="rgb(0,0,0)"  stroke-width="2.0"/>
<line x1="320.0" y1="178.6" x2="280.0" y2="178.6" stroke="rgb(0,0,0)"  stroke-width="2.0"/>
<text x="443.282032" y="191.923048" fill="rgb(191,191,191)"  stroke="rgb(191,191,191)" stroke-width="1" font-size="16" >H</text>
<text x="434.000000" y="77.282032" fill="rgb(191,191,191)"  stroke="rgb(191,191,191)" stroke-width="1" font-size="16" >H</text>
<text x="399.358984" y="97.282032" fill="rgb(191,191,191)"  stroke="rgb(191,191,191)" stroke-width="1" font-size="16" >H</text>
<text x="474.000000" y="117.282032" fill="rgb(191,191,191)"  stroke="rgb(191,191,191)" stroke-width="1" font-size="16" >H</text>
<text x="414.000000" y="191.923048" fill="rgb(191,191,191)"  stroke="rgb(191,191,191)" stroke-width="1" font-size="16" >H</text>
<text x="448.641016" y="171.923048" fill="rgb(191,191,191)"  stroke="rgb(191,191,191)" stroke-width="1" font-size="16" >H</text>
<text x="354.000000" y="226.564065" fill="rgb(191,191,191)"  stroke="rgb(191,191,191)" stroke-width="1" font-size="16" >H</text>
<text x="334.000000" y="191.923048" fill="rgb(191,191,191)"  stroke="rgb(191,191,191)" stroke-width="1" font-size="16" >H</text>
<text x="428.641016" y="246.564065" fill="rgb(191,191,191)"  stroke="rgb(191,191,191)" stroke-width="1" font-size="16" >H</text>
<text x="388.641016" y="246.564065" fill="rgb(191,191,191)"  stroke="rgb(191,191,191)" stroke-width="1" font-size="16" >H</text>
<text x="334.000000" y="221.205081" fill="rgb(191,191,191)"  stroke="rgb(191,191,191)" stroke-width="1" font-size="16" >H</text>
<text x="214.000000" y="82.641016" fill="rgb(191,191,191)"  stroke="rgb(191,191,191)" stroke-width="1" font-size="16" >H</text>
<text x="154.000000" y="186.564065" fill="rgb(191,191,191)"  stroke="rgb(191,191,191)" stroke-width="1" font-size="16" >H</text>
<text x="74.000000" y="186.564065" fill="rgb(191,191,191)"  stroke="rgb(191,191,191)" stroke-width="1" font-size="16" >H</text>
<text x="74.000000" y="48.000000" fill="rgb(191,191,191)"  stroke="rgb(191,191,191)" stroke-width="1" font-size="16" >H</text>
<text x="254.000000" y="82.641016" fill="rgb(191,191,191)"  stroke="rgb(191,191,191)" stroke-width="1" font-size="16" >H</text>
<text x="334.000000" y="82.641016" fill="rgb(191,191,191)"  stroke="rgb(191,191,191)" stroke-width="1" font-size="16" >H</text>
<text x="274.000000" y="255.846097" fill="rgb(191,191,191)"  stroke="rgb(191,191,191)" stroke-width="1" font-size="16" >H</text>
<text x="374.000000" y="111.923048" fill="rgb(191,191,191)"  stroke="rgb(191,191,191)" stroke-width="1" font-size="16" >H</text>
<text x="214.000000" y="151.923048" fill="rgb(12,12,255)"  stroke="rgb(12,12,255)" stroke-width="1" font-size="16" >N</text>
<text x="384.800000" y="139.891048" fill="rgb(12,12,255)"  stroke="rgb(12,12,255)" stroke-width="1" font-size="16" >+</text>
<text x="374.000000" y="151.923048" fill="rgb(12,12,255)"  stroke="rgb(12,12,255)" stroke-width="1" font-size="16" >N</text>
<text x="254.000000" y="221.205081" fill="rgb(255,12,12)"  stroke="rgb(255,12,12)" stroke-width="1" font-size="16" >O</text>
<text x="194.000000" y="117.282032" fill="rgb(12,12,255)"  stroke="rgb(12,12,255)" stroke-width="1" font-size="16" >N</text>
<text x="134.000000" y="82.641016" fill="rgb(12,12,255)"  stroke="rgb(12,12,255)" stroke-width="1" font-size="16" >N</text>
<text x="22.000000" y="117.282032" fill="rgb(165,40,40)"  stroke="rgb(165,40,40)" stroke-width="1" font-size="16" >Br</text>
</svg>
</g>
<text font-size="18.000000" fill ="black" font-family="sans-serif"
x="10.000000" y="20.000000" >ZINC03861309</text>
</svg>
