<?xml version="1.0"?>
<svg version="1.1" id="topsvg"
xmlns="http://www.w3.org/2000/svg" xmlns:xlink="http://www.w3.org/1999/xlink"
xmlns:cml="http://www.xml-cml.org/schema" x="0" y="0" width="200px" height="200px" viewBox="0 0 100 100">
<title>ZINC48057036 - Open Babel Depiction</title>
<rect x="0" y="0" width="100" height="100" fill="white"/>
<g transform="translate(0,0)">
<svg width="100" height="100" x="0" y="0" viewBox="0 0 530.333 274.641"
font-family="sans-serif" stroke="rgb(0,0,0)" stroke-width="2"  stroke-linecap="round">
<line x1="74.6" y1="100.0" x2="98.0" y2="86.5" stroke="rgb(0,0,0)"  stroke-width="2.0"/>
<line x1="74.6" y1="100.0" x2="61.1" y2="123.4" stroke="rgb(0,0,0)"  stroke-width="2.0"/>
<line x1="74.6" y1="100.0" x2="88.1" y2="123.4" stroke="rgb(0,0,0)"  stroke-width="2.0"/>
<line x1="74.6" y1="100.0" x2="51.3" y2="86.5" stroke="rgb(0,0,0)"  stroke-width="2.0"/>
<line x1="120.5" y1="86.5" x2="143.9" y2="100.0" stroke="rgb(0,0,0)"  stroke-width="2.0"/>
<line x1="143.9" y1="140.0" x2="120.5" y2="153.5" stroke="rgb(0,0,0)"  stroke-width="2.0"/>
<line x1="178.6" y1="160.0" x2="178.6" y2="187.0" stroke="rgb(0,0,0)"  stroke-width="2.0"/>
<line x1="213.2" y1="140.0" x2="236.6" y2="153.5" stroke="rgb(0,0,0)"  stroke-width="2.0"/>
<line x1="213.2" y1="100.0" x2="247.8" y2="80.0" stroke="rgb(0,0,0)"  stroke-width="2.0"/>
<line x1="178.6" y1="80.0" x2="178.6" y2="53.0" stroke="rgb(0,0,0)"  stroke-width="2.0"/>
<line x1="249.3" y1="77.4" x2="284.0" y2="97.4" stroke="rgb(0,0,0)"  stroke-width="2.0"/>
<line x1="246.3" y1="82.6" x2="281.0" y2="102.6" stroke="rgb(0,0,0)"  stroke-width="2.0"/>
<line x1="247.8" y1="80.0" x2="247.8" y2="53.0" stroke="rgb(0,0,0)"  stroke-width="2.0"/>
<line x1="282.5" y1="100.0" x2="317.1" y2="80.0" stroke="rgb(0,0,0)"  stroke-width="2.0"/>
<line x1="282.5" y1="100.0" x2="282.5" y2="127.0" stroke="rgb(0,0,0)"  stroke-width="2.0"/>
<line x1="314.1" y1="80.0" x2="314.1" y2="53.0" stroke="rgb(0,0,0)"  stroke-width="2.0"/>
<line x1="320.1" y1="80.0" x2="320.1" y2="53.0" stroke="rgb(0,0,0)"  stroke-width="2.0"/>
<line x1="317.1" y1="80.0" x2="351.8" y2="100.0" stroke="rgb(0,0,0)"  stroke-width="2.0"/>
<line x1="386.4" y1="80.0" x2="386.4" y2="53.0" stroke="rgb(0,0,0)"  stroke-width="2.0"/>
<line x1="421.1" y1="100.0" x2="444.4" y2="86.5" stroke="rgb(0,0,0)"  stroke-width="2.0"/>
<line x1="421.1" y1="140.0" x2="444.4" y2="153.5" stroke="rgb(0,0,0)"  stroke-width="2.0"/>
<line x1="386.4" y1="160.0" x2="386.4" y2="187.0" stroke="rgb(0,0,0)"  stroke-width="2.0"/>
<line x1="351.8" y1="140.0" x2="328.4" y2="153.5" stroke="rgb(0,0,0)"  stroke-width="2.0"/>
<line x1="467.0" y1="153.5" x2="479.1" y2="146.5" stroke="rgb(0,0,0)"  stroke-width="2.0"/>
<line x1="247.8" y1="173.0" x2="247.8" y2="200.0" stroke="rgb(0,0,0)"  stroke-width="2.0"/>
<line x1="247.8" y1="200.0" x2="261.3" y2="223.4" stroke="rgb(0,0,0)"  stroke-width="2.0"/>
<line x1="247.8" y1="200.0" x2="274.8" y2="200.0" stroke="rgb(0,0,0)"  stroke-width="2.0"/>
<line x1="247.8" y1="200.0" x2="224.5" y2="213.5" stroke="rgb(0,0,0)"  stroke-width="2.0"/>
<line x1="178.6" y1="160.0" x2="213.2" y2="140.0" stroke="rgb(0,0,0)"  stroke-width="2.0"/>
<line x1="213.2" y1="140.0" x2="213.2" y2="100.0" stroke="rgb(0,0,0)"  stroke-width="2.0"/>
<line x1="206.0" y1="134.0" x2="206.0" y2="106.0" stroke="rgb(0,0,0)"  stroke-width="2.0"/>
<line x1="213.2" y1="100.0" x2="178.6" y2="80.0" stroke="rgb(0,0,0)"  stroke-width="2.0"/>
<line x1="178.6" y1="80.0" x2="143.9" y2="100.0" stroke="rgb(0,0,0)"  stroke-width="2.0"/>
<line x1="177.0" y1="89.2" x2="152.7" y2="103.2" stroke="rgb(0,0,0)"  stroke-width="2.0"/>
<line x1="143.9" y1="100.0" x2="143.9" y2="140.0" stroke="rgb(0,0,0)"  stroke-width="2.0"/>
<line x1="143.9" y1="140.0" x2="178.6" y2="160.0" stroke="rgb(0,0,0)"  stroke-width="2.0"/>
<line x1="152.7" y1="136.8" x2="177.0" y2="150.8" stroke="rgb(0,0,0)"  stroke-width="2.0"/>
<line x1="421.1" y1="100.0" x2="421.1" y2="140.0" stroke="rgb(0,0,0)"  stroke-width="2.0"/>
<line x1="421.1" y1="140.0" x2="386.4" y2="160.0" stroke="rgb(0,0,0)"  stroke-width="2.0"/>
<line x1="412.3" y1="136.8" x2="388.0" y2="150.8" stroke="rgb(0,0,0)"  stroke-width="2.0"/>
<line x1="386.4" y1="160.0" x2="351.8" y2="140.0" stroke="rgb(0,0,0)"  stroke-width="2.0"/>
<line x1="351.8" y1="140.0" x2="351.8" y2="100.0" stroke="rgb(0,0,0)"  stroke-width="2.0"/>
<line x1="359.0" y1="134.0" x2="359.0" y2="106.0" stroke="rgb(0,0,0)"  stroke-width="2.0"/>
<line x1="351.8" y1="100.0" x2="386.4" y2="80.0" stroke="rgb(0,0,0)"  stroke-width="2.0"/>
<line x1="386.4" y1="80.0" x2="421.1" y2="100.0" stroke="rgb(0,0,0)"  stroke-width="2.0"/>
<line x1="388.0" y1="89.2" x2="412.3" y2="103.2" stroke="rgb(0,0,0)"  stroke-width="2.0"/>
<text x="172.564065" y="48.000000" fill="rgb(191,191,191)"  stroke="rgb(191,191,191)" stroke-width="1" font-size="16" >H</text>
<text x="449.692194" y="168.000000" fill="rgb(255,12,12)"  stroke="rgb(255,12,12)" stroke-width="1" font-size="16" >O</text>
<text x="449.692194" y="88.000000" fill="rgb(30,239,30)"  stroke="rgb(30,239,30)" stroke-width="1" font-size="16" >Cl</text>
<text x="241.846097" y="168.000000" fill="rgb(255,12,12)"  stroke="rgb(255,12,12)" stroke-width="1" font-size="16" >O</text>
<text x="48.641016" y="142.641016" fill="rgb(191,191,191)"  stroke="rgb(191,191,191)" stroke-width="1" font-size="16" >H</text>
<text x="88.641016" y="142.641016" fill="rgb(191,191,191)"  stroke="rgb(191,191,191)" stroke-width="1" font-size="16" >H</text>
<text x="34.000000" y="88.000000" fill="rgb(191,191,191)"  stroke="rgb(191,191,191)" stroke-width="1" font-size="16" >H</text>
<text x="103.282032" y="168.000000" fill="rgb(191,191,191)"  stroke="rgb(191,191,191)" stroke-width="1" font-size="16" >H</text>
<text x="172.564065" y="208.000000" fill="rgb(191,191,191)"  stroke="rgb(191,191,191)" stroke-width="1" font-size="16" >H</text>
<text x="380.410162" y="208.000000" fill="rgb(30,239,30)"  stroke="rgb(30,239,30)" stroke-width="1" font-size="16" >Cl</text>
<text x="241.846097" y="48.000000" fill="rgb(191,191,191)"  stroke="rgb(191,191,191)" stroke-width="1" font-size="16" >H</text>
<text x="276.487113" y="148.000000" fill="rgb(191,191,191)"  stroke="rgb(191,191,191)" stroke-width="1" font-size="16" >H</text>
<text x="380.410162" y="48.000000" fill="rgb(191,191,191)"  stroke="rgb(191,191,191)" stroke-width="1" font-size="16" >H</text>
<text x="311.128129" y="168.000000" fill="rgb(191,191,191)"  stroke="rgb(191,191,191)" stroke-width="1" font-size="16" >H</text>
<text x="261.846097" y="242.641016" fill="rgb(191,191,191)"  stroke="rgb(191,191,191)" stroke-width="1" font-size="16" >H</text>
<text x="281.846097" y="208.000000" fill="rgb(191,191,191)"  stroke="rgb(191,191,191)" stroke-width="1" font-size="16" >H</text>
<text x="207.205081" y="228.000000" fill="rgb(191,191,191)"  stroke="rgb(191,191,191)" stroke-width="1" font-size="16" >H</text>
<text x="484.333210" y="148.000000" fill="rgb(191,191,191)"  stroke="rgb(191,191,191)" stroke-width="1" font-size="16" >H</text>
<text x="103.282032" y="88.000000" fill="rgb(255,12,12)"  stroke="rgb(255,12,12)" stroke-width="1" font-size="16" >O</text>
<text x="311.128129" y="48.000000" fill="rgb(255,12,12)"  stroke="rgb(255,12,12)" stroke-width="1" font-size="16" >O</text>
</svg>
</g>
<text font-size="18.000000" fill ="black" font-family="sans-serif"
x="10.000000" y="20.000000" >ZINC48057036</text>
</svg>
