<?xml version="1.0"?>
<svg version="1.1" id="topsvg"
xmlns="http://www.w3.org/2000/svg" xmlns:xlink="http://www.w3.org/1999/xlink"
xmlns:cml="http://www.xml-cml.org/schema" x="0" y="0" width="200px" height="200px" viewBox="0 0 100 100">
<title>ZINC71928291 - Open Babel Depiction</title>
<rect x="0" y="0" width="100" height="100" fill="white"/>
<g transform="translate(0,0)">
<svg width="100" height="100" x="0" y="0" viewBox="0 0 589.684 500.708"
font-family="sans-serif" stroke="rgb(0,0,0)" stroke-width="2"  stroke-linecap="round">
<line x1="416.6" y1="157.8" x2="441.7" y2="157.8" stroke="rgb(0,0,0)"  stroke-width="2.0"/>
<line x1="416.6" y1="157.8" x2="429.2" y2="136.2" stroke="rgb(0,0,0)"  stroke-width="2.0"/>
<line x1="383.7" y1="138.8" x2="396.2" y2="117.1" stroke="rgb(0,0,0)"  stroke-width="2.0"/>
<polygon points="383.691989 138.828781 352.749062 161.312491 348.749062 154.384288 " stroke-width="2.000000" fill="rgb(0,0,0)"  stroke="rgb(0,0,0)" />
<line x1="383.7" y1="138.8" x2="352.2" y2="84.2" stroke="rgb(0,0,0)"  stroke-width="2.0"/>
<line x1="350.7" y1="157.8" x2="338.2" y2="136.2" stroke="rgb(0,0,0)"  stroke-width="2.0"/>
<line x1="351.5" y1="165.5" x2="349.9" y2="165.5" stroke="rgb(0,0,0)"  stroke-width="1.0"/>
<line x1="352.2" y1="171.5" x2="349.3" y2="171.5" stroke="rgb(0,0,0)"  stroke-width="1.0"/>
<line x1="352.8" y1="177.6" x2="348.7" y2="177.6" stroke="rgb(0,0,0)"  stroke-width="1.0"/>
<line x1="353.5" y1="183.7" x2="348.0" y2="183.7" stroke="rgb(0,0,0)"  stroke-width="1.0"/>
<line x1="354.1" y1="189.8" x2="347.4" y2="189.8" stroke="rgb(0,0,0)"  stroke-width="1.0"/>
<line x1="354.7" y1="195.9" x2="346.7" y2="195.9" stroke="rgb(0,0,0)"  stroke-width="1.0"/>
<line x1="350.7" y1="157.8" x2="325.7" y2="157.8" stroke="rgb(0,0,0)"  stroke-width="2.0"/>
<line x1="350.7" y1="195.9" x2="330.9" y2="180.6" stroke="rgb(0,0,0)"  stroke-width="2.0"/>
<polygon points="350.749062 195.887605 385.691989 211.443111 381.691989 218.371314 " stroke-width="2.000000" fill="rgb(0,0,0)"  stroke="rgb(0,0,0)" />
<line x1="350.7" y1="195.9" x2="344.3" y2="220.1" stroke="rgb(0,0,0)"  stroke-width="2.0"/>
<line x1="383.7" y1="214.9" x2="371.2" y2="236.6" stroke="rgb(0,0,0)"  stroke-width="2.0"/>
<line x1="389.9" y1="210.4" x2="390.7" y2="211.8" stroke="rgb(0,0,0)"  stroke-width="1.0"/>
<line x1="394.8" y1="206.8" x2="396.3" y2="209.3" stroke="rgb(0,0,0)"  stroke-width="1.0"/>
<line x1="399.8" y1="203.2" x2="401.9" y2="206.8" stroke="rgb(0,0,0)"  stroke-width="1.0"/>
<line x1="404.7" y1="199.6" x2="407.5" y2="204.3" stroke="rgb(0,0,0)"  stroke-width="1.0"/>
<line x1="409.7" y1="196.0" x2="413.0" y2="201.8" stroke="rgb(0,0,0)"  stroke-width="1.0"/>
<line x1="414.6" y1="192.4" x2="418.6" y2="199.4" stroke="rgb(0,0,0)"  stroke-width="1.0"/>
<line x1="383.7" y1="214.9" x2="415.2" y2="269.5" stroke="rgb(0,0,0)"  stroke-width="2.0"/>
<polygon points="416.634916 195.887605 432.842155 215.959366 425.913952 219.959366 " stroke-width="2.000000" fill="rgb(0,0,0)"  stroke="rgb(0,0,0)" />
<line x1="416.6" y1="195.9" x2="479.7" y2="195.9" stroke="rgb(0,0,0)"  stroke-width="2.0"/>
<line x1="492.7" y1="208.9" x2="492.7" y2="220.9" stroke="rgb(0,0,0)"  stroke-width="2.0"/>
<line x1="505.7" y1="195.9" x2="517.8" y2="195.9" stroke="rgb(0,0,0)"  stroke-width="2.0"/>
<line x1="492.7" y1="182.9" x2="492.7" y2="170.8" stroke="rgb(0,0,0)"  stroke-width="2.0"/>
<line x1="415.2" y1="292.1" x2="402.7" y2="313.7" stroke="rgb(0,0,0)"  stroke-width="2.0"/>
<line x1="402.7" y1="313.7" x2="377.9" y2="310.5" stroke="rgb(0,0,0)"  stroke-width="2.0"/>
<polygon points="402.711597 313.735994 440.489934 319.717564 438.419382 327.444971 " stroke-width="2.000000" fill="rgb(0,0,0)"  stroke="rgb(0,0,0)" />
<line x1="439.5" y1="323.6" x2="445.9" y2="299.4" stroke="rgb(0,0,0)"  stroke-width="2.0"/>
<polygon points="439.454658 323.581268 453.163635 359.289052 445.436228 361.359605 " stroke-width="2.000000" fill="rgb(0,0,0)"  stroke="rgb(0,0,0)" />
<line x1="439.5" y1="323.6" x2="500.4" y2="307.3" stroke="rgb(0,0,0)"  stroke-width="2.0"/>
<line x1="449.3" y1="360.3" x2="473.5" y2="353.8" stroke="rgb(0,0,0)"  stroke-width="2.0"/>
<line x1="444.5" y1="366.3" x2="443.4" y2="365.1" stroke="rgb(0,0,0)"  stroke-width="1.0"/>
<line x1="440.6" y1="371.0" x2="438.6" y2="369.0" stroke="rgb(0,0,0)"  stroke-width="1.0"/>
<line x1="436.8" y1="375.8" x2="433.8" y2="372.8" stroke="rgb(0,0,0)"  stroke-width="1.0"/>
<line x1="432.9" y1="380.5" x2="429.1" y2="376.7" stroke="rgb(0,0,0)"  stroke-width="1.0"/>
<line x1="429.1" y1="385.3" x2="424.3" y2="380.5" stroke="rgb(0,0,0)"  stroke-width="1.0"/>
<line x1="425.2" y1="390.1" x2="419.6" y2="384.4" stroke="rgb(0,0,0)"  stroke-width="1.0"/>
<line x1="449.3" y1="360.3" x2="467.0" y2="378.0" stroke="rgb(0,0,0)"  stroke-width="2.0"/>
<line x1="422.4" y1="387.2" x2="440.1" y2="404.9" stroke="rgb(0,0,0)"  stroke-width="2.0"/>
<polygon points="422.402144 387.222116 384.623807 381.240546 386.694359 373.513139 " stroke-width="2.000000" fill="rgb(0,0,0)"  stroke="rgb(0,0,0)" />
<line x1="422.4" y1="387.2" x2="415.9" y2="411.4" stroke="rgb(0,0,0)"  stroke-width="2.0"/>
<line x1="385.1" y1="382.5" x2="383.6" y2="382.1" stroke="rgb(0,0,0)"  stroke-width="1.0"/>
<line x1="384.7" y1="386.6" x2="381.9" y2="385.9" stroke="rgb(0,0,0)"  stroke-width="1.0"/>
<line x1="384.2" y1="390.7" x2="380.2" y2="389.6" stroke="rgb(0,0,0)"  stroke-width="1.0"/>
<line x1="383.8" y1="394.8" x2="378.5" y2="393.4" stroke="rgb(0,0,0)"  stroke-width="1.0"/>
<line x1="383.4" y1="398.9" x2="376.9" y2="397.2" stroke="rgb(0,0,0)"  stroke-width="1.0"/>
<line x1="382.9" y1="403.0" x2="375.2" y2="401.0" stroke="rgb(0,0,0)"  stroke-width="1.0"/>
<line x1="385.7" y1="377.4" x2="348.9" y2="387.2" stroke="rgb(0,0,0)"  stroke-width="2.0"/>
<line x1="348.9" y1="387.2" x2="342.4" y2="411.4" stroke="rgb(0,0,0)"  stroke-width="2.0"/>
<line x1="348.9" y1="387.2" x2="324.7" y2="380.7" stroke="rgb(0,0,0)"  stroke-width="2.0"/>
<line x1="348.9" y1="387.2" x2="342.4" y2="363.0" stroke="rgb(0,0,0)"  stroke-width="2.0"/>
<line x1="351.6" y1="427.3" x2="363.3" y2="430.4" stroke="rgb(0,0,0)"  stroke-width="2.0"/>
<line x1="335.7" y1="436.5" x2="332.6" y2="448.2" stroke="rgb(0,0,0)"  stroke-width="2.0"/>
<line x1="326.5" y1="420.6" x2="314.9" y2="417.5" stroke="rgb(0,0,0)"  stroke-width="2.0"/>
<line x1="421.7" y1="433.2" x2="430.3" y2="441.7" stroke="rgb(0,0,0)"  stroke-width="2.0"/>
<line x1="488.8" y1="383.9" x2="500.4" y2="380.7" stroke="rgb(0,0,0)"  stroke-width="2.0"/>
<line x1="509.6" y1="291.3" x2="506.5" y2="279.7" stroke="rgb(0,0,0)"  stroke-width="2.0"/>
<line x1="525.5" y1="300.5" x2="537.1" y2="297.4" stroke="rgb(0,0,0)"  stroke-width="2.0"/>
<line x1="516.3" y1="316.4" x2="519.4" y2="328.1" stroke="rgb(0,0,0)"  stroke-width="2.0"/>
<line x1="328.3" y1="236.0" x2="304.2" y2="242.5" stroke="rgb(0,0,0)"  stroke-width="2.0"/>
<line x1="304.2" y1="242.5" x2="321.9" y2="260.2" stroke="rgb(0,0,0)"  stroke-width="2.0"/>
<polygon points="304.160728 242.475939 277.115987 269.523377 272.081423 263.306209 " stroke-width="2.000000" fill="rgb(0,0,0)"  stroke="rgb(0,0,0)" />
<line x1="274.6" y1="266.4" x2="288.2" y2="287.4" stroke="rgb(0,0,0)"  stroke-width="2.0"/>
<polygon points="274.598705 266.414793 240.517778 249.051834 244.874890 242.342469 " stroke-width="2.000000" fill="rgb(0,0,0)"  stroke="rgb(0,0,0)" />
<line x1="274.6" y1="266.4" x2="263.2" y2="288.7" stroke="rgb(0,0,0)"  stroke-width="2.0"/>
<line x1="242.7" y1="245.7" x2="226.9" y2="265.2" stroke="rgb(0,0,0)"  stroke-width="2.0"/>
<polygon points="242.696334 245.697152 248.677904 207.918815 256.405311 209.989367 " stroke-width="2.000000" fill="rgb(0,0,0)"  stroke="rgb(0,0,0)" />
<line x1="242.7" y1="245.7" x2="218.0" y2="241.8" stroke="rgb(0,0,0)"  stroke-width="2.0"/>
<line x1="247.5" y1="207.9" x2="248.1" y2="206.4" stroke="rgb(0,0,0)"  stroke-width="1.0"/>
<line x1="243.5" y1="207.0" x2="244.5" y2="204.3" stroke="rgb(0,0,0)"  stroke-width="1.0"/>
<line x1="239.4" y1="206.1" x2="240.9" y2="202.3" stroke="rgb(0,0,0)"  stroke-width="1.0"/>
<line x1="235.4" y1="205.3" x2="237.3" y2="200.2" stroke="rgb(0,0,0)"  stroke-width="1.0"/>
<line x1="231.4" y1="204.4" x2="233.8" y2="198.1" stroke="rgb(0,0,0)"  stroke-width="1.0"/>
<line x1="227.3" y1="203.6" x2="230.2" y2="196.1" stroke="rgb(0,0,0)"  stroke-width="1.0"/>
<line x1="252.5" y1="209.0" x2="246.6" y2="171.4" stroke="rgb(0,0,0)"  stroke-width="2.0"/>
<line x1="246.6" y1="171.4" x2="223.2" y2="162.4" stroke="rgb(0,0,0)"  stroke-width="2.0"/>
<line x1="246.6" y1="171.4" x2="255.6" y2="148.0" stroke="rgb(0,0,0)"  stroke-width="2.0"/>
<line x1="246.6" y1="171.4" x2="271.3" y2="167.5" stroke="rgb(0,0,0)"  stroke-width="2.0"/>
<line x1="209.0" y1="144.9" x2="207.2" y2="133.0" stroke="rgb(0,0,0)"  stroke-width="2.0"/>
<line x1="196.9" y1="249.8" x2="181.2" y2="269.3" stroke="rgb(0,0,0)"  stroke-width="2.0"/>
<line x1="181.2" y1="269.3" x2="193.1" y2="291.3" stroke="rgb(0,0,0)"  stroke-width="2.0"/>
<line x1="176.1" y1="263.6" x2="177.4" y2="262.7" stroke="rgb(0,0,0)"  stroke-width="1.0"/>
<line x1="172.0" y1="259.1" x2="174.3" y2="257.4" stroke="rgb(0,0,0)"  stroke-width="1.0"/>
<line x1="167.9" y1="254.5" x2="171.2" y2="252.1" stroke="rgb(0,0,0)"  stroke-width="1.0"/>
<line x1="163.8" y1="250.0" x2="168.2" y2="246.8" stroke="rgb(0,0,0)"  stroke-width="1.0"/>
<line x1="159.7" y1="245.4" x2="165.1" y2="241.5" stroke="rgb(0,0,0)"  stroke-width="1.0"/>
<line x1="155.6" y1="240.9" x2="162.1" y2="236.2" stroke="rgb(0,0,0)"  stroke-width="1.0"/>
<line x1="158.8" y1="238.5" x2="179.1" y2="223.8" stroke="rgb(0,0,0)"  stroke-width="2.0"/>
<line x1="151.3" y1="240.1" x2="151.2" y2="238.5" stroke="rgb(0,0,0)"  stroke-width="1.0"/>
<line x1="145.4" y1="241.4" x2="145.1" y2="238.5" stroke="rgb(0,0,0)"  stroke-width="1.0"/>
<line x1="139.4" y1="242.7" x2="138.9" y2="238.5" stroke="rgb(0,0,0)"  stroke-width="1.0"/>
<line x1="133.4" y1="243.9" x2="132.8" y2="238.5" stroke="rgb(0,0,0)"  stroke-width="1.0"/>
<line x1="127.4" y1="245.2" x2="126.7" y2="238.5" stroke="rgb(0,0,0)"  stroke-width="1.0"/>
<line x1="121.4" y1="246.5" x2="120.6" y2="238.5" stroke="rgb(0,0,0)"  stroke-width="1.0"/>
<line x1="158.8" y1="238.5" x2="152.2" y2="175.8" stroke="rgb(0,0,0)"  stroke-width="2.0"/>
<line x1="121.0" y1="242.5" x2="118.4" y2="217.6" stroke="rgb(0,0,0)"  stroke-width="2.0"/>
<polygon points="120.996868 242.510339 109.179106 278.887838 101.870743 275.633945 " stroke-width="2.000000" fill="rgb(0,0,0)"  stroke="rgb(0,0,0)" />
<line x1="121.0" y1="242.5" x2="98.1" y2="232.3" stroke="rgb(0,0,0)"  stroke-width="2.0"/>
<line x1="105.5" y1="277.3" x2="82.7" y2="267.1" stroke="rgb(0,0,0)"  stroke-width="2.0"/>
<line x1="110.6" y1="282.9" x2="109.3" y2="283.9" stroke="rgb(0,0,0)"  stroke-width="1.0"/>
<line x1="114.7" y1="287.5" x2="112.4" y2="289.2" stroke="rgb(0,0,0)"  stroke-width="1.0"/>
<line x1="118.8" y1="292.0" x2="115.5" y2="294.5" stroke="rgb(0,0,0)"  stroke-width="1.0"/>
<line x1="122.9" y1="296.6" x2="118.5" y2="299.8" stroke="rgb(0,0,0)"  stroke-width="1.0"/>
<line x1="127.0" y1="301.1" x2="121.6" y2="305.1" stroke="rgb(0,0,0)"  stroke-width="1.0"/>
<line x1="131.1" y1="305.7" x2="124.6" y2="310.4" stroke="rgb(0,0,0)"  stroke-width="1.0"/>
<line x1="105.5" y1="277.3" x2="85.3" y2="292.0" stroke="rgb(0,0,0)"  stroke-width="2.0"/>
<line x1="124.2" y1="311.7" x2="123.3" y2="310.4" stroke="rgb(0,0,0)"  stroke-width="1.0"/>
<line x1="121.3" y1="314.6" x2="119.6" y2="312.3" stroke="rgb(0,0,0)"  stroke-width="1.0"/>
<line x1="118.4" y1="317.5" x2="115.9" y2="314.1" stroke="rgb(0,0,0)"  stroke-width="1.0"/>
<line x1="115.5" y1="320.4" x2="112.3" y2="316.0" stroke="rgb(0,0,0)"  stroke-width="1.0"/>
<line x1="112.5" y1="323.3" x2="108.6" y2="317.9" stroke="rgb(0,0,0)"  stroke-width="1.0"/>
<line x1="109.6" y1="326.3" x2="104.9" y2="319.8" stroke="rgb(0,0,0)"  stroke-width="1.0"/>
<line x1="127.9" y1="308.0" x2="131.9" y2="345.9" stroke="rgb(0,0,0)"  stroke-width="2.0"/>
<line x1="131.9" y1="345.9" x2="111.6" y2="360.6" stroke="rgb(0,0,0)"  stroke-width="2.0"/>
<line x1="131.9" y1="345.9" x2="146.6" y2="366.1" stroke="rgb(0,0,0)"  stroke-width="2.0"/>
<line x1="131.9" y1="345.9" x2="156.8" y2="343.2" stroke="rgb(0,0,0)"  stroke-width="2.0"/>
<line x1="93.4" y1="357.7" x2="86.4" y2="348.0" stroke="rgb(0,0,0)"  stroke-width="2.0"/>
<line x1="90.6" y1="375.9" x2="80.8" y2="382.9" stroke="rgb(0,0,0)"  stroke-width="2.0"/>
<line x1="108.7" y1="378.7" x2="115.8" y2="388.5" stroke="rgb(0,0,0)"  stroke-width="2.0"/>
<line x1="62.9" y1="294.3" x2="51.9" y2="289.4" stroke="rgb(0,0,0)"  stroke-width="2.0"/>
<line x1="75.7" y1="234.7" x2="66.0" y2="241.8" stroke="rgb(0,0,0)"  stroke-width="2.0"/>
<line x1="163.8" y1="161.5" x2="175.8" y2="160.3" stroke="rgb(0,0,0)"  stroke-width="2.0"/>
<line x1="149.5" y1="149.9" x2="148.3" y2="138.0" stroke="rgb(0,0,0)"  stroke-width="2.0"/>
<line x1="137.9" y1="164.2" x2="126.0" y2="165.5" stroke="rgb(0,0,0)"  stroke-width="2.0"/>
<line x1="264.4" y1="311.2" x2="271.0" y2="321.3" stroke="rgb(0,0,0)"  stroke-width="2.0"/>
<line x1="306.2" y1="146.6" x2="300.2" y2="136.2" stroke="rgb(0,0,0)"  stroke-width="2.0"/>
<line x1="356.9" y1="66.4" x2="367.3" y2="60.4" stroke="rgb(0,0,0)"  stroke-width="2.0"/>
<line x1="339.2" y1="61.7" x2="333.1" y2="51.3" stroke="rgb(0,0,0)"  stroke-width="2.0"/>
<line x1="334.4" y1="79.4" x2="324.0" y2="85.5" stroke="rgb(0,0,0)"  stroke-width="2.0"/>
<line x1="242.7" y1="245.7" x2="252.5" y2="209.0" stroke="rgb(0,0,0)"  stroke-width="2.0"/>
<line x1="252.5" y1="209.0" x2="277.5" y2="207.6" stroke="rgb(0,0,0)"  stroke-width="2.0"/>
<line x1="295.2" y1="219.1" x2="304.2" y2="242.5" stroke="rgb(0,0,0)"  stroke-width="2.0"/>
<line x1="304.2" y1="242.5" x2="274.6" y2="266.4" stroke="rgb(0,0,0)"  stroke-width="2.0"/>
<line x1="274.6" y1="266.4" x2="242.7" y2="245.7" stroke="rgb(0,0,0)"  stroke-width="2.0"/>
<line x1="350.7" y1="157.8" x2="350.7" y2="195.9" stroke="rgb(0,0,0)"  stroke-width="2.0"/>
<line x1="350.7" y1="195.9" x2="383.7" y2="214.9" stroke="rgb(0,0,0)"  stroke-width="2.0"/>
<line x1="383.7" y1="214.9" x2="416.6" y2="195.9" stroke="rgb(0,0,0)"  stroke-width="2.0"/>
<line x1="416.6" y1="195.9" x2="416.6" y2="157.8" stroke="rgb(0,0,0)"  stroke-width="2.0"/>
<line x1="416.6" y1="157.8" x2="383.7" y2="138.8" stroke="rgb(0,0,0)"  stroke-width="2.0"/>
<line x1="383.7" y1="138.8" x2="350.7" y2="157.8" stroke="rgb(0,0,0)"  stroke-width="2.0"/>
<line x1="449.3" y1="360.3" x2="422.4" y2="387.2" stroke="rgb(0,0,0)"  stroke-width="2.0"/>
<line x1="422.4" y1="387.2" x2="385.7" y2="377.4" stroke="rgb(0,0,0)"  stroke-width="2.0"/>
<line x1="385.7" y1="377.4" x2="379.2" y2="353.2" stroke="rgb(0,0,0)"  stroke-width="2.0"/>
<line x1="385.0" y1="331.4" x2="402.7" y2="313.7" stroke="rgb(0,0,0)"  stroke-width="2.0"/>
<line x1="402.7" y1="313.7" x2="439.5" y2="323.6" stroke="rgb(0,0,0)"  stroke-width="2.0"/>
<line x1="439.5" y1="323.6" x2="449.3" y2="360.3" stroke="rgb(0,0,0)"  stroke-width="2.0"/>
<line x1="121.0" y1="242.5" x2="105.5" y2="277.3" stroke="rgb(0,0,0)"  stroke-width="2.0"/>
<line x1="105.5" y1="277.3" x2="127.9" y2="308.0" stroke="rgb(0,0,0)"  stroke-width="2.0"/>
<line x1="127.9" y1="308.0" x2="152.8" y2="305.4" stroke="rgb(0,0,0)"  stroke-width="2.0"/>
<line x1="171.0" y1="292.2" x2="181.2" y2="269.3" stroke="rgb(0,0,0)"  stroke-width="2.0"/>
<line x1="181.2" y1="269.3" x2="158.8" y2="238.5" stroke="rgb(0,0,0)"  stroke-width="2.0"/>
<line x1="158.8" y1="238.5" x2="121.0" y2="242.5" stroke="rgb(0,0,0)"  stroke-width="2.0"/>
<text x="306.709846" y="165.848389" fill="rgb(255,12,12)"  stroke="rgb(255,12,12)" stroke-width="1" font-size="16" >O</text>
<text x="506.940780" y="385.376842" fill="rgb(191,191,191)"  stroke="rgb(191,191,191)" stroke-width="1" font-size="16" >H</text>
<text x="433.454658" y="458.862964" fill="rgb(191,191,191)"  stroke="rgb(191,191,191)" stroke-width="1" font-size="16" >H</text>
<text x="323.225475" y="468.708237" fill="rgb(191,191,191)"  stroke="rgb(191,191,191)" stroke-width="1" font-size="16" >H</text>
<text x="369.813810" y="441.810450" fill="rgb(191,191,191)"  stroke="rgb(191,191,191)" stroke-width="1" font-size="16" >H</text>
<text x="333.070749" y="358.479055" fill="rgb(191,191,191)"  stroke="rgb(191,191,191)" stroke-width="1" font-size="16" >H</text>
<text x="306.172962" y="385.376842" fill="rgb(191,191,191)"  stroke="rgb(191,191,191)" stroke-width="1" font-size="16" >H</text>
<text x="524.752563" y="203.887605" fill="rgb(191,191,191)"  stroke="rgb(191,191,191)" stroke-width="1" font-size="16" >H</text>
<text x="486.713348" y="241.926821" fill="rgb(191,191,191)"  stroke="rgb(191,191,191)" stroke-width="1" font-size="16" >H</text>
<text x="429.654524" y="132.905462" fill="rgb(191,191,191)"  stroke="rgb(191,191,191)" stroke-width="1" font-size="16" >H</text>
<text x="448.674132" y="165.848389" fill="rgb(191,191,191)"  stroke="rgb(191,191,191)" stroke-width="1" font-size="16" >H</text>
<text x="350.452774" y="68.910927" fill="rgb(12,12,255)"  stroke="rgb(12,12,255)" stroke-width="1" font-size="16" >+</text>
<text x="339.652774" y="80.942927" fill="rgb(12,12,255)"  stroke="rgb(12,12,255)" stroke-width="1" font-size="16" >N</text>
<text x="497.095506" y="275.147660" fill="rgb(191,191,191)"  stroke="rgb(191,191,191)" stroke-width="1" font-size="16" >H</text>
<text x="251.329262" y="308.307983" fill="rgb(255,12,12)"  stroke="rgb(255,12,12)" stroke-width="1" font-size="16" >O</text>
<text x="155.675339" y="158.840492" fill="rgb(12,12,255)"  stroke="rgb(12,12,255)" stroke-width="1" font-size="16" >+</text>
<text x="144.875339" y="170.872492" fill="rgb(12,12,255)"  stroke="rgb(12,12,255)" stroke-width="1" font-size="16" >N</text>
<text x="80.246315" y="235.038396" fill="rgb(255,12,12)"  stroke="rgb(255,12,12)" stroke-width="1" font-size="16" >O</text>
<text x="68.750553" y="307.619782" fill="rgb(255,12,12)"  stroke="rgb(255,12,12)" stroke-width="1" font-size="16" >O</text>
<text x="105.885623" y="364.192986" fill="rgb(12,12,255)"  stroke="rgb(12,12,255)" stroke-width="1" font-size="16" >+</text>
<text x="95.085623" y="376.224986" fill="rgb(12,12,255)"  stroke="rgb(12,12,255)" stroke-width="1" font-size="16" >N</text>
<text x="159.714648" y="312.059083" fill="rgb(255,12,12)"  stroke="rgb(255,12,12)" stroke-width="1" font-size="16" >O</text>
<text x="91.109443" y="338.394154" fill="rgb(191,191,191)"  stroke="rgb(191,191,191)" stroke-width="1" font-size="16" >H</text>
<text x="64.774372" y="269.788949" fill="rgb(191,191,191)"  stroke="rgb(191,191,191)" stroke-width="1" font-size="16" >H</text>
<text x="182.706172" y="166.896312" fill="rgb(191,191,191)"  stroke="rgb(191,191,191)" stroke-width="1" font-size="16" >H</text>
<text x="516.786053" y="348.633781" fill="rgb(191,191,191)"  stroke="rgb(191,191,191)" stroke-width="1" font-size="16" >H</text>
<text x="107.044506" y="174.848673" fill="rgb(191,191,191)"  stroke="rgb(191,191,191)" stroke-width="1" font-size="16" >H</text>
<text x="306.709846" y="99.962535" fill="rgb(191,191,191)"  stroke="rgb(191,191,191)" stroke-width="1" font-size="16" >H</text>
<text x="486.713348" y="165.848389" fill="rgb(191,191,191)"  stroke="rgb(191,191,191)" stroke-width="1" font-size="16" >H</text>
<text x="117.444513" y="406.999358" fill="rgb(191,191,191)"  stroke="rgb(191,191,191)" stroke-width="1" font-size="16" >H</text>
<text x="296.327688" y="422.119903" fill="rgb(191,191,191)"  stroke="rgb(191,191,191)" stroke-width="1" font-size="16" >H</text>
<text x="320.633166" y="48.000000" fill="rgb(191,191,191)"  stroke="rgb(191,191,191)" stroke-width="1" font-size="16" >H</text>
<text x="372.595701" y="61.923319" fill="rgb(191,191,191)"  stroke="rgb(191,191,191)" stroke-width="1" font-size="16" >H</text>
<text x="287.690239" y="132.905462" fill="rgb(191,191,191)"  stroke="rgb(191,191,191)" stroke-width="1" font-size="16" >H</text>
<text x="272.046904" y="340.210353" fill="rgb(191,191,191)"  stroke="rgb(191,191,191)" stroke-width="1" font-size="16" >H</text>
<text x="140.899158" y="133.041659" fill="rgb(191,191,191)"  stroke="rgb(191,191,191)" stroke-width="1" font-size="16" >H</text>
<text x="111.020687" y="212.679506" fill="rgb(191,191,191)"  stroke="rgb(191,191,191)" stroke-width="1" font-size="16" >H</text>
<text x="49.471943" y="257.397286" fill="rgb(191,191,191)"  stroke="rgb(191,191,191)" stroke-width="1" font-size="16" >H</text>
<text x="34.000000" y="292.147839" fill="rgb(191,191,191)"  stroke="rgb(191,191,191)" stroke-width="1" font-size="16" >H</text>
<text x="64.311252" y="398.583876" fill="rgb(191,191,191)"  stroke="rgb(191,191,191)" stroke-width="1" font-size="16" >H</text>
<text x="72.726733" y="345.450614" fill="rgb(191,191,191)"  stroke="rgb(191,191,191)" stroke-width="1" font-size="16" >H</text>
<text x="163.690828" y="349.889916" fill="rgb(191,191,191)"  stroke="rgb(191,191,191)" stroke-width="1" font-size="16" >H</text>
<text x="148.218885" y="384.640468" fill="rgb(191,191,191)"  stroke="rgb(191,191,191)" stroke-width="1" font-size="16" >H</text>
<text x="199.127652" y="128.180275" fill="rgb(191,191,191)"  stroke="rgb(191,191,191)" stroke-width="1" font-size="16" >H</text>
<text x="278.161853" y="173.432557" fill="rgb(191,191,191)"  stroke="rgb(191,191,191)" stroke-width="1" font-size="16" >H</text>
<text x="254.222999" y="143.870534" fill="rgb(191,191,191)"  stroke="rgb(191,191,191)" stroke-width="1" font-size="16" >H</text>
<text x="543.683840" y="302.045447" fill="rgb(191,191,191)"  stroke="rgb(191,191,191)" stroke-width="1" font-size="16" >H</text>
<text x="415.731205" y="288.793067" fill="rgb(255,12,12)"  stroke="rgb(255,12,12)" stroke-width="1" font-size="16" >O</text>
<text x="369.813810" y="348.633781" fill="rgb(255,12,12)"  stroke="rgb(255,12,12)" stroke-width="1" font-size="16" >O</text>
<text x="369.813810" y="422.119903" fill="rgb(191,191,191)"  stroke="rgb(191,191,191)" stroke-width="1" font-size="16" >H</text>
<text x="443.299931" y="422.119903" fill="rgb(191,191,191)"  stroke="rgb(191,191,191)" stroke-width="1" font-size="16" >H</text>
<text x="480.042992" y="358.479055" fill="rgb(191,191,191)"  stroke="rgb(191,191,191)" stroke-width="1" font-size="16" >H</text>
<text x="443.299931" y="294.838207" fill="rgb(191,191,191)"  stroke="rgb(191,191,191)" stroke-width="1" font-size="16" >H</text>
<text x="358.997812" y="316.770880" fill="rgb(191,191,191)"  stroke="rgb(191,191,191)" stroke-width="1" font-size="16" >H</text>
<text x="497.513348" y="191.855605" fill="rgb(12,12,255)"  stroke="rgb(12,12,255)" stroke-width="1" font-size="16" >+</text>
<text x="486.713348" y="203.887605" fill="rgb(12,12,255)"  stroke="rgb(12,12,255)" stroke-width="1" font-size="16" >N</text>
<text x="429.654524" y="236.830532" fill="rgb(191,191,191)"  stroke="rgb(191,191,191)" stroke-width="1" font-size="16" >H</text>
<text x="358.672381" y="255.850140" fill="rgb(191,191,191)"  stroke="rgb(191,191,191)" stroke-width="1" font-size="16" >H</text>
<text x="314.570523" y="180.730798" fill="rgb(191,191,191)"  stroke="rgb(191,191,191)" stroke-width="1" font-size="16" >H</text>
<text x="325.729454" y="132.905462" fill="rgb(191,191,191)"  stroke="rgb(191,191,191)" stroke-width="1" font-size="16" >H</text>
<text x="396.711597" y="113.885854" fill="rgb(191,191,191)"  stroke="rgb(191,191,191)" stroke-width="1" font-size="16" >H</text>
<text x="212.757480" y="283.259174" fill="rgb(191,191,191)"  stroke="rgb(191,191,191)" stroke-width="1" font-size="16" >H</text>
<text x="183.602072" y="224.175268" fill="rgb(191,191,191)"  stroke="rgb(191,191,191)" stroke-width="1" font-size="16" >H</text>
<text x="193.337335" y="310.738044" fill="rgb(191,191,191)"  stroke="rgb(191,191,191)" stroke-width="1" font-size="16" >H</text>
<text x="199.125445" y="247.746507" fill="rgb(255,12,12)"  stroke="rgb(255,12,12)" stroke-width="1" font-size="16" >O</text>
<text x="205.078296" y="165.751165" fill="rgb(255,12,12)"  stroke="rgb(255,12,12)" stroke-width="1" font-size="16" >O</text>
<text x="284.528692" y="214.963272" fill="rgb(255,12,12)"  stroke="rgb(255,12,12)" stroke-width="1" font-size="16" >O</text>
<text x="211.028941" y="203.322055" fill="rgb(191,191,191)"  stroke="rgb(191,191,191)" stroke-width="1" font-size="16" >H</text>
<text x="289.316347" y="306.317164" fill="rgb(191,191,191)"  stroke="rgb(191,191,191)" stroke-width="1" font-size="16" >H</text>
<text x="325.058515" y="277.373727" fill="rgb(191,191,191)"  stroke="rgb(191,191,191)" stroke-width="1" font-size="16" >H</text>
<text x="334.903789" y="240.630666" fill="rgb(255,12,12)"  stroke="rgb(255,12,12)" stroke-width="1" font-size="16" >O</text>
<text x="517.740780" y="299.858721" fill="rgb(12,12,255)"  stroke="rgb(12,12,255)" stroke-width="1" font-size="16" >+</text>
<text x="506.940780" y="311.890721" fill="rgb(12,12,255)"  stroke="rgb(12,12,255)" stroke-width="1" font-size="16" >N</text>
<text x="470.197719" y="395.222116" fill="rgb(255,12,12)"  stroke="rgb(255,12,12)" stroke-width="1" font-size="16" >O</text>
<text x="406.556871" y="431.965177" fill="rgb(255,12,12)"  stroke="rgb(255,12,12)" stroke-width="1" font-size="16" >O</text>
<text x="343.870749" y="419.933177" fill="rgb(12,12,255)"  stroke="rgb(12,12,255)" stroke-width="1" font-size="16" >+</text>
<text x="333.070749" y="431.965177" fill="rgb(12,12,255)"  stroke="rgb(12,12,255)" stroke-width="1" font-size="16" >N</text>
</svg>
</g>
<text font-size="18.000000" fill ="black" font-family="sans-serif"
x="10.000000" y="20.000000" >ZINC71928291</text>
</svg>
