<?xml version="1.0"?>
<svg version="1.1" id="topsvg"
xmlns="http://www.w3.org/2000/svg" xmlns:xlink="http://www.w3.org/1999/xlink"
xmlns:cml="http://www.xml-cml.org/schema" x="0" y="0" width="200px" height="200px" viewBox="0 0 100 100">
<title>ZINC00404035 - Open Babel Depiction</title>
<rect x="0" y="0" width="100" height="100" fill="white"/>
<g transform="translate(0,0)">
<svg width="100" height="100" x="0" y="0" viewBox="0 0 258.564 309.282"
font-family="sans-serif" stroke="rgb(0,0,0)" stroke-width="2"  stroke-linecap="round">
<line x1="185.4" y1="151.9" x2="150.8" y2="171.9" stroke="rgb(0,0,0)"  stroke-width="2.0"/>
<line x1="182.4" y1="146.7" x2="147.8" y2="166.7" stroke="rgb(0,0,0)"  stroke-width="2.0"/>
<line x1="183.9" y1="149.3" x2="207.3" y2="162.8" stroke="rgb(0,0,0)"  stroke-width="2.0"/>
<line x1="183.9" y1="149.3" x2="183.9" y2="122.3" stroke="rgb(0,0,0)"  stroke-width="2.0"/>
<line x1="114.6" y1="229.3" x2="114.6" y2="256.3" stroke="rgb(0,0,0)"  stroke-width="2.0"/>
<line x1="80.0" y1="209.3" x2="66.5" y2="232.7" stroke="rgb(0,0,0)"  stroke-width="2.0"/>
<line x1="80.0" y1="209.3" x2="53.0" y2="209.3" stroke="rgb(0,0,0)"  stroke-width="2.0"/>
<line x1="78.5" y1="171.9" x2="55.1" y2="158.4" stroke="rgb(0,0,0)"  stroke-width="2.0"/>
<line x1="81.5" y1="166.7" x2="58.1" y2="153.2" stroke="rgb(0,0,0)"  stroke-width="2.0"/>
<line x1="116.6" y1="144.2" x2="118.0" y2="145.0" stroke="rgb(0,0,0)"  stroke-width="1.0"/>
<line x1="118.2" y1="140.2" x2="120.7" y2="141.6" stroke="rgb(0,0,0)"  stroke-width="1.0"/>
<line x1="119.8" y1="136.2" x2="123.4" y2="138.3" stroke="rgb(0,0,0)"  stroke-width="1.0"/>
<line x1="121.4" y1="132.1" x2="126.1" y2="134.9" stroke="rgb(0,0,0)"  stroke-width="1.0"/>
<line x1="123.0" y1="128.1" x2="128.8" y2="131.5" stroke="rgb(0,0,0)"  stroke-width="1.0"/>
<line x1="124.6" y1="124.1" x2="131.5" y2="128.1" stroke="rgb(0,0,0)"  stroke-width="1.0"/>
<line x1="114.6" y1="149.3" x2="101.1" y2="125.9" stroke="rgb(0,0,0)"  stroke-width="2.0"/>
<line x1="101.1" y1="103.4" x2="114.6" y2="80.0" stroke="rgb(0,0,0)"  stroke-width="2.0"/>
<line x1="114.6" y1="80.0" x2="114.6" y2="53.0" stroke="rgb(0,0,0)"  stroke-width="2.0"/>
<line x1="114.6" y1="80.0" x2="91.3" y2="66.5" stroke="rgb(0,0,0)"  stroke-width="2.0"/>
<line x1="114.6" y1="80.0" x2="141.6" y2="80.0" stroke="rgb(0,0,0)"  stroke-width="2.0"/>
<line x1="149.3" y1="196.3" x2="149.3" y2="169.3" stroke="rgb(0,0,0)"  stroke-width="2.0"/>
<line x1="149.3" y1="169.3" x2="114.6" y2="149.3" stroke="rgb(0,0,0)"  stroke-width="2.0"/>
<line x1="114.6" y1="149.3" x2="80.0" y2="169.3" stroke="rgb(0,0,0)"  stroke-width="2.0"/>
<line x1="80.0" y1="169.3" x2="80.0" y2="209.3" stroke="rgb(0,0,0)"  stroke-width="2.0"/>
<line x1="80.0" y1="209.3" x2="114.6" y2="229.3" stroke="rgb(0,0,0)"  stroke-width="2.0"/>
<line x1="114.6" y1="229.3" x2="137.9" y2="215.9" stroke="rgb(0,0,0)"  stroke-width="2.0"/>
<line x1="116.2" y1="220.0" x2="132.5" y2="210.6" stroke="rgb(0,0,0)"  stroke-width="2.0"/>
<text x="88.641016" y="122.641016" fill="rgb(255,12,12)"  stroke="rgb(255,12,12)" stroke-width="1" font-size="16" >O</text>
<text x="148.641016" y="88.000000" fill="rgb(191,191,191)"  stroke="rgb(191,191,191)" stroke-width="1" font-size="16" >H</text>
<text x="74.000000" y="68.000000" fill="rgb(191,191,191)"  stroke="rgb(191,191,191)" stroke-width="1" font-size="16" >H</text>
<text x="108.641016" y="48.000000" fill="rgb(191,191,191)"  stroke="rgb(191,191,191)" stroke-width="1" font-size="16" >H</text>
<text x="54.000000" y="251.923048" fill="rgb(191,191,191)"  stroke="rgb(191,191,191)" stroke-width="1" font-size="16" >H</text>
<text x="108.641016" y="277.282032" fill="rgb(191,191,191)"  stroke="rgb(191,191,191)" stroke-width="1" font-size="16" >H</text>
<text x="177.923048" y="117.282032" fill="rgb(191,191,191)"  stroke="rgb(191,191,191)" stroke-width="1" font-size="16" >H</text>
<text x="34.000000" y="217.282032" fill="rgb(191,191,191)"  stroke="rgb(191,191,191)" stroke-width="1" font-size="16" >H</text>
<text x="212.564065" y="177.282032" fill="rgb(191,191,191)"  stroke="rgb(191,191,191)" stroke-width="1" font-size="16" >H</text>
<text x="128.641016" y="122.641016" fill="rgb(191,191,191)"  stroke="rgb(191,191,191)" stroke-width="1" font-size="16" >H</text>
<text x="39.358984" y="157.282032" fill="rgb(255,12,12)"  stroke="rgb(255,12,12)" stroke-width="1" font-size="16" >O</text>
<text x="143.282032" y="217.282032" fill="rgb(12,12,255)"  stroke="rgb(12,12,255)" stroke-width="1" font-size="16" >N</text>
</svg>
</g>
<text font-size="18.000000" fill ="black" font-family="sans-serif"
x="10.000000" y="20.000000" >ZINC00404035</text>
</svg>
