<?xml version="1.0"?>
<svg version="1.1" id="topsvg"
xmlns="http://www.w3.org/2000/svg" xmlns:xlink="http://www.w3.org/1999/xlink"
xmlns:cml="http://www.xml-cml.org/schema" x="0" y="0" width="200px" height="200px" viewBox="0 0 100 100">
<title>ZINC18115268 - Open Babel Depiction</title>
<rect x="0" y="0" width="100" height="100" fill="white"/>
<g transform="translate(0,0)">
<svg width="100" height="100" x="0" y="0" viewBox="0 0 392.89 388.555"
font-family="sans-serif" stroke="rgb(0,0,0)" stroke-width="2"  stroke-linecap="round">
<line x1="212.1" y1="122.8" x2="250.1" y2="110.4" stroke="rgb(0,0,0)"  stroke-width="2.0"/>
<line x1="212.1" y1="122.8" x2="194.0" y2="142.8" stroke="rgb(0,0,0)"  stroke-width="2.0"/>
<line x1="212.1" y1="122.8" x2="220.4" y2="148.4" stroke="rgb(0,0,0)"  stroke-width="2.0"/>
<line x1="212.1" y1="122.8" x2="192.0" y2="104.7" stroke="rgb(0,0,0)"  stroke-width="2.0"/>
<line x1="282.5" y1="133.9" x2="282.5" y2="173.9" stroke="rgb(0,0,0)"  stroke-width="2.0"/>
<line x1="327.2" y1="114.4" x2="340.5" y2="118.7" stroke="rgb(0,0,0)"  stroke-width="2.0"/>
<line x1="302.5" y1="72.4" x2="318.4" y2="50.5" stroke="rgb(0,0,0)"  stroke-width="2.0"/>
<line x1="254.8" y1="61.8" x2="246.6" y2="50.5" stroke="rgb(0,0,0)"  stroke-width="2.0"/>
<line x1="282.5" y1="173.9" x2="259.1" y2="187.4" stroke="rgb(0,0,0)"  stroke-width="2.0"/>
<line x1="282.5" y1="173.9" x2="296.0" y2="197.3" stroke="rgb(0,0,0)"  stroke-width="2.0"/>
<line x1="282.5" y1="173.9" x2="309.5" y2="173.9" stroke="rgb(0,0,0)"  stroke-width="2.0"/>
<line x1="247.8" y1="206.9" x2="247.8" y2="233.9" stroke="rgb(0,0,0)"  stroke-width="2.0"/>
<line x1="247.8" y1="233.9" x2="213.2" y2="253.9" stroke="rgb(0,0,0)"  stroke-width="2.0"/>
<line x1="247.8" y1="233.9" x2="261.3" y2="257.3" stroke="rgb(0,0,0)"  stroke-width="2.0"/>
<line x1="247.8" y1="233.9" x2="274.8" y2="233.9" stroke="rgb(0,0,0)"  stroke-width="2.0"/>
<line x1="213.2" y1="253.9" x2="189.8" y2="240.4" stroke="rgb(0,0,0)"  stroke-width="2.0"/>
<line x1="213.2" y1="253.9" x2="199.7" y2="277.3" stroke="rgb(0,0,0)"  stroke-width="2.0"/>
<line x1="213.2" y1="253.9" x2="226.7" y2="277.3" stroke="rgb(0,0,0)"  stroke-width="2.0"/>
<line x1="168.8" y1="243.0" x2="145.4" y2="256.5" stroke="rgb(0,0,0)"  stroke-width="2.0"/>
<line x1="165.8" y1="237.8" x2="142.4" y2="251.3" stroke="rgb(0,0,0)"  stroke-width="2.0"/>
<line x1="143.9" y1="253.9" x2="143.9" y2="280.9" stroke="rgb(0,0,0)"  stroke-width="2.0"/>
<line x1="143.9" y1="253.9" x2="120.5" y2="240.4" stroke="rgb(0,0,0)"  stroke-width="2.0"/>
<line x1="155.2" y1="300.4" x2="178.6" y2="313.9" stroke="rgb(0,0,0)"  stroke-width="2.0"/>
<line x1="132.7" y1="300.4" x2="120.5" y2="307.4" stroke="rgb(0,0,0)"  stroke-width="2.0"/>
<line x1="178.6" y1="313.9" x2="192.1" y2="337.3" stroke="rgb(0,0,0)"  stroke-width="2.0"/>
<line x1="178.6" y1="313.9" x2="165.1" y2="337.3" stroke="rgb(0,0,0)"  stroke-width="2.0"/>
<line x1="178.6" y1="313.9" x2="201.9" y2="300.4" stroke="rgb(0,0,0)"  stroke-width="2.0"/>
<line x1="98.0" y1="240.4" x2="74.6" y2="253.9" stroke="rgb(0,0,0)"  stroke-width="2.0"/>
<line x1="109.3" y1="220.9" x2="109.3" y2="206.9" stroke="rgb(0,0,0)"  stroke-width="2.0"/>
<line x1="74.6" y1="253.9" x2="51.3" y2="267.4" stroke="rgb(0,0,0)"  stroke-width="2.0"/>
<line x1="76.7" y1="257.6" x2="53.4" y2="271.1" stroke="rgb(0,0,0)"  stroke-width="2.0"/>
<line x1="72.5" y1="250.3" x2="49.2" y2="263.8" stroke="rgb(0,0,0)"  stroke-width="2.0"/>
<line x1="310.8" y1="97.8" x2="302.5" y2="72.4" stroke="rgb(0,0,0)"  stroke-width="2.0"/>
<line x1="303.3" y1="98.2" x2="297.5" y2="80.3" stroke="rgb(0,0,0)"  stroke-width="2.0"/>
<line x1="302.5" y1="72.4" x2="275.5" y2="72.4" stroke="rgb(0,0,0)"  stroke-width="2.0"/>
<line x1="258.5" y1="84.7" x2="250.1" y2="110.4" stroke="rgb(0,0,0)"  stroke-width="2.0"/>
<line x1="250.1" y1="110.4" x2="282.5" y2="133.9" stroke="rgb(0,0,0)"  stroke-width="2.0"/>
<line x1="259.2" y1="108.1" x2="281.9" y2="124.6" stroke="rgb(0,0,0)"  stroke-width="2.0"/>
<line x1="282.5" y1="133.9" x2="304.3" y2="118.0" stroke="rgb(0,0,0)"  stroke-width="2.0"/>
<text x="187.205081" y="296.555367" fill="rgb(191,191,191)"  stroke="rgb(191,191,191)" stroke-width="1" font-size="16" >H</text>
<text x="179.318948" y="160.489413" fill="rgb(191,191,191)"  stroke="rgb(191,191,191)" stroke-width="1" font-size="16" >H</text>
<text x="218.444852" y="168.805881" fill="rgb(191,191,191)"  stroke="rgb(191,191,191)" stroke-width="1" font-size="16" >H</text>
<text x="176.358380" y="103.998396" fill="rgb(191,191,191)"  stroke="rgb(191,191,191)" stroke-width="1" font-size="16" >H</text>
<text x="319.998523" y="48.000000" fill="rgb(191,191,191)"  stroke="rgb(191,191,191)" stroke-width="1" font-size="16" >H</text>
<text x="296.487113" y="216.555367" fill="rgb(191,191,191)"  stroke="rgb(191,191,191)" stroke-width="1" font-size="16" >H</text>
<text x="316.487113" y="181.914351" fill="rgb(191,191,191)"  stroke="rgb(191,191,191)" stroke-width="1" font-size="16" >H</text>
<text x="261.846097" y="276.555367" fill="rgb(191,191,191)"  stroke="rgb(191,191,191)" stroke-width="1" font-size="16" >H</text>
<text x="281.846097" y="241.914351" fill="rgb(191,191,191)"  stroke="rgb(191,191,191)" stroke-width="1" font-size="16" >H</text>
<text x="34.000000" y="281.914351" fill="rgb(12,12,255)"  stroke="rgb(12,12,255)" stroke-width="1" font-size="16" >N</text>
<text x="227.205081" y="296.555367" fill="rgb(191,191,191)"  stroke="rgb(191,191,191)" stroke-width="1" font-size="16" >H</text>
<text x="103.282032" y="321.914351" fill="rgb(191,191,191)"  stroke="rgb(191,191,191)" stroke-width="1" font-size="16" >H</text>
<text x="192.564065" y="356.555367" fill="rgb(191,191,191)"  stroke="rgb(191,191,191)" stroke-width="1" font-size="16" >H</text>
<text x="152.564065" y="356.555367" fill="rgb(191,191,191)"  stroke="rgb(191,191,191)" stroke-width="1" font-size="16" >H</text>
<text x="207.205081" y="301.914351" fill="rgb(191,191,191)"  stroke="rgb(191,191,191)" stroke-width="1" font-size="16" >H</text>
<text x="103.282032" y="201.914351" fill="rgb(191,191,191)"  stroke="rgb(191,191,191)" stroke-width="1" font-size="16" >H</text>
<text x="346.890053" y="130.763620" fill="rgb(191,191,191)"  stroke="rgb(191,191,191)" stroke-width="1" font-size="16" >H</text>
<text x="308.847793" y="118.402940" fill="rgb(12,12,255)"  stroke="rgb(12,12,255)" stroke-width="1" font-size="16" >N</text>
<text x="256.487113" y="80.360680" fill="rgb(12,12,255)"  stroke="rgb(12,12,255)" stroke-width="1" font-size="16" >N</text>
<text x="232.975703" y="48.000000" fill="rgb(191,191,191)"  stroke="rgb(191,191,191)" stroke-width="1" font-size="16" >H</text>
<text x="241.846097" y="201.914351" fill="rgb(178,178,0)"  stroke="rgb(178,178,0)" stroke-width="1" font-size="16" >S</text>
<text x="172.564065" y="241.914351" fill="rgb(12,12,255)"  stroke="rgb(12,12,255)" stroke-width="1" font-size="16" >N</text>
<text x="137.923048" y="301.914351" fill="rgb(12,12,255)"  stroke="rgb(12,12,255)" stroke-width="1" font-size="16" >N</text>
<text x="103.282032" y="241.914351" fill="rgb(12,12,255)"  stroke="rgb(12,12,255)" stroke-width="1" font-size="16" >N</text>
</svg>
</g>
<text font-size="18.000000" fill ="black" font-family="sans-serif"
x="10.000000" y="20.000000" >ZINC18115268</text>
</svg>
