<?xml version="1.0"?>
<svg version="1.1" id="topsvg"
xmlns="http://www.w3.org/2000/svg" xmlns:xlink="http://www.w3.org/1999/xlink"
xmlns:cml="http://www.xml-cml.org/schema" x="0" y="0" width="200px" height="200px" viewBox="0 0 100 100">
<title>ZINC71654966 - Open Babel Depiction</title>
<rect x="0" y="0" width="100" height="100" fill="white"/>
<g transform="translate(0,0)">
<svg width="100" height="100" x="0" y="0" viewBox="0 0 406.646 243.001"
font-family="sans-serif" stroke="rgb(0,0,0)" stroke-width="2"  stroke-linecap="round">
<line x1="77.3" y1="138.5" x2="52.6" y2="145.1" stroke="rgb(0,0,0)"  stroke-width="2.0"/>
<line x1="104.5" y1="165.7" x2="97.9" y2="190.4" stroke="rgb(0,0,0)"  stroke-width="2.0"/>
<line x1="141.8" y1="155.8" x2="159.9" y2="173.8" stroke="rgb(0,0,0)"  stroke-width="2.0"/>
<line x1="151.8" y1="118.5" x2="176.5" y2="111.9" stroke="rgb(0,0,0)"  stroke-width="2.0"/>
<line x1="124.5" y1="91.2" x2="131.1" y2="66.5" stroke="rgb(0,0,0)"  stroke-width="2.0"/>
<line x1="87.2" y1="101.2" x2="69.2" y2="83.1" stroke="rgb(0,0,0)"  stroke-width="2.0"/>
<line x1="198.2" y1="117.7" x2="216.3" y2="135.8" stroke="rgb(0,0,0)"  stroke-width="2.0"/>
<line x1="216.3" y1="135.8" x2="290.8" y2="115.8" stroke="rgb(0,0,0)"  stroke-width="2.0"/>
<line x1="216.3" y1="135.8" x2="198.2" y2="153.9" stroke="rgb(0,0,0)"  stroke-width="2.0"/>
<line x1="216.3" y1="135.8" x2="222.9" y2="160.5" stroke="rgb(0,0,0)"  stroke-width="2.0"/>
<line x1="290.8" y1="115.8" x2="284.2" y2="140.5" stroke="rgb(0,0,0)"  stroke-width="2.0"/>
<line x1="329.4" y1="115.8" x2="336.0" y2="140.5" stroke="rgb(0,0,0)"  stroke-width="2.0"/>
<line x1="329.4" y1="115.8" x2="354.1" y2="122.4" stroke="rgb(0,0,0)"  stroke-width="2.0"/>
<line x1="290.8" y1="77.3" x2="284.2" y2="52.6" stroke="rgb(0,0,0)"  stroke-width="2.0"/>
<line x1="290.8" y1="77.3" x2="266.1" y2="70.6" stroke="rgb(0,0,0)"  stroke-width="2.0"/>
<line x1="268.3" y1="156.5" x2="256.1" y2="159.7" stroke="rgb(0,0,0)"  stroke-width="2.0"/>
<line x1="290.0" y1="162.3" x2="298.9" y2="171.2" stroke="rgb(0,0,0)"  stroke-width="2.0"/>
<line x1="141.8" y1="155.8" x2="151.8" y2="118.5" stroke="rgb(0,0,0)"  stroke-width="2.0"/>
<line x1="151.8" y1="118.5" x2="124.5" y2="91.2" stroke="rgb(0,0,0)"  stroke-width="2.0"/>
<line x1="142.4" y1="119.4" x2="123.6" y2="100.6" stroke="rgb(0,0,0)"  stroke-width="2.0"/>
<line x1="124.5" y1="91.2" x2="87.2" y2="101.2" stroke="rgb(0,0,0)"  stroke-width="2.0"/>
<line x1="87.2" y1="101.2" x2="77.3" y2="138.5" stroke="rgb(0,0,0)"  stroke-width="2.0"/>
<line x1="92.6" y1="108.9" x2="85.8" y2="134.5" stroke="rgb(0,0,0)"  stroke-width="2.0"/>
<line x1="77.3" y1="138.5" x2="104.5" y2="165.7" stroke="rgb(0,0,0)"  stroke-width="2.0"/>
<line x1="104.5" y1="165.7" x2="141.8" y2="155.8" stroke="rgb(0,0,0)"  stroke-width="2.0"/>
<line x1="108.5" y1="157.2" x2="134.1" y2="150.4" stroke="rgb(0,0,0)"  stroke-width="2.0"/>
<line x1="316.4" y1="77.3" x2="290.8" y2="77.3" stroke="rgb(0,0,0)"  stroke-width="2.0"/>
<line x1="290.8" y1="77.3" x2="290.8" y2="115.8" stroke="rgb(0,0,0)"  stroke-width="2.0"/>
<line x1="290.8" y1="115.8" x2="329.4" y2="115.8" stroke="rgb(0,0,0)"  stroke-width="2.0"/>
<line x1="329.4" y1="115.8" x2="329.4" y2="90.3" stroke="rgb(0,0,0)"  stroke-width="2.0"/>
<text x="34.000000" y="156.452571" fill="rgb(191,191,191)"  stroke="rgb(191,191,191)" stroke-width="1" font-size="16" >H</text>
<text x="302.108051" y="188.359825" fill="rgb(191,191,191)"  stroke="rgb(191,191,191)" stroke-width="1" font-size="16" >H</text>
<text x="237.576793" y="171.068727" fill="rgb(191,191,191)"  stroke="rgb(191,191,191)" stroke-width="1" font-size="16" >H</text>
<text x="247.559814" y="75.274119" fill="rgb(191,191,191)"  stroke="rgb(191,191,191)" stroke-width="1" font-size="16" >H</text>
<text x="274.833932" y="48.000000" fill="rgb(191,191,191)"  stroke="rgb(191,191,191)" stroke-width="1" font-size="16" >H</text>
<text x="360.645520" y="133.811588" fill="rgb(191,191,191)"  stroke="rgb(191,191,191)" stroke-width="1" font-size="16" >H</text>
<text x="333.371402" y="161.085707" fill="rgb(191,191,191)"  stroke="rgb(191,191,191)" stroke-width="1" font-size="16" >H</text>
<text x="220.285695" y="181.051747" fill="rgb(191,191,191)"  stroke="rgb(191,191,191)" stroke-width="1" font-size="16" >H</text>
<text x="183.028556" y="171.068727" fill="rgb(191,191,191)"  stroke="rgb(191,191,191)" stroke-width="1" font-size="16" >H</text>
<text x="53.966041" y="81.938293" fill="rgb(191,191,191)"  stroke="rgb(191,191,191)" stroke-width="1" font-size="16" >H</text>
<text x="128.480319" y="61.972252" fill="rgb(191,191,191)"  stroke="rgb(191,191,191)" stroke-width="1" font-size="16" >H</text>
<text x="163.062515" y="191.034768" fill="rgb(191,191,191)"  stroke="rgb(191,191,191)" stroke-width="1" font-size="16" >H</text>
<text x="88.548237" y="211.000808" fill="rgb(191,191,191)"  stroke="rgb(191,191,191)" stroke-width="1" font-size="16" >H</text>
<text x="274.833932" y="161.085707" fill="rgb(12,12,255)"  stroke="rgb(12,12,255)" stroke-width="1" font-size="16" >N</text>
<text x="323.388381" y="85.257139" fill="rgb(255,12,12)"  stroke="rgb(255,12,12)" stroke-width="1" font-size="16" >O</text>
<text x="183.028556" y="116.520490" fill="rgb(255,12,12)"  stroke="rgb(255,12,12)" stroke-width="1" font-size="16" >O</text>
</svg>
</g>
<text font-size="18.000000" fill ="black" font-family="sans-serif"
x="10.000000" y="20.000000" >ZINC71654966</text>
</svg>
