<?xml version="1.0"?>
<svg version="1.1" id="topsvg"
xmlns="http://www.w3.org/2000/svg" xmlns:xlink="http://www.w3.org/1999/xlink"
xmlns:cml="http://www.xml-cml.org/schema" x="0" y="0" width="200px" height="200px" viewBox="0 0 100 100">
<title>ZINC14556041 - Open Babel Depiction</title>
<rect x="0" y="0" width="100" height="100" fill="white"/>
<g transform="translate(0,0)">
<svg width="100" height="100" x="0" y="0" viewBox="0 0 343.923 333.205"
font-family="sans-serif" stroke="rgb(0,0,0)" stroke-width="2"  stroke-linecap="round">
<polygon points="140 203.923 176.641 220.459 172.641 227.387 " stroke-width="2" fill="rgb(0,0,0)"  stroke="rgb(0,0,0)" />
<polygon points="209.282 203.923 176.641 227.387 172.641 220.459 " stroke-width="2" fill="rgb(0,0,0)"  stroke="rgb(0,0,0)" />
<line x1="174.6" y1="223.9" x2="161.1" y2="247.3" stroke="rgb(0,0,0)"  stroke-width="2.0"/>
<line x1="178.0" y1="228.2" x2="176.6" y2="229.0" stroke="rgb(0,0,0)"  stroke-width="1.0"/>
<line x1="180.7" y1="231.6" x2="178.2" y2="233.0" stroke="rgb(0,0,0)"  stroke-width="1.0"/>
<line x1="183.4" y1="235.0" x2="179.8" y2="237.0" stroke="rgb(0,0,0)"  stroke-width="1.0"/>
<line x1="186.1" y1="238.3" x2="181.4" y2="241.1" stroke="rgb(0,0,0)"  stroke-width="1.0"/>
<line x1="188.8" y1="241.7" x2="183.0" y2="245.1" stroke="rgb(0,0,0)"  stroke-width="1.0"/>
<line x1="191.5" y1="245.1" x2="184.6" y2="249.1" stroke="rgb(0,0,0)"  stroke-width="1.0"/>
<line x1="210.1" y1="171.9" x2="208.5" y2="171.9" stroke="rgb(0,0,0)"  stroke-width="1.0"/>
<line x1="210.7" y1="178.3" x2="207.8" y2="178.3" stroke="rgb(0,0,0)"  stroke-width="1.0"/>
<line x1="211.4" y1="184.7" x2="207.2" y2="184.7" stroke="rgb(0,0,0)"  stroke-width="1.0"/>
<line x1="212.0" y1="191.1" x2="206.6" y2="191.1" stroke="rgb(0,0,0)"  stroke-width="1.0"/>
<line x1="212.6" y1="197.5" x2="205.9" y2="197.5" stroke="rgb(0,0,0)"  stroke-width="1.0"/>
<line x1="213.3" y1="203.9" x2="205.3" y2="203.9" stroke="rgb(0,0,0)"  stroke-width="1.0"/>
<line x1="209.3" y1="203.9" x2="222.8" y2="227.3" stroke="rgb(0,0,0)"  stroke-width="2.0"/>
<line x1="209.3" y1="203.9" x2="236.3" y2="203.9" stroke="rgb(0,0,0)"  stroke-width="2.0"/>
<line x1="182.0" y1="147.2" x2="181.2" y2="148.6" stroke="rgb(0,0,0)"  stroke-width="1.0"/>
<line x1="187.8" y1="149.9" x2="186.4" y2="152.4" stroke="rgb(0,0,0)"  stroke-width="1.0"/>
<line x1="193.7" y1="152.5" x2="191.6" y2="156.1" stroke="rgb(0,0,0)"  stroke-width="1.0"/>
<line x1="199.6" y1="155.2" x2="196.8" y2="159.9" stroke="rgb(0,0,0)"  stroke-width="1.0"/>
<line x1="205.4" y1="157.8" x2="202.1" y2="163.6" stroke="rgb(0,0,0)"  stroke-width="1.0"/>
<line x1="211.3" y1="160.5" x2="207.3" y2="167.4" stroke="rgb(0,0,0)"  stroke-width="1.0"/>
<line x1="209.3" y1="163.9" x2="236.3" y2="163.9" stroke="rgb(0,0,0)"  stroke-width="2.0"/>
<line x1="209.3" y1="163.9" x2="222.8" y2="140.5" stroke="rgb(0,0,0)"  stroke-width="2.0"/>
<line x1="146.5" y1="159.2" x2="147.3" y2="160.6" stroke="rgb(0,0,0)"  stroke-width="1.0"/>
<line x1="151.8" y1="155.5" x2="153.2" y2="158.0" stroke="rgb(0,0,0)"  stroke-width="1.0"/>
<line x1="157.0" y1="151.7" x2="159.1" y2="155.3" stroke="rgb(0,0,0)"  stroke-width="1.0"/>
<line x1="162.2" y1="148.0" x2="164.9" y2="152.7" stroke="rgb(0,0,0)"  stroke-width="1.0"/>
<line x1="167.4" y1="144.2" x2="170.8" y2="150.0" stroke="rgb(0,0,0)"  stroke-width="1.0"/>
<line x1="172.6" y1="140.5" x2="176.6" y2="147.4" stroke="rgb(0,0,0)"  stroke-width="1.0"/>
<line x1="174.6" y1="143.9" x2="188.1" y2="120.5" stroke="rgb(0,0,0)"  stroke-width="2.0"/>
<line x1="174.6" y1="143.9" x2="161.1" y2="120.5" stroke="rgb(0,0,0)"  stroke-width="2.0"/>
<line x1="140.0" y1="163.9" x2="126.5" y2="140.5" stroke="rgb(0,0,0)"  stroke-width="2.0"/>
<line x1="140.0" y1="163.9" x2="113.0" y2="163.9" stroke="rgb(0,0,0)"  stroke-width="2.0"/>
<line x1="140.0" y1="203.9" x2="113.0" y2="203.9" stroke="rgb(0,0,0)"  stroke-width="2.0"/>
<line x1="140.0" y1="203.9" x2="126.5" y2="227.3" stroke="rgb(0,0,0)"  stroke-width="2.0"/>
<line x1="93.5" y1="215.2" x2="86.5" y2="227.3" stroke="rgb(0,0,0)"  stroke-width="2.0"/>
<line x1="107.0" y1="129.3" x2="93.0" y2="129.3" stroke="rgb(0,0,0)"  stroke-width="2.0"/>
<line x1="83.0" y1="142.3" x2="83.0" y2="156.3" stroke="rgb(0,0,0)"  stroke-width="2.0"/>
<line x1="77.0" y1="142.3" x2="77.0" y2="156.3" stroke="rgb(0,0,0)"  stroke-width="2.0"/>
<line x1="67.0" y1="129.3" x2="53.0" y2="129.3" stroke="rgb(0,0,0)"  stroke-width="2.0"/>
<line x1="80.0" y1="116.3" x2="80.0" y2="102.3" stroke="rgb(0,0,0)"  stroke-width="2.0"/>
<line x1="188.1" y1="98.0" x2="181.1" y2="85.9" stroke="rgb(0,0,0)"  stroke-width="2.0"/>
<line x1="184.4" y1="65.5" x2="196.5" y2="58.5" stroke="rgb(0,0,0)"  stroke-width="2.0"/>
<line x1="187.4" y1="70.7" x2="199.5" y2="63.7" stroke="rgb(0,0,0)"  stroke-width="2.0"/>
<line x1="168.1" y1="63.4" x2="161.1" y2="51.3" stroke="rgb(0,0,0)"  stroke-width="2.0"/>
<line x1="163.4" y1="81.1" x2="151.3" y2="88.1" stroke="rgb(0,0,0)"  stroke-width="2.0"/>
<line x1="255.8" y1="175.2" x2="262.8" y2="187.3" stroke="rgb(0,0,0)"  stroke-width="2.0"/>
<line x1="259.5" y1="207.7" x2="247.4" y2="214.7" stroke="rgb(0,0,0)"  stroke-width="2.0"/>
<line x1="256.5" y1="202.5" x2="244.4" y2="209.5" stroke="rgb(0,0,0)"  stroke-width="2.0"/>
<line x1="275.8" y1="209.8" x2="282.8" y2="221.9" stroke="rgb(0,0,0)"  stroke-width="2.0"/>
<line x1="280.5" y1="192.1" x2="292.7" y2="185.1" stroke="rgb(0,0,0)"  stroke-width="2.0"/>
<line x1="222.8" y1="249.8" x2="215.8" y2="261.9" stroke="rgb(0,0,0)"  stroke-width="2.0"/>
<line x1="161.1" y1="269.8" x2="168.1" y2="281.9" stroke="rgb(0,0,0)"  stroke-width="2.0"/>
<line x1="209.3" y1="163.9" x2="174.6" y2="143.9" stroke="rgb(0,0,0)"  stroke-width="2.0"/>
<line x1="174.6" y1="143.9" x2="140.0" y2="163.9" stroke="rgb(0,0,0)"  stroke-width="2.0"/>
<line x1="140.0" y1="163.9" x2="140.0" y2="203.9" stroke="rgb(0,0,0)"  stroke-width="2.0"/>
<line x1="140.0" y1="203.9" x2="174.6" y2="223.9" stroke="rgb(0,0,0)"  stroke-width="2.0"/>
<line x1="174.6" y1="223.9" x2="209.3" y2="203.9" stroke="rgb(0,0,0)"  stroke-width="2.0"/>
<line x1="209.3" y1="203.9" x2="209.3" y2="163.9" stroke="rgb(0,0,0)"  stroke-width="2.0"/>
<text x="243.282032" y="211.923048" fill="rgb(191,191,191)"  stroke="rgb(191,191,191)" stroke-width="1" font-size="16" >H</text>
<text x="243.282032" y="171.923048" fill="rgb(255,12,12)"  stroke="rgb(255,12,12)" stroke-width="1" font-size="16" >O</text>
<text x="263.282032" y="206.564065" fill="rgb(255,127,0)"  stroke="rgb(255,127,0)" stroke-width="1" font-size="16" >P</text>
<text x="228.641016" y="226.564065" fill="rgb(255,12,12)"  stroke="rgb(255,12,12)" stroke-width="1" font-size="16" >O</text>
<text x="283.282032" y="241.205081" fill="rgb(255,12,12)"  stroke="rgb(255,12,12)" stroke-width="1" font-size="16" >OH</text>
<text x="297.923048" y="186.564065" fill="rgb(255,12,12)"  stroke="rgb(255,12,12)" stroke-width="1" font-size="16" >OH</text>
<text x="223.282032" y="246.564065" fill="rgb(255,12,12)"  stroke="rgb(255,12,12)" stroke-width="1" font-size="16" >O</text>
<text x="148.641016" y="266.564065" fill="rgb(255,12,12)"  stroke="rgb(255,12,12)" stroke-width="1" font-size="16" >O</text>
<text x="188.641016" y="266.564065" fill="rgb(191,191,191)"  stroke="rgb(191,191,191)" stroke-width="1" font-size="16" >H</text>
<text x="122.000000" y="102.641016" fill="rgb(255,12,12)"  stroke="rgb(255,12,12)" stroke-width="1" font-size="16" >HO</text>
<text x="223.282032" y="137.282032" fill="rgb(191,191,191)"  stroke="rgb(191,191,191)" stroke-width="1" font-size="16" >H</text>
<text x="148.641016" y="117.282032" fill="rgb(191,191,191)"  stroke="rgb(191,191,191)" stroke-width="1" font-size="16" >H</text>
<text x="94.000000" y="171.923048" fill="rgb(191,191,191)"  stroke="rgb(191,191,191)" stroke-width="1" font-size="16" >H</text>
<text x="114.000000" y="246.564065" fill="rgb(191,191,191)"  stroke="rgb(191,191,191)" stroke-width="1" font-size="16" >H</text>
<text x="74.000000" y="246.564065" fill="rgb(191,191,191)"  stroke="rgb(191,191,191)" stroke-width="1" font-size="16" >H</text>
<text x="203.282032" y="281.205081" fill="rgb(191,191,191)"  stroke="rgb(191,191,191)" stroke-width="1" font-size="16" >H</text>
<text x="168.641016" y="301.205081" fill="rgb(191,191,191)"  stroke="rgb(191,191,191)" stroke-width="1" font-size="16" >H</text>
<text x="136.641016" y="48.000000" fill="rgb(255,12,12)"  stroke="rgb(255,12,12)" stroke-width="1" font-size="16" >HO</text>
<text x="203.282032" y="62.641016" fill="rgb(255,12,12)"  stroke="rgb(255,12,12)" stroke-width="1" font-size="16" >O</text>
<text x="168.641016" y="82.641016" fill="rgb(255,127,0)"  stroke="rgb(255,127,0)" stroke-width="1" font-size="16" >P</text>
<text x="188.641016" y="117.282032" fill="rgb(255,12,12)"  stroke="rgb(255,12,12)" stroke-width="1" font-size="16" >O</text>
<text x="74.000000" y="97.282032" fill="rgb(255,12,12)"  stroke="rgb(255,12,12)" stroke-width="1" font-size="16" >OH</text>
<text x="22.000000" y="137.282032" fill="rgb(255,12,12)"  stroke="rgb(255,12,12)" stroke-width="1" font-size="16" >HO</text>
<text x="74.000000" y="177.282032" fill="rgb(255,12,12)"  stroke="rgb(255,12,12)" stroke-width="1" font-size="16" >O</text>
<text x="74.000000" y="137.282032" fill="rgb(255,127,0)"  stroke="rgb(255,127,0)" stroke-width="1" font-size="16" >P</text>
<text x="114.000000" y="137.282032" fill="rgb(255,12,12)"  stroke="rgb(255,12,12)" stroke-width="1" font-size="16" >O</text>
<text x="94.000000" y="211.923048" fill="rgb(255,12,12)"  stroke="rgb(255,12,12)" stroke-width="1" font-size="16" >O</text>
</svg>
</g>
<text font-size="18.000000" fill ="black" font-family="sans-serif"
x="10.000000" y="20.000000" >ZINC14556041</text>
</svg>
