<?xml version="1.0"?>
<svg version="1.1" id="topsvg"
xmlns="http://www.w3.org/2000/svg" xmlns:xlink="http://www.w3.org/1999/xlink"
xmlns:cml="http://www.xml-cml.org/schema" x="0" y="0" width="200px" height="200px" viewBox="0 0 100 100">
<title>ZINC38147320 - Open Babel Depiction</title>
<rect x="0" y="0" width="100" height="100" fill="white"/>
<g transform="translate(0,0)">
<svg width="100" height="100" x="0" y="0" viewBox="0 0 223.923 214.641"
font-family="sans-serif" stroke="rgb(0,0,0)" stroke-width="2"  stroke-linecap="round">
<line x1="149.3" y1="74.6" x2="149.3" y2="101.6" stroke="rgb(0,0,0)"  stroke-width="2.0"/>
<line x1="149.3" y1="74.6" x2="135.8" y2="51.3" stroke="rgb(0,0,0)"  stroke-width="2.0"/>
<line x1="149.3" y1="74.6" x2="122.3" y2="74.6" stroke="rgb(0,0,0)"  stroke-width="2.0"/>
<line x1="149.3" y1="74.6" x2="172.7" y2="61.1" stroke="rgb(0,0,0)"  stroke-width="2.0"/>
<line x1="138.0" y1="121.1" x2="125.9" y2="128.1" stroke="rgb(0,0,0)"  stroke-width="2.0"/>
<line x1="160.5" y1="121.1" x2="172.7" y2="128.1" stroke="rgb(0,0,0)"  stroke-width="2.0"/>
<line x1="103.4" y1="128.1" x2="80.0" y2="114.6" stroke="rgb(0,0,0)"  stroke-width="2.0"/>
<line x1="114.6" y1="147.6" x2="114.6" y2="161.6" stroke="rgb(0,0,0)"  stroke-width="2.0"/>
<line x1="80.0" y1="114.6" x2="53.0" y2="114.6" stroke="rgb(0,0,0)"  stroke-width="2.0"/>
<line x1="80.0" y1="114.6" x2="66.5" y2="138.0" stroke="rgb(0,0,0)"  stroke-width="2.0"/>
<line x1="80.0" y1="114.6" x2="80.0" y2="87.6" stroke="rgb(0,0,0)"  stroke-width="2.0"/>
<text x="143.282032" y="122.641016" fill="rgb(12,12,255)"  stroke="rgb(12,12,255)" stroke-width="1" font-size="16" >N</text>
<text x="108.641016" y="142.641016" fill="rgb(12,12,255)"  stroke="rgb(12,12,255)" stroke-width="1" font-size="16" >N</text>
<text x="123.282032" y="48.000000" fill="rgb(191,191,191)"  stroke="rgb(191,191,191)" stroke-width="1" font-size="16" >H</text>
<text x="103.282032" y="82.641016" fill="rgb(191,191,191)"  stroke="rgb(191,191,191)" stroke-width="1" font-size="16" >H</text>
<text x="177.923048" y="62.641016" fill="rgb(191,191,191)"  stroke="rgb(191,191,191)" stroke-width="1" font-size="16" >H</text>
<text x="108.641016" y="182.641016" fill="rgb(191,191,191)"  stroke="rgb(191,191,191)" stroke-width="1" font-size="16" >H</text>
<text x="34.000000" y="122.641016" fill="rgb(191,191,191)"  stroke="rgb(191,191,191)" stroke-width="1" font-size="16" >H</text>
<text x="54.000000" y="157.282032" fill="rgb(191,191,191)"  stroke="rgb(191,191,191)" stroke-width="1" font-size="16" >H</text>
<text x="74.000000" y="82.641016" fill="rgb(191,191,191)"  stroke="rgb(191,191,191)" stroke-width="1" font-size="16" >H</text>
<text x="177.923048" y="142.641016" fill="rgb(191,191,191)"  stroke="rgb(191,191,191)" stroke-width="1" font-size="16" >H</text>
</svg>
</g>
<text font-size="18.000000" fill ="black" font-family="sans-serif"
x="10.000000" y="20.000000" >ZINC38147320</text>
</svg>
