<?xml version="1.0"?>
<svg version="1.1" id="topsvg"
xmlns="http://www.w3.org/2000/svg" xmlns:xlink="http://www.w3.org/1999/xlink"
xmlns:cml="http://www.xml-cml.org/schema" x="0" y="0" width="200px" height="200px" viewBox="0 0 100 100">
<title>ZINC01384425 - Open Babel Depiction</title>
<rect x="0" y="0" width="100" height="100" fill="white"/>
<g transform="translate(0,0)">
<svg width="100" height="100" x="0" y="0" viewBox="0 0 430.934 284.639"
font-family="sans-serif" stroke="rgb(0,0,0)" stroke-width="2"  stroke-linecap="round">
<line x1="80.0" y1="124.6" x2="114.6" y2="144.6" stroke="rgb(0,0,0)"  stroke-width="2.0"/>
<line x1="80.0" y1="124.6" x2="53.0" y2="124.6" stroke="rgb(0,0,0)"  stroke-width="2.0"/>
<line x1="80.0" y1="124.6" x2="66.5" y2="148.0" stroke="rgb(0,0,0)"  stroke-width="2.0"/>
<line x1="80.0" y1="124.6" x2="80.0" y2="97.6" stroke="rgb(0,0,0)"  stroke-width="2.0"/>
<line x1="149.3" y1="124.6" x2="149.3" y2="84.6" stroke="rgb(0,0,0)"  stroke-width="2.0"/>
<line x1="195.2" y1="138.1" x2="218.6" y2="124.6" stroke="rgb(0,0,0)"  stroke-width="2.0"/>
<line x1="183.9" y1="184.6" x2="207.3" y2="198.1" stroke="rgb(0,0,0)"  stroke-width="2.0"/>
<line x1="149.3" y1="204.6" x2="149.3" y2="231.6" stroke="rgb(0,0,0)"  stroke-width="2.0"/>
<line x1="116.1" y1="187.2" x2="92.8" y2="200.7" stroke="rgb(0,0,0)"  stroke-width="2.0"/>
<line x1="113.1" y1="182.0" x2="89.8" y2="195.5" stroke="rgb(0,0,0)"  stroke-width="2.0"/>
<line x1="218.6" y1="124.6" x2="253.2" y2="144.6" stroke="rgb(0,0,0)"  stroke-width="2.0"/>
<line x1="218.6" y1="124.6" x2="205.1" y2="101.3" stroke="rgb(0,0,0)"  stroke-width="2.0"/>
<line x1="218.6" y1="124.6" x2="232.1" y2="101.3" stroke="rgb(0,0,0)"  stroke-width="2.0"/>
<line x1="253.2" y1="144.6" x2="287.8" y2="124.6" stroke="rgb(0,0,0)"  stroke-width="2.0"/>
<line x1="253.2" y1="144.6" x2="239.7" y2="168.0" stroke="rgb(0,0,0)"  stroke-width="2.0"/>
<line x1="253.2" y1="144.6" x2="266.7" y2="168.0" stroke="rgb(0,0,0)"  stroke-width="2.0"/>
<line x1="324.4" y1="140.9" x2="330.0" y2="167.3" stroke="rgb(0,0,0)"  stroke-width="2.0"/>
<line x1="364.1" y1="112.5" x2="378.0" y2="114.0" stroke="rgb(0,0,0)"  stroke-width="2.0"/>
<line x1="331.2" y1="76.5" x2="342.1" y2="51.9" stroke="rgb(0,0,0)"  stroke-width="2.0"/>
<line x1="282.4" y1="76.2" x2="272.0" y2="66.8" stroke="rgb(0,0,0)"  stroke-width="2.0"/>
<line x1="149.3" y1="84.6" x2="135.8" y2="61.3" stroke="rgb(0,0,0)"  stroke-width="2.0"/>
<line x1="149.3" y1="84.6" x2="122.3" y2="84.6" stroke="rgb(0,0,0)"  stroke-width="2.0"/>
<line x1="149.3" y1="84.6" x2="172.7" y2="71.1" stroke="rgb(0,0,0)"  stroke-width="2.0"/>
<line x1="344.6" y1="99.8" x2="331.2" y2="76.5" stroke="rgb(0,0,0)"  stroke-width="2.0"/>
<line x1="337.3" y1="101.6" x2="327.9" y2="85.3" stroke="rgb(0,0,0)"  stroke-width="2.0"/>
<line x1="331.2" y1="76.5" x2="304.7" y2="82.2" stroke="rgb(0,0,0)"  stroke-width="2.0"/>
<line x1="290.7" y1="97.8" x2="287.8" y2="124.6" stroke="rgb(0,0,0)"  stroke-width="2.0"/>
<line x1="287.8" y1="124.6" x2="324.4" y2="140.9" stroke="rgb(0,0,0)"  stroke-width="2.0"/>
<line x1="296.3" y1="120.5" x2="321.8" y2="131.9" stroke="rgb(0,0,0)"  stroke-width="2.0"/>
<line x1="324.4" y1="140.9" x2="342.5" y2="120.8" stroke="rgb(0,0,0)"  stroke-width="2.0"/>
<line x1="183.9" y1="157.6" x2="183.9" y2="184.6" stroke="rgb(0,0,0)"  stroke-width="2.0"/>
<line x1="183.9" y1="184.6" x2="149.3" y2="204.6" stroke="rgb(0,0,0)"  stroke-width="2.0"/>
<line x1="175.1" y1="181.4" x2="150.9" y2="195.4" stroke="rgb(0,0,0)"  stroke-width="2.0"/>
<line x1="149.3" y1="204.6" x2="114.6" y2="184.6" stroke="rgb(0,0,0)"  stroke-width="2.0"/>
<line x1="114.6" y1="184.6" x2="114.6" y2="144.6" stroke="rgb(0,0,0)"  stroke-width="2.0"/>
<line x1="114.6" y1="144.6" x2="149.3" y2="124.6" stroke="rgb(0,0,0)"  stroke-width="2.0"/>
<line x1="123.4" y1="147.9" x2="147.7" y2="133.9" stroke="rgb(0,0,0)"  stroke-width="2.0"/>
<line x1="149.3" y1="124.6" x2="172.7" y2="138.1" stroke="rgb(0,0,0)"  stroke-width="2.0"/>
<text x="384.934015" y="123.363973" fill="rgb(191,191,191)"  stroke="rgb(191,191,191)" stroke-width="1" font-size="16" >H</text>
<text x="177.923048" y="72.639162" fill="rgb(191,191,191)"  stroke="rgb(191,191,191)" stroke-width="1" font-size="16" >H</text>
<text x="103.282032" y="92.639162" fill="rgb(191,191,191)"  stroke="rgb(191,191,191)" stroke-width="1" font-size="16" >H</text>
<text x="123.282032" y="57.998146" fill="rgb(191,191,191)"  stroke="rgb(191,191,191)" stroke-width="1" font-size="16" >H</text>
<text x="341.422605" y="48.000000" fill="rgb(191,191,191)"  stroke="rgb(191,191,191)" stroke-width="1" font-size="16" >H</text>
<text x="326.704383" y="188.034532" fill="rgb(191,191,191)"  stroke="rgb(191,191,191)" stroke-width="1" font-size="16" >H</text>
<text x="267.205081" y="187.280178" fill="rgb(191,191,191)"  stroke="rgb(191,191,191)" stroke-width="1" font-size="16" >H</text>
<text x="227.205081" y="187.280178" fill="rgb(191,191,191)"  stroke="rgb(191,191,191)" stroke-width="1" font-size="16" >H</text>
<text x="232.564065" y="97.998146" fill="rgb(191,191,191)"  stroke="rgb(191,191,191)" stroke-width="1" font-size="16" >H</text>
<text x="192.564065" y="97.998146" fill="rgb(191,191,191)"  stroke="rgb(191,191,191)" stroke-width="1" font-size="16" >H</text>
<text x="143.282032" y="252.639162" fill="rgb(191,191,191)"  stroke="rgb(191,191,191)" stroke-width="1" font-size="16" >H</text>
<text x="212.564065" y="212.639162" fill="rgb(191,191,191)"  stroke="rgb(191,191,191)" stroke-width="1" font-size="16" >H</text>
<text x="74.000000" y="92.639162" fill="rgb(191,191,191)"  stroke="rgb(191,191,191)" stroke-width="1" font-size="16" >H</text>
<text x="54.000000" y="167.280178" fill="rgb(191,191,191)"  stroke="rgb(191,191,191)" stroke-width="1" font-size="16" >H</text>
<text x="34.000000" y="132.639162" fill="rgb(191,191,191)"  stroke="rgb(191,191,191)" stroke-width="1" font-size="16" >H</text>
<text x="256.301442" y="66.093062" fill="rgb(191,191,191)"  stroke="rgb(191,191,191)" stroke-width="1" font-size="16" >H</text>
<text x="286.027235" y="92.858286" fill="rgb(12,12,255)"  stroke="rgb(12,12,255)" stroke-width="1" font-size="16" >N</text>
<text x="345.153139" y="119.182834" fill="rgb(12,12,255)"  stroke="rgb(12,12,255)" stroke-width="1" font-size="16" >N</text>
<text x="74.000000" y="212.639162" fill="rgb(255,12,12)"  stroke="rgb(255,12,12)" stroke-width="1" font-size="16" >O</text>
<text x="177.923048" y="152.639162" fill="rgb(12,12,255)"  stroke="rgb(12,12,255)" stroke-width="1" font-size="16" >N</text>
</svg>
</g>
<text font-size="18.000000" fill ="black" font-family="sans-serif"
x="10.000000" y="20.000000" >ZINC01384425</text>
</svg>
