<?xml version="1.0"?>
<svg version="1.1" id="topsvg"
xmlns="http://www.w3.org/2000/svg" xmlns:xlink="http://www.w3.org/1999/xlink"
xmlns:cml="http://www.xml-cml.org/schema" x="0" y="0" width="200px" height="200px" viewBox="0 0 100 100">
<title>ZINC32099200 - Open Babel Depiction</title>
<rect x="0" y="0" width="100" height="100" fill="white"/>
<g transform="translate(0,0)">
<svg width="100" height="100" x="0" y="0" viewBox="0 0 456.75 328.275"
font-family="sans-serif" stroke="rgb(0,0,0)" stroke-width="2"  stroke-linecap="round">
<line x1="146.5" y1="249.3" x2="146.5" y2="275.3" stroke="rgb(0,0,0)"  stroke-width="2.0"/>
<line x1="180.3" y1="229.8" x2="202.8" y2="242.8" stroke="rgb(0,0,0)"  stroke-width="2.0"/>
<line x1="214.1" y1="171.3" x2="281.6" y2="210.3" stroke="rgb(0,0,0)"  stroke-width="2.0"/>
<line x1="214.1" y1="132.3" x2="236.6" y2="119.3" stroke="rgb(0,0,0)"  stroke-width="2.0"/>
<line x1="180.3" y1="112.8" x2="180.3" y2="73.8" stroke="rgb(0,0,0)"  stroke-width="2.0"/>
<line x1="112.8" y1="190.8" x2="79.0" y2="171.3" stroke="rgb(0,0,0)"  stroke-width="2.0"/>
<line x1="112.8" y1="229.8" x2="90.3" y2="242.8" stroke="rgb(0,0,0)"  stroke-width="2.0"/>
<line x1="79.0" y1="171.3" x2="53.0" y2="171.3" stroke="rgb(0,0,0)"  stroke-width="2.0"/>
<line x1="79.0" y1="171.3" x2="66.0" y2="193.8" stroke="rgb(0,0,0)"  stroke-width="2.0"/>
<line x1="79.0" y1="171.3" x2="79.0" y2="145.3" stroke="rgb(0,0,0)"  stroke-width="2.0"/>
<line x1="180.3" y1="73.8" x2="167.3" y2="51.3" stroke="rgb(0,0,0)"  stroke-width="2.0"/>
<line x1="180.3" y1="73.8" x2="154.3" y2="73.8" stroke="rgb(0,0,0)"  stroke-width="2.0"/>
<line x1="180.3" y1="73.8" x2="202.8" y2="60.8" stroke="rgb(0,0,0)"  stroke-width="2.0"/>
<line x1="281.6" y1="210.3" x2="294.6" y2="232.8" stroke="rgb(0,0,0)"  stroke-width="2.0"/>
<line x1="281.6" y1="210.3" x2="268.6" y2="232.8" stroke="rgb(0,0,0)"  stroke-width="2.0"/>
<line x1="281.6" y1="210.3" x2="315.4" y2="190.8" stroke="rgb(0,0,0)"  stroke-width="2.0"/>
<line x1="315.4" y1="151.8" x2="292.9" y2="138.8" stroke="rgb(0,0,0)"  stroke-width="2.0"/>
<line x1="349.2" y1="132.3" x2="349.2" y2="106.3" stroke="rgb(0,0,0)"  stroke-width="2.0"/>
<line x1="383.0" y1="151.8" x2="405.5" y2="138.8" stroke="rgb(0,0,0)"  stroke-width="2.0"/>
<line x1="383.0" y1="190.8" x2="405.5" y2="203.8" stroke="rgb(0,0,0)"  stroke-width="2.0"/>
<line x1="349.2" y1="223.3" x2="349.2" y2="236.3" stroke="rgb(0,0,0)"  stroke-width="2.0"/>
<line x1="416.7" y1="119.3" x2="416.7" y2="106.3" stroke="rgb(0,0,0)"  stroke-width="2.0"/>
<line x1="180.3" y1="190.8" x2="146.5" y2="171.3" stroke="rgb(0,0,0)"  stroke-width="2.0"/>
<line x1="146.5" y1="171.3" x2="112.8" y2="190.8" stroke="rgb(0,0,0)"  stroke-width="2.0"/>
<line x1="145.0" y1="180.5" x2="121.6" y2="194.0" stroke="rgb(0,0,0)"  stroke-width="2.0"/>
<line x1="112.8" y1="190.8" x2="112.8" y2="229.8" stroke="rgb(0,0,0)"  stroke-width="2.0"/>
<line x1="112.8" y1="229.8" x2="146.5" y2="249.3" stroke="rgb(0,0,0)"  stroke-width="2.0"/>
<line x1="121.6" y1="226.5" x2="145.0" y2="240.0" stroke="rgb(0,0,0)"  stroke-width="2.0"/>
<line x1="146.5" y1="249.3" x2="180.3" y2="229.8" stroke="rgb(0,0,0)"  stroke-width="2.0"/>
<line x1="180.3" y1="229.8" x2="180.3" y2="190.8" stroke="rgb(0,0,0)"  stroke-width="2.0"/>
<line x1="173.1" y1="223.8" x2="173.1" y2="196.8" stroke="rgb(0,0,0)"  stroke-width="2.0"/>
<line x1="180.3" y1="112.8" x2="157.7" y2="125.8" stroke="rgb(0,0,0)"  stroke-width="2.0"/>
<line x1="178.7" y1="122.0" x2="163.1" y2="131.0" stroke="rgb(0,0,0)"  stroke-width="2.0"/>
<line x1="146.5" y1="145.3" x2="146.5" y2="171.3" stroke="rgb(0,0,0)"  stroke-width="2.0"/>
<line x1="180.3" y1="190.8" x2="214.1" y2="171.3" stroke="rgb(0,0,0)"  stroke-width="2.0"/>
<line x1="214.1" y1="171.3" x2="214.1" y2="132.3" stroke="rgb(0,0,0)"  stroke-width="2.0"/>
<line x1="206.9" y1="165.3" x2="206.9" y2="138.3" stroke="rgb(0,0,0)"  stroke-width="2.0"/>
<line x1="214.1" y1="132.3" x2="180.3" y2="112.8" stroke="rgb(0,0,0)"  stroke-width="2.0"/>
<line x1="349.2" y1="132.3" x2="383.0" y2="151.8" stroke="rgb(0,0,0)"  stroke-width="2.0"/>
<line x1="383.0" y1="151.8" x2="383.0" y2="190.8" stroke="rgb(0,0,0)"  stroke-width="2.0"/>
<line x1="375.8" y1="157.8" x2="375.8" y2="184.8" stroke="rgb(0,0,0)"  stroke-width="2.0"/>
<line x1="383.0" y1="190.8" x2="360.5" y2="203.8" stroke="rgb(0,0,0)"  stroke-width="2.0"/>
<line x1="338.1" y1="203.8" x2="315.4" y2="190.8" stroke="rgb(0,0,0)"  stroke-width="2.0"/>
<line x1="339.8" y1="196.6" x2="324.2" y2="187.5" stroke="rgb(0,0,0)"  stroke-width="2.0"/>
<line x1="315.4" y1="190.8" x2="315.4" y2="151.8" stroke="rgb(0,0,0)"  stroke-width="2.0"/>
<line x1="315.4" y1="151.8" x2="349.2" y2="132.3" stroke="rgb(0,0,0)"  stroke-width="2.0"/>
<line x1="324.2" y1="155.0" x2="347.6" y2="141.5" stroke="rgb(0,0,0)"  stroke-width="2.0"/>
<text x="241.874954" y="120.774991" fill="rgb(191,191,191)"  stroke="rgb(191,191,191)" stroke-width="1" font-size="16" >H</text>
<text x="353.999926" y="206.242991" fill="rgb(12,12,255)"  stroke="rgb(12,12,255)" stroke-width="1" font-size="16" >+</text>
<text x="343.199926" y="218.274991" fill="rgb(12,12,255)"  stroke="rgb(12,12,255)" stroke-width="1" font-size="16" >N</text>
<text x="410.749907" y="140.274991" fill="rgb(255,12,12)"  stroke="rgb(255,12,12)" stroke-width="1" font-size="16" >O</text>
<text x="140.549981" y="296.274991" fill="rgb(191,191,191)"  stroke="rgb(191,191,191)" stroke-width="1" font-size="16" >H</text>
<text x="208.099963" y="257.274991" fill="rgb(191,191,191)"  stroke="rgb(191,191,191)" stroke-width="1" font-size="16" >H</text>
<text x="73.000000" y="257.274991" fill="rgb(191,191,191)"  stroke="rgb(191,191,191)" stroke-width="1" font-size="16" >H</text>
<text x="295.149944" y="252.049981" fill="rgb(191,191,191)"  stroke="rgb(191,191,191)" stroke-width="1" font-size="16" >H</text>
<text x="256.149944" y="252.049981" fill="rgb(191,191,191)"  stroke="rgb(191,191,191)" stroke-width="1" font-size="16" >H</text>
<text x="275.649944" y="140.274991" fill="rgb(191,191,191)"  stroke="rgb(191,191,191)" stroke-width="1" font-size="16" >H</text>
<text x="343.199926" y="101.274991" fill="rgb(191,191,191)"  stroke="rgb(191,191,191)" stroke-width="1" font-size="16" >H</text>
<text x="410.749907" y="218.274991" fill="rgb(191,191,191)"  stroke="rgb(191,191,191)" stroke-width="1" font-size="16" >H</text>
<text x="343.199926" y="257.274991" fill="rgb(191,191,191)"  stroke="rgb(191,191,191)" stroke-width="1" font-size="16" >H</text>
<text x="410.749907" y="101.274991" fill="rgb(191,191,191)"  stroke="rgb(191,191,191)" stroke-width="1" font-size="16" >H</text>
<text x="140.549981" y="140.274991" fill="rgb(12,12,255)"  stroke="rgb(12,12,255)" stroke-width="1" font-size="16" >N</text>
<text x="34.000000" y="179.274991" fill="rgb(127,178,255)"  stroke="rgb(127,178,255)" stroke-width="1" font-size="16" >F</text>
<text x="53.500000" y="213.049981" fill="rgb(127,178,255)"  stroke="rgb(127,178,255)" stroke-width="1" font-size="16" >F</text>
<text x="73.000000" y="140.274991" fill="rgb(127,178,255)"  stroke="rgb(127,178,255)" stroke-width="1" font-size="16" >F</text>
<text x="154.824972" y="48.000000" fill="rgb(127,178,255)"  stroke="rgb(127,178,255)" stroke-width="1" font-size="16" >F</text>
<text x="135.324972" y="81.774991" fill="rgb(127,178,255)"  stroke="rgb(127,178,255)" stroke-width="1" font-size="16" >F</text>
<text x="208.099963" y="62.274991" fill="rgb(127,178,255)"  stroke="rgb(127,178,255)" stroke-width="1" font-size="16" >F</text>
</svg>
</g>
<text font-size="18.000000" fill ="black" font-family="sans-serif"
x="10.000000" y="20.000000" >ZINC32099200</text>
</svg>
