<?xml version="1.0"?>
<svg version="1.1" id="topsvg"
xmlns="http://www.w3.org/2000/svg" xmlns:xlink="http://www.w3.org/1999/xlink"
xmlns:cml="http://www.xml-cml.org/schema" x="0" y="0" width="200px" height="200px" viewBox="0 0 100 100">
<title>ZINC31425168 - Open Babel Depiction</title>
<rect x="0" y="0" width="100" height="100" fill="white"/>
<g transform="translate(0,0)">
<svg width="100" height="100" x="0" y="0" viewBox="0 0 268.82 253.998"
font-family="sans-serif" stroke="rgb(0,0,0)" stroke-width="2"  stroke-linecap="round">
<line x1="148.8" y1="174.0" x2="175.8" y2="174.0" stroke="rgb(0,0,0)"  stroke-width="2.0"/>
<line x1="148.8" y1="174.0" x2="125.4" y2="187.5" stroke="rgb(0,0,0)"  stroke-width="2.0"/>
<line x1="148.8" y1="174.0" x2="148.8" y2="201.0" stroke="rgb(0,0,0)"  stroke-width="2.0"/>
<line x1="148.8" y1="174.0" x2="128.8" y2="139.4" stroke="rgb(0,0,0)"  stroke-width="2.0"/>
<line x1="80.7" y1="96.1" x2="56.1" y2="85.1" stroke="rgb(0,0,0)"  stroke-width="2.0"/>
<line x1="42.8" y1="66.9" x2="41.4" y2="52.9" stroke="rgb(0,0,0)"  stroke-width="2.0"/>
<line x1="157.8" y1="100.1" x2="171.5" y2="97.2" stroke="rgb(0,0,0)"  stroke-width="2.0"/>
<line x1="188.8" y1="187.0" x2="188.8" y2="201.0" stroke="rgb(0,0,0)"  stroke-width="2.0"/>
<line x1="201.8" y1="174.0" x2="215.8" y2="174.0" stroke="rgb(0,0,0)"  stroke-width="2.0"/>
<line x1="188.8" y1="161.0" x2="188.8" y2="147.0" stroke="rgb(0,0,0)"  stroke-width="2.0"/>
<line x1="102.2" y1="136.6" x2="128.8" y2="139.4" stroke="rgb(0,0,0)"  stroke-width="2.0"/>
<line x1="104.9" y1="129.6" x2="123.6" y2="131.6" stroke="rgb(0,0,0)"  stroke-width="2.0"/>
<line x1="128.8" y1="139.4" x2="139.8" y2="114.7" stroke="rgb(0,0,0)"  stroke-width="2.0"/>
<line x1="135.4" y1="94.1" x2="125.0" y2="84.7" stroke="rgb(0,0,0)"  stroke-width="2.0"/>
<line x1="103.9" y1="82.7" x2="80.7" y2="96.1" stroke="rgb(0,0,0)"  stroke-width="2.0"/>
<line x1="105.8" y1="89.9" x2="89.5" y2="99.3" stroke="rgb(0,0,0)"  stroke-width="2.0"/>
<line x1="80.7" y1="96.1" x2="86.3" y2="122.5" stroke="rgb(0,0,0)"  stroke-width="2.0"/>
<text x="83.039424" y="143.176246" fill="rgb(12,12,255)"  stroke="rgb(12,12,255)" stroke-width="1" font-size="16" >N</text>
<text x="38.181139" y="87.780876" fill="rgb(255,12,12)"  stroke="rgb(255,12,12)" stroke-width="1" font-size="16" >O</text>
<text x="109.363973" y="84.050342" fill="rgb(12,12,255)"  stroke="rgb(12,12,255)" stroke-width="1" font-size="16" >N</text>
<text x="139.089766" y="110.815566" fill="rgb(12,12,255)"  stroke="rgb(12,12,255)" stroke-width="1" font-size="16" >N</text>
<text x="193.620300" y="169.966400" fill="rgb(12,12,255)"  stroke="rgb(12,12,255)" stroke-width="1" font-size="16" >+</text>
<text x="182.820300" y="181.998400" fill="rgb(12,12,255)"  stroke="rgb(12,12,255)" stroke-width="1" font-size="16" >N</text>
<text x="108.179284" y="201.998400" fill="rgb(191,191,191)"  stroke="rgb(191,191,191)" stroke-width="1" font-size="16" >H</text>
<text x="142.820300" y="221.998400" fill="rgb(191,191,191)"  stroke="rgb(191,191,191)" stroke-width="1" font-size="16" >H</text>
<text x="182.820300" y="221.998400" fill="rgb(191,191,191)"  stroke="rgb(191,191,191)" stroke-width="1" font-size="16" >H</text>
<text x="222.820300" y="181.998400" fill="rgb(191,191,191)"  stroke="rgb(191,191,191)" stroke-width="1" font-size="16" >H</text>
<text x="182.820300" y="141.998400" fill="rgb(191,191,191)"  stroke="rgb(191,191,191)" stroke-width="1" font-size="16" >H</text>
<text x="178.215670" y="102.499098" fill="rgb(191,191,191)"  stroke="rgb(191,191,191)" stroke-width="1" font-size="16" >H</text>
<text x="34.000000" y="48.000000" fill="rgb(191,191,191)"  stroke="rgb(191,191,191)" stroke-width="1" font-size="16" >H</text>
</svg>
</g>
<text font-size="18.000000" fill ="black" font-family="sans-serif"
x="10.000000" y="20.000000" >ZINC31425168</text>
</svg>
