<?xml version="1.0"?>
<svg version="1.1" id="topsvg"
xmlns="http://www.w3.org/2000/svg" xmlns:xlink="http://www.w3.org/1999/xlink"
xmlns:cml="http://www.xml-cml.org/schema" x="0" y="0" width="200px" height="200px" viewBox="0 0 100 100">
<title>ZINC62592207 - Open Babel Depiction</title>
<rect x="0" y="0" width="100" height="100" fill="white"/>
<g transform="translate(0,0)">
<svg width="100" height="100" x="0" y="0" viewBox="0 0 550.778 476.873"
font-family="sans-serif" stroke="rgb(0,0,0)" stroke-width="2"  stroke-linecap="round">
<line x1="439.3" y1="246.2" x2="438.0" y2="220.3" stroke="rgb(0,0,0)"  stroke-width="2.0"/>
<line x1="495.8" y1="249.8" x2="484.9" y2="256.8" stroke="rgb(0,0,0)"  stroke-width="2.0"/>
<line x1="477.4" y1="300.1" x2="500.6" y2="311.9" stroke="rgb(0,0,0)"  stroke-width="2.0"/>
<line x1="474.7" y1="305.5" x2="497.8" y2="317.3" stroke="rgb(0,0,0)"  stroke-width="2.0"/>
<line x1="398.8" y1="368.6" x2="387.0" y2="391.7" stroke="rgb(0,0,0)"  stroke-width="2.0"/>
<line x1="368.3" y1="331.8" x2="304.2" y2="321.7" stroke="rgb(0,0,0)"  stroke-width="2.0"/>
<line x1="304.2" y1="321.7" x2="303.0" y2="295.8" stroke="rgb(0,0,0)"  stroke-width="2.0"/>
<line x1="305.0" y1="329.5" x2="303.4" y2="329.5" stroke="rgb(0,0,0)"  stroke-width="1.0"/>
<line x1="305.6" y1="335.7" x2="302.7" y2="335.7" stroke="rgb(0,0,0)"  stroke-width="1.0"/>
<line x1="306.2" y1="342.0" x2="302.1" y2="342.0" stroke="rgb(0,0,0)"  stroke-width="1.0"/>
<line x1="306.9" y1="348.2" x2="301.4" y2="348.2" stroke="rgb(0,0,0)"  stroke-width="1.0"/>
<line x1="307.5" y1="354.4" x2="300.8" y2="354.4" stroke="rgb(0,0,0)"  stroke-width="1.0"/>
<line x1="308.2" y1="360.7" x2="300.2" y2="360.7" stroke="rgb(0,0,0)"  stroke-width="1.0"/>
<line x1="304.2" y1="360.7" x2="330.0" y2="363.4" stroke="rgb(0,0,0)"  stroke-width="2.0"/>
<polygon points="304.160770 360.653576 268.342688 376.497426 265.870552 368.888973 " stroke-width="2.000000" fill="rgb(0,0,0)"  stroke="rgb(0,0,0)" />
<line x1="304.2" y1="360.7" x2="314.7" y2="384.4" stroke="rgb(0,0,0)"  stroke-width="2.0"/>
<line x1="267.1" y1="372.7" x2="272.5" y2="398.1" stroke="rgb(0,0,0)"  stroke-width="2.0"/>
<polygon points="267.106620 372.693200 240.969828 343.524198 247.441964 338.821916 " stroke-width="2.000000" fill="rgb(0,0,0)"  stroke="rgb(0,0,0)" />
<line x1="267.1" y1="372.7" x2="247.8" y2="390.1" stroke="rgb(0,0,0)"  stroke-width="2.0"/>
<polygon points="244.205896 341.173057 223.599259 357.689107 219.599259 350.760903 " stroke-width="2.000000" fill="rgb(0,0,0)"  stroke="rgb(0,0,0)" />
<line x1="244.2" y1="341.2" x2="210.5" y2="321.7" stroke="rgb(0,0,0)"  stroke-width="2.0"/>
<line x1="210.5" y1="321.7" x2="188.0" y2="334.7" stroke="rgb(0,0,0)"  stroke-width="2.0"/>
<line x1="210.5" y1="321.7" x2="197.5" y2="299.2" stroke="rgb(0,0,0)"  stroke-width="2.0"/>
<line x1="210.5" y1="321.7" x2="223.4" y2="299.2" stroke="rgb(0,0,0)"  stroke-width="2.0"/>
<line x1="176.7" y1="354.2" x2="176.7" y2="367.1" stroke="rgb(0,0,0)"  stroke-width="2.0"/>
<line x1="192.2" y1="379.3" x2="192.2" y2="380.9" stroke="rgb(0,0,0)"  stroke-width="1.0"/>
<line x1="194.3" y1="378.7" x2="194.3" y2="381.6" stroke="rgb(0,0,0)"  stroke-width="1.0"/>
<line x1="196.5" y1="378.1" x2="196.5" y2="382.2" stroke="rgb(0,0,0)"  stroke-width="1.0"/>
<line x1="198.6" y1="377.4" x2="198.6" y2="382.9" stroke="rgb(0,0,0)"  stroke-width="1.0"/>
<line x1="200.7" y1="376.8" x2="200.7" y2="383.5" stroke="rgb(0,0,0)"  stroke-width="1.0"/>
<line x1="202.8" y1="376.1" x2="202.8" y2="384.1" stroke="rgb(0,0,0)"  stroke-width="1.0"/>
<line x1="176.7" y1="393.1" x2="176.7" y2="406.1" stroke="rgb(0,0,0)"  stroke-width="2.0"/>
<line x1="163.7" y1="380.1" x2="150.8" y2="380.1" stroke="rgb(0,0,0)"  stroke-width="2.0"/>
<line x1="124.8" y1="380.1" x2="111.8" y2="380.1" stroke="rgb(0,0,0)"  stroke-width="2.0"/>
<line x1="99.6" y1="395.6" x2="98.0" y2="395.6" stroke="rgb(0,0,0)"  stroke-width="1.0"/>
<line x1="100.2" y1="397.8" x2="97.4" y2="397.8" stroke="rgb(0,0,0)"  stroke-width="1.0"/>
<line x1="100.9" y1="399.9" x2="96.7" y2="399.9" stroke="rgb(0,0,0)"  stroke-width="1.0"/>
<line x1="101.5" y1="402.0" x2="96.1" y2="402.0" stroke="rgb(0,0,0)"  stroke-width="1.0"/>
<line x1="102.2" y1="404.1" x2="95.4" y2="404.1" stroke="rgb(0,0,0)"  stroke-width="1.0"/>
<line x1="102.8" y1="406.2" x2="94.8" y2="406.2" stroke="rgb(0,0,0)"  stroke-width="1.0"/>
<line x1="85.8" y1="380.1" x2="72.8" y2="380.1" stroke="rgb(0,0,0)"  stroke-width="2.0"/>
<line x1="98.8" y1="367.1" x2="98.8" y2="354.2" stroke="rgb(0,0,0)"  stroke-width="2.0"/>
<line x1="110.1" y1="334.7" x2="132.5" y2="321.7" stroke="rgb(0,0,0)"  stroke-width="2.0"/>
<line x1="132.5" y1="321.7" x2="132.5" y2="243.8" stroke="rgb(0,0,0)"  stroke-width="2.0"/>
<line x1="132.5" y1="321.7" x2="158.5" y2="321.7" stroke="rgb(0,0,0)"  stroke-width="2.0"/>
<line x1="132.5" y1="321.7" x2="145.5" y2="344.2" stroke="rgb(0,0,0)"  stroke-width="2.0"/>
<line x1="132.5" y1="243.8" x2="158.0" y2="238.6" stroke="rgb(0,0,0)"  stroke-width="2.0"/>
<polygon points="132.542569 243.770459 94.686943 253.816062 93.435467 245.914555 " stroke-width="2.000000" fill="rgb(0,0,0)"  stroke="rgb(0,0,0)" />
<line x1="94.1" y1="249.9" x2="95.4" y2="275.8" stroke="rgb(0,0,0)"  stroke-width="2.0"/>
<polygon points="94.061205 249.865309 72.809237 216.966731 79.937289 213.334807 " stroke-width="2.000000" fill="rgb(0,0,0)"  stroke="rgb(0,0,0)" />
<line x1="94.1" y1="249.9" x2="72.3" y2="264.0" stroke="rgb(0,0,0)"  stroke-width="2.0"/>
<line x1="76.4" y1="215.2" x2="52.1" y2="224.5" stroke="rgb(0,0,0)"  stroke-width="2.0"/>
<polygon points="76.373263 215.150769 101.094451 184.772727 106.751305 190.429581 " stroke-width="2.000000" fill="rgb(0,0,0)"  stroke="rgb(0,0,0)" />
<line x1="76.4" y1="215.2" x2="56.2" y2="198.8" stroke="rgb(0,0,0)"  stroke-width="2.0"/>
<polygon points="103.922878 187.601154 84.386580 169.831898 90.603748 164.797335 " stroke-width="2.000000" fill="rgb(0,0,0)"  stroke="rgb(0,0,0)" />
<line x1="103.9" y1="187.6" x2="113.2" y2="163.4" stroke="rgb(0,0,0)"  stroke-width="2.0"/>
<line x1="93.4" y1="120.9" x2="67.7" y2="125.0" stroke="rgb(0,0,0)"  stroke-width="2.0"/>
<line x1="107.3" y1="84.6" x2="83.1" y2="75.3" stroke="rgb(0,0,0)"  stroke-width="2.0"/>
<line x1="107.3" y1="84.6" x2="103.3" y2="58.9" stroke="rgb(0,0,0)"  stroke-width="2.0"/>
<line x1="145.8" y1="78.5" x2="141.7" y2="52.8" stroke="rgb(0,0,0)"  stroke-width="2.0"/>
<line x1="145.8" y1="78.5" x2="166.0" y2="62.1" stroke="rgb(0,0,0)"  stroke-width="2.0"/>
<line x1="170.3" y1="108.8" x2="208.8" y2="102.7" stroke="rgb(0,0,0)"  stroke-width="2.0"/>
<line x1="156.4" y1="145.1" x2="172.7" y2="165.3" stroke="rgb(0,0,0)"  stroke-width="2.0"/>
<line x1="206.0" y1="101.6" x2="215.3" y2="77.4" stroke="rgb(0,0,0)"  stroke-width="2.0"/>
<line x1="211.6" y1="103.7" x2="220.9" y2="79.5" stroke="rgb(0,0,0)"  stroke-width="2.0"/>
<line x1="208.8" y1="102.7" x2="225.1" y2="122.8" stroke="rgb(0,0,0)"  stroke-width="2.0"/>
<line x1="246.2" y1="130.9" x2="259.0" y2="128.9" stroke="rgb(0,0,0)"  stroke-width="2.0"/>
<line x1="228.7" y1="145.1" x2="224.0" y2="157.2" stroke="rgb(0,0,0)"  stroke-width="2.0"/>
<line x1="48.1" y1="177.8" x2="50.2" y2="165.0" stroke="rgb(0,0,0)"  stroke-width="2.0"/>
<line x1="62.1" y1="284.1" x2="62.7" y2="297.0" stroke="rgb(0,0,0)"  stroke-width="2.0"/>
<line x1="240.9" y1="411.5" x2="243.6" y2="424.2" stroke="rgb(0,0,0)"  stroke-width="2.0"/>
<line x1="312.4" y1="406.8" x2="304.7" y2="417.2" stroke="rgb(0,0,0)"  stroke-width="2.0"/>
<line x1="398.8" y1="368.6" x2="387.0" y2="345.5" stroke="rgb(0,0,0)"  stroke-width="2.0"/>
<line x1="390.3" y1="324.7" x2="408.7" y2="306.3" stroke="rgb(0,0,0)"  stroke-width="2.0"/>
<line x1="408.7" y1="306.3" x2="443.4" y2="324.0" stroke="rgb(0,0,0)"  stroke-width="2.0"/>
<line x1="410.8" y1="315.5" x2="434.8" y2="327.7" stroke="rgb(0,0,0)"  stroke-width="2.0"/>
<line x1="443.4" y1="324.0" x2="439.3" y2="349.7" stroke="rgb(0,0,0)"  stroke-width="2.0"/>
<line x1="424.6" y1="364.5" x2="398.8" y2="368.6" stroke="rgb(0,0,0)"  stroke-width="2.0"/>
<line x1="421.4" y1="357.7" x2="403.6" y2="360.5" stroke="rgb(0,0,0)"  stroke-width="2.0"/>
<line x1="417.4" y1="260.4" x2="439.3" y2="246.2" stroke="rgb(0,0,0)"  stroke-width="2.0"/>
<line x1="423.1" y1="265.3" x2="438.2" y2="255.5" stroke="rgb(0,0,0)"  stroke-width="2.0"/>
<line x1="439.3" y1="246.2" x2="462.4" y2="258.0" stroke="rgb(0,0,0)"  stroke-width="2.0"/>
<line x1="474.7" y1="276.9" x2="476.1" y2="302.8" stroke="rgb(0,0,0)"  stroke-width="2.0"/>
<line x1="476.1" y1="302.8" x2="443.4" y2="324.0" stroke="rgb(0,0,0)"  stroke-width="2.0"/>
<line x1="408.7" y1="306.3" x2="407.3" y2="280.4" stroke="rgb(0,0,0)"  stroke-width="2.0"/>
<line x1="267.1" y1="372.7" x2="244.2" y2="341.2" stroke="rgb(0,0,0)"  stroke-width="2.0"/>
<line x1="244.2" y1="341.2" x2="259.5" y2="320.2" stroke="rgb(0,0,0)"  stroke-width="2.0"/>
<line x1="279.5" y1="313.7" x2="304.2" y2="321.7" stroke="rgb(0,0,0)"  stroke-width="2.0"/>
<line x1="304.2" y1="321.7" x2="304.2" y2="360.7" stroke="rgb(0,0,0)"  stroke-width="2.0"/>
<line x1="304.2" y1="360.7" x2="267.1" y2="372.7" stroke="rgb(0,0,0)"  stroke-width="2.0"/>
<line x1="76.4" y1="215.2" x2="103.9" y2="187.6" stroke="rgb(0,0,0)"  stroke-width="2.0"/>
<line x1="103.9" y1="187.6" x2="127.1" y2="199.4" stroke="rgb(0,0,0)"  stroke-width="2.0"/>
<line x1="136.6" y1="218.1" x2="132.5" y2="243.8" stroke="rgb(0,0,0)"  stroke-width="2.0"/>
<line x1="132.5" y1="243.8" x2="94.1" y2="249.9" stroke="rgb(0,0,0)"  stroke-width="2.0"/>
<line x1="94.1" y1="249.9" x2="76.4" y2="215.2" stroke="rgb(0,0,0)"  stroke-width="2.0"/>
<line x1="107.3" y1="84.6" x2="145.8" y2="78.5" stroke="rgb(0,0,0)"  stroke-width="2.0"/>
<line x1="145.8" y1="78.5" x2="170.3" y2="108.8" stroke="rgb(0,0,0)"  stroke-width="2.0"/>
<line x1="170.3" y1="108.8" x2="156.4" y2="145.1" stroke="rgb(0,0,0)"  stroke-width="2.0"/>
<line x1="161.5" y1="111.8" x2="151.8" y2="137.0" stroke="rgb(0,0,0)"  stroke-width="2.0"/>
<line x1="156.4" y1="145.1" x2="130.7" y2="149.2" stroke="rgb(0,0,0)"  stroke-width="2.0"/>
<line x1="109.8" y1="141.2" x2="93.4" y2="120.9" stroke="rgb(0,0,0)"  stroke-width="2.0"/>
<line x1="114.1" y1="135.1" x2="102.7" y2="121.1" stroke="rgb(0,0,0)"  stroke-width="2.0"/>
<line x1="93.4" y1="120.9" x2="107.3" y2="84.6" stroke="rgb(0,0,0)"  stroke-width="2.0"/>
<text x="314.007653" y="404.246257" fill="rgb(255,12,12)"  stroke="rgb(255,12,12)" stroke-width="1" font-size="16" >O</text>
<text x="232.152926" y="406.763223" fill="rgb(255,12,12)"  stroke="rgb(255,12,12)" stroke-width="1" font-size="16" >O</text>
<text x="55.385728" y="279.085011" fill="rgb(255,12,12)"  stroke="rgb(255,12,12)" stroke-width="1" font-size="16" >O</text>
<text x="40.094849" y="198.631793" fill="rgb(255,12,12)"  stroke="rgb(255,12,12)" stroke-width="1" font-size="16" >O</text>
<text x="227.329358" y="140.943343" fill="rgb(12,12,255)"  stroke="rgb(12,12,255)" stroke-width="1" font-size="16" >N</text>
<text x="216.772769" y="74.291665" fill="rgb(255,12,12)"  stroke="rgb(255,12,12)" stroke-width="1" font-size="16" >O</text>
<text x="431.270463" y="215.297630" fill="rgb(191,191,191)"  stroke="rgb(191,191,191)" stroke-width="1" font-size="16" >H</text>
<text x="111.885266" y="159.227891" fill="rgb(12,12,255)"  stroke="rgb(12,12,255)" stroke-width="1" font-size="16" >N</text>
<text x="132.637418" y="213.289096" fill="rgb(255,12,12)"  stroke="rgb(255,12,12)" stroke-width="1" font-size="16" >O</text>
<text x="73.403902" y="165.322740" fill="rgb(191,191,191)"  stroke="rgb(191,191,191)" stroke-width="1" font-size="16" >H</text>
<text x="34.000000" y="237.113157" fill="rgb(191,191,191)"  stroke="rgb(191,191,191)" stroke-width="1" font-size="16" >H</text>
<text x="170.088455" y="61.962388" fill="rgb(191,191,191)"  stroke="rgb(191,191,191)" stroke-width="1" font-size="16" >H</text>
<text x="95.233828" y="54.094849" fill="rgb(191,191,191)"  stroke="rgb(191,191,191)" stroke-width="1" font-size="16" >H</text>
<text x="291.106928" y="435.766399" fill="rgb(191,191,191)"  stroke="rgb(191,191,191)" stroke-width="1" font-size="16" >H</text>
<text x="240.253381" y="444.872870" fill="rgb(191,191,191)"  stroke="rgb(191,191,191)" stroke-width="1" font-size="16" >H</text>
<text x="57.424791" y="317.992656" fill="rgb(191,191,191)"  stroke="rgb(191,191,191)" stroke-width="1" font-size="16" >H</text>
<text x="46.189699" y="160.150429" fill="rgb(191,191,191)"  stroke="rgb(191,191,191)" stroke-width="1" font-size="16" >H</text>
<text x="213.366970" y="177.316606" fill="rgb(191,191,191)"  stroke="rgb(191,191,191)" stroke-width="1" font-size="16" >H</text>
<text x="265.810722" y="134.848494" fill="rgb(191,191,191)"  stroke="rgb(191,191,191)" stroke-width="1" font-size="16" >H</text>
<text x="174.885606" y="183.411455" fill="rgb(191,191,191)"  stroke="rgb(191,191,191)" stroke-width="1" font-size="16" >H</text>
<text x="133.715192" y="48.000000" fill="rgb(191,191,191)"  stroke="rgb(191,191,191)" stroke-width="1" font-size="16" >H</text>
<text x="64.955414" y="78.613826" fill="rgb(191,191,191)"  stroke="rgb(191,191,191)" stroke-width="1" font-size="16" >H</text>
<text x="48.884926" y="135.044326" fill="rgb(191,191,191)"  stroke="rgb(191,191,191)" stroke-width="1" font-size="16" >H</text>
<text x="146.023088" y="363.433787" fill="rgb(191,191,191)"  stroke="rgb(191,191,191)" stroke-width="1" font-size="16" >H</text>
<text x="165.503608" y="329.692537" fill="rgb(191,191,191)"  stroke="rgb(191,191,191)" stroke-width="1" font-size="16" >H</text>
<text x="223.945166" y="295.951288" fill="rgb(191,191,191)"  stroke="rgb(191,191,191)" stroke-width="1" font-size="16" >H</text>
<text x="184.984127" y="295.951288" fill="rgb(191,191,191)"  stroke="rgb(191,191,191)" stroke-width="1" font-size="16" >H</text>
<text x="375.123498" y="411.311316" fill="rgb(191,191,191)"  stroke="rgb(191,191,191)" stroke-width="1" font-size="16" >H</text>
<text x="269.207076" y="418.802846" fill="rgb(191,191,191)"  stroke="rgb(191,191,191)" stroke-width="1" font-size="16" >H</text>
<text x="336.908377" y="372.726114" fill="rgb(191,191,191)"  stroke="rgb(191,191,191)" stroke-width="1" font-size="16" >H</text>
<text x="296.478149" y="290.767849" fill="rgb(191,191,191)"  stroke="rgb(191,191,191)" stroke-width="1" font-size="16" >H</text>
<text x="375.123498" y="341.882236" fill="rgb(12,12,255)"  stroke="rgb(12,12,255)" stroke-width="1" font-size="16" >N</text>
<text x="204.464647" y="368.653576" fill="rgb(191,191,191)"  stroke="rgb(191,191,191)" stroke-width="1" font-size="16" >H</text>
<text x="431.292804" y="370.501927" fill="rgb(12,12,255)"  stroke="rgb(12,12,255)" stroke-width="1" font-size="16" >N</text>
<text x="468.024066" y="271.893216" fill="rgb(12,12,255)"  stroke="rgb(12,12,255)" stroke-width="1" font-size="16" >N</text>
<text x="504.777670" y="328.488802" fill="rgb(255,12,12)"  stroke="rgb(255,12,12)" stroke-width="1" font-size="16" >O</text>
<text x="500.699543" y="250.673513" fill="rgb(191,191,191)"  stroke="rgb(191,191,191)" stroke-width="1" font-size="16" >H</text>
<text x="400.634050" y="275.424977" fill="rgb(12,12,255)"  stroke="rgb(12,12,255)" stroke-width="1" font-size="16" >N</text>
<text x="92.801319" y="388.134096" fill="rgb(255,127,0)"  stroke="rgb(255,127,0)" stroke-width="1" font-size="16" >P</text>
<text x="90.100268" y="296.772953" fill="rgb(191,191,191)"  stroke="rgb(191,191,191)" stroke-width="1" font-size="16" >H</text>
<text x="164.724810" y="244.019392" fill="rgb(191,191,191)"  stroke="rgb(191,191,191)" stroke-width="1" font-size="16" >H</text>
<text x="92.801319" y="349.173057" fill="rgb(255,12,12)"  stroke="rgb(255,12,12)" stroke-width="1" font-size="16" >O</text>
<text x="41.840280" y="388.134096" fill="rgb(255,12,12)"  stroke="rgb(255,12,12)" stroke-width="1" font-size="16" >HO</text>
<text x="92.801319" y="427.095135" fill="rgb(255,12,12)"  stroke="rgb(255,12,12)" stroke-width="1" font-size="16" >O</text>
<text x="131.762358" y="388.134096" fill="rgb(255,12,12)"  stroke="rgb(255,12,12)" stroke-width="1" font-size="16" >O</text>
<text x="170.723397" y="427.095135" fill="rgb(255,12,12)"  stroke="rgb(255,12,12)" stroke-width="1" font-size="16" >OH</text>
<text x="209.684436" y="388.134096" fill="rgb(255,12,12)"  stroke="rgb(255,12,12)" stroke-width="1" font-size="16" >O</text>
<text x="170.723397" y="388.134096" fill="rgb(255,127,0)"  stroke="rgb(255,127,0)" stroke-width="1" font-size="16" >P</text>
<text x="170.723397" y="349.173057" fill="rgb(255,12,12)"  stroke="rgb(255,12,12)" stroke-width="1" font-size="16" >O</text>
<text x="261.106620" y="317.652914" fill="rgb(255,12,12)"  stroke="rgb(255,12,12)" stroke-width="1" font-size="16" >O</text>
</svg>
</g>
<text font-size="18.000000" fill ="black" font-family="sans-serif"
x="10.000000" y="20.000000" >ZINC62592207</text>
</svg>
