<?xml version="1.0"?>
<svg version="1.1" id="topsvg"
xmlns="http://www.w3.org/2000/svg" xmlns:xlink="http://www.w3.org/1999/xlink"
xmlns:cml="http://www.xml-cml.org/schema" x="0" y="0" width="200px" height="200px" viewBox="0 0 100 100">
<title>ZINC18144773 - Open Babel Depiction</title>
<rect x="0" y="0" width="100" height="100" fill="white"/>
<g transform="translate(0,0)">
<svg width="100" height="100" x="0" y="0" viewBox="0 0 255.663 403.724"
font-family="sans-serif" stroke="rgb(0,0,0)" stroke-width="2"  stroke-linecap="round">
<line x1="179.5" y1="327.6" x2="162.3" y2="310.3" stroke="rgb(0,0,0)"  stroke-width="2.0"/>
<line x1="179.5" y1="327.6" x2="203.1" y2="333.9" stroke="rgb(0,0,0)"  stroke-width="2.0"/>
<line x1="179.5" y1="327.6" x2="196.8" y2="310.3" stroke="rgb(0,0,0)"  stroke-width="2.0"/>
<line x1="179.5" y1="327.6" x2="173.2" y2="351.2" stroke="rgb(0,0,0)"  stroke-width="2.0"/>
<line x1="156.4" y1="288.6" x2="162.7" y2="265.0" stroke="rgb(0,0,0)"  stroke-width="2.0"/>
<line x1="162.0" y1="262.1" x2="185.6" y2="255.8" stroke="rgb(0,0,0)"  stroke-width="2.0"/>
<line x1="163.5" y1="267.9" x2="187.1" y2="261.6" stroke="rgb(0,0,0)"  stroke-width="2.0"/>
<line x1="162.7" y1="265.0" x2="109.8" y2="212.1" stroke="rgb(0,0,0)"  stroke-width="2.0"/>
<line x1="105.5" y1="214.7" x2="104.9" y2="213.2" stroke="rgb(0,0,0)"  stroke-width="1.0"/>
<line x1="102.0" y1="216.8" x2="100.9" y2="214.2" stroke="rgb(0,0,0)"  stroke-width="1.0"/>
<line x1="98.6" y1="219.0" x2="97.0" y2="215.1" stroke="rgb(0,0,0)"  stroke-width="1.0"/>
<line x1="95.1" y1="221.1" x2="93.0" y2="216.1" stroke="rgb(0,0,0)"  stroke-width="1.0"/>
<line x1="91.7" y1="223.2" x2="89.1" y2="217.0" stroke="rgb(0,0,0)"  stroke-width="1.0"/>
<line x1="88.2" y1="225.3" x2="85.1" y2="218.0" stroke="rgb(0,0,0)"  stroke-width="1.0"/>
<line x1="142.2" y1="193.3" x2="154.4" y2="214.5" stroke="rgb(0,0,0)"  stroke-width="2.0"/>
<line x1="142.2" y1="193.3" x2="166.7" y2="193.3" stroke="rgb(0,0,0)"  stroke-width="2.0"/>
<line x1="140.7" y1="153.3" x2="161.9" y2="141.1" stroke="rgb(0,0,0)"  stroke-width="2.0"/>
<line x1="143.7" y1="158.5" x2="164.9" y2="146.3" stroke="rgb(0,0,0)"  stroke-width="2.0"/>
<polygon points="109.825467 137.218336 93.825881 117.506241 100.754084 113.506241 " stroke-width="2.000000" fill="rgb(0,0,0)"  stroke="rgb(0,0,0)" />
<line x1="109.8" y1="137.2" x2="128.5" y2="104.8" stroke="rgb(0,0,0)"  stroke-width="2.0"/>
<line x1="75.9" y1="158.5" x2="54.8" y2="146.3" stroke="rgb(0,0,0)"  stroke-width="2.0"/>
<line x1="78.9" y1="153.3" x2="57.8" y2="141.1" stroke="rgb(0,0,0)"  stroke-width="2.0"/>
<line x1="77.4" y1="193.3" x2="53.0" y2="193.3" stroke="rgb(0,0,0)"  stroke-width="2.0"/>
<line x1="77.4" y1="193.3" x2="46.5" y2="246.9" stroke="rgb(0,0,0)"  stroke-width="2.0"/>
<line x1="128.5" y1="104.8" x2="109.8" y2="72.4" stroke="rgb(0,0,0)"  stroke-width="2.0"/>
<line x1="128.5" y1="104.8" x2="149.7" y2="92.6" stroke="rgb(0,0,0)"  stroke-width="2.0"/>
<line x1="128.5" y1="104.8" x2="149.7" y2="117.0" stroke="rgb(0,0,0)"  stroke-width="2.0"/>
<line x1="109.8" y1="75.4" x2="72.4" y2="75.4" stroke="rgb(0,0,0)"  stroke-width="2.0"/>
<line x1="109.8" y1="69.4" x2="72.4" y2="69.4" stroke="rgb(0,0,0)"  stroke-width="2.0"/>
<line x1="109.8" y1="72.4" x2="122.0" y2="51.3" stroke="rgb(0,0,0)"  stroke-width="2.0"/>
<line x1="72.4" y1="72.4" x2="60.2" y2="93.6" stroke="rgb(0,0,0)"  stroke-width="2.0"/>
<line x1="72.4" y1="72.4" x2="60.2" y2="51.3" stroke="rgb(0,0,0)"  stroke-width="2.0"/>
<line x1="142.2" y1="155.9" x2="109.8" y2="137.2" stroke="rgb(0,0,0)"  stroke-width="2.0"/>
<line x1="109.8" y1="137.2" x2="77.4" y2="155.9" stroke="rgb(0,0,0)"  stroke-width="2.0"/>
<line x1="77.4" y1="155.9" x2="77.4" y2="193.3" stroke="rgb(0,0,0)"  stroke-width="2.0"/>
<line x1="77.4" y1="193.3" x2="109.8" y2="212.1" stroke="rgb(0,0,0)"  stroke-width="2.0"/>
<line x1="109.8" y1="212.1" x2="142.2" y2="193.3" stroke="rgb(0,0,0)"  stroke-width="2.0"/>
<line x1="142.2" y1="193.3" x2="142.2" y2="155.9" stroke="rgb(0,0,0)"  stroke-width="2.0"/>
<text x="85.115789" y="112.812224" fill="rgb(191,191,191)"  stroke="rgb(191,191,191)" stroke-width="1" font-size="16" >H</text>
<text x="47.696434" y="48.000000" fill="rgb(191,191,191)"  stroke="rgb(191,191,191)" stroke-width="1" font-size="16" >H</text>
<text x="47.696434" y="112.812224" fill="rgb(191,191,191)"  stroke="rgb(191,191,191)" stroke-width="1" font-size="16" >H</text>
<text x="122.535144" y="48.000000" fill="rgb(191,191,191)"  stroke="rgb(191,191,191)" stroke-width="1" font-size="16" >H</text>
<text x="154.941256" y="131.521901" fill="rgb(191,191,191)"  stroke="rgb(191,191,191)" stroke-width="1" font-size="16" >H</text>
<text x="154.941256" y="94.102546" fill="rgb(191,191,191)"  stroke="rgb(191,191,191)" stroke-width="1" font-size="16" >H</text>
<text x="34.000000" y="266.159592" fill="rgb(191,191,191)"  stroke="rgb(191,191,191)" stroke-width="1" font-size="16" >H</text>
<text x="34.000000" y="201.347368" fill="rgb(191,191,191)"  stroke="rgb(191,191,191)" stroke-width="1" font-size="16" >H</text>
<text x="173.650933" y="201.347368" fill="rgb(191,191,191)"  stroke="rgb(191,191,191)" stroke-width="1" font-size="16" >H</text>
<text x="154.941256" y="233.753480" fill="rgb(191,191,191)"  stroke="rgb(191,191,191)" stroke-width="1" font-size="16" >H</text>
<text x="163.834222" y="371.724126" fill="rgb(191,191,191)"  stroke="rgb(191,191,191)" stroke-width="1" font-size="16" >H</text>
<text x="199.978543" y="309.120326" fill="rgb(191,191,191)"  stroke="rgb(191,191,191)" stroke-width="1" font-size="16" >H</text>
<text x="209.663385" y="345.264647" fill="rgb(191,191,191)"  stroke="rgb(191,191,191)" stroke-width="1" font-size="16" >H</text>
<text x="168.637690" y="145.218336" fill="rgb(255,12,12)"  stroke="rgb(255,12,12)" stroke-width="1" font-size="16" >O</text>
<text x="39.013243" y="145.218336" fill="rgb(255,12,12)"  stroke="rgb(255,12,12)" stroke-width="1" font-size="16" >O</text>
<text x="69.254491" y="234.376812" fill="rgb(191,191,191)"  stroke="rgb(191,191,191)" stroke-width="1" font-size="16" >H</text>
<text x="192.888747" y="263.291163" fill="rgb(255,12,12)"  stroke="rgb(255,12,12)" stroke-width="1" font-size="16" >O</text>
<text x="147.059584" y="309.120326" fill="rgb(255,12,12)"  stroke="rgb(255,12,12)" stroke-width="1" font-size="16" >O</text>
</svg>
</g>
<text font-size="18.000000" fill ="black" font-family="sans-serif"
x="10.000000" y="20.000000" >ZINC18144773</text>
</svg>
