<?xml version="1.0"?>
<svg version="1.1" id="topsvg"
xmlns="http://www.w3.org/2000/svg" xmlns:xlink="http://www.w3.org/1999/xlink"
xmlns:cml="http://www.xml-cml.org/schema" x="0" y="0" width="200px" height="200px" viewBox="0 0 100 100">
<title>ZINC05380440 - Open Babel Depiction</title>
<rect x="0" y="0" width="100" height="100" fill="white"/>
<g transform="translate(0,0)">
<svg width="100" height="100" x="0" y="0" viewBox="0 0 155.872 213.914"
font-family="sans-serif" stroke="rgb(0,0,0)" stroke-width="2"  stroke-linecap="round">
<line x1="83.5" y1="133.9" x2="83.5" y2="160.9" stroke="rgb(0,0,0)"  stroke-width="2.0"/>
<line x1="63.5" y1="72.4" x2="47.6" y2="50.5" stroke="rgb(0,0,0)"  stroke-width="2.0"/>
<line x1="90.5" y1="72.4" x2="63.5" y2="72.4" stroke="rgb(0,0,0)"  stroke-width="2.0"/>
<line x1="63.5" y1="72.4" x2="55.2" y2="97.8" stroke="rgb(0,0,0)"  stroke-width="2.0"/>
<line x1="68.5" y1="80.3" x2="62.7" y2="98.2" stroke="rgb(0,0,0)"  stroke-width="2.0"/>
<line x1="61.7" y1="118.0" x2="83.5" y2="133.9" stroke="rgb(0,0,0)"  stroke-width="2.0"/>
<line x1="83.5" y1="133.9" x2="105.2" y2="118.2" stroke="rgb(0,0,0)"  stroke-width="2.0"/>
<line x1="84.1" y1="124.6" x2="99.3" y2="113.5" stroke="rgb(0,0,0)"  stroke-width="2.0"/>
<line x1="111.9" y1="98.0" x2="107.5" y2="84.7" stroke="rgb(0,0,0)"  stroke-width="2.0"/>
<text x="109.872090" y="118.402940" fill="rgb(12,12,255)"  stroke="rgb(12,12,255)" stroke-width="1" font-size="16" >N</text>
<text x="97.511410" y="80.360680" fill="rgb(12,12,255)"  stroke="rgb(12,12,255)" stroke-width="1" font-size="16" >N</text>
<text x="97.511410" y="64.360680" fill="rgb(12,12,255)"  stroke="rgb(12,12,255)" stroke-width="1" font-size="16" >H</text>
<text x="45.150730" y="118.402940" fill="rgb(12,12,255)"  stroke="rgb(12,12,255)" stroke-width="1" font-size="16" >N</text>
<text x="22.000000" y="48.000000" fill="rgb(30,239,30)"  stroke="rgb(30,239,30)" stroke-width="1" font-size="16" >Cl</text>
<text x="77.511410" y="181.914351" fill="rgb(191,191,191)"  stroke="rgb(191,191,191)" stroke-width="1" font-size="16" >H</text>
</svg>
</g>
<text font-size="18.000000" fill ="black" font-family="sans-serif"
x="10.000000" y="20.000000" >ZINC05380440</text>
</svg>
