<?xml version="1.0"?>
<svg version="1.1" id="topsvg"
xmlns="http://www.w3.org/2000/svg" xmlns:xlink="http://www.w3.org/1999/xlink"
xmlns:cml="http://www.xml-cml.org/schema" x="0" y="0" width="200px" height="200px" viewBox="0 0 100 100">
<title>ZINC23094085 - Open Babel Depiction</title>
<rect x="0" y="0" width="100" height="100" fill="white"/>
<g transform="translate(0,0)">
<svg width="100" height="100" x="0" y="0" viewBox="0 0 395.154 371.134"
font-family="sans-serif" stroke="rgb(0,0,0)" stroke-width="2"  stroke-linecap="round">
<line x1="74.3" y1="90.3" x2="96.1" y2="96.1" stroke="rgb(0,0,0)"  stroke-width="2.0"/>
<line x1="74.3" y1="90.3" x2="52.6" y2="96.1" stroke="rgb(0,0,0)"  stroke-width="2.0"/>
<line x1="74.3" y1="90.3" x2="68.5" y2="112.1" stroke="rgb(0,0,0)"  stroke-width="2.0"/>
<line x1="74.3" y1="90.3" x2="68.5" y2="68.5" stroke="rgb(0,0,0)"  stroke-width="2.0"/>
<line x1="133.8" y1="74.3" x2="117.9" y2="58.4" stroke="rgb(0,0,0)"  stroke-width="2.0"/>
<line x1="133.8" y1="74.3" x2="139.7" y2="52.6" stroke="rgb(0,0,0)"  stroke-width="2.0"/>
<line x1="168.2" y1="83.5" x2="174.0" y2="61.8" stroke="rgb(0,0,0)"  stroke-width="2.0"/>
<line x1="168.2" y1="83.5" x2="224.3" y2="68.5" stroke="rgb(0,0,0)"  stroke-width="2.0"/>
<line x1="183.9" y1="129.1" x2="248.5" y2="241.1" stroke="rgb(0,0,0)"  stroke-width="2.0"/>
<line x1="185.3" y1="107.6" x2="191.1" y2="100.0" stroke="rgb(0,0,0)"  stroke-width="2.0"/>
<line x1="152.2" y1="143.0" x2="168.2" y2="159.0" stroke="rgb(0,0,0)"  stroke-width="2.0"/>
<line x1="152.2" y1="143.0" x2="146.4" y2="164.8" stroke="rgb(0,0,0)"  stroke-width="2.0"/>
<line x1="117.9" y1="133.8" x2="112.1" y2="155.6" stroke="rgb(0,0,0)"  stroke-width="2.0"/>
<line x1="117.9" y1="133.8" x2="96.1" y2="139.7" stroke="rgb(0,0,0)"  stroke-width="2.0"/>
<line x1="248.5" y1="241.1" x2="284.0" y2="179.5" stroke="rgb(0,0,0)"  stroke-width="2.0"/>
<line x1="277.3" y1="262.0" x2="292.3" y2="245.2" stroke="rgb(0,0,0)"  stroke-width="2.0"/>
<line x1="277.3" y1="262.0" x2="299.3" y2="266.6" stroke="rgb(0,0,0)"  stroke-width="2.0"/>
<line x1="266.3" y1="295.8" x2="286.9" y2="304.9" stroke="rgb(0,0,0)"  stroke-width="2.0"/>
<line x1="266.3" y1="295.8" x2="268.6" y2="318.2" stroke="rgb(0,0,0)"  stroke-width="2.0"/>
<line x1="230.7" y1="295.8" x2="228.4" y2="318.2" stroke="rgb(0,0,0)"  stroke-width="2.0"/>
<line x1="230.7" y1="295.8" x2="210.1" y2="304.9" stroke="rgb(0,0,0)"  stroke-width="2.0"/>
<line x1="219.7" y1="262.0" x2="197.7" y2="266.6" stroke="rgb(0,0,0)"  stroke-width="2.0"/>
<line x1="219.7" y1="262.0" x2="204.6" y2="245.2" stroke="rgb(0,0,0)"  stroke-width="2.0"/>
<line x1="284.0" y1="179.5" x2="306.6" y2="179.5" stroke="rgb(0,0,0)"  stroke-width="2.0"/>
<line x1="284.0" y1="179.5" x2="284.0" y2="156.9" stroke="rgb(0,0,0)"  stroke-width="2.0"/>
<line x1="284.0" y1="179.5" x2="264.5" y2="168.2" stroke="rgb(0,0,0)"  stroke-width="2.0"/>
<line x1="319.6" y1="192.5" x2="319.6" y2="202.0" stroke="rgb(0,0,0)"  stroke-width="2.0"/>
<line x1="332.6" y1="179.5" x2="342.2" y2="179.5" stroke="rgb(0,0,0)"  stroke-width="2.0"/>
<line x1="319.6" y1="166.5" x2="319.6" y2="156.9" stroke="rgb(0,0,0)"  stroke-width="2.0"/>
<line x1="266.3" y1="295.8" x2="230.7" y2="295.8" stroke="rgb(0,0,0)"  stroke-width="2.0"/>
<line x1="230.7" y1="295.8" x2="219.7" y2="262.0" stroke="rgb(0,0,0)"  stroke-width="2.0"/>
<line x1="219.7" y1="262.0" x2="248.5" y2="241.1" stroke="rgb(0,0,0)"  stroke-width="2.0"/>
<line x1="248.5" y1="241.1" x2="277.3" y2="262.0" stroke="rgb(0,0,0)"  stroke-width="2.0"/>
<line x1="277.3" y1="262.0" x2="266.3" y2="295.8" stroke="rgb(0,0,0)"  stroke-width="2.0"/>
<line x1="168.2" y1="83.5" x2="174.0" y2="105.3" stroke="rgb(0,0,0)"  stroke-width="2.0"/>
<line x1="168.2" y1="127.1" x2="152.2" y2="143.0" stroke="rgb(0,0,0)"  stroke-width="2.0"/>
<line x1="152.2" y1="143.0" x2="117.9" y2="133.8" stroke="rgb(0,0,0)"  stroke-width="2.0"/>
<line x1="117.9" y1="133.8" x2="112.1" y2="112.0" stroke="rgb(0,0,0)"  stroke-width="2.0"/>
<line x1="117.9" y1="90.3" x2="133.8" y2="74.3" stroke="rgb(0,0,0)"  stroke-width="2.0"/>
<line x1="133.8" y1="74.3" x2="168.2" y2="83.5" stroke="rgb(0,0,0)"  stroke-width="2.0"/>
<text x="220.992883" y="339.133724" fill="rgb(191,191,191)"  stroke="rgb(191,191,191)" stroke-width="1" font-size="16" >H</text>
<text x="230.861721" y="73.141574" fill="rgb(191,191,191)"  stroke="rgb(191,191,191)" stroke-width="1" font-size="16" >H</text>
<text x="171.376118" y="176.173663" fill="rgb(191,191,191)"  stroke="rgb(191,191,191)" stroke-width="1" font-size="16" >H</text>
<text x="137.032088" y="185.376118" fill="rgb(191,191,191)"  stroke="rgb(191,191,191)" stroke-width="1" font-size="16" >H</text>
<text x="102.688059" y="176.173663" fill="rgb(191,191,191)"  stroke="rgb(191,191,191)" stroke-width="1" font-size="16" >H</text>
<text x="77.546484" y="151.032088" fill="rgb(191,191,191)"  stroke="rgb(191,191,191)" stroke-width="1" font-size="16" >H</text>
<text x="295.043588" y="243.534675" fill="rgb(191,191,191)"  stroke="rgb(191,191,191)" stroke-width="1" font-size="16" >H</text>
<text x="306.030859" y="277.350018" fill="rgb(191,191,191)"  stroke="rgb(191,191,191)" stroke-width="1" font-size="16" >H</text>
<text x="292.746623" y="318.234692" fill="rgb(191,191,191)"  stroke="rgb(191,191,191)" stroke-width="1" font-size="16" >H</text>
<text x="263.981574" y="339.133724" fill="rgb(191,191,191)"  stroke="rgb(191,191,191)" stroke-width="1" font-size="16" >H</text>
<text x="171.376118" y="57.202455" fill="rgb(191,191,191)"  stroke="rgb(191,191,191)" stroke-width="1" font-size="16" >H</text>
<text x="192.227835" y="318.234692" fill="rgb(191,191,191)"  stroke="rgb(191,191,191)" stroke-width="1" font-size="16" >H</text>
<text x="178.943599" y="277.350018" fill="rgb(191,191,191)"  stroke="rgb(191,191,191)" stroke-width="1" font-size="16" >H</text>
<text x="189.930869" y="243.534675" fill="rgb(191,191,191)"  stroke="rgb(191,191,191)" stroke-width="1" font-size="16" >H</text>
<text x="278.042784" y="151.918987" fill="rgb(191,191,191)"  stroke="rgb(191,191,191)" stroke-width="1" font-size="16" >H</text>
<text x="247.250770" y="169.696765" fill="rgb(191,191,191)"  stroke="rgb(191,191,191)" stroke-width="1" font-size="16" >H</text>
<text x="313.598340" y="223.030098" fill="rgb(191,191,191)"  stroke="rgb(191,191,191)" stroke-width="1" font-size="16" >H</text>
<text x="349.153895" y="187.474542" fill="rgb(191,191,191)"  stroke="rgb(191,191,191)" stroke-width="1" font-size="16" >H</text>
<text x="313.598340" y="151.918987" fill="rgb(191,191,191)"  stroke="rgb(191,191,191)" stroke-width="1" font-size="16" >H</text>
<text x="193.020968" y="97.682395" fill="rgb(191,191,191)"  stroke="rgb(191,191,191)" stroke-width="1" font-size="16" >H</text>
<text x="102.688059" y="107.485604" fill="rgb(12,12,255)"  stroke="rgb(12,12,255)" stroke-width="1" font-size="16" >N</text>
<text x="182.176118" y="113.858514" fill="rgb(12,12,255)"  stroke="rgb(12,12,255)" stroke-width="1" font-size="16" >+</text>
<text x="171.376118" y="125.890514" fill="rgb(12,12,255)"  stroke="rgb(12,12,255)" stroke-width="1" font-size="16" >N</text>
<text x="324.398340" y="175.442542" fill="rgb(12,12,255)"  stroke="rgb(12,12,255)" stroke-width="1" font-size="16" >+</text>
<text x="313.598340" y="187.474542" fill="rgb(12,12,255)"  stroke="rgb(12,12,255)" stroke-width="1" font-size="16" >N</text>
<text x="34.000000" y="107.485604" fill="rgb(191,191,191)"  stroke="rgb(191,191,191)" stroke-width="1" font-size="16" >H</text>
<text x="59.141574" y="132.627178" fill="rgb(191,191,191)"  stroke="rgb(191,191,191)" stroke-width="1" font-size="16" >H</text>
<text x="59.141574" y="63.939120" fill="rgb(191,191,191)"  stroke="rgb(191,191,191)" stroke-width="1" font-size="16" >H</text>
<text x="102.688059" y="57.202455" fill="rgb(191,191,191)"  stroke="rgb(191,191,191)" stroke-width="1" font-size="16" >H</text>
<text x="137.032088" y="48.000000" fill="rgb(191,191,191)"  stroke="rgb(191,191,191)" stroke-width="1" font-size="16" >H</text>
</svg>
</g>
<text font-size="18.000000" fill ="black" font-family="sans-serif"
x="10.000000" y="20.000000" >ZINC23094085</text>
</svg>
