<?xml version="1.0"?>
<svg version="1.1" id="topsvg"
xmlns="http://www.w3.org/2000/svg" xmlns:xlink="http://www.w3.org/1999/xlink"
xmlns:cml="http://www.xml-cml.org/schema" x="0" y="0" width="200px" height="200px" viewBox="0 0 100 100">
<title>ZINC22309273 - Open Babel Depiction</title>
<rect x="0" y="0" width="100" height="100" fill="white"/>
<g transform="translate(0,0)">
<svg width="100" height="100" x="0" y="0" viewBox="0 0 387.846 274.641"
font-family="sans-serif" stroke="rgb(0,0,0)" stroke-width="2"  stroke-linecap="round">
<line x1="307.8" y1="74.6" x2="307.8" y2="114.6" stroke="rgb(0,0,0)"  stroke-width="2.0"/>
<line x1="307.8" y1="74.6" x2="294.3" y2="51.3" stroke="rgb(0,0,0)"  stroke-width="2.0"/>
<line x1="307.8" y1="74.6" x2="280.8" y2="74.6" stroke="rgb(0,0,0)"  stroke-width="2.0"/>
<line x1="307.8" y1="74.6" x2="331.2" y2="61.1" stroke="rgb(0,0,0)"  stroke-width="2.0"/>
<line x1="307.8" y1="114.6" x2="284.5" y2="128.1" stroke="rgb(0,0,0)"  stroke-width="2.0"/>
<line x1="307.8" y1="114.6" x2="321.3" y2="138.0" stroke="rgb(0,0,0)"  stroke-width="2.0"/>
<line x1="307.8" y1="114.6" x2="334.8" y2="114.6" stroke="rgb(0,0,0)"  stroke-width="2.0"/>
<line x1="261.9" y1="128.1" x2="238.6" y2="114.6" stroke="rgb(0,0,0)"  stroke-width="2.0"/>
<line x1="235.6" y1="114.6" x2="235.6" y2="87.6" stroke="rgb(0,0,0)"  stroke-width="2.0"/>
<line x1="241.6" y1="114.6" x2="241.6" y2="87.6" stroke="rgb(0,0,0)"  stroke-width="2.0"/>
<line x1="238.6" y1="114.6" x2="203.9" y2="134.6" stroke="rgb(0,0,0)"  stroke-width="2.0"/>
<polygon points="203.923048 134.641016 187.058947 113.431535 193.987150 109.431535 " stroke-width="2.000000" fill="rgb(0,0,0)"  stroke="rgb(0,0,0)" />
<line x1="203.9" y1="134.6" x2="169.3" y2="154.6" stroke="rgb(0,0,0)"  stroke-width="2.0"/>
<line x1="203.9" y1="134.6" x2="217.4" y2="158.0" stroke="rgb(0,0,0)"  stroke-width="2.0"/>
<line x1="167.8" y1="157.2" x2="133.1" y2="137.2" stroke="rgb(0,0,0)"  stroke-width="2.0"/>
<line x1="170.8" y1="152.0" x2="136.1" y2="132.0" stroke="rgb(0,0,0)"  stroke-width="2.0"/>
<line x1="169.3" y1="154.6" x2="169.3" y2="181.6" stroke="rgb(0,0,0)"  stroke-width="2.0"/>
<line x1="134.6" y1="134.6" x2="134.6" y2="94.6" stroke="rgb(0,0,0)"  stroke-width="2.0"/>
<line x1="134.6" y1="134.6" x2="100.0" y2="154.6" stroke="rgb(0,0,0)"  stroke-width="2.0"/>
<line x1="134.6" y1="94.6" x2="121.1" y2="71.3" stroke="rgb(0,0,0)"  stroke-width="2.0"/>
<line x1="134.6" y1="94.6" x2="107.6" y2="94.6" stroke="rgb(0,0,0)"  stroke-width="2.0"/>
<line x1="134.6" y1="94.6" x2="158.0" y2="81.1" stroke="rgb(0,0,0)"  stroke-width="2.0"/>
<line x1="100.0" y1="154.6" x2="100.0" y2="181.6" stroke="rgb(0,0,0)"  stroke-width="2.0"/>
<line x1="100.0" y1="154.6" x2="73.0" y2="154.6" stroke="rgb(0,0,0)"  stroke-width="2.0"/>
<line x1="100.0" y1="154.6" x2="86.5" y2="131.3" stroke="rgb(0,0,0)"  stroke-width="2.0"/>
<line x1="115.9" y1="193.8" x2="115.9" y2="195.4" stroke="rgb(0,0,0)"  stroke-width="1.0"/>
<line x1="118.1" y1="193.2" x2="118.1" y2="196.1" stroke="rgb(0,0,0)"  stroke-width="1.0"/>
<line x1="120.3" y1="192.6" x2="120.3" y2="196.7" stroke="rgb(0,0,0)"  stroke-width="1.0"/>
<line x1="122.4" y1="191.9" x2="122.4" y2="197.4" stroke="rgb(0,0,0)"  stroke-width="1.0"/>
<line x1="124.6" y1="191.3" x2="124.6" y2="198.0" stroke="rgb(0,0,0)"  stroke-width="1.0"/>
<line x1="126.8" y1="190.6" x2="126.8" y2="198.6" stroke="rgb(0,0,0)"  stroke-width="1.0"/>
<line x1="100.0" y1="207.6" x2="100.0" y2="221.6" stroke="rgb(0,0,0)"  stroke-width="2.0"/>
<line x1="87.0" y1="194.6" x2="73.0" y2="194.6" stroke="rgb(0,0,0)"  stroke-width="2.0"/>
<line x1="53.5" y1="205.9" x2="46.5" y2="218.0" stroke="rgb(0,0,0)"  stroke-width="2.0"/>
<line x1="217.4" y1="180.5" x2="210.4" y2="192.7" stroke="rgb(0,0,0)"  stroke-width="2.0"/>
<line x1="236.9" y1="169.3" x2="250.9" y2="169.3" stroke="rgb(0,0,0)"  stroke-width="2.0"/>
<text x="217.923048" y="177.282032" fill="rgb(12,12,255)"  stroke="rgb(12,12,255)" stroke-width="1" font-size="16" >N</text>
<text x="257.923048" y="177.282032" fill="rgb(191,191,191)"  stroke="rgb(191,191,191)" stroke-width="1" font-size="16" >H</text>
<text x="197.923048" y="211.923048" fill="rgb(191,191,191)"  stroke="rgb(191,191,191)" stroke-width="1" font-size="16" >H</text>
<text x="34.000000" y="237.282032" fill="rgb(191,191,191)"  stroke="rgb(191,191,191)" stroke-width="1" font-size="16" >H</text>
<text x="74.000000" y="128.000000" fill="rgb(191,191,191)"  stroke="rgb(191,191,191)" stroke-width="1" font-size="16" >H</text>
<text x="54.000000" y="162.641016" fill="rgb(191,191,191)"  stroke="rgb(191,191,191)" stroke-width="1" font-size="16" >H</text>
<text x="163.282032" y="82.641016" fill="rgb(191,191,191)"  stroke="rgb(191,191,191)" stroke-width="1" font-size="16" >H</text>
<text x="88.641016" y="102.641016" fill="rgb(191,191,191)"  stroke="rgb(191,191,191)" stroke-width="1" font-size="16" >H</text>
<text x="108.641016" y="68.000000" fill="rgb(191,191,191)"  stroke="rgb(191,191,191)" stroke-width="1" font-size="16" >H</text>
<text x="163.282032" y="202.641016" fill="rgb(191,191,191)"  stroke="rgb(191,191,191)" stroke-width="1" font-size="16" >H</text>
<text x="341.846097" y="122.641016" fill="rgb(191,191,191)"  stroke="rgb(191,191,191)" stroke-width="1" font-size="16" >H</text>
<text x="321.846097" y="157.282032" fill="rgb(191,191,191)"  stroke="rgb(191,191,191)" stroke-width="1" font-size="16" >H</text>
<text x="336.487113" y="62.641016" fill="rgb(191,191,191)"  stroke="rgb(191,191,191)" stroke-width="1" font-size="16" >H</text>
<text x="261.846097" y="82.641016" fill="rgb(191,191,191)"  stroke="rgb(191,191,191)" stroke-width="1" font-size="16" >H</text>
<text x="281.846097" y="48.000000" fill="rgb(191,191,191)"  stroke="rgb(191,191,191)" stroke-width="1" font-size="16" >H</text>
<text x="54.000000" y="202.641016" fill="rgb(255,12,12)"  stroke="rgb(255,12,12)" stroke-width="1" font-size="16" >O</text>
<text x="94.000000" y="242.641016" fill="rgb(255,12,12)"  stroke="rgb(255,12,12)" stroke-width="1" font-size="16" >OH</text>
<text x="134.000000" y="202.641016" fill="rgb(255,12,12)"  stroke="rgb(255,12,12)" stroke-width="1" font-size="16" >O</text>
<text x="94.000000" y="202.641016" fill="rgb(255,127,0)"  stroke="rgb(255,127,0)" stroke-width="1" font-size="16" >P</text>
<text x="177.923048" y="108.000000" fill="rgb(191,191,191)"  stroke="rgb(191,191,191)" stroke-width="1" font-size="16" >H</text>
<text x="232.564065" y="82.641016" fill="rgb(255,12,12)"  stroke="rgb(255,12,12)" stroke-width="1" font-size="16" >O</text>
<text x="267.205081" y="142.641016" fill="rgb(255,12,12)"  stroke="rgb(255,12,12)" stroke-width="1" font-size="16" >O</text>
</svg>
</g>
<text font-size="18.000000" fill ="black" font-family="sans-serif"
x="10.000000" y="20.000000" >ZINC22309273</text>
</svg>
