<?xml version="1.0"?>
<svg version="1.1" id="topsvg"
xmlns="http://www.w3.org/2000/svg" xmlns:xlink="http://www.w3.org/1999/xlink"
xmlns:cml="http://www.xml-cml.org/schema" x="0" y="0" width="200px" height="200px" viewBox="0 0 100 100">
<title> - Open Babel Depiction</title>
<rect x="0" y="0" width="100" height="100" fill="white"/>
<g transform="translate(0,0)">
<svg width="100" height="100" x="0" y="0" viewBox="0 0 334.641 229.282"
font-family="sans-serif" stroke="rgb(0,0,0)" stroke-width="2"  stroke-linecap="round">
<line x1="81.1" y1="172.7" x2="94.6" y2="149.3" stroke="rgb(0,0,0)"  stroke-width="2.0"/>
<line x1="94.6" y1="149.3" x2="74.6" y2="114.6" stroke="rgb(0,0,0)"  stroke-width="2.0"/>
<polygon points="74.641016 114.641016 49.431535 104.705118 53.431535 97.776915 " stroke-width="2.000000" fill="rgb(0,0,0)"  stroke="rgb(0,0,0)" />
<line x1="74.6" y1="114.6" x2="94.6" y2="80.0" stroke="rgb(0,0,0)"  stroke-width="2.0"/>
<line x1="93.8" y1="74.6" x2="95.4" y2="74.6" stroke="rgb(0,0,0)"  stroke-width="1.0"/>
<line x1="93.2" y1="70.4" x2="96.1" y2="70.4" stroke="rgb(0,0,0)"  stroke-width="1.0"/>
<line x1="92.6" y1="66.1" x2="96.7" y2="66.1" stroke="rgb(0,0,0)"  stroke-width="1.0"/>
<line x1="91.9" y1="61.8" x2="97.4" y2="61.8" stroke="rgb(0,0,0)"  stroke-width="1.0"/>
<line x1="91.3" y1="57.5" x2="98.0" y2="57.5" stroke="rgb(0,0,0)"  stroke-width="1.0"/>
<line x1="90.6" y1="53.2" x2="98.6" y2="53.2" stroke="rgb(0,0,0)"  stroke-width="1.0"/>
<line x1="94.6" y1="80.0" x2="134.6" y2="80.0" stroke="rgb(0,0,0)"  stroke-width="2.0"/>
<line x1="138.9" y1="76.6" x2="139.7" y2="78.0" stroke="rgb(0,0,0)"  stroke-width="1.0"/>
<line x1="142.3" y1="73.9" x2="143.7" y2="76.4" stroke="rgb(0,0,0)"  stroke-width="1.0"/>
<line x1="145.7" y1="71.2" x2="147.7" y2="74.8" stroke="rgb(0,0,0)"  stroke-width="1.0"/>
<line x1="149.1" y1="68.5" x2="151.8" y2="73.2" stroke="rgb(0,0,0)"  stroke-width="1.0"/>
<line x1="152.5" y1="65.8" x2="155.8" y2="71.7" stroke="rgb(0,0,0)"  stroke-width="1.0"/>
<line x1="155.9" y1="63.1" x2="159.9" y2="70.1" stroke="rgb(0,0,0)"  stroke-width="1.0"/>
<line x1="134.6" y1="80.0" x2="154.6" y2="114.6" stroke="rgb(0,0,0)"  stroke-width="2.0"/>
<line x1="157.2" y1="116.1" x2="143.7" y2="139.5" stroke="rgb(0,0,0)"  stroke-width="2.0"/>
<line x1="152.0" y1="113.1" x2="138.5" y2="136.5" stroke="rgb(0,0,0)"  stroke-width="2.0"/>
<line x1="154.6" y1="114.6" x2="194.6" y2="114.6" stroke="rgb(0,0,0)"  stroke-width="2.0"/>
<line x1="194.6" y1="114.6" x2="208.1" y2="138.0" stroke="rgb(0,0,0)"  stroke-width="2.0"/>
<line x1="227.6" y1="149.3" x2="241.6" y2="149.3" stroke="rgb(0,0,0)"  stroke-width="2.0"/>
<line x1="257.6" y1="162.3" x2="257.6" y2="176.3" stroke="rgb(0,0,0)"  stroke-width="2.0"/>
<line x1="251.6" y1="162.3" x2="251.6" y2="176.3" stroke="rgb(0,0,0)"  stroke-width="2.0"/>
<line x1="267.6" y1="149.3" x2="281.6" y2="149.3" stroke="rgb(0,0,0)"  stroke-width="2.0"/>
<line x1="254.6" y1="136.3" x2="254.6" y2="122.3" stroke="rgb(0,0,0)"  stroke-width="2.0"/>
<line x1="134.6" y1="80.0" x2="134.6" y2="53.0" stroke="rgb(0,0,0)"  stroke-width="2.0"/>
<line x1="94.6" y1="80.0" x2="71.3" y2="66.5" stroke="rgb(0,0,0)"  stroke-width="2.0"/>
<line x1="74.6" y1="114.6" x2="51.3" y2="128.1" stroke="rgb(0,0,0)"  stroke-width="2.0"/>
<text x="128.641016" y="157.282032" fill="rgb(255,12,12)"  stroke="rgb(255,12,12)" stroke-width="1" font-size="16" >O</text>
<text x="22.000000" y="142.641016" fill="rgb(255,12,12)"  stroke="rgb(255,12,12)" stroke-width="1" font-size="16" >HO</text>
<text x="42.000000" y="68.000000" fill="rgb(255,12,12)"  stroke="rgb(255,12,12)" stroke-width="1" font-size="16" >HO</text>
<text x="128.641016" y="48.000000" fill="rgb(255,12,12)"  stroke="rgb(255,12,12)" stroke-width="1" font-size="16" >OH</text>
<text x="248.641016" y="117.282032" fill="rgb(255,12,12)"  stroke="rgb(255,12,12)" stroke-width="1" font-size="16" >OH</text>
<text x="288.641016" y="157.282032" fill="rgb(255,12,12)"  stroke="rgb(255,12,12)" stroke-width="1" font-size="16" >OH</text>
<text x="248.641016" y="197.282032" fill="rgb(255,12,12)"  stroke="rgb(255,12,12)" stroke-width="1" font-size="16" >O</text>
<text x="248.641016" y="157.282032" fill="rgb(255,127,0)"  stroke="rgb(255,127,0)" stroke-width="1" font-size="16" >P</text>
<text x="208.641016" y="157.282032" fill="rgb(255,12,12)"  stroke="rgb(255,12,12)" stroke-width="1" font-size="16" >O</text>
<text x="56.641016" y="191.923048" fill="rgb(255,12,12)"  stroke="rgb(255,12,12)" stroke-width="1" font-size="16" >HO</text>
<text x="163.282032" y="68.000000" fill="rgb(191,191,191)"  stroke="rgb(191,191,191)" stroke-width="1" font-size="16" >H</text>
<text x="88.641016" y="48.000000" fill="rgb(191,191,191)"  stroke="rgb(191,191,191)" stroke-width="1" font-size="16" >H</text>
<text x="34.000000" y="102.641016" fill="rgb(191,191,191)"  stroke="rgb(191,191,191)" stroke-width="1" font-size="16" >H</text>
</svg>
</g>
<text font-size="18.000000" fill ="black" font-family="sans-serif"
x="10.000000" y="20.000000" ></text>
</svg>
