<?xml version="1.0"?>
<svg version="1.1" id="topsvg"
xmlns="http://www.w3.org/2000/svg" xmlns:xlink="http://www.w3.org/1999/xlink"
xmlns:cml="http://www.xml-cml.org/schema" x="0" y="0" width="200px" height="200px" viewBox="0 0 100 100">
<title>ZINC00048929 - Open Babel Depiction</title>
<rect x="0" y="0" width="100" height="100" fill="white"/>
<g transform="translate(0,0)">
<svg width="100" height="100" x="0" y="0" viewBox="0 0 452.19 385.32"
font-family="sans-serif" stroke="rgb(0,0,0)" stroke-width="2"  stroke-linecap="round">
<line x1="378.4" y1="286.7" x2="400.9" y2="299.7" stroke="rgb(0,0,0)"  stroke-width="2.0"/>
<line x1="378.4" y1="247.6" x2="400.9" y2="234.6" stroke="rgb(0,0,0)"  stroke-width="2.0"/>
<line x1="344.5" y1="228.1" x2="344.5" y2="202.0" stroke="rgb(0,0,0)"  stroke-width="2.0"/>
<line x1="310.7" y1="247.6" x2="243.0" y2="208.6" stroke="rgb(0,0,0)"  stroke-width="2.0"/>
<line x1="310.7" y1="286.7" x2="288.1" y2="299.7" stroke="rgb(0,0,0)"  stroke-width="2.0"/>
<line x1="344.5" y1="306.2" x2="344.5" y2="332.3" stroke="rgb(0,0,0)"  stroke-width="2.0"/>
<line x1="209.2" y1="228.1" x2="209.2" y2="254.2" stroke="rgb(0,0,0)"  stroke-width="2.0"/>
<line x1="175.3" y1="208.6" x2="141.5" y2="228.1" stroke="rgb(0,0,0)"  stroke-width="2.0"/>
<line x1="164.1" y1="163.0" x2="152.8" y2="156.5" stroke="rgb(0,0,0)"  stroke-width="2.0"/>
<line x1="272.0" y1="143.4" x2="297.5" y2="148.8" stroke="rgb(0,0,0)"  stroke-width="2.0"/>
<line x1="256.2" y1="107.7" x2="275.7" y2="73.8" stroke="rgb(0,0,0)"  stroke-width="2.0"/>
<line x1="275.7" y1="70.8" x2="301.8" y2="70.8" stroke="rgb(0,0,0)"  stroke-width="2.0"/>
<line x1="275.7" y1="76.8" x2="301.8" y2="76.8" stroke="rgb(0,0,0)"  stroke-width="2.0"/>
<line x1="275.7" y1="73.8" x2="262.7" y2="51.3" stroke="rgb(0,0,0)"  stroke-width="2.0"/>
<line x1="314.3" y1="163.8" x2="318.3" y2="176.3" stroke="rgb(0,0,0)"  stroke-width="2.0"/>
<line x1="319.0" y1="141.8" x2="327.7" y2="132.1" stroke="rgb(0,0,0)"  stroke-width="2.0"/>
<line x1="107.7" y1="208.6" x2="107.7" y2="182.5" stroke="rgb(0,0,0)"  stroke-width="2.0"/>
<line x1="73.8" y1="228.1" x2="51.3" y2="215.1" stroke="rgb(0,0,0)"  stroke-width="2.0"/>
<line x1="73.8" y1="267.2" x2="51.3" y2="280.2" stroke="rgb(0,0,0)"  stroke-width="2.0"/>
<line x1="107.7" y1="286.7" x2="107.7" y2="312.8" stroke="rgb(0,0,0)"  stroke-width="2.0"/>
<line x1="141.5" y1="267.2" x2="164.1" y2="280.2" stroke="rgb(0,0,0)"  stroke-width="2.0"/>
<line x1="256.2" y1="107.7" x2="272.0" y2="143.4" stroke="rgb(0,0,0)"  stroke-width="2.0"/>
<line x1="252.0" y1="116.1" x2="263.0" y2="140.8" stroke="rgb(0,0,0)"  stroke-width="2.0"/>
<line x1="272.0" y1="143.4" x2="243.0" y2="169.5" stroke="rgb(0,0,0)"  stroke-width="2.0"/>
<line x1="243.0" y1="169.5" x2="209.2" y2="150.0" stroke="rgb(0,0,0)"  stroke-width="2.0"/>
<line x1="209.2" y1="150.0" x2="214.6" y2="124.5" stroke="rgb(0,0,0)"  stroke-width="2.0"/>
<line x1="230.2" y1="110.4" x2="256.2" y2="107.7" stroke="rgb(0,0,0)"  stroke-width="2.0"/>
<line x1="344.5" y1="228.1" x2="310.7" y2="247.6" stroke="rgb(0,0,0)"  stroke-width="2.0"/>
<line x1="310.7" y1="247.6" x2="310.7" y2="286.7" stroke="rgb(0,0,0)"  stroke-width="2.0"/>
<line x1="317.9" y1="253.6" x2="317.9" y2="280.7" stroke="rgb(0,0,0)"  stroke-width="2.0"/>
<line x1="310.7" y1="286.7" x2="344.5" y2="306.2" stroke="rgb(0,0,0)"  stroke-width="2.0"/>
<line x1="344.5" y1="306.2" x2="378.4" y2="286.7" stroke="rgb(0,0,0)"  stroke-width="2.0"/>
<line x1="346.1" y1="297.0" x2="369.6" y2="283.5" stroke="rgb(0,0,0)"  stroke-width="2.0"/>
<line x1="378.4" y1="286.7" x2="378.4" y2="247.6" stroke="rgb(0,0,0)"  stroke-width="2.0"/>
<line x1="378.4" y1="247.6" x2="344.5" y2="228.1" stroke="rgb(0,0,0)"  stroke-width="2.0"/>
<line x1="369.6" y1="250.9" x2="346.1" y2="237.3" stroke="rgb(0,0,0)"  stroke-width="2.0"/>
<line x1="175.3" y1="208.6" x2="175.3" y2="182.5" stroke="rgb(0,0,0)"  stroke-width="2.0"/>
<line x1="186.5" y1="163.1" x2="209.2" y2="150.0" stroke="rgb(0,0,0)"  stroke-width="2.0"/>
<line x1="191.9" y1="168.2" x2="207.6" y2="159.2" stroke="rgb(0,0,0)"  stroke-width="2.0"/>
<line x1="243.0" y1="169.5" x2="243.0" y2="208.6" stroke="rgb(0,0,0)"  stroke-width="2.0"/>
<line x1="235.8" y1="175.5" x2="235.8" y2="202.6" stroke="rgb(0,0,0)"  stroke-width="2.0"/>
<line x1="243.0" y1="208.6" x2="209.2" y2="228.1" stroke="rgb(0,0,0)"  stroke-width="2.0"/>
<line x1="209.2" y1="228.1" x2="175.3" y2="208.6" stroke="rgb(0,0,0)"  stroke-width="2.0"/>
<line x1="207.6" y1="218.9" x2="184.1" y2="205.3" stroke="rgb(0,0,0)"  stroke-width="2.0"/>
<line x1="73.8" y1="228.1" x2="73.8" y2="267.2" stroke="rgb(0,0,0)"  stroke-width="2.0"/>
<line x1="73.8" y1="267.2" x2="107.7" y2="286.7" stroke="rgb(0,0,0)"  stroke-width="2.0"/>
<line x1="82.6" y1="263.9" x2="106.1" y2="277.5" stroke="rgb(0,0,0)"  stroke-width="2.0"/>
<line x1="107.7" y1="286.7" x2="141.5" y2="267.2" stroke="rgb(0,0,0)"  stroke-width="2.0"/>
<line x1="141.5" y1="267.2" x2="141.5" y2="228.1" stroke="rgb(0,0,0)"  stroke-width="2.0"/>
<line x1="134.3" y1="261.2" x2="134.3" y2="234.1" stroke="rgb(0,0,0)"  stroke-width="2.0"/>
<line x1="141.5" y1="228.1" x2="107.7" y2="208.6" stroke="rgb(0,0,0)"  stroke-width="2.0"/>
<line x1="107.7" y1="208.6" x2="73.8" y2="228.1" stroke="rgb(0,0,0)"  stroke-width="2.0"/>
<line x1="106.1" y1="217.8" x2="82.6" y2="231.3" stroke="rgb(0,0,0)"  stroke-width="2.0"/>
<text x="338.518700" y="353.319561" fill="rgb(191,191,191)"  stroke="rgb(191,191,191)" stroke-width="1" font-size="16" >H</text>
<text x="406.189522" y="314.249794" fill="rgb(191,191,191)"  stroke="rgb(191,191,191)" stroke-width="1" font-size="16" >H</text>
<text x="406.189522" y="236.110259" fill="rgb(191,191,191)"  stroke="rgb(191,191,191)" stroke-width="1" font-size="16" >H</text>
<text x="338.518700" y="197.040492" fill="rgb(191,191,191)"  stroke="rgb(191,191,191)" stroke-width="1" font-size="16" >H</text>
<text x="270.847878" y="314.249794" fill="rgb(191,191,191)"  stroke="rgb(191,191,191)" stroke-width="1" font-size="16" >H</text>
<text x="203.177056" y="275.180027" fill="rgb(191,191,191)"  stroke="rgb(191,191,191)" stroke-width="1" font-size="16" >H</text>
<text x="316.336184" y="196.643449" fill="rgb(191,191,191)"  stroke="rgb(191,191,191)" stroke-width="1" font-size="16" >H</text>
<text x="330.405739" y="130.451397" fill="rgb(191,191,191)"  stroke="rgb(191,191,191)" stroke-width="1" font-size="16" >H</text>
<text x="101.670822" y="177.505608" fill="rgb(191,191,191)"  stroke="rgb(191,191,191)" stroke-width="1" font-size="16" >H</text>
<text x="34.000000" y="216.575375" fill="rgb(191,191,191)"  stroke="rgb(191,191,191)" stroke-width="1" font-size="16" >H</text>
<text x="34.000000" y="294.714910" fill="rgb(191,191,191)"  stroke="rgb(191,191,191)" stroke-width="1" font-size="16" >H</text>
<text x="101.670822" y="333.784678" fill="rgb(191,191,191)"  stroke="rgb(191,191,191)" stroke-width="1" font-size="16" >H</text>
<text x="169.341644" y="294.714910" fill="rgb(191,191,191)"  stroke="rgb(191,191,191)" stroke-width="1" font-size="16" >H</text>
<text x="135.506233" y="157.970724" fill="rgb(191,191,191)"  stroke="rgb(191,191,191)" stroke-width="1" font-size="16" >H</text>
<text x="180.141644" y="165.473608" fill="rgb(12,12,255)"  stroke="rgb(12,12,255)" stroke-width="1" font-size="16" >+</text>
<text x="169.341644" y="177.505608" fill="rgb(12,12,255)"  stroke="rgb(12,12,255)" stroke-width="1" font-size="16" >N</text>
<text x="211.300117" y="119.754725" fill="rgb(178,178,0)"  stroke="rgb(178,178,0)" stroke-width="1" font-size="16" >S</text>
<text x="308.760507" y="81.835411" fill="rgb(255,12,12)"  stroke="rgb(255,12,12)" stroke-width="1" font-size="16" >O</text>
<text x="238.155856" y="48.000000" fill="rgb(255,12,12)"  stroke="rgb(255,12,12)" stroke-width="1" font-size="16" >HO</text>
<text x="304.262962" y="159.485892" fill="rgb(12,12,255)"  stroke="rgb(12,12,255)" stroke-width="1" font-size="16" >N</text>
</svg>
</g>
<text font-size="18.000000" fill ="black" font-family="sans-serif"
x="10.000000" y="20.000000" >ZINC00048929</text>
</svg>
