<?xml version="1.0"?>
<svg version="1.1" id="topsvg"
xmlns="http://www.w3.org/2000/svg" xmlns:xlink="http://www.w3.org/1999/xlink"
xmlns:cml="http://www.xml-cml.org/schema" x="0" y="0" width="200px" height="200px" viewBox="0 0 100 100">
<title>ZINC13537284 - Open Babel Depiction</title>
<rect x="0" y="0" width="100" height="100" fill="white"/>
<g transform="translate(0,0)">
<svg width="100" height="100" x="0" y="0" viewBox="0 0 284.928 480.279"
font-family="sans-serif" stroke="rgb(0,0,0)" stroke-width="2"  stroke-linecap="round">
<line x1="184.3" y1="165.5" x2="156.0" y2="137.2" stroke="rgb(0,0,0)"  stroke-width="2.0"/>
<line x1="184.3" y1="165.5" x2="191.3" y2="191.5" stroke="rgb(0,0,0)"  stroke-width="2.0"/>
<line x1="184.3" y1="165.5" x2="165.2" y2="184.6" stroke="rgb(0,0,0)"  stroke-width="2.0"/>
<line x1="184.3" y1="165.5" x2="210.3" y2="158.5" stroke="rgb(0,0,0)"  stroke-width="2.0"/>
<line x1="116.5" y1="143.4" x2="98.3" y2="179.1" stroke="rgb(0,0,0)"  stroke-width="2.0"/>
<line x1="126.6" y1="79.5" x2="122.4" y2="52.8" stroke="rgb(0,0,0)"  stroke-width="2.0"/>
<line x1="173.8" y1="91.8" x2="186.3" y2="85.4" stroke="rgb(0,0,0)"  stroke-width="2.0"/>
<line x1="98.3" y1="179.1" x2="113.0" y2="201.7" stroke="rgb(0,0,0)"  stroke-width="2.0"/>
<line x1="98.3" y1="179.1" x2="75.7" y2="193.8" stroke="rgb(0,0,0)"  stroke-width="2.0"/>
<line x1="98.3" y1="179.1" x2="74.3" y2="166.8" stroke="rgb(0,0,0)"  stroke-width="2.0"/>
<line x1="160.0" y1="210.5" x2="158.6" y2="183.6" stroke="rgb(0,0,0)"  stroke-width="2.0"/>
<line x1="160.0" y1="210.5" x2="182.7" y2="195.8" stroke="rgb(0,0,0)"  stroke-width="2.0"/>
<line x1="181.8" y1="244.1" x2="204.5" y2="229.4" stroke="rgb(0,0,0)"  stroke-width="2.0"/>
<line x1="181.8" y1="244.1" x2="205.9" y2="256.3" stroke="rgb(0,0,0)"  stroke-width="2.0"/>
<line x1="77.7" y1="338.6" x2="55.1" y2="323.9" stroke="rgb(0,0,0)"  stroke-width="2.0"/>
<line x1="75.6" y1="378.5" x2="51.6" y2="390.8" stroke="rgb(0,0,0)"  stroke-width="2.0"/>
<line x1="109.2" y1="400.3" x2="107.8" y2="427.3" stroke="rgb(0,0,0)"  stroke-width="2.0"/>
<line x1="144.8" y1="382.2" x2="167.5" y2="396.9" stroke="rgb(0,0,0)"  stroke-width="2.0"/>
<line x1="190.6" y1="320.4" x2="216.6" y2="327.4" stroke="rgb(0,0,0)"  stroke-width="2.0"/>
<line x1="216.6" y1="327.4" x2="235.7" y2="346.5" stroke="rgb(0,0,0)"  stroke-width="2.0"/>
<line x1="216.6" y1="327.4" x2="209.7" y2="353.5" stroke="rgb(0,0,0)"  stroke-width="2.0"/>
<line x1="216.6" y1="327.4" x2="235.7" y2="308.3" stroke="rgb(0,0,0)"  stroke-width="2.0"/>
<line x1="102.1" y1="251.3" x2="75.1" y2="252.7" stroke="rgb(0,0,0)"  stroke-width="2.0"/>
<line x1="101.8" y1="245.3" x2="74.8" y2="246.7" stroke="rgb(0,0,0)"  stroke-width="2.0"/>
<line x1="107.6" y1="98.5" x2="126.6" y2="79.5" stroke="rgb(0,0,0)"  stroke-width="2.0"/>
<line x1="114.2" y1="102.1" x2="127.4" y2="88.8" stroke="rgb(0,0,0)"  stroke-width="2.0"/>
<line x1="126.6" y1="79.5" x2="150.7" y2="91.8" stroke="rgb(0,0,0)"  stroke-width="2.0"/>
<line x1="160.2" y1="110.5" x2="156.0" y2="137.2" stroke="rgb(0,0,0)"  stroke-width="2.0"/>
<line x1="156.0" y1="137.2" x2="116.5" y2="143.4" stroke="rgb(0,0,0)"  stroke-width="2.0"/>
<line x1="148.9" y1="131.0" x2="121.3" y2="135.4" stroke="rgb(0,0,0)"  stroke-width="2.0"/>
<line x1="116.5" y1="143.4" x2="104.2" y2="119.4" stroke="rgb(0,0,0)"  stroke-width="2.0"/>
<line x1="146.9" y1="342.2" x2="113.4" y2="320.4" stroke="rgb(0,0,0)"  stroke-width="2.0"/>
<line x1="145.8" y1="332.9" x2="122.3" y2="317.7" stroke="rgb(0,0,0)"  stroke-width="2.0"/>
<line x1="113.4" y1="320.4" x2="123.7" y2="281.8" stroke="rgb(0,0,0)"  stroke-width="2.0"/>
<line x1="123.7" y1="281.8" x2="163.7" y2="279.7" stroke="rgb(0,0,0)"  stroke-width="2.0"/>
<line x1="130.1" y1="288.7" x2="158.1" y2="287.2" stroke="rgb(0,0,0)"  stroke-width="2.0"/>
<line x1="163.7" y1="279.7" x2="173.3" y2="304.9" stroke="rgb(0,0,0)"  stroke-width="2.0"/>
<line x1="167.9" y1="325.2" x2="146.9" y2="342.2" stroke="rgb(0,0,0)"  stroke-width="2.0"/>
<line x1="109.2" y1="400.3" x2="75.6" y2="378.5" stroke="rgb(0,0,0)"  stroke-width="2.0"/>
<line x1="75.6" y1="378.5" x2="77.7" y2="338.6" stroke="rgb(0,0,0)"  stroke-width="2.0"/>
<line x1="83.1" y1="372.9" x2="84.6" y2="345.0" stroke="rgb(0,0,0)"  stroke-width="2.0"/>
<line x1="77.7" y1="338.6" x2="113.4" y2="320.4" stroke="rgb(0,0,0)"  stroke-width="2.0"/>
<line x1="146.9" y1="342.2" x2="144.8" y2="382.2" stroke="rgb(0,0,0)"  stroke-width="2.0"/>
<line x1="144.8" y1="382.2" x2="109.2" y2="400.3" stroke="rgb(0,0,0)"  stroke-width="2.0"/>
<line x1="136.2" y1="378.5" x2="111.3" y2="391.2" stroke="rgb(0,0,0)"  stroke-width="2.0"/>
<line x1="181.8" y1="244.1" x2="163.7" y2="279.7" stroke="rgb(0,0,0)"  stroke-width="2.0"/>
<line x1="123.7" y1="281.8" x2="101.9" y2="248.3" stroke="rgb(0,0,0)"  stroke-width="2.0"/>
<line x1="101.9" y1="248.3" x2="114.2" y2="224.2" stroke="rgb(0,0,0)"  stroke-width="2.0"/>
<line x1="133.1" y1="211.9" x2="160.0" y2="210.5" stroke="rgb(0,0,0)"  stroke-width="2.0"/>
<line x1="160.0" y1="210.5" x2="181.8" y2="244.1" stroke="rgb(0,0,0)"  stroke-width="2.0"/>
<text x="209.378346" y="230.286973" fill="rgb(191,191,191)"  stroke="rgb(191,191,191)" stroke-width="1" font-size="16" >H</text>
<text x="55.995979" y="258.352849" fill="rgb(255,12,12)"  stroke="rgb(255,12,12)" stroke-width="1" font-size="16" >O</text>
<text x="188.619406" y="212.095992" fill="rgb(191,191,191)"  stroke="rgb(191,191,191)" stroke-width="1" font-size="16" >H</text>
<text x="149.982373" y="201.743230" fill="rgb(191,191,191)"  stroke="rgb(191,191,191)" stroke-width="1" font-size="16" >H</text>
<text x="216.903677" y="163.106197" fill="rgb(191,191,191)"  stroke="rgb(191,191,191)" stroke-width="1" font-size="16" >H</text>
<text x="114.342112" y="48.000000" fill="rgb(191,191,191)"  stroke="rgb(191,191,191)" stroke-width="1" font-size="16" >H</text>
<text x="58.768396" y="208.857888" fill="rgb(191,191,191)"  stroke="rgb(191,191,191)" stroke-width="1" font-size="16" >H</text>
<text x="56.674958" y="168.912707" fill="rgb(191,191,191)"  stroke="rgb(191,191,191)" stroke-width="1" font-size="16" >H</text>
<text x="151.952524" y="178.580530" fill="rgb(191,191,191)"  stroke="rgb(191,191,191)" stroke-width="1" font-size="16" >H</text>
<text x="187.592785" y="196.740150" fill="rgb(191,191,191)"  stroke="rgb(191,191,191)" stroke-width="1" font-size="16" >H</text>
<text x="211.471784" y="270.232154" fill="rgb(191,191,191)"  stroke="rgb(191,191,191)" stroke-width="1" font-size="16" >H</text>
<text x="38.186876" y="324.817325" fill="rgb(191,191,191)"  stroke="rgb(191,191,191)" stroke-width="1" font-size="16" >H</text>
<text x="34.000000" y="404.707688" fill="rgb(191,191,191)"  stroke="rgb(191,191,191)" stroke-width="1" font-size="16" >H</text>
<text x="101.093645" y="448.278810" fill="rgb(191,191,191)"  stroke="rgb(191,191,191)" stroke-width="1" font-size="16" >H</text>
<text x="172.374167" y="411.959570" fill="rgb(191,191,191)"  stroke="rgb(191,191,191)" stroke-width="1" font-size="16" >H</text>
<text x="238.927926" y="363.693045" fill="rgb(191,191,191)"  stroke="rgb(191,191,191)" stroke-width="1" font-size="16" >H</text>
<text x="200.290893" y="374.045807" fill="rgb(191,191,191)"  stroke="rgb(191,191,191)" stroke-width="1" font-size="16" >H</text>
<text x="238.927926" y="307.124503" fill="rgb(191,191,191)"  stroke="rgb(191,191,191)" stroke-width="1" font-size="16" >H</text>
<text x="191.880012" y="87.507534" fill="rgb(191,191,191)"  stroke="rgb(191,191,191)" stroke-width="1" font-size="16" >H</text>
<text x="92.315219" y="115.791805" fill="rgb(12,12,255)"  stroke="rgb(12,12,255)" stroke-width="1" font-size="16" >N</text>
<text x="156.239751" y="105.667154" fill="rgb(12,12,255)"  stroke="rgb(12,12,255)" stroke-width="1" font-size="16" >N</text>
<text x="114.100781" y="220.619150" fill="rgb(12,12,255)"  stroke="rgb(12,12,255)" stroke-width="1" font-size="16" >N</text>
<text x="172.006621" y="325.056012" fill="rgb(12,12,255)"  stroke="rgb(12,12,255)" stroke-width="1" font-size="16" >N</text>
</svg>
</g>
<text font-size="18.000000" fill ="black" font-family="sans-serif"
x="10.000000" y="20.000000" >ZINC13537284</text>
</svg>
