<?xml version="1.0"?>
<svg version="1.1" id="topsvg"
xmlns="http://www.w3.org/2000/svg" xmlns:xlink="http://www.w3.org/1999/xlink"
xmlns:cml="http://www.xml-cml.org/schema" x="0" y="0" width="200px" height="200px" viewBox="0 0 100 100">
<title>ZINC22913548 - Open Babel Depiction</title>
<rect x="0" y="0" width="100" height="100" fill="white"/>
<g transform="translate(0,0)">
<svg width="100" height="100" x="0" y="0" viewBox="0 0 349.282 294.641"
font-family="sans-serif" stroke="rgb(0,0,0)" stroke-width="2"  stroke-linecap="round">
<line x1="240.0" y1="80.0" x2="213.0" y2="80.0" stroke="rgb(0,0,0)"  stroke-width="2.0"/>
<line x1="240.0" y1="80.0" x2="263.4" y2="66.5" stroke="rgb(0,0,0)"  stroke-width="2.0"/>
<line x1="240.0" y1="80.0" x2="240.0" y2="53.0" stroke="rgb(0,0,0)"  stroke-width="2.0"/>
<line x1="240.0" y1="80.0" x2="253.5" y2="103.4" stroke="rgb(0,0,0)"  stroke-width="2.0"/>
<line x1="200.0" y1="93.0" x2="200.0" y2="120.0" stroke="rgb(0,0,0)"  stroke-width="2.0"/>
<line x1="187.0" y1="80.0" x2="173.0" y2="80.0" stroke="rgb(0,0,0)"  stroke-width="2.0"/>
<line x1="200.0" y1="67.0" x2="200.0" y2="53.0" stroke="rgb(0,0,0)"  stroke-width="2.0"/>
<line x1="205.4" y1="119.2" x2="205.4" y2="120.8" stroke="rgb(0,0,0)"  stroke-width="1.0"/>
<line x1="209.6" y1="118.6" x2="209.6" y2="121.4" stroke="rgb(0,0,0)"  stroke-width="1.0"/>
<line x1="213.9" y1="117.9" x2="213.9" y2="122.1" stroke="rgb(0,0,0)"  stroke-width="1.0"/>
<line x1="218.2" y1="117.3" x2="218.2" y2="122.7" stroke="rgb(0,0,0)"  stroke-width="1.0"/>
<line x1="222.5" y1="116.6" x2="222.5" y2="123.4" stroke="rgb(0,0,0)"  stroke-width="1.0"/>
<line x1="226.8" y1="116.0" x2="226.8" y2="124.0" stroke="rgb(0,0,0)"  stroke-width="1.0"/>
<line x1="200.0" y1="120.0" x2="200.0" y2="160.0" stroke="rgb(0,0,0)"  stroke-width="2.0"/>
<line x1="200.0" y1="120.0" x2="160.0" y2="120.0" stroke="rgb(0,0,0)"  stroke-width="2.0"/>
<line x1="200.0" y1="160.0" x2="223.4" y2="173.5" stroke="rgb(0,0,0)"  stroke-width="2.0"/>
<line x1="200.0" y1="160.0" x2="186.5" y2="183.4" stroke="rgb(0,0,0)"  stroke-width="2.0"/>
<line x1="200.0" y1="160.0" x2="173.0" y2="160.0" stroke="rgb(0,0,0)"  stroke-width="2.0"/>
<line x1="245.9" y1="173.5" x2="269.3" y2="160.0" stroke="rgb(0,0,0)"  stroke-width="2.0"/>
<line x1="234.6" y1="193.0" x2="234.6" y2="220.0" stroke="rgb(0,0,0)"  stroke-width="2.0"/>
<line x1="269.3" y1="160.0" x2="296.3" y2="160.0" stroke="rgb(0,0,0)"  stroke-width="2.0"/>
<line x1="269.3" y1="160.0" x2="282.8" y2="183.4" stroke="rgb(0,0,0)"  stroke-width="2.0"/>
<line x1="269.3" y1="160.0" x2="269.3" y2="133.0" stroke="rgb(0,0,0)"  stroke-width="2.0"/>
<line x1="234.6" y1="220.0" x2="221.1" y2="243.4" stroke="rgb(0,0,0)"  stroke-width="2.0"/>
<line x1="234.6" y1="220.0" x2="207.6" y2="220.0" stroke="rgb(0,0,0)"  stroke-width="2.0"/>
<line x1="234.6" y1="220.0" x2="258.0" y2="233.5" stroke="rgb(0,0,0)"  stroke-width="2.0"/>
<line x1="140.0" y1="154.6" x2="153.5" y2="178.0" stroke="rgb(0,0,0)"  stroke-width="2.0"/>
<line x1="100.0" y1="154.6" x2="86.5" y2="178.0" stroke="rgb(0,0,0)"  stroke-width="2.0"/>
<line x1="80.0" y1="120.0" x2="53.0" y2="120.0" stroke="rgb(0,0,0)"  stroke-width="2.0"/>
<line x1="100.0" y1="85.4" x2="86.5" y2="62.0" stroke="rgb(0,0,0)"  stroke-width="2.0"/>
<line x1="140.0" y1="85.4" x2="153.5" y2="62.0" stroke="rgb(0,0,0)"  stroke-width="2.0"/>
<line x1="100.0" y1="154.6" x2="80.0" y2="120.0" stroke="rgb(0,0,0)"  stroke-width="2.0"/>
<line x1="80.0" y1="120.0" x2="100.0" y2="85.4" stroke="rgb(0,0,0)"  stroke-width="2.0"/>
<line x1="89.2" y1="118.4" x2="103.2" y2="94.2" stroke="rgb(0,0,0)"  stroke-width="2.0"/>
<line x1="100.0" y1="85.4" x2="140.0" y2="85.4" stroke="rgb(0,0,0)"  stroke-width="2.0"/>
<line x1="140.0" y1="85.4" x2="160.0" y2="120.0" stroke="rgb(0,0,0)"  stroke-width="2.0"/>
<line x1="136.8" y1="94.2" x2="150.8" y2="118.4" stroke="rgb(0,0,0)"  stroke-width="2.0"/>
<line x1="160.0" y1="120.0" x2="140.0" y2="154.6" stroke="rgb(0,0,0)"  stroke-width="2.0"/>
<line x1="140.0" y1="154.6" x2="100.0" y2="154.6" stroke="rgb(0,0,0)"  stroke-width="2.0"/>
<line x1="134.0" y1="147.4" x2="106.0" y2="147.4" stroke="rgb(0,0,0)"  stroke-width="2.0"/>
<text x="254.000000" y="122.641016" fill="rgb(191,191,191)"  stroke="rgb(191,191,191)" stroke-width="1" font-size="16" >H</text>
<text x="194.000000" y="48.000000" fill="rgb(191,191,191)"  stroke="rgb(191,191,191)" stroke-width="1" font-size="16" >H</text>
<text x="154.000000" y="58.717968" fill="rgb(191,191,191)"  stroke="rgb(191,191,191)" stroke-width="1" font-size="16" >H</text>
<text x="74.000000" y="58.717968" fill="rgb(191,191,191)"  stroke="rgb(191,191,191)" stroke-width="1" font-size="16" >H</text>
<text x="34.000000" y="128.000000" fill="rgb(191,191,191)"  stroke="rgb(191,191,191)" stroke-width="1" font-size="16" >H</text>
<text x="74.000000" y="197.282032" fill="rgb(191,191,191)"  stroke="rgb(191,191,191)" stroke-width="1" font-size="16" >H</text>
<text x="154.000000" y="197.282032" fill="rgb(191,191,191)"  stroke="rgb(191,191,191)" stroke-width="1" font-size="16" >H</text>
<text x="263.282032" y="248.000000" fill="rgb(191,191,191)"  stroke="rgb(191,191,191)" stroke-width="1" font-size="16" >H</text>
<text x="188.641016" y="228.000000" fill="rgb(191,191,191)"  stroke="rgb(191,191,191)" stroke-width="1" font-size="16" >H</text>
<text x="208.641016" y="262.641016" fill="rgb(191,191,191)"  stroke="rgb(191,191,191)" stroke-width="1" font-size="16" >H</text>
<text x="263.282032" y="128.000000" fill="rgb(191,191,191)"  stroke="rgb(191,191,191)" stroke-width="1" font-size="16" >H</text>
<text x="283.282032" y="202.641016" fill="rgb(191,191,191)"  stroke="rgb(191,191,191)" stroke-width="1" font-size="16" >H</text>
<text x="303.282032" y="168.000000" fill="rgb(191,191,191)"  stroke="rgb(191,191,191)" stroke-width="1" font-size="16" >H</text>
<text x="154.000000" y="168.000000" fill="rgb(191,191,191)"  stroke="rgb(191,191,191)" stroke-width="1" font-size="16" >H</text>
<text x="174.000000" y="202.641016" fill="rgb(191,191,191)"  stroke="rgb(191,191,191)" stroke-width="1" font-size="16" >H</text>
<text x="154.000000" y="88.000000" fill="rgb(191,191,191)"  stroke="rgb(191,191,191)" stroke-width="1" font-size="16" >H</text>
<text x="234.000000" y="48.000000" fill="rgb(191,191,191)"  stroke="rgb(191,191,191)" stroke-width="1" font-size="16" >H</text>
<text x="268.641016" y="68.000000" fill="rgb(191,191,191)"  stroke="rgb(191,191,191)" stroke-width="1" font-size="16" >H</text>
<text x="228.641016" y="188.000000" fill="rgb(12,12,255)"  stroke="rgb(12,12,255)" stroke-width="1" font-size="16" >N</text>
<text x="234.000000" y="128.000000" fill="rgb(191,191,191)"  stroke="rgb(191,191,191)" stroke-width="1" font-size="16" >H</text>
<text x="204.800000" y="75.968000" fill="rgb(12,12,255)"  stroke="rgb(12,12,255)" stroke-width="1" font-size="16" >+</text>
<text x="194.000000" y="88.000000" fill="rgb(12,12,255)"  stroke="rgb(12,12,255)" stroke-width="1" font-size="16" >N</text>
</svg>
</g>
<text font-size="18.000000" fill ="black" font-family="sans-serif"
x="10.000000" y="20.000000" >ZINC22913548</text>
</svg>
