<?xml version="1.0"?>
<svg version="1.1" id="topsvg"
xmlns="http://www.w3.org/2000/svg" xmlns:xlink="http://www.w3.org/1999/xlink"
xmlns:cml="http://www.xml-cml.org/schema" x="0" y="0" width="200px" height="200px" viewBox="0 0 100 100">
<title>ZINC13796731 - Open Babel Depiction</title>
<rect x="0" y="0" width="100" height="100" fill="white"/>
<g transform="translate(0,0)">
<svg width="100" height="100" x="0" y="0" viewBox="0 0 579.255 476.88"
font-family="sans-serif" stroke="rgb(0,0,0)" stroke-width="2"  stroke-linecap="round">
<line x1="466.9" y1="179.6" x2="466.9" y2="140.8" stroke="rgb(0,0,0)"  stroke-width="2.0"/>
<line x1="466.9" y1="179.6" x2="479.8" y2="201.9" stroke="rgb(0,0,0)"  stroke-width="2.0"/>
<line x1="466.9" y1="179.6" x2="492.7" y2="179.6" stroke="rgb(0,0,0)"  stroke-width="2.0"/>
<line x1="466.9" y1="179.6" x2="444.5" y2="192.5" stroke="rgb(0,0,0)"  stroke-width="2.0"/>
<line x1="466.9" y1="140.8" x2="505.7" y2="140.8" stroke="rgb(0,0,0)"  stroke-width="2.0"/>
<line x1="466.9" y1="140.8" x2="428.1" y2="140.8" stroke="rgb(0,0,0)"  stroke-width="2.0"/>
<line x1="466.9" y1="140.8" x2="466.9" y2="115.0" stroke="rgb(0,0,0)"  stroke-width="2.0"/>
<line x1="505.7" y1="140.8" x2="528.0" y2="127.9" stroke="rgb(0,0,0)"  stroke-width="2.0"/>
<line x1="505.7" y1="140.8" x2="505.7" y2="115.0" stroke="rgb(0,0,0)"  stroke-width="2.0"/>
<line x1="505.7" y1="140.8" x2="518.6" y2="163.1" stroke="rgb(0,0,0)"  stroke-width="2.0"/>
<line x1="428.1" y1="140.8" x2="408.7" y2="107.2" stroke="rgb(0,0,0)"  stroke-width="2.0"/>
<line x1="428.1" y1="140.8" x2="428.1" y2="166.6" stroke="rgb(0,0,0)"  stroke-width="2.0"/>
<line x1="428.1" y1="140.8" x2="405.8" y2="153.7" stroke="rgb(0,0,0)"  stroke-width="2.0"/>
<polygon points="408.694349 107.182577 429.200512 90.724536 433.200512 97.652739 " stroke-width="2.000000" fill="rgb(0,0,0)"  stroke="rgb(0,0,0)" />
<line x1="408.7" y1="107.2" x2="389.3" y2="73.6" stroke="rgb(0,0,0)"  stroke-width="2.0"/>
<line x1="408.7" y1="107.2" x2="386.4" y2="120.1" stroke="rgb(0,0,0)"  stroke-width="2.0"/>
<line x1="386.7" y1="72.1" x2="399.6" y2="49.8" stroke="rgb(0,0,0)"  stroke-width="2.0"/>
<line x1="391.9" y1="75.1" x2="404.8" y2="52.8" stroke="rgb(0,0,0)"  stroke-width="2.0"/>
<line x1="389.3" y1="73.6" x2="363.5" y2="73.6" stroke="rgb(0,0,0)"  stroke-width="2.0"/>
<line x1="375.1" y1="139.6" x2="375.1" y2="165.4" stroke="rgb(0,0,0)"  stroke-width="2.0"/>
<line x1="363.8" y1="120.1" x2="352.8" y2="113.7" stroke="rgb(0,0,0)"  stroke-width="2.0"/>
<line x1="376.6" y1="162.8" x2="398.9" y2="175.7" stroke="rgb(0,0,0)"  stroke-width="2.0"/>
<line x1="373.6" y1="168.0" x2="395.9" y2="180.9" stroke="rgb(0,0,0)"  stroke-width="2.0"/>
<line x1="375.1" y1="165.4" x2="307.9" y2="204.2" stroke="rgb(0,0,0)"  stroke-width="2.0"/>
<line x1="274.3" y1="184.8" x2="274.3" y2="159.0" stroke="rgb(0,0,0)"  stroke-width="2.0"/>
<line x1="240.7" y1="204.2" x2="218.4" y2="191.3" stroke="rgb(0,0,0)"  stroke-width="2.0"/>
<line x1="240.7" y1="242.9" x2="218.4" y2="255.8" stroke="rgb(0,0,0)"  stroke-width="2.0"/>
<line x1="274.3" y1="262.3" x2="274.3" y2="288.1" stroke="rgb(0,0,0)"  stroke-width="2.0"/>
<line x1="307.9" y1="242.9" x2="375.1" y2="281.7" stroke="rgb(0,0,0)"  stroke-width="2.0"/>
<line x1="408.7" y1="262.3" x2="408.7" y2="236.5" stroke="rgb(0,0,0)"  stroke-width="2.0"/>
<line x1="442.3" y1="281.7" x2="464.6" y2="268.8" stroke="rgb(0,0,0)"  stroke-width="2.0"/>
<line x1="442.3" y1="320.5" x2="464.6" y2="333.4" stroke="rgb(0,0,0)"  stroke-width="2.0"/>
<line x1="341.5" y1="339.9" x2="319.2" y2="327.0" stroke="rgb(0,0,0)"  stroke-width="2.0"/>
<line x1="341.5" y1="378.7" x2="319.2" y2="391.6" stroke="rgb(0,0,0)"  stroke-width="2.0"/>
<line x1="375.1" y1="398.1" x2="375.1" y2="423.9" stroke="rgb(0,0,0)"  stroke-width="2.0"/>
<line x1="408.7" y1="378.7" x2="431.0" y2="391.6" stroke="rgb(0,0,0)"  stroke-width="2.0"/>
<line x1="195.9" y1="255.8" x2="173.6" y2="242.9" stroke="rgb(0,0,0)"  stroke-width="2.0"/>
<line x1="207.1" y1="275.3" x2="207.1" y2="288.1" stroke="rgb(0,0,0)"  stroke-width="2.0"/>
<line x1="173.6" y1="242.9" x2="140.0" y2="262.3" stroke="rgb(0,0,0)"  stroke-width="2.0"/>
<line x1="173.6" y1="242.9" x2="186.4" y2="220.6" stroke="rgb(0,0,0)"  stroke-width="2.0"/>
<line x1="173.6" y1="242.9" x2="160.7" y2="220.6" stroke="rgb(0,0,0)"  stroke-width="2.0"/>
<line x1="104.5" y1="246.6" x2="99.2" y2="221.3" stroke="rgb(0,0,0)"  stroke-width="2.0"/>
<line x1="65.6" y1="274.0" x2="52.9" y2="272.7" stroke="rgb(0,0,0)"  stroke-width="2.0"/>
<line x1="98.0" y1="309.0" x2="87.5" y2="332.5" stroke="rgb(0,0,0)"  stroke-width="2.0"/>
<line x1="85.1" y1="286.6" x2="98.0" y2="309.0" stroke="rgb(0,0,0)"  stroke-width="2.0"/>
<line x1="98.0" y1="309.0" x2="123.4" y2="303.6" stroke="rgb(0,0,0)"  stroke-width="2.0"/>
<line x1="102.3" y1="300.7" x2="119.8" y2="297.0" stroke="rgb(0,0,0)"  stroke-width="2.0"/>
<line x1="137.3" y1="288.0" x2="140.0" y2="262.3" stroke="rgb(0,0,0)"  stroke-width="2.0"/>
<line x1="140.0" y1="262.3" x2="104.5" y2="246.6" stroke="rgb(0,0,0)"  stroke-width="2.0"/>
<line x1="131.6" y1="266.5" x2="107.1" y2="255.6" stroke="rgb(0,0,0)"  stroke-width="2.0"/>
<line x1="104.5" y1="246.6" x2="87.3" y2="265.7" stroke="rgb(0,0,0)"  stroke-width="2.0"/>
<line x1="240.7" y1="204.2" x2="240.7" y2="242.9" stroke="rgb(0,0,0)"  stroke-width="2.0"/>
<line x1="240.7" y1="242.9" x2="274.3" y2="262.3" stroke="rgb(0,0,0)"  stroke-width="2.0"/>
<line x1="249.5" y1="239.7" x2="272.7" y2="253.1" stroke="rgb(0,0,0)"  stroke-width="2.0"/>
<line x1="274.3" y1="262.3" x2="307.9" y2="242.9" stroke="rgb(0,0,0)"  stroke-width="2.0"/>
<line x1="307.9" y1="242.9" x2="307.9" y2="204.2" stroke="rgb(0,0,0)"  stroke-width="2.0"/>
<line x1="300.7" y1="236.9" x2="300.7" y2="210.2" stroke="rgb(0,0,0)"  stroke-width="2.0"/>
<line x1="307.9" y1="204.2" x2="274.3" y2="184.8" stroke="rgb(0,0,0)"  stroke-width="2.0"/>
<line x1="274.3" y1="184.8" x2="240.7" y2="204.2" stroke="rgb(0,0,0)"  stroke-width="2.0"/>
<line x1="272.7" y1="194.0" x2="249.5" y2="207.4" stroke="rgb(0,0,0)"  stroke-width="2.0"/>
<line x1="442.3" y1="281.7" x2="442.3" y2="320.5" stroke="rgb(0,0,0)"  stroke-width="2.0"/>
<line x1="442.3" y1="320.5" x2="408.7" y2="339.9" stroke="rgb(0,0,0)"  stroke-width="2.0"/>
<line x1="433.5" y1="317.3" x2="410.3" y2="330.7" stroke="rgb(0,0,0)"  stroke-width="2.0"/>
<line x1="408.7" y1="339.9" x2="375.1" y2="320.5" stroke="rgb(0,0,0)"  stroke-width="2.0"/>
<line x1="375.1" y1="320.5" x2="375.1" y2="281.7" stroke="rgb(0,0,0)"  stroke-width="2.0"/>
<line x1="382.3" y1="314.5" x2="382.3" y2="287.7" stroke="rgb(0,0,0)"  stroke-width="2.0"/>
<line x1="375.1" y1="281.7" x2="408.7" y2="262.3" stroke="rgb(0,0,0)"  stroke-width="2.0"/>
<line x1="408.7" y1="262.3" x2="442.3" y2="281.7" stroke="rgb(0,0,0)"  stroke-width="2.0"/>
<line x1="410.3" y1="271.6" x2="433.5" y2="285.0" stroke="rgb(0,0,0)"  stroke-width="2.0"/>
<line x1="375.1" y1="398.1" x2="341.5" y2="378.7" stroke="rgb(0,0,0)"  stroke-width="2.0"/>
<line x1="341.5" y1="378.7" x2="341.5" y2="339.9" stroke="rgb(0,0,0)"  stroke-width="2.0"/>
<line x1="348.7" y1="372.7" x2="348.7" y2="345.9" stroke="rgb(0,0,0)"  stroke-width="2.0"/>
<line x1="341.5" y1="339.9" x2="375.1" y2="320.5" stroke="rgb(0,0,0)"  stroke-width="2.0"/>
<line x1="408.7" y1="339.9" x2="408.7" y2="378.7" stroke="rgb(0,0,0)"  stroke-width="2.0"/>
<line x1="408.7" y1="378.7" x2="375.1" y2="398.1" stroke="rgb(0,0,0)"  stroke-width="2.0"/>
<line x1="399.9" y1="375.5" x2="376.7" y2="388.9" stroke="rgb(0,0,0)"  stroke-width="2.0"/>
<text x="268.329196" y="153.970456" fill="rgb(191,191,191)"  stroke="rgb(191,191,191)" stroke-width="1" font-size="16" >H</text>
<text x="72.575395" y="283.382652" fill="rgb(12,12,255)"  stroke="rgb(12,12,255)" stroke-width="1" font-size="16" >N</text>
<text x="34.000000" y="279.328214" fill="rgb(191,191,191)"  stroke="rgb(191,191,191)" stroke-width="1" font-size="16" >H</text>
<text x="129.909605" y="308.909487" fill="rgb(12,12,255)"  stroke="rgb(12,12,255)" stroke-width="1" font-size="16" >N</text>
<text x="480.270107" y="221.153032" fill="rgb(191,191,191)"  stroke="rgb(191,191,191)" stroke-width="1" font-size="16" >H</text>
<text x="499.664046" y="187.561744" fill="rgb(191,191,191)"  stroke="rgb(191,191,191)" stroke-width="1" font-size="16" >H</text>
<text x="427.284879" y="206.955683" fill="rgb(191,191,191)"  stroke="rgb(191,191,191)" stroke-width="1" font-size="16" >H</text>
<text x="460.876167" y="109.985986" fill="rgb(191,191,191)"  stroke="rgb(191,191,191)" stroke-width="1" font-size="16" >H</text>
<text x="533.255335" y="129.379926" fill="rgb(191,191,191)"  stroke="rgb(191,191,191)" stroke-width="1" font-size="16" >H</text>
<text x="499.664046" y="109.985986" fill="rgb(191,191,191)"  stroke="rgb(191,191,191)" stroke-width="1" font-size="16" >H</text>
<text x="519.057986" y="182.365154" fill="rgb(191,191,191)"  stroke="rgb(191,191,191)" stroke-width="1" font-size="16" >H</text>
<text x="422.088289" y="187.561744" fill="rgb(191,191,191)"  stroke="rgb(191,191,191)" stroke-width="1" font-size="16" >H</text>
<text x="388.497000" y="168.167805" fill="rgb(191,191,191)"  stroke="rgb(191,191,191)" stroke-width="1" font-size="16" >H</text>
<text x="335.511772" y="115.182577" fill="rgb(191,191,191)"  stroke="rgb(191,191,191)" stroke-width="1" font-size="16" >H</text>
<text x="201.146619" y="192.758334" fill="rgb(191,191,191)"  stroke="rgb(191,191,191)" stroke-width="1" font-size="16" >H</text>
<text x="268.329196" y="309.121971" fill="rgb(191,191,191)"  stroke="rgb(191,191,191)" stroke-width="1" font-size="16" >H</text>
<text x="402.694349" y="231.546213" fill="rgb(191,191,191)"  stroke="rgb(191,191,191)" stroke-width="1" font-size="16" >H</text>
<text x="469.876926" y="270.334092" fill="rgb(191,191,191)"  stroke="rgb(191,191,191)" stroke-width="1" font-size="16" >H</text>
<text x="469.876926" y="347.909850" fill="rgb(191,191,191)"  stroke="rgb(191,191,191)" stroke-width="1" font-size="16" >H</text>
<text x="301.920484" y="328.515910" fill="rgb(191,191,191)"  stroke="rgb(191,191,191)" stroke-width="1" font-size="16" >H</text>
<text x="301.920484" y="406.091668" fill="rgb(191,191,191)"  stroke="rgb(191,191,191)" stroke-width="1" font-size="16" >H</text>
<text x="369.103061" y="444.879546" fill="rgb(191,191,191)"  stroke="rgb(191,191,191)" stroke-width="1" font-size="16" >H</text>
<text x="436.285638" y="406.091668" fill="rgb(191,191,191)"  stroke="rgb(191,191,191)" stroke-width="1" font-size="16" >H</text>
<text x="201.146619" y="309.121971" fill="rgb(191,191,191)"  stroke="rgb(191,191,191)" stroke-width="1" font-size="16" >H</text>
<text x="186.949270" y="217.348864" fill="rgb(191,191,191)"  stroke="rgb(191,191,191)" stroke-width="1" font-size="16" >H</text>
<text x="148.161391" y="217.348864" fill="rgb(191,191,191)"  stroke="rgb(191,191,191)" stroke-width="1" font-size="16" >H</text>
<text x="90.465098" y="216.617370" fill="rgb(191,191,191)"  stroke="rgb(191,191,191)" stroke-width="1" font-size="16" >H</text>
<text x="76.192883" y="352.408431" fill="rgb(191,191,191)"  stroke="rgb(191,191,191)" stroke-width="1" font-size="16" >H</text>
<text x="436.285638" y="95.788637" fill="rgb(191,191,191)"  stroke="rgb(191,191,191)" stroke-width="1" font-size="16" >H</text>
<text x="402.694349" y="48.000000" fill="rgb(255,12,12)"  stroke="rgb(255,12,12)" stroke-width="1" font-size="16" >O</text>
<text x="332.512531" y="81.591288" fill="rgb(255,12,12)"  stroke="rgb(255,12,12)" stroke-width="1" font-size="16" >HO</text>
<text x="369.103061" y="134.576516" fill="rgb(12,12,255)"  stroke="rgb(12,12,255)" stroke-width="1" font-size="16" >N</text>
<text x="402.694349" y="192.758334" fill="rgb(255,12,12)"  stroke="rgb(255,12,12)" stroke-width="1" font-size="16" >O</text>
<text x="201.146619" y="270.334092" fill="rgb(12,12,255)"  stroke="rgb(12,12,255)" stroke-width="1" font-size="16" >N</text>
</svg>
</g>
<text font-size="18.000000" fill ="black" font-family="sans-serif"
x="10.000000" y="20.000000" >ZINC13796731</text>
</svg>
