<?xml version="1.0"?>
<svg version="1.1" id="topsvg"
xmlns="http://www.w3.org/2000/svg" xmlns:xlink="http://www.w3.org/1999/xlink"
xmlns:cml="http://www.xml-cml.org/schema" x="0" y="0" width="200px" height="200px" viewBox="0 0 100 100">
<title>ZINC83184565 - Open Babel Depiction</title>
<rect x="0" y="0" width="100" height="100" fill="white"/>
<g transform="translate(0,0)">
<svg width="100" height="100" x="0" y="0" viewBox="0 0 414.244 266.546"
font-family="sans-serif" stroke="rgb(0,0,0)" stroke-width="2"  stroke-linecap="round">
<line x1="76.5" y1="128.6" x2="103.4" y2="131.4" stroke="rgb(0,0,0)"  stroke-width="2.0"/>
<line x1="76.5" y1="128.6" x2="51.9" y2="139.5" stroke="rgb(0,0,0)"  stroke-width="2.0"/>
<line x1="76.5" y1="128.6" x2="73.7" y2="155.4" stroke="rgb(0,0,0)"  stroke-width="2.0"/>
<line x1="76.5" y1="128.6" x2="65.6" y2="103.9" stroke="rgb(0,0,0)"  stroke-width="2.0"/>
<line x1="121.6" y1="144.6" x2="132.6" y2="169.3" stroke="rgb(0,0,0)"  stroke-width="2.0"/>
<line x1="135.0" y1="171.0" x2="119.1" y2="192.9" stroke="rgb(0,0,0)"  stroke-width="2.0"/>
<line x1="130.2" y1="167.5" x2="114.3" y2="189.4" stroke="rgb(0,0,0)"  stroke-width="2.0"/>
<line x1="132.6" y1="169.3" x2="172.4" y2="173.5" stroke="rgb(0,0,0)"  stroke-width="2.0"/>
<line x1="199.1" y1="143.7" x2="193.5" y2="117.3" stroke="rgb(0,0,0)"  stroke-width="2.0"/>
<line x1="235.7" y1="160.0" x2="270.3" y2="140.0" stroke="rgb(0,0,0)"  stroke-width="2.0"/>
<line x1="241.2" y1="208.5" x2="251.6" y2="217.8" stroke="rgb(0,0,0)"  stroke-width="2.0"/>
<line x1="305.0" y1="160.0" x2="305.0" y2="187.0" stroke="rgb(0,0,0)"  stroke-width="2.0"/>
<line x1="339.6" y1="140.0" x2="363.0" y2="153.5" stroke="rgb(0,0,0)"  stroke-width="2.0"/>
<line x1="339.6" y1="100.0" x2="363.0" y2="86.5" stroke="rgb(0,0,0)"  stroke-width="2.0"/>
<line x1="305.0" y1="80.0" x2="305.0" y2="53.0" stroke="rgb(0,0,0)"  stroke-width="2.0"/>
<line x1="270.3" y1="100.0" x2="246.9" y2="86.5" stroke="rgb(0,0,0)"  stroke-width="2.0"/>
<line x1="235.7" y1="67.0" x2="235.7" y2="53.0" stroke="rgb(0,0,0)"  stroke-width="2.0"/>
<line x1="199.1" y1="143.7" x2="172.4" y2="173.5" stroke="rgb(0,0,0)"  stroke-width="2.0"/>
<line x1="172.4" y1="173.5" x2="185.8" y2="196.7" stroke="rgb(0,0,0)"  stroke-width="2.0"/>
<line x1="181.6" y1="175.1" x2="191.0" y2="191.3" stroke="rgb(0,0,0)"  stroke-width="2.0"/>
<line x1="205.1" y1="205.4" x2="218.8" y2="202.5" stroke="rgb(0,0,0)"  stroke-width="2.0"/>
<line x1="232.9" y1="186.9" x2="235.7" y2="160.0" stroke="rgb(0,0,0)"  stroke-width="2.0"/>
<line x1="235.7" y1="160.0" x2="199.1" y2="143.7" stroke="rgb(0,0,0)"  stroke-width="2.0"/>
<line x1="227.3" y1="164.1" x2="201.7" y2="152.7" stroke="rgb(0,0,0)"  stroke-width="2.0"/>
<line x1="339.6" y1="140.0" x2="339.6" y2="100.0" stroke="rgb(0,0,0)"  stroke-width="2.0"/>
<line x1="339.6" y1="100.0" x2="305.0" y2="80.0" stroke="rgb(0,0,0)"  stroke-width="2.0"/>
<line x1="330.8" y1="103.2" x2="306.6" y2="89.2" stroke="rgb(0,0,0)"  stroke-width="2.0"/>
<line x1="305.0" y1="80.0" x2="270.3" y2="100.0" stroke="rgb(0,0,0)"  stroke-width="2.0"/>
<line x1="270.3" y1="100.0" x2="270.3" y2="140.0" stroke="rgb(0,0,0)"  stroke-width="2.0"/>
<line x1="277.5" y1="106.0" x2="277.5" y2="134.0" stroke="rgb(0,0,0)"  stroke-width="2.0"/>
<line x1="270.3" y1="140.0" x2="305.0" y2="160.0" stroke="rgb(0,0,0)"  stroke-width="2.0"/>
<line x1="305.0" y1="160.0" x2="339.6" y2="140.0" stroke="rgb(0,0,0)"  stroke-width="2.0"/>
<line x1="306.6" y1="150.8" x2="330.8" y2="136.8" stroke="rgb(0,0,0)"  stroke-width="2.0"/>
<text x="229.680078" y="48.000000" fill="rgb(191,191,191)"  stroke="rgb(191,191,191)" stroke-width="1" font-size="16" >H</text>
<text x="298.962111" y="48.000000" fill="rgb(191,191,191)"  stroke="rgb(191,191,191)" stroke-width="1" font-size="16" >H</text>
<text x="368.244143" y="88.000000" fill="rgb(191,191,191)"  stroke="rgb(191,191,191)" stroke-width="1" font-size="16" >H</text>
<text x="298.962111" y="208.000000" fill="rgb(191,191,191)"  stroke="rgb(191,191,191)" stroke-width="1" font-size="16" >H</text>
<text x="184.821792" y="112.604630" fill="rgb(191,191,191)"  stroke="rgb(191,191,191)" stroke-width="1" font-size="16" >H</text>
<text x="54.272353" y="100.010414" fill="rgb(191,191,191)"  stroke="rgb(191,191,191)" stroke-width="1" font-size="16" >H</text>
<text x="66.360680" y="176.333108" fill="rgb(191,191,191)"  stroke="rgb(191,191,191)" stroke-width="1" font-size="16" >H</text>
<text x="34.000000" y="152.821698" fill="rgb(191,191,191)"  stroke="rgb(191,191,191)" stroke-width="1" font-size="16" >H</text>
<text x="368.244143" y="168.000000" fill="rgb(30,239,30)"  stroke="rgb(30,239,30)" stroke-width="1" font-size="16" >Cl</text>
<text x="229.680078" y="88.000000" fill="rgb(255,12,12)"  stroke="rgb(255,12,12)" stroke-width="1" font-size="16" >O</text>
<text x="255.224733" y="234.546100" fill="rgb(191,191,191)"  stroke="rgb(191,191,191)" stroke-width="1" font-size="16" >H</text>
<text x="186.373036" y="216.097343" fill="rgb(12,12,255)"  stroke="rgb(12,12,255)" stroke-width="1" font-size="16" >N</text>
<text x="225.498940" y="207.780876" fill="rgb(12,12,255)"  stroke="rgb(12,12,255)" stroke-width="1" font-size="16" >N</text>
<text x="103.080750" y="209.635869" fill="rgb(255,12,12)"  stroke="rgb(255,12,12)" stroke-width="1" font-size="16" >O</text>
<text x="110.322694" y="140.733370" fill="rgb(255,12,12)"  stroke="rgb(255,12,12)" stroke-width="1" font-size="16" >O</text>
</svg>
</g>
<text font-size="18.000000" fill ="black" font-family="sans-serif"
x="10.000000" y="20.000000" >ZINC83184565</text>
</svg>
