<?xml version="1.0"?>
<svg version="1.1" id="topsvg"
xmlns="http://www.w3.org/2000/svg" xmlns:xlink="http://www.w3.org/1999/xlink"
xmlns:cml="http://www.xml-cml.org/schema" x="0" y="0" width="200px" height="200px" viewBox="0 0 100 100">
<title>ZINC22059268 - Open Babel Depiction</title>
<rect x="0" y="0" width="100" height="100" fill="white"/>
<g transform="translate(0,0)">
<svg width="100" height="100" x="0" y="0" viewBox="0 0 414.346 419.027"
font-family="sans-serif" stroke="rgb(0,0,0)" stroke-width="2"  stroke-linecap="round">
<line x1="270.2" y1="192.6" x2="322.8" y2="206.7" stroke="rgb(0,0,0)"  stroke-width="2.0"/>
<line x1="270.2" y1="192.6" x2="308.7" y2="154.1" stroke="rgb(0,0,0)"  stroke-width="2.0"/>
<line x1="253.3" y1="163.4" x2="273.3" y2="158.0" stroke="rgb(0,0,0)"  stroke-width="2.0"/>
<line x1="253.3" y1="163.4" x2="258.6" y2="143.4" stroke="rgb(0,0,0)"  stroke-width="2.0"/>
<line x1="227.4" y1="134.0" x2="241.5" y2="81.3" stroke="rgb(0,0,0)"  stroke-width="2.0"/>
<line x1="190.3" y1="146.5" x2="195.7" y2="126.5" stroke="rgb(0,0,0)"  stroke-width="2.0"/>
<line x1="190.3" y1="146.5" x2="151.8" y2="108.0" stroke="rgb(0,0,0)"  stroke-width="2.0"/>
<line x1="161.1" y1="163.4" x2="155.7" y2="143.4" stroke="rgb(0,0,0)"  stroke-width="2.0"/>
<line x1="161.1" y1="163.4" x2="141.0" y2="158.0" stroke="rgb(0,0,0)"  stroke-width="2.0"/>
<line x1="135.0" y1="183.4" x2="96.5" y2="144.9" stroke="rgb(0,0,0)"  stroke-width="2.0"/>
<line x1="118.5" y1="200.4" x2="118.0" y2="198.8" stroke="rgb(0,0,0)"  stroke-width="1.0"/>
<line x1="115.1" y1="201.9" x2="114.3" y2="199.2" stroke="rgb(0,0,0)"  stroke-width="1.0"/>
<line x1="111.7" y1="203.5" x2="110.6" y2="199.5" stroke="rgb(0,0,0)"  stroke-width="1.0"/>
<line x1="108.3" y1="205.1" x2="106.9" y2="199.8" stroke="rgb(0,0,0)"  stroke-width="1.0"/>
<line x1="104.9" y1="206.6" x2="103.2" y2="200.1" stroke="rgb(0,0,0)"  stroke-width="1.0"/>
<line x1="101.5" y1="208.2" x2="99.5" y2="200.5" stroke="rgb(0,0,0)"  stroke-width="1.0"/>
<line x1="144.2" y1="226.4" x2="124.2" y2="221.0" stroke="rgb(0,0,0)"  stroke-width="2.0"/>
<line x1="144.2" y1="226.4" x2="105.7" y2="264.9" stroke="rgb(0,0,0)"  stroke-width="2.0"/>
<line x1="161.1" y1="255.6" x2="141.0" y2="261.0" stroke="rgb(0,0,0)"  stroke-width="2.0"/>
<line x1="161.1" y1="255.6" x2="155.7" y2="275.7" stroke="rgb(0,0,0)"  stroke-width="2.0"/>
<line x1="186.9" y1="285.0" x2="172.8" y2="337.7" stroke="rgb(0,0,0)"  stroke-width="2.0"/>
<line x1="224.0" y1="272.5" x2="218.7" y2="292.5" stroke="rgb(0,0,0)"  stroke-width="2.0"/>
<line x1="224.0" y1="272.5" x2="262.6" y2="311.0" stroke="rgb(0,0,0)"  stroke-width="2.0"/>
<line x1="253.3" y1="255.6" x2="258.6" y2="275.7" stroke="rgb(0,0,0)"  stroke-width="2.0"/>
<line x1="253.3" y1="255.6" x2="273.3" y2="261.0" stroke="rgb(0,0,0)"  stroke-width="2.0"/>
<line x1="279.3" y1="235.6" x2="317.9" y2="274.1" stroke="rgb(0,0,0)"  stroke-width="2.0"/>
<line x1="282.9" y1="222.1" x2="283.3" y2="223.7" stroke="rgb(0,0,0)"  stroke-width="1.0"/>
<line x1="284.5" y1="221.0" x2="285.3" y2="223.8" stroke="rgb(0,0,0)"  stroke-width="1.0"/>
<line x1="286.1" y1="220.0" x2="287.2" y2="224.0" stroke="rgb(0,0,0)"  stroke-width="1.0"/>
<line x1="287.7" y1="218.9" x2="289.2" y2="224.1" stroke="rgb(0,0,0)"  stroke-width="1.0"/>
<line x1="289.4" y1="217.8" x2="291.1" y2="224.3" stroke="rgb(0,0,0)"  stroke-width="1.0"/>
<line x1="291.0" y1="216.7" x2="293.0" y2="224.4" stroke="rgb(0,0,0)"  stroke-width="1.0"/>
<line x1="317.9" y1="274.1" x2="350.5" y2="265.4" stroke="rgb(0,0,0)"  stroke-width="2.0"/>
<line x1="317.9" y1="274.1" x2="323.3" y2="294.2" stroke="rgb(0,0,0)"  stroke-width="2.0"/>
<line x1="317.9" y1="274.1" x2="303.2" y2="288.8" stroke="rgb(0,0,0)"  stroke-width="2.0"/>
<line x1="347.6" y1="264.6" x2="353.0" y2="244.6" stroke="rgb(0,0,0)"  stroke-width="2.0"/>
<line x1="353.4" y1="266.2" x2="358.7" y2="246.1" stroke="rgb(0,0,0)"  stroke-width="2.0"/>
<line x1="350.5" y1="265.4" x2="365.2" y2="280.1" stroke="rgb(0,0,0)"  stroke-width="2.0"/>
<line x1="172.8" y1="337.7" x2="140.2" y2="346.4" stroke="rgb(0,0,0)"  stroke-width="2.0"/>
<line x1="172.8" y1="337.7" x2="178.2" y2="357.7" stroke="rgb(0,0,0)"  stroke-width="2.0"/>
<line x1="172.8" y1="337.7" x2="192.9" y2="343.1" stroke="rgb(0,0,0)"  stroke-width="2.0"/>
<line x1="138.1" y1="348.5" x2="123.4" y2="333.9" stroke="rgb(0,0,0)"  stroke-width="2.0"/>
<line x1="142.3" y1="344.3" x2="127.7" y2="329.6" stroke="rgb(0,0,0)"  stroke-width="2.0"/>
<line x1="140.2" y1="346.4" x2="134.9" y2="366.5" stroke="rgb(0,0,0)"  stroke-width="2.0"/>
<line x1="96.5" y1="144.9" x2="63.9" y2="153.6" stroke="rgb(0,0,0)"  stroke-width="2.0"/>
<line x1="96.5" y1="144.9" x2="91.1" y2="124.9" stroke="rgb(0,0,0)"  stroke-width="2.0"/>
<line x1="96.5" y1="144.9" x2="111.1" y2="130.2" stroke="rgb(0,0,0)"  stroke-width="2.0"/>
<line x1="66.8" y1="154.4" x2="61.4" y2="174.5" stroke="rgb(0,0,0)"  stroke-width="2.0"/>
<line x1="61.0" y1="152.9" x2="55.6" y2="172.9" stroke="rgb(0,0,0)"  stroke-width="2.0"/>
<line x1="63.9" y1="153.6" x2="49.2" y2="139.0" stroke="rgb(0,0,0)"  stroke-width="2.0"/>
<line x1="241.5" y1="81.3" x2="274.1" y2="72.6" stroke="rgb(0,0,0)"  stroke-width="2.0"/>
<line x1="241.5" y1="81.3" x2="236.1" y2="61.3" stroke="rgb(0,0,0)"  stroke-width="2.0"/>
<line x1="241.5" y1="81.3" x2="221.5" y2="76.0" stroke="rgb(0,0,0)"  stroke-width="2.0"/>
<line x1="276.2" y1="70.5" x2="290.9" y2="85.2" stroke="rgb(0,0,0)"  stroke-width="2.0"/>
<line x1="272.0" y1="74.7" x2="286.7" y2="89.4" stroke="rgb(0,0,0)"  stroke-width="2.0"/>
<line x1="274.1" y1="72.6" x2="279.5" y2="52.6" stroke="rgb(0,0,0)"  stroke-width="2.0"/>
<line x1="211.0" y1="146.5" x2="190.3" y2="146.5" stroke="rgb(0,0,0)"  stroke-width="2.0"/>
<line x1="190.3" y1="146.5" x2="161.1" y2="163.4" stroke="rgb(0,0,0)"  stroke-width="2.0"/>
<line x1="161.1" y1="163.4" x2="150.7" y2="181.4" stroke="rgb(0,0,0)"  stroke-width="2.0"/>
<line x1="144.2" y1="205.6" x2="144.2" y2="226.4" stroke="rgb(0,0,0)"  stroke-width="2.0"/>
<line x1="144.2" y1="226.4" x2="161.1" y2="255.6" stroke="rgb(0,0,0)"  stroke-width="2.0"/>
<line x1="161.1" y1="255.6" x2="179.0" y2="266.0" stroke="rgb(0,0,0)"  stroke-width="2.0"/>
<line x1="203.3" y1="272.5" x2="224.0" y2="272.5" stroke="rgb(0,0,0)"  stroke-width="2.0"/>
<line x1="224.0" y1="272.5" x2="253.3" y2="255.6" stroke="rgb(0,0,0)"  stroke-width="2.0"/>
<line x1="253.3" y1="255.6" x2="263.7" y2="237.6" stroke="rgb(0,0,0)"  stroke-width="2.0"/>
<line x1="270.2" y1="213.4" x2="270.2" y2="192.6" stroke="rgb(0,0,0)"  stroke-width="2.0"/>
<line x1="270.2" y1="192.6" x2="253.3" y2="163.4" stroke="rgb(0,0,0)"  stroke-width="2.0"/>
<line x1="253.3" y1="163.4" x2="235.3" y2="153.0" stroke="rgb(0,0,0)"  stroke-width="2.0"/>
<text x="265.777623" y="328.221555" fill="rgb(191,191,191)"  stroke="rgb(191,191,191)" stroke-width="1" font-size="16" >H</text>
<text x="329.351266" y="218.108776" fill="rgb(191,191,191)"  stroke="rgb(191,191,191)" stroke-width="1" font-size="16" >H</text>
<text x="311.880981" y="152.908782" fill="rgb(191,191,191)"  stroke="rgb(191,191,191)" stroke-width="1" font-size="16" >H</text>
<text x="279.876270" y="162.674990" fill="rgb(191,191,191)"  stroke="rgb(191,191,191)" stroke-width="1" font-size="16" >H</text>
<text x="256.011416" y="138.810136" fill="rgb(191,191,191)"  stroke="rgb(191,191,191)" stroke-width="1" font-size="16" >H</text>
<text x="193.033058" y="121.935136" fill="rgb(191,191,191)"  stroke="rgb(191,191,191)" stroke-width="1" font-size="16" >H</text>
<text x="136.568208" y="106.805425" fill="rgb(191,191,191)"  stroke="rgb(191,191,191)" stroke-width="1" font-size="16" >H</text>
<text x="146.334415" y="138.810136" fill="rgb(191,191,191)"  stroke="rgb(191,191,191)" stroke-width="1" font-size="16" >H</text>
<text x="122.469562" y="162.674990" fill="rgb(191,191,191)"  stroke="rgb(191,191,191)" stroke-width="1" font-size="16" >H</text>
<text x="105.594562" y="225.653347" fill="rgb(191,191,191)"  stroke="rgb(191,191,191)" stroke-width="1" font-size="16" >H</text>
<text x="90.464851" y="282.118198" fill="rgb(191,191,191)"  stroke="rgb(191,191,191)" stroke-width="1" font-size="16" >H</text>
<text x="122.469562" y="272.351990" fill="rgb(191,191,191)"  stroke="rgb(191,191,191)" stroke-width="1" font-size="16" >H</text>
<text x="146.334415" y="296.216844" fill="rgb(191,191,191)"  stroke="rgb(191,191,191)" stroke-width="1" font-size="16" >H</text>
<text x="209.312773" y="313.091844" fill="rgb(191,191,191)"  stroke="rgb(191,191,191)" stroke-width="1" font-size="16" >H</text>
<text x="276.853341" y="48.000000" fill="rgb(255,12,12)"  stroke="rgb(255,12,12)" stroke-width="1" font-size="16" >OH</text>
<text x="256.011416" y="296.216844" fill="rgb(191,191,191)"  stroke="rgb(191,191,191)" stroke-width="1" font-size="16" >H</text>
<text x="279.876270" y="272.351990" fill="rgb(191,191,191)"  stroke="rgb(191,191,191)" stroke-width="1" font-size="16" >H</text>
<text x="320.616123" y="314.718194" fill="rgb(191,191,191)"  stroke="rgb(191,191,191)" stroke-width="1" font-size="16" >H</text>
<text x="288.016127" y="305.983052" fill="rgb(191,191,191)"  stroke="rgb(191,191,191)" stroke-width="1" font-size="16" >H</text>
<text x="175.562773" y="378.291837" fill="rgb(191,191,191)"  stroke="rgb(191,191,191)" stroke-width="1" font-size="16" >H</text>
<text x="199.427627" y="354.426983" fill="rgb(191,191,191)"  stroke="rgb(191,191,191)" stroke-width="1" font-size="16" >H</text>
<text x="81.729708" y="120.308786" fill="rgb(191,191,191)"  stroke="rgb(191,191,191)" stroke-width="1" font-size="16" >H</text>
<text x="114.329704" y="129.043928" fill="rgb(191,191,191)"  stroke="rgb(191,191,191)" stroke-width="1" font-size="16" >H</text>
<text x="226.783058" y="56.735143" fill="rgb(191,191,191)"  stroke="rgb(191,191,191)" stroke-width="1" font-size="16" >H</text>
<text x="202.918205" y="80.599997" fill="rgb(191,191,191)"  stroke="rgb(191,191,191)" stroke-width="1" font-size="16" >H</text>
<text x="296.751270" y="225.653347" fill="rgb(191,191,191)"  stroke="rgb(191,191,191)" stroke-width="1" font-size="16" >H</text>
<text x="72.994565" y="218.108776" fill="rgb(191,191,191)"  stroke="rgb(191,191,191)" stroke-width="1" font-size="16" >H</text>
<text x="353.216120" y="240.783058" fill="rgb(255,12,12)"  stroke="rgb(255,12,12)" stroke-width="1" font-size="16" >O</text>
<text x="218.047916" y="154.535133" fill="rgb(12,12,255)"  stroke="rgb(12,12,255)" stroke-width="1" font-size="16" >N</text>
<text x="148.994558" y="188.606490" fill="rgb(12,12,255)"  stroke="rgb(12,12,255)" stroke-width="1" font-size="16" >+</text>
<text x="138.194558" y="200.638490" fill="rgb(12,12,255)"  stroke="rgb(12,12,255)" stroke-width="1" font-size="16" >N</text>
<text x="184.297916" y="280.491847" fill="rgb(12,12,255)"  stroke="rgb(12,12,255)" stroke-width="1" font-size="16" >N</text>
<text x="274.951273" y="222.356490" fill="rgb(12,12,255)"  stroke="rgb(12,12,255)" stroke-width="1" font-size="16" >+</text>
<text x="264.151273" y="234.388490" fill="rgb(12,12,255)"  stroke="rgb(12,12,255)" stroke-width="1" font-size="16" >N</text>
<text x="368.345831" y="297.247909" fill="rgb(255,12,12)"  stroke="rgb(255,12,12)" stroke-width="1" font-size="16" >OH</text>
<text x="110.362780" y="330.562130" fill="rgb(255,12,12)"  stroke="rgb(255,12,12)" stroke-width="1" font-size="16" >O</text>
<text x="113.492491" y="387.026980" fill="rgb(255,12,12)"  stroke="rgb(255,12,12)" stroke-width="1" font-size="16" >HO</text>
<text x="49.129711" y="194.243922" fill="rgb(255,12,12)"  stroke="rgb(255,12,12)" stroke-width="1" font-size="16" >O</text>
<text x="22.000000" y="137.779071" fill="rgb(255,12,12)"  stroke="rgb(255,12,12)" stroke-width="1" font-size="16" >HO</text>
<text x="291.983052" y="104.464851" fill="rgb(255,12,12)"  stroke="rgb(255,12,12)" stroke-width="1" font-size="16" >O</text>
</svg>
</g>
<text font-size="18.000000" fill ="black" font-family="sans-serif"
x="10.000000" y="20.000000" >ZINC22059268</text>
</svg>
