<?xml version="1.0"?>
<svg version="1.1" id="topsvg"
xmlns="http://www.w3.org/2000/svg" xmlns:xlink="http://www.w3.org/1999/xlink"
xmlns:cml="http://www.xml-cml.org/schema" x="0" y="0" width="200px" height="200px" viewBox="0 0 100 100">
<title>ZINC25924239 - Open Babel Depiction</title>
<rect x="0" y="0" width="100" height="100" fill="white"/>
<g transform="translate(0,0)">
<svg width="100" height="100" x="0" y="0" viewBox="0 0 273.452 260.129"
font-family="sans-serif" stroke="rgb(0,0,0)" stroke-width="2"  stroke-linecap="round">
<line x1="74.6" y1="160.1" x2="51.3" y2="173.6" stroke="rgb(0,0,0)"  stroke-width="2.0"/>
<line x1="109.3" y1="180.1" x2="109.3" y2="207.1" stroke="rgb(0,0,0)"  stroke-width="2.0"/>
<line x1="182.0" y1="107.8" x2="190.3" y2="82.1" stroke="rgb(0,0,0)"  stroke-width="2.0"/>
<line x1="186.0" y1="184.9" x2="190.3" y2="198.2" stroke="rgb(0,0,0)"  stroke-width="2.0"/>
<line x1="207.0" y1="67.0" x2="220.7" y2="64.1" stroke="rgb(0,0,0)"  stroke-width="2.0"/>
<line x1="185.6" y1="60.1" x2="176.3" y2="49.7" stroke="rgb(0,0,0)"  stroke-width="2.0"/>
<line x1="74.6" y1="120.1" x2="51.3" y2="106.6" stroke="rgb(0,0,0)"  stroke-width="2.0"/>
<line x1="197.7" y1="129.4" x2="182.0" y2="107.8" stroke="rgb(0,0,0)"  stroke-width="2.0"/>
<line x1="190.7" y1="132.1" x2="179.7" y2="116.9" stroke="rgb(0,0,0)"  stroke-width="2.0"/>
<line x1="182.0" y1="107.8" x2="143.9" y2="120.1" stroke="rgb(0,0,0)"  stroke-width="2.0"/>
<line x1="143.9" y1="120.1" x2="143.9" y2="160.1" stroke="rgb(0,0,0)"  stroke-width="2.0"/>
<line x1="143.9" y1="160.1" x2="169.6" y2="168.5" stroke="rgb(0,0,0)"  stroke-width="2.0"/>
<line x1="189.6" y1="162.0" x2="197.8" y2="150.6" stroke="rgb(0,0,0)"  stroke-width="2.0"/>
<line x1="143.9" y1="120.1" x2="120.7" y2="106.7" stroke="rgb(0,0,0)"  stroke-width="2.0"/>
<line x1="135.1" y1="123.4" x2="118.8" y2="114.0" stroke="rgb(0,0,0)"  stroke-width="2.0"/>
<line x1="98.0" y1="106.6" x2="74.6" y2="120.1" stroke="rgb(0,0,0)"  stroke-width="2.0"/>
<line x1="74.6" y1="120.1" x2="74.6" y2="160.1" stroke="rgb(0,0,0)"  stroke-width="2.0"/>
<line x1="81.8" y1="126.1" x2="81.8" y2="154.1" stroke="rgb(0,0,0)"  stroke-width="2.0"/>
<line x1="74.6" y1="160.1" x2="109.3" y2="180.1" stroke="rgb(0,0,0)"  stroke-width="2.0"/>
<line x1="109.3" y1="180.1" x2="143.9" y2="160.1" stroke="rgb(0,0,0)"  stroke-width="2.0"/>
<line x1="110.9" y1="170.9" x2="135.1" y2="156.9" stroke="rgb(0,0,0)"  stroke-width="2.0"/>
<text x="199.476719" y="148.128733" fill="rgb(12,12,255)"  stroke="rgb(12,12,255)" stroke-width="1" font-size="16" >N</text>
<text x="175.965309" y="180.489413" fill="rgb(12,12,255)"  stroke="rgb(12,12,255)" stroke-width="1" font-size="16" >N</text>
<text x="188.325989" y="77.725793" fill="rgb(12,12,255)"  stroke="rgb(12,12,255)" stroke-width="1" font-size="16" >N</text>
<text x="103.282032" y="108.128733" fill="rgb(12,12,255)"  stroke="rgb(12,12,255)" stroke-width="1" font-size="16" >N</text>
<text x="34.000000" y="188.128733" fill="rgb(191,191,191)"  stroke="rgb(191,191,191)" stroke-width="1" font-size="16" >H</text>
<text x="103.282032" y="228.128733" fill="rgb(191,191,191)"  stroke="rgb(191,191,191)" stroke-width="1" font-size="16" >H</text>
<text x="227.451893" y="69.409325" fill="rgb(191,191,191)"  stroke="rgb(191,191,191)" stroke-width="1" font-size="16" >H</text>
<text x="161.560765" y="48.000000" fill="rgb(191,191,191)"  stroke="rgb(191,191,191)" stroke-width="1" font-size="16" >H</text>
<text x="34.000000" y="108.128733" fill="rgb(191,191,191)"  stroke="rgb(191,191,191)" stroke-width="1" font-size="16" >H</text>
<text x="188.325989" y="218.531674" fill="rgb(191,191,191)"  stroke="rgb(191,191,191)" stroke-width="1" font-size="16" >H</text>
</svg>
</g>
<text font-size="18.000000" fill ="black" font-family="sans-serif"
x="10.000000" y="20.000000" >ZINC25924239</text>
</svg>
