<?xml version="1.0"?>
<svg version="1.1" id="topsvg"
xmlns="http://www.w3.org/2000/svg" xmlns:xlink="http://www.w3.org/1999/xlink"
xmlns:cml="http://www.xml-cml.org/schema" x="0" y="0" width="200px" height="200px" viewBox="0 0 100 100">
<title>ZINC67664987 - Open Babel Depiction</title>
<rect x="0" y="0" width="100" height="100" fill="white"/>
<g transform="translate(0,0)">
<svg width="100" height="100" x="0" y="0" viewBox="0 0 429.207 484.54"
font-family="sans-serif" stroke="rgb(0,0,0)" stroke-width="2"  stroke-linecap="round">
<line x1="112.6" y1="264.0" x2="129.4" y2="245.4" stroke="rgb(0,0,0)"  stroke-width="2.0"/>
<line x1="112.6" y1="264.0" x2="88.7" y2="271.8" stroke="rgb(0,0,0)"  stroke-width="2.0"/>
<line x1="112.6" y1="264.0" x2="93.9" y2="247.2" stroke="rgb(0,0,0)"  stroke-width="2.0"/>
<line x1="112.6" y1="264.0" x2="120.4" y2="287.9" stroke="rgb(0,0,0)"  stroke-width="2.0"/>
<line x1="134.1" y1="223.3" x2="126.3" y2="199.4" stroke="rgb(0,0,0)"  stroke-width="2.0"/>
<line x1="89.1" y1="191.5" x2="72.3" y2="210.2" stroke="rgb(0,0,0)"  stroke-width="2.0"/>
<line x1="77.3" y1="155.3" x2="52.7" y2="150.1" stroke="rgb(0,0,0)"  stroke-width="2.0"/>
<line x1="102.8" y1="127.0" x2="95.0" y2="103.1" stroke="rgb(0,0,0)"  stroke-width="2.0"/>
<line x1="140.1" y1="134.9" x2="156.9" y2="116.2" stroke="rgb(0,0,0)"  stroke-width="2.0"/>
<line x1="151.8" y1="171.1" x2="176.4" y2="176.3" stroke="rgb(0,0,0)"  stroke-width="2.0"/>
<line x1="197.8" y1="169.4" x2="214.6" y2="150.7" stroke="rgb(0,0,0)"  stroke-width="2.0"/>
<line x1="214.6" y1="150.7" x2="251.9" y2="158.7" stroke="rgb(0,0,0)"  stroke-width="2.0"/>
<line x1="214.6" y1="150.7" x2="195.9" y2="133.9" stroke="rgb(0,0,0)"  stroke-width="2.0"/>
<line x1="214.6" y1="150.7" x2="219.8" y2="126.2" stroke="rgb(0,0,0)"  stroke-width="2.0"/>
<line x1="251.9" y1="158.7" x2="259.6" y2="182.5" stroke="rgb(0,0,0)"  stroke-width="2.0"/>
<line x1="251.9" y1="158.7" x2="257.1" y2="134.1" stroke="rgb(0,0,0)"  stroke-width="2.0"/>
<line x1="251.9" y1="158.7" x2="275.8" y2="150.9" stroke="rgb(0,0,0)"  stroke-width="2.0"/>
<line x1="251.3" y1="198.9" x2="227.4" y2="206.7" stroke="rgb(0,0,0)"  stroke-width="2.0"/>
<line x1="276.0" y1="190.9" x2="287.5" y2="187.1" stroke="rgb(0,0,0)"  stroke-width="2.0"/>
<line x1="267.7" y1="207.3" x2="271.4" y2="218.8" stroke="rgb(0,0,0)"  stroke-width="2.0"/>
<line x1="227.4" y1="206.7" x2="199.1" y2="181.2" stroke="rgb(0,0,0)"  stroke-width="2.0"/>
<line x1="227.4" y1="206.7" x2="235.2" y2="230.6" stroke="rgb(0,0,0)"  stroke-width="2.0"/>
<line x1="227.4" y1="206.7" x2="210.6" y2="225.3" stroke="rgb(0,0,0)"  stroke-width="2.0"/>
<polygon points="199.096399 181.172576 184.983686 202.824238 179.038528 197.471193 " stroke-width="2.000000" fill="rgb(0,0,0)"  stroke="rgb(0,0,0)" />
<line x1="199.1" y1="181.2" x2="224.6" y2="152.9" stroke="rgb(0,0,0)"  stroke-width="2.0"/>
<line x1="199.1" y1="181.2" x2="180.4" y2="164.4" stroke="rgb(0,0,0)"  stroke-width="2.0"/>
<line x1="224.6" y1="152.9" x2="249.2" y2="158.1" stroke="rgb(0,0,0)"  stroke-width="2.0"/>
<line x1="224.6" y1="152.9" x2="205.9" y2="136.0" stroke="rgb(0,0,0)"  stroke-width="2.0"/>
<line x1="224.6" y1="152.9" x2="229.8" y2="128.3" stroke="rgb(0,0,0)"  stroke-width="2.0"/>
<line x1="290.2" y1="97.2" x2="268.4" y2="84.6" stroke="rgb(0,0,0)"  stroke-width="2.0"/>
<line x1="323.2" y1="78.1" x2="323.2" y2="53.0" stroke="rgb(0,0,0)"  stroke-width="2.0"/>
<line x1="356.2" y1="97.2" x2="377.9" y2="84.6" stroke="rgb(0,0,0)"  stroke-width="2.0"/>
<line x1="356.2" y1="135.3" x2="377.9" y2="147.8" stroke="rgb(0,0,0)"  stroke-width="2.0"/>
<line x1="261.9" y1="230.4" x2="236.9" y2="233.0" stroke="rgb(0,0,0)"  stroke-width="2.0"/>
<line x1="284.3" y1="261.2" x2="274.1" y2="284.2" stroke="rgb(0,0,0)"  stroke-width="2.0"/>
<line x1="322.2" y1="257.3" x2="336.9" y2="277.6" stroke="rgb(0,0,0)"  stroke-width="2.0"/>
<line x1="337.7" y1="222.4" x2="284.2" y2="418.1" stroke="rgb(0,0,0)"  stroke-width="2.0"/>
<line x1="269.5" y1="424.1" x2="247.8" y2="411.5" stroke="rgb(0,0,0)"  stroke-width="2.0"/>
<line x1="247.8" y1="411.5" x2="247.8" y2="373.4" stroke="rgb(0,0,0)"  stroke-width="2.0"/>
<line x1="247.8" y1="411.5" x2="222.7" y2="411.5" stroke="rgb(0,0,0)"  stroke-width="2.0"/>
<line x1="247.8" y1="411.5" x2="235.2" y2="433.3" stroke="rgb(0,0,0)"  stroke-width="2.0"/>
<polygon points="247.776633 373.425763 273.310202 369.425763 273.310202 377.425763 " stroke-width="2.000000" fill="rgb(0,0,0)"  stroke="rgb(0,0,0)" />
<line x1="247.8" y1="373.4" x2="247.8" y2="335.3" stroke="rgb(0,0,0)"  stroke-width="2.0"/>
<line x1="247.8" y1="373.4" x2="222.7" y2="373.4" stroke="rgb(0,0,0)"  stroke-width="2.0"/>
<line x1="247.8" y1="335.3" x2="269.5" y2="322.8" stroke="rgb(0,0,0)"  stroke-width="2.0"/>
<line x1="247.8" y1="335.3" x2="235.2" y2="313.6" stroke="rgb(0,0,0)"  stroke-width="2.0"/>
<line x1="247.8" y1="335.3" x2="222.7" y2="335.3" stroke="rgb(0,0,0)"  stroke-width="2.0"/>
<line x1="280.8" y1="303.3" x2="280.8" y2="278.2" stroke="rgb(0,0,0)"  stroke-width="2.0"/>
<line x1="292.0" y1="322.8" x2="302.5" y2="328.8" stroke="rgb(0,0,0)"  stroke-width="2.0"/>
<line x1="280.8" y1="278.2" x2="313.8" y2="259.1" stroke="rgb(0,0,0)"  stroke-width="2.0"/>
<line x1="280.8" y1="278.2" x2="268.2" y2="256.4" stroke="rgb(0,0,0)"  stroke-width="2.0"/>
<line x1="280.8" y1="278.2" x2="255.7" y2="278.2" stroke="rgb(0,0,0)"  stroke-width="2.0"/>
<line x1="313.8" y1="259.1" x2="313.8" y2="234.0" stroke="rgb(0,0,0)"  stroke-width="2.0"/>
<line x1="313.8" y1="259.1" x2="338.9" y2="259.1" stroke="rgb(0,0,0)"  stroke-width="2.0"/>
<line x1="313.8" y1="259.1" x2="326.3" y2="280.8" stroke="rgb(0,0,0)"  stroke-width="2.0"/>
<line x1="302.5" y1="214.5" x2="280.8" y2="201.9" stroke="rgb(0,0,0)"  stroke-width="2.0"/>
<line x1="247.8" y1="221.0" x2="247.8" y2="246.1" stroke="rgb(0,0,0)"  stroke-width="2.0"/>
<line x1="214.8" y1="201.9" x2="193.0" y2="214.5" stroke="rgb(0,0,0)"  stroke-width="2.0"/>
<line x1="214.8" y1="163.8" x2="193.0" y2="151.3" stroke="rgb(0,0,0)"  stroke-width="2.0"/>
<line x1="247.8" y1="144.8" x2="247.8" y2="119.7" stroke="rgb(0,0,0)"  stroke-width="2.0"/>
<line x1="280.8" y1="163.8" x2="302.5" y2="151.3" stroke="rgb(0,0,0)"  stroke-width="2.0"/>
<line x1="325.0" y1="151.3" x2="346.8" y2="163.8" stroke="rgb(0,0,0)"  stroke-width="2.0"/>
<line x1="346.8" y1="163.8" x2="359.3" y2="185.6" stroke="rgb(0,0,0)"  stroke-width="2.0"/>
<line x1="346.8" y1="163.8" x2="334.2" y2="185.6" stroke="rgb(0,0,0)"  stroke-width="2.0"/>
<line x1="346.8" y1="163.8" x2="368.5" y2="151.3" stroke="rgb(0,0,0)"  stroke-width="2.0"/>
<line x1="203.2" y1="384.7" x2="197.1" y2="395.2" stroke="rgb(0,0,0)"  stroke-width="2.0"/>
<line x1="158.4" y1="159.7" x2="146.9" y2="163.4" stroke="rgb(0,0,0)"  stroke-width="2.0"/>
<line x1="323.2" y1="154.3" x2="315.3" y2="191.6" stroke="rgb(0,0,0)"  stroke-width="2.0"/>
<line x1="315.3" y1="191.6" x2="277.4" y2="195.6" stroke="rgb(0,0,0)"  stroke-width="2.0"/>
<line x1="277.4" y1="195.6" x2="267.2" y2="172.7" stroke="rgb(0,0,0)"  stroke-width="2.0"/>
<line x1="271.5" y1="152.1" x2="290.2" y2="135.3" stroke="rgb(0,0,0)"  stroke-width="2.0"/>
<line x1="290.2" y1="135.3" x2="323.2" y2="154.3" stroke="rgb(0,0,0)"  stroke-width="2.0"/>
<line x1="291.8" y1="144.5" x2="314.4" y2="157.6" stroke="rgb(0,0,0)"  stroke-width="2.0"/>
<line x1="77.3" y1="155.3" x2="102.8" y2="127.0" stroke="rgb(0,0,0)"  stroke-width="2.0"/>
<line x1="102.8" y1="127.0" x2="140.1" y2="134.9" stroke="rgb(0,0,0)"  stroke-width="2.0"/>
<line x1="107.1" y1="135.2" x2="132.7" y2="140.7" stroke="rgb(0,0,0)"  stroke-width="2.0"/>
<line x1="140.1" y1="134.9" x2="151.8" y2="171.1" stroke="rgb(0,0,0)"  stroke-width="2.0"/>
<line x1="151.8" y1="171.1" x2="126.3" y2="199.4" stroke="rgb(0,0,0)"  stroke-width="2.0"/>
<line x1="142.5" y1="170.8" x2="125.0" y2="190.2" stroke="rgb(0,0,0)"  stroke-width="2.0"/>
<line x1="126.3" y1="199.4" x2="89.1" y2="191.5" stroke="rgb(0,0,0)"  stroke-width="2.0"/>
<line x1="89.1" y1="191.5" x2="77.3" y2="155.3" stroke="rgb(0,0,0)"  stroke-width="2.0"/>
<line x1="94.0" y1="183.6" x2="86.0" y2="158.8" stroke="rgb(0,0,0)"  stroke-width="2.0"/>
<line x1="290.2" y1="97.2" x2="323.2" y2="78.1" stroke="rgb(0,0,0)"  stroke-width="2.0"/>
<line x1="299.0" y1="100.4" x2="321.6" y2="87.3" stroke="rgb(0,0,0)"  stroke-width="2.0"/>
<line x1="323.2" y1="78.1" x2="356.2" y2="97.2" stroke="rgb(0,0,0)"  stroke-width="2.0"/>
<line x1="356.2" y1="97.2" x2="356.2" y2="135.3" stroke="rgb(0,0,0)"  stroke-width="2.0"/>
<line x1="349.0" y1="103.2" x2="349.0" y2="129.3" stroke="rgb(0,0,0)"  stroke-width="2.0"/>
<line x1="356.2" y1="135.3" x2="323.2" y2="154.3" stroke="rgb(0,0,0)"  stroke-width="2.0"/>
<line x1="290.2" y1="135.3" x2="290.2" y2="97.2" stroke="rgb(0,0,0)"  stroke-width="2.0"/>
<line x1="322.2" y1="257.3" x2="284.3" y2="261.2" stroke="rgb(0,0,0)"  stroke-width="2.0"/>
<line x1="315.5" y1="250.7" x2="289.5" y2="253.4" stroke="rgb(0,0,0)"  stroke-width="2.0"/>
<line x1="284.3" y1="261.2" x2="261.9" y2="230.4" stroke="rgb(0,0,0)"  stroke-width="2.0"/>
<line x1="261.9" y1="230.4" x2="277.4" y2="195.6" stroke="rgb(0,0,0)"  stroke-width="2.0"/>
<line x1="270.9" y1="227.9" x2="281.5" y2="204.0" stroke="rgb(0,0,0)"  stroke-width="2.0"/>
<line x1="315.3" y1="191.6" x2="337.7" y2="222.4" stroke="rgb(0,0,0)"  stroke-width="2.0"/>
<line x1="313.0" y1="200.7" x2="328.3" y2="221.8" stroke="rgb(0,0,0)"  stroke-width="2.0"/>
<line x1="337.7" y1="222.4" x2="322.2" y2="257.3" stroke="rgb(0,0,0)"  stroke-width="2.0"/>
<line x1="214.8" y1="201.9" x2="214.8" y2="163.8" stroke="rgb(0,0,0)"  stroke-width="2.0"/>
<line x1="214.8" y1="163.8" x2="247.8" y2="144.8" stroke="rgb(0,0,0)"  stroke-width="2.0"/>
<line x1="223.6" y1="167.1" x2="246.2" y2="154.0" stroke="rgb(0,0,0)"  stroke-width="2.0"/>
<line x1="247.8" y1="144.8" x2="280.8" y2="163.8" stroke="rgb(0,0,0)"  stroke-width="2.0"/>
<line x1="280.8" y1="163.8" x2="280.8" y2="201.9" stroke="rgb(0,0,0)"  stroke-width="2.0"/>
<line x1="273.6" y1="169.8" x2="273.6" y2="195.9" stroke="rgb(0,0,0)"  stroke-width="2.0"/>
<line x1="280.8" y1="201.9" x2="247.8" y2="221.0" stroke="rgb(0,0,0)"  stroke-width="2.0"/>
<line x1="247.8" y1="221.0" x2="214.8" y2="201.9" stroke="rgb(0,0,0)"  stroke-width="2.0"/>
<line x1="246.2" y1="211.8" x2="223.6" y2="198.7" stroke="rgb(0,0,0)"  stroke-width="2.0"/>
<text x="216.531964" y="121.451371" fill="rgb(191,191,191)"  stroke="rgb(191,191,191)" stroke-width="1" font-size="16" >H</text>
<text x="383.207128" y="162.329412" fill="rgb(191,191,191)"  stroke="rgb(191,191,191)" stroke-width="1" font-size="16" >H</text>
<text x="383.207128" y="86.109804" fill="rgb(191,191,191)"  stroke="rgb(191,191,191)" stroke-width="1" font-size="16" >H</text>
<text x="317.199011" y="48.000000" fill="rgb(191,191,191)"  stroke="rgb(191,191,191)" stroke-width="1" font-size="16" >H</text>
<text x="251.190894" y="86.109804" fill="rgb(191,191,191)"  stroke="rgb(191,191,191)" stroke-width="1" font-size="16" >H</text>
<text x="226.520309" y="123.574459" fill="rgb(191,191,191)"  stroke="rgb(191,191,191)" stroke-width="1" font-size="16" >H</text>
<text x="190.275732" y="135.351036" fill="rgb(191,191,191)"  stroke="rgb(191,191,191)" stroke-width="1" font-size="16" >H</text>
<text x="195.917067" y="242.994116" fill="rgb(191,191,191)"  stroke="rgb(191,191,191)" stroke-width="1" font-size="16" >H</text>
<text x="233.194080" y="250.917590" fill="rgb(191,191,191)"  stroke="rgb(191,191,191)" stroke-width="1" font-size="16" >H</text>
<text x="293.906658" y="191.119858" fill="rgb(191,191,191)"  stroke="rgb(191,191,191)" stroke-width="1" font-size="16" >H</text>
<text x="282.130081" y="154.875281" fill="rgb(191,191,191)"  stroke="rgb(191,191,191)" stroke-width="1" font-size="16" >H</text>
<text x="253.808977" y="129.374845" fill="rgb(191,191,191)"  stroke="rgb(191,191,191)" stroke-width="1" font-size="16" >H</text>
<text x="217.972814" y="242.388582" fill="rgb(191,191,191)"  stroke="rgb(191,191,191)" stroke-width="1" font-size="16" >H</text>
<text x="180.287386" y="133.227948" fill="rgb(191,191,191)"  stroke="rgb(191,191,191)" stroke-width="1" font-size="16" >H</text>
<text x="159.554899" y="114.560333" fill="rgb(191,191,191)"  stroke="rgb(191,191,191)" stroke-width="1" font-size="16" >H</text>
<text x="85.000873" y="98.713385" fill="rgb(191,191,191)"  stroke="rgb(191,191,191)" stroke-width="1" font-size="16" >H</text>
<text x="34.000000" y="155.355593" fill="rgb(191,191,191)"  stroke="rgb(191,191,191)" stroke-width="1" font-size="16" >H</text>
<text x="57.553154" y="227.844748" fill="rgb(191,191,191)"  stroke="rgb(191,191,191)" stroke-width="1" font-size="16" >H</text>
<text x="118.383322" y="308.257376" fill="rgb(191,191,191)"  stroke="rgb(191,191,191)" stroke-width="1" font-size="16" >H</text>
<text x="78.285641" y="246.512363" fill="rgb(191,191,191)"  stroke="rgb(191,191,191)" stroke-width="1" font-size="16" >H</text>
<text x="70.362167" y="283.789376" fill="rgb(191,191,191)"  stroke="rgb(191,191,191)" stroke-width="1" font-size="16" >H</text>
<text x="164.775296" y="163.672140" fill="rgb(255,12,12)"  stroke="rgb(255,12,12)" stroke-width="1" font-size="16" >O</text>
<text x="203.666829" y="381.425763" fill="rgb(255,12,12)"  stroke="rgb(255,12,12)" stroke-width="1" font-size="16" >O</text>
<text x="241.776633" y="267.096351" fill="rgb(191,191,191)"  stroke="rgb(191,191,191)" stroke-width="1" font-size="16" >H</text>
<text x="269.438658" y="239.141013" fill="rgb(191,191,191)"  stroke="rgb(191,191,191)" stroke-width="1" font-size="16" >H</text>
<text x="307.784750" y="343.315959" fill="rgb(191,191,191)"  stroke="rgb(191,191,191)" stroke-width="1" font-size="16" >H</text>
<text x="128.530718" y="175.448717" fill="rgb(191,191,191)"  stroke="rgb(191,191,191)" stroke-width="1" font-size="16" >H</text>
<text x="184.611927" y="414.429822" fill="rgb(191,191,191)"  stroke="rgb(191,191,191)" stroke-width="1" font-size="16" >H</text>
<text x="373.792867" y="152.766939" fill="rgb(191,191,191)"  stroke="rgb(191,191,191)" stroke-width="1" font-size="16" >H</text>
<text x="321.733907" y="204.825899" fill="rgb(191,191,191)"  stroke="rgb(191,191,191)" stroke-width="1" font-size="16" >H</text>
<text x="359.843711" y="204.825899" fill="rgb(191,191,191)"  stroke="rgb(191,191,191)" stroke-width="1" font-size="16" >H</text>
<text x="241.776633" y="114.657135" fill="rgb(191,191,191)"  stroke="rgb(191,191,191)" stroke-width="1" font-size="16" >H</text>
<text x="175.768517" y="152.766939" fill="rgb(191,191,191)"  stroke="rgb(191,191,191)" stroke-width="1" font-size="16" >H</text>
<text x="175.768517" y="228.986547" fill="rgb(191,191,191)"  stroke="rgb(191,191,191)" stroke-width="1" font-size="16" >H</text>
<text x="326.839652" y="300.100409" fill="rgb(191,191,191)"  stroke="rgb(191,191,191)" stroke-width="1" font-size="16" >H</text>
<text x="345.894554" y="267.096351" fill="rgb(191,191,191)"  stroke="rgb(191,191,191)" stroke-width="1" font-size="16" >H</text>
<text x="236.670888" y="286.151253" fill="rgb(191,191,191)"  stroke="rgb(191,191,191)" stroke-width="1" font-size="16" >H</text>
<text x="255.725790" y="253.147195" fill="rgb(191,191,191)"  stroke="rgb(191,191,191)" stroke-width="1" font-size="16" >H</text>
<text x="203.666829" y="343.315959" fill="rgb(191,191,191)"  stroke="rgb(191,191,191)" stroke-width="1" font-size="16" >H</text>
<text x="222.721731" y="310.311901" fill="rgb(191,191,191)"  stroke="rgb(191,191,191)" stroke-width="1" font-size="16" >H</text>
<text x="222.721731" y="452.539626" fill="rgb(191,191,191)"  stroke="rgb(191,191,191)" stroke-width="1" font-size="16" >H</text>
<text x="203.666829" y="419.535567" fill="rgb(191,191,191)"  stroke="rgb(191,191,191)" stroke-width="1" font-size="16" >H</text>
<text x="338.575645" y="296.084422" fill="rgb(191,191,191)"  stroke="rgb(191,191,191)" stroke-width="1" font-size="16" >H</text>
<text x="262.773576" y="304.051541" fill="rgb(191,191,191)"  stroke="rgb(191,191,191)" stroke-width="1" font-size="16" >H</text>
<text x="268.462080" y="190.864436" fill="rgb(12,12,255)"  stroke="rgb(12,12,255)" stroke-width="1" font-size="16" >+</text>
<text x="257.662080" y="202.896436" fill="rgb(12,12,255)"  stroke="rgb(12,12,255)" stroke-width="1" font-size="16" >N</text>
<text x="255.873849" y="168.774946" fill="rgb(12,12,255)"  stroke="rgb(12,12,255)" stroke-width="1" font-size="16" >N</text>
<text x="167.595963" y="217.493680" fill="rgb(191,191,191)"  stroke="rgb(191,191,191)" stroke-width="1" font-size="16" >H</text>
<text x="183.108054" y="187.049488" fill="rgb(255,12,12)"  stroke="rgb(255,12,12)" stroke-width="1" font-size="16" >O</text>
<text x="132.107181" y="243.691695" fill="rgb(255,12,12)"  stroke="rgb(255,12,12)" stroke-width="1" font-size="16" >O</text>
<text x="274.780692" y="324.261057" fill="rgb(12,12,255)"  stroke="rgb(12,12,255)" stroke-width="1" font-size="16" >N</text>
<text x="307.784750" y="152.766939" fill="rgb(255,12,12)"  stroke="rgb(255,12,12)" stroke-width="1" font-size="16" >O</text>
<text x="307.784750" y="228.986547" fill="rgb(255,12,12)"  stroke="rgb(255,12,12)" stroke-width="1" font-size="16" >O</text>
<text x="279.886437" y="381.425763" fill="rgb(191,191,191)"  stroke="rgb(191,191,191)" stroke-width="1" font-size="16" >H</text>
<text x="274.780692" y="438.590469" fill="rgb(255,12,12)"  stroke="rgb(255,12,12)" stroke-width="1" font-size="16" >O</text>
</svg>
</g>
<text font-size="18.000000" fill ="black" font-family="sans-serif"
x="10.000000" y="20.000000" >ZINC67664987</text>
</svg>
