<?xml version="1.0"?>
<svg version="1.1" id="topsvg"
xmlns="http://www.w3.org/2000/svg" xmlns:xlink="http://www.w3.org/1999/xlink"
xmlns:cml="http://www.xml-cml.org/schema" x="0" y="0" width="200px" height="200px" viewBox="0 0 100 100">
<title>ZINC29866061 - Open Babel Depiction</title>
<rect x="0" y="0" width="100" height="100" fill="white"/>
<g transform="translate(0,0)">
<svg width="100" height="100" x="0" y="0" viewBox="0 0 415.61 270.439"
font-family="sans-serif" stroke="rgb(0,0,0)" stroke-width="2"  stroke-linecap="round">
<line x1="349.0" y1="94.2" x2="326.7" y2="98.9" stroke="rgb(0,0,0)"  stroke-width="2.0"/>
<line x1="349.0" y1="94.2" x2="365.9" y2="78.9" stroke="rgb(0,0,0)"  stroke-width="2.0"/>
<line x1="349.0" y1="94.2" x2="344.3" y2="71.9" stroke="rgb(0,0,0)"  stroke-width="2.0"/>
<line x1="349.0" y1="94.2" x2="364.3" y2="111.1" stroke="rgb(0,0,0)"  stroke-width="2.0"/>
<line x1="290.1" y1="75.0" x2="307.0" y2="59.8" stroke="rgb(0,0,0)"  stroke-width="2.0"/>
<line x1="290.1" y1="75.0" x2="285.3" y2="52.7" stroke="rgb(0,0,0)"  stroke-width="2.0"/>
<line x1="255.1" y1="82.4" x2="250.3" y2="60.2" stroke="rgb(0,0,0)"  stroke-width="2.0"/>
<line x1="255.1" y1="82.4" x2="233.4" y2="75.4" stroke="rgb(0,0,0)"  stroke-width="2.0"/>
<line x1="231.3" y1="119.2" x2="104.0" y2="146.3" stroke="rgb(0,0,0)"  stroke-width="2.0"/>
<line x1="267.9" y1="143.1" x2="251.0" y2="158.3" stroke="rgb(0,0,0)"  stroke-width="2.0"/>
<line x1="267.9" y1="143.1" x2="272.7" y2="165.4" stroke="rgb(0,0,0)"  stroke-width="2.0"/>
<line x1="302.9" y1="135.6" x2="307.7" y2="157.9" stroke="rgb(0,0,0)"  stroke-width="2.0"/>
<line x1="302.9" y1="135.6" x2="324.6" y2="142.7" stroke="rgb(0,0,0)"  stroke-width="2.0"/>
<line x1="104.0" y1="146.3" x2="111.0" y2="124.6" stroke="rgb(0,0,0)"  stroke-width="2.0"/>
<polygon points="103.961680 146.250450 111.680787 181.425751 103.724611 182.261979 " stroke-width="2.000000" fill="rgb(0,0,0)"  stroke="rgb(0,0,0)" />
<line x1="69.0" y1="138.8" x2="71.3" y2="116.1" stroke="rgb(0,0,0)"  stroke-width="2.0"/>
<line x1="69.0" y1="138.8" x2="50.5" y2="125.4" stroke="rgb(0,0,0)"  stroke-width="2.0"/>
<line x1="75.0" y1="196.4" x2="59.8" y2="213.3" stroke="rgb(0,0,0)"  stroke-width="2.0"/>
<line x1="75.0" y1="196.4" x2="82.0" y2="218.1" stroke="rgb(0,0,0)"  stroke-width="2.0"/>
<line x1="110.8" y1="185.6" x2="109.4" y2="186.4" stroke="rgb(0,0,0)"  stroke-width="1.0"/>
<line x1="113.3" y1="188.6" x2="110.8" y2="190.0" stroke="rgb(0,0,0)"  stroke-width="1.0"/>
<line x1="115.7" y1="191.6" x2="112.1" y2="193.7" stroke="rgb(0,0,0)"  stroke-width="1.0"/>
<line x1="118.2" y1="194.6" x2="113.5" y2="197.3" stroke="rgb(0,0,0)"  stroke-width="1.0"/>
<line x1="120.7" y1="197.6" x2="114.9" y2="201.0" stroke="rgb(0,0,0)"  stroke-width="1.0"/>
<line x1="123.2" y1="200.6" x2="116.2" y2="204.6" stroke="rgb(0,0,0)"  stroke-width="1.0"/>
<line x1="107.7" y1="181.8" x2="166.3" y2="181.8" stroke="rgb(0,0,0)"  stroke-width="2.0"/>
<line x1="179.3" y1="194.8" x2="179.3" y2="204.6" stroke="rgb(0,0,0)"  stroke-width="2.0"/>
<line x1="192.3" y1="181.8" x2="202.1" y2="181.8" stroke="rgb(0,0,0)"  stroke-width="2.0"/>
<line x1="179.3" y1="168.8" x2="179.3" y2="159.1" stroke="rgb(0,0,0)"  stroke-width="2.0"/>
<line x1="59.8" y1="179.5" x2="75.0" y2="196.4" stroke="rgb(0,0,0)"  stroke-width="2.0"/>
<line x1="75.0" y1="196.4" x2="107.7" y2="181.8" stroke="rgb(0,0,0)"  stroke-width="2.0"/>
<line x1="107.7" y1="181.8" x2="104.0" y2="146.3" stroke="rgb(0,0,0)"  stroke-width="2.0"/>
<line x1="104.0" y1="146.3" x2="69.0" y2="138.8" stroke="rgb(0,0,0)"  stroke-width="2.0"/>
<line x1="69.0" y1="138.8" x2="57.6" y2="158.5" stroke="rgb(0,0,0)"  stroke-width="2.0"/>
<line x1="255.1" y1="82.4" x2="248.0" y2="104.1" stroke="rgb(0,0,0)"  stroke-width="2.0"/>
<line x1="252.7" y1="126.1" x2="267.9" y2="143.1" stroke="rgb(0,0,0)"  stroke-width="2.0"/>
<line x1="267.9" y1="143.1" x2="302.9" y2="135.6" stroke="rgb(0,0,0)"  stroke-width="2.0"/>
<line x1="302.9" y1="135.6" x2="310.0" y2="114.0" stroke="rgb(0,0,0)"  stroke-width="2.0"/>
<line x1="305.3" y1="91.9" x2="290.1" y2="75.0" stroke="rgb(0,0,0)"  stroke-width="2.0"/>
<line x1="290.1" y1="75.0" x2="255.1" y2="82.4" stroke="rgb(0,0,0)"  stroke-width="2.0"/>
<text x="330.984264" y="154.701518" fill="rgb(191,191,191)"  stroke="rgb(191,191,191)" stroke-width="1" font-size="16" >H</text>
<text x="366.961227" y="128.759862" fill="rgb(191,191,191)"  stroke="rgb(191,191,191)" stroke-width="1" font-size="16" >H</text>
<text x="310.654937" y="59.059556" fill="rgb(191,191,191)"  stroke="rgb(191,191,191)" stroke-width="1" font-size="16" >H</text>
<text x="276.617125" y="48.000000" fill="rgb(191,191,191)"  stroke="rgb(191,191,191)" stroke-width="1" font-size="16" >H</text>
<text x="241.609737" y="55.441050" fill="rgb(191,191,191)"  stroke="rgb(191,191,191)" stroke-width="1" font-size="16" >H</text>
<text x="215.012975" y="79.388882" fill="rgb(191,191,191)"  stroke="rgb(191,191,191)" stroke-width="1" font-size="16" >H</text>
<text x="235.342302" y="175.030844" fill="rgb(191,191,191)"  stroke="rgb(191,191,191)" stroke-width="1" font-size="16" >H</text>
<text x="269.380114" y="186.090400" fill="rgb(191,191,191)"  stroke="rgb(191,191,191)" stroke-width="1" font-size="16" >H</text>
<text x="304.387502" y="178.649350" fill="rgb(191,191,191)"  stroke="rgb(191,191,191)" stroke-width="1" font-size="16" >H</text>
<text x="335.572345" y="67.155712" fill="rgb(191,191,191)"  stroke="rgb(191,191,191)" stroke-width="1" font-size="16" >H</text>
<text x="66.695311" y="111.215985" fill="rgb(191,191,191)"  stroke="rgb(191,191,191)" stroke-width="1" font-size="16" >H</text>
<text x="34.000000" y="125.772875" fill="rgb(191,191,191)"  stroke="rgb(191,191,191)" stroke-width="1" font-size="16" >H</text>
<text x="45.059556" y="230.997518" fill="rgb(191,191,191)"  stroke="rgb(191,191,191)" stroke-width="1" font-size="16" >H</text>
<text x="80.066943" y="238.438568" fill="rgb(191,191,191)"  stroke="rgb(191,191,191)" stroke-width="1" font-size="16" >H</text>
<text x="173.281646" y="225.633339" fill="rgb(191,191,191)"  stroke="rgb(191,191,191)" stroke-width="1" font-size="16" >H</text>
<text x="209.071120" y="189.843865" fill="rgb(191,191,191)"  stroke="rgb(191,191,191)" stroke-width="1" font-size="16" >H</text>
<text x="173.281646" y="154.054391" fill="rgb(191,191,191)"  stroke="rgb(191,191,191)" stroke-width="1" font-size="16" >H</text>
<text x="369.610157" y="78.215268" fill="rgb(191,191,191)"  stroke="rgb(191,191,191)" stroke-width="1" font-size="16" >H</text>
<text x="184.081646" y="177.811865" fill="rgb(12,12,255)"  stroke="rgb(12,12,255)" stroke-width="1" font-size="16" >+</text>
<text x="173.281646" y="189.843865" fill="rgb(12,12,255)"  stroke="rgb(12,12,255)" stroke-width="1" font-size="16" >N</text>
<text x="119.597436" y="220.838459" fill="rgb(191,191,191)"  stroke="rgb(191,191,191)" stroke-width="1" font-size="16" >H</text>
<text x="45.059556" y="177.803993" fill="rgb(255,12,12)"  stroke="rgb(255,12,12)" stroke-width="1" font-size="16" >O</text>
<text x="109.021236" y="120.212638" fill="rgb(191,191,191)"  stroke="rgb(191,191,191)" stroke-width="1" font-size="16" >H</text>
<text x="237.991232" y="124.486250" fill="rgb(12,12,255)"  stroke="rgb(12,12,255)" stroke-width="1" font-size="16" >N</text>
<text x="308.006007" y="109.604150" fill="rgb(12,12,255)"  stroke="rgb(12,12,255)" stroke-width="1" font-size="16" >N</text>
</svg>
</g>
<text font-size="18.000000" fill ="black" font-family="sans-serif"
x="10.000000" y="20.000000" >ZINC29866061</text>
</svg>
