<?xml version="1.0"?>
<svg version="1.1" id="topsvg"
xmlns="http://www.w3.org/2000/svg" xmlns:xlink="http://www.w3.org/1999/xlink"
xmlns:cml="http://www.xml-cml.org/schema" x="0" y="0" width="200px" height="200px" viewBox="0 0 100 100">
<title>ZINC36533642 - Open Babel Depiction</title>
<rect x="0" y="0" width="100" height="100" fill="white"/>
<g transform="translate(0,0)">
<svg width="100" height="100" x="0" y="0" viewBox="0 0 263.923 374.641"
font-family="sans-serif" stroke="rgb(0,0,0)" stroke-width="2"  stroke-linecap="round">
<line x1="154.6" y1="260.0" x2="114.6" y2="260.0" stroke="rgb(0,0,0)"  stroke-width="2.0"/>
<line x1="154.6" y1="260.0" x2="178.0" y2="246.5" stroke="rgb(0,0,0)"  stroke-width="2.0"/>
<line x1="154.6" y1="260.0" x2="154.6" y2="233.0" stroke="rgb(0,0,0)"  stroke-width="2.0"/>
<line x1="154.6" y1="260.0" x2="168.1" y2="283.4" stroke="rgb(0,0,0)"  stroke-width="2.0"/>
<line x1="114.6" y1="260.0" x2="114.6" y2="300.0" stroke="rgb(0,0,0)"  stroke-width="2.0"/>
<line x1="114.6" y1="260.0" x2="74.6" y2="260.0" stroke="rgb(0,0,0)"  stroke-width="2.0"/>
<line x1="114.6" y1="260.0" x2="114.6" y2="233.0" stroke="rgb(0,0,0)"  stroke-width="2.0"/>
<line x1="114.6" y1="300.0" x2="101.1" y2="323.4" stroke="rgb(0,0,0)"  stroke-width="2.0"/>
<line x1="114.6" y1="300.0" x2="87.6" y2="300.0" stroke="rgb(0,0,0)"  stroke-width="2.0"/>
<line x1="114.6" y1="300.0" x2="138.0" y2="313.5" stroke="rgb(0,0,0)"  stroke-width="2.0"/>
<line x1="74.6" y1="260.0" x2="51.3" y2="246.5" stroke="rgb(0,0,0)"  stroke-width="2.0"/>
<line x1="74.6" y1="260.0" x2="74.6" y2="233.0" stroke="rgb(0,0,0)"  stroke-width="2.0"/>
<line x1="74.6" y1="260.0" x2="61.1" y2="283.4" stroke="rgb(0,0,0)"  stroke-width="2.0"/>
<line x1="125.9" y1="213.5" x2="149.3" y2="200.0" stroke="rgb(0,0,0)"  stroke-width="2.0"/>
<line x1="150.8" y1="197.4" x2="174.2" y2="210.9" stroke="rgb(0,0,0)"  stroke-width="2.0"/>
<line x1="147.8" y1="202.6" x2="171.2" y2="216.1" stroke="rgb(0,0,0)"  stroke-width="2.0"/>
<line x1="149.3" y1="200.0" x2="149.3" y2="173.0" stroke="rgb(0,0,0)"  stroke-width="2.0"/>
<line x1="114.6" y1="140.0" x2="87.6" y2="140.0" stroke="rgb(0,0,0)"  stroke-width="2.0"/>
<line x1="114.6" y1="140.0" x2="101.1" y2="163.4" stroke="rgb(0,0,0)"  stroke-width="2.0"/>
<line x1="114.6" y1="100.0" x2="101.1" y2="76.6" stroke="rgb(0,0,0)"  stroke-width="2.0"/>
<line x1="114.6" y1="100.0" x2="87.6" y2="100.0" stroke="rgb(0,0,0)"  stroke-width="2.0"/>
<line x1="146.3" y1="80.0" x2="146.3" y2="53.0" stroke="rgb(0,0,0)"  stroke-width="2.0"/>
<line x1="152.3" y1="80.0" x2="152.3" y2="53.0" stroke="rgb(0,0,0)"  stroke-width="2.0"/>
<line x1="183.9" y1="100.0" x2="210.9" y2="100.0" stroke="rgb(0,0,0)"  stroke-width="2.0"/>
<line x1="183.9" y1="100.0" x2="197.4" y2="76.6" stroke="rgb(0,0,0)"  stroke-width="2.0"/>
<line x1="185.4" y1="137.4" x2="208.8" y2="150.9" stroke="rgb(0,0,0)"  stroke-width="2.0"/>
<line x1="182.4" y1="142.6" x2="205.8" y2="156.1" stroke="rgb(0,0,0)"  stroke-width="2.0"/>
<line x1="114.6" y1="140.0" x2="138.0" y2="153.5" stroke="rgb(0,0,0)"  stroke-width="2.0"/>
<line x1="160.5" y1="153.5" x2="183.9" y2="140.0" stroke="rgb(0,0,0)"  stroke-width="2.0"/>
<line x1="183.9" y1="140.0" x2="183.9" y2="100.0" stroke="rgb(0,0,0)"  stroke-width="2.0"/>
<line x1="183.9" y1="100.0" x2="149.3" y2="80.0" stroke="rgb(0,0,0)"  stroke-width="2.0"/>
<line x1="149.3" y1="80.0" x2="114.6" y2="100.0" stroke="rgb(0,0,0)"  stroke-width="2.0"/>
<line x1="114.6" y1="100.0" x2="114.6" y2="140.0" stroke="rgb(0,0,0)"  stroke-width="2.0"/>
<text x="183.282032" y="248.000000" fill="rgb(191,191,191)"  stroke="rgb(191,191,191)" stroke-width="1" font-size="16" >H</text>
<text x="197.923048" y="73.358984" fill="rgb(191,191,191)"  stroke="rgb(191,191,191)" stroke-width="1" font-size="16" >H</text>
<text x="217.923048" y="108.000000" fill="rgb(191,191,191)"  stroke="rgb(191,191,191)" stroke-width="1" font-size="16" >H</text>
<text x="68.641016" y="108.000000" fill="rgb(191,191,191)"  stroke="rgb(191,191,191)" stroke-width="1" font-size="16" >H</text>
<text x="88.641016" y="73.358984" fill="rgb(191,191,191)"  stroke="rgb(191,191,191)" stroke-width="1" font-size="16" >H</text>
<text x="88.641016" y="182.641016" fill="rgb(191,191,191)"  stroke="rgb(191,191,191)" stroke-width="1" font-size="16" >H</text>
<text x="68.641016" y="148.000000" fill="rgb(191,191,191)"  stroke="rgb(191,191,191)" stroke-width="1" font-size="16" >H</text>
<text x="48.641016" y="302.641016" fill="rgb(191,191,191)"  stroke="rgb(191,191,191)" stroke-width="1" font-size="16" >H</text>
<text x="68.641016" y="228.000000" fill="rgb(191,191,191)"  stroke="rgb(191,191,191)" stroke-width="1" font-size="16" >H</text>
<text x="34.000000" y="248.000000" fill="rgb(191,191,191)"  stroke="rgb(191,191,191)" stroke-width="1" font-size="16" >H</text>
<text x="143.282032" y="328.000000" fill="rgb(191,191,191)"  stroke="rgb(191,191,191)" stroke-width="1" font-size="16" >H</text>
<text x="68.641016" y="308.000000" fill="rgb(191,191,191)"  stroke="rgb(191,191,191)" stroke-width="1" font-size="16" >H</text>
<text x="88.641016" y="342.641016" fill="rgb(191,191,191)"  stroke="rgb(191,191,191)" stroke-width="1" font-size="16" >H</text>
<text x="168.641016" y="302.641016" fill="rgb(191,191,191)"  stroke="rgb(191,191,191)" stroke-width="1" font-size="16" >H</text>
<text x="148.641016" y="228.000000" fill="rgb(191,191,191)"  stroke="rgb(191,191,191)" stroke-width="1" font-size="16" >H</text>
<text x="212.564065" y="168.000000" fill="rgb(255,12,12)"  stroke="rgb(255,12,12)" stroke-width="1" font-size="16" >O</text>
<text x="143.282032" y="48.000000" fill="rgb(255,12,12)"  stroke="rgb(255,12,12)" stroke-width="1" font-size="16" >O</text>
<text x="143.282032" y="168.000000" fill="rgb(12,12,255)"  stroke="rgb(12,12,255)" stroke-width="1" font-size="16" >N</text>
<text x="177.923048" y="228.000000" fill="rgb(255,12,12)"  stroke="rgb(255,12,12)" stroke-width="1" font-size="16" >O</text>
<text x="108.641016" y="228.000000" fill="rgb(255,12,12)"  stroke="rgb(255,12,12)" stroke-width="1" font-size="16" >O</text>
</svg>
</g>
<text font-size="18.000000" fill ="black" font-family="sans-serif"
x="10.000000" y="20.000000" >ZINC36533642</text>
</svg>
