<?xml version="1.0"?>
<svg version="1.1" id="topsvg"
xmlns="http://www.w3.org/2000/svg" xmlns:xlink="http://www.w3.org/1999/xlink"
xmlns:cml="http://www.xml-cml.org/schema" x="0" y="0" width="200px" height="200px" viewBox="0 0 100 100">
<title>ZINC02597097 - Open Babel Depiction</title>
<rect x="0" y="0" width="100" height="100" fill="white"/>
<g transform="translate(0,0)">
<svg width="100" height="100" x="0" y="0" viewBox="0 0 346.627 308.503"
font-family="sans-serif" stroke="rgb(0,0,0)" stroke-width="2"  stroke-linecap="round">
<line x1="182.6" y1="105.7" x2="184.2" y2="106.1" stroke="rgb(0,0,0)"  stroke-width="1.0"/>
<line x1="183.6" y1="99.7" x2="186.3" y2="100.4" stroke="rgb(0,0,0)"  stroke-width="1.0"/>
<line x1="184.5" y1="93.6" x2="188.5" y2="94.7" stroke="rgb(0,0,0)"  stroke-width="1.0"/>
<line x1="185.5" y1="87.6" x2="190.7" y2="89.0" stroke="rgb(0,0,0)"  stroke-width="1.0"/>
<line x1="186.4" y1="81.6" x2="192.9" y2="83.3" stroke="rgb(0,0,0)"  stroke-width="1.0"/>
<line x1="187.4" y1="75.6" x2="195.1" y2="77.6" stroke="rgb(0,0,0)"  stroke-width="1.0"/>
<line x1="191.2" y1="76.6" x2="184.8" y2="52.6" stroke="rgb(0,0,0)"  stroke-width="2.0"/>
<line x1="191.2" y1="76.6" x2="167.2" y2="70.2" stroke="rgb(0,0,0)"  stroke-width="2.0"/>
<line x1="191.2" y1="76.6" x2="215.3" y2="70.2" stroke="rgb(0,0,0)"  stroke-width="2.0"/>
<line x1="181.4" y1="113.2" x2="241.6" y2="159.3" stroke="rgb(0,0,0)"  stroke-width="2.0"/>
<line x1="148.6" y1="94.3" x2="161.1" y2="72.7" stroke="rgb(0,0,0)"  stroke-width="2.0"/>
<line x1="148.6" y1="94.3" x2="136.2" y2="72.7" stroke="rgb(0,0,0)"  stroke-width="2.0"/>
<polygon points="115.789474 113.207010 99.630635 93.219081 106.558838 89.219081 " stroke-width="2.000000" fill="rgb(0,0,0)"  stroke="rgb(0,0,0)" />
<line x1="115.8" y1="113.2" x2="90.9" y2="113.2" stroke="rgb(0,0,0)"  stroke-width="2.0"/>
<line x1="115.8" y1="151.1" x2="90.9" y2="151.1" stroke="rgb(0,0,0)"  stroke-width="2.0"/>
<line x1="115.8" y1="151.1" x2="103.3" y2="172.7" stroke="rgb(0,0,0)"  stroke-width="2.0"/>
<line x1="148.6" y1="170.0" x2="129.7" y2="202.9" stroke="rgb(0,0,0)"  stroke-width="2.0"/>
<line x1="148.6" y1="170.0" x2="186.5" y2="235.7" stroke="rgb(0,0,0)"  stroke-width="2.0"/>
<line x1="181.4" y1="151.1" x2="193.9" y2="172.7" stroke="rgb(0,0,0)"  stroke-width="2.0"/>
<line x1="181.4" y1="151.1" x2="206.3" y2="151.1" stroke="rgb(0,0,0)"  stroke-width="2.0"/>
<line x1="129.7" y1="202.9" x2="129.7" y2="227.8" stroke="rgb(0,0,0)"  stroke-width="2.0"/>
<line x1="129.7" y1="202.9" x2="151.2" y2="215.3" stroke="rgb(0,0,0)"  stroke-width="2.0"/>
<line x1="129.7" y1="202.9" x2="104.8" y2="202.9" stroke="rgb(0,0,0)"  stroke-width="2.0"/>
<line x1="186.5" y1="235.7" x2="208.1" y2="248.1" stroke="rgb(0,0,0)"  stroke-width="2.0"/>
<line x1="186.5" y1="235.7" x2="208.1" y2="223.2" stroke="rgb(0,0,0)"  stroke-width="2.0"/>
<line x1="186.5" y1="235.7" x2="174.1" y2="257.2" stroke="rgb(0,0,0)"  stroke-width="2.0"/>
<line x1="68.8" y1="103.4" x2="56.3" y2="81.9" stroke="rgb(0,0,0)"  stroke-width="2.0"/>
<line x1="74.0" y1="100.4" x2="61.5" y2="78.9" stroke="rgb(0,0,0)"  stroke-width="2.0"/>
<line x1="71.4" y1="124.5" x2="65.4" y2="134.8" stroke="rgb(0,0,0)"  stroke-width="2.0"/>
<line x1="56.3" y1="81.9" x2="43.9" y2="60.3" stroke="rgb(0,0,0)"  stroke-width="2.0"/>
<line x1="61.5" y1="78.9" x2="49.1" y2="57.3" stroke="rgb(0,0,0)"  stroke-width="2.0"/>
<line x1="241.6" y1="159.3" x2="264.6" y2="149.8" stroke="rgb(0,0,0)"  stroke-width="2.0"/>
<line x1="241.6" y1="159.3" x2="251.1" y2="182.3" stroke="rgb(0,0,0)"  stroke-width="2.0"/>
<line x1="241.6" y1="159.3" x2="226.4" y2="179.1" stroke="rgb(0,0,0)"  stroke-width="2.0"/>
<line x1="275.3" y1="131.6" x2="278.5" y2="106.9" stroke="rgb(0,0,0)"  stroke-width="2.0"/>
<line x1="281.2" y1="132.3" x2="284.5" y2="107.7" stroke="rgb(0,0,0)"  stroke-width="2.0"/>
<line x1="286.9" y1="152.8" x2="296.3" y2="160.0" stroke="rgb(0,0,0)"  stroke-width="2.0"/>
<line x1="278.5" y1="106.9" x2="281.8" y2="82.2" stroke="rgb(0,0,0)"  stroke-width="2.0"/>
<line x1="284.5" y1="107.7" x2="287.7" y2="83.0" stroke="rgb(0,0,0)"  stroke-width="2.0"/>
<line x1="115.8" y1="113.2" x2="115.8" y2="151.1" stroke="rgb(0,0,0)"  stroke-width="2.0"/>
<line x1="115.8" y1="151.1" x2="148.6" y2="170.0" stroke="rgb(0,0,0)"  stroke-width="2.0"/>
<line x1="148.6" y1="170.0" x2="181.4" y2="151.1" stroke="rgb(0,0,0)"  stroke-width="2.0"/>
<line x1="181.4" y1="151.1" x2="181.4" y2="113.2" stroke="rgb(0,0,0)"  stroke-width="2.0"/>
<line x1="181.4" y1="113.2" x2="148.6" y2="94.3" stroke="rgb(0,0,0)"  stroke-width="2.0"/>
<line x1="148.6" y1="94.3" x2="115.8" y2="113.2" stroke="rgb(0,0,0)"  stroke-width="2.0"/>
<text x="156.477715" y="229.814288" fill="rgb(191,191,191)"  stroke="rgb(191,191,191)" stroke-width="1" font-size="16" >H</text>
<text x="221.836468" y="74.795625" fill="rgb(191,191,191)"  stroke="rgb(191,191,191)" stroke-width="1" font-size="16" >H</text>
<text x="161.554647" y="69.441837" fill="rgb(191,191,191)"  stroke="rgb(191,191,191)" stroke-width="1" font-size="16" >H</text>
<text x="123.659910" y="69.441837" fill="rgb(191,191,191)"  stroke="rgb(191,191,191)" stroke-width="1" font-size="16" >H</text>
<text x="71.894737" y="159.101747" fill="rgb(191,191,191)"  stroke="rgb(191,191,191)" stroke-width="1" font-size="16" >H</text>
<text x="90.842105" y="191.919552" fill="rgb(191,191,191)"  stroke="rgb(191,191,191)" stroke-width="1" font-size="16" >H</text>
<text x="194.372452" y="191.919552" fill="rgb(191,191,191)"  stroke="rgb(191,191,191)" stroke-width="1" font-size="16" >H</text>
<text x="213.319820" y="159.101747" fill="rgb(191,191,191)"  stroke="rgb(191,191,191)" stroke-width="1" font-size="16" >H</text>
<text x="123.659910" y="248.761657" fill="rgb(191,191,191)"  stroke="rgb(191,191,191)" stroke-width="1" font-size="16" >H</text>
<text x="148.629458" y="74.795625" fill="rgb(191,191,191)"  stroke="rgb(191,191,191)" stroke-width="1" font-size="16" >H</text>
<text x="85.765173" y="210.866920" fill="rgb(191,191,191)"  stroke="rgb(191,191,191)" stroke-width="1" font-size="16" >H</text>
<text x="213.319820" y="262.632093" fill="rgb(191,191,191)"  stroke="rgb(191,191,191)" stroke-width="1" font-size="16" >H</text>
<text x="213.319820" y="224.737356" fill="rgb(191,191,191)"  stroke="rgb(191,191,191)" stroke-width="1" font-size="16" >H</text>
<text x="161.554647" y="276.502530" fill="rgb(191,191,191)"  stroke="rgb(191,191,191)" stroke-width="1" font-size="16" >H</text>
<text x="250.054603" y="202.354890" fill="rgb(191,191,191)"  stroke="rgb(191,191,191)" stroke-width="1" font-size="16" >H</text>
<text x="212.484061" y="197.408634" fill="rgb(191,191,191)"  stroke="rgb(191,191,191)" stroke-width="1" font-size="16" >H</text>
<text x="300.627003" y="175.911884" fill="rgb(191,191,191)"  stroke="rgb(191,191,191)" stroke-width="1" font-size="16" >H</text>
<text x="52.947368" y="154.024815" fill="rgb(191,191,191)"  stroke="rgb(191,191,191)" stroke-width="1" font-size="16" >H</text>
<text x="90.842105" y="88.389205" fill="rgb(191,191,191)"  stroke="rgb(191,191,191)" stroke-width="1" font-size="16" >H</text>
<text x="71.894737" y="121.207010" fill="rgb(12,12,255)"  stroke="rgb(12,12,255)" stroke-width="1" font-size="16" >N</text>
<text x="34.000000" y="55.571400" fill="rgb(255,12,12)"  stroke="rgb(255,12,12)" stroke-width="1" font-size="16" >O</text>
<text x="270.563087" y="152.843030" fill="rgb(12,12,255)"  stroke="rgb(12,12,255)" stroke-width="1" font-size="16" >N</text>
<text x="280.455599" y="77.701946" fill="rgb(255,12,12)"  stroke="rgb(255,12,12)" stroke-width="1" font-size="16" >O</text>
<text x="175.425083" y="48.000000" fill="rgb(191,191,191)"  stroke="rgb(191,191,191)" stroke-width="1" font-size="16" >H</text>
</svg>
</g>
<text font-size="18.000000" fill ="black" font-family="sans-serif"
x="10.000000" y="20.000000" >ZINC02597097</text>
</svg>
