<?xml version="1.0"?>
<svg version="1.1" id="topsvg"
xmlns="http://www.w3.org/2000/svg" xmlns:xlink="http://www.w3.org/1999/xlink"
xmlns:cml="http://www.xml-cml.org/schema" x="0" y="0" width="200px" height="200px" viewBox="0 0 100 100">
<title>ZINC38606014 - Open Babel Depiction</title>
<rect x="0" y="0" width="100" height="100" fill="white"/>
<g transform="translate(0,0)">
<svg width="100" height="100" x="0" y="0" viewBox="0 0 440.483 320.982"
font-family="sans-serif" stroke="rgb(0,0,0)" stroke-width="2"  stroke-linecap="round">
<line x1="372.0" y1="121.4" x2="338.7" y2="140.5" stroke="rgb(0,0,0)"  stroke-width="2.0"/>
<line x1="372.0" y1="121.4" x2="389.0" y2="102.5" stroke="rgb(0,0,0)"  stroke-width="2.0"/>
<line x1="372.0" y1="121.4" x2="364.1" y2="97.2" stroke="rgb(0,0,0)"  stroke-width="2.0"/>
<line x1="372.0" y1="121.4" x2="390.8" y2="138.3" stroke="rgb(0,0,0)"  stroke-width="2.0"/>
<line x1="338.7" y1="178.9" x2="360.7" y2="191.6" stroke="rgb(0,0,0)"  stroke-width="2.0"/>
<line x1="305.5" y1="198.1" x2="305.5" y2="236.5" stroke="rgb(0,0,0)"  stroke-width="2.0"/>
<line x1="305.5" y1="121.3" x2="305.5" y2="96.0" stroke="rgb(0,0,0)"  stroke-width="2.0"/>
<line x1="292.8" y1="80.3" x2="280.7" y2="77.7" stroke="rgb(0,0,0)"  stroke-width="2.0"/>
<line x1="205.0" y1="132.8" x2="206.6" y2="132.8" stroke="rgb(0,0,0)"  stroke-width="1.0"/>
<line x1="204.3" y1="126.7" x2="207.2" y2="126.7" stroke="rgb(0,0,0)"  stroke-width="1.0"/>
<line x1="203.7" y1="120.6" x2="207.9" y2="120.6" stroke="rgb(0,0,0)"  stroke-width="1.0"/>
<line x1="203.1" y1="114.4" x2="208.5" y2="114.4" stroke="rgb(0,0,0)"  stroke-width="1.0"/>
<line x1="202.4" y1="108.3" x2="209.1" y2="108.3" stroke="rgb(0,0,0)"  stroke-width="1.0"/>
<line x1="201.8" y1="102.1" x2="209.8" y2="102.1" stroke="rgb(0,0,0)"  stroke-width="1.0"/>
<line x1="172.5" y1="198.1" x2="172.5" y2="224.3" stroke="rgb(0,0,0)"  stroke-width="2.0"/>
<line x1="140.8" y1="181.5" x2="118.1" y2="194.6" stroke="rgb(0,0,0)"  stroke-width="2.0"/>
<line x1="137.8" y1="176.3" x2="115.1" y2="189.4" stroke="rgb(0,0,0)"  stroke-width="2.0"/>
<line x1="139.3" y1="140.5" x2="106.1" y2="121.3" stroke="rgb(0,0,0)"  stroke-width="2.0"/>
<polygon points="139.287018 140.504232 118.593281 157.066371 114.594242 150.137613 " stroke-width="2.000000" fill="rgb(0,0,0)"  stroke="rgb(0,0,0)" />
<line x1="169.5" y1="121.3" x2="169.5" y2="95.2" stroke="rgb(0,0,0)"  stroke-width="2.0"/>
<line x1="175.5" y1="121.3" x2="175.5" y2="95.2" stroke="rgb(0,0,0)"  stroke-width="2.0"/>
<line x1="106.1" y1="121.3" x2="68.5" y2="129.3" stroke="rgb(0,0,0)"  stroke-width="2.0"/>
<line x1="103.2" y1="120.4" x2="111.0" y2="96.3" stroke="rgb(0,0,0)"  stroke-width="2.0"/>
<line x1="108.9" y1="122.2" x2="116.8" y2="98.1" stroke="rgb(0,0,0)"  stroke-width="2.0"/>
<line x1="68.5" y1="129.3" x2="49.7" y2="146.3" stroke="rgb(0,0,0)"  stroke-width="2.0"/>
<line x1="68.5" y1="129.3" x2="73.8" y2="154.1" stroke="rgb(0,0,0)"  stroke-width="2.0"/>
<line x1="68.5" y1="129.3" x2="51.5" y2="110.4" stroke="rgb(0,0,0)"  stroke-width="2.0"/>
<line x1="205.8" y1="102.1" x2="216.1" y2="78.9" stroke="rgb(0,0,0)"  stroke-width="2.0"/>
<line x1="205.8" y1="102.1" x2="168.3" y2="50.5" stroke="rgb(0,0,0)"  stroke-width="2.0"/>
<line x1="205.8" y1="102.1" x2="229.0" y2="112.5" stroke="rgb(0,0,0)"  stroke-width="2.0"/>
<line x1="307.7" y1="238.5" x2="290.7" y2="257.4" stroke="rgb(0,0,0)"  stroke-width="2.0"/>
<line x1="303.3" y1="234.5" x2="286.3" y2="253.3" stroke="rgb(0,0,0)"  stroke-width="2.0"/>
<line x1="305.5" y1="236.5" x2="343.0" y2="244.5" stroke="rgb(0,0,0)"  stroke-width="2.0"/>
<line x1="343.0" y1="244.5" x2="367.1" y2="236.6" stroke="rgb(0,0,0)"  stroke-width="2.0"/>
<line x1="343.0" y1="244.5" x2="348.3" y2="219.7" stroke="rgb(0,0,0)"  stroke-width="2.0"/>
<line x1="343.0" y1="244.5" x2="350.9" y2="268.6" stroke="rgb(0,0,0)"  stroke-width="2.0"/>
<line x1="380.7" y1="188.5" x2="388.9" y2="179.3" stroke="rgb(0,0,0)"  stroke-width="2.0"/>
<line x1="305.5" y1="198.1" x2="272.2" y2="178.9" stroke="rgb(0,0,0)"  stroke-width="2.0"/>
<line x1="272.2" y1="178.9" x2="272.3" y2="140.5" stroke="rgb(0,0,0)"  stroke-width="2.0"/>
<line x1="279.4" y1="172.9" x2="279.5" y2="146.5" stroke="rgb(0,0,0)"  stroke-width="2.0"/>
<line x1="272.3" y1="140.5" x2="305.5" y2="121.3" stroke="rgb(0,0,0)"  stroke-width="2.0"/>
<line x1="305.5" y1="121.3" x2="338.7" y2="140.5" stroke="rgb(0,0,0)"  stroke-width="2.0"/>
<line x1="307.1" y1="130.6" x2="329.9" y2="143.8" stroke="rgb(0,0,0)"  stroke-width="2.0"/>
<line x1="338.7" y1="140.5" x2="338.7" y2="178.9" stroke="rgb(0,0,0)"  stroke-width="2.0"/>
<line x1="338.7" y1="178.9" x2="305.5" y2="198.1" stroke="rgb(0,0,0)"  stroke-width="2.0"/>
<line x1="329.9" y1="175.7" x2="307.1" y2="188.9" stroke="rgb(0,0,0)"  stroke-width="2.0"/>
<line x1="205.8" y1="178.9" x2="205.8" y2="140.5" stroke="rgb(0,0,0)"  stroke-width="2.0"/>
<line x1="205.8" y1="140.5" x2="272.3" y2="140.5" stroke="rgb(0,0,0)"  stroke-width="2.0"/>
<line x1="272.2" y1="178.9" x2="250.3" y2="191.6" stroke="rgb(0,0,0)"  stroke-width="2.0"/>
<line x1="227.8" y1="191.6" x2="205.8" y2="178.9" stroke="rgb(0,0,0)"  stroke-width="2.0"/>
<line x1="139.3" y1="140.5" x2="139.3" y2="178.9" stroke="rgb(0,0,0)"  stroke-width="2.0"/>
<line x1="139.3" y1="178.9" x2="172.5" y2="198.1" stroke="rgb(0,0,0)"  stroke-width="2.0"/>
<line x1="172.5" y1="198.1" x2="205.8" y2="178.9" stroke="rgb(0,0,0)"  stroke-width="2.0"/>
<line x1="174.1" y1="188.9" x2="197.0" y2="175.7" stroke="rgb(0,0,0)"  stroke-width="2.0"/>
<line x1="205.8" y1="140.5" x2="172.5" y2="121.3" stroke="rgb(0,0,0)"  stroke-width="2.0"/>
<line x1="172.5" y1="121.3" x2="139.3" y2="140.5" stroke="rgb(0,0,0)"  stroke-width="2.0"/>
<text x="70.493411" y="174.820150" fill="rgb(191,191,191)"  stroke="rgb(191,191,191)" stroke-width="1" font-size="16" >H</text>
<text x="273.799653" y="273.008426" fill="rgb(255,12,12)"  stroke="rgb(255,12,12)" stroke-width="1" font-size="16" >O</text>
<text x="365.955123" y="206.135904" fill="rgb(255,12,12)"  stroke="rgb(255,12,12)" stroke-width="1" font-size="16" >O</text>
<text x="391.655047" y="100.853621" fill="rgb(191,191,191)"  stroke="rgb(191,191,191)" stroke-width="1" font-size="16" >H</text>
<text x="354.121882" y="92.866695" fill="rgb(191,191,191)"  stroke="rgb(191,191,191)" stroke-width="1" font-size="16" >H</text>
<text x="394.482795" y="155.048296" fill="rgb(191,191,191)"  stroke="rgb(191,191,191)" stroke-width="1" font-size="16" >H</text>
<text x="261.982869" y="82.988094" fill="rgb(191,191,191)"  stroke="rgb(191,191,191)" stroke-width="1" font-size="16" >H</text>
<text x="166.493935" y="245.330116" fill="rgb(191,191,191)"  stroke="rgb(191,191,191)" stroke-width="1" font-size="16" >H</text>
<text x="34.000000" y="162.955902" fill="rgb(191,191,191)"  stroke="rgb(191,191,191)" stroke-width="1" font-size="16" >H</text>
<text x="36.849349" y="108.762359" fill="rgb(191,191,191)"  stroke="rgb(191,191,191)" stroke-width="1" font-size="16" >H</text>
<text x="215.399178" y="75.058003" fill="rgb(191,191,191)"  stroke="rgb(191,191,191)" stroke-width="1" font-size="16" >H</text>
<text x="154.658490" y="48.000000" fill="rgb(191,191,191)"  stroke="rgb(191,191,191)" stroke-width="1" font-size="16" >H</text>
<text x="234.845886" y="125.748600" fill="rgb(191,191,191)"  stroke="rgb(191,191,191)" stroke-width="1" font-size="16" >H</text>
<text x="373.514419" y="240.634439" fill="rgb(191,191,191)"  stroke="rgb(191,191,191)" stroke-width="1" font-size="16" >H</text>
<text x="345.003207" y="214.950976" fill="rgb(191,191,191)"  stroke="rgb(191,191,191)" stroke-width="1" font-size="16" >H</text>
<text x="348.865983" y="288.982278" fill="rgb(191,191,191)"  stroke="rgb(191,191,191)" stroke-width="1" font-size="16" >H</text>
<text x="391.638586" y="177.624692" fill="rgb(191,191,191)"  stroke="rgb(191,191,191)" stroke-width="1" font-size="16" >H</text>
<text x="99.416485" y="168.053127" fill="rgb(191,191,191)"  stroke="rgb(191,191,191)" stroke-width="1" font-size="16" >H</text>
<text x="299.516034" y="90.975020" fill="rgb(255,12,12)"  stroke="rgb(255,12,12)" stroke-width="1" font-size="16" >O</text>
<text x="99.298127" y="206.510431" fill="rgb(255,12,12)"  stroke="rgb(255,12,12)" stroke-width="1" font-size="16" >O</text>
<text x="166.524864" y="90.214878" fill="rgb(255,12,12)"  stroke="rgb(255,12,12)" stroke-width="1" font-size="16" >O</text>
<text x="111.922039" y="92.818428" fill="rgb(255,12,12)"  stroke="rgb(255,12,12)" stroke-width="1" font-size="16" >O</text>
<text x="233.009361" y="206.110415" fill="rgb(255,12,12)"  stroke="rgb(255,12,12)" stroke-width="1" font-size="16" >O</text>
</svg>
</g>
<text font-size="18.000000" fill ="black" font-family="sans-serif"
x="10.000000" y="20.000000" >ZINC38606014</text>
</svg>
