<?xml version="1.0"?>
<svg version="1.1" id="topsvg"
xmlns="http://www.w3.org/2000/svg" xmlns:xlink="http://www.w3.org/1999/xlink"
xmlns:cml="http://www.xml-cml.org/schema" x="0" y="0" width="200px" height="200px" viewBox="0 0 100 100">
<title>ZINC13508230 - Open Babel Depiction</title>
<rect x="0" y="0" width="100" height="100" fill="white"/>
<g transform="translate(0,0)">
<svg width="100" height="100" x="0" y="0" viewBox="0 0 394.641 362.487"
font-family="sans-serif" stroke="rgb(0,0,0)" stroke-width="2"  stroke-linecap="round">
<line x1="154.6" y1="282.5" x2="194.6" y2="282.5" stroke="rgb(0,0,0)"  stroke-width="2.0"/>
<line x1="154.6" y1="282.5" x2="141.1" y2="259.1" stroke="rgb(0,0,0)"  stroke-width="2.0"/>
<line x1="154.6" y1="282.5" x2="131.3" y2="296.0" stroke="rgb(0,0,0)"  stroke-width="2.0"/>
<line x1="154.6" y1="282.5" x2="154.6" y2="309.5" stroke="rgb(0,0,0)"  stroke-width="2.0"/>
<line x1="195.4" y1="287.8" x2="193.8" y2="287.8" stroke="rgb(0,0,0)"  stroke-width="1.0"/>
<line x1="196.1" y1="292.1" x2="193.2" y2="292.1" stroke="rgb(0,0,0)"  stroke-width="1.0"/>
<line x1="196.7" y1="296.4" x2="192.6" y2="296.4" stroke="rgb(0,0,0)"  stroke-width="1.0"/>
<line x1="197.4" y1="300.7" x2="191.9" y2="300.7" stroke="rgb(0,0,0)"  stroke-width="1.0"/>
<line x1="198.0" y1="305.0" x2="191.3" y2="305.0" stroke="rgb(0,0,0)"  stroke-width="1.0"/>
<line x1="198.6" y1="309.3" x2="190.6" y2="309.3" stroke="rgb(0,0,0)"  stroke-width="1.0"/>
<line x1="194.6" y1="282.5" x2="234.6" y2="282.5" stroke="rgb(0,0,0)"  stroke-width="2.0"/>
<line x1="194.6" y1="282.5" x2="194.6" y2="255.5" stroke="rgb(0,0,0)"  stroke-width="2.0"/>
<line x1="237.2" y1="281.0" x2="250.7" y2="304.4" stroke="rgb(0,0,0)"  stroke-width="2.0"/>
<line x1="232.0" y1="284.0" x2="245.5" y2="307.4" stroke="rgb(0,0,0)"  stroke-width="2.0"/>
<line x1="234.6" y1="282.5" x2="248.1" y2="259.1" stroke="rgb(0,0,0)"  stroke-width="2.0"/>
<line x1="267.6" y1="247.8" x2="294.6" y2="247.8" stroke="rgb(0,0,0)"  stroke-width="2.0"/>
<line x1="248.1" y1="236.6" x2="241.1" y2="224.5" stroke="rgb(0,0,0)"  stroke-width="2.0"/>
<line x1="294.6" y1="247.8" x2="314.6" y2="282.5" stroke="rgb(0,0,0)"  stroke-width="2.0"/>
<line x1="294.6" y1="247.8" x2="318.0" y2="234.3" stroke="rgb(0,0,0)"  stroke-width="2.0"/>
<line x1="294.6" y1="247.8" x2="294.6" y2="220.8" stroke="rgb(0,0,0)"  stroke-width="2.0"/>
<line x1="317.2" y1="284.0" x2="303.7" y2="307.4" stroke="rgb(0,0,0)"  stroke-width="2.0"/>
<line x1="312.0" y1="281.0" x2="298.5" y2="304.4" stroke="rgb(0,0,0)"  stroke-width="2.0"/>
<line x1="314.6" y1="282.5" x2="341.6" y2="282.5" stroke="rgb(0,0,0)"  stroke-width="2.0"/>
<line x1="207.6" y1="242.5" x2="221.6" y2="242.5" stroke="rgb(0,0,0)"  stroke-width="2.0"/>
<line x1="194.6" y1="229.5" x2="194.6" y2="215.5" stroke="rgb(0,0,0)"  stroke-width="2.0"/>
<line x1="181.6" y1="242.5" x2="167.6" y2="242.5" stroke="rgb(0,0,0)"  stroke-width="2.0"/>
<line x1="121.6" y1="247.8" x2="107.6" y2="247.8" stroke="rgb(0,0,0)"  stroke-width="2.0"/>
<line x1="88.1" y1="236.6" x2="74.6" y2="213.2" stroke="rgb(0,0,0)"  stroke-width="2.0"/>
<line x1="74.6" y1="213.2" x2="94.6" y2="178.6" stroke="rgb(0,0,0)"  stroke-width="2.0"/>
<line x1="74.6" y1="213.2" x2="51.3" y2="199.7" stroke="rgb(0,0,0)"  stroke-width="2.0"/>
<line x1="74.6" y1="213.2" x2="51.3" y2="226.7" stroke="rgb(0,0,0)"  stroke-width="2.0"/>
<line x1="89.6" y1="176.6" x2="90.4" y2="175.2" stroke="rgb(0,0,0)"  stroke-width="1.0"/>
<line x1="85.6" y1="175.0" x2="87.0" y2="172.5" stroke="rgb(0,0,0)"  stroke-width="1.0"/>
<line x1="81.5" y1="173.4" x2="83.6" y2="169.8" stroke="rgb(0,0,0)"  stroke-width="1.0"/>
<line x1="77.5" y1="171.8" x2="80.2" y2="167.1" stroke="rgb(0,0,0)"  stroke-width="1.0"/>
<line x1="73.5" y1="170.2" x2="76.8" y2="164.4" stroke="rgb(0,0,0)"  stroke-width="1.0"/>
<line x1="69.4" y1="168.6" x2="73.4" y2="161.7" stroke="rgb(0,0,0)"  stroke-width="1.0"/>
<line x1="94.6" y1="178.6" x2="114.6" y2="143.9" stroke="rgb(0,0,0)"  stroke-width="2.0"/>
<line x1="94.6" y1="178.6" x2="118.0" y2="192.1" stroke="rgb(0,0,0)"  stroke-width="2.0"/>
<line x1="112.0" y1="145.4" x2="98.5" y2="122.0" stroke="rgb(0,0,0)"  stroke-width="2.0"/>
<line x1="117.2" y1="142.4" x2="103.7" y2="119.0" stroke="rgb(0,0,0)"  stroke-width="2.0"/>
<line x1="114.6" y1="143.9" x2="141.6" y2="143.9" stroke="rgb(0,0,0)"  stroke-width="2.0"/>
<line x1="161.1" y1="132.7" x2="174.6" y2="109.3" stroke="rgb(0,0,0)"  stroke-width="2.0"/>
<line x1="161.1" y1="155.2" x2="168.1" y2="167.3" stroke="rgb(0,0,0)"  stroke-width="2.0"/>
<line x1="174.6" y1="109.3" x2="154.6" y2="74.6" stroke="rgb(0,0,0)"  stroke-width="2.0"/>
<line x1="174.6" y1="109.3" x2="198.0" y2="95.8" stroke="rgb(0,0,0)"  stroke-width="2.0"/>
<line x1="174.6" y1="109.3" x2="198.0" y2="122.8" stroke="rgb(0,0,0)"  stroke-width="2.0"/>
<line x1="154.6" y1="77.6" x2="127.6" y2="77.6" stroke="rgb(0,0,0)"  stroke-width="2.0"/>
<line x1="154.6" y1="71.6" x2="127.6" y2="71.6" stroke="rgb(0,0,0)"  stroke-width="2.0"/>
<line x1="154.6" y1="74.6" x2="168.1" y2="51.3" stroke="rgb(0,0,0)"  stroke-width="2.0"/>
<line x1="135.8" y1="187.3" x2="142.8" y2="175.2" stroke="rgb(0,0,0)"  stroke-width="2.0"/>
<line x1="140.5" y1="205.1" x2="152.7" y2="212.1" stroke="rgb(0,0,0)"  stroke-width="2.0"/>
<line x1="122.8" y1="209.8" x2="115.8" y2="221.9" stroke="rgb(0,0,0)"  stroke-width="2.0"/>
<text x="188.641016" y="210.487113" fill="rgb(191,191,191)"  stroke="rgb(191,191,191)" stroke-width="1" font-size="16" >H</text>
<text x="108.641016" y="82.641016" fill="rgb(255,12,12)"  stroke="rgb(255,12,12)" stroke-width="1" font-size="16" >O</text>
<text x="168.641016" y="48.000000" fill="rgb(255,12,12)"  stroke="rgb(255,12,12)" stroke-width="1" font-size="16" >OH</text>
<text x="134.082032" y="194.532065" fill="rgb(12,12,255)"  stroke="rgb(12,12,255)" stroke-width="1" font-size="16" >+</text>
<text x="123.282032" y="206.564065" fill="rgb(12,12,255)"  stroke="rgb(12,12,255)" stroke-width="1" font-size="16" >N</text>
<text x="114.000000" y="310.487113" fill="rgb(191,191,191)"  stroke="rgb(191,191,191)" stroke-width="1" font-size="16" >H</text>
<text x="148.641016" y="330.487113" fill="rgb(191,191,191)"  stroke="rgb(191,191,191)" stroke-width="1" font-size="16" >H</text>
<text x="228.641016" y="221.205081" fill="rgb(191,191,191)"  stroke="rgb(191,191,191)" stroke-width="1" font-size="16" >H</text>
<text x="323.282032" y="235.846097" fill="rgb(191,191,191)"  stroke="rgb(191,191,191)" stroke-width="1" font-size="16" >H</text>
<text x="288.641016" y="215.846097" fill="rgb(191,191,191)"  stroke="rgb(191,191,191)" stroke-width="1" font-size="16" >H</text>
<text x="228.641016" y="250.487113" fill="rgb(191,191,191)"  stroke="rgb(191,191,191)" stroke-width="1" font-size="16" >H</text>
<text x="34.000000" y="201.205081" fill="rgb(191,191,191)"  stroke="rgb(191,191,191)" stroke-width="1" font-size="16" >H</text>
<text x="34.000000" y="241.205081" fill="rgb(191,191,191)"  stroke="rgb(191,191,191)" stroke-width="1" font-size="16" >H</text>
<text x="168.641016" y="186.564065" fill="rgb(191,191,191)"  stroke="rgb(191,191,191)" stroke-width="1" font-size="16" >H</text>
<text x="203.282032" y="97.282032" fill="rgb(191,191,191)"  stroke="rgb(191,191,191)" stroke-width="1" font-size="16" >H</text>
<text x="203.282032" y="137.282032" fill="rgb(191,191,191)"  stroke="rgb(191,191,191)" stroke-width="1" font-size="16" >H</text>
<text x="143.282032" y="171.923048" fill="rgb(191,191,191)"  stroke="rgb(191,191,191)" stroke-width="1" font-size="16" >H</text>
<text x="157.923048" y="226.564065" fill="rgb(191,191,191)"  stroke="rgb(191,191,191)" stroke-width="1" font-size="16" >H</text>
<text x="148.641016" y="250.487113" fill="rgb(191,191,191)"  stroke="rgb(191,191,191)" stroke-width="1" font-size="16" >H</text>
<text x="103.282032" y="241.205081" fill="rgb(191,191,191)"  stroke="rgb(191,191,191)" stroke-width="1" font-size="16" >H</text>
<text x="199.441016" y="238.455113" fill="rgb(12,12,255)"  stroke="rgb(12,12,255)" stroke-width="1" font-size="16" >+</text>
<text x="188.641016" y="250.487113" fill="rgb(12,12,255)"  stroke="rgb(12,12,255)" stroke-width="1" font-size="16" >N</text>
<text x="188.641016" y="330.487113" fill="rgb(191,191,191)"  stroke="rgb(191,191,191)" stroke-width="1" font-size="16" >H</text>
<text x="248.641016" y="325.128129" fill="rgb(255,12,12)"  stroke="rgb(255,12,12)" stroke-width="1" font-size="16" >O</text>
<text x="248.641016" y="255.846097" fill="rgb(12,12,255)"  stroke="rgb(12,12,255)" stroke-width="1" font-size="16" >N</text>
<text x="288.641016" y="325.128129" fill="rgb(255,12,12)"  stroke="rgb(255,12,12)" stroke-width="1" font-size="16" >O</text>
<text x="348.641016" y="290.487113" fill="rgb(255,12,12)"  stroke="rgb(255,12,12)" stroke-width="1" font-size="16" >OH</text>
<text x="128.641016" y="255.846097" fill="rgb(178,178,0)"  stroke="rgb(178,178,0)" stroke-width="1" font-size="16" >S</text>
<text x="88.641016" y="255.846097" fill="rgb(178,178,0)"  stroke="rgb(178,178,0)" stroke-width="1" font-size="16" >S</text>
<text x="54.000000" y="166.564065" fill="rgb(191,191,191)"  stroke="rgb(191,191,191)" stroke-width="1" font-size="16" >H</text>
<text x="88.641016" y="117.282032" fill="rgb(255,12,12)"  stroke="rgb(255,12,12)" stroke-width="1" font-size="16" >O</text>
<text x="148.641016" y="151.923048" fill="rgb(12,12,255)"  stroke="rgb(12,12,255)" stroke-width="1" font-size="16" >N</text>
</svg>
</g>
<text font-size="18.000000" fill ="black" font-family="sans-serif"
x="10.000000" y="20.000000" >ZINC13508230</text>
</svg>
