<?xml version="1.0"?>
<svg version="1.1" id="topsvg"
xmlns="http://www.w3.org/2000/svg" xmlns:xlink="http://www.w3.org/1999/xlink"
xmlns:cml="http://www.xml-cml.org/schema" x="0" y="0" width="200px" height="200px" viewBox="0 0 100 100">
<title>ZINC02140947 - Open Babel Depiction</title>
<rect x="0" y="0" width="100" height="100" fill="white"/>
<g transform="translate(0,0)">
<svg width="100" height="100" x="0" y="0" viewBox="0 0 405.622 354.321"
font-family="sans-serif" stroke="rgb(0,0,0)" stroke-width="2"  stroke-linecap="round">
<line x1="327.9" y1="139.5" x2="352.6" y2="139.5" stroke="rgb(0,0,0)"  stroke-width="2.0"/>
<line x1="309.1" y1="106.8" x2="321.4" y2="85.4" stroke="rgb(0,0,0)"  stroke-width="2.0"/>
<line x1="271.4" y1="106.8" x2="259.0" y2="85.4" stroke="rgb(0,0,0)"  stroke-width="2.0"/>
<line x1="252.5" y1="139.5" x2="227.9" y2="139.5" stroke="rgb(0,0,0)"  stroke-width="2.0"/>
<line x1="271.4" y1="172.1" x2="259.0" y2="193.5" stroke="rgb(0,0,0)"  stroke-width="2.0"/>
<line x1="309.1" y1="172.1" x2="321.4" y2="193.5" stroke="rgb(0,0,0)"  stroke-width="2.0"/>
<line x1="214.9" y1="152.5" x2="214.9" y2="214.9" stroke="rgb(0,0,0)"  stroke-width="2.0"/>
<line x1="201.9" y1="139.5" x2="139.5" y2="139.5" stroke="rgb(0,0,0)"  stroke-width="2.0"/>
<line x1="214.9" y1="126.5" x2="214.9" y2="114.8" stroke="rgb(0,0,0)"  stroke-width="2.0"/>
<line x1="214.9" y1="214.9" x2="237.7" y2="224.3" stroke="rgb(0,0,0)"  stroke-width="2.0"/>
<line x1="178.4" y1="205.1" x2="184.8" y2="181.2" stroke="rgb(0,0,0)"  stroke-width="2.0"/>
<line x1="178.4" y1="205.1" x2="161.0" y2="187.6" stroke="rgb(0,0,0)"  stroke-width="2.0"/>
<line x1="151.8" y1="231.8" x2="134.3" y2="214.3" stroke="rgb(0,0,0)"  stroke-width="2.0"/>
<line x1="151.8" y1="231.8" x2="127.9" y2="238.1" stroke="rgb(0,0,0)"  stroke-width="2.0"/>
<line x1="161.5" y1="268.2" x2="137.7" y2="274.5" stroke="rgb(0,0,0)"  stroke-width="2.0"/>
<line x1="161.5" y1="268.2" x2="155.2" y2="292.0" stroke="rgb(0,0,0)"  stroke-width="2.0"/>
<line x1="198.0" y1="277.9" x2="191.6" y2="301.8" stroke="rgb(0,0,0)"  stroke-width="2.0"/>
<line x1="198.0" y1="277.9" x2="215.4" y2="295.4" stroke="rgb(0,0,0)"  stroke-width="2.0"/>
<line x1="224.6" y1="251.3" x2="242.1" y2="268.7" stroke="rgb(0,0,0)"  stroke-width="2.0"/>
<line x1="224.6" y1="251.3" x2="284.9" y2="235.1" stroke="rgb(0,0,0)"  stroke-width="2.0"/>
<line x1="139.5" y1="139.5" x2="130.0" y2="162.3" stroke="rgb(0,0,0)"  stroke-width="2.0"/>
<line x1="149.2" y1="103.1" x2="173.1" y2="109.5" stroke="rgb(0,0,0)"  stroke-width="2.0"/>
<line x1="149.2" y1="103.1" x2="166.7" y2="85.6" stroke="rgb(0,0,0)"  stroke-width="2.0"/>
<line x1="122.6" y1="76.4" x2="140.0" y2="58.9" stroke="rgb(0,0,0)"  stroke-width="2.0"/>
<line x1="122.6" y1="76.4" x2="116.2" y2="52.6" stroke="rgb(0,0,0)"  stroke-width="2.0"/>
<line x1="86.2" y1="86.2" x2="79.8" y2="62.3" stroke="rgb(0,0,0)"  stroke-width="2.0"/>
<line x1="86.2" y1="86.2" x2="62.3" y2="79.8" stroke="rgb(0,0,0)"  stroke-width="2.0"/>
<line x1="76.4" y1="122.6" x2="52.6" y2="116.2" stroke="rgb(0,0,0)"  stroke-width="2.0"/>
<line x1="76.4" y1="122.6" x2="58.9" y2="140.0" stroke="rgb(0,0,0)"  stroke-width="2.0"/>
<line x1="103.1" y1="149.2" x2="85.6" y2="166.7" stroke="rgb(0,0,0)"  stroke-width="2.0"/>
<line x1="103.1" y1="149.2" x2="109.5" y2="173.1" stroke="rgb(0,0,0)"  stroke-width="2.0"/>
<line x1="271.4" y1="106.8" x2="252.5" y2="139.5" stroke="rgb(0,0,0)"  stroke-width="2.0"/>
<line x1="252.5" y1="139.5" x2="271.4" y2="172.1" stroke="rgb(0,0,0)"  stroke-width="2.0"/>
<line x1="261.8" y1="141.1" x2="274.6" y2="163.3" stroke="rgb(0,0,0)"  stroke-width="2.0"/>
<line x1="271.4" y1="172.1" x2="309.1" y2="172.1" stroke="rgb(0,0,0)"  stroke-width="2.0"/>
<line x1="309.1" y1="172.1" x2="327.9" y2="139.5" stroke="rgb(0,0,0)"  stroke-width="2.0"/>
<line x1="305.8" y1="163.3" x2="318.7" y2="141.1" stroke="rgb(0,0,0)"  stroke-width="2.0"/>
<line x1="327.9" y1="139.5" x2="309.1" y2="106.8" stroke="rgb(0,0,0)"  stroke-width="2.0"/>
<line x1="309.1" y1="106.8" x2="271.4" y2="106.8" stroke="rgb(0,0,0)"  stroke-width="2.0"/>
<line x1="303.1" y1="114.0" x2="277.4" y2="114.0" stroke="rgb(0,0,0)"  stroke-width="2.0"/>
<line x1="151.8" y1="231.8" x2="161.5" y2="268.2" stroke="rgb(0,0,0)"  stroke-width="2.0"/>
<line x1="161.5" y1="268.2" x2="198.0" y2="277.9" stroke="rgb(0,0,0)"  stroke-width="2.0"/>
<line x1="198.0" y1="277.9" x2="224.6" y2="251.3" stroke="rgb(0,0,0)"  stroke-width="2.0"/>
<line x1="224.6" y1="251.3" x2="214.9" y2="214.9" stroke="rgb(0,0,0)"  stroke-width="2.0"/>
<line x1="214.9" y1="214.9" x2="178.4" y2="205.1" stroke="rgb(0,0,0)"  stroke-width="2.0"/>
<line x1="178.4" y1="205.1" x2="151.8" y2="231.8" stroke="rgb(0,0,0)"  stroke-width="2.0"/>
<line x1="122.6" y1="76.4" x2="86.2" y2="86.2" stroke="rgb(0,0,0)"  stroke-width="2.0"/>
<line x1="86.2" y1="86.2" x2="76.4" y2="122.6" stroke="rgb(0,0,0)"  stroke-width="2.0"/>
<line x1="76.4" y1="122.6" x2="103.1" y2="149.2" stroke="rgb(0,0,0)"  stroke-width="2.0"/>
<line x1="103.1" y1="149.2" x2="139.5" y2="139.5" stroke="rgb(0,0,0)"  stroke-width="2.0"/>
<line x1="139.5" y1="139.5" x2="149.2" y2="103.1" stroke="rgb(0,0,0)"  stroke-width="2.0"/>
<line x1="149.2" y1="103.1" x2="122.6" y2="76.4" stroke="rgb(0,0,0)"  stroke-width="2.0"/>
<text x="119.044212" y="182.291585" fill="rgb(191,191,191)"  stroke="rgb(191,191,191)" stroke-width="1" font-size="16" >H</text>
<text x="243.676200" y="237.277270" fill="rgb(191,191,191)"  stroke="rgb(191,191,191)" stroke-width="1" font-size="16" >H</text>
<text x="182.200562" y="176.689588" fill="rgb(191,191,191)"  stroke="rgb(191,191,191)" stroke-width="1" font-size="16" >H</text>
<text x="145.792589" y="186.445075" fill="rgb(191,191,191)"  stroke="rgb(191,191,191)" stroke-width="1" font-size="16" >H</text>
<text x="119.140102" y="213.097562" fill="rgb(191,191,191)"  stroke="rgb(191,191,191)" stroke-width="1" font-size="16" >H</text>
<text x="109.384615" y="249.505535" fill="rgb(191,191,191)"  stroke="rgb(191,191,191)" stroke-width="1" font-size="16" >H</text>
<text x="119.140102" y="285.913508" fill="rgb(191,191,191)"  stroke="rgb(191,191,191)" stroke-width="1" font-size="16" >H</text>
<text x="145.792589" y="312.565995" fill="rgb(191,191,191)"  stroke="rgb(191,191,191)" stroke-width="1" font-size="16" >H</text>
<text x="182.200562" y="322.321482" fill="rgb(191,191,191)"  stroke="rgb(191,191,191)" stroke-width="1" font-size="16" >H</text>
<text x="218.608536" y="312.565995" fill="rgb(191,191,191)"  stroke="rgb(191,191,191)" stroke-width="1" font-size="16" >H</text>
<text x="245.261022" y="285.913508" fill="rgb(191,191,191)"  stroke="rgb(191,191,191)" stroke-width="1" font-size="16" >H</text>
<text x="291.424483" y="239.750048" fill="rgb(191,191,191)"  stroke="rgb(191,191,191)" stroke-width="1" font-size="16" >H</text>
<text x="321.929972" y="212.753425" fill="rgb(191,191,191)"  stroke="rgb(191,191,191)" stroke-width="1" font-size="16" >H</text>
<text x="179.631894" y="120.815947" fill="rgb(191,191,191)"  stroke="rgb(191,191,191)" stroke-width="1" font-size="16" >H</text>
<text x="169.876407" y="84.407973" fill="rgb(191,191,191)"  stroke="rgb(191,191,191)" stroke-width="1" font-size="16" >H</text>
<text x="143.223920" y="57.755487" fill="rgb(191,191,191)"  stroke="rgb(191,191,191)" stroke-width="1" font-size="16" >H</text>
<text x="106.815947" y="48.000000" fill="rgb(191,191,191)"  stroke="rgb(191,191,191)" stroke-width="1" font-size="16" >H</text>
<text x="70.407973" y="57.755487" fill="rgb(191,191,191)"  stroke="rgb(191,191,191)" stroke-width="1" font-size="16" >H</text>
<text x="43.755487" y="84.407973" fill="rgb(191,191,191)"  stroke="rgb(191,191,191)" stroke-width="1" font-size="16" >H</text>
<text x="34.000000" y="120.815947" fill="rgb(191,191,191)"  stroke="rgb(191,191,191)" stroke-width="1" font-size="16" >H</text>
<text x="43.755487" y="157.223920" fill="rgb(191,191,191)"  stroke="rgb(191,191,191)" stroke-width="1" font-size="16" >H</text>
<text x="70.407973" y="183.876407" fill="rgb(191,191,191)"  stroke="rgb(191,191,191)" stroke-width="1" font-size="16" >H</text>
<text x="106.815947" y="193.631894" fill="rgb(191,191,191)"  stroke="rgb(191,191,191)" stroke-width="1" font-size="16" >H</text>
<text x="208.853049" y="109.776126" fill="rgb(191,191,191)"  stroke="rgb(191,191,191)" stroke-width="1" font-size="16" >H</text>
<text x="208.853049" y="147.468433" fill="rgb(255,127,0)"  stroke="rgb(255,127,0)" stroke-width="1" font-size="16" >P</text>
<text x="359.622279" y="147.468433" fill="rgb(191,191,191)"  stroke="rgb(191,191,191)" stroke-width="1" font-size="16" >H</text>
<text x="321.929972" y="82.183441" fill="rgb(191,191,191)"  stroke="rgb(191,191,191)" stroke-width="1" font-size="16" >H</text>
<text x="246.545356" y="82.183441" fill="rgb(191,191,191)"  stroke="rgb(191,191,191)" stroke-width="1" font-size="16" >H</text>
<text x="246.545356" y="212.753425" fill="rgb(191,191,191)"  stroke="rgb(191,191,191)" stroke-width="1" font-size="16" >H</text>
</svg>
</g>
<text font-size="18.000000" fill ="black" font-family="sans-serif"
x="10.000000" y="20.000000" >ZINC02140947</text>
</svg>
