<?xml version="1.0"?>
<svg version="1.1" id="topsvg"
xmlns="http://www.w3.org/2000/svg" xmlns:xlink="http://www.w3.org/1999/xlink"
xmlns:cml="http://www.xml-cml.org/schema" x="0" y="0" width="200px" height="200px" viewBox="0 0 100 100">
<title>ZINC71774885 - Open Babel Depiction</title>
<rect x="0" y="0" width="100" height="100" fill="white"/>
<g transform="translate(0,0)">
<svg width="100" height="100" x="0" y="0" viewBox="0 0 415.734 367.626"
font-family="sans-serif" stroke="rgb(0,0,0)" stroke-width="2"  stroke-linecap="round">
<line x1="317.2" y1="118.1" x2="339.7" y2="105.1" stroke="rgb(0,0,0)"  stroke-width="2.0"/>
<line x1="283.3" y1="98.6" x2="283.3" y2="59.5" stroke="rgb(0,0,0)"  stroke-width="2.0"/>
<line x1="249.5" y1="157.1" x2="223.5" y2="157.1" stroke="rgb(0,0,0)"  stroke-width="2.0"/>
<polygon points="249.530516 157.142857 285.346746 173.202565 281.346746 180.130768 " stroke-width="2.000000" fill="rgb(0,0,0)"  stroke="rgb(0,0,0)" />
<line x1="249.5" y1="157.1" x2="236.5" y2="179.7" stroke="rgb(0,0,0)"  stroke-width="2.0"/>
<line x1="283.3" y1="176.7" x2="270.3" y2="199.2" stroke="rgb(0,0,0)"  stroke-width="2.0"/>
<line x1="289.7" y1="172.1" x2="290.5" y2="173.5" stroke="rgb(0,0,0)"  stroke-width="1.0"/>
<line x1="294.8" y1="168.4" x2="296.2" y2="170.9" stroke="rgb(0,0,0)"  stroke-width="1.0"/>
<line x1="299.9" y1="164.7" x2="302.0" y2="168.3" stroke="rgb(0,0,0)"  stroke-width="1.0"/>
<line x1="305.0" y1="161.0" x2="307.7" y2="165.7" stroke="rgb(0,0,0)"  stroke-width="1.0"/>
<line x1="310.1" y1="157.4" x2="313.4" y2="163.2" stroke="rgb(0,0,0)"  stroke-width="1.0"/>
<line x1="315.2" y1="153.7" x2="319.2" y2="160.6" stroke="rgb(0,0,0)"  stroke-width="1.0"/>
<line x1="283.3" y1="176.7" x2="296.4" y2="199.2" stroke="rgb(0,0,0)"  stroke-width="2.0"/>
<line x1="320.5" y1="161.3" x2="319.1" y2="162.1" stroke="rgb(0,0,0)"  stroke-width="1.0"/>
<line x1="323.1" y1="164.6" x2="320.6" y2="166.0" stroke="rgb(0,0,0)"  stroke-width="1.0"/>
<line x1="325.8" y1="167.9" x2="322.2" y2="170.0" stroke="rgb(0,0,0)"  stroke-width="1.0"/>
<line x1="328.4" y1="171.2" x2="323.7" y2="173.9" stroke="rgb(0,0,0)"  stroke-width="1.0"/>
<line x1="331.1" y1="174.5" x2="325.2" y2="177.9" stroke="rgb(0,0,0)"  stroke-width="1.0"/>
<line x1="333.7" y1="177.8" x2="326.8" y2="181.8" stroke="rgb(0,0,0)"  stroke-width="1.0"/>
<line x1="317.2" y1="157.1" x2="343.2" y2="157.1" stroke="rgb(0,0,0)"  stroke-width="2.0"/>
<line x1="362.7" y1="145.9" x2="369.2" y2="134.6" stroke="rgb(0,0,0)"  stroke-width="2.0"/>
<line x1="315.9" y1="210.5" x2="328.9" y2="210.5" stroke="rgb(0,0,0)"  stroke-width="2.0"/>
<line x1="217.0" y1="191.0" x2="191.0" y2="191.0" stroke="rgb(0,0,0)"  stroke-width="2.0"/>
<polygon points="190.959087 190.959087 186.959087 164.797182 194.959087 164.797182 " stroke-width="2.000000" fill="rgb(0,0,0)"  stroke="rgb(0,0,0)" />
<line x1="191.0" y1="191.0" x2="112.9" y2="191.0" stroke="rgb(0,0,0)"  stroke-width="2.0"/>
<line x1="191.0" y1="191.0" x2="191.0" y2="230.0" stroke="rgb(0,0,0)"  stroke-width="2.0"/>
<line x1="113.7" y1="196.2" x2="112.1" y2="196.2" stroke="rgb(0,0,0)"  stroke-width="1.0"/>
<line x1="114.3" y1="200.4" x2="111.4" y2="200.4" stroke="rgb(0,0,0)"  stroke-width="1.0"/>
<line x1="114.9" y1="204.6" x2="110.8" y2="204.6" stroke="rgb(0,0,0)"  stroke-width="1.0"/>
<line x1="115.6" y1="208.7" x2="110.1" y2="208.7" stroke="rgb(0,0,0)"  stroke-width="1.0"/>
<line x1="116.2" y1="212.9" x2="109.5" y2="212.9" stroke="rgb(0,0,0)"  stroke-width="1.0"/>
<line x1="116.9" y1="217.1" x2="108.9" y2="217.1" stroke="rgb(0,0,0)"  stroke-width="1.0"/>
<line x1="112.9" y1="191.0" x2="73.8" y2="191.0" stroke="rgb(0,0,0)"  stroke-width="2.0"/>
<line x1="112.9" y1="191.0" x2="112.9" y2="164.9" stroke="rgb(0,0,0)"  stroke-width="2.0"/>
<line x1="73.8" y1="191.0" x2="60.8" y2="213.5" stroke="rgb(0,0,0)"  stroke-width="2.0"/>
<line x1="73.8" y1="191.0" x2="51.3" y2="177.9" stroke="rgb(0,0,0)"  stroke-width="2.0"/>
<line x1="73.8" y1="191.0" x2="73.8" y2="164.9" stroke="rgb(0,0,0)"  stroke-width="2.0"/>
<line x1="60.8" y1="236.0" x2="67.3" y2="247.3" stroke="rgb(0,0,0)"  stroke-width="2.0"/>
<line x1="124.1" y1="145.4" x2="135.4" y2="138.9" stroke="rgb(0,0,0)"  stroke-width="2.0"/>
<polygon points="190.959087 230.006706 164.797182 234.006706 164.797182 226.006706 " stroke-width="2.000000" fill="rgb(0,0,0)"  stroke="rgb(0,0,0)" />
<line x1="191.0" y1="230.0" x2="191.0" y2="269.1" stroke="rgb(0,0,0)"  stroke-width="2.0"/>
<line x1="191.0" y1="230.0" x2="217.0" y2="230.0" stroke="rgb(0,0,0)"  stroke-width="2.0"/>
<line x1="191.0" y1="269.1" x2="151.9" y2="269.1" stroke="rgb(0,0,0)"  stroke-width="2.0"/>
<line x1="191.0" y1="269.1" x2="191.0" y2="295.1" stroke="rgb(0,0,0)"  stroke-width="2.0"/>
<polygon points="190.959087 269.054325 217.120992 265.054325 217.120992 273.054325 " stroke-width="2.000000" fill="rgb(0,0,0)"  stroke="rgb(0,0,0)" />
<line x1="149.3" y1="270.6" x2="136.3" y2="248.0" stroke="rgb(0,0,0)"  stroke-width="2.0"/>
<line x1="154.5" y1="267.6" x2="141.5" y2="245.0" stroke="rgb(0,0,0)"  stroke-width="2.0"/>
<line x1="151.9" y1="269.1" x2="138.9" y2="291.6" stroke="rgb(0,0,0)"  stroke-width="2.0"/>
<line x1="179.7" y1="314.6" x2="168.4" y2="321.1" stroke="rgb(0,0,0)"  stroke-width="2.0"/>
<line x1="202.2" y1="314.6" x2="213.5" y2="321.1" stroke="rgb(0,0,0)"  stroke-width="2.0"/>
<line x1="236.5" y1="241.3" x2="243.0" y2="252.6" stroke="rgb(0,0,0)"  stroke-width="2.0"/>
<line x1="281.8" y1="56.9" x2="304.4" y2="43.9" stroke="rgb(0,0,0)"  stroke-width="2.0"/>
<line x1="284.8" y1="62.1" x2="307.4" y2="49.1" stroke="rgb(0,0,0)"  stroke-width="2.0"/>
<line x1="283.3" y1="59.5" x2="260.8" y2="46.5" stroke="rgb(0,0,0)"  stroke-width="2.0"/>
<line x1="249.5" y1="131.1" x2="249.5" y2="157.1" stroke="rgb(0,0,0)"  stroke-width="2.0"/>
<line x1="249.5" y1="157.1" x2="283.3" y2="176.7" stroke="rgb(0,0,0)"  stroke-width="2.0"/>
<line x1="283.3" y1="176.7" x2="317.2" y2="157.1" stroke="rgb(0,0,0)"  stroke-width="2.0"/>
<line x1="317.2" y1="157.1" x2="317.2" y2="118.1" stroke="rgb(0,0,0)"  stroke-width="2.0"/>
<line x1="317.2" y1="118.1" x2="283.3" y2="98.6" stroke="rgb(0,0,0)"  stroke-width="2.0"/>
<line x1="308.4" y1="121.3" x2="284.9" y2="107.8" stroke="rgb(0,0,0)"  stroke-width="2.0"/>
<line x1="283.3" y1="98.6" x2="260.8" y2="111.6" stroke="rgb(0,0,0)"  stroke-width="2.0"/>
<text x="335.918174" y="218.482897" fill="rgb(191,191,191)"  stroke="rgb(191,191,191)" stroke-width="1" font-size="16" >H</text>
<text x="126.387659" y="243.238095" fill="rgb(255,12,12)"  stroke="rgb(255,12,12)" stroke-width="1" font-size="16" >O</text>
<text x="184.959087" y="316.101944" fill="rgb(12,12,255)"  stroke="rgb(12,12,255)" stroke-width="1" font-size="16" >N</text>
<text x="224.006706" y="238.006706" fill="rgb(255,12,12)"  stroke="rgb(255,12,12)" stroke-width="1" font-size="16" >O</text>
<text x="311.162976" y="48.000000" fill="rgb(255,12,12)"  stroke="rgb(255,12,12)" stroke-width="1" font-size="16" >O</text>
<text x="231.530516" y="48.000000" fill="rgb(255,12,12)"  stroke="rgb(255,12,12)" stroke-width="1" font-size="16" >HO</text>
<text x="344.979206" y="106.571429" fill="rgb(191,191,191)"  stroke="rgb(191,191,191)" stroke-width="1" font-size="16" >H</text>
<text x="369.734404" y="131.326627" fill="rgb(191,191,191)"  stroke="rgb(191,191,191)" stroke-width="1" font-size="16" >H</text>
<text x="145.911468" y="238.006706" fill="rgb(191,191,191)"  stroke="rgb(191,191,191)" stroke-width="1" font-size="16" >H</text>
<text x="34.000000" y="179.435278" fill="rgb(191,191,191)"  stroke="rgb(191,191,191)" stroke-width="1" font-size="16" >H</text>
<text x="67.816230" y="159.911468" fill="rgb(191,191,191)"  stroke="rgb(191,191,191)" stroke-width="1" font-size="16" >H</text>
<text x="67.816230" y="266.591547" fill="rgb(191,191,191)"  stroke="rgb(191,191,191)" stroke-width="1" font-size="16" >H</text>
<text x="140.680079" y="140.387659" fill="rgb(191,191,191)"  stroke="rgb(191,191,191)" stroke-width="1" font-size="16" >H</text>
<text x="126.387659" y="310.870555" fill="rgb(191,191,191)"  stroke="rgb(191,191,191)" stroke-width="1" font-size="16" >H</text>
<text x="243.530516" y="271.822936" fill="rgb(191,191,191)"  stroke="rgb(191,191,191)" stroke-width="1" font-size="16" >H</text>
<text x="151.142857" y="335.625754" fill="rgb(191,191,191)"  stroke="rgb(191,191,191)" stroke-width="1" font-size="16" >H</text>
<text x="218.775317" y="335.625754" fill="rgb(191,191,191)"  stroke="rgb(191,191,191)" stroke-width="1" font-size="16" >H</text>
<text x="224.006706" y="277.054325" fill="rgb(191,191,191)"  stroke="rgb(191,191,191)" stroke-width="1" font-size="16" >H</text>
<text x="296.870555" y="218.482897" fill="rgb(255,12,12)"  stroke="rgb(255,12,12)" stroke-width="1" font-size="16" >O</text>
<text x="243.530516" y="126.095238" fill="rgb(255,12,12)"  stroke="rgb(255,12,12)" stroke-width="1" font-size="16" >O</text>
<text x="204.482897" y="165.142857" fill="rgb(191,191,191)"  stroke="rgb(191,191,191)" stroke-width="1" font-size="16" >H</text>
<text x="257.822936" y="218.482897" fill="rgb(191,191,191)"  stroke="rgb(191,191,191)" stroke-width="1" font-size="16" >H</text>
<text x="330.686785" y="198.959087" fill="rgb(191,191,191)"  stroke="rgb(191,191,191)" stroke-width="1" font-size="16" >H</text>
<text x="350.210595" y="165.142857" fill="rgb(255,12,12)"  stroke="rgb(255,12,12)" stroke-width="1" font-size="16" >O</text>
<text x="224.006706" y="198.959087" fill="rgb(255,12,12)"  stroke="rgb(255,12,12)" stroke-width="1" font-size="16" >O</text>
<text x="184.959087" y="159.911468" fill="rgb(191,191,191)"  stroke="rgb(191,191,191)" stroke-width="1" font-size="16" >H</text>
<text x="106.863849" y="238.006706" fill="rgb(191,191,191)"  stroke="rgb(191,191,191)" stroke-width="1" font-size="16" >H</text>
<text x="48.292421" y="232.775317" fill="rgb(255,12,12)"  stroke="rgb(255,12,12)" stroke-width="1" font-size="16" >O</text>
<text x="106.863849" y="159.911468" fill="rgb(255,12,12)"  stroke="rgb(255,12,12)" stroke-width="1" font-size="16" >O</text>
</svg>
</g>
<text font-size="18.000000" fill ="black" font-family="sans-serif"
x="10.000000" y="20.000000" >ZINC71774885</text>
</svg>
