<?xml version="1.0"?>
<svg version="1.1" id="topsvg"
xmlns="http://www.w3.org/2000/svg" xmlns:xlink="http://www.w3.org/1999/xlink"
xmlns:cml="http://www.xml-cml.org/schema" x="0" y="0" width="200px" height="200px" viewBox="0 0 100 100">
<title>ZINC98216438 - Open Babel Depiction</title>
<rect x="0" y="0" width="100" height="100" fill="white"/>
<g transform="translate(0,0)">
<svg width="100" height="100" x="0" y="0" viewBox="0 0 891.982 824.74"
font-family="sans-serif" stroke="rgb(0,0,0)" stroke-width="2"  stroke-linecap="round">
<line x1="561.6" y1="309.2" x2="522.2" y2="309.2" stroke="rgb(0,0,0)"  stroke-width="2.0"/>
<line x1="561.6" y1="309.2" x2="584.5" y2="296.0" stroke="rgb(0,0,0)"  stroke-width="2.0"/>
<line x1="561.6" y1="309.2" x2="561.6" y2="282.8" stroke="rgb(0,0,0)"  stroke-width="2.0"/>
<line x1="561.6" y1="309.2" x2="574.8" y2="332.1" stroke="rgb(0,0,0)"  stroke-width="2.0"/>
<line x1="523.0" y1="314.5" x2="521.4" y2="314.5" stroke="rgb(0,0,0)"  stroke-width="1.0"/>
<line x1="523.6" y1="318.8" x2="520.8" y2="318.8" stroke="rgb(0,0,0)"  stroke-width="1.0"/>
<line x1="524.3" y1="323.0" x2="520.1" y2="323.0" stroke="rgb(0,0,0)"  stroke-width="1.0"/>
<line x1="524.9" y1="327.2" x2="519.5" y2="327.2" stroke="rgb(0,0,0)"  stroke-width="1.0"/>
<line x1="525.6" y1="331.4" x2="518.8" y2="331.4" stroke="rgb(0,0,0)"  stroke-width="1.0"/>
<line x1="526.2" y1="335.7" x2="518.2" y2="335.7" stroke="rgb(0,0,0)"  stroke-width="1.0"/>
<line x1="522.2" y1="309.2" x2="482.8" y2="309.2" stroke="rgb(0,0,0)"  stroke-width="2.0"/>
<line x1="522.2" y1="309.2" x2="522.2" y2="282.8" stroke="rgb(0,0,0)"  stroke-width="2.0"/>
<line x1="480.2" y1="310.7" x2="467.0" y2="287.9" stroke="rgb(0,0,0)"  stroke-width="2.0"/>
<line x1="485.4" y1="307.7" x2="472.2" y2="284.9" stroke="rgb(0,0,0)"  stroke-width="2.0"/>
<line x1="482.8" y1="309.2" x2="469.6" y2="332.1" stroke="rgb(0,0,0)"  stroke-width="2.0"/>
<line x1="450.1" y1="343.4" x2="423.6" y2="343.4" stroke="rgb(0,0,0)"  stroke-width="2.0"/>
<line x1="469.6" y1="354.6" x2="476.3" y2="366.3" stroke="rgb(0,0,0)"  stroke-width="2.0"/>
<polygon points="423.640264 343.384559 419.640264 316.972965 427.640264 316.972965 " stroke-width="2.000000" fill="rgb(0,0,0)"  stroke="rgb(0,0,0)" />
<line x1="423.6" y1="343.4" x2="384.2" y2="343.4" stroke="rgb(0,0,0)"  stroke-width="2.0"/>
<line x1="423.6" y1="343.4" x2="423.6" y2="382.8" stroke="rgb(0,0,0)"  stroke-width="2.0"/>
<line x1="384.2" y1="343.4" x2="364.5" y2="309.2" stroke="rgb(0,0,0)"  stroke-width="2.0"/>
<line x1="384.2" y1="343.4" x2="361.3" y2="356.6" stroke="rgb(0,0,0)"  stroke-width="2.0"/>
<line x1="384.2" y1="343.4" x2="384.2" y2="369.8" stroke="rgb(0,0,0)"  stroke-width="2.0"/>
<line x1="384.2" y1="275.1" x2="410.6" y2="275.1" stroke="rgb(0,0,0)"  stroke-width="2.0"/>
<line x1="364.5" y1="241.0" x2="377.7" y2="218.1" stroke="rgb(0,0,0)"  stroke-width="2.0"/>
<line x1="325.1" y1="241.0" x2="311.9" y2="218.1" stroke="rgb(0,0,0)"  stroke-width="2.0"/>
<line x1="305.4" y1="275.1" x2="279.0" y2="275.1" stroke="rgb(0,0,0)"  stroke-width="2.0"/>
<line x1="325.1" y1="309.2" x2="311.9" y2="332.1" stroke="rgb(0,0,0)"  stroke-width="2.0"/>
<line x1="309.3" y1="194.1" x2="316.0" y2="182.4" stroke="rgb(0,0,0)"  stroke-width="2.0"/>
<line x1="314.5" y1="197.1" x2="321.2" y2="185.4" stroke="rgb(0,0,0)"  stroke-width="2.0"/>
<line x1="292.4" y1="206.8" x2="279.0" y2="206.8" stroke="rgb(0,0,0)"  stroke-width="2.0"/>
<line x1="425.1" y1="380.2" x2="448.0" y2="393.4" stroke="rgb(0,0,0)"  stroke-width="2.0"/>
<line x1="422.1" y1="385.4" x2="445.0" y2="398.6" stroke="rgb(0,0,0)"  stroke-width="2.0"/>
<line x1="423.6" y1="382.8" x2="400.8" y2="396.0" stroke="rgb(0,0,0)"  stroke-width="2.0"/>
<line x1="389.5" y1="415.5" x2="389.5" y2="441.9" stroke="rgb(0,0,0)"  stroke-width="2.0"/>
<line x1="378.2" y1="396.0" x2="366.6" y2="389.3" stroke="rgb(0,0,0)"  stroke-width="2.0"/>
<line x1="394.8" y1="441.1" x2="394.8" y2="442.7" stroke="rgb(0,0,0)"  stroke-width="1.0"/>
<line x1="399.0" y1="440.5" x2="399.0" y2="443.4" stroke="rgb(0,0,0)"  stroke-width="1.0"/>
<line x1="403.2" y1="439.9" x2="403.2" y2="444.0" stroke="rgb(0,0,0)"  stroke-width="1.0"/>
<line x1="407.5" y1="439.2" x2="407.5" y2="444.7" stroke="rgb(0,0,0)"  stroke-width="1.0"/>
<line x1="411.7" y1="438.6" x2="411.7" y2="445.3" stroke="rgb(0,0,0)"  stroke-width="1.0"/>
<line x1="415.9" y1="437.9" x2="415.9" y2="445.9" stroke="rgb(0,0,0)"  stroke-width="1.0"/>
<line x1="389.5" y1="441.9" x2="389.5" y2="481.4" stroke="rgb(0,0,0)"  stroke-width="2.0"/>
<line x1="389.5" y1="441.9" x2="350.1" y2="441.9" stroke="rgb(0,0,0)"  stroke-width="2.0"/>
<line x1="389.5" y1="481.4" x2="423.6" y2="501.1" stroke="rgb(0,0,0)"  stroke-width="2.0"/>
<line x1="389.5" y1="481.4" x2="376.3" y2="504.2" stroke="rgb(0,0,0)"  stroke-width="2.0"/>
<line x1="389.5" y1="481.4" x2="363.1" y2="481.4" stroke="rgb(0,0,0)"  stroke-width="2.0"/>
<line x1="457.8" y1="481.4" x2="457.8" y2="454.9" stroke="rgb(0,0,0)"  stroke-width="2.0"/>
<line x1="491.9" y1="501.1" x2="514.8" y2="487.9" stroke="rgb(0,0,0)"  stroke-width="2.0"/>
<line x1="491.9" y1="540.5" x2="514.8" y2="553.7" stroke="rgb(0,0,0)"  stroke-width="2.0"/>
<line x1="457.8" y1="560.2" x2="457.8" y2="586.6" stroke="rgb(0,0,0)"  stroke-width="2.0"/>
<line x1="423.6" y1="540.5" x2="400.8" y2="553.7" stroke="rgb(0,0,0)"  stroke-width="2.0"/>
<line x1="347.5" y1="443.4" x2="334.3" y2="420.6" stroke="rgb(0,0,0)"  stroke-width="2.0"/>
<line x1="352.7" y1="440.4" x2="339.5" y2="417.6" stroke="rgb(0,0,0)"  stroke-width="2.0"/>
<line x1="350.1" y1="441.9" x2="336.9" y2="464.8" stroke="rgb(0,0,0)"  stroke-width="2.0"/>
<line x1="317.4" y1="476.1" x2="291.0" y2="476.1" stroke="rgb(0,0,0)"  stroke-width="2.0"/>
<line x1="336.9" y1="487.3" x2="343.6" y2="499.0" stroke="rgb(0,0,0)"  stroke-width="2.0"/>
<polygon points="290.950567 476.074256 286.950567 449.662662 294.950567 449.662662 " stroke-width="2.000000" fill="rgb(0,0,0)"  stroke="rgb(0,0,0)" />
<line x1="291.0" y1="476.1" x2="251.5" y2="476.1" stroke="rgb(0,0,0)"  stroke-width="2.0"/>
<line x1="291.0" y1="476.1" x2="291.0" y2="554.9" stroke="rgb(0,0,0)"  stroke-width="2.0"/>
<line x1="251.5" y1="476.1" x2="251.5" y2="436.7" stroke="rgb(0,0,0)"  stroke-width="2.0"/>
<line x1="251.5" y1="476.1" x2="212.1" y2="476.1" stroke="rgb(0,0,0)"  stroke-width="2.0"/>
<line x1="251.5" y1="476.1" x2="251.5" y2="502.5" stroke="rgb(0,0,0)"  stroke-width="2.0"/>
<line x1="251.5" y1="436.7" x2="238.3" y2="413.8" stroke="rgb(0,0,0)"  stroke-width="2.0"/>
<line x1="251.5" y1="436.7" x2="225.1" y2="436.7" stroke="rgb(0,0,0)"  stroke-width="2.0"/>
<line x1="251.5" y1="436.7" x2="274.4" y2="423.4" stroke="rgb(0,0,0)"  stroke-width="2.0"/>
<line x1="212.1" y1="476.1" x2="189.2" y2="489.3" stroke="rgb(0,0,0)"  stroke-width="2.0"/>
<line x1="212.1" y1="476.1" x2="212.1" y2="502.5" stroke="rgb(0,0,0)"  stroke-width="2.0"/>
<line x1="212.1" y1="476.1" x2="198.9" y2="453.2" stroke="rgb(0,0,0)"  stroke-width="2.0"/>
<line x1="292.5" y1="552.3" x2="315.3" y2="565.5" stroke="rgb(0,0,0)"  stroke-width="2.0"/>
<line x1="289.5" y1="557.5" x2="312.3" y2="570.7" stroke="rgb(0,0,0)"  stroke-width="2.0"/>
<line x1="291.0" y1="554.9" x2="268.1" y2="568.1" stroke="rgb(0,0,0)"  stroke-width="2.0"/>
<line x1="256.8" y1="587.6" x2="256.8" y2="614.0" stroke="rgb(0,0,0)"  stroke-width="2.0"/>
<line x1="245.6" y1="568.1" x2="233.9" y2="561.4" stroke="rgb(0,0,0)"  stroke-width="2.0"/>
<line x1="262.1" y1="613.2" x2="262.1" y2="614.8" stroke="rgb(0,0,0)"  stroke-width="1.0"/>
<line x1="266.3" y1="612.6" x2="266.3" y2="615.5" stroke="rgb(0,0,0)"  stroke-width="1.0"/>
<line x1="270.5" y1="612.0" x2="270.5" y2="616.1" stroke="rgb(0,0,0)"  stroke-width="1.0"/>
<line x1="274.8" y1="611.3" x2="274.8" y2="616.8" stroke="rgb(0,0,0)"  stroke-width="1.0"/>
<line x1="279.0" y1="610.7" x2="279.0" y2="617.4" stroke="rgb(0,0,0)"  stroke-width="1.0"/>
<line x1="283.2" y1="610.0" x2="283.2" y2="618.0" stroke="rgb(0,0,0)"  stroke-width="1.0"/>
<line x1="256.8" y1="614.0" x2="256.8" y2="653.5" stroke="rgb(0,0,0)"  stroke-width="2.0"/>
<line x1="256.8" y1="614.0" x2="217.4" y2="614.0" stroke="rgb(0,0,0)"  stroke-width="2.0"/>
<line x1="256.8" y1="653.5" x2="291.0" y2="673.2" stroke="rgb(0,0,0)"  stroke-width="2.0"/>
<line x1="256.8" y1="653.5" x2="243.6" y2="676.3" stroke="rgb(0,0,0)"  stroke-width="2.0"/>
<line x1="256.8" y1="653.5" x2="230.4" y2="653.5" stroke="rgb(0,0,0)"  stroke-width="2.0"/>
<line x1="291.0" y1="673.2" x2="271.2" y2="707.3" stroke="rgb(0,0,0)"  stroke-width="2.0"/>
<line x1="291.0" y1="673.2" x2="325.1" y2="692.9" stroke="rgb(0,0,0)"  stroke-width="2.0"/>
<line x1="291.0" y1="673.2" x2="304.2" y2="650.3" stroke="rgb(0,0,0)"  stroke-width="2.0"/>
<line x1="271.2" y1="707.3" x2="271.2" y2="733.7" stroke="rgb(0,0,0)"  stroke-width="2.0"/>
<line x1="271.2" y1="707.3" x2="294.1" y2="720.5" stroke="rgb(0,0,0)"  stroke-width="2.0"/>
<line x1="271.2" y1="707.3" x2="244.8" y2="707.3" stroke="rgb(0,0,0)"  stroke-width="2.0"/>
<line x1="325.1" y1="692.9" x2="351.5" y2="692.9" stroke="rgb(0,0,0)"  stroke-width="2.0"/>
<line x1="325.1" y1="692.9" x2="338.3" y2="670.0" stroke="rgb(0,0,0)"  stroke-width="2.0"/>
<line x1="325.1" y1="692.9" x2="325.1" y2="719.3" stroke="rgb(0,0,0)"  stroke-width="2.0"/>
<line x1="214.8" y1="615.5" x2="201.6" y2="592.7" stroke="rgb(0,0,0)"  stroke-width="2.0"/>
<line x1="220.0" y1="612.5" x2="206.8" y2="589.7" stroke="rgb(0,0,0)"  stroke-width="2.0"/>
<line x1="217.4" y1="614.0" x2="204.2" y2="636.9" stroke="rgb(0,0,0)"  stroke-width="2.0"/>
<line x1="184.7" y1="648.2" x2="158.3" y2="648.2" stroke="rgb(0,0,0)"  stroke-width="2.0"/>
<line x1="158.3" y1="648.2" x2="138.6" y2="682.3" stroke="rgb(0,0,0)"  stroke-width="2.0"/>
<line x1="158.3" y1="648.2" x2="135.4" y2="635.0" stroke="rgb(0,0,0)"  stroke-width="2.0"/>
<line x1="158.3" y1="648.2" x2="158.3" y2="621.8" stroke="rgb(0,0,0)"  stroke-width="2.0"/>
<line x1="158.3" y1="716.5" x2="184.7" y2="716.5" stroke="rgb(0,0,0)"  stroke-width="2.0"/>
<line x1="138.6" y1="750.6" x2="151.8" y2="773.5" stroke="rgb(0,0,0)"  stroke-width="2.0"/>
<line x1="79.4" y1="716.5" x2="53.0" y2="716.5" stroke="rgb(0,0,0)"  stroke-width="2.0"/>
<line x1="99.1" y1="682.3" x2="85.9" y2="659.4" stroke="rgb(0,0,0)"  stroke-width="2.0"/>
<line x1="533.4" y1="263.3" x2="556.3" y2="250.1" stroke="rgb(0,0,0)"  stroke-width="2.0"/>
<line x1="510.9" y1="263.3" x2="499.3" y2="256.6" stroke="rgb(0,0,0)"  stroke-width="2.0"/>
<line x1="557.8" y1="247.5" x2="580.7" y2="260.7" stroke="rgb(0,0,0)"  stroke-width="2.0"/>
<line x1="554.8" y1="252.7" x2="577.7" y2="265.9" stroke="rgb(0,0,0)"  stroke-width="2.0"/>
<line x1="556.3" y1="250.1" x2="556.3" y2="210.7" stroke="rgb(0,0,0)"  stroke-width="2.0"/>
<polygon points="556.329961 210.694862 529.918367 214.694862 529.918367 206.694862 " stroke-width="2.000000" fill="rgb(0,0,0)"  stroke="rgb(0,0,0)" />
<line x1="556.3" y1="210.7" x2="556.3" y2="171.3" stroke="rgb(0,0,0)"  stroke-width="2.0"/>
<line x1="556.3" y1="210.7" x2="582.8" y2="210.7" stroke="rgb(0,0,0)"  stroke-width="2.0"/>
<line x1="556.3" y1="171.3" x2="569.5" y2="148.4" stroke="rgb(0,0,0)"  stroke-width="2.0"/>
<line x1="556.3" y1="171.3" x2="582.8" y2="171.3" stroke="rgb(0,0,0)"  stroke-width="2.0"/>
<line x1="556.3" y1="171.3" x2="533.4" y2="158.1" stroke="rgb(0,0,0)"  stroke-width="2.0"/>
<line x1="602.3" y1="199.4" x2="615.5" y2="176.6" stroke="rgb(0,0,0)"  stroke-width="2.0"/>
<line x1="602.3" y1="222.0" x2="609.0" y2="233.6" stroke="rgb(0,0,0)"  stroke-width="2.0"/>
<line x1="612.9" y1="178.1" x2="599.7" y2="155.2" stroke="rgb(0,0,0)"  stroke-width="2.0"/>
<line x1="618.1" y1="175.1" x2="604.8" y2="152.2" stroke="rgb(0,0,0)"  stroke-width="2.0"/>
<line x1="615.5" y1="176.6" x2="654.9" y2="176.6" stroke="rgb(0,0,0)"  stroke-width="2.0"/>
<polygon points="654.880685 176.555890 650.880685 150.144296 658.880685 150.144296 " stroke-width="2.000000" fill="rgb(0,0,0)"  stroke="rgb(0,0,0)" />
<line x1="654.9" y1="176.6" x2="733.7" y2="176.6" stroke="rgb(0,0,0)"  stroke-width="2.0"/>
<line x1="654.9" y1="176.6" x2="654.9" y2="203.0" stroke="rgb(0,0,0)"  stroke-width="2.0"/>
<line x1="733.7" y1="176.6" x2="753.4" y2="142.4" stroke="rgb(0,0,0)"  stroke-width="2.0"/>
<line x1="733.7" y1="176.6" x2="756.6" y2="189.8" stroke="rgb(0,0,0)"  stroke-width="2.0"/>
<line x1="733.7" y1="176.6" x2="733.7" y2="203.0" stroke="rgb(0,0,0)"  stroke-width="2.0"/>
<line x1="733.7" y1="108.3" x2="707.3" y2="108.3" stroke="rgb(0,0,0)"  stroke-width="2.0"/>
<line x1="753.4" y1="74.1" x2="740.2" y2="51.3" stroke="rgb(0,0,0)"  stroke-width="2.0"/>
<line x1="792.9" y1="74.1" x2="806.1" y2="51.3" stroke="rgb(0,0,0)"  stroke-width="2.0"/>
<line x1="812.6" y1="108.3" x2="839.0" y2="108.3" stroke="rgb(0,0,0)"  stroke-width="2.0"/>
<line x1="792.9" y1="142.4" x2="806.1" y2="165.3" stroke="rgb(0,0,0)"  stroke-width="2.0"/>
<line x1="667.9" y1="216.0" x2="681.3" y2="216.0" stroke="rgb(0,0,0)"  stroke-width="2.0"/>
<line x1="654.9" y1="229.0" x2="654.9" y2="242.4" stroke="rgb(0,0,0)"  stroke-width="2.0"/>
<line x1="641.9" y1="216.0" x2="628.5" y2="216.0" stroke="rgb(0,0,0)"  stroke-width="2.0"/>
<line x1="364.5" y1="241.0" x2="325.1" y2="241.0" stroke="rgb(0,0,0)"  stroke-width="2.0"/>
<line x1="325.1" y1="241.0" x2="305.4" y2="275.1" stroke="rgb(0,0,0)"  stroke-width="2.0"/>
<line x1="328.3" y1="249.8" x2="314.6" y2="273.5" stroke="rgb(0,0,0)"  stroke-width="2.0"/>
<line x1="305.4" y1="275.1" x2="325.1" y2="309.2" stroke="rgb(0,0,0)"  stroke-width="2.0"/>
<line x1="325.1" y1="309.2" x2="364.5" y2="309.2" stroke="rgb(0,0,0)"  stroke-width="2.0"/>
<line x1="331.1" y1="302.0" x2="358.5" y2="302.0" stroke="rgb(0,0,0)"  stroke-width="2.0"/>
<line x1="364.5" y1="309.2" x2="384.2" y2="275.1" stroke="rgb(0,0,0)"  stroke-width="2.0"/>
<line x1="384.2" y1="275.1" x2="364.5" y2="241.0" stroke="rgb(0,0,0)"  stroke-width="2.0"/>
<line x1="375.0" y1="273.5" x2="361.3" y2="249.8" stroke="rgb(0,0,0)"  stroke-width="2.0"/>
<line x1="491.9" y1="501.1" x2="491.9" y2="540.5" stroke="rgb(0,0,0)"  stroke-width="2.0"/>
<line x1="491.9" y1="540.5" x2="457.8" y2="560.2" stroke="rgb(0,0,0)"  stroke-width="2.0"/>
<line x1="483.1" y1="537.3" x2="459.4" y2="551.0" stroke="rgb(0,0,0)"  stroke-width="2.0"/>
<line x1="457.8" y1="560.2" x2="423.6" y2="540.5" stroke="rgb(0,0,0)"  stroke-width="2.0"/>
<line x1="423.6" y1="540.5" x2="423.6" y2="501.1" stroke="rgb(0,0,0)"  stroke-width="2.0"/>
<line x1="430.8" y1="534.5" x2="430.8" y2="507.1" stroke="rgb(0,0,0)"  stroke-width="2.0"/>
<line x1="423.6" y1="501.1" x2="457.8" y2="481.4" stroke="rgb(0,0,0)"  stroke-width="2.0"/>
<line x1="457.8" y1="481.4" x2="491.9" y2="501.1" stroke="rgb(0,0,0)"  stroke-width="2.0"/>
<line x1="459.4" y1="490.6" x2="483.1" y2="504.3" stroke="rgb(0,0,0)"  stroke-width="2.0"/>
<line x1="138.6" y1="750.6" x2="112.1" y2="750.6" stroke="rgb(0,0,0)"  stroke-width="2.0"/>
<line x1="92.6" y1="739.3" x2="79.4" y2="716.5" stroke="rgb(0,0,0)"  stroke-width="2.0"/>
<line x1="97.8" y1="734.0" x2="88.7" y2="718.1" stroke="rgb(0,0,0)"  stroke-width="2.0"/>
<line x1="79.4" y1="716.5" x2="99.1" y2="682.3" stroke="rgb(0,0,0)"  stroke-width="2.0"/>
<line x1="99.1" y1="682.3" x2="138.6" y2="682.3" stroke="rgb(0,0,0)"  stroke-width="2.0"/>
<line x1="105.1" y1="689.5" x2="132.6" y2="689.5" stroke="rgb(0,0,0)"  stroke-width="2.0"/>
<line x1="138.6" y1="682.3" x2="158.3" y2="716.5" stroke="rgb(0,0,0)"  stroke-width="2.0"/>
<line x1="158.3" y1="716.5" x2="138.6" y2="750.6" stroke="rgb(0,0,0)"  stroke-width="2.0"/>
<line x1="149.0" y1="718.1" x2="135.3" y2="741.8" stroke="rgb(0,0,0)"  stroke-width="2.0"/>
<line x1="753.4" y1="74.1" x2="792.9" y2="74.1" stroke="rgb(0,0,0)"  stroke-width="2.0"/>
<line x1="792.9" y1="74.1" x2="812.6" y2="108.3" stroke="rgb(0,0,0)"  stroke-width="2.0"/>
<line x1="789.6" y1="82.9" x2="803.3" y2="106.7" stroke="rgb(0,0,0)"  stroke-width="2.0"/>
<line x1="812.6" y1="108.3" x2="792.9" y2="142.4" stroke="rgb(0,0,0)"  stroke-width="2.0"/>
<line x1="792.9" y1="142.4" x2="753.4" y2="142.4" stroke="rgb(0,0,0)"  stroke-width="2.0"/>
<line x1="786.9" y1="135.2" x2="759.4" y2="135.2" stroke="rgb(0,0,0)"  stroke-width="2.0"/>
<line x1="753.4" y1="142.4" x2="733.7" y2="108.3" stroke="rgb(0,0,0)"  stroke-width="2.0"/>
<line x1="733.7" y1="108.3" x2="753.4" y2="74.1" stroke="rgb(0,0,0)"  stroke-width="2.0"/>
<line x1="743.0" y1="106.7" x2="756.7" y2="82.9" stroke="rgb(0,0,0)"  stroke-width="2.0"/>
<text x="451.779236" y="607.616443" fill="rgb(191,191,191)"  stroke="rgb(191,191,191)" stroke-width="1" font-size="16" >H</text>
<text x="259.959104" y="283.106614" fill="rgb(191,191,191)"  stroke="rgb(191,191,191)" stroke-width="1" font-size="16" >H</text>
<text x="299.379394" y="351.384559" fill="rgb(191,191,191)"  stroke="rgb(191,191,191)" stroke-width="1" font-size="16" >H</text>
<text x="349.362319" y="390.804849" fill="rgb(191,191,191)"  stroke="rgb(191,191,191)" stroke-width="1" font-size="16" >H</text>
<text x="363.791146" y="523.494546" fill="rgb(191,191,191)"  stroke="rgb(191,191,191)" stroke-width="1" font-size="16" >H</text>
<text x="344.081001" y="489.355574" fill="rgb(191,191,191)"  stroke="rgb(191,191,191)" stroke-width="1" font-size="16" >H</text>
<text x="451.779236" y="449.935284" fill="rgb(191,191,191)"  stroke="rgb(191,191,191)" stroke-width="1" font-size="16" >H</text>
<text x="520.057181" y="489.355574" fill="rgb(191,191,191)"  stroke="rgb(191,191,191)" stroke-width="1" font-size="16" >H</text>
<text x="520.057181" y="568.196153" fill="rgb(191,191,191)"  stroke="rgb(191,191,191)" stroke-width="1" font-size="16" >H</text>
<text x="378.219974" y="214.828670" fill="rgb(191,191,191)"  stroke="rgb(191,191,191)" stroke-width="1" font-size="16" >H</text>
<text x="383.501291" y="568.196153" fill="rgb(191,191,191)"  stroke="rgb(191,191,191)" stroke-width="1" font-size="16" >H</text>
<text x="344.081001" y="518.213229" fill="rgb(191,191,191)"  stroke="rgb(191,191,191)" stroke-width="1" font-size="16" >H</text>
<text x="245.530277" y="523.494546" fill="rgb(191,191,191)"  stroke="rgb(191,191,191)" stroke-width="1" font-size="16" >H</text>
<text x="225.820132" y="410.514994" fill="rgb(191,191,191)"  stroke="rgb(191,191,191)" stroke-width="1" font-size="16" >H</text>
<text x="206.109987" y="444.653966" fill="rgb(191,191,191)"  stroke="rgb(191,191,191)" stroke-width="1" font-size="16" >H</text>
<text x="279.669249" y="424.943822" fill="rgb(191,191,191)"  stroke="rgb(191,191,191)" stroke-width="1" font-size="16" >H</text>
<text x="171.971014" y="503.784401" fill="rgb(191,191,191)"  stroke="rgb(191,191,191)" stroke-width="1" font-size="16" >H</text>
<text x="659.680685" y="211.944180" fill="rgb(12,12,255)"  stroke="rgb(12,12,255)" stroke-width="1" font-size="16" >+</text>
<text x="648.880685" y="223.976180" fill="rgb(12,12,255)"  stroke="rgb(12,12,255)" stroke-width="1" font-size="16" >N</text>
<text x="648.880685" y="145.135600" fill="rgb(191,191,191)"  stroke="rgb(191,191,191)" stroke-width="1" font-size="16" >H</text>
<text x="206.109987" y="523.494546" fill="rgb(191,191,191)"  stroke="rgb(191,191,191)" stroke-width="1" font-size="16" >H</text>
<text x="589.750251" y="297.535442" fill="rgb(191,191,191)"  stroke="rgb(191,191,191)" stroke-width="1" font-size="16" >H</text>
<text x="555.611278" y="277.825297" fill="rgb(191,191,191)"  stroke="rgb(191,191,191)" stroke-width="1" font-size="16" >H</text>
<text x="575.321423" y="351.384559" fill="rgb(191,191,191)"  stroke="rgb(191,191,191)" stroke-width="1" font-size="16" >H</text>
<text x="476.770699" y="385.523532" fill="rgb(191,191,191)"  stroke="rgb(191,191,191)" stroke-width="1" font-size="16" >H</text>
<text x="344.081001" y="371.094704" fill="rgb(191,191,191)"  stroke="rgb(191,191,191)" stroke-width="1" font-size="16" >H</text>
<text x="378.219974" y="390.804849" fill="rgb(191,191,191)"  stroke="rgb(191,191,191)" stroke-width="1" font-size="16" >H</text>
<text x="417.640264" y="283.106614" fill="rgb(191,191,191)"  stroke="rgb(191,191,191)" stroke-width="1" font-size="16" >H</text>
<text x="688.300975" y="116.277945" fill="rgb(191,191,191)"  stroke="rgb(191,191,191)" stroke-width="1" font-size="16" >H</text>
<text x="73.420290" y="656.184243" fill="rgb(191,191,191)"  stroke="rgb(191,191,191)" stroke-width="1" font-size="16" >H</text>
<text x="482.052016" y="258.115152" fill="rgb(191,191,191)"  stroke="rgb(191,191,191)" stroke-width="1" font-size="16" >H</text>
<text x="570.040106" y="145.135600" fill="rgb(191,191,191)"  stroke="rgb(191,191,191)" stroke-width="1" font-size="16" >H</text>
<text x="589.750251" y="179.274572" fill="rgb(191,191,191)"  stroke="rgb(191,191,191)" stroke-width="1" font-size="16" >H</text>
<text x="516.190988" y="159.564427" fill="rgb(191,191,191)"  stroke="rgb(191,191,191)" stroke-width="1" font-size="16" >H</text>
<text x="609.460396" y="252.833835" fill="rgb(191,191,191)"  stroke="rgb(191,191,191)" stroke-width="1" font-size="16" >H</text>
<text x="761.860238" y="204.266035" fill="rgb(191,191,191)"  stroke="rgb(191,191,191)" stroke-width="1" font-size="16" >H</text>
<text x="727.721265" y="223.976180" fill="rgb(191,191,191)"  stroke="rgb(191,191,191)" stroke-width="1" font-size="16" >H</text>
<text x="34.000000" y="724.462188" fill="rgb(191,191,191)"  stroke="rgb(191,191,191)" stroke-width="1" font-size="16" >H</text>
<text x="727.721265" y="48.000000" fill="rgb(191,191,191)"  stroke="rgb(191,191,191)" stroke-width="1" font-size="16" >H</text>
<text x="806.561845" y="48.000000" fill="rgb(191,191,191)"  stroke="rgb(191,191,191)" stroke-width="1" font-size="16" >H</text>
<text x="845.982135" y="116.277945" fill="rgb(191,191,191)"  stroke="rgb(191,191,191)" stroke-width="1" font-size="16" >H</text>
<text x="806.561845" y="184.555890" fill="rgb(191,191,191)"  stroke="rgb(191,191,191)" stroke-width="1" font-size="16" >H</text>
<text x="688.300975" y="223.976180" fill="rgb(191,191,191)"  stroke="rgb(191,191,191)" stroke-width="1" font-size="16" >H</text>
<text x="648.880685" y="263.396469" fill="rgb(191,191,191)"  stroke="rgb(191,191,191)" stroke-width="1" font-size="16" >H</text>
<text x="609.460396" y="223.976180" fill="rgb(191,191,191)"  stroke="rgb(191,191,191)" stroke-width="1" font-size="16" >H</text>
<text x="152.260870" y="792.740133" fill="rgb(191,191,191)"  stroke="rgb(191,191,191)" stroke-width="1" font-size="16" >H</text>
<text x="191.681159" y="724.462188" fill="rgb(191,191,191)"  stroke="rgb(191,191,191)" stroke-width="1" font-size="16" >H</text>
<text x="152.260870" y="616.763953" fill="rgb(191,191,191)"  stroke="rgb(191,191,191)" stroke-width="1" font-size="16" >H</text>
<text x="118.121897" y="636.474098" fill="rgb(191,191,191)"  stroke="rgb(191,191,191)" stroke-width="1" font-size="16" >H</text>
<text x="319.089539" y="740.306140" fill="rgb(191,191,191)"  stroke="rgb(191,191,191)" stroke-width="1" font-size="16" >H</text>
<text x="338.799684" y="666.746878" fill="rgb(191,191,191)"  stroke="rgb(191,191,191)" stroke-width="1" font-size="16" >H</text>
<text x="358.509829" y="700.885851" fill="rgb(191,191,191)"  stroke="rgb(191,191,191)" stroke-width="1" font-size="16" >H</text>
<text x="225.820132" y="715.314678" fill="rgb(191,191,191)"  stroke="rgb(191,191,191)" stroke-width="1" font-size="16" >H</text>
<text x="299.379394" y="735.024823" fill="rgb(191,191,191)"  stroke="rgb(191,191,191)" stroke-width="1" font-size="16" >H</text>
<text x="265.240422" y="754.734968" fill="rgb(191,191,191)"  stroke="rgb(191,191,191)" stroke-width="1" font-size="16" >H</text>
<text x="304.660712" y="647.036733" fill="rgb(191,191,191)"  stroke="rgb(191,191,191)" stroke-width="1" font-size="16" >H</text>
<text x="211.391304" y="661.465561" fill="rgb(191,191,191)"  stroke="rgb(191,191,191)" stroke-width="1" font-size="16" >H</text>
<text x="231.101449" y="695.604533" fill="rgb(191,191,191)"  stroke="rgb(191,191,191)" stroke-width="1" font-size="16" >H</text>
<text x="216.672622" y="562.914836" fill="rgb(191,191,191)"  stroke="rgb(191,191,191)" stroke-width="1" font-size="16" >H</text>
<text x="186.399842" y="449.935284" fill="rgb(191,191,191)"  stroke="rgb(191,191,191)" stroke-width="1" font-size="16" >H</text>
<text x="247.959104" y="214.828670" fill="rgb(255,12,12)"  stroke="rgb(255,12,12)" stroke-width="1" font-size="16" >HO</text>
<text x="451.779236" y="410.514994" fill="rgb(255,12,12)"  stroke="rgb(255,12,12)" stroke-width="1" font-size="16" >O</text>
<text x="383.501291" y="410.514994" fill="rgb(12,12,255)"  stroke="rgb(12,12,255)" stroke-width="1" font-size="16" >N</text>
<text x="422.921581" y="449.935284" fill="rgb(191,191,191)"  stroke="rgb(191,191,191)" stroke-width="1" font-size="16" >H</text>
<text x="319.089539" y="180.689697" fill="rgb(255,12,12)"  stroke="rgb(255,12,12)" stroke-width="1" font-size="16" >O</text>
<text x="324.370856" y="415.796311" fill="rgb(255,12,12)"  stroke="rgb(255,12,12)" stroke-width="1" font-size="16" >O</text>
<text x="324.370856" y="484.074256" fill="rgb(12,12,255)"  stroke="rgb(12,12,255)" stroke-width="1" font-size="16" >N</text>
<text x="299.379394" y="214.828670" fill="rgb(12,12,255)"  stroke="rgb(12,12,255)" stroke-width="1" font-size="16" >N</text>
<text x="417.640264" y="311.964269" fill="rgb(191,191,191)"  stroke="rgb(191,191,191)" stroke-width="1" font-size="16" >H</text>
<text x="457.060554" y="351.384559" fill="rgb(12,12,255)"  stroke="rgb(12,12,255)" stroke-width="1" font-size="16" >N</text>
<text x="457.060554" y="283.106614" fill="rgb(255,12,12)"  stroke="rgb(255,12,12)" stroke-width="1" font-size="16" >O</text>
<text x="516.190988" y="356.665877" fill="rgb(191,191,191)"  stroke="rgb(191,191,191)" stroke-width="1" font-size="16" >H</text>
<text x="93.130435" y="758.601161" fill="rgb(12,12,255)"  stroke="rgb(12,12,255)" stroke-width="1" font-size="16" >N</text>
<text x="516.190988" y="277.825297" fill="rgb(12,12,255)"  stroke="rgb(12,12,255)" stroke-width="1" font-size="16" >N</text>
<text x="191.681159" y="656.184243" fill="rgb(255,12,12)"  stroke="rgb(255,12,12)" stroke-width="1" font-size="16" >O</text>
<text x="584.468933" y="277.825297" fill="rgb(255,12,12)"  stroke="rgb(255,12,12)" stroke-width="1" font-size="16" >O</text>
<text x="510.909671" y="218.694862" fill="rgb(191,191,191)"  stroke="rgb(191,191,191)" stroke-width="1" font-size="16" >H</text>
<text x="589.750251" y="218.694862" fill="rgb(12,12,255)"  stroke="rgb(12,12,255)" stroke-width="1" font-size="16" >N</text>
<text x="589.750251" y="150.416917" fill="rgb(255,12,12)"  stroke="rgb(255,12,12)" stroke-width="1" font-size="16" >O</text>
<text x="191.681159" y="587.906298" fill="rgb(255,12,12)"  stroke="rgb(255,12,12)" stroke-width="1" font-size="16" >O</text>
<text x="290.231884" y="622.045271" fill="rgb(191,191,191)"  stroke="rgb(191,191,191)" stroke-width="1" font-size="16" >H</text>
<text x="250.811594" y="582.624981" fill="rgb(12,12,255)"  stroke="rgb(12,12,255)" stroke-width="1" font-size="16" >N</text>
<text x="319.089539" y="582.624981" fill="rgb(255,12,12)"  stroke="rgb(255,12,12)" stroke-width="1" font-size="16" >O</text>
<text x="284.950567" y="444.653966" fill="rgb(191,191,191)"  stroke="rgb(191,191,191)" stroke-width="1" font-size="16" >H</text>
</svg>
</g>
<text font-size="18.000000" fill ="black" font-family="sans-serif"
x="10.000000" y="20.000000" >ZINC98216438</text>
</svg>
