<?xml version="1.0"?>
<svg version="1.1" id="topsvg"
xmlns="http://www.w3.org/2000/svg" xmlns:xlink="http://www.w3.org/1999/xlink"
xmlns:cml="http://www.xml-cml.org/schema" x="0" y="0" width="200px" height="200px" viewBox="0 0 100 100">
<title>ZINC34022409 - Open Babel Depiction</title>
<rect x="0" y="0" width="100" height="100" fill="white"/>
<g transform="translate(0,0)">
<svg width="100" height="100" x="0" y="0" viewBox="0 0 361.652 274.641"
font-family="sans-serif" stroke="rgb(0,0,0)" stroke-width="2"  stroke-linecap="round">
<line x1="222.7" y1="74.9" x2="202.7" y2="56.8" stroke="rgb(0,0,0)"  stroke-width="2.0"/>
<line x1="218.6" y1="114.6" x2="183.9" y2="134.6" stroke="rgb(0,0,0)"  stroke-width="2.0"/>
<line x1="281.9" y1="101.2" x2="308.7" y2="104.0" stroke="rgb(0,0,0)"  stroke-width="2.0"/>
<line x1="183.9" y1="134.6" x2="160.5" y2="121.1" stroke="rgb(0,0,0)"  stroke-width="2.0"/>
<line x1="183.9" y1="134.6" x2="170.4" y2="158.0" stroke="rgb(0,0,0)"  stroke-width="2.0"/>
<line x1="183.9" y1="134.6" x2="197.4" y2="158.0" stroke="rgb(0,0,0)"  stroke-width="2.0"/>
<line x1="149.3" y1="74.6" x2="176.3" y2="74.6" stroke="rgb(0,0,0)"  stroke-width="2.0"/>
<line x1="149.3" y1="74.6" x2="162.8" y2="51.3" stroke="rgb(0,0,0)"  stroke-width="2.0"/>
<line x1="80.0" y1="74.6" x2="66.5" y2="51.3" stroke="rgb(0,0,0)"  stroke-width="2.0"/>
<line x1="80.0" y1="74.6" x2="53.0" y2="74.6" stroke="rgb(0,0,0)"  stroke-width="2.0"/>
<line x1="117.6" y1="134.6" x2="117.6" y2="161.6" stroke="rgb(0,0,0)"  stroke-width="2.0"/>
<line x1="111.6" y1="134.6" x2="111.6" y2="161.6" stroke="rgb(0,0,0)"  stroke-width="2.0"/>
<line x1="125.9" y1="181.1" x2="138.0" y2="188.1" stroke="rgb(0,0,0)"  stroke-width="2.0"/>
<line x1="159.0" y1="185.5" x2="171.2" y2="178.5" stroke="rgb(0,0,0)"  stroke-width="2.0"/>
<line x1="162.0" y1="190.7" x2="174.2" y2="183.7" stroke="rgb(0,0,0)"  stroke-width="2.0"/>
<line x1="149.3" y1="207.6" x2="149.3" y2="221.6" stroke="rgb(0,0,0)"  stroke-width="2.0"/>
<line x1="263.8" y1="121.2" x2="281.9" y2="101.2" stroke="rgb(0,0,0)"  stroke-width="2.0"/>
<line x1="281.9" y1="101.2" x2="268.5" y2="78.0" stroke="rgb(0,0,0)"  stroke-width="2.0"/>
<line x1="272.6" y1="99.6" x2="263.2" y2="83.3" stroke="rgb(0,0,0)"  stroke-width="2.0"/>
<line x1="249.2" y1="69.2" x2="222.7" y2="74.9" stroke="rgb(0,0,0)"  stroke-width="2.0"/>
<line x1="222.7" y1="74.9" x2="218.6" y2="114.6" stroke="rgb(0,0,0)"  stroke-width="2.0"/>
<line x1="229.3" y1="81.6" x2="226.4" y2="109.4" stroke="rgb(0,0,0)"  stroke-width="2.0"/>
<line x1="218.6" y1="114.6" x2="243.2" y2="125.6" stroke="rgb(0,0,0)"  stroke-width="2.0"/>
<line x1="103.4" y1="61.1" x2="80.0" y2="74.6" stroke="rgb(0,0,0)"  stroke-width="2.0"/>
<line x1="80.0" y1="74.6" x2="80.0" y2="101.6" stroke="rgb(0,0,0)"  stroke-width="2.0"/>
<line x1="91.3" y1="121.1" x2="114.6" y2="134.6" stroke="rgb(0,0,0)"  stroke-width="2.0"/>
<line x1="114.6" y1="134.6" x2="138.0" y2="121.1" stroke="rgb(0,0,0)"  stroke-width="2.0"/>
<line x1="149.3" y1="101.6" x2="149.3" y2="74.6" stroke="rgb(0,0,0)"  stroke-width="2.0"/>
<line x1="149.3" y1="74.6" x2="125.9" y2="61.1" stroke="rgb(0,0,0)"  stroke-width="2.0"/>
<text x="34.000000" y="82.641016" fill="rgb(191,191,191)"  stroke="rgb(191,191,191)" stroke-width="1" font-size="16" >H</text>
<text x="54.000000" y="48.000000" fill="rgb(191,191,191)"  stroke="rgb(191,191,191)" stroke-width="1" font-size="16" >H</text>
<text x="163.282032" y="48.000000" fill="rgb(191,191,191)"  stroke="rgb(191,191,191)" stroke-width="1" font-size="16" >H</text>
<text x="183.282032" y="82.641016" fill="rgb(191,191,191)"  stroke="rgb(191,191,191)" stroke-width="1" font-size="16" >H</text>
<text x="197.923048" y="177.282032" fill="rgb(191,191,191)"  stroke="rgb(191,191,191)" stroke-width="1" font-size="16" >H</text>
<text x="157.923048" y="177.282032" fill="rgb(191,191,191)"  stroke="rgb(191,191,191)" stroke-width="1" font-size="16" >H</text>
<text x="187.019410" y="56.094916" fill="rgb(191,191,191)"  stroke="rgb(191,191,191)" stroke-width="1" font-size="16" >H</text>
<text x="143.282032" y="242.641016" fill="rgb(255,12,12)"  stroke="rgb(255,12,12)" stroke-width="1" font-size="16" >OH</text>
<text x="177.923048" y="182.641016" fill="rgb(255,12,12)"  stroke="rgb(255,12,12)" stroke-width="1" font-size="16" >O</text>
<text x="143.282032" y="202.641016" fill="rgb(12,12,255)"  stroke="rgb(12,12,255)" stroke-width="1" font-size="16" >N</text>
<text x="108.641016" y="182.641016" fill="rgb(12,12,255)"  stroke="rgb(12,12,255)" stroke-width="1" font-size="16" >N</text>
<text x="62.000000" y="122.641016" fill="rgb(12,12,255)"  stroke="rgb(12,12,255)" stroke-width="1" font-size="16" >HN</text>
<text x="108.641016" y="62.641016" fill="rgb(255,12,12)"  stroke="rgb(255,12,12)" stroke-width="1" font-size="16" >O</text>
<text x="143.282032" y="122.641016" fill="rgb(12,12,255)"  stroke="rgb(12,12,255)" stroke-width="1" font-size="16" >N</text>
<text x="315.651983" y="113.365827" fill="rgb(30,239,30)"  stroke="rgb(30,239,30)" stroke-width="1" font-size="16" >Cl</text>
<text x="255.871107" y="74.543673" fill="rgb(12,12,255)"  stroke="rgb(12,12,255)" stroke-width="1" font-size="16" >N</text>
<text x="249.105883" y="138.910482" fill="rgb(178,178,0)"  stroke="rgb(178,178,0)" stroke-width="1" font-size="16" >S</text>
</svg>
</g>
<text font-size="18.000000" fill ="black" font-family="sans-serif"
x="10.000000" y="20.000000" >ZINC34022409</text>
</svg>
