<?xml version="1.0"?>
<svg version="1.1" id="topsvg"
xmlns="http://www.w3.org/2000/svg" xmlns:xlink="http://www.w3.org/1999/xlink"
xmlns:cml="http://www.xml-cml.org/schema" x="0" y="0" width="200px" height="200px" viewBox="0 0 100 100">
<title>ZINC19472441 - Open Babel Depiction</title>
<rect x="0" y="0" width="100" height="100" fill="white"/>
<g transform="translate(0,0)">
<svg width="100" height="100" x="0" y="0" viewBox="0 0 289.282 249.282"
font-family="sans-serif" stroke="rgb(0,0,0)" stroke-width="2"  stroke-linecap="round">
<line x1="214.6" y1="100.0" x2="174.6" y2="100.0" stroke="rgb(0,0,0)"  stroke-width="2.0"/>
<line x1="214.6" y1="100.0" x2="238.0" y2="86.5" stroke="rgb(0,0,0)"  stroke-width="2.0"/>
<line x1="214.6" y1="100.0" x2="214.6" y2="73.0" stroke="rgb(0,0,0)"  stroke-width="2.0"/>
<line x1="214.6" y1="100.0" x2="228.1" y2="123.4" stroke="rgb(0,0,0)"  stroke-width="2.0"/>
<polygon points="174.641016 100.000000 178.641016 126.800000 170.641016 126.800000 " stroke-width="2.000000" fill="rgb(0,0,0)"  stroke="rgb(0,0,0)" />
<line x1="174.6" y1="100.0" x2="134.6" y2="100.0" stroke="rgb(0,0,0)"  stroke-width="2.0"/>
<line x1="174.6" y1="100.0" x2="174.6" y2="73.0" stroke="rgb(0,0,0)"  stroke-width="2.0"/>
<line x1="132.0" y1="101.5" x2="118.5" y2="78.1" stroke="rgb(0,0,0)"  stroke-width="2.0"/>
<line x1="137.2" y1="98.5" x2="123.7" y2="75.1" stroke="rgb(0,0,0)"  stroke-width="2.0"/>
<line x1="134.6" y1="100.0" x2="121.1" y2="123.4" stroke="rgb(0,0,0)"  stroke-width="2.0"/>
<line x1="121.1" y1="145.9" x2="134.6" y2="169.3" stroke="rgb(0,0,0)"  stroke-width="2.0"/>
<line x1="101.6" y1="134.6" x2="74.6" y2="134.6" stroke="rgb(0,0,0)"  stroke-width="2.0"/>
<line x1="134.6" y1="169.3" x2="134.6" y2="196.3" stroke="rgb(0,0,0)"  stroke-width="2.0"/>
<line x1="134.6" y1="169.3" x2="111.3" y2="182.8" stroke="rgb(0,0,0)"  stroke-width="2.0"/>
<line x1="134.6" y1="169.3" x2="161.6" y2="169.3" stroke="rgb(0,0,0)"  stroke-width="2.0"/>
<line x1="74.6" y1="134.6" x2="51.3" y2="121.1" stroke="rgb(0,0,0)"  stroke-width="2.0"/>
<line x1="74.6" y1="134.6" x2="74.6" y2="107.6" stroke="rgb(0,0,0)"  stroke-width="2.0"/>
<line x1="74.6" y1="134.6" x2="61.1" y2="158.0" stroke="rgb(0,0,0)"  stroke-width="2.0"/>
<line x1="163.4" y1="53.5" x2="151.3" y2="46.5" stroke="rgb(0,0,0)"  stroke-width="2.0"/>
<line x1="185.9" y1="53.5" x2="198.0" y2="46.5" stroke="rgb(0,0,0)"  stroke-width="2.0"/>
<text x="208.641016" y="68.000000" fill="rgb(191,191,191)"  stroke="rgb(191,191,191)" stroke-width="1" font-size="16" >H</text>
<text x="203.282032" y="48.000000" fill="rgb(191,191,191)"  stroke="rgb(191,191,191)" stroke-width="1" font-size="16" >H</text>
<text x="134.000000" y="48.000000" fill="rgb(191,191,191)"  stroke="rgb(191,191,191)" stroke-width="1" font-size="16" >H</text>
<text x="48.641016" y="177.282032" fill="rgb(191,191,191)"  stroke="rgb(191,191,191)" stroke-width="1" font-size="16" >H</text>
<text x="68.641016" y="102.641016" fill="rgb(191,191,191)"  stroke="rgb(191,191,191)" stroke-width="1" font-size="16" >H</text>
<text x="34.000000" y="122.641016" fill="rgb(191,191,191)"  stroke="rgb(191,191,191)" stroke-width="1" font-size="16" >H</text>
<text x="168.641016" y="177.282032" fill="rgb(191,191,191)"  stroke="rgb(191,191,191)" stroke-width="1" font-size="16" >H</text>
<text x="94.000000" y="197.282032" fill="rgb(191,191,191)"  stroke="rgb(191,191,191)" stroke-width="1" font-size="16" >H</text>
<text x="128.641016" y="217.282032" fill="rgb(191,191,191)"  stroke="rgb(191,191,191)" stroke-width="1" font-size="16" >H</text>
<text x="228.641016" y="142.641016" fill="rgb(191,191,191)"  stroke="rgb(191,191,191)" stroke-width="1" font-size="16" >H</text>
<text x="243.282032" y="88.000000" fill="rgb(191,191,191)"  stroke="rgb(191,191,191)" stroke-width="1" font-size="16" >H</text>
<text x="168.641016" y="68.000000" fill="rgb(12,12,255)"  stroke="rgb(12,12,255)" stroke-width="1" font-size="16" >N</text>
<text x="108.641016" y="142.641016" fill="rgb(12,12,255)"  stroke="rgb(12,12,255)" stroke-width="1" font-size="16" >N</text>
<text x="108.641016" y="73.358984" fill="rgb(255,12,12)"  stroke="rgb(255,12,12)" stroke-width="1" font-size="16" >O</text>
<text x="168.641016" y="148.000000" fill="rgb(191,191,191)"  stroke="rgb(191,191,191)" stroke-width="1" font-size="16" >H</text>
</svg>
</g>
<text font-size="18.000000" fill ="black" font-family="sans-serif"
x="10.000000" y="20.000000" >ZINC19472441</text>
</svg>
