<?xml version="1.0"?>
<svg version="1.1" id="topsvg"
xmlns="http://www.w3.org/2000/svg" xmlns:xlink="http://www.w3.org/1999/xlink"
xmlns:cml="http://www.xml-cml.org/schema" x="0" y="0" width="200px" height="200px" viewBox="0 0 100 100">
<title>ZINC04810228 - Open Babel Depiction</title>
<rect x="0" y="0" width="100" height="100" fill="white"/>
<g transform="translate(0,0)">
<svg width="100" height="100" x="0" y="0" viewBox="0 0 438.318 249.915"
font-family="sans-serif" stroke="rgb(0,0,0)" stroke-width="2"  stroke-linecap="round">
<line x1="112.6" y1="176.2" x2="112.6" y2="137.3" stroke="rgb(0,0,0)"  stroke-width="2.0"/>
<line x1="112.6" y1="176.2" x2="125.5" y2="198.7" stroke="rgb(0,0,0)"  stroke-width="2.0"/>
<line x1="112.6" y1="176.2" x2="138.5" y2="176.2" stroke="rgb(0,0,0)"  stroke-width="2.0"/>
<line x1="112.6" y1="176.2" x2="90.1" y2="189.2" stroke="rgb(0,0,0)"  stroke-width="2.0"/>
<line x1="112.6" y1="137.3" x2="73.7" y2="137.3" stroke="rgb(0,0,0)"  stroke-width="2.0"/>
<line x1="112.6" y1="137.3" x2="112.6" y2="98.5" stroke="rgb(0,0,0)"  stroke-width="2.0"/>
<line x1="112.6" y1="137.3" x2="151.5" y2="137.3" stroke="rgb(0,0,0)"  stroke-width="2.0"/>
<line x1="73.7" y1="137.3" x2="51.3" y2="124.4" stroke="rgb(0,0,0)"  stroke-width="2.0"/>
<line x1="73.7" y1="137.3" x2="73.7" y2="111.5" stroke="rgb(0,0,0)"  stroke-width="2.0"/>
<line x1="73.7" y1="137.3" x2="60.7" y2="159.8" stroke="rgb(0,0,0)"  stroke-width="2.0"/>
<line x1="112.6" y1="98.5" x2="125.5" y2="76.0" stroke="rgb(0,0,0)"  stroke-width="2.0"/>
<line x1="112.6" y1="98.5" x2="138.5" y2="98.5" stroke="rgb(0,0,0)"  stroke-width="2.0"/>
<line x1="112.6" y1="98.5" x2="90.1" y2="85.5" stroke="rgb(0,0,0)"  stroke-width="2.0"/>
<line x1="170.9" y1="103.7" x2="158.0" y2="81.2" stroke="rgb(0,0,0)"  stroke-width="2.0"/>
<line x1="209.8" y1="103.7" x2="222.7" y2="81.2" stroke="rgb(0,0,0)"  stroke-width="2.0"/>
<line x1="229.2" y1="137.3" x2="307.0" y2="137.3" stroke="rgb(0,0,0)"  stroke-width="2.0"/>
<line x1="209.8" y1="171.0" x2="222.7" y2="193.4" stroke="rgb(0,0,0)"  stroke-width="2.0"/>
<line x1="170.9" y1="171.0" x2="158.0" y2="193.4" stroke="rgb(0,0,0)"  stroke-width="2.0"/>
<line x1="329.9" y1="168.8" x2="321.9" y2="193.4" stroke="rgb(0,0,0)"  stroke-width="2.0"/>
<line x1="377.4" y1="164.4" x2="387.8" y2="172.0" stroke="rgb(0,0,0)"  stroke-width="2.0"/>
<line x1="387.8" y1="102.7" x2="377.4" y2="110.3" stroke="rgb(0,0,0)"  stroke-width="2.0"/>
<line x1="329.9" y1="105.9" x2="321.9" y2="81.3" stroke="rgb(0,0,0)"  stroke-width="2.0"/>
<line x1="305.1" y1="66.2" x2="292.5" y2="63.5" stroke="rgb(0,0,0)"  stroke-width="2.0"/>
<line x1="326.6" y1="59.2" x2="335.2" y2="49.7" stroke="rgb(0,0,0)"  stroke-width="2.0"/>
<line x1="329.9" y1="168.8" x2="307.0" y2="137.3" stroke="rgb(0,0,0)"  stroke-width="2.0"/>
<line x1="307.0" y1="137.3" x2="329.9" y2="105.9" stroke="rgb(0,0,0)"  stroke-width="2.0"/>
<line x1="316.4" y1="136.7" x2="332.2" y2="115.0" stroke="rgb(0,0,0)"  stroke-width="2.0"/>
<line x1="329.9" y1="105.9" x2="354.5" y2="113.9" stroke="rgb(0,0,0)"  stroke-width="2.0"/>
<line x1="366.9" y1="130.9" x2="366.9" y2="143.8" stroke="rgb(0,0,0)"  stroke-width="2.0"/>
<line x1="354.7" y1="160.8" x2="329.9" y2="168.8" stroke="rgb(0,0,0)"  stroke-width="2.0"/>
<line x1="350.4" y1="154.6" x2="333.4" y2="160.1" stroke="rgb(0,0,0)"  stroke-width="2.0"/>
<line x1="209.8" y1="103.7" x2="229.2" y2="137.3" stroke="rgb(0,0,0)"  stroke-width="2.0"/>
<line x1="229.2" y1="137.3" x2="209.8" y2="171.0" stroke="rgb(0,0,0)"  stroke-width="2.0"/>
<line x1="220.0" y1="138.9" x2="206.6" y2="162.2" stroke="rgb(0,0,0)"  stroke-width="2.0"/>
<line x1="209.8" y1="171.0" x2="170.9" y2="171.0" stroke="rgb(0,0,0)"  stroke-width="2.0"/>
<line x1="170.9" y1="171.0" x2="151.5" y2="137.3" stroke="rgb(0,0,0)"  stroke-width="2.0"/>
<line x1="174.1" y1="162.2" x2="160.7" y2="138.9" stroke="rgb(0,0,0)"  stroke-width="2.0"/>
<line x1="151.5" y1="137.3" x2="170.9" y2="103.7" stroke="rgb(0,0,0)"  stroke-width="2.0"/>
<line x1="170.9" y1="103.7" x2="209.8" y2="103.7" stroke="rgb(0,0,0)"  stroke-width="2.0"/>
<line x1="176.9" y1="110.9" x2="203.8" y2="110.9" stroke="rgb(0,0,0)"  stroke-width="2.0"/>
<text x="145.456543" y="77.989848" fill="rgb(191,191,191)"  stroke="rgb(191,191,191)" stroke-width="1" font-size="16" >H</text>
<text x="145.456543" y="184.236269" fill="rgb(191,191,191)"  stroke="rgb(191,191,191)" stroke-width="1" font-size="16" >H</text>
<text x="72.888889" y="203.680713" fill="rgb(191,191,191)"  stroke="rgb(191,191,191)" stroke-width="1" font-size="16" >H</text>
<text x="34.000000" y="125.902935" fill="rgb(191,191,191)"  stroke="rgb(191,191,191)" stroke-width="1" font-size="16" >H</text>
<text x="67.678766" y="106.458491" fill="rgb(191,191,191)"  stroke="rgb(191,191,191)" stroke-width="1" font-size="16" >H</text>
<text x="48.234321" y="179.026145" fill="rgb(191,191,191)"  stroke="rgb(191,191,191)" stroke-width="1" font-size="16" >H</text>
<text x="126.012099" y="72.779725" fill="rgb(191,191,191)"  stroke="rgb(191,191,191)" stroke-width="1" font-size="16" >H</text>
<text x="145.456543" y="106.458491" fill="rgb(191,191,191)"  stroke="rgb(191,191,191)" stroke-width="1" font-size="16" >H</text>
<text x="72.888889" y="87.014046" fill="rgb(191,191,191)"  stroke="rgb(191,191,191)" stroke-width="1" font-size="16" >H</text>
<text x="126.012099" y="217.915034" fill="rgb(191,191,191)"  stroke="rgb(191,191,191)" stroke-width="1" font-size="16" >H</text>
<text x="223.234321" y="77.989848" fill="rgb(191,191,191)"  stroke="rgb(191,191,191)" stroke-width="1" font-size="16" >H</text>
<text x="223.234321" y="212.704911" fill="rgb(191,191,191)"  stroke="rgb(191,191,191)" stroke-width="1" font-size="16" >H</text>
<text x="145.456543" y="212.704911" fill="rgb(191,191,191)"  stroke="rgb(191,191,191)" stroke-width="1" font-size="16" >H</text>
<text x="311.853087" y="213.794683" fill="rgb(191,191,191)"  stroke="rgb(191,191,191)" stroke-width="1" font-size="16" >H</text>
<text x="273.814013" y="68.814622" fill="rgb(191,191,191)"  stroke="rgb(191,191,191)" stroke-width="1" font-size="16" >H</text>
<text x="337.874833" y="48.000000" fill="rgb(191,191,191)"  stroke="rgb(191,191,191)" stroke-width="1" font-size="16" >H</text>
<text x="392.317718" y="187.650140" fill="rgb(191,191,191)"  stroke="rgb(191,191,191)" stroke-width="1" font-size="16" >H</text>
<text x="360.855946" y="164.791824" fill="rgb(12,12,255)"  stroke="rgb(12,12,255)" stroke-width="1" font-size="16" >N</text>
<text x="392.317718" y="103.044620" fill="rgb(191,191,191)"  stroke="rgb(191,191,191)" stroke-width="1" font-size="16" >H</text>
<text x="360.855946" y="125.902935" fill="rgb(12,12,255)"  stroke="rgb(12,12,255)" stroke-width="1" font-size="16" >N</text>
<text x="311.853087" y="76.900077" fill="rgb(12,12,255)"  stroke="rgb(12,12,255)" stroke-width="1" font-size="16" >N</text>
</svg>
</g>
<text font-size="18.000000" fill ="black" font-family="sans-serif"
x="10.000000" y="20.000000" >ZINC04810228</text>
</svg>
