<?xml version="1.0"?>
<svg version="1.1" id="topsvg"
xmlns="http://www.w3.org/2000/svg" xmlns:xlink="http://www.w3.org/1999/xlink"
xmlns:cml="http://www.xml-cml.org/schema" x="0" y="0" width="200px" height="200px" viewBox="0 0 100 100">
<title>ZINC12955371 - Open Babel Depiction</title>
<rect x="0" y="0" width="100" height="100" fill="white"/>
<g transform="translate(0,0)">
<svg width="100" height="100" x="0" y="0" viewBox="0 0 401.093 319.616"
font-family="sans-serif" stroke="rgb(0,0,0)" stroke-width="2"  stroke-linecap="round">
<line x1="327.4" y1="195.8" x2="349.8" y2="208.8" stroke="rgb(0,0,0)"  stroke-width="2.0"/>
<line x1="327.4" y1="156.8" x2="349.8" y2="143.9" stroke="rgb(0,0,0)"  stroke-width="2.0"/>
<line x1="259.9" y1="195.8" x2="237.4" y2="208.8" stroke="rgb(0,0,0)"  stroke-width="2.0"/>
<line x1="293.6" y1="215.3" x2="293.6" y2="241.2" stroke="rgb(0,0,0)"  stroke-width="2.0"/>
<line x1="226.2" y1="137.4" x2="170.0" y2="169.8" stroke="rgb(0,0,0)"  stroke-width="2.0"/>
<line x1="226.2" y1="98.4" x2="203.7" y2="85.4" stroke="rgb(0,0,0)"  stroke-width="2.0"/>
<line x1="259.9" y1="78.9" x2="259.9" y2="53.0" stroke="rgb(0,0,0)"  stroke-width="2.0"/>
<line x1="126.5" y1="154.4" x2="142.7" y2="134.1" stroke="rgb(0,0,0)"  stroke-width="2.0"/>
<line x1="126.5" y1="154.4" x2="117.1" y2="130.2" stroke="rgb(0,0,0)"  stroke-width="2.0"/>
<line x1="89.3" y1="165.9" x2="83.5" y2="140.6" stroke="rgb(0,0,0)"  stroke-width="2.0"/>
<line x1="89.3" y1="165.9" x2="64.5" y2="158.2" stroke="rgb(0,0,0)"  stroke-width="2.0"/>
<line x1="75.1" y1="202.1" x2="51.7" y2="190.9" stroke="rgb(0,0,0)"  stroke-width="2.0"/>
<line x1="75.1" y1="202.1" x2="53.7" y2="216.7" stroke="rgb(0,0,0)"  stroke-width="2.0"/>
<line x1="82.9" y1="241.5" x2="71.2" y2="247.1" stroke="rgb(0,0,0)"  stroke-width="2.0"/>
<line x1="93.6" y1="248.8" x2="92.6" y2="261.7" stroke="rgb(0,0,0)"  stroke-width="2.0"/>
<line x1="133.1" y1="241.6" x2="127.3" y2="266.9" stroke="rgb(0,0,0)"  stroke-width="2.0"/>
<line x1="133.1" y1="241.6" x2="152.1" y2="259.3" stroke="rgb(0,0,0)"  stroke-width="2.0"/>
<line x1="161.6" y1="215.2" x2="177.8" y2="235.4" stroke="rgb(0,0,0)"  stroke-width="2.0"/>
<line x1="161.6" y1="215.2" x2="187.3" y2="211.3" stroke="rgb(0,0,0)"  stroke-width="2.0"/>
<line x1="293.6" y1="137.4" x2="259.9" y2="156.8" stroke="rgb(0,0,0)"  stroke-width="2.0"/>
<line x1="259.9" y1="156.8" x2="259.9" y2="195.8" stroke="rgb(0,0,0)"  stroke-width="2.0"/>
<line x1="267.1" y1="162.8" x2="267.1" y2="189.8" stroke="rgb(0,0,0)"  stroke-width="2.0"/>
<line x1="259.9" y1="195.8" x2="293.6" y2="215.3" stroke="rgb(0,0,0)"  stroke-width="2.0"/>
<line x1="293.6" y1="215.3" x2="327.4" y2="195.8" stroke="rgb(0,0,0)"  stroke-width="2.0"/>
<line x1="295.2" y1="206.0" x2="318.6" y2="192.6" stroke="rgb(0,0,0)"  stroke-width="2.0"/>
<line x1="327.4" y1="195.8" x2="327.4" y2="156.8" stroke="rgb(0,0,0)"  stroke-width="2.0"/>
<line x1="327.4" y1="156.8" x2="293.6" y2="137.4" stroke="rgb(0,0,0)"  stroke-width="2.0"/>
<line x1="318.6" y1="160.1" x2="295.2" y2="146.6" stroke="rgb(0,0,0)"  stroke-width="2.0"/>
<line x1="259.9" y1="78.9" x2="226.2" y2="98.4" stroke="rgb(0,0,0)"  stroke-width="2.0"/>
<line x1="226.2" y1="98.4" x2="226.2" y2="137.4" stroke="rgb(0,0,0)"  stroke-width="2.0"/>
<line x1="233.4" y1="104.4" x2="233.4" y2="131.4" stroke="rgb(0,0,0)"  stroke-width="2.0"/>
<line x1="226.2" y1="137.4" x2="259.9" y2="156.8" stroke="rgb(0,0,0)"  stroke-width="2.0"/>
<line x1="293.6" y1="137.4" x2="293.6" y2="111.4" stroke="rgb(0,0,0)"  stroke-width="2.0"/>
<line x1="282.5" y1="92.0" x2="259.9" y2="78.9" stroke="rgb(0,0,0)"  stroke-width="2.0"/>
<line x1="277.1" y1="97.2" x2="261.5" y2="88.2" stroke="rgb(0,0,0)"  stroke-width="2.0"/>
<line x1="89.3" y1="165.9" x2="75.1" y2="202.1" stroke="rgb(0,0,0)"  stroke-width="2.0"/>
<line x1="75.1" y1="202.1" x2="88.1" y2="224.6" stroke="rgb(0,0,0)"  stroke-width="2.0"/>
<line x1="107.4" y1="237.8" x2="133.1" y2="241.6" stroke="rgb(0,0,0)"  stroke-width="2.0"/>
<line x1="133.1" y1="241.6" x2="161.6" y2="215.2" stroke="rgb(0,0,0)"  stroke-width="2.0"/>
<line x1="161.6" y1="215.2" x2="159.7" y2="189.3" stroke="rgb(0,0,0)"  stroke-width="2.0"/>
<line x1="148.0" y1="169.0" x2="126.5" y2="154.4" stroke="rgb(0,0,0)"  stroke-width="2.0"/>
<line x1="126.5" y1="154.4" x2="89.3" y2="165.9" stroke="rgb(0,0,0)"  stroke-width="2.0"/>
<text x="46.102392" y="162.375956" fill="rgb(191,191,191)"  stroke="rgb(191,191,191)" stroke-width="1" font-size="16" >H</text>
<text x="355.092773" y="223.263158" fill="rgb(191,191,191)"  stroke="rgb(191,191,191)" stroke-width="1" font-size="16" >H</text>
<text x="355.092773" y="145.368421" fill="rgb(191,191,191)"  stroke="rgb(191,191,191)" stroke-width="1" font-size="16" >H</text>
<text x="220.175131" y="223.263158" fill="rgb(191,191,191)"  stroke="rgb(191,191,191)" stroke-width="1" font-size="16" >H</text>
<text x="186.445720" y="86.947368" fill="rgb(191,191,191)"  stroke="rgb(191,191,191)" stroke-width="1" font-size="16" >H</text>
<text x="253.904541" y="48.000000" fill="rgb(191,191,191)"  stroke="rgb(191,191,191)" stroke-width="1" font-size="16" >H</text>
<text x="144.819771" y="131.925677" fill="rgb(191,191,191)"  stroke="rgb(191,191,191)" stroke-width="1" font-size="16" >H</text>
<text x="106.307413" y="126.120873" fill="rgb(191,191,191)"  stroke="rgb(191,191,191)" stroke-width="1" font-size="16" >H</text>
<text x="74.652833" y="135.885017" fill="rgb(191,191,191)"  stroke="rgb(191,191,191)" stroke-width="1" font-size="16" >H</text>
<text x="34.000000" y="193.212347" fill="rgb(191,191,191)"  stroke="rgb(191,191,191)" stroke-width="1" font-size="16" >H</text>
<text x="36.910540" y="232.050811" fill="rgb(191,191,191)"  stroke="rgb(191,191,191)" stroke-width="1" font-size="16" >H</text>
<text x="53.473684" y="260.739017" fill="rgb(191,191,191)"  stroke="rgb(191,191,191)" stroke-width="1" font-size="16" >H</text>
<text x="118.409804" y="287.616068" fill="rgb(191,191,191)"  stroke="rgb(191,191,191)" stroke-width="1" font-size="16" >H</text>
<text x="155.626850" y="276.136130" fill="rgb(191,191,191)"  stroke="rgb(191,191,191)" stroke-width="1" font-size="16" >H</text>
<text x="179.910137" y="253.604532" fill="rgb(191,191,191)"  stroke="rgb(191,191,191)" stroke-width="1" font-size="16" >H</text>
<text x="194.139209" y="217.349449" fill="rgb(191,191,191)"  stroke="rgb(191,191,191)" stroke-width="1" font-size="16" >H</text>
<text x="85.653510" y="282.678851" fill="rgb(191,191,191)"  stroke="rgb(191,191,191)" stroke-width="1" font-size="16" >H</text>
<text x="287.633952" y="262.210526" fill="rgb(127,178,255)"  stroke="rgb(127,178,255)" stroke-width="1" font-size="16" >F</text>
<text x="287.633952" y="106.421053" fill="rgb(12,12,255)"  stroke="rgb(12,12,255)" stroke-width="1" font-size="16" >N</text>
<text x="152.716310" y="184.315789" fill="rgb(12,12,255)"  stroke="rgb(12,12,255)" stroke-width="1" font-size="16" >N</text>
<text x="99.364051" y="231.808387" fill="rgb(12,12,255)"  stroke="rgb(12,12,255)" stroke-width="1" font-size="16" >+</text>
<text x="88.564051" y="243.840387" fill="rgb(12,12,255)"  stroke="rgb(12,12,255)" stroke-width="1" font-size="16" >N</text>
</svg>
</g>
<text font-size="18.000000" fill ="black" font-family="sans-serif"
x="10.000000" y="20.000000" >ZINC12955371</text>
</svg>
