<?xml version="1.0"?>
<svg version="1.1" id="topsvg"
xmlns="http://www.w3.org/2000/svg" xmlns:xlink="http://www.w3.org/1999/xlink"
xmlns:cml="http://www.xml-cml.org/schema" x="0" y="0" width="200px" height="200px" viewBox="0 0 100 100">
<title>ZINC08143490 - Open Babel Depiction</title>
<rect x="0" y="0" width="100" height="100" fill="white"/>
<g transform="translate(0,0)">
<svg width="100" height="100" x="0" y="0" viewBox="0 0 564.244 503.513"
font-family="sans-serif" stroke="rgb(0,0,0)" stroke-width="2"  stroke-linecap="round">
<line x1="324.5" y1="363.1" x2="328.6" y2="324.7" stroke="rgb(0,0,0)"  stroke-width="2.0"/>
<line x1="324.5" y1="363.1" x2="335.0" y2="386.5" stroke="rgb(0,0,0)"  stroke-width="2.0"/>
<line x1="324.5" y1="363.1" x2="350.0" y2="365.8" stroke="rgb(0,0,0)"  stroke-width="2.0"/>
<line x1="324.5" y1="363.1" x2="301.1" y2="373.5" stroke="rgb(0,0,0)"  stroke-width="2.0"/>
<line x1="328.6" y1="324.7" x2="354.1" y2="322.3" stroke="rgb(0,0,0)"  stroke-width="2.0"/>
<line x1="320.9" y1="325.9" x2="320.8" y2="324.3" stroke="rgb(0,0,0)"  stroke-width="1.0"/>
<line x1="314.8" y1="326.9" x2="314.6" y2="324.0" stroke="rgb(0,0,0)"  stroke-width="1.0"/>
<line x1="308.6" y1="327.8" x2="308.4" y2="323.7" stroke="rgb(0,0,0)"  stroke-width="1.0"/>
<line x1="302.5" y1="328.8" x2="302.2" y2="323.4" stroke="rgb(0,0,0)"  stroke-width="1.0"/>
<line x1="296.3" y1="329.8" x2="296.0" y2="323.0" stroke="rgb(0,0,0)"  stroke-width="1.0"/>
<line x1="290.2" y1="330.7" x2="289.8" y2="322.7" stroke="rgb(0,0,0)"  stroke-width="1.0"/>
<line x1="286.5" y1="319.8" x2="288.0" y2="319.2" stroke="rgb(0,0,0)"  stroke-width="1.0"/>
<line x1="283.7" y1="314.3" x2="286.4" y2="313.2" stroke="rgb(0,0,0)"  stroke-width="1.0"/>
<line x1="280.9" y1="308.7" x2="284.7" y2="307.2" stroke="rgb(0,0,0)"  stroke-width="1.0"/>
<line x1="278.0" y1="303.2" x2="283.1" y2="301.2" stroke="rgb(0,0,0)"  stroke-width="1.0"/>
<line x1="275.2" y1="297.6" x2="281.5" y2="295.2" stroke="rgb(0,0,0)"  stroke-width="1.0"/>
<line x1="272.4" y1="292.1" x2="279.9" y2="289.2" stroke="rgb(0,0,0)"  stroke-width="1.0"/>
<line x1="290.0" y1="326.7" x2="286.0" y2="403.9" stroke="rgb(0,0,0)"  stroke-width="2.0"/>
<line x1="290.0" y1="326.7" x2="267.2" y2="338.4" stroke="rgb(0,0,0)"  stroke-width="2.0"/>
<line x1="276.2" y1="290.6" x2="251.4" y2="297.3" stroke="rgb(0,0,0)"  stroke-width="2.0"/>
<line x1="281.7" y1="285.2" x2="282.7" y2="286.4" stroke="rgb(0,0,0)"  stroke-width="1.0"/>
<line x1="286.1" y1="280.8" x2="287.9" y2="283.0" stroke="rgb(0,0,0)"  stroke-width="1.0"/>
<line x1="290.5" y1="276.4" x2="293.1" y2="279.6" stroke="rgb(0,0,0)"  stroke-width="1.0"/>
<line x1="294.9" y1="272.0" x2="298.3" y2="276.2" stroke="rgb(0,0,0)"  stroke-width="1.0"/>
<line x1="299.3" y1="267.6" x2="303.5" y2="272.8" stroke="rgb(0,0,0)"  stroke-width="1.0"/>
<line x1="303.7" y1="263.2" x2="308.7" y2="269.4" stroke="rgb(0,0,0)"  stroke-width="1.0"/>
<line x1="276.2" y1="290.6" x2="230.7" y2="245.2" stroke="rgb(0,0,0)"  stroke-width="2.0"/>
<polygon points="306.178897 266.335142 288.725491 246.803566 295.434855 242.446454 " stroke-width="2.000000" fill="rgb(0,0,0)"  stroke="rgb(0,0,0)" />
<line x1="306.2" y1="266.3" x2="317.8" y2="243.5" stroke="rgb(0,0,0)"  stroke-width="2.0"/>
<line x1="336.7" y1="231.2" x2="362.3" y2="229.9" stroke="rgb(0,0,0)"  stroke-width="2.0"/>
<line x1="362.3" y1="229.9" x2="373.3" y2="253.0" stroke="rgb(0,0,0)"  stroke-width="2.0"/>
<polygon points="362.302853 229.887818 400.926566 234.008180 399.263273 241.833361 " stroke-width="2.000000" fill="rgb(0,0,0)"  stroke="rgb(0,0,0)" />
<line x1="353.5" y1="200.2" x2="352.0" y2="200.7" stroke="rgb(0,0,0)"  stroke-width="1.0"/>
<line x1="356.0" y1="205.9" x2="353.3" y2="206.8" stroke="rgb(0,0,0)"  stroke-width="1.0"/>
<line x1="358.6" y1="211.6" x2="354.6" y2="212.9" stroke="rgb(0,0,0)"  stroke-width="1.0"/>
<line x1="361.1" y1="217.3" x2="355.9" y2="219.0" stroke="rgb(0,0,0)"  stroke-width="1.0"/>
<line x1="363.6" y1="223.0" x2="357.2" y2="225.0" stroke="rgb(0,0,0)"  stroke-width="1.0"/>
<line x1="366.1" y1="228.7" x2="358.5" y2="231.1" stroke="rgb(0,0,0)"  stroke-width="1.0"/>
<line x1="350.4" y1="193.1" x2="326.0" y2="201.1" stroke="rgb(0,0,0)"  stroke-width="2.0"/>
<polygon points="376.216333 164.430039 353.336139 195.818975 347.390981 190.465931 " stroke-width="2.000000" fill="rgb(0,0,0)"  stroke="rgb(0,0,0)" />
<line x1="350.4" y1="193.1" x2="302.6" y2="150.1" stroke="rgb(0,0,0)"  stroke-width="2.0"/>
<line x1="376.2" y1="164.4" x2="357.2" y2="147.3" stroke="rgb(0,0,0)"  stroke-width="2.0"/>
<line x1="406.3" y1="171.6" x2="406.6" y2="170.1" stroke="rgb(0,0,0)"  stroke-width="1.0"/>
<line x1="400.1" y1="171.0" x2="400.7" y2="168.2" stroke="rgb(0,0,0)"  stroke-width="1.0"/>
<line x1="393.9" y1="170.3" x2="394.8" y2="166.3" stroke="rgb(0,0,0)"  stroke-width="1.0"/>
<line x1="387.7" y1="169.7" x2="388.9" y2="164.3" stroke="rgb(0,0,0)"  stroke-width="1.0"/>
<line x1="381.6" y1="169.0" x2="383.0" y2="162.4" stroke="rgb(0,0,0)"  stroke-width="1.0"/>
<line x1="375.4" y1="168.3" x2="377.0" y2="160.5" stroke="rgb(0,0,0)"  stroke-width="1.0"/>
<line x1="376.2" y1="164.4" x2="381.5" y2="139.4" stroke="rgb(0,0,0)"  stroke-width="2.0"/>
<line x1="414.0" y1="172.5" x2="419.3" y2="147.4" stroke="rgb(0,0,0)"  stroke-width="2.0"/>
<polygon points="425.947693 209.208356 410.204174 173.699059 417.812626 171.226923 " stroke-width="2.000000" fill="rgb(0,0,0)"  stroke="rgb(0,0,0)" />
<line x1="414.0" y1="172.5" x2="438.4" y2="164.5" stroke="rgb(0,0,0)"  stroke-width="2.0"/>
<line x1="425.9" y1="209.2" x2="450.3" y2="201.3" stroke="rgb(0,0,0)"  stroke-width="2.0"/>
<line x1="404.7" y1="231.6" x2="405.9" y2="232.7" stroke="rgb(0,0,0)"  stroke-width="1.0"/>
<line x1="408.3" y1="226.6" x2="410.5" y2="228.5" stroke="rgb(0,0,0)"  stroke-width="1.0"/>
<line x1="412.0" y1="221.6" x2="415.1" y2="224.4" stroke="rgb(0,0,0)"  stroke-width="1.0"/>
<line x1="415.7" y1="216.6" x2="419.7" y2="220.2" stroke="rgb(0,0,0)"  stroke-width="1.0"/>
<line x1="419.3" y1="211.6" x2="424.3" y2="216.1" stroke="rgb(0,0,0)"  stroke-width="1.0"/>
<line x1="423.0" y1="206.5" x2="428.9" y2="211.9" stroke="rgb(0,0,0)"  stroke-width="1.0"/>
<line x1="425.9" y1="209.2" x2="445.0" y2="226.4" stroke="rgb(0,0,0)"  stroke-width="2.0"/>
<line x1="400.1" y1="237.9" x2="419.1" y2="255.1" stroke="rgb(0,0,0)"  stroke-width="2.0"/>
<line x1="400.1" y1="237.9" x2="394.8" y2="263.0" stroke="rgb(0,0,0)"  stroke-width="2.0"/>
<line x1="401.7" y1="284.4" x2="411.1" y2="292.9" stroke="rgb(0,0,0)"  stroke-width="2.0"/>
<line x1="452.0" y1="247.8" x2="449.3" y2="260.1" stroke="rgb(0,0,0)"  stroke-width="2.0"/>
<line x1="453.5" y1="147.8" x2="458.8" y2="122.7" stroke="rgb(0,0,0)"  stroke-width="2.0"/>
<line x1="460.4" y1="169.2" x2="469.8" y2="177.7" stroke="rgb(0,0,0)"  stroke-width="2.0"/>
<line x1="456.8" y1="125.0" x2="437.7" y2="107.8" stroke="rgb(0,0,0)"  stroke-width="2.0"/>
<line x1="460.8" y1="120.5" x2="441.7" y2="103.3" stroke="rgb(0,0,0)"  stroke-width="2.0"/>
<line x1="458.8" y1="122.7" x2="483.2" y2="114.8" stroke="rgb(0,0,0)"  stroke-width="2.0"/>
<line x1="417.7" y1="100.9" x2="405.7" y2="104.8" stroke="rgb(0,0,0)"  stroke-width="2.0"/>
<line x1="432.8" y1="84.2" x2="435.4" y2="71.8" stroke="rgb(0,0,0)"  stroke-width="2.0"/>
<line x1="498.2" y1="98.1" x2="500.9" y2="85.7" stroke="rgb(0,0,0)"  stroke-width="2.0"/>
<line x1="505.2" y1="119.5" x2="514.6" y2="127.9" stroke="rgb(0,0,0)"  stroke-width="2.0"/>
<line x1="396.6" y1="122.6" x2="408.6" y2="118.7" stroke="rgb(0,0,0)"  stroke-width="2.0"/>
<line x1="295.6" y1="128.7" x2="301.0" y2="103.6" stroke="rgb(0,0,0)"  stroke-width="2.0"/>
<line x1="280.6" y1="145.5" x2="268.6" y2="149.4" stroke="rgb(0,0,0)"  stroke-width="2.0"/>
<line x1="299.0" y1="105.9" x2="279.9" y2="88.7" stroke="rgb(0,0,0)"  stroke-width="2.0"/>
<line x1="303.0" y1="101.4" x2="283.9" y2="84.3" stroke="rgb(0,0,0)"  stroke-width="2.0"/>
<line x1="301.0" y1="103.6" x2="325.4" y2="95.7" stroke="rgb(0,0,0)"  stroke-width="2.0"/>
<line x1="259.9" y1="81.8" x2="247.9" y2="85.7" stroke="rgb(0,0,0)"  stroke-width="2.0"/>
<line x1="275.0" y1="65.1" x2="277.6" y2="52.7" stroke="rgb(0,0,0)"  stroke-width="2.0"/>
<line x1="340.4" y1="79.0" x2="343.0" y2="66.6" stroke="rgb(0,0,0)"  stroke-width="2.0"/>
<line x1="347.4" y1="100.4" x2="356.8" y2="108.9" stroke="rgb(0,0,0)"  stroke-width="2.0"/>
<line x1="209.0" y1="239.4" x2="184.2" y2="246.0" stroke="rgb(0,0,0)"  stroke-width="2.0"/>
<line x1="184.2" y1="246.0" x2="180.8" y2="271.4" stroke="rgb(0,0,0)"  stroke-width="2.0"/>
<polygon points="184.192872 246.009550 180.192872 207.373187 188.192872 207.373187 " stroke-width="2.000000" fill="rgb(0,0,0)"  stroke="rgb(0,0,0)" />
<line x1="184.2" y1="207.4" x2="209.8" y2="207.4" stroke="rgb(0,0,0)"  stroke-width="2.0"/>
<polygon points="184.192872 207.373187 148.732800 191.519106 152.732800 184.590903 " stroke-width="2.000000" fill="rgb(0,0,0)"  stroke="rgb(0,0,0)" />
<line x1="184.2" y1="207.4" x2="197.0" y2="185.2" stroke="rgb(0,0,0)"  stroke-width="2.0"/>
<line x1="150.7" y1="188.1" x2="163.6" y2="165.9" stroke="rgb(0,0,0)"  stroke-width="2.0"/>
<line x1="144.4" y1="192.6" x2="143.6" y2="191.2" stroke="rgb(0,0,0)"  stroke-width="1.0"/>
<line x1="139.4" y1="196.3" x2="138.0" y2="193.8" stroke="rgb(0,0,0)"  stroke-width="1.0"/>
<line x1="134.4" y1="199.9" x2="132.3" y2="196.3" stroke="rgb(0,0,0)"  stroke-width="1.0"/>
<line x1="129.3" y1="203.5" x2="126.6" y2="198.8" stroke="rgb(0,0,0)"  stroke-width="1.0"/>
<line x1="124.3" y1="207.2" x2="120.9" y2="201.4" stroke="rgb(0,0,0)"  stroke-width="1.0"/>
<line x1="119.3" y1="210.8" x2="115.3" y2="203.9" stroke="rgb(0,0,0)"  stroke-width="1.0"/>
<line x1="150.7" y1="188.1" x2="137.9" y2="165.9" stroke="rgb(0,0,0)"  stroke-width="2.0"/>
<line x1="117.3" y1="207.4" x2="104.5" y2="185.2" stroke="rgb(0,0,0)"  stroke-width="2.0"/>
<polygon points="117.272727 207.373187 121.272727 246.009550 113.272727 246.009550 " stroke-width="2.000000" fill="rgb(0,0,0)"  stroke="rgb(0,0,0)" />
<line x1="117.3" y1="207.4" x2="91.6" y2="207.4" stroke="rgb(0,0,0)"  stroke-width="2.0"/>
<line x1="112.1" y1="246.8" x2="112.1" y2="245.2" stroke="rgb(0,0,0)"  stroke-width="1.0"/>
<line x1="108.0" y1="247.4" x2="108.0" y2="244.6" stroke="rgb(0,0,0)"  stroke-width="1.0"/>
<line x1="103.8" y1="248.1" x2="103.8" y2="243.9" stroke="rgb(0,0,0)"  stroke-width="1.0"/>
<line x1="99.7" y1="248.7" x2="99.7" y2="243.3" stroke="rgb(0,0,0)"  stroke-width="1.0"/>
<line x1="95.5" y1="249.4" x2="95.5" y2="242.6" stroke="rgb(0,0,0)"  stroke-width="1.0"/>
<line x1="91.4" y1="250.0" x2="91.4" y2="242.0" stroke="rgb(0,0,0)"  stroke-width="1.0"/>
<line x1="117.3" y1="246.0" x2="98.0" y2="279.5" stroke="rgb(0,0,0)"  stroke-width="2.0"/>
<line x1="98.0" y1="279.5" x2="72.3" y2="279.5" stroke="rgb(0,0,0)"  stroke-width="2.0"/>
<line x1="98.0" y1="279.5" x2="98.0" y2="305.1" stroke="rgb(0,0,0)"  stroke-width="2.0"/>
<line x1="98.0" y1="279.5" x2="120.2" y2="292.3" stroke="rgb(0,0,0)"  stroke-width="2.0"/>
<line x1="52.8" y1="268.2" x2="46.5" y2="257.3" stroke="rgb(0,0,0)"  stroke-width="2.0"/>
<line x1="72.1" y1="196.1" x2="65.8" y2="185.2" stroke="rgb(0,0,0)"  stroke-width="2.0"/>
<line x1="118.4" y1="154.6" x2="105.8" y2="154.6" stroke="rgb(0,0,0)"  stroke-width="2.0"/>
<line x1="197.0" y1="162.7" x2="184.2" y2="140.5" stroke="rgb(0,0,0)"  stroke-width="2.0"/>
<line x1="216.5" y1="173.9" x2="229.1" y2="173.9" stroke="rgb(0,0,0)"  stroke-width="2.0"/>
<line x1="184.2" y1="140.5" x2="184.2" y2="114.8" stroke="rgb(0,0,0)"  stroke-width="2.0"/>
<line x1="184.2" y1="140.5" x2="206.4" y2="127.6" stroke="rgb(0,0,0)"  stroke-width="2.0"/>
<line x1="184.2" y1="140.5" x2="158.6" y2="140.5" stroke="rgb(0,0,0)"  stroke-width="2.0"/>
<line x1="286.0" y1="403.9" x2="307.5" y2="417.8" stroke="rgb(0,0,0)"  stroke-width="2.0"/>
<line x1="286.0" y1="403.9" x2="272.0" y2="425.4" stroke="rgb(0,0,0)"  stroke-width="2.0"/>
<line x1="286.0" y1="403.9" x2="260.4" y2="402.5" stroke="rgb(0,0,0)"  stroke-width="2.0"/>
<line x1="317.7" y1="437.9" x2="317.0" y2="450.5" stroke="rgb(0,0,0)"  stroke-width="2.0"/>
<line x1="244.7" y1="337.2" x2="234.1" y2="330.3" stroke="rgb(0,0,0)"  stroke-width="2.0"/>
<line x1="276.2" y1="290.6" x2="306.2" y2="266.3" stroke="rgb(0,0,0)"  stroke-width="2.0"/>
<line x1="306.2" y1="266.3" x2="327.7" y2="280.3" stroke="rgb(0,0,0)"  stroke-width="2.0"/>
<line x1="335.2" y1="299.9" x2="328.6" y2="324.7" stroke="rgb(0,0,0)"  stroke-width="2.0"/>
<line x1="328.6" y1="324.7" x2="290.0" y2="326.7" stroke="rgb(0,0,0)"  stroke-width="2.0"/>
<line x1="290.0" y1="326.7" x2="276.2" y2="290.6" stroke="rgb(0,0,0)"  stroke-width="2.0"/>
<line x1="376.2" y1="164.4" x2="414.0" y2="172.5" stroke="rgb(0,0,0)"  stroke-width="2.0"/>
<line x1="414.0" y1="172.5" x2="425.9" y2="209.2" stroke="rgb(0,0,0)"  stroke-width="2.0"/>
<line x1="425.9" y1="209.2" x2="400.1" y2="237.9" stroke="rgb(0,0,0)"  stroke-width="2.0"/>
<line x1="400.1" y1="237.9" x2="362.3" y2="229.9" stroke="rgb(0,0,0)"  stroke-width="2.0"/>
<line x1="362.3" y1="229.9" x2="350.4" y2="193.1" stroke="rgb(0,0,0)"  stroke-width="2.0"/>
<line x1="350.4" y1="193.1" x2="376.2" y2="164.4" stroke="rgb(0,0,0)"  stroke-width="2.0"/>
<line x1="150.7" y1="188.1" x2="117.3" y2="207.4" stroke="rgb(0,0,0)"  stroke-width="2.0"/>
<line x1="117.3" y1="207.4" x2="117.3" y2="246.0" stroke="rgb(0,0,0)"  stroke-width="2.0"/>
<line x1="117.3" y1="246.0" x2="139.5" y2="258.8" stroke="rgb(0,0,0)"  stroke-width="2.0"/>
<line x1="162.0" y1="258.8" x2="184.2" y2="246.0" stroke="rgb(0,0,0)"  stroke-width="2.0"/>
<line x1="184.2" y1="246.0" x2="184.2" y2="207.4" stroke="rgb(0,0,0)"  stroke-width="2.0"/>
<line x1="184.2" y1="207.4" x2="150.7" y2="188.1" stroke="rgb(0,0,0)"  stroke-width="2.0"/>
<text x="497.565034" y="81.000272" fill="rgb(191,191,191)"  stroke="rgb(191,191,191)" stroke-width="1" font-size="16" >H</text>
<text x="387.328938" y="116.818151" fill="rgb(191,191,191)"  stroke="rgb(191,191,191)" stroke-width="1" font-size="16" >H</text>
<text x="473.466179" y="194.376472" fill="rgb(191,191,191)"  stroke="rgb(191,191,191)" stroke-width="1" font-size="16" >H</text>
<text x="440.627155" y="280.853196" fill="rgb(191,191,191)"  stroke="rgb(191,191,191)" stroke-width="1" font-size="16" >H</text>
<text x="414.774381" y="309.565610" fill="rgb(191,191,191)"  stroke="rgb(191,191,191)" stroke-width="1" font-size="16" >H</text>
<text x="283.247577" y="386.837409" fill="rgb(191,191,191)"  stroke="rgb(191,191,191)" stroke-width="1" font-size="16" >H</text>
<text x="356.968361" y="375.161184" fill="rgb(191,191,191)"  stroke="rgb(191,191,191)" stroke-width="1" font-size="16" >H</text>
<text x="334.258476" y="406.418659" fill="rgb(191,191,191)"  stroke="rgb(191,191,191)" stroke-width="1" font-size="16" >H</text>
<text x="249.573585" y="352.260488" fill="rgb(255,12,12)"  stroke="rgb(255,12,12)" stroke-width="1" font-size="16" >O</text>
<text x="312.357876" y="432.929645" fill="rgb(255,12,12)"  stroke="rgb(255,12,12)" stroke-width="1" font-size="16" >O</text>
<text x="518.244496" y="144.645112" fill="rgb(191,191,191)"  stroke="rgb(191,191,191)" stroke-width="1" font-size="16" >H</text>
<text x="197.511054" y="181.913114" fill="rgb(12,12,255)"  stroke="rgb(12,12,255)" stroke-width="1" font-size="16" >N</text>
<text x="125.414618" y="162.594932" fill="rgb(255,12,12)"  stroke="rgb(255,12,12)" stroke-width="1" font-size="16" >O</text>
<text x="72.636364" y="215.373187" fill="rgb(255,12,12)"  stroke="rgb(255,12,12)" stroke-width="1" font-size="16" >O</text>
<text x="53.318182" y="287.469623" fill="rgb(255,12,12)"  stroke="rgb(255,12,12)" stroke-width="1" font-size="16" >O</text>
<text x="144.732800" y="273.327732" fill="rgb(255,12,12)"  stroke="rgb(255,12,12)" stroke-width="1" font-size="16" >O</text>
<text x="72.636364" y="254.009550" fill="rgb(191,191,191)"  stroke="rgb(191,191,191)" stroke-width="1" font-size="16" >H</text>
<text x="86.778254" y="162.594932" fill="rgb(191,191,191)"  stroke="rgb(191,191,191)" stroke-width="1" font-size="16" >H</text>
<text x="236.147418" y="181.913114" fill="rgb(191,191,191)"  stroke="rgb(191,191,191)" stroke-width="1" font-size="16" >H</text>
<text x="432.107255" y="67.086792" fill="rgb(191,191,191)"  stroke="rgb(191,191,191)" stroke-width="1" font-size="16" >H</text>
<text x="274.292222" y="48.000000" fill="rgb(191,191,191)"  stroke="rgb(191,191,191)" stroke-width="1" font-size="16" >H</text>
<text x="217.170404" y="331.217616" fill="rgb(191,191,191)"  stroke="rgb(191,191,191)" stroke-width="1" font-size="16" >H</text>
<text x="310.335805" y="471.513059" fill="rgb(191,191,191)"  stroke="rgb(191,191,191)" stroke-width="1" font-size="16" >H</text>
<text x="241.371282" y="409.864703" fill="rgb(191,191,191)"  stroke="rgb(191,191,191)" stroke-width="1" font-size="16" >H</text>
<text x="258.911824" y="444.289955" fill="rgb(191,191,191)"  stroke="rgb(191,191,191)" stroke-width="1" font-size="16" >H</text>
<text x="139.556508" y="148.453042" fill="rgb(191,191,191)"  stroke="rgb(191,191,191)" stroke-width="1" font-size="16" >H</text>
<text x="211.652945" y="129.134860" fill="rgb(191,191,191)"  stroke="rgb(191,191,191)" stroke-width="1" font-size="16" >H</text>
<text x="178.192872" y="109.816678" fill="rgb(191,191,191)"  stroke="rgb(191,191,191)" stroke-width="1" font-size="16" >H</text>
<text x="91.954545" y="181.913114" fill="rgb(191,191,191)"  stroke="rgb(191,191,191)" stroke-width="1" font-size="16" >H</text>
<text x="53.318182" y="181.913114" fill="rgb(191,191,191)"  stroke="rgb(191,191,191)" stroke-width="1" font-size="16" >H</text>
<text x="34.000000" y="254.009550" fill="rgb(191,191,191)"  stroke="rgb(191,191,191)" stroke-width="1" font-size="16" >H</text>
<text x="125.414618" y="306.787805" fill="rgb(191,191,191)"  stroke="rgb(191,191,191)" stroke-width="1" font-size="16" >H</text>
<text x="91.954545" y="326.105986" fill="rgb(191,191,191)"  stroke="rgb(191,191,191)" stroke-width="1" font-size="16" >H</text>
<text x="360.429463" y="125.558320" fill="rgb(191,191,191)"  stroke="rgb(191,191,191)" stroke-width="1" font-size="16" >H</text>
<text x="339.750001" y="61.913480" fill="rgb(191,191,191)"  stroke="rgb(191,191,191)" stroke-width="1" font-size="16" >H</text>
<text x="229.513905" y="97.731359" fill="rgb(191,191,191)"  stroke="rgb(191,191,191)" stroke-width="1" font-size="16" >H</text>
<text x="250.193367" y="161.376199" fill="rgb(191,191,191)"  stroke="rgb(191,191,191)" stroke-width="1" font-size="16" >H</text>
<text x="414.994650" y="122.698680" fill="rgb(191,191,191)"  stroke="rgb(191,191,191)" stroke-width="1" font-size="16" >H</text>
<text x="456.693058" y="205.269063" fill="rgb(191,191,191)"  stroke="rgb(191,191,191)" stroke-width="1" font-size="16" >H</text>
<text x="416.041351" y="142.670925" fill="rgb(191,191,191)"  stroke="rgb(191,191,191)" stroke-width="1" font-size="16" >H</text>
<text x="341.503920" y="146.577266" fill="rgb(191,191,191)"  stroke="rgb(191,191,191)" stroke-width="1" font-size="16" >H</text>
<text x="307.618195" y="213.081746" fill="rgb(191,191,191)"  stroke="rgb(191,191,191)" stroke-width="1" font-size="16" >H</text>
<text x="372.936236" y="272.760432" fill="rgb(191,191,191)"  stroke="rgb(191,191,191)" stroke-width="1" font-size="16" >H</text>
<text x="422.807333" y="271.773544" fill="rgb(191,191,191)"  stroke="rgb(191,191,191)" stroke-width="1" font-size="16" >H</text>
<text x="317.719439" y="239.909890" fill="rgb(255,12,12)"  stroke="rgb(255,12,12)" stroke-width="1" font-size="16" >O</text>
<text x="332.582078" y="295.378013" fill="rgb(255,12,12)"  stroke="rgb(255,12,12)" stroke-width="1" font-size="16" >O</text>
<text x="279.136025" y="241.931961" fill="rgb(191,191,191)"  stroke="rgb(191,191,191)" stroke-width="1" font-size="16" >H</text>
<text x="232.832942" y="308.649620" fill="rgb(191,191,191)"  stroke="rgb(191,191,191)" stroke-width="1" font-size="16" >H</text>
<text x="361.042339" y="329.011378" fill="rgb(191,191,191)"  stroke="rgb(191,191,191)" stroke-width="1" font-size="16" >H</text>
<text x="266.259270" y="85.792066" fill="rgb(12,12,255)"  stroke="rgb(12,12,255)" stroke-width="1" font-size="16" >N</text>
<text x="164.050982" y="162.594932" fill="rgb(191,191,191)"  stroke="rgb(191,191,191)" stroke-width="1" font-size="16" >H</text>
<text x="216.829236" y="215.373187" fill="rgb(191,191,191)"  stroke="rgb(191,191,191)" stroke-width="1" font-size="16" >H</text>
<text x="173.149815" y="292.315375" fill="rgb(191,191,191)"  stroke="rgb(191,191,191)" stroke-width="1" font-size="16" >H</text>
<text x="215.512734" y="244.009724" fill="rgb(255,12,12)"  stroke="rgb(255,12,12)" stroke-width="1" font-size="16" >O</text>
<text x="331.717050" y="99.705547" fill="rgb(12,12,255)"  stroke="rgb(12,12,255)" stroke-width="1" font-size="16" >N</text>
<text x="286.938732" y="149.436906" fill="rgb(12,12,255)"  stroke="rgb(12,12,255)" stroke-width="1" font-size="16" >N</text>
<text x="378.249285" y="134.637973" fill="rgb(255,12,12)"  stroke="rgb(255,12,12)" stroke-width="1" font-size="16" >O</text>
<text x="489.532082" y="118.792339" fill="rgb(12,12,255)"  stroke="rgb(12,12,255)" stroke-width="1" font-size="16" >N</text>
<text x="424.074303" y="104.878858" fill="rgb(12,12,255)"  stroke="rgb(12,12,255)" stroke-width="1" font-size="16" >N</text>
<text x="444.753765" y="168.523698" fill="rgb(12,12,255)"  stroke="rgb(12,12,255)" stroke-width="1" font-size="16" >N</text>
<text x="448.660106" y="243.061130" fill="rgb(255,12,12)"  stroke="rgb(255,12,12)" stroke-width="1" font-size="16" >O</text>
<text x="386.061968" y="283.712837" fill="rgb(255,12,12)"  stroke="rgb(255,12,12)" stroke-width="1" font-size="16" >O</text>
</svg>
</g>
<text font-size="18.000000" fill ="black" font-family="sans-serif"
x="10.000000" y="20.000000" >ZINC08143490</text>
</svg>
