<?xml version="1.0"?>
<svg version="1.1" id="topsvg"
xmlns="http://www.w3.org/2000/svg" xmlns:xlink="http://www.w3.org/1999/xlink"
xmlns:cml="http://www.xml-cml.org/schema" x="0" y="0" width="200px" height="200px" viewBox="0 0 100 100">
<title>ZINC98216840 - Open Babel Depiction</title>
<rect x="0" y="0" width="100" height="100" fill="white"/>
<g transform="translate(0,0)">
<svg width="100" height="100" x="0" y="0" viewBox="0 0 475.243 283.834"
font-family="sans-serif" stroke="rgb(0,0,0)" stroke-width="2"  stroke-linecap="round">
<line x1="194.8" y1="213.8" x2="213.5" y2="224.6" stroke="rgb(0,0,0)"  stroke-width="2.0"/>
<line x1="194.8" y1="213.8" x2="173.1" y2="213.8" stroke="rgb(0,0,0)"  stroke-width="2.0"/>
<line x1="194.8" y1="213.8" x2="183.9" y2="232.6" stroke="rgb(0,0,0)"  stroke-width="2.0"/>
<line x1="194.8" y1="213.8" x2="194.8" y2="192.1" stroke="rgb(0,0,0)"  stroke-width="2.0"/>
<line x1="236.0" y1="224.6" x2="284.8" y2="196.5" stroke="rgb(0,0,0)"  stroke-width="2.0"/>
<line x1="289.2" y1="191.0" x2="290.3" y2="192.1" stroke="rgb(0,0,0)"  stroke-width="1.0"/>
<line x1="292.6" y1="186.6" x2="294.7" y2="188.7" stroke="rgb(0,0,0)"  stroke-width="1.0"/>
<line x1="296.1" y1="182.3" x2="299.0" y2="185.2" stroke="rgb(0,0,0)"  stroke-width="1.0"/>
<line x1="299.6" y1="177.9" x2="303.4" y2="181.7" stroke="rgb(0,0,0)"  stroke-width="1.0"/>
<line x1="303.0" y1="173.5" x2="307.8" y2="178.3" stroke="rgb(0,0,0)"  stroke-width="1.0"/>
<line x1="306.5" y1="169.1" x2="312.2" y2="174.8" stroke="rgb(0,0,0)"  stroke-width="1.0"/>
<line x1="284.8" y1="196.5" x2="164.7" y2="127.1" stroke="rgb(0,0,0)"  stroke-width="2.0"/>
<line x1="335.1" y1="156.0" x2="334.3" y2="154.7" stroke="rgb(0,0,0)"  stroke-width="1.0"/>
<line x1="330.4" y1="159.9" x2="328.8" y2="157.5" stroke="rgb(0,0,0)"  stroke-width="1.0"/>
<line x1="325.7" y1="163.7" x2="323.4" y2="160.3" stroke="rgb(0,0,0)"  stroke-width="1.0"/>
<line x1="321.0" y1="167.6" x2="318.0" y2="163.0" stroke="rgb(0,0,0)"  stroke-width="1.0"/>
<line x1="316.2" y1="171.5" x2="312.6" y2="165.8" stroke="rgb(0,0,0)"  stroke-width="1.0"/>
<line x1="311.5" y1="175.3" x2="307.1" y2="168.6" stroke="rgb(0,0,0)"  stroke-width="1.0"/>
<polygon points="277.614796 155.935292 311.139376 168.395844 307.531023 175.535858 " stroke-width="2.000000" fill="rgb(0,0,0)"  stroke="rgb(0,0,0)" />
<line x1="313.2" y1="174.7" x2="312.1" y2="175.8" stroke="rgb(0,0,0)"  stroke-width="1.0"/>
<line x1="316.3" y1="176.9" x2="314.2" y2="178.9" stroke="rgb(0,0,0)"  stroke-width="1.0"/>
<line x1="319.3" y1="179.0" x2="316.4" y2="182.0" stroke="rgb(0,0,0)"  stroke-width="1.0"/>
<line x1="322.4" y1="181.2" x2="318.6" y2="185.1" stroke="rgb(0,0,0)"  stroke-width="1.0"/>
<line x1="325.5" y1="183.4" x2="320.8" y2="188.1" stroke="rgb(0,0,0)"  stroke-width="1.0"/>
<line x1="328.6" y1="185.6" x2="322.9" y2="191.2" stroke="rgb(0,0,0)"  stroke-width="1.0"/>
<line x1="277.6" y1="155.9" x2="259.5" y2="167.8" stroke="rgb(0,0,0)"  stroke-width="2.0"/>
<line x1="313.1" y1="154.0" x2="319.9" y2="174.6" stroke="rgb(0,0,0)"  stroke-width="2.0"/>
<line x1="313.1" y1="154.0" x2="306.3" y2="133.4" stroke="rgb(0,0,0)"  stroke-width="2.0"/>
<line x1="349.2" y1="129.3" x2="350.1" y2="130.6" stroke="rgb(0,0,0)"  stroke-width="1.0"/>
<line x1="351.9" y1="126.6" x2="353.5" y2="129.0" stroke="rgb(0,0,0)"  stroke-width="1.0"/>
<line x1="354.5" y1="124.0" x2="356.9" y2="127.4" stroke="rgb(0,0,0)"  stroke-width="1.0"/>
<line x1="357.2" y1="121.3" x2="360.3" y2="125.8" stroke="rgb(0,0,0)"  stroke-width="1.0"/>
<line x1="359.9" y1="118.7" x2="363.7" y2="124.2" stroke="rgb(0,0,0)"  stroke-width="1.0"/>
<line x1="362.6" y1="116.0" x2="367.2" y2="122.6" stroke="rgb(0,0,0)"  stroke-width="1.0"/>
<line x1="372.1" y1="155.4" x2="423.4" y2="178.7" stroke="rgb(0,0,0)"  stroke-width="2.0"/>
<line x1="372.1" y1="155.4" x2="393.5" y2="159.0" stroke="rgb(0,0,0)"  stroke-width="2.0"/>
<line x1="341.1" y1="151.2" x2="350.8" y2="170.5" stroke="rgb(0,0,0)"  stroke-width="2.0"/>
<line x1="328.6" y1="110.5" x2="370.2" y2="72.6" stroke="rgb(0,0,0)"  stroke-width="2.0"/>
<line x1="328.6" y1="110.5" x2="312.6" y2="125.1" stroke="rgb(0,0,0)"  stroke-width="2.0"/>
<polygon points="305.355753 101.018882 268.354307 72.649794 273.748617 66.742052 " stroke-width="2.000000" fill="rgb(0,0,0)"  stroke="rgb(0,0,0)" />
<line x1="337.9" y1="103.2" x2="351.6" y2="86.4" stroke="rgb(0,0,0)"  stroke-width="2.0"/>
<line x1="337.9" y1="103.2" x2="361.1" y2="51.8" stroke="rgb(0,0,0)"  stroke-width="2.0"/>
<line x1="275.6" y1="120.5" x2="256.3" y2="110.7" stroke="rgb(0,0,0)"  stroke-width="2.0"/>
<line x1="275.6" y1="120.5" x2="274.4" y2="98.8" stroke="rgb(0,0,0)"  stroke-width="2.0"/>
<line x1="134.7" y1="144.5" x2="134.7" y2="166.1" stroke="rgb(0,0,0)"  stroke-width="2.0"/>
<line x1="104.7" y1="127.1" x2="85.9" y2="138.0" stroke="rgb(0,0,0)"  stroke-width="2.0"/>
<line x1="104.7" y1="92.5" x2="85.9" y2="81.6" stroke="rgb(0,0,0)"  stroke-width="2.0"/>
<line x1="134.7" y1="75.1" x2="134.7" y2="53.5" stroke="rgb(0,0,0)"  stroke-width="2.0"/>
<line x1="164.7" y1="92.5" x2="183.5" y2="81.6" stroke="rgb(0,0,0)"  stroke-width="2.0"/>
<line x1="74.7" y1="157.5" x2="74.7" y2="166.1" stroke="rgb(0,0,0)"  stroke-width="2.0"/>
<line x1="88.5" y1="178.3" x2="88.5" y2="179.9" stroke="rgb(0,0,0)"  stroke-width="1.0"/>
<line x1="90.3" y1="177.7" x2="90.3" y2="180.6" stroke="rgb(0,0,0)"  stroke-width="1.0"/>
<line x1="92.2" y1="177.1" x2="92.2" y2="181.2" stroke="rgb(0,0,0)"  stroke-width="1.0"/>
<line x1="94.1" y1="176.4" x2="94.1" y2="181.9" stroke="rgb(0,0,0)"  stroke-width="1.0"/>
<line x1="96.0" y1="175.8" x2="96.0" y2="182.5" stroke="rgb(0,0,0)"  stroke-width="1.0"/>
<line x1="97.9" y1="175.1" x2="97.9" y2="183.1" stroke="rgb(0,0,0)"  stroke-width="1.0"/>
<line x1="74.7" y1="192.1" x2="74.7" y2="200.8" stroke="rgb(0,0,0)"  stroke-width="2.0"/>
<line x1="61.7" y1="179.1" x2="53.0" y2="179.1" stroke="rgb(0,0,0)"  stroke-width="2.0"/>
<line x1="63.4" y1="220.3" x2="55.9" y2="224.6" stroke="rgb(0,0,0)"  stroke-width="2.0"/>
<line x1="104.7" y1="127.1" x2="104.7" y2="92.5" stroke="rgb(0,0,0)"  stroke-width="2.0"/>
<line x1="104.7" y1="92.5" x2="134.7" y2="75.1" stroke="rgb(0,0,0)"  stroke-width="2.0"/>
<line x1="113.5" y1="95.7" x2="133.1" y2="84.4" stroke="rgb(0,0,0)"  stroke-width="2.0"/>
<line x1="134.7" y1="75.1" x2="164.7" y2="92.5" stroke="rgb(0,0,0)"  stroke-width="2.0"/>
<line x1="164.7" y1="92.5" x2="164.7" y2="127.1" stroke="rgb(0,0,0)"  stroke-width="2.0"/>
<line x1="157.5" y1="98.5" x2="157.5" y2="121.1" stroke="rgb(0,0,0)"  stroke-width="2.0"/>
<line x1="164.7" y1="127.1" x2="134.7" y2="144.5" stroke="rgb(0,0,0)"  stroke-width="2.0"/>
<line x1="134.7" y1="144.5" x2="104.7" y2="127.1" stroke="rgb(0,0,0)"  stroke-width="2.0"/>
<line x1="133.1" y1="135.2" x2="113.5" y2="123.9" stroke="rgb(0,0,0)"  stroke-width="2.0"/>
<line x1="324.7" y1="205.7" x2="318.5" y2="211.8" stroke="rgb(0,0,0)"  stroke-width="2.0"/>
<line x1="300.1" y1="211.8" x2="284.8" y2="196.5" stroke="rgb(0,0,0)"  stroke-width="2.0"/>
<line x1="284.8" y1="196.5" x2="309.3" y2="172.0" stroke="rgb(0,0,0)"  stroke-width="2.0"/>
<line x1="309.3" y1="172.0" x2="324.7" y2="187.3" stroke="rgb(0,0,0)"  stroke-width="2.0"/>
<line x1="313.1" y1="154.0" x2="345.8" y2="132.6" stroke="rgb(0,0,0)"  stroke-width="2.0"/>
<line x1="345.8" y1="132.6" x2="372.1" y2="155.4" stroke="rgb(0,0,0)"  stroke-width="2.0"/>
<line x1="372.1" y1="155.4" x2="341.1" y2="151.2" stroke="rgb(0,0,0)"  stroke-width="2.0"/>
<line x1="341.1" y1="151.2" x2="309.3" y2="172.0" stroke="rgb(0,0,0)"  stroke-width="2.0"/>
<line x1="309.3" y1="172.0" x2="277.6" y2="155.9" stroke="rgb(0,0,0)"  stroke-width="2.0"/>
<line x1="277.6" y1="155.9" x2="313.1" y2="154.0" stroke="rgb(0,0,0)"  stroke-width="2.0"/>
<line x1="328.6" y1="110.5" x2="341.1" y2="151.2" stroke="rgb(0,0,0)"  stroke-width="2.0"/>
<line x1="277.6" y1="155.9" x2="275.6" y2="120.5" stroke="rgb(0,0,0)"  stroke-width="2.0"/>
<line x1="275.6" y1="120.5" x2="305.4" y2="101.0" stroke="rgb(0,0,0)"  stroke-width="2.0"/>
<line x1="305.4" y1="101.0" x2="328.6" y2="110.5" stroke="rgb(0,0,0)"  stroke-width="2.0"/>
<line x1="345.8" y1="132.6" x2="337.9" y2="103.2" stroke="rgb(0,0,0)"  stroke-width="2.0"/>
<line x1="337.9" y1="103.2" x2="305.4" y2="101.0" stroke="rgb(0,0,0)"  stroke-width="2.0"/>
<text x="429.243379" y="192.052005" fill="rgb(191,191,191)"  stroke="rgb(191,191,191)" stroke-width="1" font-size="16" >H</text>
<text x="188.755523" y="83.145553" fill="rgb(30,239,30)"  stroke="rgb(30,239,30)" stroke-width="1" font-size="16" >Cl</text>
<text x="68.666667" y="152.478886" fill="rgb(255,12,12)"  stroke="rgb(255,12,12)" stroke-width="1" font-size="16" >O</text>
<text x="68.666667" y="187.145553" fill="rgb(255,127,0)"  stroke="rgb(255,127,0)" stroke-width="1" font-size="16" >P</text>
<text x="103.333333" y="187.145553" fill="rgb(255,12,12)"  stroke="rgb(255,12,12)" stroke-width="1" font-size="16" >O</text>
<text x="68.666667" y="221.812220" fill="rgb(255,12,12)"  stroke="rgb(255,12,12)" stroke-width="1" font-size="16" >O</text>
<text x="22.000000" y="187.145553" fill="rgb(255,12,12)"  stroke="rgb(255,12,12)" stroke-width="1" font-size="16" >HO</text>
<text x="154.088856" y="221.812220" fill="rgb(191,191,191)"  stroke="rgb(191,191,191)" stroke-width="1" font-size="16" >H</text>
<text x="171.422189" y="251.834434" fill="rgb(191,191,191)"  stroke="rgb(191,191,191)" stroke-width="1" font-size="16" >H</text>
<text x="188.755523" y="187.145553" fill="rgb(191,191,191)"  stroke="rgb(191,191,191)" stroke-width="1" font-size="16" >H</text>
<text x="317.916422" y="194.912257" fill="rgb(191,191,191)"  stroke="rgb(191,191,191)" stroke-width="1" font-size="16" >H</text>
<text x="296.289214" y="129.038325" fill="rgb(191,191,191)"  stroke="rgb(191,191,191)" stroke-width="1" font-size="16" >H</text>
<text x="400.294799" y="169.083422" fill="rgb(191,191,191)"  stroke="rgb(191,191,191)" stroke-width="1" font-size="16" >H</text>
<text x="373.809949" y="71.796949" fill="rgb(191,191,191)"  stroke="rgb(191,191,191)" stroke-width="1" font-size="16" >H</text>
<text x="296.988981" y="141.900720" fill="rgb(191,191,191)"  stroke="rgb(191,191,191)" stroke-width="1" font-size="16" >H</text>
<text x="353.881822" y="84.357753" fill="rgb(191,191,191)"  stroke="rgb(191,191,191)" stroke-width="1" font-size="16" >H</text>
<text x="360.491658" y="48.000000" fill="rgb(191,191,191)"  stroke="rgb(191,191,191)" stroke-width="1" font-size="16" >H</text>
<text x="238.701604" y="112.818864" fill="rgb(191,191,191)"  stroke="rgb(191,191,191)" stroke-width="1" font-size="16" >H</text>
<text x="267.715488" y="93.843109" fill="rgb(191,191,191)"  stroke="rgb(191,191,191)" stroke-width="1" font-size="16" >H</text>
<text x="128.711095" y="187.145553" fill="rgb(191,191,191)"  stroke="rgb(191,191,191)" stroke-width="1" font-size="16" >H</text>
<text x="68.666667" y="83.145553" fill="rgb(191,191,191)"  stroke="rgb(191,191,191)" stroke-width="1" font-size="16" >H</text>
<text x="128.711095" y="48.478886" fill="rgb(191,191,191)"  stroke="rgb(191,191,191)" stroke-width="1" font-size="16" >H</text>
<text x="38.644453" y="239.145553" fill="rgb(191,191,191)"  stroke="rgb(191,191,191)" stroke-width="1" font-size="16" >H</text>
<text x="218.777737" y="239.145553" fill="rgb(255,12,12)"  stroke="rgb(255,12,12)" stroke-width="1" font-size="16" >O</text>
<text x="242.603666" y="182.912439" fill="rgb(191,191,191)"  stroke="rgb(191,191,191)" stroke-width="1" font-size="16" >H</text>
<text x="368.269756" y="120.781096" fill="rgb(191,191,191)"  stroke="rgb(191,191,191)" stroke-width="1" font-size="16" >H</text>
<text x="350.718565" y="190.142994" fill="rgb(191,191,191)"  stroke="rgb(191,191,191)" stroke-width="1" font-size="16" >H</text>
<text x="236.155319" y="62.268197" fill="rgb(30,239,30)"  stroke="rgb(30,239,30)" stroke-width="1" font-size="16" >Cl</text>
<text x="327.848235" y="204.478886" fill="rgb(255,12,12)"  stroke="rgb(255,12,12)" stroke-width="1" font-size="16" >O</text>
<text x="303.335200" y="228.991921" fill="rgb(255,12,12)"  stroke="rgb(255,12,12)" stroke-width="1" font-size="16" >O</text>
</svg>
</g>
<text font-size="18.000000" fill ="black" font-family="sans-serif"
x="10.000000" y="20.000000" >ZINC98216840</text>
</svg>
