<?xml version="1.0"?>
<svg version="1.1" id="topsvg"
xmlns="http://www.w3.org/2000/svg" xmlns:xlink="http://www.w3.org/1999/xlink"
xmlns:cml="http://www.xml-cml.org/schema" x="0" y="0" width="200px" height="200px" viewBox="0 0 100 100">
<title>ZINC22699169 - Open Babel Depiction</title>
<rect x="0" y="0" width="100" height="100" fill="white"/>
<g transform="translate(0,0)">
<svg width="100" height="100" x="0" y="0" viewBox="0 0 387.043 360.962"
font-family="sans-serif" stroke="rgb(0,0,0)" stroke-width="2"  stroke-linecap="round">
<line x1="307.0" y1="160.0" x2="272.4" y2="140.0" stroke="rgb(0,0,0)"  stroke-width="2.0"/>
<line x1="307.0" y1="160.0" x2="334.0" y2="160.0" stroke="rgb(0,0,0)"  stroke-width="2.0"/>
<line x1="307.0" y1="160.0" x2="320.5" y2="136.6" stroke="rgb(0,0,0)"  stroke-width="2.0"/>
<line x1="307.0" y1="160.0" x2="307.0" y2="187.0" stroke="rgb(0,0,0)"  stroke-width="2.0"/>
<line x1="272.4" y1="100.0" x2="295.8" y2="86.5" stroke="rgb(0,0,0)"  stroke-width="2.0"/>
<line x1="237.8" y1="80.0" x2="237.8" y2="53.0" stroke="rgb(0,0,0)"  stroke-width="2.0"/>
<line x1="203.1" y1="140.0" x2="179.7" y2="153.5" stroke="rgb(0,0,0)"  stroke-width="2.0"/>
<line x1="131.9" y1="143.7" x2="126.3" y2="117.3" stroke="rgb(0,0,0)"  stroke-width="2.0"/>
<line x1="105.2" y1="173.5" x2="78.3" y2="170.6" stroke="rgb(0,0,0)"  stroke-width="2.0"/>
<line x1="125.2" y1="208.1" x2="108.9" y2="244.6" stroke="rgb(0,0,0)"  stroke-width="2.0"/>
<line x1="174.0" y1="208.5" x2="184.4" y2="217.8" stroke="rgb(0,0,0)"  stroke-width="2.0"/>
<line x1="108.9" y1="244.6" x2="72.4" y2="228.4" stroke="rgb(0,0,0)"  stroke-width="2.0"/>
<line x1="108.9" y1="244.6" x2="92.6" y2="281.2" stroke="rgb(0,0,0)"  stroke-width="2.0"/>
<line x1="108.9" y1="244.6" x2="145.4" y2="260.9" stroke="rgb(0,0,0)"  stroke-width="2.0"/>
<line x1="72.4" y1="228.4" x2="56.5" y2="206.5" stroke="rgb(0,0,0)"  stroke-width="2.0"/>
<line x1="72.4" y1="228.4" x2="83.3" y2="203.7" stroke="rgb(0,0,0)"  stroke-width="2.0"/>
<line x1="72.4" y1="228.4" x2="50.5" y2="244.2" stroke="rgb(0,0,0)"  stroke-width="2.0"/>
<line x1="92.6" y1="281.2" x2="95.5" y2="308.0" stroke="rgb(0,0,0)"  stroke-width="2.0"/>
<line x1="92.6" y1="281.2" x2="117.3" y2="292.2" stroke="rgb(0,0,0)"  stroke-width="2.0"/>
<line x1="92.6" y1="281.2" x2="65.8" y2="284.0" stroke="rgb(0,0,0)"  stroke-width="2.0"/>
<line x1="145.4" y1="260.9" x2="172.3" y2="258.1" stroke="rgb(0,0,0)"  stroke-width="2.0"/>
<line x1="145.4" y1="260.9" x2="156.4" y2="236.2" stroke="rgb(0,0,0)"  stroke-width="2.0"/>
<line x1="145.4" y1="260.9" x2="148.3" y2="287.8" stroke="rgb(0,0,0)"  stroke-width="2.0"/>
<line x1="133.3" y1="95.9" x2="143.7" y2="86.5" stroke="rgb(0,0,0)"  stroke-width="2.0"/>
<line x1="111.3" y1="100.6" x2="97.9" y2="96.3" stroke="rgb(0,0,0)"  stroke-width="2.0"/>
<line x1="105.2" y1="173.5" x2="125.2" y2="208.1" stroke="rgb(0,0,0)"  stroke-width="2.0"/>
<line x1="125.2" y1="208.1" x2="151.4" y2="202.5" stroke="rgb(0,0,0)"  stroke-width="2.0"/>
<line x1="129.5" y1="199.8" x2="147.9" y2="195.9" stroke="rgb(0,0,0)"  stroke-width="2.0"/>
<line x1="165.7" y1="186.9" x2="167.1" y2="172.9" stroke="rgb(0,0,0)"  stroke-width="2.0"/>
<line x1="156.6" y1="154.7" x2="131.9" y2="143.7" stroke="rgb(0,0,0)"  stroke-width="2.0"/>
<line x1="131.9" y1="143.7" x2="105.2" y2="173.5" stroke="rgb(0,0,0)"  stroke-width="2.0"/>
<line x1="133.3" y1="153.0" x2="114.5" y2="173.8" stroke="rgb(0,0,0)"  stroke-width="2.0"/>
<line x1="237.8" y1="80.0" x2="214.4" y2="93.5" stroke="rgb(0,0,0)"  stroke-width="2.0"/>
<line x1="203.1" y1="113.2" x2="203.1" y2="140.0" stroke="rgb(0,0,0)"  stroke-width="2.0"/>
<line x1="210.3" y1="115.2" x2="210.3" y2="134.0" stroke="rgb(0,0,0)"  stroke-width="2.0"/>
<line x1="203.1" y1="140.0" x2="226.5" y2="153.5" stroke="rgb(0,0,0)"  stroke-width="2.0"/>
<line x1="249.2" y1="153.4" x2="272.4" y2="140.0" stroke="rgb(0,0,0)"  stroke-width="2.0"/>
<line x1="247.3" y1="146.2" x2="263.6" y2="136.8" stroke="rgb(0,0,0)"  stroke-width="2.0"/>
<line x1="272.4" y1="140.0" x2="272.4" y2="100.0" stroke="rgb(0,0,0)"  stroke-width="2.0"/>
<line x1="272.4" y1="100.0" x2="237.8" y2="80.0" stroke="rgb(0,0,0)"  stroke-width="2.0"/>
<line x1="263.6" y1="103.2" x2="239.4" y2="89.2" stroke="rgb(0,0,0)"  stroke-width="2.0"/>
<text x="90.814171" y="328.961856" fill="rgb(191,191,191)"  stroke="rgb(191,191,191)" stroke-width="1" font-size="16" >H</text>
<text x="341.043071" y="168.000000" fill="rgb(191,191,191)"  stroke="rgb(191,191,191)" stroke-width="1" font-size="16" >H</text>
<text x="321.043071" y="133.358984" fill="rgb(191,191,191)"  stroke="rgb(191,191,191)" stroke-width="1" font-size="16" >H</text>
<text x="301.043071" y="208.000000" fill="rgb(191,191,191)"  stroke="rgb(191,191,191)" stroke-width="1" font-size="16" >H</text>
<text x="301.043071" y="88.000000" fill="rgb(191,191,191)"  stroke="rgb(191,191,191)" stroke-width="1" font-size="16" >H</text>
<text x="59.391088" y="177.275189" fill="rgb(191,191,191)"  stroke="rgb(191,191,191)" stroke-width="1" font-size="16" >H</text>
<text x="42.849270" y="204.009016" fill="rgb(191,191,191)"  stroke="rgb(191,191,191)" stroke-width="1" font-size="16" >H</text>
<text x="82.630145" y="199.827878" fill="rgb(191,191,191)"  stroke="rgb(191,191,191)" stroke-width="1" font-size="16" >H</text>
<text x="34.000000" y="259.881106" fill="rgb(191,191,191)"  stroke="rgb(191,191,191)" stroke-width="1" font-size="16" >H</text>
<text x="117.620720" y="112.604630" fill="rgb(12,12,255)"  stroke="rgb(12,12,255)" stroke-width="1" font-size="16" >N</text>
<text x="123.174851" y="305.450446" fill="rgb(191,191,191)"  stroke="rgb(191,191,191)" stroke-width="1" font-size="16" >H</text>
<text x="46.852157" y="293.362119" fill="rgb(191,191,191)"  stroke="rgb(191,191,191)" stroke-width="1" font-size="16" >H</text>
<text x="179.225192" y="264.727489" fill="rgb(191,191,191)"  stroke="rgb(191,191,191)" stroke-width="1" font-size="16" >H</text>
<text x="155.713782" y="232.366809" fill="rgb(191,191,191)"  stroke="rgb(191,191,191)" stroke-width="1" font-size="16" >H</text>
<text x="143.625455" y="308.689503" fill="rgb(191,191,191)"  stroke="rgb(191,191,191)" stroke-width="1" font-size="16" >H</text>
<text x="147.346513" y="85.839406" fill="rgb(191,191,191)"  stroke="rgb(191,191,191)" stroke-width="1" font-size="16" >H</text>
<text x="79.578460" y="100.243950" fill="rgb(191,191,191)"  stroke="rgb(191,191,191)" stroke-width="1" font-size="16" >H</text>
<text x="188.023661" y="234.546100" fill="rgb(191,191,191)"  stroke="rgb(191,191,191)" stroke-width="1" font-size="16" >H</text>
<text x="231.761039" y="48.000000" fill="rgb(255,12,12)"  stroke="rgb(255,12,12)" stroke-width="1" font-size="16" >OH</text>
<text x="197.120023" y="108.000000" fill="rgb(12,12,255)"  stroke="rgb(12,12,255)" stroke-width="1" font-size="16" >N</text>
<text x="231.761039" y="168.000000" fill="rgb(12,12,255)"  stroke="rgb(12,12,255)" stroke-width="1" font-size="16" >N</text>
<text x="162.479006" y="168.000000" fill="rgb(12,12,255)"  stroke="rgb(12,12,255)" stroke-width="1" font-size="16" >N</text>
<text x="158.297868" y="207.780876" fill="rgb(12,12,255)"  stroke="rgb(12,12,255)" stroke-width="1" font-size="16" >N</text>
</svg>
</g>
<text font-size="18.000000" fill ="black" font-family="sans-serif"
x="10.000000" y="20.000000" >ZINC22699169</text>
</svg>
