<?xml version="1.0"?>
<svg version="1.1" id="topsvg"
xmlns="http://www.w3.org/2000/svg" xmlns:xlink="http://www.w3.org/1999/xlink"
xmlns:cml="http://www.xml-cml.org/schema" x="0" y="0" width="200px" height="200px" viewBox="0 0 100 100">
<title>ZINC19701868 - Open Babel Depiction</title>
<rect x="0" y="0" width="100" height="100" fill="white"/>
<g transform="translate(0,0)">
<svg width="100" height="100" x="0" y="0" viewBox="0 0 340.596 280.545"
font-family="sans-serif" stroke="rgb(0,0,0)" stroke-width="2"  stroke-linecap="round">
<line x1="98.1" y1="73.5" x2="110.9" y2="51.3" stroke="rgb(0,0,0)"  stroke-width="2.0"/>
<line x1="59.4" y1="73.5" x2="46.5" y2="51.3" stroke="rgb(0,0,0)"  stroke-width="2.0"/>
<line x1="59.4" y1="140.6" x2="46.5" y2="162.8" stroke="rgb(0,0,0)"  stroke-width="2.0"/>
<line x1="98.1" y1="140.6" x2="110.9" y2="162.8" stroke="rgb(0,0,0)"  stroke-width="2.0"/>
<line x1="117.4" y1="107.0" x2="194.8" y2="107.0" stroke="rgb(0,0,0)"  stroke-width="2.0"/>
<polygon points="194.838710 107.047128 178.406866 86.586340 185.335069 82.586340 " stroke-width="2.000000" fill="rgb(0,0,0)"  stroke="rgb(0,0,0)" />
<line x1="229.0" y1="212.6" x2="237.5" y2="222.1" stroke="rgb(0,0,0)"  stroke-width="2.0"/>
<line x1="181.8" y1="207.0" x2="169.0" y2="229.3" stroke="rgb(0,0,0)"  stroke-width="2.0"/>
<line x1="261.9" y1="145.8" x2="287.6" y2="145.8" stroke="rgb(0,0,0)"  stroke-width="2.0"/>
<line x1="261.9" y1="145.8" x2="274.7" y2="168.0" stroke="rgb(0,0,0)"  stroke-width="2.0"/>
<line x1="261.9" y1="107.0" x2="274.7" y2="84.8" stroke="rgb(0,0,0)"  stroke-width="2.0"/>
<line x1="261.9" y1="107.0" x2="287.6" y2="107.0" stroke="rgb(0,0,0)"  stroke-width="2.0"/>
<line x1="221.9" y1="76.4" x2="215.5" y2="65.4" stroke="rgb(0,0,0)"  stroke-width="2.0"/>
<line x1="234.9" y1="76.4" x2="241.2" y2="65.4" stroke="rgb(0,0,0)"  stroke-width="2.0"/>
<line x1="181.8" y1="207.0" x2="207.4" y2="204.3" stroke="rgb(0,0,0)"  stroke-width="2.0"/>
<line x1="223.0" y1="190.3" x2="228.4" y2="165.1" stroke="rgb(0,0,0)"  stroke-width="2.0"/>
<line x1="228.4" y1="165.1" x2="194.8" y2="145.8" stroke="rgb(0,0,0)"  stroke-width="2.0"/>
<line x1="219.6" y1="168.3" x2="196.4" y2="155.0" stroke="rgb(0,0,0)"  stroke-width="2.0"/>
<line x1="194.8" y1="145.8" x2="175.7" y2="163.0" stroke="rgb(0,0,0)"  stroke-width="2.0"/>
<line x1="171.3" y1="183.3" x2="181.8" y2="207.0" stroke="rgb(0,0,0)"  stroke-width="2.0"/>
<line x1="178.7" y1="182.3" x2="186.0" y2="198.6" stroke="rgb(0,0,0)"  stroke-width="2.0"/>
<line x1="46.5" y1="118.3" x2="59.4" y2="140.6" stroke="rgb(0,0,0)"  stroke-width="2.0"/>
<line x1="59.4" y1="140.6" x2="98.1" y2="140.6" stroke="rgb(0,0,0)"  stroke-width="2.0"/>
<line x1="65.4" y1="133.4" x2="92.1" y2="133.4" stroke="rgb(0,0,0)"  stroke-width="2.0"/>
<line x1="98.1" y1="140.6" x2="117.4" y2="107.0" stroke="rgb(0,0,0)"  stroke-width="2.0"/>
<line x1="117.4" y1="107.0" x2="98.1" y2="73.5" stroke="rgb(0,0,0)"  stroke-width="2.0"/>
<line x1="108.2" y1="105.5" x2="94.8" y2="82.3" stroke="rgb(0,0,0)"  stroke-width="2.0"/>
<line x1="98.1" y1="73.5" x2="59.4" y2="73.5" stroke="rgb(0,0,0)"  stroke-width="2.0"/>
<line x1="59.4" y1="73.5" x2="46.4" y2="96.0" stroke="rgb(0,0,0)"  stroke-width="2.0"/>
<line x1="62.6" y1="82.3" x2="53.7" y2="97.7" stroke="rgb(0,0,0)"  stroke-width="2.0"/>
<line x1="228.4" y1="165.1" x2="261.9" y2="145.8" stroke="rgb(0,0,0)"  stroke-width="2.0"/>
<line x1="261.9" y1="145.8" x2="261.9" y2="107.0" stroke="rgb(0,0,0)"  stroke-width="2.0"/>
<line x1="261.9" y1="107.0" x2="239.6" y2="94.2" stroke="rgb(0,0,0)"  stroke-width="2.0"/>
<line x1="217.1" y1="94.2" x2="194.8" y2="107.0" stroke="rgb(0,0,0)"  stroke-width="2.0"/>
<line x1="194.8" y1="107.0" x2="194.8" y2="145.8" stroke="rgb(0,0,0)"  stroke-width="2.0"/>
<text x="241.717112" y="62.168725" fill="rgb(191,191,191)"  stroke="rgb(191,191,191)" stroke-width="1" font-size="16" >H</text>
<text x="240.215909" y="239.742319" fill="rgb(191,191,191)"  stroke="rgb(191,191,191)" stroke-width="1" font-size="16" >H</text>
<text x="203.007435" y="62.168725" fill="rgb(191,191,191)"  stroke="rgb(191,191,191)" stroke-width="1" font-size="16" >H</text>
<text x="294.595515" y="115.047128" fill="rgb(191,191,191)"  stroke="rgb(191,191,191)" stroke-width="1" font-size="16" >H</text>
<text x="275.240676" y="81.523564" fill="rgb(191,191,191)"  stroke="rgb(191,191,191)" stroke-width="1" font-size="16" >H</text>
<text x="275.240676" y="187.280369" fill="rgb(191,191,191)"  stroke="rgb(191,191,191)" stroke-width="1" font-size="16" >H</text>
<text x="294.595515" y="153.756805" fill="rgb(191,191,191)"  stroke="rgb(191,191,191)" stroke-width="1" font-size="16" >H</text>
<text x="156.461619" y="248.545249" fill="rgb(191,191,191)"  stroke="rgb(191,191,191)" stroke-width="1" font-size="16" >H</text>
<text x="111.419355" y="182.094256" fill="rgb(191,191,191)"  stroke="rgb(191,191,191)" stroke-width="1" font-size="16" >H</text>
<text x="34.000000" y="182.094256" fill="rgb(191,191,191)"  stroke="rgb(191,191,191)" stroke-width="1" font-size="16" >H</text>
<text x="34.000000" y="48.000000" fill="rgb(191,191,191)"  stroke="rgb(191,191,191)" stroke-width="1" font-size="16" >H</text>
<text x="111.419355" y="48.000000" fill="rgb(191,191,191)"  stroke="rgb(191,191,191)" stroke-width="1" font-size="16" >H</text>
<text x="233.162274" y="83.660289" fill="rgb(12,12,255)"  stroke="rgb(12,12,255)" stroke-width="1" font-size="16" >+</text>
<text x="222.362274" y="95.692289" fill="rgb(12,12,255)"  stroke="rgb(12,12,255)" stroke-width="1" font-size="16" >N</text>
<text x="160.071813" y="179.658635" fill="rgb(12,12,255)"  stroke="rgb(12,12,255)" stroke-width="1" font-size="16" >N</text>
<text x="214.314079" y="210.975422" fill="rgb(12,12,255)"  stroke="rgb(12,12,255)" stroke-width="1" font-size="16" >N</text>
<text x="169.483871" y="81.523564" fill="rgb(191,191,191)"  stroke="rgb(191,191,191)" stroke-width="1" font-size="16" >H</text>
<text x="34.000000" y="115.047128" fill="rgb(12,12,255)"  stroke="rgb(12,12,255)" stroke-width="1" font-size="16" >N</text>
</svg>
</g>
<text font-size="18.000000" fill ="black" font-family="sans-serif"
x="10.000000" y="20.000000" >ZINC19701868</text>
</svg>
