<?xml version="1.0"?>
<svg version="1.1" id="topsvg"
xmlns="http://www.w3.org/2000/svg" xmlns:xlink="http://www.w3.org/1999/xlink"
xmlns:cml="http://www.xml-cml.org/schema" x="0" y="0" width="200px" height="200px" viewBox="0 0 100 100">
<title>ZINC25695898 - Open Babel Depiction</title>
<rect x="0" y="0" width="100" height="100" fill="white"/>
<g transform="translate(0,0)">
<svg width="100" height="100" x="0" y="0" viewBox="0 0 368.889 286.691"
font-family="sans-serif" stroke="rgb(0,0,0)" stroke-width="2"  stroke-linecap="round">
<line x1="251.9" y1="78.5" x2="232.6" y2="111.9" stroke="rgb(0,0,0)"  stroke-width="2.0"/>
<line x1="251.9" y1="78.5" x2="277.4" y2="78.5" stroke="rgb(0,0,0)"  stroke-width="2.0"/>
<line x1="251.9" y1="78.5" x2="251.9" y2="53.0" stroke="rgb(0,0,0)"  stroke-width="2.0"/>
<line x1="251.9" y1="78.5" x2="229.8" y2="65.8" stroke="rgb(0,0,0)"  stroke-width="2.0"/>
<line x1="232.6" y1="111.9" x2="168.6" y2="111.9" stroke="rgb(0,0,0)"  stroke-width="2.0"/>
<line x1="232.6" y1="111.9" x2="232.6" y2="137.4" stroke="rgb(0,0,0)"  stroke-width="2.0"/>
<line x1="232.6" y1="111.9" x2="254.7" y2="124.6" stroke="rgb(0,0,0)"  stroke-width="2.0"/>
<line x1="155.6" y1="124.9" x2="155.6" y2="150.4" stroke="rgb(0,0,0)"  stroke-width="2.0"/>
<line x1="142.6" y1="111.9" x2="130.0" y2="111.9" stroke="rgb(0,0,0)"  stroke-width="2.0"/>
<line x1="155.6" y1="98.9" x2="155.6" y2="86.4" stroke="rgb(0,0,0)"  stroke-width="2.0"/>
<line x1="155.6" y1="150.4" x2="188.9" y2="169.7" stroke="rgb(0,0,0)"  stroke-width="2.0"/>
<line x1="155.6" y1="150.4" x2="142.8" y2="172.5" stroke="rgb(0,0,0)"  stroke-width="2.0"/>
<line x1="155.6" y1="150.4" x2="130.0" y2="150.4" stroke="rgb(0,0,0)"  stroke-width="2.0"/>
<line x1="188.9" y1="169.7" x2="188.9" y2="195.2" stroke="rgb(0,0,0)"  stroke-width="2.0"/>
<line x1="188.9" y1="169.7" x2="214.4" y2="169.7" stroke="rgb(0,0,0)"  stroke-width="2.0"/>
<line x1="188.9" y1="169.7" x2="201.7" y2="147.6" stroke="rgb(0,0,0)"  stroke-width="2.0"/>
<line x1="175.9" y1="208.2" x2="163.4" y2="208.2" stroke="rgb(0,0,0)"  stroke-width="2.0"/>
<line x1="188.9" y1="221.2" x2="188.9" y2="233.7" stroke="rgb(0,0,0)"  stroke-width="2.0"/>
<line x1="201.9" y1="208.2" x2="214.4" y2="208.2" stroke="rgb(0,0,0)"  stroke-width="2.0"/>
<line x1="113.1" y1="124.6" x2="106.9" y2="135.5" stroke="rgb(0,0,0)"  stroke-width="2.0"/>
<line x1="107.9" y1="121.6" x2="101.7" y2="132.5" stroke="rgb(0,0,0)"  stroke-width="2.0"/>
<line x1="110.5" y1="100.6" x2="104.3" y2="89.8" stroke="rgb(0,0,0)"  stroke-width="2.0"/>
<line x1="84.8" y1="145.2" x2="72.3" y2="145.2" stroke="rgb(0,0,0)"  stroke-width="2.0"/>
<line x1="52.8" y1="134.0" x2="46.5" y2="123.1" stroke="rgb(0,0,0)"  stroke-width="2.0"/>
<line x1="290.4" y1="91.5" x2="290.4" y2="104.0" stroke="rgb(0,0,0)"  stroke-width="2.0"/>
<line x1="303.4" y1="78.5" x2="315.9" y2="78.5" stroke="rgb(0,0,0)"  stroke-width="2.0"/>
<line x1="290.4" y1="65.5" x2="290.4" y2="53.0" stroke="rgb(0,0,0)"  stroke-width="2.0"/>
<text x="226.592593" y="158.395053" fill="rgb(191,191,191)"  stroke="rgb(191,191,191)" stroke-width="1" font-size="16" >H</text>
<text x="284.370370" y="48.000000" fill="rgb(191,191,191)"  stroke="rgb(191,191,191)" stroke-width="1" font-size="16" >H</text>
<text x="149.555556" y="81.358016" fill="rgb(191,191,191)"  stroke="rgb(191,191,191)" stroke-width="1" font-size="16" >H</text>
<text x="221.432090" y="216.172830" fill="rgb(191,191,191)"  stroke="rgb(191,191,191)" stroke-width="1" font-size="16" >H</text>
<text x="182.913571" y="254.691349" fill="rgb(191,191,191)"  stroke="rgb(191,191,191)" stroke-width="1" font-size="16" >H</text>
<text x="322.888889" y="86.518519" fill="rgb(191,191,191)"  stroke="rgb(191,191,191)" stroke-width="1" font-size="16" >H</text>
<text x="284.370370" y="125.037037" fill="rgb(191,191,191)"  stroke="rgb(191,191,191)" stroke-width="1" font-size="16" >H</text>
<text x="34.000000" y="119.876534" fill="rgb(191,191,191)"  stroke="rgb(191,191,191)" stroke-width="1" font-size="16" >H</text>
<text x="144.395053" y="216.172830" fill="rgb(191,191,191)"  stroke="rgb(191,191,191)" stroke-width="1" font-size="16" >H</text>
<text x="202.172830" y="144.296296" fill="rgb(191,191,191)"  stroke="rgb(191,191,191)" stroke-width="1" font-size="16" >H</text>
<text x="221.432090" y="177.654312" fill="rgb(191,191,191)"  stroke="rgb(191,191,191)" stroke-width="1" font-size="16" >H</text>
<text x="111.037037" y="158.395053" fill="rgb(191,191,191)"  stroke="rgb(191,191,191)" stroke-width="1" font-size="16" >H</text>
<text x="130.296296" y="191.753068" fill="rgb(191,191,191)"  stroke="rgb(191,191,191)" stroke-width="1" font-size="16" >H</text>
<text x="259.950608" y="139.135793" fill="rgb(191,191,191)"  stroke="rgb(191,191,191)" stroke-width="1" font-size="16" >H</text>
<text x="212.493836" y="67.259259" fill="rgb(191,191,191)"  stroke="rgb(191,191,191)" stroke-width="1" font-size="16" >H</text>
<text x="245.851852" y="48.000000" fill="rgb(191,191,191)"  stroke="rgb(191,191,191)" stroke-width="1" font-size="16" >H</text>
<text x="295.170370" y="74.486519" fill="rgb(12,12,255)"  stroke="rgb(12,12,255)" stroke-width="1" font-size="16" >+</text>
<text x="284.370370" y="86.518519" fill="rgb(12,12,255)"  stroke="rgb(12,12,255)" stroke-width="1" font-size="16" >N</text>
<text x="79.777778" y="86.518519" fill="rgb(255,12,12)"  stroke="rgb(255,12,12)" stroke-width="1" font-size="16" >HO</text>
<text x="53.259259" y="153.234550" fill="rgb(255,12,12)"  stroke="rgb(255,12,12)" stroke-width="1" font-size="16" >O</text>
<text x="91.777778" y="153.234550" fill="rgb(12,12,255)"  stroke="rgb(12,12,255)" stroke-width="1" font-size="16" >N</text>
<text x="111.037037" y="119.876534" fill="rgb(12,12,255)"  stroke="rgb(12,12,255)" stroke-width="1" font-size="16" >N</text>
<text x="193.713571" y="204.140830" fill="rgb(12,12,255)"  stroke="rgb(12,12,255)" stroke-width="1" font-size="16" >+</text>
<text x="182.913571" y="216.172830" fill="rgb(12,12,255)"  stroke="rgb(12,12,255)" stroke-width="1" font-size="16" >N</text>
<text x="160.355556" y="107.844534" fill="rgb(12,12,255)"  stroke="rgb(12,12,255)" stroke-width="1" font-size="16" >+</text>
<text x="149.555556" y="119.876534" fill="rgb(12,12,255)"  stroke="rgb(12,12,255)" stroke-width="1" font-size="16" >N</text>
</svg>
</g>
<text font-size="18.000000" fill ="black" font-family="sans-serif"
x="10.000000" y="20.000000" >ZINC25695898</text>
</svg>
