<?xml version="1.0"?>
<svg version="1.1" id="topsvg"
xmlns="http://www.w3.org/2000/svg" xmlns:xlink="http://www.w3.org/1999/xlink"
xmlns:cml="http://www.xml-cml.org/schema" x="0" y="0" width="200px" height="200px" viewBox="0 0 100 100">
<title>ZINC00001651 - Open Babel Depiction</title>
<rect x="0" y="0" width="100" height="100" fill="white"/>
<g transform="translate(0,0)">
<svg width="100" height="100" x="0" y="0" viewBox="0 0 335.662 445.167"
font-family="sans-serif" stroke="rgb(0,0,0)" stroke-width="2"  stroke-linecap="round">
<line x1="100.5" y1="78.0" x2="106.1" y2="104.5" stroke="rgb(0,0,0)"  stroke-width="2.0"/>
<line x1="100.5" y1="78.0" x2="108.9" y2="52.4" stroke="rgb(0,0,0)"  stroke-width="2.0"/>
<line x1="100.5" y1="78.0" x2="126.9" y2="72.4" stroke="rgb(0,0,0)"  stroke-width="2.0"/>
<line x1="100.5" y1="78.0" x2="74.9" y2="69.7" stroke="rgb(0,0,0)"  stroke-width="2.0"/>
<line x1="79.1" y1="143.9" x2="52.7" y2="149.5" stroke="rgb(0,0,0)"  stroke-width="2.0"/>
<line x1="79.1" y1="143.9" x2="61.1" y2="123.9" stroke="rgb(0,0,0)"  stroke-width="2.0"/>
<line x1="87.4" y1="183.1" x2="79.1" y2="208.7" stroke="rgb(0,0,0)"  stroke-width="2.0"/>
<line x1="87.4" y1="183.1" x2="61.0" y2="188.7" stroke="rgb(0,0,0)"  stroke-width="2.0"/>
<line x1="227.9" y1="176.3" x2="233.5" y2="149.9" stroke="rgb(0,0,0)"  stroke-width="2.0"/>
<line x1="257.6" y1="203.1" x2="283.3" y2="194.7" stroke="rgb(0,0,0)"  stroke-width="2.0"/>
<line x1="249.3" y1="242.2" x2="269.4" y2="260.3" stroke="rgb(0,0,0)"  stroke-width="2.0"/>
<line x1="211.3" y1="254.5" x2="205.6" y2="281.0" stroke="rgb(0,0,0)"  stroke-width="2.0"/>
<line x1="135.3" y1="243.2" x2="121.8" y2="266.6" stroke="rgb(0,0,0)"  stroke-width="2.0"/>
<line x1="121.8" y1="266.6" x2="141.8" y2="301.2" stroke="rgb(0,0,0)"  stroke-width="2.0"/>
<line x1="121.8" y1="266.6" x2="98.4" y2="280.1" stroke="rgb(0,0,0)"  stroke-width="2.0"/>
<line x1="121.8" y1="266.6" x2="98.4" y2="253.1" stroke="rgb(0,0,0)"  stroke-width="2.0"/>
<line x1="181.8" y1="301.2" x2="195.3" y2="277.9" stroke="rgb(0,0,0)"  stroke-width="2.0"/>
<line x1="201.8" y1="335.9" x2="228.8" y2="335.9" stroke="rgb(0,0,0)"  stroke-width="2.0"/>
<line x1="181.8" y1="370.5" x2="195.3" y2="393.9" stroke="rgb(0,0,0)"  stroke-width="2.0"/>
<line x1="141.8" y1="370.5" x2="128.3" y2="393.9" stroke="rgb(0,0,0)"  stroke-width="2.0"/>
<line x1="121.8" y1="335.9" x2="94.8" y2="335.9" stroke="rgb(0,0,0)"  stroke-width="2.0"/>
<line x1="146.9" y1="129.5" x2="155.2" y2="103.9" stroke="rgb(0,0,0)"  stroke-width="2.0"/>
<line x1="146.9" y1="129.5" x2="173.3" y2="123.9" stroke="rgb(0,0,0)"  stroke-width="2.0"/>
<line x1="181.5" y1="227.8" x2="189.9" y2="188.7" stroke="rgb(0,0,0)"  stroke-width="2.0"/>
<line x1="175.7" y1="220.4" x2="181.6" y2="193.0" stroke="rgb(0,0,0)"  stroke-width="2.0"/>
<line x1="189.9" y1="188.7" x2="155.2" y2="168.7" stroke="rgb(0,0,0)"  stroke-width="2.0"/>
<line x1="155.2" y1="168.7" x2="125.5" y2="195.4" stroke="rgb(0,0,0)"  stroke-width="2.0"/>
<line x1="155.6" y1="178.0" x2="134.8" y2="196.8" stroke="rgb(0,0,0)"  stroke-width="2.0"/>
<line x1="125.5" y1="195.4" x2="136.5" y2="220.1" stroke="rgb(0,0,0)"  stroke-width="2.0"/>
<line x1="154.7" y1="230.6" x2="181.5" y2="227.8" stroke="rgb(0,0,0)"  stroke-width="2.0"/>
<line x1="249.3" y1="242.2" x2="257.6" y2="203.1" stroke="rgb(0,0,0)"  stroke-width="2.0"/>
<line x1="257.6" y1="203.1" x2="227.9" y2="176.3" stroke="rgb(0,0,0)"  stroke-width="2.0"/>
<line x1="248.3" y1="204.4" x2="227.5" y2="185.7" stroke="rgb(0,0,0)"  stroke-width="2.0"/>
<line x1="227.9" y1="176.3" x2="189.9" y2="188.7" stroke="rgb(0,0,0)"  stroke-width="2.0"/>
<line x1="181.5" y1="227.8" x2="211.3" y2="254.5" stroke="rgb(0,0,0)"  stroke-width="2.0"/>
<line x1="211.3" y1="254.5" x2="249.3" y2="242.2" stroke="rgb(0,0,0)"  stroke-width="2.0"/>
<line x1="214.7" y1="245.8" x2="241.4" y2="237.2" stroke="rgb(0,0,0)"  stroke-width="2.0"/>
<line x1="201.8" y1="335.9" x2="181.8" y2="370.5" stroke="rgb(0,0,0)"  stroke-width="2.0"/>
<line x1="181.8" y1="370.5" x2="141.8" y2="370.5" stroke="rgb(0,0,0)"  stroke-width="2.0"/>
<line x1="175.8" y1="363.3" x2="147.8" y2="363.3" stroke="rgb(0,0,0)"  stroke-width="2.0"/>
<line x1="141.8" y1="370.5" x2="121.8" y2="335.9" stroke="rgb(0,0,0)"  stroke-width="2.0"/>
<line x1="121.8" y1="335.9" x2="141.8" y2="301.2" stroke="rgb(0,0,0)"  stroke-width="2.0"/>
<line x1="131.0" y1="334.3" x2="145.0" y2="310.0" stroke="rgb(0,0,0)"  stroke-width="2.0"/>
<line x1="141.8" y1="301.2" x2="181.8" y2="301.2" stroke="rgb(0,0,0)"  stroke-width="2.0"/>
<line x1="181.8" y1="301.2" x2="201.8" y2="335.9" stroke="rgb(0,0,0)"  stroke-width="2.0"/>
<line x1="178.5" y1="310.0" x2="192.5" y2="334.3" stroke="rgb(0,0,0)"  stroke-width="2.0"/>
<line x1="87.4" y1="183.1" x2="125.5" y2="195.4" stroke="rgb(0,0,0)"  stroke-width="2.0"/>
<line x1="155.2" y1="168.7" x2="146.9" y2="129.5" stroke="rgb(0,0,0)"  stroke-width="2.0"/>
<line x1="146.9" y1="129.5" x2="121.2" y2="121.2" stroke="rgb(0,0,0)"  stroke-width="2.0"/>
<line x1="99.2" y1="125.9" x2="79.1" y2="143.9" stroke="rgb(0,0,0)"  stroke-width="2.0"/>
<line x1="79.1" y1="143.9" x2="87.4" y2="183.1" stroke="rgb(0,0,0)"  stroke-width="2.0"/>
<text x="196.944299" y="301.671781" fill="rgb(191,191,191)"  stroke="rgb(191,191,191)" stroke-width="1" font-size="16" >H</text>
<text x="106.895909" y="48.000000" fill="rgb(191,191,191)"  stroke="rgb(191,191,191)" stroke-width="1" font-size="16" >H</text>
<text x="133.661133" y="77.725793" fill="rgb(191,191,191)"  stroke="rgb(191,191,191)" stroke-width="1" font-size="16" >H</text>
<text x="56.492969" y="73.681581" fill="rgb(191,191,191)"  stroke="rgb(191,191,191)" stroke-width="1" font-size="16" >H</text>
<text x="34.000000" y="160.249857" fill="rgb(191,191,191)"  stroke="rgb(191,191,191)" stroke-width="1" font-size="16" >H</text>
<text x="46.360680" y="122.207596" fill="rgb(191,191,191)"  stroke="rgb(191,191,191)" stroke-width="1" font-size="16" >H</text>
<text x="69.081692" y="229.101554" fill="rgb(191,191,191)"  stroke="rgb(191,191,191)" stroke-width="1" font-size="16" >H</text>
<text x="42.316468" y="199.375761" fill="rgb(191,191,191)"  stroke="rgb(191,191,191)" stroke-width="1" font-size="16" >H</text>
<text x="230.210170" y="145.168165" fill="rgb(191,191,191)"  stroke="rgb(191,191,191)" stroke-width="1" font-size="16" >H</text>
<text x="289.661756" y="198.698613" fill="rgb(191,191,191)"  stroke="rgb(191,191,191)" stroke-width="1" font-size="16" >H</text>
<text x="273.028821" y="276.950421" fill="rgb(191,191,191)"  stroke="rgb(191,191,191)" stroke-width="1" font-size="16" >H</text>
<text x="81.113082" y="294.602807" fill="rgb(191,191,191)"  stroke="rgb(191,191,191)" stroke-width="1" font-size="16" >H</text>
<text x="81.113082" y="254.602807" fill="rgb(191,191,191)"  stroke="rgb(191,191,191)" stroke-width="1" font-size="16" >H</text>
<text x="195.754098" y="274.602807" fill="rgb(191,191,191)"  stroke="rgb(191,191,191)" stroke-width="1" font-size="16" >H</text>
<text x="235.754098" y="343.884839" fill="rgb(191,191,191)"  stroke="rgb(191,191,191)" stroke-width="1" font-size="16" >H</text>
<text x="195.754098" y="413.166872" fill="rgb(191,191,191)"  stroke="rgb(191,191,191)" stroke-width="1" font-size="16" >H</text>
<text x="115.754098" y="413.166872" fill="rgb(191,191,191)"  stroke="rgb(191,191,191)" stroke-width="1" font-size="16" >H</text>
<text x="75.754098" y="343.884839" fill="rgb(191,191,191)"  stroke="rgb(191,191,191)" stroke-width="1" font-size="16" >H</text>
<text x="153.254637" y="99.486584" fill="rgb(191,191,191)"  stroke="rgb(191,191,191)" stroke-width="1" font-size="16" >H</text>
<text x="180.019862" y="129.212377" fill="rgb(191,191,191)"  stroke="rgb(191,191,191)" stroke-width="1" font-size="16" >H</text>
<text x="102.851697" y="125.168165" fill="rgb(12,12,255)"  stroke="rgb(12,12,255)" stroke-width="1" font-size="16" >N</text>
<text x="135.754098" y="239.961791" fill="rgb(12,12,255)"  stroke="rgb(12,12,255)" stroke-width="1" font-size="16" >N</text>
</svg>
</g>
<text font-size="18.000000" fill ="black" font-family="sans-serif"
x="10.000000" y="20.000000" >ZINC00001651</text>
</svg>
