<?xml version="1.0"?>
<svg version="1.1" id="topsvg"
xmlns="http://www.w3.org/2000/svg" xmlns:xlink="http://www.w3.org/1999/xlink"
xmlns:cml="http://www.xml-cml.org/schema" x="0" y="0" width="200px" height="200px" viewBox="0 0 100 100">
<title>ZINC00142575 - Open Babel Depiction</title>
<rect x="0" y="0" width="100" height="100" fill="white"/>
<g transform="translate(0,0)">
<svg width="100" height="100" x="0" y="0" viewBox="0 0 361.607 263.986"
font-family="sans-serif" stroke="rgb(0,0,0)" stroke-width="2"  stroke-linecap="round">
<line x1="223.3" y1="178.4" x2="206.2" y2="195.5" stroke="rgb(0,0,0)"  stroke-width="2.0"/>
<line x1="259.3" y1="188.0" x2="265.6" y2="211.4" stroke="rgb(0,0,0)"  stroke-width="2.0"/>
<line x1="285.6" y1="161.7" x2="309.1" y2="168.0" stroke="rgb(0,0,0)"  stroke-width="2.0"/>
<line x1="276.0" y1="125.7" x2="293.1" y2="108.6" stroke="rgb(0,0,0)"  stroke-width="2.0"/>
<line x1="240.0" y1="116.1" x2="233.7" y2="92.7" stroke="rgb(0,0,0)"  stroke-width="2.0"/>
<line x1="213.7" y1="142.4" x2="141.7" y2="123.1" stroke="rgb(0,0,0)"  stroke-width="2.0"/>
<line x1="141.7" y1="123.1" x2="138.6" y2="99.1" stroke="rgb(0,0,0)"  stroke-width="2.0"/>
<line x1="141.7" y1="160.4" x2="166.0" y2="160.4" stroke="rgb(0,0,0)"  stroke-width="2.0"/>
<line x1="141.7" y1="160.4" x2="153.9" y2="181.4" stroke="rgb(0,0,0)"  stroke-width="2.0"/>
<line x1="112.5" y1="179.0" x2="112.5" y2="203.2" stroke="rgb(0,0,0)"  stroke-width="2.0"/>
<line x1="106.5" y1="179.0" x2="106.5" y2="203.2" stroke="rgb(0,0,0)"  stroke-width="2.0"/>
<line x1="77.2" y1="160.4" x2="53.0" y2="160.4" stroke="rgb(0,0,0)"  stroke-width="2.0"/>
<line x1="77.2" y1="160.4" x2="65.1" y2="181.4" stroke="rgb(0,0,0)"  stroke-width="2.0"/>
<line x1="75.7" y1="125.7" x2="54.7" y2="113.6" stroke="rgb(0,0,0)"  stroke-width="2.0"/>
<line x1="78.7" y1="120.5" x2="57.7" y2="108.4" stroke="rgb(0,0,0)"  stroke-width="2.0"/>
<line x1="109.5" y1="104.5" x2="97.4" y2="83.5" stroke="rgb(0,0,0)"  stroke-width="2.0"/>
<line x1="109.5" y1="104.5" x2="140.2" y2="51.3" stroke="rgb(0,0,0)"  stroke-width="2.0"/>
<line x1="285.6" y1="161.7" x2="276.0" y2="125.7" stroke="rgb(0,0,0)"  stroke-width="2.0"/>
<line x1="276.0" y1="125.7" x2="240.0" y2="116.1" stroke="rgb(0,0,0)"  stroke-width="2.0"/>
<line x1="268.3" y1="131.1" x2="244.0" y2="124.6" stroke="rgb(0,0,0)"  stroke-width="2.0"/>
<line x1="240.0" y1="116.1" x2="213.7" y2="142.4" stroke="rgb(0,0,0)"  stroke-width="2.0"/>
<line x1="213.7" y1="142.4" x2="223.3" y2="178.4" stroke="rgb(0,0,0)"  stroke-width="2.0"/>
<line x1="222.2" y1="146.3" x2="228.7" y2="170.7" stroke="rgb(0,0,0)"  stroke-width="2.0"/>
<line x1="223.3" y1="178.4" x2="259.3" y2="188.0" stroke="rgb(0,0,0)"  stroke-width="2.0"/>
<line x1="259.3" y1="188.0" x2="285.6" y2="161.7" stroke="rgb(0,0,0)"  stroke-width="2.0"/>
<line x1="258.5" y1="178.7" x2="276.3" y2="160.8" stroke="rgb(0,0,0)"  stroke-width="2.0"/>
<line x1="109.5" y1="179.0" x2="77.2" y2="160.4" stroke="rgb(0,0,0)"  stroke-width="2.0"/>
<line x1="77.2" y1="160.4" x2="77.2" y2="123.1" stroke="rgb(0,0,0)"  stroke-width="2.0"/>
<line x1="77.2" y1="123.1" x2="109.5" y2="104.5" stroke="rgb(0,0,0)"  stroke-width="2.0"/>
<line x1="109.5" y1="104.5" x2="141.7" y2="123.1" stroke="rgb(0,0,0)"  stroke-width="2.0"/>
<line x1="141.7" y1="123.1" x2="141.7" y2="160.4" stroke="rgb(0,0,0)"  stroke-width="2.0"/>
<line x1="141.7" y1="160.4" x2="109.5" y2="179.0" stroke="rgb(0,0,0)"  stroke-width="2.0"/>
<text x="154.366030" y="200.618011" fill="rgb(191,191,191)"  stroke="rgb(191,191,191)" stroke-width="1" font-size="16" >H</text>
<text x="140.734739" y="48.000000" fill="rgb(191,191,191)"  stroke="rgb(191,191,191)" stroke-width="1" font-size="16" >H</text>
<text x="84.872670" y="80.251981" fill="rgb(191,191,191)"  stroke="rgb(191,191,191)" stroke-width="1" font-size="16" >H</text>
<text x="34.000000" y="168.366030" fill="rgb(191,191,191)"  stroke="rgb(191,191,191)" stroke-width="1" font-size="16" >H</text>
<text x="52.620690" y="200.618011" fill="rgb(191,191,191)"  stroke="rgb(191,191,191)" stroke-width="1" font-size="16" >H</text>
<text x="172.986720" y="168.366030" fill="rgb(191,191,191)"  stroke="rgb(191,191,191)" stroke-width="1" font-size="16" >H</text>
<text x="130.884365" y="94.201877" fill="rgb(191,191,191)"  stroke="rgb(191,191,191)" stroke-width="1" font-size="16" >H</text>
<text x="224.385014" y="88.096165" fill="rgb(191,191,191)"  stroke="rgb(191,191,191)" stroke-width="1" font-size="16" >H</text>
<text x="296.329834" y="107.373722" fill="rgb(191,191,191)"  stroke="rgb(191,191,191)" stroke-width="1" font-size="16" >H</text>
<text x="262.940127" y="231.985806" fill="rgb(191,191,191)"  stroke="rgb(191,191,191)" stroke-width="1" font-size="16" >H</text>
<text x="190.995307" y="212.708249" fill="rgb(191,191,191)"  stroke="rgb(191,191,191)" stroke-width="1" font-size="16" >H</text>
<text x="315.607391" y="179.318542" fill="rgb(127,178,255)"  stroke="rgb(127,178,255)" stroke-width="1" font-size="16" >F</text>
<text x="38.989399" y="112.503961" fill="rgb(255,12,12)"  stroke="rgb(255,12,12)" stroke-width="1" font-size="16" >O</text>
<text x="103.493360" y="224.228099" fill="rgb(255,12,12)"  stroke="rgb(255,12,12)" stroke-width="1" font-size="16" >O</text>
</svg>
</g>
<text font-size="18.000000" fill ="black" font-family="sans-serif"
x="10.000000" y="20.000000" >ZINC00142575</text>
</svg>
