<?xml version="1.0"?>
<svg version="1.1" id="topsvg"
xmlns="http://www.w3.org/2000/svg" xmlns:xlink="http://www.w3.org/1999/xlink"
xmlns:cml="http://www.xml-cml.org/schema" x="0" y="0" width="200px" height="200px" viewBox="0 0 100 100">
<title>ZINC17042174 - Open Babel Depiction</title>
<rect x="0" y="0" width="100" height="100" fill="white"/>
<g transform="translate(0,0)">
<svg width="100" height="100" x="0" y="0" viewBox="0 0 277.596 323.174"
font-family="sans-serif" stroke="rgb(0,0,0)" stroke-width="2"  stroke-linecap="round">
<line x1="201.6" y1="151.2" x2="225.2" y2="143.5" stroke="rgb(0,0,0)"  stroke-width="2.0"/>
<line x1="170.9" y1="104.0" x2="170.9" y2="115.9" stroke="rgb(0,0,0)"  stroke-width="2.0"/>
<line x1="152.0" y1="187.2" x2="115.0" y2="238.0" stroke="rgb(0,0,0)"  stroke-width="2.0"/>
<line x1="140.2" y1="151.2" x2="104.2" y2="139.5" stroke="rgb(0,0,0)"  stroke-width="2.0"/>
<line x1="104.2" y1="139.5" x2="99.0" y2="115.1" stroke="rgb(0,0,0)"  stroke-width="2.0"/>
<line x1="106.2" y1="141.7" x2="87.7" y2="158.4" stroke="rgb(0,0,0)"  stroke-width="2.0"/>
<line x1="102.2" y1="137.3" x2="83.7" y2="153.9" stroke="rgb(0,0,0)"  stroke-width="2.0"/>
<line x1="106.0" y1="93.7" x2="114.8" y2="85.8" stroke="rgb(0,0,0)"  stroke-width="2.0"/>
<line x1="84.0" y1="98.4" x2="72.6" y2="94.7" stroke="rgb(0,0,0)"  stroke-width="2.0"/>
<line x1="121.8" y1="64.4" x2="119.3" y2="52.7" stroke="rgb(0,0,0)"  stroke-width="2.0"/>
<line x1="94.5" y1="247.2" x2="82.6" y2="246.0" stroke="rgb(0,0,0)"  stroke-width="2.0"/>
<line x1="112.7" y1="260.4" x2="117.5" y2="271.3" stroke="rgb(0,0,0)"  stroke-width="2.0"/>
<line x1="52.4" y1="157.2" x2="63.7" y2="160.8" stroke="rgb(0,0,0)"  stroke-width="2.0"/>
<line x1="78.7" y1="177.6" x2="81.2" y2="189.2" stroke="rgb(0,0,0)"  stroke-width="2.0"/>
<line x1="193.7" y1="175.3" x2="201.6" y2="151.2" stroke="rgb(0,0,0)"  stroke-width="2.0"/>
<line x1="187.5" y1="171.0" x2="192.9" y2="154.7" stroke="rgb(0,0,0)"  stroke-width="2.0"/>
<line x1="201.6" y1="151.2" x2="181.4" y2="136.6" stroke="rgb(0,0,0)"  stroke-width="2.0"/>
<line x1="160.4" y1="136.6" x2="140.2" y2="151.2" stroke="rgb(0,0,0)"  stroke-width="2.0"/>
<line x1="140.2" y1="151.2" x2="152.0" y2="187.2" stroke="rgb(0,0,0)"  stroke-width="2.0"/>
<line x1="148.9" y1="154.7" x2="156.9" y2="179.3" stroke="rgb(0,0,0)"  stroke-width="2.0"/>
<line x1="152.0" y1="187.2" x2="176.8" y2="187.2" stroke="rgb(0,0,0)"  stroke-width="2.0"/>
<text x="101.403533" y="256.554946" fill="rgb(12,12,255)"  stroke="rgb(12,12,255)" stroke-width="1" font-size="16" >N</text>
<text x="77.918795" y="209.912994" fill="rgb(191,191,191)"  stroke="rgb(191,191,191)" stroke-width="1" font-size="16" >H</text>
<text x="70.040036" y="172.846348" fill="rgb(12,12,255)"  stroke="rgb(12,12,255)" stroke-width="1" font-size="16" >N</text>
<text x="116.816711" y="291.173511" fill="rgb(191,191,191)"  stroke="rgb(191,191,191)" stroke-width="1" font-size="16" >H</text>
<text x="63.716388" y="252.593868" fill="rgb(191,191,191)"  stroke="rgb(191,191,191)" stroke-width="1" font-size="16" >H</text>
<text x="110.605074" y="48.000000" fill="rgb(191,191,191)"  stroke="rgb(191,191,191)" stroke-width="1" font-size="16" >H</text>
<text x="54.282519" y="98.713056" fill="rgb(191,191,191)"  stroke="rgb(191,191,191)" stroke-width="1" font-size="16" >H</text>
<text x="34.000000" y="161.136231" fill="rgb(191,191,191)"  stroke="rgb(191,191,191)" stroke-width="1" font-size="16" >H</text>
<text x="231.596359" y="147.489820" fill="rgb(191,191,191)"  stroke="rgb(191,191,191)" stroke-width="1" font-size="16" >H</text>
<text x="118.483833" y="85.066646" fill="rgb(255,12,12)"  stroke="rgb(255,12,12)" stroke-width="1" font-size="16" >O</text>
<text x="90.322555" y="110.423174" fill="rgb(12,12,255)"  stroke="rgb(12,12,255)" stroke-width="1" font-size="16" >N</text>
<text x="164.898837" y="136.925970" fill="rgb(12,12,255)"  stroke="rgb(12,12,255)" stroke-width="1" font-size="16" >N</text>
<text x="164.898837" y="99.031233" fill="rgb(191,191,191)"  stroke="rgb(191,191,191)" stroke-width="1" font-size="16" >H</text>
<text x="183.846205" y="195.239974" fill="rgb(12,12,255)"  stroke="rgb(12,12,255)" stroke-width="1" font-size="16" >N</text>
</svg>
</g>
<text font-size="18.000000" fill ="black" font-family="sans-serif"
x="10.000000" y="20.000000" >ZINC17042174</text>
</svg>
