<?xml version="1.0"?>
<svg version="1.1" id="topsvg"
xmlns="http://www.w3.org/2000/svg" xmlns:xlink="http://www.w3.org/1999/xlink"
xmlns:cml="http://www.xml-cml.org/schema" x="0" y="0" width="200px" height="200px" viewBox="0 0 100 100">
<title>ZINC30727131 - Open Babel Depiction</title>
<rect x="0" y="0" width="100" height="100" fill="white"/>
<g transform="translate(0,0)">
<svg width="100" height="100" x="0" y="0" viewBox="0 0 351.158 370.464"
font-family="sans-serif" stroke="rgb(0,0,0)" stroke-width="2"  stroke-linecap="round">
<line x1="96.9" y1="111.9" x2="120.4" y2="137.9" stroke="rgb(0,0,0)"  stroke-width="2.0"/>
<line x1="96.9" y1="111.9" x2="75.8" y2="105.1" stroke="rgb(0,0,0)"  stroke-width="2.0"/>
<line x1="96.9" y1="111.9" x2="80.5" y2="126.7" stroke="rgb(0,0,0)"  stroke-width="2.0"/>
<line x1="96.9" y1="111.9" x2="103.7" y2="90.8" stroke="rgb(0,0,0)"  stroke-width="2.0"/>
<line x1="119.8" y1="135.0" x2="154.1" y2="127.6" stroke="rgb(0,0,0)"  stroke-width="2.0"/>
<line x1="121.0" y1="140.9" x2="155.4" y2="133.5" stroke="rgb(0,0,0)"  stroke-width="2.0"/>
<line x1="120.4" y1="137.9" x2="113.6" y2="159.0" stroke="rgb(0,0,0)"  stroke-width="2.0"/>
<line x1="165.0" y1="151.6" x2="145.2" y2="205.3" stroke="rgb(0,0,0)"  stroke-width="2.0"/>
<line x1="165.0" y1="151.6" x2="143.2" y2="155.4" stroke="rgb(0,0,0)"  stroke-width="2.0"/>
<line x1="183.8" y1="165.5" x2="186.7" y2="187.4" stroke="rgb(0,0,0)"  stroke-width="2.0"/>
<line x1="188.6" y1="165.4" x2="188.3" y2="167.0" stroke="rgb(0,0,0)"  stroke-width="1.0"/>
<line x1="192.4" y1="165.3" x2="192.0" y2="168.2" stroke="rgb(0,0,0)"  stroke-width="1.0"/>
<line x1="196.2" y1="165.3" x2="195.6" y2="169.4" stroke="rgb(0,0,0)"  stroke-width="1.0"/>
<line x1="200.0" y1="165.2" x2="199.2" y2="170.6" stroke="rgb(0,0,0)"  stroke-width="1.0"/>
<line x1="203.8" y1="165.1" x2="202.8" y2="171.8" stroke="rgb(0,0,0)"  stroke-width="1.0"/>
<line x1="207.6" y1="165.0" x2="206.4" y2="173.0" stroke="rgb(0,0,0)"  stroke-width="1.0"/>
<line x1="183.8" y1="165.5" x2="72.4" y2="251.0" stroke="rgb(0,0,0)"  stroke-width="2.0"/>
<line x1="207.0" y1="169.0" x2="247.4" y2="226.4" stroke="rgb(0,0,0)"  stroke-width="2.0"/>
<line x1="203.8" y1="177.9" x2="202.3" y2="177.2" stroke="rgb(0,0,0)"  stroke-width="1.0"/>
<line x1="201.2" y1="185.0" x2="198.6" y2="183.8" stroke="rgb(0,0,0)"  stroke-width="1.0"/>
<line x1="198.6" y1="192.1" x2="194.8" y2="190.3" stroke="rgb(0,0,0)"  stroke-width="1.0"/>
<line x1="196.0" y1="199.2" x2="191.1" y2="196.9" stroke="rgb(0,0,0)"  stroke-width="1.0"/>
<line x1="193.5" y1="206.3" x2="187.4" y2="203.5" stroke="rgb(0,0,0)"  stroke-width="1.0"/>
<line x1="190.9" y1="213.4" x2="183.6" y2="210.0" stroke="rgb(0,0,0)"  stroke-width="1.0"/>
<line x1="231.6" y1="159.7" x2="243.6" y2="178.3" stroke="rgb(0,0,0)"  stroke-width="2.0"/>
<line x1="226.6" y1="163.0" x2="238.6" y2="181.6" stroke="rgb(0,0,0)"  stroke-width="2.0"/>
<line x1="251.4" y1="121.8" x2="270.9" y2="111.3" stroke="rgb(0,0,0)"  stroke-width="2.0"/>
<line x1="251.4" y1="121.8" x2="300.1" y2="151.9" stroke="rgb(0,0,0)"  stroke-width="2.0"/>
<line x1="246.5" y1="134.0" x2="267.0" y2="142.4" stroke="rgb(0,0,0)"  stroke-width="2.0"/>
<line x1="221.7" y1="158.8" x2="239.2" y2="172.3" stroke="rgb(0,0,0)"  stroke-width="2.0"/>
<line x1="221.7" y1="158.8" x2="218.8" y2="180.7" stroke="rgb(0,0,0)"  stroke-width="2.0"/>
<line x1="188.3" y1="171.7" x2="204.9" y2="298.0" stroke="rgb(0,0,0)"  stroke-width="2.0"/>
<polygon points="177.408749 165.863013 170.374458 176.302504 165.504367 169.955677 " stroke-width="2.000000" fill="rgb(0,0,0)"  stroke="rgb(0,0,0)" />
<line x1="161.8" y1="134.0" x2="126.9" y2="179.4" stroke="rgb(0,0,0)"  stroke-width="2.0"/>
<line x1="161.8" y1="134.0" x2="139.9" y2="131.1" stroke="rgb(0,0,0)"  stroke-width="2.0"/>
<line x1="161.8" y1="98.9" x2="139.9" y2="101.8" stroke="rgb(0,0,0)"  stroke-width="2.0"/>
<line x1="161.8" y1="98.9" x2="148.3" y2="81.3" stroke="rgb(0,0,0)"  stroke-width="2.0"/>
<line x1="187.0" y1="69.3" x2="188.5" y2="69.7" stroke="rgb(0,0,0)"  stroke-width="1.0"/>
<line x1="187.3" y1="65.5" x2="190.0" y2="66.2" stroke="rgb(0,0,0)"  stroke-width="1.0"/>
<line x1="187.5" y1="61.7" x2="191.6" y2="62.7" stroke="rgb(0,0,0)"  stroke-width="1.0"/>
<line x1="187.8" y1="57.9" x2="193.1" y2="59.2" stroke="rgb(0,0,0)"  stroke-width="1.0"/>
<line x1="188.1" y1="54.1" x2="194.6" y2="55.7" stroke="rgb(0,0,0)"  stroke-width="1.0"/>
<line x1="188.4" y1="50.3" x2="196.2" y2="52.2" stroke="rgb(0,0,0)"  stroke-width="1.0"/>
<line x1="218.9" y1="72.9" x2="227.4" y2="52.5" stroke="rgb(0,0,0)"  stroke-width="2.0"/>
<line x1="224.5" y1="75.2" x2="232.9" y2="54.8" stroke="rgb(0,0,0)"  stroke-width="2.0"/>
<line x1="154.6" y1="110.0" x2="133.3" y2="104.1" stroke="rgb(0,0,0)"  stroke-width="2.0"/>
<line x1="156.2" y1="104.3" x2="135.0" y2="98.3" stroke="rgb(0,0,0)"  stroke-width="2.0"/>
<line x1="204.9" y1="298.0" x2="196.5" y2="318.5" stroke="rgb(0,0,0)"  stroke-width="2.0"/>
<line x1="204.9" y1="298.0" x2="183.0" y2="300.9" stroke="rgb(0,0,0)"  stroke-width="2.0"/>
<line x1="204.9" y1="298.0" x2="225.4" y2="306.5" stroke="rgb(0,0,0)"  stroke-width="2.0"/>
<line x1="247.4" y1="226.4" x2="267.5" y2="235.7" stroke="rgb(0,0,0)"  stroke-width="2.0"/>
<line x1="247.4" y1="226.4" x2="265.5" y2="213.6" stroke="rgb(0,0,0)"  stroke-width="2.0"/>
<line x1="247.4" y1="226.4" x2="238.2" y2="246.4" stroke="rgb(0,0,0)"  stroke-width="2.0"/>
<line x1="164.6" y1="233.9" x2="155.5" y2="234.7" stroke="rgb(0,0,0)"  stroke-width="2.0"/>
<line x1="72.4" y1="251.0" x2="64.0" y2="271.4" stroke="rgb(0,0,0)"  stroke-width="2.0"/>
<line x1="72.4" y1="251.0" x2="85.9" y2="268.5" stroke="rgb(0,0,0)"  stroke-width="2.0"/>
<line x1="72.4" y1="251.0" x2="52.0" y2="242.5" stroke="rgb(0,0,0)"  stroke-width="2.0"/>
<line x1="246.5" y1="98.9" x2="246.5" y2="134.0" stroke="rgb(0,0,0)"  stroke-width="2.0"/>
<line x1="239.3" y1="104.9" x2="239.3" y2="128.0" stroke="rgb(0,0,0)"  stroke-width="2.0"/>
<line x1="246.5" y1="134.0" x2="221.7" y2="158.8" stroke="rgb(0,0,0)"  stroke-width="2.0"/>
<line x1="221.7" y1="158.8" x2="199.6" y2="158.8" stroke="rgb(0,0,0)"  stroke-width="2.0"/>
<line x1="177.4" y1="149.6" x2="161.8" y2="134.0" stroke="rgb(0,0,0)"  stroke-width="2.0"/>
<line x1="161.8" y1="134.0" x2="161.8" y2="98.9" stroke="rgb(0,0,0)"  stroke-width="2.0"/>
<line x1="161.8" y1="98.9" x2="186.6" y2="74.1" stroke="rgb(0,0,0)"  stroke-width="2.0"/>
<line x1="186.6" y1="74.1" x2="221.7" y2="74.1" stroke="rgb(0,0,0)"  stroke-width="2.0"/>
<line x1="221.7" y1="74.1" x2="246.5" y2="98.9" stroke="rgb(0,0,0)"  stroke-width="2.0"/>
<line x1="183.8" y1="165.5" x2="207.0" y2="169.0" stroke="rgb(0,0,0)"  stroke-width="2.0"/>
<line x1="207.0" y1="169.0" x2="229.1" y2="161.4" stroke="rgb(0,0,0)"  stroke-width="2.0"/>
<line x1="229.1" y1="161.4" x2="236.2" y2="153.8" stroke="rgb(0,0,0)"  stroke-width="2.0"/>
<line x1="248.6" y1="131.8" x2="251.4" y2="121.8" stroke="rgb(0,0,0)"  stroke-width="2.0"/>
<line x1="251.4" y1="121.8" x2="246.5" y2="98.9" stroke="rgb(0,0,0)"  stroke-width="2.0"/>
<line x1="186.6" y1="74.1" x2="177.9" y2="79.7" stroke="rgb(0,0,0)"  stroke-width="2.0"/>
<line x1="160.6" y1="98.1" x2="155.4" y2="107.2" stroke="rgb(0,0,0)"  stroke-width="2.0"/>
<line x1="155.4" y1="107.2" x2="154.7" y2="130.6" stroke="rgb(0,0,0)"  stroke-width="2.0"/>
<line x1="154.7" y1="130.6" x2="165.0" y2="151.6" stroke="rgb(0,0,0)"  stroke-width="2.0"/>
<line x1="165.0" y1="151.6" x2="183.8" y2="165.5" stroke="rgb(0,0,0)"  stroke-width="2.0"/>
<text x="120.971234" y="111.464146" fill="rgb(191,191,191)"  stroke="rgb(191,191,191)" stroke-width="1" font-size="16" >H</text>
<text x="57.458603" y="109.104325" fill="rgb(191,191,191)"  stroke="rgb(191,191,191)" stroke-width="1" font-size="16" >H</text>
<text x="64.826563" y="143.427823" fill="rgb(191,191,191)"  stroke="rgb(191,191,191)" stroke-width="1" font-size="16" >H</text>
<text x="101.648512" y="86.476231" fill="rgb(191,191,191)"  stroke="rgb(191,191,191)" stroke-width="1" font-size="16" >H</text>
<text x="103.629287" y="179.335275" fill="rgb(191,191,191)"  stroke="rgb(191,191,191)" stroke-width="1" font-size="16" >H</text>
<text x="134.746902" y="225.501338" fill="rgb(191,191,191)"  stroke="rgb(191,191,191)" stroke-width="1" font-size="16" >H</text>
<text x="124.389381" y="165.585648" fill="rgb(191,191,191)"  stroke="rgb(191,191,191)" stroke-width="1" font-size="16" >H</text>
<text x="276.359956" y="113.143846" fill="rgb(191,191,191)"  stroke="rgb(191,191,191)" stroke-width="1" font-size="16" >H</text>
<text x="305.157824" y="166.696166" fill="rgb(191,191,191)"  stroke="rgb(191,191,191)" stroke-width="1" font-size="16" >H</text>
<text x="272.961412" y="155.421631" fill="rgb(191,191,191)"  stroke="rgb(191,191,191)" stroke-width="1" font-size="16" >H</text>
<text x="243.555969" y="188.181460" fill="rgb(191,191,191)"  stroke="rgb(191,191,191)" stroke-width="1" font-size="16" >H</text>
<text x="211.122805" y="201.615716" fill="rgb(191,191,191)"  stroke="rgb(191,191,191)" stroke-width="1" font-size="16" >H</text>
<text x="113.034675" y="197.689353" fill="rgb(191,191,191)"  stroke="rgb(191,191,191)" stroke-width="1" font-size="16" >H</text>
<text x="120.971234" y="137.405200" fill="rgb(191,191,191)"  stroke="rgb(191,191,191)" stroke-width="1" font-size="16" >H</text>
<text x="134.405491" y="79.030982" fill="rgb(191,191,191)"  stroke="rgb(191,191,191)" stroke-width="1" font-size="16" >H</text>
<text x="185.494018" y="338.464096" fill="rgb(191,191,191)"  stroke="rgb(191,191,191)" stroke-width="1" font-size="16" >H</text>
<text x="164.123202" y="310.613107" fill="rgb(191,191,191)"  stroke="rgb(191,191,191)" stroke-width="1" font-size="16" >H</text>
<text x="231.361438" y="319.465189" fill="rgb(191,191,191)"  stroke="rgb(191,191,191)" stroke-width="1" font-size="16" >H</text>
<text x="273.310343" y="249.109282" fill="rgb(191,191,191)"  stroke="rgb(191,191,191)" stroke-width="1" font-size="16" >H</text>
<text x="270.133344" y="214.147931" fill="rgb(191,191,191)"  stroke="rgb(191,191,191)" stroke-width="1" font-size="16" >H</text>
<text x="226.715112" y="266.245887" fill="rgb(191,191,191)"  stroke="rgb(191,191,191)" stroke-width="1" font-size="16" >H</text>
<text x="136.560373" y="243.910968" fill="rgb(191,191,191)"  stroke="rgb(191,191,191)" stroke-width="1" font-size="16" >H</text>
<text x="52.998908" y="291.396225" fill="rgb(191,191,191)"  stroke="rgb(191,191,191)" stroke-width="1" font-size="16" >H</text>
<text x="87.803980" y="286.814050" fill="rgb(191,191,191)"  stroke="rgb(191,191,191)" stroke-width="1" font-size="16" >H</text>
<text x="34.000000" y="245.528805" fill="rgb(191,191,191)"  stroke="rgb(191,191,191)" stroke-width="1" font-size="16" >H</text>
<text x="152.748586" y="188.181460" fill="rgb(191,191,191)"  stroke="rgb(191,191,191)" stroke-width="1" font-size="16" >H</text>
<text x="191.399575" y="154.778644" fill="rgb(12,12,255)"  stroke="rgb(12,12,255)" stroke-width="1" font-size="16" >+</text>
<text x="180.599575" y="166.810644" fill="rgb(12,12,255)"  stroke="rgb(12,12,255)" stroke-width="1" font-size="16" >N</text>
<text x="182.419296" y="208.284870" fill="rgb(191,191,191)"  stroke="rgb(191,191,191)" stroke-width="1" font-size="16" >H</text>
<text x="242.170015" y="198.846124" fill="rgb(255,12,12)"  stroke="rgb(255,12,12)" stroke-width="1" font-size="16" >O</text>
<text x="239.155249" y="152.320221" fill="rgb(255,12,12)"  stroke="rgb(255,12,12)" stroke-width="1" font-size="16" >O</text>
<text x="189.108053" y="48.000000" fill="rgb(191,191,191)"  stroke="rgb(191,191,191)" stroke-width="1" font-size="16" >H</text>
<text x="229.139236" y="49.625538" fill="rgb(255,12,12)"  stroke="rgb(255,12,12)" stroke-width="1" font-size="16" >O</text>
<text x="160.940880" y="94.768996" fill="rgb(255,12,12)"  stroke="rgb(255,12,12)" stroke-width="1" font-size="16" >O</text>
<text x="115.624727" y="105.732334" fill="rgb(255,12,12)"  stroke="rgb(255,12,12)" stroke-width="1" font-size="16" >O</text>
<text x="171.521724" y="240.733968" fill="rgb(255,12,12)"  stroke="rgb(255,12,12)" stroke-width="1" font-size="16" >O</text>
</svg>
</g>
<text font-size="18.000000" fill ="black" font-family="sans-serif"
x="10.000000" y="20.000000" >ZINC30727131</text>
</svg>
