<?xml version="1.0"?>
<svg version="1.1" id="topsvg"
xmlns="http://www.w3.org/2000/svg" xmlns:xlink="http://www.w3.org/1999/xlink"
xmlns:cml="http://www.xml-cml.org/schema" x="0" y="0" width="200px" height="200px" viewBox="0 0 100 100">
<title>ZINC16159427 - Open Babel Depiction</title>
<rect x="0" y="0" width="100" height="100" fill="white"/>
<g transform="translate(0,0)">
<svg width="100" height="100" x="0" y="0" viewBox="0 0 391.769 240"
font-family="sans-serif" stroke="rgb(0,0,0)" stroke-width="2"  stroke-linecap="round">
<line x1="317.1" y1="100.0" x2="340.5" y2="86.5" stroke="rgb(0,0,0)"  stroke-width="2.0"/>
<line x1="282.5" y1="80.0" x2="282.5" y2="53.0" stroke="rgb(0,0,0)"  stroke-width="2.0"/>
<line x1="247.8" y1="100.0" x2="224.5" y2="86.5" stroke="rgb(0,0,0)"  stroke-width="2.0"/>
<line x1="247.8" y1="140.0" x2="224.5" y2="153.5" stroke="rgb(0,0,0)"  stroke-width="2.0"/>
<line x1="282.5" y1="160.0" x2="282.5" y2="187.0" stroke="rgb(0,0,0)"  stroke-width="2.0"/>
<line x1="317.1" y1="140.0" x2="340.5" y2="153.5" stroke="rgb(0,0,0)"  stroke-width="2.0"/>
<line x1="201.9" y1="153.5" x2="178.6" y2="140.0" stroke="rgb(0,0,0)"  stroke-width="2.0"/>
<line x1="213.2" y1="173.0" x2="213.2" y2="187.0" stroke="rgb(0,0,0)"  stroke-width="2.0"/>
<line x1="175.6" y1="140.0" x2="175.6" y2="113.0" stroke="rgb(0,0,0)"  stroke-width="2.0"/>
<line x1="181.6" y1="140.0" x2="181.6" y2="113.0" stroke="rgb(0,0,0)"  stroke-width="2.0"/>
<line x1="178.6" y1="140.0" x2="155.2" y2="153.5" stroke="rgb(0,0,0)"  stroke-width="2.0"/>
<line x1="167.3" y1="93.5" x2="155.2" y2="86.5" stroke="rgb(0,0,0)"  stroke-width="2.0"/>
<line x1="132.7" y1="153.5" x2="109.3" y2="140.0" stroke="rgb(0,0,0)"  stroke-width="2.0"/>
<line x1="143.9" y1="173.0" x2="143.9" y2="187.0" stroke="rgb(0,0,0)"  stroke-width="2.0"/>
<line x1="106.3" y1="140.0" x2="106.3" y2="113.0" stroke="rgb(0,0,0)"  stroke-width="2.0"/>
<line x1="112.3" y1="140.0" x2="112.3" y2="113.0" stroke="rgb(0,0,0)"  stroke-width="2.0"/>
<line x1="109.3" y1="140.0" x2="85.9" y2="153.5" stroke="rgb(0,0,0)"  stroke-width="2.0"/>
<line x1="98.0" y1="93.5" x2="85.9" y2="86.5" stroke="rgb(0,0,0)"  stroke-width="2.0"/>
<line x1="63.4" y1="153.5" x2="51.3" y2="146.5" stroke="rgb(0,0,0)"  stroke-width="2.0"/>
<line x1="74.6" y1="173.0" x2="74.6" y2="187.0" stroke="rgb(0,0,0)"  stroke-width="2.0"/>
<line x1="247.8" y1="100.0" x2="247.8" y2="140.0" stroke="rgb(0,0,0)"  stroke-width="2.0"/>
<line x1="247.8" y1="140.0" x2="282.5" y2="160.0" stroke="rgb(0,0,0)"  stroke-width="2.0"/>
<line x1="256.6" y1="136.8" x2="280.9" y2="150.8" stroke="rgb(0,0,0)"  stroke-width="2.0"/>
<line x1="282.5" y1="160.0" x2="317.1" y2="140.0" stroke="rgb(0,0,0)"  stroke-width="2.0"/>
<line x1="317.1" y1="140.0" x2="317.1" y2="100.0" stroke="rgb(0,0,0)"  stroke-width="2.0"/>
<line x1="309.9" y1="134.0" x2="309.9" y2="106.0" stroke="rgb(0,0,0)"  stroke-width="2.0"/>
<line x1="317.1" y1="100.0" x2="282.5" y2="80.0" stroke="rgb(0,0,0)"  stroke-width="2.0"/>
<line x1="282.5" y1="80.0" x2="247.8" y2="100.0" stroke="rgb(0,0,0)"  stroke-width="2.0"/>
<line x1="280.9" y1="89.2" x2="256.6" y2="103.2" stroke="rgb(0,0,0)"  stroke-width="2.0"/>
<text x="103.282032" y="108.000000" fill="rgb(12,12,255)"  stroke="rgb(12,12,255)" stroke-width="1" font-size="16" >N</text>
<text x="68.641016" y="88.000000" fill="rgb(191,191,191)"  stroke="rgb(191,191,191)" stroke-width="1" font-size="16" >H</text>
<text x="68.641016" y="208.000000" fill="rgb(191,191,191)"  stroke="rgb(191,191,191)" stroke-width="1" font-size="16" >H</text>
<text x="34.000000" y="148.000000" fill="rgb(191,191,191)"  stroke="rgb(191,191,191)" stroke-width="1" font-size="16" >H</text>
<text x="137.923048" y="208.000000" fill="rgb(191,191,191)"  stroke="rgb(191,191,191)" stroke-width="1" font-size="16" >H</text>
<text x="137.923048" y="88.000000" fill="rgb(191,191,191)"  stroke="rgb(191,191,191)" stroke-width="1" font-size="16" >H</text>
<text x="207.205081" y="208.000000" fill="rgb(191,191,191)"  stroke="rgb(191,191,191)" stroke-width="1" font-size="16" >H</text>
<text x="276.487113" y="208.000000" fill="rgb(191,191,191)"  stroke="rgb(191,191,191)" stroke-width="1" font-size="16" >H</text>
<text x="276.487113" y="48.000000" fill="rgb(191,191,191)"  stroke="rgb(191,191,191)" stroke-width="1" font-size="16" >H</text>
<text x="345.769145" y="88.000000" fill="rgb(191,191,191)"  stroke="rgb(191,191,191)" stroke-width="1" font-size="16" >H</text>
<text x="207.205081" y="88.000000" fill="rgb(127,178,255)"  stroke="rgb(127,178,255)" stroke-width="1" font-size="16" >F</text>
<text x="68.641016" y="168.000000" fill="rgb(12,12,255)"  stroke="rgb(12,12,255)" stroke-width="1" font-size="16" >N</text>
<text x="137.923048" y="168.000000" fill="rgb(12,12,255)"  stroke="rgb(12,12,255)" stroke-width="1" font-size="16" >N</text>
<text x="172.564065" y="108.000000" fill="rgb(12,12,255)"  stroke="rgb(12,12,255)" stroke-width="1" font-size="16" >N</text>
<text x="207.205081" y="168.000000" fill="rgb(12,12,255)"  stroke="rgb(12,12,255)" stroke-width="1" font-size="16" >N</text>
<text x="345.769145" y="168.000000" fill="rgb(127,178,255)"  stroke="rgb(127,178,255)" stroke-width="1" font-size="16" >F</text>
</svg>
</g>
<text font-size="18.000000" fill ="black" font-family="sans-serif"
x="10.000000" y="20.000000" >ZINC16159427</text>
</svg>
