<?xml version="1.0"?>
<svg version="1.1" id="topsvg"
xmlns="http://www.w3.org/2000/svg" xmlns:xlink="http://www.w3.org/1999/xlink"
xmlns:cml="http://www.xml-cml.org/schema" x="0" y="0" width="200px" height="200px" viewBox="0 0 100 100">
<title>ZINC98229640 - Open Babel Depiction</title>
<rect x="0" y="0" width="100" height="100" fill="white"/>
<g transform="translate(0,0)">
<svg width="100" height="100" x="0" y="0" viewBox="0 0 998.358 658.732"
font-family="sans-serif" stroke="rgb(0,0,0)" stroke-width="2"  stroke-linecap="round">
<line x1="361.3" y1="74.1" x2="381.0" y2="108.2" stroke="rgb(0,0,0)"  stroke-width="2.0"/>
<line x1="361.3" y1="74.1" x2="338.5" y2="60.9" stroke="rgb(0,0,0)"  stroke-width="2.0"/>
<line x1="361.3" y1="74.1" x2="338.5" y2="87.3" stroke="rgb(0,0,0)"  stroke-width="2.0"/>
<line x1="361.3" y1="74.1" x2="374.5" y2="51.3" stroke="rgb(0,0,0)"  stroke-width="2.0"/>
<polygon points="381.039461 108.207892 401.889105 91.551543 405.889105 98.479746 " stroke-width="2.000000" fill="rgb(0,0,0)"  stroke="rgb(0,0,0)" />
<line x1="381.0" y1="108.2" x2="400.7" y2="142.3" stroke="rgb(0,0,0)"  stroke-width="2.0"/>
<line x1="381.0" y1="108.2" x2="358.2" y2="121.4" stroke="rgb(0,0,0)"  stroke-width="2.0"/>
<line x1="403.3" y1="143.8" x2="390.1" y2="166.7" stroke="rgb(0,0,0)"  stroke-width="2.0"/>
<line x1="398.1" y1="140.8" x2="384.9" y2="163.7" stroke="rgb(0,0,0)"  stroke-width="2.0"/>
<line x1="400.7" y1="142.3" x2="427.1" y2="142.3" stroke="rgb(0,0,0)"  stroke-width="2.0"/>
<line x1="446.6" y1="153.6" x2="459.8" y2="176.4" stroke="rgb(0,0,0)"  stroke-width="2.0"/>
<line x1="446.6" y1="131.1" x2="453.3" y2="119.5" stroke="rgb(0,0,0)"  stroke-width="2.0"/>
<line x1="459.8" y1="176.4" x2="440.1" y2="210.5" stroke="rgb(0,0,0)"  stroke-width="2.0"/>
<line x1="459.8" y1="176.4" x2="482.6" y2="189.6" stroke="rgb(0,0,0)"  stroke-width="2.0"/>
<line x1="459.8" y1="176.4" x2="482.6" y2="163.2" stroke="rgb(0,0,0)"  stroke-width="2.0"/>
<line x1="440.1" y1="213.5" x2="413.7" y2="213.5" stroke="rgb(0,0,0)"  stroke-width="2.0"/>
<line x1="440.1" y1="207.5" x2="413.7" y2="207.5" stroke="rgb(0,0,0)"  stroke-width="2.0"/>
<line x1="440.1" y1="210.5" x2="453.3" y2="233.4" stroke="rgb(0,0,0)"  stroke-width="2.0"/>
<line x1="453.3" y1="255.9" x2="440.1" y2="278.7" stroke="rgb(0,0,0)"  stroke-width="2.0"/>
<line x1="472.8" y1="244.6" x2="486.2" y2="244.6" stroke="rgb(0,0,0)"  stroke-width="2.0"/>
<polygon points="440.109229 278.727623 415.259585 268.999476 419.259585 262.071273 " stroke-width="2.000000" fill="rgb(0,0,0)"  stroke="rgb(0,0,0)" />
<line x1="440.1" y1="278.7" x2="420.4" y2="312.8" stroke="rgb(0,0,0)"  stroke-width="2.0"/>
<line x1="440.1" y1="278.7" x2="474.2" y2="298.4" stroke="rgb(0,0,0)"  stroke-width="2.0"/>
<line x1="420.4" y1="312.8" x2="381.0" y2="312.8" stroke="rgb(0,0,0)"  stroke-width="2.0"/>
<line x1="420.4" y1="312.8" x2="420.4" y2="339.2" stroke="rgb(0,0,0)"  stroke-width="2.0"/>
<line x1="420.4" y1="312.8" x2="443.3" y2="326.0" stroke="rgb(0,0,0)"  stroke-width="2.0"/>
<line x1="361.3" y1="278.7" x2="374.5" y2="255.9" stroke="rgb(0,0,0)"  stroke-width="2.0"/>
<line x1="322.0" y1="278.7" x2="308.8" y2="255.9" stroke="rgb(0,0,0)"  stroke-width="2.0"/>
<line x1="302.3" y1="312.8" x2="275.9" y2="312.8" stroke="rgb(0,0,0)"  stroke-width="2.0"/>
<line x1="322.0" y1="346.9" x2="308.8" y2="369.8" stroke="rgb(0,0,0)"  stroke-width="2.0"/>
<line x1="361.3" y1="346.9" x2="374.5" y2="369.8" stroke="rgb(0,0,0)"  stroke-width="2.0"/>
<line x1="472.7" y1="295.8" x2="495.6" y2="282.6" stroke="rgb(0,0,0)"  stroke-width="2.0"/>
<line x1="475.7" y1="301.0" x2="498.6" y2="287.8" stroke="rgb(0,0,0)"  stroke-width="2.0"/>
<line x1="474.2" y1="298.4" x2="474.2" y2="324.8" stroke="rgb(0,0,0)"  stroke-width="2.0"/>
<line x1="485.5" y1="344.3" x2="497.1" y2="351.0" stroke="rgb(0,0,0)"  stroke-width="2.0"/>
<line x1="463.0" y1="344.3" x2="451.4" y2="351.0" stroke="rgb(0,0,0)"  stroke-width="2.0"/>
<line x1="519.6" y1="351.0" x2="542.4" y2="337.8" stroke="rgb(0,0,0)"  stroke-width="2.0"/>
<line x1="508.3" y1="370.5" x2="508.3" y2="383.9" stroke="rgb(0,0,0)"  stroke-width="2.0"/>
<line x1="539.4" y1="337.8" x2="539.4" y2="311.4" stroke="rgb(0,0,0)"  stroke-width="2.0"/>
<line x1="545.4" y1="337.8" x2="545.4" y2="311.4" stroke="rgb(0,0,0)"  stroke-width="2.0"/>
<line x1="542.4" y1="337.8" x2="576.5" y2="357.5" stroke="rgb(0,0,0)"  stroke-width="2.0"/>
<line x1="574.6" y1="362.5" x2="573.2" y2="361.7" stroke="rgb(0,0,0)"  stroke-width="1.0"/>
<line x1="573.0" y1="366.4" x2="570.5" y2="365.0" stroke="rgb(0,0,0)"  stroke-width="1.0"/>
<line x1="571.5" y1="370.4" x2="567.9" y2="368.3" stroke="rgb(0,0,0)"  stroke-width="1.0"/>
<line x1="569.9" y1="374.4" x2="565.2" y2="371.7" stroke="rgb(0,0,0)"  stroke-width="1.0"/>
<line x1="568.4" y1="378.4" x2="562.5" y2="375.0" stroke="rgb(0,0,0)"  stroke-width="1.0"/>
<line x1="566.8" y1="382.3" x2="559.9" y2="378.3" stroke="rgb(0,0,0)"  stroke-width="1.0"/>
<line x1="576.5" y1="357.5" x2="610.6" y2="377.2" stroke="rgb(0,0,0)"  stroke-width="2.0"/>
<line x1="576.5" y1="357.5" x2="589.7" y2="334.6" stroke="rgb(0,0,0)"  stroke-width="2.0"/>
<line x1="610.6" y1="377.2" x2="610.6" y2="416.6" stroke="rgb(0,0,0)"  stroke-width="2.0"/>
<line x1="610.6" y1="377.2" x2="637.0" y2="377.2" stroke="rgb(0,0,0)"  stroke-width="2.0"/>
<line x1="610.6" y1="377.2" x2="623.8" y2="354.3" stroke="rgb(0,0,0)"  stroke-width="2.0"/>
<line x1="576.5" y1="436.2" x2="553.7" y2="423.1" stroke="rgb(0,0,0)"  stroke-width="2.0"/>
<line x1="576.5" y1="475.6" x2="553.7" y2="488.8" stroke="rgb(0,0,0)"  stroke-width="2.0"/>
<line x1="610.6" y1="495.3" x2="610.6" y2="521.7" stroke="rgb(0,0,0)"  stroke-width="2.0"/>
<line x1="644.7" y1="475.6" x2="667.6" y2="488.8" stroke="rgb(0,0,0)"  stroke-width="2.0"/>
<line x1="644.7" y1="436.2" x2="667.6" y2="423.1" stroke="rgb(0,0,0)"  stroke-width="2.0"/>
<line x1="609.2" y1="323.4" x2="635.6" y2="323.4" stroke="rgb(0,0,0)"  stroke-width="2.0"/>
<line x1="589.7" y1="312.1" x2="583.0" y2="300.5" stroke="rgb(0,0,0)"  stroke-width="2.0"/>
<line x1="638.2" y1="321.9" x2="651.4" y2="344.7" stroke="rgb(0,0,0)"  stroke-width="2.0"/>
<line x1="633.0" y1="324.9" x2="646.2" y2="347.7" stroke="rgb(0,0,0)"  stroke-width="2.0"/>
<line x1="635.6" y1="323.4" x2="655.3" y2="289.3" stroke="rgb(0,0,0)"  stroke-width="2.0"/>
<line x1="655.3" y1="289.3" x2="681.7" y2="289.3" stroke="rgb(0,0,0)"  stroke-width="2.0"/>
<line x1="655.3" y1="289.3" x2="655.3" y2="262.9" stroke="rgb(0,0,0)"  stroke-width="2.0"/>
<line x1="655.3" y1="289.3" x2="632.4" y2="276.1" stroke="rgb(0,0,0)"  stroke-width="2.0"/>
<line x1="701.2" y1="300.5" x2="714.4" y2="323.4" stroke="rgb(0,0,0)"  stroke-width="2.0"/>
<line x1="701.2" y1="278.0" x2="707.9" y2="266.4" stroke="rgb(0,0,0)"  stroke-width="2.0"/>
<line x1="717.0" y1="324.9" x2="703.8" y2="347.7" stroke="rgb(0,0,0)"  stroke-width="2.0"/>
<line x1="711.8" y1="321.9" x2="698.6" y2="344.7" stroke="rgb(0,0,0)"  stroke-width="2.0"/>
<line x1="714.4" y1="323.4" x2="753.7" y2="323.4" stroke="rgb(0,0,0)"  stroke-width="2.0"/>
<line x1="752.9" y1="318.1" x2="754.5" y2="318.1" stroke="rgb(0,0,0)"  stroke-width="1.0"/>
<line x1="752.3" y1="313.9" x2="755.2" y2="313.9" stroke="rgb(0,0,0)"  stroke-width="1.0"/>
<line x1="751.7" y1="309.7" x2="755.8" y2="309.7" stroke="rgb(0,0,0)"  stroke-width="1.0"/>
<line x1="751.0" y1="305.4" x2="756.5" y2="305.4" stroke="rgb(0,0,0)"  stroke-width="1.0"/>
<line x1="750.4" y1="301.2" x2="757.1" y2="301.2" stroke="rgb(0,0,0)"  stroke-width="1.0"/>
<line x1="749.7" y1="297.0" x2="757.7" y2="297.0" stroke="rgb(0,0,0)"  stroke-width="1.0"/>
<line x1="753.7" y1="323.4" x2="793.1" y2="323.4" stroke="rgb(0,0,0)"  stroke-width="2.0"/>
<line x1="753.7" y1="323.4" x2="753.7" y2="349.8" stroke="rgb(0,0,0)"  stroke-width="2.0"/>
<line x1="793.1" y1="323.4" x2="816.0" y2="336.6" stroke="rgb(0,0,0)"  stroke-width="2.0"/>
<line x1="793.1" y1="323.4" x2="793.1" y2="349.8" stroke="rgb(0,0,0)"  stroke-width="2.0"/>
<line x1="793.1" y1="323.4" x2="806.3" y2="300.5" stroke="rgb(0,0,0)"  stroke-width="2.0"/>
<line x1="765.0" y1="369.3" x2="787.8" y2="382.5" stroke="rgb(0,0,0)"  stroke-width="2.0"/>
<line x1="742.5" y1="369.3" x2="730.9" y2="376.0" stroke="rgb(0,0,0)"  stroke-width="2.0"/>
<line x1="786.3" y1="379.9" x2="809.2" y2="366.7" stroke="rgb(0,0,0)"  stroke-width="2.0"/>
<line x1="789.3" y1="385.1" x2="812.2" y2="371.9" stroke="rgb(0,0,0)"  stroke-width="2.0"/>
<line x1="787.8" y1="382.5" x2="787.8" y2="421.8" stroke="rgb(0,0,0)"  stroke-width="2.0"/>
<polygon points="787.838262 421.832979 814.222758 417.832979 814.222758 425.832979 " stroke-width="2.000000" fill="rgb(0,0,0)"  stroke="rgb(0,0,0)" />
<line x1="787.8" y1="421.8" x2="787.8" y2="500.6" stroke="rgb(0,0,0)"  stroke-width="2.0"/>
<line x1="787.8" y1="421.8" x2="761.5" y2="421.8" stroke="rgb(0,0,0)"  stroke-width="2.0"/>
<line x1="787.8" y1="500.6" x2="821.9" y2="520.3" stroke="rgb(0,0,0)"  stroke-width="2.0"/>
<line x1="787.8" y1="500.6" x2="774.6" y2="523.4" stroke="rgb(0,0,0)"  stroke-width="2.0"/>
<line x1="787.8" y1="500.6" x2="761.5" y2="500.6" stroke="rgb(0,0,0)"  stroke-width="2.0"/>
<line x1="856.0" y1="500.6" x2="856.0" y2="474.2" stroke="rgb(0,0,0)"  stroke-width="2.0"/>
<line x1="890.2" y1="520.3" x2="913.0" y2="507.1" stroke="rgb(0,0,0)"  stroke-width="2.0"/>
<line x1="890.2" y1="559.7" x2="913.0" y2="572.9" stroke="rgb(0,0,0)"  stroke-width="2.0"/>
<line x1="856.0" y1="579.4" x2="856.0" y2="605.7" stroke="rgb(0,0,0)"  stroke-width="2.0"/>
<line x1="821.9" y1="559.7" x2="799.1" y2="572.9" stroke="rgb(0,0,0)"  stroke-width="2.0"/>
<line x1="935.5" y1="572.9" x2="947.1" y2="566.2" stroke="rgb(0,0,0)"  stroke-width="2.0"/>
<line x1="748.5" y1="434.8" x2="748.5" y2="448.2" stroke="rgb(0,0,0)"  stroke-width="2.0"/>
<line x1="735.5" y1="421.8" x2="722.1" y2="421.8" stroke="rgb(0,0,0)"  stroke-width="2.0"/>
<line x1="748.5" y1="408.8" x2="748.5" y2="395.5" stroke="rgb(0,0,0)"  stroke-width="2.0"/>
<line x1="335.7" y1="121.4" x2="312.8" y2="108.2" stroke="rgb(0,0,0)"  stroke-width="2.0"/>
<line x1="346.9" y1="140.9" x2="346.9" y2="154.3" stroke="rgb(0,0,0)"  stroke-width="2.0"/>
<line x1="309.8" y1="108.2" x2="309.8" y2="81.8" stroke="rgb(0,0,0)"  stroke-width="2.0"/>
<line x1="315.8" y1="108.2" x2="315.8" y2="81.8" stroke="rgb(0,0,0)"  stroke-width="2.0"/>
<line x1="312.8" y1="108.2" x2="278.7" y2="127.9" stroke="rgb(0,0,0)"  stroke-width="2.0"/>
<line x1="275.4" y1="123.7" x2="276.8" y2="122.9" stroke="rgb(0,0,0)"  stroke-width="1.0"/>
<line x1="272.7" y1="120.4" x2="275.2" y2="119.0" stroke="rgb(0,0,0)"  stroke-width="1.0"/>
<line x1="270.1" y1="117.1" x2="273.7" y2="115.0" stroke="rgb(0,0,0)"  stroke-width="1.0"/>
<line x1="267.4" y1="113.7" x2="272.1" y2="111.0" stroke="rgb(0,0,0)"  stroke-width="1.0"/>
<line x1="264.7" y1="110.4" x2="270.6" y2="107.0" stroke="rgb(0,0,0)"  stroke-width="1.0"/>
<line x1="262.1" y1="107.0" x2="269.0" y2="103.0" stroke="rgb(0,0,0)"  stroke-width="1.0"/>
<line x1="278.7" y1="127.9" x2="210.5" y2="167.3" stroke="rgb(0,0,0)"  stroke-width="2.0"/>
<line x1="278.7" y1="127.9" x2="291.9" y2="150.7" stroke="rgb(0,0,0)"  stroke-width="2.0"/>
<line x1="210.5" y1="167.3" x2="176.4" y2="147.6" stroke="rgb(0,0,0)"  stroke-width="2.0"/>
<line x1="210.5" y1="167.3" x2="197.3" y2="190.1" stroke="rgb(0,0,0)"  stroke-width="2.0"/>
<line x1="210.5" y1="167.3" x2="223.7" y2="190.1" stroke="rgb(0,0,0)"  stroke-width="2.0"/>
<line x1="176.4" y1="108.2" x2="199.3" y2="95.0" stroke="rgb(0,0,0)"  stroke-width="2.0"/>
<line x1="142.3" y1="88.5" x2="142.3" y2="62.1" stroke="rgb(0,0,0)"  stroke-width="2.0"/>
<line x1="108.2" y1="108.2" x2="85.4" y2="95.0" stroke="rgb(0,0,0)"  stroke-width="2.0"/>
<line x1="108.2" y1="147.6" x2="85.4" y2="160.8" stroke="rgb(0,0,0)"  stroke-width="2.0"/>
<line x1="142.3" y1="167.3" x2="142.3" y2="193.7" stroke="rgb(0,0,0)"  stroke-width="2.0"/>
<line x1="62.8" y1="95.0" x2="51.3" y2="101.7" stroke="rgb(0,0,0)"  stroke-width="2.0"/>
<line x1="287.2" y1="168.5" x2="275.6" y2="175.2" stroke="rgb(0,0,0)"  stroke-width="2.0"/>
<line x1="304.9" y1="173.3" x2="311.6" y2="184.8" stroke="rgb(0,0,0)"  stroke-width="2.0"/>
<line x1="309.7" y1="155.5" x2="321.3" y2="148.8" stroke="rgb(0,0,0)"  stroke-width="2.0"/>
<line x1="322.0" y1="278.7" x2="302.3" y2="312.8" stroke="rgb(0,0,0)"  stroke-width="2.0"/>
<line x1="302.3" y1="312.8" x2="322.0" y2="346.9" stroke="rgb(0,0,0)"  stroke-width="2.0"/>
<line x1="311.5" y1="314.4" x2="325.2" y2="338.1" stroke="rgb(0,0,0)"  stroke-width="2.0"/>
<line x1="322.0" y1="346.9" x2="361.3" y2="346.9" stroke="rgb(0,0,0)"  stroke-width="2.0"/>
<line x1="361.3" y1="346.9" x2="381.0" y2="312.8" stroke="rgb(0,0,0)"  stroke-width="2.0"/>
<line x1="358.1" y1="338.1" x2="371.8" y2="314.4" stroke="rgb(0,0,0)"  stroke-width="2.0"/>
<line x1="381.0" y1="312.8" x2="361.3" y2="278.7" stroke="rgb(0,0,0)"  stroke-width="2.0"/>
<line x1="361.3" y1="278.7" x2="322.0" y2="278.7" stroke="rgb(0,0,0)"  stroke-width="2.0"/>
<line x1="355.3" y1="285.9" x2="328.0" y2="285.9" stroke="rgb(0,0,0)"  stroke-width="2.0"/>
<line x1="576.5" y1="475.6" x2="610.6" y2="495.3" stroke="rgb(0,0,0)"  stroke-width="2.0"/>
<line x1="610.6" y1="495.3" x2="644.7" y2="475.6" stroke="rgb(0,0,0)"  stroke-width="2.0"/>
<line x1="612.2" y1="486.1" x2="635.9" y2="472.4" stroke="rgb(0,0,0)"  stroke-width="2.0"/>
<line x1="644.7" y1="475.6" x2="644.7" y2="436.2" stroke="rgb(0,0,0)"  stroke-width="2.0"/>
<line x1="644.7" y1="436.2" x2="610.6" y2="416.6" stroke="rgb(0,0,0)"  stroke-width="2.0"/>
<line x1="635.9" y1="439.5" x2="612.2" y2="425.8" stroke="rgb(0,0,0)"  stroke-width="2.0"/>
<line x1="610.6" y1="416.6" x2="576.5" y2="436.2" stroke="rgb(0,0,0)"  stroke-width="2.0"/>
<line x1="576.5" y1="436.2" x2="576.5" y2="475.6" stroke="rgb(0,0,0)"  stroke-width="2.0"/>
<line x1="583.7" y1="442.2" x2="583.7" y2="469.6" stroke="rgb(0,0,0)"  stroke-width="2.0"/>
<line x1="890.2" y1="520.3" x2="890.2" y2="559.7" stroke="rgb(0,0,0)"  stroke-width="2.0"/>
<line x1="890.2" y1="559.7" x2="856.0" y2="579.4" stroke="rgb(0,0,0)"  stroke-width="2.0"/>
<line x1="881.4" y1="556.4" x2="857.6" y2="570.1" stroke="rgb(0,0,0)"  stroke-width="2.0"/>
<line x1="856.0" y1="579.4" x2="821.9" y2="559.7" stroke="rgb(0,0,0)"  stroke-width="2.0"/>
<line x1="821.9" y1="559.7" x2="821.9" y2="520.3" stroke="rgb(0,0,0)"  stroke-width="2.0"/>
<line x1="829.1" y1="553.7" x2="829.1" y2="526.3" stroke="rgb(0,0,0)"  stroke-width="2.0"/>
<line x1="821.9" y1="520.3" x2="856.0" y2="500.6" stroke="rgb(0,0,0)"  stroke-width="2.0"/>
<line x1="856.0" y1="500.6" x2="890.2" y2="520.3" stroke="rgb(0,0,0)"  stroke-width="2.0"/>
<line x1="857.6" y1="509.8" x2="881.4" y2="523.5" stroke="rgb(0,0,0)"  stroke-width="2.0"/>
<line x1="142.3" y1="88.5" x2="108.2" y2="108.2" stroke="rgb(0,0,0)"  stroke-width="2.0"/>
<line x1="108.2" y1="108.2" x2="108.2" y2="147.6" stroke="rgb(0,0,0)"  stroke-width="2.0"/>
<line x1="115.4" y1="114.2" x2="115.4" y2="141.6" stroke="rgb(0,0,0)"  stroke-width="2.0"/>
<line x1="108.2" y1="147.6" x2="142.3" y2="167.3" stroke="rgb(0,0,0)"  stroke-width="2.0"/>
<line x1="142.3" y1="167.3" x2="176.4" y2="147.6" stroke="rgb(0,0,0)"  stroke-width="2.0"/>
<line x1="143.9" y1="158.0" x2="167.6" y2="144.4" stroke="rgb(0,0,0)"  stroke-width="2.0"/>
<line x1="176.4" y1="147.6" x2="176.4" y2="108.2" stroke="rgb(0,0,0)"  stroke-width="2.0"/>
<line x1="176.4" y1="108.2" x2="142.3" y2="88.5" stroke="rgb(0,0,0)"  stroke-width="2.0"/>
<line x1="167.6" y1="111.4" x2="143.9" y2="97.8" stroke="rgb(0,0,0)"  stroke-width="2.0"/>
<text x="487.903097" y="164.725862" fill="rgb(191,191,191)"  stroke="rgb(191,191,191)" stroke-width="1" font-size="16" >H</text>
<text x="604.628959" y="542.696615" fill="rgb(191,191,191)"  stroke="rgb(191,191,191)" stroke-width="1" font-size="16" >H</text>
<text x="536.421067" y="503.316770" fill="rgb(191,191,191)"  stroke="rgb(191,191,191)" stroke-width="1" font-size="16" >H</text>
<text x="536.421067" y="424.557080" fill="rgb(191,191,191)"  stroke="rgb(191,191,191)" stroke-width="1" font-size="16" >H</text>
<text x="624.318882" y="351.073289" fill="rgb(191,191,191)"  stroke="rgb(191,191,191)" stroke-width="1" font-size="16" >H</text>
<text x="644.008804" y="385.177235" fill="rgb(191,191,191)"  stroke="rgb(191,191,191)" stroke-width="1" font-size="16" >H</text>
<text x="502.317121" y="404.867158" fill="rgb(191,191,191)"  stroke="rgb(191,191,191)" stroke-width="1" font-size="16" >H</text>
<text x="434.109229" y="365.487313" fill="rgb(191,191,191)"  stroke="rgb(191,191,191)" stroke-width="1" font-size="16" >H</text>
<text x="375.039461" y="389.039461" fill="rgb(191,191,191)"  stroke="rgb(191,191,191)" stroke-width="1" font-size="16" >H</text>
<text x="296.279771" y="389.039461" fill="rgb(191,191,191)"  stroke="rgb(191,191,191)" stroke-width="1" font-size="16" >H</text>
<text x="256.899926" y="320.831569" fill="rgb(191,191,191)"  stroke="rgb(191,191,191)" stroke-width="1" font-size="16" >H</text>
<text x="296.279771" y="252.623677" fill="rgb(191,191,191)"  stroke="rgb(191,191,191)" stroke-width="1" font-size="16" >H</text>
<text x="375.039461" y="252.623677" fill="rgb(191,191,191)"  stroke="rgb(191,191,191)" stroke-width="1" font-size="16" >H</text>
<text x="448.523252" y="340.521492" fill="rgb(191,191,191)"  stroke="rgb(191,191,191)" stroke-width="1" font-size="16" >H</text>
<text x="414.419306" y="360.211414" fill="rgb(191,191,191)"  stroke="rgb(191,191,191)" stroke-width="1" font-size="16" >H</text>
<text x="493.178996" y="252.623677" fill="rgb(191,191,191)"  stroke="rgb(191,191,191)" stroke-width="1" font-size="16" >H</text>
<text x="672.836852" y="503.316770" fill="rgb(191,191,191)"  stroke="rgb(191,191,191)" stroke-width="1" font-size="16" >H</text>
<text x="487.903097" y="204.105707" fill="rgb(191,191,191)"  stroke="rgb(191,191,191)" stroke-width="1" font-size="16" >H</text>
<text x="453.799151" y="116.207892" fill="rgb(191,191,191)"  stroke="rgb(191,191,191)" stroke-width="1" font-size="16" >H</text>
<text x="375.039461" y="48.000000" fill="rgb(191,191,191)"  stroke="rgb(191,191,191)" stroke-width="1" font-size="16" >H</text>
<text x="321.245593" y="101.793869" fill="rgb(191,191,191)"  stroke="rgb(191,191,191)" stroke-width="1" font-size="16" >H</text>
<text x="321.245593" y="62.414024" fill="rgb(191,191,191)"  stroke="rgb(191,191,191)" stroke-width="1" font-size="16" >H</text>
<text x="303.217545" y="157.969761" fill="rgb(12,12,255)"  stroke="rgb(12,12,255)" stroke-width="1" font-size="16" >+</text>
<text x="292.417545" y="170.001761" fill="rgb(12,12,255)"  stroke="rgb(12,12,255)" stroke-width="1" font-size="16" >N</text>
<text x="68.103946" y="96.517970" fill="rgb(255,12,12)"  stroke="rgb(255,12,12)" stroke-width="1" font-size="16" >O</text>
<text x="781.838262" y="587.352359" fill="rgb(191,191,191)"  stroke="rgb(191,191,191)" stroke-width="1" font-size="16" >H</text>
<text x="326.521492" y="150.311838" fill="rgb(191,191,191)"  stroke="rgb(191,191,191)" stroke-width="1" font-size="16" >H</text>
<text x="742.458417" y="390.453134" fill="rgb(191,191,191)"  stroke="rgb(191,191,191)" stroke-width="1" font-size="16" >H</text>
<text x="312.107468" y="204.105707" fill="rgb(191,191,191)"  stroke="rgb(191,191,191)" stroke-width="1" font-size="16" >H</text>
<text x="258.313599" y="189.691683" fill="rgb(191,191,191)"  stroke="rgb(191,191,191)" stroke-width="1" font-size="16" >H</text>
<text x="34.000000" y="116.207892" fill="rgb(191,191,191)"  stroke="rgb(191,191,191)" stroke-width="1" font-size="16" >H</text>
<text x="136.311838" y="214.657505" fill="rgb(191,191,191)"  stroke="rgb(191,191,191)" stroke-width="1" font-size="16" >H</text>
<text x="68.103946" y="175.277660" fill="rgb(191,191,191)"  stroke="rgb(191,191,191)" stroke-width="1" font-size="16" >H</text>
<text x="136.311838" y="57.138125" fill="rgb(191,191,191)"  stroke="rgb(191,191,191)" stroke-width="1" font-size="16" >H</text>
<text x="204.519731" y="96.517970" fill="rgb(191,191,191)"  stroke="rgb(191,191,191)" stroke-width="1" font-size="16" >H</text>
<text x="224.209653" y="209.381606" fill="rgb(191,191,191)"  stroke="rgb(191,191,191)" stroke-width="1" font-size="16" >H</text>
<text x="184.829808" y="209.381606" fill="rgb(191,191,191)"  stroke="rgb(191,191,191)" stroke-width="1" font-size="16" >H</text>
<text x="340.935515" y="175.277660" fill="rgb(191,191,191)"  stroke="rgb(191,191,191)" stroke-width="1" font-size="16" >H</text>
<text x="703.078572" y="429.832979" fill="rgb(191,191,191)"  stroke="rgb(191,191,191)" stroke-width="1" font-size="16" >H</text>
<text x="742.458417" y="469.212824" fill="rgb(191,191,191)"  stroke="rgb(191,191,191)" stroke-width="1" font-size="16" >H</text>
<text x="952.357992" y="567.662436" fill="rgb(191,191,191)"  stroke="rgb(191,191,191)" stroke-width="1" font-size="16" >H</text>
<text x="253.037700" y="101.793869" fill="rgb(191,191,191)"  stroke="rgb(191,191,191)" stroke-width="1" font-size="16" >H</text>
<text x="850.046154" y="626.732204" fill="rgb(191,191,191)"  stroke="rgb(191,191,191)" stroke-width="1" font-size="16" >H</text>
<text x="918.254046" y="508.592669" fill="rgb(191,191,191)"  stroke="rgb(191,191,191)" stroke-width="1" font-size="16" >H</text>
<text x="850.046154" y="469.212824" fill="rgb(191,191,191)"  stroke="rgb(191,191,191)" stroke-width="1" font-size="16" >H</text>
<text x="742.458417" y="508.592669" fill="rgb(191,191,191)"  stroke="rgb(191,191,191)" stroke-width="1" font-size="16" >H</text>
<text x="762.148339" y="542.696615" fill="rgb(191,191,191)"  stroke="rgb(191,191,191)" stroke-width="1" font-size="16" >H</text>
<text x="713.630370" y="390.453134" fill="rgb(191,191,191)"  stroke="rgb(191,191,191)" stroke-width="1" font-size="16" >H</text>
<text x="806.804083" y="297.279421" fill="rgb(191,191,191)"  stroke="rgb(191,191,191)" stroke-width="1" font-size="16" >H</text>
<text x="787.114161" y="370.763212" fill="rgb(191,191,191)"  stroke="rgb(191,191,191)" stroke-width="1" font-size="16" >H</text>
<text x="821.218107" y="351.073289" fill="rgb(191,191,191)"  stroke="rgb(191,191,191)" stroke-width="1" font-size="16" >H</text>
<text x="708.354471" y="263.175474" fill="rgb(191,191,191)"  stroke="rgb(191,191,191)" stroke-width="1" font-size="16" >H</text>
<text x="615.180757" y="277.589498" fill="rgb(191,191,191)"  stroke="rgb(191,191,191)" stroke-width="1" font-size="16" >H</text>
<text x="649.284703" y="257.899576" fill="rgb(191,191,191)"  stroke="rgb(191,191,191)" stroke-width="1" font-size="16" >H</text>
<text x="570.525013" y="297.279421" fill="rgb(191,191,191)"  stroke="rgb(191,191,191)" stroke-width="1" font-size="16" >H</text>
<text x="672.836852" y="424.557080" fill="rgb(191,191,191)"  stroke="rgb(191,191,191)" stroke-width="1" font-size="16" >H</text>
<text x="550.835091" y="399.591259" fill="rgb(191,191,191)"  stroke="rgb(191,191,191)" stroke-width="1" font-size="16" >H</text>
<text x="536.421067" y="306.417545" fill="rgb(255,12,12)"  stroke="rgb(255,12,12)" stroke-width="1" font-size="16" >O</text>
<text x="502.317121" y="365.487313" fill="rgb(12,12,255)"  stroke="rgb(12,12,255)" stroke-width="1" font-size="16" >N</text>
<text x="468.213175" y="345.797390" fill="rgb(12,12,255)"  stroke="rgb(12,12,255)" stroke-width="1" font-size="16" >N</text>
<text x="502.317121" y="286.727623" fill="rgb(255,12,12)"  stroke="rgb(255,12,12)" stroke-width="1" font-size="16" >O</text>
<text x="400.005283" y="267.037700" fill="rgb(191,191,191)"  stroke="rgb(191,191,191)" stroke-width="1" font-size="16" >H</text>
<text x="453.799151" y="252.623677" fill="rgb(12,12,255)"  stroke="rgb(12,12,255)" stroke-width="1" font-size="16" >N</text>
<text x="394.729384" y="218.519731" fill="rgb(255,12,12)"  stroke="rgb(255,12,12)" stroke-width="1" font-size="16" >O</text>
<text x="434.109229" y="150.311838" fill="rgb(12,12,255)"  stroke="rgb(12,12,255)" stroke-width="1" font-size="16" >N</text>
<text x="375.039461" y="184.415785" fill="rgb(255,12,12)"  stroke="rgb(255,12,12)" stroke-width="1" font-size="16" >O</text>
<text x="409.143407" y="96.517970" fill="rgb(191,191,191)"  stroke="rgb(191,191,191)" stroke-width="1" font-size="16" >H</text>
<text x="815.942208" y="370.763212" fill="rgb(255,12,12)"  stroke="rgb(255,12,12)" stroke-width="1" font-size="16" >O</text>
<text x="306.831569" y="76.828047" fill="rgb(255,12,12)"  stroke="rgb(255,12,12)" stroke-width="1" font-size="16" >O</text>
<text x="340.935515" y="135.897815" fill="rgb(12,12,255)"  stroke="rgb(12,12,255)" stroke-width="1" font-size="16" >N</text>
<text x="753.258417" y="417.800979" fill="rgb(12,12,255)"  stroke="rgb(12,12,255)" stroke-width="1" font-size="16" >+</text>
<text x="742.458417" y="429.832979" fill="rgb(12,12,255)"  stroke="rgb(12,12,255)" stroke-width="1" font-size="16" >N</text>
<text x="918.254046" y="587.352359" fill="rgb(255,12,12)"  stroke="rgb(255,12,12)" stroke-width="1" font-size="16" >O</text>
<text x="821.218107" y="429.832979" fill="rgb(191,191,191)"  stroke="rgb(191,191,191)" stroke-width="1" font-size="16" >H</text>
<text x="747.734316" y="370.763212" fill="rgb(12,12,255)"  stroke="rgb(12,12,255)" stroke-width="1" font-size="16" >N</text>
<text x="747.734316" y="292.003522" fill="rgb(191,191,191)"  stroke="rgb(191,191,191)" stroke-width="1" font-size="16" >H</text>
<text x="688.664548" y="365.487313" fill="rgb(255,12,12)"  stroke="rgb(255,12,12)" stroke-width="1" font-size="16" >O</text>
<text x="688.664548" y="297.279421" fill="rgb(12,12,255)"  stroke="rgb(12,12,255)" stroke-width="1" font-size="16" >N</text>
<text x="649.284703" y="365.487313" fill="rgb(255,12,12)"  stroke="rgb(255,12,12)" stroke-width="1" font-size="16" >O</text>
<text x="590.214936" y="331.383367" fill="rgb(12,12,255)"  stroke="rgb(12,12,255)" stroke-width="1" font-size="16" >N</text>
</svg>
</g>
<text font-size="18.000000" fill ="black" font-family="sans-serif"
x="10.000000" y="20.000000" >ZINC98229640</text>
</svg>
