<?xml version="1.0"?>
<svg version="1.1" id="topsvg"
xmlns="http://www.w3.org/2000/svg" xmlns:xlink="http://www.w3.org/1999/xlink"
xmlns:cml="http://www.xml-cml.org/schema" x="0" y="0" width="200px" height="200px" viewBox="0 0 100 100">
<title>ZINC44138218 - Open Babel Depiction</title>
<rect x="0" y="0" width="100" height="100" fill="white"/>
<g transform="translate(0,0)">
<svg width="100" height="100" x="0" y="0" viewBox="0 0 347.846 254.641"
font-family="sans-serif" stroke="rgb(0,0,0)" stroke-width="2"  stroke-linecap="round">
<line x1="100.0" y1="120.0" x2="134.6" y2="140.0" stroke="rgb(0,0,0)"  stroke-width="2.0"/>
<line x1="100.0" y1="120.0" x2="73.0" y2="120.0" stroke="rgb(0,0,0)"  stroke-width="2.0"/>
<line x1="100.0" y1="120.0" x2="86.5" y2="143.4" stroke="rgb(0,0,0)"  stroke-width="2.0"/>
<line x1="100.0" y1="120.0" x2="100.0" y2="93.0" stroke="rgb(0,0,0)"  stroke-width="2.0"/>
<line x1="136.6" y1="135.0" x2="138.0" y2="135.8" stroke="rgb(0,0,0)"  stroke-width="1.0"/>
<line x1="138.2" y1="130.9" x2="140.7" y2="132.4" stroke="rgb(0,0,0)"  stroke-width="1.0"/>
<line x1="139.8" y1="126.9" x2="143.4" y2="129.0" stroke="rgb(0,0,0)"  stroke-width="1.0"/>
<line x1="141.4" y1="122.9" x2="146.1" y2="125.6" stroke="rgb(0,0,0)"  stroke-width="1.0"/>
<line x1="143.0" y1="118.8" x2="148.8" y2="122.2" stroke="rgb(0,0,0)"  stroke-width="1.0"/>
<line x1="144.6" y1="114.8" x2="151.5" y2="118.8" stroke="rgb(0,0,0)"  stroke-width="1.0"/>
<line x1="134.6" y1="140.0" x2="169.3" y2="160.0" stroke="rgb(0,0,0)"  stroke-width="2.0"/>
<line x1="134.6" y1="140.0" x2="121.1" y2="163.4" stroke="rgb(0,0,0)"  stroke-width="2.0"/>
<line x1="172.3" y1="160.0" x2="172.3" y2="187.0" stroke="rgb(0,0,0)"  stroke-width="2.0"/>
<line x1="166.3" y1="160.0" x2="166.3" y2="187.0" stroke="rgb(0,0,0)"  stroke-width="2.0"/>
<line x1="169.3" y1="160.0" x2="203.9" y2="140.0" stroke="rgb(0,0,0)"  stroke-width="2.0"/>
<line x1="238.6" y1="160.0" x2="238.6" y2="187.0" stroke="rgb(0,0,0)"  stroke-width="2.0"/>
<line x1="273.2" y1="140.0" x2="296.6" y2="153.5" stroke="rgb(0,0,0)"  stroke-width="2.0"/>
<line x1="273.2" y1="100.0" x2="296.6" y2="86.5" stroke="rgb(0,0,0)"  stroke-width="2.0"/>
<line x1="238.6" y1="80.0" x2="238.6" y2="53.0" stroke="rgb(0,0,0)"  stroke-width="2.0"/>
<line x1="203.9" y1="100.0" x2="180.5" y2="86.5" stroke="rgb(0,0,0)"  stroke-width="2.0"/>
<line x1="101.6" y1="174.6" x2="74.6" y2="174.6" stroke="rgb(0,0,0)"  stroke-width="2.0"/>
<line x1="121.1" y1="185.9" x2="128.1" y2="198.0" stroke="rgb(0,0,0)"  stroke-width="2.0"/>
<line x1="74.6" y1="174.6" x2="51.3" y2="188.1" stroke="rgb(0,0,0)"  stroke-width="2.0"/>
<line x1="74.6" y1="174.6" x2="74.6" y2="201.6" stroke="rgb(0,0,0)"  stroke-width="2.0"/>
<line x1="74.6" y1="174.6" x2="61.1" y2="151.3" stroke="rgb(0,0,0)"  stroke-width="2.0"/>
<line x1="273.2" y1="140.0" x2="273.2" y2="100.0" stroke="rgb(0,0,0)"  stroke-width="2.0"/>
<line x1="273.2" y1="100.0" x2="238.6" y2="80.0" stroke="rgb(0,0,0)"  stroke-width="2.0"/>
<line x1="264.4" y1="103.2" x2="240.2" y2="89.2" stroke="rgb(0,0,0)"  stroke-width="2.0"/>
<line x1="238.6" y1="80.0" x2="203.9" y2="100.0" stroke="rgb(0,0,0)"  stroke-width="2.0"/>
<line x1="203.9" y1="100.0" x2="203.9" y2="140.0" stroke="rgb(0,0,0)"  stroke-width="2.0"/>
<line x1="211.1" y1="106.0" x2="211.1" y2="134.0" stroke="rgb(0,0,0)"  stroke-width="2.0"/>
<line x1="203.9" y1="140.0" x2="238.6" y2="160.0" stroke="rgb(0,0,0)"  stroke-width="2.0"/>
<line x1="238.6" y1="160.0" x2="273.2" y2="140.0" stroke="rgb(0,0,0)"  stroke-width="2.0"/>
<line x1="240.2" y1="150.8" x2="264.4" y2="136.8" stroke="rgb(0,0,0)"  stroke-width="2.0"/>
<text x="108.641016" y="182.641016" fill="rgb(12,12,255)"  stroke="rgb(12,12,255)" stroke-width="1" font-size="16" >N</text>
<text x="128.641016" y="217.282032" fill="rgb(191,191,191)"  stroke="rgb(191,191,191)" stroke-width="1" font-size="16" >H</text>
<text x="48.641016" y="148.000000" fill="rgb(191,191,191)"  stroke="rgb(191,191,191)" stroke-width="1" font-size="16" >H</text>
<text x="68.641016" y="222.641016" fill="rgb(191,191,191)"  stroke="rgb(191,191,191)" stroke-width="1" font-size="16" >H</text>
<text x="34.000000" y="202.641016" fill="rgb(191,191,191)"  stroke="rgb(191,191,191)" stroke-width="1" font-size="16" >H</text>
<text x="163.282032" y="88.000000" fill="rgb(191,191,191)"  stroke="rgb(191,191,191)" stroke-width="1" font-size="16" >H</text>
<text x="301.846097" y="88.000000" fill="rgb(191,191,191)"  stroke="rgb(191,191,191)" stroke-width="1" font-size="16" >H</text>
<text x="301.846097" y="168.000000" fill="rgb(191,191,191)"  stroke="rgb(191,191,191)" stroke-width="1" font-size="16" >H</text>
<text x="232.564065" y="208.000000" fill="rgb(191,191,191)"  stroke="rgb(191,191,191)" stroke-width="1" font-size="16" >H</text>
<text x="94.000000" y="88.000000" fill="rgb(191,191,191)"  stroke="rgb(191,191,191)" stroke-width="1" font-size="16" >H</text>
<text x="74.000000" y="162.641016" fill="rgb(191,191,191)"  stroke="rgb(191,191,191)" stroke-width="1" font-size="16" >H</text>
<text x="54.000000" y="128.000000" fill="rgb(191,191,191)"  stroke="rgb(191,191,191)" stroke-width="1" font-size="16" >H</text>
<text x="232.564065" y="48.000000" fill="rgb(127,178,255)"  stroke="rgb(127,178,255)" stroke-width="1" font-size="16" >F</text>
<text x="163.282032" y="208.000000" fill="rgb(255,12,12)"  stroke="rgb(255,12,12)" stroke-width="1" font-size="16" >O</text>
<text x="148.641016" y="113.358984" fill="rgb(191,191,191)"  stroke="rgb(191,191,191)" stroke-width="1" font-size="16" >H</text>
</svg>
</g>
<text font-size="18.000000" fill ="black" font-family="sans-serif"
x="10.000000" y="20.000000" >ZINC44138218</text>
</svg>
