<?xml version="1.0"?>
<svg version="1.1" id="topsvg"
xmlns="http://www.w3.org/2000/svg" xmlns:xlink="http://www.w3.org/1999/xlink"
xmlns:cml="http://www.xml-cml.org/schema" x="0" y="0" width="200px" height="200px" viewBox="0 0 100 100">
<title>ZINC98222188 - Open Babel Depiction</title>
<rect x="0" y="0" width="100" height="100" fill="white"/>
<g transform="translate(0,0)">
<svg width="100" height="100" x="0" y="0" viewBox="0 0 716.624 708.465"
font-family="sans-serif" stroke="rgb(0,0,0)" stroke-width="2"  stroke-linecap="round">
<line x1="273.0" y1="193.5" x2="252.4" y2="214.7" stroke="rgb(0,0,0)"  stroke-width="2.0"/>
<line x1="261.4" y1="152.5" x2="232.7" y2="145.3" stroke="rgb(0,0,0)"  stroke-width="2.0"/>
<line x1="291.0" y1="121.9" x2="282.9" y2="93.5" stroke="rgb(0,0,0)"  stroke-width="2.0"/>
<line x1="332.3" y1="132.3" x2="352.9" y2="111.1" stroke="rgb(0,0,0)"  stroke-width="2.0"/>
<line x1="344.0" y1="173.3" x2="372.7" y2="180.5" stroke="rgb(0,0,0)"  stroke-width="2.0"/>
<line x1="314.3" y1="203.9" x2="337.7" y2="285.8" stroke="rgb(0,0,0)"  stroke-width="2.0"/>
<line x1="396.5" y1="259.2" x2="397.1" y2="229.6" stroke="rgb(0,0,0)"  stroke-width="2.0"/>
<line x1="430.5" y1="284.9" x2="458.8" y2="276.3" stroke="rgb(0,0,0)"  stroke-width="2.0"/>
<line x1="366.2" y1="334.7" x2="356.2" y2="348.0" stroke="rgb(0,0,0)"  stroke-width="2.0"/>
<line x1="421.0" y1="348.8" x2="506.2" y2="348.8" stroke="rgb(0,0,0)"  stroke-width="2.0"/>
<line x1="413.6" y1="401.6" x2="425.8" y2="412.8" stroke="rgb(0,0,0)"  stroke-width="2.0"/>
<line x1="361.6" y1="414.0" x2="369.5" y2="498.8" stroke="rgb(0,0,0)"  stroke-width="2.0"/>
<line x1="315.9" y1="421.0" x2="312.2" y2="450.3" stroke="rgb(0,0,0)"  stroke-width="2.0"/>
<line x1="297.0" y1="406.7" x2="269.8" y2="418.3" stroke="rgb(0,0,0)"  stroke-width="2.0"/>
<line x1="308.3" y1="411.4" x2="298.3" y2="424.6" stroke="rgb(0,0,0)"  stroke-width="2.0"/>
<line x1="291.2" y1="360.8" x2="207.5" y2="376.5" stroke="rgb(0,0,0)"  stroke-width="2.0"/>
<line x1="288.9" y1="307.5" x2="274.8" y2="298.7" stroke="rgb(0,0,0)"  stroke-width="2.0"/>
<line x1="327.3" y1="317.4" x2="356.9" y2="318.3" stroke="rgb(0,0,0)"  stroke-width="2.0"/>
<line x1="314.9" y1="337.5" x2="328.9" y2="363.6" stroke="rgb(0,0,0)"  stroke-width="2.0"/>
<line x1="179.8" y1="344.1" x2="189.6" y2="316.2" stroke="rgb(0,0,0)"  stroke-width="2.0"/>
<line x1="137.9" y1="352.0" x2="118.6" y2="329.5" stroke="rgb(0,0,0)"  stroke-width="2.0"/>
<line x1="123.7" y1="392.1" x2="94.7" y2="397.6" stroke="rgb(0,0,0)"  stroke-width="2.0"/>
<line x1="151.5" y1="424.5" x2="141.6" y2="452.4" stroke="rgb(0,0,0)"  stroke-width="2.0"/>
<line x1="193.3" y1="416.6" x2="212.6" y2="439.1" stroke="rgb(0,0,0)"  stroke-width="2.0"/>
<line x1="76.5" y1="387.7" x2="73.5" y2="371.4" stroke="rgb(0,0,0)"  stroke-width="2.0"/>
<line x1="82.4" y1="386.6" x2="79.4" y2="370.3" stroke="rgb(0,0,0)"  stroke-width="2.0"/>
<line x1="69.6" y1="405.3" x2="53.3" y2="408.3" stroke="rgb(0,0,0)"  stroke-width="2.0"/>
<line x1="68.5" y1="399.4" x2="52.2" y2="402.4" stroke="rgb(0,0,0)"  stroke-width="2.0"/>
<line x1="84.3" y1="412.7" x2="87.3" y2="429.0" stroke="rgb(0,0,0)"  stroke-width="2.0"/>
<line x1="334.7" y1="523.4" x2="307.8" y2="511.0" stroke="rgb(0,0,0)"  stroke-width="2.0"/>
<line x1="338.6" y1="565.8" x2="314.5" y2="582.9" stroke="rgb(0,0,0)"  stroke-width="2.0"/>
<line x1="377.3" y1="583.6" x2="380.1" y2="613.1" stroke="rgb(0,0,0)"  stroke-width="2.0"/>
<line x1="412.1" y1="559.0" x2="439.0" y2="571.4" stroke="rgb(0,0,0)"  stroke-width="2.0"/>
<line x1="408.2" y1="516.6" x2="432.3" y2="499.5" stroke="rgb(0,0,0)"  stroke-width="2.0"/>
<line x1="368.6" y1="630.2" x2="352.1" y2="631.8" stroke="rgb(0,0,0)"  stroke-width="2.0"/>
<line x1="368.0" y1="624.3" x2="351.5" y2="625.8" stroke="rgb(0,0,0)"  stroke-width="2.0"/>
<line x1="385.5" y1="638.7" x2="387.0" y2="655.2" stroke="rgb(0,0,0)"  stroke-width="2.0"/>
<line x1="379.5" y1="639.3" x2="381.0" y2="655.8" stroke="rgb(0,0,0)"  stroke-width="2.0"/>
<line x1="394.2" y1="624.9" x2="410.7" y2="623.3" stroke="rgb(0,0,0)"  stroke-width="2.0"/>
<line x1="407.9" y1="412.4" x2="416.8" y2="440.7" stroke="rgb(0,0,0)"  stroke-width="2.0"/>
<line x1="423.8" y1="395.0" x2="452.7" y2="401.3" stroke="rgb(0,0,0)"  stroke-width="2.0"/>
<line x1="527.5" y1="385.7" x2="512.7" y2="411.3" stroke="rgb(0,0,0)"  stroke-width="2.0"/>
<line x1="570.1" y1="385.7" x2="584.9" y2="411.3" stroke="rgb(0,0,0)"  stroke-width="2.0"/>
<line x1="591.4" y1="348.8" x2="621.0" y2="348.8" stroke="rgb(0,0,0)"  stroke-width="2.0"/>
<line x1="570.1" y1="311.9" x2="584.9" y2="286.3" stroke="rgb(0,0,0)"  stroke-width="2.0"/>
<line x1="527.5" y1="311.9" x2="512.7" y2="286.3" stroke="rgb(0,0,0)"  stroke-width="2.0"/>
<line x1="637.0" y1="361.8" x2="637.0" y2="378.4" stroke="rgb(0,0,0)"  stroke-width="2.0"/>
<line x1="631.0" y1="361.8" x2="631.0" y2="378.4" stroke="rgb(0,0,0)"  stroke-width="2.0"/>
<line x1="647.0" y1="345.8" x2="663.6" y2="345.8" stroke="rgb(0,0,0)"  stroke-width="2.0"/>
<line x1="647.0" y1="351.8" x2="663.6" y2="351.8" stroke="rgb(0,0,0)"  stroke-width="2.0"/>
<line x1="634.0" y1="335.8" x2="634.0" y2="319.2" stroke="rgb(0,0,0)"  stroke-width="2.0"/>
<line x1="291.1" y1="74.5" x2="307.0" y2="70.0" stroke="rgb(0,0,0)"  stroke-width="2.0"/>
<line x1="292.7" y1="80.3" x2="308.7" y2="75.8" stroke="rgb(0,0,0)"  stroke-width="2.0"/>
<line x1="272.9" y1="69.3" x2="268.4" y2="53.3" stroke="rgb(0,0,0)"  stroke-width="2.0"/>
<line x1="278.7" y1="67.6" x2="274.2" y2="51.7" stroke="rgb(0,0,0)"  stroke-width="2.0"/>
<line x1="266.9" y1="84.5" x2="250.9" y2="89.1" stroke="rgb(0,0,0)"  stroke-width="2.0"/>
<line x1="361.6" y1="283.6" x2="396.5" y2="259.2" stroke="rgb(0,0,0)"  stroke-width="2.0"/>
<line x1="370.7" y1="286.1" x2="395.7" y2="268.5" stroke="rgb(0,0,0)"  stroke-width="2.0"/>
<line x1="396.5" y1="259.2" x2="430.5" y2="284.9" stroke="rgb(0,0,0)"  stroke-width="2.0"/>
<line x1="430.5" y1="284.9" x2="416.6" y2="325.1" stroke="rgb(0,0,0)"  stroke-width="2.0"/>
<line x1="421.8" y1="288.2" x2="411.8" y2="317.1" stroke="rgb(0,0,0)"  stroke-width="2.0"/>
<line x1="416.6" y1="325.1" x2="387.0" y2="324.6" stroke="rgb(0,0,0)"  stroke-width="2.0"/>
<line x1="370.2" y1="311.9" x2="361.6" y2="283.6" stroke="rgb(0,0,0)"  stroke-width="2.0"/>
<line x1="416.6" y1="372.4" x2="410.8" y2="381.8" stroke="rgb(0,0,0)"  stroke-width="2.0"/>
<line x1="393.6" y1="400.7" x2="384.8" y2="407.4" stroke="rgb(0,0,0)"  stroke-width="2.0"/>
<line x1="384.8" y1="407.4" x2="407.9" y2="412.4" stroke="rgb(0,0,0)"  stroke-width="2.0"/>
<line x1="407.9" y1="412.4" x2="423.8" y2="395.0" stroke="rgb(0,0,0)"  stroke-width="2.0"/>
<line x1="406.6" y1="403.2" x2="414.4" y2="394.6" stroke="rgb(0,0,0)"  stroke-width="2.0"/>
<line x1="423.8" y1="395.0" x2="416.6" y2="372.4" stroke="rgb(0,0,0)"  stroke-width="2.0"/>
<line x1="337.7" y1="411.8" x2="315.9" y2="421.0" stroke="rgb(0,0,0)"  stroke-width="2.0"/>
<line x1="329.3" y1="407.5" x2="318.6" y2="412.0" stroke="rgb(0,0,0)"  stroke-width="2.0"/>
<line x1="315.9" y1="421.0" x2="297.0" y2="406.7" stroke="rgb(0,0,0)"  stroke-width="2.0"/>
<line x1="297.0" y1="406.7" x2="299.9" y2="383.3" stroke="rgb(0,0,0)"  stroke-width="2.0"/>
<line x1="304.9" y1="401.7" x2="306.3" y2="390.1" stroke="rgb(0,0,0)"  stroke-width="2.0"/>
<line x1="299.9" y1="383.3" x2="307.4" y2="391.4" stroke="rgb(0,0,0)"  stroke-width="2.0"/>
<line x1="327.8" y1="406.8" x2="337.7" y2="411.8" stroke="rgb(0,0,0)"  stroke-width="2.0"/>
<line x1="291.2" y1="336.8" x2="295.2" y2="326.5" stroke="rgb(0,0,0)"  stroke-width="2.0"/>
<line x1="308.7" y1="304.7" x2="316.1" y2="296.5" stroke="rgb(0,0,0)"  stroke-width="2.0"/>
<line x1="316.1" y1="296.5" x2="327.3" y2="317.4" stroke="rgb(0,0,0)"  stroke-width="2.0"/>
<line x1="327.3" y1="317.4" x2="314.9" y2="337.5" stroke="rgb(0,0,0)"  stroke-width="2.0"/>
<line x1="318.0" y1="318.7" x2="311.9" y2="328.6" stroke="rgb(0,0,0)"  stroke-width="2.0"/>
<line x1="314.9" y1="337.5" x2="291.2" y2="336.8" stroke="rgb(0,0,0)"  stroke-width="2.0"/>
<line x1="291.0" y1="121.9" x2="332.3" y2="132.3" stroke="rgb(0,0,0)"  stroke-width="2.0"/>
<line x1="332.3" y1="132.3" x2="344.0" y2="173.3" stroke="rgb(0,0,0)"  stroke-width="2.0"/>
<line x1="327.1" y1="140.1" x2="335.4" y2="169.5" stroke="rgb(0,0,0)"  stroke-width="2.0"/>
<line x1="344.0" y1="173.3" x2="314.3" y2="203.9" stroke="rgb(0,0,0)"  stroke-width="2.0"/>
<line x1="314.3" y1="203.9" x2="273.0" y2="193.5" stroke="rgb(0,0,0)"  stroke-width="2.0"/>
<line x1="310.3" y1="195.4" x2="280.6" y2="188.0" stroke="rgb(0,0,0)"  stroke-width="2.0"/>
<line x1="273.0" y1="193.5" x2="261.4" y2="152.5" stroke="rgb(0,0,0)"  stroke-width="2.0"/>
<line x1="261.4" y1="152.5" x2="291.0" y2="121.9" stroke="rgb(0,0,0)"  stroke-width="2.0"/>
<line x1="270.7" y1="153.2" x2="292.0" y2="131.3" stroke="rgb(0,0,0)"  stroke-width="2.0"/>
<line x1="137.9" y1="352.0" x2="123.7" y2="392.1" stroke="rgb(0,0,0)"  stroke-width="2.0"/>
<line x1="123.7" y1="392.1" x2="151.5" y2="424.5" stroke="rgb(0,0,0)"  stroke-width="2.0"/>
<line x1="133.1" y1="392.0" x2="153.0" y2="415.2" stroke="rgb(0,0,0)"  stroke-width="2.0"/>
<line x1="151.5" y1="424.5" x2="193.3" y2="416.6" stroke="rgb(0,0,0)"  stroke-width="2.0"/>
<line x1="193.3" y1="416.6" x2="207.5" y2="376.5" stroke="rgb(0,0,0)"  stroke-width="2.0"/>
<line x1="188.5" y1="408.6" x2="198.7" y2="379.7" stroke="rgb(0,0,0)"  stroke-width="2.0"/>
<line x1="207.5" y1="376.5" x2="179.8" y2="344.1" stroke="rgb(0,0,0)"  stroke-width="2.0"/>
<line x1="179.8" y1="344.1" x2="137.9" y2="352.0" stroke="rgb(0,0,0)"  stroke-width="2.0"/>
<line x1="175.2" y1="352.3" x2="145.1" y2="357.9" stroke="rgb(0,0,0)"  stroke-width="2.0"/>
<line x1="338.6" y1="565.8" x2="377.3" y2="583.6" stroke="rgb(0,0,0)"  stroke-width="2.0"/>
<line x1="377.3" y1="583.6" x2="412.1" y2="559.0" stroke="rgb(0,0,0)"  stroke-width="2.0"/>
<line x1="378.1" y1="574.3" x2="403.1" y2="556.6" stroke="rgb(0,0,0)"  stroke-width="2.0"/>
<line x1="412.1" y1="559.0" x2="408.2" y2="516.6" stroke="rgb(0,0,0)"  stroke-width="2.0"/>
<line x1="408.2" y1="516.6" x2="369.5" y2="498.8" stroke="rgb(0,0,0)"  stroke-width="2.0"/>
<line x1="399.7" y1="520.6" x2="371.9" y2="507.9" stroke="rgb(0,0,0)"  stroke-width="2.0"/>
<line x1="369.5" y1="498.8" x2="334.7" y2="523.4" stroke="rgb(0,0,0)"  stroke-width="2.0"/>
<line x1="334.7" y1="523.4" x2="338.6" y2="565.8" stroke="rgb(0,0,0)"  stroke-width="2.0"/>
<line x1="342.4" y1="528.7" x2="345.3" y2="559.2" stroke="rgb(0,0,0)"  stroke-width="2.0"/>
<line x1="570.1" y1="385.7" x2="591.4" y2="348.8" stroke="rgb(0,0,0)"  stroke-width="2.0"/>
<line x1="591.4" y1="348.8" x2="570.1" y2="311.9" stroke="rgb(0,0,0)"  stroke-width="2.0"/>
<line x1="582.2" y1="347.2" x2="566.9" y2="320.7" stroke="rgb(0,0,0)"  stroke-width="2.0"/>
<line x1="570.1" y1="311.9" x2="527.5" y2="311.9" stroke="rgb(0,0,0)"  stroke-width="2.0"/>
<line x1="527.5" y1="311.9" x2="506.2" y2="348.8" stroke="rgb(0,0,0)"  stroke-width="2.0"/>
<line x1="530.8" y1="320.7" x2="515.5" y2="347.2" stroke="rgb(0,0,0)"  stroke-width="2.0"/>
<line x1="506.2" y1="348.8" x2="527.5" y2="385.7" stroke="rgb(0,0,0)"  stroke-width="2.0"/>
<line x1="527.5" y1="385.7" x2="570.1" y2="385.7" stroke="rgb(0,0,0)"  stroke-width="2.0"/>
<line x1="533.5" y1="378.5" x2="564.1" y2="378.5" stroke="rgb(0,0,0)"  stroke-width="2.0"/>
<line x1="416.6" y1="325.1" x2="421.0" y2="348.8" stroke="rgb(0,0,0)"  stroke-width="2.0"/>
<line x1="421.0" y1="348.8" x2="416.6" y2="372.4" stroke="rgb(0,0,0)"  stroke-width="2.0"/>
<line x1="412.9" y1="353.4" x2="410.6" y2="365.2" stroke="rgb(0,0,0)"  stroke-width="2.0"/>
<line x1="384.8" y1="407.4" x2="361.6" y2="414.0" stroke="rgb(0,0,0)"  stroke-width="2.0"/>
<line x1="377.0" y1="402.1" x2="365.4" y2="405.4" stroke="rgb(0,0,0)"  stroke-width="2.0"/>
<line x1="361.6" y1="414.0" x2="337.7" y2="411.8" stroke="rgb(0,0,0)"  stroke-width="2.0"/>
<line x1="299.9" y1="383.3" x2="291.2" y2="360.8" stroke="rgb(0,0,0)"  stroke-width="2.0"/>
<line x1="291.2" y1="360.8" x2="291.2" y2="336.8" stroke="rgb(0,0,0)"  stroke-width="2.0"/>
<line x1="298.4" y1="354.8" x2="298.4" y2="342.8" stroke="rgb(0,0,0)"  stroke-width="2.0"/>
<line x1="316.1" y1="296.5" x2="337.7" y2="285.8" stroke="rgb(0,0,0)"  stroke-width="2.0"/>
<line x1="324.7" y1="300.3" x2="335.5" y2="294.9" stroke="rgb(0,0,0)"  stroke-width="2.0"/>
<line x1="337.7" y1="285.8" x2="361.6" y2="283.6" stroke="rgb(0,0,0)"  stroke-width="2.0"/>
<text x="355.998967" y="109.750983" fill="rgb(191,191,191)"  stroke="rgb(191,191,191)" stroke-width="1" font-size="16" >H</text>
<text x="214.071397" y="150.132859" fill="rgb(191,191,191)"  stroke="rgb(191,191,191)" stroke-width="1" font-size="16" >H</text>
<text x="237.385884" y="232.074780" fill="rgb(191,191,191)"  stroke="rgb(191,191,191)" stroke-width="1" font-size="16" >H</text>
<text x="220.406978" y="100.628204" fill="rgb(255,12,12)"  stroke="rgb(255,12,12)" stroke-width="1" font-size="16" >HO</text>
<text x="261.720695" y="48.000000" fill="rgb(255,12,12)"  stroke="rgb(255,12,12)" stroke-width="1" font-size="16" >O</text>
<text x="314.348899" y="77.313717" fill="rgb(255,12,12)"  stroke="rgb(255,12,12)" stroke-width="1" font-size="16" >O</text>
<text x="273.377939" y="88.970960" fill="rgb(178,178,0)"  stroke="rgb(178,178,0)" stroke-width="1" font-size="16" >S</text>
<text x="628.027169" y="314.192551" fill="rgb(255,12,12)"  stroke="rgb(255,12,12)" stroke-width="1" font-size="16" >OH</text>
<text x="670.624245" y="356.789627" fill="rgb(255,12,12)"  stroke="rgb(255,12,12)" stroke-width="1" font-size="16" >O</text>
<text x="628.027169" y="399.386704" fill="rgb(255,12,12)"  stroke="rgb(255,12,12)" stroke-width="1" font-size="16" >O</text>
<text x="628.027169" y="356.789627" fill="rgb(178,178,0)"  stroke="rgb(178,178,0)" stroke-width="1" font-size="16" >S</text>
<text x="379.313454" y="191.692904" fill="rgb(191,191,191)"  stroke="rgb(191,191,191)" stroke-width="1" font-size="16" >H</text>
<text x="417.686247" y="630.119703" fill="rgb(255,12,12)"  stroke="rgb(255,12,12)" stroke-width="1" font-size="16" >OH</text>
<text x="379.201245" y="676.465431" fill="rgb(255,12,12)"  stroke="rgb(255,12,12)" stroke-width="1" font-size="16" >O</text>
<text x="332.855518" y="637.980428" fill="rgb(255,12,12)"  stroke="rgb(255,12,12)" stroke-width="1" font-size="16" >O</text>
<text x="290.014228" y="513.611558" fill="rgb(191,191,191)"  stroke="rgb(191,191,191)" stroke-width="1" font-size="16" >H</text>
<text x="429.436181" y="429.589141" fill="rgb(191,191,191)"  stroke="rgb(191,191,191)" stroke-width="1" font-size="16" >H</text>
<text x="257.704504" y="299.903397" fill="rgb(191,191,191)"  stroke="rgb(191,191,191)" stroke-width="1" font-size="16" >H</text>
<text x="500.235940" y="283.009327" fill="rgb(191,191,191)"  stroke="rgb(191,191,191)" stroke-width="1" font-size="16" >H</text>
<text x="585.430092" y="283.009327" fill="rgb(191,191,191)"  stroke="rgb(191,191,191)" stroke-width="1" font-size="16" >H</text>
<text x="585.430092" y="430.569928" fill="rgb(191,191,191)"  stroke="rgb(191,191,191)" stroke-width="1" font-size="16" >H</text>
<text x="500.235940" y="430.569928" fill="rgb(191,191,191)"  stroke="rgb(191,191,191)" stroke-width="1" font-size="16" >H</text>
<text x="459.401036" y="412.085558" fill="rgb(191,191,191)"  stroke="rgb(191,191,191)" stroke-width="1" font-size="16" >H</text>
<text x="414.772074" y="461.041198" fill="rgb(191,191,191)"  stroke="rgb(191,191,191)" stroke-width="1" font-size="16" >H</text>
<text x="436.945362" y="499.996384" fill="rgb(191,191,191)"  stroke="rgb(191,191,191)" stroke-width="1" font-size="16" >H</text>
<text x="444.806087" y="584.827114" fill="rgb(191,191,191)"  stroke="rgb(191,191,191)" stroke-width="1" font-size="16" >H</text>
<text x="297.874953" y="598.442288" fill="rgb(191,191,191)"  stroke="rgb(191,191,191)" stroke-width="1" font-size="16" >H</text>
<text x="375.270883" y="634.050066" fill="rgb(178,178,0)"  stroke="rgb(178,178,0)" stroke-width="1" font-size="16" >S</text>
<text x="215.044216" y="456.996833" fill="rgb(191,191,191)"  stroke="rgb(191,191,191)" stroke-width="1" font-size="16" >H</text>
<text x="131.300655" y="472.651218" fill="rgb(191,191,191)"  stroke="rgb(191,191,191)" stroke-width="1" font-size="16" >H</text>
<text x="104.186466" y="327.603116" fill="rgb(191,191,191)"  stroke="rgb(191,191,191)" stroke-width="1" font-size="16" >H</text>
<text x="187.930027" y="311.948731" fill="rgb(191,191,191)"  stroke="rgb(191,191,191)" stroke-width="1" font-size="16" >H</text>
<text x="329.019784" y="383.017640" fill="rgb(191,191,191)"  stroke="rgb(191,191,191)" stroke-width="1" font-size="16" >H</text>
<text x="363.893278" y="326.695013" fill="rgb(191,191,191)"  stroke="rgb(191,191,191)" stroke-width="1" font-size="16" >H</text>
<text x="251.787333" y="431.323801" fill="rgb(191,191,191)"  stroke="rgb(191,191,191)" stroke-width="1" font-size="16" >H</text>
<text x="304.651978" y="471.245327" fill="rgb(191,191,191)"  stroke="rgb(191,191,191)" stroke-width="1" font-size="16" >H</text>
<text x="465.279371" y="280.467293" fill="rgb(191,191,191)"  stroke="rgb(191,191,191)" stroke-width="1" font-size="16" >H</text>
<text x="391.324766" y="224.619367" fill="rgb(191,191,191)"  stroke="rgb(191,191,191)" stroke-width="1" font-size="16" >H</text>
<text x="368.031422" y="332.354565" fill="rgb(12,12,255)"  stroke="rgb(12,12,255)" stroke-width="1" font-size="16" >N</text>
<text x="310.128728" y="409.030123" fill="rgb(12,12,255)"  stroke="rgb(12,12,255)" stroke-width="1" font-size="16" >N</text>
<text x="397.956562" y="400.891676" fill="rgb(12,12,255)"  stroke="rgb(12,12,255)" stroke-width="1" font-size="16" >N</text>
<text x="342.360948" y="366.347766" fill="rgb(191,191,191)"  stroke="rgb(191,191,191)" stroke-width="1" font-size="16" >H</text>
<text x="284.458254" y="443.023324" fill="rgb(191,191,191)"  stroke="rgb(191,191,191)" stroke-width="1" font-size="16" >H</text>
<text x="83.698973" y="449.826139" fill="rgb(255,12,12)"  stroke="rgb(255,12,12)" stroke-width="1" font-size="16" >OH</text>
<text x="34.000000" y="415.781551" fill="rgb(255,12,12)"  stroke="rgb(255,12,12)" stroke-width="1" font-size="16" >O</text>
<text x="68.044588" y="366.082579" fill="rgb(255,12,12)"  stroke="rgb(255,12,12)" stroke-width="1" font-size="16" >O</text>
<text x="75.871780" y="407.954359" fill="rgb(178,178,0)"  stroke="rgb(178,178,0)" stroke-width="1" font-size="16" >S</text>
<text x="293.921268" y="322.327868" fill="rgb(12,12,255)"  stroke="rgb(12,12,255)" stroke-width="1" font-size="16" >N</text>
</svg>
</g>
<text font-size="18.000000" fill ="black" font-family="sans-serif"
x="10.000000" y="20.000000" >ZINC98222188</text>
</svg>
