<?xml version="1.0"?>
<svg version="1.1" id="topsvg"
xmlns="http://www.w3.org/2000/svg" xmlns:xlink="http://www.w3.org/1999/xlink"
xmlns:cml="http://www.xml-cml.org/schema" x="0" y="0" width="200px" height="200px" viewBox="0 0 100 100">
<title>ZINC98216265 - Open Babel Depiction</title>
<rect x="0" y="0" width="100" height="100" fill="white"/>
<g transform="translate(0,0)">
<svg width="100" height="100" x="0" y="0" viewBox="0 0 713.694 648.42"
font-family="sans-serif" stroke="rgb(0,0,0)" stroke-width="2"  stroke-linecap="round">
<line x1="345.9" y1="73.4" x2="345.9" y2="112.0" stroke="rgb(0,0,0)"  stroke-width="2.0"/>
<line x1="345.9" y1="73.4" x2="333.1" y2="51.3" stroke="rgb(0,0,0)"  stroke-width="2.0"/>
<line x1="345.9" y1="73.4" x2="320.4" y2="73.4" stroke="rgb(0,0,0)"  stroke-width="2.0"/>
<line x1="345.9" y1="73.4" x2="368.1" y2="60.6" stroke="rgb(0,0,0)"  stroke-width="2.0"/>
<line x1="345.9" y1="112.0" x2="268.8" y2="112.0" stroke="rgb(0,0,0)"  stroke-width="2.0"/>
<line x1="345.9" y1="112.0" x2="384.5" y2="112.0" stroke="rgb(0,0,0)"  stroke-width="2.0"/>
<line x1="345.9" y1="112.0" x2="345.9" y2="137.5" stroke="rgb(0,0,0)"  stroke-width="2.0"/>
<line x1="268.8" y1="112.0" x2="246.7" y2="124.7" stroke="rgb(0,0,0)"  stroke-width="2.0"/>
<line x1="268.8" y1="112.0" x2="268.8" y2="137.5" stroke="rgb(0,0,0)"  stroke-width="2.0"/>
<line x1="268.8" y1="112.0" x2="256.0" y2="89.8" stroke="rgb(0,0,0)"  stroke-width="2.0"/>
<polygon points="384.485571 111.956088 380.485571 86.120116 388.485571 86.120116 " stroke-width="2.000000" fill="rgb(0,0,0)"  stroke="rgb(0,0,0)" />
<line x1="384.5" y1="112.0" x2="384.5" y2="150.5" stroke="rgb(0,0,0)"  stroke-width="2.0"/>
<line x1="384.5" y1="112.0" x2="410.0" y2="112.0" stroke="rgb(0,0,0)"  stroke-width="2.0"/>
<line x1="386.0" y1="147.9" x2="408.1" y2="160.7" stroke="rgb(0,0,0)"  stroke-width="2.0"/>
<line x1="383.0" y1="153.1" x2="405.1" y2="165.9" stroke="rgb(0,0,0)"  stroke-width="2.0"/>
<line x1="384.5" y1="150.5" x2="362.3" y2="163.3" stroke="rgb(0,0,0)"  stroke-width="2.0"/>
<line x1="351.1" y1="182.8" x2="351.1" y2="208.4" stroke="rgb(0,0,0)"  stroke-width="2.0"/>
<line x1="339.8" y1="163.3" x2="329.0" y2="157.0" stroke="rgb(0,0,0)"  stroke-width="2.0"/>
<line x1="356.3" y1="207.6" x2="356.3" y2="209.2" stroke="rgb(0,0,0)"  stroke-width="1.0"/>
<line x1="360.4" y1="206.9" x2="360.4" y2="209.8" stroke="rgb(0,0,0)"  stroke-width="1.0"/>
<line x1="364.5" y1="206.3" x2="364.5" y2="210.4" stroke="rgb(0,0,0)"  stroke-width="1.0"/>
<line x1="368.7" y1="205.6" x2="368.7" y2="211.1" stroke="rgb(0,0,0)"  stroke-width="1.0"/>
<line x1="372.8" y1="205.0" x2="372.8" y2="211.7" stroke="rgb(0,0,0)"  stroke-width="1.0"/>
<line x1="376.9" y1="204.4" x2="376.9" y2="212.4" stroke="rgb(0,0,0)"  stroke-width="1.0"/>
<line x1="351.1" y1="208.4" x2="351.1" y2="246.9" stroke="rgb(0,0,0)"  stroke-width="2.0"/>
<line x1="351.1" y1="208.4" x2="312.5" y2="208.4" stroke="rgb(0,0,0)"  stroke-width="2.0"/>
<line x1="351.1" y1="246.9" x2="384.5" y2="266.2" stroke="rgb(0,0,0)"  stroke-width="2.0"/>
<line x1="351.1" y1="246.9" x2="338.3" y2="269.1" stroke="rgb(0,0,0)"  stroke-width="2.0"/>
<line x1="351.1" y1="246.9" x2="325.5" y2="246.9" stroke="rgb(0,0,0)"  stroke-width="2.0"/>
<line x1="417.9" y1="246.9" x2="417.9" y2="221.4" stroke="rgb(0,0,0)"  stroke-width="2.0"/>
<line x1="451.3" y1="266.2" x2="473.4" y2="253.4" stroke="rgb(0,0,0)"  stroke-width="2.0"/>
<line x1="451.3" y1="304.8" x2="473.4" y2="317.5" stroke="rgb(0,0,0)"  stroke-width="2.0"/>
<line x1="417.9" y1="324.0" x2="417.9" y2="349.6" stroke="rgb(0,0,0)"  stroke-width="2.0"/>
<line x1="384.5" y1="304.8" x2="362.3" y2="317.5" stroke="rgb(0,0,0)"  stroke-width="2.0"/>
<line x1="495.9" y1="317.5" x2="506.8" y2="311.3" stroke="rgb(0,0,0)"  stroke-width="2.0"/>
<line x1="309.9" y1="209.9" x2="297.2" y2="187.7" stroke="rgb(0,0,0)"  stroke-width="2.0"/>
<line x1="315.1" y1="206.9" x2="302.3" y2="184.7" stroke="rgb(0,0,0)"  stroke-width="2.0"/>
<line x1="312.5" y1="208.4" x2="299.7" y2="230.5" stroke="rgb(0,0,0)"  stroke-width="2.0"/>
<line x1="280.2" y1="241.8" x2="254.7" y2="241.8" stroke="rgb(0,0,0)"  stroke-width="2.0"/>
<line x1="299.7" y1="253.0" x2="306.0" y2="263.9" stroke="rgb(0,0,0)"  stroke-width="2.0"/>
<polygon points="254.687757 241.753902 250.687757 215.917930 258.687757 215.917930 " stroke-width="2.000000" fill="rgb(0,0,0)"  stroke="rgb(0,0,0)" />
<line x1="254.7" y1="241.8" x2="216.1" y2="241.8" stroke="rgb(0,0,0)"  stroke-width="2.0"/>
<line x1="254.7" y1="241.8" x2="254.7" y2="318.9" stroke="rgb(0,0,0)"  stroke-width="2.0"/>
<line x1="216.1" y1="241.8" x2="216.1" y2="203.2" stroke="rgb(0,0,0)"  stroke-width="2.0"/>
<line x1="216.1" y1="241.8" x2="139.0" y2="241.8" stroke="rgb(0,0,0)"  stroke-width="2.0"/>
<line x1="216.1" y1="241.8" x2="216.1" y2="267.3" stroke="rgb(0,0,0)"  stroke-width="2.0"/>
<line x1="216.1" y1="203.2" x2="203.3" y2="181.1" stroke="rgb(0,0,0)"  stroke-width="2.0"/>
<line x1="216.1" y1="203.2" x2="190.6" y2="203.2" stroke="rgb(0,0,0)"  stroke-width="2.0"/>
<line x1="216.1" y1="203.2" x2="238.3" y2="190.4" stroke="rgb(0,0,0)"  stroke-width="2.0"/>
<line x1="139.0" y1="241.8" x2="116.9" y2="229.0" stroke="rgb(0,0,0)"  stroke-width="2.0"/>
<line x1="139.0" y1="241.8" x2="139.0" y2="216.2" stroke="rgb(0,0,0)"  stroke-width="2.0"/>
<line x1="139.0" y1="241.8" x2="126.2" y2="263.9" stroke="rgb(0,0,0)"  stroke-width="2.0"/>
<line x1="256.2" y1="316.3" x2="278.3" y2="329.1" stroke="rgb(0,0,0)"  stroke-width="2.0"/>
<line x1="253.2" y1="321.5" x2="275.3" y2="334.3" stroke="rgb(0,0,0)"  stroke-width="2.0"/>
<line x1="254.7" y1="318.9" x2="232.6" y2="331.7" stroke="rgb(0,0,0)"  stroke-width="2.0"/>
<line x1="221.3" y1="351.2" x2="221.3" y2="376.7" stroke="rgb(0,0,0)"  stroke-width="2.0"/>
<line x1="210.0" y1="331.7" x2="199.2" y2="325.4" stroke="rgb(0,0,0)"  stroke-width="2.0"/>
<polygon points="221.292820 376.717930 247.128791 372.717930 247.128791 380.717930 " stroke-width="2.000000" fill="rgb(0,0,0)"  stroke="rgb(0,0,0)" />
<line x1="221.3" y1="376.7" x2="182.7" y2="376.7" stroke="rgb(0,0,0)"  stroke-width="2.0"/>
<line x1="221.3" y1="376.7" x2="221.3" y2="415.3" stroke="rgb(0,0,0)"  stroke-width="2.0"/>
<line x1="182.7" y1="376.7" x2="182.7" y2="402.3" stroke="rgb(0,0,0)"  stroke-width="2.0"/>
<line x1="182.7" y1="376.7" x2="160.6" y2="389.5" stroke="rgb(0,0,0)"  stroke-width="2.0"/>
<line x1="182.7" y1="376.7" x2="163.5" y2="343.3" stroke="rgb(0,0,0)"  stroke-width="2.0"/>
<line x1="179.1" y1="308.1" x2="204.1" y2="302.8" stroke="rgb(0,0,0)"  stroke-width="2.0"/>
<line x1="108.0" y1="358.3" x2="116.4" y2="349.0" stroke="rgb(0,0,0)"  stroke-width="2.0"/>
<line x1="117.1" y1="301.6" x2="93.7" y2="291.2" stroke="rgb(0,0,0)"  stroke-width="2.0"/>
<line x1="222.8" y1="417.9" x2="200.7" y2="430.7" stroke="rgb(0,0,0)"  stroke-width="2.0"/>
<line x1="219.8" y1="412.7" x2="197.7" y2="425.5" stroke="rgb(0,0,0)"  stroke-width="2.0"/>
<line x1="221.3" y1="415.3" x2="276.8" y2="447.3" stroke="rgb(0,0,0)"  stroke-width="2.0"/>
<line x1="323.3" y1="438.2" x2="315.4" y2="413.8" stroke="rgb(0,0,0)"  stroke-width="2.0"/>
<line x1="323.3" y1="438.2" x2="340.4" y2="419.2" stroke="rgb(0,0,0)"  stroke-width="2.0"/>
<line x1="349.1" y1="466.8" x2="369.8" y2="451.8" stroke="rgb(0,0,0)"  stroke-width="2.0"/>
<line x1="349.1" y1="466.8" x2="372.5" y2="477.2" stroke="rgb(0,0,0)"  stroke-width="2.0"/>
<line x1="329.8" y1="500.2" x2="350.5" y2="515.2" stroke="rgb(0,0,0)"  stroke-width="2.0"/>
<line x1="329.8" y1="500.2" x2="327.2" y2="525.6" stroke="rgb(0,0,0)"  stroke-width="2.0"/>
<line x1="291.3" y1="497.4" x2="289.8" y2="496.9" stroke="rgb(0,0,0)"  stroke-width="1.0"/>
<line x1="290.6" y1="501.5" x2="287.9" y2="500.6" stroke="rgb(0,0,0)"  stroke-width="1.0"/>
<line x1="289.9" y1="505.6" x2="286.0" y2="504.3" stroke="rgb(0,0,0)"  stroke-width="1.0"/>
<line x1="289.3" y1="509.7" x2="284.1" y2="508.1" stroke="rgb(0,0,0)"  stroke-width="1.0"/>
<line x1="288.6" y1="513.9" x2="282.2" y2="511.8" stroke="rgb(0,0,0)"  stroke-width="1.0"/>
<line x1="287.9" y1="518.0" x2="280.3" y2="515.5" stroke="rgb(0,0,0)"  stroke-width="1.0"/>
<line x1="292.1" y1="492.2" x2="254.4" y2="500.2" stroke="rgb(0,0,0)"  stroke-width="2.0"/>
<line x1="252.2" y1="502.2" x2="235.1" y2="483.2" stroke="rgb(0,0,0)"  stroke-width="2.0"/>
<line x1="256.6" y1="498.2" x2="239.5" y2="479.2" stroke="rgb(0,0,0)"  stroke-width="2.0"/>
<line x1="254.4" y1="500.2" x2="246.5" y2="524.5" stroke="rgb(0,0,0)"  stroke-width="2.0"/>
<line x1="229.8" y1="539.6" x2="204.8" y2="544.9" stroke="rgb(0,0,0)"  stroke-width="2.0"/>
<line x1="251.2" y1="546.5" x2="259.6" y2="555.9" stroke="rgb(0,0,0)"  stroke-width="2.0"/>
<polygon points="204.760385 544.898604 195.476194 520.458857 203.301375 518.795564 " stroke-width="2.000000" fill="rgb(0,0,0)"  stroke="rgb(0,0,0)" />
<line x1="204.8" y1="544.9" x2="167.0" y2="552.9" stroke="rgb(0,0,0)"  stroke-width="2.0"/>
<line x1="204.8" y1="544.9" x2="212.8" y2="582.6" stroke="rgb(0,0,0)"  stroke-width="2.0"/>
<line x1="167.0" y1="552.9" x2="141.2" y2="524.3" stroke="rgb(0,0,0)"  stroke-width="2.0"/>
<line x1="167.0" y1="552.9" x2="148.0" y2="570.0" stroke="rgb(0,0,0)"  stroke-width="2.0"/>
<line x1="167.0" y1="552.9" x2="172.4" y2="577.9" stroke="rgb(0,0,0)"  stroke-width="2.0"/>
<line x1="153.2" y1="487.6" x2="178.2" y2="482.3" stroke="rgb(0,0,0)"  stroke-width="2.0"/>
<line x1="127.4" y1="458.9" x2="135.3" y2="434.6" stroke="rgb(0,0,0)"  stroke-width="2.0"/>
<line x1="89.6" y1="466.9" x2="72.5" y2="448.0" stroke="rgb(0,0,0)"  stroke-width="2.0"/>
<line x1="77.7" y1="503.6" x2="52.7" y2="508.9" stroke="rgb(0,0,0)"  stroke-width="2.0"/>
<line x1="103.5" y1="532.3" x2="95.6" y2="556.6" stroke="rgb(0,0,0)"  stroke-width="2.0"/>
<line x1="214.8" y1="584.8" x2="195.8" y2="602.0" stroke="rgb(0,0,0)"  stroke-width="2.0"/>
<line x1="210.8" y1="580.4" x2="191.8" y2="597.5" stroke="rgb(0,0,0)"  stroke-width="2.0"/>
<line x1="212.8" y1="582.6" x2="237.1" y2="590.5" stroke="rgb(0,0,0)"  stroke-width="2.0"/>
<line x1="429.5" y1="100.7" x2="442.3" y2="78.6" stroke="rgb(0,0,0)"  stroke-width="2.0"/>
<line x1="429.5" y1="123.2" x2="435.8" y2="134.1" stroke="rgb(0,0,0)"  stroke-width="2.0"/>
<line x1="439.7" y1="80.1" x2="426.9" y2="57.9" stroke="rgb(0,0,0)"  stroke-width="2.0"/>
<line x1="444.9" y1="77.1" x2="432.1" y2="54.9" stroke="rgb(0,0,0)"  stroke-width="2.0"/>
<line x1="442.3" y1="78.6" x2="480.9" y2="78.6" stroke="rgb(0,0,0)"  stroke-width="2.0"/>
<polygon points="480.888448 78.561151 476.888448 52.725180 484.888448 52.725180 " stroke-width="2.000000" fill="rgb(0,0,0)"  stroke="rgb(0,0,0)" />
<line x1="480.9" y1="78.6" x2="558.0" y2="78.6" stroke="rgb(0,0,0)"  stroke-width="2.0"/>
<line x1="480.9" y1="78.6" x2="480.9" y2="104.1" stroke="rgb(0,0,0)"  stroke-width="2.0"/>
<line x1="558.0" y1="78.6" x2="577.3" y2="112.0" stroke="rgb(0,0,0)"  stroke-width="2.0"/>
<line x1="558.0" y1="78.6" x2="580.1" y2="65.8" stroke="rgb(0,0,0)"  stroke-width="2.0"/>
<line x1="558.0" y1="78.6" x2="558.0" y2="53.0" stroke="rgb(0,0,0)"  stroke-width="2.0"/>
<line x1="577.3" y1="112.0" x2="615.9" y2="112.0" stroke="rgb(0,0,0)"  stroke-width="2.0"/>
<line x1="577.3" y1="112.0" x2="577.3" y2="137.5" stroke="rgb(0,0,0)"  stroke-width="2.0"/>
<line x1="577.3" y1="112.0" x2="555.2" y2="124.7" stroke="rgb(0,0,0)"  stroke-width="2.0"/>
<line x1="615.9" y1="112.0" x2="628.6" y2="134.1" stroke="rgb(0,0,0)"  stroke-width="2.0"/>
<line x1="615.9" y1="112.0" x2="638.0" y2="99.2" stroke="rgb(0,0,0)"  stroke-width="2.0"/>
<line x1="615.9" y1="112.0" x2="615.9" y2="86.4" stroke="rgb(0,0,0)"  stroke-width="2.0"/>
<line x1="628.6" y1="156.6" x2="615.9" y2="178.7" stroke="rgb(0,0,0)"  stroke-width="2.0"/>
<line x1="648.1" y1="145.4" x2="660.7" y2="145.4" stroke="rgb(0,0,0)"  stroke-width="2.0"/>
<line x1="615.9" y1="181.7" x2="590.3" y2="181.7" stroke="rgb(0,0,0)"  stroke-width="2.0"/>
<line x1="615.9" y1="175.7" x2="590.3" y2="175.7" stroke="rgb(0,0,0)"  stroke-width="2.0"/>
<line x1="615.9" y1="178.7" x2="628.6" y2="200.9" stroke="rgb(0,0,0)"  stroke-width="2.0"/>
<line x1="570.8" y1="167.5" x2="564.5" y2="156.6" stroke="rgb(0,0,0)"  stroke-width="2.0"/>
<line x1="570.8" y1="190.0" x2="564.5" y2="200.9" stroke="rgb(0,0,0)"  stroke-width="2.0"/>
<line x1="628.6" y1="223.4" x2="622.4" y2="234.3" stroke="rgb(0,0,0)"  stroke-width="2.0"/>
<line x1="648.1" y1="212.1" x2="660.7" y2="212.1" stroke="rgb(0,0,0)"  stroke-width="2.0"/>
<line x1="493.9" y1="117.1" x2="506.4" y2="117.1" stroke="rgb(0,0,0)"  stroke-width="2.0"/>
<line x1="480.9" y1="130.1" x2="480.9" y2="142.7" stroke="rgb(0,0,0)"  stroke-width="2.0"/>
<line x1="467.9" y1="117.1" x2="455.3" y2="117.1" stroke="rgb(0,0,0)"  stroke-width="2.0"/>
<line x1="179.1" y1="308.1" x2="163.5" y2="343.3" stroke="rgb(0,0,0)"  stroke-width="2.0"/>
<line x1="170.1" y1="310.6" x2="159.3" y2="334.9" stroke="rgb(0,0,0)"  stroke-width="2.0"/>
<line x1="163.5" y1="343.3" x2="138.0" y2="340.7" stroke="rgb(0,0,0)"  stroke-width="2.0"/>
<line x1="122.4" y1="326.6" x2="117.1" y2="301.6" stroke="rgb(0,0,0)"  stroke-width="2.0"/>
<line x1="117.1" y1="301.6" x2="139.5" y2="288.7" stroke="rgb(0,0,0)"  stroke-width="2.0"/>
<line x1="125.9" y1="304.8" x2="141.2" y2="296.0" stroke="rgb(0,0,0)"  stroke-width="2.0"/>
<line x1="160.1" y1="291.0" x2="179.1" y2="308.1" stroke="rgb(0,0,0)"  stroke-width="2.0"/>
<line x1="451.3" y1="266.2" x2="451.3" y2="304.8" stroke="rgb(0,0,0)"  stroke-width="2.0"/>
<line x1="451.3" y1="304.8" x2="417.9" y2="324.0" stroke="rgb(0,0,0)"  stroke-width="2.0"/>
<line x1="442.5" y1="301.5" x2="419.5" y2="314.8" stroke="rgb(0,0,0)"  stroke-width="2.0"/>
<line x1="417.9" y1="324.0" x2="384.5" y2="304.8" stroke="rgb(0,0,0)"  stroke-width="2.0"/>
<line x1="384.5" y1="304.8" x2="384.5" y2="266.2" stroke="rgb(0,0,0)"  stroke-width="2.0"/>
<line x1="391.7" y1="298.8" x2="391.7" y2="272.2" stroke="rgb(0,0,0)"  stroke-width="2.0"/>
<line x1="384.5" y1="266.2" x2="417.9" y2="246.9" stroke="rgb(0,0,0)"  stroke-width="2.0"/>
<line x1="417.9" y1="246.9" x2="451.3" y2="266.2" stroke="rgb(0,0,0)"  stroke-width="2.0"/>
<line x1="419.5" y1="256.2" x2="442.5" y2="269.4" stroke="rgb(0,0,0)"  stroke-width="2.0"/>
<line x1="127.4" y1="458.9" x2="89.6" y2="466.9" stroke="rgb(0,0,0)"  stroke-width="2.0"/>
<line x1="89.6" y1="466.9" x2="77.7" y2="503.6" stroke="rgb(0,0,0)"  stroke-width="2.0"/>
<line x1="94.6" y1="474.9" x2="86.4" y2="500.1" stroke="rgb(0,0,0)"  stroke-width="2.0"/>
<line x1="77.7" y1="503.6" x2="103.5" y2="532.3" stroke="rgb(0,0,0)"  stroke-width="2.0"/>
<line x1="103.5" y1="532.3" x2="141.2" y2="524.3" stroke="rgb(0,0,0)"  stroke-width="2.0"/>
<line x1="107.9" y1="524.0" x2="133.9" y2="518.5" stroke="rgb(0,0,0)"  stroke-width="2.0"/>
<line x1="141.2" y1="524.3" x2="153.2" y2="487.6" stroke="rgb(0,0,0)"  stroke-width="2.0"/>
<line x1="153.2" y1="487.6" x2="127.4" y2="458.9" stroke="rgb(0,0,0)"  stroke-width="2.0"/>
<line x1="143.8" y1="487.9" x2="126.0" y2="468.2" stroke="rgb(0,0,0)"  stroke-width="2.0"/>
<line x1="349.1" y1="466.8" x2="329.8" y2="500.2" stroke="rgb(0,0,0)"  stroke-width="2.0"/>
<line x1="329.8" y1="500.2" x2="292.1" y2="492.2" stroke="rgb(0,0,0)"  stroke-width="2.0"/>
<line x1="292.1" y1="492.2" x2="289.4" y2="466.8" stroke="rgb(0,0,0)"  stroke-width="2.0"/>
<line x1="300.0" y1="448.6" x2="323.3" y2="438.2" stroke="rgb(0,0,0)"  stroke-width="2.0"/>
<line x1="323.3" y1="438.2" x2="349.1" y2="466.8" stroke="rgb(0,0,0)"  stroke-width="2.0"/>
<text x="210.126605" y="288.315053" fill="rgb(191,191,191)"  stroke="rgb(191,191,191)" stroke-width="1" font-size="16" >H</text>
<text x="325.810059" y="288.315053" fill="rgb(191,191,191)"  stroke="rgb(191,191,191)" stroke-width="1" font-size="16" >H</text>
<text x="306.529483" y="254.920116" fill="rgb(191,191,191)"  stroke="rgb(191,191,191)" stroke-width="1" font-size="16" >H</text>
<text x="411.880507" y="216.358965" fill="rgb(191,191,191)"  stroke="rgb(191,191,191)" stroke-width="1" font-size="16" >H</text>
<text x="478.670380" y="254.920116" fill="rgb(191,191,191)"  stroke="rgb(191,191,191)" stroke-width="1" font-size="16" >H</text>
<text x="411.880507" y="370.603570" fill="rgb(191,191,191)"  stroke="rgb(191,191,191)" stroke-width="1" font-size="16" >H</text>
<text x="345.090634" y="332.042418" fill="rgb(191,191,191)"  stroke="rgb(191,191,191)" stroke-width="1" font-size="16" >H</text>
<text x="512.065316" y="312.761843" fill="rgb(191,191,191)"  stroke="rgb(191,191,191)" stroke-width="1" font-size="16" >H</text>
<text x="306.529483" y="283.148838" fill="rgb(191,191,191)"  stroke="rgb(191,191,191)" stroke-width="1" font-size="16" >H</text>
<text x="311.695698" y="158.517239" fill="rgb(191,191,191)"  stroke="rgb(191,191,191)" stroke-width="1" font-size="16" >H</text>
<text x="190.846030" y="177.797814" fill="rgb(191,191,191)"  stroke="rgb(191,191,191)" stroke-width="1" font-size="16" >H</text>
<text x="171.565454" y="211.192751" fill="rgb(191,191,191)"  stroke="rgb(191,191,191)" stroke-width="1" font-size="16" >H</text>
<text x="243.521542" y="191.912175" fill="rgb(191,191,191)"  stroke="rgb(191,191,191)" stroke-width="1" font-size="16" >H</text>
<text x="99.609367" y="230.473326" fill="rgb(191,191,191)"  stroke="rgb(191,191,191)" stroke-width="1" font-size="16" >H</text>
<text x="133.004303" y="211.192751" fill="rgb(191,191,191)"  stroke="rgb(191,191,191)" stroke-width="1" font-size="16" >H</text>
<text x="113.723728" y="283.148838" fill="rgb(191,191,191)"  stroke="rgb(191,191,191)" stroke-width="1" font-size="16" >H</text>
<text x="181.897884" y="326.876204" fill="rgb(191,191,191)"  stroke="rgb(191,191,191)" stroke-width="1" font-size="16" >H</text>
<text x="176.731669" y="423.279082" fill="rgb(191,191,191)"  stroke="rgb(191,191,191)" stroke-width="1" font-size="16" >H</text>
<text x="243.521542" y="86.561151" fill="rgb(191,191,191)"  stroke="rgb(191,191,191)" stroke-width="1" font-size="16" >H</text>
<text x="262.802117" y="158.517239" fill="rgb(191,191,191)"  stroke="rgb(191,191,191)" stroke-width="1" font-size="16" >H</text>
<text x="229.407181" y="139.236663" fill="rgb(191,191,191)"  stroke="rgb(191,191,191)" stroke-width="1" font-size="16" >H</text>
<text x="339.924420" y="158.517239" fill="rgb(191,191,191)"  stroke="rgb(191,191,191)" stroke-width="1" font-size="16" >H</text>
<text x="373.319356" y="62.114361" fill="rgb(191,191,191)"  stroke="rgb(191,191,191)" stroke-width="1" font-size="16" >H</text>
<text x="301.363269" y="81.394936" fill="rgb(191,191,191)"  stroke="rgb(191,191,191)" stroke-width="1" font-size="16" >H</text>
<text x="320.643844" y="48.000000" fill="rgb(191,191,191)"  stroke="rgb(191,191,191)" stroke-width="1" font-size="16" >H</text>
<text x="485.688448" y="113.090302" fill="rgb(12,12,255)"  stroke="rgb(12,12,255)" stroke-width="1" font-size="16" >+</text>
<text x="474.888448" y="125.122302" fill="rgb(12,12,255)"  stroke="rgb(12,12,255)" stroke-width="1" font-size="16" >N</text>
<text x="629.133053" y="220.140897" fill="rgb(12,12,255)"  stroke="rgb(12,12,255)" stroke-width="1" font-size="16" >N</text>
<text x="571.291326" y="186.745960" fill="rgb(12,12,255)"  stroke="rgb(12,12,255)" stroke-width="1" font-size="16" >N</text>
<text x="629.133053" y="153.351024" fill="rgb(12,12,255)"  stroke="rgb(12,12,255)" stroke-width="1" font-size="16" >N</text>
<text x="667.694204" y="153.351024" fill="rgb(191,191,191)"  stroke="rgb(191,191,191)" stroke-width="1" font-size="16" >H</text>
<text x="85.604893" y="576.950546" fill="rgb(191,191,191)"  stroke="rgb(191,191,191)" stroke-width="1" font-size="16" >H</text>
<text x="436.327297" y="153.351024" fill="rgb(191,191,191)"  stroke="rgb(191,191,191)" stroke-width="1" font-size="16" >H</text>
<text x="585.405687" y="67.280576" fill="rgb(191,191,191)"  stroke="rgb(191,191,191)" stroke-width="1" font-size="16" >H</text>
<text x="552.010751" y="48.000000" fill="rgb(191,191,191)"  stroke="rgb(191,191,191)" stroke-width="1" font-size="16" >H</text>
<text x="571.291326" y="158.517239" fill="rgb(191,191,191)"  stroke="rgb(191,191,191)" stroke-width="1" font-size="16" >H</text>
<text x="537.896390" y="139.236663" fill="rgb(191,191,191)"  stroke="rgb(191,191,191)" stroke-width="1" font-size="16" >H</text>
<text x="643.247414" y="100.675512" fill="rgb(191,191,191)"  stroke="rgb(191,191,191)" stroke-width="1" font-size="16" >H</text>
<text x="609.852477" y="81.394936" fill="rgb(191,191,191)"  stroke="rgb(191,191,191)" stroke-width="1" font-size="16" >H</text>
<text x="34.000000" y="519.637506" fill="rgb(191,191,191)"  stroke="rgb(191,191,191)" stroke-width="1" font-size="16" >H</text>
<text x="552.010751" y="153.351024" fill="rgb(191,191,191)"  stroke="rgb(191,191,191)" stroke-width="1" font-size="16" >H</text>
<text x="609.852477" y="253.535833" fill="rgb(191,191,191)"  stroke="rgb(191,191,191)" stroke-width="1" font-size="16" >H</text>
<text x="667.694204" y="220.140897" fill="rgb(191,191,191)"  stroke="rgb(191,191,191)" stroke-width="1" font-size="16" >H</text>
<text x="513.449599" y="125.122302" fill="rgb(191,191,191)"  stroke="rgb(191,191,191)" stroke-width="1" font-size="16" >H</text>
<text x="474.888448" y="163.683453" fill="rgb(191,191,191)"  stroke="rgb(191,191,191)" stroke-width="1" font-size="16" >H</text>
<text x="552.010751" y="220.140897" fill="rgb(191,191,191)"  stroke="rgb(191,191,191)" stroke-width="1" font-size="16" >H</text>
<text x="436.327297" y="125.122302" fill="rgb(191,191,191)"  stroke="rgb(191,191,191)" stroke-width="1" font-size="16" >H</text>
<text x="474.888448" y="48.000000" fill="rgb(191,191,191)"  stroke="rgb(191,191,191)" stroke-width="1" font-size="16" >H</text>
<text x="57.832102" y="446.289838" fill="rgb(191,191,191)"  stroke="rgb(191,191,191)" stroke-width="1" font-size="16" >H</text>
<text x="133.269097" y="430.255210" fill="rgb(191,191,191)"  stroke="rgb(191,191,191)" stroke-width="1" font-size="16" >H</text>
<text x="184.873990" y="487.568250" fill="rgb(191,191,191)"  stroke="rgb(191,191,191)" stroke-width="1" font-size="16" >H</text>
<text x="169.059202" y="598.634415" fill="rgb(191,191,191)"  stroke="rgb(191,191,191)" stroke-width="1" font-size="16" >H</text>
<text x="132.385368" y="586.718364" fill="rgb(191,191,191)"  stroke="rgb(191,191,191)" stroke-width="1" font-size="16" >H</text>
<text x="262.281329" y="573.537810" fill="rgb(191,191,191)"  stroke="rgb(191,191,191)" stroke-width="1" font-size="16" >H</text>
<text x="319.801190" y="546.557365" fill="rgb(191,191,191)"  stroke="rgb(191,191,191)" stroke-width="1" font-size="16" >H</text>
<text x="355.028555" y="530.873132" fill="rgb(191,191,191)"  stroke="rgb(191,191,191)" stroke-width="1" font-size="16" >H</text>
<text x="378.339868" y="490.496752" fill="rgb(191,191,191)"  stroke="rgb(191,191,191)" stroke-width="1" font-size="16" >H</text>
<text x="374.309130" y="452.146843" fill="rgb(191,191,191)"  stroke="rgb(191,191,191)" stroke-width="1" font-size="16" >H</text>
<text x="343.112504" y="417.499480" fill="rgb(191,191,191)"  stroke="rgb(191,191,191)" stroke-width="1" font-size="16" >H</text>
<text x="305.394006" y="409.482165" fill="rgb(191,191,191)"  stroke="rgb(191,191,191)" stroke-width="1" font-size="16" >H</text>
<text x="75.856506" y="293.889526" fill="rgb(191,191,191)"  stroke="rgb(191,191,191)" stroke-width="1" font-size="16" >H</text>
<text x="210.853824" y="308.078315" fill="rgb(191,191,191)"  stroke="rgb(191,191,191)" stroke-width="1" font-size="16" >H</text>
<text x="143.336733" y="403.998506" fill="rgb(191,191,191)"  stroke="rgb(191,191,191)" stroke-width="1" font-size="16" >H</text>
<text x="478.670380" y="332.042418" fill="rgb(255,12,12)"  stroke="rgb(255,12,12)" stroke-width="1" font-size="16" >O</text>
<text x="287.248908" y="182.964029" fill="rgb(255,12,12)"  stroke="rgb(255,12,12)" stroke-width="1" font-size="16" >O</text>
<text x="287.248908" y="249.753902" fill="rgb(12,12,255)"  stroke="rgb(12,12,255)" stroke-width="1" font-size="16" >N</text>
<text x="248.687757" y="211.192751" fill="rgb(191,191,191)"  stroke="rgb(191,191,191)" stroke-width="1" font-size="16" >H</text>
<text x="282.082693" y="346.156779" fill="rgb(255,12,12)"  stroke="rgb(255,12,12)" stroke-width="1" font-size="16" >O</text>
<text x="215.292820" y="346.156779" fill="rgb(12,12,255)"  stroke="rgb(12,12,255)" stroke-width="1" font-size="16" >N</text>
<text x="253.853971" y="384.717930" fill="rgb(191,191,191)"  stroke="rgb(191,191,191)" stroke-width="1" font-size="16" >H</text>
<text x="383.651785" y="216.358965" fill="rgb(191,191,191)"  stroke="rgb(191,191,191)" stroke-width="1" font-size="16" >H</text>
<text x="345.090634" y="177.797814" fill="rgb(12,12,255)"  stroke="rgb(12,12,255)" stroke-width="1" font-size="16" >N</text>
<text x="411.880507" y="177.797814" fill="rgb(255,12,12)"  stroke="rgb(255,12,12)" stroke-width="1" font-size="16" >O</text>
<text x="378.485571" y="81.394936" fill="rgb(191,191,191)"  stroke="rgb(191,191,191)" stroke-width="1" font-size="16" >H</text>
<text x="417.046722" y="53.166215" fill="rgb(255,12,12)"  stroke="rgb(255,12,12)" stroke-width="1" font-size="16" >O</text>
<text x="417.046722" y="119.956088" fill="rgb(12,12,255)"  stroke="rgb(12,12,255)" stroke-width="1" font-size="16" >N</text>
<text x="243.451533" y="602.533152" fill="rgb(255,12,12)"  stroke="rgb(255,12,12)" stroke-width="1" font-size="16" >OH</text>
<text x="178.121179" y="616.419548" fill="rgb(255,12,12)"  stroke="rgb(255,12,12)" stroke-width="1" font-size="16" >O</text>
<text x="190.743071" y="515.180106" fill="rgb(191,191,191)"  stroke="rgb(191,191,191)" stroke-width="1" font-size="16" >H</text>
<text x="236.478882" y="544.881290" fill="rgb(12,12,255)"  stroke="rgb(12,12,255)" stroke-width="1" font-size="16" >N</text>
<text x="222.592487" y="479.550936" fill="rgb(255,12,12)"  stroke="rgb(255,12,12)" stroke-width="1" font-size="16" >O</text>
<text x="274.197380" y="536.863976" fill="rgb(191,191,191)"  stroke="rgb(191,191,191)" stroke-width="1" font-size="16" >H</text>
<text x="282.082693" y="461.840233" fill="rgb(12,12,255)"  stroke="rgb(12,12,255)" stroke-width="1" font-size="16" >N</text>
<text x="181.897884" y="442.559657" fill="rgb(255,12,12)"  stroke="rgb(255,12,12)" stroke-width="1" font-size="16" >O</text>
<text x="119.101184" y="347.292256" fill="rgb(12,12,255)"  stroke="rgb(12,12,255)" stroke-width="1" font-size="16" >N</text>
<text x="93.298738" y="375.948776" fill="rgb(191,191,191)"  stroke="rgb(191,191,191)" stroke-width="1" font-size="16" >H</text>
<text x="144.478807" y="290.293183" fill="rgb(12,12,255)"  stroke="rgb(12,12,255)" stroke-width="1" font-size="16" >N</text>
</svg>
</g>
<text font-size="18.000000" fill ="black" font-family="sans-serif"
x="10.000000" y="20.000000" >ZINC98216265</text>
</svg>
