<?xml version="1.0"?>
<svg version="1.1" id="topsvg"
xmlns="http://www.w3.org/2000/svg" xmlns:xlink="http://www.w3.org/1999/xlink"
xmlns:cml="http://www.xml-cml.org/schema" x="0" y="0" width="200px" height="200px" viewBox="0 0 100 100">
<title>ZINC00264403 - Open Babel Depiction</title>
<rect x="0" y="0" width="100" height="100" fill="white"/>
<g transform="translate(0,0)">
<svg width="100" height="100" x="0" y="0" viewBox="0 0 399.441 277.25"
font-family="sans-serif" stroke="rgb(0,0,0)" stroke-width="2"  stroke-linecap="round">
<line x1="156.0" y1="203.8" x2="136.7" y2="170.3" stroke="rgb(0,0,0)"  stroke-width="2.0"/>
<line x1="156.0" y1="203.8" x2="178.2" y2="216.6" stroke="rgb(0,0,0)"  stroke-width="2.0"/>
<line x1="156.0" y1="203.8" x2="178.2" y2="190.9" stroke="rgb(0,0,0)"  stroke-width="2.0"/>
<line x1="156.0" y1="203.8" x2="143.2" y2="226.0" stroke="rgb(0,0,0)"  stroke-width="2.0"/>
<line x1="98.0" y1="170.3" x2="85.2" y2="192.5" stroke="rgb(0,0,0)"  stroke-width="2.0"/>
<line x1="78.7" y1="136.8" x2="53.0" y2="136.8" stroke="rgb(0,0,0)"  stroke-width="2.0"/>
<line x1="98.0" y1="103.3" x2="85.2" y2="81.1" stroke="rgb(0,0,0)"  stroke-width="2.0"/>
<line x1="136.7" y1="103.3" x2="149.5" y2="81.1" stroke="rgb(0,0,0)"  stroke-width="2.0"/>
<line x1="156.0" y1="136.8" x2="220.3" y2="136.8" stroke="rgb(0,0,0)"  stroke-width="2.0"/>
<line x1="256.1" y1="105.5" x2="248.1" y2="81.1" stroke="rgb(0,0,0)"  stroke-width="2.0"/>
<line x1="292.8" y1="117.5" x2="313.6" y2="102.4" stroke="rgb(0,0,0)"  stroke-width="2.0"/>
<line x1="292.8" y1="156.1" x2="324.1" y2="178.9" stroke="rgb(0,0,0)"  stroke-width="2.0"/>
<line x1="252.0" y1="180.4" x2="248.1" y2="192.5" stroke="rgb(0,0,0)"  stroke-width="2.0"/>
<line x1="324.1" y1="178.9" x2="334.6" y2="202.3" stroke="rgb(0,0,0)"  stroke-width="2.0"/>
<line x1="324.1" y1="178.9" x2="309.0" y2="199.6" stroke="rgb(0,0,0)"  stroke-width="2.0"/>
<line x1="324.1" y1="178.9" x2="347.6" y2="168.4" stroke="rgb(0,0,0)"  stroke-width="2.0"/>
<line x1="231.4" y1="66.0" x2="219.0" y2="63.4" stroke="rgb(0,0,0)"  stroke-width="2.0"/>
<line x1="252.8" y1="59.1" x2="261.3" y2="49.7" stroke="rgb(0,0,0)"  stroke-width="2.0"/>
<line x1="292.8" y1="117.5" x2="292.8" y2="156.1" stroke="rgb(0,0,0)"  stroke-width="2.0"/>
<line x1="292.8" y1="156.1" x2="268.2" y2="164.1" stroke="rgb(0,0,0)"  stroke-width="2.0"/>
<line x1="284.9" y1="151.1" x2="268.0" y2="156.6" stroke="rgb(0,0,0)"  stroke-width="2.0"/>
<line x1="248.4" y1="157.6" x2="241.0" y2="147.3" stroke="rgb(0,0,0)"  stroke-width="2.0"/>
<line x1="241.0" y1="126.3" x2="256.1" y2="105.5" stroke="rgb(0,0,0)"  stroke-width="2.0"/>
<line x1="256.1" y1="105.5" x2="292.8" y2="117.5" stroke="rgb(0,0,0)"  stroke-width="2.0"/>
<line x1="259.5" y1="114.2" x2="284.9" y2="122.5" stroke="rgb(0,0,0)"  stroke-width="2.0"/>
<line x1="78.7" y1="136.8" x2="98.0" y2="103.3" stroke="rgb(0,0,0)"  stroke-width="2.0"/>
<line x1="98.0" y1="103.3" x2="136.7" y2="103.3" stroke="rgb(0,0,0)"  stroke-width="2.0"/>
<line x1="104.0" y1="110.5" x2="130.7" y2="110.5" stroke="rgb(0,0,0)"  stroke-width="2.0"/>
<line x1="136.7" y1="103.3" x2="156.0" y2="136.8" stroke="rgb(0,0,0)"  stroke-width="2.0"/>
<line x1="156.0" y1="136.8" x2="136.7" y2="170.3" stroke="rgb(0,0,0)"  stroke-width="2.0"/>
<line x1="146.8" y1="138.4" x2="133.4" y2="161.5" stroke="rgb(0,0,0)"  stroke-width="2.0"/>
<line x1="136.7" y1="170.3" x2="98.0" y2="170.3" stroke="rgb(0,0,0)"  stroke-width="2.0"/>
<line x1="98.0" y1="170.3" x2="78.7" y2="136.8" stroke="rgb(0,0,0)"  stroke-width="2.0"/>
<line x1="101.2" y1="161.5" x2="87.9" y2="138.4" stroke="rgb(0,0,0)"  stroke-width="2.0"/>
<text x="183.486316" y="231.097074" fill="rgb(191,191,191)"  stroke="rgb(191,191,191)" stroke-width="1" font-size="16" >H</text>
<text x="238.112373" y="212.847285" fill="rgb(191,191,191)"  stroke="rgb(191,191,191)" stroke-width="1" font-size="16" >H</text>
<text x="263.985423" y="48.000000" fill="rgb(191,191,191)"  stroke="rgb(191,191,191)" stroke-width="1" font-size="16" >H</text>
<text x="200.290665" y="68.695681" fill="rgb(191,191,191)"  stroke="rgb(191,191,191)" stroke-width="1" font-size="16" >H</text>
<text x="353.440963" y="171.124989" fill="rgb(191,191,191)"  stroke="rgb(191,191,191)" stroke-width="1" font-size="16" >H</text>
<text x="295.389509" y="218.134129" fill="rgb(191,191,191)"  stroke="rgb(191,191,191)" stroke-width="1" font-size="16" >H</text>
<text x="333.844356" y="222.175896" fill="rgb(191,191,191)"  stroke="rgb(191,191,191)" stroke-width="1" font-size="16" >H</text>
<text x="318.117206" y="102.730079" fill="rgb(191,191,191)"  stroke="rgb(191,191,191)" stroke-width="1" font-size="16" >H</text>
<text x="150.000000" y="77.818478" fill="rgb(191,191,191)"  stroke="rgb(191,191,191)" stroke-width="1" font-size="16" >H</text>
<text x="72.666667" y="77.818478" fill="rgb(191,191,191)"  stroke="rgb(191,191,191)" stroke-width="1" font-size="16" >H</text>
<text x="34.000000" y="144.791109" fill="rgb(191,191,191)"  stroke="rgb(191,191,191)" stroke-width="1" font-size="16" >H</text>
<text x="72.666667" y="211.763740" fill="rgb(191,191,191)"  stroke="rgb(191,191,191)" stroke-width="1" font-size="16" >H</text>
<text x="130.666667" y="245.250056" fill="rgb(191,191,191)"  stroke="rgb(191,191,191)" stroke-width="1" font-size="16" >H</text>
<text x="183.486316" y="192.430407" fill="rgb(191,191,191)"  stroke="rgb(191,191,191)" stroke-width="1" font-size="16" >H</text>
<text x="238.112373" y="76.734933" fill="rgb(12,12,255)"  stroke="rgb(12,12,255)" stroke-width="1" font-size="16" >N</text>
<text x="250.061030" y="176.073099" fill="rgb(12,12,255)"  stroke="rgb(12,12,255)" stroke-width="1" font-size="16" >N</text>
<text x="227.333333" y="144.791109" fill="rgb(12,12,255)"  stroke="rgb(12,12,255)" stroke-width="1" font-size="16" >N</text>
</svg>
</g>
<text font-size="18.000000" fill ="black" font-family="sans-serif"
x="10.000000" y="20.000000" >ZINC00264403</text>
</svg>
