<?xml version="1.0"?>
<svg version="1.1" id="topsvg"
xmlns="http://www.w3.org/2000/svg" xmlns:xlink="http://www.w3.org/1999/xlink"
xmlns:cml="http://www.xml-cml.org/schema" x="0" y="0" width="200px" height="200px" viewBox="0 0 100 100">
<title>ZINC00314309 - Open Babel Depiction</title>
<rect x="0" y="0" width="100" height="100" fill="white"/>
<g transform="translate(0,0)">
<svg width="100" height="100" x="0" y="0" viewBox="0 0 308.357 352.433"
font-family="sans-serif" stroke="rgb(0,0,0)" stroke-width="2"  stroke-linecap="round">
<line x1="146.5" y1="68.7" x2="154.5" y2="106.5" stroke="rgb(0,0,0)"  stroke-width="2.0"/>
<line x1="146.5" y1="68.7" x2="129.3" y2="49.7" stroke="rgb(0,0,0)"  stroke-width="2.0"/>
<line x1="146.5" y1="68.7" x2="121.4" y2="74.0" stroke="rgb(0,0,0)"  stroke-width="2.0"/>
<line x1="146.5" y1="68.7" x2="165.5" y2="51.6" stroke="rgb(0,0,0)"  stroke-width="2.0"/>
<line x1="154.5" y1="106.5" x2="171.6" y2="125.5" stroke="rgb(0,0,0)"  stroke-width="2.0"/>
<line x1="154.5" y1="106.5" x2="179.5" y2="101.2" stroke="rgb(0,0,0)"  stroke-width="2.0"/>
<line x1="154.5" y1="106.5" x2="106.7" y2="149.5" stroke="rgb(0,0,0)"  stroke-width="2.0"/>
<line x1="101.1" y1="196.6" x2="134.6" y2="215.9" stroke="rgb(0,0,0)"  stroke-width="2.0"/>
<line x1="59.3" y1="150.1" x2="48.9" y2="126.7" stroke="rgb(0,0,0)"  stroke-width="2.0"/>
<line x1="168.0" y1="196.6" x2="168.0" y2="171.0" stroke="rgb(0,0,0)"  stroke-width="2.0"/>
<line x1="201.5" y1="215.9" x2="223.7" y2="203.1" stroke="rgb(0,0,0)"  stroke-width="2.0"/>
<line x1="201.5" y1="254.5" x2="234.9" y2="273.8" stroke="rgb(0,0,0)"  stroke-width="2.0"/>
<line x1="168.0" y1="273.8" x2="168.0" y2="299.4" stroke="rgb(0,0,0)"  stroke-width="2.0"/>
<line x1="134.6" y1="254.5" x2="112.4" y2="267.3" stroke="rgb(0,0,0)"  stroke-width="2.0"/>
<line x1="234.9" y1="273.8" x2="247.7" y2="296.0" stroke="rgb(0,0,0)"  stroke-width="2.0"/>
<line x1="234.9" y1="273.8" x2="222.1" y2="296.0" stroke="rgb(0,0,0)"  stroke-width="2.0"/>
<line x1="234.9" y1="273.8" x2="257.1" y2="261.0" stroke="rgb(0,0,0)"  stroke-width="2.0"/>
<line x1="57.1" y1="202.6" x2="48.7" y2="193.2" stroke="rgb(0,0,0)"  stroke-width="2.0"/>
<line x1="46.4" y1="172.5" x2="59.3" y2="150.1" stroke="rgb(0,0,0)"  stroke-width="2.0"/>
<line x1="53.7" y1="174.3" x2="62.5" y2="158.9" stroke="rgb(0,0,0)"  stroke-width="2.0"/>
<line x1="59.3" y1="150.1" x2="84.4" y2="155.5" stroke="rgb(0,0,0)"  stroke-width="2.0"/>
<line x1="98.4" y1="171.1" x2="101.1" y2="196.6" stroke="rgb(0,0,0)"  stroke-width="2.0"/>
<line x1="101.1" y1="196.6" x2="77.5" y2="207.1" stroke="rgb(0,0,0)"  stroke-width="2.0"/>
<line x1="92.7" y1="192.4" x2="76.5" y2="199.6" stroke="rgb(0,0,0)"  stroke-width="2.0"/>
<line x1="201.5" y1="215.9" x2="201.5" y2="254.5" stroke="rgb(0,0,0)"  stroke-width="2.0"/>
<line x1="201.5" y1="254.5" x2="168.0" y2="273.8" stroke="rgb(0,0,0)"  stroke-width="2.0"/>
<line x1="192.7" y1="251.3" x2="169.6" y2="264.6" stroke="rgb(0,0,0)"  stroke-width="2.0"/>
<line x1="168.0" y1="273.8" x2="134.6" y2="254.5" stroke="rgb(0,0,0)"  stroke-width="2.0"/>
<line x1="134.6" y1="254.5" x2="134.6" y2="215.9" stroke="rgb(0,0,0)"  stroke-width="2.0"/>
<line x1="141.8" y1="248.5" x2="141.8" y2="221.9" stroke="rgb(0,0,0)"  stroke-width="2.0"/>
<line x1="134.6" y1="215.9" x2="168.0" y2="196.6" stroke="rgb(0,0,0)"  stroke-width="2.0"/>
<line x1="168.0" y1="196.6" x2="201.5" y2="215.9" stroke="rgb(0,0,0)"  stroke-width="2.0"/>
<line x1="169.6" y1="205.8" x2="192.7" y2="219.1" stroke="rgb(0,0,0)"  stroke-width="2.0"/>
<text x="262.356533" y="262.502228" fill="rgb(191,191,191)"  stroke="rgb(191,191,191)" stroke-width="1" font-size="16" >H</text>
<text x="209.599690" y="315.259071" fill="rgb(191,191,191)"  stroke="rgb(191,191,191)" stroke-width="1" font-size="16" >H</text>
<text x="248.220379" y="315.259071" fill="rgb(191,191,191)"  stroke="rgb(191,191,191)" stroke-width="1" font-size="16" >H</text>
<text x="95.124041" y="281.812572" fill="rgb(191,191,191)"  stroke="rgb(191,191,191)" stroke-width="1" font-size="16" >H</text>
<text x="162.017038" y="320.433262" fill="rgb(191,191,191)"  stroke="rgb(191,191,191)" stroke-width="1" font-size="16" >H</text>
<text x="228.910035" y="204.571193" fill="rgb(191,191,191)"  stroke="rgb(191,191,191)" stroke-width="1" font-size="16" >H</text>
<text x="162.017038" y="165.950503" fill="rgb(191,191,191)"  stroke="rgb(191,191,191)" stroke-width="1" font-size="16" >H</text>
<text x="186.265346" y="106.447808" fill="rgb(191,191,191)"  stroke="rgb(191,191,191)" stroke-width="1" font-size="16" >H</text>
<text x="174.330897" y="143.178266" fill="rgb(191,191,191)"  stroke="rgb(191,191,191)" stroke-width="1" font-size="16" >H</text>
<text x="169.159684" y="50.858480" fill="rgb(191,191,191)"  stroke="rgb(191,191,191)" stroke-width="1" font-size="16" >H</text>
<text x="102.682183" y="84.730459" fill="rgb(191,191,191)"  stroke="rgb(191,191,191)" stroke-width="1" font-size="16" >H</text>
<text x="114.616633" y="48.000000" fill="rgb(191,191,191)"  stroke="rgb(191,191,191)" stroke-width="1" font-size="16" >H</text>
<text x="25.601895" y="122.850623" fill="rgb(178,178,0)"  stroke="rgb(178,178,0)" stroke-width="1" font-size="16" >HS</text>
<text x="34.000000" y="191.578877" fill="rgb(12,12,255)"  stroke="rgb(12,12,255)" stroke-width="1" font-size="16" >N</text>
<text x="59.842285" y="220.279643" fill="rgb(12,12,255)"  stroke="rgb(12,12,255)" stroke-width="1" font-size="16" >N</text>
<text x="91.087080" y="166.162072" fill="rgb(12,12,255)"  stroke="rgb(12,12,255)" stroke-width="1" font-size="16" >N</text>
</svg>
</g>
<text font-size="18.000000" fill ="black" font-family="sans-serif"
x="10.000000" y="20.000000" >ZINC00314309</text>
</svg>
