<?xml version="1.0"?>
<svg version="1.1" id="topsvg"
xmlns="http://www.w3.org/2000/svg" xmlns:xlink="http://www.w3.org/1999/xlink"
xmlns:cml="http://www.xml-cml.org/schema" x="0" y="0" width="200px" height="200px" viewBox="0 0 100 100">
<title>ZINC22942356 - Open Babel Depiction</title>
<rect x="0" y="0" width="100" height="100" fill="white"/>
<g transform="translate(0,0)">
<svg width="100" height="100" x="0" y="0" viewBox="0 0 452.978 467.259"
font-family="sans-serif" stroke="rgb(0,0,0)" stroke-width="2"  stroke-linecap="round">
<line x1="294.2" y1="266.3" x2="324.5" y2="310.8" stroke="rgb(0,0,0)"  stroke-width="2.0"/>
<line x1="294.2" y1="266.3" x2="314.5" y2="264.8" stroke="rgb(0,0,0)"  stroke-width="2.0"/>
<line x1="273.3" y1="292.4" x2="281.3" y2="345.7" stroke="rgb(0,0,0)"  stroke-width="2.0"/>
<line x1="273.3" y1="292.4" x2="292.3" y2="299.9" stroke="rgb(0,0,0)"  stroke-width="2.0"/>
<line x1="239.4" y1="319.4" x2="223.5" y2="370.8" stroke="rgb(0,0,0)"  stroke-width="2.0"/>
<polygon points="250.703931 315.023091 261.365883 320.633083 255.501468 326.074465 " stroke-width="2.000000" fill="rgb(0,0,0)"  stroke="rgb(0,0,0)" />
<line x1="209.8" y1="306.9" x2="173.2" y2="346.4" stroke="rgb(0,0,0)"  stroke-width="2.0"/>
<line x1="209.8" y1="306.9" x2="215.8" y2="326.5" stroke="rgb(0,0,0)"  stroke-width="2.0"/>
<line x1="179.7" y1="292.4" x2="129.5" y2="312.1" stroke="rgb(0,0,0)"  stroke-width="2.0"/>
<line x1="179.7" y1="292.4" x2="176.6" y2="312.6" stroke="rgb(0,0,0)"  stroke-width="2.0"/>
<line x1="145.9" y1="265.3" x2="92.2" y2="261.3" stroke="rgb(0,0,0)"  stroke-width="2.0"/>
<polygon points="152.608869 275.416091 149.512039 287.059065 142.902129 282.552505 " stroke-width="2.000000" fill="rgb(0,0,0)"  stroke="rgb(0,0,0)" />
<line x1="151.4" y1="233.7" x2="104.7" y2="206.8" stroke="rgb(0,0,0)"  stroke-width="2.0"/>
<line x1="151.4" y1="233.7" x2="133.7" y2="243.9" stroke="rgb(0,0,0)"  stroke-width="2.0"/>
<line x1="158.8" y1="201.1" x2="128.5" y2="156.6" stroke="rgb(0,0,0)"  stroke-width="2.0"/>
<line x1="158.8" y1="201.1" x2="138.5" y2="202.7" stroke="rgb(0,0,0)"  stroke-width="2.0"/>
<line x1="179.7" y1="175.0" x2="176.6" y2="154.8" stroke="rgb(0,0,0)"  stroke-width="2.0"/>
<line x1="179.7" y1="175.0" x2="160.6" y2="167.5" stroke="rgb(0,0,0)"  stroke-width="2.0"/>
<line x1="206.9" y1="147.8" x2="194.9" y2="95.3" stroke="rgb(0,0,0)"  stroke-width="2.0"/>
<line x1="243.2" y1="160.5" x2="279.8" y2="121.0" stroke="rgb(0,0,0)"  stroke-width="2.0"/>
<line x1="243.2" y1="160.5" x2="237.2" y2="141.0" stroke="rgb(0,0,0)"  stroke-width="2.0"/>
<line x1="273.3" y1="175.0" x2="323.4" y2="155.3" stroke="rgb(0,0,0)"  stroke-width="2.0"/>
<line x1="273.3" y1="175.0" x2="276.4" y2="154.8" stroke="rgb(0,0,0)"  stroke-width="2.0"/>
<line x1="307.1" y1="202.1" x2="360.8" y2="206.1" stroke="rgb(0,0,0)"  stroke-width="2.0"/>
<polygon points="300.369539 192.015774 303.466369 180.372799 310.076279 184.879360 " stroke-width="2.000000" fill="rgb(0,0,0)"  stroke="rgb(0,0,0)" />
<line x1="301.6" y1="233.7" x2="294.5" y2="252.9" stroke="rgb(0,0,0)"  stroke-width="2.0"/>
<line x1="301.6" y1="233.7" x2="316.0" y2="219.3" stroke="rgb(0,0,0)"  stroke-width="2.0"/>
<line x1="360.8" y1="206.1" x2="379.6" y2="178.5" stroke="rgb(0,0,0)"  stroke-width="2.0"/>
<line x1="360.8" y1="206.1" x2="377.7" y2="217.6" stroke="rgb(0,0,0)"  stroke-width="2.0"/>
<line x1="360.8" y1="206.1" x2="359.3" y2="226.5" stroke="rgb(0,0,0)"  stroke-width="2.0"/>
<line x1="376.9" y1="179.8" x2="368.1" y2="161.4" stroke="rgb(0,0,0)"  stroke-width="2.0"/>
<line x1="382.4" y1="177.2" x2="373.5" y2="158.8" stroke="rgb(0,0,0)"  stroke-width="2.0"/>
<line x1="379.6" y1="178.5" x2="400.0" y2="180.0" stroke="rgb(0,0,0)"  stroke-width="2.0"/>
<line x1="194.9" y1="95.3" x2="219.4" y2="72.6" stroke="rgb(0,0,0)"  stroke-width="2.0"/>
<line x1="194.9" y1="95.3" x2="181.0" y2="80.3" stroke="rgb(0,0,0)"  stroke-width="2.0"/>
<line x1="194.9" y1="95.3" x2="175.0" y2="99.9" stroke="rgb(0,0,0)"  stroke-width="2.0"/>
<line x1="220.3" y1="69.7" x2="239.8" y2="75.7" stroke="rgb(0,0,0)"  stroke-width="2.0"/>
<line x1="218.5" y1="75.5" x2="238.0" y2="81.5" stroke="rgb(0,0,0)"  stroke-width="2.0"/>
<line x1="219.4" y1="72.6" x2="214.9" y2="52.7" stroke="rgb(0,0,0)"  stroke-width="2.0"/>
<line x1="92.2" y1="261.3" x2="73.3" y2="288.9" stroke="rgb(0,0,0)"  stroke-width="2.0"/>
<line x1="92.2" y1="261.3" x2="75.3" y2="249.8" stroke="rgb(0,0,0)"  stroke-width="2.0"/>
<line x1="92.2" y1="261.3" x2="93.7" y2="240.9" stroke="rgb(0,0,0)"  stroke-width="2.0"/>
<line x1="76.0" y1="287.6" x2="84.9" y2="306.0" stroke="rgb(0,0,0)"  stroke-width="2.0"/>
<line x1="70.6" y1="290.2" x2="79.5" y2="308.6" stroke="rgb(0,0,0)"  stroke-width="2.0"/>
<line x1="73.3" y1="288.9" x2="53.0" y2="287.4" stroke="rgb(0,0,0)"  stroke-width="2.0"/>
<line x1="223.5" y1="370.8" x2="246.2" y2="395.3" stroke="rgb(0,0,0)"  stroke-width="2.0"/>
<line x1="223.5" y1="370.8" x2="208.5" y2="384.7" stroke="rgb(0,0,0)"  stroke-width="2.0"/>
<line x1="223.5" y1="370.8" x2="204.0" y2="364.8" stroke="rgb(0,0,0)"  stroke-width="2.0"/>
<line x1="245.6" y1="392.4" x2="265.5" y2="387.8" stroke="rgb(0,0,0)"  stroke-width="2.0"/>
<line x1="246.9" y1="398.2" x2="266.8" y2="393.7" stroke="rgb(0,0,0)"  stroke-width="2.0"/>
<line x1="246.2" y1="395.3" x2="240.2" y2="414.8" stroke="rgb(0,0,0)"  stroke-width="2.0"/>
<line x1="230.2" y1="306.9" x2="209.8" y2="306.9" stroke="rgb(0,0,0)"  stroke-width="2.0"/>
<line x1="209.8" y1="306.9" x2="179.7" y2="292.4" stroke="rgb(0,0,0)"  stroke-width="2.0"/>
<line x1="179.7" y1="292.4" x2="166.9" y2="276.5" stroke="rgb(0,0,0)"  stroke-width="2.0"/>
<line x1="155.9" y1="253.6" x2="151.4" y2="233.7" stroke="rgb(0,0,0)"  stroke-width="2.0"/>
<line x1="151.4" y1="233.7" x2="158.8" y2="201.1" stroke="rgb(0,0,0)"  stroke-width="2.0"/>
<line x1="158.8" y1="201.1" x2="179.7" y2="175.0" stroke="rgb(0,0,0)"  stroke-width="2.0"/>
<line x1="179.7" y1="175.0" x2="198.1" y2="166.1" stroke="rgb(0,0,0)"  stroke-width="2.0"/>
<line x1="222.8" y1="160.5" x2="243.2" y2="160.5" stroke="rgb(0,0,0)"  stroke-width="2.0"/>
<line x1="243.2" y1="160.5" x2="273.3" y2="175.0" stroke="rgb(0,0,0)"  stroke-width="2.0"/>
<line x1="273.3" y1="175.0" x2="286.1" y2="191.0" stroke="rgb(0,0,0)"  stroke-width="2.0"/>
<line x1="297.0" y1="213.8" x2="301.6" y2="233.7" stroke="rgb(0,0,0)"  stroke-width="2.0"/>
<line x1="301.6" y1="233.7" x2="294.2" y2="266.3" stroke="rgb(0,0,0)"  stroke-width="2.0"/>
<line x1="294.2" y1="266.3" x2="273.3" y2="292.4" stroke="rgb(0,0,0)"  stroke-width="2.0"/>
<line x1="273.3" y1="292.4" x2="254.9" y2="301.3" stroke="rgb(0,0,0)"  stroke-width="2.0"/>
<text x="329.544381" y="158.574054" fill="rgb(191,191,191)"  stroke="rgb(191,191,191)" stroke-width="1" font-size="16" >H</text>
<text x="321.487237" y="271.804736" fill="rgb(191,191,191)"  stroke="rgb(191,191,191)" stroke-width="1" font-size="16" >H</text>
<text x="277.279482" y="366.537677" fill="rgb(191,191,191)"  stroke="rgb(191,191,191)" stroke-width="1" font-size="16" >H</text>
<text x="298.430245" y="312.646412" fill="rgb(191,191,191)"  stroke="rgb(191,191,191)" stroke-width="1" font-size="16" >H</text>
<text x="158.307794" y="363.941444" fill="rgb(191,191,191)"  stroke="rgb(191,191,191)" stroke-width="1" font-size="16" >H</text>
<text x="213.628966" y="346.877122" fill="rgb(191,191,191)"  stroke="rgb(191,191,191)" stroke-width="1" font-size="16" >H</text>
<text x="111.434027" y="324.857810" fill="rgb(191,191,191)"  stroke="rgb(191,191,191)" stroke-width="1" font-size="16" >H</text>
<text x="168.680613" y="333.486345" fill="rgb(191,191,191)"  stroke="rgb(191,191,191)" stroke-width="1" font-size="16" >H</text>
<text x="87.491475" y="208.291275" fill="rgb(191,191,191)"  stroke="rgb(191,191,191)" stroke-width="1" font-size="16" >H</text>
<text x="116.438078" y="258.428261" fill="rgb(191,191,191)"  stroke="rgb(191,191,191)" stroke-width="1" font-size="16" >H</text>
<text x="115.164806" y="153.895804" fill="rgb(191,191,191)"  stroke="rgb(191,191,191)" stroke-width="1" font-size="16" >H</text>
<text x="119.491171" y="211.627128" fill="rgb(191,191,191)"  stroke="rgb(191,191,191)" stroke-width="1" font-size="16" >H</text>
<text x="168.680613" y="149.945519" fill="rgb(191,191,191)"  stroke="rgb(191,191,191)" stroke-width="1" font-size="16" >H</text>
<text x="142.548163" y="170.785452" fill="rgb(191,191,191)"  stroke="rgb(191,191,191)" stroke-width="1" font-size="16" >H</text>
<text x="282.670614" y="119.490420" fill="rgb(191,191,191)"  stroke="rgb(191,191,191)" stroke-width="1" font-size="16" >H</text>
<text x="227.349442" y="136.554742" fill="rgb(191,191,191)"  stroke="rgb(191,191,191)" stroke-width="1" font-size="16" >H</text>
<text x="325.813602" y="329.536060" fill="rgb(191,191,191)"  stroke="rgb(191,191,191)" stroke-width="1" font-size="16" >H</text>
<text x="272.297795" y="149.945519" fill="rgb(191,191,191)"  stroke="rgb(191,191,191)" stroke-width="1" font-size="16" >H</text>
<text x="283.978102" y="273.057358" fill="rgb(191,191,191)"  stroke="rgb(191,191,191)" stroke-width="1" font-size="16" >H</text>
<text x="319.228530" y="218.081130" fill="rgb(191,191,191)"  stroke="rgb(191,191,191)" stroke-width="1" font-size="16" >H</text>
<text x="382.435181" y="232.953736" fill="rgb(191,191,191)"  stroke="rgb(191,191,191)" stroke-width="1" font-size="16" >H</text>
<text x="352.320605" y="247.456152" fill="rgb(191,191,191)"  stroke="rgb(191,191,191)" stroke-width="1" font-size="16" >H</text>
<text x="166.166962" y="78.819165" fill="rgb(191,191,191)"  stroke="rgb(191,191,191)" stroke-width="1" font-size="16" >H</text>
<text x="156.314872" y="110.758858" fill="rgb(191,191,191)"  stroke="rgb(191,191,191)" stroke-width="1" font-size="16" >H</text>
<text x="58.543227" y="250.478128" fill="rgb(191,191,191)"  stroke="rgb(191,191,191)" stroke-width="1" font-size="16" >H</text>
<text x="88.657803" y="235.975713" fill="rgb(191,191,191)"  stroke="rgb(191,191,191)" stroke-width="1" font-size="16" >H</text>
<text x="192.995343" y="401.551357" fill="rgb(191,191,191)"  stroke="rgb(191,191,191)" stroke-width="1" font-size="16" >H</text>
<text x="185.557657" y="368.964725" fill="rgb(191,191,191)"  stroke="rgb(191,191,191)" stroke-width="1" font-size="16" >H</text>
<text x="306.984822" y="181.512552" fill="rgb(191,191,191)"  stroke="rgb(191,191,191)" stroke-width="1" font-size="16" >H</text>
<text x="133.993586" y="301.919312" fill="rgb(191,191,191)"  stroke="rgb(191,191,191)" stroke-width="1" font-size="16" >H</text>
<text x="259.936074" y="339.439436" fill="rgb(191,191,191)"  stroke="rgb(191,191,191)" stroke-width="1" font-size="16" >H</text>
<text x="248.001533" y="302.905429" fill="rgb(12,12,255)"  stroke="rgb(12,12,255)" stroke-width="1" font-size="16" >+</text>
<text x="237.201533" y="314.937429" fill="rgb(12,12,255)"  stroke="rgb(12,12,255)" stroke-width="1" font-size="16" >N</text>
<text x="163.622366" y="262.270564" fill="rgb(12,12,255)"  stroke="rgb(12,12,255)" stroke-width="1" font-size="16" >+</text>
<text x="152.822366" y="274.302564" fill="rgb(12,12,255)"  stroke="rgb(12,12,255)" stroke-width="1" font-size="16" >N</text>
<text x="203.776875" y="168.494436" fill="rgb(12,12,255)"  stroke="rgb(12,12,255)" stroke-width="1" font-size="16" >N</text>
<text x="298.956042" y="197.097301" fill="rgb(12,12,255)"  stroke="rgb(12,12,255)" stroke-width="1" font-size="16" >+</text>
<text x="288.156042" y="209.129301" fill="rgb(12,12,255)"  stroke="rgb(12,12,255)" stroke-width="1" font-size="16" >N</text>
<text x="359.144797" y="156.393632" fill="rgb(255,12,12)"  stroke="rgb(255,12,12)" stroke-width="1" font-size="16" >O</text>
<text x="406.978408" y="189.006036" fill="rgb(255,12,12)"  stroke="rgb(255,12,12)" stroke-width="1" font-size="16" >OH</text>
<text x="245.343205" y="90.438722" fill="rgb(255,12,12)"  stroke="rgb(255,12,12)" stroke-width="1" font-size="16" >O</text>
<text x="193.965825" y="48.000000" fill="rgb(255,12,12)"  stroke="rgb(255,12,12)" stroke-width="1" font-size="16" >HO</text>
<text x="81.833611" y="327.038232" fill="rgb(255,12,12)"  stroke="rgb(255,12,12)" stroke-width="1" font-size="16" >O</text>
<text x="22.000000" y="294.425828" fill="rgb(255,12,12)"  stroke="rgb(255,12,12)" stroke-width="1" font-size="16" >HO</text>
<text x="272.818524" y="395.881138" fill="rgb(255,12,12)"  stroke="rgb(255,12,12)" stroke-width="1" font-size="16" >O</text>
<text x="218.379801" y="435.258518" fill="rgb(255,12,12)"  stroke="rgb(255,12,12)" stroke-width="1" font-size="16" >HO</text>
</svg>
</g>
<text font-size="18.000000" fill ="black" font-family="sans-serif"
x="10.000000" y="20.000000" >ZINC22942356</text>
</svg>
