<?xml version="1.0"?>
<svg version="1.1" id="topsvg"
xmlns="http://www.w3.org/2000/svg" xmlns:xlink="http://www.w3.org/1999/xlink"
xmlns:cml="http://www.xml-cml.org/schema" x="0" y="0" width="200px" height="200px" viewBox="0 0 100 100">
<title>ZINC03883286 - Open Babel Depiction</title>
<rect x="0" y="0" width="100" height="100" fill="white"/>
<g transform="translate(0,0)">
<svg width="100" height="100" x="0" y="0" viewBox="0 0 364.117 282.669"
font-family="sans-serif" stroke="rgb(0,0,0)" stroke-width="2"  stroke-linecap="round">
<line x1="244.1" y1="204.8" x2="256.1" y2="168.1" stroke="rgb(0,0,0)"  stroke-width="2.0"/>
<line x1="244.1" y1="204.8" x2="249.4" y2="230.0" stroke="rgb(0,0,0)"  stroke-width="2.0"/>
<line x1="244.1" y1="204.8" x2="268.5" y2="212.8" stroke="rgb(0,0,0)"  stroke-width="2.0"/>
<line x1="244.1" y1="204.8" x2="219.0" y2="210.2" stroke="rgb(0,0,0)"  stroke-width="2.0"/>
<line x1="233.3" y1="136.8" x2="156.0" y2="136.8" stroke="rgb(0,0,0)"  stroke-width="2.0"/>
<line x1="256.1" y1="105.5" x2="248.1" y2="81.1" stroke="rgb(0,0,0)"  stroke-width="2.0"/>
<line x1="303.4" y1="109.8" x2="313.6" y2="102.4" stroke="rgb(0,0,0)"  stroke-width="2.0"/>
<line x1="303.4" y1="163.8" x2="313.6" y2="171.2" stroke="rgb(0,0,0)"  stroke-width="2.0"/>
<line x1="252.8" y1="59.1" x2="261.3" y2="49.7" stroke="rgb(0,0,0)"  stroke-width="2.0"/>
<line x1="231.4" y1="66.0" x2="219.0" y2="63.4" stroke="rgb(0,0,0)"  stroke-width="2.0"/>
<line x1="136.7" y1="103.3" x2="149.5" y2="81.1" stroke="rgb(0,0,0)"  stroke-width="2.0"/>
<line x1="98.0" y1="103.3" x2="85.2" y2="81.1" stroke="rgb(0,0,0)"  stroke-width="2.0"/>
<line x1="78.7" y1="136.8" x2="53.0" y2="136.8" stroke="rgb(0,0,0)"  stroke-width="2.0"/>
<line x1="98.0" y1="170.3" x2="78.7" y2="203.8" stroke="rgb(0,0,0)"  stroke-width="2.0"/>
<line x1="136.7" y1="170.3" x2="149.5" y2="192.5" stroke="rgb(0,0,0)"  stroke-width="2.0"/>
<line x1="78.7" y1="203.8" x2="78.7" y2="229.4" stroke="rgb(0,0,0)"  stroke-width="2.0"/>
<line x1="78.7" y1="203.8" x2="100.9" y2="216.6" stroke="rgb(0,0,0)"  stroke-width="2.0"/>
<line x1="78.7" y1="203.8" x2="53.0" y2="203.8" stroke="rgb(0,0,0)"  stroke-width="2.0"/>
<line x1="233.3" y1="136.8" x2="256.1" y2="168.1" stroke="rgb(0,0,0)"  stroke-width="2.0"/>
<line x1="256.1" y1="168.1" x2="280.7" y2="160.1" stroke="rgb(0,0,0)"  stroke-width="2.0"/>
<line x1="259.5" y1="159.4" x2="276.4" y2="153.9" stroke="rgb(0,0,0)"  stroke-width="2.0"/>
<line x1="292.8" y1="143.1" x2="292.8" y2="130.5" stroke="rgb(0,0,0)"  stroke-width="2.0"/>
<line x1="280.5" y1="113.4" x2="256.1" y2="105.5" stroke="rgb(0,0,0)"  stroke-width="2.0"/>
<line x1="256.1" y1="105.5" x2="233.3" y2="136.8" stroke="rgb(0,0,0)"  stroke-width="2.0"/>
<line x1="258.4" y1="114.6" x2="242.7" y2="136.2" stroke="rgb(0,0,0)"  stroke-width="2.0"/>
<line x1="98.0" y1="103.3" x2="78.7" y2="136.8" stroke="rgb(0,0,0)"  stroke-width="2.0"/>
<line x1="78.7" y1="136.8" x2="98.0" y2="170.3" stroke="rgb(0,0,0)"  stroke-width="2.0"/>
<line x1="87.9" y1="138.4" x2="101.2" y2="161.5" stroke="rgb(0,0,0)"  stroke-width="2.0"/>
<line x1="98.0" y1="170.3" x2="136.7" y2="170.3" stroke="rgb(0,0,0)"  stroke-width="2.0"/>
<line x1="136.7" y1="170.3" x2="156.0" y2="136.8" stroke="rgb(0,0,0)"  stroke-width="2.0"/>
<line x1="133.4" y1="161.5" x2="146.8" y2="138.4" stroke="rgb(0,0,0)"  stroke-width="2.0"/>
<line x1="156.0" y1="136.8" x2="136.7" y2="103.3" stroke="rgb(0,0,0)"  stroke-width="2.0"/>
<line x1="136.7" y1="103.3" x2="98.0" y2="103.3" stroke="rgb(0,0,0)"  stroke-width="2.0"/>
<line x1="130.7" y1="110.5" x2="104.0" y2="110.5" stroke="rgb(0,0,0)"  stroke-width="2.0"/>
<text x="318.117206" y="186.852139" fill="rgb(191,191,191)"  stroke="rgb(191,191,191)" stroke-width="1" font-size="16" >H</text>
<text x="150.000000" y="211.763740" fill="rgb(191,191,191)"  stroke="rgb(191,191,191)" stroke-width="1" font-size="16" >H</text>
<text x="34.000000" y="144.791109" fill="rgb(191,191,191)"  stroke="rgb(191,191,191)" stroke-width="1" font-size="16" >H</text>
<text x="72.666667" y="77.818478" fill="rgb(191,191,191)"  stroke="rgb(191,191,191)" stroke-width="1" font-size="16" >H</text>
<text x="150.000000" y="77.818478" fill="rgb(191,191,191)"  stroke="rgb(191,191,191)" stroke-width="1" font-size="16" >H</text>
<text x="200.290665" y="68.695681" fill="rgb(191,191,191)"  stroke="rgb(191,191,191)" stroke-width="1" font-size="16" >H</text>
<text x="263.985423" y="48.000000" fill="rgb(191,191,191)"  stroke="rgb(191,191,191)" stroke-width="1" font-size="16" >H</text>
<text x="200.290665" y="220.886537" fill="rgb(191,191,191)"  stroke="rgb(191,191,191)" stroke-width="1" font-size="16" >H</text>
<text x="274.886558" y="224.795942" fill="rgb(191,191,191)"  stroke="rgb(191,191,191)" stroke-width="1" font-size="16" >H</text>
<text x="246.151625" y="250.668992" fill="rgb(191,191,191)"  stroke="rgb(191,191,191)" stroke-width="1" font-size="16" >H</text>
<text x="34.000000" y="211.763740" fill="rgb(127,178,255)"  stroke="rgb(127,178,255)" stroke-width="1" font-size="16" >F</text>
<text x="106.152982" y="231.097074" fill="rgb(127,178,255)"  stroke="rgb(127,178,255)" stroke-width="1" font-size="16" >F</text>
<text x="72.666667" y="250.430407" fill="rgb(127,178,255)"  stroke="rgb(127,178,255)" stroke-width="1" font-size="16" >F</text>
<text x="238.112373" y="76.734933" fill="rgb(12,12,255)"  stroke="rgb(12,12,255)" stroke-width="1" font-size="16" >N</text>
<text x="318.117206" y="102.730079" fill="rgb(191,191,191)"  stroke="rgb(191,191,191)" stroke-width="1" font-size="16" >H</text>
<text x="286.835215" y="164.124442" fill="rgb(12,12,255)"  stroke="rgb(12,12,255)" stroke-width="1" font-size="16" >N</text>
<text x="286.835215" y="125.457776" fill="rgb(12,12,255)"  stroke="rgb(12,12,255)" stroke-width="1" font-size="16" >N</text>
</svg>
</g>
<text font-size="18.000000" fill ="black" font-family="sans-serif"
x="10.000000" y="20.000000" >ZINC03883286</text>
</svg>
