<?xml version="1.0"?>
<svg version="1.1" id="topsvg"
xmlns="http://www.w3.org/2000/svg" xmlns:xlink="http://www.w3.org/1999/xlink"
xmlns:cml="http://www.xml-cml.org/schema" x="0" y="0" width="200px" height="200px" viewBox="0 0 100 100">
<title>ZINC06855063 - Open Babel Depiction</title>
<rect x="0" y="0" width="100" height="100" fill="white"/>
<g transform="translate(0,0)">
<svg width="100" height="100" x="0" y="0" viewBox="0 0 273.452 260.129"
font-family="sans-serif" stroke="rgb(0,0,0)" stroke-width="2"  stroke-linecap="round">
<line x1="198.8" y1="100.0" x2="222.2" y2="86.5" stroke="rgb(0,0,0)"  stroke-width="2.0"/>
<line x1="164.2" y1="80.0" x2="164.2" y2="53.0" stroke="rgb(0,0,0)"  stroke-width="2.0"/>
<line x1="91.5" y1="152.4" x2="83.1" y2="178.0" stroke="rgb(0,0,0)"  stroke-width="2.0"/>
<polygon points="129.528844 140.000000 144.083568 162.856072 136.775205 166.109965 " stroke-width="2.000000" fill="rgb(0,0,0)"  stroke="rgb(0,0,0)" />
<line x1="164.2" y1="160.0" x2="164.2" y2="187.0" stroke="rgb(0,0,0)"  stroke-width="2.0"/>
<line x1="198.8" y1="140.0" x2="222.2" y2="153.5" stroke="rgb(0,0,0)"  stroke-width="2.0"/>
<line x1="66.4" y1="193.1" x2="52.7" y2="196.0" stroke="rgb(0,0,0)"  stroke-width="2.0"/>
<line x1="87.8" y1="200.1" x2="97.2" y2="210.5" stroke="rgb(0,0,0)"  stroke-width="2.0"/>
<line x1="75.7" y1="130.7" x2="91.5" y2="152.4" stroke="rgb(0,0,0)"  stroke-width="2.0"/>
<line x1="82.7" y1="128.1" x2="93.8" y2="143.3" stroke="rgb(0,0,0)"  stroke-width="2.0"/>
<line x1="91.5" y1="152.4" x2="129.5" y2="140.0" stroke="rgb(0,0,0)"  stroke-width="2.0"/>
<line x1="129.5" y1="140.0" x2="129.5" y2="100.0" stroke="rgb(0,0,0)"  stroke-width="2.0"/>
<line x1="129.5" y1="100.0" x2="104.0" y2="91.7" stroke="rgb(0,0,0)"  stroke-width="2.0"/>
<line x1="121.6" y1="105.0" x2="103.7" y2="99.2" stroke="rgb(0,0,0)"  stroke-width="2.0"/>
<line x1="83.8" y1="98.2" x2="75.6" y2="109.5" stroke="rgb(0,0,0)"  stroke-width="2.0"/>
<line x1="129.5" y1="140.0" x2="164.2" y2="160.0" stroke="rgb(0,0,0)"  stroke-width="2.0"/>
<line x1="164.2" y1="160.0" x2="198.8" y2="140.0" stroke="rgb(0,0,0)"  stroke-width="2.0"/>
<line x1="165.8" y1="150.8" x2="190.0" y2="136.8" stroke="rgb(0,0,0)"  stroke-width="2.0"/>
<line x1="198.8" y1="140.0" x2="198.8" y2="100.0" stroke="rgb(0,0,0)"  stroke-width="2.0"/>
<line x1="198.8" y1="100.0" x2="164.2" y2="80.0" stroke="rgb(0,0,0)"  stroke-width="2.0"/>
<line x1="190.0" y1="103.2" x2="165.8" y2="89.2" stroke="rgb(0,0,0)"  stroke-width="2.0"/>
<line x1="164.2" y1="80.0" x2="129.5" y2="100.0" stroke="rgb(0,0,0)"  stroke-width="2.0"/>
<text x="99.891128" y="228.128733" fill="rgb(191,191,191)"  stroke="rgb(191,191,191)" stroke-width="1" font-size="16" >H</text>
<text x="34.000000" y="206.719408" fill="rgb(191,191,191)"  stroke="rgb(191,191,191)" stroke-width="1" font-size="16" >H</text>
<text x="227.451893" y="168.000000" fill="rgb(191,191,191)"  stroke="rgb(191,191,191)" stroke-width="1" font-size="16" >H</text>
<text x="158.169861" y="48.000000" fill="rgb(191,191,191)"  stroke="rgb(191,191,191)" stroke-width="1" font-size="16" >H</text>
<text x="227.451893" y="88.000000" fill="rgb(191,191,191)"  stroke="rgb(191,191,191)" stroke-width="1" font-size="16" >H</text>
<text x="73.125904" y="198.402940" fill="rgb(12,12,255)"  stroke="rgb(12,12,255)" stroke-width="1" font-size="16" >N</text>
<text x="158.169861" y="208.000000" fill="rgb(127,178,255)"  stroke="rgb(127,178,255)" stroke-width="1" font-size="16" >F</text>
<text x="139.798310" y="184.541818" fill="rgb(191,191,191)"  stroke="rgb(191,191,191)" stroke-width="1" font-size="16" >H</text>
<text x="61.975174" y="128.000000" fill="rgb(12,12,255)"  stroke="rgb(12,12,255)" stroke-width="1" font-size="16" >N</text>
<text x="85.486584" y="95.639320" fill="rgb(12,12,255)"  stroke="rgb(12,12,255)" stroke-width="1" font-size="16" >N</text>
</svg>
</g>
<text font-size="18.000000" fill ="black" font-family="sans-serif"
x="10.000000" y="20.000000" >ZINC06855063</text>
</svg>
