<?xml version="1.0"?>
<svg version="1.1" id="topsvg"
xmlns="http://www.w3.org/2000/svg" xmlns:xlink="http://www.w3.org/1999/xlink"
xmlns:cml="http://www.xml-cml.org/schema" x="0" y="0" width="200px" height="200px" viewBox="0 0 100 100">
<title>ZINC12505185 - Open Babel Depiction</title>
<rect x="0" y="0" width="100" height="100" fill="white"/>
<g transform="translate(0,0)">
<svg width="100" height="100" x="0" y="0" viewBox="0 0 233.36 273.914"
font-family="sans-serif" stroke="rgb(0,0,0)" stroke-width="2"  stroke-linecap="round">
<line x1="153.4" y1="193.9" x2="118.7" y2="173.9" stroke="rgb(0,0,0)"  stroke-width="2.0"/>
<line x1="153.4" y1="193.9" x2="180.4" y2="193.9" stroke="rgb(0,0,0)"  stroke-width="2.0"/>
<line x1="153.4" y1="193.9" x2="166.9" y2="170.5" stroke="rgb(0,0,0)"  stroke-width="2.0"/>
<line x1="153.4" y1="193.9" x2="153.4" y2="220.9" stroke="rgb(0,0,0)"  stroke-width="2.0"/>
<line x1="118.7" y1="173.9" x2="118.7" y2="146.9" stroke="rgb(0,0,0)"  stroke-width="2.0"/>
<line x1="118.7" y1="173.9" x2="91.7" y2="173.9" stroke="rgb(0,0,0)"  stroke-width="2.0"/>
<line x1="118.7" y1="173.9" x2="105.2" y2="197.3" stroke="rgb(0,0,0)"  stroke-width="2.0"/>
<line x1="151.1" y1="110.4" x2="176.8" y2="118.7" stroke="rgb(0,0,0)"  stroke-width="2.0"/>
<line x1="138.7" y1="72.4" x2="154.6" y2="50.5" stroke="rgb(0,0,0)"  stroke-width="2.0"/>
<line x1="86.4" y1="110.4" x2="60.7" y2="118.7" stroke="rgb(0,0,0)"  stroke-width="2.0"/>
<line x1="45.6" y1="135.5" x2="42.7" y2="149.2" stroke="rgb(0,0,0)"  stroke-width="2.0"/>
<line x1="91.1" y1="61.8" x2="82.8" y2="50.5" stroke="rgb(0,0,0)"  stroke-width="2.0"/>
<line x1="138.7" y1="72.4" x2="111.7" y2="72.4" stroke="rgb(0,0,0)"  stroke-width="2.0"/>
<line x1="94.6" y1="84.9" x2="86.4" y2="110.4" stroke="rgb(0,0,0)"  stroke-width="2.0"/>
<line x1="100.9" y1="89.0" x2="95.1" y2="106.9" stroke="rgb(0,0,0)"  stroke-width="2.0"/>
<line x1="86.4" y1="110.4" x2="108.2" y2="126.3" stroke="rgb(0,0,0)"  stroke-width="2.0"/>
<line x1="129.2" y1="126.3" x2="151.1" y2="110.4" stroke="rgb(0,0,0)"  stroke-width="2.0"/>
<line x1="151.1" y1="110.4" x2="138.7" y2="72.4" stroke="rgb(0,0,0)"  stroke-width="2.0"/>
<line x1="142.4" y1="106.9" x2="133.7" y2="80.3" stroke="rgb(0,0,0)"  stroke-width="2.0"/>
<text x="167.360424" y="167.273334" fill="rgb(191,191,191)"  stroke="rgb(191,191,191)" stroke-width="1" font-size="16" >H</text>
<text x="69.207998" y="48.000000" fill="rgb(191,191,191)"  stroke="rgb(191,191,191)" stroke-width="1" font-size="16" >H</text>
<text x="92.719408" y="80.360680" fill="rgb(12,12,255)"  stroke="rgb(12,12,255)" stroke-width="1" font-size="16" >N</text>
<text x="34.000000" y="169.889524" fill="rgb(191,191,191)"  stroke="rgb(191,191,191)" stroke-width="1" font-size="16" >H</text>
<text x="156.230818" y="48.000000" fill="rgb(191,191,191)"  stroke="rgb(191,191,191)" stroke-width="1" font-size="16" >H</text>
<text x="183.122348" y="130.763620" fill="rgb(191,191,191)"  stroke="rgb(191,191,191)" stroke-width="1" font-size="16" >H</text>
<text x="92.719408" y="216.555367" fill="rgb(191,191,191)"  stroke="rgb(191,191,191)" stroke-width="1" font-size="16" >H</text>
<text x="72.719408" y="181.914351" fill="rgb(191,191,191)"  stroke="rgb(191,191,191)" stroke-width="1" font-size="16" >H</text>
<text x="147.360424" y="241.914351" fill="rgb(191,191,191)"  stroke="rgb(191,191,191)" stroke-width="1" font-size="16" >H</text>
<text x="187.360424" y="201.914351" fill="rgb(191,191,191)"  stroke="rgb(191,191,191)" stroke-width="1" font-size="16" >H</text>
<text x="42.316468" y="130.763620" fill="rgb(178,178,0)"  stroke="rgb(178,178,0)" stroke-width="1" font-size="16" >S</text>
<text x="112.719408" y="141.914351" fill="rgb(12,12,255)"  stroke="rgb(12,12,255)" stroke-width="1" font-size="16" >N</text>
</svg>
</g>
<text font-size="18.000000" fill ="black" font-family="sans-serif"
x="10.000000" y="20.000000" >ZINC12505185</text>
</svg>
