<?xml version="1.0"?>
<svg version="1.1" id="topsvg"
xmlns="http://www.w3.org/2000/svg" xmlns:xlink="http://www.w3.org/1999/xlink"
xmlns:cml="http://www.xml-cml.org/schema" x="0" y="0" width="200px" height="200px" viewBox="0 0 100 100">
<title>ZINC38531907 - Open Babel Depiction</title>
<rect x="0" y="0" width="100" height="100" fill="white"/>
<g transform="translate(0,0)">
<svg width="100" height="100" x="0" y="0" viewBox="0 0 279.849 242.519"
font-family="sans-serif" stroke="rgb(0,0,0)" stroke-width="2"  stroke-linecap="round">
<line x1="96.5" y1="162.7" x2="74.7" y2="178.6" stroke="rgb(0,0,0)"  stroke-width="2.0"/>
<line x1="96.5" y1="162.7" x2="99.4" y2="189.6" stroke="rgb(0,0,0)"  stroke-width="2.0"/>
<line x1="135.7" y1="154.4" x2="144.0" y2="180.1" stroke="rgb(0,0,0)"  stroke-width="2.0"/>
<line x1="135.7" y1="154.4" x2="162.1" y2="160.0" stroke="rgb(0,0,0)"  stroke-width="2.0"/>
<line x1="145.2" y1="113.8" x2="145.2" y2="115.4" stroke="rgb(0,0,0)"  stroke-width="1.0"/>
<line x1="149.5" y1="113.2" x2="149.5" y2="116.1" stroke="rgb(0,0,0)"  stroke-width="1.0"/>
<line x1="153.8" y1="112.6" x2="153.8" y2="116.7" stroke="rgb(0,0,0)"  stroke-width="1.0"/>
<line x1="158.1" y1="111.9" x2="158.1" y2="117.4" stroke="rgb(0,0,0)"  stroke-width="1.0"/>
<line x1="162.4" y1="111.3" x2="162.4" y2="118.0" stroke="rgb(0,0,0)"  stroke-width="1.0"/>
<line x1="166.6" y1="110.6" x2="166.6" y2="118.6" stroke="rgb(0,0,0)"  stroke-width="1.0"/>
<line x1="139.8" y1="114.6" x2="159.8" y2="80.0" stroke="rgb(0,0,0)"  stroke-width="2.0"/>
<line x1="100.6" y1="85.7" x2="97.7" y2="72.0" stroke="rgb(0,0,0)"  stroke-width="2.0"/>
<line x1="76.5" y1="128.1" x2="54.7" y2="112.2" stroke="rgb(0,0,0)"  stroke-width="2.0"/>
<line x1="76.5" y1="128.1" x2="51.9" y2="139.1" stroke="rgb(0,0,0)"  stroke-width="2.0"/>
<line x1="159.8" y1="80.0" x2="186.8" y2="80.0" stroke="rgb(0,0,0)"  stroke-width="2.0"/>
<line x1="159.8" y1="80.0" x2="159.8" y2="53.0" stroke="rgb(0,0,0)"  stroke-width="2.0"/>
<line x1="159.8" y1="80.0" x2="136.5" y2="66.5" stroke="rgb(0,0,0)"  stroke-width="2.0"/>
<line x1="199.8" y1="93.0" x2="199.8" y2="107.0" stroke="rgb(0,0,0)"  stroke-width="2.0"/>
<line x1="212.8" y1="80.0" x2="226.8" y2="80.0" stroke="rgb(0,0,0)"  stroke-width="2.0"/>
<line x1="199.8" y1="67.0" x2="199.8" y2="53.0" stroke="rgb(0,0,0)"  stroke-width="2.0"/>
<line x1="139.8" y1="114.6" x2="115.2" y2="103.7" stroke="rgb(0,0,0)"  stroke-width="2.0"/>
<line x1="94.6" y1="108.0" x2="76.5" y2="128.1" stroke="rgb(0,0,0)"  stroke-width="2.0"/>
<line x1="76.5" y1="128.1" x2="96.5" y2="162.7" stroke="rgb(0,0,0)"  stroke-width="2.0"/>
<line x1="96.5" y1="162.7" x2="135.7" y2="154.4" stroke="rgb(0,0,0)"  stroke-width="2.0"/>
<line x1="135.7" y1="154.4" x2="139.8" y2="114.6" stroke="rgb(0,0,0)"  stroke-width="2.0"/>
<text x="142.028402" y="200.464153" fill="rgb(191,191,191)"  stroke="rgb(191,191,191)" stroke-width="1" font-size="16" >H</text>
<text x="88.990575" y="67.245646" fill="rgb(191,191,191)"  stroke="rgb(191,191,191)" stroke-width="1" font-size="16" >H</text>
<text x="193.848861" y="48.000000" fill="rgb(191,191,191)"  stroke="rgb(191,191,191)" stroke-width="1" font-size="16" >H</text>
<text x="233.848861" y="88.000000" fill="rgb(191,191,191)"  stroke="rgb(191,191,191)" stroke-width="1" font-size="16" >H</text>
<text x="193.848861" y="128.000000" fill="rgb(191,191,191)"  stroke="rgb(191,191,191)" stroke-width="1" font-size="16" >H</text>
<text x="119.207845" y="68.000000" fill="rgb(191,191,191)"  stroke="rgb(191,191,191)" stroke-width="1" font-size="16" >H</text>
<text x="153.848861" y="48.000000" fill="rgb(191,191,191)"  stroke="rgb(191,191,191)" stroke-width="1" font-size="16" >H</text>
<text x="34.000000" y="152.366809" fill="rgb(191,191,191)"  stroke="rgb(191,191,191)" stroke-width="1" font-size="16" >H</text>
<text x="38.181139" y="112.585933" fill="rgb(191,191,191)"  stroke="rgb(191,191,191)" stroke-width="1" font-size="16" >H</text>
<text x="168.793626" y="170.738360" fill="rgb(191,191,191)"  stroke="rgb(191,191,191)" stroke-width="1" font-size="16" >H</text>
<text x="94.722957" y="210.519235" fill="rgb(191,191,191)"  stroke="rgb(191,191,191)" stroke-width="1" font-size="16" >H</text>
<text x="58.181139" y="194.249770" fill="rgb(191,191,191)"  stroke="rgb(191,191,191)" stroke-width="1" font-size="16" >H</text>
<text x="204.648861" y="75.968000" fill="rgb(12,12,255)"  stroke="rgb(12,12,255)" stroke-width="1" font-size="16" >+</text>
<text x="193.848861" y="88.000000" fill="rgb(12,12,255)"  stroke="rgb(12,12,255)" stroke-width="1" font-size="16" >N</text>
<text x="97.307043" y="106.371550" fill="rgb(12,12,255)"  stroke="rgb(12,12,255)" stroke-width="1" font-size="16" >N</text>
<text x="173.848861" y="122.641016" fill="rgb(191,191,191)"  stroke="rgb(191,191,191)" stroke-width="1" font-size="16" >H</text>
</svg>
</g>
<text font-size="18.000000" fill ="black" font-family="sans-serif"
x="10.000000" y="20.000000" >ZINC38531907</text>
</svg>
