<?xml version="1.0"?>
<svg version="1.1" id="topsvg"
xmlns="http://www.w3.org/2000/svg" xmlns:xlink="http://www.w3.org/1999/xlink"
xmlns:cml="http://www.xml-cml.org/schema" x="0" y="0" width="200px" height="200px" viewBox="0 0 100 100">
<title>ZINC96032872 - Open Babel Depiction</title>
<rect x="0" y="0" width="100" height="100" fill="white"/>
<g transform="translate(0,0)">
<svg width="100" height="100" x="0" y="0" viewBox="0 0 306.462 332.07"
font-family="sans-serif" stroke="rgb(0,0,0)" stroke-width="2"  stroke-linecap="round">
<line x1="196.7" y1="143.7" x2="202.5" y2="116.1" stroke="rgb(0,0,0)"  stroke-width="2.0"/>
<line x1="227.3" y1="171.2" x2="254.1" y2="162.5" stroke="rgb(0,0,0)"  stroke-width="2.0"/>
<line x1="218.7" y1="211.5" x2="239.7" y2="230.4" stroke="rgb(0,0,0)"  stroke-width="2.0"/>
<line x1="179.6" y1="224.2" x2="173.7" y2="251.8" stroke="rgb(0,0,0)"  stroke-width="2.0"/>
<line x1="148.9" y1="196.7" x2="109.8" y2="209.4" stroke="rgb(0,0,0)"  stroke-width="2.0"/>
<line x1="157.5" y1="156.4" x2="136.6" y2="137.5" stroke="rgb(0,0,0)"  stroke-width="2.0"/>
<line x1="112.7" y1="210.0" x2="106.9" y2="237.6" stroke="rgb(0,0,0)"  stroke-width="2.0"/>
<line x1="106.8" y1="208.8" x2="101.0" y2="236.3" stroke="rgb(0,0,0)"  stroke-width="2.0"/>
<line x1="109.8" y1="209.4" x2="79.2" y2="181.8" stroke="rgb(0,0,0)"  stroke-width="2.0"/>
<line x1="76.2" y1="181.2" x2="84.8" y2="140.9" stroke="rgb(0,0,0)"  stroke-width="2.0"/>
<line x1="82.1" y1="182.5" x2="90.7" y2="142.2" stroke="rgb(0,0,0)"  stroke-width="2.0"/>
<line x1="79.2" y1="181.8" x2="52.4" y2="190.5" stroke="rgb(0,0,0)"  stroke-width="2.0"/>
<line x1="87.7" y1="141.5" x2="114.5" y2="132.8" stroke="rgb(0,0,0)"  stroke-width="2.0"/>
<line x1="87.7" y1="141.5" x2="66.8" y2="122.7" stroke="rgb(0,0,0)"  stroke-width="2.0"/>
<line x1="139.6" y1="89.6" x2="113.9" y2="78.2" stroke="rgb(0,0,0)"  stroke-width="2.0"/>
<line x1="139.6" y1="89.6" x2="136.7" y2="61.6" stroke="rgb(0,0,0)"  stroke-width="2.0"/>
<polygon points="180.819003 89.648190 179.485455 61.796617 187.448537 62.564288 " stroke-width="2.000000" fill="rgb(0,0,0)"  stroke="rgb(0,0,0)" />
<line x1="193.5" y1="128.8" x2="221.1" y2="123.0" stroke="rgb(0,0,0)"  stroke-width="2.0"/>
<line x1="193.5" y1="128.8" x2="212.4" y2="149.8" stroke="rgb(0,0,0)"  stroke-width="2.0"/>
<polygon points="160.225659 153.027985 149.669547 178.836064 142.776052 174.776541 " stroke-width="2.000000" fill="rgb(0,0,0)"  stroke="rgb(0,0,0)" />
<line x1="192.8" y1="146.1" x2="219.6" y2="154.8" stroke="rgb(0,0,0)"  stroke-width="2.0"/>
<line x1="192.8" y1="146.1" x2="198.7" y2="173.7" stroke="rgb(0,0,0)"  stroke-width="2.0"/>
<line x1="196.8" y1="103.0" x2="195.7" y2="101.0" stroke="rgb(0,0,0)"  stroke-width="2.0"/>
<line x1="160.5" y1="80.7" x2="160.5" y2="53.0" stroke="rgb(0,0,0)"  stroke-width="2.0"/>
<line x1="125.2" y1="101.0" x2="101.3" y2="87.2" stroke="rgb(0,0,0)"  stroke-width="2.0"/>
<line x1="125.2" y1="141.7" x2="101.3" y2="155.5" stroke="rgb(0,0,0)"  stroke-width="2.0"/>
<line x1="160.5" y1="162.0" x2="160.5" y2="189.7" stroke="rgb(0,0,0)"  stroke-width="2.0"/>
<line x1="180.7" y1="273.2" x2="191.9" y2="283.4" stroke="rgb(0,0,0)"  stroke-width="2.0"/>
<line x1="218.7" y1="211.5" x2="179.6" y2="224.2" stroke="rgb(0,0,0)"  stroke-width="2.0"/>
<line x1="179.6" y1="224.2" x2="148.9" y2="196.7" stroke="rgb(0,0,0)"  stroke-width="2.0"/>
<line x1="179.9" y1="214.9" x2="158.2" y2="195.3" stroke="rgb(0,0,0)"  stroke-width="2.0"/>
<line x1="148.9" y1="196.7" x2="157.5" y2="156.4" stroke="rgb(0,0,0)"  stroke-width="2.0"/>
<line x1="157.5" y1="156.4" x2="196.7" y2="143.7" stroke="rgb(0,0,0)"  stroke-width="2.0"/>
<line x1="165.4" y1="161.4" x2="193.2" y2="152.4" stroke="rgb(0,0,0)"  stroke-width="2.0"/>
<line x1="196.7" y1="143.7" x2="227.3" y2="171.2" stroke="rgb(0,0,0)"  stroke-width="2.0"/>
<line x1="227.3" y1="171.2" x2="218.7" y2="211.5" stroke="rgb(0,0,0)"  stroke-width="2.0"/>
<line x1="219.0" y1="175.6" x2="212.9" y2="204.1" stroke="rgb(0,0,0)"  stroke-width="2.0"/>
<line x1="125.2" y1="101.0" x2="125.2" y2="141.7" stroke="rgb(0,0,0)"  stroke-width="2.0"/>
<line x1="125.2" y1="141.7" x2="160.5" y2="162.0" stroke="rgb(0,0,0)"  stroke-width="2.0"/>
<line x1="134.0" y1="138.4" x2="158.9" y2="152.8" stroke="rgb(0,0,0)"  stroke-width="2.0"/>
<line x1="160.5" y1="162.0" x2="184.4" y2="148.2" stroke="rgb(0,0,0)"  stroke-width="2.0"/>
<line x1="195.7" y1="128.3" x2="195.7" y2="101.0" stroke="rgb(0,0,0)"  stroke-width="2.0"/>
<line x1="188.5" y1="126.3" x2="188.5" y2="107.0" stroke="rgb(0,0,0)"  stroke-width="2.0"/>
<line x1="195.7" y1="101.0" x2="160.5" y2="80.7" stroke="rgb(0,0,0)"  stroke-width="2.0"/>
<line x1="160.5" y1="80.7" x2="125.2" y2="101.0" stroke="rgb(0,0,0)"  stroke-width="2.0"/>
<line x1="158.9" y1="89.9" x2="134.0" y2="104.2" stroke="rgb(0,0,0)"  stroke-width="2.0"/>
<line x1="180.8" y1="89.6" x2="193.5" y2="128.8" stroke="rgb(0,0,0)"  stroke-width="2.0"/>
<line x1="193.5" y1="128.8" x2="160.2" y2="153.0" stroke="rgb(0,0,0)"  stroke-width="2.0"/>
<line x1="160.2" y1="153.0" x2="137.4" y2="136.5" stroke="rgb(0,0,0)"  stroke-width="2.0"/>
<line x1="130.9" y1="116.5" x2="139.6" y2="89.6" stroke="rgb(0,0,0)"  stroke-width="2.0"/>
<line x1="139.6" y1="89.6" x2="180.8" y2="89.6" stroke="rgb(0,0,0)"  stroke-width="2.0"/>
<line x1="160.2" y1="153.0" x2="192.8" y2="146.1" stroke="rgb(0,0,0)"  stroke-width="2.0"/>
<line x1="192.8" y1="146.1" x2="199.1" y2="126.8" stroke="rgb(0,0,0)"  stroke-width="2.0"/>
<line x1="194.4" y1="104.7" x2="180.8" y2="89.6" stroke="rgb(0,0,0)"  stroke-width="2.0"/>
<text x="96.006404" y="80.896055" fill="rgb(191,191,191)"  stroke="rgb(191,191,191)" stroke-width="1" font-size="16" >H</text>
<text x="189.674499" y="149.684226" fill="rgb(12,12,255)"  stroke="rgb(12,12,255)" stroke-width="1" font-size="16" >N</text>
<text x="164.993889" y="272.510923" fill="rgb(255,12,12)"  stroke="rgb(255,12,12)" stroke-width="1" font-size="16" >O</text>
<text x="199.246664" y="111.364284" fill="rgb(191,191,191)"  stroke="rgb(191,191,191)" stroke-width="1" font-size="16" >H</text>
<text x="260.462011" y="166.482831" fill="rgb(191,191,191)"  stroke="rgb(191,191,191)" stroke-width="1" font-size="16" >H</text>
<text x="243.335624" y="247.056150" fill="rgb(191,191,191)"  stroke="rgb(191,191,191)" stroke-width="1" font-size="16" >H</text>
<text x="120.904929" y="136.819057" fill="rgb(191,191,191)"  stroke="rgb(191,191,191)" stroke-width="1" font-size="16" >H</text>
<text x="34.000000" y="202.560490" fill="rgb(191,191,191)"  stroke="rgb(191,191,191)" stroke-width="1" font-size="16" >H</text>
<text x="51.126388" y="121.987170" fill="rgb(191,191,191)"  stroke="rgb(191,191,191)" stroke-width="1" font-size="16" >H</text>
<text x="129.327134" y="56.687127" fill="rgb(191,191,191)"  stroke="rgb(191,191,191)" stroke-width="1" font-size="16" >H</text>
<text x="227.833049" y="128.255863" fill="rgb(191,191,191)"  stroke="rgb(191,191,191)" stroke-width="1" font-size="16" >H</text>
<text x="215.105662" y="167.426731" fill="rgb(191,191,191)"  stroke="rgb(191,191,191)" stroke-width="1" font-size="16" >H</text>
<text x="225.989119" y="166.827602" fill="rgb(191,191,191)"  stroke="rgb(191,191,191)" stroke-width="1" font-size="16" >H</text>
<text x="195.381445" y="194.386875" fill="rgb(191,191,191)"  stroke="rgb(191,191,191)" stroke-width="1" font-size="16" >H</text>
<text x="154.450049" y="48.000000" fill="rgb(191,191,191)"  stroke="rgb(191,191,191)" stroke-width="1" font-size="16" >H</text>
<text x="84.001151" y="88.673690" fill="rgb(191,191,191)"  stroke="rgb(191,191,191)" stroke-width="1" font-size="16" >H</text>
<text x="84.001151" y="170.021071" fill="rgb(191,191,191)"  stroke="rgb(191,191,191)" stroke-width="1" font-size="16" >H</text>
<text x="154.450049" y="210.694761" fill="rgb(191,191,191)"  stroke="rgb(191,191,191)" stroke-width="1" font-size="16" >H</text>
<text x="195.601562" y="300.070196" fill="rgb(191,191,191)"  stroke="rgb(191,191,191)" stroke-width="1" font-size="16" >H</text>
<text x="95.215347" y="257.679036" fill="rgb(255,12,12)"  stroke="rgb(255,12,12)" stroke-width="1" font-size="16" >O</text>
<text x="120.904929" y="136.819057" fill="rgb(12,12,255)"  stroke="rgb(12,12,255)" stroke-width="1" font-size="16" >N</text>
<text x="178.771231" y="56.651566" fill="rgb(191,191,191)"  stroke="rgb(191,191,191)" stroke-width="1" font-size="16" >H</text>
<text x="133.325868" y="196.518011" fill="rgb(191,191,191)"  stroke="rgb(191,191,191)" stroke-width="1" font-size="16" >H</text>
<text x="197.114923" y="122.410318" fill="rgb(12,12,255)"  stroke="rgb(12,12,255)" stroke-width="1" font-size="16" >N</text>
</svg>
</g>
<text font-size="18.000000" fill ="black" font-family="sans-serif"
x="10.000000" y="20.000000" >ZINC96032872</text>
</svg>
