<?xml version="1.0"?>
<svg version="1.1" id="topsvg"
xmlns="http://www.w3.org/2000/svg" xmlns:xlink="http://www.w3.org/1999/xlink"
xmlns:cml="http://www.xml-cml.org/schema" x="0" y="0" width="200px" height="200px" viewBox="0 0 100 100">
<title>ZINC71771926 - Open Babel Depiction</title>
<rect x="0" y="0" width="100" height="100" fill="white"/>
<g transform="translate(0,0)">
<svg width="100" height="100" x="0" y="0" viewBox="0 0 532.84 473.948"
font-family="sans-serif" stroke="rgb(0,0,0)" stroke-width="2"  stroke-linecap="round">
<line x1="393.9" y1="138.9" x2="393.9" y2="104.4" stroke="rgb(0,0,0)"  stroke-width="2.0"/>
<line x1="393.9" y1="138.9" x2="404.7" y2="157.6" stroke="rgb(0,0,0)"  stroke-width="2.0"/>
<line x1="393.9" y1="138.9" x2="415.4" y2="138.9" stroke="rgb(0,0,0)"  stroke-width="2.0"/>
<line x1="393.9" y1="138.9" x2="375.3" y2="149.7" stroke="rgb(0,0,0)"  stroke-width="2.0"/>
<line x1="393.9" y1="104.4" x2="462.9" y2="104.4" stroke="rgb(0,0,0)"  stroke-width="2.0"/>
<line x1="393.9" y1="104.4" x2="393.9" y2="69.9" stroke="rgb(0,0,0)"  stroke-width="2.0"/>
<line x1="393.9" y1="104.4" x2="337.9" y2="104.4" stroke="rgb(0,0,0)"  stroke-width="2.0"/>
<line x1="462.9" y1="104.4" x2="481.6" y2="93.7" stroke="rgb(0,0,0)"  stroke-width="2.0"/>
<line x1="462.9" y1="104.4" x2="462.9" y2="82.9" stroke="rgb(0,0,0)"  stroke-width="2.0"/>
<line x1="462.9" y1="104.4" x2="473.7" y2="123.1" stroke="rgb(0,0,0)"  stroke-width="2.0"/>
<line x1="393.9" y1="69.9" x2="404.7" y2="51.3" stroke="rgb(0,0,0)"  stroke-width="2.0"/>
<line x1="393.9" y1="69.9" x2="415.4" y2="69.9" stroke="rgb(0,0,0)"  stroke-width="2.0"/>
<line x1="393.9" y1="69.9" x2="375.3" y2="59.1" stroke="rgb(0,0,0)"  stroke-width="2.0"/>
<line x1="324.9" y1="117.4" x2="324.9" y2="229.5" stroke="rgb(0,0,0)"  stroke-width="2.0"/>
<line x1="311.9" y1="104.4" x2="303.3" y2="104.4" stroke="rgb(0,0,0)"  stroke-width="2.0"/>
<line x1="324.9" y1="91.4" x2="324.9" y2="82.9" stroke="rgb(0,0,0)"  stroke-width="2.0"/>
<line x1="322.1" y1="256.0" x2="320.5" y2="255.6" stroke="rgb(0,0,0)"  stroke-width="1.0"/>
<line x1="322.2" y1="258.0" x2="319.4" y2="257.2" stroke="rgb(0,0,0)"  stroke-width="1.0"/>
<line x1="322.3" y1="259.9" x2="318.3" y2="258.9" stroke="rgb(0,0,0)"  stroke-width="1.0"/>
<line x1="322.5" y1="261.9" x2="317.2" y2="260.5" stroke="rgb(0,0,0)"  stroke-width="1.0"/>
<line x1="322.6" y1="263.9" x2="316.1" y2="262.2" stroke="rgb(0,0,0)"  stroke-width="1.0"/>
<line x1="322.7" y1="265.9" x2="315.0" y2="263.8" stroke="rgb(0,0,0)"  stroke-width="1.0"/>
<line x1="312.9" y1="247.5" x2="209.3" y2="290.4" stroke="rgb(0,0,0)"  stroke-width="2.0"/>
<line x1="361.6" y1="221.0" x2="363.8" y2="212.8" stroke="rgb(0,0,0)"  stroke-width="2.0"/>
<line x1="382.6" y1="258.0" x2="397.8" y2="242.8" stroke="rgb(0,0,0)"  stroke-width="2.0"/>
<line x1="382.6" y1="258.0" x2="403.4" y2="263.5" stroke="rgb(0,0,0)"  stroke-width="2.0"/>
<line x1="373.7" y1="291.3" x2="394.5" y2="296.9" stroke="rgb(0,0,0)"  stroke-width="2.0"/>
<line x1="373.7" y1="291.3" x2="379.3" y2="312.1" stroke="rgb(0,0,0)"  stroke-width="2.0"/>
<line x1="340.3" y1="300.3" x2="345.9" y2="321.0" stroke="rgb(0,0,0)"  stroke-width="2.0"/>
<line x1="340.3" y1="300.3" x2="325.1" y2="315.5" stroke="rgb(0,0,0)"  stroke-width="2.0"/>
<line x1="306.7" y1="285.0" x2="291.5" y2="300.3" stroke="rgb(0,0,0)"  stroke-width="2.0"/>
<line x1="302.4" y1="273.1" x2="302.9" y2="271.5" stroke="rgb(0,0,0)"  stroke-width="1.0"/>
<line x1="300.5" y1="273.2" x2="301.2" y2="270.4" stroke="rgb(0,0,0)"  stroke-width="1.0"/>
<line x1="298.5" y1="273.3" x2="299.6" y2="269.3" stroke="rgb(0,0,0)"  stroke-width="1.0"/>
<line x1="296.5" y1="273.5" x2="297.9" y2="268.2" stroke="rgb(0,0,0)"  stroke-width="1.0"/>
<line x1="294.5" y1="273.6" x2="296.3" y2="267.1" stroke="rgb(0,0,0)"  stroke-width="1.0"/>
<line x1="292.6" y1="273.7" x2="294.6" y2="266.0" stroke="rgb(0,0,0)"  stroke-width="1.0"/>
<line x1="291.5" y1="300.3" x2="270.7" y2="305.8" stroke="rgb(0,0,0)"  stroke-width="2.0"/>
<line x1="291.5" y1="300.3" x2="276.3" y2="285.0" stroke="rgb(0,0,0)"  stroke-width="2.0"/>
<line x1="291.5" y1="300.3" x2="297.1" y2="321.0" stroke="rgb(0,0,0)"  stroke-width="2.0"/>
<line x1="186.4" y1="303.1" x2="178.6" y2="306.3" stroke="rgb(0,0,0)"  stroke-width="2.0"/>
<line x1="184.1" y1="297.5" x2="176.3" y2="300.8" stroke="rgb(0,0,0)"  stroke-width="2.0"/>
<line x1="170.4" y1="320.6" x2="186.8" y2="360.3" stroke="rgb(0,0,0)"  stroke-width="2.0"/>
<line x1="153.4" y1="313.5" x2="113.6" y2="330.0" stroke="rgb(0,0,0)"  stroke-width="2.0"/>
<line x1="160.4" y1="296.5" x2="157.2" y2="288.7" stroke="rgb(0,0,0)"  stroke-width="2.0"/>
<line x1="204.7" y1="374.0" x2="226.0" y2="376.8" stroke="rgb(0,0,0)"  stroke-width="2.0"/>
<line x1="183.9" y1="382.6" x2="170.8" y2="399.7" stroke="rgb(0,0,0)"  stroke-width="2.0"/>
<line x1="226.0" y1="376.8" x2="243.1" y2="389.9" stroke="rgb(0,0,0)"  stroke-width="2.0"/>
<line x1="226.0" y1="376.8" x2="223.2" y2="398.2" stroke="rgb(0,0,0)"  stroke-width="2.0"/>
<line x1="226.0" y1="376.8" x2="239.1" y2="359.8" stroke="rgb(0,0,0)"  stroke-width="2.0"/>
<line x1="170.8" y1="399.7" x2="168.0" y2="421.1" stroke="rgb(0,0,0)"  stroke-width="2.0"/>
<line x1="170.8" y1="399.7" x2="187.9" y2="412.8" stroke="rgb(0,0,0)"  stroke-width="2.0"/>
<line x1="170.8" y1="399.7" x2="149.5" y2="396.9" stroke="rgb(0,0,0)"  stroke-width="2.0"/>
<line x1="91.3" y1="327.1" x2="74.2" y2="314.0" stroke="rgb(0,0,0)"  stroke-width="2.0"/>
<line x1="99.9" y1="347.9" x2="97.1" y2="369.2" stroke="rgb(0,0,0)"  stroke-width="2.0"/>
<line x1="74.2" y1="314.0" x2="52.9" y2="311.1" stroke="rgb(0,0,0)"  stroke-width="2.0"/>
<line x1="74.2" y1="314.0" x2="61.1" y2="331.0" stroke="rgb(0,0,0)"  stroke-width="2.0"/>
<line x1="74.2" y1="314.0" x2="77.0" y2="292.6" stroke="rgb(0,0,0)"  stroke-width="2.0"/>
<line x1="97.1" y1="369.2" x2="105.3" y2="389.1" stroke="rgb(0,0,0)"  stroke-width="2.0"/>
<line x1="97.1" y1="369.2" x2="118.4" y2="372.0" stroke="rgb(0,0,0)"  stroke-width="2.0"/>
<line x1="97.1" y1="369.2" x2="77.2" y2="377.4" stroke="rgb(0,0,0)"  stroke-width="2.0"/>
<line x1="139.3" y1="275.0" x2="118.0" y2="272.2" stroke="rgb(0,0,0)"  stroke-width="2.0"/>
<line x1="160.1" y1="266.3" x2="173.2" y2="249.3" stroke="rgb(0,0,0)"  stroke-width="2.0"/>
<line x1="118.0" y1="272.2" x2="100.9" y2="259.1" stroke="rgb(0,0,0)"  stroke-width="2.0"/>
<line x1="118.0" y1="272.2" x2="120.8" y2="250.8" stroke="rgb(0,0,0)"  stroke-width="2.0"/>
<line x1="118.0" y1="272.2" x2="104.9" y2="289.2" stroke="rgb(0,0,0)"  stroke-width="2.0"/>
<line x1="173.2" y1="249.3" x2="193.1" y2="241.0" stroke="rgb(0,0,0)"  stroke-width="2.0"/>
<line x1="173.2" y1="249.3" x2="190.3" y2="262.4" stroke="rgb(0,0,0)"  stroke-width="2.0"/>
<line x1="173.2" y1="249.3" x2="165.0" y2="229.4" stroke="rgb(0,0,0)"  stroke-width="2.0"/>
<line x1="382.6" y1="258.0" x2="373.7" y2="291.3" stroke="rgb(0,0,0)"  stroke-width="2.0"/>
<line x1="373.7" y1="291.3" x2="340.3" y2="300.3" stroke="rgb(0,0,0)"  stroke-width="2.0"/>
<line x1="340.3" y1="300.3" x2="325.1" y2="285.0" stroke="rgb(0,0,0)"  stroke-width="2.0"/>
<line x1="319.3" y1="263.3" x2="321.5" y2="255.1" stroke="rgb(0,0,0)"  stroke-width="2.0"/>
<line x1="337.4" y1="239.1" x2="345.6" y2="236.9" stroke="rgb(0,0,0)"  stroke-width="2.0"/>
<line x1="367.4" y1="242.8" x2="382.6" y2="258.0" stroke="rgb(0,0,0)"  stroke-width="2.0"/>
<text x="192.190965" y="428.738046" fill="rgb(191,191,191)"  stroke="rgb(191,191,191)" stroke-width="1" font-size="16" >H</text>
<text x="284.341458" y="112.416219" fill="rgb(191,191,191)"  stroke="rgb(191,191,191)" stroke-width="1" font-size="16" >H</text>
<text x="361.140870" y="208.219547" fill="rgb(191,191,191)"  stroke="rgb(191,191,191)" stroke-width="1" font-size="16" >H</text>
<text x="401.025722" y="241.563836" fill="rgb(191,191,191)"  stroke="rgb(191,191,191)" stroke-width="1" font-size="16" >H</text>
<text x="409.960297" y="274.908125" fill="rgb(191,191,191)"  stroke="rgb(191,191,191)" stroke-width="1" font-size="16" >H</text>
<text x="401.025722" y="308.252414" fill="rgb(191,191,191)"  stroke="rgb(191,191,191)" stroke-width="1" font-size="16" >H</text>
<text x="376.616008" y="332.662127" fill="rgb(191,191,191)"  stroke="rgb(191,191,191)" stroke-width="1" font-size="16" >H</text>
<text x="343.271719" y="341.596702" fill="rgb(191,191,191)"  stroke="rgb(191,191,191)" stroke-width="1" font-size="16" >H</text>
<text x="309.927431" y="332.662127" fill="rgb(191,191,191)"  stroke="rgb(191,191,191)" stroke-width="1" font-size="16" >H</text>
<text x="252.173428" y="317.186989" fill="rgb(191,191,191)"  stroke="rgb(191,191,191)" stroke-width="1" font-size="16" >H</text>
<text x="261.108003" y="283.842700" fill="rgb(191,191,191)"  stroke="rgb(191,191,191)" stroke-width="1" font-size="16" >H</text>
<text x="294.452292" y="341.596702" fill="rgb(191,191,191)"  stroke="rgb(191,191,191)" stroke-width="1" font-size="16" >H</text>
<text x="247.430963" y="405.856889" fill="rgb(191,191,191)"  stroke="rgb(191,191,191)" stroke-width="1" font-size="16" >H</text>
<text x="215.538135" y="419.067331" fill="rgb(191,191,191)"  stroke="rgb(191,191,191)" stroke-width="1" font-size="16" >H</text>
<text x="241.058749" y="357.455119" fill="rgb(191,191,191)"  stroke="rgb(191,191,191)" stroke-width="1" font-size="16" >H</text>
<text x="160.298137" y="441.948487" fill="rgb(191,191,191)"  stroke="rgb(191,191,191)" stroke-width="1" font-size="16" >H</text>
<text x="358.007430" y="60.635398" fill="rgb(191,191,191)"  stroke="rgb(191,191,191)" stroke-width="1" font-size="16" >H</text>
<text x="130.578753" y="403.217432" fill="rgb(191,191,191)"  stroke="rgb(191,191,191)" stroke-width="1" font-size="16" >H</text>
<text x="34.000000" y="317.450890" fill="rgb(191,191,191)"  stroke="rgb(191,191,191)" stroke-width="1" font-size="16" >H</text>
<text x="47.210442" y="349.343718" fill="rgb(191,191,191)"  stroke="rgb(191,191,191)" stroke-width="1" font-size="16" >H</text>
<text x="72.731056" y="287.731506" fill="rgb(191,191,191)"  stroke="rgb(191,191,191)" stroke-width="1" font-size="16" >H</text>
<text x="104.316818" y="409.089551" fill="rgb(191,191,191)"  stroke="rgb(191,191,191)" stroke-width="1" font-size="16" >H</text>
<text x="125.331596" y="381.702559" fill="rgb(191,191,191)"  stroke="rgb(191,191,191)" stroke-width="1" font-size="16" >H</text>
<text x="59.213549" y="390.407165" fill="rgb(191,191,191)"  stroke="rgb(191,191,191)" stroke-width="1" font-size="16" >H</text>
<text x="84.575214" y="259.137179" fill="rgb(191,191,191)"  stroke="rgb(191,191,191)" stroke-width="1" font-size="16" >H</text>
<text x="116.468041" y="245.926737" fill="rgb(191,191,191)"  stroke="rgb(191,191,191)" stroke-width="1" font-size="16" >H</text>
<text x="90.947428" y="307.538949" fill="rgb(191,191,191)"  stroke="rgb(191,191,191)" stroke-width="1" font-size="16" >H</text>
<text x="199.095031" y="244.060359" fill="rgb(191,191,191)"  stroke="rgb(191,191,191)" stroke-width="1" font-size="16" >H</text>
<text x="194.589196" y="278.285578" fill="rgb(191,191,191)"  stroke="rgb(191,191,191)" stroke-width="1" font-size="16" >H</text>
<text x="153.991762" y="225.377973" fill="rgb(191,191,191)"  stroke="rgb(191,191,191)" stroke-width="1" font-size="16" >H</text>
<text x="276.583142" y="274.908125" fill="rgb(191,191,191)"  stroke="rgb(191,191,191)" stroke-width="1" font-size="16" >H</text>
<text x="318.862006" y="77.895671" fill="rgb(191,191,191)"  stroke="rgb(191,191,191)" stroke-width="1" font-size="16" >H</text>
<text x="329.662006" y="100.384219" fill="rgb(12,12,255)"  stroke="rgb(12,12,255)" stroke-width="1" font-size="16" >+</text>
<text x="318.862006" y="112.416219" fill="rgb(12,12,255)"  stroke="rgb(12,12,255)" stroke-width="1" font-size="16" >N</text>
<text x="318.862006" y="250.498411" fill="rgb(255,127,0)"  stroke="rgb(255,127,0)" stroke-width="1" font-size="16" >P</text>
<text x="352.206295" y="241.563836" fill="rgb(12,12,255)"  stroke="rgb(12,12,255)" stroke-width="1" font-size="16" >N</text>
<text x="320.727431" y="271.810700" fill="rgb(12,12,255)"  stroke="rgb(12,12,255)" stroke-width="1" font-size="16" >+</text>
<text x="309.927431" y="283.842700" fill="rgb(12,12,255)"  stroke="rgb(12,12,255)" stroke-width="1" font-size="16" >N</text>
<text x="191.290695" y="303.340178" fill="rgb(12,12,255)"  stroke="rgb(12,12,255)" stroke-width="1" font-size="16" >N</text>
<text x="159.397867" y="316.550620" fill="rgb(255,127,0)"  stroke="rgb(255,127,0)" stroke-width="1" font-size="16" >P</text>
<text x="185.818751" y="380.336275" fill="rgb(12,12,255)"  stroke="rgb(12,12,255)" stroke-width="1" font-size="16" >N</text>
<text x="95.612212" y="342.971504" fill="rgb(12,12,255)"  stroke="rgb(12,12,255)" stroke-width="1" font-size="16" >N</text>
<text x="146.187426" y="284.657792" fill="rgb(12,12,255)"  stroke="rgb(12,12,255)" stroke-width="1" font-size="16" >N</text>
<text x="405.163376" y="176.832439" fill="rgb(191,191,191)"  stroke="rgb(191,191,191)" stroke-width="1" font-size="16" >H</text>
<text x="422.423650" y="146.936767" fill="rgb(191,191,191)"  stroke="rgb(191,191,191)" stroke-width="1" font-size="16" >H</text>
<text x="358.007430" y="164.197041" fill="rgb(191,191,191)"  stroke="rgb(191,191,191)" stroke-width="1" font-size="16" >H</text>
<text x="486.839869" y="95.155945" fill="rgb(191,191,191)"  stroke="rgb(191,191,191)" stroke-width="1" font-size="16" >H</text>
<text x="456.944198" y="77.895671" fill="rgb(191,191,191)"  stroke="rgb(191,191,191)" stroke-width="1" font-size="16" >H</text>
<text x="474.204472" y="142.311891" fill="rgb(191,191,191)"  stroke="rgb(191,191,191)" stroke-width="1" font-size="16" >H</text>
<text x="405.163376" y="48.000000" fill="rgb(191,191,191)"  stroke="rgb(191,191,191)" stroke-width="1" font-size="16" >H</text>
<text x="422.423650" y="77.895671" fill="rgb(191,191,191)"  stroke="rgb(191,191,191)" stroke-width="1" font-size="16" >H</text>
</svg>
</g>
<text font-size="18.000000" fill ="black" font-family="sans-serif"
x="10.000000" y="20.000000" >ZINC71771926</text>
</svg>
