<?xml version="1.0"?>
<svg version="1.1" id="topsvg"
xmlns="http://www.w3.org/2000/svg" xmlns:xlink="http://www.w3.org/1999/xlink"
xmlns:cml="http://www.xml-cml.org/schema" x="0" y="0" width="200px" height="200px" viewBox="0 0 100 100">
<title>ZINC20033074 - Open Babel Depiction</title>
<rect x="0" y="0" width="100" height="100" fill="white"/>
<g transform="translate(0,0)">
<svg width="100" height="100" x="0" y="0" viewBox="0 0 399.401 241.714"
font-family="sans-serif" stroke="rgb(0,0,0)" stroke-width="2"  stroke-linecap="round">
<line x1="320.8" y1="78.6" x2="292.5" y2="106.9" stroke="rgb(0,0,0)"  stroke-width="2.0"/>
<line x1="320.8" y1="78.6" x2="327.8" y2="52.6" stroke="rgb(0,0,0)"  stroke-width="2.0"/>
<line x1="320.8" y1="78.6" x2="301.7" y2="59.5" stroke="rgb(0,0,0)"  stroke-width="2.0"/>
<line x1="320.8" y1="78.6" x2="346.8" y2="85.6" stroke="rgb(0,0,0)"  stroke-width="2.0"/>
<line x1="292.5" y1="106.9" x2="266.4" y2="99.9" stroke="rgb(0,0,0)"  stroke-width="2.0"/>
<line x1="292.5" y1="106.9" x2="285.5" y2="133.0" stroke="rgb(0,0,0)"  stroke-width="2.0"/>
<line x1="292.5" y1="106.9" x2="311.6" y2="126.0" stroke="rgb(0,0,0)"  stroke-width="2.0"/>
<line x1="244.7" y1="105.8" x2="225.6" y2="124.9" stroke="rgb(0,0,0)"  stroke-width="2.0"/>
<line x1="228.5" y1="124.1" x2="235.4" y2="150.2" stroke="rgb(0,0,0)"  stroke-width="2.0"/>
<line x1="222.7" y1="125.6" x2="229.6" y2="151.7" stroke="rgb(0,0,0)"  stroke-width="2.0"/>
<line x1="225.6" y1="124.9" x2="186.9" y2="114.5" stroke="rgb(0,0,0)"  stroke-width="2.0"/>
<line x1="186.9" y1="114.5" x2="167.8" y2="133.6" stroke="rgb(0,0,0)"  stroke-width="2.0"/>
<line x1="186.9" y1="114.5" x2="167.8" y2="95.4" stroke="rgb(0,0,0)"  stroke-width="2.0"/>
<line x1="186.9" y1="114.5" x2="193.9" y2="88.4" stroke="rgb(0,0,0)"  stroke-width="2.0"/>
<line x1="146.1" y1="139.4" x2="120.0" y2="132.4" stroke="rgb(0,0,0)"  stroke-width="2.0"/>
<line x1="162.0" y1="155.3" x2="165.6" y2="168.9" stroke="rgb(0,0,0)"  stroke-width="2.0"/>
<line x1="120.0" y1="132.4" x2="131.6" y2="108.0" stroke="rgb(0,0,0)"  stroke-width="2.0"/>
<line x1="100.0" y1="167.1" x2="113.5" y2="190.5" stroke="rgb(0,0,0)"  stroke-width="2.0"/>
<line x1="100.0" y1="167.1" x2="86.5" y2="190.5" stroke="rgb(0,0,0)"  stroke-width="2.0"/>
<line x1="80.0" y1="132.4" x2="53.0" y2="132.4" stroke="rgb(0,0,0)"  stroke-width="2.0"/>
<line x1="80.0" y1="132.4" x2="66.5" y2="109.0" stroke="rgb(0,0,0)"  stroke-width="2.0"/>
<line x1="80.0" y1="132.4" x2="120.0" y2="132.4" stroke="rgb(0,0,0)"  stroke-width="2.0"/>
<line x1="120.0" y1="132.4" x2="100.0" y2="167.1" stroke="rgb(0,0,0)"  stroke-width="2.0"/>
<line x1="100.0" y1="167.1" x2="80.0" y2="132.4" stroke="rgb(0,0,0)"  stroke-width="2.0"/>
<text x="286.479642" y="58.352762" fill="rgb(191,191,191)"  stroke="rgb(191,191,191)" stroke-width="1" font-size="16" >H</text>
<text x="162.989795" y="189.421356" fill="rgb(191,191,191)"  stroke="rgb(191,191,191)" stroke-width="1" font-size="16" >H</text>
<text x="54.000000" y="105.790545" fill="rgb(191,191,191)"  stroke="rgb(191,191,191)" stroke-width="1" font-size="16" >H</text>
<text x="34.000000" y="140.431561" fill="rgb(191,191,191)"  stroke="rgb(191,191,191)" stroke-width="1" font-size="16" >H</text>
<text x="74.000000" y="209.713594" fill="rgb(191,191,191)"  stroke="rgb(191,191,191)" stroke-width="1" font-size="16" >H</text>
<text x="114.000000" y="209.713594" fill="rgb(191,191,191)"  stroke="rgb(191,191,191)" stroke-width="1" font-size="16" >H</text>
<text x="131.156324" y="104.297636" fill="rgb(191,191,191)"  stroke="rgb(191,191,191)" stroke-width="1" font-size="16" >H</text>
<text x="191.274066" y="83.863019" fill="rgb(191,191,191)"  stroke="rgb(191,191,191)" stroke-width="1" font-size="16" >H</text>
<text x="152.637033" y="94.215781" fill="rgb(191,191,191)"  stroke="rgb(191,191,191)" stroke-width="1" font-size="16" >H</text>
<text x="314.763913" y="143.205576" fill="rgb(191,191,191)"  stroke="rgb(191,191,191)" stroke-width="1" font-size="16" >H</text>
<text x="276.126880" y="153.558337" fill="rgb(191,191,191)"  stroke="rgb(191,191,191)" stroke-width="1" font-size="16" >H</text>
<text x="353.400946" y="96.989795" fill="rgb(191,191,191)"  stroke="rgb(191,191,191)" stroke-width="1" font-size="16" >H</text>
<text x="325.116675" y="48.000000" fill="rgb(191,191,191)"  stroke="rgb(191,191,191)" stroke-width="1" font-size="16" >H</text>
<text x="152.637033" y="150.784323" fill="rgb(12,12,255)"  stroke="rgb(12,12,255)" stroke-width="1" font-size="16" >N</text>
<text x="229.911099" y="171.489847" fill="rgb(255,12,12)"  stroke="rgb(255,12,12)" stroke-width="1" font-size="16" >O</text>
<text x="247.842609" y="104.568542" fill="rgb(255,12,12)"  stroke="rgb(255,12,12)" stroke-width="1" font-size="16" >O</text>
</svg>
</g>
<text font-size="18.000000" fill ="black" font-family="sans-serif"
x="10.000000" y="20.000000" >ZINC20033074</text>
</svg>
