<?xml version="1.0"?>
<svg version="1.1" id="topsvg"
xmlns="http://www.w3.org/2000/svg" xmlns:xlink="http://www.w3.org/1999/xlink"
xmlns:cml="http://www.xml-cml.org/schema" x="0" y="0" width="200px" height="200px" viewBox="0 0 100 100">
<title>ZINC98208524 - Open Babel Depiction</title>
<rect x="0" y="0" width="100" height="100" fill="white"/>
<g transform="translate(0,0)">
<svg width="100" height="100" x="0" y="0" viewBox="0 0 449.783 327.867"
font-family="sans-serif" stroke="rgb(0,0,0)" stroke-width="2"  stroke-linecap="round">
<line x1="126.2" y1="79.1" x2="165.3" y2="89.5" stroke="rgb(0,0,0)"  stroke-width="2.0"/>
<line x1="126.2" y1="79.1" x2="99.7" y2="86.2" stroke="rgb(0,0,0)"  stroke-width="2.0"/>
<line x1="126.2" y1="79.1" x2="119.1" y2="105.6" stroke="rgb(0,0,0)"  stroke-width="2.0"/>
<line x1="126.2" y1="79.1" x2="119.1" y2="52.6" stroke="rgb(0,0,0)"  stroke-width="2.0"/>
<line x1="163.1" y1="84.5" x2="164.6" y2="84.1" stroke="rgb(0,0,0)"  stroke-width="1.0"/>
<line x1="161.4" y1="80.5" x2="164.1" y2="79.7" stroke="rgb(0,0,0)"  stroke-width="1.0"/>
<line x1="159.6" y1="76.5" x2="163.6" y2="75.4" stroke="rgb(0,0,0)"  stroke-width="1.0"/>
<line x1="157.9" y1="72.4" x2="163.1" y2="71.0" stroke="rgb(0,0,0)"  stroke-width="1.0"/>
<line x1="156.1" y1="68.4" x2="162.6" y2="66.7" stroke="rgb(0,0,0)"  stroke-width="1.0"/>
<line x1="154.4" y1="64.4" x2="162.1" y2="62.3" stroke="rgb(0,0,0)"  stroke-width="1.0"/>
<line x1="110.0" y1="104.3" x2="110.0" y2="76.9" stroke="rgb(0,0,0)"  stroke-width="2.0"/>
<line x1="75.0" y1="124.5" x2="51.3" y2="110.8" stroke="rgb(0,0,0)"  stroke-width="2.0"/>
<line x1="75.0" y1="165.0" x2="51.3" y2="178.7" stroke="rgb(0,0,0)"  stroke-width="2.0"/>
<line x1="110.0" y1="185.2" x2="110.0" y2="212.6" stroke="rgb(0,0,0)"  stroke-width="2.0"/>
<line x1="167.4" y1="202.1" x2="148.0" y2="221.5" stroke="rgb(0,0,0)"  stroke-width="2.0"/>
<line x1="163.2" y1="197.9" x2="143.8" y2="217.3" stroke="rgb(0,0,0)"  stroke-width="2.0"/>
<line x1="196.9" y1="232.8" x2="189.8" y2="259.3" stroke="rgb(0,0,0)"  stroke-width="2.0"/>
<line x1="240.7" y1="220.2" x2="260.1" y2="239.6" stroke="rgb(0,0,0)"  stroke-width="2.0"/>
<line x1="240.7" y1="220.2" x2="233.6" y2="246.7" stroke="rgb(0,0,0)"  stroke-width="2.0"/>
<line x1="335.5" y1="173.4" x2="365.6" y2="146.3" stroke="rgb(0,0,0)"  stroke-width="2.0"/>
<line x1="351.0" y1="220.1" x2="374.8" y2="233.8" stroke="rgb(0,0,0)"  stroke-width="2.0"/>
<line x1="374.8" y1="233.8" x2="388.5" y2="257.6" stroke="rgb(0,0,0)"  stroke-width="2.0"/>
<line x1="374.8" y1="233.8" x2="361.0" y2="257.6" stroke="rgb(0,0,0)"  stroke-width="2.0"/>
<line x1="374.8" y1="233.8" x2="398.5" y2="220.1" stroke="rgb(0,0,0)"  stroke-width="2.0"/>
<line x1="365.6" y1="146.3" x2="386.0" y2="128.0" stroke="rgb(0,0,0)"  stroke-width="2.0"/>
<line x1="362.8" y1="143.2" x2="383.1" y2="124.8" stroke="rgb(0,0,0)"  stroke-width="2.0"/>
<line x1="368.4" y1="149.5" x2="388.8" y2="131.1" stroke="rgb(0,0,0)"  stroke-width="2.0"/>
<line x1="275.7" y1="89.5" x2="295.1" y2="70.1" stroke="rgb(0,0,0)"  stroke-width="2.0"/>
<line x1="222.2" y1="98.7" x2="195.0" y2="95.7" stroke="rgb(0,0,0)"  stroke-width="2.0"/>
<line x1="266.5" y1="143.0" x2="269.6" y2="170.3" stroke="rgb(0,0,0)"  stroke-width="2.0"/>
<line x1="174.3" y1="104.7" x2="165.8" y2="116.3" stroke="rgb(0,0,0)"  stroke-width="2.0"/>
<line x1="176.9" y1="82.3" x2="171.1" y2="69.1" stroke="rgb(0,0,0)"  stroke-width="2.0"/>
<line x1="189.8" y1="259.3" x2="170.4" y2="278.7" stroke="rgb(0,0,0)"  stroke-width="2.0"/>
<line x1="189.8" y1="259.3" x2="163.3" y2="252.2" stroke="rgb(0,0,0)"  stroke-width="2.0"/>
<line x1="189.8" y1="259.3" x2="209.2" y2="278.7" stroke="rgb(0,0,0)"  stroke-width="2.0"/>
<line x1="338.4" y1="200.7" x2="335.5" y2="173.4" stroke="rgb(0,0,0)"  stroke-width="2.0"/>
<line x1="335.5" y1="173.4" x2="296.0" y2="165.0" stroke="rgb(0,0,0)"  stroke-width="2.0"/>
<line x1="328.2" y1="179.2" x2="300.3" y2="173.3" stroke="rgb(0,0,0)"  stroke-width="2.0"/>
<line x1="296.0" y1="165.0" x2="275.7" y2="200.0" stroke="rgb(0,0,0)"  stroke-width="2.0"/>
<line x1="275.7" y1="200.0" x2="293.9" y2="220.1" stroke="rgb(0,0,0)"  stroke-width="2.0"/>
<line x1="285.1" y1="199.6" x2="297.9" y2="213.9" stroke="rgb(0,0,0)"  stroke-width="2.0"/>
<line x1="314.7" y1="224.8" x2="327.9" y2="218.9" stroke="rgb(0,0,0)"  stroke-width="2.0"/>
<line x1="110.0" y1="104.3" x2="75.0" y2="124.5" stroke="rgb(0,0,0)"  stroke-width="2.0"/>
<line x1="108.4" y1="113.6" x2="83.8" y2="127.8" stroke="rgb(0,0,0)"  stroke-width="2.0"/>
<line x1="75.0" y1="124.5" x2="75.0" y2="165.0" stroke="rgb(0,0,0)"  stroke-width="2.0"/>
<line x1="75.0" y1="165.0" x2="110.0" y2="185.2" stroke="rgb(0,0,0)"  stroke-width="2.0"/>
<line x1="83.8" y1="161.7" x2="108.4" y2="176.0" stroke="rgb(0,0,0)"  stroke-width="2.0"/>
<line x1="110.0" y1="185.2" x2="145.1" y2="165.0" stroke="rgb(0,0,0)"  stroke-width="2.0"/>
<line x1="145.1" y1="165.0" x2="145.1" y2="124.5" stroke="rgb(0,0,0)"  stroke-width="2.0"/>
<line x1="137.9" y1="159.0" x2="137.9" y2="130.5" stroke="rgb(0,0,0)"  stroke-width="2.0"/>
<line x1="145.1" y1="124.5" x2="110.0" y2="104.3" stroke="rgb(0,0,0)"  stroke-width="2.0"/>
<line x1="296.0" y1="124.5" x2="275.7" y2="89.5" stroke="rgb(0,0,0)"  stroke-width="2.0"/>
<line x1="275.7" y1="89.5" x2="240.7" y2="69.3" stroke="rgb(0,0,0)"  stroke-width="2.0"/>
<line x1="267.0" y1="92.8" x2="242.3" y2="78.5" stroke="rgb(0,0,0)"  stroke-width="2.0"/>
<line x1="240.7" y1="69.3" x2="222.2" y2="98.7" stroke="rgb(0,0,0)"  stroke-width="2.0"/>
<line x1="222.2" y1="98.7" x2="229.9" y2="120.7" stroke="rgb(0,0,0)"  stroke-width="2.0"/>
<line x1="231.0" y1="102.0" x2="235.9" y2="116.0" stroke="rgb(0,0,0)"  stroke-width="2.0"/>
<line x1="246.0" y1="135.9" x2="266.5" y2="143.0" stroke="rgb(0,0,0)"  stroke-width="2.0"/>
<line x1="266.5" y1="143.0" x2="296.0" y2="124.5" stroke="rgb(0,0,0)"  stroke-width="2.0"/>
<line x1="267.8" y1="133.8" x2="287.1" y2="121.6" stroke="rgb(0,0,0)"  stroke-width="2.0"/>
<line x1="145.1" y1="165.0" x2="165.3" y2="200.0" stroke="rgb(0,0,0)"  stroke-width="2.0"/>
<line x1="165.3" y1="200.0" x2="189.0" y2="213.7" stroke="rgb(0,0,0)"  stroke-width="2.0"/>
<line x1="213.3" y1="220.2" x2="240.7" y2="220.2" stroke="rgb(0,0,0)"  stroke-width="2.0"/>
<line x1="240.7" y1="220.2" x2="275.7" y2="200.0" stroke="rgb(0,0,0)"  stroke-width="2.0"/>
<line x1="296.0" y1="165.0" x2="296.0" y2="124.5" stroke="rgb(0,0,0)"  stroke-width="2.0"/>
<line x1="240.7" y1="69.3" x2="213.3" y2="69.3" stroke="rgb(0,0,0)"  stroke-width="2.0"/>
<line x1="189.0" y1="75.8" x2="165.3" y2="89.5" stroke="rgb(0,0,0)"  stroke-width="2.0"/>
<line x1="165.3" y1="89.5" x2="145.1" y2="124.5" stroke="rgb(0,0,0)"  stroke-width="2.0"/>
<text x="263.322285" y="256.808745" fill="rgb(191,191,191)"  stroke="rgb(191,191,191)" stroke-width="1" font-size="16" >H</text>
<text x="227.715559" y="139.556860" fill="rgb(12,12,255)"  stroke="rgb(12,12,255)" stroke-width="1" font-size="16" >N</text>
<text x="176.051352" y="102.215103" fill="rgb(12,12,255)"  stroke="rgb(12,12,255)" stroke-width="1" font-size="16" >N</text>
<text x="194.293323" y="77.305950" fill="rgb(255,12,12)"  stroke="rgb(255,12,12)" stroke-width="1" font-size="16" >O</text>
<text x="34.000000" y="112.324752" fill="rgb(127,178,255)"  stroke="rgb(127,178,255)" stroke-width="1" font-size="16" >F</text>
<text x="81.157724" y="97.524065" fill="rgb(191,191,191)"  stroke="rgb(191,191,191)" stroke-width="1" font-size="16" >H</text>
<text x="109.750456" y="126.116797" fill="rgb(191,191,191)"  stroke="rgb(191,191,191)" stroke-width="1" font-size="16" >H</text>
<text x="109.750456" y="48.000000" fill="rgb(191,191,191)"  stroke="rgb(191,191,191)" stroke-width="1" font-size="16" >H</text>
<text x="104.037604" y="71.888522" fill="rgb(191,191,191)"  stroke="rgb(191,191,191)" stroke-width="1" font-size="16" >H</text>
<text x="34.000000" y="193.197211" fill="rgb(191,191,191)"  stroke="rgb(191,191,191)" stroke-width="1" font-size="16" >H</text>
<text x="104.037604" y="233.633441" fill="rgb(191,191,191)"  stroke="rgb(191,191,191)" stroke-width="1" font-size="16" >H</text>
<text x="224.263886" y="267.274412" fill="rgb(191,191,191)"  stroke="rgb(191,191,191)" stroke-width="1" font-size="16" >H</text>
<text x="388.982724" y="276.837894" fill="rgb(191,191,191)"  stroke="rgb(191,191,191)" stroke-width="1" font-size="16" >H</text>
<text x="348.546494" y="276.837894" fill="rgb(191,191,191)"  stroke="rgb(191,191,191)" stroke-width="1" font-size="16" >H</text>
<text x="403.783411" y="221.600977" fill="rgb(191,191,191)"  stroke="rgb(191,191,191)" stroke-width="1" font-size="16" >H</text>
<text x="298.341087" y="68.931333" fill="rgb(191,191,191)"  stroke="rgb(191,191,191)" stroke-width="1" font-size="16" >H</text>
<text x="265.057316" y="191.221067" fill="rgb(191,191,191)"  stroke="rgb(191,191,191)" stroke-width="1" font-size="16" >H</text>
<text x="152.039503" y="134.750004" fill="rgb(191,191,191)"  stroke="rgb(191,191,191)" stroke-width="1" font-size="16" >H</text>
<text x="159.881226" y="65.152781" fill="rgb(191,191,191)"  stroke="rgb(191,191,191)" stroke-width="1" font-size="16" >H</text>
<text x="155.234924" y="295.867144" fill="rgb(191,191,191)"  stroke="rgb(191,191,191)" stroke-width="1" font-size="16" >H</text>
<text x="144.769258" y="256.808745" fill="rgb(191,191,191)"  stroke="rgb(191,191,191)" stroke-width="1" font-size="16" >H</text>
<text x="212.420389" y="295.867144" fill="rgb(191,191,191)"  stroke="rgb(191,191,191)" stroke-width="1" font-size="16" >H</text>
<text x="148.808855" y="58.465666" fill="rgb(191,191,191)"  stroke="rgb(191,191,191)" stroke-width="1" font-size="16" >H</text>
<text x="130.681789" y="236.590631" fill="rgb(255,12,12)"  stroke="rgb(255,12,12)" stroke-width="1" font-size="16" >O</text>
<text x="194.293323" y="228.216013" fill="rgb(12,12,255)"  stroke="rgb(12,12,255)" stroke-width="1" font-size="16" >N</text>
<text x="333.745807" y="221.600977" fill="rgb(12,12,255)"  stroke="rgb(12,12,255)" stroke-width="1" font-size="16" >N</text>
<text x="296.805473" y="238.047873" fill="rgb(12,12,255)"  stroke="rgb(12,12,255)" stroke-width="1" font-size="16" >N</text>
<text x="389.619020" y="127.272024" fill="rgb(12,12,255)"  stroke="rgb(12,12,255)" stroke-width="1" font-size="16" >N</text>
</svg>
</g>
<text font-size="18.000000" fill ="black" font-family="sans-serif"
x="10.000000" y="20.000000" >ZINC98208524</text>
</svg>
