<?xml version="1.0"?>
<svg version="1.1" id="topsvg"
xmlns="http://www.w3.org/2000/svg" xmlns:xlink="http://www.w3.org/1999/xlink"
xmlns:cml="http://www.xml-cml.org/schema" x="0" y="0" width="200px" height="200px" viewBox="0 0 100 100">
<title>ZINC98366256 - Open Babel Depiction</title>
<rect x="0" y="0" width="100" height="100" fill="white"/>
<g transform="translate(0,0)">
<svg width="100" height="100" x="0" y="0" viewBox="0 0 530.326 313.716"
font-family="sans-serif" stroke="rgb(0,0,0)" stroke-width="2"  stroke-linecap="round">
<line x1="79.1" y1="73.8" x2="79.1" y2="99.9" stroke="rgb(0,0,0)"  stroke-width="2.0"/>
<line x1="79.1" y1="73.8" x2="66.0" y2="51.3" stroke="rgb(0,0,0)"  stroke-width="2.0"/>
<line x1="79.1" y1="73.8" x2="53.0" y2="73.8" stroke="rgb(0,0,0)"  stroke-width="2.0"/>
<line x1="79.1" y1="73.8" x2="101.6" y2="60.8" stroke="rgb(0,0,0)"  stroke-width="2.0"/>
<line x1="90.3" y1="119.4" x2="112.9" y2="132.4" stroke="rgb(0,0,0)"  stroke-width="2.0"/>
<line x1="112.9" y1="171.5" x2="90.3" y2="184.5" stroke="rgb(0,0,0)"  stroke-width="2.0"/>
<line x1="146.7" y1="191.0" x2="146.7" y2="217.1" stroke="rgb(0,0,0)"  stroke-width="2.0"/>
<line x1="180.6" y1="171.5" x2="214.4" y2="191.0" stroke="rgb(0,0,0)"  stroke-width="2.0"/>
<line x1="180.6" y1="132.4" x2="203.2" y2="119.4" stroke="rgb(0,0,0)"  stroke-width="2.0"/>
<line x1="146.7" y1="112.9" x2="146.7" y2="86.8" stroke="rgb(0,0,0)"  stroke-width="2.0"/>
<line x1="218.5" y1="229.9" x2="199.1" y2="247.3" stroke="rgb(0,0,0)"  stroke-width="2.0"/>
<line x1="262.0" y1="249.9" x2="267.3" y2="261.8" stroke="rgb(0,0,0)"  stroke-width="2.0"/>
<line x1="289.2" y1="202.8" x2="315.1" y2="200.1" stroke="rgb(0,0,0)"  stroke-width="2.0"/>
<line x1="250.1" y1="175.2" x2="263.6" y2="111.4" stroke="rgb(0,0,0)"  stroke-width="2.0"/>
<line x1="278.7" y1="94.7" x2="291.1" y2="90.7" stroke="rgb(0,0,0)"  stroke-width="2.0"/>
<line x1="256.7" y1="90.0" x2="247.0" y2="81.3" stroke="rgb(0,0,0)"  stroke-width="2.0"/>
<line x1="338.1" y1="231.7" x2="327.5" y2="255.5" stroke="rgb(0,0,0)"  stroke-width="2.0"/>
<line x1="376.9" y1="227.6" x2="392.2" y2="248.7" stroke="rgb(0,0,0)"  stroke-width="2.0"/>
<line x1="392.8" y1="191.9" x2="418.7" y2="189.2" stroke="rgb(0,0,0)"  stroke-width="2.0"/>
<line x1="369.8" y1="160.3" x2="380.5" y2="136.5" stroke="rgb(0,0,0)"  stroke-width="2.0"/>
<line x1="331.0" y1="164.4" x2="315.7" y2="143.3" stroke="rgb(0,0,0)"  stroke-width="2.0"/>
<line x1="439.3" y1="198.4" x2="454.6" y2="219.5" stroke="rgb(0,0,0)"  stroke-width="2.0"/>
<line x1="454.6" y1="219.5" x2="478.4" y2="230.1" stroke="rgb(0,0,0)"  stroke-width="2.0"/>
<line x1="454.6" y1="219.5" x2="475.7" y2="204.1" stroke="rgb(0,0,0)"  stroke-width="2.0"/>
<line x1="454.6" y1="219.5" x2="444.0" y2="243.3" stroke="rgb(0,0,0)"  stroke-width="2.0"/>
<line x1="263.2" y1="226.8" x2="269.7" y2="215.4" stroke="rgb(0,0,0)"  stroke-width="2.0"/>
<line x1="267.5" y1="194.5" x2="250.1" y2="175.2" stroke="rgb(0,0,0)"  stroke-width="2.0"/>
<line x1="250.1" y1="175.2" x2="214.4" y2="191.0" stroke="rgb(0,0,0)"  stroke-width="2.0"/>
<line x1="247.6" y1="184.2" x2="222.8" y2="195.2" stroke="rgb(0,0,0)"  stroke-width="2.0"/>
<line x1="214.4" y1="191.0" x2="218.5" y2="229.9" stroke="rgb(0,0,0)"  stroke-width="2.0"/>
<line x1="218.5" y1="229.9" x2="244.1" y2="235.3" stroke="rgb(0,0,0)"  stroke-width="2.0"/>
<line x1="225.9" y1="224.1" x2="243.5" y2="227.9" stroke="rgb(0,0,0)"  stroke-width="2.0"/>
<line x1="146.7" y1="191.0" x2="180.6" y2="171.5" stroke="rgb(0,0,0)"  stroke-width="2.0"/>
<line x1="180.6" y1="171.5" x2="180.6" y2="132.4" stroke="rgb(0,0,0)"  stroke-width="2.0"/>
<line x1="173.4" y1="165.5" x2="173.4" y2="138.4" stroke="rgb(0,0,0)"  stroke-width="2.0"/>
<line x1="180.6" y1="132.4" x2="146.7" y2="112.9" stroke="rgb(0,0,0)"  stroke-width="2.0"/>
<line x1="146.7" y1="112.9" x2="112.9" y2="132.4" stroke="rgb(0,0,0)"  stroke-width="2.0"/>
<line x1="145.1" y1="122.1" x2="121.7" y2="135.7" stroke="rgb(0,0,0)"  stroke-width="2.0"/>
<line x1="112.9" y1="132.4" x2="112.9" y2="171.5" stroke="rgb(0,0,0)"  stroke-width="2.0"/>
<line x1="112.9" y1="171.5" x2="146.7" y2="191.0" stroke="rgb(0,0,0)"  stroke-width="2.0"/>
<line x1="121.7" y1="168.3" x2="145.1" y2="181.8" stroke="rgb(0,0,0)"  stroke-width="2.0"/>
<line x1="376.9" y1="227.6" x2="392.8" y2="191.9" stroke="rgb(0,0,0)"  stroke-width="2.0"/>
<line x1="392.8" y1="191.9" x2="369.8" y2="160.3" stroke="rgb(0,0,0)"  stroke-width="2.0"/>
<line x1="383.5" y1="191.3" x2="367.6" y2="169.4" stroke="rgb(0,0,0)"  stroke-width="2.0"/>
<line x1="369.8" y1="160.3" x2="331.0" y2="164.4" stroke="rgb(0,0,0)"  stroke-width="2.0"/>
<line x1="331.0" y1="164.4" x2="315.1" y2="200.1" stroke="rgb(0,0,0)"  stroke-width="2.0"/>
<line x1="335.1" y1="172.8" x2="324.1" y2="197.6" stroke="rgb(0,0,0)"  stroke-width="2.0"/>
<line x1="315.1" y1="200.1" x2="338.1" y2="231.7" stroke="rgb(0,0,0)"  stroke-width="2.0"/>
<line x1="338.1" y1="231.7" x2="376.9" y2="227.6" stroke="rgb(0,0,0)"  stroke-width="2.0"/>
<line x1="343.3" y1="223.9" x2="370.2" y2="221.1" stroke="rgb(0,0,0)"  stroke-width="2.0"/>
<text x="297.507100" y="94.648387" fill="rgb(191,191,191)"  stroke="rgb(191,191,191)" stroke-width="1" font-size="16" >H</text>
<text x="53.534884" y="48.000000" fill="rgb(191,191,191)"  stroke="rgb(191,191,191)" stroke-width="1" font-size="16" >H</text>
<text x="34.000000" y="81.835411" fill="rgb(191,191,191)"  stroke="rgb(191,191,191)" stroke-width="1" font-size="16" >H</text>
<text x="106.905179" y="62.300527" fill="rgb(191,191,191)"  stroke="rgb(191,191,191)" stroke-width="1" font-size="16" >H</text>
<text x="73.069767" y="199.044713" fill="rgb(191,191,191)"  stroke="rgb(191,191,191)" stroke-width="1" font-size="16" >H</text>
<text x="140.740590" y="238.114481" fill="rgb(191,191,191)"  stroke="rgb(191,191,191)" stroke-width="1" font-size="16" >H</text>
<text x="208.411412" y="120.905179" fill="rgb(191,191,191)"  stroke="rgb(191,191,191)" stroke-width="1" font-size="16" >H</text>
<text x="140.740590" y="81.835411" fill="rgb(191,191,191)"  stroke="rgb(191,191,191)" stroke-width="1" font-size="16" >H</text>
<text x="183.460819" y="264.043230" fill="rgb(191,191,191)"  stroke="rgb(191,191,191)" stroke-width="1" font-size="16" >H</text>
<text x="425.669154" y="195.852492" fill="rgb(255,12,12)"  stroke="rgb(255,12,12)" stroke-width="1" font-size="16" >O</text>
<text x="231.315048" y="80.578832" fill="rgb(191,191,191)"  stroke="rgb(191,191,191)" stroke-width="1" font-size="16" >H</text>
<text x="316.175464" y="275.404315" fill="rgb(191,191,191)"  stroke="rgb(191,191,191)" stroke-width="1" font-size="16" >H</text>
<text x="393.886942" y="267.236509" fill="rgb(191,191,191)"  stroke="rgb(191,191,191)" stroke-width="1" font-size="16" >H</text>
<text x="379.739888" y="132.636280" fill="rgb(191,191,191)"  stroke="rgb(191,191,191)" stroke-width="1" font-size="16" >H</text>
<text x="302.028410" y="140.804086" fill="rgb(191,191,191)"  stroke="rgb(191,191,191)" stroke-width="1" font-size="16" >H</text>
<text x="484.325796" y="243.351704" fill="rgb(191,191,191)"  stroke="rgb(191,191,191)" stroke-width="1" font-size="16" >H</text>
<text x="480.241893" y="204.495965" fill="rgb(191,191,191)"  stroke="rgb(191,191,191)" stroke-width="1" font-size="16" >H</text>
<text x="432.742681" y="263.152606" fill="rgb(191,191,191)"  stroke="rgb(191,191,191)" stroke-width="1" font-size="16" >H</text>
<text x="266.602420" y="281.715523" fill="rgb(191,191,191)"  stroke="rgb(191,191,191)" stroke-width="1" font-size="16" >H</text>
<text x="250.711314" y="246.023514" fill="rgb(12,12,255)"  stroke="rgb(12,12,255)" stroke-width="1" font-size="16" >N</text>
<text x="73.069767" y="120.905179" fill="rgb(255,12,12)"  stroke="rgb(255,12,12)" stroke-width="1" font-size="16" >O</text>
<text x="270.246198" y="212.188103" fill="rgb(12,12,255)"  stroke="rgb(12,12,255)" stroke-width="1" font-size="16" >N</text>
<text x="260.349543" y="106.721609" fill="rgb(12,12,255)"  stroke="rgb(12,12,255)" stroke-width="1" font-size="16" >N</text>
</svg>
</g>
<text font-size="18.000000" fill ="black" font-family="sans-serif"
x="10.000000" y="20.000000" >ZINC98366256</text>
</svg>
