<?xml version="1.0"?>
<svg version="1.1" id="topsvg"
xmlns="http://www.w3.org/2000/svg" xmlns:xlink="http://www.w3.org/1999/xlink"
xmlns:cml="http://www.xml-cml.org/schema" x="0" y="0" width="200px" height="200px" viewBox="0 0 100 100">
<title>ZINC13298720 - Open Babel Depiction</title>
<rect x="0" y="0" width="100" height="100" fill="white"/>
<g transform="translate(0,0)">
<svg width="100" height="100" x="0" y="0" viewBox="0 0 331.48 297.936"
font-family="sans-serif" stroke="rgb(0,0,0)" stroke-width="2"  stroke-linecap="round">
<line x1="252.0" y1="87.7" x2="216.4" y2="78.1" stroke="rgb(0,0,0)"  stroke-width="2.0"/>
<line x1="252.0" y1="87.7" x2="275.0" y2="81.5" stroke="rgb(0,0,0)"  stroke-width="2.0"/>
<line x1="252.0" y1="87.7" x2="258.2" y2="64.6" stroke="rgb(0,0,0)"  stroke-width="2.0"/>
<line x1="252.0" y1="87.7" x2="258.2" y2="110.7" stroke="rgb(0,0,0)"  stroke-width="2.0"/>
<line x1="216.4" y1="78.1" x2="190.4" y2="104.2" stroke="rgb(0,0,0)"  stroke-width="2.0"/>
<line x1="216.4" y1="78.1" x2="199.6" y2="61.3" stroke="rgb(0,0,0)"  stroke-width="2.0"/>
<line x1="216.4" y1="78.1" x2="222.6" y2="55.1" stroke="rgb(0,0,0)"  stroke-width="2.0"/>
<line x1="190.4" y1="104.2" x2="154.8" y2="94.7" stroke="rgb(0,0,0)"  stroke-width="2.0"/>
<line x1="190.4" y1="104.2" x2="184.2" y2="127.2" stroke="rgb(0,0,0)"  stroke-width="2.0"/>
<line x1="190.4" y1="104.2" x2="207.2" y2="121.1" stroke="rgb(0,0,0)"  stroke-width="2.0"/>
<line x1="155.3" y1="89.7" x2="156.8" y2="90.1" stroke="rgb(0,0,0)"  stroke-width="1.0"/>
<line x1="155.7" y1="85.7" x2="158.5" y2="86.4" stroke="rgb(0,0,0)"  stroke-width="1.0"/>
<line x1="156.1" y1="81.7" x2="160.1" y2="82.8" stroke="rgb(0,0,0)"  stroke-width="1.0"/>
<line x1="156.5" y1="77.7" x2="161.8" y2="79.1" stroke="rgb(0,0,0)"  stroke-width="1.0"/>
<line x1="156.9" y1="73.8" x2="163.4" y2="75.5" stroke="rgb(0,0,0)"  stroke-width="1.0"/>
<line x1="157.3" y1="69.8" x2="165.0" y2="71.8" stroke="rgb(0,0,0)"  stroke-width="1.0"/>
<line x1="154.8" y1="94.7" x2="83.6" y2="75.6" stroke="rgb(0,0,0)"  stroke-width="2.0"/>
<line x1="154.8" y1="94.7" x2="135.7" y2="165.8" stroke="rgb(0,0,0)"  stroke-width="2.0"/>
<line x1="83.6" y1="75.6" x2="60.6" y2="81.8" stroke="rgb(0,0,0)"  stroke-width="2.0"/>
<line x1="83.6" y1="75.6" x2="77.4" y2="98.6" stroke="rgb(0,0,0)"  stroke-width="2.0"/>
<line x1="83.6" y1="75.6" x2="77.4" y2="52.6" stroke="rgb(0,0,0)"  stroke-width="2.0"/>
<line x1="135.7" y1="165.8" x2="194.2" y2="210.7" stroke="rgb(0,0,0)"  stroke-width="2.0"/>
<line x1="137.2" y1="200.1" x2="157.9" y2="212.0" stroke="rgb(0,0,0)"  stroke-width="2.0"/>
<line x1="134.2" y1="205.3" x2="154.9" y2="217.2" stroke="rgb(0,0,0)"  stroke-width="2.0"/>
<line x1="103.8" y1="234.1" x2="103.8" y2="244.9" stroke="rgb(0,0,0)"  stroke-width="2.0"/>
<line x1="73.4" y1="205.3" x2="52.8" y2="217.2" stroke="rgb(0,0,0)"  stroke-width="2.0"/>
<line x1="70.4" y1="200.1" x2="49.8" y2="212.0" stroke="rgb(0,0,0)"  stroke-width="2.0"/>
<line x1="60.6" y1="159.3" x2="51.3" y2="153.9" stroke="rgb(0,0,0)"  stroke-width="2.0"/>
<line x1="100.8" y1="147.4" x2="100.8" y2="123.6" stroke="rgb(0,0,0)"  stroke-width="2.0"/>
<line x1="106.8" y1="147.4" x2="106.8" y2="123.6" stroke="rgb(0,0,0)"  stroke-width="2.0"/>
<line x1="194.2" y1="210.7" x2="228.2" y2="196.6" stroke="rgb(0,0,0)"  stroke-width="2.0"/>
<line x1="194.2" y1="210.7" x2="203.3" y2="232.7" stroke="rgb(0,0,0)"  stroke-width="2.0"/>
<line x1="194.2" y1="210.7" x2="179.7" y2="229.6" stroke="rgb(0,0,0)"  stroke-width="2.0"/>
<line x1="230.0" y1="194.2" x2="259.3" y2="216.6" stroke="rgb(0,0,0)"  stroke-width="2.0"/>
<line x1="226.4" y1="199.0" x2="255.6" y2="221.4" stroke="rgb(0,0,0)"  stroke-width="2.0"/>
<line x1="228.2" y1="196.6" x2="231.3" y2="173.0" stroke="rgb(0,0,0)"  stroke-width="2.0"/>
<line x1="257.4" y1="219.0" x2="254.3" y2="242.7" stroke="rgb(0,0,0)"  stroke-width="2.0"/>
<line x1="257.4" y1="219.0" x2="279.5" y2="209.9" stroke="rgb(0,0,0)"  stroke-width="2.0"/>
<line x1="135.7" y1="202.7" x2="135.7" y2="165.8" stroke="rgb(0,0,0)"  stroke-width="2.0"/>
<line x1="135.7" y1="165.8" x2="103.8" y2="147.4" stroke="rgb(0,0,0)"  stroke-width="2.0"/>
<line x1="103.8" y1="147.4" x2="83.2" y2="159.3" stroke="rgb(0,0,0)"  stroke-width="2.0"/>
<line x1="71.9" y1="178.8" x2="71.9" y2="202.7" stroke="rgb(0,0,0)"  stroke-width="2.0"/>
<line x1="71.9" y1="202.7" x2="92.6" y2="214.6" stroke="rgb(0,0,0)"  stroke-width="2.0"/>
<line x1="115.1" y1="214.6" x2="135.7" y2="202.7" stroke="rgb(0,0,0)"  stroke-width="2.0"/>
<text x="68.080554" y="119.173482" fill="rgb(191,191,191)"  stroke="rgb(191,191,191)" stroke-width="1" font-size="16" >H</text>
<text x="281.601000" y="86.141754" fill="rgb(191,191,191)"  stroke="rgb(191,191,191)" stroke-width="1" font-size="16" >H</text>
<text x="255.549697" y="60.090452" fill="rgb(191,191,191)"  stroke="rgb(191,191,191)" stroke-width="1" font-size="16" >H</text>
<text x="255.549697" y="131.263933" fill="rgb(191,191,191)"  stroke="rgb(191,191,191)" stroke-width="1" font-size="16" >H</text>
<text x="184.376215" y="60.090452" fill="rgb(191,191,191)"  stroke="rgb(191,191,191)" stroke-width="1" font-size="16" >H</text>
<text x="219.962956" y="50.555013" fill="rgb(191,191,191)"  stroke="rgb(191,191,191)" stroke-width="1" font-size="16" >H</text>
<text x="174.840777" y="147.779797" fill="rgb(191,191,191)"  stroke="rgb(191,191,191)" stroke-width="1" font-size="16" >H</text>
<text x="210.427518" y="138.244359" fill="rgb(191,191,191)"  stroke="rgb(191,191,191)" stroke-width="1" font-size="16" >H</text>
<text x="42.029251" y="93.122179" fill="rgb(191,191,191)"  stroke="rgb(191,191,191)" stroke-width="1" font-size="16" >H</text>
<text x="68.080554" y="48.000000" fill="rgb(191,191,191)"  stroke="rgb(191,191,191)" stroke-width="1" font-size="16" >H</text>
<text x="34.000000" y="155.410047" fill="rgb(191,191,191)"  stroke="rgb(191,191,191)" stroke-width="1" font-size="16" >H</text>
<text x="202.275075" y="252.724872" fill="rgb(191,191,191)"  stroke="rgb(191,191,191)" stroke-width="1" font-size="16" >H</text>
<text x="165.748159" y="247.916012" fill="rgb(191,191,191)"  stroke="rgb(191,191,191)" stroke-width="1" font-size="16" >H</text>
<text x="227.022739" y="168.061426" fill="rgb(191,191,191)"  stroke="rgb(191,191,191)" stroke-width="1" font-size="16" >H</text>
<text x="246.633826" y="263.543311" fill="rgb(191,191,191)"  stroke="rgb(191,191,191)" stroke-width="1" font-size="16" >H</text>
<text x="285.480353" y="212.917531" fill="rgb(191,191,191)"  stroke="rgb(191,191,191)" stroke-width="1" font-size="16" >H</text>
<text x="97.812398" y="265.936363" fill="rgb(191,191,191)"  stroke="rgb(191,191,191)" stroke-width="1" font-size="16" >H</text>
<text x="97.812398" y="229.094258" fill="rgb(12,12,255)"  stroke="rgb(12,12,255)" stroke-width="1" font-size="16" >N</text>
<text x="158.324913" y="67.070877" fill="rgb(191,191,191)"  stroke="rgb(191,191,191)" stroke-width="1" font-size="16" >H</text>
<text x="161.624796" y="229.094258" fill="rgb(255,12,12)"  stroke="rgb(255,12,12)" stroke-width="1" font-size="16" >O</text>
<text x="65.906199" y="173.831100" fill="rgb(12,12,255)"  stroke="rgb(12,12,255)" stroke-width="1" font-size="16" >N</text>
<text x="97.812398" y="118.567942" fill="rgb(255,12,12)"  stroke="rgb(255,12,12)" stroke-width="1" font-size="16" >O</text>
<text x="34.000000" y="229.094258" fill="rgb(178,178,0)"  stroke="rgb(178,178,0)" stroke-width="1" font-size="16" >S</text>
</svg>
</g>
<text font-size="18.000000" fill ="black" font-family="sans-serif"
x="10.000000" y="20.000000" >ZINC13298720</text>
</svg>
