<?xml version="1.0"?>
<svg version="1.1" id="topsvg"
xmlns="http://www.w3.org/2000/svg" xmlns:xlink="http://www.w3.org/1999/xlink"
xmlns:cml="http://www.xml-cml.org/schema" x="0" y="0" width="200px" height="200px" viewBox="0 0 100 100">
<title>ZINC71773446 - Open Babel Depiction</title>
<rect x="0" y="0" width="100" height="100" fill="white"/>
<g transform="translate(0,0)">
<svg width="100" height="100" x="0" y="0" viewBox="0 0 375.916 454.575"
font-family="sans-serif" stroke="rgb(0,0,0)" stroke-width="2"  stroke-linecap="round">
<line x1="237.3" y1="267.8" x2="204.4" y2="248.8" stroke="rgb(0,0,0)"  stroke-width="2.0"/>
<line x1="237.3" y1="267.8" x2="262.2" y2="267.8" stroke="rgb(0,0,0)"  stroke-width="2.0"/>
<line x1="237.3" y1="267.8" x2="249.8" y2="246.2" stroke="rgb(0,0,0)"  stroke-width="2.0"/>
<line x1="237.3" y1="267.8" x2="237.3" y2="292.8" stroke="rgb(0,0,0)"  stroke-width="2.0"/>
<line x1="201.4" y1="248.8" x2="201.4" y2="172.9" stroke="rgb(0,0,0)"  stroke-width="2.0"/>
<line x1="207.4" y1="248.8" x2="207.4" y2="172.9" stroke="rgb(0,0,0)"  stroke-width="2.0"/>
<line x1="204.4" y1="248.8" x2="182.8" y2="261.3" stroke="rgb(0,0,0)"  stroke-width="2.0"/>
<line x1="204.4" y1="172.9" x2="237.3" y2="153.9" stroke="rgb(0,0,0)"  stroke-width="2.0"/>
<line x1="204.4" y1="172.9" x2="138.6" y2="134.9" stroke="rgb(0,0,0)"  stroke-width="2.0"/>
<line x1="270.2" y1="172.9" x2="270.2" y2="197.8" stroke="rgb(0,0,0)"  stroke-width="2.0"/>
<line x1="303.0" y1="153.9" x2="324.7" y2="166.4" stroke="rgb(0,0,0)"  stroke-width="2.0"/>
<line x1="303.0" y1="115.9" x2="324.7" y2="103.4" stroke="rgb(0,0,0)"  stroke-width="2.0"/>
<line x1="270.2" y1="96.9" x2="270.2" y2="72.0" stroke="rgb(0,0,0)"  stroke-width="2.0"/>
<line x1="237.3" y1="115.9" x2="215.7" y2="103.4" stroke="rgb(0,0,0)"  stroke-width="2.0"/>
<line x1="138.6" y1="96.9" x2="160.3" y2="84.5" stroke="rgb(0,0,0)"  stroke-width="2.0"/>
<line x1="105.8" y1="78.0" x2="105.8" y2="53.0" stroke="rgb(0,0,0)"  stroke-width="2.0"/>
<line x1="72.9" y1="96.9" x2="51.3" y2="84.5" stroke="rgb(0,0,0)"  stroke-width="2.0"/>
<line x1="72.9" y1="134.9" x2="51.3" y2="147.4" stroke="rgb(0,0,0)"  stroke-width="2.0"/>
<line x1="105.8" y1="153.9" x2="105.8" y2="178.9" stroke="rgb(0,0,0)"  stroke-width="2.0"/>
<line x1="171.5" y1="280.8" x2="171.5" y2="343.7" stroke="rgb(0,0,0)"  stroke-width="2.0"/>
<line x1="160.3" y1="261.3" x2="138.6" y2="248.8" stroke="rgb(0,0,0)"  stroke-width="2.0"/>
<line x1="171.5" y1="343.7" x2="209.5" y2="343.7" stroke="rgb(0,0,0)"  stroke-width="2.0"/>
<line x1="171.5" y1="343.7" x2="171.5" y2="381.7" stroke="rgb(0,0,0)"  stroke-width="2.0"/>
<line x1="171.5" y1="343.7" x2="133.6" y2="343.7" stroke="rgb(0,0,0)"  stroke-width="2.0"/>
<line x1="209.5" y1="343.7" x2="231.1" y2="356.2" stroke="rgb(0,0,0)"  stroke-width="2.0"/>
<line x1="209.5" y1="343.7" x2="209.5" y2="368.7" stroke="rgb(0,0,0)"  stroke-width="2.0"/>
<line x1="209.5" y1="343.7" x2="222.0" y2="322.1" stroke="rgb(0,0,0)"  stroke-width="2.0"/>
<line x1="171.5" y1="381.7" x2="159.0" y2="403.3" stroke="rgb(0,0,0)"  stroke-width="2.0"/>
<line x1="171.5" y1="381.7" x2="146.6" y2="381.7" stroke="rgb(0,0,0)"  stroke-width="2.0"/>
<line x1="171.5" y1="381.7" x2="193.1" y2="394.2" stroke="rgb(0,0,0)"  stroke-width="2.0"/>
<line x1="133.6" y1="343.7" x2="111.9" y2="331.2" stroke="rgb(0,0,0)"  stroke-width="2.0"/>
<line x1="133.6" y1="343.7" x2="133.6" y2="318.8" stroke="rgb(0,0,0)"  stroke-width="2.0"/>
<line x1="133.6" y1="343.7" x2="121.1" y2="365.4" stroke="rgb(0,0,0)"  stroke-width="2.0"/>
<line x1="138.6" y1="248.8" x2="119.7" y2="281.7" stroke="rgb(0,0,0)"  stroke-width="2.0"/>
<line x1="138.6" y1="248.8" x2="105.8" y2="229.8" stroke="rgb(0,0,0)"  stroke-width="2.0"/>
<line x1="138.6" y1="248.8" x2="157.6" y2="215.9" stroke="rgb(0,0,0)"  stroke-width="2.0"/>
<line x1="119.7" y1="281.7" x2="119.7" y2="306.7" stroke="rgb(0,0,0)"  stroke-width="2.0"/>
<line x1="119.7" y1="281.7" x2="141.3" y2="294.2" stroke="rgb(0,0,0)"  stroke-width="2.0"/>
<line x1="119.7" y1="281.7" x2="94.7" y2="281.7" stroke="rgb(0,0,0)"  stroke-width="2.0"/>
<line x1="105.8" y1="229.8" x2="93.3" y2="208.2" stroke="rgb(0,0,0)"  stroke-width="2.0"/>
<line x1="105.8" y1="229.8" x2="118.2" y2="208.2" stroke="rgb(0,0,0)"  stroke-width="2.0"/>
<line x1="105.8" y1="229.8" x2="84.1" y2="242.3" stroke="rgb(0,0,0)"  stroke-width="2.0"/>
<line x1="157.6" y1="215.9" x2="179.2" y2="203.5" stroke="rgb(0,0,0)"  stroke-width="2.0"/>
<line x1="157.6" y1="215.9" x2="179.2" y2="228.4" stroke="rgb(0,0,0)"  stroke-width="2.0"/>
<line x1="157.6" y1="215.9" x2="145.1" y2="194.3" stroke="rgb(0,0,0)"  stroke-width="2.0"/>
<line x1="303.0" y1="153.9" x2="303.0" y2="115.9" stroke="rgb(0,0,0)"  stroke-width="2.0"/>
<line x1="303.0" y1="115.9" x2="270.2" y2="96.9" stroke="rgb(0,0,0)"  stroke-width="2.0"/>
<line x1="294.2" y1="119.2" x2="271.8" y2="106.2" stroke="rgb(0,0,0)"  stroke-width="2.0"/>
<line x1="270.2" y1="96.9" x2="237.3" y2="115.9" stroke="rgb(0,0,0)"  stroke-width="2.0"/>
<line x1="237.3" y1="115.9" x2="237.3" y2="153.9" stroke="rgb(0,0,0)"  stroke-width="2.0"/>
<line x1="244.5" y1="121.9" x2="244.5" y2="147.9" stroke="rgb(0,0,0)"  stroke-width="2.0"/>
<line x1="237.3" y1="153.9" x2="270.2" y2="172.9" stroke="rgb(0,0,0)"  stroke-width="2.0"/>
<line x1="270.2" y1="172.9" x2="303.0" y2="153.9" stroke="rgb(0,0,0)"  stroke-width="2.0"/>
<line x1="271.8" y1="163.6" x2="294.2" y2="150.7" stroke="rgb(0,0,0)"  stroke-width="2.0"/>
<line x1="105.8" y1="78.0" x2="72.9" y2="96.9" stroke="rgb(0,0,0)"  stroke-width="2.0"/>
<line x1="72.9" y1="96.9" x2="72.9" y2="134.9" stroke="rgb(0,0,0)"  stroke-width="2.0"/>
<line x1="80.1" y1="102.9" x2="80.1" y2="128.9" stroke="rgb(0,0,0)"  stroke-width="2.0"/>
<line x1="72.9" y1="134.9" x2="105.8" y2="153.9" stroke="rgb(0,0,0)"  stroke-width="2.0"/>
<line x1="105.8" y1="153.9" x2="138.6" y2="134.9" stroke="rgb(0,0,0)"  stroke-width="2.0"/>
<line x1="107.4" y1="144.7" x2="129.8" y2="131.7" stroke="rgb(0,0,0)"  stroke-width="2.0"/>
<line x1="138.6" y1="134.9" x2="138.6" y2="96.9" stroke="rgb(0,0,0)"  stroke-width="2.0"/>
<line x1="138.6" y1="96.9" x2="105.8" y2="78.0" stroke="rgb(0,0,0)"  stroke-width="2.0"/>
<line x1="129.8" y1="100.2" x2="107.4" y2="87.2" stroke="rgb(0,0,0)"  stroke-width="2.0"/>
<text x="127.552333" y="389.694915" fill="rgb(191,191,191)"  stroke="rgb(191,191,191)" stroke-width="1" font-size="16" >H</text>
<text x="329.916477" y="180.881356" fill="rgb(191,191,191)"  stroke="rgb(191,191,191)" stroke-width="1" font-size="16" >H</text>
<text x="329.916477" y="104.949153" fill="rgb(191,191,191)"  stroke="rgb(191,191,191)" stroke-width="1" font-size="16" >H</text>
<text x="264.157260" y="66.983051" fill="rgb(191,191,191)"  stroke="rgb(191,191,191)" stroke-width="1" font-size="16" >H</text>
<text x="198.398043" y="104.949153" fill="rgb(191,191,191)"  stroke="rgb(191,191,191)" stroke-width="1" font-size="16" >H</text>
<text x="165.518434" y="85.966102" fill="rgb(191,191,191)"  stroke="rgb(191,191,191)" stroke-width="1" font-size="16" >H</text>
<text x="99.759217" y="48.000000" fill="rgb(191,191,191)"  stroke="rgb(191,191,191)" stroke-width="1" font-size="16" >H</text>
<text x="34.000000" y="85.966102" fill="rgb(191,191,191)"  stroke="rgb(191,191,191)" stroke-width="1" font-size="16" >H</text>
<text x="34.000000" y="161.898305" fill="rgb(191,191,191)"  stroke="rgb(191,191,191)" stroke-width="1" font-size="16" >H</text>
<text x="99.759217" y="199.864407" fill="rgb(191,191,191)"  stroke="rgb(191,191,191)" stroke-width="1" font-size="16" >H</text>
<text x="236.364144" y="370.711864" fill="rgb(191,191,191)"  stroke="rgb(191,191,191)" stroke-width="1" font-size="16" >H</text>
<text x="203.484536" y="389.694915" fill="rgb(191,191,191)"  stroke="rgb(191,191,191)" stroke-width="1" font-size="16" >H</text>
<text x="222.467587" y="318.849205" fill="rgb(191,191,191)"  stroke="rgb(191,191,191)" stroke-width="1" font-size="16" >H</text>
<text x="146.535383" y="422.574524" fill="rgb(191,191,191)"  stroke="rgb(191,191,191)" stroke-width="1" font-size="16" >H</text>
<text x="264.157260" y="218.847458" fill="rgb(191,191,191)"  stroke="rgb(191,191,191)" stroke-width="1" font-size="16" >H</text>
<text x="198.398043" y="408.677966" fill="rgb(191,191,191)"  stroke="rgb(191,191,191)" stroke-width="1" font-size="16" >H</text>
<text x="94.672724" y="332.745763" fill="rgb(191,191,191)"  stroke="rgb(191,191,191)" stroke-width="1" font-size="16" >H</text>
<text x="127.552333" y="313.762712" fill="rgb(191,191,191)"  stroke="rgb(191,191,191)" stroke-width="1" font-size="16" >H</text>
<text x="108.569282" y="384.608422" fill="rgb(191,191,191)"  stroke="rgb(191,191,191)" stroke-width="1" font-size="16" >H</text>
<text x="113.655775" y="327.659270" fill="rgb(191,191,191)"  stroke="rgb(191,191,191)" stroke-width="1" font-size="16" >H</text>
<text x="146.535383" y="308.676219" fill="rgb(191,191,191)"  stroke="rgb(191,191,191)" stroke-width="1" font-size="16" >H</text>
<text x="75.689673" y="289.693168" fill="rgb(191,191,191)"  stroke="rgb(191,191,191)" stroke-width="1" font-size="16" >H</text>
<text x="80.776166" y="204.950900" fill="rgb(191,191,191)"  stroke="rgb(191,191,191)" stroke-width="1" font-size="16" >H</text>
<text x="118.742268" y="204.950900" fill="rgb(191,191,191)"  stroke="rgb(191,191,191)" stroke-width="1" font-size="16" >H</text>
<text x="66.879609" y="256.813559" fill="rgb(191,191,191)"  stroke="rgb(191,191,191)" stroke-width="1" font-size="16" >H</text>
<text x="184.501485" y="204.950900" fill="rgb(191,191,191)"  stroke="rgb(191,191,191)" stroke-width="1" font-size="16" >H</text>
<text x="184.501485" y="242.917002" fill="rgb(191,191,191)"  stroke="rgb(191,191,191)" stroke-width="1" font-size="16" >H</text>
<text x="132.638826" y="191.054342" fill="rgb(191,191,191)"  stroke="rgb(191,191,191)" stroke-width="1" font-size="16" >H</text>
<text x="165.518434" y="275.796610" fill="rgb(255,127,0)"  stroke="rgb(255,127,0)" stroke-width="1" font-size="16" >P</text>
<text x="269.243753" y="275.796610" fill="rgb(191,191,191)"  stroke="rgb(191,191,191)" stroke-width="1" font-size="16" >H</text>
<text x="250.260702" y="242.917002" fill="rgb(191,191,191)"  stroke="rgb(191,191,191)" stroke-width="1" font-size="16" >H</text>
<text x="231.277651" y="313.762712" fill="rgb(191,191,191)"  stroke="rgb(191,191,191)" stroke-width="1" font-size="16" >H</text>
</svg>
</g>
<text font-size="18.000000" fill ="black" font-family="sans-serif"
x="10.000000" y="20.000000" >ZINC71773446</text>
</svg>
