<?xml version="1.0"?>
<svg version="1.1" id="topsvg"
xmlns="http://www.w3.org/2000/svg" xmlns:xlink="http://www.w3.org/1999/xlink"
xmlns:cml="http://www.xml-cml.org/schema" x="0" y="0" width="200px" height="200px" viewBox="0 0 100 100">
<title>ZINC02034481 - Open Babel Depiction</title>
<rect x="0" y="0" width="100" height="100" fill="white"/>
<g transform="translate(0,0)">
<svg width="100" height="100" x="0" y="0" viewBox="0 0 285.477 274.641"
font-family="sans-serif" stroke="rgb(0,0,0)" stroke-width="2"  stroke-linecap="round">
<line x1="109.3" y1="74.6" x2="95.8" y2="51.3" stroke="rgb(0,0,0)"  stroke-width="2.0"/>
<line x1="109.3" y1="74.6" x2="82.3" y2="74.6" stroke="rgb(0,0,0)"  stroke-width="2.0"/>
<line x1="109.3" y1="74.6" x2="132.7" y2="61.1" stroke="rgb(0,0,0)"  stroke-width="2.0"/>
<line x1="109.3" y1="74.6" x2="109.3" y2="101.6" stroke="rgb(0,0,0)"  stroke-width="2.0"/>
<line x1="109.3" y1="194.6" x2="109.3" y2="221.6" stroke="rgb(0,0,0)"  stroke-width="2.0"/>
<line x1="63.4" y1="181.1" x2="51.3" y2="188.1" stroke="rgb(0,0,0)"  stroke-width="2.0"/>
<line x1="73.1" y1="137.2" x2="49.8" y2="123.7" stroke="rgb(0,0,0)"  stroke-width="2.0"/>
<line x1="76.1" y1="132.0" x2="52.8" y2="118.5" stroke="rgb(0,0,0)"  stroke-width="2.0"/>
<line x1="186.0" y1="199.4" x2="190.3" y2="212.7" stroke="rgb(0,0,0)"  stroke-width="2.0"/>
<line x1="205.5" y1="151.6" x2="232.5" y2="151.6" stroke="rgb(0,0,0)"  stroke-width="2.0"/>
<line x1="205.5" y1="157.6" x2="232.5" y2="157.6" stroke="rgb(0,0,0)"  stroke-width="2.0"/>
<line x1="205.5" y1="154.6" x2="189.6" y2="176.5" stroke="rgb(0,0,0)"  stroke-width="2.0"/>
<line x1="169.6" y1="183.0" x2="143.9" y2="174.6" stroke="rgb(0,0,0)"  stroke-width="2.0"/>
<line x1="143.9" y1="174.6" x2="143.9" y2="134.6" stroke="rgb(0,0,0)"  stroke-width="2.0"/>
<line x1="143.9" y1="134.6" x2="169.4" y2="126.4" stroke="rgb(0,0,0)"  stroke-width="2.0"/>
<line x1="151.9" y1="139.6" x2="169.7" y2="133.8" stroke="rgb(0,0,0)"  stroke-width="2.0"/>
<line x1="189.6" y1="132.8" x2="205.5" y2="154.6" stroke="rgb(0,0,0)"  stroke-width="2.0"/>
<line x1="143.9" y1="174.6" x2="109.3" y2="194.6" stroke="rgb(0,0,0)"  stroke-width="2.0"/>
<line x1="135.1" y1="171.4" x2="110.9" y2="185.4" stroke="rgb(0,0,0)"  stroke-width="2.0"/>
<line x1="109.3" y1="194.6" x2="85.9" y2="181.1" stroke="rgb(0,0,0)"  stroke-width="2.0"/>
<line x1="74.6" y1="161.6" x2="74.6" y2="134.6" stroke="rgb(0,0,0)"  stroke-width="2.0"/>
<line x1="74.6" y1="134.6" x2="98.0" y2="121.1" stroke="rgb(0,0,0)"  stroke-width="2.0"/>
<line x1="120.5" y1="121.1" x2="143.9" y2="134.6" stroke="rgb(0,0,0)"  stroke-width="2.0"/>
<text x="175.965309" y="195.001696" fill="rgb(12,12,255)"  stroke="rgb(12,12,255)" stroke-width="1" font-size="16" >N</text>
<text x="34.000000" y="202.641016" fill="rgb(191,191,191)"  stroke="rgb(191,191,191)" stroke-width="1" font-size="16" >H</text>
<text x="137.923048" y="62.641016" fill="rgb(191,191,191)"  stroke="rgb(191,191,191)" stroke-width="1" font-size="16" >H</text>
<text x="63.282032" y="82.641016" fill="rgb(191,191,191)"  stroke="rgb(191,191,191)" stroke-width="1" font-size="16" >H</text>
<text x="83.282032" y="48.000000" fill="rgb(191,191,191)"  stroke="rgb(191,191,191)" stroke-width="1" font-size="16" >H</text>
<text x="239.476719" y="162.641016" fill="rgb(255,12,12)"  stroke="rgb(255,12,12)" stroke-width="1" font-size="16" >O</text>
<text x="175.965309" y="130.280336" fill="rgb(12,12,255)"  stroke="rgb(12,12,255)" stroke-width="1" font-size="16" >N</text>
<text x="188.325989" y="233.043957" fill="rgb(191,191,191)"  stroke="rgb(191,191,191)" stroke-width="1" font-size="16" >H</text>
<text x="34.000000" y="122.641016" fill="rgb(255,12,12)"  stroke="rgb(255,12,12)" stroke-width="1" font-size="16" >O</text>
<text x="68.641016" y="182.641016" fill="rgb(12,12,255)"  stroke="rgb(12,12,255)" stroke-width="1" font-size="16" >N</text>
<text x="103.282032" y="242.641016" fill="rgb(255,12,12)"  stroke="rgb(255,12,12)" stroke-width="1" font-size="16" >OH</text>
<text x="103.282032" y="122.641016" fill="rgb(12,12,255)"  stroke="rgb(12,12,255)" stroke-width="1" font-size="16" >N</text>
</svg>
</g>
<text font-size="18.000000" fill ="black" font-family="sans-serif"
x="10.000000" y="20.000000" >ZINC02034481</text>
</svg>
