<?xml version="1.0"?>
<svg version="1.1" id="topsvg"
xmlns="http://www.w3.org/2000/svg" xmlns:xlink="http://www.w3.org/1999/xlink"
xmlns:cml="http://www.xml-cml.org/schema" x="0" y="0" width="200px" height="200px" viewBox="0 0 100 100">
<title>ZINC19094072 - Open Babel Depiction</title>
<rect x="0" y="0" width="100" height="100" fill="white"/>
<g transform="translate(0,0)">
<svg width="100" height="100" x="0" y="0" viewBox="0 0 392.89 273.914"
font-family="sans-serif" stroke="rgb(0,0,0)" stroke-width="2"  stroke-linecap="round">
<line x1="318.2" y1="173.9" x2="341.6" y2="187.4" stroke="rgb(0,0,0)"  stroke-width="2.0"/>
<line x1="318.2" y1="133.9" x2="341.6" y2="120.4" stroke="rgb(0,0,0)"  stroke-width="2.0"/>
<line x1="283.6" y1="113.9" x2="283.6" y2="73.9" stroke="rgb(0,0,0)"  stroke-width="2.0"/>
<line x1="249.0" y1="133.9" x2="225.6" y2="120.4" stroke="rgb(0,0,0)"  stroke-width="2.0"/>
<line x1="249.0" y1="173.9" x2="225.6" y2="187.4" stroke="rgb(0,0,0)"  stroke-width="2.0"/>
<line x1="283.6" y1="193.9" x2="283.6" y2="220.9" stroke="rgb(0,0,0)"  stroke-width="2.0"/>
<line x1="203.1" y1="187.4" x2="179.7" y2="173.9" stroke="rgb(0,0,0)"  stroke-width="2.0"/>
<line x1="179.7" y1="173.9" x2="145.0" y2="193.9" stroke="rgb(0,0,0)"  stroke-width="2.0"/>
<line x1="179.7" y1="173.9" x2="193.2" y2="150.5" stroke="rgb(0,0,0)"  stroke-width="2.0"/>
<line x1="179.7" y1="173.9" x2="166.2" y2="150.5" stroke="rgb(0,0,0)"  stroke-width="2.0"/>
<line x1="145.0" y1="193.9" x2="110.4" y2="173.9" stroke="rgb(0,0,0)"  stroke-width="2.0"/>
<line x1="145.0" y1="193.9" x2="158.5" y2="217.3" stroke="rgb(0,0,0)"  stroke-width="2.0"/>
<line x1="145.0" y1="193.9" x2="131.5" y2="217.3" stroke="rgb(0,0,0)"  stroke-width="2.0"/>
<line x1="110.4" y1="173.9" x2="110.4" y2="146.9" stroke="rgb(0,0,0)"  stroke-width="2.0"/>
<line x1="110.4" y1="173.9" x2="96.9" y2="197.3" stroke="rgb(0,0,0)"  stroke-width="2.0"/>
<line x1="110.4" y1="173.9" x2="83.4" y2="173.9" stroke="rgb(0,0,0)"  stroke-width="2.0"/>
<line x1="78.0" y1="110.4" x2="52.4" y2="118.7" stroke="rgb(0,0,0)"  stroke-width="2.0"/>
<line x1="90.4" y1="72.4" x2="74.5" y2="50.5" stroke="rgb(0,0,0)"  stroke-width="2.0"/>
<line x1="142.8" y1="110.4" x2="168.4" y2="118.7" stroke="rgb(0,0,0)"  stroke-width="2.0"/>
<line x1="282.1" y1="71.3" x2="305.5" y2="57.8" stroke="rgb(0,0,0)"  stroke-width="2.0"/>
<line x1="285.1" y1="76.5" x2="308.5" y2="63.0" stroke="rgb(0,0,0)"  stroke-width="2.0"/>
<line x1="283.6" y1="73.9" x2="260.2" y2="60.4" stroke="rgb(0,0,0)"  stroke-width="2.0"/>
<line x1="138.0" y1="61.8" x2="146.3" y2="50.5" stroke="rgb(0,0,0)"  stroke-width="2.0"/>
<line x1="90.4" y1="72.4" x2="117.4" y2="72.4" stroke="rgb(0,0,0)"  stroke-width="2.0"/>
<line x1="134.5" y1="84.9" x2="142.8" y2="110.4" stroke="rgb(0,0,0)"  stroke-width="2.0"/>
<line x1="128.3" y1="89.0" x2="134.1" y2="106.9" stroke="rgb(0,0,0)"  stroke-width="2.0"/>
<line x1="142.8" y1="110.4" x2="120.9" y2="126.3" stroke="rgb(0,0,0)"  stroke-width="2.0"/>
<line x1="99.9" y1="126.3" x2="78.0" y2="110.4" stroke="rgb(0,0,0)"  stroke-width="2.0"/>
<line x1="78.0" y1="110.4" x2="90.4" y2="72.4" stroke="rgb(0,0,0)"  stroke-width="2.0"/>
<line x1="86.7" y1="106.9" x2="95.4" y2="80.3" stroke="rgb(0,0,0)"  stroke-width="2.0"/>
<line x1="283.6" y1="113.9" x2="249.0" y2="133.9" stroke="rgb(0,0,0)"  stroke-width="2.0"/>
<line x1="249.0" y1="133.9" x2="249.0" y2="173.9" stroke="rgb(0,0,0)"  stroke-width="2.0"/>
<line x1="256.2" y1="139.9" x2="256.2" y2="167.9" stroke="rgb(0,0,0)"  stroke-width="2.0"/>
<line x1="249.0" y1="173.9" x2="283.6" y2="193.9" stroke="rgb(0,0,0)"  stroke-width="2.0"/>
<line x1="283.6" y1="193.9" x2="318.2" y2="173.9" stroke="rgb(0,0,0)"  stroke-width="2.0"/>
<line x1="285.2" y1="184.7" x2="309.5" y2="170.7" stroke="rgb(0,0,0)"  stroke-width="2.0"/>
<line x1="318.2" y1="173.9" x2="318.2" y2="133.9" stroke="rgb(0,0,0)"  stroke-width="2.0"/>
<line x1="318.2" y1="133.9" x2="283.6" y2="113.9" stroke="rgb(0,0,0)"  stroke-width="2.0"/>
<line x1="309.5" y1="137.1" x2="285.2" y2="123.1" stroke="rgb(0,0,0)"  stroke-width="2.0"/>
<text x="346.890053" y="201.914351" fill="rgb(191,191,191)"  stroke="rgb(191,191,191)" stroke-width="1" font-size="16" >H</text>
<text x="147.914351" y="48.000000" fill="rgb(191,191,191)"  stroke="rgb(191,191,191)" stroke-width="1" font-size="16" >H</text>
<text x="124.402940" y="80.360680" fill="rgb(12,12,255)"  stroke="rgb(12,12,255)" stroke-width="1" font-size="16" >N</text>
<text x="242.967005" y="61.914351" fill="rgb(191,191,191)"  stroke="rgb(191,191,191)" stroke-width="1" font-size="16" >H</text>
<text x="174.805881" y="130.763620" fill="rgb(191,191,191)"  stroke="rgb(191,191,191)" stroke-width="1" font-size="16" >H</text>
<text x="60.891530" y="48.000000" fill="rgb(191,191,191)"  stroke="rgb(191,191,191)" stroke-width="1" font-size="16" >H</text>
<text x="34.000000" y="130.763620" fill="rgb(191,191,191)"  stroke="rgb(191,191,191)" stroke-width="1" font-size="16" >H</text>
<text x="64.402940" y="181.914351" fill="rgb(191,191,191)"  stroke="rgb(191,191,191)" stroke-width="1" font-size="16" >H</text>
<text x="84.402940" y="216.555367" fill="rgb(191,191,191)"  stroke="rgb(191,191,191)" stroke-width="1" font-size="16" >H</text>
<text x="119.043957" y="236.555367" fill="rgb(191,191,191)"  stroke="rgb(191,191,191)" stroke-width="1" font-size="16" >H</text>
<text x="159.043957" y="236.555367" fill="rgb(191,191,191)"  stroke="rgb(191,191,191)" stroke-width="1" font-size="16" >H</text>
<text x="153.684973" y="147.273334" fill="rgb(191,191,191)"  stroke="rgb(191,191,191)" stroke-width="1" font-size="16" >H</text>
<text x="193.684973" y="147.273334" fill="rgb(191,191,191)"  stroke="rgb(191,191,191)" stroke-width="1" font-size="16" >H</text>
<text x="277.608021" y="241.914351" fill="rgb(191,191,191)"  stroke="rgb(191,191,191)" stroke-width="1" font-size="16" >H</text>
<text x="208.325989" y="121.914351" fill="rgb(191,191,191)"  stroke="rgb(191,191,191)" stroke-width="1" font-size="16" >H</text>
<text x="346.890053" y="121.914351" fill="rgb(191,191,191)"  stroke="rgb(191,191,191)" stroke-width="1" font-size="16" >H</text>
<text x="312.249037" y="61.914351" fill="rgb(255,12,12)"  stroke="rgb(255,12,12)" stroke-width="1" font-size="16" >O</text>
<text x="104.402940" y="141.914351" fill="rgb(12,12,255)"  stroke="rgb(12,12,255)" stroke-width="1" font-size="16" >N</text>
<text x="208.325989" y="201.914351" fill="rgb(255,12,12)"  stroke="rgb(255,12,12)" stroke-width="1" font-size="16" >O</text>
</svg>
</g>
<text font-size="18.000000" fill ="black" font-family="sans-serif"
x="10.000000" y="20.000000" >ZINC19094072</text>
</svg>
