<?xml version="1.0"?>
<svg version="1.1" id="topsvg"
xmlns="http://www.w3.org/2000/svg" xmlns:xlink="http://www.w3.org/1999/xlink"
xmlns:cml="http://www.xml-cml.org/schema" x="0" y="0" width="200px" height="200px" viewBox="0 0 100 100">
<title>ZINC98216486 - Open Babel Depiction</title>
<rect x="0" y="0" width="100" height="100" fill="white"/>
<g transform="translate(0,0)">
<svg width="100" height="100" x="0" y="0" viewBox="0 0 749.434 346.031"
font-family="sans-serif" stroke="rgb(0,0,0)" stroke-width="2"  stroke-linecap="round">
<line x1="384.0" y1="151.3" x2="388.1" y2="125.9" stroke="rgb(0,0,0)"  stroke-width="2.0"/>
<line x1="408.1" y1="214.0" x2="428.1" y2="230.2" stroke="rgb(0,0,0)"  stroke-width="2.0"/>
<line x1="297.2" y1="219.9" x2="237.0" y2="196.8" stroke="rgb(0,0,0)"  stroke-width="2.0"/>
<line x1="319.3" y1="262.0" x2="303.1" y2="282.0" stroke="rgb(0,0,0)"  stroke-width="2.0"/>
<line x1="237.0" y1="196.8" x2="223.1" y2="218.5" stroke="rgb(0,0,0)"  stroke-width="2.0"/>
<polygon points="236.953697 196.802510 252.864596 161.244026 259.792799 165.244026 " stroke-width="2.000000" fill="rgb(0,0,0)"  stroke="rgb(0,0,0)" />
<line x1="256.3" y1="163.2" x2="279.9" y2="173.7" stroke="rgb(0,0,0)"  stroke-width="2.0"/>
<line x1="250.5" y1="158.0" x2="251.7" y2="156.9" stroke="rgb(0,0,0)"  stroke-width="1.0"/>
<line x1="245.9" y1="153.8" x2="248.1" y2="151.9" stroke="rgb(0,0,0)"  stroke-width="1.0"/>
<line x1="241.3" y1="149.7" x2="244.4" y2="146.9" stroke="rgb(0,0,0)"  stroke-width="1.0"/>
<line x1="236.7" y1="145.5" x2="240.7" y2="141.8" stroke="rgb(0,0,0)"  stroke-width="1.0"/>
<line x1="232.1" y1="141.3" x2="237.0" y2="136.8" stroke="rgb(0,0,0)"  stroke-width="1.0"/>
<line x1="227.4" y1="137.1" x2="233.4" y2="131.8" stroke="rgb(0,0,0)"  stroke-width="1.0"/>
<line x1="256.3" y1="163.2" x2="308.5" y2="125.3" stroke="rgb(0,0,0)"  stroke-width="2.0"/>
<line x1="230.4" y1="134.4" x2="247.6" y2="115.3" stroke="rgb(0,0,0)"  stroke-width="2.0"/>
<line x1="223.6" y1="138.3" x2="223.0" y2="136.9" stroke="rgb(0,0,0)"  stroke-width="1.0"/>
<line x1="218.2" y1="141.4" x2="217.1" y2="138.8" stroke="rgb(0,0,0)"  stroke-width="1.0"/>
<line x1="212.8" y1="144.5" x2="211.1" y2="140.7" stroke="rgb(0,0,0)"  stroke-width="1.0"/>
<line x1="207.4" y1="147.6" x2="205.2" y2="142.7" stroke="rgb(0,0,0)"  stroke-width="1.0"/>
<line x1="202.0" y1="150.8" x2="199.3" y2="144.6" stroke="rgb(0,0,0)"  stroke-width="1.0"/>
<line x1="196.6" y1="153.9" x2="193.4" y2="146.6" stroke="rgb(0,0,0)"  stroke-width="1.0"/>
<line x1="230.4" y1="134.4" x2="222.4" y2="110.0" stroke="rgb(0,0,0)"  stroke-width="2.0"/>
<polygon points="195.000000 150.208209 178.554648 129.724024 185.482852 125.724024 " stroke-width="2.000000" fill="rgb(0,0,0)"  stroke="rgb(0,0,0)" />
<line x1="195.0" y1="150.2" x2="156.2" y2="150.2" stroke="rgb(0,0,0)"  stroke-width="2.0"/>
<line x1="156.2" y1="150.2" x2="143.4" y2="172.5" stroke="rgb(0,0,0)"  stroke-width="2.0"/>
<line x1="156.2" y1="150.2" x2="133.9" y2="137.3" stroke="rgb(0,0,0)"  stroke-width="2.0"/>
<line x1="156.2" y1="150.2" x2="156.2" y2="124.5" stroke="rgb(0,0,0)"  stroke-width="2.0"/>
<line x1="123.9" y1="183.8" x2="111.1" y2="183.8" stroke="rgb(0,0,0)"  stroke-width="2.0"/>
<line x1="98.9" y1="199.2" x2="97.3" y2="199.2" stroke="rgb(0,0,0)"  stroke-width="1.0"/>
<line x1="99.6" y1="201.3" x2="96.7" y2="201.3" stroke="rgb(0,0,0)"  stroke-width="1.0"/>
<line x1="100.2" y1="203.4" x2="96.0" y2="203.4" stroke="rgb(0,0,0)"  stroke-width="1.0"/>
<line x1="100.8" y1="205.5" x2="95.4" y2="205.5" stroke="rgb(0,0,0)"  stroke-width="1.0"/>
<line x1="101.5" y1="207.6" x2="94.8" y2="207.6" stroke="rgb(0,0,0)"  stroke-width="1.0"/>
<line x1="102.1" y1="209.7" x2="94.1" y2="209.7" stroke="rgb(0,0,0)"  stroke-width="1.0"/>
<line x1="85.1" y1="183.8" x2="72.4" y2="183.8" stroke="rgb(0,0,0)"  stroke-width="2.0"/>
<line x1="98.1" y1="170.8" x2="98.1" y2="158.0" stroke="rgb(0,0,0)"  stroke-width="2.0"/>
<line x1="52.9" y1="195.0" x2="46.5" y2="206.1" stroke="rgb(0,0,0)"  stroke-width="2.0"/>
<line x1="227.1" y1="87.9" x2="235.7" y2="78.5" stroke="rgb(0,0,0)"  stroke-width="2.0"/>
<line x1="232.7" y1="62.3" x2="223.2" y2="53.8" stroke="rgb(0,0,0)"  stroke-width="2.0"/>
<line x1="236.7" y1="57.9" x2="227.2" y2="49.3" stroke="rgb(0,0,0)"  stroke-width="2.0"/>
<line x1="253.1" y1="59.1" x2="261.6" y2="49.7" stroke="rgb(0,0,0)"  stroke-width="2.0"/>
<line x1="254.0" y1="77.5" x2="263.5" y2="86.0" stroke="rgb(0,0,0)"  stroke-width="2.0"/>
<line x1="317.7" y1="104.8" x2="316.3" y2="92.1" stroke="rgb(0,0,0)"  stroke-width="2.0"/>
<line x1="450.3" y1="233.7" x2="474.4" y2="224.5" stroke="rgb(0,0,0)"  stroke-width="2.0"/>
<line x1="436.2" y1="251.2" x2="434.2" y2="263.8" stroke="rgb(0,0,0)"  stroke-width="2.0"/>
<line x1="474.4" y1="224.5" x2="504.5" y2="248.9" stroke="rgb(0,0,0)"  stroke-width="2.0"/>
<line x1="474.4" y1="224.5" x2="490.6" y2="204.5" stroke="rgb(0,0,0)"  stroke-width="2.0"/>
<line x1="474.4" y1="224.5" x2="465.2" y2="200.4" stroke="rgb(0,0,0)"  stroke-width="2.0"/>
<line x1="504.5" y1="248.9" x2="540.7" y2="235.0" stroke="rgb(0,0,0)"  stroke-width="2.0"/>
<line x1="504.5" y1="248.9" x2="513.7" y2="272.9" stroke="rgb(0,0,0)"  stroke-width="2.0"/>
<line x1="504.5" y1="248.9" x2="488.3" y2="268.9" stroke="rgb(0,0,0)"  stroke-width="2.0"/>
<line x1="540.7" y1="235.0" x2="570.8" y2="259.4" stroke="rgb(0,0,0)"  stroke-width="2.0"/>
<line x1="540.7" y1="235.0" x2="556.9" y2="215.0" stroke="rgb(0,0,0)"  stroke-width="2.0"/>
<line x1="540.7" y1="235.0" x2="531.4" y2="210.9" stroke="rgb(0,0,0)"  stroke-width="2.0"/>
<line x1="570.8" y1="259.4" x2="607.0" y2="245.5" stroke="rgb(0,0,0)"  stroke-width="2.0"/>
<line x1="570.8" y1="259.4" x2="580.0" y2="283.4" stroke="rgb(0,0,0)"  stroke-width="2.0"/>
<line x1="570.8" y1="259.4" x2="554.6" y2="279.4" stroke="rgb(0,0,0)"  stroke-width="2.0"/>
<line x1="607.0" y1="245.5" x2="637.1" y2="269.9" stroke="rgb(0,0,0)"  stroke-width="2.0"/>
<line x1="607.0" y1="245.5" x2="623.2" y2="225.5" stroke="rgb(0,0,0)"  stroke-width="2.0"/>
<line x1="607.0" y1="245.5" x2="597.7" y2="221.4" stroke="rgb(0,0,0)"  stroke-width="2.0"/>
<line x1="637.1" y1="269.9" x2="661.1" y2="260.6" stroke="rgb(0,0,0)"  stroke-width="2.0"/>
<line x1="637.1" y1="269.9" x2="646.3" y2="293.9" stroke="rgb(0,0,0)"  stroke-width="2.0"/>
<line x1="637.1" y1="269.9" x2="620.9" y2="289.9" stroke="rgb(0,0,0)"  stroke-width="2.0"/>
<line x1="668.6" y1="243.8" x2="664.0" y2="231.9" stroke="rgb(0,0,0)"  stroke-width="2.0"/>
<line x1="685.4" y1="251.3" x2="697.3" y2="246.7" stroke="rgb(0,0,0)"  stroke-width="2.0"/>
<line x1="677.9" y1="268.1" x2="682.5" y2="280.0" stroke="rgb(0,0,0)"  stroke-width="2.0"/>
<line x1="319.3" y1="262.0" x2="312.7" y2="237.1" stroke="rgb(0,0,0)"  stroke-width="2.0"/>
<line x1="320.2" y1="217.5" x2="341.8" y2="203.5" stroke="rgb(0,0,0)"  stroke-width="2.0"/>
<line x1="341.8" y1="203.5" x2="371.9" y2="227.9" stroke="rgb(0,0,0)"  stroke-width="2.0"/>
<line x1="341.9" y1="212.8" x2="362.7" y2="229.7" stroke="rgb(0,0,0)"  stroke-width="2.0"/>
<line x1="371.9" y1="227.9" x2="362.7" y2="251.9" stroke="rgb(0,0,0)"  stroke-width="2.0"/>
<line x1="345.3" y1="263.4" x2="319.3" y2="262.0" stroke="rgb(0,0,0)"  stroke-width="2.0"/>
<line x1="343.5" y1="256.1" x2="325.7" y2="255.1" stroke="rgb(0,0,0)"  stroke-width="2.0"/>
<line x1="408.1" y1="214.0" x2="371.9" y2="227.9" stroke="rgb(0,0,0)"  stroke-width="2.0"/>
<line x1="341.8" y1="203.5" x2="345.8" y2="178.0" stroke="rgb(0,0,0)"  stroke-width="2.0"/>
<line x1="359.8" y1="160.6" x2="384.0" y2="151.3" stroke="rgb(0,0,0)"  stroke-width="2.0"/>
<line x1="364.4" y1="166.6" x2="381.0" y2="160.2" stroke="rgb(0,0,0)"  stroke-width="2.0"/>
<line x1="384.0" y1="151.3" x2="404.1" y2="167.5" stroke="rgb(0,0,0)"  stroke-width="2.0"/>
<line x1="412.2" y1="188.3" x2="408.1" y2="214.0" stroke="rgb(0,0,0)"  stroke-width="2.0"/>
<line x1="404.7" y1="189.3" x2="401.9" y2="206.9" stroke="rgb(0,0,0)"  stroke-width="2.0"/>
<line x1="230.4" y1="134.4" x2="195.0" y2="150.2" stroke="rgb(0,0,0)"  stroke-width="2.0"/>
<line x1="195.0" y1="150.2" x2="197.7" y2="175.8" stroke="rgb(0,0,0)"  stroke-width="2.0"/>
<line x1="211.8" y1="191.4" x2="237.0" y2="196.8" stroke="rgb(0,0,0)"  stroke-width="2.0"/>
<line x1="237.0" y1="196.8" x2="256.3" y2="163.2" stroke="rgb(0,0,0)"  stroke-width="2.0"/>
<line x1="256.3" y1="163.2" x2="230.4" y2="134.4" stroke="rgb(0,0,0)"  stroke-width="2.0"/>
<text x="454.499202" y="196.293837" fill="rgb(191,191,191)"  stroke="rgb(191,191,191)" stroke-width="1" font-size="16" >H</text>
<text x="678.057903" y="251.936299" fill="rgb(12,12,255)"  stroke="rgb(12,12,255)" stroke-width="1" font-size="16" >+</text>
<text x="667.257903" y="263.968299" fill="rgb(12,12,255)"  stroke="rgb(12,12,255)" stroke-width="1" font-size="16" >N</text>
<text x="384.104578" y="121.038659" fill="rgb(191,191,191)"  stroke="rgb(191,191,191)" stroke-width="1" font-size="16" >H</text>
<text x="288.949253" y="300.120058" fill="rgb(191,191,191)"  stroke="rgb(191,191,191)" stroke-width="1" font-size="16" >H</text>
<text x="116.691516" y="138.833209" fill="rgb(191,191,191)"  stroke="rgb(191,191,191)" stroke-width="1" font-size="16" >H</text>
<text x="150.250000" y="119.458209" fill="rgb(191,191,191)"  stroke="rgb(191,191,191)" stroke-width="1" font-size="16" >H</text>
<text x="308.977037" y="87.152945" fill="rgb(191,191,191)"  stroke="rgb(191,191,191)" stroke-width="1" font-size="16" >H</text>
<text x="426.147883" y="284.629759" fill="rgb(191,191,191)"  stroke="rgb(191,191,191)" stroke-width="1" font-size="16" >H</text>
<text x="492.772125" y="202.355672" fill="rgb(191,191,191)"  stroke="rgb(191,191,191)" stroke-width="1" font-size="16" >H</text>
<text x="432.209719" y="246.356836" fill="rgb(12,12,255)"  stroke="rgb(12,12,255)" stroke-width="1" font-size="16" >N</text>
<text x="512.387124" y="293.032485" fill="rgb(191,191,191)"  stroke="rgb(191,191,191)" stroke-width="1" font-size="16" >H</text>
<text x="474.114201" y="286.970649" fill="rgb(191,191,191)"  stroke="rgb(191,191,191)" stroke-width="1" font-size="16" >H</text>
<text x="559.062773" y="212.855079" fill="rgb(191,191,191)"  stroke="rgb(191,191,191)" stroke-width="1" font-size="16" >H</text>
<text x="520.789850" y="206.793244" fill="rgb(191,191,191)"  stroke="rgb(191,191,191)" stroke-width="1" font-size="16" >H</text>
<text x="578.677772" y="303.531892" fill="rgb(191,191,191)"  stroke="rgb(191,191,191)" stroke-width="1" font-size="16" >H</text>
<text x="540.404848" y="297.470056" fill="rgb(191,191,191)"  stroke="rgb(191,191,191)" stroke-width="1" font-size="16" >H</text>
<text x="625.353420" y="223.354486" fill="rgb(191,191,191)"  stroke="rgb(191,191,191)" stroke-width="1" font-size="16" >H</text>
<text x="587.080497" y="217.292651" fill="rgb(191,191,191)"  stroke="rgb(191,191,191)" stroke-width="1" font-size="16" >H</text>
<text x="644.968419" y="314.031299" fill="rgb(191,191,191)"  stroke="rgb(191,191,191)" stroke-width="1" font-size="16" >H</text>
<text x="606.695496" y="307.969463" fill="rgb(191,191,191)"  stroke="rgb(191,191,191)" stroke-width="1" font-size="16" >H</text>
<text x="653.371145" y="227.792058" fill="rgb(191,191,191)"  stroke="rgb(191,191,191)" stroke-width="1" font-size="16" >H</text>
<text x="703.434144" y="250.081541" fill="rgb(191,191,191)"  stroke="rgb(191,191,191)" stroke-width="1" font-size="16" >H</text>
<text x="681.144661" y="300.144541" fill="rgb(191,191,191)"  stroke="rgb(191,191,191)" stroke-width="1" font-size="16" >H</text>
<text x="34.000000" y="225.325178" fill="rgb(191,191,191)"  stroke="rgb(191,191,191)" stroke-width="1" font-size="16" >H</text>
<text x="408.157148" y="183.697748" fill="rgb(12,12,255)"  stroke="rgb(12,12,255)" stroke-width="1" font-size="16" >N</text>
<text x="341.866501" y="173.198341" fill="rgb(12,12,255)"  stroke="rgb(12,12,255)" stroke-width="1" font-size="16" >N</text>
<text x="303.306181" y="232.576026" fill="rgb(12,12,255)"  stroke="rgb(12,12,255)" stroke-width="1" font-size="16" >N</text>
<text x="352.032313" y="272.033671" fill="rgb(12,12,255)"  stroke="rgb(12,12,255)" stroke-width="1" font-size="16" >N</text>
<text x="210.147475" y="237.492931" fill="rgb(191,191,191)"  stroke="rgb(191,191,191)" stroke-width="1" font-size="16" >H</text>
<text x="285.728584" y="187.005071" fill="rgb(191,191,191)"  stroke="rgb(191,191,191)" stroke-width="1" font-size="16" >H</text>
<text x="250.328697" y="113.650302" fill="rgb(191,191,191)"  stroke="rgb(191,191,191)" stroke-width="1" font-size="16" >H</text>
<text x="169.625000" y="124.649725" fill="rgb(191,191,191)"  stroke="rgb(191,191,191)" stroke-width="1" font-size="16" >H</text>
<text x="193.050478" y="196.745932" fill="rgb(255,12,12)"  stroke="rgb(255,12,12)" stroke-width="1" font-size="16" >O</text>
<text x="130.875000" y="191.766693" fill="rgb(255,12,12)"  stroke="rgb(255,12,12)" stroke-width="1" font-size="16" >O</text>
<text x="92.125000" y="191.766693" fill="rgb(255,127,0)"  stroke="rgb(255,127,0)" stroke-width="1" font-size="16" >P</text>
<text x="92.125000" y="230.516693" fill="rgb(255,12,12)"  stroke="rgb(255,12,12)" stroke-width="1" font-size="16" >O</text>
<text x="53.375000" y="191.766693" fill="rgb(255,12,12)"  stroke="rgb(255,12,12)" stroke-width="1" font-size="16" >O</text>
<text x="92.125000" y="153.016693" fill="rgb(255,12,12)"  stroke="rgb(255,12,12)" stroke-width="1" font-size="16" >OH</text>
<text x="212.425478" y="105.593724" fill="rgb(255,12,12)"  stroke="rgb(255,12,12)" stroke-width="1" font-size="16" >O</text>
<text x="238.354289" y="76.796862" fill="rgb(255,127,0)"  stroke="rgb(255,127,0)" stroke-width="1" font-size="16" >P</text>
<text x="209.557427" y="50.868051" fill="rgb(255,12,12)"  stroke="rgb(255,12,12)" stroke-width="1" font-size="16" >O</text>
<text x="264.283100" y="48.000000" fill="rgb(255,12,12)"  stroke="rgb(255,12,12)" stroke-width="1" font-size="16" >OH</text>
<text x="267.151151" y="102.725673" fill="rgb(255,12,12)"  stroke="rgb(255,12,12)" stroke-width="1" font-size="16" >OH</text>
<text x="313.027515" y="125.690669" fill="rgb(255,12,12)"  stroke="rgb(255,12,12)" stroke-width="1" font-size="16" >O</text>
</svg>
</g>
<text font-size="18.000000" fill ="black" font-family="sans-serif"
x="10.000000" y="20.000000" >ZINC98216486</text>
</svg>
