<?xml version="1.0"?>
<svg version="1.1" id="topsvg"
xmlns="http://www.w3.org/2000/svg" xmlns:xlink="http://www.w3.org/1999/xlink"
xmlns:cml="http://www.xml-cml.org/schema" x="0" y="0" width="200px" height="200px" viewBox="0 0 100 100">
<title>ZINC39712241 - Open Babel Depiction</title>
<rect x="0" y="0" width="100" height="100" fill="white"/>
<g transform="translate(0,0)">
<svg width="100" height="100" x="0" y="0" viewBox="0 0 317.274 290.844"
font-family="sans-serif" stroke="rgb(0,0,0)" stroke-width="2"  stroke-linecap="round">
<line x1="80.0" y1="74.6" x2="80.0" y2="101.6" stroke="rgb(0,0,0)"  stroke-width="2.0"/>
<line x1="80.0" y1="74.6" x2="66.5" y2="51.3" stroke="rgb(0,0,0)"  stroke-width="2.0"/>
<line x1="80.0" y1="74.6" x2="53.0" y2="74.6" stroke="rgb(0,0,0)"  stroke-width="2.0"/>
<line x1="80.0" y1="74.6" x2="103.4" y2="61.1" stroke="rgb(0,0,0)"  stroke-width="2.0"/>
<line x1="93.0" y1="114.6" x2="120.0" y2="114.6" stroke="rgb(0,0,0)"  stroke-width="2.0"/>
<line x1="80.0" y1="127.6" x2="80.0" y2="141.6" stroke="rgb(0,0,0)"  stroke-width="2.0"/>
<line x1="67.0" y1="114.6" x2="53.0" y2="114.6" stroke="rgb(0,0,0)"  stroke-width="2.0"/>
<line x1="120.0" y1="114.6" x2="140.0" y2="149.3" stroke="rgb(0,0,0)"  stroke-width="2.0"/>
<line x1="120.0" y1="114.6" x2="143.4" y2="101.1" stroke="rgb(0,0,0)"  stroke-width="2.0"/>
<line x1="120.0" y1="114.6" x2="120.0" y2="87.6" stroke="rgb(0,0,0)"  stroke-width="2.0"/>
<line x1="140.0" y1="149.3" x2="167.0" y2="149.3" stroke="rgb(0,0,0)"  stroke-width="2.0"/>
<line x1="140.0" y1="149.3" x2="140.0" y2="176.3" stroke="rgb(0,0,0)"  stroke-width="2.0"/>
<line x1="140.0" y1="149.3" x2="116.6" y2="162.8" stroke="rgb(0,0,0)"  stroke-width="2.0"/>
<line x1="186.5" y1="160.5" x2="200.0" y2="183.9" stroke="rgb(0,0,0)"  stroke-width="2.0"/>
<line x1="186.5" y1="138.0" x2="193.5" y2="125.9" stroke="rgb(0,0,0)"  stroke-width="2.0"/>
<line x1="200.0" y1="183.9" x2="174.6" y2="193.0" stroke="rgb(0,0,0)"  stroke-width="2.0"/>
<line x1="238.6" y1="173.6" x2="245.6" y2="147.5" stroke="rgb(0,0,0)"  stroke-width="2.0"/>
<line x1="238.6" y1="173.6" x2="264.7" y2="166.6" stroke="rgb(0,0,0)"  stroke-width="2.0"/>
<line x1="228.3" y1="212.2" x2="247.4" y2="231.3" stroke="rgb(0,0,0)"  stroke-width="2.0"/>
<line x1="228.3" y1="212.2" x2="221.3" y2="238.3" stroke="rgb(0,0,0)"  stroke-width="2.0"/>
<line x1="228.3" y1="212.2" x2="200.0" y2="183.9" stroke="rgb(0,0,0)"  stroke-width="2.0"/>
<line x1="200.0" y1="183.9" x2="238.6" y2="173.6" stroke="rgb(0,0,0)"  stroke-width="2.0"/>
<line x1="238.6" y1="173.6" x2="228.3" y2="212.2" stroke="rgb(0,0,0)"  stroke-width="2.0"/>
<text x="74.000000" y="162.641016" fill="rgb(191,191,191)"  stroke="rgb(191,191,191)" stroke-width="1" font-size="16" >H</text>
<text x="34.000000" y="122.641016" fill="rgb(191,191,191)"  stroke="rgb(191,191,191)" stroke-width="1" font-size="16" >H</text>
<text x="194.000000" y="122.641016" fill="rgb(191,191,191)"  stroke="rgb(191,191,191)" stroke-width="1" font-size="16" >H</text>
<text x="211.931509" y="258.844353" fill="rgb(191,191,191)"  stroke="rgb(191,191,191)" stroke-width="1" font-size="16" >H</text>
<text x="250.568542" y="248.491591" fill="rgb(191,191,191)"  stroke="rgb(191,191,191)" stroke-width="1" font-size="16" >H</text>
<text x="271.274066" y="171.217525" fill="rgb(191,191,191)"  stroke="rgb(191,191,191)" stroke-width="1" font-size="16" >H</text>
<text x="242.989795" y="142.933254" fill="rgb(191,191,191)"  stroke="rgb(191,191,191)" stroke-width="1" font-size="16" >H</text>
<text x="156.318103" y="205.342239" fill="rgb(191,191,191)"  stroke="rgb(191,191,191)" stroke-width="1" font-size="16" >H</text>
<text x="99.358984" y="177.282032" fill="rgb(191,191,191)"  stroke="rgb(191,191,191)" stroke-width="1" font-size="16" >H</text>
<text x="134.000000" y="197.282032" fill="rgb(191,191,191)"  stroke="rgb(191,191,191)" stroke-width="1" font-size="16" >H</text>
<text x="114.000000" y="82.641016" fill="rgb(191,191,191)"  stroke="rgb(191,191,191)" stroke-width="1" font-size="16" >H</text>
<text x="148.641016" y="102.641016" fill="rgb(191,191,191)"  stroke="rgb(191,191,191)" stroke-width="1" font-size="16" >H</text>
<text x="108.641016" y="62.641016" fill="rgb(191,191,191)"  stroke="rgb(191,191,191)" stroke-width="1" font-size="16" >H</text>
<text x="34.000000" y="82.641016" fill="rgb(191,191,191)"  stroke="rgb(191,191,191)" stroke-width="1" font-size="16" >H</text>
<text x="54.000000" y="48.000000" fill="rgb(191,191,191)"  stroke="rgb(191,191,191)" stroke-width="1" font-size="16" >H</text>
<text x="174.000000" y="157.282032" fill="rgb(12,12,255)"  stroke="rgb(12,12,255)" stroke-width="1" font-size="16" >N</text>
<text x="84.800000" y="110.609016" fill="rgb(12,12,255)"  stroke="rgb(12,12,255)" stroke-width="1" font-size="16" >+</text>
<text x="74.000000" y="122.641016" fill="rgb(12,12,255)"  stroke="rgb(12,12,255)" stroke-width="1" font-size="16" >N</text>
</svg>
</g>
<text font-size="18.000000" fill ="black" font-family="sans-serif"
x="10.000000" y="20.000000" >ZINC39712241</text>
</svg>
