<?xml version="1.0"?>
<svg version="1.1" id="topsvg"
xmlns="http://www.w3.org/2000/svg" xmlns:xlink="http://www.w3.org/1999/xlink"
xmlns:cml="http://www.xml-cml.org/schema" x="0" y="0" width="200px" height="200px" viewBox="0 0 100 100">
<title>ZINC11535670 - Open Babel Depiction</title>
<rect x="0" y="0" width="100" height="100" fill="white"/>
<g transform="translate(0,0)">
<svg width="100" height="100" x="0" y="0" viewBox="0 0 285.477 260.129"
font-family="sans-serif" stroke="rgb(0,0,0)" stroke-width="2"  stroke-linecap="round">
<line x1="210.8" y1="100.0" x2="234.2" y2="86.5" stroke="rgb(0,0,0)"  stroke-width="2.0"/>
<line x1="210.8" y1="140.0" x2="234.2" y2="153.5" stroke="rgb(0,0,0)"  stroke-width="2.0"/>
<line x1="176.2" y1="160.0" x2="176.2" y2="187.0" stroke="rgb(0,0,0)"  stroke-width="2.0"/>
<line x1="176.2" y1="80.0" x2="176.2" y2="53.0" stroke="rgb(0,0,0)"  stroke-width="2.0"/>
<line x1="80.0" y1="120.0" x2="53.0" y2="120.0" stroke="rgb(0,0,0)"  stroke-width="2.0"/>
<line x1="103.5" y1="152.4" x2="91.2" y2="190.4" stroke="rgb(0,0,0)"  stroke-width="2.0"/>
<line x1="91.8" y1="193.3" x2="65.4" y2="199.0" stroke="rgb(0,0,0)"  stroke-width="2.0"/>
<line x1="90.5" y1="187.5" x2="64.1" y2="193.1" stroke="rgb(0,0,0)"  stroke-width="2.0"/>
<line x1="91.2" y1="190.4" x2="109.2" y2="210.5" stroke="rgb(0,0,0)"  stroke-width="2.0"/>
<line x1="99.5" y1="75.3" x2="95.2" y2="62.0" stroke="rgb(0,0,0)"  stroke-width="2.0"/>
<line x1="80.0" y1="120.0" x2="95.9" y2="98.2" stroke="rgb(0,0,0)"  stroke-width="2.0"/>
<line x1="116.1" y1="91.7" x2="141.6" y2="100.0" stroke="rgb(0,0,0)"  stroke-width="2.0"/>
<line x1="115.7" y1="99.2" x2="133.6" y2="105.0" stroke="rgb(0,0,0)"  stroke-width="2.0"/>
<line x1="141.6" y1="100.0" x2="141.6" y2="127.0" stroke="rgb(0,0,0)"  stroke-width="2.0"/>
<line x1="129.2" y1="144.0" x2="103.5" y2="152.4" stroke="rgb(0,0,0)"  stroke-width="2.0"/>
<line x1="103.5" y1="152.4" x2="80.0" y2="120.0" stroke="rgb(0,0,0)"  stroke-width="2.0"/>
<line x1="105.8" y1="143.3" x2="89.4" y2="120.6" stroke="rgb(0,0,0)"  stroke-width="2.0"/>
<line x1="176.2" y1="160.0" x2="152.8" y2="146.5" stroke="rgb(0,0,0)"  stroke-width="2.0"/>
<line x1="141.6" y1="100.0" x2="176.2" y2="80.0" stroke="rgb(0,0,0)"  stroke-width="2.0"/>
<line x1="176.2" y1="80.0" x2="210.8" y2="100.0" stroke="rgb(0,0,0)"  stroke-width="2.0"/>
<line x1="177.8" y1="89.2" x2="202.0" y2="103.2" stroke="rgb(0,0,0)"  stroke-width="2.0"/>
<line x1="210.8" y1="100.0" x2="210.8" y2="140.0" stroke="rgb(0,0,0)"  stroke-width="2.0"/>
<line x1="210.8" y1="140.0" x2="176.2" y2="160.0" stroke="rgb(0,0,0)"  stroke-width="2.0"/>
<line x1="202.0" y1="136.8" x2="177.8" y2="150.8" stroke="rgb(0,0,0)"  stroke-width="2.0"/>
<text x="46.024826" y="206.719408" fill="rgb(255,12,12)"  stroke="rgb(255,12,12)" stroke-width="1" font-size="16" >O</text>
<text x="85.150730" y="57.597060" fill="rgb(191,191,191)"  stroke="rgb(191,191,191)" stroke-width="1" font-size="16" >H</text>
<text x="97.511410" y="95.639320" fill="rgb(12,12,255)"  stroke="rgb(12,12,255)" stroke-width="1" font-size="16" >N</text>
<text x="111.915955" y="228.128733" fill="rgb(255,12,12)"  stroke="rgb(255,12,12)" stroke-width="1" font-size="16" >OH</text>
<text x="34.000000" y="128.000000" fill="rgb(191,191,191)"  stroke="rgb(191,191,191)" stroke-width="1" font-size="16" >H</text>
<text x="170.194687" y="48.000000" fill="rgb(191,191,191)"  stroke="rgb(191,191,191)" stroke-width="1" font-size="16" >H</text>
<text x="170.194687" y="208.000000" fill="rgb(191,191,191)"  stroke="rgb(191,191,191)" stroke-width="1" font-size="16" >H</text>
<text x="239.476719" y="168.000000" fill="rgb(191,191,191)"  stroke="rgb(191,191,191)" stroke-width="1" font-size="16" >H</text>
<text x="239.476719" y="88.000000" fill="rgb(191,191,191)"  stroke="rgb(191,191,191)" stroke-width="1" font-size="16" >H</text>
<text x="135.553671" y="148.000000" fill="rgb(12,12,255)"  stroke="rgb(12,12,255)" stroke-width="1" font-size="16" >N</text>
</svg>
</g>
<text font-size="18.000000" fill ="black" font-family="sans-serif"
x="10.000000" y="20.000000" >ZINC11535670</text>
</svg>
