<?xml version="1.0"?>
<svg version="1.1" id="topsvg"
xmlns="http://www.w3.org/2000/svg" xmlns:xlink="http://www.w3.org/1999/xlink"
xmlns:cml="http://www.xml-cml.org/schema" x="0" y="0" width="200px" height="200px" viewBox="0 0 100 100">
<title>ZINC98229981 - Open Babel Depiction</title>
<rect x="0" y="0" width="100" height="100" fill="white"/>
<g transform="translate(0,0)">
<svg width="100" height="100" x="0" y="0" viewBox="0 0 717.997 625.781"
font-family="sans-serif" stroke="rgb(0,0,0)" stroke-width="2"  stroke-linecap="round">
<line x1="451.3" y1="341.4" x2="432.3" y2="308.5" stroke="rgb(0,0,0)"  stroke-width="2.0"/>
<line x1="451.3" y1="341.4" x2="472.9" y2="353.9" stroke="rgb(0,0,0)"  stroke-width="2.0"/>
<line x1="451.3" y1="341.4" x2="472.9" y2="328.9" stroke="rgb(0,0,0)"  stroke-width="2.0"/>
<line x1="451.3" y1="341.4" x2="438.8" y2="363.1" stroke="rgb(0,0,0)"  stroke-width="2.0"/>
<line x1="428.2" y1="311.7" x2="427.4" y2="310.3" stroke="rgb(0,0,0)"  stroke-width="1.0"/>
<line x1="425.0" y1="314.3" x2="423.6" y2="311.8" stroke="rgb(0,0,0)"  stroke-width="1.0"/>
<line x1="421.8" y1="316.9" x2="419.7" y2="313.3" stroke="rgb(0,0,0)"  stroke-width="1.0"/>
<line x1="418.6" y1="319.5" x2="415.9" y2="314.8" stroke="rgb(0,0,0)"  stroke-width="1.0"/>
<line x1="415.4" y1="322.1" x2="412.0" y2="316.3" stroke="rgb(0,0,0)"  stroke-width="1.0"/>
<line x1="412.2" y1="324.7" x2="408.2" y2="317.8" stroke="rgb(0,0,0)"  stroke-width="1.0"/>
<line x1="432.3" y1="308.5" x2="413.2" y2="275.6" stroke="rgb(0,0,0)"  stroke-width="2.0"/>
<line x1="432.3" y1="308.5" x2="453.9" y2="296.0" stroke="rgb(0,0,0)"  stroke-width="2.0"/>
<line x1="410.6" y1="274.1" x2="423.2" y2="252.4" stroke="rgb(0,0,0)"  stroke-width="2.0"/>
<line x1="415.8" y1="277.1" x2="428.4" y2="255.4" stroke="rgb(0,0,0)"  stroke-width="2.0"/>
<line x1="413.2" y1="275.6" x2="388.2" y2="275.6" stroke="rgb(0,0,0)"  stroke-width="2.0"/>
<line x1="368.7" y1="264.3" x2="356.2" y2="242.6" stroke="rgb(0,0,0)"  stroke-width="2.0"/>
<line x1="368.7" y1="286.8" x2="362.7" y2="297.2" stroke="rgb(0,0,0)"  stroke-width="2.0"/>
<polygon points="356.221521 242.632928 376.280118 226.433289 380.280118 233.361492 " stroke-width="2.000000" fill="rgb(0,0,0)"  stroke="rgb(0,0,0)" />
<line x1="356.2" y1="242.6" x2="280.2" y2="110.9" stroke="rgb(0,0,0)"  stroke-width="2.0"/>
<line x1="356.2" y1="242.6" x2="323.3" y2="261.6" stroke="rgb(0,0,0)"  stroke-width="2.0"/>
<line x1="280.2" y1="110.9" x2="292.7" y2="89.3" stroke="rgb(0,0,0)"  stroke-width="2.0"/>
<line x1="280.2" y1="110.9" x2="258.5" y2="98.4" stroke="rgb(0,0,0)"  stroke-width="2.0"/>
<line x1="280.2" y1="110.9" x2="258.5" y2="123.4" stroke="rgb(0,0,0)"  stroke-width="2.0"/>
<line x1="312.2" y1="78.0" x2="324.2" y2="78.0" stroke="rgb(0,0,0)"  stroke-width="2.0"/>
<line x1="340.2" y1="91.0" x2="340.2" y2="103.0" stroke="rgb(0,0,0)"  stroke-width="2.0"/>
<line x1="334.2" y1="91.0" x2="334.2" y2="103.0" stroke="rgb(0,0,0)"  stroke-width="2.0"/>
<line x1="350.2" y1="78.0" x2="362.2" y2="78.0" stroke="rgb(0,0,0)"  stroke-width="2.0"/>
<line x1="337.2" y1="65.0" x2="337.2" y2="53.0" stroke="rgb(0,0,0)"  stroke-width="2.0"/>
<line x1="326.3" y1="261.6" x2="326.3" y2="286.7" stroke="rgb(0,0,0)"  stroke-width="2.0"/>
<line x1="320.3" y1="261.6" x2="320.3" y2="286.7" stroke="rgb(0,0,0)"  stroke-width="2.0"/>
<line x1="323.3" y1="261.6" x2="268.7" y2="230.1" stroke="rgb(0,0,0)"  stroke-width="2.0"/>
<line x1="253.5" y1="185.8" x2="277.9" y2="180.6" stroke="rgb(0,0,0)"  stroke-width="2.0"/>
<line x1="253.5" y1="185.8" x2="261.2" y2="162.0" stroke="rgb(0,0,0)"  stroke-width="2.0"/>
<line x1="216.3" y1="177.9" x2="218.9" y2="153.0" stroke="rgb(0,0,0)"  stroke-width="2.0"/>
<line x1="216.3" y1="177.9" x2="196.1" y2="163.2" stroke="rgb(0,0,0)"  stroke-width="2.0"/>
<line x1="197.3" y1="210.8" x2="174.4" y2="200.7" stroke="rgb(0,0,0)"  stroke-width="2.0"/>
<line x1="197.3" y1="210.8" x2="177.0" y2="225.5" stroke="rgb(0,0,0)"  stroke-width="2.0"/>
<polygon points="222.721854 239.087379 208.650958 260.692598 202.705799 255.339554 " stroke-width="2.000000" fill="rgb(0,0,0)"  stroke="rgb(0,0,0)" />
<line x1="222.7" y1="239.1" x2="234.5" y2="275.2" stroke="rgb(0,0,0)"  stroke-width="2.0"/>
<line x1="235.1" y1="272.3" x2="259.6" y2="277.5" stroke="rgb(0,0,0)"  stroke-width="2.0"/>
<line x1="233.8" y1="278.2" x2="258.3" y2="283.4" stroke="rgb(0,0,0)"  stroke-width="2.0"/>
<line x1="234.5" y1="275.2" x2="217.7" y2="293.8" stroke="rgb(0,0,0)"  stroke-width="2.0"/>
<line x1="213.0" y1="315.9" x2="220.8" y2="339.7" stroke="rgb(0,0,0)"  stroke-width="2.0"/>
<line x1="196.3" y1="300.8" x2="184.6" y2="298.3" stroke="rgb(0,0,0)"  stroke-width="2.0"/>
<line x1="225.4" y1="337.3" x2="225.9" y2="338.8" stroke="rgb(0,0,0)"  stroke-width="1.0"/>
<line x1="229.1" y1="335.4" x2="229.9" y2="338.2" stroke="rgb(0,0,0)"  stroke-width="1.0"/>
<line x1="232.7" y1="333.6" x2="234.0" y2="337.5" stroke="rgb(0,0,0)"  stroke-width="1.0"/>
<line x1="236.4" y1="331.7" x2="238.1" y2="336.9" stroke="rgb(0,0,0)"  stroke-width="1.0"/>
<line x1="240.1" y1="329.8" x2="242.2" y2="336.2" stroke="rgb(0,0,0)"  stroke-width="1.0"/>
<line x1="243.8" y1="328.0" x2="246.2" y2="335.6" stroke="rgb(0,0,0)"  stroke-width="1.0"/>
<line x1="220.8" y1="339.7" x2="232.5" y2="375.8" stroke="rgb(0,0,0)"  stroke-width="2.0"/>
<line x1="220.8" y1="339.7" x2="148.5" y2="363.1" stroke="rgb(0,0,0)"  stroke-width="2.0"/>
<line x1="232.5" y1="375.8" x2="268.7" y2="364.1" stroke="rgb(0,0,0)"  stroke-width="2.0"/>
<line x1="232.5" y1="375.8" x2="244.3" y2="412.0" stroke="rgb(0,0,0)"  stroke-width="2.0"/>
<line x1="232.5" y1="375.8" x2="208.7" y2="383.5" stroke="rgb(0,0,0)"  stroke-width="2.0"/>
<line x1="268.7" y1="364.1" x2="293.2" y2="369.3" stroke="rgb(0,0,0)"  stroke-width="2.0"/>
<line x1="268.7" y1="364.1" x2="276.4" y2="387.9" stroke="rgb(0,0,0)"  stroke-width="2.0"/>
<line x1="268.7" y1="364.1" x2="273.9" y2="339.6" stroke="rgb(0,0,0)"  stroke-width="2.0"/>
<line x1="244.3" y1="412.0" x2="239.1" y2="436.4" stroke="rgb(0,0,0)"  stroke-width="2.0"/>
<line x1="244.3" y1="412.0" x2="220.5" y2="419.7" stroke="rgb(0,0,0)"  stroke-width="2.0"/>
<line x1="244.3" y1="412.0" x2="268.7" y2="417.2" stroke="rgb(0,0,0)"  stroke-width="2.0"/>
<line x1="146.5" y1="365.4" x2="127.9" y2="348.6" stroke="rgb(0,0,0)"  stroke-width="2.0"/>
<line x1="150.5" y1="360.9" x2="131.9" y2="344.2" stroke="rgb(0,0,0)"  stroke-width="2.0"/>
<line x1="148.5" y1="363.1" x2="143.3" y2="387.6" stroke="rgb(0,0,0)"  stroke-width="2.0"/>
<line x1="128.2" y1="404.3" x2="104.4" y2="412.1" stroke="rgb(0,0,0)"  stroke-width="2.0"/>
<line x1="150.2" y1="409.0" x2="159.2" y2="417.1" stroke="rgb(0,0,0)"  stroke-width="2.0"/>
<polygon points="104.407654 412.079938 92.732433 389.091575 100.340886 386.619439 " stroke-width="2.000000" fill="rgb(0,0,0)"  stroke="rgb(0,0,0)" />
<line x1="104.4" y1="412.1" x2="68.3" y2="423.8" stroke="rgb(0,0,0)"  stroke-width="2.0"/>
<line x1="104.4" y1="412.1" x2="116.2" y2="448.2" stroke="rgb(0,0,0)"  stroke-width="2.0"/>
<line x1="68.3" y1="423.8" x2="51.5" y2="442.4" stroke="rgb(0,0,0)"  stroke-width="2.0"/>
<line x1="68.3" y1="423.8" x2="76.0" y2="447.6" stroke="rgb(0,0,0)"  stroke-width="2.0"/>
<line x1="68.3" y1="423.8" x2="49.7" y2="407.1" stroke="rgb(0,0,0)"  stroke-width="2.0"/>
<line x1="118.4" y1="450.2" x2="101.6" y2="468.8" stroke="rgb(0,0,0)"  stroke-width="2.0"/>
<line x1="113.9" y1="446.2" x2="97.2" y2="464.8" stroke="rgb(0,0,0)"  stroke-width="2.0"/>
<line x1="116.2" y1="448.2" x2="140.6" y2="453.4" stroke="rgb(0,0,0)"  stroke-width="2.0"/>
<line x1="476.4" y1="296.0" x2="498.1" y2="308.5" stroke="rgb(0,0,0)"  stroke-width="2.0"/>
<line x1="465.2" y1="276.5" x2="465.2" y2="264.5" stroke="rgb(0,0,0)"  stroke-width="2.0"/>
<line x1="501.1" y1="308.5" x2="501.1" y2="333.5" stroke="rgb(0,0,0)"  stroke-width="2.0"/>
<line x1="495.1" y1="308.5" x2="495.1" y2="333.5" stroke="rgb(0,0,0)"  stroke-width="2.0"/>
<line x1="498.1" y1="308.5" x2="531.0" y2="289.5" stroke="rgb(0,0,0)"  stroke-width="2.0"/>
<polygon points="531.024418 289.471223 514.824779 269.412626 521.752982 265.412626 " stroke-width="2.000000" fill="rgb(0,0,0)"  stroke="rgb(0,0,0)" />
<line x1="531.0" y1="289.5" x2="563.9" y2="270.5" stroke="rgb(0,0,0)"  stroke-width="2.0"/>
<line x1="531.0" y1="289.5" x2="543.5" y2="311.1" stroke="rgb(0,0,0)"  stroke-width="2.0"/>
<line x1="563.9" y1="270.5" x2="563.9" y2="232.4" stroke="rgb(0,0,0)"  stroke-width="2.0"/>
<line x1="563.9" y1="270.5" x2="589.0" y2="270.5" stroke="rgb(0,0,0)"  stroke-width="2.0"/>
<line x1="563.9" y1="270.5" x2="576.5" y2="292.1" stroke="rgb(0,0,0)"  stroke-width="2.0"/>
<line x1="563.9" y1="232.4" x2="596.9" y2="213.4" stroke="rgb(0,0,0)"  stroke-width="2.0"/>
<line x1="563.9" y1="232.4" x2="551.4" y2="210.8" stroke="rgb(0,0,0)"  stroke-width="2.0"/>
<line x1="563.9" y1="232.4" x2="538.9" y2="232.4" stroke="rgb(0,0,0)"  stroke-width="2.0"/>
<line x1="596.9" y1="213.4" x2="596.9" y2="188.4" stroke="rgb(0,0,0)"  stroke-width="2.0"/>
<line x1="596.9" y1="213.4" x2="621.9" y2="213.4" stroke="rgb(0,0,0)"  stroke-width="2.0"/>
<line x1="596.9" y1="213.4" x2="609.4" y2="235.1" stroke="rgb(0,0,0)"  stroke-width="2.0"/>
<line x1="585.6" y1="168.9" x2="563.9" y2="156.4" stroke="rgb(0,0,0)"  stroke-width="2.0"/>
<line x1="608.1" y1="168.9" x2="618.5" y2="162.9" stroke="rgb(0,0,0)"  stroke-width="2.0"/>
<line x1="565.4" y1="159.0" x2="543.8" y2="171.5" stroke="rgb(0,0,0)"  stroke-width="2.0"/>
<line x1="562.4" y1="153.8" x2="540.8" y2="166.3" stroke="rgb(0,0,0)"  stroke-width="2.0"/>
<line x1="563.9" y1="156.4" x2="563.9" y2="131.4" stroke="rgb(0,0,0)"  stroke-width="2.0"/>
<line x1="531.0" y1="188.4" x2="531.0" y2="200.4" stroke="rgb(0,0,0)"  stroke-width="2.0"/>
<line x1="519.8" y1="168.9" x2="509.4" y2="162.9" stroke="rgb(0,0,0)"  stroke-width="2.0"/>
<line x1="552.7" y1="111.9" x2="542.3" y2="105.9" stroke="rgb(0,0,0)"  stroke-width="2.0"/>
<line x1="575.2" y1="111.9" x2="585.6" y2="105.9" stroke="rgb(0,0,0)"  stroke-width="2.0"/>
<line x1="563.0" y1="322.4" x2="588.0" y2="322.4" stroke="rgb(0,0,0)"  stroke-width="2.0"/>
<line x1="543.5" y1="333.7" x2="537.5" y2="344.1" stroke="rgb(0,0,0)"  stroke-width="2.0"/>
<line x1="585.5" y1="320.9" x2="598.0" y2="299.2" stroke="rgb(0,0,0)"  stroke-width="2.0"/>
<line x1="590.6" y1="323.9" x2="603.2" y2="302.2" stroke="rgb(0,0,0)"  stroke-width="2.0"/>
<line x1="588.0" y1="322.4" x2="607.1" y2="355.3" stroke="rgb(0,0,0)"  stroke-width="2.0"/>
<polygon points="607.057476 355.317783 627.116073 339.118144 631.116073 346.046347 " stroke-width="2.000000" fill="rgb(0,0,0)"  stroke="rgb(0,0,0)" />
<line x1="607.1" y1="355.3" x2="645.1" y2="421.2" stroke="rgb(0,0,0)"  stroke-width="2.0"/>
<line x1="607.1" y1="355.3" x2="585.4" y2="367.8" stroke="rgb(0,0,0)"  stroke-width="2.0"/>
<line x1="645.1" y1="421.2" x2="626.1" y2="454.1" stroke="rgb(0,0,0)"  stroke-width="2.0"/>
<line x1="645.1" y1="421.2" x2="666.7" y2="433.7" stroke="rgb(0,0,0)"  stroke-width="2.0"/>
<line x1="645.1" y1="421.2" x2="666.7" y2="408.7" stroke="rgb(0,0,0)"  stroke-width="2.0"/>
<line x1="626.1" y1="454.1" x2="645.1" y2="487.0" stroke="rgb(0,0,0)"  stroke-width="2.0"/>
<line x1="626.1" y1="454.1" x2="604.4" y2="466.6" stroke="rgb(0,0,0)"  stroke-width="2.0"/>
<line x1="626.1" y1="454.1" x2="604.4" y2="441.6" stroke="rgb(0,0,0)"  stroke-width="2.0"/>
<line x1="645.1" y1="487.0" x2="632.6" y2="508.7" stroke="rgb(0,0,0)"  stroke-width="2.0"/>
<line x1="645.1" y1="487.0" x2="666.7" y2="499.5" stroke="rgb(0,0,0)"  stroke-width="2.0"/>
<line x1="645.1" y1="487.0" x2="666.7" y2="474.5" stroke="rgb(0,0,0)"  stroke-width="2.0"/>
<line x1="613.1" y1="519.9" x2="588.0" y2="519.9" stroke="rgb(0,0,0)"  stroke-width="2.0"/>
<line x1="632.6" y1="531.2" x2="638.6" y2="541.6" stroke="rgb(0,0,0)"  stroke-width="2.0"/>
<line x1="585.5" y1="521.4" x2="572.9" y2="499.8" stroke="rgb(0,0,0)"  stroke-width="2.0"/>
<line x1="590.6" y1="518.4" x2="578.1" y2="496.8" stroke="rgb(0,0,0)"  stroke-width="2.0"/>
<line x1="588.0" y1="519.9" x2="575.5" y2="541.6" stroke="rgb(0,0,0)"  stroke-width="2.0"/>
<line x1="575.5" y1="475.8" x2="581.5" y2="465.3" stroke="rgb(0,0,0)"  stroke-width="2.0"/>
<line x1="556.0" y1="487.0" x2="544.0" y2="487.0" stroke="rgb(0,0,0)"  stroke-width="2.0"/>
<line x1="556.0" y1="552.9" x2="544.0" y2="552.9" stroke="rgb(0,0,0)"  stroke-width="2.0"/>
<line x1="575.5" y1="564.1" x2="581.5" y2="574.5" stroke="rgb(0,0,0)"  stroke-width="2.0"/>
<line x1="580.6" y1="385.6" x2="586.6" y2="396.0" stroke="rgb(0,0,0)"  stroke-width="2.0"/>
<line x1="562.9" y1="380.8" x2="552.5" y2="386.8" stroke="rgb(0,0,0)"  stroke-width="2.0"/>
<line x1="567.6" y1="363.1" x2="561.6" y2="352.7" stroke="rgb(0,0,0)"  stroke-width="2.0"/>
<line x1="216.3" y1="177.9" x2="197.3" y2="210.8" stroke="rgb(0,0,0)"  stroke-width="2.0"/>
<line x1="197.3" y1="210.8" x2="222.7" y2="239.1" stroke="rgb(0,0,0)"  stroke-width="2.0"/>
<line x1="222.7" y1="239.1" x2="245.6" y2="228.9" stroke="rgb(0,0,0)"  stroke-width="2.0"/>
<line x1="256.1" y1="210.7" x2="253.5" y2="185.8" stroke="rgb(0,0,0)"  stroke-width="2.0"/>
<line x1="253.5" y1="185.8" x2="216.3" y2="177.9" stroke="rgb(0,0,0)"  stroke-width="2.0"/>
<text x="259.225625" y="157.660526" fill="rgb(191,191,191)"  stroke="rgb(191,191,191)" stroke-width="1" font-size="16" >H</text>
<text x="36.813764" y="460.079478" fill="rgb(191,191,191)"  stroke="rgb(191,191,191)" stroke-width="1" font-size="16" >H</text>
<text x="162.815309" y="433.770207" fill="rgb(191,191,191)"  stroke="rgb(191,191,191)" stroke-width="1" font-size="16" >H</text>
<text x="275.460621" y="427.866717" fill="rgb(191,191,191)"  stroke="rgb(191,191,191)" stroke-width="1" font-size="16" >H</text>
<text x="202.118977" y="431.710389" fill="rgb(191,191,191)"  stroke="rgb(191,191,191)" stroke-width="1" font-size="16" >H</text>
<text x="230.370764" y="457.148412" fill="rgb(191,191,191)"  stroke="rgb(191,191,191)" stroke-width="1" font-size="16" >H</text>
<text x="270.587040" y="334.873238" fill="rgb(191,191,191)"  stroke="rgb(191,191,191)" stroke-width="1" font-size="16" >H</text>
<text x="274.430712" y="408.214882" fill="rgb(191,191,191)"  stroke="rgb(191,191,191)" stroke-width="1" font-size="16" >H</text>
<text x="299.868735" y="379.963096" fill="rgb(191,191,191)"  stroke="rgb(191,191,191)" stroke-width="1" font-size="16" >H</text>
<text x="190.371224" y="395.554522" fill="rgb(191,191,191)"  stroke="rgb(191,191,191)" stroke-width="1" font-size="16" >H</text>
<text x="165.845808" y="303.590952" fill="rgb(191,191,191)"  stroke="rgb(191,191,191)" stroke-width="1" font-size="16" >H</text>
<text x="160.527813" y="241.181147" fill="rgb(191,191,191)"  stroke="rgb(191,191,191)" stroke-width="1" font-size="16" >H</text>
<text x="156.554003" y="203.372877" fill="rgb(191,191,191)"  stroke="rgb(191,191,191)" stroke-width="1" font-size="16" >H</text>
<text x="179.536077" y="163.566757" fill="rgb(191,191,191)"  stroke="rgb(191,191,191)" stroke-width="1" font-size="16" >H</text>
<text x="214.265905" y="148.104042" fill="rgb(191,191,191)"  stroke="rgb(191,191,191)" stroke-width="1" font-size="16" >H</text>
<text x="73.999540" y="467.983559" fill="rgb(191,191,191)"  stroke="rgb(191,191,191)" stroke-width="1" font-size="16" >H</text>
<text x="284.663648" y="185.912312" fill="rgb(191,191,191)"  stroke="rgb(191,191,191)" stroke-width="1" font-size="16" >H</text>
<text x="241.265183" y="137.948073" fill="rgb(191,191,191)"  stroke="rgb(191,191,191)" stroke-width="1" font-size="16" >H</text>
<text x="241.265183" y="99.931544" fill="rgb(191,191,191)"  stroke="rgb(191,191,191)" stroke-width="1" font-size="16" >H</text>
<text x="350.221521" y="316.479488" fill="rgb(191,191,191)"  stroke="rgb(191,191,191)" stroke-width="1" font-size="16" >H</text>
<text x="426.254578" y="382.326047" fill="rgb(191,191,191)"  stroke="rgb(191,191,191)" stroke-width="1" font-size="16" >H</text>
<text x="478.186123" y="330.394503" fill="rgb(191,191,191)"  stroke="rgb(191,191,191)" stroke-width="1" font-size="16" >H</text>
<text x="478.186123" y="368.411032" fill="rgb(191,191,191)"  stroke="rgb(191,191,191)" stroke-width="1" font-size="16" >H</text>
<text x="578.934196" y="370.294047" fill="rgb(12,12,255)"  stroke="rgb(12,12,255)" stroke-width="1" font-size="16" >+</text>
<text x="568.134196" y="382.326047" fill="rgb(12,12,255)"  stroke="rgb(12,12,255)" stroke-width="1" font-size="16" >N</text>
<text x="563.040947" y="560.857462" fill="rgb(12,12,255)"  stroke="rgb(12,12,255)" stroke-width="1" font-size="16" >N</text>
<text x="563.040947" y="495.010902" fill="rgb(12,12,255)"  stroke="rgb(12,12,255)" stroke-width="1" font-size="16" >N</text>
<text x="620.065740" y="527.934182" fill="rgb(12,12,255)"  stroke="rgb(12,12,255)" stroke-width="1" font-size="16" >N</text>
<text x="671.997284" y="448.172607" fill="rgb(191,191,191)"  stroke="rgb(191,191,191)" stroke-width="1" font-size="16" >H</text>
<text x="549.125931" y="349.402767" fill="rgb(191,191,191)"  stroke="rgb(191,191,191)" stroke-width="1" font-size="16" >H</text>
<text x="492.101138" y="164.413372" fill="rgb(191,191,191)"  stroke="rgb(191,191,191)" stroke-width="1" font-size="16" >H</text>
<text x="525.024418" y="495.010902" fill="rgb(191,191,191)"  stroke="rgb(191,191,191)" stroke-width="1" font-size="16" >H</text>
<text x="535.210916" y="401.334312" fill="rgb(191,191,191)"  stroke="rgb(191,191,191)" stroke-width="1" font-size="16" >H</text>
<text x="587.142460" y="415.249327" fill="rgb(191,191,191)"  stroke="rgb(191,191,191)" stroke-width="1" font-size="16" >H</text>
<text x="582.049211" y="593.780741" fill="rgb(191,191,191)"  stroke="rgb(191,191,191)" stroke-width="1" font-size="16" >H</text>
<text x="525.024418" y="560.857462" fill="rgb(191,191,191)"  stroke="rgb(191,191,191)" stroke-width="1" font-size="16" >H</text>
<text x="582.049211" y="462.087622" fill="rgb(191,191,191)"  stroke="rgb(191,191,191)" stroke-width="1" font-size="16" >H</text>
<text x="639.074005" y="560.857462" fill="rgb(191,191,191)"  stroke="rgb(191,191,191)" stroke-width="1" font-size="16" >H</text>
<text x="671.997284" y="476.002638" fill="rgb(191,191,191)"  stroke="rgb(191,191,191)" stroke-width="1" font-size="16" >H</text>
<text x="671.997284" y="514.019166" fill="rgb(191,191,191)"  stroke="rgb(191,191,191)" stroke-width="1" font-size="16" >H</text>
<text x="587.142460" y="443.079358" fill="rgb(191,191,191)"  stroke="rgb(191,191,191)" stroke-width="1" font-size="16" >H</text>
<text x="587.142460" y="481.095887" fill="rgb(191,191,191)"  stroke="rgb(191,191,191)" stroke-width="1" font-size="16" >H</text>
<text x="671.997284" y="410.156078" fill="rgb(191,191,191)"  stroke="rgb(191,191,191)" stroke-width="1" font-size="16" >H</text>
<text x="525.024418" y="363.317783" fill="rgb(191,191,191)"  stroke="rgb(191,191,191)" stroke-width="1" font-size="16" >H</text>
<text x="590.870978" y="107.388579" fill="rgb(191,191,191)"  stroke="rgb(191,191,191)" stroke-width="1" font-size="16" >H</text>
<text x="525.024418" y="107.388579" fill="rgb(191,191,191)"  stroke="rgb(191,191,191)" stroke-width="1" font-size="16" >H</text>
<text x="525.024418" y="221.438165" fill="rgb(191,191,191)"  stroke="rgb(191,191,191)" stroke-width="1" font-size="16" >H</text>
<text x="623.794257" y="164.413372" fill="rgb(191,191,191)"  stroke="rgb(191,191,191)" stroke-width="1" font-size="16" >H</text>
<text x="609.879242" y="254.361445" fill="rgb(191,191,191)"  stroke="rgb(191,191,191)" stroke-width="1" font-size="16" >H</text>
<text x="628.887506" y="221.438165" fill="rgb(191,191,191)"  stroke="rgb(191,191,191)" stroke-width="1" font-size="16" >H</text>
<text x="519.931169" y="240.446430" fill="rgb(191,191,191)"  stroke="rgb(191,191,191)" stroke-width="1" font-size="16" >H</text>
<text x="538.939433" y="207.523150" fill="rgb(191,191,191)"  stroke="rgb(191,191,191)" stroke-width="1" font-size="16" >H</text>
<text x="576.955962" y="311.386239" fill="rgb(191,191,191)"  stroke="rgb(191,191,191)" stroke-width="1" font-size="16" >H</text>
<text x="595.964227" y="278.462959" fill="rgb(191,191,191)"  stroke="rgb(191,191,191)" stroke-width="1" font-size="16" >H</text>
<text x="459.177858" y="259.454694" fill="rgb(191,191,191)"  stroke="rgb(191,191,191)" stroke-width="1" font-size="16" >H</text>
<text x="34.000000" y="406.389668" fill="rgb(191,191,191)"  stroke="rgb(191,191,191)" stroke-width="1" font-size="16" >H</text>
<text x="250.935205" y="335.903147" fill="rgb(191,191,191)"  stroke="rgb(191,191,191)" stroke-width="1" font-size="16" >H</text>
<text x="203.031584" y="311.495033" fill="rgb(12,12,255)"  stroke="rgb(12,12,255)" stroke-width="1" font-size="16" >N</text>
<text x="265.655384" y="291.147327" fill="rgb(255,12,12)"  stroke="rgb(255,12,12)" stroke-width="1" font-size="16" >O</text>
<text x="191.283831" y="275.339166" fill="rgb(191,191,191)"  stroke="rgb(191,191,191)" stroke-width="1" font-size="16" >H</text>
<text x="251.451681" y="231.624664" fill="rgb(12,12,255)"  stroke="rgb(12,12,255)" stroke-width="1" font-size="16" >N</text>
<text x="317.298241" y="307.657721" fill="rgb(255,12,12)"  stroke="rgb(255,12,12)" stroke-width="1" font-size="16" >O</text>
<text x="331.213256" y="48.000000" fill="rgb(255,12,12)"  stroke="rgb(255,12,12)" stroke-width="1" font-size="16" >OH</text>
<text x="369.229785" y="86.016529" fill="rgb(255,12,12)"  stroke="rgb(255,12,12)" stroke-width="1" font-size="16" >OH</text>
<text x="331.213256" y="124.033058" fill="rgb(255,12,12)"  stroke="rgb(255,12,12)" stroke-width="1" font-size="16" >O</text>
<text x="331.213256" y="86.016529" fill="rgb(255,127,0)"  stroke="rgb(255,127,0)" stroke-width="1" font-size="16" >P</text>
<text x="293.196727" y="86.016529" fill="rgb(255,12,12)"  stroke="rgb(255,12,12)" stroke-width="1" font-size="16" >O</text>
<text x="383.144800" y="231.624664" fill="rgb(191,191,191)"  stroke="rgb(191,191,191)" stroke-width="1" font-size="16" >H</text>
<text x="369.229785" y="283.556208" fill="rgb(12,12,255)"  stroke="rgb(12,12,255)" stroke-width="1" font-size="16" >N</text>
<text x="426.254578" y="250.632928" fill="rgb(255,12,12)"  stroke="rgb(255,12,12)" stroke-width="1" font-size="16" >O</text>
<text x="393.331299" y="335.487752" fill="rgb(191,191,191)"  stroke="rgb(191,191,191)" stroke-width="1" font-size="16" >H</text>
<text x="506.016153" y="264.547943" fill="rgb(191,191,191)"  stroke="rgb(191,191,191)" stroke-width="1" font-size="16" >H</text>
<text x="633.980756" y="344.309518" fill="rgb(191,191,191)"  stroke="rgb(191,191,191)" stroke-width="1" font-size="16" >H</text>
<text x="601.057476" y="297.471223" fill="rgb(255,12,12)"  stroke="rgb(255,12,12)" stroke-width="1" font-size="16" >O</text>
<text x="544.032682" y="330.394503" fill="rgb(12,12,255)"  stroke="rgb(12,12,255)" stroke-width="1" font-size="16" >N</text>
<text x="557.947698" y="126.396843" fill="rgb(12,12,255)"  stroke="rgb(12,12,255)" stroke-width="1" font-size="16" >N</text>
<text x="525.024418" y="183.421636" fill="rgb(12,12,255)"  stroke="rgb(12,12,255)" stroke-width="1" font-size="16" >N</text>
<text x="590.870978" y="183.421636" fill="rgb(12,12,255)"  stroke="rgb(12,12,255)" stroke-width="1" font-size="16" >N</text>
<text x="492.101138" y="354.496017" fill="rgb(255,12,12)"  stroke="rgb(255,12,12)" stroke-width="1" font-size="16" >O</text>
<text x="459.177858" y="297.471223" fill="rgb(12,12,255)"  stroke="rgb(12,12,255)" stroke-width="1" font-size="16" >N</text>
<text x="147.341184" y="464.139886" fill="rgb(255,12,12)"  stroke="rgb(255,12,12)" stroke-width="1" font-size="16" >OH</text>
<text x="84.717385" y="484.487592" fill="rgb(255,12,12)"  stroke="rgb(255,12,12)" stroke-width="1" font-size="16" >O</text>
<text x="86.659901" y="383.924070" fill="rgb(191,191,191)"  stroke="rgb(191,191,191)" stroke-width="1" font-size="16" >H</text>
<text x="134.563522" y="408.332184" fill="rgb(12,12,255)"  stroke="rgb(12,12,255)" stroke-width="1" font-size="16" >N</text>
<text x="114.215816" y="345.708385" fill="rgb(255,12,12)"  stroke="rgb(255,12,12)" stroke-width="1" font-size="16" >O</text>
</svg>
</g>
<text font-size="18.000000" fill ="black" font-family="sans-serif"
x="10.000000" y="20.000000" >ZINC98229981</text>
</svg>
