<?xml version="1.0"?>
<svg version="1.1" id="topsvg"
xmlns="http://www.w3.org/2000/svg" xmlns:xlink="http://www.w3.org/1999/xlink"
xmlns:cml="http://www.xml-cml.org/schema" x="0" y="0" width="200px" height="200px" viewBox="0 0 100 100">
<title>ZINC04096919 - Open Babel Depiction</title>
<rect x="0" y="0" width="100" height="100" fill="white"/>
<g transform="translate(0,0)">
<svg width="100" height="100" x="0" y="0" viewBox="0 0 409.292 375.687"
font-family="sans-serif" stroke="rgb(0,0,0)" stroke-width="2"  stroke-linecap="round">
<line x1="145.4" y1="288.7" x2="148.3" y2="315.5" stroke="rgb(0,0,0)"  stroke-width="2.0"/>
<line x1="177.8" y1="265.2" x2="202.5" y2="276.1" stroke="rgb(0,0,0)"  stroke-width="2.0"/>
<line x1="184.1" y1="217.7" x2="206.0" y2="201.9" stroke="rgb(0,0,0)"  stroke-width="2.0"/>
<line x1="134.1" y1="209.4" x2="131.3" y2="182.6" stroke="rgb(0,0,0)"  stroke-width="2.0"/>
<line x1="140.1" y1="208.8" x2="137.2" y2="181.9" stroke="rgb(0,0,0)"  stroke-width="2.0"/>
<line x1="108.9" y1="272.4" x2="87.1" y2="288.3" stroke="rgb(0,0,0)"  stroke-width="2.0"/>
<line x1="64.7" y1="290.6" x2="51.9" y2="284.9" stroke="rgb(0,0,0)"  stroke-width="2.0"/>
<line x1="77.9" y1="308.8" x2="79.4" y2="322.8" stroke="rgb(0,0,0)"  stroke-width="2.0"/>
<line x1="206.0" y1="201.9" x2="208.8" y2="228.7" stroke="rgb(0,0,0)"  stroke-width="2.0"/>
<line x1="213.6" y1="199.4" x2="214.0" y2="201.0" stroke="rgb(0,0,0)"  stroke-width="1.0"/>
<line x1="219.8" y1="197.5" x2="220.4" y2="200.3" stroke="rgb(0,0,0)"  stroke-width="1.0"/>
<line x1="225.9" y1="195.5" x2="226.8" y2="199.6" stroke="rgb(0,0,0)"  stroke-width="1.0"/>
<line x1="232.0" y1="193.5" x2="233.2" y2="198.9" stroke="rgb(0,0,0)"  stroke-width="1.0"/>
<line x1="238.2" y1="191.6" x2="239.5" y2="198.2" stroke="rgb(0,0,0)"  stroke-width="1.0"/>
<line x1="244.3" y1="189.6" x2="245.9" y2="197.5" stroke="rgb(0,0,0)"  stroke-width="1.0"/>
<line x1="245.1" y1="193.5" x2="253.5" y2="219.2" stroke="rgb(0,0,0)"  stroke-width="2.0"/>
<line x1="245.2" y1="185.5" x2="246.7" y2="185.7" stroke="rgb(0,0,0)"  stroke-width="1.0"/>
<line x1="245.2" y1="179.1" x2="248.0" y2="179.4" stroke="rgb(0,0,0)"  stroke-width="1.0"/>
<line x1="245.2" y1="172.6" x2="249.4" y2="173.1" stroke="rgb(0,0,0)"  stroke-width="1.0"/>
<line x1="245.2" y1="166.2" x2="250.7" y2="166.8" stroke="rgb(0,0,0)"  stroke-width="1.0"/>
<line x1="245.3" y1="159.8" x2="252.0" y2="160.5" stroke="rgb(0,0,0)"  stroke-width="1.0"/>
<line x1="245.3" y1="153.3" x2="253.3" y2="154.2" stroke="rgb(0,0,0)"  stroke-width="1.0"/>
<line x1="245.1" y1="193.5" x2="271.5" y2="199.2" stroke="rgb(0,0,0)"  stroke-width="2.0"/>
<line x1="249.3" y1="153.8" x2="276.3" y2="153.8" stroke="rgb(0,0,0)"  stroke-width="2.0"/>
<line x1="241.7" y1="151.2" x2="242.3" y2="149.8" stroke="rgb(0,0,0)"  stroke-width="1.0"/>
<line x1="235.6" y1="149.2" x2="236.7" y2="146.6" stroke="rgb(0,0,0)"  stroke-width="1.0"/>
<line x1="229.4" y1="147.2" x2="231.1" y2="143.4" stroke="rgb(0,0,0)"  stroke-width="1.0"/>
<line x1="223.3" y1="145.2" x2="225.5" y2="140.2" stroke="rgb(0,0,0)"  stroke-width="1.0"/>
<line x1="217.2" y1="143.2" x2="220.0" y2="137.0" stroke="rgb(0,0,0)"  stroke-width="1.0"/>
<line x1="211.1" y1="141.1" x2="214.4" y2="133.8" stroke="rgb(0,0,0)"  stroke-width="1.0"/>
<line x1="249.3" y1="153.8" x2="262.8" y2="130.4" stroke="rgb(0,0,0)"  stroke-width="2.0"/>
<polygon points="212.749762 137.493847 217.227191 110.769464 224.835643 113.241600 " stroke-width="2.000000" fill="rgb(0,0,0)"  stroke="rgb(0,0,0)" />
<line x1="212.7" y1="137.5" x2="186.0" y2="107.8" stroke="rgb(0,0,0)"  stroke-width="2.0"/>
<line x1="186.0" y1="107.8" x2="194.3" y2="82.1" stroke="rgb(0,0,0)"  stroke-width="2.0"/>
<line x1="186.0" y1="107.8" x2="160.3" y2="99.4" stroke="rgb(0,0,0)"  stroke-width="2.0"/>
<line x1="186.0" y1="107.8" x2="165.9" y2="125.8" stroke="rgb(0,0,0)"  stroke-width="2.0"/>
<line x1="189.6" y1="60.1" x2="180.3" y2="49.7" stroke="rgb(0,0,0)"  stroke-width="2.0"/>
<line x1="282.3" y1="119.1" x2="296.3" y2="119.1" stroke="rgb(0,0,0)"  stroke-width="2.0"/>
<polygon points="309.291580 132.322296 313.291580 145.922296 305.291580 145.922296 " stroke-width="2.000000" fill="rgb(0,0,0)"  stroke="rgb(0,0,0)" />
<line x1="322.3" y1="119.1" x2="336.3" y2="119.1" stroke="rgb(0,0,0)"  stroke-width="2.0"/>
<line x1="309.3" y1="106.1" x2="309.3" y2="92.1" stroke="rgb(0,0,0)"  stroke-width="2.0"/>
<line x1="355.8" y1="130.4" x2="362.8" y2="142.5" stroke="rgb(0,0,0)"  stroke-width="2.0"/>
<line x1="288.3" y1="214.2" x2="292.6" y2="227.5" stroke="rgb(0,0,0)"  stroke-width="2.0"/>
<line x1="161.7" y1="220.1" x2="137.1" y2="209.1" stroke="rgb(0,0,0)"  stroke-width="2.0"/>
<line x1="137.1" y1="209.1" x2="115.2" y2="225.0" stroke="rgb(0,0,0)"  stroke-width="2.0"/>
<line x1="106.1" y1="245.7" x2="108.9" y2="272.4" stroke="rgb(0,0,0)"  stroke-width="2.0"/>
<line x1="113.5" y1="247.0" x2="115.4" y2="265.7" stroke="rgb(0,0,0)"  stroke-width="2.0"/>
<line x1="108.9" y1="272.4" x2="145.4" y2="288.7" stroke="rgb(0,0,0)"  stroke-width="2.0"/>
<line x1="145.4" y1="288.7" x2="177.8" y2="265.2" stroke="rgb(0,0,0)"  stroke-width="2.0"/>
<line x1="146.1" y1="279.3" x2="168.7" y2="262.9" stroke="rgb(0,0,0)"  stroke-width="2.0"/>
<line x1="177.8" y1="265.2" x2="175.0" y2="238.3" stroke="rgb(0,0,0)"  stroke-width="2.0"/>
<line x1="249.3" y1="153.8" x2="212.7" y2="137.5" stroke="rgb(0,0,0)"  stroke-width="2.0"/>
<line x1="212.7" y1="137.5" x2="194.7" y2="157.6" stroke="rgb(0,0,0)"  stroke-width="2.0"/>
<line x1="192.5" y1="178.5" x2="206.0" y2="201.9" stroke="rgb(0,0,0)"  stroke-width="2.0"/>
<line x1="206.0" y1="201.9" x2="245.1" y2="193.5" stroke="rgb(0,0,0)"  stroke-width="2.0"/>
<line x1="245.1" y1="193.5" x2="249.3" y2="153.8" stroke="rgb(0,0,0)"  stroke-width="2.0"/>
<text x="208.346814" y="289.422407" fill="rgb(191,191,191)"  stroke="rgb(191,191,191)" stroke-width="1" font-size="16" >H</text>
<text x="192.345217" y="77.725793" fill="rgb(255,12,12)"  stroke="rgb(255,12,12)" stroke-width="1" font-size="16" >O</text>
<text x="263.291580" y="127.122296" fill="rgb(255,12,12)"  stroke="rgb(255,12,12)" stroke-width="1" font-size="16" >O</text>
<text x="303.291580" y="127.122296" fill="rgb(255,127,0)"  stroke="rgb(255,127,0)" stroke-width="1" font-size="16" >P</text>
<text x="303.291580" y="167.122296" fill="rgb(255,12,12)"  stroke="rgb(255,12,12)" stroke-width="1" font-size="16" >O</text>
<text x="343.291580" y="127.122296" fill="rgb(255,12,12)"  stroke="rgb(255,12,12)" stroke-width="1" font-size="16" >O</text>
<text x="303.291580" y="87.122296" fill="rgb(255,12,12)"  stroke="rgb(255,12,12)" stroke-width="1" font-size="16" >OH</text>
<text x="278.236345" y="209.860656" fill="rgb(255,12,12)"  stroke="rgb(255,12,12)" stroke-width="1" font-size="16" >O</text>
<text x="143.625455" y="336.445228" fill="rgb(191,191,191)"  stroke="rgb(191,191,191)" stroke-width="1" font-size="16" >H</text>
<text x="34.000000" y="287.636831" fill="rgb(191,191,191)"  stroke="rgb(191,191,191)" stroke-width="1" font-size="16" >H</text>
<text x="74.722957" y="343.687172" fill="rgb(191,191,191)"  stroke="rgb(191,191,191)" stroke-width="1" font-size="16" >H</text>
<text x="141.942277" y="103.407374" fill="rgb(191,191,191)"  stroke="rgb(191,191,191)" stroke-width="1" font-size="16" >H</text>
<text x="150.258744" y="142.533278" fill="rgb(191,191,191)"  stroke="rgb(191,191,191)" stroke-width="1" font-size="16" >H</text>
<text x="165.579993" y="48.000000" fill="rgb(191,191,191)"  stroke="rgb(191,191,191)" stroke-width="1" font-size="16" >H</text>
<text x="290.597025" y="247.902917" fill="rgb(191,191,191)"  stroke="rgb(191,191,191)" stroke-width="1" font-size="16" >H</text>
<text x="363.291580" y="161.763312" fill="rgb(191,191,191)"  stroke="rgb(191,191,191)" stroke-width="1" font-size="16" >H</text>
<text x="204.165676" y="249.641532" fill="rgb(191,191,191)"  stroke="rgb(191,191,191)" stroke-width="1" font-size="16" >H</text>
<text x="167.623858" y="233.372066" fill="rgb(12,12,255)"  stroke="rgb(12,12,255)" stroke-width="1" font-size="16" >N</text>
<text x="126.900901" y="177.321724" fill="rgb(255,12,12)"  stroke="rgb(255,12,12)" stroke-width="1" font-size="16" >O</text>
<text x="98.721360" y="240.614010" fill="rgb(12,12,255)"  stroke="rgb(12,12,255)" stroke-width="1" font-size="16" >N</text>
<text x="70.541818" y="303.906296" fill="rgb(12,12,255)"  stroke="rgb(12,12,255)" stroke-width="1" font-size="16" >N</text>
<text x="251.471121" y="239.586449" fill="rgb(191,191,191)"  stroke="rgb(191,191,191)" stroke-width="1" font-size="16" >H</text>
<text x="283.291580" y="161.763312" fill="rgb(191,191,191)"  stroke="rgb(191,191,191)" stroke-width="1" font-size="16" >H</text>
<text x="219.110441" y="107.451586" fill="rgb(191,191,191)"  stroke="rgb(191,191,191)" stroke-width="1" font-size="16" >H</text>
<text x="179.984537" y="175.219640" fill="rgb(255,12,12)"  stroke="rgb(255,12,12)" stroke-width="1" font-size="16" >O</text>
</svg>
</g>
<text font-size="18.000000" fill ="black" font-family="sans-serif"
x="10.000000" y="20.000000" >ZINC04096919</text>
</svg>
