<?xml version="1.0"?>
<svg version="1.1" id="topsvg"
xmlns="http://www.w3.org/2000/svg" xmlns:xlink="http://www.w3.org/1999/xlink"
xmlns:cml="http://www.xml-cml.org/schema" x="0" y="0" width="200px" height="200px" viewBox="0 0 100 100">
<title>ZINC12967604 - Open Babel Depiction</title>
<rect x="0" y="0" width="100" height="100" fill="white"/>
<g transform="translate(0,0)">
<svg width="100" height="100" x="0" y="0" viewBox="0 0 321.652 246.8"
font-family="sans-serif" stroke="rgb(0,0,0)" stroke-width="2"  stroke-linecap="round">
<line x1="99.8" y1="76.5" x2="88.8" y2="51.9" stroke="rgb(0,0,0)"  stroke-width="2.0"/>
<line x1="138.9" y1="84.9" x2="159.0" y2="66.8" stroke="rgb(0,0,0)"  stroke-width="2.0"/>
<line x1="154.3" y1="131.1" x2="177.7" y2="144.6" stroke="rgb(0,0,0)"  stroke-width="2.0"/>
<line x1="106.5" y1="140.9" x2="100.9" y2="167.3" stroke="rgb(0,0,0)"  stroke-width="2.0"/>
<line x1="86.8" y1="186.9" x2="73.5" y2="191.2" stroke="rgb(0,0,0)"  stroke-width="2.0"/>
<line x1="84.9" y1="181.2" x2="71.6" y2="185.5" stroke="rgb(0,0,0)"  stroke-width="2.0"/>
<line x1="107.9" y1="188.7" x2="118.3" y2="198.1" stroke="rgb(0,0,0)"  stroke-width="2.0"/>
<line x1="177.7" y1="144.6" x2="212.4" y2="124.6" stroke="rgb(0,0,0)"  stroke-width="2.0"/>
<line x1="177.7" y1="144.6" x2="164.2" y2="168.0" stroke="rgb(0,0,0)"  stroke-width="2.0"/>
<line x1="177.7" y1="144.6" x2="191.2" y2="168.0" stroke="rgb(0,0,0)"  stroke-width="2.0"/>
<line x1="213.2" y1="130.0" x2="211.6" y2="130.0" stroke="rgb(0,0,0)"  stroke-width="1.0"/>
<line x1="213.8" y1="134.3" x2="210.9" y2="134.3" stroke="rgb(0,0,0)"  stroke-width="1.0"/>
<line x1="214.4" y1="138.6" x2="210.3" y2="138.6" stroke="rgb(0,0,0)"  stroke-width="1.0"/>
<line x1="215.1" y1="142.9" x2="209.6" y2="142.9" stroke="rgb(0,0,0)"  stroke-width="1.0"/>
<line x1="215.7" y1="147.2" x2="209.0" y2="147.2" stroke="rgb(0,0,0)"  stroke-width="1.0"/>
<line x1="216.4" y1="151.4" x2="208.4" y2="151.4" stroke="rgb(0,0,0)"  stroke-width="1.0"/>
<line x1="247.0" y1="104.6" x2="270.4" y2="118.1" stroke="rgb(0,0,0)"  stroke-width="2.0"/>
<line x1="247.0" y1="104.6" x2="270.4" y2="91.1" stroke="rgb(0,0,0)"  stroke-width="2.0"/>
<line x1="66.9" y1="112.5" x2="52.9" y2="114.0" stroke="rgb(0,0,0)"  stroke-width="2.0"/>
<line x1="138.9" y1="84.9" x2="99.8" y2="76.5" stroke="rgb(0,0,0)"  stroke-width="2.0"/>
<line x1="131.5" y1="90.7" x2="104.2" y2="84.8" stroke="rgb(0,0,0)"  stroke-width="2.0"/>
<line x1="99.8" y1="76.5" x2="86.3" y2="99.9" stroke="rgb(0,0,0)"  stroke-width="2.0"/>
<line x1="88.6" y1="121.0" x2="106.5" y2="140.9" stroke="rgb(0,0,0)"  stroke-width="2.0"/>
<line x1="95.3" y1="117.7" x2="107.9" y2="131.6" stroke="rgb(0,0,0)"  stroke-width="2.0"/>
<line x1="106.5" y1="140.9" x2="131.2" y2="129.9" stroke="rgb(0,0,0)"  stroke-width="2.0"/>
<line x1="141.7" y1="111.7" x2="138.9" y2="84.9" stroke="rgb(0,0,0)"  stroke-width="2.0"/>
<line x1="212.4" y1="97.6" x2="212.4" y2="124.6" stroke="rgb(0,0,0)"  stroke-width="2.0"/>
<line x1="212.4" y1="124.6" x2="247.0" y2="104.6" stroke="rgb(0,0,0)"  stroke-width="2.0"/>
<line x1="247.0" y1="104.6" x2="223.6" y2="91.1" stroke="rgb(0,0,0)"  stroke-width="2.0"/>
<text x="34.000000" y="123.363973" fill="rgb(191,191,191)"  stroke="rgb(191,191,191)" stroke-width="1" font-size="16" >H</text>
<text x="73.780876" y="119.182834" fill="rgb(12,12,255)"  stroke="rgb(12,12,255)" stroke-width="1" font-size="16" >N</text>
<text x="275.651983" y="92.639162" fill="rgb(191,191,191)"  stroke="rgb(191,191,191)" stroke-width="1" font-size="16" >H</text>
<text x="275.651983" y="132.639162" fill="rgb(191,191,191)"  stroke="rgb(191,191,191)" stroke-width="1" font-size="16" >H</text>
<text x="191.728935" y="187.280178" fill="rgb(191,191,191)"  stroke="rgb(191,191,191)" stroke-width="1" font-size="16" >H</text>
<text x="151.728935" y="187.280178" fill="rgb(191,191,191)"  stroke="rgb(191,191,191)" stroke-width="1" font-size="16" >H</text>
<text x="162.632573" y="66.093062" fill="rgb(191,191,191)"  stroke="rgb(191,191,191)" stroke-width="1" font-size="16" >H</text>
<text x="77.511410" y="48.000000" fill="rgb(191,191,191)"  stroke="rgb(191,191,191)" stroke-width="1" font-size="16" >H</text>
<text x="206.369951" y="92.639162" fill="rgb(255,12,12)"  stroke="rgb(255,12,12)" stroke-width="1" font-size="16" >O</text>
<text x="206.369951" y="172.639162" fill="rgb(191,191,191)"  stroke="rgb(191,191,191)" stroke-width="1" font-size="16" >H</text>
<text x="121.955425" y="214.799756" fill="rgb(255,12,12)"  stroke="rgb(255,12,12)" stroke-width="1" font-size="16" >OH</text>
<text x="54.187372" y="200.395211" fill="rgb(255,12,12)"  stroke="rgb(255,12,12)" stroke-width="1" font-size="16" >O</text>
<text x="92.229632" y="188.034532" fill="rgb(12,12,255)"  stroke="rgb(12,12,255)" stroke-width="1" font-size="16" >N</text>
<text x="137.087918" y="132.639162" fill="rgb(12,12,255)"  stroke="rgb(12,12,255)" stroke-width="1" font-size="16" >N</text>
</svg>
</g>
<text font-size="18.000000" fill ="black" font-family="sans-serif"
x="10.000000" y="20.000000" >ZINC12967604</text>
</svg>
