<?xml version="1.0"?>
<svg version="1.1" id="topsvg"
xmlns="http://www.w3.org/2000/svg" xmlns:xlink="http://www.w3.org/1999/xlink"
xmlns:cml="http://www.xml-cml.org/schema" x="0" y="0" width="200px" height="200px" viewBox="0 0 100 100">
<title>ZINC12405084 - Open Babel Depiction</title>
<rect x="0" y="0" width="100" height="100" fill="white"/>
<g transform="translate(0,0)">
<svg width="100" height="100" x="0" y="0" viewBox="0 0 473.961 305.038"
font-family="sans-serif" stroke="rgb(0,0,0)" stroke-width="2"  stroke-linecap="round">
<line x1="106.8" y1="181.9" x2="102.7" y2="207.6" stroke="rgb(0,0,0)"  stroke-width="2.0"/>
<line x1="64.3" y1="162.0" x2="52.1" y2="166.7" stroke="rgb(0,0,0)"  stroke-width="2.0"/>
<line x1="80.7" y1="121.1" x2="60.4" y2="104.7" stroke="rgb(0,0,0)"  stroke-width="2.0"/>
<line x1="84.5" y1="116.4" x2="64.2" y2="100.0" stroke="rgb(0,0,0)"  stroke-width="2.0"/>
<line x1="194.2" y1="112.7" x2="255.0" y2="136.0" stroke="rgb(0,0,0)"  stroke-width="2.0"/>
<line x1="172.0" y1="70.3" x2="188.4" y2="50.1" stroke="rgb(0,0,0)"  stroke-width="2.0"/>
<line x1="255.0" y1="136.0" x2="269.0" y2="114.1" stroke="rgb(0,0,0)"  stroke-width="2.0"/>
<polygon points="255.018553 136.049633 238.958845 171.865864 232.030642 167.865864 " stroke-width="2.000000" fill="rgb(0,0,0)"  stroke="rgb(0,0,0)" />
<line x1="235.5" y1="169.9" x2="211.7" y2="159.3" stroke="rgb(0,0,0)"  stroke-width="2.0"/>
<line x1="241.3" y1="175.1" x2="240.1" y2="176.2" stroke="rgb(0,0,0)"  stroke-width="1.0"/>
<line x1="246.0" y1="179.3" x2="243.8" y2="181.3" stroke="rgb(0,0,0)"  stroke-width="1.0"/>
<line x1="250.6" y1="183.6" x2="247.5" y2="186.3" stroke="rgb(0,0,0)"  stroke-width="1.0"/>
<line x1="255.3" y1="187.8" x2="251.2" y2="191.4" stroke="rgb(0,0,0)"  stroke-width="1.0"/>
<line x1="259.9" y1="192.0" x2="254.9" y2="196.5" stroke="rgb(0,0,0)"  stroke-width="1.0"/>
<line x1="264.6" y1="196.2" x2="258.7" y2="201.6" stroke="rgb(0,0,0)"  stroke-width="1.0"/>
<line x1="235.5" y1="169.9" x2="214.4" y2="185.2" stroke="rgb(0,0,0)"  stroke-width="2.0"/>
<line x1="261.6" y1="198.9" x2="244.2" y2="218.2" stroke="rgb(0,0,0)"  stroke-width="2.0"/>
<line x1="268.4" y1="195.0" x2="269.1" y2="196.4" stroke="rgb(0,0,0)"  stroke-width="1.0"/>
<line x1="273.9" y1="191.9" x2="275.1" y2="194.5" stroke="rgb(0,0,0)"  stroke-width="1.0"/>
<line x1="279.3" y1="188.7" x2="281.0" y2="192.5" stroke="rgb(0,0,0)"  stroke-width="1.0"/>
<line x1="284.8" y1="185.6" x2="287.0" y2="190.6" stroke="rgb(0,0,0)"  stroke-width="1.0"/>
<line x1="290.2" y1="182.5" x2="293.0" y2="188.6" stroke="rgb(0,0,0)"  stroke-width="1.0"/>
<line x1="295.7" y1="179.3" x2="298.9" y2="186.7" stroke="rgb(0,0,0)"  stroke-width="1.0"/>
<line x1="261.6" y1="198.9" x2="269.7" y2="223.7" stroke="rgb(0,0,0)"  stroke-width="2.0"/>
<polygon points="297.294476 183.001802 313.839530 203.658676 306.911326 207.658676 " stroke-width="2.000000" fill="rgb(0,0,0)"  stroke="rgb(0,0,0)" />
<line x1="297.3" y1="183.0" x2="336.3" y2="183.0" stroke="rgb(0,0,0)"  stroke-width="2.0"/>
<line x1="336.3" y1="183.0" x2="349.4" y2="205.6" stroke="rgb(0,0,0)"  stroke-width="2.0"/>
<line x1="336.3" y1="183.0" x2="358.9" y2="170.0" stroke="rgb(0,0,0)"  stroke-width="2.0"/>
<line x1="336.3" y1="183.0" x2="336.3" y2="157.0" stroke="rgb(0,0,0)"  stroke-width="2.0"/>
<line x1="368.9" y1="216.8" x2="381.9" y2="216.8" stroke="rgb(0,0,0)"  stroke-width="2.0"/>
<polygon points="394.913523 229.703746 398.913523 242.979937 390.913523 242.979937 " stroke-width="2.000000" fill="rgb(0,0,0)"  stroke="rgb(0,0,0)" />
<line x1="407.9" y1="216.8" x2="421.0" y2="216.8" stroke="rgb(0,0,0)"  stroke-width="2.0"/>
<line x1="394.9" y1="203.8" x2="394.9" y2="190.8" stroke="rgb(0,0,0)"  stroke-width="2.0"/>
<line x1="394.9" y1="164.8" x2="394.9" y2="151.7" stroke="rgb(0,0,0)"  stroke-width="2.0"/>
<polygon points="407.799237 138.722794 421.075428 134.722794 421.075428 142.722794 " stroke-width="2.000000" fill="rgb(0,0,0)"  stroke="rgb(0,0,0)" />
<line x1="394.9" y1="125.7" x2="394.9" y2="112.7" stroke="rgb(0,0,0)"  stroke-width="2.0"/>
<line x1="381.9" y1="138.7" x2="368.9" y2="138.7" stroke="rgb(0,0,0)"  stroke-width="2.0"/>
<line x1="406.2" y1="93.2" x2="417.5" y2="86.7" stroke="rgb(0,0,0)"  stroke-width="2.0"/>
<line x1="265.0" y1="245.7" x2="256.3" y2="255.4" stroke="rgb(0,0,0)"  stroke-width="2.0"/>
<line x1="205.3" y1="205.7" x2="206.6" y2="218.7" stroke="rgb(0,0,0)"  stroke-width="2.0"/>
<line x1="172.0" y1="70.3" x2="178.7" y2="95.5" stroke="rgb(0,0,0)"  stroke-width="2.0"/>
<line x1="171.2" y1="115.1" x2="149.4" y2="129.3" stroke="rgb(0,0,0)"  stroke-width="2.0"/>
<line x1="149.4" y1="129.3" x2="119.0" y2="104.8" stroke="rgb(0,0,0)"  stroke-width="2.0"/>
<line x1="149.2" y1="120.0" x2="128.2" y2="102.9" stroke="rgb(0,0,0)"  stroke-width="2.0"/>
<line x1="119.0" y1="104.8" x2="128.4" y2="80.4" stroke="rgb(0,0,0)"  stroke-width="2.0"/>
<line x1="145.9" y1="69.0" x2="172.0" y2="70.3" stroke="rgb(0,0,0)"  stroke-width="2.0"/>
<line x1="147.6" y1="76.3" x2="165.6" y2="77.2" stroke="rgb(0,0,0)"  stroke-width="2.0"/>
<line x1="82.6" y1="118.7" x2="119.0" y2="104.8" stroke="rgb(0,0,0)"  stroke-width="2.0"/>
<line x1="149.4" y1="129.3" x2="145.3" y2="155.1" stroke="rgb(0,0,0)"  stroke-width="2.0"/>
<line x1="131.2" y1="172.5" x2="106.8" y2="181.9" stroke="rgb(0,0,0)"  stroke-width="2.0"/>
<line x1="126.7" y1="166.5" x2="109.8" y2="173.0" stroke="rgb(0,0,0)"  stroke-width="2.0"/>
<line x1="106.8" y1="181.9" x2="86.6" y2="165.5" stroke="rgb(0,0,0)"  stroke-width="2.0"/>
<line x1="78.5" y1="144.5" x2="82.6" y2="118.7" stroke="rgb(0,0,0)"  stroke-width="2.0"/>
<line x1="261.6" y1="198.9" x2="297.3" y2="183.0" stroke="rgb(0,0,0)"  stroke-width="2.0"/>
<line x1="297.3" y1="183.0" x2="294.6" y2="157.1" stroke="rgb(0,0,0)"  stroke-width="2.0"/>
<line x1="280.5" y1="141.5" x2="255.0" y2="136.0" stroke="rgb(0,0,0)"  stroke-width="2.0"/>
<line x1="255.0" y1="136.0" x2="235.5" y2="169.9" stroke="rgb(0,0,0)"  stroke-width="2.0"/>
<line x1="235.5" y1="169.9" x2="261.6" y2="198.9" stroke="rgb(0,0,0)"  stroke-width="2.0"/>
<text x="337.865904" y="146.722794" fill="rgb(255,12,12)"  stroke="rgb(255,12,12)" stroke-width="1" font-size="16" >HO</text>
<text x="349.865904" y="224.818032" fill="rgb(255,12,12)"  stroke="rgb(255,12,12)" stroke-width="1" font-size="16" >O</text>
<text x="388.913523" y="224.818032" fill="rgb(255,127,0)"  stroke="rgb(255,127,0)" stroke-width="1" font-size="16" >P</text>
<text x="388.913523" y="263.865651" fill="rgb(255,12,12)"  stroke="rgb(255,12,12)" stroke-width="1" font-size="16" >O</text>
<text x="427.961142" y="224.818032" fill="rgb(255,12,12)"  stroke="rgb(255,12,12)" stroke-width="1" font-size="16" >OH</text>
<text x="388.913523" y="185.770413" fill="rgb(255,12,12)"  stroke="rgb(255,12,12)" stroke-width="1" font-size="16" >O</text>
<text x="388.913523" y="146.722794" fill="rgb(255,127,0)"  stroke="rgb(255,127,0)" stroke-width="1" font-size="16" >P</text>
<text x="427.961142" y="146.722794" fill="rgb(255,12,12)"  stroke="rgb(255,12,12)" stroke-width="1" font-size="16" >O</text>
<text x="388.913523" y="107.675175" fill="rgb(255,12,12)"  stroke="rgb(255,12,12)" stroke-width="1" font-size="16" >O</text>
<text x="287.212888" y="152.168090" fill="rgb(255,12,12)"  stroke="rgb(255,12,12)" stroke-width="1" font-size="16" >O</text>
<text x="267.689078" y="244.020392" fill="rgb(255,12,12)"  stroke="rgb(255,12,12)" stroke-width="1" font-size="16" >O</text>
<text x="197.904556" y="200.817478" fill="rgb(255,12,12)"  stroke="rgb(255,12,12)" stroke-width="1" font-size="16" >O</text>
<text x="94.691399" y="228.456832" fill="rgb(191,191,191)"  stroke="rgb(191,191,191)" stroke-width="1" font-size="16" >H</text>
<text x="190.577563" y="48.000000" fill="rgb(191,191,191)"  stroke="rgb(191,191,191)" stroke-width="1" font-size="16" >H</text>
<text x="364.158325" y="171.477993" fill="rgb(191,191,191)"  stroke="rgb(191,191,191)" stroke-width="1" font-size="16" >H</text>
<text x="330.342095" y="151.954183" fill="rgb(191,191,191)"  stroke="rgb(191,191,191)" stroke-width="1" font-size="16" >H</text>
<text x="241.561121" y="273.038428" fill="rgb(191,191,191)"  stroke="rgb(191,191,191)" stroke-width="1" font-size="16" >H</text>
<text x="201.986144" y="239.651190" fill="rgb(191,191,191)"  stroke="rgb(191,191,191)" stroke-width="1" font-size="16" >H</text>
<text x="422.729753" y="88.151365" fill="rgb(191,191,191)"  stroke="rgb(191,191,191)" stroke-width="1" font-size="16" >H</text>
<text x="127.009994" y="76.302105" fill="rgb(12,12,255)"  stroke="rgb(12,12,255)" stroke-width="1" font-size="16" >N</text>
<text x="70.454093" y="165.316491" fill="rgb(12,12,255)"  stroke="rgb(12,12,255)" stroke-width="1" font-size="16" >N</text>
<text x="34.000000" y="179.309906" fill="rgb(191,191,191)"  stroke="rgb(191,191,191)" stroke-width="1" font-size="16" >H</text>
<text x="46.216787" y="102.176150" fill="rgb(255,12,12)"  stroke="rgb(255,12,12)" stroke-width="1" font-size="16" >O</text>
<text x="137.253885" y="175.896539" fill="rgb(12,12,255)"  stroke="rgb(12,12,255)" stroke-width="1" font-size="16" >N</text>
<text x="176.110367" y="116.062803" fill="rgb(12,12,255)"  stroke="rgb(12,12,255)" stroke-width="1" font-size="16" >N</text>
<text x="269.984577" y="111.108134" fill="rgb(191,191,191)"  stroke="rgb(191,191,191)" stroke-width="1" font-size="16" >H</text>
<text x="193.822969" y="161.983766" fill="rgb(191,191,191)"  stroke="rgb(191,191,191)" stroke-width="1" font-size="16" >H</text>
<text x="229.494744" y="235.901936" fill="rgb(191,191,191)"  stroke="rgb(191,191,191)" stroke-width="1" font-size="16" >H</text>
<text x="310.818285" y="224.818032" fill="rgb(191,191,191)"  stroke="rgb(191,191,191)" stroke-width="1" font-size="16" >H</text>
</svg>
</g>
<text font-size="18.000000" fill ="black" font-family="sans-serif"
x="10.000000" y="20.000000" >ZINC12405084</text>
</svg>
