<?xml version="1.0"?>
<svg version="1.1" id="topsvg"
xmlns="http://www.w3.org/2000/svg" xmlns:xlink="http://www.w3.org/1999/xlink"
xmlns:cml="http://www.xml-cml.org/schema" x="0" y="0" width="200px" height="200px" viewBox="0 0 100 100">
<title>ZINC22861458 - Open Babel Depiction</title>
<rect x="0" y="0" width="100" height="100" fill="white"/>
<g transform="translate(0,0)">
<svg width="100" height="100" x="0" y="0" viewBox="0 0 374.271 264.639"
font-family="sans-serif" stroke="rgb(0,0,0)" stroke-width="2"  stroke-linecap="round">
<line x1="76.5" y1="149.3" x2="116.3" y2="153.5" stroke="rgb(0,0,0)"  stroke-width="2.0"/>
<line x1="76.5" y1="149.3" x2="51.9" y2="160.3" stroke="rgb(0,0,0)"  stroke-width="2.0"/>
<line x1="76.5" y1="149.3" x2="73.7" y2="176.1" stroke="rgb(0,0,0)"  stroke-width="2.0"/>
<line x1="76.5" y1="149.3" x2="65.6" y2="124.6" stroke="rgb(0,0,0)"  stroke-width="2.0"/>
<line x1="136.3" y1="188.1" x2="125.3" y2="212.8" stroke="rgb(0,0,0)"  stroke-width="2.0"/>
<line x1="185.1" y1="188.5" x2="195.5" y2="197.8" stroke="rgb(0,0,0)"  stroke-width="2.0"/>
<line x1="179.6" y1="140.0" x2="214.3" y2="120.0" stroke="rgb(0,0,0)"  stroke-width="2.0"/>
<line x1="214.3" y1="120.0" x2="214.3" y2="93.0" stroke="rgb(0,0,0)"  stroke-width="2.0"/>
<line x1="214.3" y1="120.0" x2="227.8" y2="143.4" stroke="rgb(0,0,0)"  stroke-width="2.0"/>
<line x1="214.3" y1="120.0" x2="241.3" y2="120.0" stroke="rgb(0,0,0)"  stroke-width="2.0"/>
<line x1="227.3" y1="80.0" x2="254.3" y2="80.0" stroke="rgb(0,0,0)"  stroke-width="2.0"/>
<line x1="201.3" y1="80.0" x2="187.3" y2="80.0" stroke="rgb(0,0,0)"  stroke-width="2.0"/>
<line x1="214.3" y1="67.0" x2="214.3" y2="53.0" stroke="rgb(0,0,0)"  stroke-width="2.0"/>
<line x1="254.3" y1="80.0" x2="240.8" y2="56.6" stroke="rgb(0,0,0)"  stroke-width="2.0"/>
<line x1="294.3" y1="80.0" x2="307.8" y2="56.6" stroke="rgb(0,0,0)"  stroke-width="2.0"/>
<line x1="294.3" y1="80.0" x2="321.3" y2="80.0" stroke="rgb(0,0,0)"  stroke-width="2.0"/>
<line x1="274.3" y1="114.6" x2="287.8" y2="138.0" stroke="rgb(0,0,0)"  stroke-width="2.0"/>
<line x1="274.3" y1="114.6" x2="260.8" y2="138.0" stroke="rgb(0,0,0)"  stroke-width="2.0"/>
<line x1="176.8" y1="166.9" x2="179.6" y2="140.0" stroke="rgb(0,0,0)"  stroke-width="2.0"/>
<line x1="179.6" y1="140.0" x2="155.1" y2="129.1" stroke="rgb(0,0,0)"  stroke-width="2.0"/>
<line x1="171.2" y1="144.1" x2="154.0" y2="136.5" stroke="rgb(0,0,0)"  stroke-width="2.0"/>
<line x1="134.4" y1="133.4" x2="116.3" y2="153.5" stroke="rgb(0,0,0)"  stroke-width="2.0"/>
<line x1="116.3" y1="153.5" x2="136.3" y2="188.1" stroke="rgb(0,0,0)"  stroke-width="2.0"/>
<line x1="125.6" y1="155.1" x2="139.6" y2="179.3" stroke="rgb(0,0,0)"  stroke-width="2.0"/>
<line x1="136.3" y1="188.1" x2="162.7" y2="182.5" stroke="rgb(0,0,0)"  stroke-width="2.0"/>
<line x1="274.3" y1="114.6" x2="254.3" y2="80.0" stroke="rgb(0,0,0)"  stroke-width="2.0"/>
<line x1="254.3" y1="80.0" x2="294.3" y2="80.0" stroke="rgb(0,0,0)"  stroke-width="2.0"/>
<line x1="294.3" y1="80.0" x2="274.3" y2="114.6" stroke="rgb(0,0,0)"  stroke-width="2.0"/>
<text x="66.360680" y="197.056065" fill="rgb(191,191,191)"  stroke="rgb(191,191,191)" stroke-width="1" font-size="16" >H</text>
<text x="208.270753" y="48.000000" fill="rgb(191,191,191)"  stroke="rgb(191,191,191)" stroke-width="1" font-size="16" >H</text>
<text x="199.174391" y="214.546100" fill="rgb(191,191,191)"  stroke="rgb(191,191,191)" stroke-width="1" font-size="16" >H</text>
<text x="248.270753" y="157.282032" fill="rgb(191,191,191)"  stroke="rgb(191,191,191)" stroke-width="1" font-size="16" >H</text>
<text x="288.270753" y="157.282032" fill="rgb(191,191,191)"  stroke="rgb(191,191,191)" stroke-width="1" font-size="16" >H</text>
<text x="328.270753" y="88.000000" fill="rgb(191,191,191)"  stroke="rgb(191,191,191)" stroke-width="1" font-size="16" >H</text>
<text x="308.270753" y="53.358984" fill="rgb(191,191,191)"  stroke="rgb(191,191,191)" stroke-width="1" font-size="16" >H</text>
<text x="228.270753" y="53.358984" fill="rgb(191,191,191)"  stroke="rgb(191,191,191)" stroke-width="1" font-size="16" >H</text>
<text x="168.270753" y="88.000000" fill="rgb(191,191,191)"  stroke="rgb(191,191,191)" stroke-width="1" font-size="16" >H</text>
<text x="248.270753" y="128.000000" fill="rgb(191,191,191)"  stroke="rgb(191,191,191)" stroke-width="1" font-size="16" >H</text>
<text x="228.270753" y="162.641016" fill="rgb(191,191,191)"  stroke="rgb(191,191,191)" stroke-width="1" font-size="16" >H</text>
<text x="114.053228" y="232.639162" fill="rgb(191,191,191)"  stroke="rgb(191,191,191)" stroke-width="1" font-size="16" >H</text>
<text x="54.272353" y="120.733370" fill="rgb(191,191,191)"  stroke="rgb(191,191,191)" stroke-width="1" font-size="16" >H</text>
<text x="34.000000" y="173.544654" fill="rgb(191,191,191)"  stroke="rgb(191,191,191)" stroke-width="1" font-size="16" >H</text>
<text x="219.070753" y="75.968000" fill="rgb(12,12,255)"  stroke="rgb(12,12,255)" stroke-width="1" font-size="16" >+</text>
<text x="208.270753" y="88.000000" fill="rgb(12,12,255)"  stroke="rgb(12,12,255)" stroke-width="1" font-size="16" >N</text>
<text x="137.087918" y="131.730534" fill="rgb(12,12,255)"  stroke="rgb(12,12,255)" stroke-width="1" font-size="16" >N</text>
<text x="169.448598" y="187.780876" fill="rgb(12,12,255)"  stroke="rgb(12,12,255)" stroke-width="1" font-size="16" >N</text>
</svg>
</g>
<text font-size="18.000000" fill ="black" font-family="sans-serif"
x="10.000000" y="20.000000" >ZINC22861458</text>
</svg>
