<?xml version="1.0"?>
<svg version="1.1" id="topsvg"
xmlns="http://www.w3.org/2000/svg" xmlns:xlink="http://www.w3.org/1999/xlink"
xmlns:cml="http://www.xml-cml.org/schema" x="0" y="0" width="200px" height="200px" viewBox="0 0 100 100">
<title>ZINC98368060 - Open Babel Depiction</title>
<rect x="0" y="0" width="100" height="100" fill="white"/>
<g transform="translate(0,0)">
<svg width="100" height="100" x="0" y="0" viewBox="0 0 627.266 348.047"
font-family="sans-serif" stroke="rgb(0,0,0)" stroke-width="2"  stroke-linecap="round">
<line x1="335.1" y1="211.9" x2="335.1" y2="238.2" stroke="rgb(0,0,0)"  stroke-width="2.0"/>
<line x1="301.0" y1="192.2" x2="278.2" y2="205.4" stroke="rgb(0,0,0)"  stroke-width="2.0"/>
<line x1="301.0" y1="152.8" x2="278.2" y2="139.6" stroke="rgb(0,0,0)"  stroke-width="2.0"/>
<line x1="429.8" y1="172.5" x2="508.5" y2="172.5" stroke="rgb(0,0,0)"  stroke-width="2.0"/>
<line x1="410.7" y1="128.3" x2="414.8" y2="115.6" stroke="rgb(0,0,0)"  stroke-width="2.0"/>
<line x1="508.5" y1="172.5" x2="495.4" y2="195.3" stroke="rgb(0,0,0)"  stroke-width="2.0"/>
<line x1="547.9" y1="172.5" x2="561.1" y2="195.3" stroke="rgb(0,0,0)"  stroke-width="2.0"/>
<line x1="547.9" y1="172.5" x2="574.3" y2="172.5" stroke="rgb(0,0,0)"  stroke-width="2.0"/>
<line x1="528.2" y1="138.4" x2="541.4" y2="115.6" stroke="rgb(0,0,0)"  stroke-width="2.0"/>
<line x1="528.2" y1="138.4" x2="515.0" y2="115.6" stroke="rgb(0,0,0)"  stroke-width="2.0"/>
<line x1="504.9" y1="242.6" x2="530.7" y2="248.0" stroke="rgb(0,0,0)"  stroke-width="2.0"/>
<line x1="475.6" y1="268.9" x2="478.4" y2="295.1" stroke="rgb(0,0,0)"  stroke-width="2.0"/>
<line x1="441.5" y1="249.2" x2="417.4" y2="259.9" stroke="rgb(0,0,0)"  stroke-width="2.0"/>
<line x1="267.0" y1="93.8" x2="293.3" y2="93.8" stroke="rgb(0,0,0)"  stroke-width="2.0"/>
<line x1="267.0" y1="93.8" x2="280.1" y2="70.9" stroke="rgb(0,0,0)"  stroke-width="2.0"/>
<line x1="232.9" y1="74.1" x2="246.0" y2="51.3" stroke="rgb(0,0,0)"  stroke-width="2.0"/>
<line x1="232.9" y1="74.1" x2="219.7" y2="51.3" stroke="rgb(0,0,0)"  stroke-width="2.0"/>
<line x1="198.8" y1="93.8" x2="185.6" y2="70.9" stroke="rgb(0,0,0)"  stroke-width="2.0"/>
<line x1="198.8" y1="93.8" x2="172.4" y2="93.8" stroke="rgb(0,0,0)"  stroke-width="2.0"/>
<polygon points="198.773681 133.138778 172.399078 137.138778 172.399078 129.138778 " stroke-width="2.000000" fill="rgb(0,0,0)"  stroke="rgb(0,0,0)" />
<line x1="198.8" y1="133.1" x2="179.1" y2="167.2" stroke="rgb(0,0,0)"  stroke-width="2.0"/>
<line x1="232.9" y1="152.8" x2="219.7" y2="175.7" stroke="rgb(0,0,0)"  stroke-width="2.0"/>
<line x1="232.9" y1="152.8" x2="246.0" y2="175.7" stroke="rgb(0,0,0)"  stroke-width="2.0"/>
<line x1="181.7" y1="165.7" x2="194.9" y2="188.6" stroke="rgb(0,0,0)"  stroke-width="2.0"/>
<line x1="176.5" y1="168.7" x2="189.7" y2="191.6" stroke="rgb(0,0,0)"  stroke-width="2.0"/>
<line x1="179.1" y1="167.2" x2="152.7" y2="167.2" stroke="rgb(0,0,0)"  stroke-width="2.0"/>
<line x1="116.6" y1="199.1" x2="136.2" y2="216.7" stroke="rgb(0,0,0)"  stroke-width="2.0"/>
<line x1="116.6" y1="199.1" x2="111.1" y2="224.9" stroke="rgb(0,0,0)"  stroke-width="2.0"/>
<line x1="79.1" y1="186.9" x2="68.4" y2="211.0" stroke="rgb(0,0,0)"  stroke-width="2.0"/>
<line x1="79.1" y1="186.9" x2="52.9" y2="189.7" stroke="rgb(0,0,0)"  stroke-width="2.0"/>
<line x1="79.1" y1="147.5" x2="52.9" y2="144.8" stroke="rgb(0,0,0)"  stroke-width="2.0"/>
<line x1="79.1" y1="147.5" x2="68.4" y2="123.5" stroke="rgb(0,0,0)"  stroke-width="2.0"/>
<line x1="116.6" y1="135.4" x2="111.1" y2="109.6" stroke="rgb(0,0,0)"  stroke-width="2.0"/>
<line x1="116.6" y1="135.4" x2="136.2" y2="117.7" stroke="rgb(0,0,0)"  stroke-width="2.0"/>
<line x1="414.3" y1="193.8" x2="429.8" y2="172.5" stroke="rgb(0,0,0)"  stroke-width="2.0"/>
<line x1="409.7" y1="187.9" x2="420.5" y2="173.1" stroke="rgb(0,0,0)"  stroke-width="2.0"/>
<line x1="429.8" y1="172.5" x2="414.3" y2="151.2" stroke="rgb(0,0,0)"  stroke-width="2.0"/>
<line x1="394.3" y1="144.7" x2="369.2" y2="152.8" stroke="rgb(0,0,0)"  stroke-width="2.0"/>
<line x1="369.2" y1="152.8" x2="369.2" y2="192.2" stroke="rgb(0,0,0)"  stroke-width="2.0"/>
<line x1="376.4" y1="158.8" x2="376.4" y2="186.2" stroke="rgb(0,0,0)"  stroke-width="2.0"/>
<line x1="369.2" y1="192.2" x2="394.3" y2="200.3" stroke="rgb(0,0,0)"  stroke-width="2.0"/>
<line x1="475.6" y1="268.9" x2="441.5" y2="249.2" stroke="rgb(0,0,0)"  stroke-width="2.0"/>
<line x1="441.5" y1="249.2" x2="447.0" y2="223.4" stroke="rgb(0,0,0)"  stroke-width="2.0"/>
<line x1="449.8" y1="244.8" x2="453.6" y2="226.9" stroke="rgb(0,0,0)"  stroke-width="2.0"/>
<line x1="462.6" y1="209.4" x2="475.9" y2="208.0" stroke="rgb(0,0,0)"  stroke-width="2.0"/>
<line x1="494.1" y1="218.5" x2="504.9" y2="242.6" stroke="rgb(0,0,0)"  stroke-width="2.0"/>
<line x1="504.9" y1="242.6" x2="475.6" y2="268.9" stroke="rgb(0,0,0)"  stroke-width="2.0"/>
<line x1="495.6" y1="241.2" x2="475.3" y2="259.5" stroke="rgb(0,0,0)"  stroke-width="2.0"/>
<line x1="301.0" y1="192.2" x2="335.1" y2="211.9" stroke="rgb(0,0,0)"  stroke-width="2.0"/>
<line x1="309.8" y1="189.0" x2="333.5" y2="202.6" stroke="rgb(0,0,0)"  stroke-width="2.0"/>
<line x1="335.1" y1="211.9" x2="369.2" y2="192.2" stroke="rgb(0,0,0)"  stroke-width="2.0"/>
<line x1="369.2" y1="152.8" x2="346.4" y2="139.6" stroke="rgb(0,0,0)"  stroke-width="2.0"/>
<line x1="323.9" y1="139.6" x2="301.0" y2="152.8" stroke="rgb(0,0,0)"  stroke-width="2.0"/>
<line x1="325.7" y1="146.9" x2="309.8" y2="156.1" stroke="rgb(0,0,0)"  stroke-width="2.0"/>
<line x1="301.0" y1="152.8" x2="301.0" y2="192.2" stroke="rgb(0,0,0)"  stroke-width="2.0"/>
<line x1="528.2" y1="138.4" x2="508.5" y2="172.5" stroke="rgb(0,0,0)"  stroke-width="2.0"/>
<line x1="508.5" y1="172.5" x2="547.9" y2="172.5" stroke="rgb(0,0,0)"  stroke-width="2.0"/>
<line x1="547.9" y1="172.5" x2="528.2" y2="138.4" stroke="rgb(0,0,0)"  stroke-width="2.0"/>
<line x1="79.1" y1="186.9" x2="79.1" y2="147.5" stroke="rgb(0,0,0)"  stroke-width="2.0"/>
<line x1="79.1" y1="147.5" x2="116.6" y2="135.4" stroke="rgb(0,0,0)"  stroke-width="2.0"/>
<line x1="116.6" y1="135.4" x2="132.1" y2="156.7" stroke="rgb(0,0,0)"  stroke-width="2.0"/>
<line x1="132.1" y1="177.7" x2="116.6" y2="199.1" stroke="rgb(0,0,0)"  stroke-width="2.0"/>
<line x1="116.6" y1="199.1" x2="79.1" y2="186.9" stroke="rgb(0,0,0)"  stroke-width="2.0"/>
<line x1="232.9" y1="74.1" x2="198.8" y2="93.8" stroke="rgb(0,0,0)"  stroke-width="2.0"/>
<line x1="198.8" y1="93.8" x2="198.8" y2="133.1" stroke="rgb(0,0,0)"  stroke-width="2.0"/>
<line x1="198.8" y1="133.1" x2="232.9" y2="152.8" stroke="rgb(0,0,0)"  stroke-width="2.0"/>
<line x1="232.9" y1="152.8" x2="255.7" y2="139.6" stroke="rgb(0,0,0)"  stroke-width="2.0"/>
<line x1="267.0" y1="120.1" x2="267.0" y2="93.8" stroke="rgb(0,0,0)"  stroke-width="2.0"/>
<line x1="267.0" y1="93.8" x2="232.9" y2="74.1" stroke="rgb(0,0,0)"  stroke-width="2.0"/>
<text x="246.547379" y="48.000000" fill="rgb(191,191,191)"  stroke="rgb(191,191,191)" stroke-width="1" font-size="16" >H</text>
<text x="329.138316" y="259.234016" fill="rgb(191,191,191)"  stroke="rgb(191,191,191)" stroke-width="1" font-size="16" >H</text>
<text x="260.955998" y="219.868937" fill="rgb(191,191,191)"  stroke="rgb(191,191,191)" stroke-width="1" font-size="16" >H</text>
<text x="561.583881" y="214.595016" fill="rgb(191,191,191)"  stroke="rgb(191,191,191)" stroke-width="1" font-size="16" >H</text>
<text x="581.266420" y="180.503857" fill="rgb(191,191,191)"  stroke="rgb(191,191,191)" stroke-width="1" font-size="16" >H</text>
<text x="541.901341" y="112.321540" fill="rgb(191,191,191)"  stroke="rgb(191,191,191)" stroke-width="1" font-size="16" >H</text>
<text x="502.536262" y="112.321540" fill="rgb(191,191,191)"  stroke="rgb(191,191,191)" stroke-width="1" font-size="16" >H</text>
<text x="537.369800" y="258.741266" fill="rgb(191,191,191)"  stroke="rgb(191,191,191)" stroke-width="1" font-size="16" >H</text>
<text x="399.558039" y="273.225865" fill="rgb(191,191,191)"  stroke="rgb(191,191,191)" stroke-width="1" font-size="16" >H</text>
<text x="300.321078" y="101.773698" fill="rgb(191,191,191)"  stroke="rgb(191,191,191)" stroke-width="1" font-size="16" >H</text>
<text x="280.638538" y="67.682540" fill="rgb(191,191,191)"  stroke="rgb(191,191,191)" stroke-width="1" font-size="16" >H</text>
<text x="133.726062" y="175.229937" fill="rgb(12,12,255)"  stroke="rgb(12,12,255)" stroke-width="1" font-size="16" >N</text>
<text x="207.182300" y="48.000000" fill="rgb(191,191,191)"  stroke="rgb(191,191,191)" stroke-width="1" font-size="16" >H</text>
<text x="173.091141" y="67.682540" fill="rgb(191,191,191)"  stroke="rgb(191,191,191)" stroke-width="1" font-size="16" >H</text>
<text x="153.408601" y="101.773698" fill="rgb(191,191,191)"  stroke="rgb(191,191,191)" stroke-width="1" font-size="16" >H</text>
<text x="207.182300" y="194.912476" fill="rgb(191,191,191)"  stroke="rgb(191,191,191)" stroke-width="1" font-size="16" >H</text>
<text x="246.547379" y="194.912476" fill="rgb(191,191,191)"  stroke="rgb(191,191,191)" stroke-width="1" font-size="16" >H</text>
<text x="139.841804" y="233.417334" fill="rgb(191,191,191)"  stroke="rgb(191,191,191)" stroke-width="1" font-size="16" >H</text>
<text x="102.403388" y="245.581813" fill="rgb(191,191,191)"  stroke="rgb(191,191,191)" stroke-width="1" font-size="16" >H</text>
<text x="57.138213" y="230.874266" fill="rgb(191,191,191)"  stroke="rgb(191,191,191)" stroke-width="1" font-size="16" >H</text>
<text x="34.000000" y="199.027247" fill="rgb(191,191,191)"  stroke="rgb(191,191,191)" stroke-width="1" font-size="16" >H</text>
<text x="34.000000" y="151.432626" fill="rgb(191,191,191)"  stroke="rgb(191,191,191)" stroke-width="1" font-size="16" >H</text>
<text x="57.138213" y="119.585607" fill="rgb(191,191,191)"  stroke="rgb(191,191,191)" stroke-width="1" font-size="16" >H</text>
<text x="102.403388" y="104.878060" fill="rgb(191,191,191)"  stroke="rgb(191,191,191)" stroke-width="1" font-size="16" >H</text>
<text x="139.841804" y="117.042539" fill="rgb(191,191,191)"  stroke="rgb(191,191,191)" stroke-width="1" font-size="16" >H</text>
<text x="329.138316" y="141.138778" fill="rgb(12,12,255)"  stroke="rgb(12,12,255)" stroke-width="1" font-size="16" >N</text>
<text x="400.667890" y="212.350875" fill="rgb(12,12,255)"  stroke="rgb(12,12,255)" stroke-width="1" font-size="16" >N</text>
<text x="400.667890" y="148.656839" fill="rgb(12,12,255)"  stroke="rgb(12,12,255)" stroke-width="1" font-size="16" >N</text>
<text x="412.832368" y="111.218424" fill="rgb(191,191,191)"  stroke="rgb(191,191,191)" stroke-width="1" font-size="16" >H</text>
<text x="482.853722" y="214.595016" fill="rgb(12,12,255)"  stroke="rgb(12,12,255)" stroke-width="1" font-size="16" >N</text>
<text x="443.704289" y="218.709787" fill="rgb(12,12,255)"  stroke="rgb(12,12,255)" stroke-width="1" font-size="16" >N</text>
<text x="473.725758" y="316.046618" fill="rgb(30,239,30)"  stroke="rgb(30,239,30)" stroke-width="1" font-size="16" >Cl</text>
<text x="260.955998" y="141.138778" fill="rgb(12,12,255)"  stroke="rgb(12,12,255)" stroke-width="1" font-size="16" >N</text>
<text x="153.408601" y="141.138778" fill="rgb(191,191,191)"  stroke="rgb(191,191,191)" stroke-width="1" font-size="16" >H</text>
<text x="192.773681" y="209.321095" fill="rgb(255,12,12)"  stroke="rgb(255,12,12)" stroke-width="1" font-size="16" >O</text>
</svg>
</g>
<text font-size="18.000000" fill ="black" font-family="sans-serif"
x="10.000000" y="20.000000" >ZINC98368060</text>
</svg>
