<?xml version="1.0"?>
<svg version="1.1" id="topsvg"
xmlns="http://www.w3.org/2000/svg" xmlns:xlink="http://www.w3.org/1999/xlink"
xmlns:cml="http://www.xml-cml.org/schema" x="0" y="0" width="200px" height="200px" viewBox="0 0 100 100">
<title>ZINC22066984 - Open Babel Depiction</title>
<rect x="0" y="0" width="100" height="100" fill="white"/>
<g transform="translate(0,0)">
<svg width="100" height="100" x="0" y="0" viewBox="0 0 347.422 310.4"
font-family="sans-serif" stroke="rgb(0,0,0)" stroke-width="2"  stroke-linecap="round">
<line x1="106.5" y1="155.2" x2="106.5" y2="129.8" stroke="rgb(0,0,0)"  stroke-width="2.0"/>
<line x1="73.3" y1="174.4" x2="51.3" y2="161.7" stroke="rgb(0,0,0)"  stroke-width="2.0"/>
<line x1="73.3" y1="212.8" x2="51.3" y2="225.5" stroke="rgb(0,0,0)"  stroke-width="2.0"/>
<line x1="106.5" y1="232.0" x2="106.5" y2="257.4" stroke="rgb(0,0,0)"  stroke-width="2.0"/>
<line x1="139.8" y1="212.8" x2="161.8" y2="225.5" stroke="rgb(0,0,0)"  stroke-width="2.0"/>
<line x1="139.8" y1="174.4" x2="161.8" y2="161.7" stroke="rgb(0,0,0)"  stroke-width="2.0"/>
<line x1="173.0" y1="142.2" x2="173.0" y2="116.8" stroke="rgb(0,0,0)"  stroke-width="2.0"/>
<line x1="173.0" y1="116.8" x2="236.8" y2="116.8" stroke="rgb(0,0,0)"  stroke-width="2.0"/>
<line x1="173.0" y1="116.8" x2="173.0" y2="91.4" stroke="rgb(0,0,0)"  stroke-width="2.0"/>
<polygon points="173.021502 116.800000 147.293502 120.800000 147.293502 112.800000 " stroke-width="2.000000" fill="rgb(0,0,0)"  stroke="rgb(0,0,0)" />
<polygon points="249.821502 129.472000 253.821502 142.528000 245.821502 142.528000 " stroke-width="2.000000" fill="rgb(0,0,0)"  stroke="rgb(0,0,0)" />
<line x1="262.8" y1="116.8" x2="275.2" y2="116.8" stroke="rgb(0,0,0)"  stroke-width="2.0"/>
<line x1="249.8" y1="103.8" x2="249.8" y2="91.4" stroke="rgb(0,0,0)"  stroke-width="2.0"/>
<line x1="294.7" y1="105.5" x2="300.9" y2="94.8" stroke="rgb(0,0,0)"  stroke-width="2.0"/>
<polygon points="185.693502 78.400000 198.749502 74.400000 198.749502 82.400000 " stroke-width="2.000000" fill="rgb(0,0,0)"  stroke="rgb(0,0,0)" />
<line x1="173.0" y1="65.4" x2="173.0" y2="53.0" stroke="rgb(0,0,0)"  stroke-width="2.0"/>
<line x1="160.0" y1="78.4" x2="147.6" y2="78.4" stroke="rgb(0,0,0)"  stroke-width="2.0"/>
<line x1="128.1" y1="67.1" x2="121.9" y2="56.4" stroke="rgb(0,0,0)"  stroke-width="2.0"/>
<line x1="73.3" y1="212.8" x2="106.5" y2="232.0" stroke="rgb(0,0,0)"  stroke-width="2.0"/>
<line x1="106.5" y1="232.0" x2="139.8" y2="212.8" stroke="rgb(0,0,0)"  stroke-width="2.0"/>
<line x1="108.1" y1="222.8" x2="131.0" y2="209.6" stroke="rgb(0,0,0)"  stroke-width="2.0"/>
<line x1="139.8" y1="212.8" x2="139.8" y2="174.4" stroke="rgb(0,0,0)"  stroke-width="2.0"/>
<line x1="139.8" y1="174.4" x2="106.5" y2="155.2" stroke="rgb(0,0,0)"  stroke-width="2.0"/>
<line x1="131.0" y1="177.6" x2="108.1" y2="164.4" stroke="rgb(0,0,0)"  stroke-width="2.0"/>
<line x1="106.5" y1="155.2" x2="73.3" y2="174.4" stroke="rgb(0,0,0)"  stroke-width="2.0"/>
<line x1="73.3" y1="174.4" x2="73.3" y2="212.8" stroke="rgb(0,0,0)"  stroke-width="2.0"/>
<line x1="80.5" y1="180.4" x2="80.5" y2="206.8" stroke="rgb(0,0,0)"  stroke-width="2.0"/>
<text x="167.021502" y="86.400000" fill="rgb(255,127,0)"  stroke="rgb(255,127,0)" stroke-width="1" font-size="16" >P</text>
<text x="301.421502" y="91.544624" fill="rgb(191,191,191)"  stroke="rgb(191,191,191)" stroke-width="1" font-size="16" >H</text>
<text x="109.421502" y="53.144624" fill="rgb(191,191,191)"  stroke="rgb(191,191,191)" stroke-width="1" font-size="16" >H</text>
<text x="128.621502" y="124.800000" fill="rgb(191,191,191)"  stroke="rgb(191,191,191)" stroke-width="1" font-size="16" >H</text>
<text x="167.021502" y="240.000000" fill="rgb(191,191,191)"  stroke="rgb(191,191,191)" stroke-width="1" font-size="16" >H</text>
<text x="100.510751" y="278.400000" fill="rgb(191,191,191)"  stroke="rgb(191,191,191)" stroke-width="1" font-size="16" >H</text>
<text x="34.000000" y="163.200000" fill="rgb(191,191,191)"  stroke="rgb(191,191,191)" stroke-width="1" font-size="16" >H</text>
<text x="100.510751" y="124.800000" fill="rgb(191,191,191)"  stroke="rgb(191,191,191)" stroke-width="1" font-size="16" >H</text>
<text x="22.000000" y="240.000000" fill="rgb(30,239,30)"  stroke="rgb(30,239,30)" stroke-width="1" font-size="16" >Cl</text>
<text x="128.621502" y="86.400000" fill="rgb(255,12,12)"  stroke="rgb(255,12,12)" stroke-width="1" font-size="16" >O</text>
<text x="167.021502" y="48.000000" fill="rgb(255,12,12)"  stroke="rgb(255,12,12)" stroke-width="1" font-size="16" >OH</text>
<text x="205.421502" y="86.400000" fill="rgb(255,12,12)"  stroke="rgb(255,12,12)" stroke-width="1" font-size="16" >O</text>
<text x="243.821502" y="86.400000" fill="rgb(255,12,12)"  stroke="rgb(255,12,12)" stroke-width="1" font-size="16" >OH</text>
<text x="282.221502" y="124.800000" fill="rgb(255,12,12)"  stroke="rgb(255,12,12)" stroke-width="1" font-size="16" >O</text>
<text x="243.821502" y="163.200000" fill="rgb(255,12,12)"  stroke="rgb(255,12,12)" stroke-width="1" font-size="16" >O</text>
<text x="243.821502" y="124.800000" fill="rgb(255,127,0)"  stroke="rgb(255,127,0)" stroke-width="1" font-size="16" >P</text>
<text x="167.021502" y="163.200000" fill="rgb(178,178,0)"  stroke="rgb(178,178,0)" stroke-width="1" font-size="16" >S</text>
</svg>
</g>
<text font-size="18.000000" fill ="black" font-family="sans-serif"
x="10.000000" y="20.000000" >ZINC22066984</text>
</svg>
