<?xml version="1.0"?>
<svg version="1.1" id="topsvg"
xmlns="http://www.w3.org/2000/svg" xmlns:xlink="http://www.w3.org/1999/xlink"
xmlns:cml="http://www.xml-cml.org/schema" x="0" y="0" width="200px" height="200px" viewBox="0 0 100 100">
<title>ZINC22055590 - Open Babel Depiction</title>
<rect x="0" y="0" width="100" height="100" fill="white"/>
<g transform="translate(0,0)">
<svg width="100" height="100" x="0" y="0" viewBox="0 0 440.575 373.212"
font-family="sans-serif" stroke="rgb(0,0,0)" stroke-width="2"  stroke-linecap="round">
<line x1="279.8" y1="296.1" x2="253.6" y2="267.0" stroke="rgb(0,0,0)"  stroke-width="2.0"/>
<line x1="279.8" y1="296.1" x2="304.6" y2="304.1" stroke="rgb(0,0,0)"  stroke-width="2.0"/>
<line x1="279.8" y1="296.1" x2="299.2" y2="278.6" stroke="rgb(0,0,0)"  stroke-width="2.0"/>
<line x1="279.8" y1="296.1" x2="271.7" y2="320.8" stroke="rgb(0,0,0)"  stroke-width="2.0"/>
<line x1="261.8" y1="228.8" x2="285.6" y2="218.2" stroke="rgb(0,0,0)"  stroke-width="2.0"/>
<line x1="152.9" y1="239.6" x2="145.4" y2="250.3" stroke="rgb(0,0,0)"  stroke-width="2.0"/>
<line x1="102.6" y1="200.1" x2="92.7" y2="224.3" stroke="rgb(0,0,0)"  stroke-width="2.0"/>
<line x1="78.7" y1="169.2" x2="52.9" y2="172.7" stroke="rgb(0,0,0)"  stroke-width="2.0"/>
<line x1="93.5" y1="133.1" x2="77.6" y2="112.5" stroke="rgb(0,0,0)"  stroke-width="2.0"/>
<line x1="132.2" y1="127.8" x2="142.1" y2="103.7" stroke="rgb(0,0,0)"  stroke-width="2.0"/>
<line x1="225.6" y1="170.3" x2="282.5" y2="138.5" stroke="rgb(0,0,0)"  stroke-width="2.0"/>
<line x1="327.4" y1="152.3" x2="314.0" y2="174.6" stroke="rgb(0,0,0)"  stroke-width="2.0"/>
<line x1="327.4" y1="152.3" x2="340.1" y2="175.0" stroke="rgb(0,0,0)"  stroke-width="2.0"/>
<line x1="361.5" y1="133.2" x2="374.2" y2="156.0" stroke="rgb(0,0,0)"  stroke-width="2.0"/>
<line x1="361.5" y1="133.2" x2="387.6" y2="133.6" stroke="rgb(0,0,0)"  stroke-width="2.0"/>
<line x1="373.4" y1="87.8" x2="384.9" y2="81.5" stroke="rgb(0,0,0)"  stroke-width="2.0"/>
<line x1="328.6" y1="74.1" x2="341.9" y2="51.7" stroke="rgb(0,0,0)"  stroke-width="2.0"/>
<line x1="328.6" y1="74.1" x2="315.9" y2="51.4" stroke="rgb(0,0,0)"  stroke-width="2.0"/>
<line x1="294.4" y1="93.2" x2="281.7" y2="70.4" stroke="rgb(0,0,0)"  stroke-width="2.0"/>
<line x1="294.4" y1="93.2" x2="268.4" y2="92.8" stroke="rgb(0,0,0)"  stroke-width="2.0"/>
<line x1="227.9" y1="209.3" x2="198.9" y2="235.4" stroke="rgb(0,0,0)"  stroke-width="2.0"/>
<line x1="228.3" y1="218.6" x2="208.2" y2="236.7" stroke="rgb(0,0,0)"  stroke-width="2.0"/>
<line x1="198.9" y1="235.4" x2="209.5" y2="259.2" stroke="rgb(0,0,0)"  stroke-width="2.0"/>
<line x1="227.7" y1="269.7" x2="253.6" y2="267.0" stroke="rgb(0,0,0)"  stroke-width="2.0"/>
<line x1="253.6" y1="267.0" x2="261.8" y2="228.8" stroke="rgb(0,0,0)"  stroke-width="2.0"/>
<line x1="247.9" y1="259.7" x2="253.5" y2="233.2" stroke="rgb(0,0,0)"  stroke-width="2.0"/>
<line x1="261.8" y1="228.8" x2="227.9" y2="209.3" stroke="rgb(0,0,0)"  stroke-width="2.0"/>
<line x1="93.5" y1="133.1" x2="78.7" y2="169.2" stroke="rgb(0,0,0)"  stroke-width="2.0"/>
<line x1="78.7" y1="169.2" x2="102.6" y2="200.1" stroke="rgb(0,0,0)"  stroke-width="2.0"/>
<line x1="88.1" y1="169.6" x2="104.6" y2="191.0" stroke="rgb(0,0,0)"  stroke-width="2.0"/>
<line x1="102.6" y1="200.1" x2="141.3" y2="194.9" stroke="rgb(0,0,0)"  stroke-width="2.0"/>
<line x1="141.3" y1="194.9" x2="156.1" y2="158.7" stroke="rgb(0,0,0)"  stroke-width="2.0"/>
<line x1="136.9" y1="186.6" x2="147.2" y2="161.6" stroke="rgb(0,0,0)"  stroke-width="2.0"/>
<line x1="156.1" y1="158.7" x2="132.2" y2="127.8" stroke="rgb(0,0,0)"  stroke-width="2.0"/>
<line x1="132.2" y1="127.8" x2="93.5" y2="133.1" stroke="rgb(0,0,0)"  stroke-width="2.0"/>
<line x1="127.3" y1="135.8" x2="100.4" y2="139.4" stroke="rgb(0,0,0)"  stroke-width="2.0"/>
<line x1="361.5" y1="133.2" x2="361.9" y2="107.2" stroke="rgb(0,0,0)"  stroke-width="2.0"/>
<line x1="350.9" y1="87.5" x2="328.6" y2="74.1" stroke="rgb(0,0,0)"  stroke-width="2.0"/>
<line x1="328.6" y1="74.1" x2="294.4" y2="93.2" stroke="rgb(0,0,0)"  stroke-width="2.0"/>
<line x1="294.4" y1="93.2" x2="294.0" y2="119.2" stroke="rgb(0,0,0)"  stroke-width="2.0"/>
<line x1="305.0" y1="138.9" x2="327.4" y2="152.3" stroke="rgb(0,0,0)"  stroke-width="2.0"/>
<line x1="327.4" y1="152.3" x2="361.5" y2="133.2" stroke="rgb(0,0,0)"  stroke-width="2.0"/>
<line x1="141.3" y1="194.9" x2="154.0" y2="217.7" stroke="rgb(0,0,0)"  stroke-width="2.0"/>
<line x1="173.2" y1="231.1" x2="198.9" y2="235.4" stroke="rgb(0,0,0)"  stroke-width="2.0"/>
<line x1="227.9" y1="209.3" x2="225.6" y2="170.3" stroke="rgb(0,0,0)"  stroke-width="2.0"/>
<line x1="225.6" y1="170.3" x2="204.2" y2="155.2" stroke="rgb(0,0,0)"  stroke-width="2.0"/>
<line x1="216.5" y1="172.7" x2="201.8" y2="162.3" stroke="rgb(0,0,0)"  stroke-width="2.0"/>
<line x1="181.2" y1="151.4" x2="156.1" y2="158.7" stroke="rgb(0,0,0)"  stroke-width="2.0"/>
<text x="141.064855" y="99.677494" fill="rgb(191,191,191)"  stroke="rgb(191,191,191)" stroke-width="1" font-size="16" >H</text>
<text x="310.947957" y="316.127309" fill="rgb(191,191,191)"  stroke="rgb(191,191,191)" stroke-width="1" font-size="16" >H</text>
<text x="302.824896" y="277.911310" fill="rgb(191,191,191)"  stroke="rgb(191,191,191)" stroke-width="1" font-size="16" >H</text>
<text x="261.717178" y="341.211644" fill="rgb(191,191,191)"  stroke="rgb(191,191,191)" stroke-width="1" font-size="16" >H</text>
<text x="291.462693" y="220.912487" fill="rgb(191,191,191)"  stroke="rgb(191,191,191)" stroke-width="1" font-size="16" >H</text>
<text x="131.869595" y="268.959265" fill="rgb(191,191,191)"  stroke="rgb(191,191,191)" stroke-width="1" font-size="16" >H</text>
<text x="81.799852" y="244.283189" fill="rgb(191,191,191)"  stroke="rgb(191,191,191)" stroke-width="1" font-size="16" >H</text>
<text x="34.000000" y="182.469267" fill="rgb(191,191,191)"  stroke="rgb(191,191,191)" stroke-width="1" font-size="16" >H</text>
<text x="63.632501" y="110.166419" fill="rgb(191,191,191)"  stroke="rgb(191,191,191)" stroke-width="1" font-size="16" >H</text>
<text x="301.346989" y="193.794041" fill="rgb(191,191,191)"  stroke="rgb(191,191,191)" stroke-width="1" font-size="16" >H</text>
<text x="340.412384" y="194.378502" fill="rgb(191,191,191)"  stroke="rgb(191,191,191)" stroke-width="1" font-size="16" >H</text>
<text x="374.536240" y="175.351962" fill="rgb(191,191,191)"  stroke="rgb(191,191,191)" stroke-width="1" font-size="16" >H</text>
<text x="394.575095" y="141.812567" fill="rgb(191,191,191)"  stroke="rgb(191,191,191)" stroke-width="1" font-size="16" >H</text>
<text x="342.593621" y="48.584461" fill="rgb(191,191,191)"  stroke="rgb(191,191,191)" stroke-width="1" font-size="16" >H</text>
<text x="303.528225" y="48.000000" fill="rgb(191,191,191)"  stroke="rgb(191,191,191)" stroke-width="1" font-size="16" >H</text>
<text x="269.404370" y="67.026540" fill="rgb(191,191,191)"  stroke="rgb(191,191,191)" stroke-width="1" font-size="16" >H</text>
<text x="249.365514" y="100.565935" fill="rgb(191,191,191)"  stroke="rgb(191,191,191)" stroke-width="1" font-size="16" >H</text>
<text x="390.218015" y="83.136171" fill="rgb(191,191,191)"  stroke="rgb(191,191,191)" stroke-width="1" font-size="16" >H</text>
<text x="208.791884" y="279.103495" fill="rgb(178,178,0)"  stroke="rgb(178,178,0)" stroke-width="1" font-size="16" >S</text>
<text x="154.358820" y="237.011158" fill="rgb(12,12,255)"  stroke="rgb(12,12,255)" stroke-width="1" font-size="16" >N</text>
<text x="187.650633" y="155.779646" fill="rgb(12,12,255)"  stroke="rgb(12,12,255)" stroke-width="1" font-size="16" >N</text>
<text x="287.846449" y="140.215791" fill="rgb(12,12,255)"  stroke="rgb(12,12,255)" stroke-width="1" font-size="16" >N</text>
<text x="356.094160" y="102.162711" fill="rgb(12,12,255)"  stroke="rgb(12,12,255)" stroke-width="1" font-size="16" >N</text>
</svg>
</g>
<text font-size="18.000000" fill ="black" font-family="sans-serif"
x="10.000000" y="20.000000" >ZINC22055590</text>
</svg>
