<?xml version="1.0"?>
<svg version="1.1" id="topsvg"
xmlns="http://www.w3.org/2000/svg" xmlns:xlink="http://www.w3.org/1999/xlink"
xmlns:cml="http://www.xml-cml.org/schema" x="0" y="0" width="200px" height="200px" viewBox="0 0 100 100">
<title>ZINC13658994 - Open Babel Depiction</title>
<rect x="0" y="0" width="100" height="100" fill="white"/>
<g transform="translate(0,0)">
<svg width="100" height="100" x="0" y="0" viewBox="0 0 327.846 334.641"
font-family="sans-serif" stroke="rgb(0,0,0)" stroke-width="2"  stroke-linecap="round">
<line x1="183.9" y1="254.6" x2="160.5" y2="241.1" stroke="rgb(0,0,0)"  stroke-width="2.0"/>
<line x1="183.9" y1="254.6" x2="210.9" y2="254.6" stroke="rgb(0,0,0)"  stroke-width="2.0"/>
<line x1="183.9" y1="254.6" x2="197.4" y2="231.3" stroke="rgb(0,0,0)"  stroke-width="2.0"/>
<line x1="183.9" y1="254.6" x2="183.9" y2="281.6" stroke="rgb(0,0,0)"  stroke-width="2.0"/>
<line x1="149.3" y1="221.6" x2="149.3" y2="194.6" stroke="rgb(0,0,0)"  stroke-width="2.0"/>
<line x1="183.9" y1="174.6" x2="207.3" y2="188.1" stroke="rgb(0,0,0)"  stroke-width="2.0"/>
<line x1="183.9" y1="134.6" x2="218.6" y2="114.6" stroke="rgb(0,0,0)"  stroke-width="2.0"/>
<line x1="149.3" y1="114.6" x2="149.3" y2="87.6" stroke="rgb(0,0,0)"  stroke-width="2.0"/>
<line x1="114.6" y1="134.6" x2="91.3" y2="121.1" stroke="rgb(0,0,0)"  stroke-width="2.0"/>
<line x1="114.6" y1="174.6" x2="91.3" y2="188.1" stroke="rgb(0,0,0)"  stroke-width="2.0"/>
<line x1="80.0" y1="101.6" x2="80.0" y2="74.6" stroke="rgb(0,0,0)"  stroke-width="2.0"/>
<line x1="80.0" y1="74.6" x2="66.5" y2="51.3" stroke="rgb(0,0,0)"  stroke-width="2.0"/>
<line x1="80.0" y1="74.6" x2="53.0" y2="74.6" stroke="rgb(0,0,0)"  stroke-width="2.0"/>
<line x1="80.0" y1="74.6" x2="103.4" y2="61.1" stroke="rgb(0,0,0)"  stroke-width="2.0"/>
<line x1="220.1" y1="112.0" x2="243.4" y2="125.5" stroke="rgb(0,0,0)"  stroke-width="2.0"/>
<line x1="217.1" y1="117.2" x2="240.4" y2="130.7" stroke="rgb(0,0,0)"  stroke-width="2.0"/>
<line x1="218.6" y1="114.6" x2="218.6" y2="87.6" stroke="rgb(0,0,0)"  stroke-width="2.0"/>
<line x1="253.2" y1="147.6" x2="253.2" y2="161.6" stroke="rgb(0,0,0)"  stroke-width="2.0"/>
<line x1="264.5" y1="128.1" x2="276.6" y2="121.1" stroke="rgb(0,0,0)"  stroke-width="2.0"/>
<line x1="229.8" y1="68.1" x2="241.9" y2="61.1" stroke="rgb(0,0,0)"  stroke-width="2.0"/>
<line x1="207.3" y1="68.1" x2="195.2" y2="61.1" stroke="rgb(0,0,0)"  stroke-width="2.0"/>
<line x1="183.9" y1="134.6" x2="149.3" y2="114.6" stroke="rgb(0,0,0)"  stroke-width="2.0"/>
<line x1="149.3" y1="114.6" x2="114.6" y2="134.6" stroke="rgb(0,0,0)"  stroke-width="2.0"/>
<line x1="147.7" y1="123.9" x2="123.4" y2="137.9" stroke="rgb(0,0,0)"  stroke-width="2.0"/>
<line x1="114.6" y1="134.6" x2="114.6" y2="174.6" stroke="rgb(0,0,0)"  stroke-width="2.0"/>
<line x1="114.6" y1="174.6" x2="149.3" y2="194.6" stroke="rgb(0,0,0)"  stroke-width="2.0"/>
<line x1="123.4" y1="171.4" x2="147.7" y2="185.4" stroke="rgb(0,0,0)"  stroke-width="2.0"/>
<line x1="149.3" y1="194.6" x2="183.9" y2="174.6" stroke="rgb(0,0,0)"  stroke-width="2.0"/>
<line x1="183.9" y1="174.6" x2="183.9" y2="134.6" stroke="rgb(0,0,0)"  stroke-width="2.0"/>
<line x1="176.7" y1="168.6" x2="176.7" y2="140.6" stroke="rgb(0,0,0)"  stroke-width="2.0"/>
<text x="247.205081" y="62.641016" fill="rgb(255,12,12)"  stroke="rgb(255,12,12)" stroke-width="1" font-size="16" >OH</text>
<text x="281.846097" y="122.641016" fill="rgb(191,191,191)"  stroke="rgb(191,191,191)" stroke-width="1" font-size="16" >H</text>
<text x="177.923048" y="62.641016" fill="rgb(191,191,191)"  stroke="rgb(191,191,191)" stroke-width="1" font-size="16" >H</text>
<text x="247.205081" y="182.641016" fill="rgb(191,191,191)"  stroke="rgb(191,191,191)" stroke-width="1" font-size="16" >H</text>
<text x="108.641016" y="62.641016" fill="rgb(191,191,191)"  stroke="rgb(191,191,191)" stroke-width="1" font-size="16" >H</text>
<text x="34.000000" y="82.641016" fill="rgb(191,191,191)"  stroke="rgb(191,191,191)" stroke-width="1" font-size="16" >H</text>
<text x="54.000000" y="48.000000" fill="rgb(191,191,191)"  stroke="rgb(191,191,191)" stroke-width="1" font-size="16" >H</text>
<text x="74.000000" y="202.641016" fill="rgb(191,191,191)"  stroke="rgb(191,191,191)" stroke-width="1" font-size="16" >H</text>
<text x="143.282032" y="82.641016" fill="rgb(191,191,191)"  stroke="rgb(191,191,191)" stroke-width="1" font-size="16" >H</text>
<text x="212.564065" y="202.641016" fill="rgb(191,191,191)"  stroke="rgb(191,191,191)" stroke-width="1" font-size="16" >H</text>
<text x="177.923048" y="302.641016" fill="rgb(191,191,191)"  stroke="rgb(191,191,191)" stroke-width="1" font-size="16" >H</text>
<text x="197.923048" y="228.000000" fill="rgb(191,191,191)"  stroke="rgb(191,191,191)" stroke-width="1" font-size="16" >H</text>
<text x="217.923048" y="262.641016" fill="rgb(191,191,191)"  stroke="rgb(191,191,191)" stroke-width="1" font-size="16" >H</text>
<text x="212.564065" y="82.641016" fill="rgb(12,12,255)"  stroke="rgb(12,12,255)" stroke-width="1" font-size="16" >N</text>
<text x="247.205081" y="142.641016" fill="rgb(12,12,255)"  stroke="rgb(12,12,255)" stroke-width="1" font-size="16" >N</text>
<text x="74.000000" y="122.641016" fill="rgb(255,12,12)"  stroke="rgb(255,12,12)" stroke-width="1" font-size="16" >O</text>
<text x="143.282032" y="242.641016" fill="rgb(255,12,12)"  stroke="rgb(255,12,12)" stroke-width="1" font-size="16" >O</text>
</svg>
</g>
<text font-size="18.000000" fill ="black" font-family="sans-serif"
x="10.000000" y="20.000000" >ZINC13658994</text>
</svg>
