<?xml version="1.0"?>
<svg version="1.1" id="topsvg"
xmlns="http://www.w3.org/2000/svg" xmlns:xlink="http://www.w3.org/1999/xlink"
xmlns:cml="http://www.xml-cml.org/schema" x="0" y="0" width="200px" height="200px" viewBox="0 0 100 100">
<title>ZINC98216444 - Open Babel Depiction</title>
<rect x="0" y="0" width="100" height="100" fill="white"/>
<g transform="translate(0,0)">
<svg width="100" height="100" x="0" y="0" viewBox="0 0 1036.73 423.048"
font-family="sans-serif" stroke="rgb(0,0,0)" stroke-width="2"  stroke-linecap="round">
<line x1="659.9" y1="171.3" x2="626.1" y2="151.8" stroke="rgb(0,0,0)"  stroke-width="2.0"/>
<line x1="659.9" y1="171.3" x2="685.9" y2="171.3" stroke="rgb(0,0,0)"  stroke-width="2.0"/>
<line x1="659.9" y1="171.3" x2="672.9" y2="148.8" stroke="rgb(0,0,0)"  stroke-width="2.0"/>
<line x1="659.9" y1="171.3" x2="659.9" y2="197.3" stroke="rgb(0,0,0)"  stroke-width="2.0"/>
<polygon points="626.149082 151.798677 616.545415 176.432716 609.617212 172.432716 " stroke-width="2.000000" fill="rgb(0,0,0)"  stroke="rgb(0,0,0)" />
<line x1="626.1" y1="151.8" x2="592.4" y2="132.3" stroke="rgb(0,0,0)"  stroke-width="2.0"/>
<line x1="626.1" y1="151.8" x2="639.2" y2="129.3" stroke="rgb(0,0,0)"  stroke-width="2.0"/>
<line x1="589.4" y1="132.3" x2="589.4" y2="106.3" stroke="rgb(0,0,0)"  stroke-width="2.0"/>
<line x1="595.4" y1="132.3" x2="595.4" y2="106.3" stroke="rgb(0,0,0)"  stroke-width="2.0"/>
<line x1="592.4" y1="132.3" x2="569.8" y2="145.3" stroke="rgb(0,0,0)"  stroke-width="2.0"/>
<line x1="547.3" y1="145.3" x2="524.8" y2="132.3" stroke="rgb(0,0,0)"  stroke-width="2.0"/>
<line x1="558.6" y1="164.8" x2="558.6" y2="177.8" stroke="rgb(0,0,0)"  stroke-width="2.0"/>
<line x1="526.7" y1="127.4" x2="528.1" y2="128.2" stroke="rgb(0,0,0)"  stroke-width="1.0"/>
<line x1="528.3" y1="123.4" x2="530.8" y2="124.9" stroke="rgb(0,0,0)"  stroke-width="1.0"/>
<line x1="529.8" y1="119.5" x2="533.4" y2="121.6" stroke="rgb(0,0,0)"  stroke-width="1.0"/>
<line x1="531.3" y1="115.5" x2="536.0" y2="118.3" stroke="rgb(0,0,0)"  stroke-width="1.0"/>
<line x1="532.9" y1="111.6" x2="538.7" y2="115.0" stroke="rgb(0,0,0)"  stroke-width="1.0"/>
<line x1="534.4" y1="107.7" x2="541.3" y2="111.7" stroke="rgb(0,0,0)"  stroke-width="1.0"/>
<line x1="524.8" y1="132.3" x2="491.0" y2="112.8" stroke="rgb(0,0,0)"  stroke-width="2.0"/>
<line x1="524.8" y1="132.3" x2="485.8" y2="199.9" stroke="rgb(0,0,0)"  stroke-width="2.0"/>
<line x1="491.0" y1="112.8" x2="510.5" y2="79.0" stroke="rgb(0,0,0)"  stroke-width="2.0"/>
<line x1="491.0" y1="112.8" x2="457.2" y2="93.3" stroke="rgb(0,0,0)"  stroke-width="2.0"/>
<line x1="491.0" y1="112.8" x2="478.0" y2="135.3" stroke="rgb(0,0,0)"  stroke-width="2.0"/>
<line x1="510.5" y1="79.0" x2="510.5" y2="53.0" stroke="rgb(0,0,0)"  stroke-width="2.0"/>
<line x1="510.5" y1="79.0" x2="488.0" y2="66.0" stroke="rgb(0,0,0)"  stroke-width="2.0"/>
<line x1="510.5" y1="79.0" x2="536.5" y2="79.0" stroke="rgb(0,0,0)"  stroke-width="2.0"/>
<line x1="457.2" y1="93.3" x2="431.2" y2="93.3" stroke="rgb(0,0,0)"  stroke-width="2.0"/>
<line x1="457.2" y1="93.3" x2="444.2" y2="115.8" stroke="rgb(0,0,0)"  stroke-width="2.0"/>
<line x1="457.2" y1="93.3" x2="457.2" y2="67.3" stroke="rgb(0,0,0)"  stroke-width="2.0"/>
<line x1="488.4" y1="198.4" x2="501.4" y2="220.9" stroke="rgb(0,0,0)"  stroke-width="2.0"/>
<line x1="483.2" y1="201.4" x2="496.2" y2="223.9" stroke="rgb(0,0,0)"  stroke-width="2.0"/>
<line x1="485.8" y1="199.9" x2="459.8" y2="199.9" stroke="rgb(0,0,0)"  stroke-width="2.0"/>
<line x1="440.3" y1="211.1" x2="427.3" y2="233.6" stroke="rgb(0,0,0)"  stroke-width="2.0"/>
<line x1="440.3" y1="188.6" x2="433.8" y2="177.3" stroke="rgb(0,0,0)"  stroke-width="2.0"/>
<polygon points="427.281977 233.640989 451.916016 243.244656 447.916016 250.172859 " stroke-width="2.000000" fill="rgb(0,0,0)"  stroke="rgb(0,0,0)" />
<line x1="427.3" y1="233.6" x2="407.8" y2="267.4" stroke="rgb(0,0,0)"  stroke-width="2.0"/>
<line x1="427.3" y1="233.6" x2="393.5" y2="214.1" stroke="rgb(0,0,0)"  stroke-width="2.0"/>
<line x1="407.8" y1="267.4" x2="475.3" y2="306.4" stroke="rgb(0,0,0)"  stroke-width="2.0"/>
<line x1="407.8" y1="267.4" x2="388.3" y2="301.2" stroke="rgb(0,0,0)"  stroke-width="2.0"/>
<line x1="407.8" y1="267.4" x2="385.3" y2="254.4" stroke="rgb(0,0,0)"  stroke-width="2.0"/>
<line x1="475.3" y1="306.4" x2="488.3" y2="329.0" stroke="rgb(0,0,0)"  stroke-width="2.0"/>
<line x1="475.3" y1="306.4" x2="462.3" y2="329.0" stroke="rgb(0,0,0)"  stroke-width="2.0"/>
<line x1="475.3" y1="306.4" x2="497.9" y2="293.4" stroke="rgb(0,0,0)"  stroke-width="2.0"/>
<line x1="388.3" y1="301.2" x2="388.3" y2="327.2" stroke="rgb(0,0,0)"  stroke-width="2.0"/>
<line x1="388.3" y1="301.2" x2="410.8" y2="314.2" stroke="rgb(0,0,0)"  stroke-width="2.0"/>
<line x1="388.3" y1="301.2" x2="362.3" y2="301.2" stroke="rgb(0,0,0)"  stroke-width="2.0"/>
<line x1="390.5" y1="214.1" x2="390.5" y2="188.1" stroke="rgb(0,0,0)"  stroke-width="2.0"/>
<line x1="396.5" y1="214.1" x2="396.5" y2="188.1" stroke="rgb(0,0,0)"  stroke-width="2.0"/>
<line x1="393.5" y1="214.1" x2="371.0" y2="227.1" stroke="rgb(0,0,0)"  stroke-width="2.0"/>
<line x1="348.5" y1="227.1" x2="325.9" y2="214.1" stroke="rgb(0,0,0)"  stroke-width="2.0"/>
<line x1="359.7" y1="246.6" x2="359.7" y2="259.6" stroke="rgb(0,0,0)"  stroke-width="2.0"/>
<line x1="327.9" y1="209.2" x2="329.2" y2="210.0" stroke="rgb(0,0,0)"  stroke-width="1.0"/>
<line x1="329.4" y1="205.3" x2="331.9" y2="206.7" stroke="rgb(0,0,0)"  stroke-width="1.0"/>
<line x1="330.9" y1="201.3" x2="334.5" y2="203.4" stroke="rgb(0,0,0)"  stroke-width="1.0"/>
<line x1="332.5" y1="197.4" x2="337.2" y2="200.1" stroke="rgb(0,0,0)"  stroke-width="1.0"/>
<line x1="334.0" y1="193.4" x2="339.8" y2="196.8" stroke="rgb(0,0,0)"  stroke-width="1.0"/>
<line x1="335.5" y1="189.5" x2="342.5" y2="193.5" stroke="rgb(0,0,0)"  stroke-width="1.0"/>
<line x1="325.9" y1="214.1" x2="292.2" y2="194.6" stroke="rgb(0,0,0)"  stroke-width="2.0"/>
<line x1="325.9" y1="214.1" x2="306.4" y2="247.9" stroke="rgb(0,0,0)"  stroke-width="2.0"/>
<line x1="292.2" y1="194.6" x2="292.2" y2="155.6" stroke="rgb(0,0,0)"  stroke-width="2.0"/>
<line x1="292.2" y1="194.6" x2="266.1" y2="194.6" stroke="rgb(0,0,0)"  stroke-width="2.0"/>
<line x1="292.2" y1="194.6" x2="279.1" y2="217.2" stroke="rgb(0,0,0)"  stroke-width="2.0"/>
<line x1="290.7" y1="153.0" x2="313.2" y2="140.0" stroke="rgb(0,0,0)"  stroke-width="2.0"/>
<line x1="293.7" y1="158.2" x2="316.2" y2="145.2" stroke="rgb(0,0,0)"  stroke-width="2.0"/>
<line x1="292.2" y1="155.6" x2="269.6" y2="142.6" stroke="rgb(0,0,0)"  stroke-width="2.0"/>
<line x1="258.4" y1="123.1" x2="258.4" y2="110.1" stroke="rgb(0,0,0)"  stroke-width="2.0"/>
<line x1="247.1" y1="142.6" x2="235.8" y2="149.1" stroke="rgb(0,0,0)"  stroke-width="2.0"/>
<line x1="309.0" y1="246.4" x2="322.0" y2="268.9" stroke="rgb(0,0,0)"  stroke-width="2.0"/>
<line x1="303.8" y1="249.4" x2="316.8" y2="271.9" stroke="rgb(0,0,0)"  stroke-width="2.0"/>
<line x1="306.4" y1="247.9" x2="280.4" y2="247.9" stroke="rgb(0,0,0)"  stroke-width="2.0"/>
<line x1="260.9" y1="259.2" x2="247.9" y2="281.7" stroke="rgb(0,0,0)"  stroke-width="2.0"/>
<line x1="260.9" y1="236.7" x2="254.4" y2="225.4" stroke="rgb(0,0,0)"  stroke-width="2.0"/>
<polygon points="247.919004 281.701152 272.553044 291.304819 268.553044 298.233023 " stroke-width="2.000000" fill="rgb(0,0,0)"  stroke="rgb(0,0,0)" />
<line x1="247.9" y1="281.7" x2="228.4" y2="315.5" stroke="rgb(0,0,0)"  stroke-width="2.0"/>
<line x1="247.9" y1="281.7" x2="214.1" y2="262.2" stroke="rgb(0,0,0)"  stroke-width="2.0"/>
<line x1="228.4" y1="315.5" x2="247.9" y2="349.3" stroke="rgb(0,0,0)"  stroke-width="2.0"/>
<line x1="228.4" y1="315.5" x2="205.9" y2="328.5" stroke="rgb(0,0,0)"  stroke-width="2.0"/>
<line x1="228.4" y1="315.5" x2="205.9" y2="302.5" stroke="rgb(0,0,0)"  stroke-width="2.0"/>
<line x1="247.9" y1="346.3" x2="273.9" y2="346.3" stroke="rgb(0,0,0)"  stroke-width="2.0"/>
<line x1="247.9" y1="352.3" x2="273.9" y2="352.3" stroke="rgb(0,0,0)"  stroke-width="2.0"/>
<line x1="247.9" y1="349.3" x2="234.9" y2="371.8" stroke="rgb(0,0,0)"  stroke-width="2.0"/>
<line x1="211.1" y1="262.2" x2="211.1" y2="236.2" stroke="rgb(0,0,0)"  stroke-width="2.0"/>
<line x1="217.1" y1="262.2" x2="217.1" y2="236.2" stroke="rgb(0,0,0)"  stroke-width="2.0"/>
<line x1="214.1" y1="262.2" x2="191.6" y2="275.2" stroke="rgb(0,0,0)"  stroke-width="2.0"/>
<line x1="169.1" y1="275.2" x2="146.6" y2="262.2" stroke="rgb(0,0,0)"  stroke-width="2.0"/>
<line x1="180.4" y1="294.7" x2="180.4" y2="307.7" stroke="rgb(0,0,0)"  stroke-width="2.0"/>
<line x1="148.5" y1="257.3" x2="149.9" y2="258.1" stroke="rgb(0,0,0)"  stroke-width="1.0"/>
<line x1="150.0" y1="253.3" x2="152.5" y2="254.8" stroke="rgb(0,0,0)"  stroke-width="1.0"/>
<line x1="151.6" y1="249.4" x2="155.2" y2="251.5" stroke="rgb(0,0,0)"  stroke-width="1.0"/>
<line x1="153.1" y1="245.4" x2="157.8" y2="248.2" stroke="rgb(0,0,0)"  stroke-width="1.0"/>
<line x1="154.6" y1="241.5" x2="160.5" y2="244.9" stroke="rgb(0,0,0)"  stroke-width="1.0"/>
<line x1="156.2" y1="237.6" x2="163.1" y2="241.6" stroke="rgb(0,0,0)"  stroke-width="1.0"/>
<line x1="146.6" y1="262.2" x2="112.8" y2="242.7" stroke="rgb(0,0,0)"  stroke-width="2.0"/>
<line x1="146.6" y1="262.2" x2="127.1" y2="296.0" stroke="rgb(0,0,0)"  stroke-width="2.0"/>
<line x1="112.8" y1="242.7" x2="112.8" y2="203.7" stroke="rgb(0,0,0)"  stroke-width="2.0"/>
<line x1="112.8" y1="242.7" x2="86.8" y2="242.7" stroke="rgb(0,0,0)"  stroke-width="2.0"/>
<line x1="112.8" y1="242.7" x2="99.8" y2="265.2" stroke="rgb(0,0,0)"  stroke-width="2.0"/>
<line x1="112.8" y1="203.7" x2="73.8" y2="203.7" stroke="rgb(0,0,0)"  stroke-width="2.0"/>
<line x1="112.8" y1="203.7" x2="112.8" y2="164.7" stroke="rgb(0,0,0)"  stroke-width="2.0"/>
<line x1="112.8" y1="203.7" x2="138.8" y2="203.7" stroke="rgb(0,0,0)"  stroke-width="2.0"/>
<line x1="73.8" y1="203.7" x2="51.3" y2="190.7" stroke="rgb(0,0,0)"  stroke-width="2.0"/>
<line x1="73.8" y1="203.7" x2="73.8" y2="177.7" stroke="rgb(0,0,0)"  stroke-width="2.0"/>
<line x1="73.8" y1="203.7" x2="60.8" y2="226.2" stroke="rgb(0,0,0)"  stroke-width="2.0"/>
<line x1="112.8" y1="164.7" x2="125.8" y2="142.2" stroke="rgb(0,0,0)"  stroke-width="2.0"/>
<line x1="112.8" y1="164.7" x2="138.8" y2="164.7" stroke="rgb(0,0,0)"  stroke-width="2.0"/>
<line x1="112.8" y1="164.7" x2="90.3" y2="151.7" stroke="rgb(0,0,0)"  stroke-width="2.0"/>
<line x1="127.1" y1="299.0" x2="101.1" y2="299.0" stroke="rgb(0,0,0)"  stroke-width="2.0"/>
<line x1="127.1" y1="293.0" x2="101.1" y2="293.0" stroke="rgb(0,0,0)"  stroke-width="2.0"/>
<line x1="127.1" y1="296.0" x2="140.1" y2="318.5" stroke="rgb(0,0,0)"  stroke-width="2.0"/>
<line x1="658.7" y1="118.0" x2="684.7" y2="118.0" stroke="rgb(0,0,0)"  stroke-width="2.0"/>
<line x1="639.2" y1="106.8" x2="632.6" y2="95.5" stroke="rgb(0,0,0)"  stroke-width="2.0"/>
<line x1="687.3" y1="116.5" x2="700.3" y2="139.0" stroke="rgb(0,0,0)"  stroke-width="2.0"/>
<line x1="682.1" y1="119.5" x2="695.1" y2="142.0" stroke="rgb(0,0,0)"  stroke-width="2.0"/>
<line x1="684.7" y1="118.0" x2="704.2" y2="84.2" stroke="rgb(0,0,0)"  stroke-width="2.0"/>
<line x1="704.2" y1="84.2" x2="730.2" y2="84.2" stroke="rgb(0,0,0)"  stroke-width="2.0"/>
<line x1="704.2" y1="84.2" x2="704.2" y2="58.2" stroke="rgb(0,0,0)"  stroke-width="2.0"/>
<line x1="704.2" y1="84.2" x2="681.6" y2="71.2" stroke="rgb(0,0,0)"  stroke-width="2.0"/>
<line x1="749.7" y1="95.5" x2="762.7" y2="118.0" stroke="rgb(0,0,0)"  stroke-width="2.0"/>
<line x1="749.7" y1="73.0" x2="756.2" y2="61.7" stroke="rgb(0,0,0)"  stroke-width="2.0"/>
<line x1="765.3" y1="119.5" x2="752.3" y2="142.0" stroke="rgb(0,0,0)"  stroke-width="2.0"/>
<line x1="760.1" y1="116.5" x2="747.1" y2="139.0" stroke="rgb(0,0,0)"  stroke-width="2.0"/>
<line x1="762.7" y1="118.0" x2="801.7" y2="118.0" stroke="rgb(0,0,0)"  stroke-width="2.0"/>
<polygon points="801.686272 118.016529 805.686272 144.152066 797.686272 144.152066 " stroke-width="2.000000" fill="rgb(0,0,0)"  stroke="rgb(0,0,0)" />
<line x1="801.7" y1="118.0" x2="879.7" y2="118.0" stroke="rgb(0,0,0)"  stroke-width="2.0"/>
<line x1="801.7" y1="118.0" x2="801.7" y2="92.0" stroke="rgb(0,0,0)"  stroke-width="2.0"/>
<line x1="879.7" y1="118.0" x2="899.2" y2="151.8" stroke="rgb(0,0,0)"  stroke-width="2.0"/>
<line x1="879.7" y1="118.0" x2="902.2" y2="105.0" stroke="rgb(0,0,0)"  stroke-width="2.0"/>
<line x1="879.7" y1="118.0" x2="879.7" y2="92.0" stroke="rgb(0,0,0)"  stroke-width="2.0"/>
<line x1="879.7" y1="185.6" x2="853.7" y2="185.6" stroke="rgb(0,0,0)"  stroke-width="2.0"/>
<line x1="899.2" y1="219.4" x2="886.2" y2="241.9" stroke="rgb(0,0,0)"  stroke-width="2.0"/>
<line x1="938.2" y1="219.4" x2="951.2" y2="241.9" stroke="rgb(0,0,0)"  stroke-width="2.0"/>
<line x1="957.7" y1="185.6" x2="983.7" y2="185.6" stroke="rgb(0,0,0)"  stroke-width="2.0"/>
<line x1="938.2" y1="151.8" x2="951.2" y2="129.3" stroke="rgb(0,0,0)"  stroke-width="2.0"/>
<line x1="970.7" y1="253.1" x2="983.7" y2="253.1" stroke="rgb(0,0,0)"  stroke-width="2.0"/>
<line x1="814.7" y1="79.0" x2="827.7" y2="79.0" stroke="rgb(0,0,0)"  stroke-width="2.0"/>
<line x1="801.7" y1="66.0" x2="801.7" y2="53.0" stroke="rgb(0,0,0)"  stroke-width="2.0"/>
<line x1="788.7" y1="79.0" x2="775.7" y2="79.0" stroke="rgb(0,0,0)"  stroke-width="2.0"/>
<line x1="899.2" y1="219.4" x2="938.2" y2="219.4" stroke="rgb(0,0,0)"  stroke-width="2.0"/>
<line x1="938.2" y1="219.4" x2="957.7" y2="185.6" stroke="rgb(0,0,0)"  stroke-width="2.0"/>
<line x1="935.0" y1="210.6" x2="948.5" y2="187.2" stroke="rgb(0,0,0)"  stroke-width="2.0"/>
<line x1="957.7" y1="185.6" x2="938.2" y2="151.8" stroke="rgb(0,0,0)"  stroke-width="2.0"/>
<line x1="938.2" y1="151.8" x2="899.2" y2="151.8" stroke="rgb(0,0,0)"  stroke-width="2.0"/>
<line x1="932.2" y1="159.0" x2="905.2" y2="159.0" stroke="rgb(0,0,0)"  stroke-width="2.0"/>
<line x1="899.2" y1="151.8" x2="879.7" y2="185.6" stroke="rgb(0,0,0)"  stroke-width="2.0"/>
<line x1="879.7" y1="185.6" x2="899.2" y2="219.4" stroke="rgb(0,0,0)"  stroke-width="2.0"/>
<line x1="888.9" y1="187.2" x2="902.4" y2="210.6" stroke="rgb(0,0,0)"  stroke-width="2.0"/>
<text x="543.532887" y="87.008264" fill="rgb(191,191,191)"  stroke="rgb(191,191,191)" stroke-width="1" font-size="16" >H</text>
<text x="266.649253" y="236.414872" fill="rgb(191,191,191)"  stroke="rgb(191,191,191)" stroke-width="1" font-size="16" >H</text>
<text x="247.145121" y="202.632724" fill="rgb(191,191,191)"  stroke="rgb(191,191,191)" stroke-width="1" font-size="16" >H</text>
<text x="353.717681" y="280.649253" fill="rgb(191,191,191)"  stroke="rgb(191,191,191)" stroke-width="1" font-size="16" >H</text>
<text x="343.265448" y="309.205285" fill="rgb(191,191,191)"  stroke="rgb(191,191,191)" stroke-width="1" font-size="16" >H</text>
<text x="416.055861" y="328.709417" fill="rgb(191,191,191)"  stroke="rgb(191,191,191)" stroke-width="1" font-size="16" >H</text>
<text x="382.273713" y="348.213549" fill="rgb(191,191,191)"  stroke="rgb(191,191,191)" stroke-width="1" font-size="16" >H</text>
<text x="503.124289" y="294.927269" fill="rgb(191,191,191)"  stroke="rgb(191,191,191)" stroke-width="1" font-size="16" >H</text>
<text x="449.838009" y="348.213549" fill="rgb(191,191,191)"  stroke="rgb(191,191,191)" stroke-width="1" font-size="16" >H</text>
<text x="488.846273" y="348.213549" fill="rgb(191,191,191)"  stroke="rgb(191,191,191)" stroke-width="1" font-size="16" >H</text>
<text x="367.995697" y="255.919004" fill="rgb(191,191,191)"  stroke="rgb(191,191,191)" stroke-width="1" font-size="16" >H</text>
<text x="421.281977" y="174.076693" fill="rgb(191,191,191)"  stroke="rgb(191,191,191)" stroke-width="1" font-size="16" >H</text>
<text x="451.238342" y="62.278016" fill="rgb(191,191,191)"  stroke="rgb(191,191,191)" stroke-width="1" font-size="16" >H</text>
<text x="431.734210" y="135.068428" fill="rgb(191,191,191)"  stroke="rgb(191,191,191)" stroke-width="1" font-size="16" >H</text>
<text x="412.230078" y="101.286280" fill="rgb(191,191,191)"  stroke="rgb(191,191,191)" stroke-width="1" font-size="16" >H</text>
<text x="252.371237" y="105.112063" fill="rgb(191,191,191)"  stroke="rgb(191,191,191)" stroke-width="1" font-size="16" >H</text>
<text x="470.742475" y="67.504132" fill="rgb(191,191,191)"  stroke="rgb(191,191,191)" stroke-width="1" font-size="16" >H</text>
<text x="504.524623" y="48.000000" fill="rgb(191,191,191)"  stroke="rgb(191,191,191)" stroke-width="1" font-size="16" >H</text>
<text x="465.516358" y="154.572560" fill="rgb(191,191,191)"  stroke="rgb(191,191,191)" stroke-width="1" font-size="16" >H</text>
<text x="552.584786" y="198.806941" fill="rgb(191,191,191)"  stroke="rgb(191,191,191)" stroke-width="1" font-size="16" >H</text>
<text x="653.931230" y="218.311074" fill="rgb(191,191,191)"  stroke="rgb(191,191,191)" stroke-width="1" font-size="16" >H</text>
<text x="673.435363" y="145.520661" fill="rgb(191,191,191)"  stroke="rgb(191,191,191)" stroke-width="1" font-size="16" >H</text>
<text x="692.939495" y="179.302809" fill="rgb(191,191,191)"  stroke="rgb(191,191,191)" stroke-width="1" font-size="16" >H</text>
<text x="806.486272" y="74.976264" fill="rgb(12,12,255)"  stroke="rgb(12,12,255)" stroke-width="1" font-size="16" >+</text>
<text x="795.686272" y="87.008264" fill="rgb(12,12,255)"  stroke="rgb(12,12,255)" stroke-width="1" font-size="16" >N</text>
<text x="951.719330" y="261.145121" fill="rgb(255,12,12)"  stroke="rgb(255,12,12)" stroke-width="1" font-size="16" >O</text>
<text x="73.008264" y="153.172227" fill="rgb(191,191,191)"  stroke="rgb(191,191,191)" stroke-width="1" font-size="16" >H</text>
<text x="756.678008" y="87.008264" fill="rgb(191,191,191)"  stroke="rgb(191,191,191)" stroke-width="1" font-size="16" >H</text>
<text x="795.686272" y="48.000000" fill="rgb(191,191,191)"  stroke="rgb(191,191,191)" stroke-width="1" font-size="16" >H</text>
<text x="834.694537" y="87.008264" fill="rgb(191,191,191)"  stroke="rgb(191,191,191)" stroke-width="1" font-size="16" >H</text>
<text x="990.727595" y="261.145121" fill="rgb(191,191,191)"  stroke="rgb(191,191,191)" stroke-width="1" font-size="16" >H</text>
<text x="951.719330" y="126.016529" fill="rgb(191,191,191)"  stroke="rgb(191,191,191)" stroke-width="1" font-size="16" >H</text>
<text x="990.727595" y="193.580825" fill="rgb(191,191,191)"  stroke="rgb(191,191,191)" stroke-width="1" font-size="16" >H</text>
<text x="873.702801" y="261.145121" fill="rgb(191,191,191)"  stroke="rgb(191,191,191)" stroke-width="1" font-size="16" >H</text>
<text x="834.694537" y="193.580825" fill="rgb(191,191,191)"  stroke="rgb(191,191,191)" stroke-width="1" font-size="16" >H</text>
<text x="873.702801" y="87.008264" fill="rgb(191,191,191)"  stroke="rgb(191,191,191)" stroke-width="1" font-size="16" >H</text>
<text x="907.484949" y="106.512397" fill="rgb(191,191,191)"  stroke="rgb(191,191,191)" stroke-width="1" font-size="16" >H</text>
<text x="756.678008" y="58.452233" fill="rgb(191,191,191)"  stroke="rgb(191,191,191)" stroke-width="1" font-size="16" >H</text>
<text x="664.383463" y="72.730249" fill="rgb(191,191,191)"  stroke="rgb(191,191,191)" stroke-width="1" font-size="16" >H</text>
<text x="698.165611" y="53.226116" fill="rgb(191,191,191)"  stroke="rgb(191,191,191)" stroke-width="1" font-size="16" >H</text>
<text x="620.149082" y="92.234381" fill="rgb(191,191,191)"  stroke="rgb(191,191,191)" stroke-width="1" font-size="16" >H</text>
<text x="145.798677" y="172.676359" fill="rgb(191,191,191)"  stroke="rgb(191,191,191)" stroke-width="1" font-size="16" >H</text>
<text x="126.294545" y="138.894211" fill="rgb(191,191,191)"  stroke="rgb(191,191,191)" stroke-width="1" font-size="16" >H</text>
<text x="48.278016" y="245.466771" fill="rgb(191,191,191)"  stroke="rgb(191,191,191)" stroke-width="1" font-size="16" >H</text>
<text x="67.782148" y="172.676359" fill="rgb(191,191,191)"  stroke="rgb(191,191,191)" stroke-width="1" font-size="16" >H</text>
<text x="34.000000" y="192.180491" fill="rgb(191,191,191)"  stroke="rgb(191,191,191)" stroke-width="1" font-size="16" >H</text>
<text x="145.798677" y="211.684623" fill="rgb(191,191,191)"  stroke="rgb(191,191,191)" stroke-width="1" font-size="16" >H</text>
<text x="87.286280" y="284.475036" fill="rgb(191,191,191)"  stroke="rgb(191,191,191)" stroke-width="1" font-size="16" >H</text>
<text x="67.782148" y="250.692888" fill="rgb(191,191,191)"  stroke="rgb(191,191,191)" stroke-width="1" font-size="16" >H</text>
<text x="174.354708" y="328.709417" fill="rgb(191,191,191)"  stroke="rgb(191,191,191)" stroke-width="1" font-size="16" >H</text>
<text x="188.632724" y="303.979168" fill="rgb(191,191,191)"  stroke="rgb(191,191,191)" stroke-width="1" font-size="16" >H</text>
<text x="188.632724" y="342.987433" fill="rgb(191,191,191)"  stroke="rgb(191,191,191)" stroke-width="1" font-size="16" >H</text>
<text x="241.919004" y="222.136856" fill="rgb(191,191,191)"  stroke="rgb(191,191,191)" stroke-width="1" font-size="16" >H</text>
<text x="218.589089" y="163.624460" fill="rgb(191,191,191)"  stroke="rgb(191,191,191)" stroke-width="1" font-size="16" >H</text>
<text x="455.064125" y="261.145121" fill="rgb(191,191,191)"  stroke="rgb(191,191,191)" stroke-width="1" font-size="16" >H</text>
<text x="319.935533" y="289.701152" fill="rgb(255,12,12)"  stroke="rgb(255,12,12)" stroke-width="1" font-size="16" >O</text>
<text x="252.371237" y="144.120327" fill="rgb(12,12,255)"  stroke="rgb(12,12,255)" stroke-width="1" font-size="16" >N</text>
<text x="319.935533" y="144.120327" fill="rgb(255,12,12)"  stroke="rgb(255,12,12)" stroke-width="1" font-size="16" >O</text>
<text x="339.439666" y="188.354708" fill="rgb(191,191,191)"  stroke="rgb(191,191,191)" stroke-width="1" font-size="16" >H</text>
<text x="353.717681" y="241.640989" fill="rgb(12,12,255)"  stroke="rgb(12,12,255)" stroke-width="1" font-size="16" >N</text>
<text x="387.499829" y="183.128592" fill="rgb(255,12,12)"  stroke="rgb(255,12,12)" stroke-width="1" font-size="16" >O</text>
<text x="261.423137" y="255.919004" fill="rgb(12,12,255)"  stroke="rgb(12,12,255)" stroke-width="1" font-size="16" >N</text>
<text x="440.786109" y="207.858841" fill="rgb(12,12,255)"  stroke="rgb(12,12,255)" stroke-width="1" font-size="16" >N</text>
<text x="499.298506" y="241.640989" fill="rgb(255,12,12)"  stroke="rgb(255,12,12)" stroke-width="1" font-size="16" >O</text>
<text x="538.306771" y="106.512397" fill="rgb(191,191,191)"  stroke="rgb(191,191,191)" stroke-width="1" font-size="16" >H</text>
<text x="552.584786" y="159.798677" fill="rgb(12,12,255)"  stroke="rgb(12,12,255)" stroke-width="1" font-size="16" >N</text>
<text x="586.366934" y="101.286280" fill="rgb(255,12,12)"  stroke="rgb(255,12,12)" stroke-width="1" font-size="16" >O</text>
<text x="600.644950" y="193.580825" fill="rgb(191,191,191)"  stroke="rgb(191,191,191)" stroke-width="1" font-size="16" >H</text>
<text x="795.686272" y="165.024793" fill="rgb(191,191,191)"  stroke="rgb(191,191,191)" stroke-width="1" font-size="16" >H</text>
<text x="737.173876" y="159.798677" fill="rgb(255,12,12)"  stroke="rgb(255,12,12)" stroke-width="1" font-size="16" >O</text>
<text x="737.173876" y="92.234381" fill="rgb(12,12,255)"  stroke="rgb(12,12,255)" stroke-width="1" font-size="16" >N</text>
<text x="698.165611" y="159.798677" fill="rgb(255,12,12)"  stroke="rgb(255,12,12)" stroke-width="1" font-size="16" >O</text>
<text x="639.653215" y="126.016529" fill="rgb(12,12,255)"  stroke="rgb(12,12,255)" stroke-width="1" font-size="16" >N</text>
<text x="140.572560" y="337.761316" fill="rgb(255,12,12)"  stroke="rgb(255,12,12)" stroke-width="1" font-size="16" >OH</text>
<text x="82.060164" y="303.979168" fill="rgb(255,12,12)"  stroke="rgb(255,12,12)" stroke-width="1" font-size="16" >O</text>
<text x="160.076693" y="236.414872" fill="rgb(191,191,191)"  stroke="rgb(191,191,191)" stroke-width="1" font-size="16" >H</text>
<text x="174.354708" y="289.701152" fill="rgb(12,12,255)"  stroke="rgb(12,12,255)" stroke-width="1" font-size="16" >N</text>
<text x="208.136856" y="231.188756" fill="rgb(255,12,12)"  stroke="rgb(255,12,12)" stroke-width="1" font-size="16" >O</text>
<text x="210.414872" y="391.047596" fill="rgb(255,12,12)"  stroke="rgb(255,12,12)" stroke-width="1" font-size="16" >HO</text>
<text x="280.927269" y="357.265448" fill="rgb(255,12,12)"  stroke="rgb(255,12,12)" stroke-width="1" font-size="16" >O</text>
<text x="275.701152" y="309.205285" fill="rgb(191,191,191)"  stroke="rgb(191,191,191)" stroke-width="1" font-size="16" >H</text>
</svg>
</g>
<text font-size="18.000000" fill ="black" font-family="sans-serif"
x="10.000000" y="20.000000" >ZINC98216444</text>
</svg>
