<?xml version="1.0"?>
<svg version="1.1" id="topsvg"
xmlns="http://www.w3.org/2000/svg" xmlns:xlink="http://www.w3.org/1999/xlink"
xmlns:cml="http://www.xml-cml.org/schema" x="0" y="0" width="200px" height="200px" viewBox="0 0 100 100">
<title>ZINC00597112 - Open Babel Depiction</title>
<rect x="0" y="0" width="100" height="100" fill="white"/>
<g transform="translate(0,0)">
<svg width="100" height="100" x="0" y="0" viewBox="0 0 446.41 369.282"
font-family="sans-serif" stroke="rgb(0,0,0)" stroke-width="2"  stroke-linecap="round">
<line x1="351.8" y1="289.3" x2="371.8" y2="254.6" stroke="rgb(0,0,0)"  stroke-width="2.0"/>
<line x1="351.8" y1="289.3" x2="351.8" y2="316.3" stroke="rgb(0,0,0)"  stroke-width="2.0"/>
<line x1="351.8" y1="289.3" x2="375.2" y2="302.8" stroke="rgb(0,0,0)"  stroke-width="2.0"/>
<line x1="351.8" y1="289.3" x2="324.8" y2="289.3" stroke="rgb(0,0,0)"  stroke-width="2.0"/>
<line x1="371.8" y1="254.6" x2="358.3" y2="231.3" stroke="rgb(0,0,0)"  stroke-width="2.0"/>
<line x1="371.8" y1="254.6" x2="395.2" y2="268.1" stroke="rgb(0,0,0)"  stroke-width="2.0"/>
<line x1="371.8" y1="254.6" x2="395.2" y2="241.1" stroke="rgb(0,0,0)"  stroke-width="2.0"/>
<polygon points="364.969145 220.000000 378.569145 216.000000 378.569145 224.000000 " stroke-width="2.000000" fill="rgb(0,0,0)"  stroke="rgb(0,0,0)" />
<line x1="351.8" y1="180.0" x2="378.8" y2="180.0" stroke="rgb(0,0,0)"  stroke-width="2.0"/>
<line x1="351.8" y1="180.0" x2="365.3" y2="156.6" stroke="rgb(0,0,0)"  stroke-width="2.0"/>
<line x1="317.1" y1="160.0" x2="330.6" y2="136.6" stroke="rgb(0,0,0)"  stroke-width="2.0"/>
<line x1="317.1" y1="160.0" x2="303.6" y2="136.6" stroke="rgb(0,0,0)"  stroke-width="2.0"/>
<line x1="269.7" y1="176.1" x2="246.3" y2="162.6" stroke="rgb(0,0,0)"  stroke-width="2.0"/>
<line x1="272.7" y1="170.9" x2="249.3" y2="157.4" stroke="rgb(0,0,0)"  stroke-width="2.0"/>
<line x1="282.5" y1="220.0" x2="255.5" y2="220.0" stroke="rgb(0,0,0)"  stroke-width="2.0"/>
<line x1="282.5" y1="220.0" x2="269.0" y2="243.4" stroke="rgb(0,0,0)"  stroke-width="2.0"/>
<line x1="317.1" y1="240.0" x2="303.6" y2="263.4" stroke="rgb(0,0,0)"  stroke-width="2.0"/>
<line x1="317.1" y1="240.0" x2="330.6" y2="263.4" stroke="rgb(0,0,0)"  stroke-width="2.0"/>
<line x1="213.2" y1="180.0" x2="213.2" y2="207.0" stroke="rgb(0,0,0)"  stroke-width="2.0"/>
<line x1="213.2" y1="100.0" x2="213.2" y2="73.0" stroke="rgb(0,0,0)"  stroke-width="2.0"/>
<line x1="247.8" y1="120.0" x2="271.2" y2="106.5" stroke="rgb(0,0,0)"  stroke-width="2.0"/>
<line x1="143.9" y1="100.0" x2="143.9" y2="73.0" stroke="rgb(0,0,0)"  stroke-width="2.0"/>
<line x1="132.7" y1="53.5" x2="120.5" y2="46.5" stroke="rgb(0,0,0)"  stroke-width="2.0"/>
<line x1="109.3" y1="120.0" x2="74.6" y2="100.0" stroke="rgb(0,0,0)"  stroke-width="2.0"/>
<line x1="109.3" y1="160.0" x2="85.9" y2="173.5" stroke="rgb(0,0,0)"  stroke-width="2.0"/>
<line x1="143.9" y1="193.0" x2="143.9" y2="220.0" stroke="rgb(0,0,0)"  stroke-width="2.0"/>
<line x1="143.9" y1="220.0" x2="167.3" y2="206.5" stroke="rgb(0,0,0)"  stroke-width="2.0"/>
<line x1="143.9" y1="260.0" x2="167.3" y2="273.5" stroke="rgb(0,0,0)"  stroke-width="2.0"/>
<line x1="143.9" y1="260.0" x2="143.9" y2="287.0" stroke="rgb(0,0,0)"  stroke-width="2.0"/>
<line x1="109.3" y1="240.0" x2="85.9" y2="253.5" stroke="rgb(0,0,0)"  stroke-width="2.0"/>
<line x1="109.3" y1="240.0" x2="85.9" y2="226.5" stroke="rgb(0,0,0)"  stroke-width="2.0"/>
<line x1="71.6" y1="100.0" x2="71.6" y2="73.0" stroke="rgb(0,0,0)"  stroke-width="2.0"/>
<line x1="77.6" y1="100.0" x2="77.6" y2="73.0" stroke="rgb(0,0,0)"  stroke-width="2.0"/>
<line x1="74.6" y1="100.0" x2="51.3" y2="113.5" stroke="rgb(0,0,0)"  stroke-width="2.0"/>
<line x1="178.6" y1="160.0" x2="178.6" y2="120.0" stroke="rgb(0,0,0)"  stroke-width="2.0"/>
<line x1="178.6" y1="120.0" x2="213.2" y2="100.0" stroke="rgb(0,0,0)"  stroke-width="2.0"/>
<line x1="213.2" y1="100.0" x2="247.8" y2="120.0" stroke="rgb(0,0,0)"  stroke-width="2.0"/>
<line x1="214.8" y1="109.2" x2="239.0" y2="123.2" stroke="rgb(0,0,0)"  stroke-width="2.0"/>
<line x1="247.8" y1="120.0" x2="247.8" y2="160.0" stroke="rgb(0,0,0)"  stroke-width="2.0"/>
<line x1="247.8" y1="160.0" x2="213.2" y2="180.0" stroke="rgb(0,0,0)"  stroke-width="2.0"/>
<line x1="213.2" y1="180.0" x2="178.6" y2="160.0" stroke="rgb(0,0,0)"  stroke-width="2.0"/>
<line x1="211.6" y1="170.8" x2="187.4" y2="156.8" stroke="rgb(0,0,0)"  stroke-width="2.0"/>
<line x1="109.3" y1="160.0" x2="109.3" y2="120.0" stroke="rgb(0,0,0)"  stroke-width="2.0"/>
<line x1="116.5" y1="154.0" x2="116.5" y2="126.0" stroke="rgb(0,0,0)"  stroke-width="2.0"/>
<line x1="109.3" y1="120.0" x2="143.9" y2="100.0" stroke="rgb(0,0,0)"  stroke-width="2.0"/>
<line x1="143.9" y1="100.0" x2="178.6" y2="120.0" stroke="rgb(0,0,0)"  stroke-width="2.0"/>
<line x1="145.5" y1="109.2" x2="169.8" y2="123.2" stroke="rgb(0,0,0)"  stroke-width="2.0"/>
<line x1="178.6" y1="160.0" x2="155.2" y2="173.5" stroke="rgb(0,0,0)"  stroke-width="2.0"/>
<line x1="132.7" y1="173.5" x2="109.3" y2="160.0" stroke="rgb(0,0,0)"  stroke-width="2.0"/>
<line x1="109.3" y1="240.0" x2="143.9" y2="220.0" stroke="rgb(0,0,0)"  stroke-width="2.0"/>
<line x1="143.9" y1="220.0" x2="143.9" y2="260.0" stroke="rgb(0,0,0)"  stroke-width="2.0"/>
<line x1="143.9" y1="260.0" x2="109.3" y2="240.0" stroke="rgb(0,0,0)"  stroke-width="2.0"/>
<line x1="317.1" y1="160.0" x2="293.7" y2="173.5" stroke="rgb(0,0,0)"  stroke-width="2.0"/>
<line x1="282.5" y1="193.0" x2="282.5" y2="220.0" stroke="rgb(0,0,0)"  stroke-width="2.0"/>
<line x1="282.5" y1="220.0" x2="317.1" y2="240.0" stroke="rgb(0,0,0)"  stroke-width="2.0"/>
<line x1="317.1" y1="240.0" x2="340.5" y2="226.5" stroke="rgb(0,0,0)"  stroke-width="2.0"/>
<line x1="351.8" y1="207.0" x2="351.8" y2="180.0" stroke="rgb(0,0,0)"  stroke-width="2.0"/>
<line x1="351.8" y1="180.0" x2="317.1" y2="160.0" stroke="rgb(0,0,0)"  stroke-width="2.0"/>
<text x="291.128129" y="282.641016" fill="rgb(191,191,191)"  stroke="rgb(191,191,191)" stroke-width="1" font-size="16" >H</text>
<text x="22.000000" y="128.000000" fill="rgb(255,12,12)"  stroke="rgb(255,12,12)" stroke-width="1" font-size="16" >HO</text>
<text x="345.769145" y="337.282032" fill="rgb(191,191,191)"  stroke="rgb(191,191,191)" stroke-width="1" font-size="16" >H</text>
<text x="380.410162" y="317.282032" fill="rgb(191,191,191)"  stroke="rgb(191,191,191)" stroke-width="1" font-size="16" >H</text>
<text x="305.769145" y="297.282032" fill="rgb(191,191,191)"  stroke="rgb(191,191,191)" stroke-width="1" font-size="16" >H</text>
<text x="400.410162" y="282.641016" fill="rgb(191,191,191)"  stroke="rgb(191,191,191)" stroke-width="1" font-size="16" >H</text>
<text x="400.410162" y="242.641016" fill="rgb(191,191,191)"  stroke="rgb(191,191,191)" stroke-width="1" font-size="16" >H</text>
<text x="385.769145" y="188.000000" fill="rgb(191,191,191)"  stroke="rgb(191,191,191)" stroke-width="1" font-size="16" >H</text>
<text x="365.769145" y="153.358984" fill="rgb(191,191,191)"  stroke="rgb(191,191,191)" stroke-width="1" font-size="16" >H</text>
<text x="331.128129" y="133.358984" fill="rgb(191,191,191)"  stroke="rgb(191,191,191)" stroke-width="1" font-size="16" >H</text>
<text x="291.128129" y="133.358984" fill="rgb(191,191,191)"  stroke="rgb(191,191,191)" stroke-width="1" font-size="16" >H</text>
<text x="236.487113" y="228.000000" fill="rgb(191,191,191)"  stroke="rgb(191,191,191)" stroke-width="1" font-size="16" >H</text>
<text x="256.487113" y="262.641016" fill="rgb(191,191,191)"  stroke="rgb(191,191,191)" stroke-width="1" font-size="16" >H</text>
<text x="68.641016" y="68.000000" fill="rgb(255,12,12)"  stroke="rgb(255,12,12)" stroke-width="1" font-size="16" >O</text>
<text x="331.128129" y="282.641016" fill="rgb(191,191,191)"  stroke="rgb(191,191,191)" stroke-width="1" font-size="16" >H</text>
<text x="207.205081" y="228.000000" fill="rgb(191,191,191)"  stroke="rgb(191,191,191)" stroke-width="1" font-size="16" >H</text>
<text x="207.205081" y="68.000000" fill="rgb(191,191,191)"  stroke="rgb(191,191,191)" stroke-width="1" font-size="16" >H</text>
<text x="68.641016" y="188.000000" fill="rgb(191,191,191)"  stroke="rgb(191,191,191)" stroke-width="1" font-size="16" >H</text>
<text x="172.564065" y="208.000000" fill="rgb(191,191,191)"  stroke="rgb(191,191,191)" stroke-width="1" font-size="16" >H</text>
<text x="172.564065" y="288.000000" fill="rgb(191,191,191)"  stroke="rgb(191,191,191)" stroke-width="1" font-size="16" >H</text>
<text x="137.923048" y="308.000000" fill="rgb(191,191,191)"  stroke="rgb(191,191,191)" stroke-width="1" font-size="16" >H</text>
<text x="68.641016" y="268.000000" fill="rgb(191,191,191)"  stroke="rgb(191,191,191)" stroke-width="1" font-size="16" >H</text>
<text x="68.641016" y="228.000000" fill="rgb(191,191,191)"  stroke="rgb(191,191,191)" stroke-width="1" font-size="16" >H</text>
<text x="385.769145" y="228.000000" fill="rgb(191,191,191)"  stroke="rgb(191,191,191)" stroke-width="1" font-size="16" >H</text>
<text x="103.282032" y="48.000000" fill="rgb(191,191,191)"  stroke="rgb(191,191,191)" stroke-width="1" font-size="16" >H</text>
<text x="356.569145" y="215.968000" fill="rgb(12,12,255)"  stroke="rgb(12,12,255)" stroke-width="1" font-size="16" >+</text>
<text x="345.769145" y="228.000000" fill="rgb(12,12,255)"  stroke="rgb(12,12,255)" stroke-width="1" font-size="16" >N</text>
<text x="276.487113" y="188.000000" fill="rgb(12,12,255)"  stroke="rgb(12,12,255)" stroke-width="1" font-size="16" >N</text>
<text x="276.487113" y="108.000000" fill="rgb(127,178,255)"  stroke="rgb(127,178,255)" stroke-width="1" font-size="16" >F</text>
<text x="137.923048" y="68.000000" fill="rgb(255,12,12)"  stroke="rgb(255,12,12)" stroke-width="1" font-size="16" >O</text>
<text x="137.923048" y="188.000000" fill="rgb(12,12,255)"  stroke="rgb(12,12,255)" stroke-width="1" font-size="16" >N</text>
</svg>
</g>
<text font-size="18.000000" fill ="black" font-family="sans-serif"
x="10.000000" y="20.000000" >ZINC00597112</text>
</svg>
