<?xml version="1.0"?>
<svg version="1.1" id="topsvg"
xmlns="http://www.w3.org/2000/svg" xmlns:xlink="http://www.w3.org/1999/xlink"
xmlns:cml="http://www.xml-cml.org/schema" x="0" y="0" width="200px" height="200px" viewBox="0 0 100 100">
<title>ZINC02243421 - Open Babel Depiction</title>
<rect x="0" y="0" width="100" height="100" fill="white"/>
<g transform="translate(0,0)">
<svg width="100" height="100" x="0" y="0" viewBox="0 0 442.54 417.345"
font-family="sans-serif" stroke="rgb(0,0,0)" stroke-width="2"  stroke-linecap="round">
<line x1="96.4" y1="105.1" x2="134.0" y2="105.1" stroke="rgb(0,0,0)"  stroke-width="2.0"/>
<line x1="96.4" y1="105.1" x2="75.1" y2="117.5" stroke="rgb(0,0,0)"  stroke-width="2.0"/>
<line x1="96.4" y1="105.1" x2="96.4" y2="129.8" stroke="rgb(0,0,0)"  stroke-width="2.0"/>
<line x1="96.4" y1="105.1" x2="84.1" y2="83.8" stroke="rgb(0,0,0)"  stroke-width="2.0"/>
<line x1="152.8" y1="72.6" x2="140.5" y2="51.3" stroke="rgb(0,0,0)"  stroke-width="2.0"/>
<line x1="190.4" y1="72.6" x2="202.8" y2="51.3" stroke="rgb(0,0,0)"  stroke-width="2.0"/>
<line x1="209.3" y1="105.1" x2="233.9" y2="105.1" stroke="rgb(0,0,0)"  stroke-width="2.0"/>
<line x1="190.4" y1="137.7" x2="202.8" y2="159.0" stroke="rgb(0,0,0)"  stroke-width="2.0"/>
<line x1="152.8" y1="137.7" x2="134.0" y2="170.3" stroke="rgb(0,0,0)"  stroke-width="2.0"/>
<line x1="96.4" y1="170.3" x2="84.1" y2="149.0" stroke="rgb(0,0,0)"  stroke-width="2.0"/>
<line x1="77.6" y1="202.9" x2="53.0" y2="202.9" stroke="rgb(0,0,0)"  stroke-width="2.0"/>
<line x1="96.4" y1="235.4" x2="84.1" y2="256.8" stroke="rgb(0,0,0)"  stroke-width="2.0"/>
<line x1="134.0" y1="235.4" x2="146.3" y2="256.8" stroke="rgb(0,0,0)"  stroke-width="2.0"/>
<line x1="152.8" y1="202.9" x2="215.1" y2="202.9" stroke="rgb(0,0,0)"  stroke-width="2.0"/>
<line x1="228.1" y1="215.9" x2="228.1" y2="278.1" stroke="rgb(0,0,0)"  stroke-width="2.0"/>
<line x1="241.1" y1="202.9" x2="303.3" y2="202.9" stroke="rgb(0,0,0)"  stroke-width="2.0"/>
<line x1="228.1" y1="189.9" x2="228.1" y2="178.3" stroke="rgb(0,0,0)"  stroke-width="2.0"/>
<line x1="228.1" y1="278.1" x2="205.3" y2="287.5" stroke="rgb(0,0,0)"  stroke-width="2.0"/>
<line x1="264.4" y1="268.4" x2="258.0" y2="244.6" stroke="rgb(0,0,0)"  stroke-width="2.0"/>
<line x1="264.4" y1="268.4" x2="281.8" y2="251.0" stroke="rgb(0,0,0)"  stroke-width="2.0"/>
<line x1="291.0" y1="294.9" x2="308.4" y2="277.5" stroke="rgb(0,0,0)"  stroke-width="2.0"/>
<line x1="291.0" y1="294.9" x2="314.8" y2="301.3" stroke="rgb(0,0,0)"  stroke-width="2.0"/>
<line x1="281.3" y1="331.3" x2="305.0" y2="337.6" stroke="rgb(0,0,0)"  stroke-width="2.0"/>
<line x1="281.3" y1="331.3" x2="287.6" y2="355.1" stroke="rgb(0,0,0)"  stroke-width="2.0"/>
<line x1="244.9" y1="341.0" x2="251.3" y2="364.8" stroke="rgb(0,0,0)"  stroke-width="2.0"/>
<line x1="244.9" y1="341.0" x2="227.5" y2="358.4" stroke="rgb(0,0,0)"  stroke-width="2.0"/>
<line x1="218.3" y1="314.4" x2="200.9" y2="331.8" stroke="rgb(0,0,0)"  stroke-width="2.0"/>
<line x1="218.3" y1="314.4" x2="158.2" y2="298.3" stroke="rgb(0,0,0)"  stroke-width="2.0"/>
<line x1="303.3" y1="202.9" x2="312.7" y2="225.6" stroke="rgb(0,0,0)"  stroke-width="2.0"/>
<line x1="293.5" y1="166.5" x2="269.8" y2="172.9" stroke="rgb(0,0,0)"  stroke-width="2.0"/>
<line x1="293.5" y1="166.5" x2="276.1" y2="149.1" stroke="rgb(0,0,0)"  stroke-width="2.0"/>
<line x1="320.1" y1="139.9" x2="302.7" y2="122.5" stroke="rgb(0,0,0)"  stroke-width="2.0"/>
<line x1="320.1" y1="139.9" x2="326.5" y2="116.2" stroke="rgb(0,0,0)"  stroke-width="2.0"/>
<line x1="356.5" y1="149.7" x2="362.8" y2="125.9" stroke="rgb(0,0,0)"  stroke-width="2.0"/>
<line x1="356.5" y1="149.7" x2="380.2" y2="143.3" stroke="rgb(0,0,0)"  stroke-width="2.0"/>
<line x1="366.2" y1="186.0" x2="390.0" y2="179.6" stroke="rgb(0,0,0)"  stroke-width="2.0"/>
<line x1="366.2" y1="186.0" x2="383.6" y2="203.4" stroke="rgb(0,0,0)"  stroke-width="2.0"/>
<line x1="339.6" y1="212.6" x2="357.0" y2="230.0" stroke="rgb(0,0,0)"  stroke-width="2.0"/>
<line x1="339.6" y1="212.6" x2="333.2" y2="236.4" stroke="rgb(0,0,0)"  stroke-width="2.0"/>
<line x1="190.4" y1="72.6" x2="209.3" y2="105.1" stroke="rgb(0,0,0)"  stroke-width="2.0"/>
<line x1="209.3" y1="105.1" x2="190.4" y2="137.7" stroke="rgb(0,0,0)"  stroke-width="2.0"/>
<line x1="200.0" y1="106.7" x2="187.2" y2="128.9" stroke="rgb(0,0,0)"  stroke-width="2.0"/>
<line x1="190.4" y1="137.7" x2="152.8" y2="137.7" stroke="rgb(0,0,0)"  stroke-width="2.0"/>
<line x1="152.8" y1="137.7" x2="134.0" y2="105.1" stroke="rgb(0,0,0)"  stroke-width="2.0"/>
<line x1="156.1" y1="128.9" x2="143.3" y2="106.7" stroke="rgb(0,0,0)"  stroke-width="2.0"/>
<line x1="134.0" y1="105.1" x2="152.8" y2="72.6" stroke="rgb(0,0,0)"  stroke-width="2.0"/>
<line x1="152.8" y1="72.6" x2="190.4" y2="72.6" stroke="rgb(0,0,0)"  stroke-width="2.0"/>
<line x1="158.8" y1="79.8" x2="184.4" y2="79.8" stroke="rgb(0,0,0)"  stroke-width="2.0"/>
<line x1="77.6" y1="202.9" x2="96.4" y2="235.4" stroke="rgb(0,0,0)"  stroke-width="2.0"/>
<line x1="96.4" y1="235.4" x2="134.0" y2="235.4" stroke="rgb(0,0,0)"  stroke-width="2.0"/>
<line x1="102.4" y1="228.2" x2="128.0" y2="228.2" stroke="rgb(0,0,0)"  stroke-width="2.0"/>
<line x1="134.0" y1="235.4" x2="152.8" y2="202.9" stroke="rgb(0,0,0)"  stroke-width="2.0"/>
<line x1="152.8" y1="202.9" x2="134.0" y2="170.3" stroke="rgb(0,0,0)"  stroke-width="2.0"/>
<line x1="143.6" y1="201.3" x2="130.8" y2="179.1" stroke="rgb(0,0,0)"  stroke-width="2.0"/>
<line x1="134.0" y1="170.3" x2="96.4" y2="170.3" stroke="rgb(0,0,0)"  stroke-width="2.0"/>
<line x1="96.4" y1="170.3" x2="77.6" y2="202.9" stroke="rgb(0,0,0)"  stroke-width="2.0"/>
<line x1="99.7" y1="179.1" x2="86.8" y2="201.3" stroke="rgb(0,0,0)"  stroke-width="2.0"/>
<line x1="291.0" y1="294.9" x2="281.3" y2="331.3" stroke="rgb(0,0,0)"  stroke-width="2.0"/>
<line x1="281.3" y1="331.3" x2="244.9" y2="341.0" stroke="rgb(0,0,0)"  stroke-width="2.0"/>
<line x1="244.9" y1="341.0" x2="218.3" y2="314.4" stroke="rgb(0,0,0)"  stroke-width="2.0"/>
<line x1="218.3" y1="314.4" x2="228.1" y2="278.1" stroke="rgb(0,0,0)"  stroke-width="2.0"/>
<line x1="228.1" y1="278.1" x2="264.4" y2="268.4" stroke="rgb(0,0,0)"  stroke-width="2.0"/>
<line x1="264.4" y1="268.4" x2="291.0" y2="294.9" stroke="rgb(0,0,0)"  stroke-width="2.0"/>
<line x1="320.1" y1="139.9" x2="356.5" y2="149.7" stroke="rgb(0,0,0)"  stroke-width="2.0"/>
<line x1="356.5" y1="149.7" x2="366.2" y2="186.0" stroke="rgb(0,0,0)"  stroke-width="2.0"/>
<line x1="366.2" y1="186.0" x2="339.6" y2="212.6" stroke="rgb(0,0,0)"  stroke-width="2.0"/>
<line x1="339.6" y1="212.6" x2="303.3" y2="202.9" stroke="rgb(0,0,0)"  stroke-width="2.0"/>
<line x1="303.3" y1="202.9" x2="293.5" y2="166.5" stroke="rgb(0,0,0)"  stroke-width="2.0"/>
<line x1="293.5" y1="166.5" x2="320.1" y2="139.9" stroke="rgb(0,0,0)"  stroke-width="2.0"/>
<text x="212.325015" y="375.610020" fill="rgb(191,191,191)"  stroke="rgb(191,191,191)" stroke-width="1" font-size="16" >H</text>
<text x="240.865672" y="113.145792" fill="rgb(191,191,191)"  stroke="rgb(191,191,191)" stroke-width="1" font-size="16" >H</text>
<text x="203.253731" y="178.291583" fill="rgb(191,191,191)"  stroke="rgb(191,191,191)" stroke-width="1" font-size="16" >H</text>
<text x="71.611940" y="145.718687" fill="rgb(191,191,191)"  stroke="rgb(191,191,191)" stroke-width="1" font-size="16" >H</text>
<text x="34.000000" y="210.864479" fill="rgb(191,191,191)"  stroke="rgb(191,191,191)" stroke-width="1" font-size="16" >H</text>
<text x="71.611940" y="276.010270" fill="rgb(191,191,191)"  stroke="rgb(191,191,191)" stroke-width="1" font-size="16" >H</text>
<text x="146.835821" y="276.010270" fill="rgb(191,191,191)"  stroke="rgb(191,191,191)" stroke-width="1" font-size="16" >H</text>
<text x="187.310800" y="300.481826" fill="rgb(191,191,191)"  stroke="rgb(191,191,191)" stroke-width="1" font-size="16" >H</text>
<text x="248.655360" y="240.023329" fill="rgb(191,191,191)"  stroke="rgb(191,191,191)" stroke-width="1" font-size="16" >H</text>
<text x="284.985704" y="249.758015" fill="rgb(191,191,191)"  stroke="rgb(191,191,191)" stroke-width="1" font-size="16" >H</text>
<text x="311.581362" y="276.353673" fill="rgb(191,191,191)"  stroke="rgb(191,191,191)" stroke-width="1" font-size="16" >H</text>
<text x="321.316049" y="312.684018" fill="rgb(191,191,191)"  stroke="rgb(191,191,191)" stroke-width="1" font-size="16" >H</text>
<text x="311.581362" y="349.014362" fill="rgb(191,191,191)"  stroke="rgb(191,191,191)" stroke-width="1" font-size="16" >H</text>
<text x="284.985704" y="375.610020" fill="rgb(191,191,191)"  stroke="rgb(191,191,191)" stroke-width="1" font-size="16" >H</text>
<text x="248.655360" y="385.344707" fill="rgb(191,191,191)"  stroke="rgb(191,191,191)" stroke-width="1" font-size="16" >H</text>
<text x="203.253731" y="48.000000" fill="rgb(191,191,191)"  stroke="rgb(191,191,191)" stroke-width="1" font-size="16" >H</text>
<text x="185.729357" y="349.014362" fill="rgb(191,191,191)"  stroke="rgb(191,191,191)" stroke-width="1" font-size="16" >H</text>
<text x="139.664326" y="302.949331" fill="rgb(191,191,191)"  stroke="rgb(191,191,191)" stroke-width="1" font-size="16" >H</text>
<text x="311.677049" y="245.613381" fill="rgb(191,191,191)"  stroke="rgb(191,191,191)" stroke-width="1" font-size="16" >H</text>
<text x="251.218551" y="184.268821" fill="rgb(191,191,191)"  stroke="rgb(191,191,191)" stroke-width="1" font-size="16" >H</text>
<text x="260.953238" y="147.938476" fill="rgb(191,191,191)"  stroke="rgb(191,191,191)" stroke-width="1" font-size="16" >H</text>
<text x="287.548896" y="121.342818" fill="rgb(191,191,191)"  stroke="rgb(191,191,191)" stroke-width="1" font-size="16" >H</text>
<text x="323.879240" y="111.608132" fill="rgb(191,191,191)"  stroke="rgb(191,191,191)" stroke-width="1" font-size="16" >H</text>
<text x="360.209585" y="121.342818" fill="rgb(191,191,191)"  stroke="rgb(191,191,191)" stroke-width="1" font-size="16" >H</text>
<text x="386.805243" y="147.938476" fill="rgb(191,191,191)"  stroke="rgb(191,191,191)" stroke-width="1" font-size="16" >H</text>
<text x="396.539929" y="184.268821" fill="rgb(191,191,191)"  stroke="rgb(191,191,191)" stroke-width="1" font-size="16" >H</text>
<text x="386.805243" y="220.599165" fill="rgb(191,191,191)"  stroke="rgb(191,191,191)" stroke-width="1" font-size="16" >H</text>
<text x="360.209585" y="247.194823" fill="rgb(191,191,191)"  stroke="rgb(191,191,191)" stroke-width="1" font-size="16" >H</text>
<text x="323.879240" y="256.929510" fill="rgb(191,191,191)"  stroke="rgb(191,191,191)" stroke-width="1" font-size="16" >H</text>
<text x="222.059701" y="173.252539" fill="rgb(191,191,191)"  stroke="rgb(191,191,191)" stroke-width="1" font-size="16" >H</text>
<text x="222.059701" y="210.864479" fill="rgb(255,127,0)"  stroke="rgb(255,127,0)" stroke-width="1" font-size="16" >P</text>
<text x="57.845015" y="131.951762" fill="rgb(191,191,191)"  stroke="rgb(191,191,191)" stroke-width="1" font-size="16" >H</text>
<text x="90.417910" y="150.757732" fill="rgb(191,191,191)"  stroke="rgb(191,191,191)" stroke-width="1" font-size="16" >H</text>
<text x="71.611940" y="80.572896" fill="rgb(191,191,191)"  stroke="rgb(191,191,191)" stroke-width="1" font-size="16" >H</text>
<text x="128.029851" y="48.000000" fill="rgb(191,191,191)"  stroke="rgb(191,191,191)" stroke-width="1" font-size="16" >H</text>
</svg>
</g>
<text font-size="18.000000" fill ="black" font-family="sans-serif"
x="10.000000" y="20.000000" >ZINC02243421</text>
</svg>
