<?xml version="1.0"?>
<svg version="1.1" id="topsvg"
xmlns="http://www.w3.org/2000/svg" xmlns:xlink="http://www.w3.org/1999/xlink"
xmlns:cml="http://www.xml-cml.org/schema" x="0" y="0" width="200px" height="200px" viewBox="0 0 100 100">
<title>ZINC04553864 - Open Babel Depiction</title>
<rect x="0" y="0" width="100" height="100" fill="white"/>
<g transform="translate(0,0)">
<svg width="100" height="100" x="0" y="0" viewBox="0 0 400.729 258.35"
font-family="sans-serif" stroke="rgb(0,0,0)" stroke-width="2"  stroke-linecap="round">
<line x1="295.8" y1="91.6" x2="302.5" y2="66.7" stroke="rgb(0,0,0)"  stroke-width="2.0"/>
<line x1="258.4" y1="101.7" x2="240.1" y2="83.4" stroke="rgb(0,0,0)"  stroke-width="2.0"/>
<line x1="248.3" y1="139.1" x2="210.9" y2="149.2" stroke="rgb(0,0,0)"  stroke-width="2.0"/>
<line x1="275.8" y1="166.5" x2="269.1" y2="191.5" stroke="rgb(0,0,0)"  stroke-width="2.0"/>
<line x1="323.3" y1="119.0" x2="348.2" y2="112.4" stroke="rgb(0,0,0)"  stroke-width="2.0"/>
<line x1="208.7" y1="151.3" x2="190.5" y2="133.0" stroke="rgb(0,0,0)"  stroke-width="2.0"/>
<line x1="213.0" y1="147.0" x2="194.8" y2="128.8" stroke="rgb(0,0,0)"  stroke-width="2.0"/>
<line x1="210.9" y1="149.2" x2="204.2" y2="174.1" stroke="rgb(0,0,0)"  stroke-width="2.0"/>
<line x1="170.9" y1="125.1" x2="146.0" y2="131.8" stroke="rgb(0,0,0)"  stroke-width="2.0"/>
<line x1="146.0" y1="131.8" x2="142.6" y2="157.3" stroke="rgb(0,0,0)"  stroke-width="2.0"/>
<line x1="146.0" y1="93.0" x2="171.8" y2="93.0" stroke="rgb(0,0,0)"  stroke-width="2.0"/>
<line x1="146.0" y1="93.0" x2="158.9" y2="70.7" stroke="rgb(0,0,0)"  stroke-width="2.0"/>
<line x1="112.4" y1="73.6" x2="125.3" y2="51.3" stroke="rgb(0,0,0)"  stroke-width="2.0"/>
<line x1="112.4" y1="73.6" x2="99.5" y2="51.3" stroke="rgb(0,0,0)"  stroke-width="2.0"/>
<line x1="78.8" y1="93.0" x2="65.9" y2="70.7" stroke="rgb(0,0,0)"  stroke-width="2.0"/>
<line x1="78.8" y1="93.0" x2="53.0" y2="93.0" stroke="rgb(0,0,0)"  stroke-width="2.0"/>
<line x1="78.8" y1="131.8" x2="53.0" y2="131.8" stroke="rgb(0,0,0)"  stroke-width="2.0"/>
<line x1="78.8" y1="131.8" x2="65.9" y2="154.1" stroke="rgb(0,0,0)"  stroke-width="2.0"/>
<line x1="112.4" y1="151.2" x2="99.5" y2="173.5" stroke="rgb(0,0,0)"  stroke-width="2.0"/>
<line x1="112.4" y1="151.2" x2="144.7" y2="207.1" stroke="rgb(0,0,0)"  stroke-width="2.0"/>
<line x1="188.3" y1="190.0" x2="175.9" y2="193.3" stroke="rgb(0,0,0)"  stroke-width="2.0"/>
<line x1="248.3" y1="139.1" x2="275.8" y2="166.5" stroke="rgb(0,0,0)"  stroke-width="2.0"/>
<line x1="275.8" y1="166.5" x2="300.9" y2="159.8" stroke="rgb(0,0,0)"  stroke-width="2.0"/>
<line x1="279.7" y1="158.0" x2="296.9" y2="153.4" stroke="rgb(0,0,0)"  stroke-width="2.0"/>
<line x1="316.6" y1="144.0" x2="323.3" y2="119.0" stroke="rgb(0,0,0)"  stroke-width="2.0"/>
<line x1="323.3" y1="119.0" x2="295.8" y2="91.6" stroke="rgb(0,0,0)"  stroke-width="2.0"/>
<line x1="313.9" y1="119.9" x2="295.0" y2="101.0" stroke="rgb(0,0,0)"  stroke-width="2.0"/>
<line x1="295.8" y1="91.6" x2="258.4" y2="101.7" stroke="rgb(0,0,0)"  stroke-width="2.0"/>
<line x1="258.4" y1="101.7" x2="248.3" y2="139.1" stroke="rgb(0,0,0)"  stroke-width="2.0"/>
<line x1="263.8" y1="109.3" x2="256.8" y2="135.2" stroke="rgb(0,0,0)"  stroke-width="2.0"/>
<line x1="112.4" y1="73.6" x2="78.8" y2="93.0" stroke="rgb(0,0,0)"  stroke-width="2.0"/>
<line x1="78.8" y1="93.0" x2="78.8" y2="131.8" stroke="rgb(0,0,0)"  stroke-width="2.0"/>
<line x1="78.8" y1="131.8" x2="112.4" y2="151.2" stroke="rgb(0,0,0)"  stroke-width="2.0"/>
<line x1="112.4" y1="151.2" x2="146.0" y2="131.8" stroke="rgb(0,0,0)"  stroke-width="2.0"/>
<line x1="146.0" y1="131.8" x2="146.0" y2="93.0" stroke="rgb(0,0,0)"  stroke-width="2.0"/>
<line x1="146.0" y1="93.0" x2="112.4" y2="73.6" stroke="rgb(0,0,0)"  stroke-width="2.0"/>
<text x="194.824800" y="194.627451" fill="rgb(255,12,12)"  stroke="rgb(255,12,12)" stroke-width="1" font-size="16" >O</text>
<text x="157.358586" y="204.666493" fill="rgb(191,191,191)"  stroke="rgb(191,191,191)" stroke-width="1" font-size="16" >H</text>
<text x="145.167046" y="226.349623" fill="rgb(191,191,191)"  stroke="rgb(191,191,191)" stroke-width="1" font-size="16" >H</text>
<text x="86.985228" y="192.758334" fill="rgb(191,191,191)"  stroke="rgb(191,191,191)" stroke-width="1" font-size="16" >H</text>
<text x="53.393939" y="173.364395" fill="rgb(191,191,191)"  stroke="rgb(191,191,191)" stroke-width="1" font-size="16" >H</text>
<text x="34.000000" y="139.773107" fill="rgb(191,191,191)"  stroke="rgb(191,191,191)" stroke-width="1" font-size="16" >H</text>
<text x="34.000000" y="100.985228" fill="rgb(191,191,191)"  stroke="rgb(191,191,191)" stroke-width="1" font-size="16" >H</text>
<text x="53.393939" y="67.393939" fill="rgb(191,191,191)"  stroke="rgb(191,191,191)" stroke-width="1" font-size="16" >H</text>
<text x="86.985228" y="48.000000" fill="rgb(191,191,191)"  stroke="rgb(191,191,191)" stroke-width="1" font-size="16" >H</text>
<text x="125.773107" y="48.000000" fill="rgb(191,191,191)"  stroke="rgb(191,191,191)" stroke-width="1" font-size="16" >H</text>
<text x="159.364395" y="67.393939" fill="rgb(191,191,191)"  stroke="rgb(191,191,191)" stroke-width="1" font-size="16" >H</text>
<text x="178.758334" y="100.985228" fill="rgb(191,191,191)"  stroke="rgb(191,191,191)" stroke-width="1" font-size="16" >H</text>
<text x="134.907621" y="178.229150" fill="rgb(191,191,191)"  stroke="rgb(191,191,191)" stroke-width="1" font-size="16" >H</text>
<text x="354.728697" y="117.005070" fill="rgb(191,191,191)"  stroke="rgb(191,191,191)" stroke-width="1" font-size="16" >H</text>
<text x="224.941925" y="82.228809" fill="rgb(191,191,191)"  stroke="rgb(191,191,191)" stroke-width="1" font-size="16" >H</text>
<text x="299.874353" y="62.150726" fill="rgb(191,191,191)"  stroke="rgb(191,191,191)" stroke-width="1" font-size="16" >H</text>
<text x="177.436669" y="129.734065" fill="rgb(12,12,255)"  stroke="rgb(12,12,255)" stroke-width="1" font-size="16" >N</text>
<text x="247.718186" y="212.015581" fill="rgb(30,239,30)"  stroke="rgb(30,239,30)" stroke-width="1" font-size="16" >Cl</text>
<text x="307.223441" y="164.510326" fill="rgb(12,12,255)"  stroke="rgb(12,12,255)" stroke-width="1" font-size="16" >N</text>
</svg>
</g>
<text font-size="18.000000" fill ="black" font-family="sans-serif"
x="10.000000" y="20.000000" >ZINC04553864</text>
</svg>
