<?xml version="1.0"?>
<svg version="1.1" id="topsvg"
xmlns="http://www.w3.org/2000/svg" xmlns:xlink="http://www.w3.org/1999/xlink"
xmlns:cml="http://www.xml-cml.org/schema" x="0" y="0" width="200px" height="200px" viewBox="0 0 100 100">
<title>ZINC21953237 - Open Babel Depiction</title>
<rect x="0" y="0" width="100" height="100" fill="white"/>
<g transform="translate(0,0)">
<svg width="100" height="100" x="0" y="0" viewBox="0 0 278.626 291.701"
font-family="sans-serif" stroke="rgb(0,0,0)" stroke-width="2"  stroke-linecap="round">
<line x1="201.6" y1="214.7" x2="164.6" y2="204.8" stroke="rgb(0,0,0)"  stroke-width="2.0"/>
<line x1="201.6" y1="214.7" x2="226.1" y2="208.1" stroke="rgb(0,0,0)"  stroke-width="2.0"/>
<line x1="201.6" y1="214.7" x2="208.2" y2="190.2" stroke="rgb(0,0,0)"  stroke-width="2.0"/>
<line x1="201.6" y1="214.7" x2="208.2" y2="239.1" stroke="rgb(0,0,0)"  stroke-width="2.0"/>
<line x1="164.6" y1="204.8" x2="144.7" y2="130.7" stroke="rgb(0,0,0)"  stroke-width="2.0"/>
<line x1="164.6" y1="204.8" x2="140.1" y2="211.3" stroke="rgb(0,0,0)"  stroke-width="2.0"/>
<line x1="164.6" y1="204.8" x2="158.0" y2="229.2" stroke="rgb(0,0,0)"  stroke-width="2.0"/>
<polygon points="144.728614 130.697640 162.669527 111.889204 167.539618 118.236031 " stroke-width="2.000000" fill="rgb(0,0,0)"  stroke="rgb(0,0,0)" />
<line x1="111.5" y1="149.9" x2="124.2" y2="171.8" stroke="rgb(0,0,0)"  stroke-width="2.0"/>
<line x1="111.5" y1="149.9" x2="98.9" y2="171.8" stroke="rgb(0,0,0)"  stroke-width="2.0"/>
<line x1="71.8" y1="142.0" x2="65.7" y2="152.6" stroke="rgb(0,0,0)"  stroke-width="2.0"/>
<line x1="65.3" y1="130.7" x2="53.0" y2="130.7" stroke="rgb(0,0,0)"  stroke-width="2.0"/>
<line x1="78.3" y1="92.4" x2="53.0" y2="92.4" stroke="rgb(0,0,0)"  stroke-width="2.0"/>
<line x1="78.3" y1="92.4" x2="65.7" y2="70.4" stroke="rgb(0,0,0)"  stroke-width="2.0"/>
<line x1="111.5" y1="73.2" x2="98.9" y2="51.3" stroke="rgb(0,0,0)"  stroke-width="2.0"/>
<line x1="111.5" y1="73.2" x2="124.2" y2="51.3" stroke="rgb(0,0,0)"  stroke-width="2.0"/>
<line x1="156.0" y1="85.9" x2="166.7" y2="79.7" stroke="rgb(0,0,0)"  stroke-width="2.0"/>
<line x1="78.3" y1="117.7" x2="78.3" y2="92.4" stroke="rgb(0,0,0)"  stroke-width="2.0"/>
<line x1="78.3" y1="92.4" x2="111.5" y2="73.2" stroke="rgb(0,0,0)"  stroke-width="2.0"/>
<line x1="111.5" y1="73.2" x2="133.5" y2="85.9" stroke="rgb(0,0,0)"  stroke-width="2.0"/>
<line x1="144.7" y1="105.4" x2="144.7" y2="130.7" stroke="rgb(0,0,0)"  stroke-width="2.0"/>
<line x1="144.7" y1="130.7" x2="111.5" y2="149.9" stroke="rgb(0,0,0)"  stroke-width="2.0"/>
<line x1="111.5" y1="149.9" x2="89.6" y2="137.2" stroke="rgb(0,0,0)"  stroke-width="2.0"/>
<text x="205.519961" y="259.700507" fill="rgb(191,191,191)"  stroke="rgb(191,191,191)" stroke-width="1" font-size="16" >H</text>
<text x="34.000000" y="138.697640" fill="rgb(191,191,191)"  stroke="rgb(191,191,191)" stroke-width="1" font-size="16" >H</text>
<text x="171.926255" y="81.197640" fill="rgb(191,191,191)"  stroke="rgb(191,191,191)" stroke-width="1" font-size="16" >H</text>
<text x="124.697640" y="48.000000" fill="rgb(191,191,191)"  stroke="rgb(191,191,191)" stroke-width="1" font-size="16" >H</text>
<text x="86.364307" y="48.000000" fill="rgb(191,191,191)"  stroke="rgb(191,191,191)" stroke-width="1" font-size="16" >H</text>
<text x="53.166667" y="67.166667" fill="rgb(191,191,191)"  stroke="rgb(191,191,191)" stroke-width="1" font-size="16" >H</text>
<text x="34.000000" y="100.364307" fill="rgb(191,191,191)"  stroke="rgb(191,191,191)" stroke-width="1" font-size="16" >H</text>
<text x="53.166667" y="171.895281" fill="rgb(191,191,191)"  stroke="rgb(191,191,191)" stroke-width="1" font-size="16" >H</text>
<text x="86.364307" y="191.061948" fill="rgb(191,191,191)"  stroke="rgb(191,191,191)" stroke-width="1" font-size="16" >H</text>
<text x="124.697640" y="191.061948" fill="rgb(191,191,191)"  stroke="rgb(191,191,191)" stroke-width="1" font-size="16" >H</text>
<text x="148.650011" y="249.779111" fill="rgb(191,191,191)"  stroke="rgb(191,191,191)" stroke-width="1" font-size="16" >H</text>
<text x="121.544251" y="222.673351" fill="rgb(191,191,191)"  stroke="rgb(191,191,191)" stroke-width="1" font-size="16" >H</text>
<text x="205.519961" y="185.646194" fill="rgb(191,191,191)"  stroke="rgb(191,191,191)" stroke-width="1" font-size="16" >H</text>
<text x="232.625721" y="212.751954" fill="rgb(191,191,191)"  stroke="rgb(191,191,191)" stroke-width="1" font-size="16" >H</text>
<text x="138.728614" y="100.364307" fill="rgb(12,12,255)"  stroke="rgb(12,12,255)" stroke-width="1" font-size="16" >N</text>
<text x="83.133333" y="126.665640" fill="rgb(12,12,255)"  stroke="rgb(12,12,255)" stroke-width="1" font-size="16" >+</text>
<text x="72.333333" y="138.697640" fill="rgb(12,12,255)"  stroke="rgb(12,12,255)" stroke-width="1" font-size="16" >N</text>
<text x="169.140492" y="115.361786" fill="rgb(191,191,191)"  stroke="rgb(191,191,191)" stroke-width="1" font-size="16" >H</text>
</svg>
</g>
<text font-size="18.000000" fill ="black" font-family="sans-serif"
x="10.000000" y="20.000000" >ZINC21953237</text>
</svg>
