<?xml version="1.0"?>
<svg version="1.1" id="topsvg"
xmlns="http://www.w3.org/2000/svg" xmlns:xlink="http://www.w3.org/1999/xlink"
xmlns:cml="http://www.xml-cml.org/schema" x="0" y="0" width="200px" height="200px" viewBox="0 0 100 100">
<title>ZINC18099446 - Open Babel Depiction</title>
<rect x="0" y="0" width="100" height="100" fill="white"/>
<g transform="translate(0,0)">
<svg width="100" height="100" x="0" y="0" viewBox="0 0 273.298 352.055"
font-family="sans-serif" stroke="rgb(0,0,0)" stroke-width="2"  stroke-linecap="round">
<line x1="200.9" y1="239.0" x2="174.1" y2="241.8" stroke="rgb(0,0,0)"  stroke-width="2.0"/>
<line x1="200.9" y1="239.0" x2="222.8" y2="223.1" stroke="rgb(0,0,0)"  stroke-width="2.0"/>
<line x1="200.9" y1="239.0" x2="198.1" y2="212.1" stroke="rgb(0,0,0)"  stroke-width="2.0"/>
<line x1="200.9" y1="239.0" x2="216.8" y2="260.8" stroke="rgb(0,0,0)"  stroke-width="2.0"/>
<line x1="155.9" y1="255.0" x2="144.9" y2="279.7" stroke="rgb(0,0,0)"  stroke-width="2.0"/>
<line x1="153.5" y1="232.6" x2="145.3" y2="221.3" stroke="rgb(0,0,0)"  stroke-width="2.0"/>
<line x1="144.9" y1="279.7" x2="123.0" y2="295.6" stroke="rgb(0,0,0)"  stroke-width="2.0"/>
<line x1="144.9" y1="279.7" x2="120.2" y2="268.7" stroke="rgb(0,0,0)"  stroke-width="2.0"/>
<line x1="144.9" y1="279.7" x2="160.8" y2="301.5" stroke="rgb(0,0,0)"  stroke-width="2.0"/>
<line x1="142.9" y1="198.9" x2="148.6" y2="186.1" stroke="rgb(0,0,0)"  stroke-width="2.0"/>
<line x1="124.7" y1="212.2" x2="110.8" y2="213.6" stroke="rgb(0,0,0)"  stroke-width="2.0"/>
<line x1="143.8" y1="165.5" x2="128.0" y2="143.7" stroke="rgb(0,0,0)"  stroke-width="2.0"/>
<line x1="148.7" y1="162.0" x2="132.8" y2="140.1" stroke="rgb(0,0,0)"  stroke-width="2.0"/>
<line x1="142.8" y1="103.8" x2="180.8" y2="91.5" stroke="rgb(0,0,0)"  stroke-width="2.0"/>
<line x1="110.4" y1="67.3" x2="110.4" y2="53.3" stroke="rgb(0,0,0)"  stroke-width="2.0"/>
<line x1="78.0" y1="103.8" x2="52.4" y2="95.5" stroke="rgb(0,0,0)"  stroke-width="2.0"/>
<line x1="180.8" y1="91.5" x2="200.9" y2="109.6" stroke="rgb(0,0,0)"  stroke-width="2.0"/>
<line x1="177.9" y1="90.9" x2="183.5" y2="64.5" stroke="rgb(0,0,0)"  stroke-width="2.0"/>
<line x1="183.7" y1="92.1" x2="189.4" y2="65.7" stroke="rgb(0,0,0)"  stroke-width="2.0"/>
<line x1="201.5" y1="48.3" x2="214.8" y2="44.0" stroke="rgb(0,0,0)"  stroke-width="2.0"/>
<line x1="99.9" y1="88.0" x2="78.0" y2="103.8" stroke="rgb(0,0,0)"  stroke-width="2.0"/>
<line x1="78.0" y1="103.8" x2="86.3" y2="129.3" stroke="rgb(0,0,0)"  stroke-width="2.0"/>
<line x1="86.7" y1="107.3" x2="92.6" y2="125.2" stroke="rgb(0,0,0)"  stroke-width="2.0"/>
<line x1="103.4" y1="141.9" x2="130.4" y2="141.9" stroke="rgb(0,0,0)"  stroke-width="2.0"/>
<line x1="130.4" y1="141.9" x2="142.8" y2="103.8" stroke="rgb(0,0,0)"  stroke-width="2.0"/>
<line x1="142.8" y1="103.8" x2="121.1" y2="88.1" stroke="rgb(0,0,0)"  stroke-width="2.0"/>
<line x1="133.7" y1="106.1" x2="118.5" y2="95.1" stroke="rgb(0,0,0)"  stroke-width="2.0"/>
<text x="204.531674" y="126.251808" fill="rgb(255,12,12)"  stroke="rgb(255,12,12)" stroke-width="1" font-size="16" >OH</text>
<text x="104.402940" y="48.335853" fill="rgb(191,191,191)"  stroke="rgb(191,191,191)" stroke-width="1" font-size="16" >H</text>
<text x="221.164609" y="48.000000" fill="rgb(191,191,191)"  stroke="rgb(191,191,191)" stroke-width="1" font-size="16" >H</text>
<text x="34.000000" y="99.486584" fill="rgb(191,191,191)"  stroke="rgb(191,191,191)" stroke-width="1" font-size="16" >H</text>
<text x="91.864009" y="222.973161" fill="rgb(191,191,191)"  stroke="rgb(191,191,191)" stroke-width="1" font-size="16" >H</text>
<text x="162.398239" y="320.055200" fill="rgb(191,191,191)"  stroke="rgb(191,191,191)" stroke-width="1" font-size="16" >H</text>
<text x="102.345011" y="271.425055" fill="rgb(191,191,191)"  stroke="rgb(191,191,191)" stroke-width="1" font-size="16" >H</text>
<text x="106.526149" y="311.205930" fill="rgb(191,191,191)"  stroke="rgb(191,191,191)" stroke-width="1" font-size="16" >H</text>
<text x="218.448581" y="279.332243" fill="rgb(191,191,191)"  stroke="rgb(191,191,191)" stroke-width="1" font-size="16" >H</text>
<text x="190.756032" y="207.190688" fill="rgb(191,191,191)"  stroke="rgb(191,191,191)" stroke-width="1" font-size="16" >H</text>
<text x="227.297850" y="223.460153" fill="rgb(191,191,191)"  stroke="rgb(191,191,191)" stroke-width="1" font-size="16" >H</text>
<text x="183.122348" y="60.360680" fill="rgb(12,12,255)"  stroke="rgb(12,12,255)" stroke-width="1" font-size="16" >N</text>
<text x="84.402940" y="149.889524" fill="rgb(12,12,255)"  stroke="rgb(12,12,255)" stroke-width="1" font-size="16" >N</text>
<text x="104.402940" y="88.335853" fill="rgb(12,12,255)"  stroke="rgb(12,12,255)" stroke-width="1" font-size="16" >N</text>
<text x="147.914351" y="182.250204" fill="rgb(12,12,255)"  stroke="rgb(12,12,255)" stroke-width="1" font-size="16" >N</text>
<text x="131.644885" y="218.792022" fill="rgb(12,12,255)"  stroke="rgb(12,12,255)" stroke-width="1" font-size="16" >N</text>
<text x="155.156295" y="251.152702" fill="rgb(12,12,255)"  stroke="rgb(12,12,255)" stroke-width="1" font-size="16" >N</text>
</svg>
</g>
<text font-size="18.000000" fill ="black" font-family="sans-serif"
x="10.000000" y="20.000000" >ZINC18099446</text>
</svg>
