<?xml version="1.0"?>
<svg version="1.1" id="topsvg"
xmlns="http://www.w3.org/2000/svg" xmlns:xlink="http://www.w3.org/1999/xlink"
xmlns:cml="http://www.xml-cml.org/schema" x="0" y="0" width="200px" height="200px" viewBox="0 0 100 100">
<title>ZINC19172846 - Open Babel Depiction</title>
<rect x="0" y="0" width="100" height="100" fill="white"/>
<g transform="translate(0,0)">
<svg width="100" height="100" x="0" y="0" viewBox="0 0 362.487 249.282"
font-family="sans-serif" stroke="rgb(0,0,0)" stroke-width="2"  stroke-linecap="round">
<line x1="218.6" y1="120.0" x2="183.9" y2="140.0" stroke="rgb(0,0,0)"  stroke-width="2.0"/>
<line x1="218.6" y1="120.0" x2="253.2" y2="140.0" stroke="rgb(0,0,0)"  stroke-width="2.0"/>
<line x1="218.6" y1="120.0" x2="232.1" y2="96.6" stroke="rgb(0,0,0)"  stroke-width="2.0"/>
<line x1="218.6" y1="120.0" x2="205.1" y2="96.6" stroke="rgb(0,0,0)"  stroke-width="2.0"/>
<line x1="183.9" y1="140.0" x2="149.3" y2="120.0" stroke="rgb(0,0,0)"  stroke-width="2.0"/>
<line x1="183.9" y1="140.0" x2="170.4" y2="163.4" stroke="rgb(0,0,0)"  stroke-width="2.0"/>
<line x1="183.9" y1="140.0" x2="197.4" y2="163.4" stroke="rgb(0,0,0)"  stroke-width="2.0"/>
<line x1="146.3" y1="120.0" x2="146.3" y2="93.0" stroke="rgb(0,0,0)"  stroke-width="2.0"/>
<line x1="152.3" y1="120.0" x2="152.3" y2="93.0" stroke="rgb(0,0,0)"  stroke-width="2.0"/>
<line x1="149.3" y1="120.0" x2="114.6" y2="140.0" stroke="rgb(0,0,0)"  stroke-width="2.0"/>
<line x1="114.6" y1="140.0" x2="91.3" y2="126.5" stroke="rgb(0,0,0)"  stroke-width="2.0"/>
<line x1="114.6" y1="140.0" x2="101.1" y2="163.4" stroke="rgb(0,0,0)"  stroke-width="2.0"/>
<line x1="114.6" y1="140.0" x2="128.1" y2="163.4" stroke="rgb(0,0,0)"  stroke-width="2.0"/>
<line x1="80.0" y1="107.0" x2="80.0" y2="93.0" stroke="rgb(0,0,0)"  stroke-width="2.0"/>
<line x1="68.7" y1="126.5" x2="56.6" y2="133.5" stroke="rgb(0,0,0)"  stroke-width="2.0"/>
<line x1="93.0" y1="80.0" x2="107.0" y2="80.0" stroke="rgb(0,0,0)"  stroke-width="2.0"/>
<line x1="80.0" y1="67.0" x2="80.0" y2="53.0" stroke="rgb(0,0,0)"  stroke-width="2.0"/>
<line x1="67.0" y1="80.0" x2="53.0" y2="80.0" stroke="rgb(0,0,0)"  stroke-width="2.0"/>
<line x1="255.2" y1="135.0" x2="256.6" y2="135.8" stroke="rgb(0,0,0)"  stroke-width="1.0"/>
<line x1="256.8" y1="130.9" x2="259.3" y2="132.4" stroke="rgb(0,0,0)"  stroke-width="1.0"/>
<line x1="258.4" y1="126.9" x2="262.0" y2="129.0" stroke="rgb(0,0,0)"  stroke-width="1.0"/>
<line x1="260.0" y1="122.9" x2="264.7" y2="125.6" stroke="rgb(0,0,0)"  stroke-width="1.0"/>
<line x1="261.6" y1="118.8" x2="267.4" y2="122.2" stroke="rgb(0,0,0)"  stroke-width="1.0"/>
<line x1="263.1" y1="114.8" x2="270.1" y2="118.8" stroke="rgb(0,0,0)"  stroke-width="1.0"/>
<line x1="253.2" y1="140.0" x2="287.8" y2="160.0" stroke="rgb(0,0,0)"  stroke-width="2.0"/>
<line x1="253.2" y1="140.0" x2="239.7" y2="163.4" stroke="rgb(0,0,0)"  stroke-width="2.0"/>
<line x1="286.3" y1="157.4" x2="309.7" y2="143.9" stroke="rgb(0,0,0)"  stroke-width="2.0"/>
<line x1="289.3" y1="162.6" x2="312.7" y2="149.1" stroke="rgb(0,0,0)"  stroke-width="2.0"/>
<line x1="287.8" y1="160.0" x2="287.8" y2="187.0" stroke="rgb(0,0,0)"  stroke-width="2.0"/>
<line x1="244.5" y1="181.1" x2="256.6" y2="188.1" stroke="rgb(0,0,0)"  stroke-width="2.0"/>
<line x1="226.7" y1="185.9" x2="219.7" y2="198.0" stroke="rgb(0,0,0)"  stroke-width="2.0"/>
<line x1="221.9" y1="168.1" x2="209.8" y2="161.1" stroke="rgb(0,0,0)"  stroke-width="2.0"/>
<text x="232.564065" y="93.358984" fill="rgb(191,191,191)"  stroke="rgb(191,191,191)" stroke-width="1" font-size="16" >H</text>
<text x="34.000000" y="88.000000" fill="rgb(191,191,191)"  stroke="rgb(191,191,191)" stroke-width="1" font-size="16" >H</text>
<text x="192.564065" y="162.641016" fill="rgb(191,191,191)"  stroke="rgb(191,191,191)" stroke-width="1" font-size="16" >H</text>
<text x="207.205081" y="217.282032" fill="rgb(191,191,191)"  stroke="rgb(191,191,191)" stroke-width="1" font-size="16" >H</text>
<text x="261.846097" y="202.641016" fill="rgb(191,191,191)"  stroke="rgb(191,191,191)" stroke-width="1" font-size="16" >H</text>
<text x="74.000000" y="48.000000" fill="rgb(191,191,191)"  stroke="rgb(191,191,191)" stroke-width="1" font-size="16" >H</text>
<text x="114.000000" y="88.000000" fill="rgb(191,191,191)"  stroke="rgb(191,191,191)" stroke-width="1" font-size="16" >H</text>
<text x="39.358984" y="148.000000" fill="rgb(191,191,191)"  stroke="rgb(191,191,191)" stroke-width="1" font-size="16" >H</text>
<text x="128.641016" y="182.641016" fill="rgb(191,191,191)"  stroke="rgb(191,191,191)" stroke-width="1" font-size="16" >H</text>
<text x="88.641016" y="182.641016" fill="rgb(191,191,191)"  stroke="rgb(191,191,191)" stroke-width="1" font-size="16" >H</text>
<text x="197.923048" y="182.641016" fill="rgb(191,191,191)"  stroke="rgb(191,191,191)" stroke-width="1" font-size="16" >H</text>
<text x="157.923048" y="182.641016" fill="rgb(191,191,191)"  stroke="rgb(191,191,191)" stroke-width="1" font-size="16" >H</text>
<text x="192.564065" y="93.358984" fill="rgb(191,191,191)"  stroke="rgb(191,191,191)" stroke-width="1" font-size="16" >H</text>
<text x="238.005081" y="170.609016" fill="rgb(12,12,255)"  stroke="rgb(12,12,255)" stroke-width="1" font-size="16" >+</text>
<text x="227.205081" y="182.641016" fill="rgb(12,12,255)"  stroke="rgb(12,12,255)" stroke-width="1" font-size="16" >N</text>
<text x="281.846097" y="208.000000" fill="rgb(255,12,12)"  stroke="rgb(255,12,12)" stroke-width="1" font-size="16" >OH</text>
<text x="316.487113" y="148.000000" fill="rgb(255,12,12)"  stroke="rgb(255,12,12)" stroke-width="1" font-size="16" >O</text>
<text x="267.205081" y="113.358984" fill="rgb(191,191,191)"  stroke="rgb(191,191,191)" stroke-width="1" font-size="16" >H</text>
<text x="84.800000" y="75.968000" fill="rgb(12,12,255)"  stroke="rgb(12,12,255)" stroke-width="1" font-size="16" >+</text>
<text x="74.000000" y="88.000000" fill="rgb(12,12,255)"  stroke="rgb(12,12,255)" stroke-width="1" font-size="16" >N</text>
<text x="74.000000" y="128.000000" fill="rgb(12,12,255)"  stroke="rgb(12,12,255)" stroke-width="1" font-size="16" >N</text>
<text x="143.282032" y="88.000000" fill="rgb(255,12,12)"  stroke="rgb(255,12,12)" stroke-width="1" font-size="16" >O</text>
</svg>
</g>
<text font-size="18.000000" fill ="black" font-family="sans-serif"
x="10.000000" y="20.000000" >ZINC19172846</text>
</svg>
