<?xml version="1.0"?>
<svg version="1.1" id="topsvg"
xmlns="http://www.w3.org/2000/svg" xmlns:xlink="http://www.w3.org/1999/xlink"
xmlns:cml="http://www.xml-cml.org/schema" x="0" y="0" width="200px" height="200px" viewBox="0 0 100 100">
<title>ZINC16953920 - Open Babel Depiction</title>
<rect x="0" y="0" width="100" height="100" fill="white"/>
<g transform="translate(0,0)">
<svg width="100" height="100" x="0" y="0" viewBox="0 0 402.707 284.046"
font-family="sans-serif" stroke="rgb(0,0,0)" stroke-width="2"  stroke-linecap="round">
<line x1="115.2" y1="68.8" x2="98.0" y2="49.7" stroke="rgb(0,0,0)"  stroke-width="2.0"/>
<line x1="107.2" y1="184.3" x2="107.2" y2="210.1" stroke="rgb(0,0,0)"  stroke-width="2.0"/>
<line x1="73.6" y1="126.2" x2="51.3" y2="113.3" stroke="rgb(0,0,0)"  stroke-width="2.0"/>
<line x1="182.3" y1="102.9" x2="245.5" y2="116.3" stroke="rgb(0,0,0)"  stroke-width="2.0"/>
<line x1="245.5" y1="116.3" x2="255.8" y2="92.7" stroke="rgb(0,0,0)"  stroke-width="2.0"/>
<polygon points="245.479418 116.333971 235.313407 153.979048 227.844763 151.112104 " stroke-width="2.000000" fill="rgb(0,0,0)"  stroke="rgb(0,0,0)" />
<line x1="231.6" y1="152.5" x2="206.7" y2="145.9" stroke="rgb(0,0,0)"  stroke-width="2.0"/>
<polygon points="231.579085 152.545576 264.240210 173.846995 259.205647 180.064163 " stroke-width="2.000000" fill="rgb(0,0,0)"  stroke="rgb(0,0,0)" />
<line x1="231.6" y1="152.5" x2="213.3" y2="170.8" stroke="rgb(0,0,0)"  stroke-width="2.0"/>
<line x1="261.7" y1="177.0" x2="247.7" y2="198.6" stroke="rgb(0,0,0)"  stroke-width="2.0"/>
<line x1="267.8" y1="172.1" x2="268.7" y2="173.4" stroke="rgb(0,0,0)"  stroke-width="1.0"/>
<line x1="272.6" y1="168.1" x2="274.2" y2="170.6" stroke="rgb(0,0,0)"  stroke-width="1.0"/>
<line x1="277.5" y1="164.2" x2="279.8" y2="167.7" stroke="rgb(0,0,0)"  stroke-width="1.0"/>
<line x1="282.4" y1="160.3" x2="285.3" y2="164.9" stroke="rgb(0,0,0)"  stroke-width="1.0"/>
<line x1="287.2" y1="156.4" x2="290.9" y2="162.0" stroke="rgb(0,0,0)"  stroke-width="1.0"/>
<line x1="292.1" y1="152.5" x2="296.4" y2="159.2" stroke="rgb(0,0,0)"  stroke-width="1.0"/>
<line x1="261.7" y1="177.0" x2="273.4" y2="199.9" stroke="rgb(0,0,0)"  stroke-width="2.0"/>
<line x1="298.1" y1="159.4" x2="296.9" y2="160.4" stroke="rgb(0,0,0)"  stroke-width="1.0"/>
<line x1="301.3" y1="162.2" x2="299.0" y2="164.0" stroke="rgb(0,0,0)"  stroke-width="1.0"/>
<line x1="304.4" y1="165.0" x2="301.1" y2="167.6" stroke="rgb(0,0,0)"  stroke-width="1.0"/>
<line x1="307.5" y1="167.9" x2="303.3" y2="171.3" stroke="rgb(0,0,0)"  stroke-width="1.0"/>
<line x1="310.6" y1="170.7" x2="305.4" y2="174.9" stroke="rgb(0,0,0)"  stroke-width="1.0"/>
<line x1="313.7" y1="173.5" x2="307.5" y2="178.5" stroke="rgb(0,0,0)"  stroke-width="1.0"/>
<line x1="294.3" y1="155.8" x2="332.6" y2="149.8" stroke="rgb(0,0,0)"  stroke-width="2.0"/>
<line x1="332.6" y1="149.8" x2="348.8" y2="169.8" stroke="rgb(0,0,0)"  stroke-width="2.0"/>
<line x1="332.6" y1="149.8" x2="352.6" y2="133.5" stroke="rgb(0,0,0)"  stroke-width="2.0"/>
<line x1="332.6" y1="149.8" x2="328.5" y2="124.3" stroke="rgb(0,0,0)"  stroke-width="2.0"/>
<line x1="352.3" y1="192.0" x2="347.7" y2="204.0" stroke="rgb(0,0,0)"  stroke-width="2.0"/>
<line x1="272.3" y1="222.4" x2="265.3" y2="233.1" stroke="rgb(0,0,0)"  stroke-width="2.0"/>
<line x1="207.5" y1="192.5" x2="210.8" y2="204.9" stroke="rgb(0,0,0)"  stroke-width="2.0"/>
<line x1="140.8" y1="126.2" x2="159.9" y2="108.9" stroke="rgb(0,0,0)"  stroke-width="2.0"/>
<line x1="164.3" y1="88.3" x2="159.1" y2="76.6" stroke="rgb(0,0,0)"  stroke-width="2.0"/>
<line x1="141.1" y1="66.1" x2="115.2" y2="68.8" stroke="rgb(0,0,0)"  stroke-width="2.0"/>
<line x1="139.7" y1="73.5" x2="122.0" y2="75.4" stroke="rgb(0,0,0)"  stroke-width="2.0"/>
<line x1="115.2" y1="68.8" x2="107.2" y2="106.8" stroke="rgb(0,0,0)"  stroke-width="2.0"/>
<line x1="107.2" y1="106.8" x2="140.8" y2="126.2" stroke="rgb(0,0,0)"  stroke-width="2.0"/>
<line x1="84.7" y1="171.3" x2="107.2" y2="184.3" stroke="rgb(0,0,0)"  stroke-width="2.0"/>
<line x1="90.1" y1="166.2" x2="105.6" y2="175.1" stroke="rgb(0,0,0)"  stroke-width="2.0"/>
<line x1="107.2" y1="184.3" x2="129.5" y2="171.4" stroke="rgb(0,0,0)"  stroke-width="2.0"/>
<line x1="140.8" y1="152.1" x2="140.8" y2="126.2" stroke="rgb(0,0,0)"  stroke-width="2.0"/>
<line x1="133.6" y1="150.0" x2="133.6" y2="132.2" stroke="rgb(0,0,0)"  stroke-width="2.0"/>
<line x1="107.2" y1="106.8" x2="73.6" y2="126.2" stroke="rgb(0,0,0)"  stroke-width="2.0"/>
<line x1="105.6" y1="116.0" x2="82.4" y2="129.4" stroke="rgb(0,0,0)"  stroke-width="2.0"/>
<line x1="73.6" y1="126.2" x2="73.6" y2="151.9" stroke="rgb(0,0,0)"  stroke-width="2.0"/>
<line x1="261.7" y1="177.0" x2="294.3" y2="155.8" stroke="rgb(0,0,0)"  stroke-width="2.0"/>
<line x1="294.3" y1="155.8" x2="287.6" y2="130.9" stroke="rgb(0,0,0)"  stroke-width="2.0"/>
<line x1="271.2" y1="117.7" x2="245.5" y2="116.3" stroke="rgb(0,0,0)"  stroke-width="2.0"/>
<line x1="245.5" y1="116.3" x2="231.6" y2="152.5" stroke="rgb(0,0,0)"  stroke-width="2.0"/>
<line x1="231.6" y1="152.5" x2="261.7" y2="177.0" stroke="rgb(0,0,0)"  stroke-width="2.0"/>
<text x="234.597536" y="217.485831" fill="rgb(191,191,191)"  stroke="rgb(191,191,191)" stroke-width="1" font-size="16" >H</text>
<text x="208.190955" y="225.438962" fill="rgb(191,191,191)"  stroke="rgb(191,191,191)" stroke-width="1" font-size="16" >H</text>
<text x="252.206864" y="252.046084" fill="rgb(191,191,191)"  stroke="rgb(191,191,191)" stroke-width="1" font-size="16" >H</text>
<text x="337.073187" y="224.117873" fill="rgb(191,191,191)"  stroke="rgb(191,191,191)" stroke-width="1" font-size="16" >H</text>
<text x="320.495755" y="119.452089" fill="rgb(191,191,191)"  stroke="rgb(191,191,191)" stroke-width="1" font-size="16" >H</text>
<text x="356.707360" y="133.352422" fill="rgb(191,191,191)"  stroke="rgb(191,191,191)" stroke-width="1" font-size="16" >H</text>
<text x="101.182577" y="231.128918" fill="rgb(191,191,191)"  stroke="rgb(191,191,191)" stroke-width="1" font-size="16" >H</text>
<text x="83.292873" y="48.000000" fill="rgb(191,191,191)"  stroke="rgb(191,191,191)" stroke-width="1" font-size="16" >H</text>
<text x="198.151913" y="187.972748" fill="rgb(255,12,12)"  stroke="rgb(255,12,12)" stroke-width="1" font-size="16" >O</text>
<text x="273.332257" y="219.515832" fill="rgb(255,12,12)"  stroke="rgb(255,12,12)" stroke-width="1" font-size="16" >O</text>
<text x="350.973520" y="187.906268" fill="rgb(255,12,12)"  stroke="rgb(255,12,12)" stroke-width="1" font-size="16" >O</text>
<text x="278.214139" y="126.363972" fill="rgb(255,12,12)"  stroke="rgb(255,12,12)" stroke-width="1" font-size="16" >O</text>
<text x="312.663184" y="193.974029" fill="rgb(191,191,191)"  stroke="rgb(191,191,191)" stroke-width="1" font-size="16" >H</text>
<text x="188.112871" y="150.506534" fill="rgb(191,191,191)"  stroke="rgb(191,191,191)" stroke-width="1" font-size="16" >H</text>
<text x="254.930662" y="88.756470" fill="rgb(191,191,191)"  stroke="rgb(191,191,191)" stroke-width="1" font-size="16" >H</text>
<text x="147.822425" y="72.770574" fill="rgb(12,12,255)"  stroke="rgb(12,12,255)" stroke-width="1" font-size="16" >N</text>
<text x="163.598877" y="108.205065" fill="rgb(12,12,255)"  stroke="rgb(12,12,255)" stroke-width="1" font-size="16" >N</text>
<text x="22.000000" y="114.765282" fill="rgb(255,12,12)"  stroke="rgb(255,12,12)" stroke-width="1" font-size="16" >HO</text>
<text x="67.591288" y="172.947100" fill="rgb(12,12,255)"  stroke="rgb(12,12,255)" stroke-width="1" font-size="16" >N</text>
<text x="134.773865" y="172.947100" fill="rgb(12,12,255)"  stroke="rgb(12,12,255)" stroke-width="1" font-size="16" >N</text>
</svg>
</g>
<text font-size="18.000000" fill ="black" font-family="sans-serif"
x="10.000000" y="20.000000" >ZINC16953920</text>
</svg>
