<?xml version="1.0"?>
<svg version="1.1" id="topsvg"
xmlns="http://www.w3.org/2000/svg" xmlns:xlink="http://www.w3.org/1999/xlink"
xmlns:cml="http://www.xml-cml.org/schema" x="0" y="0" width="200px" height="200px" viewBox="0 0 100 100">
<title>ZINC98222258 - Open Babel Depiction</title>
<rect x="0" y="0" width="100" height="100" fill="white"/>
<g transform="translate(0,0)">
<svg width="100" height="100" x="0" y="0" viewBox="0 0 697.026 536.074"
font-family="sans-serif" stroke="rgb(0,0,0)" stroke-width="2"  stroke-linecap="round">
<line x1="77.0" y1="193.5" x2="85.1" y2="155.5" stroke="rgb(0,0,0)"  stroke-width="2.0"/>
<line x1="77.0" y1="193.5" x2="85.0" y2="218.2" stroke="rgb(0,0,0)"  stroke-width="2.0"/>
<line x1="77.0" y1="193.5" x2="102.4" y2="198.9" stroke="rgb(0,0,0)"  stroke-width="2.0"/>
<line x1="77.0" y1="193.5" x2="52.4" y2="201.6" stroke="rgb(0,0,0)"  stroke-width="2.0"/>
<line x1="85.1" y1="155.5" x2="109.8" y2="147.5" stroke="rgb(0,0,0)"  stroke-width="2.0"/>
<line x1="85.1" y1="155.5" x2="59.8" y2="150.1" stroke="rgb(0,0,0)"  stroke-width="2.0"/>
<line x1="85.1" y1="155.5" x2="77.1" y2="130.8" stroke="rgb(0,0,0)"  stroke-width="2.0"/>
<line x1="124.8" y1="130.7" x2="130.2" y2="105.4" stroke="rgb(0,0,0)"  stroke-width="2.0"/>
<line x1="131.8" y1="152.2" x2="151.0" y2="169.5" stroke="rgb(0,0,0)"  stroke-width="2.0"/>
<line x1="130.2" y1="105.4" x2="101.3" y2="79.3" stroke="rgb(0,0,0)"  stroke-width="2.0"/>
<line x1="130.2" y1="105.4" x2="147.6" y2="86.1" stroke="rgb(0,0,0)"  stroke-width="2.0"/>
<line x1="130.2" y1="105.4" x2="155.6" y2="110.8" stroke="rgb(0,0,0)"  stroke-width="2.0"/>
<line x1="101.3" y1="79.3" x2="93.3" y2="54.7" stroke="rgb(0,0,0)"  stroke-width="2.0"/>
<line x1="101.3" y1="79.3" x2="118.6" y2="60.1" stroke="rgb(0,0,0)"  stroke-width="2.0"/>
<line x1="101.3" y1="79.3" x2="76.6" y2="87.4" stroke="rgb(0,0,0)"  stroke-width="2.0"/>
<line x1="188.1" y1="157.5" x2="193.4" y2="132.1" stroke="rgb(0,0,0)"  stroke-width="2.0"/>
<line x1="217.0" y1="183.5" x2="241.6" y2="175.5" stroke="rgb(0,0,0)"  stroke-width="2.0"/>
<line x1="237.8" y1="247.6" x2="274.8" y2="235.6" stroke="rgb(0,0,0)"  stroke-width="2.0"/>
<line x1="229.7" y1="285.7" x2="249.0" y2="303.0" stroke="rgb(0,0,0)"  stroke-width="2.0"/>
<line x1="192.7" y1="297.7" x2="184.6" y2="335.8" stroke="rgb(0,0,0)"  stroke-width="2.0"/>
<line x1="143.0" y1="207.6" x2="118.3" y2="215.6" stroke="rgb(0,0,0)"  stroke-width="2.0"/>
<line x1="184.6" y1="335.8" x2="146.5" y2="327.7" stroke="rgb(0,0,0)"  stroke-width="2.0"/>
<line x1="184.6" y1="335.8" x2="176.5" y2="373.9" stroke="rgb(0,0,0)"  stroke-width="2.0"/>
<line x1="184.6" y1="335.8" x2="222.7" y2="343.9" stroke="rgb(0,0,0)"  stroke-width="2.0"/>
<line x1="146.5" y1="327.7" x2="121.9" y2="335.7" stroke="rgb(0,0,0)"  stroke-width="2.0"/>
<line x1="146.5" y1="327.7" x2="141.2" y2="353.0" stroke="rgb(0,0,0)"  stroke-width="2.0"/>
<line x1="146.5" y1="327.7" x2="138.5" y2="303.0" stroke="rgb(0,0,0)"  stroke-width="2.0"/>
<line x1="176.5" y1="373.9" x2="184.5" y2="398.5" stroke="rgb(0,0,0)"  stroke-width="2.0"/>
<line x1="176.5" y1="373.9" x2="201.9" y2="379.2" stroke="rgb(0,0,0)"  stroke-width="2.0"/>
<line x1="176.5" y1="373.9" x2="151.9" y2="381.9" stroke="rgb(0,0,0)"  stroke-width="2.0"/>
<line x1="222.7" y1="343.9" x2="247.3" y2="335.9" stroke="rgb(0,0,0)"  stroke-width="2.0"/>
<line x1="222.7" y1="343.9" x2="228.1" y2="318.5" stroke="rgb(0,0,0)"  stroke-width="2.0"/>
<line x1="222.7" y1="343.9" x2="230.7" y2="368.5" stroke="rgb(0,0,0)"  stroke-width="2.0"/>
<line x1="276.8" y1="233.4" x2="305.8" y2="259.4" stroke="rgb(0,0,0)"  stroke-width="2.0"/>
<line x1="272.8" y1="237.8" x2="301.7" y2="263.9" stroke="rgb(0,0,0)"  stroke-width="2.0"/>
<line x1="274.8" y1="235.6" x2="280.2" y2="210.2" stroke="rgb(0,0,0)"  stroke-width="2.0"/>
<line x1="303.7" y1="261.6" x2="340.8" y2="249.6" stroke="rgb(0,0,0)"  stroke-width="2.0"/>
<line x1="303.7" y1="261.6" x2="298.4" y2="287.0" stroke="rgb(0,0,0)"  stroke-width="2.0"/>
<line x1="342.8" y1="247.4" x2="400.6" y2="299.5" stroke="rgb(0,0,0)"  stroke-width="2.0"/>
<line x1="338.8" y1="251.8" x2="396.6" y2="303.9" stroke="rgb(0,0,0)"  stroke-width="2.0"/>
<line x1="340.8" y1="249.6" x2="346.1" y2="224.3" stroke="rgb(0,0,0)"  stroke-width="2.0"/>
<line x1="434.3" y1="278.2" x2="435.8" y2="278.0" stroke="rgb(0,0,0)"  stroke-width="1.0"/>
<line x1="432.3" y1="265.9" x2="435.2" y2="265.6" stroke="rgb(0,0,0)"  stroke-width="1.0"/>
<line x1="430.4" y1="253.6" x2="434.5" y2="253.1" stroke="rgb(0,0,0)"  stroke-width="1.0"/>
<line x1="428.4" y1="241.2" x2="433.8" y2="240.7" stroke="rgb(0,0,0)"  stroke-width="1.0"/>
<line x1="426.5" y1="228.9" x2="433.2" y2="228.2" stroke="rgb(0,0,0)"  stroke-width="1.0"/>
<line x1="424.6" y1="216.6" x2="432.5" y2="215.8" stroke="rgb(0,0,0)"  stroke-width="1.0"/>
<line x1="436.7" y1="293.6" x2="499.6" y2="247.8" stroke="rgb(0,0,0)"  stroke-width="2.0"/>
<line x1="494.2" y1="335.4" x2="511.5" y2="316.1" stroke="rgb(0,0,0)"  stroke-width="2.0"/>
<line x1="506.2" y1="372.4" x2="531.6" y2="377.8" stroke="rgb(0,0,0)"  stroke-width="2.0"/>
<line x1="480.2" y1="401.3" x2="488.2" y2="426.0" stroke="rgb(0,0,0)"  stroke-width="2.0"/>
<line x1="442.1" y1="393.2" x2="424.8" y2="412.5" stroke="rgb(0,0,0)"  stroke-width="2.0"/>
<line x1="383.3" y1="346.9" x2="360.8" y2="359.9" stroke="rgb(0,0,0)"  stroke-width="2.0"/>
<line x1="360.8" y1="359.9" x2="360.8" y2="398.8" stroke="rgb(0,0,0)"  stroke-width="2.0"/>
<line x1="360.8" y1="359.9" x2="334.9" y2="359.9" stroke="rgb(0,0,0)"  stroke-width="2.0"/>
<line x1="360.8" y1="359.9" x2="347.9" y2="337.4" stroke="rgb(0,0,0)"  stroke-width="2.0"/>
<line x1="360.8" y1="398.8" x2="327.1" y2="418.2" stroke="rgb(0,0,0)"  stroke-width="2.0"/>
<line x1="360.8" y1="398.8" x2="373.8" y2="421.2" stroke="rgb(0,0,0)"  stroke-width="2.0"/>
<line x1="360.8" y1="398.8" x2="386.8" y2="398.8" stroke="rgb(0,0,0)"  stroke-width="2.0"/>
<line x1="327.1" y1="418.2" x2="327.1" y2="444.2" stroke="rgb(0,0,0)"  stroke-width="2.0"/>
<line x1="327.1" y1="418.2" x2="301.2" y2="418.2" stroke="rgb(0,0,0)"  stroke-width="2.0"/>
<line x1="327.1" y1="418.2" x2="314.2" y2="395.8" stroke="rgb(0,0,0)"  stroke-width="2.0"/>
<line x1="340.1" y1="454.2" x2="353.0" y2="454.2" stroke="rgb(0,0,0)"  stroke-width="2.0"/>
<line x1="340.1" y1="460.2" x2="353.0" y2="460.2" stroke="rgb(0,0,0)"  stroke-width="2.0"/>
<line x1="330.1" y1="470.2" x2="330.1" y2="483.1" stroke="rgb(0,0,0)"  stroke-width="2.0"/>
<line x1="324.1" y1="470.2" x2="324.1" y2="483.1" stroke="rgb(0,0,0)"  stroke-width="2.0"/>
<line x1="314.1" y1="457.2" x2="301.2" y2="457.2" stroke="rgb(0,0,0)"  stroke-width="2.0"/>
<line x1="544.1" y1="367.2" x2="546.8" y2="354.5" stroke="rgb(0,0,0)"  stroke-width="2.0"/>
<line x1="549.9" y1="368.4" x2="552.6" y2="355.8" stroke="rgb(0,0,0)"  stroke-width="2.0"/>
<line x1="557.6" y1="380.3" x2="570.3" y2="383.0" stroke="rgb(0,0,0)"  stroke-width="2.0"/>
<line x1="556.4" y1="386.1" x2="569.0" y2="388.8" stroke="rgb(0,0,0)"  stroke-width="2.0"/>
<line x1="541.6" y1="393.2" x2="538.9" y2="405.9" stroke="rgb(0,0,0)"  stroke-width="2.0"/>
<line x1="428.5" y1="216.2" x2="413.3" y2="195.2" stroke="rgb(0,0,0)"  stroke-width="2.0"/>
<line x1="428.5" y1="216.2" x2="402.8" y2="218.9" stroke="rgb(0,0,0)"  stroke-width="2.0"/>
<line x1="428.5" y1="216.2" x2="449.5" y2="201.0" stroke="rgb(0,0,0)"  stroke-width="2.0"/>
<line x1="499.6" y1="247.8" x2="495.6" y2="209.1" stroke="rgb(0,0,0)"  stroke-width="2.0"/>
<line x1="499.6" y1="247.8" x2="525.4" y2="245.1" stroke="rgb(0,0,0)"  stroke-width="2.0"/>
<line x1="499.6" y1="247.8" x2="514.9" y2="268.8" stroke="rgb(0,0,0)"  stroke-width="2.0"/>
<line x1="495.6" y1="209.1" x2="527.1" y2="186.3" stroke="rgb(0,0,0)"  stroke-width="2.0"/>
<line x1="495.6" y1="209.1" x2="480.3" y2="188.2" stroke="rgb(0,0,0)"  stroke-width="2.0"/>
<line x1="495.6" y1="209.1" x2="469.8" y2="211.9" stroke="rgb(0,0,0)"  stroke-width="2.0"/>
<line x1="527.1" y1="186.3" x2="562.6" y2="202.1" stroke="rgb(0,0,0)"  stroke-width="2.0"/>
<line x1="527.1" y1="186.3" x2="537.6" y2="162.6" stroke="rgb(0,0,0)"  stroke-width="2.0"/>
<line x1="527.1" y1="186.3" x2="511.8" y2="165.3" stroke="rgb(0,0,0)"  stroke-width="2.0"/>
<line x1="565.6" y1="201.8" x2="568.3" y2="227.6" stroke="rgb(0,0,0)"  stroke-width="2.0"/>
<line x1="559.6" y1="202.4" x2="562.3" y2="228.2" stroke="rgb(0,0,0)"  stroke-width="2.0"/>
<line x1="562.6" y1="202.1" x2="583.6" y2="186.9" stroke="rgb(0,0,0)"  stroke-width="2.0"/>
<line x1="592.7" y1="166.3" x2="591.4" y2="153.4" stroke="rgb(0,0,0)"  stroke-width="2.0"/>
<line x1="619.6" y1="111.5" x2="644.9" y2="116.9" stroke="rgb(0,0,0)"  stroke-width="2.0"/>
<line x1="618.3" y1="117.4" x2="643.7" y2="122.8" stroke="rgb(0,0,0)"  stroke-width="2.0"/>
<line x1="603.1" y1="78.9" x2="625.6" y2="66.0" stroke="rgb(0,0,0)"  stroke-width="2.0"/>
<line x1="603.1" y1="78.9" x2="603.1" y2="53.0" stroke="rgb(0,0,0)"  stroke-width="2.0"/>
<line x1="564.4" y1="83.0" x2="559.0" y2="57.6" stroke="rgb(0,0,0)"  stroke-width="2.0"/>
<line x1="564.4" y1="83.0" x2="539.8" y2="75.0" stroke="rgb(0,0,0)"  stroke-width="2.0"/>
<line x1="557.6" y1="123.8" x2="533.9" y2="134.3" stroke="rgb(0,0,0)"  stroke-width="2.0"/>
<line x1="555.1" y1="118.3" x2="531.4" y2="128.9" stroke="rgb(0,0,0)"  stroke-width="2.0"/>
<line x1="217.0" y1="183.5" x2="208.9" y2="221.6" stroke="rgb(0,0,0)"  stroke-width="2.0"/>
<line x1="208.9" y1="221.6" x2="171.9" y2="233.6" stroke="rgb(0,0,0)"  stroke-width="2.0"/>
<line x1="201.0" y1="216.6" x2="175.4" y2="224.9" stroke="rgb(0,0,0)"  stroke-width="2.0"/>
<line x1="171.9" y1="233.6" x2="143.0" y2="207.6" stroke="rgb(0,0,0)"  stroke-width="2.0"/>
<line x1="143.0" y1="207.6" x2="151.0" y2="169.5" stroke="rgb(0,0,0)"  stroke-width="2.0"/>
<line x1="151.2" y1="203.2" x2="156.8" y2="176.9" stroke="rgb(0,0,0)"  stroke-width="2.0"/>
<line x1="151.0" y1="169.5" x2="188.1" y2="157.5" stroke="rgb(0,0,0)"  stroke-width="2.0"/>
<line x1="188.1" y1="157.5" x2="217.0" y2="183.5" stroke="rgb(0,0,0)"  stroke-width="2.0"/>
<line x1="187.7" y1="166.8" x2="207.7" y2="184.8" stroke="rgb(0,0,0)"  stroke-width="2.0"/>
<line x1="480.2" y1="401.3" x2="442.1" y2="393.2" stroke="rgb(0,0,0)"  stroke-width="2.0"/>
<line x1="475.8" y1="393.0" x2="449.5" y2="387.4" stroke="rgb(0,0,0)"  stroke-width="2.0"/>
<line x1="442.1" y1="393.2" x2="430.1" y2="356.2" stroke="rgb(0,0,0)"  stroke-width="2.0"/>
<line x1="430.1" y1="356.2" x2="456.1" y2="327.3" stroke="rgb(0,0,0)"  stroke-width="2.0"/>
<line x1="439.5" y1="356.6" x2="457.5" y2="336.6" stroke="rgb(0,0,0)"  stroke-width="2.0"/>
<line x1="456.1" y1="327.3" x2="494.2" y2="335.4" stroke="rgb(0,0,0)"  stroke-width="2.0"/>
<line x1="494.2" y1="335.4" x2="506.2" y2="372.4" stroke="rgb(0,0,0)"  stroke-width="2.0"/>
<line x1="489.2" y1="343.3" x2="497.5" y2="368.9" stroke="rgb(0,0,0)"  stroke-width="2.0"/>
<line x1="506.2" y1="372.4" x2="480.2" y2="401.3" stroke="rgb(0,0,0)"  stroke-width="2.0"/>
<line x1="430.1" y1="356.2" x2="406.4" y2="345.7" stroke="rgb(0,0,0)"  stroke-width="2.0"/>
<line x1="395.9" y1="327.5" x2="398.6" y2="301.7" stroke="rgb(0,0,0)"  stroke-width="2.0"/>
<line x1="398.6" y1="301.7" x2="436.7" y2="293.6" stroke="rgb(0,0,0)"  stroke-width="2.0"/>
<line x1="436.7" y1="293.6" x2="456.1" y2="327.3" stroke="rgb(0,0,0)"  stroke-width="2.0"/>
<line x1="603.1" y1="78.9" x2="564.4" y2="83.0" stroke="rgb(0,0,0)"  stroke-width="2.0"/>
<line x1="564.4" y1="83.0" x2="556.3" y2="121.1" stroke="rgb(0,0,0)"  stroke-width="2.0"/>
<line x1="556.3" y1="121.1" x2="578.8" y2="134.0" stroke="rgb(0,0,0)"  stroke-width="2.0"/>
<line x1="599.7" y1="131.8" x2="619.0" y2="114.5" stroke="rgb(0,0,0)"  stroke-width="2.0"/>
<line x1="619.0" y1="114.5" x2="603.1" y2="78.9" stroke="rgb(0,0,0)"  stroke-width="2.0"/>
<line x1="192.7" y1="297.7" x2="173.3" y2="280.3" stroke="rgb(0,0,0)"  stroke-width="2.0"/>
<line x1="193.1" y1="288.3" x2="179.7" y2="276.3" stroke="rgb(0,0,0)"  stroke-width="2.0"/>
<line x1="166.5" y1="259.0" x2="171.9" y2="233.6" stroke="rgb(0,0,0)"  stroke-width="2.0"/>
<line x1="208.9" y1="221.6" x2="237.8" y2="247.6" stroke="rgb(0,0,0)"  stroke-width="2.0"/>
<line x1="237.8" y1="247.6" x2="229.7" y2="285.7" stroke="rgb(0,0,0)"  stroke-width="2.0"/>
<line x1="229.5" y1="252.0" x2="223.9" y2="278.3" stroke="rgb(0,0,0)"  stroke-width="2.0"/>
<line x1="229.7" y1="285.7" x2="192.7" y2="297.7" stroke="rgb(0,0,0)"  stroke-width="2.0"/>
<text x="58.275095" y="99.368865" fill="rgb(191,191,191)"  stroke="rgb(191,191,191)" stroke-width="1" font-size="16" >H</text>
<text x="224.772111" y="313.806656" fill="rgb(191,191,191)"  stroke="rgb(191,191,191)" stroke-width="1" font-size="16" >H</text>
<text x="253.694505" y="339.848496" fill="rgb(191,191,191)"  stroke="rgb(191,191,191)" stroke-width="1" font-size="16" >H</text>
<text x="133.506176" y="393.878460" fill="rgb(191,191,191)"  stroke="rgb(191,191,191)" stroke-width="1" font-size="16" >H</text>
<text x="208.588715" y="389.943551" fill="rgb(191,191,191)"  stroke="rgb(191,191,191)" stroke-width="1" font-size="16" >H</text>
<text x="182.546875" y="418.865944" fill="rgb(191,191,191)"  stroke="rgb(191,191,191)" stroke-width="1" font-size="16" >H</text>
<text x="128.516912" y="298.677616" fill="rgb(191,191,191)"  stroke="rgb(191,191,191)" stroke-width="1" font-size="16" >H</text>
<text x="132.451821" y="373.760154" fill="rgb(191,191,191)"  stroke="rgb(191,191,191)" stroke-width="1" font-size="16" >H</text>
<text x="103.529427" y="347.718314" fill="rgb(191,191,191)"  stroke="rgb(191,191,191)" stroke-width="1" font-size="16" >H</text>
<text x="99.936485" y="227.589439" fill="rgb(191,191,191)"  stroke="rgb(191,191,191)" stroke-width="1" font-size="16" >H</text>
<text x="252.640149" y="319.730191" fill="rgb(191,191,191)"  stroke="rgb(191,191,191)" stroke-width="1" font-size="16" >H</text>
<text x="247.992850" y="179.483009" fill="rgb(191,191,191)"  stroke="rgb(191,191,191)" stroke-width="1" font-size="16" >H</text>
<text x="190.148064" y="127.399330" fill="rgb(191,191,191)"  stroke="rgb(191,191,191)" stroke-width="1" font-size="16" >H</text>
<text x="228.707021" y="388.889195" fill="rgb(191,191,191)"  stroke="rgb(191,191,191)" stroke-width="1" font-size="16" >H</text>
<text x="121.331026" y="58.419864" fill="rgb(191,191,191)"  stroke="rgb(191,191,191)" stroke-width="1" font-size="16" >H</text>
<text x="83.262579" y="50.328166" fill="rgb(191,191,191)"  stroke="rgb(191,191,191)" stroke-width="1" font-size="16" >H</text>
<text x="162.280027" y="121.475796" fill="rgb(191,191,191)"  stroke="rgb(191,191,191)" stroke-width="1" font-size="16" >H</text>
<text x="150.253419" y="84.461704" fill="rgb(191,191,191)"  stroke="rgb(191,191,191)" stroke-width="1" font-size="16" >H</text>
<text x="67.079182" y="126.465060" fill="rgb(191,191,191)"  stroke="rgb(191,191,191)" stroke-width="1" font-size="16" >H</text>
<text x="41.037343" y="155.387454" fill="rgb(191,191,191)"  stroke="rgb(191,191,191)" stroke-width="1" font-size="16" >H</text>
<text x="34.000000" y="213.574206" fill="rgb(191,191,191)"  stroke="rgb(191,191,191)" stroke-width="1" font-size="16" >H</text>
<text x="109.082539" y="209.639297" fill="rgb(191,191,191)"  stroke="rgb(191,191,191)" stroke-width="1" font-size="16" >H</text>
<text x="83.040699" y="238.561690" fill="rgb(191,191,191)"  stroke="rgb(191,191,191)" stroke-width="1" font-size="16" >H</text>
<text x="514.776489" y="144.885251" fill="rgb(255,12,12)"  stroke="rgb(255,12,12)" stroke-width="1" font-size="16" >O</text>
<text x="399.661027" y="192.703009" fill="rgb(191,191,191)"  stroke="rgb(191,191,191)" stroke-width="1" font-size="16" >H</text>
<text x="521.408297" y="78.960446" fill="rgb(191,191,191)"  stroke="rgb(191,191,191)" stroke-width="1" font-size="16" >H</text>
<text x="550.330690" y="52.918607" fill="rgb(191,191,191)"  stroke="rgb(191,191,191)" stroke-width="1" font-size="16" >H</text>
<text x="597.128106" y="48.000000" fill="rgb(191,191,191)"  stroke="rgb(191,191,191)" stroke-width="1" font-size="16" >H</text>
<text x="630.832878" y="67.459459" fill="rgb(191,191,191)"  stroke="rgb(191,191,191)" stroke-width="1" font-size="16" >H</text>
<text x="498.187363" y="162.780827" fill="rgb(191,191,191)"  stroke="rgb(191,191,191)" stroke-width="1" font-size="16" >H</text>
<text x="536.893080" y="158.712692" fill="rgb(191,191,191)"  stroke="rgb(191,191,191)" stroke-width="1" font-size="16" >H</text>
<text x="450.871545" y="221.210995" fill="rgb(191,191,191)"  stroke="rgb(191,191,191)" stroke-width="1" font-size="16" >H</text>
<text x="466.701296" y="185.656793" fill="rgb(191,191,191)"  stroke="rgb(191,191,191)" stroke-width="1" font-size="16" >H</text>
<text x="516.521364" y="287.334644" fill="rgb(191,191,191)"  stroke="rgb(191,191,191)" stroke-width="1" font-size="16" >H</text>
<text x="532.351114" y="251.780442" fill="rgb(191,191,191)"  stroke="rgb(191,191,191)" stroke-width="1" font-size="16" >H</text>
<text x="454.023061" y="201.313110" fill="rgb(191,191,191)"  stroke="rgb(191,191,191)" stroke-width="1" font-size="16" >H</text>
<text x="383.831277" y="228.257211" fill="rgb(191,191,191)"  stroke="rgb(191,191,191)" stroke-width="1" font-size="16" >H</text>
<text x="301.667677" y="392.530991" fill="rgb(191,191,191)"  stroke="rgb(191,191,191)" stroke-width="1" font-size="16" >H</text>
<text x="282.208218" y="426.235763" fill="rgb(191,191,191)"  stroke="rgb(191,191,191)" stroke-width="1" font-size="16" >H</text>
<text x="393.750828" y="406.776304" fill="rgb(191,191,191)"  stroke="rgb(191,191,191)" stroke-width="1" font-size="16" >H</text>
<text x="374.291369" y="440.481076" fill="rgb(191,191,191)"  stroke="rgb(191,191,191)" stroke-width="1" font-size="16" >H</text>
<text x="335.372450" y="334.152612" fill="rgb(191,191,191)"  stroke="rgb(191,191,191)" stroke-width="1" font-size="16" >H</text>
<text x="315.912990" y="367.857385" fill="rgb(191,191,191)"  stroke="rgb(191,191,191)" stroke-width="1" font-size="16" >H</text>
<text x="410.075651" y="430.164161" fill="rgb(191,191,191)"  stroke="rgb(191,191,191)" stroke-width="1" font-size="16" >H</text>
<text x="486.212545" y="446.347557" fill="rgb(191,191,191)"  stroke="rgb(191,191,191)" stroke-width="1" font-size="16" >H</text>
<text x="514.243010" y="314.474588" fill="rgb(191,191,191)"  stroke="rgb(191,191,191)" stroke-width="1" font-size="16" >H</text>
<text x="342.851728" y="219.540082" fill="rgb(191,191,191)"  stroke="rgb(191,191,191)" stroke-width="1" font-size="16" >H</text>
<text x="289.654240" y="307.703583" fill="rgb(191,191,191)"  stroke="rgb(191,191,191)" stroke-width="1" font-size="16" >H</text>
<text x="276.915244" y="205.524849" fill="rgb(191,191,191)"  stroke="rgb(191,191,191)" stroke-width="1" font-size="16" >H</text>
<text x="157.781271" y="279.673118" fill="rgb(255,12,12)"  stroke="rgb(255,12,12)" stroke-width="1" font-size="16" >O</text>
<text x="116.119881" y="151.452544" fill="rgb(12,12,255)"  stroke="rgb(12,12,255)" stroke-width="1" font-size="16" >N</text>
<text x="546.387923" y="350.434323" fill="rgb(255,12,12)"  stroke="rgb(255,12,12)" stroke-width="1" font-size="16" >O</text>
<text x="651.026303" y="130.564819" fill="rgb(255,12,12)"  stroke="rgb(255,12,12)" stroke-width="1" font-size="16" >O</text>
<text x="584.035463" y="148.514960" fill="rgb(12,12,255)"  stroke="rgb(12,12,255)" stroke-width="1" font-size="16" >N</text>
<text x="588.103598" y="187.220677" fill="rgb(255,12,12)"  stroke="rgb(255,12,12)" stroke-width="1" font-size="16" >O</text>
<text x="560.685666" y="248.802361" fill="rgb(255,12,12)"  stroke="rgb(255,12,12)" stroke-width="1" font-size="16" >O</text>
<text x="518.204527" y="426.571218" fill="rgb(255,12,12)"  stroke="rgb(255,12,12)" stroke-width="1" font-size="16" >HO</text>
<text x="576.364672" y="396.594469" fill="rgb(255,12,12)"  stroke="rgb(255,12,12)" stroke-width="1" font-size="16" >O</text>
<text x="538.296225" y="388.502771" fill="rgb(178,178,0)"  stroke="rgb(178,178,0)" stroke-width="1" font-size="16" >S</text>
<text x="270.208218" y="465.154682" fill="rgb(255,12,12)"  stroke="rgb(255,12,12)" stroke-width="1" font-size="16" >HO</text>
<text x="321.127137" y="504.073601" fill="rgb(255,12,12)"  stroke="rgb(255,12,12)" stroke-width="1" font-size="16" >O</text>
<text x="360.046056" y="465.154682" fill="rgb(255,12,12)"  stroke="rgb(255,12,12)" stroke-width="1" font-size="16" >O</text>
<text x="321.127137" y="465.154682" fill="rgb(178,178,0)"  stroke="rgb(178,178,0)" stroke-width="1" font-size="16" >S</text>
<text x="388.536682" y="348.397925" fill="rgb(12,12,255)"  stroke="rgb(12,12,255)" stroke-width="1" font-size="16" >N</text>
</svg>
</g>
<text font-size="18.000000" fill ="black" font-family="sans-serif"
x="10.000000" y="20.000000" >ZINC98222258</text>
</svg>
