<?xml version="1.0"?>
<svg version="1.1" id="topsvg"
xmlns="http://www.w3.org/2000/svg" xmlns:xlink="http://www.w3.org/1999/xlink"
xmlns:cml="http://www.xml-cml.org/schema" x="0" y="0" width="200px" height="200px" viewBox="0 0 100 100">
<title>ZINC07997417 - Open Babel Depiction</title>
<rect x="0" y="0" width="100" height="100" fill="white"/>
<g transform="translate(0,0)">
<svg width="100" height="100" x="0" y="0" viewBox="0 0 506.132 300"
font-family="sans-serif" stroke="rgb(0,0,0)" stroke-width="2"  stroke-linecap="round">
<line x1="69.7" y1="181.2" x2="108.9" y2="172.9" stroke="rgb(0,0,0)"  stroke-width="2.0"/>
<line x1="69.7" y1="181.2" x2="49.7" y2="199.3" stroke="rgb(0,0,0)"  stroke-width="2.0"/>
<line x1="69.7" y1="181.2" x2="75.3" y2="207.6" stroke="rgb(0,0,0)"  stroke-width="2.0"/>
<line x1="69.7" y1="181.2" x2="51.7" y2="161.2" stroke="rgb(0,0,0)"  stroke-width="2.0"/>
<line x1="121.2" y1="134.9" x2="103.1" y2="114.8" stroke="rgb(0,0,0)"  stroke-width="2.0"/>
<line x1="174.7" y1="194.3" x2="192.8" y2="214.4" stroke="rgb(0,0,0)"  stroke-width="2.0"/>
<line x1="135.6" y1="202.6" x2="127.3" y2="228.3" stroke="rgb(0,0,0)"  stroke-width="2.0"/>
<line x1="234.9" y1="146.5" x2="258.3" y2="160.0" stroke="rgb(0,0,0)"  stroke-width="2.0"/>
<line x1="219.5" y1="100.2" x2="245.9" y2="94.6" stroke="rgb(0,0,0)"  stroke-width="2.0"/>
<line x1="219.5" y1="100.2" x2="227.8" y2="74.5" stroke="rgb(0,0,0)"  stroke-width="2.0"/>
<line x1="180.3" y1="91.9" x2="183.2" y2="65.1" stroke="rgb(0,0,0)"  stroke-width="2.0"/>
<line x1="180.3" y1="91.9" x2="158.5" y2="76.0" stroke="rgb(0,0,0)"  stroke-width="2.0"/>
<line x1="261.3" y1="160.0" x2="261.3" y2="187.0" stroke="rgb(0,0,0)"  stroke-width="2.0"/>
<line x1="255.3" y1="160.0" x2="255.3" y2="187.0" stroke="rgb(0,0,0)"  stroke-width="2.0"/>
<line x1="258.3" y1="160.0" x2="281.7" y2="146.5" stroke="rgb(0,0,0)"  stroke-width="2.0"/>
<line x1="305.7" y1="143.9" x2="329.1" y2="157.4" stroke="rgb(0,0,0)"  stroke-width="2.0"/>
<line x1="302.7" y1="149.1" x2="326.1" y2="162.6" stroke="rgb(0,0,0)"  stroke-width="2.0"/>
<line x1="292.9" y1="127.0" x2="292.9" y2="113.0" stroke="rgb(0,0,0)"  stroke-width="2.0"/>
<line x1="327.6" y1="200.0" x2="304.2" y2="213.5" stroke="rgb(0,0,0)"  stroke-width="2.0"/>
<line x1="362.2" y1="220.0" x2="362.2" y2="247.0" stroke="rgb(0,0,0)"  stroke-width="2.0"/>
<line x1="408.1" y1="206.5" x2="420.2" y2="213.5" stroke="rgb(0,0,0)"  stroke-width="2.0"/>
<line x1="362.2" y1="100.0" x2="338.8" y2="86.5" stroke="rgb(0,0,0)"  stroke-width="2.0"/>
<line x1="396.9" y1="80.0" x2="396.9" y2="53.0" stroke="rgb(0,0,0)"  stroke-width="2.0"/>
<line x1="431.5" y1="100.0" x2="454.9" y2="86.5" stroke="rgb(0,0,0)"  stroke-width="2.0"/>
<line x1="431.5" y1="140.0" x2="454.9" y2="153.5" stroke="rgb(0,0,0)"  stroke-width="2.0"/>
<line x1="160.3" y1="126.5" x2="187.1" y2="156.3" stroke="rgb(0,0,0)"  stroke-width="2.0"/>
<line x1="187.1" y1="156.3" x2="174.7" y2="194.3" stroke="rgb(0,0,0)"  stroke-width="2.0"/>
<line x1="178.4" y1="159.8" x2="169.7" y2="186.4" stroke="rgb(0,0,0)"  stroke-width="2.0"/>
<line x1="174.7" y1="194.3" x2="135.6" y2="202.6" stroke="rgb(0,0,0)"  stroke-width="2.0"/>
<line x1="135.6" y1="202.6" x2="108.9" y2="172.9" stroke="rgb(0,0,0)"  stroke-width="2.0"/>
<line x1="137.0" y1="193.4" x2="118.2" y2="172.5" stroke="rgb(0,0,0)"  stroke-width="2.0"/>
<line x1="108.9" y1="172.9" x2="121.2" y2="134.9" stroke="rgb(0,0,0)"  stroke-width="2.0"/>
<line x1="121.2" y1="134.9" x2="160.3" y2="126.5" stroke="rgb(0,0,0)"  stroke-width="2.0"/>
<line x1="128.6" y1="140.7" x2="156.0" y2="134.8" stroke="rgb(0,0,0)"  stroke-width="2.0"/>
<line x1="362.2" y1="220.0" x2="385.6" y2="206.5" stroke="rgb(0,0,0)"  stroke-width="2.0"/>
<line x1="396.9" y1="187.0" x2="396.9" y2="160.0" stroke="rgb(0,0,0)"  stroke-width="2.0"/>
<line x1="396.9" y1="160.0" x2="362.2" y2="140.0" stroke="rgb(0,0,0)"  stroke-width="2.0"/>
<line x1="362.2" y1="140.0" x2="327.6" y2="160.0" stroke="rgb(0,0,0)"  stroke-width="2.0"/>
<line x1="327.6" y1="160.0" x2="327.6" y2="200.0" stroke="rgb(0,0,0)"  stroke-width="2.0"/>
<line x1="327.6" y1="200.0" x2="362.2" y2="220.0" stroke="rgb(0,0,0)"  stroke-width="2.0"/>
<line x1="336.4" y1="196.8" x2="360.6" y2="210.8" stroke="rgb(0,0,0)"  stroke-width="2.0"/>
<line x1="431.5" y1="100.0" x2="396.9" y2="80.0" stroke="rgb(0,0,0)"  stroke-width="2.0"/>
<line x1="422.7" y1="103.2" x2="398.4" y2="89.2" stroke="rgb(0,0,0)"  stroke-width="2.0"/>
<line x1="396.9" y1="80.0" x2="362.2" y2="100.0" stroke="rgb(0,0,0)"  stroke-width="2.0"/>
<line x1="362.2" y1="100.0" x2="362.2" y2="140.0" stroke="rgb(0,0,0)"  stroke-width="2.0"/>
<line x1="369.4" y1="106.0" x2="369.4" y2="134.0" stroke="rgb(0,0,0)"  stroke-width="2.0"/>
<line x1="396.9" y1="160.0" x2="431.5" y2="140.0" stroke="rgb(0,0,0)"  stroke-width="2.0"/>
<line x1="398.4" y1="150.8" x2="422.7" y2="136.8" stroke="rgb(0,0,0)"  stroke-width="2.0"/>
<line x1="431.5" y1="140.0" x2="431.5" y2="100.0" stroke="rgb(0,0,0)"  stroke-width="2.0"/>
<line x1="219.5" y1="100.2" x2="222.3" y2="127.1" stroke="rgb(0,0,0)"  stroke-width="2.0"/>
<line x1="211.8" y1="145.3" x2="187.1" y2="156.3" stroke="rgb(0,0,0)"  stroke-width="2.0"/>
<line x1="160.3" y1="126.5" x2="180.3" y2="91.9" stroke="rgb(0,0,0)"  stroke-width="2.0"/>
<line x1="180.3" y1="91.9" x2="219.5" y2="100.2" stroke="rgb(0,0,0)"  stroke-width="2.0"/>
<text x="178.519419" y="60.121781" fill="rgb(191,191,191)"  stroke="rgb(191,191,191)" stroke-width="1" font-size="16" >H</text>
<text x="34.000000" y="215.984093" fill="rgb(191,191,191)"  stroke="rgb(191,191,191)" stroke-width="1" font-size="16" >H</text>
<text x="72.042261" y="228.344773" fill="rgb(191,191,191)"  stroke="rgb(191,191,191)" stroke-width="1" font-size="16" >H</text>
<text x="36.960569" y="159.493076" fill="rgb(191,191,191)"  stroke="rgb(191,191,191)" stroke-width="1" font-size="16" >H</text>
<text x="88.447153" y="113.134347" fill="rgb(191,191,191)"  stroke="rgb(191,191,191)" stroke-width="1" font-size="16" >H</text>
<text x="195.508050" y="232.037519" fill="rgb(191,191,191)"  stroke="rgb(191,191,191)" stroke-width="1" font-size="16" >H</text>
<text x="252.590089" y="99.902657" fill="rgb(191,191,191)"  stroke="rgb(191,191,191)" stroke-width="1" font-size="16" >H</text>
<text x="225.824865" y="70.176864" fill="rgb(191,191,191)"  stroke="rgb(191,191,191)" stroke-width="1" font-size="16" >H</text>
<text x="141.977601" y="76.391246" fill="rgb(191,191,191)"  stroke="rgb(191,191,191)" stroke-width="1" font-size="16" >H</text>
<text x="286.927356" y="228.000000" fill="rgb(191,191,191)"  stroke="rgb(191,191,191)" stroke-width="1" font-size="16" >H</text>
<text x="356.209388" y="268.000000" fill="rgb(191,191,191)"  stroke="rgb(191,191,191)" stroke-width="1" font-size="16" >H</text>
<text x="321.568372" y="88.000000" fill="rgb(191,191,191)"  stroke="rgb(191,191,191)" stroke-width="1" font-size="16" >H</text>
<text x="390.850404" y="48.000000" fill="rgb(191,191,191)"  stroke="rgb(191,191,191)" stroke-width="1" font-size="16" >H</text>
<text x="460.132436" y="88.000000" fill="rgb(191,191,191)"  stroke="rgb(191,191,191)" stroke-width="1" font-size="16" >H</text>
<text x="460.132436" y="168.000000" fill="rgb(191,191,191)"  stroke="rgb(191,191,191)" stroke-width="1" font-size="16" >H</text>
<text x="425.491420" y="228.000000" fill="rgb(191,191,191)"  stroke="rgb(191,191,191)" stroke-width="1" font-size="16" >H</text>
<text x="286.927356" y="108.000000" fill="rgb(191,191,191)"  stroke="rgb(191,191,191)" stroke-width="1" font-size="16" >H</text>
<text x="105.256242" y="248.670455" fill="rgb(30,239,30)"  stroke="rgb(30,239,30)" stroke-width="1" font-size="16" >Cl</text>
<text x="217.645323" y="148.000000" fill="rgb(12,12,255)"  stroke="rgb(12,12,255)" stroke-width="1" font-size="16" >N</text>
<text x="252.286340" y="208.000000" fill="rgb(255,12,12)"  stroke="rgb(255,12,12)" stroke-width="1" font-size="16" >O</text>
<text x="286.927356" y="148.000000" fill="rgb(12,12,255)"  stroke="rgb(12,12,255)" stroke-width="1" font-size="16" >N</text>
<text x="390.850404" y="208.000000" fill="rgb(12,12,255)"  stroke="rgb(12,12,255)" stroke-width="1" font-size="16" >N</text>
</svg>
</g>
<text font-size="18.000000" fill ="black" font-family="sans-serif"
x="10.000000" y="20.000000" >ZINC07997417</text>
</svg>
