<?xml version="1.0"?>
<svg version="1.1" id="topsvg"
xmlns="http://www.w3.org/2000/svg" xmlns:xlink="http://www.w3.org/1999/xlink"
xmlns:cml="http://www.xml-cml.org/schema" x="0" y="0" width="200px" height="200px" viewBox="0 0 100 100">
<title>ZINC25723126 - Open Babel Depiction</title>
<rect x="0" y="0" width="100" height="100" fill="white"/>
<g transform="translate(0,0)">
<svg width="100" height="100" x="0" y="0" viewBox="0 0 430.046 367.554"
font-family="sans-serif" stroke="rgb(0,0,0)" stroke-width="2"  stroke-linecap="round">
<line x1="135.9" y1="109.3" x2="155.9" y2="143.9" stroke="rgb(0,0,0)"  stroke-width="2.0"/>
<line x1="135.9" y1="109.3" x2="149.4" y2="85.9" stroke="rgb(0,0,0)"  stroke-width="2.0"/>
<line x1="135.9" y1="109.3" x2="112.5" y2="95.8" stroke="rgb(0,0,0)"  stroke-width="2.0"/>
<line x1="135.9" y1="109.3" x2="112.5" y2="122.8" stroke="rgb(0,0,0)"  stroke-width="2.0"/>
<line x1="155.9" y1="143.9" x2="182.7" y2="140.4" stroke="rgb(0,0,0)"  stroke-width="2.0"/>
<line x1="148.4" y1="146.8" x2="148.0" y2="145.2" stroke="rgb(0,0,0)"  stroke-width="1.0"/>
<line x1="142.4" y1="149.0" x2="141.6" y2="146.3" stroke="rgb(0,0,0)"  stroke-width="1.0"/>
<line x1="136.4" y1="151.3" x2="135.3" y2="147.3" stroke="rgb(0,0,0)"  stroke-width="1.0"/>
<line x1="130.3" y1="153.6" x2="128.9" y2="148.3" stroke="rgb(0,0,0)"  stroke-width="1.0"/>
<line x1="124.3" y1="155.9" x2="122.6" y2="149.4" stroke="rgb(0,0,0)"  stroke-width="1.0"/>
<line x1="118.3" y1="158.1" x2="116.2" y2="150.4" stroke="rgb(0,0,0)"  stroke-width="1.0"/>
<line x1="117.3" y1="154.3" x2="110.3" y2="128.2" stroke="rgb(0,0,0)"  stroke-width="2.0"/>
<polygon points="117.274066 154.275810 110.785008 193.948119 103.057601 191.877567 " stroke-width="2.000000" fill="rgb(0,0,0)"  stroke="rgb(0,0,0)" />
<line x1="117.3" y1="154.3" x2="91.2" y2="147.3" stroke="rgb(0,0,0)"  stroke-width="2.0"/>
<line x1="106.9" y1="192.9" x2="80.8" y2="185.9" stroke="rgb(0,0,0)"  stroke-width="2.0"/>
<line x1="113.1" y1="198.0" x2="112.0" y2="199.1" stroke="rgb(0,0,0)"  stroke-width="1.0"/>
<line x1="118.1" y1="202.1" x2="116.1" y2="204.1" stroke="rgb(0,0,0)"  stroke-width="1.0"/>
<line x1="123.1" y1="206.1" x2="120.2" y2="209.1" stroke="rgb(0,0,0)"  stroke-width="1.0"/>
<line x1="128.1" y1="210.2" x2="124.2" y2="214.1" stroke="rgb(0,0,0)"  stroke-width="1.0"/>
<line x1="133.1" y1="214.3" x2="128.3" y2="219.0" stroke="rgb(0,0,0)"  stroke-width="1.0"/>
<line x1="138.0" y1="218.4" x2="132.4" y2="224.0" stroke="rgb(0,0,0)"  stroke-width="1.0"/>
<line x1="106.9" y1="192.9" x2="87.8" y2="212.0" stroke="rgb(0,0,0)"  stroke-width="2.0"/>
<line x1="135.2" y1="221.2" x2="116.1" y2="240.3" stroke="rgb(0,0,0)"  stroke-width="2.0"/>
<polygon points="135.205576 221.197115 172.807332 206.980649 174.877885 214.708056 " stroke-width="2.000000" fill="rgb(0,0,0)"  stroke="rgb(0,0,0)" />
<line x1="135.2" y1="221.2" x2="142.2" y2="247.3" stroke="rgb(0,0,0)"  stroke-width="2.0"/>
<line x1="176.0" y1="215.8" x2="174.5" y2="216.2" stroke="rgb(0,0,0)"  stroke-width="1.0"/>
<line x1="177.7" y1="219.8" x2="174.9" y2="220.5" stroke="rgb(0,0,0)"  stroke-width="1.0"/>
<line x1="179.5" y1="223.8" x2="175.4" y2="224.8" stroke="rgb(0,0,0)"  stroke-width="1.0"/>
<line x1="181.2" y1="227.7" x2="175.9" y2="229.2" stroke="rgb(0,0,0)"  stroke-width="1.0"/>
<line x1="182.9" y1="231.7" x2="176.4" y2="233.5" stroke="rgb(0,0,0)"  stroke-width="1.0"/>
<line x1="184.6" y1="235.7" x2="176.9" y2="237.8" stroke="rgb(0,0,0)"  stroke-width="1.0"/>
<line x1="173.8" y1="210.8" x2="199.9" y2="217.8" stroke="rgb(0,0,0)"  stroke-width="2.0"/>
<line x1="221.7" y1="212.0" x2="240.8" y2="192.9" stroke="rgb(0,0,0)"  stroke-width="2.0"/>
<line x1="240.8" y1="192.9" x2="230.4" y2="168.0" stroke="rgb(0,0,0)"  stroke-width="2.0"/>
<polygon points="240.763913 192.912843 257.299811 156.271827 264.228015 160.271827 " stroke-width="2.000000" fill="rgb(0,0,0)"  stroke="rgb(0,0,0)" />
<line x1="256.1" y1="221.0" x2="257.5" y2="220.2" stroke="rgb(0,0,0)"  stroke-width="1.0"/>
<line x1="252.3" y1="215.8" x2="254.8" y2="214.4" stroke="rgb(0,0,0)"  stroke-width="1.0"/>
<line x1="248.6" y1="210.6" x2="252.2" y2="208.5" stroke="rgb(0,0,0)"  stroke-width="1.0"/>
<line x1="244.8" y1="205.4" x2="249.5" y2="202.6" stroke="rgb(0,0,0)"  stroke-width="1.0"/>
<line x1="241.1" y1="200.1" x2="246.9" y2="196.8" stroke="rgb(0,0,0)"  stroke-width="1.0"/>
<line x1="237.3" y1="194.9" x2="244.2" y2="190.9" stroke="rgb(0,0,0)"  stroke-width="1.0"/>
<line x1="260.8" y1="227.6" x2="237.4" y2="241.1" stroke="rgb(0,0,0)"  stroke-width="2.0"/>
<line x1="260.8" y1="227.6" x2="260.8" y2="267.6" stroke="rgb(0,0,0)"  stroke-width="2.0"/>
<line x1="320.8" y1="192.9" x2="344.1" y2="206.4" stroke="rgb(0,0,0)"  stroke-width="2.0"/>
<polygon points="320.763913 192.912843 297.299811 160.271827 304.228015 156.271827 " stroke-width="2.000000" fill="rgb(0,0,0)"  stroke="rgb(0,0,0)" />
<line x1="320.8" y1="192.9" x2="344.1" y2="179.4" stroke="rgb(0,0,0)"  stroke-width="2.0"/>
<line x1="300.8" y1="158.3" x2="324.1" y2="144.8" stroke="rgb(0,0,0)"  stroke-width="2.0"/>
<line x1="292.8" y1="159.1" x2="292.8" y2="157.5" stroke="rgb(0,0,0)"  stroke-width="1.0"/>
<line x1="286.4" y1="159.7" x2="286.4" y2="156.8" stroke="rgb(0,0,0)"  stroke-width="1.0"/>
<line x1="280.0" y1="160.4" x2="280.0" y2="156.2" stroke="rgb(0,0,0)"  stroke-width="1.0"/>
<line x1="273.6" y1="161.0" x2="273.6" y2="155.6" stroke="rgb(0,0,0)"  stroke-width="1.0"/>
<line x1="267.2" y1="161.6" x2="267.2" y2="154.9" stroke="rgb(0,0,0)"  stroke-width="1.0"/>
<line x1="260.8" y1="162.3" x2="260.8" y2="154.3" stroke="rgb(0,0,0)"  stroke-width="1.0"/>
<line x1="300.8" y1="158.3" x2="300.8" y2="131.3" stroke="rgb(0,0,0)"  stroke-width="2.0"/>
<polygon points="260.763913 158.271827 256.763913 131.471827 264.763913 131.471827 " stroke-width="2.000000" fill="rgb(0,0,0)"  stroke="rgb(0,0,0)" />
<line x1="260.8" y1="158.3" x2="237.4" y2="144.8" stroke="rgb(0,0,0)"  stroke-width="2.0"/>
<line x1="226.1" y1="125.3" x2="226.1" y2="111.3" stroke="rgb(0,0,0)"  stroke-width="2.0"/>
<line x1="313.8" y1="118.3" x2="327.8" y2="118.3" stroke="rgb(0,0,0)"  stroke-width="2.0"/>
<line x1="300.8" y1="105.3" x2="300.8" y2="91.3" stroke="rgb(0,0,0)"  stroke-width="2.0"/>
<line x1="287.8" y1="118.3" x2="273.8" y2="118.3" stroke="rgb(0,0,0)"  stroke-width="2.0"/>
<line x1="366.7" y1="179.4" x2="378.8" y2="186.4" stroke="rgb(0,0,0)"  stroke-width="2.0"/>
<line x1="260.8" y1="267.6" x2="237.4" y2="281.1" stroke="rgb(0,0,0)"  stroke-width="2.0"/>
<line x1="260.8" y1="267.6" x2="274.3" y2="290.9" stroke="rgb(0,0,0)"  stroke-width="2.0"/>
<line x1="260.8" y1="267.6" x2="287.8" y2="267.6" stroke="rgb(0,0,0)"  stroke-width="2.0"/>
<line x1="226.1" y1="300.6" x2="226.1" y2="314.6" stroke="rgb(0,0,0)"  stroke-width="2.0"/>
<line x1="136.4" y1="269.0" x2="126.5" y2="278.9" stroke="rgb(0,0,0)"  stroke-width="2.0"/>
<line x1="158.1" y1="263.2" x2="171.6" y2="266.8" stroke="rgb(0,0,0)"  stroke-width="2.0"/>
<line x1="66.1" y1="217.8" x2="52.6" y2="214.2" stroke="rgb(0,0,0)"  stroke-width="2.0"/>
<line x1="75.3" y1="131.4" x2="71.6" y2="117.8" stroke="rgb(0,0,0)"  stroke-width="2.0"/>
<line x1="149.4" y1="63.4" x2="142.4" y2="51.3" stroke="rgb(0,0,0)"  stroke-width="2.0"/>
<line x1="106.9" y1="192.9" x2="135.2" y2="221.2" stroke="rgb(0,0,0)"  stroke-width="2.0"/>
<line x1="135.2" y1="221.2" x2="173.8" y2="210.8" stroke="rgb(0,0,0)"  stroke-width="2.0"/>
<line x1="173.8" y1="210.8" x2="180.8" y2="184.8" stroke="rgb(0,0,0)"  stroke-width="2.0"/>
<line x1="175.0" y1="163.0" x2="155.9" y2="143.9" stroke="rgb(0,0,0)"  stroke-width="2.0"/>
<line x1="155.9" y1="143.9" x2="117.3" y2="154.3" stroke="rgb(0,0,0)"  stroke-width="2.0"/>
<line x1="117.3" y1="154.3" x2="106.9" y2="192.9" stroke="rgb(0,0,0)"  stroke-width="2.0"/>
<line x1="307.3" y1="216.3" x2="320.8" y2="192.9" stroke="rgb(0,0,0)"  stroke-width="2.0"/>
<line x1="320.8" y1="192.9" x2="300.8" y2="158.3" stroke="rgb(0,0,0)"  stroke-width="2.0"/>
<line x1="300.8" y1="158.3" x2="260.8" y2="158.3" stroke="rgb(0,0,0)"  stroke-width="2.0"/>
<line x1="260.8" y1="158.3" x2="240.8" y2="192.9" stroke="rgb(0,0,0)"  stroke-width="2.0"/>
<line x1="240.8" y1="192.9" x2="260.8" y2="227.6" stroke="rgb(0,0,0)"  stroke-width="2.0"/>
<line x1="260.8" y1="227.6" x2="287.8" y2="227.6" stroke="rgb(0,0,0)"  stroke-width="2.0"/>
<text x="334.763913" y="126.271827" fill="rgb(191,191,191)"  stroke="rgb(191,191,191)" stroke-width="1" font-size="16" >H</text>
<text x="305.563913" y="114.239827" fill="rgb(12,12,255)"  stroke="rgb(12,12,255)" stroke-width="1" font-size="16" >+</text>
<text x="294.763913" y="126.271827" fill="rgb(12,12,255)"  stroke="rgb(12,12,255)" stroke-width="1" font-size="16" >N</text>
<text x="349.404929" y="180.912843" fill="rgb(255,12,12)"  stroke="rgb(255,12,12)" stroke-width="1" font-size="16" >O</text>
<text x="220.122897" y="295.553859" fill="rgb(255,12,12)"  stroke="rgb(255,12,12)" stroke-width="1" font-size="16" >O</text>
<text x="139.558337" y="267.834148" fill="rgb(12,12,255)"  stroke="rgb(12,12,255)" stroke-width="1" font-size="16" >N</text>
<text x="72.637033" y="229.197115" fill="rgb(255,12,12)"  stroke="rgb(255,12,12)" stroke-width="1" font-size="16" >O</text>
<text x="72.637033" y="151.923048" fill="rgb(255,12,12)"  stroke="rgb(255,12,12)" stroke-width="1" font-size="16" >O</text>
<text x="149.911099" y="82.641016" fill="rgb(255,12,12)"  stroke="rgb(255,12,12)" stroke-width="1" font-size="16" >O</text>
<text x="95.270083" y="97.282032" fill="rgb(191,191,191)"  stroke="rgb(191,191,191)" stroke-width="1" font-size="16" >H</text>
<text x="95.270083" y="137.282032" fill="rgb(191,191,191)"  stroke="rgb(191,191,191)" stroke-width="1" font-size="16" >H</text>
<text x="220.122897" y="106.271827" fill="rgb(191,191,191)"  stroke="rgb(191,191,191)" stroke-width="1" font-size="16" >H</text>
<text x="220.122897" y="146.271827" fill="rgb(255,12,12)"  stroke="rgb(255,12,12)" stroke-width="1" font-size="16" >O</text>
<text x="294.763913" y="86.271827" fill="rgb(191,191,191)"  stroke="rgb(191,191,191)" stroke-width="1" font-size="16" >H</text>
<text x="384.045945" y="200.912843" fill="rgb(191,191,191)"  stroke="rgb(191,191,191)" stroke-width="1" font-size="16" >H</text>
<text x="274.763913" y="310.194876" fill="rgb(191,191,191)"  stroke="rgb(191,191,191)" stroke-width="1" font-size="16" >H</text>
<text x="294.763913" y="275.553859" fill="rgb(191,191,191)"  stroke="rgb(191,191,191)" stroke-width="1" font-size="16" >H</text>
<text x="220.122897" y="335.553859" fill="rgb(191,191,191)"  stroke="rgb(191,191,191)" stroke-width="1" font-size="16" >H</text>
<text x="111.274066" y="296.118419" fill="rgb(191,191,191)"  stroke="rgb(191,191,191)" stroke-width="1" font-size="16" >H</text>
<text x="34.000000" y="218.844353" fill="rgb(191,191,191)"  stroke="rgb(191,191,191)" stroke-width="1" font-size="16" >H</text>
<text x="62.284271" y="113.286015" fill="rgb(191,191,191)"  stroke="rgb(191,191,191)" stroke-width="1" font-size="16" >H</text>
<text x="129.911099" y="48.000000" fill="rgb(191,191,191)"  stroke="rgb(191,191,191)" stroke-width="1" font-size="16" >H</text>
<text x="254.763913" y="126.271827" fill="rgb(191,191,191)"  stroke="rgb(191,191,191)" stroke-width="1" font-size="16" >H</text>
<text x="178.195370" y="278.186909" fill="rgb(191,191,191)"  stroke="rgb(191,191,191)" stroke-width="1" font-size="16" >H</text>
<text x="206.479642" y="229.197115" fill="rgb(255,12,12)"  stroke="rgb(255,12,12)" stroke-width="1" font-size="16" >O</text>
<text x="189.568894" y="146.702001" fill="rgb(191,191,191)"  stroke="rgb(191,191,191)" stroke-width="1" font-size="16" >H</text>
<text x="100.921304" y="123.638777" fill="rgb(191,191,191)"  stroke="rgb(191,191,191)" stroke-width="1" font-size="16" >H</text>
<text x="62.284271" y="190.560082" fill="rgb(191,191,191)"  stroke="rgb(191,191,191)" stroke-width="1" font-size="16" >H</text>
<text x="100.921304" y="257.481386" fill="rgb(191,191,191)"  stroke="rgb(191,191,191)" stroke-width="1" font-size="16" >H</text>
<text x="178.195370" y="257.481386" fill="rgb(191,191,191)"  stroke="rgb(191,191,191)" stroke-width="1" font-size="16" >H</text>
<text x="178.195370" y="180.207320" fill="rgb(255,12,12)"  stroke="rgb(255,12,12)" stroke-width="1" font-size="16" >O</text>
<text x="219.456576" y="163.957662" fill="rgb(191,191,191)"  stroke="rgb(191,191,191)" stroke-width="1" font-size="16" >H</text>
<text x="220.122897" y="255.553859" fill="rgb(191,191,191)"  stroke="rgb(191,191,191)" stroke-width="1" font-size="16" >H</text>
<text x="294.763913" y="235.553859" fill="rgb(255,12,12)"  stroke="rgb(255,12,12)" stroke-width="1" font-size="16" >O</text>
<text x="349.404929" y="220.912843" fill="rgb(191,191,191)"  stroke="rgb(191,191,191)" stroke-width="1" font-size="16" >H</text>
<text x="329.404929" y="146.271827" fill="rgb(191,191,191)"  stroke="rgb(191,191,191)" stroke-width="1" font-size="16" >H</text>
<text x="254.763913" y="126.271827" fill="rgb(191,191,191)"  stroke="rgb(191,191,191)" stroke-width="1" font-size="16" >H</text>
</svg>
</g>
<text font-size="18.000000" fill ="black" font-family="sans-serif"
x="10.000000" y="20.000000" >ZINC25723126</text>
</svg>
