<?xml version="1.0"?>
<svg version="1.1" id="topsvg"
xmlns="http://www.w3.org/2000/svg" xmlns:xlink="http://www.w3.org/1999/xlink"
xmlns:cml="http://www.xml-cml.org/schema" x="0" y="0" width="200px" height="200px" viewBox="0 0 100 100">
<title>ZINC98220815 - Open Babel Depiction</title>
<rect x="0" y="0" width="100" height="100" fill="white"/>
<g transform="translate(0,0)">
<svg width="100" height="100" x="0" y="0" viewBox="0 0 483.335 470.956"
font-family="sans-serif" stroke="rgb(0,0,0)" stroke-width="2"  stroke-linecap="round">
<line x1="349.8" y1="363.4" x2="340.0" y2="326.6" stroke="rgb(0,0,0)"  stroke-width="2.0"/>
<line x1="349.8" y1="363.4" x2="367.6" y2="381.1" stroke="rgb(0,0,0)"  stroke-width="2.0"/>
<line x1="349.8" y1="363.4" x2="374.1" y2="356.9" stroke="rgb(0,0,0)"  stroke-width="2.0"/>
<line x1="349.8" y1="363.4" x2="332.1" y2="381.1" stroke="rgb(0,0,0)"  stroke-width="2.0"/>
<line x1="344.7" y1="324.5" x2="345.1" y2="326.0" stroke="rgb(0,0,0)"  stroke-width="1.0"/>
<line x1="348.5" y1="322.8" x2="349.2" y2="325.6" stroke="rgb(0,0,0)"  stroke-width="1.0"/>
<line x1="352.3" y1="321.2" x2="353.3" y2="325.2" stroke="rgb(0,0,0)"  stroke-width="1.0"/>
<line x1="356.0" y1="319.5" x2="357.4" y2="324.7" stroke="rgb(0,0,0)"  stroke-width="1.0"/>
<line x1="359.8" y1="317.8" x2="361.6" y2="324.3" stroke="rgb(0,0,0)"  stroke-width="1.0"/>
<line x1="363.6" y1="316.1" x2="365.7" y2="323.9" stroke="rgb(0,0,0)"  stroke-width="1.0"/>
<line x1="340.0" y1="326.6" x2="320.3" y2="253.0" stroke="rgb(0,0,0)"  stroke-width="2.0"/>
<line x1="340.0" y1="326.6" x2="315.8" y2="333.1" stroke="rgb(0,0,0)"  stroke-width="2.0"/>
<line x1="320.3" y1="253.0" x2="295.4" y2="249.8" stroke="rgb(0,0,0)"  stroke-width="2.0"/>
<line x1="327.9" y1="252.2" x2="327.9" y2="253.8" stroke="rgb(0,0,0)"  stroke-width="1.0"/>
<line x1="334.0" y1="251.6" x2="334.0" y2="254.5" stroke="rgb(0,0,0)"  stroke-width="1.0"/>
<line x1="340.1" y1="251.0" x2="340.1" y2="255.1" stroke="rgb(0,0,0)"  stroke-width="1.0"/>
<line x1="346.2" y1="250.3" x2="346.2" y2="255.8" stroke="rgb(0,0,0)"  stroke-width="1.0"/>
<line x1="352.3" y1="249.7" x2="352.3" y2="256.4" stroke="rgb(0,0,0)"  stroke-width="1.0"/>
<line x1="358.4" y1="249.0" x2="358.4" y2="257.0" stroke="rgb(0,0,0)"  stroke-width="1.0"/>
<line x1="358.4" y1="253.0" x2="358.4" y2="278.1" stroke="rgb(0,0,0)"  stroke-width="2.0"/>
<polygon points="358.355879 253.043169 373.927922 218.071599 380.856125 222.071599 " stroke-width="2.000000" fill="rgb(0,0,0)"  stroke="rgb(0,0,0)" />
<line x1="358.4" y1="253.0" x2="380.1" y2="265.6" stroke="rgb(0,0,0)"  stroke-width="2.0"/>
<line x1="377.4" y1="220.1" x2="399.1" y2="232.6" stroke="rgb(0,0,0)"  stroke-width="2.0"/>
<line x1="372.9" y1="213.9" x2="374.3" y2="213.1" stroke="rgb(0,0,0)"  stroke-width="1.0"/>
<line x1="369.3" y1="208.9" x2="371.8" y2="207.5" stroke="rgb(0,0,0)"  stroke-width="1.0"/>
<line x1="365.7" y1="204.0" x2="369.3" y2="201.9" stroke="rgb(0,0,0)"  stroke-width="1.0"/>
<line x1="362.1" y1="199.0" x2="366.8" y2="196.3" stroke="rgb(0,0,0)"  stroke-width="1.0"/>
<line x1="358.5" y1="194.1" x2="364.3" y2="190.7" stroke="rgb(0,0,0)"  stroke-width="1.0"/>
<line x1="354.9" y1="189.1" x2="361.8" y2="185.1" stroke="rgb(0,0,0)"  stroke-width="1.0"/>
<line x1="377.4" y1="220.1" x2="399.1" y2="207.5" stroke="rgb(0,0,0)"  stroke-width="2.0"/>
<line x1="358.4" y1="187.1" x2="380.1" y2="174.6" stroke="rgb(0,0,0)"  stroke-width="2.0"/>
<polygon points="358.355879 187.100029 320.283590 191.100029 320.283590 183.100029 " stroke-width="2.000000" fill="rgb(0,0,0)"  stroke="rgb(0,0,0)" />
<line x1="358.4" y1="187.1" x2="358.4" y2="162.0" stroke="rgb(0,0,0)"  stroke-width="2.0"/>
<polygon points="320.283590 187.100029 316.283590 161.591596 324.283590 161.591596 " stroke-width="2.000000" fill="rgb(0,0,0)"  stroke="rgb(0,0,0)" />
<line x1="320.3" y1="187.1" x2="298.6" y2="174.6" stroke="rgb(0,0,0)"  stroke-width="2.0"/>
<line x1="276.1" y1="174.6" x2="254.3" y2="187.1" stroke="rgb(0,0,0)"  stroke-width="2.0"/>
<line x1="254.3" y1="187.1" x2="262.6" y2="249.7" stroke="rgb(0,0,0)"  stroke-width="2.0"/>
<polygon points="254.340450 187.100029 230.247704 216.849630 224.590849 211.192776 " stroke-width="2.000000" fill="rgb(0,0,0)"  stroke="rgb(0,0,0)" />
<line x1="247.2" y1="157.5" x2="245.7" y2="157.9" stroke="rgb(0,0,0)"  stroke-width="1.0"/>
<line x1="249.4" y1="163.2" x2="246.6" y2="163.9" stroke="rgb(0,0,0)"  stroke-width="1.0"/>
<line x1="251.6" y1="168.9" x2="247.6" y2="170.0" stroke="rgb(0,0,0)"  stroke-width="1.0"/>
<line x1="253.8" y1="174.6" x2="248.6" y2="176.0" stroke="rgb(0,0,0)"  stroke-width="1.0"/>
<line x1="256.0" y1="180.3" x2="249.5" y2="182.1" stroke="rgb(0,0,0)"  stroke-width="1.0"/>
<line x1="258.2" y1="186.1" x2="250.5" y2="188.1" stroke="rgb(0,0,0)"  stroke-width="1.0"/>
<line x1="244.5" y1="150.3" x2="268.7" y2="143.8" stroke="rgb(0,0,0)"  stroke-width="2.0"/>
<line x1="244.5" y1="150.3" x2="260.8" y2="89.3" stroke="rgb(0,0,0)"  stroke-width="2.0"/>
<line x1="207.7" y1="140.5" x2="214.2" y2="116.3" stroke="rgb(0,0,0)"  stroke-width="2.0"/>
<line x1="207.7" y1="140.5" x2="190.0" y2="122.7" stroke="rgb(0,0,0)"  stroke-width="2.0"/>
<line x1="180.8" y1="167.4" x2="163.1" y2="149.7" stroke="rgb(0,0,0)"  stroke-width="2.0"/>
<polygon points="180.790436 167.392362 194.507973 203.132094 186.780566 205.202646 " stroke-width="2.000000" fill="rgb(0,0,0)"  stroke="rgb(0,0,0)" />
<line x1="180.8" y1="167.4" x2="156.6" y2="173.9" stroke="rgb(0,0,0)"  stroke-width="2.0"/>
<line x1="190.6" y1="204.2" x2="166.4" y2="210.7" stroke="rgb(0,0,0)"  stroke-width="2.0"/>
<line x1="198.2" y1="205.4" x2="197.8" y2="206.9" stroke="rgb(0,0,0)"  stroke-width="1.0"/>
<line x1="204.3" y1="206.3" x2="203.5" y2="209.1" stroke="rgb(0,0,0)"  stroke-width="1.0"/>
<line x1="210.3" y1="207.3" x2="209.2" y2="211.3" stroke="rgb(0,0,0)"  stroke-width="1.0"/>
<line x1="216.4" y1="208.2" x2="214.9" y2="213.5" stroke="rgb(0,0,0)"  stroke-width="1.0"/>
<line x1="222.4" y1="209.2" x2="220.7" y2="215.7" stroke="rgb(0,0,0)"  stroke-width="1.0"/>
<line x1="228.5" y1="210.2" x2="226.4" y2="217.9" stroke="rgb(0,0,0)"  stroke-width="1.0"/>
<line x1="190.6" y1="204.2" x2="184.2" y2="228.4" stroke="rgb(0,0,0)"  stroke-width="2.0"/>
<polygon points="227.419277 214.021203 224.680911 239.695734 216.953505 237.625182 " stroke-width="2.000000" fill="rgb(0,0,0)"  stroke="rgb(0,0,0)" />
<line x1="227.4" y1="214.0" x2="245.1" y2="231.7" stroke="rgb(0,0,0)"  stroke-width="2.0"/>
<line x1="251.0" y1="253.5" x2="247.9" y2="265.2" stroke="rgb(0,0,0)"  stroke-width="2.0"/>
<line x1="168.2" y1="244.3" x2="144.0" y2="250.8" stroke="rgb(0,0,0)"  stroke-width="2.0"/>
<line x1="144.0" y1="250.8" x2="128.8" y2="230.9" stroke="rgb(0,0,0)"  stroke-width="2.0"/>
<line x1="148.5" y1="257.0" x2="147.1" y2="257.8" stroke="rgb(0,0,0)"  stroke-width="1.0"/>
<line x1="152.1" y1="261.9" x2="149.6" y2="263.4" stroke="rgb(0,0,0)"  stroke-width="1.0"/>
<line x1="155.7" y1="266.9" x2="152.1" y2="269.0" stroke="rgb(0,0,0)"  stroke-width="1.0"/>
<line x1="159.3" y1="271.9" x2="154.6" y2="274.6" stroke="rgb(0,0,0)"  stroke-width="1.0"/>
<line x1="162.9" y1="276.8" x2="157.1" y2="280.2" stroke="rgb(0,0,0)"  stroke-width="1.0"/>
<line x1="166.5" y1="281.8" x2="159.6" y2="285.8" stroke="rgb(0,0,0)"  stroke-width="1.0"/>
<line x1="163.1" y1="283.8" x2="184.8" y2="271.2" stroke="rgb(0,0,0)"  stroke-width="2.0"/>
<line x1="159.9" y1="290.8" x2="158.6" y2="290.0" stroke="rgb(0,0,0)"  stroke-width="1.0"/>
<line x1="157.4" y1="296.4" x2="155.0" y2="294.9" stroke="rgb(0,0,0)"  stroke-width="1.0"/>
<line x1="155.0" y1="302.0" x2="151.4" y2="299.9" stroke="rgb(0,0,0)"  stroke-width="1.0"/>
<line x1="152.5" y1="307.5" x2="147.8" y2="304.8" stroke="rgb(0,0,0)"  stroke-width="1.0"/>
<line x1="150.0" y1="313.1" x2="144.2" y2="309.8" stroke="rgb(0,0,0)"  stroke-width="1.0"/>
<line x1="147.5" y1="318.7" x2="140.6" y2="314.7" stroke="rgb(0,0,0)"  stroke-width="1.0"/>
<line x1="163.1" y1="283.8" x2="184.8" y2="296.3" stroke="rgb(0,0,0)"  stroke-width="2.0"/>
<line x1="144.0" y1="316.7" x2="165.7" y2="329.3" stroke="rgb(0,0,0)"  stroke-width="2.0"/>
<polygon points="144.015428 316.739350 105.943139 320.739350 105.943139 312.739350 " stroke-width="2.000000" fill="rgb(0,0,0)"  stroke="rgb(0,0,0)" />
<line x1="144.0" y1="316.7" x2="144.0" y2="379.9" stroke="rgb(0,0,0)"  stroke-width="2.0"/>
<line x1="105.9" y1="316.7" x2="105.9" y2="354.8" stroke="rgb(0,0,0)"  stroke-width="2.0"/>
<line x1="101.9" y1="320.0" x2="101.1" y2="318.6" stroke="rgb(0,0,0)"  stroke-width="1.0"/>
<line x1="98.7" y1="322.6" x2="97.3" y2="320.1" stroke="rgb(0,0,0)"  stroke-width="1.0"/>
<line x1="95.5" y1="325.2" x2="93.4" y2="321.6" stroke="rgb(0,0,0)"  stroke-width="1.0"/>
<line x1="92.3" y1="327.8" x2="89.6" y2="323.1" stroke="rgb(0,0,0)"  stroke-width="1.0"/>
<line x1="89.1" y1="330.4" x2="85.7" y2="324.5" stroke="rgb(0,0,0)"  stroke-width="1.0"/>
<line x1="85.9" y1="333.0" x2="81.9" y2="326.0" stroke="rgb(0,0,0)"  stroke-width="1.0"/>
<line x1="86.9" y1="283.8" x2="65.2" y2="296.3" stroke="rgb(0,0,0)"  stroke-width="2.0"/>
<line x1="86.9" y1="283.8" x2="65.2" y2="271.2" stroke="rgb(0,0,0)"  stroke-width="2.0"/>
<line x1="105.9" y1="354.8" x2="93.4" y2="376.5" stroke="rgb(0,0,0)"  stroke-width="2.0"/>
<line x1="105.9" y1="354.8" x2="80.9" y2="354.8" stroke="rgb(0,0,0)"  stroke-width="2.0"/>
<line x1="105.9" y1="354.8" x2="127.7" y2="367.3" stroke="rgb(0,0,0)"  stroke-width="2.0"/>
<line x1="61.7" y1="329.3" x2="51.3" y2="323.2" stroke="rgb(0,0,0)"  stroke-width="2.0"/>
<line x1="157.0" y1="392.9" x2="182.1" y2="392.9" stroke="rgb(0,0,0)"  stroke-width="2.0"/>
<line x1="144.0" y1="405.9" x2="144.0" y2="418.0" stroke="rgb(0,0,0)"  stroke-width="2.0"/>
<line x1="131.0" y1="392.9" x2="118.9" y2="392.9" stroke="rgb(0,0,0)"  stroke-width="2.0"/>
<line x1="182.1" y1="392.9" x2="203.8" y2="405.4" stroke="rgb(0,0,0)"  stroke-width="2.0"/>
<line x1="182.1" y1="392.9" x2="182.1" y2="418.0" stroke="rgb(0,0,0)"  stroke-width="2.0"/>
<line x1="182.1" y1="392.9" x2="194.6" y2="371.2" stroke="rgb(0,0,0)"  stroke-width="2.0"/>
<line x1="196.0" y1="315.8" x2="196.0" y2="327.9" stroke="rgb(0,0,0)"  stroke-width="2.0"/>
<line x1="140.7" y1="164.7" x2="137.5" y2="153.0" stroke="rgb(0,0,0)"  stroke-width="2.0"/>
<line x1="131.5" y1="180.6" x2="119.8" y2="183.7" stroke="rgb(0,0,0)"  stroke-width="2.0"/>
<line x1="147.4" y1="189.8" x2="150.5" y2="201.5" stroke="rgb(0,0,0)"  stroke-width="2.0"/>
<line x1="276.8" y1="80.1" x2="288.4" y2="83.3" stroke="rgb(0,0,0)"  stroke-width="2.0"/>
<line x1="267.6" y1="64.2" x2="270.7" y2="52.6" stroke="rgb(0,0,0)"  stroke-width="2.0"/>
<line x1="251.6" y1="73.4" x2="240.0" y2="70.3" stroke="rgb(0,0,0)"  stroke-width="2.0"/>
<line x1="369.6" y1="142.5" x2="380.1" y2="136.5" stroke="rgb(0,0,0)"  stroke-width="2.0"/>
<line x1="347.1" y1="142.5" x2="336.6" y2="136.5" stroke="rgb(0,0,0)"  stroke-width="2.0"/>
<line x1="421.6" y1="207.5" x2="432.1" y2="213.6" stroke="rgb(0,0,0)"  stroke-width="2.0"/>
<line x1="402.6" y1="265.6" x2="413.0" y2="259.5" stroke="rgb(0,0,0)"  stroke-width="2.0"/>
<line x1="299.9" y1="349.0" x2="296.7" y2="360.7" stroke="rgb(0,0,0)"  stroke-width="2.0"/>
<line x1="377.4" y1="220.1" x2="358.4" y2="187.1" stroke="rgb(0,0,0)"  stroke-width="2.0"/>
<line x1="358.4" y1="187.1" x2="320.3" y2="187.1" stroke="rgb(0,0,0)"  stroke-width="2.0"/>
<line x1="320.3" y1="187.1" x2="307.7" y2="208.8" stroke="rgb(0,0,0)"  stroke-width="2.0"/>
<line x1="307.7" y1="231.3" x2="320.3" y2="253.0" stroke="rgb(0,0,0)"  stroke-width="2.0"/>
<line x1="320.3" y1="253.0" x2="358.4" y2="253.0" stroke="rgb(0,0,0)"  stroke-width="2.0"/>
<line x1="358.4" y1="253.0" x2="377.4" y2="220.1" stroke="rgb(0,0,0)"  stroke-width="2.0"/>
<line x1="207.7" y1="140.5" x2="180.8" y2="167.4" stroke="rgb(0,0,0)"  stroke-width="2.0"/>
<line x1="180.8" y1="167.4" x2="190.6" y2="204.2" stroke="rgb(0,0,0)"  stroke-width="2.0"/>
<line x1="190.6" y1="204.2" x2="227.4" y2="214.0" stroke="rgb(0,0,0)"  stroke-width="2.0"/>
<line x1="227.4" y1="214.0" x2="254.3" y2="187.1" stroke="rgb(0,0,0)"  stroke-width="2.0"/>
<line x1="254.3" y1="187.1" x2="244.5" y2="150.3" stroke="rgb(0,0,0)"  stroke-width="2.0"/>
<line x1="244.5" y1="150.3" x2="207.7" y2="140.5" stroke="rgb(0,0,0)"  stroke-width="2.0"/>
<line x1="144.0" y1="316.7" x2="105.9" y2="316.7" stroke="rgb(0,0,0)"  stroke-width="2.0"/>
<line x1="105.9" y1="316.7" x2="86.9" y2="283.8" stroke="rgb(0,0,0)"  stroke-width="2.0"/>
<line x1="86.9" y1="283.8" x2="99.4" y2="262.1" stroke="rgb(0,0,0)"  stroke-width="2.0"/>
<line x1="118.9" y1="250.8" x2="144.0" y2="250.8" stroke="rgb(0,0,0)"  stroke-width="2.0"/>
<line x1="144.0" y1="250.8" x2="163.1" y2="283.8" stroke="rgb(0,0,0)"  stroke-width="2.0"/>
<line x1="163.1" y1="283.8" x2="144.0" y2="316.7" stroke="rgb(0,0,0)"  stroke-width="2.0"/>
<text x="370.766264" y="398.289365" fill="rgb(191,191,191)"  stroke="rgb(191,191,191)" stroke-width="1" font-size="16" >H</text>
<text x="61.870850" y="362.811639" fill="rgb(191,191,191)"  stroke="rgb(191,191,191)" stroke-width="1" font-size="16" >H</text>
<text x="80.906995" y="395.783209" fill="rgb(191,191,191)"  stroke="rgb(191,191,191)" stroke-width="1" font-size="16" >H</text>
<text x="47.935425" y="272.731636" fill="rgb(191,191,191)"  stroke="rgb(191,191,191)" stroke-width="1" font-size="16" >H</text>
<text x="47.935425" y="310.803925" fill="rgb(191,191,191)"  stroke="rgb(191,191,191)" stroke-width="1" font-size="16" >H</text>
<text x="238.486617" y="285.717384" fill="rgb(191,191,191)"  stroke="rgb(191,191,191)" stroke-width="1" font-size="16" >H</text>
<text x="174.790436" y="121.550015" fill="rgb(191,191,191)"  stroke="rgb(191,191,191)" stroke-width="1" font-size="16" >H</text>
<text x="211.565443" y="111.696181" fill="rgb(191,191,191)"  stroke="rgb(191,191,191)" stroke-width="1" font-size="16" >H</text>
<text x="316.923916" y="398.289365" fill="rgb(191,191,191)"  stroke="rgb(191,191,191)" stroke-width="1" font-size="16" >H</text>
<text x="380.620098" y="361.514357" fill="rgb(191,191,191)"  stroke="rgb(191,191,191)" stroke-width="1" font-size="16" >H</text>
<text x="132.914709" y="381.847784" fill="rgb(191,191,191)"  stroke="rgb(191,191,191)" stroke-width="1" font-size="16" >H</text>
<text x="297.216249" y="344.447017" fill="rgb(255,12,12)"  stroke="rgb(255,12,12)" stroke-width="1" font-size="16" >O</text>
<text x="385.327448" y="280.079313" fill="rgb(255,12,12)"  stroke="rgb(255,12,12)" stroke-width="1" font-size="16" >O</text>
<text x="404.363593" y="209.035454" fill="rgb(255,12,12)"  stroke="rgb(255,12,12)" stroke-width="1" font-size="16" >O</text>
<text x="352.355879" y="157.027740" fill="rgb(12,12,255)"  stroke="rgb(12,12,255)" stroke-width="1" font-size="16" >N</text>
<text x="268.994284" y="72.743007" fill="rgb(12,12,255)"  stroke="rgb(12,12,255)" stroke-width="1" font-size="16" >+</text>
<text x="258.194284" y="84.775007" fill="rgb(12,12,255)"  stroke="rgb(12,12,255)" stroke-width="1" font-size="16" >N</text>
<text x="148.815428" y="173.214196" fill="rgb(12,12,255)"  stroke="rgb(12,12,255)" stroke-width="1" font-size="16" >+</text>
<text x="138.015428" y="185.246196" fill="rgb(12,12,255)"  stroke="rgb(12,12,255)" stroke-width="1" font-size="16" >N</text>
<text x="190.023143" y="310.803925" fill="rgb(255,12,12)"  stroke="rgb(255,12,12)" stroke-width="1" font-size="16" >O</text>
<text x="148.815428" y="388.851928" fill="rgb(12,12,255)"  stroke="rgb(12,12,255)" stroke-width="1" font-size="16" >+</text>
<text x="138.015428" y="400.883928" fill="rgb(12,12,255)"  stroke="rgb(12,12,255)" stroke-width="1" font-size="16" >N</text>
<text x="294.969291" y="94.628841" fill="rgb(191,191,191)"  stroke="rgb(191,191,191)" stroke-width="1" font-size="16" >H</text>
<text x="319.384309" y="137.991596" fill="rgb(191,191,191)"  stroke="rgb(191,191,191)" stroke-width="1" font-size="16" >H</text>
<text x="147.869262" y="222.021203" fill="rgb(191,191,191)"  stroke="rgb(191,191,191)" stroke-width="1" font-size="16" >H</text>
<text x="99.943139" y="400.883928" fill="rgb(191,191,191)"  stroke="rgb(191,191,191)" stroke-width="1" font-size="16" >H</text>
<text x="221.419277" y="74.921174" fill="rgb(191,191,191)"  stroke="rgb(191,191,191)" stroke-width="1" font-size="16" >H</text>
<text x="287.362416" y="381.222024" fill="rgb(191,191,191)"  stroke="rgb(191,191,191)" stroke-width="1" font-size="16" >H</text>
<text x="418.299018" y="261.043169" fill="rgb(191,191,191)"  stroke="rgb(191,191,191)" stroke-width="1" font-size="16" >H</text>
<text x="437.335163" y="228.071599" fill="rgb(191,191,191)"  stroke="rgb(191,191,191)" stroke-width="1" font-size="16" >H</text>
<text x="385.327448" y="137.991596" fill="rgb(191,191,191)"  stroke="rgb(191,191,191)" stroke-width="1" font-size="16" >H</text>
<text x="268.048117" y="48.000000" fill="rgb(191,191,191)"  stroke="rgb(191,191,191)" stroke-width="1" font-size="16" >H</text>
<text x="66.971570" y="343.775494" fill="rgb(255,12,12)"  stroke="rgb(255,12,12)" stroke-width="1" font-size="16" >O</text>
<text x="101.240421" y="195.100029" fill="rgb(191,191,191)"  stroke="rgb(191,191,191)" stroke-width="1" font-size="16" >H</text>
<text x="128.161595" y="148.471189" fill="rgb(191,191,191)"  stroke="rgb(191,191,191)" stroke-width="1" font-size="16" >H</text>
<text x="190.023143" y="348.876214" fill="rgb(191,191,191)"  stroke="rgb(191,191,191)" stroke-width="1" font-size="16" >H</text>
<text x="195.123862" y="367.912359" fill="rgb(191,191,191)"  stroke="rgb(191,191,191)" stroke-width="1" font-size="16" >H</text>
<text x="176.087717" y="438.956217" fill="rgb(191,191,191)"  stroke="rgb(191,191,191)" stroke-width="1" font-size="16" >H</text>
<text x="209.059287" y="419.920073" fill="rgb(191,191,191)"  stroke="rgb(191,191,191)" stroke-width="1" font-size="16" >H</text>
<text x="138.015428" y="438.956217" fill="rgb(191,191,191)"  stroke="rgb(191,191,191)" stroke-width="1" font-size="16" >H</text>
<text x="34.000000" y="324.739350" fill="rgb(191,191,191)"  stroke="rgb(191,191,191)" stroke-width="1" font-size="16" >H</text>
<text x="275.261624" y="148.471189" fill="rgb(191,191,191)"  stroke="rgb(191,191,191)" stroke-width="1" font-size="16" >H</text>
<text x="258.279312" y="270.593180" fill="rgb(191,191,191)"  stroke="rgb(191,191,191)" stroke-width="1" font-size="16" >H</text>
<text x="281.312020" y="176.063885" fill="rgb(255,12,12)"  stroke="rgb(255,12,12)" stroke-width="1" font-size="16" >O</text>
<text x="295.247445" y="228.071599" fill="rgb(255,12,12)"  stroke="rgb(255,12,12)" stroke-width="1" font-size="16" >O</text>
<text x="314.283590" y="157.027740" fill="rgb(191,191,191)"  stroke="rgb(191,191,191)" stroke-width="1" font-size="16" >H</text>
<text x="385.327448" y="176.063885" fill="rgb(191,191,191)"  stroke="rgb(191,191,191)" stroke-width="1" font-size="16" >H</text>
<text x="404.363593" y="247.107744" fill="rgb(191,191,191)"  stroke="rgb(191,191,191)" stroke-width="1" font-size="16" >H</text>
<text x="352.355879" y="299.115458" fill="rgb(191,191,191)"  stroke="rgb(191,191,191)" stroke-width="1" font-size="16" >H</text>
<text x="276.537014" y="256.073738" fill="rgb(191,191,191)"  stroke="rgb(191,191,191)" stroke-width="1" font-size="16" >H</text>
<text x="370.766264" y="324.739350" fill="rgb(191,191,191)"  stroke="rgb(191,191,191)" stroke-width="1" font-size="16" >H</text>
<text x="99.943139" y="258.796211" fill="rgb(255,12,12)"  stroke="rgb(255,12,12)" stroke-width="1" font-size="16" >O</text>
<text x="170.986998" y="343.775494" fill="rgb(191,191,191)"  stroke="rgb(191,191,191)" stroke-width="1" font-size="16" >H</text>
<text x="190.023143" y="272.731636" fill="rgb(191,191,191)"  stroke="rgb(191,191,191)" stroke-width="1" font-size="16" >H</text>
<text x="114.838487" y="228.591433" fill="rgb(191,191,191)"  stroke="rgb(191,191,191)" stroke-width="1" font-size="16" >H</text>
<text x="174.790436" y="248.942377" fill="rgb(255,12,12)"  stroke="rgb(255,12,12)" stroke-width="1" font-size="16" >O</text>
<text x="248.340450" y="248.942377" fill="rgb(255,12,12)"  stroke="rgb(255,12,12)" stroke-width="1" font-size="16" >O</text>
<text x="211.565443" y="258.796211" fill="rgb(191,191,191)"  stroke="rgb(191,191,191)" stroke-width="1" font-size="16" >H</text>
<text x="147.869262" y="222.021203" fill="rgb(191,191,191)"  stroke="rgb(191,191,191)" stroke-width="1" font-size="16" >H</text>
<text x="147.869262" y="148.471189" fill="rgb(191,191,191)"  stroke="rgb(191,191,191)" stroke-width="1" font-size="16" >H</text>
</svg>
</g>
<text font-size="18.000000" fill ="black" font-family="sans-serif"
x="10.000000" y="20.000000" >ZINC98220815</text>
</svg>
