<?xml version="1.0"?>
<svg version="1.1" id="topsvg"
xmlns="http://www.w3.org/2000/svg" xmlns:xlink="http://www.w3.org/1999/xlink"
xmlns:cml="http://www.xml-cml.org/schema" x="0" y="0" width="200px" height="200px" viewBox="0 0 100 100">
<title>ZINC00164983 - Open Babel Depiction</title>
<rect x="0" y="0" width="100" height="100" fill="white"/>
<g transform="translate(0,0)">
<svg width="100" height="100" x="0" y="0" viewBox="0 0 280.054 268.436"
font-family="sans-serif" stroke="rgb(0,0,0)" stroke-width="2"  stroke-linecap="round">
<line x1="200.3" y1="79.8" x2="176.8" y2="112.1" stroke="rgb(0,0,0)"  stroke-width="2.0"/>
<line x1="200.3" y1="79.8" x2="203.1" y2="52.9" stroke="rgb(0,0,0)"  stroke-width="2.0"/>
<line x1="200.3" y1="79.8" x2="178.4" y2="63.9" stroke="rgb(0,0,0)"  stroke-width="2.0"/>
<line x1="200.3" y1="79.8" x2="227.1" y2="82.6" stroke="rgb(0,0,0)"  stroke-width="2.0"/>
<line x1="201.5" y1="154.2" x2="214.8" y2="158.5" stroke="rgb(0,0,0)"  stroke-width="2.0"/>
<line x1="156.8" y1="173.7" x2="156.8" y2="200.7" stroke="rgb(0,0,0)"  stroke-width="2.0"/>
<line x1="124.4" y1="150.2" x2="86.4" y2="162.5" stroke="rgb(0,0,0)"  stroke-width="2.0"/>
<line x1="84.4" y1="164.8" x2="64.3" y2="146.7" stroke="rgb(0,0,0)"  stroke-width="2.0"/>
<line x1="88.4" y1="160.3" x2="68.3" y2="142.2" stroke="rgb(0,0,0)"  stroke-width="2.0"/>
<line x1="86.4" y1="162.5" x2="80.7" y2="189.0" stroke="rgb(0,0,0)"  stroke-width="2.0"/>
<line x1="65.7" y1="205.7" x2="52.4" y2="210.0" stroke="rgb(0,0,0)"  stroke-width="2.0"/>
<line x1="87.7" y1="210.4" x2="98.1" y2="219.7" stroke="rgb(0,0,0)"  stroke-width="2.0"/>
<line x1="129.1" y1="101.6" x2="120.9" y2="90.3" stroke="rgb(0,0,0)"  stroke-width="2.0"/>
<line x1="185.1" y1="137.8" x2="176.8" y2="112.1" stroke="rgb(0,0,0)"  stroke-width="2.0"/>
<line x1="176.8" y1="112.1" x2="150.0" y2="112.1" stroke="rgb(0,0,0)"  stroke-width="2.0"/>
<line x1="170.8" y1="119.3" x2="152.0" y2="119.3" stroke="rgb(0,0,0)"  stroke-width="2.0"/>
<line x1="132.7" y1="124.5" x2="124.4" y2="150.2" stroke="rgb(0,0,0)"  stroke-width="2.0"/>
<line x1="124.4" y1="150.2" x2="156.8" y2="173.7" stroke="rgb(0,0,0)"  stroke-width="2.0"/>
<line x1="133.5" y1="147.9" x2="156.1" y2="164.3" stroke="rgb(0,0,0)"  stroke-width="2.0"/>
<line x1="156.8" y1="173.7" x2="178.6" y2="157.8" stroke="rgb(0,0,0)"  stroke-width="2.0"/>
<text x="72.042261" y="209.670400" fill="rgb(12,12,255)"  stroke="rgb(12,12,255)" stroke-width="1" font-size="16" >N</text>
<text x="107.250259" y="87.780876" fill="rgb(191,191,191)"  stroke="rgb(191,191,191)" stroke-width="1" font-size="16" >H</text>
<text x="130.761669" y="120.141556" fill="rgb(12,12,255)"  stroke="rgb(12,12,255)" stroke-width="1" font-size="16" >N</text>
<text x="101.768054" y="236.435624" fill="rgb(191,191,191)"  stroke="rgb(191,191,191)" stroke-width="1" font-size="16" >H</text>
<text x="34.000000" y="222.031080" fill="rgb(191,191,191)"  stroke="rgb(191,191,191)" stroke-width="1" font-size="16" >H</text>
<text x="150.761669" y="221.695226" fill="rgb(191,191,191)"  stroke="rgb(191,191,191)" stroke-width="1" font-size="16" >H</text>
<text x="234.053955" y="91.962014" fill="rgb(191,191,191)"  stroke="rgb(191,191,191)" stroke-width="1" font-size="16" >H</text>
<text x="161.912399" y="64.269466" fill="rgb(191,191,191)"  stroke="rgb(191,191,191)" stroke-width="1" font-size="16" >H</text>
<text x="198.454217" y="48.000000" fill="rgb(191,191,191)"  stroke="rgb(191,191,191)" stroke-width="1" font-size="16" >H</text>
<text x="50.632935" y="143.779272" fill="rgb(178,178,0)"  stroke="rgb(178,178,0)" stroke-width="1" font-size="16" >S</text>
<text x="221.164609" y="170.544496" fill="rgb(191,191,191)"  stroke="rgb(191,191,191)" stroke-width="1" font-size="16" >H</text>
<text x="183.122348" y="158.183816" fill="rgb(12,12,255)"  stroke="rgb(12,12,255)" stroke-width="1" font-size="16" >N</text>
</svg>
</g>
<text font-size="18.000000" fill ="black" font-family="sans-serif"
x="10.000000" y="20.000000" >ZINC00164983</text>
</svg>
