<?xml version="1.0"?>
<svg version="1.1" id="topsvg"
xmlns="http://www.w3.org/2000/svg" xmlns:xlink="http://www.w3.org/1999/xlink"
xmlns:cml="http://www.xml-cml.org/schema" x="0" y="0" width="200px" height="200px" viewBox="0 0 100 100">
<title>ZINC71864485 - Open Babel Depiction</title>
<rect x="0" y="0" width="100" height="100" fill="white"/>
<g transform="translate(0,0)">
<svg width="100" height="100" x="0" y="0" viewBox="0 0 324.294 348.099"
font-family="sans-serif" stroke="rgb(0,0,0)" stroke-width="2"  stroke-linecap="round">
<line x1="240.7" y1="208.3" x2="215.8" y2="239.6" stroke="rgb(0,0,0)"  stroke-width="2.0"/>
<line x1="240.7" y1="208.3" x2="244.7" y2="181.6" stroke="rgb(0,0,0)"  stroke-width="2.0"/>
<line x1="240.7" y1="208.3" x2="219.6" y2="191.5" stroke="rgb(0,0,0)"  stroke-width="2.0"/>
<line x1="240.7" y1="208.3" x2="267.4" y2="212.3" stroke="rgb(0,0,0)"  stroke-width="2.0"/>
<line x1="215.8" y1="239.6" x2="247.1" y2="264.5" stroke="rgb(0,0,0)"  stroke-width="2.0"/>
<line x1="215.8" y1="239.6" x2="190.8" y2="270.9" stroke="rgb(0,0,0)"  stroke-width="2.0"/>
<line x1="215.8" y1="239.6" x2="194.7" y2="222.8" stroke="rgb(0,0,0)"  stroke-width="2.0"/>
<line x1="247.1" y1="264.5" x2="256.9" y2="289.7" stroke="rgb(0,0,0)"  stroke-width="2.0"/>
<line x1="247.1" y1="264.5" x2="230.2" y2="285.6" stroke="rgb(0,0,0)"  stroke-width="2.0"/>
<line x1="247.1" y1="264.5" x2="272.2" y2="254.7" stroke="rgb(0,0,0)"  stroke-width="2.0"/>
<line x1="190.8" y1="270.9" x2="165.7" y2="280.7" stroke="rgb(0,0,0)"  stroke-width="2.0"/>
<line x1="190.8" y1="270.9" x2="169.7" y2="254.0" stroke="rgb(0,0,0)"  stroke-width="2.0"/>
<line x1="190.8" y1="270.9" x2="200.7" y2="296.0" stroke="rgb(0,0,0)"  stroke-width="2.0"/>
<line x1="186.5" y1="201.8" x2="190.5" y2="175.1" stroke="rgb(0,0,0)"  stroke-width="2.0"/>
<line x1="189.4" y1="172.3" x2="214.5" y2="162.4" stroke="rgb(0,0,0)"  stroke-width="2.0"/>
<line x1="191.6" y1="177.9" x2="216.7" y2="168.0" stroke="rgb(0,0,0)"  stroke-width="2.0"/>
<line x1="190.5" y1="175.1" x2="169.4" y2="158.3" stroke="rgb(0,0,0)"  stroke-width="2.0"/>
<line x1="168.1" y1="111.2" x2="193.9" y2="119.1" stroke="rgb(0,0,0)"  stroke-width="2.0"/>
<line x1="168.1" y1="111.2" x2="187.9" y2="92.8" stroke="rgb(0,0,0)"  stroke-width="2.0"/>
<line x1="143.2" y1="79.9" x2="165.5" y2="64.7" stroke="rgb(0,0,0)"  stroke-width="2.0"/>
<line x1="143.2" y1="79.9" x2="141.1" y2="53.0" stroke="rgb(0,0,0)"  stroke-width="2.0"/>
<line x1="104.1" y1="66.9" x2="105.2" y2="53.0" stroke="rgb(0,0,0)"  stroke-width="2.0"/>
<line x1="92.4" y1="72.6" x2="80.9" y2="64.7" stroke="rgb(0,0,0)"  stroke-width="2.0"/>
<line x1="78.2" y1="111.2" x2="58.4" y2="92.8" stroke="rgb(0,0,0)"  stroke-width="2.0"/>
<line x1="78.2" y1="111.2" x2="52.4" y2="119.1" stroke="rgb(0,0,0)"  stroke-width="2.0"/>
<line x1="87.1" y1="150.2" x2="60.4" y2="154.2" stroke="rgb(0,0,0)"  stroke-width="2.0"/>
<line x1="87.1" y1="150.2" x2="77.3" y2="175.3" stroke="rgb(0,0,0)"  stroke-width="2.0"/>
<line x1="123.2" y1="167.5" x2="109.7" y2="190.9" stroke="rgb(0,0,0)"  stroke-width="2.0"/>
<line x1="123.2" y1="167.5" x2="136.7" y2="190.9" stroke="rgb(0,0,0)"  stroke-width="2.0"/>
<line x1="143.2" y1="79.9" x2="116.2" y2="79.9" stroke="rgb(0,0,0)"  stroke-width="2.0"/>
<line x1="95.1" y1="90.1" x2="78.2" y2="111.2" stroke="rgb(0,0,0)"  stroke-width="2.0"/>
<line x1="78.2" y1="111.2" x2="87.1" y2="150.2" stroke="rgb(0,0,0)"  stroke-width="2.0"/>
<line x1="87.1" y1="150.2" x2="123.2" y2="167.5" stroke="rgb(0,0,0)"  stroke-width="2.0"/>
<line x1="123.2" y1="167.5" x2="147.5" y2="155.8" stroke="rgb(0,0,0)"  stroke-width="2.0"/>
<line x1="162.1" y1="137.5" x2="168.1" y2="111.2" stroke="rgb(0,0,0)"  stroke-width="2.0"/>
<line x1="168.1" y1="111.2" x2="143.2" y2="79.9" stroke="rgb(0,0,0)"  stroke-width="2.0"/>
<text x="191.424171" y="91.954502" fill="rgb(191,191,191)"  stroke="rgb(191,191,191)" stroke-width="1" font-size="16" >H</text>
<text x="274.278912" y="222.279376" fill="rgb(191,191,191)"  stroke="rgb(191,191,191)" stroke-width="1" font-size="16" >H</text>
<text x="255.672987" y="309.765487" fill="rgb(191,191,191)"  stroke="rgb(191,191,191)" stroke-width="1" font-size="16" >H</text>
<text x="216.119754" y="303.803796" fill="rgb(191,191,191)"  stroke="rgb(191,191,191)" stroke-width="1" font-size="16" >H</text>
<text x="278.294296" y="257.916896" fill="rgb(191,191,191)"  stroke="rgb(191,191,191)" stroke-width="1" font-size="16" >H</text>
<text x="147.611545" y="293.477845" fill="rgb(191,191,191)"  stroke="rgb(191,191,191)" stroke-width="1" font-size="16" >H</text>
<text x="153.573236" y="253.924612" fill="rgb(191,191,191)"  stroke="rgb(191,191,191)" stroke-width="1" font-size="16" >H</text>
<text x="199.460136" y="316.099154" fill="rgb(191,191,191)"  stroke="rgb(191,191,191)" stroke-width="1" font-size="16" >H</text>
<text x="200.325009" y="130.951618" fill="rgb(191,191,191)"  stroke="rgb(191,191,191)" stroke-width="1" font-size="16" >H</text>
<text x="203.452420" y="191.378093" fill="rgb(191,191,191)"  stroke="rgb(191,191,191)" stroke-width="1" font-size="16" >H</text>
<text x="170.212055" y="65.355350" fill="rgb(191,191,191)"  stroke="rgb(191,191,191)" stroke-width="1" font-size="16" >H</text>
<text x="134.173301" y="48.000000" fill="rgb(191,191,191)"  stroke="rgb(191,191,191)" stroke-width="1" font-size="16" >H</text>
<text x="100.151708" y="48.000000" fill="rgb(191,191,191)"  stroke="rgb(191,191,191)" stroke-width="1" font-size="16" >H</text>
<text x="42.900837" y="91.954502" fill="rgb(191,191,191)"  stroke="rgb(191,191,191)" stroke-width="1" font-size="16" >H</text>
<text x="34.000000" y="130.951618" fill="rgb(191,191,191)"  stroke="rgb(191,191,191)" stroke-width="1" font-size="16" >H</text>
<text x="97.162504" y="210.154893" fill="rgb(191,191,191)"  stroke="rgb(191,191,191)" stroke-width="1" font-size="16" >H</text>
<text x="137.162504" y="210.154893" fill="rgb(191,191,191)"  stroke="rgb(191,191,191)" stroke-width="1" font-size="16" >H</text>
<text x="64.112953" y="65.355350" fill="rgb(191,191,191)"  stroke="rgb(191,191,191)" stroke-width="1" font-size="16" >H</text>
<text x="178.512828" y="222.651353" fill="rgb(255,12,12)"  stroke="rgb(255,12,12)" stroke-width="1" font-size="16" >O</text>
<text x="221.709468" y="168.484479" fill="rgb(255,12,12)"  stroke="rgb(255,12,12)" stroke-width="1" font-size="16" >O</text>
<text x="153.201259" y="158.158528" fill="rgb(12,12,255)"  stroke="rgb(12,12,255)" stroke-width="1" font-size="16" >N</text>
<text x="107.962504" y="75.856152" fill="rgb(12,12,255)"  stroke="rgb(12,12,255)" stroke-width="1" font-size="16" >+</text>
<text x="97.162504" y="87.888152" fill="rgb(12,12,255)"  stroke="rgb(12,12,255)" stroke-width="1" font-size="16" >N</text>
<text x="41.570517" y="164.120218" fill="rgb(127,178,255)"  stroke="rgb(127,178,255)" stroke-width="1" font-size="16" >F</text>
<text x="66.510109" y="195.393478" fill="rgb(127,178,255)"  stroke="rgb(127,178,255)" stroke-width="1" font-size="16" >F</text>
<text x="240.687370" y="176.764453" fill="rgb(191,191,191)"  stroke="rgb(191,191,191)" stroke-width="1" font-size="16" >H</text>
</svg>
</g>
<text font-size="18.000000" fill ="black" font-family="sans-serif"
x="10.000000" y="20.000000" >ZINC71864485</text>
</svg>
