<?xml version="1.0"?>
<svg version="1.1" id="topsvg"
xmlns="http://www.w3.org/2000/svg" xmlns:xlink="http://www.w3.org/1999/xlink"
xmlns:cml="http://www.xml-cml.org/schema" x="0" y="0" width="200px" height="200px" viewBox="0 0 100 100">
<title>ZINC02553987 - Open Babel Depiction</title>
<rect x="0" y="0" width="100" height="100" fill="white"/>
<g transform="translate(0,0)">
<svg width="100" height="100" x="0" y="0" viewBox="0 0 461.799 378.862"
font-family="sans-serif" stroke="rgb(0,0,0)" stroke-width="2"  stroke-linecap="round">
<line x1="75.6" y1="226.7" x2="52.4" y2="219.2" stroke="rgb(0,0,0)"  stroke-width="2.0"/>
<line x1="83.4" y1="263.3" x2="65.2" y2="279.7" stroke="rgb(0,0,0)"  stroke-width="2.0"/>
<line x1="119.0" y1="274.9" x2="124.0" y2="298.8" stroke="rgb(0,0,0)"  stroke-width="2.0"/>
<line x1="146.8" y1="249.9" x2="205.6" y2="269.0" stroke="rgb(0,0,0)"  stroke-width="2.0"/>
<line x1="139.0" y1="213.3" x2="157.1" y2="196.9" stroke="rgb(0,0,0)"  stroke-width="2.0"/>
<line x1="103.4" y1="201.7" x2="98.3" y2="177.8" stroke="rgb(0,0,0)"  stroke-width="2.0"/>
<line x1="229.5" y1="308.6" x2="215.1" y2="328.3" stroke="rgb(0,0,0)"  stroke-width="2.0"/>
<line x1="266.9" y1="308.6" x2="281.3" y2="328.3" stroke="rgb(0,0,0)"  stroke-width="2.0"/>
<line x1="278.5" y1="273.0" x2="301.7" y2="265.5" stroke="rgb(0,0,0)"  stroke-width="2.0"/>
<line x1="248.2" y1="251.0" x2="248.2" y2="226.6" stroke="rgb(0,0,0)"  stroke-width="2.0"/>
<line x1="261.2" y1="213.6" x2="323.1" y2="213.6" stroke="rgb(0,0,0)"  stroke-width="2.0"/>
<line x1="248.2" y1="200.6" x2="248.2" y2="138.7" stroke="rgb(0,0,0)"  stroke-width="2.0"/>
<line x1="235.2" y1="213.6" x2="223.8" y2="213.6" stroke="rgb(0,0,0)"  stroke-width="2.0"/>
<line x1="323.1" y1="213.6" x2="346.7" y2="270.7" stroke="rgb(0,0,0)"  stroke-width="2.0"/>
<line x1="313.4" y1="177.4" x2="289.8" y2="183.8" stroke="rgb(0,0,0)"  stroke-width="2.0"/>
<line x1="313.4" y1="177.4" x2="296.1" y2="160.2" stroke="rgb(0,0,0)"  stroke-width="2.0"/>
<line x1="339.8" y1="151.0" x2="322.6" y2="133.7" stroke="rgb(0,0,0)"  stroke-width="2.0"/>
<line x1="339.8" y1="151.0" x2="346.1" y2="127.4" stroke="rgb(0,0,0)"  stroke-width="2.0"/>
<line x1="376.0" y1="160.7" x2="382.3" y2="137.1" stroke="rgb(0,0,0)"  stroke-width="2.0"/>
<line x1="376.0" y1="160.7" x2="399.6" y2="154.3" stroke="rgb(0,0,0)"  stroke-width="2.0"/>
<line x1="385.7" y1="196.8" x2="409.2" y2="190.5" stroke="rgb(0,0,0)"  stroke-width="2.0"/>
<line x1="385.7" y1="196.8" x2="402.9" y2="214.1" stroke="rgb(0,0,0)"  stroke-width="2.0"/>
<line x1="359.2" y1="223.3" x2="376.5" y2="240.5" stroke="rgb(0,0,0)"  stroke-width="2.0"/>
<line x1="359.2" y1="223.3" x2="352.9" y2="246.9" stroke="rgb(0,0,0)"  stroke-width="2.0"/>
<line x1="248.2" y1="138.7" x2="270.8" y2="129.4" stroke="rgb(0,0,0)"  stroke-width="2.0"/>
<line x1="212.1" y1="148.4" x2="218.4" y2="172.0" stroke="rgb(0,0,0)"  stroke-width="2.0"/>
<line x1="212.1" y1="148.4" x2="194.8" y2="165.7" stroke="rgb(0,0,0)"  stroke-width="2.0"/>
<line x1="185.6" y1="122.0" x2="168.3" y2="139.2" stroke="rgb(0,0,0)"  stroke-width="2.0"/>
<line x1="185.6" y1="122.0" x2="162.0" y2="115.7" stroke="rgb(0,0,0)"  stroke-width="2.0"/>
<line x1="195.3" y1="85.8" x2="171.7" y2="79.5" stroke="rgb(0,0,0)"  stroke-width="2.0"/>
<line x1="195.3" y1="85.8" x2="189.0" y2="62.2" stroke="rgb(0,0,0)"  stroke-width="2.0"/>
<line x1="231.4" y1="76.1" x2="225.1" y2="52.6" stroke="rgb(0,0,0)"  stroke-width="2.0"/>
<line x1="231.4" y1="76.1" x2="248.7" y2="58.9" stroke="rgb(0,0,0)"  stroke-width="2.0"/>
<line x1="257.9" y1="102.6" x2="275.2" y2="85.3" stroke="rgb(0,0,0)"  stroke-width="2.0"/>
<line x1="257.9" y1="102.6" x2="281.5" y2="108.9" stroke="rgb(0,0,0)"  stroke-width="2.0"/>
<line x1="266.9" y1="308.6" x2="278.5" y2="273.0" stroke="rgb(0,0,0)"  stroke-width="2.0"/>
<line x1="278.5" y1="273.0" x2="248.2" y2="251.0" stroke="rgb(0,0,0)"  stroke-width="2.0"/>
<line x1="269.4" y1="275.3" x2="248.8" y2="260.4" stroke="rgb(0,0,0)"  stroke-width="2.0"/>
<line x1="248.2" y1="251.0" x2="228.5" y2="265.4" stroke="rgb(0,0,0)"  stroke-width="2.0"/>
<line x1="222.0" y1="285.4" x2="229.5" y2="308.6" stroke="rgb(0,0,0)"  stroke-width="2.0"/>
<line x1="229.5" y1="308.6" x2="266.9" y2="308.6" stroke="rgb(0,0,0)"  stroke-width="2.0"/>
<line x1="235.5" y1="301.4" x2="260.9" y2="301.4" stroke="rgb(0,0,0)"  stroke-width="2.0"/>
<line x1="119.0" y1="274.9" x2="146.8" y2="249.9" stroke="rgb(0,0,0)"  stroke-width="2.0"/>
<line x1="146.8" y1="249.9" x2="139.0" y2="213.3" stroke="rgb(0,0,0)"  stroke-width="2.0"/>
<line x1="138.5" y1="245.5" x2="133.2" y2="220.6" stroke="rgb(0,0,0)"  stroke-width="2.0"/>
<line x1="139.0" y1="213.3" x2="103.4" y2="201.7" stroke="rgb(0,0,0)"  stroke-width="2.0"/>
<line x1="103.4" y1="201.7" x2="75.6" y2="226.7" stroke="rgb(0,0,0)"  stroke-width="2.0"/>
<line x1="103.8" y1="211.1" x2="84.9" y2="228.1" stroke="rgb(0,0,0)"  stroke-width="2.0"/>
<line x1="75.6" y1="226.7" x2="83.4" y2="263.3" stroke="rgb(0,0,0)"  stroke-width="2.0"/>
<line x1="83.4" y1="263.3" x2="119.0" y2="274.9" stroke="rgb(0,0,0)"  stroke-width="2.0"/>
<line x1="91.3" y1="258.4" x2="115.5" y2="266.2" stroke="rgb(0,0,0)"  stroke-width="2.0"/>
<line x1="339.8" y1="151.0" x2="376.0" y2="160.7" stroke="rgb(0,0,0)"  stroke-width="2.0"/>
<line x1="376.0" y1="160.7" x2="385.7" y2="196.8" stroke="rgb(0,0,0)"  stroke-width="2.0"/>
<line x1="385.7" y1="196.8" x2="359.2" y2="223.3" stroke="rgb(0,0,0)"  stroke-width="2.0"/>
<line x1="359.2" y1="223.3" x2="323.1" y2="213.6" stroke="rgb(0,0,0)"  stroke-width="2.0"/>
<line x1="323.1" y1="213.6" x2="313.4" y2="177.4" stroke="rgb(0,0,0)"  stroke-width="2.0"/>
<line x1="313.4" y1="177.4" x2="339.8" y2="151.0" stroke="rgb(0,0,0)"  stroke-width="2.0"/>
<line x1="185.6" y1="122.0" x2="195.3" y2="85.8" stroke="rgb(0,0,0)"  stroke-width="2.0"/>
<line x1="195.3" y1="85.8" x2="231.4" y2="76.1" stroke="rgb(0,0,0)"  stroke-width="2.0"/>
<line x1="231.4" y1="76.1" x2="257.9" y2="102.6" stroke="rgb(0,0,0)"  stroke-width="2.0"/>
<line x1="257.9" y1="102.6" x2="248.2" y2="138.7" stroke="rgb(0,0,0)"  stroke-width="2.0"/>
<line x1="248.2" y1="138.7" x2="212.1" y2="148.4" stroke="rgb(0,0,0)"  stroke-width="2.0"/>
<line x1="212.1" y1="148.4" x2="185.6" y2="122.0" stroke="rgb(0,0,0)"  stroke-width="2.0"/>
<text x="379.655011" y="257.731153" fill="rgb(191,191,191)"  stroke="rgb(191,191,191)" stroke-width="1" font-size="16" >H</text>
<text x="89.616000" y="173.107777" fill="rgb(191,191,191)"  stroke="rgb(191,191,191)" stroke-width="1" font-size="16" >H</text>
<text x="201.508278" y="346.861547" fill="rgb(191,191,191)"  stroke="rgb(191,191,191)" stroke-width="1" font-size="16" >H</text>
<text x="282.916723" y="346.861547" fill="rgb(191,191,191)"  stroke="rgb(191,191,191)" stroke-width="1" font-size="16" >H</text>
<text x="308.073315" y="269.437515" fill="rgb(191,191,191)"  stroke="rgb(191,191,191)" stroke-width="1" font-size="16" >H</text>
<text x="345.690744" y="290.728784" fill="rgb(191,191,191)"  stroke="rgb(191,191,191)" stroke-width="1" font-size="16" >H</text>
<text x="271.222047" y="195.127352" fill="rgb(191,191,191)"  stroke="rgb(191,191,191)" stroke-width="1" font-size="16" >H</text>
<text x="280.906889" y="158.983031" fill="rgb(191,191,191)"  stroke="rgb(191,191,191)" stroke-width="1" font-size="16" >H</text>
<text x="307.366368" y="132.523551" fill="rgb(191,191,191)"  stroke="rgb(191,191,191)" stroke-width="1" font-size="16" >H</text>
<text x="343.510689" y="122.838710" fill="rgb(191,191,191)"  stroke="rgb(191,191,191)" stroke-width="1" font-size="16" >H</text>
<text x="379.655011" y="132.523551" fill="rgb(191,191,191)"  stroke="rgb(191,191,191)" stroke-width="1" font-size="16" >H</text>
<text x="406.114490" y="158.983031" fill="rgb(191,191,191)"  stroke="rgb(191,191,191)" stroke-width="1" font-size="16" >H</text>
<text x="415.799332" y="195.127352" fill="rgb(191,191,191)"  stroke="rgb(191,191,191)" stroke-width="1" font-size="16" >H</text>
<text x="406.114490" y="231.271673" fill="rgb(191,191,191)"  stroke="rgb(191,191,191)" stroke-width="1" font-size="16" >H</text>
<text x="160.791842" y="196.234211" fill="rgb(191,191,191)"  stroke="rgb(191,191,191)" stroke-width="1" font-size="16" >H</text>
<text x="343.510689" y="267.415995" fill="rgb(191,191,191)"  stroke="rgb(191,191,191)" stroke-width="1" font-size="16" >H</text>
<text x="276.783476" y="132.428355" fill="rgb(191,191,191)"  stroke="rgb(191,191,191)" stroke-width="1" font-size="16" >H</text>
<text x="215.753021" y="192.577285" fill="rgb(191,191,191)"  stroke="rgb(191,191,191)" stroke-width="1" font-size="16" >H</text>
<text x="179.608699" y="182.892443" fill="rgb(191,191,191)"  stroke="rgb(191,191,191)" stroke-width="1" font-size="16" >H</text>
<text x="153.149220" y="156.432964" fill="rgb(191,191,191)"  stroke="rgb(191,191,191)" stroke-width="1" font-size="16" >H</text>
<text x="143.464378" y="120.288642" fill="rgb(191,191,191)"  stroke="rgb(191,191,191)" stroke-width="1" font-size="16" >H</text>
<text x="153.149220" y="84.144321" fill="rgb(191,191,191)"  stroke="rgb(191,191,191)" stroke-width="1" font-size="16" >H</text>
<text x="179.608699" y="57.684842" fill="rgb(191,191,191)"  stroke="rgb(191,191,191)" stroke-width="1" font-size="16" >H</text>
<text x="215.753021" y="48.000000" fill="rgb(191,191,191)"  stroke="rgb(191,191,191)" stroke-width="1" font-size="16" >H</text>
<text x="251.897342" y="57.684842" fill="rgb(191,191,191)"  stroke="rgb(191,191,191)" stroke-width="1" font-size="16" >H</text>
<text x="278.356821" y="84.144321" fill="rgb(191,191,191)"  stroke="rgb(191,191,191)" stroke-width="1" font-size="16" >H</text>
<text x="288.041663" y="120.288642" fill="rgb(191,191,191)"  stroke="rgb(191,191,191)" stroke-width="1" font-size="16" >H</text>
<text x="204.793145" y="221.586832" fill="rgb(191,191,191)"  stroke="rgb(191,191,191)" stroke-width="1" font-size="16" >H</text>
<text x="211.939606" y="281.000731" fill="rgb(12,12,255)"  stroke="rgb(12,12,255)" stroke-width="1" font-size="16" >N</text>
<text x="242.212500" y="221.586832" fill="rgb(255,127,0)"  stroke="rgb(255,127,0)" stroke-width="1" font-size="16" >P</text>
<text x="34.000000" y="223.184649" fill="rgb(191,191,191)"  stroke="rgb(191,191,191)" stroke-width="1" font-size="16" >H</text>
<text x="49.559843" y="296.387953" fill="rgb(191,191,191)"  stroke="rgb(191,191,191)" stroke-width="1" font-size="16" >H</text>
<text x="120.735685" y="319.514386" fill="rgb(191,191,191)"  stroke="rgb(191,191,191)" stroke-width="1" font-size="16" >H</text>
</svg>
</g>
<text font-size="18.000000" fill ="black" font-family="sans-serif"
x="10.000000" y="20.000000" >ZINC02553987</text>
</svg>
