<?xml version="1.0"?>
<svg version="1.1" id="topsvg"
xmlns="http://www.w3.org/2000/svg" xmlns:xlink="http://www.w3.org/1999/xlink"
xmlns:cml="http://www.xml-cml.org/schema" x="0" y="0" width="200px" height="200px" viewBox="0 0 100 100">
<title>ZINC18206988 - Open Babel Depiction</title>
<rect x="0" y="0" width="100" height="100" fill="white"/>
<g transform="translate(0,0)">
<svg width="100" height="100" x="0" y="0" viewBox="0 0 616.63 328.097"
font-family="sans-serif" stroke="rgb(0,0,0)" stroke-width="2"  stroke-linecap="round">
<line x1="472.7" y1="160.0" x2="472.7" y2="187.0" stroke="rgb(0,0,0)"  stroke-width="2.0"/>
<line x1="507.3" y1="140.0" x2="530.7" y2="153.5" stroke="rgb(0,0,0)"  stroke-width="2.0"/>
<line x1="507.3" y1="100.0" x2="530.7" y2="86.5" stroke="rgb(0,0,0)"  stroke-width="2.0"/>
<line x1="472.7" y1="80.0" x2="472.7" y2="53.0" stroke="rgb(0,0,0)"  stroke-width="2.0"/>
<line x1="438.1" y1="100.0" x2="414.7" y2="86.5" stroke="rgb(0,0,0)"  stroke-width="2.0"/>
<line x1="438.1" y1="140.0" x2="403.4" y2="160.0" stroke="rgb(0,0,0)"  stroke-width="2.0"/>
<line x1="364.2" y1="131.0" x2="361.3" y2="117.3" stroke="rgb(0,0,0)"  stroke-width="2.0"/>
<line x1="300.1" y1="173.5" x2="286.6" y2="150.1" stroke="rgb(0,0,0)"  stroke-width="2.0"/>
<line x1="280.1" y1="208.1" x2="240.1" y2="208.1" stroke="rgb(0,0,0)"  stroke-width="2.0"/>
<line x1="300.1" y1="242.7" x2="286.6" y2="266.1" stroke="rgb(0,0,0)"  stroke-width="2.0"/>
<line x1="340.1" y1="242.7" x2="353.6" y2="266.1" stroke="rgb(0,0,0)"  stroke-width="2.0"/>
<line x1="408.9" y1="208.5" x2="419.3" y2="217.8" stroke="rgb(0,0,0)"  stroke-width="2.0"/>
<line x1="220.6" y1="163.4" x2="224.9" y2="150.1" stroke="rgb(0,0,0)"  stroke-width="2.0"/>
<line x1="143.9" y1="168.1" x2="143.9" y2="141.1" stroke="rgb(0,0,0)"  stroke-width="2.0"/>
<line x1="109.3" y1="188.1" x2="85.9" y2="174.6" stroke="rgb(0,0,0)"  stroke-width="2.0"/>
<line x1="109.3" y1="228.1" x2="85.9" y2="241.6" stroke="rgb(0,0,0)"  stroke-width="2.0"/>
<line x1="143.9" y1="248.1" x2="143.9" y2="275.1" stroke="rgb(0,0,0)"  stroke-width="2.0"/>
<line x1="74.6" y1="155.1" x2="74.6" y2="141.1" stroke="rgb(0,0,0)"  stroke-width="2.0"/>
<line x1="63.4" y1="174.6" x2="51.3" y2="181.6" stroke="rgb(0,0,0)"  stroke-width="2.0"/>
<line x1="553.2" y1="86.5" x2="565.4" y2="93.5" stroke="rgb(0,0,0)"  stroke-width="2.0"/>
<line x1="542.0" y1="67.0" x2="542.0" y2="53.0" stroke="rgb(0,0,0)"  stroke-width="2.0"/>
<line x1="340.1" y1="173.5" x2="360.1" y2="208.1" stroke="rgb(0,0,0)"  stroke-width="2.0"/>
<line x1="349.4" y1="175.1" x2="363.4" y2="199.3" stroke="rgb(0,0,0)"  stroke-width="2.0"/>
<line x1="360.1" y1="208.1" x2="386.5" y2="202.5" stroke="rgb(0,0,0)"  stroke-width="2.0"/>
<line x1="400.6" y1="186.7" x2="403.4" y2="160.0" stroke="rgb(0,0,0)"  stroke-width="2.0"/>
<line x1="393.7" y1="183.9" x2="395.6" y2="165.2" stroke="rgb(0,0,0)"  stroke-width="2.0"/>
<line x1="403.4" y1="160.0" x2="378.8" y2="149.0" stroke="rgb(0,0,0)"  stroke-width="2.0"/>
<line x1="358.2" y1="153.4" x2="340.1" y2="173.5" stroke="rgb(0,0,0)"  stroke-width="2.0"/>
<line x1="178.6" y1="188.1" x2="178.6" y2="228.1" stroke="rgb(0,0,0)"  stroke-width="2.0"/>
<line x1="185.8" y1="194.1" x2="185.8" y2="222.1" stroke="rgb(0,0,0)"  stroke-width="2.0"/>
<line x1="178.6" y1="228.1" x2="204.2" y2="236.4" stroke="rgb(0,0,0)"  stroke-width="2.0"/>
<line x1="224.4" y1="229.8" x2="240.1" y2="208.1" stroke="rgb(0,0,0)"  stroke-width="2.0"/>
<line x1="219.7" y1="223.9" x2="230.8" y2="208.7" stroke="rgb(0,0,0)"  stroke-width="2.0"/>
<line x1="240.1" y1="208.1" x2="224.2" y2="186.3" stroke="rgb(0,0,0)"  stroke-width="2.0"/>
<line x1="204.2" y1="179.8" x2="178.6" y2="188.1" stroke="rgb(0,0,0)"  stroke-width="2.0"/>
<line x1="507.3" y1="100.0" x2="472.7" y2="80.0" stroke="rgb(0,0,0)"  stroke-width="2.0"/>
<line x1="472.7" y1="80.0" x2="438.1" y2="100.0" stroke="rgb(0,0,0)"  stroke-width="2.0"/>
<line x1="471.1" y1="89.2" x2="446.9" y2="103.2" stroke="rgb(0,0,0)"  stroke-width="2.0"/>
<line x1="438.1" y1="100.0" x2="438.1" y2="140.0" stroke="rgb(0,0,0)"  stroke-width="2.0"/>
<line x1="438.1" y1="140.0" x2="472.7" y2="160.0" stroke="rgb(0,0,0)"  stroke-width="2.0"/>
<line x1="446.9" y1="136.8" x2="471.1" y2="150.8" stroke="rgb(0,0,0)"  stroke-width="2.0"/>
<line x1="472.7" y1="160.0" x2="507.3" y2="140.0" stroke="rgb(0,0,0)"  stroke-width="2.0"/>
<line x1="507.3" y1="140.0" x2="507.3" y2="100.0" stroke="rgb(0,0,0)"  stroke-width="2.0"/>
<line x1="500.1" y1="134.0" x2="500.1" y2="106.0" stroke="rgb(0,0,0)"  stroke-width="2.0"/>
<line x1="300.1" y1="242.7" x2="340.1" y2="242.7" stroke="rgb(0,0,0)"  stroke-width="2.0"/>
<line x1="306.1" y1="235.5" x2="334.1" y2="235.5" stroke="rgb(0,0,0)"  stroke-width="2.0"/>
<line x1="340.1" y1="242.7" x2="360.1" y2="208.1" stroke="rgb(0,0,0)"  stroke-width="2.0"/>
<line x1="340.1" y1="173.5" x2="300.1" y2="173.5" stroke="rgb(0,0,0)"  stroke-width="2.0"/>
<line x1="300.1" y1="173.5" x2="280.1" y2="208.1" stroke="rgb(0,0,0)"  stroke-width="2.0"/>
<line x1="303.4" y1="182.3" x2="289.4" y2="206.5" stroke="rgb(0,0,0)"  stroke-width="2.0"/>
<line x1="280.1" y1="208.1" x2="300.1" y2="242.7" stroke="rgb(0,0,0)"  stroke-width="2.0"/>
<line x1="109.3" y1="228.1" x2="143.9" y2="248.1" stroke="rgb(0,0,0)"  stroke-width="2.0"/>
<line x1="118.1" y1="224.9" x2="142.3" y2="238.9" stroke="rgb(0,0,0)"  stroke-width="2.0"/>
<line x1="143.9" y1="248.1" x2="178.6" y2="228.1" stroke="rgb(0,0,0)"  stroke-width="2.0"/>
<line x1="178.6" y1="188.1" x2="143.9" y2="168.1" stroke="rgb(0,0,0)"  stroke-width="2.0"/>
<line x1="143.9" y1="168.1" x2="109.3" y2="188.1" stroke="rgb(0,0,0)"  stroke-width="2.0"/>
<line x1="142.3" y1="177.3" x2="118.1" y2="191.3" stroke="rgb(0,0,0)"  stroke-width="2.0"/>
<line x1="109.3" y1="188.1" x2="109.3" y2="228.1" stroke="rgb(0,0,0)"  stroke-width="2.0"/>
<text x="274.117735" y="146.815311" fill="rgb(191,191,191)"  stroke="rgb(191,191,191)" stroke-width="1" font-size="16" >H</text>
<text x="210.606325" y="248.458023" fill="rgb(12,12,255)"  stroke="rgb(12,12,255)" stroke-width="1" font-size="16" >N</text>
<text x="68.641016" y="176.097343" fill="rgb(12,12,255)"  stroke="rgb(12,12,255)" stroke-width="1" font-size="16" >N</text>
<text x="535.988843" y="88.000000" fill="rgb(12,12,255)"  stroke="rgb(12,12,255)" stroke-width="1" font-size="16" >N</text>
<text x="466.706810" y="208.000000" fill="rgb(191,191,191)"  stroke="rgb(191,191,191)" stroke-width="1" font-size="16" >H</text>
<text x="535.988843" y="168.000000" fill="rgb(191,191,191)"  stroke="rgb(191,191,191)" stroke-width="1" font-size="16" >H</text>
<text x="466.706810" y="48.000000" fill="rgb(191,191,191)"  stroke="rgb(191,191,191)" stroke-width="1" font-size="16" >H</text>
<text x="397.424778" y="88.000000" fill="rgb(191,191,191)"  stroke="rgb(191,191,191)" stroke-width="1" font-size="16" >H</text>
<text x="274.117735" y="285.379376" fill="rgb(191,191,191)"  stroke="rgb(191,191,191)" stroke-width="1" font-size="16" >H</text>
<text x="354.117735" y="285.379376" fill="rgb(191,191,191)"  stroke="rgb(191,191,191)" stroke-width="1" font-size="16" >H</text>
<text x="137.923048" y="136.097343" fill="rgb(191,191,191)"  stroke="rgb(191,191,191)" stroke-width="1" font-size="16" >H</text>
<text x="68.641016" y="256.097343" fill="rgb(191,191,191)"  stroke="rgb(191,191,191)" stroke-width="1" font-size="16" >H</text>
<text x="137.923048" y="296.097343" fill="rgb(191,191,191)"  stroke="rgb(191,191,191)" stroke-width="1" font-size="16" >H</text>
<text x="68.641016" y="136.097343" fill="rgb(191,191,191)"  stroke="rgb(191,191,191)" stroke-width="1" font-size="16" >H</text>
<text x="34.000000" y="196.097343" fill="rgb(191,191,191)"  stroke="rgb(191,191,191)" stroke-width="1" font-size="16" >H</text>
<text x="570.629859" y="108.000000" fill="rgb(191,191,191)"  stroke="rgb(191,191,191)" stroke-width="1" font-size="16" >H</text>
<text x="535.988843" y="48.000000" fill="rgb(191,191,191)"  stroke="rgb(191,191,191)" stroke-width="1" font-size="16" >H</text>
<text x="422.969432" y="234.546100" fill="rgb(191,191,191)"  stroke="rgb(191,191,191)" stroke-width="1" font-size="16" >H</text>
<text x="360.882960" y="151.730534" fill="rgb(12,12,255)"  stroke="rgb(12,12,255)" stroke-width="1" font-size="16" >N</text>
<text x="352.566492" y="112.604630" fill="rgb(191,191,191)"  stroke="rgb(191,191,191)" stroke-width="1" font-size="16" >H</text>
<text x="393.243639" y="207.780876" fill="rgb(12,12,255)"  stroke="rgb(12,12,255)" stroke-width="1" font-size="16" >N</text>
<text x="210.606325" y="183.736664" fill="rgb(12,12,255)"  stroke="rgb(12,12,255)" stroke-width="1" font-size="16" >N</text>
<text x="222.967005" y="145.694403" fill="rgb(191,191,191)"  stroke="rgb(191,191,191)" stroke-width="1" font-size="16" >H</text>
</svg>
</g>
<text font-size="18.000000" fill ="black" font-family="sans-serif"
x="10.000000" y="20.000000" >ZINC18206988</text>
</svg>
