<?xml version="1.0"?>
<svg version="1.1" id="topsvg"
xmlns="http://www.w3.org/2000/svg" xmlns:xlink="http://www.w3.org/1999/xlink"
xmlns:cml="http://www.xml-cml.org/schema" x="0" y="0" width="200px" height="200px" viewBox="0 0 100 100">
<title>ZINC19691574 - Open Babel Depiction</title>
<rect x="0" y="0" width="100" height="100" fill="white"/>
<g transform="translate(0,0)">
<svg width="100" height="100" x="0" y="0" viewBox="0 0 342.195 317.274"
font-family="sans-serif" stroke="rgb(0,0,0)" stroke-width="2"  stroke-linecap="round">
<line x1="263.6" y1="78.6" x2="256.6" y2="104.7" stroke="rgb(0,0,0)"  stroke-width="2.0"/>
<line x1="263.6" y1="78.6" x2="256.6" y2="52.6" stroke="rgb(0,0,0)"  stroke-width="2.0"/>
<line x1="263.6" y1="78.6" x2="237.5" y2="71.6" stroke="rgb(0,0,0)"  stroke-width="2.0"/>
<line x1="263.6" y1="78.6" x2="289.6" y2="71.6" stroke="rgb(0,0,0)"  stroke-width="2.0"/>
<line x1="263.5" y1="125.2" x2="274.6" y2="133.7" stroke="rgb(0,0,0)"  stroke-width="2.0"/>
<line x1="218.6" y1="97.3" x2="232.1" y2="73.9" stroke="rgb(0,0,0)"  stroke-width="2.0"/>
<line x1="218.6" y1="97.3" x2="205.1" y2="73.9" stroke="rgb(0,0,0)"  stroke-width="2.0"/>
<line x1="183.9" y1="117.3" x2="170.4" y2="93.9" stroke="rgb(0,0,0)"  stroke-width="2.0"/>
<line x1="183.9" y1="117.3" x2="156.9" y2="117.3" stroke="rgb(0,0,0)"  stroke-width="2.0"/>
<line x1="172.7" y1="163.8" x2="149.3" y2="177.3" stroke="rgb(0,0,0)"  stroke-width="2.0"/>
<line x1="218.6" y1="177.3" x2="205.1" y2="200.7" stroke="rgb(0,0,0)"  stroke-width="2.0"/>
<line x1="218.6" y1="177.3" x2="232.1" y2="200.7" stroke="rgb(0,0,0)"  stroke-width="2.0"/>
<line x1="253.2" y1="157.3" x2="266.7" y2="180.7" stroke="rgb(0,0,0)"  stroke-width="2.0"/>
<line x1="253.2" y1="157.3" x2="280.2" y2="157.3" stroke="rgb(0,0,0)"  stroke-width="2.0"/>
<line x1="149.3" y1="177.3" x2="114.6" y2="157.3" stroke="rgb(0,0,0)"  stroke-width="2.0"/>
<line x1="149.3" y1="177.3" x2="135.8" y2="200.7" stroke="rgb(0,0,0)"  stroke-width="2.0"/>
<line x1="149.3" y1="177.3" x2="162.8" y2="200.7" stroke="rgb(0,0,0)"  stroke-width="2.0"/>
<line x1="114.6" y1="157.3" x2="80.0" y2="177.3" stroke="rgb(0,0,0)"  stroke-width="2.0"/>
<line x1="114.6" y1="157.3" x2="101.1" y2="133.9" stroke="rgb(0,0,0)"  stroke-width="2.0"/>
<line x1="114.6" y1="157.3" x2="128.1" y2="133.9" stroke="rgb(0,0,0)"  stroke-width="2.0"/>
<line x1="80.0" y1="177.3" x2="80.0" y2="217.3" stroke="rgb(0,0,0)"  stroke-width="2.0"/>
<line x1="80.0" y1="177.3" x2="53.0" y2="177.3" stroke="rgb(0,0,0)"  stroke-width="2.0"/>
<line x1="80.0" y1="177.3" x2="66.5" y2="153.9" stroke="rgb(0,0,0)"  stroke-width="2.0"/>
<line x1="80.0" y1="217.3" x2="103.4" y2="230.8" stroke="rgb(0,0,0)"  stroke-width="2.0"/>
<line x1="80.0" y1="217.3" x2="66.5" y2="240.7" stroke="rgb(0,0,0)"  stroke-width="2.0"/>
<line x1="80.0" y1="217.3" x2="53.0" y2="217.3" stroke="rgb(0,0,0)"  stroke-width="2.0"/>
<line x1="114.6" y1="250.3" x2="114.6" y2="264.3" stroke="rgb(0,0,0)"  stroke-width="2.0"/>
<line x1="183.9" y1="117.3" x2="183.9" y2="144.3" stroke="rgb(0,0,0)"  stroke-width="2.0"/>
<line x1="195.2" y1="163.8" x2="218.6" y2="177.3" stroke="rgb(0,0,0)"  stroke-width="2.0"/>
<line x1="218.6" y1="177.3" x2="253.2" y2="157.3" stroke="rgb(0,0,0)"  stroke-width="2.0"/>
<line x1="253.2" y1="157.3" x2="253.2" y2="130.3" stroke="rgb(0,0,0)"  stroke-width="2.0"/>
<line x1="241.9" y1="110.8" x2="218.6" y2="97.3" stroke="rgb(0,0,0)"  stroke-width="2.0"/>
<line x1="218.6" y1="97.3" x2="183.9" y2="117.3" stroke="rgb(0,0,0)"  stroke-width="2.0"/>
<text x="88.641016" y="130.633050" fill="rgb(191,191,191)"  stroke="rgb(191,191,191)" stroke-width="1" font-size="16" >H</text>
<text x="157.923048" y="90.633050" fill="rgb(191,191,191)"  stroke="rgb(191,191,191)" stroke-width="1" font-size="16" >H</text>
<text x="137.923048" y="125.274066" fill="rgb(191,191,191)"  stroke="rgb(191,191,191)" stroke-width="1" font-size="16" >H</text>
<text x="192.564065" y="219.915082" fill="rgb(191,191,191)"  stroke="rgb(191,191,191)" stroke-width="1" font-size="16" >H</text>
<text x="232.564065" y="219.915082" fill="rgb(191,191,191)"  stroke="rgb(191,191,191)" stroke-width="1" font-size="16" >H</text>
<text x="267.205081" y="199.915082" fill="rgb(191,191,191)"  stroke="rgb(191,191,191)" stroke-width="1" font-size="16" >H</text>
<text x="287.205081" y="165.274066" fill="rgb(191,191,191)"  stroke="rgb(191,191,191)" stroke-width="1" font-size="16" >H</text>
<text x="123.282032" y="219.915082" fill="rgb(191,191,191)"  stroke="rgb(191,191,191)" stroke-width="1" font-size="16" >H</text>
<text x="163.282032" y="219.915082" fill="rgb(191,191,191)"  stroke="rgb(191,191,191)" stroke-width="1" font-size="16" >H</text>
<text x="192.564065" y="70.633050" fill="rgb(191,191,191)"  stroke="rgb(191,191,191)" stroke-width="1" font-size="16" >H</text>
<text x="128.641016" y="130.633050" fill="rgb(191,191,191)"  stroke="rgb(191,191,191)" stroke-width="1" font-size="16" >H</text>
<text x="34.000000" y="185.274066" fill="rgb(191,191,191)"  stroke="rgb(191,191,191)" stroke-width="1" font-size="16" >H</text>
<text x="54.000000" y="150.633050" fill="rgb(191,191,191)"  stroke="rgb(191,191,191)" stroke-width="1" font-size="16" >H</text>
<text x="54.000000" y="259.915082" fill="rgb(191,191,191)"  stroke="rgb(191,191,191)" stroke-width="1" font-size="16" >H</text>
<text x="34.000000" y="225.274066" fill="rgb(191,191,191)"  stroke="rgb(191,191,191)" stroke-width="1" font-size="16" >H</text>
<text x="108.641016" y="285.274066" fill="rgb(191,191,191)"  stroke="rgb(191,191,191)" stroke-width="1" font-size="16" >H</text>
<text x="278.939214" y="149.624523" fill="rgb(191,191,191)"  stroke="rgb(191,191,191)" stroke-width="1" font-size="16" >H</text>
<text x="232.564065" y="70.633050" fill="rgb(191,191,191)"  stroke="rgb(191,191,191)" stroke-width="1" font-size="16" >H</text>
<text x="296.194876" y="76.284271" fill="rgb(191,191,191)"  stroke="rgb(191,191,191)" stroke-width="1" font-size="16" >H</text>
<text x="218.920810" y="76.284271" fill="rgb(191,191,191)"  stroke="rgb(191,191,191)" stroke-width="1" font-size="16" >H</text>
<text x="247.205081" y="48.000000" fill="rgb(191,191,191)"  stroke="rgb(191,191,191)" stroke-width="1" font-size="16" >H</text>
<text x="108.641016" y="245.274066" fill="rgb(255,12,12)"  stroke="rgb(255,12,12)" stroke-width="1" font-size="16" >O</text>
<text x="177.923048" y="165.274066" fill="rgb(12,12,255)"  stroke="rgb(12,12,255)" stroke-width="1" font-size="16" >N</text>
<text x="258.005081" y="113.242066" fill="rgb(12,12,255)"  stroke="rgb(12,12,255)" stroke-width="1" font-size="16" >+</text>
<text x="247.205081" y="125.274066" fill="rgb(12,12,255)"  stroke="rgb(12,12,255)" stroke-width="1" font-size="16" >N</text>
</svg>
</g>
<text font-size="18.000000" fill ="black" font-family="sans-serif"
x="10.000000" y="20.000000" >ZINC19691574</text>
</svg>
