<?xml version="1.0"?>
<svg version="1.1" id="topsvg"
xmlns="http://www.w3.org/2000/svg" xmlns:xlink="http://www.w3.org/1999/xlink"
xmlns:cml="http://www.xml-cml.org/schema" x="0" y="0" width="200px" height="200px" viewBox="0 0 100 100">
<title>ZINC14008080 - Open Babel Depiction</title>
<rect x="0" y="0" width="100" height="100" fill="white"/>
<g transform="translate(0,0)">
<svg width="100" height="100" x="0" y="0" viewBox="0 0 319.899 271.487"
font-family="sans-serif" stroke="rgb(0,0,0)" stroke-width="2"  stroke-linecap="round">
<line x1="210.6" y1="191.5" x2="210.6" y2="218.5" stroke="rgb(0,0,0)"  stroke-width="2.0"/>
<line x1="245.3" y1="171.5" x2="268.6" y2="185.0" stroke="rgb(0,0,0)"  stroke-width="2.0"/>
<line x1="245.3" y1="131.5" x2="268.6" y2="118.0" stroke="rgb(0,0,0)"  stroke-width="2.0"/>
<line x1="210.6" y1="98.5" x2="210.6" y2="84.5" stroke="rgb(0,0,0)"  stroke-width="2.0"/>
<line x1="176.0" y1="131.5" x2="141.3" y2="111.5" stroke="rgb(0,0,0)"  stroke-width="2.0"/>
<line x1="176.0" y1="171.5" x2="152.6" y2="185.0" stroke="rgb(0,0,0)"  stroke-width="2.0"/>
<polygon points="141.334547 111.486584 162.544027 94.622482 166.544027 101.550685 " stroke-width="2.000000" fill="rgb(0,0,0)"  stroke="rgb(0,0,0)" />
<line x1="117.8" y1="79.1" x2="137.9" y2="61.1" stroke="rgb(0,0,0)"  stroke-width="2.0"/>
<line x1="117.8" y1="79.1" x2="112.2" y2="52.7" stroke="rgb(0,0,0)"  stroke-width="2.0"/>
<line x1="79.8" y1="91.5" x2="68.8" y2="66.8" stroke="rgb(0,0,0)"  stroke-width="2.0"/>
<line x1="79.8" y1="91.5" x2="52.9" y2="88.7" stroke="rgb(0,0,0)"  stroke-width="2.0"/>
<line x1="117.8" y1="143.8" x2="112.2" y2="170.3" stroke="rgb(0,0,0)"  stroke-width="2.0"/>
<line x1="117.8" y1="143.8" x2="137.9" y2="161.9" stroke="rgb(0,0,0)"  stroke-width="2.0"/>
<line x1="245.3" y1="131.5" x2="221.9" y2="118.0" stroke="rgb(0,0,0)"  stroke-width="2.0"/>
<line x1="199.2" y1="118.1" x2="176.0" y2="131.5" stroke="rgb(0,0,0)"  stroke-width="2.0"/>
<line x1="201.1" y1="125.3" x2="184.8" y2="134.7" stroke="rgb(0,0,0)"  stroke-width="2.0"/>
<line x1="176.0" y1="131.5" x2="176.0" y2="171.5" stroke="rgb(0,0,0)"  stroke-width="2.0"/>
<line x1="176.0" y1="171.5" x2="210.6" y2="191.5" stroke="rgb(0,0,0)"  stroke-width="2.0"/>
<line x1="184.8" y1="168.3" x2="209.0" y2="182.3" stroke="rgb(0,0,0)"  stroke-width="2.0"/>
<line x1="210.6" y1="191.5" x2="245.3" y2="171.5" stroke="rgb(0,0,0)"  stroke-width="2.0"/>
<line x1="245.3" y1="171.5" x2="245.3" y2="131.5" stroke="rgb(0,0,0)"  stroke-width="2.0"/>
<line x1="238.1" y1="165.5" x2="238.1" y2="137.5" stroke="rgb(0,0,0)"  stroke-width="2.0"/>
<line x1="79.8" y1="91.5" x2="79.8" y2="118.5" stroke="rgb(0,0,0)"  stroke-width="2.0"/>
<line x1="92.1" y1="135.5" x2="117.8" y2="143.8" stroke="rgb(0,0,0)"  stroke-width="2.0"/>
<line x1="117.8" y1="143.8" x2="141.3" y2="111.5" stroke="rgb(0,0,0)"  stroke-width="2.0"/>
<line x1="141.3" y1="111.5" x2="117.8" y2="79.1" stroke="rgb(0,0,0)"  stroke-width="2.0"/>
<line x1="117.8" y1="79.1" x2="79.8" y2="91.5" stroke="rgb(0,0,0)"  stroke-width="2.0"/>
<text x="204.616579" y="79.486584" fill="rgb(191,191,191)"  stroke="rgb(191,191,191)" stroke-width="1" font-size="16" >H</text>
<text x="141.548929" y="178.612488" fill="rgb(191,191,191)"  stroke="rgb(191,191,191)" stroke-width="1" font-size="16" >H</text>
<text x="103.506669" y="190.973168" fill="rgb(191,191,191)"  stroke="rgb(191,191,191)" stroke-width="1" font-size="16" >H</text>
<text x="34.000000" y="95.305445" fill="rgb(191,191,191)"  stroke="rgb(191,191,191)" stroke-width="1" font-size="16" >H</text>
<text x="57.511410" y="62.944765" fill="rgb(191,191,191)"  stroke="rgb(191,191,191)" stroke-width="1" font-size="16" >H</text>
<text x="103.506669" y="48.000000" fill="rgb(191,191,191)"  stroke="rgb(191,191,191)" stroke-width="1" font-size="16" >H</text>
<text x="141.548929" y="60.360680" fill="rgb(191,191,191)"  stroke="rgb(191,191,191)" stroke-width="1" font-size="16" >H</text>
<text x="135.334547" y="199.486584" fill="rgb(191,191,191)"  stroke="rgb(191,191,191)" stroke-width="1" font-size="16" >H</text>
<text x="273.898611" y="119.486584" fill="rgb(191,191,191)"  stroke="rgb(191,191,191)" stroke-width="1" font-size="16" >H</text>
<text x="273.898611" y="199.486584" fill="rgb(191,191,191)"  stroke="rgb(191,191,191)" stroke-width="1" font-size="16" >H</text>
<text x="204.616579" y="239.486584" fill="rgb(191,191,191)"  stroke="rgb(191,191,191)" stroke-width="1" font-size="16" >H</text>
<text x="61.780876" y="139.486584" fill="rgb(12,12,255)"  stroke="rgb(12,12,255)" stroke-width="1" font-size="16" >HN</text>
<text x="169.975563" y="99.486584" fill="rgb(191,191,191)"  stroke="rgb(191,191,191)" stroke-width="1" font-size="16" >H</text>
<text x="215.416579" y="107.454584" fill="rgb(12,12,255)"  stroke="rgb(12,12,255)" stroke-width="1" font-size="16" >+</text>
<text x="204.616579" y="119.486584" fill="rgb(12,12,255)"  stroke="rgb(12,12,255)" stroke-width="1" font-size="16" >N</text>
</svg>
</g>
<text font-size="18.000000" fill ="black" font-family="sans-serif"
x="10.000000" y="20.000000" >ZINC14008080</text>
</svg>
