<?xml version="1.0"?>
<svg version="1.1" id="topsvg"
xmlns="http://www.w3.org/2000/svg" xmlns:xlink="http://www.w3.org/1999/xlink"
xmlns:cml="http://www.xml-cml.org/schema" x="0" y="0" width="200px" height="200px" viewBox="0 0 100 100">
<title>ZINC13796731 - Open Babel Depiction</title>
<rect x="0" y="0" width="100" height="100" fill="white"/>
<g transform="translate(0,0)">
<svg width="100" height="100" x="0" y="0" viewBox="0 0 513.659 463.293"
font-family="sans-serif" stroke="rgb(0,0,0)" stroke-width="2"  stroke-linecap="round">
<line x1="400.2" y1="102.9" x2="400.2" y2="142.3" stroke="rgb(0,0,0)"  stroke-width="2.0"/>
<line x1="400.2" y1="102.9" x2="387.0" y2="80.1" stroke="rgb(0,0,0)"  stroke-width="2.0"/>
<line x1="400.2" y1="102.9" x2="373.8" y2="102.9" stroke="rgb(0,0,0)"  stroke-width="2.0"/>
<line x1="400.2" y1="102.9" x2="423.0" y2="89.7" stroke="rgb(0,0,0)"  stroke-width="2.0"/>
<line x1="400.2" y1="142.3" x2="439.6" y2="142.3" stroke="rgb(0,0,0)"  stroke-width="2.0"/>
<line x1="400.2" y1="142.3" x2="360.8" y2="142.3" stroke="rgb(0,0,0)"  stroke-width="2.0"/>
<line x1="400.2" y1="142.3" x2="400.2" y2="168.7" stroke="rgb(0,0,0)"  stroke-width="2.0"/>
<line x1="439.6" y1="142.3" x2="462.4" y2="129.1" stroke="rgb(0,0,0)"  stroke-width="2.0"/>
<line x1="439.6" y1="142.3" x2="439.6" y2="115.9" stroke="rgb(0,0,0)"  stroke-width="2.0"/>
<line x1="439.6" y1="142.3" x2="452.7" y2="165.2" stroke="rgb(0,0,0)"  stroke-width="2.0"/>
<line x1="360.8" y1="142.3" x2="341.1" y2="108.2" stroke="rgb(0,0,0)"  stroke-width="2.0"/>
<line x1="360.8" y1="142.3" x2="360.8" y2="168.7" stroke="rgb(0,0,0)"  stroke-width="2.0"/>
<line x1="360.8" y1="142.3" x2="337.9" y2="155.5" stroke="rgb(0,0,0)"  stroke-width="2.0"/>
<polygon points="341.089630 108.216155 361.942042 91.558207 365.942042 98.486410 " stroke-width="2.000000" fill="rgb(0,0,0)"  stroke="rgb(0,0,0)" />
<line x1="341.1" y1="108.2" x2="321.4" y2="74.1" stroke="rgb(0,0,0)"  stroke-width="2.0"/>
<line x1="341.1" y1="108.2" x2="318.2" y2="121.4" stroke="rgb(0,0,0)"  stroke-width="2.0"/>
<line x1="318.8" y1="72.6" x2="332.0" y2="49.8" stroke="rgb(0,0,0)"  stroke-width="2.0"/>
<line x1="324.0" y1="75.6" x2="337.2" y2="52.8" stroke="rgb(0,0,0)"  stroke-width="2.0"/>
<line x1="321.4" y1="74.1" x2="295.0" y2="74.1" stroke="rgb(0,0,0)"  stroke-width="2.0"/>
<line x1="307.0" y1="140.9" x2="307.0" y2="167.3" stroke="rgb(0,0,0)"  stroke-width="2.0"/>
<line x1="295.7" y1="121.4" x2="284.1" y2="114.7" stroke="rgb(0,0,0)"  stroke-width="2.0"/>
<line x1="308.5" y1="164.7" x2="331.3" y2="177.9" stroke="rgb(0,0,0)"  stroke-width="2.0"/>
<line x1="305.5" y1="169.9" x2="328.3" y2="183.1" stroke="rgb(0,0,0)"  stroke-width="2.0"/>
<line x1="307.0" y1="167.3" x2="272.9" y2="187.0" stroke="rgb(0,0,0)"  stroke-width="2.0"/>
<line x1="238.8" y1="167.3" x2="238.8" y2="140.9" stroke="rgb(0,0,0)"  stroke-width="2.0"/>
<line x1="204.7" y1="187.0" x2="181.8" y2="173.8" stroke="rgb(0,0,0)"  stroke-width="2.0"/>
<line x1="204.7" y1="226.4" x2="181.8" y2="239.6" stroke="rgb(0,0,0)"  stroke-width="2.0"/>
<line x1="238.8" y1="246.1" x2="238.8" y2="272.4" stroke="rgb(0,0,0)"  stroke-width="2.0"/>
<line x1="272.9" y1="226.4" x2="341.1" y2="265.8" stroke="rgb(0,0,0)"  stroke-width="2.0"/>
<line x1="375.2" y1="246.1" x2="375.2" y2="219.7" stroke="rgb(0,0,0)"  stroke-width="2.0"/>
<line x1="409.3" y1="265.8" x2="432.2" y2="252.6" stroke="rgb(0,0,0)"  stroke-width="2.0"/>
<line x1="409.3" y1="305.1" x2="432.2" y2="318.3" stroke="rgb(0,0,0)"  stroke-width="2.0"/>
<line x1="307.0" y1="324.8" x2="284.1" y2="311.6" stroke="rgb(0,0,0)"  stroke-width="2.0"/>
<line x1="307.0" y1="364.2" x2="284.1" y2="377.4" stroke="rgb(0,0,0)"  stroke-width="2.0"/>
<line x1="341.1" y1="383.9" x2="341.1" y2="410.3" stroke="rgb(0,0,0)"  stroke-width="2.0"/>
<line x1="375.2" y1="364.2" x2="398.0" y2="377.4" stroke="rgb(0,0,0)"  stroke-width="2.0"/>
<line x1="159.3" y1="239.6" x2="136.4" y2="226.4" stroke="rgb(0,0,0)"  stroke-width="2.0"/>
<line x1="170.5" y1="259.1" x2="170.5" y2="272.4" stroke="rgb(0,0,0)"  stroke-width="2.0"/>
<line x1="136.4" y1="226.4" x2="102.3" y2="246.1" stroke="rgb(0,0,0)"  stroke-width="2.0"/>
<line x1="136.4" y1="226.4" x2="149.6" y2="203.5" stroke="rgb(0,0,0)"  stroke-width="2.0"/>
<line x1="136.4" y1="226.4" x2="123.2" y2="203.5" stroke="rgb(0,0,0)"  stroke-width="2.0"/>
<line x1="66.4" y1="230.0" x2="60.9" y2="204.2" stroke="rgb(0,0,0)"  stroke-width="2.0"/>
<line x1="59.7" y1="293.4" x2="49.0" y2="317.5" stroke="rgb(0,0,0)"  stroke-width="2.0"/>
<line x1="107.9" y1="293.9" x2="117.8" y2="302.9" stroke="rgb(0,0,0)"  stroke-width="2.0"/>
<line x1="46.5" y1="270.6" x2="59.7" y2="293.4" stroke="rgb(0,0,0)"  stroke-width="2.0"/>
<line x1="53.8" y1="268.8" x2="62.9" y2="284.6" stroke="rgb(0,0,0)"  stroke-width="2.0"/>
<line x1="59.7" y1="293.4" x2="85.5" y2="287.9" stroke="rgb(0,0,0)"  stroke-width="2.0"/>
<line x1="99.6" y1="272.3" x2="102.3" y2="246.1" stroke="rgb(0,0,0)"  stroke-width="2.0"/>
<line x1="102.3" y1="246.1" x2="66.4" y2="230.0" stroke="rgb(0,0,0)"  stroke-width="2.0"/>
<line x1="93.9" y1="250.2" x2="68.9" y2="239.1" stroke="rgb(0,0,0)"  stroke-width="2.0"/>
<line x1="66.4" y1="230.0" x2="48.7" y2="249.7" stroke="rgb(0,0,0)"  stroke-width="2.0"/>
<line x1="204.7" y1="187.0" x2="204.7" y2="226.4" stroke="rgb(0,0,0)"  stroke-width="2.0"/>
<line x1="204.7" y1="226.4" x2="238.8" y2="246.1" stroke="rgb(0,0,0)"  stroke-width="2.0"/>
<line x1="213.5" y1="223.1" x2="237.2" y2="236.8" stroke="rgb(0,0,0)"  stroke-width="2.0"/>
<line x1="238.8" y1="246.1" x2="272.9" y2="226.4" stroke="rgb(0,0,0)"  stroke-width="2.0"/>
<line x1="272.9" y1="226.4" x2="272.9" y2="187.0" stroke="rgb(0,0,0)"  stroke-width="2.0"/>
<line x1="265.7" y1="220.4" x2="265.7" y2="193.0" stroke="rgb(0,0,0)"  stroke-width="2.0"/>
<line x1="272.9" y1="187.0" x2="238.8" y2="167.3" stroke="rgb(0,0,0)"  stroke-width="2.0"/>
<line x1="238.8" y1="167.3" x2="204.7" y2="187.0" stroke="rgb(0,0,0)"  stroke-width="2.0"/>
<line x1="237.2" y1="176.5" x2="213.5" y2="190.2" stroke="rgb(0,0,0)"  stroke-width="2.0"/>
<line x1="409.3" y1="265.8" x2="409.3" y2="305.1" stroke="rgb(0,0,0)"  stroke-width="2.0"/>
<line x1="409.3" y1="305.1" x2="375.2" y2="324.8" stroke="rgb(0,0,0)"  stroke-width="2.0"/>
<line x1="400.5" y1="301.9" x2="376.8" y2="315.6" stroke="rgb(0,0,0)"  stroke-width="2.0"/>
<line x1="375.2" y1="324.8" x2="341.1" y2="305.1" stroke="rgb(0,0,0)"  stroke-width="2.0"/>
<line x1="341.1" y1="305.1" x2="341.1" y2="265.8" stroke="rgb(0,0,0)"  stroke-width="2.0"/>
<line x1="348.3" y1="299.1" x2="348.3" y2="271.8" stroke="rgb(0,0,0)"  stroke-width="2.0"/>
<line x1="341.1" y1="265.8" x2="375.2" y2="246.1" stroke="rgb(0,0,0)"  stroke-width="2.0"/>
<line x1="375.2" y1="246.1" x2="409.3" y2="265.8" stroke="rgb(0,0,0)"  stroke-width="2.0"/>
<line x1="376.8" y1="255.3" x2="400.5" y2="269.0" stroke="rgb(0,0,0)"  stroke-width="2.0"/>
<line x1="341.1" y1="383.9" x2="307.0" y2="364.2" stroke="rgb(0,0,0)"  stroke-width="2.0"/>
<line x1="307.0" y1="364.2" x2="307.0" y2="324.8" stroke="rgb(0,0,0)"  stroke-width="2.0"/>
<line x1="314.2" y1="358.2" x2="314.2" y2="330.8" stroke="rgb(0,0,0)"  stroke-width="2.0"/>
<line x1="307.0" y1="324.8" x2="341.1" y2="305.1" stroke="rgb(0,0,0)"  stroke-width="2.0"/>
<line x1="375.2" y1="324.8" x2="375.2" y2="364.2" stroke="rgb(0,0,0)"  stroke-width="2.0"/>
<line x1="375.2" y1="364.2" x2="341.1" y2="383.9" stroke="rgb(0,0,0)"  stroke-width="2.0"/>
<line x1="366.4" y1="361.0" x2="342.7" y2="374.7" stroke="rgb(0,0,0)"  stroke-width="2.0"/>
<text x="232.765398" y="135.908463" fill="rgb(191,191,191)"  stroke="rgb(191,191,191)" stroke-width="1" font-size="16" >H</text>
<text x="34.000000" y="267.311616" fill="rgb(12,12,255)"  stroke="rgb(12,12,255)" stroke-width="1" font-size="16" >N</text>
<text x="92.216275" y="293.231171" fill="rgb(12,12,255)"  stroke="rgb(12,12,255)" stroke-width="1" font-size="16" >N</text>
<text x="121.484748" y="319.584623" fill="rgb(191,191,191)"  stroke="rgb(191,191,191)" stroke-width="1" font-size="16" >H</text>
<text x="374.474246" y="76.831539" fill="rgb(191,191,191)"  stroke="rgb(191,191,191)" stroke-width="1" font-size="16" >H</text>
<text x="354.781938" y="110.939617" fill="rgb(191,191,191)"  stroke="rgb(191,191,191)" stroke-width="1" font-size="16" >H</text>
<text x="428.274631" y="91.247309" fill="rgb(191,191,191)"  stroke="rgb(191,191,191)" stroke-width="1" font-size="16" >H</text>
<text x="394.166553" y="189.708848" fill="rgb(191,191,191)"  stroke="rgb(191,191,191)" stroke-width="1" font-size="16" >H</text>
<text x="467.659246" y="130.631925" fill="rgb(191,191,191)"  stroke="rgb(191,191,191)" stroke-width="1" font-size="16" >H</text>
<text x="433.551169" y="110.939617" fill="rgb(191,191,191)"  stroke="rgb(191,191,191)" stroke-width="1" font-size="16" >H</text>
<text x="453.243476" y="184.432310" fill="rgb(191,191,191)"  stroke="rgb(191,191,191)" stroke-width="1" font-size="16" >H</text>
<text x="354.781938" y="189.708848" fill="rgb(191,191,191)"  stroke="rgb(191,191,191)" stroke-width="1" font-size="16" >H</text>
<text x="320.673860" y="170.016540" fill="rgb(191,191,191)"  stroke="rgb(191,191,191)" stroke-width="1" font-size="16" >H</text>
<text x="266.873475" y="116.216155" fill="rgb(191,191,191)"  stroke="rgb(191,191,191)" stroke-width="1" font-size="16" >H</text>
<text x="164.549243" y="175.293078" fill="rgb(191,191,191)"  stroke="rgb(191,191,191)" stroke-width="1" font-size="16" >H</text>
<text x="232.765398" y="293.446924" fill="rgb(191,191,191)"  stroke="rgb(191,191,191)" stroke-width="1" font-size="16" >H</text>
<text x="369.197708" y="214.677693" fill="rgb(191,191,191)"  stroke="rgb(191,191,191)" stroke-width="1" font-size="16" >H</text>
<text x="437.413862" y="254.062309" fill="rgb(191,191,191)"  stroke="rgb(191,191,191)" stroke-width="1" font-size="16" >H</text>
<text x="437.413862" y="332.831539" fill="rgb(191,191,191)"  stroke="rgb(191,191,191)" stroke-width="1" font-size="16" >H</text>
<text x="266.873475" y="313.139232" fill="rgb(191,191,191)"  stroke="rgb(191,191,191)" stroke-width="1" font-size="16" >H</text>
<text x="266.873475" y="391.908463" fill="rgb(191,191,191)"  stroke="rgb(191,191,191)" stroke-width="1" font-size="16" >H</text>
<text x="335.089630" y="431.293078" fill="rgb(191,191,191)"  stroke="rgb(191,191,191)" stroke-width="1" font-size="16" >H</text>
<text x="403.305785" y="391.908463" fill="rgb(191,191,191)"  stroke="rgb(191,191,191)" stroke-width="1" font-size="16" >H</text>
<text x="164.549243" y="293.446924" fill="rgb(191,191,191)"  stroke="rgb(191,191,191)" stroke-width="1" font-size="16" >H</text>
<text x="150.133473" y="200.261924" fill="rgb(191,191,191)"  stroke="rgb(191,191,191)" stroke-width="1" font-size="16" >H</text>
<text x="110.748858" y="200.261924" fill="rgb(191,191,191)"  stroke="rgb(191,191,191)" stroke-width="1" font-size="16" >H</text>
<text x="52.164930" y="199.519175" fill="rgb(191,191,191)"  stroke="rgb(191,191,191)" stroke-width="1" font-size="16" >H</text>
<text x="37.673141" y="337.399330" fill="rgb(191,191,191)"  stroke="rgb(191,191,191)" stroke-width="1" font-size="16" >H</text>
<text x="369.197708" y="96.523847" fill="rgb(191,191,191)"  stroke="rgb(191,191,191)" stroke-width="1" font-size="16" >H</text>
<text x="335.089630" y="48.000000" fill="rgb(255,12,12)"  stroke="rgb(255,12,12)" stroke-width="1" font-size="16" >O</text>
<text x="264.012707" y="82.108077" fill="rgb(255,12,12)"  stroke="rgb(255,12,12)" stroke-width="1" font-size="16" >HO</text>
<text x="300.981553" y="135.908463" fill="rgb(12,12,255)"  stroke="rgb(12,12,255)" stroke-width="1" font-size="16" >N</text>
<text x="335.089630" y="194.985386" fill="rgb(255,12,12)"  stroke="rgb(255,12,12)" stroke-width="1" font-size="16" >O</text>
<text x="164.549243" y="254.062309" fill="rgb(12,12,255)"  stroke="rgb(12,12,255)" stroke-width="1" font-size="16" >N</text>
</svg>
</g>
<text font-size="18.000000" fill ="black" font-family="sans-serif"
x="10.000000" y="20.000000" >ZINC13796731</text>
</svg>
