<?xml version="1.0"?>
<svg version="1.1" id="topsvg"
xmlns="http://www.w3.org/2000/svg" xmlns:xlink="http://www.w3.org/1999/xlink"
xmlns:cml="http://www.xml-cml.org/schema" x="0" y="0" width="200px" height="200px" viewBox="0 0 100 100">
<title>ZINC39030584 - Open Babel Depiction</title>
<rect x="0" y="0" width="100" height="100" fill="white"/>
<g transform="translate(0,0)">
<svg width="100" height="100" x="0" y="0" viewBox="0 0 402.487 469.282"
font-family="sans-serif" stroke="rgb(0,0,0)" stroke-width="2"  stroke-linecap="round">
<line x1="247.8" y1="114.6" x2="287.8" y2="114.6" stroke="rgb(0,0,0)"  stroke-width="2.0"/>
<line x1="247.8" y1="114.6" x2="224.5" y2="128.1" stroke="rgb(0,0,0)"  stroke-width="2.0"/>
<line x1="247.8" y1="114.6" x2="247.8" y2="141.6" stroke="rgb(0,0,0)"  stroke-width="2.0"/>
<line x1="247.8" y1="114.6" x2="234.3" y2="91.3" stroke="rgb(0,0,0)"  stroke-width="2.0"/>
<line x1="287.8" y1="114.6" x2="287.8" y2="74.6" stroke="rgb(0,0,0)"  stroke-width="2.0"/>
<line x1="287.8" y1="114.6" x2="327.8" y2="114.6" stroke="rgb(0,0,0)"  stroke-width="2.0"/>
<line x1="287.8" y1="114.6" x2="287.8" y2="141.6" stroke="rgb(0,0,0)"  stroke-width="2.0"/>
<line x1="287.8" y1="74.6" x2="301.3" y2="51.3" stroke="rgb(0,0,0)"  stroke-width="2.0"/>
<line x1="287.8" y1="74.6" x2="314.8" y2="74.6" stroke="rgb(0,0,0)"  stroke-width="2.0"/>
<line x1="287.8" y1="74.6" x2="264.5" y2="61.1" stroke="rgb(0,0,0)"  stroke-width="2.0"/>
<line x1="327.8" y1="114.6" x2="351.2" y2="128.1" stroke="rgb(0,0,0)"  stroke-width="2.0"/>
<line x1="327.8" y1="114.6" x2="327.8" y2="141.6" stroke="rgb(0,0,0)"  stroke-width="2.0"/>
<line x1="327.8" y1="114.6" x2="341.3" y2="91.3" stroke="rgb(0,0,0)"  stroke-width="2.0"/>
<line x1="276.6" y1="161.1" x2="253.2" y2="174.6" stroke="rgb(0,0,0)"  stroke-width="2.0"/>
<line x1="251.7" y1="177.2" x2="228.3" y2="163.7" stroke="rgb(0,0,0)"  stroke-width="2.0"/>
<line x1="254.7" y1="172.0" x2="231.3" y2="158.5" stroke="rgb(0,0,0)"  stroke-width="2.0"/>
<line x1="253.2" y1="174.6" x2="253.2" y2="201.6" stroke="rgb(0,0,0)"  stroke-width="2.0"/>
<line x1="241.9" y1="221.1" x2="218.6" y2="234.6" stroke="rgb(0,0,0)"  stroke-width="2.0"/>
<line x1="264.5" y1="221.1" x2="276.6" y2="228.1" stroke="rgb(0,0,0)"  stroke-width="2.0"/>
<line x1="217.1" y1="237.2" x2="193.7" y2="223.7" stroke="rgb(0,0,0)"  stroke-width="2.0"/>
<line x1="220.1" y1="232.0" x2="196.7" y2="218.5" stroke="rgb(0,0,0)"  stroke-width="2.0"/>
<line x1="218.6" y1="234.6" x2="218.6" y2="261.6" stroke="rgb(0,0,0)"  stroke-width="2.0"/>
<line x1="172.7" y1="221.1" x2="149.3" y2="234.6" stroke="rgb(0,0,0)"  stroke-width="2.0"/>
<line x1="152.3" y1="234.6" x2="152.3" y2="261.6" stroke="rgb(0,0,0)"  stroke-width="2.0"/>
<line x1="146.3" y1="234.6" x2="146.3" y2="261.6" stroke="rgb(0,0,0)"  stroke-width="2.0"/>
<line x1="149.3" y1="234.6" x2="125.9" y2="221.1" stroke="rgb(0,0,0)"  stroke-width="2.0"/>
<line x1="114.6" y1="201.6" x2="114.6" y2="174.6" stroke="rgb(0,0,0)"  stroke-width="2.0"/>
<line x1="114.6" y1="174.6" x2="74.6" y2="174.6" stroke="rgb(0,0,0)"  stroke-width="2.0"/>
<line x1="114.6" y1="174.6" x2="114.6" y2="134.6" stroke="rgb(0,0,0)"  stroke-width="2.0"/>
<line x1="114.6" y1="174.6" x2="154.6" y2="174.6" stroke="rgb(0,0,0)"  stroke-width="2.0"/>
<line x1="74.6" y1="174.6" x2="51.3" y2="161.1" stroke="rgb(0,0,0)"  stroke-width="2.0"/>
<line x1="74.6" y1="174.6" x2="74.6" y2="147.6" stroke="rgb(0,0,0)"  stroke-width="2.0"/>
<line x1="74.6" y1="174.6" x2="61.1" y2="198.0" stroke="rgb(0,0,0)"  stroke-width="2.0"/>
<line x1="114.6" y1="134.6" x2="128.1" y2="111.3" stroke="rgb(0,0,0)"  stroke-width="2.0"/>
<line x1="114.6" y1="134.6" x2="141.6" y2="134.6" stroke="rgb(0,0,0)"  stroke-width="2.0"/>
<line x1="114.6" y1="134.6" x2="91.3" y2="121.1" stroke="rgb(0,0,0)"  stroke-width="2.0"/>
<line x1="154.6" y1="174.6" x2="178.0" y2="188.1" stroke="rgb(0,0,0)"  stroke-width="2.0"/>
<line x1="154.6" y1="174.6" x2="154.6" y2="201.6" stroke="rgb(0,0,0)"  stroke-width="2.0"/>
<line x1="154.6" y1="174.6" x2="168.1" y2="151.3" stroke="rgb(0,0,0)"  stroke-width="2.0"/>
<line x1="231.3" y1="278.5" x2="254.7" y2="292.0" stroke="rgb(0,0,0)"  stroke-width="2.0"/>
<line x1="228.3" y1="283.7" x2="251.7" y2="297.2" stroke="rgb(0,0,0)"  stroke-width="2.0"/>
<line x1="253.2" y1="294.6" x2="276.6" y2="281.1" stroke="rgb(0,0,0)"  stroke-width="2.0"/>
<line x1="253.2" y1="294.6" x2="253.2" y2="321.6" stroke="rgb(0,0,0)"  stroke-width="2.0"/>
<line x1="241.9" y1="341.1" x2="218.6" y2="354.6" stroke="rgb(0,0,0)"  stroke-width="2.0"/>
<line x1="218.6" y1="354.6" x2="238.6" y2="389.3" stroke="rgb(0,0,0)"  stroke-width="2.0"/>
<line x1="218.6" y1="354.6" x2="183.9" y2="374.6" stroke="rgb(0,0,0)"  stroke-width="2.0"/>
<line x1="218.6" y1="354.6" x2="198.6" y2="320.0" stroke="rgb(0,0,0)"  stroke-width="2.0"/>
<line x1="238.6" y1="389.3" x2="238.6" y2="416.3" stroke="rgb(0,0,0)"  stroke-width="2.0"/>
<line x1="238.6" y1="389.3" x2="215.2" y2="402.8" stroke="rgb(0,0,0)"  stroke-width="2.0"/>
<line x1="238.6" y1="389.3" x2="265.6" y2="389.3" stroke="rgb(0,0,0)"  stroke-width="2.0"/>
<line x1="183.9" y1="374.6" x2="156.9" y2="374.6" stroke="rgb(0,0,0)"  stroke-width="2.0"/>
<line x1="183.9" y1="374.6" x2="170.4" y2="351.3" stroke="rgb(0,0,0)"  stroke-width="2.0"/>
<line x1="183.9" y1="374.6" x2="183.9" y2="401.6" stroke="rgb(0,0,0)"  stroke-width="2.0"/>
<line x1="198.6" y1="320.0" x2="198.6" y2="293.0" stroke="rgb(0,0,0)"  stroke-width="2.0"/>
<line x1="198.6" y1="320.0" x2="221.9" y2="306.5" stroke="rgb(0,0,0)"  stroke-width="2.0"/>
<line x1="198.6" y1="320.0" x2="171.6" y2="320.0" stroke="rgb(0,0,0)"  stroke-width="2.0"/>
<text x="74.000000" y="122.641016" fill="rgb(191,191,191)"  stroke="rgb(191,191,191)" stroke-width="1" font-size="16" >H</text>
<text x="221.846097" y="88.000000" fill="rgb(191,191,191)"  stroke="rgb(191,191,191)" stroke-width="1" font-size="16" >H</text>
<text x="301.846097" y="48.000000" fill="rgb(191,191,191)"  stroke="rgb(191,191,191)" stroke-width="1" font-size="16" >H</text>
<text x="321.846097" y="82.641016" fill="rgb(191,191,191)"  stroke="rgb(191,191,191)" stroke-width="1" font-size="16" >H</text>
<text x="247.205081" y="62.641016" fill="rgb(191,191,191)"  stroke="rgb(191,191,191)" stroke-width="1" font-size="16" >H</text>
<text x="356.487113" y="142.641016" fill="rgb(191,191,191)"  stroke="rgb(191,191,191)" stroke-width="1" font-size="16" >H</text>
<text x="321.846097" y="162.641016" fill="rgb(191,191,191)"  stroke="rgb(191,191,191)" stroke-width="1" font-size="16" >H</text>
<text x="341.846097" y="88.000000" fill="rgb(191,191,191)"  stroke="rgb(191,191,191)" stroke-width="1" font-size="16" >H</text>
<text x="281.846097" y="242.641016" fill="rgb(191,191,191)"  stroke="rgb(191,191,191)" stroke-width="1" font-size="16" >H</text>
<text x="34.000000" y="162.641016" fill="rgb(191,191,191)"  stroke="rgb(191,191,191)" stroke-width="1" font-size="16" >H</text>
<text x="68.641016" y="142.641016" fill="rgb(191,191,191)"  stroke="rgb(191,191,191)" stroke-width="1" font-size="16" >H</text>
<text x="48.641016" y="217.282032" fill="rgb(191,191,191)"  stroke="rgb(191,191,191)" stroke-width="1" font-size="16" >H</text>
<text x="128.641016" y="108.000000" fill="rgb(191,191,191)"  stroke="rgb(191,191,191)" stroke-width="1" font-size="16" >H</text>
<text x="148.641016" y="142.641016" fill="rgb(191,191,191)"  stroke="rgb(191,191,191)" stroke-width="1" font-size="16" >H</text>
<text x="241.846097" y="162.641016" fill="rgb(191,191,191)"  stroke="rgb(191,191,191)" stroke-width="1" font-size="16" >H</text>
<text x="183.282032" y="202.641016" fill="rgb(191,191,191)"  stroke="rgb(191,191,191)" stroke-width="1" font-size="16" >H</text>
<text x="148.641016" y="222.641016" fill="rgb(191,191,191)"  stroke="rgb(191,191,191)" stroke-width="1" font-size="16" >H</text>
<text x="168.641016" y="148.000000" fill="rgb(191,191,191)"  stroke="rgb(191,191,191)" stroke-width="1" font-size="16" >H</text>
<text x="232.564065" y="437.282032" fill="rgb(191,191,191)"  stroke="rgb(191,191,191)" stroke-width="1" font-size="16" >H</text>
<text x="197.923048" y="417.282032" fill="rgb(191,191,191)"  stroke="rgb(191,191,191)" stroke-width="1" font-size="16" >H</text>
<text x="272.564065" y="397.282032" fill="rgb(191,191,191)"  stroke="rgb(191,191,191)" stroke-width="1" font-size="16" >H</text>
<text x="137.923048" y="382.641016" fill="rgb(191,191,191)"  stroke="rgb(191,191,191)" stroke-width="1" font-size="16" >H</text>
<text x="157.923048" y="348.000000" fill="rgb(191,191,191)"  stroke="rgb(191,191,191)" stroke-width="1" font-size="16" >H</text>
<text x="177.923048" y="422.641016" fill="rgb(191,191,191)"  stroke="rgb(191,191,191)" stroke-width="1" font-size="16" >H</text>
<text x="192.564065" y="288.000000" fill="rgb(191,191,191)"  stroke="rgb(191,191,191)" stroke-width="1" font-size="16" >H</text>
<text x="227.205081" y="308.000000" fill="rgb(191,191,191)"  stroke="rgb(191,191,191)" stroke-width="1" font-size="16" >H</text>
<text x="152.564065" y="328.000000" fill="rgb(191,191,191)"  stroke="rgb(191,191,191)" stroke-width="1" font-size="16" >H</text>
<text x="281.846097" y="162.641016" fill="rgb(255,12,12)"  stroke="rgb(255,12,12)" stroke-width="1" font-size="16" >O</text>
<text x="212.564065" y="162.641016" fill="rgb(255,12,12)"  stroke="rgb(255,12,12)" stroke-width="1" font-size="16" >O</text>
<text x="247.205081" y="222.641016" fill="rgb(12,12,255)"  stroke="rgb(12,12,255)" stroke-width="1" font-size="16" >N</text>
<text x="177.923048" y="222.641016" fill="rgb(12,12,255)"  stroke="rgb(12,12,255)" stroke-width="1" font-size="16" >N</text>
<text x="143.282032" y="282.641016" fill="rgb(255,12,12)"  stroke="rgb(255,12,12)" stroke-width="1" font-size="16" >O</text>
<text x="108.641016" y="222.641016" fill="rgb(255,12,12)"  stroke="rgb(255,12,12)" stroke-width="1" font-size="16" >O</text>
<text x="212.564065" y="282.641016" fill="rgb(12,12,255)"  stroke="rgb(12,12,255)" stroke-width="1" font-size="16" >N</text>
<text x="281.846097" y="282.641016" fill="rgb(255,12,12)"  stroke="rgb(255,12,12)" stroke-width="1" font-size="16" >OH</text>
<text x="247.205081" y="342.641016" fill="rgb(255,12,12)"  stroke="rgb(255,12,12)" stroke-width="1" font-size="16" >O</text>
<text x="207.205081" y="142.641016" fill="rgb(191,191,191)"  stroke="rgb(191,191,191)" stroke-width="1" font-size="16" >H</text>
</svg>
</g>
<text font-size="18.000000" fill ="black" font-family="sans-serif"
x="10.000000" y="20.000000" >ZINC39030584</text>
</svg>
