<?xml version="1.0"?>
<svg version="1.1" id="topsvg"
xmlns="http://www.w3.org/2000/svg" xmlns:xlink="http://www.w3.org/1999/xlink"
xmlns:cml="http://www.xml-cml.org/schema" x="0" y="0" width="200px" height="200px" viewBox="0 0 100 100">
<title>ZINC18098320 - Open Babel Depiction</title>
<rect x="0" y="0" width="100" height="100" fill="white"/>
<g transform="translate(0,0)">
<svg width="100" height="100" x="0" y="0" viewBox="0 0 719.102 410.145"
font-family="sans-serif" stroke="rgb(0,0,0)" stroke-width="2"  stroke-linecap="round">
<line x1="611.8" y1="331.3" x2="611.8" y2="357.1" stroke="rgb(0,0,0)"  stroke-width="2.0"/>
<line x1="645.5" y1="311.9" x2="667.8" y2="324.8" stroke="rgb(0,0,0)"  stroke-width="2.0"/>
<line x1="645.5" y1="273.0" x2="667.8" y2="260.1" stroke="rgb(0,0,0)"  stroke-width="2.0"/>
<line x1="611.8" y1="253.6" x2="611.8" y2="227.8" stroke="rgb(0,0,0)"  stroke-width="2.0"/>
<line x1="578.2" y1="273.0" x2="555.8" y2="260.1" stroke="rgb(0,0,0)"  stroke-width="2.0"/>
<line x1="578.2" y1="311.9" x2="555.8" y2="324.8" stroke="rgb(0,0,0)"  stroke-width="2.0"/>
<line x1="533.3" y1="324.8" x2="510.9" y2="311.9" stroke="rgb(0,0,0)"  stroke-width="2.0"/>
<line x1="544.6" y1="344.3" x2="544.6" y2="357.1" stroke="rgb(0,0,0)"  stroke-width="2.0"/>
<line x1="507.9" y1="311.9" x2="507.9" y2="247.2" stroke="rgb(0,0,0)"  stroke-width="2.0"/>
<line x1="513.9" y1="311.9" x2="513.9" y2="247.2" stroke="rgb(0,0,0)"  stroke-width="2.0"/>
<line x1="510.9" y1="311.9" x2="488.5" y2="324.8" stroke="rgb(0,0,0)"  stroke-width="2.0"/>
<line x1="499.7" y1="227.7" x2="488.5" y2="221.3" stroke="rgb(0,0,0)"  stroke-width="2.0"/>
<line x1="466.0" y1="324.8" x2="443.6" y2="311.9" stroke="rgb(0,0,0)"  stroke-width="2.0"/>
<line x1="477.3" y1="344.3" x2="477.3" y2="357.1" stroke="rgb(0,0,0)"  stroke-width="2.0"/>
<line x1="440.6" y1="311.9" x2="440.6" y2="286.0" stroke="rgb(0,0,0)"  stroke-width="2.0"/>
<line x1="446.6" y1="311.9" x2="446.6" y2="286.0" stroke="rgb(0,0,0)"  stroke-width="2.0"/>
<line x1="443.6" y1="311.9" x2="421.3" y2="324.8" stroke="rgb(0,0,0)"  stroke-width="2.0"/>
<line x1="454.9" y1="266.5" x2="466.0" y2="260.1" stroke="rgb(0,0,0)"  stroke-width="2.0"/>
<line x1="432.4" y1="266.5" x2="421.3" y2="260.1" stroke="rgb(0,0,0)"  stroke-width="2.0"/>
<line x1="398.7" y1="324.8" x2="376.4" y2="311.9" stroke="rgb(0,0,0)"  stroke-width="2.0"/>
<line x1="410.0" y1="344.3" x2="410.0" y2="357.1" stroke="rgb(0,0,0)"  stroke-width="2.0"/>
<line x1="376.4" y1="311.9" x2="342.7" y2="331.3" stroke="rgb(0,0,0)"  stroke-width="2.0"/>
<line x1="376.4" y1="311.9" x2="363.4" y2="289.5" stroke="rgb(0,0,0)"  stroke-width="2.0"/>
<line x1="376.4" y1="311.9" x2="389.3" y2="289.5" stroke="rgb(0,0,0)"  stroke-width="2.0"/>
<line x1="342.7" y1="331.3" x2="309.1" y2="311.9" stroke="rgb(0,0,0)"  stroke-width="2.0"/>
<line x1="342.7" y1="331.3" x2="329.8" y2="353.7" stroke="rgb(0,0,0)"  stroke-width="2.0"/>
<line x1="342.7" y1="331.3" x2="355.7" y2="353.7" stroke="rgb(0,0,0)"  stroke-width="2.0"/>
<line x1="309.1" y1="311.9" x2="275.5" y2="331.3" stroke="rgb(0,0,0)"  stroke-width="2.0"/>
<line x1="309.1" y1="311.9" x2="296.2" y2="289.5" stroke="rgb(0,0,0)"  stroke-width="2.0"/>
<line x1="309.1" y1="311.9" x2="322.0" y2="289.5" stroke="rgb(0,0,0)"  stroke-width="2.0"/>
<line x1="275.5" y1="331.3" x2="241.8" y2="311.9" stroke="rgb(0,0,0)"  stroke-width="2.0"/>
<line x1="275.5" y1="331.3" x2="262.5" y2="353.7" stroke="rgb(0,0,0)"  stroke-width="2.0"/>
<line x1="275.5" y1="331.3" x2="288.4" y2="353.7" stroke="rgb(0,0,0)"  stroke-width="2.0"/>
<line x1="241.8" y1="311.9" x2="208.2" y2="331.3" stroke="rgb(0,0,0)"  stroke-width="2.0"/>
<line x1="241.8" y1="311.9" x2="228.9" y2="289.5" stroke="rgb(0,0,0)"  stroke-width="2.0"/>
<line x1="241.8" y1="311.9" x2="254.7" y2="289.5" stroke="rgb(0,0,0)"  stroke-width="2.0"/>
<line x1="208.2" y1="331.3" x2="185.8" y2="318.4" stroke="rgb(0,0,0)"  stroke-width="2.0"/>
<line x1="208.2" y1="331.3" x2="195.3" y2="353.7" stroke="rgb(0,0,0)"  stroke-width="2.0"/>
<line x1="208.2" y1="331.3" x2="221.1" y2="353.7" stroke="rgb(0,0,0)"  stroke-width="2.0"/>
<line x1="174.5" y1="298.9" x2="174.5" y2="273.0" stroke="rgb(0,0,0)"  stroke-width="2.0"/>
<line x1="163.3" y1="318.4" x2="152.2" y2="324.8" stroke="rgb(0,0,0)"  stroke-width="2.0"/>
<line x1="173.0" y1="270.4" x2="195.4" y2="257.5" stroke="rgb(0,0,0)"  stroke-width="2.0"/>
<line x1="176.0" y1="275.6" x2="198.4" y2="262.7" stroke="rgb(0,0,0)"  stroke-width="2.0"/>
<line x1="174.5" y1="273.0" x2="152.2" y2="260.1" stroke="rgb(0,0,0)"  stroke-width="2.0"/>
<line x1="219.4" y1="260.1" x2="230.6" y2="266.5" stroke="rgb(0,0,0)"  stroke-width="2.0"/>
<line x1="208.2" y1="240.6" x2="208.2" y2="227.8" stroke="rgb(0,0,0)"  stroke-width="2.0"/>
<line x1="140.9" y1="240.6" x2="140.9" y2="214.8" stroke="rgb(0,0,0)"  stroke-width="2.0"/>
<line x1="129.7" y1="260.1" x2="118.5" y2="266.5" stroke="rgb(0,0,0)"  stroke-width="2.0"/>
<line x1="139.4" y1="212.2" x2="195.4" y2="179.8" stroke="rgb(0,0,0)"  stroke-width="2.0"/>
<line x1="142.4" y1="217.4" x2="198.4" y2="185.0" stroke="rgb(0,0,0)"  stroke-width="2.0"/>
<line x1="140.9" y1="214.8" x2="118.5" y2="201.9" stroke="rgb(0,0,0)"  stroke-width="2.0"/>
<line x1="208.2" y1="162.9" x2="208.2" y2="150.1" stroke="rgb(0,0,0)"  stroke-width="2.0"/>
<line x1="107.3" y1="182.4" x2="107.3" y2="156.5" stroke="rgb(0,0,0)"  stroke-width="2.0"/>
<line x1="96.0" y1="201.9" x2="84.9" y2="208.3" stroke="rgb(0,0,0)"  stroke-width="2.0"/>
<line x1="140.9" y1="137.1" x2="163.3" y2="150.0" stroke="rgb(0,0,0)"  stroke-width="2.0"/>
<line x1="140.9" y1="98.3" x2="163.3" y2="85.3" stroke="rgb(0,0,0)"  stroke-width="2.0"/>
<line x1="107.3" y1="78.8" x2="107.3" y2="53.0" stroke="rgb(0,0,0)"  stroke-width="2.0"/>
<line x1="73.6" y1="98.3" x2="51.3" y2="85.3" stroke="rgb(0,0,0)"  stroke-width="2.0"/>
<line x1="73.6" y1="137.1" x2="51.3" y2="150.0" stroke="rgb(0,0,0)"  stroke-width="2.0"/>
<line x1="645.5" y1="273.0" x2="611.8" y2="253.6" stroke="rgb(0,0,0)"  stroke-width="2.0"/>
<line x1="611.8" y1="253.6" x2="578.2" y2="273.0" stroke="rgb(0,0,0)"  stroke-width="2.0"/>
<line x1="610.2" y1="262.9" x2="587.0" y2="276.3" stroke="rgb(0,0,0)"  stroke-width="2.0"/>
<line x1="578.2" y1="273.0" x2="578.2" y2="311.9" stroke="rgb(0,0,0)"  stroke-width="2.0"/>
<line x1="578.2" y1="311.9" x2="611.8" y2="331.3" stroke="rgb(0,0,0)"  stroke-width="2.0"/>
<line x1="587.0" y1="308.6" x2="610.2" y2="322.1" stroke="rgb(0,0,0)"  stroke-width="2.0"/>
<line x1="611.8" y1="331.3" x2="645.5" y2="311.9" stroke="rgb(0,0,0)"  stroke-width="2.0"/>
<line x1="645.5" y1="311.9" x2="645.5" y2="273.0" stroke="rgb(0,0,0)"  stroke-width="2.0"/>
<line x1="638.3" y1="305.9" x2="638.3" y2="279.0" stroke="rgb(0,0,0)"  stroke-width="2.0"/>
<line x1="140.9" y1="98.3" x2="107.3" y2="78.8" stroke="rgb(0,0,0)"  stroke-width="2.0"/>
<line x1="107.3" y1="78.8" x2="73.6" y2="98.3" stroke="rgb(0,0,0)"  stroke-width="2.0"/>
<line x1="105.7" y1="88.1" x2="82.4" y2="101.5" stroke="rgb(0,0,0)"  stroke-width="2.0"/>
<line x1="73.6" y1="98.3" x2="73.6" y2="137.1" stroke="rgb(0,0,0)"  stroke-width="2.0"/>
<line x1="73.6" y1="137.1" x2="107.3" y2="156.5" stroke="rgb(0,0,0)"  stroke-width="2.0"/>
<line x1="82.4" y1="133.9" x2="105.7" y2="147.3" stroke="rgb(0,0,0)"  stroke-width="2.0"/>
<line x1="107.3" y1="156.5" x2="140.9" y2="137.1" stroke="rgb(0,0,0)"  stroke-width="2.0"/>
<line x1="140.9" y1="137.1" x2="140.9" y2="98.3" stroke="rgb(0,0,0)"  stroke-width="2.0"/>
<line x1="133.7" y1="131.1" x2="133.7" y2="104.3" stroke="rgb(0,0,0)"  stroke-width="2.0"/>
<text x="404.006216" y="378.144928" fill="rgb(191,191,191)"  stroke="rgb(191,191,191)" stroke-width="1" font-size="16" >H</text>
<text x="288.878791" y="372.941277" fill="rgb(191,191,191)"  stroke="rgb(191,191,191)" stroke-width="1" font-size="16" >H</text>
<text x="250.038211" y="372.941277" fill="rgb(191,191,191)"  stroke="rgb(191,191,191)" stroke-width="1" font-size="16" >H</text>
<text x="322.515720" y="286.247129" fill="rgb(191,191,191)"  stroke="rgb(191,191,191)" stroke-width="1" font-size="16" >H</text>
<text x="283.675140" y="286.247129" fill="rgb(191,191,191)"  stroke="rgb(191,191,191)" stroke-width="1" font-size="16" >H</text>
<text x="356.152648" y="372.941277" fill="rgb(191,191,191)"  stroke="rgb(191,191,191)" stroke-width="1" font-size="16" >H</text>
<text x="317.312069" y="372.941277" fill="rgb(191,191,191)"  stroke="rgb(191,191,191)" stroke-width="1" font-size="16" >H</text>
<text x="389.789577" y="286.247129" fill="rgb(191,191,191)"  stroke="rgb(191,191,191)" stroke-width="1" font-size="16" >H</text>
<text x="350.948997" y="286.247129" fill="rgb(191,191,191)"  stroke="rgb(191,191,191)" stroke-width="1" font-size="16" >H</text>
<text x="216.401283" y="286.247129" fill="rgb(191,191,191)"  stroke="rgb(191,191,191)" stroke-width="1" font-size="16" >H</text>
<text x="471.280073" y="261.623188" fill="rgb(191,191,191)"  stroke="rgb(191,191,191)" stroke-width="1" font-size="16" >H</text>
<text x="471.280073" y="222.782609" fill="rgb(191,191,191)"  stroke="rgb(191,191,191)" stroke-width="1" font-size="16" >H</text>
<text x="538.553931" y="378.144928" fill="rgb(191,191,191)"  stroke="rgb(191,191,191)" stroke-width="1" font-size="16" >H</text>
<text x="538.553931" y="261.623188" fill="rgb(191,191,191)"  stroke="rgb(191,191,191)" stroke-width="1" font-size="16" >H</text>
<text x="605.827788" y="222.782609" fill="rgb(191,191,191)"  stroke="rgb(191,191,191)" stroke-width="1" font-size="16" >H</text>
<text x="673.101646" y="339.304348" fill="rgb(191,191,191)"  stroke="rgb(191,191,191)" stroke-width="1" font-size="16" >H</text>
<text x="605.827788" y="378.144928" fill="rgb(191,191,191)"  stroke="rgb(191,191,191)" stroke-width="1" font-size="16" >H</text>
<text x="673.101646" y="261.623188" fill="rgb(30,239,30)"  stroke="rgb(30,239,30)" stroke-width="1" font-size="16" >Cl</text>
<text x="255.241862" y="286.247129" fill="rgb(191,191,191)"  stroke="rgb(191,191,191)" stroke-width="1" font-size="16" >H</text>
<text x="182.764354" y="372.941277" fill="rgb(191,191,191)"  stroke="rgb(191,191,191)" stroke-width="1" font-size="16" >H</text>
<text x="221.604933" y="372.941277" fill="rgb(191,191,191)"  stroke="rgb(191,191,191)" stroke-width="1" font-size="16" >H</text>
<text x="134.910786" y="339.304348" fill="rgb(191,191,191)"  stroke="rgb(191,191,191)" stroke-width="1" font-size="16" >H</text>
<text x="235.821572" y="281.043478" fill="rgb(191,191,191)"  stroke="rgb(191,191,191)" stroke-width="1" font-size="16" >H</text>
<text x="101.273857" y="281.043478" fill="rgb(191,191,191)"  stroke="rgb(191,191,191)" stroke-width="1" font-size="16" >H</text>
<text x="202.184644" y="145.101449" fill="rgb(191,191,191)"  stroke="rgb(191,191,191)" stroke-width="1" font-size="16" >H</text>
<text x="67.636929" y="222.782609" fill="rgb(191,191,191)"  stroke="rgb(191,191,191)" stroke-width="1" font-size="16" >H</text>
<text x="168.547715" y="164.521739" fill="rgb(191,191,191)"  stroke="rgb(191,191,191)" stroke-width="1" font-size="16" >H</text>
<text x="168.547715" y="86.840580" fill="rgb(191,191,191)"  stroke="rgb(191,191,191)" stroke-width="1" font-size="16" >H</text>
<text x="34.000000" y="86.840580" fill="rgb(191,191,191)"  stroke="rgb(191,191,191)" stroke-width="1" font-size="16" >H</text>
<text x="34.000000" y="164.521739" fill="rgb(191,191,191)"  stroke="rgb(191,191,191)" stroke-width="1" font-size="16" >H</text>
<text x="202.184644" y="222.782609" fill="rgb(191,191,191)"  stroke="rgb(191,191,191)" stroke-width="1" font-size="16" >H</text>
<text x="404.006216" y="261.623188" fill="rgb(191,191,191)"  stroke="rgb(191,191,191)" stroke-width="1" font-size="16" >H</text>
<text x="471.280073" y="378.144928" fill="rgb(191,191,191)"  stroke="rgb(191,191,191)" stroke-width="1" font-size="16" >H</text>
<text x="504.917002" y="242.202899" fill="rgb(12,12,255)"  stroke="rgb(12,12,255)" stroke-width="1" font-size="16" >N</text>
<text x="404.006216" y="339.304348" fill="rgb(12,12,255)"  stroke="rgb(12,12,255)" stroke-width="1" font-size="16" >N</text>
<text x="437.643145" y="281.043478" fill="rgb(12,12,255)"  stroke="rgb(12,12,255)" stroke-width="1" font-size="16" >N</text>
<text x="471.280073" y="339.304348" fill="rgb(12,12,255)"  stroke="rgb(12,12,255)" stroke-width="1" font-size="16" >N</text>
<text x="538.553931" y="339.304348" fill="rgb(12,12,255)"  stroke="rgb(12,12,255)" stroke-width="1" font-size="16" >N</text>
<text x="168.547715" y="319.884058" fill="rgb(12,12,255)"  stroke="rgb(12,12,255)" stroke-width="1" font-size="16" >N</text>
<text x="202.184644" y="261.623188" fill="rgb(12,12,255)"  stroke="rgb(12,12,255)" stroke-width="1" font-size="16" >N</text>
<text x="134.910786" y="261.623188" fill="rgb(12,12,255)"  stroke="rgb(12,12,255)" stroke-width="1" font-size="16" >N</text>
<text x="202.184644" y="183.942029" fill="rgb(12,12,255)"  stroke="rgb(12,12,255)" stroke-width="1" font-size="16" >N</text>
<text x="101.273857" y="203.362319" fill="rgb(12,12,255)"  stroke="rgb(12,12,255)" stroke-width="1" font-size="16" >N</text>
<text x="101.273857" y="48.000000" fill="rgb(30,239,30)"  stroke="rgb(30,239,30)" stroke-width="1" font-size="16" >Cl</text>
</svg>
</g>
<text font-size="18.000000" fill ="black" font-family="sans-serif"
x="10.000000" y="20.000000" >ZINC18098320</text>
</svg>
