<?xml version="1.0"?>
<svg version="1.1" id="topsvg"
xmlns="http://www.w3.org/2000/svg" xmlns:xlink="http://www.w3.org/1999/xlink"
xmlns:cml="http://www.xml-cml.org/schema" x="0" y="0" width="200px" height="200px" viewBox="0 0 100 100">
<title>ZINC98224471 - Open Babel Depiction</title>
<rect x="0" y="0" width="100" height="100" fill="white"/>
<g transform="translate(0,0)">
<svg width="100" height="100" x="0" y="0" viewBox="0 0 665.897 546.121"
font-family="sans-serif" stroke="rgb(0,0,0)" stroke-width="2"  stroke-linecap="round">
<line x1="285.4" y1="293.6" x2="285.4" y2="271.2" stroke="rgb(0,0,0)"  stroke-width="2.0"/>
<line x1="285.4" y1="293.6" x2="296.6" y2="313.0" stroke="rgb(0,0,0)"  stroke-width="2.0"/>
<line x1="285.4" y1="293.6" x2="307.8" y2="293.6" stroke="rgb(0,0,0)"  stroke-width="2.0"/>
<line x1="285.4" y1="293.6" x2="266.0" y2="304.8" stroke="rgb(0,0,0)"  stroke-width="2.0"/>
<line x1="296.6" y1="251.7" x2="316.0" y2="240.5" stroke="rgb(0,0,0)"  stroke-width="2.0"/>
<line x1="274.1" y1="251.7" x2="254.7" y2="240.5" stroke="rgb(0,0,0)"  stroke-width="2.0"/>
<line x1="316.0" y1="240.5" x2="327.3" y2="221.1" stroke="rgb(0,0,0)"  stroke-width="2.0"/>
<line x1="316.0" y1="240.5" x2="304.8" y2="221.1" stroke="rgb(0,0,0)"  stroke-width="2.0"/>
<line x1="316.0" y1="240.5" x2="335.5" y2="251.7" stroke="rgb(0,0,0)"  stroke-width="2.0"/>
<polygon points="254.702131 240.495772 246.301650 263.045833 239.373446 259.045833 " stroke-width="2.000000" fill="rgb(0,0,0)"  stroke="rgb(0,0,0)" />
<line x1="254.7" y1="240.5" x2="224.0" y2="222.8" stroke="rgb(0,0,0)"  stroke-width="2.0"/>
<line x1="254.7" y1="240.5" x2="325.5" y2="117.8" stroke="rgb(0,0,0)"  stroke-width="2.0"/>
<line x1="224.0" y1="187.4" x2="243.4" y2="176.2" stroke="rgb(0,0,0)"  stroke-width="2.0"/>
<line x1="193.4" y1="169.7" x2="193.4" y2="147.2" stroke="rgb(0,0,0)"  stroke-width="2.0"/>
<line x1="162.7" y1="187.4" x2="143.3" y2="176.2" stroke="rgb(0,0,0)"  stroke-width="2.0"/>
<line x1="162.7" y1="222.8" x2="143.3" y2="234.0" stroke="rgb(0,0,0)"  stroke-width="2.0"/>
<line x1="193.4" y1="240.5" x2="193.4" y2="369.2" stroke="rgb(0,0,0)"  stroke-width="2.0"/>
<line x1="182.1" y1="388.7" x2="132.0" y2="417.6" stroke="rgb(0,0,0)"  stroke-width="2.0"/>
<line x1="204.6" y1="388.7" x2="224.0" y2="399.9" stroke="rgb(0,0,0)"  stroke-width="2.0"/>
<line x1="101.3" y1="399.9" x2="101.3" y2="377.5" stroke="rgb(0,0,0)"  stroke-width="2.0"/>
<line x1="70.7" y1="417.6" x2="51.3" y2="406.4" stroke="rgb(0,0,0)"  stroke-width="2.0"/>
<line x1="70.7" y1="453.0" x2="51.3" y2="464.2" stroke="rgb(0,0,0)"  stroke-width="2.0"/>
<line x1="101.3" y1="470.7" x2="101.3" y2="493.1" stroke="rgb(0,0,0)"  stroke-width="2.0"/>
<line x1="132.0" y1="453.0" x2="151.4" y2="464.2" stroke="rgb(0,0,0)"  stroke-width="2.0"/>
<line x1="224.0" y1="435.3" x2="204.6" y2="446.5" stroke="rgb(0,0,0)"  stroke-width="2.0"/>
<line x1="254.7" y1="453.0" x2="254.7" y2="475.4" stroke="rgb(0,0,0)"  stroke-width="2.0"/>
<line x1="285.4" y1="435.3" x2="304.8" y2="446.5" stroke="rgb(0,0,0)"  stroke-width="2.0"/>
<line x1="285.4" y1="399.9" x2="304.8" y2="388.7" stroke="rgb(0,0,0)"  stroke-width="2.0"/>
<line x1="254.7" y1="382.2" x2="254.7" y2="359.7" stroke="rgb(0,0,0)"  stroke-width="2.0"/>
<line x1="332.3" y1="120.0" x2="331.7" y2="121.4" stroke="rgb(0,0,0)"  stroke-width="1.0"/>
<line x1="337.8" y1="121.7" x2="336.6" y2="124.3" stroke="rgb(0,0,0)"  stroke-width="1.0"/>
<line x1="343.2" y1="123.4" x2="341.5" y2="127.2" stroke="rgb(0,0,0)"  stroke-width="1.0"/>
<line x1="348.6" y1="125.1" x2="346.4" y2="130.1" stroke="rgb(0,0,0)"  stroke-width="1.0"/>
<line x1="354.1" y1="126.8" x2="351.3" y2="133.0" stroke="rgb(0,0,0)"  stroke-width="1.0"/>
<line x1="359.5" y1="128.6" x2="356.3" y2="135.9" stroke="rgb(0,0,0)"  stroke-width="1.0"/>
<line x1="325.5" y1="117.8" x2="303.1" y2="117.8" stroke="rgb(0,0,0)"  stroke-width="2.0"/>
<line x1="329.2" y1="82.6" x2="307.3" y2="77.9" stroke="rgb(0,0,0)"  stroke-width="2.0"/>
<line x1="329.2" y1="82.6" x2="322.3" y2="61.3" stroke="rgb(0,0,0)"  stroke-width="2.0"/>
<line x1="363.9" y1="75.2" x2="361.5" y2="52.9" stroke="rgb(0,0,0)"  stroke-width="2.0"/>
<line x1="363.9" y1="75.2" x2="382.0" y2="62.0" stroke="rgb(0,0,0)"  stroke-width="2.0"/>
<line x1="381.6" y1="105.9" x2="402.1" y2="96.8" stroke="rgb(0,0,0)"  stroke-width="2.0"/>
<line x1="381.6" y1="105.9" x2="399.7" y2="119.1" stroke="rgb(0,0,0)"  stroke-width="2.0"/>
<line x1="357.9" y1="132.2" x2="444.0" y2="227.8" stroke="rgb(0,0,0)"  stroke-width="2.0"/>
<line x1="357.2" y1="137.0" x2="355.7" y2="136.5" stroke="rgb(0,0,0)"  stroke-width="1.0"/>
<line x1="356.6" y1="140.8" x2="353.9" y2="139.9" stroke="rgb(0,0,0)"  stroke-width="1.0"/>
<line x1="356.1" y1="144.6" x2="352.1" y2="143.3" stroke="rgb(0,0,0)"  stroke-width="1.0"/>
<line x1="355.5" y1="148.4" x2="350.3" y2="146.7" stroke="rgb(0,0,0)"  stroke-width="1.0"/>
<line x1="354.9" y1="152.2" x2="348.5" y2="150.1" stroke="rgb(0,0,0)"  stroke-width="1.0"/>
<line x1="354.4" y1="156.0" x2="346.8" y2="153.5" stroke="rgb(0,0,0)"  stroke-width="1.0"/>
<line x1="465.4" y1="234.8" x2="522.0" y2="222.8" stroke="rgb(0,0,0)"  stroke-width="2.0"/>
<line x1="448.7" y1="249.9" x2="441.7" y2="271.2" stroke="rgb(0,0,0)"  stroke-width="2.0"/>
<line x1="532.9" y1="189.1" x2="517.9" y2="172.4" stroke="rgb(0,0,0)"  stroke-width="2.0"/>
<line x1="567.6" y1="181.7" x2="574.5" y2="160.4" stroke="rgb(0,0,0)"  stroke-width="2.0"/>
<line x1="591.3" y1="208.0" x2="613.2" y2="203.4" stroke="rgb(0,0,0)"  stroke-width="2.0"/>
<line x1="580.3" y1="241.7" x2="595.3" y2="258.4" stroke="rgb(0,0,0)"  stroke-width="2.0"/>
<line x1="545.7" y1="249.1" x2="538.7" y2="270.4" stroke="rgb(0,0,0)"  stroke-width="2.0"/>
<line x1="465.4" y1="297.5" x2="487.4" y2="292.8" stroke="rgb(0,0,0)"  stroke-width="2.0"/>
<line x1="454.5" y1="331.2" x2="469.5" y2="347.8" stroke="rgb(0,0,0)"  stroke-width="2.0"/>
<line x1="419.9" y1="338.5" x2="412.9" y2="359.9" stroke="rgb(0,0,0)"  stroke-width="2.0"/>
<line x1="396.2" y1="312.2" x2="374.2" y2="316.9" stroke="rgb(0,0,0)"  stroke-width="2.0"/>
<line x1="407.1" y1="278.5" x2="392.1" y2="261.9" stroke="rgb(0,0,0)"  stroke-width="2.0"/>
<line x1="193.4" y1="169.7" x2="162.7" y2="187.4" stroke="rgb(0,0,0)"  stroke-width="2.0"/>
<line x1="162.7" y1="187.4" x2="162.7" y2="222.8" stroke="rgb(0,0,0)"  stroke-width="2.0"/>
<line x1="169.9" y1="193.4" x2="169.9" y2="216.8" stroke="rgb(0,0,0)"  stroke-width="2.0"/>
<line x1="162.7" y1="222.8" x2="193.4" y2="240.5" stroke="rgb(0,0,0)"  stroke-width="2.0"/>
<line x1="193.4" y1="240.5" x2="224.0" y2="222.8" stroke="rgb(0,0,0)"  stroke-width="2.0"/>
<line x1="195.0" y1="231.3" x2="215.2" y2="219.6" stroke="rgb(0,0,0)"  stroke-width="2.0"/>
<line x1="224.0" y1="222.8" x2="224.0" y2="187.4" stroke="rgb(0,0,0)"  stroke-width="2.0"/>
<line x1="224.0" y1="187.4" x2="193.4" y2="169.7" stroke="rgb(0,0,0)"  stroke-width="2.0"/>
<line x1="215.2" y1="190.6" x2="195.0" y2="178.9" stroke="rgb(0,0,0)"  stroke-width="2.0"/>
<line x1="70.7" y1="417.6" x2="70.7" y2="453.0" stroke="rgb(0,0,0)"  stroke-width="2.0"/>
<line x1="70.7" y1="453.0" x2="101.3" y2="470.7" stroke="rgb(0,0,0)"  stroke-width="2.0"/>
<line x1="79.5" y1="449.8" x2="99.7" y2="461.5" stroke="rgb(0,0,0)"  stroke-width="2.0"/>
<line x1="101.3" y1="470.7" x2="132.0" y2="453.0" stroke="rgb(0,0,0)"  stroke-width="2.0"/>
<line x1="132.0" y1="453.0" x2="132.0" y2="417.6" stroke="rgb(0,0,0)"  stroke-width="2.0"/>
<line x1="124.8" y1="447.0" x2="124.8" y2="423.6" stroke="rgb(0,0,0)"  stroke-width="2.0"/>
<line x1="132.0" y1="417.6" x2="101.3" y2="399.9" stroke="rgb(0,0,0)"  stroke-width="2.0"/>
<line x1="101.3" y1="399.9" x2="70.7" y2="417.6" stroke="rgb(0,0,0)"  stroke-width="2.0"/>
<line x1="99.7" y1="409.1" x2="79.5" y2="420.8" stroke="rgb(0,0,0)"  stroke-width="2.0"/>
<line x1="254.7" y1="453.0" x2="285.4" y2="435.3" stroke="rgb(0,0,0)"  stroke-width="2.0"/>
<line x1="285.4" y1="435.3" x2="285.4" y2="399.9" stroke="rgb(0,0,0)"  stroke-width="2.0"/>
<line x1="278.2" y1="429.3" x2="278.2" y2="405.9" stroke="rgb(0,0,0)"  stroke-width="2.0"/>
<line x1="285.4" y1="399.9" x2="254.7" y2="382.2" stroke="rgb(0,0,0)"  stroke-width="2.0"/>
<line x1="254.7" y1="382.2" x2="224.0" y2="399.9" stroke="rgb(0,0,0)"  stroke-width="2.0"/>
<line x1="253.1" y1="391.4" x2="232.8" y2="403.1" stroke="rgb(0,0,0)"  stroke-width="2.0"/>
<line x1="224.0" y1="399.9" x2="224.0" y2="435.3" stroke="rgb(0,0,0)"  stroke-width="2.0"/>
<line x1="224.0" y1="435.3" x2="254.7" y2="453.0" stroke="rgb(0,0,0)"  stroke-width="2.0"/>
<line x1="232.8" y1="432.1" x2="253.1" y2="443.8" stroke="rgb(0,0,0)"  stroke-width="2.0"/>
<line x1="567.6" y1="181.7" x2="591.3" y2="208.0" stroke="rgb(0,0,0)"  stroke-width="2.0"/>
<line x1="591.3" y1="208.0" x2="580.3" y2="241.7" stroke="rgb(0,0,0)"  stroke-width="2.0"/>
<line x1="582.6" y1="211.5" x2="575.3" y2="233.8" stroke="rgb(0,0,0)"  stroke-width="2.0"/>
<line x1="580.3" y1="241.7" x2="545.7" y2="249.1" stroke="rgb(0,0,0)"  stroke-width="2.0"/>
<line x1="545.7" y1="249.1" x2="522.0" y2="222.8" stroke="rgb(0,0,0)"  stroke-width="2.0"/>
<line x1="547.0" y1="239.8" x2="531.3" y2="222.4" stroke="rgb(0,0,0)"  stroke-width="2.0"/>
<line x1="522.0" y1="222.8" x2="532.9" y2="189.1" stroke="rgb(0,0,0)"  stroke-width="2.0"/>
<line x1="532.9" y1="189.1" x2="567.6" y2="181.7" stroke="rgb(0,0,0)"  stroke-width="2.0"/>
<line x1="540.3" y1="194.9" x2="563.2" y2="190.0" stroke="rgb(0,0,0)"  stroke-width="2.0"/>
<line x1="454.5" y1="331.2" x2="419.9" y2="338.5" stroke="rgb(0,0,0)"  stroke-width="2.0"/>
<line x1="419.9" y1="338.5" x2="396.2" y2="312.2" stroke="rgb(0,0,0)"  stroke-width="2.0"/>
<line x1="421.2" y1="329.3" x2="405.5" y2="311.9" stroke="rgb(0,0,0)"  stroke-width="2.0"/>
<line x1="396.2" y1="312.2" x2="407.1" y2="278.5" stroke="rgb(0,0,0)"  stroke-width="2.0"/>
<line x1="407.1" y1="278.5" x2="441.7" y2="271.2" stroke="rgb(0,0,0)"  stroke-width="2.0"/>
<line x1="414.5" y1="284.3" x2="437.4" y2="279.5" stroke="rgb(0,0,0)"  stroke-width="2.0"/>
<line x1="441.7" y1="271.2" x2="465.4" y2="297.5" stroke="rgb(0,0,0)"  stroke-width="2.0"/>
<line x1="465.4" y1="297.5" x2="454.5" y2="331.2" stroke="rgb(0,0,0)"  stroke-width="2.0"/>
<line x1="456.7" y1="301.0" x2="449.5" y2="323.2" stroke="rgb(0,0,0)"  stroke-width="2.0"/>
<line x1="363.9" y1="75.2" x2="381.6" y2="105.9" stroke="rgb(0,0,0)"  stroke-width="2.0"/>
<line x1="381.6" y1="105.9" x2="357.9" y2="132.2" stroke="rgb(0,0,0)"  stroke-width="2.0"/>
<line x1="357.9" y1="132.2" x2="325.5" y2="117.8" stroke="rgb(0,0,0)"  stroke-width="2.0"/>
<line x1="325.5" y1="117.8" x2="329.2" y2="82.6" stroke="rgb(0,0,0)"  stroke-width="2.0"/>
<line x1="329.2" y1="82.6" x2="363.9" y2="75.2" stroke="rgb(0,0,0)"  stroke-width="2.0"/>
<text x="340.717331" y="266.204106" fill="rgb(191,191,191)"  stroke="rgb(191,191,191)" stroke-width="1" font-size="16" >H</text>
<text x="156.686932" y="478.704106" fill="rgb(191,191,191)"  stroke="rgb(191,191,191)" stroke-width="1" font-size="16" >H</text>
<text x="95.343466" y="514.120772" fill="rgb(191,191,191)"  stroke="rgb(191,191,191)" stroke-width="1" font-size="16" >H</text>
<text x="34.000000" y="478.704106" fill="rgb(191,191,191)"  stroke="rgb(191,191,191)" stroke-width="1" font-size="16" >H</text>
<text x="34.000000" y="407.870772" fill="rgb(191,191,191)"  stroke="rgb(191,191,191)" stroke-width="1" font-size="16" >H</text>
<text x="95.343466" y="372.454106" fill="rgb(191,191,191)"  stroke="rgb(191,191,191)" stroke-width="1" font-size="16" >H</text>
<text x="126.015199" y="248.495772" fill="rgb(191,191,191)"  stroke="rgb(191,191,191)" stroke-width="1" font-size="16" >H</text>
<text x="126.015199" y="177.662439" fill="rgb(191,191,191)"  stroke="rgb(191,191,191)" stroke-width="1" font-size="16" >H</text>
<text x="187.358665" y="142.245772" fill="rgb(191,191,191)"  stroke="rgb(191,191,191)" stroke-width="1" font-size="16" >H</text>
<text x="248.702131" y="177.662439" fill="rgb(191,191,191)"  stroke="rgb(191,191,191)" stroke-width="1" font-size="16" >H</text>
<text x="187.358665" y="460.995772" fill="rgb(191,191,191)"  stroke="rgb(191,191,191)" stroke-width="1" font-size="16" >H</text>
<text x="292.337264" y="217.824039" fill="rgb(191,191,191)"  stroke="rgb(191,191,191)" stroke-width="1" font-size="16" >H</text>
<text x="327.753931" y="217.824039" fill="rgb(191,191,191)"  stroke="rgb(191,191,191)" stroke-width="1" font-size="16" >H</text>
<text x="248.702131" y="319.329106" fill="rgb(191,191,191)"  stroke="rgb(191,191,191)" stroke-width="1" font-size="16" >H</text>
<text x="314.790531" y="301.620772" fill="rgb(191,191,191)"  stroke="rgb(191,191,191)" stroke-width="1" font-size="16" >H</text>
<text x="297.082198" y="332.292505" fill="rgb(191,191,191)"  stroke="rgb(191,191,191)" stroke-width="1" font-size="16" >H</text>
<text x="494.080453" y="298.132371" fill="rgb(191,191,191)"  stroke="rgb(191,191,191)" stroke-width="1" font-size="16" >H</text>
<text x="340.945848" y="173.897348" fill="rgb(191,191,191)"  stroke="rgb(191,191,191)" stroke-width="1" font-size="16" >H</text>
<text x="404.241261" y="134.711778" fill="rgb(191,191,191)"  stroke="rgb(191,191,191)" stroke-width="1" font-size="16" >H</text>
<text x="386.532927" y="62.405256" fill="rgb(191,191,191)"  stroke="rgb(191,191,191)" stroke-width="1" font-size="16" >H</text>
<text x="312.293163" y="56.902938" fill="rgb(191,191,191)"  stroke="rgb(191,191,191)" stroke-width="1" font-size="16" >H</text>
<text x="284.118798" y="125.808840" fill="rgb(191,191,191)"  stroke="rgb(191,191,191)" stroke-width="1" font-size="16" >H</text>
<text x="377.398247" y="260.220024" fill="rgb(191,191,191)"  stroke="rgb(191,191,191)" stroke-width="1" font-size="16" >H</text>
<text x="355.509543" y="327.586528" fill="rgb(191,191,191)"  stroke="rgb(191,191,191)" stroke-width="1" font-size="16" >H</text>
<text x="402.906295" y="380.225953" fill="rgb(191,191,191)"  stroke="rgb(191,191,191)" stroke-width="1" font-size="16" >H</text>
<text x="472.191750" y="365.498875" fill="rgb(191,191,191)"  stroke="rgb(191,191,191)" stroke-width="1" font-size="16" >H</text>
<text x="528.723181" y="290.768832" fill="rgb(191,191,191)"  stroke="rgb(191,191,191)" stroke-width="1" font-size="16" >H</text>
<text x="598.008636" y="276.041754" fill="rgb(191,191,191)"  stroke="rgb(191,191,191)" stroke-width="1" font-size="16" >H</text>
<text x="619.897340" y="208.675251" fill="rgb(191,191,191)"  stroke="rgb(191,191,191)" stroke-width="1" font-size="16" >H</text>
<text x="572.500589" y="156.035826" fill="rgb(191,191,191)"  stroke="rgb(191,191,191)" stroke-width="1" font-size="16" >H</text>
<text x="503.215134" y="170.762904" fill="rgb(191,191,191)"  stroke="rgb(191,191,191)" stroke-width="1" font-size="16" >H</text>
<text x="248.702131" y="354.745772" fill="rgb(191,191,191)"  stroke="rgb(191,191,191)" stroke-width="1" font-size="16" >H</text>
<text x="310.045597" y="390.162439" fill="rgb(191,191,191)"  stroke="rgb(191,191,191)" stroke-width="1" font-size="16" >H</text>
<text x="310.045597" y="460.995772" fill="rgb(191,191,191)"  stroke="rgb(191,191,191)" stroke-width="1" font-size="16" >H</text>
<text x="248.702131" y="496.412439" fill="rgb(191,191,191)"  stroke="rgb(191,191,191)" stroke-width="1" font-size="16" >H</text>
<text x="187.358665" y="390.162439" fill="rgb(255,127,0)"  stroke="rgb(255,127,0)" stroke-width="1" font-size="16" >P</text>
<text x="230.993798" y="279.167505" fill="rgb(191,191,191)"  stroke="rgb(191,191,191)" stroke-width="1" font-size="16" >H</text>
<text x="279.373864" y="266.204106" fill="rgb(12,12,255)"  stroke="rgb(12,12,255)" stroke-width="1" font-size="16" >N</text>
<text x="407.943310" y="99.489127" fill="rgb(191,191,191)"  stroke="rgb(191,191,191)" stroke-width="1" font-size="16" >H</text>
<text x="446.683702" y="245.492946" fill="rgb(255,127,0)"  stroke="rgb(255,127,0)" stroke-width="1" font-size="16" >P</text>
<text x="354.178192" y="48.000000" fill="rgb(191,191,191)"  stroke="rgb(191,191,191)" stroke-width="1" font-size="16" >H</text>
<text x="288.594787" y="83.222650" fill="rgb(191,191,191)"  stroke="rgb(191,191,191)" stroke-width="1" font-size="16" >H</text>
</svg>
</g>
<text font-size="18.000000" fill ="black" font-family="sans-serif"
x="10.000000" y="20.000000" >ZINC98224471</text>
</svg>
