<?xml version="1.0"?>
<svg version="1.1" id="topsvg"
xmlns="http://www.w3.org/2000/svg" xmlns:xlink="http://www.w3.org/1999/xlink"
xmlns:cml="http://www.xml-cml.org/schema" x="0" y="0" width="200px" height="200px" viewBox="0 0 100 100">
<title>ZINC97949354 - Open Babel Depiction</title>
<rect x="0" y="0" width="100" height="100" fill="white"/>
<g transform="translate(0,0)">
<svg width="100" height="100" x="0" y="0" viewBox="0 0 645.265 606.393"
font-family="sans-serif" stroke="rgb(0,0,0)" stroke-width="2"  stroke-linecap="round">
<line x1="122.7" y1="74.3" x2="88.4" y2="94.1" stroke="rgb(0,0,0)"  stroke-width="2.0"/>
<line x1="122.7" y1="74.3" x2="135.9" y2="51.3" stroke="rgb(0,0,0)"  stroke-width="2.0"/>
<line x1="122.7" y1="74.3" x2="109.4" y2="51.3" stroke="rgb(0,0,0)"  stroke-width="2.0"/>
<line x1="122.7" y1="74.3" x2="145.7" y2="87.6" stroke="rgb(0,0,0)"  stroke-width="2.0"/>
<line x1="88.4" y1="94.1" x2="88.4" y2="133.6" stroke="rgb(0,0,0)"  stroke-width="2.0"/>
<line x1="88.4" y1="94.1" x2="61.8" y2="94.1" stroke="rgb(0,0,0)"  stroke-width="2.0"/>
<line x1="88.4" y1="94.1" x2="75.1" y2="71.0" stroke="rgb(0,0,0)"  stroke-width="2.0"/>
<line x1="88.4" y1="133.6" x2="122.7" y2="153.4" stroke="rgb(0,0,0)"  stroke-width="2.0"/>
<line x1="88.4" y1="133.6" x2="75.1" y2="156.6" stroke="rgb(0,0,0)"  stroke-width="2.0"/>
<line x1="88.4" y1="133.6" x2="61.8" y2="133.6" stroke="rgb(0,0,0)"  stroke-width="2.0"/>
<line x1="122.7" y1="153.4" x2="156.9" y2="133.6" stroke="rgb(0,0,0)"  stroke-width="2.0"/>
<line x1="122.7" y1="153.4" x2="135.9" y2="176.4" stroke="rgb(0,0,0)"  stroke-width="2.0"/>
<line x1="122.7" y1="153.4" x2="109.4" y2="176.4" stroke="rgb(0,0,0)"  stroke-width="2.0"/>
<line x1="156.9" y1="133.6" x2="191.2" y2="153.4" stroke="rgb(0,0,0)"  stroke-width="2.0"/>
<line x1="156.9" y1="133.6" x2="170.2" y2="110.6" stroke="rgb(0,0,0)"  stroke-width="2.0"/>
<line x1="156.9" y1="133.6" x2="143.6" y2="110.6" stroke="rgb(0,0,0)"  stroke-width="2.0"/>
<line x1="191.2" y1="153.4" x2="225.5" y2="133.6" stroke="rgb(0,0,0)"  stroke-width="2.0"/>
<line x1="191.2" y1="153.4" x2="204.5" y2="176.4" stroke="rgb(0,0,0)"  stroke-width="2.0"/>
<line x1="191.2" y1="153.4" x2="177.9" y2="176.4" stroke="rgb(0,0,0)"  stroke-width="2.0"/>
<line x1="225.5" y1="133.6" x2="259.7" y2="153.4" stroke="rgb(0,0,0)"  stroke-width="2.0"/>
<line x1="225.5" y1="133.6" x2="238.8" y2="110.6" stroke="rgb(0,0,0)"  stroke-width="2.0"/>
<line x1="225.5" y1="133.6" x2="212.2" y2="110.6" stroke="rgb(0,0,0)"  stroke-width="2.0"/>
<line x1="258.2" y1="150.8" x2="281.2" y2="137.5" stroke="rgb(0,0,0)"  stroke-width="2.0"/>
<line x1="261.2" y1="156.0" x2="284.2" y2="142.7" stroke="rgb(0,0,0)"  stroke-width="2.0"/>
<line x1="259.7" y1="153.4" x2="259.7" y2="180.0" stroke="rgb(0,0,0)"  stroke-width="2.0"/>
<line x1="271.0" y1="199.5" x2="294.0" y2="212.8" stroke="rgb(0,0,0)"  stroke-width="2.0"/>
<line x1="294.0" y1="212.8" x2="294.0" y2="252.3" stroke="rgb(0,0,0)"  stroke-width="2.0"/>
<line x1="294.0" y1="212.8" x2="320.6" y2="212.8" stroke="rgb(0,0,0)"  stroke-width="2.0"/>
<line x1="294.0" y1="212.8" x2="307.3" y2="189.8" stroke="rgb(0,0,0)"  stroke-width="2.0"/>
<line x1="288.7" y1="253.1" x2="288.7" y2="251.5" stroke="rgb(0,0,0)"  stroke-width="1.0"/>
<line x1="284.5" y1="253.8" x2="284.5" y2="250.9" stroke="rgb(0,0,0)"  stroke-width="1.0"/>
<line x1="280.2" y1="254.4" x2="280.2" y2="250.3" stroke="rgb(0,0,0)"  stroke-width="1.0"/>
<line x1="276.0" y1="255.1" x2="276.0" y2="249.6" stroke="rgb(0,0,0)"  stroke-width="1.0"/>
<line x1="271.7" y1="255.7" x2="271.7" y2="249.0" stroke="rgb(0,0,0)"  stroke-width="1.0"/>
<line x1="267.5" y1="256.3" x2="267.5" y2="248.3" stroke="rgb(0,0,0)"  stroke-width="1.0"/>
<line x1="294.0" y1="252.3" x2="294.0" y2="291.9" stroke="rgb(0,0,0)"  stroke-width="2.0"/>
<line x1="294.0" y1="252.3" x2="320.6" y2="252.3" stroke="rgb(0,0,0)"  stroke-width="2.0"/>
<line x1="294.0" y1="291.9" x2="271.0" y2="305.2" stroke="rgb(0,0,0)"  stroke-width="2.0"/>
<line x1="294.0" y1="291.9" x2="307.3" y2="314.9" stroke="rgb(0,0,0)"  stroke-width="2.0"/>
<line x1="294.0" y1="291.9" x2="320.6" y2="291.9" stroke="rgb(0,0,0)"  stroke-width="2.0"/>
<line x1="259.7" y1="324.7" x2="259.7" y2="338.3" stroke="rgb(0,0,0)"  stroke-width="2.0"/>
<line x1="275.5" y1="350.5" x2="275.5" y2="352.1" stroke="rgb(0,0,0)"  stroke-width="1.0"/>
<line x1="277.6" y1="349.8" x2="277.6" y2="352.7" stroke="rgb(0,0,0)"  stroke-width="1.0"/>
<line x1="279.8" y1="349.2" x2="279.8" y2="353.3" stroke="rgb(0,0,0)"  stroke-width="1.0"/>
<line x1="281.9" y1="348.5" x2="281.9" y2="354.0" stroke="rgb(0,0,0)"  stroke-width="1.0"/>
<line x1="284.1" y1="347.9" x2="284.1" y2="354.6" stroke="rgb(0,0,0)"  stroke-width="1.0"/>
<line x1="286.3" y1="347.3" x2="286.3" y2="355.3" stroke="rgb(0,0,0)"  stroke-width="1.0"/>
<line x1="259.7" y1="364.3" x2="259.7" y2="377.8" stroke="rgb(0,0,0)"  stroke-width="2.0"/>
<line x1="246.7" y1="351.3" x2="233.2" y2="351.3" stroke="rgb(0,0,0)"  stroke-width="2.0"/>
<line x1="213.7" y1="362.5" x2="200.4" y2="385.5" stroke="rgb(0,0,0)"  stroke-width="2.0"/>
<line x1="200.4" y1="385.5" x2="240.6" y2="438.0" stroke="rgb(0,0,0)"  stroke-width="2.0"/>
<line x1="199.1" y1="393.4" x2="197.6" y2="393.0" stroke="rgb(0,0,0)"  stroke-width="1.0"/>
<line x1="198.1" y1="399.7" x2="195.3" y2="398.9" stroke="rgb(0,0,0)"  stroke-width="1.0"/>
<line x1="197.1" y1="405.9" x2="193.0" y2="404.9" stroke="rgb(0,0,0)"  stroke-width="1.0"/>
<line x1="196.0" y1="412.2" x2="190.8" y2="410.8" stroke="rgb(0,0,0)"  stroke-width="1.0"/>
<line x1="195.0" y1="418.5" x2="188.5" y2="416.8" stroke="rgb(0,0,0)"  stroke-width="1.0"/>
<line x1="194.0" y1="424.8" x2="186.3" y2="422.7" stroke="rgb(0,0,0)"  stroke-width="1.0"/>
<polygon points="172.403441 357.546172 203.212007 382.697884 197.555153 388.354739 " stroke-width="2.000000" fill="rgb(0,0,0)"  stroke="rgb(0,0,0)" />
<line x1="172.4" y1="357.5" x2="191.2" y2="338.8" stroke="rgb(0,0,0)"  stroke-width="2.0"/>
<line x1="141.6" y1="365.0" x2="142.0" y2="366.5" stroke="rgb(0,0,0)"  stroke-width="1.0"/>
<line x1="147.6" y1="362.7" x2="148.3" y2="365.5" stroke="rgb(0,0,0)"  stroke-width="1.0"/>
<line x1="153.5" y1="360.5" x2="154.6" y2="364.5" stroke="rgb(0,0,0)"  stroke-width="1.0"/>
<line x1="159.5" y1="358.2" x2="160.9" y2="363.5" stroke="rgb(0,0,0)"  stroke-width="1.0"/>
<line x1="165.4" y1="355.9" x2="167.2" y2="362.4" stroke="rgb(0,0,0)"  stroke-width="1.0"/>
<line x1="171.4" y1="353.7" x2="173.4" y2="361.4" stroke="rgb(0,0,0)"  stroke-width="1.0"/>
<line x1="172.4" y1="357.5" x2="165.5" y2="331.9" stroke="rgb(0,0,0)"  stroke-width="2.0"/>
<line x1="134.2" y1="367.8" x2="127.3" y2="342.1" stroke="rgb(0,0,0)"  stroke-width="2.0"/>
<polygon points="123.940418 406.009195 130.318156 366.752338 138.045563 368.822890 " stroke-width="2.000000" fill="rgb(0,0,0)"  stroke="rgb(0,0,0)" />
<line x1="134.2" y1="367.8" x2="108.5" y2="360.9" stroke="rgb(0,0,0)"  stroke-width="2.0"/>
<line x1="123.9" y1="406.0" x2="98.3" y2="399.1" stroke="rgb(0,0,0)"  stroke-width="2.0"/>
<line x1="145.8" y1="429.0" x2="146.9" y2="427.8" stroke="rgb(0,0,0)"  stroke-width="1.0"/>
<line x1="140.8" y1="424.9" x2="142.9" y2="422.9" stroke="rgb(0,0,0)"  stroke-width="1.0"/>
<line x1="135.9" y1="420.9" x2="138.8" y2="418.0" stroke="rgb(0,0,0)"  stroke-width="1.0"/>
<line x1="131.0" y1="416.9" x2="134.8" y2="413.0" stroke="rgb(0,0,0)"  stroke-width="1.0"/>
<line x1="126.0" y1="412.9" x2="130.8" y2="408.1" stroke="rgb(0,0,0)"  stroke-width="1.0"/>
<line x1="121.1" y1="408.8" x2="126.8" y2="403.2" stroke="rgb(0,0,0)"  stroke-width="1.0"/>
<line x1="123.9" y1="406.0" x2="105.2" y2="424.8" stroke="rgb(0,0,0)"  stroke-width="2.0"/>
<line x1="151.9" y1="434.0" x2="133.1" y2="452.8" stroke="rgb(0,0,0)"  stroke-width="2.0"/>
<line x1="182.7" y1="426.6" x2="182.3" y2="425.0" stroke="rgb(0,0,0)"  stroke-width="1.0"/>
<line x1="176.8" y1="428.8" x2="176.0" y2="426.0" stroke="rgb(0,0,0)"  stroke-width="1.0"/>
<line x1="170.8" y1="431.1" x2="169.7" y2="427.1" stroke="rgb(0,0,0)"  stroke-width="1.0"/>
<line x1="164.9" y1="433.3" x2="163.4" y2="428.1" stroke="rgb(0,0,0)"  stroke-width="1.0"/>
<line x1="158.9" y1="435.6" x2="157.2" y2="429.1" stroke="rgb(0,0,0)"  stroke-width="1.0"/>
<line x1="153.0" y1="437.9" x2="150.9" y2="430.1" stroke="rgb(0,0,0)"  stroke-width="1.0"/>
<line x1="151.9" y1="434.0" x2="158.8" y2="459.7" stroke="rgb(0,0,0)"  stroke-width="2.0"/>
<line x1="190.1" y1="423.7" x2="197.0" y2="449.4" stroke="rgb(0,0,0)"  stroke-width="2.0"/>
<line x1="190.1" y1="423.7" x2="215.8" y2="430.6" stroke="rgb(0,0,0)"  stroke-width="2.0"/>
<line x1="231.7" y1="446.5" x2="235.2" y2="459.7" stroke="rgb(0,0,0)"  stroke-width="2.0"/>
<line x1="153.0" y1="481.4" x2="143.4" y2="491.0" stroke="rgb(0,0,0)"  stroke-width="2.0"/>
<polygon points="124.948414 490.957609 112.606739 484.272789 118.263593 478.615934 " stroke-width="2.000000" fill="rgb(0,0,0)"  stroke="rgb(0,0,0)" />
<line x1="125.0" y1="509.4" x2="115.4" y2="519.0" stroke="rgb(0,0,0)"  stroke-width="2.0"/>
<line x1="143.4" y1="509.4" x2="153.0" y2="519.0" stroke="rgb(0,0,0)"  stroke-width="2.0"/>
<line x1="109.6" y1="540.7" x2="113.1" y2="553.8" stroke="rgb(0,0,0)"  stroke-width="2.0"/>
<line x1="83.4" y1="430.6" x2="70.3" y2="427.1" stroke="rgb(0,0,0)"  stroke-width="2.0"/>
<line x1="86.8" y1="366.7" x2="77.2" y2="376.3" stroke="rgb(0,0,0)"  stroke-width="2.0"/>
<line x1="56.7" y1="378.5" x2="47.1" y2="368.9" stroke="rgb(0,0,0)"  stroke-width="2.0"/>
<line x1="60.9" y1="374.2" x2="51.3" y2="364.6" stroke="rgb(0,0,0)"  stroke-width="2.0"/>
<line x1="58.8" y1="394.7" x2="49.2" y2="404.3" stroke="rgb(0,0,0)"  stroke-width="2.0"/>
<line x1="77.2" y1="394.7" x2="86.8" y2="404.3" stroke="rgb(0,0,0)"  stroke-width="2.0"/>
<line x1="171.4" y1="310.1" x2="180.9" y2="300.5" stroke="rgb(0,0,0)"  stroke-width="2.0"/>
<line x1="340.1" y1="241.1" x2="353.4" y2="218.1" stroke="rgb(0,0,0)"  stroke-width="2.0"/>
<line x1="350.8" y1="219.6" x2="337.5" y2="196.6" stroke="rgb(0,0,0)"  stroke-width="2.0"/>
<line x1="356.0" y1="216.6" x2="342.7" y2="193.6" stroke="rgb(0,0,0)"  stroke-width="2.0"/>
<line x1="353.4" y1="218.1" x2="392.9" y2="218.1" stroke="rgb(0,0,0)"  stroke-width="2.0"/>
<line x1="392.9" y1="218.1" x2="412.7" y2="183.8" stroke="rgb(0,0,0)"  stroke-width="2.0"/>
<line x1="392.9" y1="218.1" x2="415.9" y2="231.3" stroke="rgb(0,0,0)"  stroke-width="2.0"/>
<line x1="392.9" y1="218.1" x2="392.9" y2="244.6" stroke="rgb(0,0,0)"  stroke-width="2.0"/>
<line x1="412.7" y1="183.8" x2="452.3" y2="183.8" stroke="rgb(0,0,0)"  stroke-width="2.0"/>
<line x1="412.7" y1="183.8" x2="412.7" y2="157.2" stroke="rgb(0,0,0)"  stroke-width="2.0"/>
<line x1="412.7" y1="183.8" x2="389.7" y2="170.5" stroke="rgb(0,0,0)"  stroke-width="2.0"/>
<line x1="452.3" y1="183.8" x2="472.1" y2="149.5" stroke="rgb(0,0,0)"  stroke-width="2.0"/>
<line x1="452.3" y1="183.8" x2="475.3" y2="197.1" stroke="rgb(0,0,0)"  stroke-width="2.0"/>
<line x1="452.3" y1="183.8" x2="452.3" y2="210.4" stroke="rgb(0,0,0)"  stroke-width="2.0"/>
<line x1="472.1" y1="149.5" x2="511.6" y2="149.5" stroke="rgb(0,0,0)"  stroke-width="2.0"/>
<line x1="472.1" y1="149.5" x2="472.1" y2="123.0" stroke="rgb(0,0,0)"  stroke-width="2.0"/>
<line x1="472.1" y1="149.5" x2="449.1" y2="136.2" stroke="rgb(0,0,0)"  stroke-width="2.0"/>
<line x1="511.6" y1="149.5" x2="531.4" y2="115.3" stroke="rgb(0,0,0)"  stroke-width="2.0"/>
<line x1="511.6" y1="149.5" x2="534.7" y2="162.8" stroke="rgb(0,0,0)"  stroke-width="2.0"/>
<line x1="511.6" y1="149.5" x2="511.6" y2="176.1" stroke="rgb(0,0,0)"  stroke-width="2.0"/>
<line x1="531.4" y1="115.3" x2="571.0" y2="115.3" stroke="rgb(0,0,0)"  stroke-width="2.0"/>
<line x1="531.4" y1="115.3" x2="531.4" y2="88.7" stroke="rgb(0,0,0)"  stroke-width="2.0"/>
<line x1="531.4" y1="115.3" x2="508.4" y2="102.0" stroke="rgb(0,0,0)"  stroke-width="2.0"/>
<line x1="571.0" y1="115.3" x2="594.0" y2="102.0" stroke="rgb(0,0,0)"  stroke-width="2.0"/>
<line x1="571.0" y1="115.3" x2="571.0" y2="88.7" stroke="rgb(0,0,0)"  stroke-width="2.0"/>
<line x1="571.0" y1="115.3" x2="584.3" y2="138.3" stroke="rgb(0,0,0)"  stroke-width="2.0"/>
<line x1="134.2" y1="367.8" x2="123.9" y2="406.0" stroke="rgb(0,0,0)"  stroke-width="2.0"/>
<line x1="123.9" y1="406.0" x2="151.9" y2="434.0" stroke="rgb(0,0,0)"  stroke-width="2.0"/>
<line x1="151.9" y1="434.0" x2="190.1" y2="423.7" stroke="rgb(0,0,0)"  stroke-width="2.0"/>
<line x1="190.1" y1="423.7" x2="200.4" y2="385.5" stroke="rgb(0,0,0)"  stroke-width="2.0"/>
<line x1="200.4" y1="385.5" x2="172.4" y2="357.5" stroke="rgb(0,0,0)"  stroke-width="2.0"/>
<line x1="172.4" y1="357.5" x2="134.2" y2="367.8" stroke="rgb(0,0,0)"  stroke-width="2.0"/>
<text x="42.825866" y="102.053478" fill="rgb(191,191,191)"  stroke="rgb(191,191,191)" stroke-width="1" font-size="16" >H</text>
<text x="199.684940" y="107.354839" fill="rgb(191,191,191)"  stroke="rgb(191,191,191)" stroke-width="1" font-size="16" >H</text>
<text x="239.254833" y="107.354839" fill="rgb(191,191,191)"  stroke="rgb(191,191,191)" stroke-width="1" font-size="16" >H</text>
<text x="165.416408" y="195.676849" fill="rgb(191,191,191)"  stroke="rgb(191,191,191)" stroke-width="1" font-size="16" >H</text>
<text x="204.986301" y="195.676849" fill="rgb(191,191,191)"  stroke="rgb(191,191,191)" stroke-width="1" font-size="16" >H</text>
<text x="131.147876" y="107.354839" fill="rgb(191,191,191)"  stroke="rgb(191,191,191)" stroke-width="1" font-size="16" >H</text>
<text x="170.717769" y="107.354839" fill="rgb(191,191,191)"  stroke="rgb(191,191,191)" stroke-width="1" font-size="16" >H</text>
<text x="96.879344" y="195.676849" fill="rgb(191,191,191)"  stroke="rgb(191,191,191)" stroke-width="1" font-size="16" >H</text>
<text x="136.449237" y="195.676849" fill="rgb(191,191,191)"  stroke="rgb(191,191,191)" stroke-width="1" font-size="16" >H</text>
<text x="42.825866" y="141.623371" fill="rgb(191,191,191)"  stroke="rgb(191,191,191)" stroke-width="1" font-size="16" >H</text>
<text x="62.610812" y="175.891903" fill="rgb(191,191,191)"  stroke="rgb(191,191,191)" stroke-width="1" font-size="16" >H</text>
<text x="62.610812" y="67.784946" fill="rgb(191,191,191)"  stroke="rgb(191,191,191)" stroke-width="1" font-size="16" >H</text>
<text x="327.576843" y="220.763156" fill="rgb(191,191,191)"  stroke="rgb(191,191,191)" stroke-width="1" font-size="16" >H</text>
<text x="150.932822" y="102.053478" fill="rgb(191,191,191)"  stroke="rgb(191,191,191)" stroke-width="1" font-size="16" >H</text>
<text x="96.879344" y="48.000000" fill="rgb(191,191,191)"  stroke="rgb(191,191,191)" stroke-width="1" font-size="16" >H</text>
<text x="136.449237" y="48.000000" fill="rgb(191,191,191)"  stroke="rgb(191,191,191)" stroke-width="1" font-size="16" >H</text>
<text x="480.555053" y="211.580930" fill="rgb(191,191,191)"  stroke="rgb(191,191,191)" stroke-width="1" font-size="16" >H</text>
<text x="110.443162" y="574.392775" fill="rgb(191,191,191)"  stroke="rgb(191,191,191)" stroke-width="1" font-size="16" >H</text>
<text x="584.781144" y="157.527452" fill="rgb(191,191,191)"  stroke="rgb(191,191,191)" stroke-width="1" font-size="16" >H</text>
<text x="564.996198" y="83.689027" fill="rgb(191,191,191)"  stroke="rgb(191,191,191)" stroke-width="1" font-size="16" >H</text>
<text x="599.264730" y="103.473974" fill="rgb(191,191,191)"  stroke="rgb(191,191,191)" stroke-width="1" font-size="16" >H</text>
<text x="491.157774" y="103.473974" fill="rgb(191,191,191)"  stroke="rgb(191,191,191)" stroke-width="1" font-size="16" >H</text>
<text x="525.426306" y="83.689027" fill="rgb(191,191,191)"  stroke="rgb(191,191,191)" stroke-width="1" font-size="16" >H</text>
<text x="505.641359" y="197.097344" fill="rgb(191,191,191)"  stroke="rgb(191,191,191)" stroke-width="1" font-size="16" >H</text>
<text x="539.909892" y="177.312398" fill="rgb(191,191,191)"  stroke="rgb(191,191,191)" stroke-width="1" font-size="16" >H</text>
<text x="431.802935" y="137.742506" fill="rgb(191,191,191)"  stroke="rgb(191,191,191)" stroke-width="1" font-size="16" >H</text>
<text x="466.071467" y="117.957559" fill="rgb(191,191,191)"  stroke="rgb(191,191,191)" stroke-width="1" font-size="16" >H</text>
<text x="446.286521" y="231.365876" fill="rgb(191,191,191)"  stroke="rgb(191,191,191)" stroke-width="1" font-size="16" >H</text>
<text x="327.576843" y="191.795984" fill="rgb(255,12,12)"  stroke="rgb(255,12,12)" stroke-width="1" font-size="16" >O</text>
<text x="372.448096" y="172.011038" fill="rgb(191,191,191)"  stroke="rgb(191,191,191)" stroke-width="1" font-size="16" >H</text>
<text x="406.716628" y="152.226092" fill="rgb(191,191,191)"  stroke="rgb(191,191,191)" stroke-width="1" font-size="16" >H</text>
<text x="386.931682" y="265.634409" fill="rgb(191,191,191)"  stroke="rgb(191,191,191)" stroke-width="1" font-size="16" >H</text>
<text x="421.200214" y="245.849462" fill="rgb(191,191,191)"  stroke="rgb(191,191,191)" stroke-width="1" font-size="16" >H</text>
<text x="184.142138" y="299.344452" fill="rgb(191,191,191)"  stroke="rgb(191,191,191)" stroke-width="1" font-size="16" >H</text>
<text x="51.738698" y="431.747893" fill="rgb(191,191,191)"  stroke="rgb(191,191,191)" stroke-width="1" font-size="16" >H</text>
<text x="232.605161" y="480.210915" fill="rgb(191,191,191)"  stroke="rgb(191,191,191)" stroke-width="1" font-size="16" >H</text>
<text x="327.576843" y="299.902941" fill="rgb(191,191,191)"  stroke="rgb(191,191,191)" stroke-width="1" font-size="16" >H</text>
<text x="307.791897" y="334.171473" fill="rgb(191,191,191)"  stroke="rgb(191,191,191)" stroke-width="1" font-size="16" >H</text>
<text x="307.791897" y="186.494624" fill="rgb(191,191,191)"  stroke="rgb(191,191,191)" stroke-width="1" font-size="16" >H</text>
<text x="194.383580" y="337.566033" fill="rgb(191,191,191)"  stroke="rgb(191,191,191)" stroke-width="1" font-size="16" >H</text>
<text x="242.560829" y="456.312124" fill="rgb(191,191,191)"  stroke="rgb(191,191,191)" stroke-width="1" font-size="16" >H</text>
<text x="214.168526" y="359.257779" fill="rgb(255,12,12)"  stroke="rgb(255,12,12)" stroke-width="1" font-size="16" >O</text>
<text x="253.738419" y="398.827672" fill="rgb(255,12,12)"  stroke="rgb(255,12,12)" stroke-width="1" font-size="16" >OH</text>
<text x="293.308311" y="359.257779" fill="rgb(255,12,12)"  stroke="rgb(255,12,12)" stroke-width="1" font-size="16" >O</text>
<text x="253.738419" y="359.257779" fill="rgb(255,127,0)"  stroke="rgb(255,127,0)" stroke-width="1" font-size="16" >P</text>
<text x="253.738419" y="319.687887" fill="rgb(255,12,12)"  stroke="rgb(255,12,12)" stroke-width="1" font-size="16" >O</text>
<text x="248.437058" y="260.333048" fill="rgb(191,191,191)"  stroke="rgb(191,191,191)" stroke-width="1" font-size="16" >H</text>
<text x="253.738419" y="200.978210" fill="rgb(255,12,12)"  stroke="rgb(255,12,12)" stroke-width="1" font-size="16" >O</text>
<text x="288.006951" y="141.623371" fill="rgb(255,12,12)"  stroke="rgb(255,12,12)" stroke-width="1" font-size="16" >O</text>
<text x="100.201720" y="480.210915" fill="rgb(255,12,12)"  stroke="rgb(255,12,12)" stroke-width="1" font-size="16" >O</text>
<text x="327.576843" y="260.333048" fill="rgb(255,12,12)"  stroke="rgb(255,12,12)" stroke-width="1" font-size="16" >O</text>
<text x="156.161999" y="327.324591" fill="rgb(255,12,12)"  stroke="rgb(255,12,12)" stroke-width="1" font-size="16" >O</text>
<text x="89.960279" y="421.506451" fill="rgb(255,12,12)"  stroke="rgb(255,12,12)" stroke-width="1" font-size="16" >OH</text>
<text x="22.000000" y="421.506451" fill="rgb(255,12,12)"  stroke="rgb(255,12,12)" stroke-width="1" font-size="16" >HO</text>
<text x="34.000000" y="365.546172" fill="rgb(255,12,12)"  stroke="rgb(255,12,12)" stroke-width="1" font-size="16" >O</text>
<text x="61.980139" y="393.526312" fill="rgb(255,127,0)"  stroke="rgb(255,127,0)" stroke-width="1" font-size="16" >P</text>
<text x="89.960279" y="365.546172" fill="rgb(255,12,12)"  stroke="rgb(255,12,12)" stroke-width="1" font-size="16" >O</text>
<text x="89.960279" y="441.989334" fill="rgb(255,12,12)"  stroke="rgb(255,12,12)" stroke-width="1" font-size="16" >O</text>
<text x="156.161999" y="536.171194" fill="rgb(255,12,12)"  stroke="rgb(255,12,12)" stroke-width="1" font-size="16" >OH</text>
<text x="100.201720" y="536.171194" fill="rgb(255,12,12)"  stroke="rgb(255,12,12)" stroke-width="1" font-size="16" >O</text>
<text x="128.181860" y="508.191055" fill="rgb(255,127,0)"  stroke="rgb(255,127,0)" stroke-width="1" font-size="16" >P</text>
<text x="156.161999" y="480.210915" fill="rgb(255,12,12)"  stroke="rgb(255,12,12)" stroke-width="1" font-size="16" >O</text>
<text x="222.363719" y="441.989334" fill="rgb(255,12,12)"  stroke="rgb(255,12,12)" stroke-width="1" font-size="16" >O</text>
<text x="194.383580" y="469.969474" fill="rgb(191,191,191)"  stroke="rgb(191,191,191)" stroke-width="1" font-size="16" >H</text>
<text x="117.940418" y="469.969474" fill="rgb(191,191,191)"  stroke="rgb(191,191,191)" stroke-width="1" font-size="16" >H</text>
<text x="79.718837" y="403.767753" fill="rgb(191,191,191)"  stroke="rgb(191,191,191)" stroke-width="1" font-size="16" >H</text>
<text x="117.940418" y="337.566033" fill="rgb(191,191,191)"  stroke="rgb(191,191,191)" stroke-width="1" font-size="16" >H</text>
</svg>
</g>
<text font-size="18.000000" fill ="black" font-family="sans-serif"
x="10.000000" y="20.000000" >ZINC97949354</text>
</svg>
