<?xml version="1.0"?>
<svg version="1.1" id="topsvg"
xmlns="http://www.w3.org/2000/svg" xmlns:xlink="http://www.w3.org/1999/xlink"
xmlns:cml="http://www.xml-cml.org/schema" x="0" y="0" width="200px" height="200px" viewBox="0 0 100 100">
<title>ZINC95100048 - Open Babel Depiction</title>
<rect x="0" y="0" width="100" height="100" fill="white"/>
<g transform="translate(0,0)">
<svg width="100" height="100" x="0" y="0" viewBox="0 0 392.562 317"
font-family="sans-serif" stroke="rgb(0,0,0)" stroke-width="2"  stroke-linecap="round">
<line x1="80.0" y1="217.0" x2="103.4" y2="230.5" stroke="rgb(0,0,0)"  stroke-width="2.0"/>
<line x1="80.0" y1="217.0" x2="53.0" y2="217.0" stroke="rgb(0,0,0)"  stroke-width="2.0"/>
<line x1="80.0" y1="217.0" x2="66.5" y2="240.4" stroke="rgb(0,0,0)"  stroke-width="2.0"/>
<line x1="80.0" y1="217.0" x2="80.0" y2="190.0" stroke="rgb(0,0,0)"  stroke-width="2.0"/>
<line x1="125.9" y1="230.5" x2="149.3" y2="217.0" stroke="rgb(0,0,0)"  stroke-width="2.0"/>
<line x1="183.9" y1="237.0" x2="183.9" y2="264.0" stroke="rgb(0,0,0)"  stroke-width="2.0"/>
<line x1="218.6" y1="217.0" x2="241.9" y2="230.5" stroke="rgb(0,0,0)"  stroke-width="2.0"/>
<line x1="218.6" y1="177.0" x2="253.2" y2="157.0" stroke="rgb(0,0,0)"  stroke-width="2.0"/>
<line x1="183.9" y1="157.0" x2="183.9" y2="130.0" stroke="rgb(0,0,0)"  stroke-width="2.0"/>
<line x1="149.3" y1="177.0" x2="125.9" y2="163.5" stroke="rgb(0,0,0)"  stroke-width="2.0"/>
<line x1="257.4" y1="117.2" x2="237.3" y2="99.2" stroke="rgb(0,0,0)"  stroke-width="2.0"/>
<line x1="296.5" y1="108.9" x2="307.5" y2="84.2" stroke="rgb(0,0,0)"  stroke-width="2.0"/>
<line x1="295.4" y1="199.7" x2="292.4" y2="186.0" stroke="rgb(0,0,0)"  stroke-width="2.0"/>
<line x1="325.7" y1="71.0" x2="339.6" y2="69.5" stroke="rgb(0,0,0)"  stroke-width="2.0"/>
<line x1="305.1" y1="61.8" x2="296.9" y2="50.5" stroke="rgb(0,0,0)"  stroke-width="2.0"/>
<line x1="257.4" y1="117.2" x2="253.2" y2="157.0" stroke="rgb(0,0,0)"  stroke-width="2.0"/>
<line x1="263.9" y1="123.9" x2="261.0" y2="151.8" stroke="rgb(0,0,0)"  stroke-width="2.0"/>
<line x1="253.2" y1="157.0" x2="277.9" y2="168.0" stroke="rgb(0,0,0)"  stroke-width="2.0"/>
<line x1="298.4" y1="163.6" x2="307.8" y2="153.2" stroke="rgb(0,0,0)"  stroke-width="2.0"/>
<line x1="309.9" y1="132.1" x2="296.5" y2="108.9" stroke="rgb(0,0,0)"  stroke-width="2.0"/>
<line x1="302.7" y1="134.0" x2="293.3" y2="117.7" stroke="rgb(0,0,0)"  stroke-width="2.0"/>
<line x1="296.5" y1="108.9" x2="257.4" y2="117.2" stroke="rgb(0,0,0)"  stroke-width="2.0"/>
<line x1="218.6" y1="217.0" x2="218.6" y2="177.0" stroke="rgb(0,0,0)"  stroke-width="2.0"/>
<line x1="218.6" y1="177.0" x2="183.9" y2="157.0" stroke="rgb(0,0,0)"  stroke-width="2.0"/>
<line x1="209.8" y1="180.2" x2="185.5" y2="166.2" stroke="rgb(0,0,0)"  stroke-width="2.0"/>
<line x1="183.9" y1="157.0" x2="149.3" y2="177.0" stroke="rgb(0,0,0)"  stroke-width="2.0"/>
<line x1="149.3" y1="177.0" x2="149.3" y2="217.0" stroke="rgb(0,0,0)"  stroke-width="2.0"/>
<line x1="156.5" y1="183.0" x2="156.5" y2="211.0" stroke="rgb(0,0,0)"  stroke-width="2.0"/>
<line x1="149.3" y1="217.0" x2="183.9" y2="237.0" stroke="rgb(0,0,0)"  stroke-width="2.0"/>
<line x1="183.9" y1="237.0" x2="218.6" y2="217.0" stroke="rgb(0,0,0)"  stroke-width="2.0"/>
<line x1="185.5" y1="227.8" x2="209.8" y2="213.8" stroke="rgb(0,0,0)"  stroke-width="2.0"/>
<text x="292.063367" y="220.395211" fill="rgb(191,191,191)"  stroke="rgb(191,191,191)" stroke-width="1" font-size="16" >H</text>
<text x="283.270179" y="48.000000" fill="rgb(191,191,191)"  stroke="rgb(191,191,191)" stroke-width="1" font-size="16" >H</text>
<text x="346.562465" y="76.179541" fill="rgb(191,191,191)"  stroke="rgb(191,191,191)" stroke-width="1" font-size="16" >H</text>
<text x="108.641016" y="164.999842" fill="rgb(191,191,191)"  stroke="rgb(191,191,191)" stroke-width="1" font-size="16" >H</text>
<text x="177.923048" y="124.999842" fill="rgb(191,191,191)"  stroke="rgb(191,191,191)" stroke-width="1" font-size="16" >H</text>
<text x="247.205081" y="244.999842" fill="rgb(191,191,191)"  stroke="rgb(191,191,191)" stroke-width="1" font-size="16" >H</text>
<text x="177.923048" y="284.999842" fill="rgb(191,191,191)"  stroke="rgb(191,191,191)" stroke-width="1" font-size="16" >H</text>
<text x="74.000000" y="184.999842" fill="rgb(191,191,191)"  stroke="rgb(191,191,191)" stroke-width="1" font-size="16" >H</text>
<text x="54.000000" y="259.640858" fill="rgb(191,191,191)"  stroke="rgb(191,191,191)" stroke-width="1" font-size="16" >H</text>
<text x="34.000000" y="224.999842" fill="rgb(191,191,191)"  stroke="rgb(191,191,191)" stroke-width="1" font-size="16" >H</text>
<text x="209.660426" y="98.453741" fill="rgb(165,40,40)"  stroke="rgb(165,40,40)" stroke-width="1" font-size="16" >Br</text>
<text x="306.781589" y="80.360680" fill="rgb(12,12,255)"  stroke="rgb(12,12,255)" stroke-width="1" font-size="16" >N</text>
<text x="283.746899" y="181.269307" fill="rgb(12,12,255)"  stroke="rgb(12,12,255)" stroke-width="1" font-size="16" >N</text>
<text x="310.512123" y="151.543514" fill="rgb(12,12,255)"  stroke="rgb(12,12,255)" stroke-width="1" font-size="16" >N</text>
<text x="108.641016" y="244.999842" fill="rgb(255,12,12)"  stroke="rgb(255,12,12)" stroke-width="1" font-size="16" >O</text>
</svg>
</g>
<text font-size="18.000000" fill ="black" font-family="sans-serif"
x="10.000000" y="20.000000" >ZINC95100048</text>
</svg>
