<?xml version="1.0"?>
<svg version="1.1" id="topsvg"
xmlns="http://www.w3.org/2000/svg" xmlns:xlink="http://www.w3.org/1999/xlink"
xmlns:cml="http://www.xml-cml.org/schema" x="0" y="0" width="200px" height="200px" viewBox="0 0 100 100">
<title>ZINC04214849 - Open Babel Depiction</title>
<rect x="0" y="0" width="100" height="100" fill="white"/>
<g transform="translate(0,0)">
<svg width="100" height="100" x="0" y="0" viewBox="0 0 589.429 397.27"
font-family="sans-serif" stroke="rgb(0,0,0)" stroke-width="2"  stroke-linecap="round">
<line x1="510.7" y1="323.7" x2="510.7" y2="285.0" stroke="rgb(0,0,0)"  stroke-width="2.0"/>
<line x1="510.7" y1="323.7" x2="523.6" y2="346.0" stroke="rgb(0,0,0)"  stroke-width="2.0"/>
<line x1="510.7" y1="323.7" x2="536.4" y2="323.7" stroke="rgb(0,0,0)"  stroke-width="2.0"/>
<line x1="510.7" y1="323.7" x2="488.5" y2="336.6" stroke="rgb(0,0,0)"  stroke-width="2.0"/>
<line x1="510.7" y1="285.0" x2="488.5" y2="272.2" stroke="rgb(0,0,0)"  stroke-width="2.0"/>
<line x1="510.7" y1="285.0" x2="523.6" y2="262.8" stroke="rgb(0,0,0)"  stroke-width="2.0"/>
<line x1="510.7" y1="285.0" x2="536.4" y2="285.0" stroke="rgb(0,0,0)"  stroke-width="2.0"/>
<line x1="465.9" y1="272.2" x2="443.7" y2="285.0" stroke="rgb(0,0,0)"  stroke-width="2.0"/>
<line x1="477.2" y1="252.7" x2="477.2" y2="240.0" stroke="rgb(0,0,0)"  stroke-width="2.0"/>
<line x1="446.7" y1="285.0" x2="446.7" y2="310.7" stroke="rgb(0,0,0)"  stroke-width="2.0"/>
<line x1="440.7" y1="285.0" x2="440.7" y2="310.7" stroke="rgb(0,0,0)"  stroke-width="2.0"/>
<line x1="443.7" y1="285.0" x2="421.4" y2="272.2" stroke="rgb(0,0,0)"  stroke-width="2.0"/>
<line x1="376.6" y1="285.0" x2="389.5" y2="307.3" stroke="rgb(0,0,0)"  stroke-width="2.0"/>
<line x1="376.6" y1="285.0" x2="363.8" y2="307.3" stroke="rgb(0,0,0)"  stroke-width="2.0"/>
<line x1="343.1" y1="265.7" x2="330.2" y2="287.9" stroke="rgb(0,0,0)"  stroke-width="2.0"/>
<line x1="343.1" y1="265.7" x2="317.4" y2="265.7" stroke="rgb(0,0,0)"  stroke-width="2.0"/>
<line x1="331.8" y1="220.5" x2="276.1" y2="188.3" stroke="rgb(0,0,0)"  stroke-width="2.0"/>
<line x1="376.6" y1="207.6" x2="363.8" y2="185.4" stroke="rgb(0,0,0)"  stroke-width="2.0"/>
<line x1="376.6" y1="207.6" x2="389.5" y2="185.4" stroke="rgb(0,0,0)"  stroke-width="2.0"/>
<line x1="410.1" y1="227.0" x2="423.0" y2="204.7" stroke="rgb(0,0,0)"  stroke-width="2.0"/>
<line x1="410.1" y1="227.0" x2="435.9" y2="227.0" stroke="rgb(0,0,0)"  stroke-width="2.0"/>
<line x1="276.1" y1="188.3" x2="242.5" y2="207.6" stroke="rgb(0,0,0)"  stroke-width="2.0"/>
<line x1="276.1" y1="188.3" x2="263.2" y2="166.0" stroke="rgb(0,0,0)"  stroke-width="2.0"/>
<line x1="276.1" y1="188.3" x2="288.9" y2="166.0" stroke="rgb(0,0,0)"  stroke-width="2.0"/>
<line x1="242.5" y1="207.6" x2="209.0" y2="188.3" stroke="rgb(0,0,0)"  stroke-width="2.0"/>
<line x1="242.5" y1="207.6" x2="229.7" y2="229.9" stroke="rgb(0,0,0)"  stroke-width="2.0"/>
<line x1="242.5" y1="207.6" x2="255.4" y2="229.9" stroke="rgb(0,0,0)"  stroke-width="2.0"/>
<line x1="209.0" y1="188.3" x2="175.5" y2="207.6" stroke="rgb(0,0,0)"  stroke-width="2.0"/>
<line x1="209.0" y1="188.3" x2="196.2" y2="166.0" stroke="rgb(0,0,0)"  stroke-width="2.0"/>
<line x1="209.0" y1="188.3" x2="221.9" y2="166.0" stroke="rgb(0,0,0)"  stroke-width="2.0"/>
<line x1="175.5" y1="207.6" x2="136.8" y2="140.6" stroke="rgb(0,0,0)"  stroke-width="2.0"/>
<line x1="175.5" y1="207.6" x2="142.0" y2="227.0" stroke="rgb(0,0,0)"  stroke-width="2.0"/>
<line x1="175.5" y1="207.6" x2="188.3" y2="229.9" stroke="rgb(0,0,0)"  stroke-width="2.0"/>
<line x1="156.1" y1="107.0" x2="181.8" y2="107.0" stroke="rgb(0,0,0)"  stroke-width="2.0"/>
<line x1="136.8" y1="73.5" x2="149.6" y2="51.3" stroke="rgb(0,0,0)"  stroke-width="2.0"/>
<line x1="98.1" y1="73.5" x2="85.2" y2="51.3" stroke="rgb(0,0,0)"  stroke-width="2.0"/>
<line x1="78.7" y1="107.0" x2="53.0" y2="107.0" stroke="rgb(0,0,0)"  stroke-width="2.0"/>
<line x1="98.1" y1="140.6" x2="85.2" y2="162.8" stroke="rgb(0,0,0)"  stroke-width="2.0"/>
<line x1="108.4" y1="207.6" x2="108.4" y2="181.9" stroke="rgb(0,0,0)"  stroke-width="2.0"/>
<line x1="74.9" y1="227.0" x2="52.6" y2="214.1" stroke="rgb(0,0,0)"  stroke-width="2.0"/>
<line x1="74.9" y1="265.7" x2="52.6" y2="278.5" stroke="rgb(0,0,0)"  stroke-width="2.0"/>
<line x1="108.4" y1="285.0" x2="108.4" y2="310.7" stroke="rgb(0,0,0)"  stroke-width="2.0"/>
<line x1="142.0" y1="265.7" x2="164.2" y2="278.5" stroke="rgb(0,0,0)"  stroke-width="2.0"/>
<line x1="136.8" y1="73.5" x2="98.1" y2="73.5" stroke="rgb(0,0,0)"  stroke-width="2.0"/>
<line x1="98.1" y1="73.5" x2="78.7" y2="107.0" stroke="rgb(0,0,0)"  stroke-width="2.0"/>
<line x1="101.3" y1="82.3" x2="87.9" y2="105.5" stroke="rgb(0,0,0)"  stroke-width="2.0"/>
<line x1="78.7" y1="107.0" x2="98.1" y2="140.6" stroke="rgb(0,0,0)"  stroke-width="2.0"/>
<line x1="98.1" y1="140.6" x2="136.8" y2="140.6" stroke="rgb(0,0,0)"  stroke-width="2.0"/>
<line x1="104.1" y1="133.4" x2="130.8" y2="133.4" stroke="rgb(0,0,0)"  stroke-width="2.0"/>
<line x1="136.8" y1="140.6" x2="156.1" y2="107.0" stroke="rgb(0,0,0)"  stroke-width="2.0"/>
<line x1="156.1" y1="107.0" x2="136.8" y2="73.5" stroke="rgb(0,0,0)"  stroke-width="2.0"/>
<line x1="146.9" y1="105.5" x2="133.5" y2="82.3" stroke="rgb(0,0,0)"  stroke-width="2.0"/>
<line x1="74.9" y1="227.0" x2="74.9" y2="265.7" stroke="rgb(0,0,0)"  stroke-width="2.0"/>
<line x1="74.9" y1="265.7" x2="108.4" y2="285.0" stroke="rgb(0,0,0)"  stroke-width="2.0"/>
<line x1="83.7" y1="262.4" x2="106.8" y2="275.8" stroke="rgb(0,0,0)"  stroke-width="2.0"/>
<line x1="108.4" y1="285.0" x2="142.0" y2="265.7" stroke="rgb(0,0,0)"  stroke-width="2.0"/>
<line x1="142.0" y1="265.7" x2="142.0" y2="227.0" stroke="rgb(0,0,0)"  stroke-width="2.0"/>
<line x1="134.8" y1="259.7" x2="134.8" y2="233.0" stroke="rgb(0,0,0)"  stroke-width="2.0"/>
<line x1="142.0" y1="227.0" x2="108.4" y2="207.6" stroke="rgb(0,0,0)"  stroke-width="2.0"/>
<line x1="108.4" y1="207.6" x2="74.9" y2="227.0" stroke="rgb(0,0,0)"  stroke-width="2.0"/>
<line x1="106.8" y1="216.9" x2="83.7" y2="230.2" stroke="rgb(0,0,0)"  stroke-width="2.0"/>
<line x1="343.1" y1="265.7" x2="343.1" y2="240.0" stroke="rgb(0,0,0)"  stroke-width="2.0"/>
<line x1="354.4" y1="220.5" x2="376.6" y2="207.6" stroke="rgb(0,0,0)"  stroke-width="2.0"/>
<line x1="376.6" y1="207.6" x2="410.1" y2="227.0" stroke="rgb(0,0,0)"  stroke-width="2.0"/>
<line x1="410.1" y1="227.0" x2="410.1" y2="252.7" stroke="rgb(0,0,0)"  stroke-width="2.0"/>
<line x1="398.9" y1="272.2" x2="376.6" y2="285.0" stroke="rgb(0,0,0)"  stroke-width="2.0"/>
<line x1="376.6" y1="285.0" x2="343.1" y2="265.7" stroke="rgb(0,0,0)"  stroke-width="2.0"/>
<text x="289.409402" y="162.739417" fill="rgb(191,191,191)"  stroke="rgb(191,191,191)" stroke-width="1" font-size="16" >H</text>
<text x="543.429189" y="331.746852" fill="rgb(191,191,191)"  stroke="rgb(191,191,191)" stroke-width="1" font-size="16" >H</text>
<text x="471.195947" y="351.101691" fill="rgb(191,191,191)"  stroke="rgb(191,191,191)" stroke-width="1" font-size="16" >H</text>
<text x="524.074350" y="259.513611" fill="rgb(191,191,191)"  stroke="rgb(191,191,191)" stroke-width="1" font-size="16" >H</text>
<text x="543.429189" y="293.037175" fill="rgb(191,191,191)"  stroke="rgb(191,191,191)" stroke-width="1" font-size="16" >H</text>
<text x="471.195947" y="234.972659" fill="rgb(191,191,191)"  stroke="rgb(191,191,191)" stroke-width="1" font-size="16" >H</text>
<text x="389.980094" y="326.560739" fill="rgb(191,191,191)"  stroke="rgb(191,191,191)" stroke-width="1" font-size="16" >H</text>
<text x="351.270416" y="326.560739" fill="rgb(191,191,191)"  stroke="rgb(191,191,191)" stroke-width="1" font-size="16" >H</text>
<text x="317.746852" y="307.205900" fill="rgb(191,191,191)"  stroke="rgb(191,191,191)" stroke-width="1" font-size="16" >H</text>
<text x="298.392014" y="273.682336" fill="rgb(191,191,191)"  stroke="rgb(191,191,191)" stroke-width="1" font-size="16" >H</text>
<text x="351.270416" y="182.094256" fill="rgb(191,191,191)"  stroke="rgb(191,191,191)" stroke-width="1" font-size="16" >H</text>
<text x="389.980094" y="182.094256" fill="rgb(191,191,191)"  stroke="rgb(191,191,191)" stroke-width="1" font-size="16" >H</text>
<text x="423.503658" y="201.449095" fill="rgb(191,191,191)"  stroke="rgb(191,191,191)" stroke-width="1" font-size="16" >H</text>
<text x="442.858497" y="234.972659" fill="rgb(191,191,191)"  stroke="rgb(191,191,191)" stroke-width="1" font-size="16" >H</text>
<text x="250.699724" y="162.739417" fill="rgb(191,191,191)"  stroke="rgb(191,191,191)" stroke-width="1" font-size="16" >H</text>
<text x="524.074350" y="365.270416" fill="rgb(191,191,191)"  stroke="rgb(191,191,191)" stroke-width="1" font-size="16" >H</text>
<text x="217.176160" y="249.141384" fill="rgb(191,191,191)"  stroke="rgb(191,191,191)" stroke-width="1" font-size="16" >H</text>
<text x="255.885838" y="249.141384" fill="rgb(191,191,191)"  stroke="rgb(191,191,191)" stroke-width="1" font-size="16" >H</text>
<text x="183.652596" y="162.739417" fill="rgb(191,191,191)"  stroke="rgb(191,191,191)" stroke-width="1" font-size="16" >H</text>
<text x="222.362274" y="162.739417" fill="rgb(191,191,191)"  stroke="rgb(191,191,191)" stroke-width="1" font-size="16" >H</text>
<text x="188.838710" y="249.141384" fill="rgb(191,191,191)"  stroke="rgb(191,191,191)" stroke-width="1" font-size="16" >H</text>
<text x="188.838710" y="115.047128" fill="rgb(191,191,191)"  stroke="rgb(191,191,191)" stroke-width="1" font-size="16" >H</text>
<text x="150.129032" y="48.000000" fill="rgb(191,191,191)"  stroke="rgb(191,191,191)" stroke-width="1" font-size="16" >H</text>
<text x="34.000000" y="115.047128" fill="rgb(191,191,191)"  stroke="rgb(191,191,191)" stroke-width="1" font-size="16" >H</text>
<text x="72.709677" y="182.094256" fill="rgb(191,191,191)"  stroke="rgb(191,191,191)" stroke-width="1" font-size="16" >H</text>
<text x="102.436743" y="176.908143" fill="rgb(191,191,191)"  stroke="rgb(191,191,191)" stroke-width="1" font-size="16" >H</text>
<text x="35.389615" y="215.617820" fill="rgb(191,191,191)"  stroke="rgb(191,191,191)" stroke-width="1" font-size="16" >H</text>
<text x="102.436743" y="331.746852" fill="rgb(191,191,191)"  stroke="rgb(191,191,191)" stroke-width="1" font-size="16" >H</text>
<text x="169.483871" y="293.037175" fill="rgb(191,191,191)"  stroke="rgb(191,191,191)" stroke-width="1" font-size="16" >H</text>
<text x="471.195947" y="273.682336" fill="rgb(12,12,255)"  stroke="rgb(12,12,255)" stroke-width="1" font-size="16" >N</text>
<text x="437.672383" y="331.746852" fill="rgb(255,12,12)"  stroke="rgb(255,12,12)" stroke-width="1" font-size="16" >O</text>
<text x="404.148819" y="273.682336" fill="rgb(12,12,255)"  stroke="rgb(12,12,255)" stroke-width="1" font-size="16" >N</text>
<text x="337.101691" y="234.972659" fill="rgb(12,12,255)"  stroke="rgb(12,12,255)" stroke-width="1" font-size="16" >N</text>
<text x="72.709677" y="48.000000" fill="rgb(127,178,255)"  stroke="rgb(127,178,255)" stroke-width="1" font-size="16" >F</text>
<text x="35.389615" y="293.037175" fill="rgb(127,178,255)"  stroke="rgb(127,178,255)" stroke-width="1" font-size="16" >F</text>
</svg>
</g>
<text font-size="18.000000" fill ="black" font-family="sans-serif"
x="10.000000" y="20.000000" >ZINC04214849</text>
</svg>
