<?xml version="1.0"?>
<svg version="1.1" id="topsvg"
xmlns="http://www.w3.org/2000/svg" xmlns:xlink="http://www.w3.org/1999/xlink"
xmlns:cml="http://www.xml-cml.org/schema" x="0" y="0" width="200px" height="200px" viewBox="0 0 100 100">
<title>ZINC18115268 - Open Babel Depiction</title>
<rect x="0" y="0" width="100" height="100" fill="white"/>
<g transform="translate(0,0)">
<svg width="100" height="100" x="0" y="0" viewBox="0 0 261.181 437.346"
font-family="sans-serif" stroke="rgb(0,0,0)" stroke-width="2"  stroke-linecap="round">
<line x1="170.8" y1="263.4" x2="147.3" y2="295.8" stroke="rgb(0,0,0)"  stroke-width="2.0"/>
<line x1="170.8" y1="263.4" x2="173.6" y2="236.6" stroke="rgb(0,0,0)"  stroke-width="2.0"/>
<line x1="170.8" y1="263.4" x2="149.0" y2="247.6" stroke="rgb(0,0,0)"  stroke-width="2.0"/>
<line x1="170.8" y1="263.4" x2="197.7" y2="266.3" stroke="rgb(0,0,0)"  stroke-width="2.0"/>
<line x1="107.3" y1="295.8" x2="83.8" y2="263.4" stroke="rgb(0,0,0)"  stroke-width="2.0"/>
<line x1="127.3" y1="357.3" x2="127.3" y2="384.3" stroke="rgb(0,0,0)"  stroke-width="2.0"/>
<line x1="172.0" y1="337.9" x2="185.3" y2="342.2" stroke="rgb(0,0,0)"  stroke-width="2.0"/>
<line x1="83.8" y1="263.4" x2="94.8" y2="238.8" stroke="rgb(0,0,0)"  stroke-width="2.0"/>
<line x1="83.8" y1="263.4" x2="59.1" y2="252.5" stroke="rgb(0,0,0)"  stroke-width="2.0"/>
<line x1="83.8" y1="263.4" x2="61.9" y2="279.3" stroke="rgb(0,0,0)"  stroke-width="2.0"/>
<line x1="92.4" y1="216.4" x2="76.5" y2="194.5" stroke="rgb(0,0,0)"  stroke-width="2.0"/>
<line x1="76.5" y1="194.5" x2="92.8" y2="158.0" stroke="rgb(0,0,0)"  stroke-width="2.0"/>
<line x1="76.5" y1="194.5" x2="51.9" y2="183.5" stroke="rgb(0,0,0)"  stroke-width="2.0"/>
<line x1="76.5" y1="194.5" x2="54.7" y2="210.4" stroke="rgb(0,0,0)"  stroke-width="2.0"/>
<line x1="92.8" y1="158.0" x2="119.7" y2="155.2" stroke="rgb(0,0,0)"  stroke-width="2.0"/>
<line x1="92.8" y1="158.0" x2="90.0" y2="131.1" stroke="rgb(0,0,0)"  stroke-width="2.0"/>
<line x1="92.8" y1="158.0" x2="68.1" y2="147.0" stroke="rgb(0,0,0)"  stroke-width="2.0"/>
<line x1="135.1" y1="140.7" x2="146.1" y2="116.0" stroke="rgb(0,0,0)"  stroke-width="2.0"/>
<line x1="140.6" y1="143.2" x2="151.6" y2="118.5" stroke="rgb(0,0,0)"  stroke-width="2.0"/>
<line x1="148.9" y1="117.3" x2="133.0" y2="95.4" stroke="rgb(0,0,0)"  stroke-width="2.0"/>
<line x1="148.9" y1="117.3" x2="175.7" y2="114.4" stroke="rgb(0,0,0)"  stroke-width="2.0"/>
<line x1="112.4" y1="86.3" x2="85.6" y2="89.1" stroke="rgb(0,0,0)"  stroke-width="2.0"/>
<line x1="130.6" y1="73.0" x2="136.3" y2="60.2" stroke="rgb(0,0,0)"  stroke-width="2.0"/>
<line x1="85.6" y1="89.1" x2="60.9" y2="78.1" stroke="rgb(0,0,0)"  stroke-width="2.0"/>
<line x1="85.6" y1="89.1" x2="82.7" y2="62.2" stroke="rgb(0,0,0)"  stroke-width="2.0"/>
<line x1="85.6" y1="89.1" x2="74.6" y2="113.8" stroke="rgb(0,0,0)"  stroke-width="2.0"/>
<line x1="193.9" y1="101.2" x2="204.9" y2="76.5" stroke="rgb(0,0,0)"  stroke-width="2.0"/>
<line x1="196.3" y1="123.6" x2="204.5" y2="134.9" stroke="rgb(0,0,0)"  stroke-width="2.0"/>
<line x1="204.9" y1="76.5" x2="215.9" y2="51.9" stroke="rgb(0,0,0)"  stroke-width="2.0"/>
<line x1="201.1" y1="74.8" x2="212.1" y2="50.2" stroke="rgb(0,0,0)"  stroke-width="2.0"/>
<line x1="208.7" y1="78.3" x2="219.7" y2="53.6" stroke="rgb(0,0,0)"  stroke-width="2.0"/>
<line x1="105.6" y1="341.6" x2="127.3" y2="357.3" stroke="rgb(0,0,0)"  stroke-width="2.0"/>
<line x1="111.5" y1="336.9" x2="126.7" y2="348.0" stroke="rgb(0,0,0)"  stroke-width="2.0"/>
<line x1="127.3" y1="357.3" x2="149.1" y2="341.5" stroke="rgb(0,0,0)"  stroke-width="2.0"/>
<line x1="155.6" y1="321.5" x2="147.3" y2="295.8" stroke="rgb(0,0,0)"  stroke-width="2.0"/>
<line x1="147.3" y1="295.8" x2="107.3" y2="295.8" stroke="rgb(0,0,0)"  stroke-width="2.0"/>
<line x1="141.3" y1="303.0" x2="113.3" y2="303.0" stroke="rgb(0,0,0)"  stroke-width="2.0"/>
<line x1="107.3" y1="295.8" x2="99.0" y2="321.5" stroke="rgb(0,0,0)"  stroke-width="2.0"/>
<text x="82.630145" y="126.206856" fill="rgb(191,191,191)"  stroke="rgb(191,191,191)" stroke-width="1" font-size="16" >H</text>
<text x="168.987721" y="231.651173" fill="rgb(191,191,191)"  stroke="rgb(191,191,191)" stroke-width="1" font-size="16" >H</text>
<text x="132.445903" y="247.920638" fill="rgb(191,191,191)"  stroke="rgb(191,191,191)" stroke-width="1" font-size="16" >H</text>
<text x="204.587459" y="275.613187" fill="rgb(191,191,191)"  stroke="rgb(191,191,191)" stroke-width="1" font-size="16" >H</text>
<text x="121.295173" y="405.346399" fill="rgb(191,191,191)"  stroke="rgb(191,191,191)" stroke-width="1" font-size="16" >H</text>
<text x="41.241944" y="255.162583" fill="rgb(191,191,191)"  stroke="rgb(191,191,191)" stroke-width="1" font-size="16" >H</text>
<text x="45.423083" y="294.943458" fill="rgb(191,191,191)"  stroke="rgb(191,191,191)" stroke-width="1" font-size="16" >H</text>
<text x="34.000000" y="186.260085" fill="rgb(191,191,191)"  stroke="rgb(191,191,191)" stroke-width="1" font-size="16" >H</text>
<text x="38.181139" y="226.040960" fill="rgb(191,191,191)"  stroke="rgb(191,191,191)" stroke-width="1" font-size="16" >H</text>
<text x="215.181433" y="48.000000" fill="rgb(12,12,255)"  stroke="rgb(12,12,255)" stroke-width="1" font-size="16" >N</text>
<text x="50.269466" y="149.718266" fill="rgb(191,191,191)"  stroke="rgb(191,191,191)" stroke-width="1" font-size="16" >H</text>
<text x="135.619681" y="56.362277" fill="rgb(191,191,191)"  stroke="rgb(191,191,191)" stroke-width="1" font-size="16" >H</text>
<text x="43.027521" y="80.815768" fill="rgb(191,191,191)"  stroke="rgb(191,191,191)" stroke-width="1" font-size="16" >H</text>
<text x="75.388201" y="57.304358" fill="rgb(191,191,191)"  stroke="rgb(191,191,191)" stroke-width="1" font-size="16" >H</text>
<text x="63.299874" y="133.627052" fill="rgb(191,191,191)"  stroke="rgb(191,191,191)" stroke-width="1" font-size="16" >H</text>
<text x="206.153911" y="153.444316" fill="rgb(191,191,191)"  stroke="rgb(191,191,191)" stroke-width="1" font-size="16" >H</text>
<text x="191.698113" y="354.195669" fill="rgb(191,191,191)"  stroke="rgb(191,191,191)" stroke-width="1" font-size="16" >H</text>
<text x="182.642501" y="121.083637" fill="rgb(12,12,255)"  stroke="rgb(12,12,255)" stroke-width="1" font-size="16" >N</text>
<text x="119.350215" y="92.904095" fill="rgb(12,12,255)"  stroke="rgb(12,12,255)" stroke-width="1" font-size="16" >N</text>
<text x="126.592160" y="161.806593" fill="rgb(12,12,255)"  stroke="rgb(12,12,255)" stroke-width="1" font-size="16" >N</text>
<text x="94.053228" y="234.890230" fill="rgb(178,178,0)"  stroke="rgb(178,178,0)" stroke-width="1" font-size="16" >S</text>
<text x="153.655853" y="341.834989" fill="rgb(12,12,255)"  stroke="rgb(12,12,255)" stroke-width="1" font-size="16" >N</text>
<text x="88.934493" y="341.834989" fill="rgb(12,12,255)"  stroke="rgb(12,12,255)" stroke-width="1" font-size="16" >N</text>
</svg>
</g>
<text font-size="18.000000" fill ="black" font-family="sans-serif"
x="10.000000" y="20.000000" >ZINC18115268</text>
</svg>
