<?xml version="1.0"?>
<svg version="1.1" id="topsvg"
xmlns="http://www.w3.org/2000/svg" xmlns:xlink="http://www.w3.org/1999/xlink"
xmlns:cml="http://www.xml-cml.org/schema" x="0" y="0" width="200px" height="200px" viewBox="0 0 100 100">
<title>ZINC26898258 - Open Babel Depiction</title>
<rect x="0" y="0" width="100" height="100" fill="white"/>
<g transform="translate(0,0)">
<svg width="100" height="100" x="0" y="0" viewBox="0 0 333.205 361.562"
font-family="sans-serif" stroke="rgb(0,0,0)" stroke-width="2"  stroke-linecap="round">
<line x1="142.9" y1="282.9" x2="114.6" y2="254.6" stroke="rgb(0,0,0)"  stroke-width="2.0"/>
<line x1="142.9" y1="282.9" x2="169.0" y2="289.9" stroke="rgb(0,0,0)"  stroke-width="2.0"/>
<line x1="142.9" y1="282.9" x2="162.0" y2="263.8" stroke="rgb(0,0,0)"  stroke-width="2.0"/>
<line x1="142.9" y1="282.9" x2="135.9" y2="309.0" stroke="rgb(0,0,0)"  stroke-width="2.0"/>
<line x1="114.6" y1="254.6" x2="77.7" y2="269.9" stroke="rgb(0,0,0)"  stroke-width="2.0"/>
<line x1="149.3" y1="234.6" x2="162.8" y2="258.0" stroke="rgb(0,0,0)"  stroke-width="2.0"/>
<line x1="149.3" y1="234.6" x2="176.3" y2="234.6" stroke="rgb(0,0,0)"  stroke-width="2.0"/>
<line x1="160.5" y1="188.1" x2="183.9" y2="174.6" stroke="rgb(0,0,0)"  stroke-width="2.0"/>
<line x1="114.6" y1="174.6" x2="128.1" y2="151.3" stroke="rgb(0,0,0)"  stroke-width="2.0"/>
<line x1="114.6" y1="174.6" x2="101.1" y2="151.3" stroke="rgb(0,0,0)"  stroke-width="2.0"/>
<line x1="80.0" y1="194.6" x2="66.5" y2="171.3" stroke="rgb(0,0,0)"  stroke-width="2.0"/>
<line x1="80.0" y1="194.6" x2="53.0" y2="194.6" stroke="rgb(0,0,0)"  stroke-width="2.0"/>
<line x1="68.7" y1="241.1" x2="56.6" y2="248.1" stroke="rgb(0,0,0)"  stroke-width="2.0"/>
<line x1="185.4" y1="172.0" x2="208.8" y2="185.5" stroke="rgb(0,0,0)"  stroke-width="2.0"/>
<line x1="182.4" y1="177.2" x2="205.8" y2="190.7" stroke="rgb(0,0,0)"  stroke-width="2.0"/>
<line x1="183.9" y1="174.6" x2="183.9" y2="147.6" stroke="rgb(0,0,0)"  stroke-width="2.0"/>
<line x1="195.2" y1="128.1" x2="218.6" y2="114.6" stroke="rgb(0,0,0)"  stroke-width="2.0"/>
<line x1="218.6" y1="114.6" x2="198.6" y2="80.0" stroke="rgb(0,0,0)"  stroke-width="2.0"/>
<line x1="218.6" y1="114.6" x2="253.2" y2="94.6" stroke="rgb(0,0,0)"  stroke-width="2.0"/>
<line x1="218.6" y1="114.6" x2="238.6" y2="149.3" stroke="rgb(0,0,0)"  stroke-width="2.0"/>
<line x1="198.6" y1="80.0" x2="198.6" y2="53.0" stroke="rgb(0,0,0)"  stroke-width="2.0"/>
<line x1="198.6" y1="80.0" x2="221.9" y2="66.5" stroke="rgb(0,0,0)"  stroke-width="2.0"/>
<line x1="198.6" y1="80.0" x2="171.6" y2="80.0" stroke="rgb(0,0,0)"  stroke-width="2.0"/>
<line x1="253.2" y1="94.6" x2="280.2" y2="94.6" stroke="rgb(0,0,0)"  stroke-width="2.0"/>
<line x1="253.2" y1="94.6" x2="266.7" y2="118.0" stroke="rgb(0,0,0)"  stroke-width="2.0"/>
<line x1="253.2" y1="94.6" x2="253.2" y2="67.6" stroke="rgb(0,0,0)"  stroke-width="2.0"/>
<line x1="238.6" y1="149.3" x2="238.6" y2="176.3" stroke="rgb(0,0,0)"  stroke-width="2.0"/>
<line x1="238.6" y1="149.3" x2="215.2" y2="162.8" stroke="rgb(0,0,0)"  stroke-width="2.0"/>
<line x1="238.6" y1="149.3" x2="265.6" y2="149.3" stroke="rgb(0,0,0)"  stroke-width="2.0"/>
<line x1="77.7" y1="269.9" x2="61.2" y2="291.4" stroke="rgb(0,0,0)"  stroke-width="2.0"/>
<line x1="77.7" y1="269.9" x2="88.0" y2="294.9" stroke="rgb(0,0,0)"  stroke-width="2.0"/>
<line x1="77.7" y1="269.9" x2="56.3" y2="253.5" stroke="rgb(0,0,0)"  stroke-width="2.0"/>
<line x1="138.0" y1="188.1" x2="114.6" y2="174.6" stroke="rgb(0,0,0)"  stroke-width="2.0"/>
<line x1="114.6" y1="174.6" x2="80.0" y2="194.6" stroke="rgb(0,0,0)"  stroke-width="2.0"/>
<line x1="80.0" y1="194.6" x2="80.0" y2="221.6" stroke="rgb(0,0,0)"  stroke-width="2.0"/>
<line x1="91.3" y1="241.1" x2="114.6" y2="254.6" stroke="rgb(0,0,0)"  stroke-width="2.0"/>
<line x1="114.6" y1="254.6" x2="149.3" y2="234.6" stroke="rgb(0,0,0)"  stroke-width="2.0"/>
<line x1="149.3" y1="234.6" x2="149.3" y2="207.6" stroke="rgb(0,0,0)"  stroke-width="2.0"/>
<text x="267.205081" y="137.282032" fill="rgb(191,191,191)"  stroke="rgb(191,191,191)" stroke-width="1" font-size="16" >H</text>
<text x="183.282032" y="242.641016" fill="rgb(191,191,191)"  stroke="rgb(191,191,191)" stroke-width="1" font-size="16" >H</text>
<text x="128.641016" y="148.000000" fill="rgb(191,191,191)"  stroke="rgb(191,191,191)" stroke-width="1" font-size="16" >H</text>
<text x="88.641016" y="148.000000" fill="rgb(191,191,191)"  stroke="rgb(191,191,191)" stroke-width="1" font-size="16" >H</text>
<text x="54.000000" y="168.000000" fill="rgb(191,191,191)"  stroke="rgb(191,191,191)" stroke-width="1" font-size="16" >H</text>
<text x="34.000000" y="202.641016" fill="rgb(191,191,191)"  stroke="rgb(191,191,191)" stroke-width="1" font-size="16" >H</text>
<text x="192.564065" y="48.000000" fill="rgb(191,191,191)"  stroke="rgb(191,191,191)" stroke-width="1" font-size="16" >H</text>
<text x="227.205081" y="68.000000" fill="rgb(191,191,191)"  stroke="rgb(191,191,191)" stroke-width="1" font-size="16" >H</text>
<text x="152.564065" y="88.000000" fill="rgb(191,191,191)"  stroke="rgb(191,191,191)" stroke-width="1" font-size="16" >H</text>
<text x="287.205081" y="102.641016" fill="rgb(191,191,191)"  stroke="rgb(191,191,191)" stroke-width="1" font-size="16" >H</text>
<text x="163.282032" y="277.282032" fill="rgb(191,191,191)"  stroke="rgb(191,191,191)" stroke-width="1" font-size="16" >H</text>
<text x="247.205081" y="62.641016" fill="rgb(191,191,191)"  stroke="rgb(191,191,191)" stroke-width="1" font-size="16" >H</text>
<text x="232.564065" y="197.282032" fill="rgb(191,191,191)"  stroke="rgb(191,191,191)" stroke-width="1" font-size="16" >H</text>
<text x="197.923048" y="177.282032" fill="rgb(191,191,191)"  stroke="rgb(191,191,191)" stroke-width="1" font-size="16" >H</text>
<text x="272.564065" y="157.282032" fill="rgb(191,191,191)"  stroke="rgb(191,191,191)" stroke-width="1" font-size="16" >H</text>
<text x="47.335378" y="309.682487" fill="rgb(191,191,191)"  stroke="rgb(191,191,191)" stroke-width="1" font-size="16" >H</text>
<text x="86.993172" y="314.903535" fill="rgb(191,191,191)"  stroke="rgb(191,191,191)" stroke-width="1" font-size="16" >H</text>
<text x="39.951701" y="253.597896" fill="rgb(191,191,191)"  stroke="rgb(191,191,191)" stroke-width="1" font-size="16" >H</text>
<text x="39.358984" y="262.641016" fill="rgb(191,191,191)"  stroke="rgb(191,191,191)" stroke-width="1" font-size="16" >H</text>
<text x="177.923048" y="142.641016" fill="rgb(255,12,12)"  stroke="rgb(255,12,12)" stroke-width="1" font-size="16" >O</text>
<text x="143.282032" y="202.641016" fill="rgb(12,12,255)"  stroke="rgb(12,12,255)" stroke-width="1" font-size="16" >N</text>
<text x="74.000000" y="242.641016" fill="rgb(12,12,255)"  stroke="rgb(12,12,255)" stroke-width="1" font-size="16" >N</text>
<text x="212.564065" y="202.641016" fill="rgb(255,12,12)"  stroke="rgb(255,12,12)" stroke-width="1" font-size="16" >O</text>
<text x="175.562320" y="301.278049" fill="rgb(191,191,191)"  stroke="rgb(191,191,191)" stroke-width="1" font-size="16" >H</text>
<text x="165.209559" y="262.641016" fill="rgb(191,191,191)"  stroke="rgb(191,191,191)" stroke-width="1" font-size="16" >H</text>
<text x="126.572526" y="329.562320" fill="rgb(191,191,191)"  stroke="rgb(191,191,191)" stroke-width="1" font-size="16" >H</text>
</svg>
</g>
<text font-size="18.000000" fill ="black" font-family="sans-serif"
x="10.000000" y="20.000000" >ZINC26898258</text>
</svg>
