<?xml version="1.0"?>
<svg version="1.1" id="topsvg"
xmlns="http://www.w3.org/2000/svg" xmlns:xlink="http://www.w3.org/1999/xlink"
xmlns:cml="http://www.xml-cml.org/schema" x="0" y="0" width="200px" height="200px" viewBox="0 0 100 100">
<title>ZINC01872066 - Open Babel Depiction</title>
<rect x="0" y="0" width="100" height="100" fill="white"/>
<g transform="translate(0,0)">
<svg width="100" height="100" x="0" y="0" viewBox="0 0 391.338 218.762"
font-family="sans-serif" stroke="rgb(0,0,0)" stroke-width="2"  stroke-linecap="round">
<line x1="300.9" y1="146.4" x2="316.8" y2="168.2" stroke="rgb(0,0,0)"  stroke-width="2.0"/>
<line x1="260.9" y1="146.4" x2="245.1" y2="168.2" stroke="rgb(0,0,0)"  stroke-width="2.0"/>
<line x1="236.2" y1="104.3" x2="210.5" y2="96.0" stroke="rgb(0,0,0)"  stroke-width="2.0"/>
<line x1="280.9" y1="84.8" x2="280.9" y2="57.8" stroke="rgb(0,0,0)"  stroke-width="2.0"/>
<line x1="207.6" y1="96.6" x2="202.0" y2="70.2" stroke="rgb(0,0,0)"  stroke-width="2.0"/>
<line x1="213.5" y1="95.4" x2="207.9" y2="69.0" stroke="rgb(0,0,0)"  stroke-width="2.0"/>
<line x1="210.5" y1="96.0" x2="180.8" y2="122.8" stroke="rgb(0,0,0)"  stroke-width="2.0"/>
<line x1="183.7" y1="122.1" x2="189.4" y2="148.5" stroke="rgb(0,0,0)"  stroke-width="2.0"/>
<line x1="177.9" y1="123.4" x2="183.5" y2="149.8" stroke="rgb(0,0,0)"  stroke-width="2.0"/>
<line x1="180.8" y1="122.8" x2="155.1" y2="114.4" stroke="rgb(0,0,0)"  stroke-width="2.0"/>
<line x1="110.4" y1="133.9" x2="110.4" y2="160.9" stroke="rgb(0,0,0)"  stroke-width="2.0"/>
<line x1="78.0" y1="110.4" x2="52.4" y2="118.7" stroke="rgb(0,0,0)"  stroke-width="2.0"/>
<line x1="130.4" y1="72.4" x2="146.3" y2="50.5" stroke="rgb(0,0,0)"  stroke-width="2.0"/>
<line x1="325.7" y1="104.3" x2="339.0" y2="100.0" stroke="rgb(0,0,0)"  stroke-width="2.0"/>
<line x1="260.9" y1="146.4" x2="300.9" y2="146.4" stroke="rgb(0,0,0)"  stroke-width="2.0"/>
<line x1="266.9" y1="139.2" x2="294.9" y2="139.2" stroke="rgb(0,0,0)"  stroke-width="2.0"/>
<line x1="300.9" y1="146.4" x2="309.3" y2="120.7" stroke="rgb(0,0,0)"  stroke-width="2.0"/>
<line x1="302.6" y1="100.6" x2="280.9" y2="84.8" stroke="rgb(0,0,0)"  stroke-width="2.0"/>
<line x1="296.8" y1="105.2" x2="281.6" y2="94.2" stroke="rgb(0,0,0)"  stroke-width="2.0"/>
<line x1="280.9" y1="84.8" x2="259.1" y2="100.7" stroke="rgb(0,0,0)"  stroke-width="2.0"/>
<line x1="252.6" y1="120.7" x2="260.9" y2="146.4" stroke="rgb(0,0,0)"  stroke-width="2.0"/>
<line x1="78.0" y1="110.4" x2="86.4" y2="84.7" stroke="rgb(0,0,0)"  stroke-width="2.0"/>
<line x1="103.6" y1="72.4" x2="130.4" y2="72.4" stroke="rgb(0,0,0)"  stroke-width="2.0"/>
<line x1="105.6" y1="79.6" x2="124.4" y2="79.6" stroke="rgb(0,0,0)"  stroke-width="2.0"/>
<line x1="130.4" y1="72.4" x2="138.7" y2="98.0" stroke="rgb(0,0,0)"  stroke-width="2.0"/>
<line x1="132.2" y1="118.0" x2="110.4" y2="133.9" stroke="rgb(0,0,0)"  stroke-width="2.0"/>
<line x1="110.4" y1="133.9" x2="78.0" y2="110.4" stroke="rgb(0,0,0)"  stroke-width="2.0"/>
<line x1="109.8" y1="124.6" x2="87.1" y2="108.1" stroke="rgb(0,0,0)"  stroke-width="2.0"/>
<text x="345.337555" y="103.998396" fill="rgb(191,191,191)"  stroke="rgb(191,191,191)" stroke-width="1" font-size="16" >H</text>
<text x="307.295294" y="116.359076" fill="rgb(12,12,255)"  stroke="rgb(12,12,255)" stroke-width="1" font-size="16" >N</text>
<text x="147.914351" y="48.000000" fill="rgb(191,191,191)"  stroke="rgb(191,191,191)" stroke-width="1" font-size="16" >H</text>
<text x="34.000000" y="130.763620" fill="rgb(191,191,191)"  stroke="rgb(191,191,191)" stroke-width="1" font-size="16" >H</text>
<text x="104.402940" y="181.914351" fill="rgb(191,191,191)"  stroke="rgb(191,191,191)" stroke-width="1" font-size="16" >H</text>
<text x="274.934614" y="52.847666" fill="rgb(191,191,191)"  stroke="rgb(191,191,191)" stroke-width="1" font-size="16" >H</text>
<text x="231.423204" y="186.762016" fill="rgb(191,191,191)"  stroke="rgb(191,191,191)" stroke-width="1" font-size="16" >H</text>
<text x="318.446024" y="186.762016" fill="rgb(191,191,191)"  stroke="rgb(191,191,191)" stroke-width="1" font-size="16" >H</text>
<text x="84.402940" y="80.360680" fill="rgb(12,12,255)"  stroke="rgb(12,12,255)" stroke-width="1" font-size="16" >N</text>
<text x="136.763620" y="118.402940" fill="rgb(12,12,255)"  stroke="rgb(12,12,255)" stroke-width="1" font-size="16" >N</text>
<text x="183.122348" y="169.889524" fill="rgb(255,12,12)"  stroke="rgb(255,12,12)" stroke-width="1" font-size="16" >O</text>
<text x="196.215206" y="64.872492" fill="rgb(255,12,12)"  stroke="rgb(255,12,12)" stroke-width="1" font-size="16" >O</text>
<text x="242.573935" y="116.359076" fill="rgb(12,12,255)"  stroke="rgb(12,12,255)" stroke-width="1" font-size="16" >N</text>
</svg>
</g>
<text font-size="18.000000" fill ="black" font-family="sans-serif"
x="10.000000" y="20.000000" >ZINC01872066</text>
</svg>
