<?xml version="1.0"?>
<svg version="1.1" id="topsvg"
xmlns="http://www.w3.org/2000/svg" xmlns:xlink="http://www.w3.org/1999/xlink"
xmlns:cml="http://www.xml-cml.org/schema" x="0" y="0" width="200px" height="200px" viewBox="0 0 100 100">
<title>ZINC95100012 - Open Babel Depiction</title>
<rect x="0" y="0" width="100" height="100" fill="white"/>
<g transform="translate(0,0)">
<svg width="100" height="100" x="0" y="0" viewBox="0 0 454.641 298.564"
font-family="sans-serif" stroke="rgb(0,0,0)" stroke-width="2"  stroke-linecap="round">
<line x1="194.6" y1="183.9" x2="214.6" y2="149.3" stroke="rgb(0,0,0)"  stroke-width="2.0"/>
<line x1="194.6" y1="183.9" x2="154.6" y2="183.9" stroke="rgb(0,0,0)"  stroke-width="2.0"/>
<line x1="194.6" y1="183.9" x2="194.6" y2="210.9" stroke="rgb(0,0,0)"  stroke-width="2.0"/>
<line x1="194.6" y1="183.9" x2="218.0" y2="197.4" stroke="rgb(0,0,0)"  stroke-width="2.0"/>
<line x1="214.6" y1="149.3" x2="254.6" y2="149.3" stroke="rgb(0,0,0)"  stroke-width="2.0"/>
<line x1="214.6" y1="149.3" x2="214.6" y2="122.3" stroke="rgb(0,0,0)"  stroke-width="2.0"/>
<line x1="214.6" y1="149.3" x2="191.3" y2="135.8" stroke="rgb(0,0,0)"  stroke-width="2.0"/>
<line x1="254.6" y1="149.3" x2="274.6" y2="114.6" stroke="rgb(0,0,0)"  stroke-width="2.0"/>
<line x1="254.6" y1="149.3" x2="278.0" y2="162.8" stroke="rgb(0,0,0)"  stroke-width="2.0"/>
<line x1="254.6" y1="149.3" x2="254.6" y2="176.3" stroke="rgb(0,0,0)"  stroke-width="2.0"/>
<line x1="274.6" y1="114.6" x2="314.6" y2="114.6" stroke="rgb(0,0,0)"  stroke-width="2.0"/>
<line x1="274.6" y1="114.6" x2="274.6" y2="87.6" stroke="rgb(0,0,0)"  stroke-width="2.0"/>
<line x1="274.6" y1="114.6" x2="251.3" y2="101.1" stroke="rgb(0,0,0)"  stroke-width="2.0"/>
<line x1="314.6" y1="114.6" x2="334.6" y2="80.0" stroke="rgb(0,0,0)"  stroke-width="2.0"/>
<line x1="314.6" y1="114.6" x2="338.0" y2="128.1" stroke="rgb(0,0,0)"  stroke-width="2.0"/>
<line x1="314.6" y1="114.6" x2="314.6" y2="141.6" stroke="rgb(0,0,0)"  stroke-width="2.0"/>
<line x1="334.6" y1="80.0" x2="361.6" y2="80.0" stroke="rgb(0,0,0)"  stroke-width="2.0"/>
<line x1="334.6" y1="80.0" x2="334.6" y2="53.0" stroke="rgb(0,0,0)"  stroke-width="2.0"/>
<line x1="334.6" y1="80.0" x2="311.3" y2="66.5" stroke="rgb(0,0,0)"  stroke-width="2.0"/>
<line x1="377.6" y1="93.0" x2="377.6" y2="107.0" stroke="rgb(0,0,0)"  stroke-width="2.0"/>
<line x1="371.6" y1="93.0" x2="371.6" y2="107.0" stroke="rgb(0,0,0)"  stroke-width="2.0"/>
<line x1="387.6" y1="80.0" x2="401.6" y2="80.0" stroke="rgb(0,0,0)"  stroke-width="2.0"/>
<line x1="374.6" y1="67.0" x2="374.6" y2="53.0" stroke="rgb(0,0,0)"  stroke-width="2.0"/>
<line x1="154.6" y1="183.9" x2="134.6" y2="218.6" stroke="rgb(0,0,0)"  stroke-width="2.0"/>
<line x1="154.6" y1="183.9" x2="131.3" y2="170.4" stroke="rgb(0,0,0)"  stroke-width="2.0"/>
<line x1="154.6" y1="183.9" x2="154.6" y2="156.9" stroke="rgb(0,0,0)"  stroke-width="2.0"/>
<line x1="134.6" y1="218.6" x2="94.6" y2="218.6" stroke="rgb(0,0,0)"  stroke-width="2.0"/>
<line x1="134.6" y1="218.6" x2="134.6" y2="245.6" stroke="rgb(0,0,0)"  stroke-width="2.0"/>
<line x1="134.6" y1="218.6" x2="158.0" y2="232.1" stroke="rgb(0,0,0)"  stroke-width="2.0"/>
<line x1="94.6" y1="218.6" x2="74.6" y2="183.9" stroke="rgb(0,0,0)"  stroke-width="2.0"/>
<line x1="94.6" y1="218.6" x2="71.3" y2="232.1" stroke="rgb(0,0,0)"  stroke-width="2.0"/>
<line x1="94.6" y1="218.6" x2="94.6" y2="245.6" stroke="rgb(0,0,0)"  stroke-width="2.0"/>
<line x1="74.6" y1="183.9" x2="94.6" y2="149.3" stroke="rgb(0,0,0)"  stroke-width="2.0"/>
<line x1="74.6" y1="183.9" x2="51.3" y2="170.4" stroke="rgb(0,0,0)"  stroke-width="2.0"/>
<line x1="74.6" y1="183.9" x2="51.3" y2="197.4" stroke="rgb(0,0,0)"  stroke-width="2.0"/>
<line x1="94.6" y1="149.3" x2="121.6" y2="149.3" stroke="rgb(0,0,0)"  stroke-width="2.0"/>
<line x1="94.6" y1="149.3" x2="94.6" y2="122.3" stroke="rgb(0,0,0)"  stroke-width="2.0"/>
<line x1="94.6" y1="149.3" x2="71.3" y2="135.8" stroke="rgb(0,0,0)"  stroke-width="2.0"/>
<line x1="141.1" y1="138.0" x2="148.1" y2="125.9" stroke="rgb(0,0,0)"  stroke-width="2.0"/>
<text x="148.641016" y="151.923048" fill="rgb(191,191,191)"  stroke="rgb(191,191,191)" stroke-width="1" font-size="16" >H</text>
<text x="283.282032" y="177.282032" fill="rgb(191,191,191)"  stroke="rgb(191,191,191)" stroke-width="1" font-size="16" >H</text>
<text x="248.641016" y="197.282032" fill="rgb(191,191,191)"  stroke="rgb(191,191,191)" stroke-width="1" font-size="16" >H</text>
<text x="268.641016" y="82.641016" fill="rgb(191,191,191)"  stroke="rgb(191,191,191)" stroke-width="1" font-size="16" >H</text>
<text x="234.000000" y="102.641016" fill="rgb(191,191,191)"  stroke="rgb(191,191,191)" stroke-width="1" font-size="16" >H</text>
<text x="343.282032" y="142.641016" fill="rgb(191,191,191)"  stroke="rgb(191,191,191)" stroke-width="1" font-size="16" >H</text>
<text x="308.641016" y="162.641016" fill="rgb(191,191,191)"  stroke="rgb(191,191,191)" stroke-width="1" font-size="16" >H</text>
<text x="328.641016" y="48.000000" fill="rgb(191,191,191)"  stroke="rgb(191,191,191)" stroke-width="1" font-size="16" >H</text>
<text x="294.000000" y="68.000000" fill="rgb(191,191,191)"  stroke="rgb(191,191,191)" stroke-width="1" font-size="16" >H</text>
<text x="114.000000" y="171.923048" fill="rgb(191,191,191)"  stroke="rgb(191,191,191)" stroke-width="1" font-size="16" >H</text>
<text x="174.000000" y="137.282032" fill="rgb(191,191,191)"  stroke="rgb(191,191,191)" stroke-width="1" font-size="16" >H</text>
<text x="128.641016" y="266.564065" fill="rgb(191,191,191)"  stroke="rgb(191,191,191)" stroke-width="1" font-size="16" >H</text>
<text x="163.282032" y="246.564065" fill="rgb(191,191,191)"  stroke="rgb(191,191,191)" stroke-width="1" font-size="16" >H</text>
<text x="54.000000" y="246.564065" fill="rgb(191,191,191)"  stroke="rgb(191,191,191)" stroke-width="1" font-size="16" >H</text>
<text x="88.641016" y="266.564065" fill="rgb(191,191,191)"  stroke="rgb(191,191,191)" stroke-width="1" font-size="16" >H</text>
<text x="34.000000" y="171.923048" fill="rgb(191,191,191)"  stroke="rgb(191,191,191)" stroke-width="1" font-size="16" >H</text>
<text x="34.000000" y="211.923048" fill="rgb(191,191,191)"  stroke="rgb(191,191,191)" stroke-width="1" font-size="16" >H</text>
<text x="88.641016" y="117.282032" fill="rgb(191,191,191)"  stroke="rgb(191,191,191)" stroke-width="1" font-size="16" >H</text>
<text x="54.000000" y="137.282032" fill="rgb(191,191,191)"  stroke="rgb(191,191,191)" stroke-width="1" font-size="16" >H</text>
<text x="148.641016" y="122.641016" fill="rgb(191,191,191)"  stroke="rgb(191,191,191)" stroke-width="1" font-size="16" >H</text>
<text x="368.641016" y="88.000000" fill="rgb(255,127,0)"  stroke="rgb(255,127,0)" stroke-width="1" font-size="16" >P</text>
<text x="368.641016" y="128.000000" fill="rgb(255,12,12)"  stroke="rgb(255,12,12)" stroke-width="1" font-size="16" >O</text>
<text x="408.641016" y="88.000000" fill="rgb(255,12,12)"  stroke="rgb(255,12,12)" stroke-width="1" font-size="16" >OH</text>
<text x="368.641016" y="48.000000" fill="rgb(255,12,12)"  stroke="rgb(255,12,12)" stroke-width="1" font-size="16" >OH</text>
<text x="128.641016" y="157.282032" fill="rgb(178,178,0)"  stroke="rgb(178,178,0)" stroke-width="1" font-size="16" >S</text>
<text x="188.641016" y="231.923048" fill="rgb(191,191,191)"  stroke="rgb(191,191,191)" stroke-width="1" font-size="16" >H</text>
<text x="223.282032" y="211.923048" fill="rgb(191,191,191)"  stroke="rgb(191,191,191)" stroke-width="1" font-size="16" >H</text>
<text x="208.641016" y="117.282032" fill="rgb(191,191,191)"  stroke="rgb(191,191,191)" stroke-width="1" font-size="16" >H</text>
</svg>
</g>
<text font-size="18.000000" fill ="black" font-family="sans-serif"
x="10.000000" y="20.000000" >ZINC95100012</text>
</svg>
