<?xml version="1.0"?>
<svg version="1.1" id="topsvg"
xmlns="http://www.w3.org/2000/svg" xmlns:xlink="http://www.w3.org/1999/xlink"
xmlns:cml="http://www.xml-cml.org/schema" x="0" y="0" width="200px" height="200px" viewBox="0 0 100 100">
<title>ZINC03869934 - Open Babel Depiction</title>
<rect x="0" y="0" width="100" height="100" fill="white"/>
<g transform="translate(0,0)">
<svg width="100" height="100" x="0" y="0" viewBox="0 0 300 194.641"
font-family="sans-serif" stroke="rgb(0,0,0)" stroke-width="2"  stroke-linecap="round">
<line x1="140.0" y1="80.0" x2="100.0" y2="80.0" stroke="rgb(0,0,0)"  stroke-width="2.0"/>
<line x1="140.0" y1="80.0" x2="153.5" y2="103.4" stroke="rgb(0,0,0)"  stroke-width="2.0"/>
<line x1="140.0" y1="80.0" x2="163.4" y2="66.5" stroke="rgb(0,0,0)"  stroke-width="2.0"/>
<line x1="140.0" y1="80.0" x2="140.0" y2="53.0" stroke="rgb(0,0,0)"  stroke-width="2.0"/>
<line x1="99.2" y1="74.6" x2="100.8" y2="74.6" stroke="rgb(0,0,0)"  stroke-width="1.0"/>
<line x1="98.6" y1="70.4" x2="101.4" y2="70.4" stroke="rgb(0,0,0)"  stroke-width="1.0"/>
<line x1="97.9" y1="66.1" x2="102.1" y2="66.1" stroke="rgb(0,0,0)"  stroke-width="1.0"/>
<line x1="97.3" y1="61.8" x2="102.7" y2="61.8" stroke="rgb(0,0,0)"  stroke-width="1.0"/>
<line x1="96.6" y1="57.5" x2="103.4" y2="57.5" stroke="rgb(0,0,0)"  stroke-width="1.0"/>
<line x1="96.0" y1="53.2" x2="104.0" y2="53.2" stroke="rgb(0,0,0)"  stroke-width="1.0"/>
<line x1="100.0" y1="80.0" x2="60.0" y2="80.0" stroke="rgb(0,0,0)"  stroke-width="2.0"/>
<line x1="100.0" y1="80.0" x2="100.0" y2="107.0" stroke="rgb(0,0,0)"  stroke-width="2.0"/>
<line x1="57.4" y1="81.5" x2="43.9" y2="58.1" stroke="rgb(0,0,0)"  stroke-width="2.0"/>
<line x1="62.6" y1="78.5" x2="49.1" y2="55.1" stroke="rgb(0,0,0)"  stroke-width="2.0"/>
<line x1="60.0" y1="80.0" x2="46.5" y2="103.4" stroke="rgb(0,0,0)"  stroke-width="2.0"/>
<line x1="88.7" y1="126.5" x2="76.6" y2="133.5" stroke="rgb(0,0,0)"  stroke-width="2.0"/>
<line x1="173.0" y1="114.6" x2="187.0" y2="114.6" stroke="rgb(0,0,0)"  stroke-width="2.0"/>
<polygon points="200.000000 127.841016 204.000000 141.441016 196.000000 141.441016 " stroke-width="2.000000" fill="rgb(0,0,0)"  stroke="rgb(0,0,0)" />
<line x1="213.0" y1="114.6" x2="227.0" y2="114.6" stroke="rgb(0,0,0)"  stroke-width="2.0"/>
<line x1="200.0" y1="101.6" x2="200.0" y2="87.6" stroke="rgb(0,0,0)"  stroke-width="2.0"/>
<line x1="246.5" y1="125.9" x2="253.5" y2="138.0" stroke="rgb(0,0,0)"  stroke-width="2.0"/>
<text x="94.000000" y="48.000000" fill="rgb(191,191,191)"  stroke="rgb(191,191,191)" stroke-width="1" font-size="16" >H</text>
<text x="34.000000" y="53.358984" fill="rgb(255,12,12)"  stroke="rgb(255,12,12)" stroke-width="1" font-size="16" >O</text>
<text x="22.000000" y="122.641016" fill="rgb(255,12,12)"  stroke="rgb(255,12,12)" stroke-width="1" font-size="16" >HO</text>
<text x="94.000000" y="128.000000" fill="rgb(255,12,12)"  stroke="rgb(255,12,12)" stroke-width="1" font-size="16" >O</text>
<text x="154.000000" y="122.641016" fill="rgb(255,12,12)"  stroke="rgb(255,12,12)" stroke-width="1" font-size="16" >O</text>
<text x="194.000000" y="122.641016" fill="rgb(255,127,0)"  stroke="rgb(255,127,0)" stroke-width="1" font-size="16" >P</text>
<text x="194.000000" y="162.641016" fill="rgb(255,12,12)"  stroke="rgb(255,12,12)" stroke-width="1" font-size="16" >O</text>
<text x="234.000000" y="122.641016" fill="rgb(255,12,12)"  stroke="rgb(255,12,12)" stroke-width="1" font-size="16" >O</text>
<text x="194.000000" y="82.641016" fill="rgb(255,12,12)"  stroke="rgb(255,12,12)" stroke-width="1" font-size="16" >OH</text>
<text x="168.641016" y="68.000000" fill="rgb(191,191,191)"  stroke="rgb(191,191,191)" stroke-width="1" font-size="16" >H</text>
<text x="134.000000" y="48.000000" fill="rgb(191,191,191)"  stroke="rgb(191,191,191)" stroke-width="1" font-size="16" >H</text>
<text x="59.358984" y="148.000000" fill="rgb(191,191,191)"  stroke="rgb(191,191,191)" stroke-width="1" font-size="16" >H</text>
<text x="254.000000" y="157.282032" fill="rgb(191,191,191)"  stroke="rgb(191,191,191)" stroke-width="1" font-size="16" >H</text>
</svg>
</g>
<text font-size="18.000000" fill ="black" font-family="sans-serif"
x="10.000000" y="20.000000" >ZINC03869934</text>
</svg>
