<?xml version="1.0"?>
<svg version="1.1" id="topsvg"
xmlns="http://www.w3.org/2000/svg" xmlns:xlink="http://www.w3.org/1999/xlink"
xmlns:cml="http://www.xml-cml.org/schema" x="0" y="0" width="200px" height="200px" viewBox="0 0 100 100">
<title>ZINC04807266 - Open Babel Depiction</title>
<rect x="0" y="0" width="100" height="100" fill="white"/>
<g transform="translate(0,0)">
<svg width="100" height="100" x="0" y="0" viewBox="0 0 246.585 253.695"
font-family="sans-serif" stroke="rgb(0,0,0)" stroke-width="2"  stroke-linecap="round">
<line x1="166.8" y1="79.8" x2="143.3" y2="112.1" stroke="rgb(0,0,0)"  stroke-width="2.0"/>
<line x1="166.8" y1="79.8" x2="169.6" y2="52.9" stroke="rgb(0,0,0)"  stroke-width="2.0"/>
<line x1="166.8" y1="79.8" x2="145.0" y2="63.9" stroke="rgb(0,0,0)"  stroke-width="2.0"/>
<line x1="166.8" y1="79.8" x2="193.7" y2="82.6" stroke="rgb(0,0,0)"  stroke-width="2.0"/>
<line x1="103.3" y1="112.1" x2="79.8" y2="79.8" stroke="rgb(0,0,0)"  stroke-width="2.0"/>
<line x1="123.3" y1="173.7" x2="123.3" y2="200.7" stroke="rgb(0,0,0)"  stroke-width="2.0"/>
<line x1="168.0" y1="154.2" x2="181.3" y2="158.5" stroke="rgb(0,0,0)"  stroke-width="2.0"/>
<line x1="77.0" y1="78.6" x2="88.0" y2="53.9" stroke="rgb(0,0,0)"  stroke-width="2.0"/>
<line x1="82.5" y1="81.0" x2="93.5" y2="56.3" stroke="rgb(0,0,0)"  stroke-width="2.0"/>
<line x1="79.8" y1="79.8" x2="52.9" y2="82.6" stroke="rgb(0,0,0)"  stroke-width="2.0"/>
<line x1="78.6" y1="154.2" x2="65.3" y2="158.5" stroke="rgb(0,0,0)"  stroke-width="2.0"/>
<line x1="123.3" y1="173.7" x2="145.1" y2="157.8" stroke="rgb(0,0,0)"  stroke-width="2.0"/>
<line x1="151.6" y1="137.8" x2="143.3" y2="112.1" stroke="rgb(0,0,0)"  stroke-width="2.0"/>
<line x1="143.3" y1="112.1" x2="103.3" y2="112.1" stroke="rgb(0,0,0)"  stroke-width="2.0"/>
<line x1="137.3" y1="119.3" x2="109.3" y2="119.3" stroke="rgb(0,0,0)"  stroke-width="2.0"/>
<line x1="103.3" y1="112.1" x2="94.9" y2="137.8" stroke="rgb(0,0,0)"  stroke-width="2.0"/>
<line x1="101.6" y1="157.9" x2="123.3" y2="173.7" stroke="rgb(0,0,0)"  stroke-width="2.0"/>
<line x1="107.5" y1="153.3" x2="122.7" y2="164.3" stroke="rgb(0,0,0)"  stroke-width="2.0"/>
<text x="149.652966" y="158.183816" fill="rgb(12,12,255)"  stroke="rgb(12,12,255)" stroke-width="1" font-size="16" >N</text>
<text x="187.695226" y="170.544496" fill="rgb(191,191,191)"  stroke="rgb(191,191,191)" stroke-width="1" font-size="16" >H</text>
<text x="90.050342" y="51.239058" fill="rgb(255,12,12)"  stroke="rgb(255,12,12)" stroke-width="1" font-size="16" >O</text>
<text x="164.984835" y="48.000000" fill="rgb(191,191,191)"  stroke="rgb(191,191,191)" stroke-width="1" font-size="16" >H</text>
<text x="128.443016" y="64.269466" fill="rgb(191,191,191)"  stroke="rgb(191,191,191)" stroke-width="1" font-size="16" >H</text>
<text x="200.584572" y="91.962014" fill="rgb(191,191,191)"  stroke="rgb(191,191,191)" stroke-width="1" font-size="16" >H</text>
<text x="117.292286" y="221.695226" fill="rgb(191,191,191)"  stroke="rgb(191,191,191)" stroke-width="1" font-size="16" >H</text>
<text x="34.000000" y="91.962014" fill="rgb(191,191,191)"  stroke="rgb(191,191,191)" stroke-width="1" font-size="16" >H</text>
<text x="84.931606" y="158.183816" fill="rgb(12,12,255)"  stroke="rgb(12,12,255)" stroke-width="1" font-size="16" >N</text>
<text x="46.889345" y="170.544496" fill="rgb(191,191,191)"  stroke="rgb(191,191,191)" stroke-width="1" font-size="16" >H</text>
</svg>
</g>
<text font-size="18.000000" fill ="black" font-family="sans-serif"
x="10.000000" y="20.000000" >ZINC04807266</text>
</svg>
