<?xml version="1.0"?>
<svg version="1.1" id="topsvg"
xmlns="http://www.w3.org/2000/svg" xmlns:xlink="http://www.w3.org/1999/xlink"
xmlns:cml="http://www.xml-cml.org/schema" x="0" y="0" width="200px" height="200px" viewBox="0 0 100 100">
<title>ZINC72206888 - Open Babel Depiction</title>
<rect x="0" y="0" width="100" height="100" fill="white"/>
<g transform="translate(0,0)">
<svg width="100" height="100" x="0" y="0" viewBox="0 0 323.307 257.05"
font-family="sans-serif" stroke="rgb(0,0,0)" stroke-width="2"  stroke-linecap="round">
<line x1="243.3" y1="182.4" x2="243.3" y2="155.4" stroke="rgb(0,0,0)"  stroke-width="2.0"/>
<line x1="243.3" y1="182.4" x2="256.8" y2="205.8" stroke="rgb(0,0,0)"  stroke-width="2.0"/>
<line x1="243.3" y1="182.4" x2="270.3" y2="182.4" stroke="rgb(0,0,0)"  stroke-width="2.0"/>
<line x1="243.3" y1="182.4" x2="219.9" y2="195.9" stroke="rgb(0,0,0)"  stroke-width="2.0"/>
<line x1="256.3" y1="139.4" x2="270.3" y2="139.4" stroke="rgb(0,0,0)"  stroke-width="2.0"/>
<line x1="256.3" y1="145.4" x2="270.3" y2="145.4" stroke="rgb(0,0,0)"  stroke-width="2.0"/>
<line x1="240.3" y1="129.4" x2="240.3" y2="115.4" stroke="rgb(0,0,0)"  stroke-width="2.0"/>
<line x1="246.3" y1="129.4" x2="246.3" y2="115.4" stroke="rgb(0,0,0)"  stroke-width="2.0"/>
<line x1="230.3" y1="142.4" x2="203.3" y2="142.4" stroke="rgb(0,0,0)"  stroke-width="2.0"/>
<line x1="143.3" y1="177.1" x2="129.8" y2="200.4" stroke="rgb(0,0,0)"  stroke-width="2.0"/>
<line x1="116.5" y1="78.0" x2="134.6" y2="58.0" stroke="rgb(0,0,0)"  stroke-width="2.0"/>
<line x1="116.5" y1="78.0" x2="108.2" y2="52.4" stroke="rgb(0,0,0)"  stroke-width="2.0"/>
<line x1="73.5" y1="83.1" x2="66.5" y2="70.9" stroke="rgb(0,0,0)"  stroke-width="2.0"/>
<line x1="67.0" y1="94.3" x2="53.0" y2="94.3" stroke="rgb(0,0,0)"  stroke-width="2.0"/>
<line x1="84.2" y1="134.1" x2="57.8" y2="139.7" stroke="rgb(0,0,0)"  stroke-width="2.0"/>
<line x1="84.2" y1="134.1" x2="75.8" y2="159.8" stroke="rgb(0,0,0)"  stroke-width="2.0"/>
<line x1="143.3" y1="177.1" x2="123.3" y2="142.4" stroke="rgb(0,0,0)"  stroke-width="2.0"/>
<line x1="123.3" y1="142.4" x2="143.3" y2="107.8" stroke="rgb(0,0,0)"  stroke-width="2.0"/>
<line x1="132.5" y1="140.8" x2="146.5" y2="116.6" stroke="rgb(0,0,0)"  stroke-width="2.0"/>
<line x1="143.3" y1="107.8" x2="170.3" y2="107.8" stroke="rgb(0,0,0)"  stroke-width="2.0"/>
<line x1="189.9" y1="119.2" x2="203.3" y2="142.4" stroke="rgb(0,0,0)"  stroke-width="2.0"/>
<line x1="184.7" y1="124.5" x2="194.1" y2="140.8" stroke="rgb(0,0,0)"  stroke-width="2.0"/>
<line x1="203.3" y1="142.4" x2="189.8" y2="165.8" stroke="rgb(0,0,0)"  stroke-width="2.0"/>
<line x1="170.1" y1="177.1" x2="143.3" y2="177.1" stroke="rgb(0,0,0)"  stroke-width="2.0"/>
<line x1="168.1" y1="169.9" x2="149.3" y2="169.9" stroke="rgb(0,0,0)"  stroke-width="2.0"/>
<line x1="91.9" y1="89.0" x2="116.5" y2="78.0" stroke="rgb(0,0,0)"  stroke-width="2.0"/>
<line x1="116.5" y1="78.0" x2="143.3" y2="107.8" stroke="rgb(0,0,0)"  stroke-width="2.0"/>
<line x1="123.3" y1="142.4" x2="84.2" y2="134.1" stroke="rgb(0,0,0)"  stroke-width="2.0"/>
<line x1="84.2" y1="134.1" x2="81.4" y2="107.2" stroke="rgb(0,0,0)"  stroke-width="2.0"/>
<text x="84.800000" y="90.279726" fill="rgb(12,12,255)"  stroke="rgb(12,12,255)" stroke-width="1" font-size="16" >+</text>
<text x="74.000000" y="102.311726" fill="rgb(12,12,255)"  stroke="rgb(12,12,255)" stroke-width="1" font-size="16" >N</text>
<text x="34.000000" y="102.311726" fill="rgb(191,191,191)"  stroke="rgb(191,191,191)" stroke-width="1" font-size="16" >H</text>
<text x="65.820459" y="180.134863" fill="rgb(191,191,191)"  stroke="rgb(191,191,191)" stroke-width="1" font-size="16" >H</text>
<text x="39.055235" y="150.409070" fill="rgb(191,191,191)"  stroke="rgb(191,191,191)" stroke-width="1" font-size="16" >H</text>
<text x="54.000000" y="67.670710" fill="rgb(191,191,191)"  stroke="rgb(191,191,191)" stroke-width="1" font-size="16" >H</text>
<text x="98.181139" y="48.000000" fill="rgb(191,191,191)"  stroke="rgb(191,191,191)" stroke-width="1" font-size="16" >H</text>
<text x="137.307043" y="56.316468" fill="rgb(191,191,191)"  stroke="rgb(191,191,191)" stroke-width="1" font-size="16" >H</text>
<text x="117.307043" y="219.691102" fill="rgb(191,191,191)"  stroke="rgb(191,191,191)" stroke-width="1" font-size="16" >H</text>
<text x="202.666026" y="210.409070" fill="rgb(191,191,191)"  stroke="rgb(191,191,191)" stroke-width="1" font-size="16" >H</text>
<text x="277.307043" y="190.409070" fill="rgb(191,191,191)"  stroke="rgb(191,191,191)" stroke-width="1" font-size="16" >H</text>
<text x="257.307043" y="225.050086" fill="rgb(191,191,191)"  stroke="rgb(191,191,191)" stroke-width="1" font-size="16" >H</text>
<text x="177.307043" y="115.768054" fill="rgb(12,12,255)"  stroke="rgb(12,12,255)" stroke-width="1" font-size="16" >N</text>
<text x="177.307043" y="185.050086" fill="rgb(12,12,255)"  stroke="rgb(12,12,255)" stroke-width="1" font-size="16" >N</text>
<text x="237.307043" y="110.409070" fill="rgb(255,12,12)"  stroke="rgb(255,12,12)" stroke-width="1" font-size="16" >O</text>
<text x="277.307043" y="150.409070" fill="rgb(255,12,12)"  stroke="rgb(255,12,12)" stroke-width="1" font-size="16" >O</text>
<text x="237.307043" y="150.409070" fill="rgb(178,178,0)"  stroke="rgb(178,178,0)" stroke-width="1" font-size="16" >S</text>
</svg>
</g>
<text font-size="18.000000" fill ="black" font-family="sans-serif"
x="10.000000" y="20.000000" >ZINC72206888</text>
</svg>
