<?xml version="1.0"?>
<svg version="1.1" id="topsvg"
xmlns="http://www.w3.org/2000/svg" xmlns:xlink="http://www.w3.org/1999/xlink"
xmlns:cml="http://www.xml-cml.org/schema" x="0" y="0" width="200px" height="200px" viewBox="0 0 100 100">
<title>ZINC98229796 - Open Babel Depiction</title>
<rect x="0" y="0" width="100" height="100" fill="white"/>
<g transform="translate(0,0)">
<svg width="100" height="100" x="0" y="0" viewBox="0 0 638.498 547.051"
font-family="sans-serif" stroke="rgb(0,0,0)" stroke-width="2"  stroke-linecap="round">
<line x1="529.9" y1="238.0" x2="529.9" y2="198.4" stroke="rgb(0,0,0)"  stroke-width="2.0"/>
<line x1="529.9" y1="238.0" x2="543.2" y2="261.0" stroke="rgb(0,0,0)"  stroke-width="2.0"/>
<line x1="529.9" y1="238.0" x2="556.5" y2="238.0" stroke="rgb(0,0,0)"  stroke-width="2.0"/>
<line x1="529.9" y1="238.0" x2="506.9" y2="251.3" stroke="rgb(0,0,0)"  stroke-width="2.0"/>
<line x1="564.2" y1="178.6" x2="587.2" y2="191.9" stroke="rgb(0,0,0)"  stroke-width="2.0"/>
<line x1="562.7" y1="136.4" x2="585.7" y2="123.1" stroke="rgb(0,0,0)"  stroke-width="2.0"/>
<line x1="565.7" y1="141.6" x2="588.7" y2="128.3" stroke="rgb(0,0,0)"  stroke-width="2.0"/>
<line x1="461.3" y1="198.4" x2="461.3" y2="225.0" stroke="rgb(0,0,0)"  stroke-width="2.0"/>
<line x1="427.0" y1="178.6" x2="404.0" y2="191.9" stroke="rgb(0,0,0)"  stroke-width="2.0"/>
<line x1="427.0" y1="139.0" x2="404.0" y2="125.7" stroke="rgb(0,0,0)"  stroke-width="2.0"/>
<line x1="461.3" y1="119.2" x2="461.3" y2="92.6" stroke="rgb(0,0,0)"  stroke-width="2.0"/>
<line x1="381.5" y1="125.7" x2="358.4" y2="139.0" stroke="rgb(0,0,0)"  stroke-width="2.0"/>
<line x1="392.7" y1="106.2" x2="392.7" y2="92.6" stroke="rgb(0,0,0)"  stroke-width="2.0"/>
<line x1="361.4" y1="139.0" x2="361.4" y2="165.6" stroke="rgb(0,0,0)"  stroke-width="2.0"/>
<line x1="355.4" y1="139.0" x2="355.4" y2="165.6" stroke="rgb(0,0,0)"  stroke-width="2.0"/>
<line x1="358.4" y1="139.0" x2="324.1" y2="119.2" stroke="rgb(0,0,0)"  stroke-width="2.0"/>
<line x1="326.1" y1="114.2" x2="327.5" y2="115.0" stroke="rgb(0,0,0)"  stroke-width="1.0"/>
<line x1="327.7" y1="110.2" x2="330.2" y2="111.6" stroke="rgb(0,0,0)"  stroke-width="1.0"/>
<line x1="329.2" y1="106.2" x2="332.8" y2="108.3" stroke="rgb(0,0,0)"  stroke-width="1.0"/>
<line x1="330.8" y1="102.2" x2="335.5" y2="104.9" stroke="rgb(0,0,0)"  stroke-width="1.0"/>
<line x1="332.4" y1="98.2" x2="338.2" y2="101.6" stroke="rgb(0,0,0)"  stroke-width="1.0"/>
<line x1="333.9" y1="94.2" x2="340.9" y2="98.2" stroke="rgb(0,0,0)"  stroke-width="1.0"/>
<line x1="324.1" y1="119.2" x2="289.8" y2="99.4" stroke="rgb(0,0,0)"  stroke-width="2.0"/>
<line x1="324.1" y1="119.2" x2="310.8" y2="142.2" stroke="rgb(0,0,0)"  stroke-width="2.0"/>
<line x1="289.8" y1="99.4" x2="289.8" y2="59.8" stroke="rgb(0,0,0)"  stroke-width="2.0"/>
<line x1="289.8" y1="99.4" x2="263.2" y2="99.4" stroke="rgb(0,0,0)"  stroke-width="2.0"/>
<line x1="289.8" y1="99.4" x2="276.5" y2="122.4" stroke="rgb(0,0,0)"  stroke-width="2.0"/>
<line x1="288.3" y1="57.2" x2="311.4" y2="43.9" stroke="rgb(0,0,0)"  stroke-width="2.0"/>
<line x1="291.3" y1="62.4" x2="314.4" y2="49.1" stroke="rgb(0,0,0)"  stroke-width="2.0"/>
<line x1="289.8" y1="59.8" x2="266.8" y2="46.5" stroke="rgb(0,0,0)"  stroke-width="2.0"/>
<line x1="291.3" y1="153.5" x2="264.7" y2="153.5" stroke="rgb(0,0,0)"  stroke-width="2.0"/>
<line x1="310.8" y1="164.8" x2="317.6" y2="176.5" stroke="rgb(0,0,0)"  stroke-width="2.0"/>
<line x1="262.1" y1="155.0" x2="248.8" y2="132.0" stroke="rgb(0,0,0)"  stroke-width="2.0"/>
<line x1="267.3" y1="152.0" x2="254.0" y2="129.0" stroke="rgb(0,0,0)"  stroke-width="2.0"/>
<line x1="264.7" y1="153.5" x2="244.9" y2="187.8" stroke="rgb(0,0,0)"  stroke-width="2.0"/>
<line x1="249.9" y1="189.7" x2="249.1" y2="191.1" stroke="rgb(0,0,0)"  stroke-width="1.0"/>
<line x1="253.9" y1="191.3" x2="252.5" y2="193.8" stroke="rgb(0,0,0)"  stroke-width="1.0"/>
<line x1="257.9" y1="192.9" x2="255.8" y2="196.5" stroke="rgb(0,0,0)"  stroke-width="1.0"/>
<line x1="261.9" y1="194.5" x2="259.2" y2="199.2" stroke="rgb(0,0,0)"  stroke-width="1.0"/>
<line x1="265.9" y1="196.0" x2="262.6" y2="201.8" stroke="rgb(0,0,0)"  stroke-width="1.0"/>
<line x1="269.9" y1="197.6" x2="265.9" y2="204.5" stroke="rgb(0,0,0)"  stroke-width="1.0"/>
<line x1="244.9" y1="187.8" x2="176.4" y2="148.2" stroke="rgb(0,0,0)"  stroke-width="2.0"/>
<line x1="244.9" y1="187.8" x2="231.6" y2="210.8" stroke="rgb(0,0,0)"  stroke-width="2.0"/>
<line x1="176.4" y1="148.2" x2="189.7" y2="125.2" stroke="rgb(0,0,0)"  stroke-width="2.0"/>
<line x1="176.4" y1="148.2" x2="163.1" y2="125.2" stroke="rgb(0,0,0)"  stroke-width="2.0"/>
<line x1="176.4" y1="148.2" x2="142.1" y2="168.0" stroke="rgb(0,0,0)"  stroke-width="2.0"/>
<line x1="105.9" y1="151.9" x2="100.4" y2="125.9" stroke="rgb(0,0,0)"  stroke-width="2.0"/>
<line x1="66.5" y1="180.0" x2="52.9" y2="178.5" stroke="rgb(0,0,0)"  stroke-width="2.0"/>
<line x1="99.2" y1="215.6" x2="88.4" y2="239.9" stroke="rgb(0,0,0)"  stroke-width="2.0"/>
<line x1="231.6" y1="233.3" x2="244.9" y2="256.4" stroke="rgb(0,0,0)"  stroke-width="2.0"/>
<line x1="212.1" y1="222.1" x2="198.5" y2="222.1" stroke="rgb(0,0,0)"  stroke-width="2.0"/>
<line x1="244.9" y1="253.4" x2="271.5" y2="253.4" stroke="rgb(0,0,0)"  stroke-width="2.0"/>
<line x1="244.9" y1="259.4" x2="271.5" y2="259.4" stroke="rgb(0,0,0)"  stroke-width="2.0"/>
<line x1="244.9" y1="256.4" x2="225.1" y2="290.7" stroke="rgb(0,0,0)"  stroke-width="2.0"/>
<line x1="220.1" y1="288.7" x2="220.9" y2="287.3" stroke="rgb(0,0,0)"  stroke-width="1.0"/>
<line x1="216.1" y1="287.1" x2="217.6" y2="284.7" stroke="rgb(0,0,0)"  stroke-width="1.0"/>
<line x1="212.2" y1="285.6" x2="214.2" y2="282.0" stroke="rgb(0,0,0)"  stroke-width="1.0"/>
<line x1="208.2" y1="284.0" x2="210.9" y2="279.3" stroke="rgb(0,0,0)"  stroke-width="1.0"/>
<line x1="204.2" y1="282.4" x2="207.5" y2="276.6" stroke="rgb(0,0,0)"  stroke-width="1.0"/>
<line x1="200.2" y1="280.9" x2="204.2" y2="273.9" stroke="rgb(0,0,0)"  stroke-width="1.0"/>
<line x1="225.1" y1="290.7" x2="205.3" y2="325.0" stroke="rgb(0,0,0)"  stroke-width="2.0"/>
<line x1="225.1" y1="290.7" x2="248.2" y2="304.0" stroke="rgb(0,0,0)"  stroke-width="2.0"/>
<line x1="205.3" y1="325.0" x2="165.7" y2="325.0" stroke="rgb(0,0,0)"  stroke-width="2.0"/>
<line x1="205.3" y1="325.0" x2="205.3" y2="351.6" stroke="rgb(0,0,0)"  stroke-width="2.0"/>
<line x1="205.3" y1="325.0" x2="228.4" y2="338.3" stroke="rgb(0,0,0)"  stroke-width="2.0"/>
<line x1="165.7" y1="325.0" x2="145.9" y2="290.7" stroke="rgb(0,0,0)"  stroke-width="2.0"/>
<line x1="165.7" y1="325.0" x2="142.7" y2="338.3" stroke="rgb(0,0,0)"  stroke-width="2.0"/>
<line x1="165.7" y1="325.0" x2="165.7" y2="351.6" stroke="rgb(0,0,0)"  stroke-width="2.0"/>
<line x1="143.3" y1="289.2" x2="156.6" y2="266.1" stroke="rgb(0,0,0)"  stroke-width="2.0"/>
<line x1="148.5" y1="292.2" x2="161.8" y2="269.1" stroke="rgb(0,0,0)"  stroke-width="2.0"/>
<line x1="145.9" y1="290.7" x2="119.3" y2="290.7" stroke="rgb(0,0,0)"  stroke-width="2.0"/>
<line x1="259.4" y1="323.5" x2="259.4" y2="350.1" stroke="rgb(0,0,0)"  stroke-width="2.0"/>
<line x1="270.7" y1="304.0" x2="282.5" y2="297.2" stroke="rgb(0,0,0)"  stroke-width="2.0"/>
<line x1="260.9" y1="352.7" x2="237.9" y2="366.0" stroke="rgb(0,0,0)"  stroke-width="2.0"/>
<line x1="257.9" y1="347.5" x2="234.9" y2="360.8" stroke="rgb(0,0,0)"  stroke-width="2.0"/>
<line x1="259.4" y1="350.1" x2="293.7" y2="369.9" stroke="rgb(0,0,0)"  stroke-width="2.0"/>
<polygon points="293.730069 369.873030 303.531968 344.895644 310.460171 348.895644 " stroke-width="2.000000" fill="rgb(0,0,0)"  stroke="rgb(0,0,0)" />
<line x1="293.7" y1="369.9" x2="328.0" y2="389.7" stroke="rgb(0,0,0)"  stroke-width="2.0"/>
<line x1="293.7" y1="369.9" x2="280.4" y2="392.9" stroke="rgb(0,0,0)"  stroke-width="2.0"/>
<line x1="328.0" y1="389.7" x2="362.3" y2="369.9" stroke="rgb(0,0,0)"  stroke-width="2.0"/>
<line x1="328.0" y1="389.7" x2="341.3" y2="412.7" stroke="rgb(0,0,0)"  stroke-width="2.0"/>
<line x1="328.0" y1="389.7" x2="314.7" y2="412.7" stroke="rgb(0,0,0)"  stroke-width="2.0"/>
<line x1="366.5" y1="330.5" x2="346.7" y2="312.7" stroke="rgb(0,0,0)"  stroke-width="2.0"/>
<line x1="410.5" y1="310.4" x2="416.0" y2="298.0" stroke="rgb(0,0,0)"  stroke-width="2.0"/>
<line x1="410.7" y1="423.6" x2="392.9" y2="443.4" stroke="rgb(0,0,0)"  stroke-width="2.0"/>
<line x1="449.5" y1="431.9" x2="457.7" y2="457.2" stroke="rgb(0,0,0)"  stroke-width="2.0"/>
<line x1="476.0" y1="402.4" x2="502.0" y2="408.0" stroke="rgb(0,0,0)"  stroke-width="2.0"/>
<line x1="463.7" y1="364.8" x2="481.5" y2="345.0" stroke="rgb(0,0,0)"  stroke-width="2.0"/>
<line x1="280.4" y1="415.4" x2="293.7" y2="438.5" stroke="rgb(0,0,0)"  stroke-width="2.0"/>
<line x1="260.9" y1="404.2" x2="247.3" y2="404.2" stroke="rgb(0,0,0)"  stroke-width="2.0"/>
<line x1="293.7" y1="435.5" x2="320.3" y2="435.5" stroke="rgb(0,0,0)"  stroke-width="2.0"/>
<line x1="293.7" y1="441.5" x2="320.3" y2="441.5" stroke="rgb(0,0,0)"  stroke-width="2.0"/>
<line x1="293.7" y1="438.5" x2="273.9" y2="472.8" stroke="rgb(0,0,0)"  stroke-width="2.0"/>
<line x1="273.9" y1="472.8" x2="250.9" y2="486.1" stroke="rgb(0,0,0)"  stroke-width="2.0"/>
<line x1="273.9" y1="472.8" x2="250.9" y2="459.5" stroke="rgb(0,0,0)"  stroke-width="2.0"/>
<line x1="273.9" y1="472.8" x2="287.2" y2="495.8" stroke="rgb(0,0,0)"  stroke-width="2.0"/>
<line x1="85.9" y1="192.6" x2="99.2" y2="215.6" stroke="rgb(0,0,0)"  stroke-width="2.0"/>
<line x1="99.2" y1="215.6" x2="125.1" y2="210.1" stroke="rgb(0,0,0)"  stroke-width="2.0"/>
<line x1="103.6" y1="207.3" x2="121.6" y2="203.5" stroke="rgb(0,0,0)"  stroke-width="2.0"/>
<line x1="139.3" y1="194.4" x2="142.1" y2="168.0" stroke="rgb(0,0,0)"  stroke-width="2.0"/>
<line x1="142.1" y1="168.0" x2="105.9" y2="151.9" stroke="rgb(0,0,0)"  stroke-width="2.0"/>
<line x1="133.6" y1="172.1" x2="108.4" y2="160.9" stroke="rgb(0,0,0)"  stroke-width="2.0"/>
<line x1="105.9" y1="151.9" x2="88.1" y2="171.7" stroke="rgb(0,0,0)"  stroke-width="2.0"/>
<line x1="411.7" y1="333.5" x2="425.0" y2="356.6" stroke="rgb(0,0,0)"  stroke-width="2.0"/>
<line x1="425.0" y1="356.6" x2="398.5" y2="386.0" stroke="rgb(0,0,0)"  stroke-width="2.0"/>
<line x1="398.5" y1="386.0" x2="362.3" y2="369.9" stroke="rgb(0,0,0)"  stroke-width="2.0"/>
<line x1="362.3" y1="369.9" x2="366.5" y2="330.5" stroke="rgb(0,0,0)"  stroke-width="2.0"/>
<line x1="370.1" y1="364.7" x2="373.0" y2="337.2" stroke="rgb(0,0,0)"  stroke-width="2.0"/>
<line x1="366.5" y1="330.5" x2="392.5" y2="325.0" stroke="rgb(0,0,0)"  stroke-width="2.0"/>
<line x1="564.2" y1="139.0" x2="541.2" y2="125.7" stroke="rgb(0,0,0)"  stroke-width="2.0"/>
<line x1="518.7" y1="125.7" x2="495.6" y2="139.0" stroke="rgb(0,0,0)"  stroke-width="2.0"/>
<line x1="495.6" y1="139.0" x2="495.6" y2="178.6" stroke="rgb(0,0,0)"  stroke-width="2.0"/>
<line x1="495.6" y1="178.6" x2="529.9" y2="198.4" stroke="rgb(0,0,0)"  stroke-width="2.0"/>
<line x1="529.9" y1="198.4" x2="564.2" y2="178.6" stroke="rgb(0,0,0)"  stroke-width="2.0"/>
<line x1="531.5" y1="189.2" x2="555.4" y2="175.4" stroke="rgb(0,0,0)"  stroke-width="2.0"/>
<line x1="564.2" y1="178.6" x2="564.2" y2="139.0" stroke="rgb(0,0,0)"  stroke-width="2.0"/>
<line x1="427.0" y1="139.0" x2="427.0" y2="178.6" stroke="rgb(0,0,0)"  stroke-width="2.0"/>
<line x1="434.2" y1="145.0" x2="434.2" y2="172.6" stroke="rgb(0,0,0)"  stroke-width="2.0"/>
<line x1="427.0" y1="178.6" x2="461.3" y2="198.4" stroke="rgb(0,0,0)"  stroke-width="2.0"/>
<line x1="461.3" y1="198.4" x2="495.6" y2="178.6" stroke="rgb(0,0,0)"  stroke-width="2.0"/>
<line x1="462.9" y1="189.2" x2="486.8" y2="175.4" stroke="rgb(0,0,0)"  stroke-width="2.0"/>
<line x1="495.6" y1="139.0" x2="461.3" y2="119.2" stroke="rgb(0,0,0)"  stroke-width="2.0"/>
<line x1="486.8" y1="142.2" x2="462.9" y2="128.4" stroke="rgb(0,0,0)"  stroke-width="2.0"/>
<line x1="461.3" y1="119.2" x2="427.0" y2="139.0" stroke="rgb(0,0,0)"  stroke-width="2.0"/>
<line x1="476.0" y1="402.4" x2="449.5" y2="431.9" stroke="rgb(0,0,0)"  stroke-width="2.0"/>
<line x1="466.6" y1="402.1" x2="448.1" y2="422.6" stroke="rgb(0,0,0)"  stroke-width="2.0"/>
<line x1="449.5" y1="431.9" x2="410.7" y2="423.6" stroke="rgb(0,0,0)"  stroke-width="2.0"/>
<line x1="410.7" y1="423.6" x2="398.5" y2="386.0" stroke="rgb(0,0,0)"  stroke-width="2.0"/>
<line x1="415.7" y1="415.7" x2="407.2" y2="389.5" stroke="rgb(0,0,0)"  stroke-width="2.0"/>
<line x1="425.0" y1="356.6" x2="463.7" y2="364.8" stroke="rgb(0,0,0)"  stroke-width="2.0"/>
<line x1="429.4" y1="364.8" x2="456.4" y2="370.6" stroke="rgb(0,0,0)"  stroke-width="2.0"/>
<line x1="463.7" y1="364.8" x2="476.0" y2="402.4" stroke="rgb(0,0,0)"  stroke-width="2.0"/>
<text x="267.930069" y="412.167636" fill="rgb(12,12,255)"  stroke="rgb(12,12,255)" stroke-width="1" font-size="16" >N</text>
<text x="386.730069" y="87.600000" fill="rgb(191,191,191)"  stroke="rgb(191,191,191)" stroke-width="1" font-size="16" >H</text>
<text x="455.319281" y="87.600000" fill="rgb(191,191,191)"  stroke="rgb(191,191,191)" stroke-width="1" font-size="16" >H</text>
<text x="386.730069" y="206.400000" fill="rgb(191,191,191)"  stroke="rgb(191,191,191)" stroke-width="1" font-size="16" >H</text>
<text x="455.319281" y="246.000000" fill="rgb(191,191,191)"  stroke="rgb(191,191,191)" stroke-width="1" font-size="16" >H</text>
<text x="592.497705" y="206.400000" fill="rgb(191,191,191)"  stroke="rgb(191,191,191)" stroke-width="1" font-size="16" >H</text>
<text x="489.613887" y="265.800000" fill="rgb(191,191,191)"  stroke="rgb(191,191,191)" stroke-width="1" font-size="16" >H</text>
<text x="563.508493" y="246.000000" fill="rgb(191,191,191)"  stroke="rgb(191,191,191)" stroke-width="1" font-size="16" >H</text>
<text x="543.708493" y="280.294606" fill="rgb(191,191,191)"  stroke="rgb(191,191,191)" stroke-width="1" font-size="16" >H</text>
<text x="327.330069" y="446.462242" fill="rgb(255,12,12)"  stroke="rgb(255,12,12)" stroke-width="1" font-size="16" >O</text>
<text x="244.246251" y="107.400000" fill="rgb(191,191,191)"  stroke="rgb(191,191,191)" stroke-width="1" font-size="16" >H</text>
<text x="415.300024" y="294.080260" fill="rgb(191,191,191)"  stroke="rgb(191,191,191)" stroke-width="1" font-size="16" >H</text>
<text x="399.193253" y="330.256660" fill="rgb(12,12,255)"  stroke="rgb(12,12,255)" stroke-width="1" font-size="16" >N</text>
<text x="287.730069" y="298.673030" fill="rgb(191,191,191)"  stroke="rgb(191,191,191)" stroke-width="1" font-size="16" >H</text>
<text x="287.730069" y="515.051454" fill="rgb(191,191,191)"  stroke="rgb(191,191,191)" stroke-width="1" font-size="16" >H</text>
<text x="233.635463" y="460.956848" fill="rgb(191,191,191)"  stroke="rgb(191,191,191)" stroke-width="1" font-size="16" >H</text>
<text x="233.635463" y="500.556848" fill="rgb(191,191,191)"  stroke="rgb(191,191,191)" stroke-width="1" font-size="16" >H</text>
<text x="228.330069" y="412.167636" fill="rgb(191,191,191)"  stroke="rgb(191,191,191)" stroke-width="1" font-size="16" >H</text>
<text x="484.225470" y="343.356034" fill="rgb(191,191,191)"  stroke="rgb(191,191,191)" stroke-width="1" font-size="16" >H</text>
<text x="508.699616" y="418.679710" fill="rgb(191,191,191)"  stroke="rgb(191,191,191)" stroke-width="1" font-size="16" >H</text>
<text x="455.704472" y="477.536780" fill="rgb(191,191,191)"  stroke="rgb(191,191,191)" stroke-width="1" font-size="16" >H</text>
<text x="378.235182" y="461.070174" fill="rgb(191,191,191)"  stroke="rgb(191,191,191)" stroke-width="1" font-size="16" >H</text>
<text x="331.030073" y="311.992391" fill="rgb(191,191,191)"  stroke="rgb(191,191,191)" stroke-width="1" font-size="16" >H</text>
<text x="302.224675" y="431.967636" fill="rgb(191,191,191)"  stroke="rgb(191,191,191)" stroke-width="1" font-size="16" >H</text>
<text x="341.824675" y="431.967636" fill="rgb(191,191,191)"  stroke="rgb(191,191,191)" stroke-width="1" font-size="16" >H</text>
<text x="307.530069" y="343.578424" fill="rgb(191,191,191)"  stroke="rgb(191,191,191)" stroke-width="1" font-size="16" >H</text>
<text x="159.740857" y="372.567636" fill="rgb(191,191,191)"  stroke="rgb(191,191,191)" stroke-width="1" font-size="16" >H</text>
<text x="125.446251" y="352.767636" fill="rgb(191,191,191)"  stroke="rgb(191,191,191)" stroke-width="1" font-size="16" >H</text>
<text x="233.635463" y="352.767636" fill="rgb(191,191,191)"  stroke="rgb(191,191,191)" stroke-width="1" font-size="16" >H</text>
<text x="199.340857" y="372.567636" fill="rgb(191,191,191)"  stroke="rgb(191,191,191)" stroke-width="1" font-size="16" >H</text>
<text x="179.540857" y="230.083818" fill="rgb(191,191,191)"  stroke="rgb(191,191,191)" stroke-width="1" font-size="16" >H</text>
<text x="77.076296" y="259.781982" fill="rgb(191,191,191)"  stroke="rgb(191,191,191)" stroke-width="1" font-size="16" >H</text>
<text x="91.647336" y="121.147796" fill="rgb(191,191,191)"  stroke="rgb(191,191,191)" stroke-width="1" font-size="16" >H</text>
<text x="150.551645" y="121.894606" fill="rgb(191,191,191)"  stroke="rgb(191,191,191)" stroke-width="1" font-size="16" >H</text>
<text x="190.151645" y="121.894606" fill="rgb(191,191,191)"  stroke="rgb(191,191,191)" stroke-width="1" font-size="16" >H</text>
<text x="318.140857" y="195.789212" fill="rgb(191,191,191)"  stroke="rgb(191,191,191)" stroke-width="1" font-size="16" >H</text>
<text x="264.046251" y="141.694606" fill="rgb(191,191,191)"  stroke="rgb(191,191,191)" stroke-width="1" font-size="16" >H</text>
<text x="386.730069" y="127.200000" fill="rgb(12,12,255)"  stroke="rgb(12,12,255)" stroke-width="1" font-size="16" >N</text>
<text x="238.940857" y="127.200000" fill="rgb(255,12,12)"  stroke="rgb(255,12,12)" stroke-width="1" font-size="16" >O</text>
<text x="298.340857" y="161.494606" fill="rgb(12,12,255)"  stroke="rgb(12,12,255)" stroke-width="1" font-size="16" >N</text>
<text x="237.551645" y="48.000000" fill="rgb(255,12,12)"  stroke="rgb(255,12,12)" stroke-width="1" font-size="16" >HO</text>
<text x="318.140857" y="48.000000" fill="rgb(255,12,12)"  stroke="rgb(255,12,12)" stroke-width="1" font-size="16" >O</text>
<text x="337.940857" y="92.905394" fill="rgb(191,191,191)"  stroke="rgb(191,191,191)" stroke-width="1" font-size="16" >H</text>
<text x="352.435463" y="186.600000" fill="rgb(255,12,12)"  stroke="rgb(255,12,12)" stroke-width="1" font-size="16" >O</text>
<text x="523.908493" y="127.200000" fill="rgb(255,12,12)"  stroke="rgb(255,12,12)" stroke-width="1" font-size="16" >O</text>
<text x="592.497705" y="127.200000" fill="rgb(255,12,12)"  stroke="rgb(255,12,12)" stroke-width="1" font-size="16" >O</text>
<text x="278.540857" y="264.378424" fill="rgb(255,12,12)"  stroke="rgb(255,12,12)" stroke-width="1" font-size="16" >O</text>
<text x="219.140857" y="377.873030" fill="rgb(255,12,12)"  stroke="rgb(255,12,12)" stroke-width="1" font-size="16" >O</text>
<text x="253.435463" y="318.473030" fill="rgb(12,12,255)"  stroke="rgb(12,12,255)" stroke-width="1" font-size="16" >N</text>
<text x="88.340857" y="298.673030" fill="rgb(255,12,12)"  stroke="rgb(255,12,12)" stroke-width="1" font-size="16" >HO</text>
<text x="159.740857" y="264.378424" fill="rgb(255,12,12)"  stroke="rgb(255,12,12)" stroke-width="1" font-size="16" >O</text>
<text x="184.846251" y="278.873030" fill="rgb(191,191,191)"  stroke="rgb(191,191,191)" stroke-width="1" font-size="16" >H</text>
<text x="219.140857" y="230.083818" fill="rgb(12,12,255)"  stroke="rgb(12,12,255)" stroke-width="1" font-size="16" >N</text>
<text x="131.917712" y="215.372279" fill="rgb(12,12,255)"  stroke="rgb(12,12,255)" stroke-width="1" font-size="16" >N</text>
<text x="34.000000" y="185.171649" fill="rgb(191,191,191)"  stroke="rgb(191,191,191)" stroke-width="1" font-size="16" >H</text>
<text x="73.383067" y="189.310976" fill="rgb(12,12,255)"  stroke="rgb(12,12,255)" stroke-width="1" font-size="16" >N</text>
<text x="273.235463" y="215.589212" fill="rgb(191,191,191)"  stroke="rgb(191,191,191)" stroke-width="1" font-size="16" >H</text>
</svg>
</g>
<text font-size="18.000000" fill ="black" font-family="sans-serif"
x="10.000000" y="20.000000" >ZINC98229796</text>
</svg>
