<?xml version="1.0"?>
<svg version="1.1" id="topsvg"
xmlns="http://www.w3.org/2000/svg" xmlns:xlink="http://www.w3.org/1999/xlink"
xmlns:cml="http://www.xml-cml.org/schema" x="0" y="0" width="200px" height="200px" viewBox="0 0 100 100">
<title>ZINC98224405 - Open Babel Depiction</title>
<rect x="0" y="0" width="100" height="100" fill="white"/>
<g transform="translate(0,0)">
<svg width="100" height="100" x="0" y="0" viewBox="0 0 570.787 570.768"
font-family="sans-serif" stroke="rgb(0,0,0)" stroke-width="2"  stroke-linecap="round">
<line x1="179.3" y1="432.6" x2="155.9" y2="446.1" stroke="rgb(0,0,0)"  stroke-width="2.0"/>
<line x1="179.3" y1="396.2" x2="155.9" y2="382.7" stroke="rgb(0,0,0)"  stroke-width="2.0"/>
<line x1="242.3" y1="432.7" x2="265.6" y2="446.2" stroke="rgb(0,0,0)"  stroke-width="2.0"/>
<line x1="210.7" y1="450.8" x2="210.7" y2="477.8" stroke="rgb(0,0,0)"  stroke-width="2.0"/>
<line x1="197.7" y1="493.8" x2="183.7" y2="493.8" stroke="rgb(0,0,0)"  stroke-width="2.0"/>
<line x1="197.7" y1="487.8" x2="183.7" y2="487.8" stroke="rgb(0,0,0)"  stroke-width="2.0"/>
<line x1="213.7" y1="503.8" x2="213.7" y2="517.8" stroke="rgb(0,0,0)"  stroke-width="2.0"/>
<line x1="207.7" y1="503.8" x2="207.7" y2="517.8" stroke="rgb(0,0,0)"  stroke-width="2.0"/>
<line x1="223.7" y1="490.8" x2="237.7" y2="490.8" stroke="rgb(0,0,0)"  stroke-width="2.0"/>
<line x1="267.0" y1="317.1" x2="273.5" y2="305.9" stroke="rgb(0,0,0)"  stroke-width="2.0"/>
<line x1="253.6" y1="267.0" x2="298.7" y2="293.1" stroke="rgb(0,0,0)"  stroke-width="2.0"/>
<line x1="328.5" y1="138.1" x2="305.1" y2="124.6" stroke="rgb(0,0,0)"  stroke-width="2.0"/>
<line x1="360.0" y1="119.9" x2="360.0" y2="93.0" stroke="rgb(0,0,0)"  stroke-width="2.0"/>
<line x1="391.5" y1="138.1" x2="414.8" y2="124.7" stroke="rgb(0,0,0)"  stroke-width="2.0"/>
<line x1="391.4" y1="174.5" x2="414.8" y2="188.0" stroke="rgb(0,0,0)"  stroke-width="2.0"/>
<line x1="303.7" y1="253.6" x2="297.2" y2="264.9" stroke="rgb(0,0,0)"  stroke-width="2.0"/>
<line x1="317.2" y1="303.7" x2="272.1" y2="277.7" stroke="rgb(0,0,0)"  stroke-width="2.0"/>
<line x1="432.7" y1="328.4" x2="446.1" y2="305.1" stroke="rgb(0,0,0)"  stroke-width="2.0"/>
<line x1="450.8" y1="360.0" x2="477.8" y2="360.0" stroke="rgb(0,0,0)"  stroke-width="2.0"/>
<line x1="432.7" y1="391.5" x2="446.1" y2="414.8" stroke="rgb(0,0,0)"  stroke-width="2.0"/>
<line x1="396.3" y1="391.5" x2="382.8" y2="414.8" stroke="rgb(0,0,0)"  stroke-width="2.0"/>
<line x1="493.8" y1="373.0" x2="493.8" y2="386.9" stroke="rgb(0,0,0)"  stroke-width="2.0"/>
<line x1="487.8" y1="373.0" x2="487.8" y2="386.9" stroke="rgb(0,0,0)"  stroke-width="2.0"/>
<line x1="503.8" y1="357.0" x2="517.8" y2="357.0" stroke="rgb(0,0,0)"  stroke-width="2.0"/>
<line x1="503.8" y1="363.0" x2="517.8" y2="363.0" stroke="rgb(0,0,0)"  stroke-width="2.0"/>
<line x1="490.8" y1="347.0" x2="490.8" y2="333.0" stroke="rgb(0,0,0)"  stroke-width="2.0"/>
<line x1="373.0" y1="77.0" x2="387.0" y2="77.0" stroke="rgb(0,0,0)"  stroke-width="2.0"/>
<line x1="373.0" y1="83.0" x2="387.0" y2="83.0" stroke="rgb(0,0,0)"  stroke-width="2.0"/>
<line x1="357.0" y1="67.0" x2="357.0" y2="53.0" stroke="rgb(0,0,0)"  stroke-width="2.0"/>
<line x1="363.0" y1="67.0" x2="363.0" y2="53.0" stroke="rgb(0,0,0)"  stroke-width="2.0"/>
<line x1="347.0" y1="80.0" x2="333.0" y2="80.0" stroke="rgb(0,0,0)"  stroke-width="2.0"/>
<line x1="138.1" y1="242.3" x2="124.6" y2="265.6" stroke="rgb(0,0,0)"  stroke-width="2.0"/>
<line x1="119.9" y1="210.8" x2="93.0" y2="210.8" stroke="rgb(0,0,0)"  stroke-width="2.0"/>
<line x1="138.1" y1="179.3" x2="124.7" y2="155.9" stroke="rgb(0,0,0)"  stroke-width="2.0"/>
<line x1="174.5" y1="179.3" x2="188.0" y2="156.0" stroke="rgb(0,0,0)"  stroke-width="2.0"/>
<line x1="77.0" y1="197.8" x2="77.0" y2="183.8" stroke="rgb(0,0,0)"  stroke-width="2.0"/>
<line x1="83.0" y1="197.8" x2="83.0" y2="183.8" stroke="rgb(0,0,0)"  stroke-width="2.0"/>
<line x1="67.0" y1="213.8" x2="53.0" y2="213.8" stroke="rgb(0,0,0)"  stroke-width="2.0"/>
<line x1="67.0" y1="207.8" x2="53.0" y2="207.8" stroke="rgb(0,0,0)"  stroke-width="2.0"/>
<line x1="80.0" y1="223.8" x2="80.0" y2="237.7" stroke="rgb(0,0,0)"  stroke-width="2.0"/>
<line x1="263.9" y1="341.0" x2="271.0" y2="367.6" stroke="rgb(0,0,0)"  stroke-width="2.0"/>
<line x1="271.0" y1="367.6" x2="242.3" y2="396.3" stroke="rgb(0,0,0)"  stroke-width="2.0"/>
<line x1="261.7" y1="366.8" x2="241.4" y2="386.9" stroke="rgb(0,0,0)"  stroke-width="2.0"/>
<line x1="242.3" y1="396.3" x2="210.8" y2="378.1" stroke="rgb(0,0,0)"  stroke-width="2.0"/>
<line x1="210.8" y1="378.1" x2="221.3" y2="338.9" stroke="rgb(0,0,0)"  stroke-width="2.0"/>
<line x1="219.3" y1="374.1" x2="226.7" y2="346.5" stroke="rgb(0,0,0)"  stroke-width="2.0"/>
<line x1="221.3" y1="338.9" x2="247.9" y2="331.8" stroke="rgb(0,0,0)"  stroke-width="2.0"/>
<line x1="203.1" y1="271.0" x2="229.8" y2="263.9" stroke="rgb(0,0,0)"  stroke-width="2.0"/>
<line x1="239.0" y1="248.0" x2="231.9" y2="221.3" stroke="rgb(0,0,0)"  stroke-width="2.0"/>
<line x1="231.9" y1="221.3" x2="192.7" y2="210.8" stroke="rgb(0,0,0)"  stroke-width="2.0"/>
<line x1="192.7" y1="210.8" x2="174.5" y2="242.3" stroke="rgb(0,0,0)"  stroke-width="2.0"/>
<line x1="174.5" y1="242.3" x2="203.1" y2="271.0" stroke="rgb(0,0,0)"  stroke-width="2.0"/>
<line x1="349.4" y1="231.9" x2="322.8" y2="239.0" stroke="rgb(0,0,0)"  stroke-width="2.0"/>
<line x1="306.9" y1="229.8" x2="299.8" y2="203.1" stroke="rgb(0,0,0)"  stroke-width="2.0"/>
<line x1="299.8" y1="203.1" x2="328.5" y2="174.5" stroke="rgb(0,0,0)"  stroke-width="2.0"/>
<line x1="309.1" y1="204.0" x2="329.3" y2="183.8" stroke="rgb(0,0,0)"  stroke-width="2.0"/>
<line x1="328.5" y1="174.5" x2="360.0" y2="192.7" stroke="rgb(0,0,0)"  stroke-width="2.0"/>
<line x1="360.0" y1="192.7" x2="349.4" y2="231.9" stroke="rgb(0,0,0)"  stroke-width="2.0"/>
<line x1="351.4" y1="196.6" x2="344.0" y2="224.2" stroke="rgb(0,0,0)"  stroke-width="2.0"/>
<line x1="367.6" y1="299.7" x2="341.0" y2="306.9" stroke="rgb(0,0,0)"  stroke-width="2.0"/>
<line x1="331.8" y1="322.8" x2="338.9" y2="349.4" stroke="rgb(0,0,0)"  stroke-width="2.0"/>
<line x1="338.9" y1="349.4" x2="378.1" y2="360.0" stroke="rgb(0,0,0)"  stroke-width="2.0"/>
<line x1="378.1" y1="360.0" x2="396.3" y2="328.4" stroke="rgb(0,0,0)"  stroke-width="2.0"/>
<line x1="396.3" y1="328.4" x2="367.6" y2="299.7" stroke="rgb(0,0,0)"  stroke-width="2.0"/>
<line x1="242.3" y1="396.3" x2="242.3" y2="432.7" stroke="rgb(0,0,0)"  stroke-width="2.0"/>
<line x1="242.3" y1="432.7" x2="210.7" y2="450.8" stroke="rgb(0,0,0)"  stroke-width="2.0"/>
<line x1="233.5" y1="429.4" x2="212.4" y2="441.6" stroke="rgb(0,0,0)"  stroke-width="2.0"/>
<line x1="210.7" y1="450.8" x2="179.3" y2="432.6" stroke="rgb(0,0,0)"  stroke-width="2.0"/>
<line x1="179.3" y1="432.6" x2="179.3" y2="396.2" stroke="rgb(0,0,0)"  stroke-width="2.0"/>
<line x1="186.5" y1="426.6" x2="186.5" y2="402.2" stroke="rgb(0,0,0)"  stroke-width="2.0"/>
<line x1="179.3" y1="396.2" x2="210.8" y2="378.1" stroke="rgb(0,0,0)"  stroke-width="2.0"/>
<line x1="391.5" y1="138.1" x2="391.4" y2="174.5" stroke="rgb(0,0,0)"  stroke-width="2.0"/>
<line x1="384.3" y1="144.1" x2="384.2" y2="168.5" stroke="rgb(0,0,0)"  stroke-width="2.0"/>
<line x1="391.4" y1="174.5" x2="360.0" y2="192.7" stroke="rgb(0,0,0)"  stroke-width="2.0"/>
<line x1="328.5" y1="174.5" x2="328.5" y2="138.1" stroke="rgb(0,0,0)"  stroke-width="2.0"/>
<line x1="328.5" y1="138.1" x2="360.0" y2="119.9" stroke="rgb(0,0,0)"  stroke-width="2.0"/>
<line x1="337.3" y1="141.4" x2="358.4" y2="129.2" stroke="rgb(0,0,0)"  stroke-width="2.0"/>
<line x1="360.0" y1="119.9" x2="391.5" y2="138.1" stroke="rgb(0,0,0)"  stroke-width="2.0"/>
<line x1="432.7" y1="391.5" x2="450.8" y2="360.0" stroke="rgb(0,0,0)"  stroke-width="2.0"/>
<line x1="429.4" y1="382.7" x2="441.6" y2="361.5" stroke="rgb(0,0,0)"  stroke-width="2.0"/>
<line x1="450.8" y1="360.0" x2="432.7" y2="328.4" stroke="rgb(0,0,0)"  stroke-width="2.0"/>
<line x1="432.7" y1="328.4" x2="396.3" y2="328.4" stroke="rgb(0,0,0)"  stroke-width="2.0"/>
<line x1="426.7" y1="335.6" x2="402.3" y2="335.6" stroke="rgb(0,0,0)"  stroke-width="2.0"/>
<line x1="378.1" y1="360.0" x2="396.3" y2="391.5" stroke="rgb(0,0,0)"  stroke-width="2.0"/>
<line x1="387.3" y1="361.5" x2="399.5" y2="382.7" stroke="rgb(0,0,0)"  stroke-width="2.0"/>
<line x1="396.3" y1="391.5" x2="432.7" y2="391.5" stroke="rgb(0,0,0)"  stroke-width="2.0"/>
<line x1="138.1" y1="179.3" x2="174.5" y2="179.3" stroke="rgb(0,0,0)"  stroke-width="2.0"/>
<line x1="174.5" y1="179.3" x2="192.7" y2="210.8" stroke="rgb(0,0,0)"  stroke-width="2.0"/>
<line x1="171.3" y1="188.1" x2="183.4" y2="209.2" stroke="rgb(0,0,0)"  stroke-width="2.0"/>
<line x1="174.5" y1="242.3" x2="138.1" y2="242.3" stroke="rgb(0,0,0)"  stroke-width="2.0"/>
<line x1="168.5" y1="235.1" x2="144.1" y2="235.1" stroke="rgb(0,0,0)"  stroke-width="2.0"/>
<line x1="138.1" y1="242.3" x2="119.9" y2="210.8" stroke="rgb(0,0,0)"  stroke-width="2.0"/>
<line x1="119.9" y1="210.8" x2="138.1" y2="179.3" stroke="rgb(0,0,0)"  stroke-width="2.0"/>
<line x1="129.2" y1="209.2" x2="141.4" y2="188.1" stroke="rgb(0,0,0)"  stroke-width="2.0"/>
<line x1="221.3" y1="338.9" x2="201.8" y2="319.4" stroke="rgb(0,0,0)"  stroke-width="2.0"/>
<line x1="196.1" y1="297.3" x2="203.1" y2="271.0" stroke="rgb(0,0,0)"  stroke-width="2.0"/>
<line x1="203.6" y1="297.2" x2="208.5" y2="278.7" stroke="rgb(0,0,0)"  stroke-width="2.0"/>
<line x1="231.9" y1="221.3" x2="251.1" y2="202.1" stroke="rgb(0,0,0)"  stroke-width="2.0"/>
<line x1="241.2" y1="222.2" x2="254.8" y2="208.6" stroke="rgb(0,0,0)"  stroke-width="2.0"/>
<line x1="273.1" y1="196.0" x2="299.8" y2="203.1" stroke="rgb(0,0,0)"  stroke-width="2.0"/>
<line x1="349.4" y1="231.9" x2="368.9" y2="251.4" stroke="rgb(0,0,0)"  stroke-width="2.0"/>
<line x1="374.6" y1="273.5" x2="367.6" y2="299.7" stroke="rgb(0,0,0)"  stroke-width="2.0"/>
<line x1="367.2" y1="273.5" x2="362.2" y2="292.1" stroke="rgb(0,0,0)"  stroke-width="2.0"/>
<line x1="338.9" y1="349.4" x2="319.7" y2="368.7" stroke="rgb(0,0,0)"  stroke-width="2.0"/>
<line x1="329.6" y1="348.6" x2="315.9" y2="362.2" stroke="rgb(0,0,0)"  stroke-width="2.0"/>
<line x1="297.6" y1="374.8" x2="271.0" y2="367.6" stroke="rgb(0,0,0)"  stroke-width="2.0"/>
<text x="393.965942" y="87.988081" fill="rgb(255,12,12)"  stroke="rgb(255,12,12)" stroke-width="1" font-size="16" >O</text>
<text x="302.019622" y="87.958239" fill="rgb(255,12,12)"  stroke="rgb(255,12,12)" stroke-width="1" font-size="16" >HO</text>
<text x="354.007703" y="48.000000" fill="rgb(255,12,12)"  stroke="rgb(255,12,12)" stroke-width="1" font-size="16" >O</text>
<text x="73.973160" y="218.767102" fill="rgb(178,178,0)"  stroke="rgb(178,178,0)" stroke-width="1" font-size="16" >S</text>
<text x="353.992782" y="87.973160" fill="rgb(178,178,0)"  stroke="rgb(178,178,0)" stroke-width="1" font-size="16" >S</text>
<text x="484.813893" y="327.977553" fill="rgb(255,12,12)"  stroke="rgb(255,12,12)" stroke-width="1" font-size="16" >OH</text>
<text x="524.787056" y="367.950716" fill="rgb(255,12,12)"  stroke="rgb(255,12,12)" stroke-width="1" font-size="16" >O</text>
<text x="484.813893" y="407.923879" fill="rgb(255,12,12)"  stroke="rgb(255,12,12)" stroke-width="1" font-size="16" >O</text>
<text x="484.813893" y="367.950716" fill="rgb(178,178,0)"  stroke="rgb(178,178,0)" stroke-width="1" font-size="16" >S</text>
<text x="420.057394" y="202.499128" fill="rgb(191,191,191)"  stroke="rgb(191,191,191)" stroke-width="1" font-size="16" >H</text>
<text x="254.836348" y="279.181792" fill="rgb(191,191,191)"  stroke="rgb(191,191,191)" stroke-width="1" font-size="16" >H</text>
<text x="303.918573" y="307.559543" fill="rgb(191,191,191)"  stroke="rgb(191,191,191)" stroke-width="1" font-size="16" >H</text>
<text x="188.499128" y="152.702491" fill="rgb(191,191,191)"  stroke="rgb(191,191,191)" stroke-width="1" font-size="16" >H</text>
<text x="112.164933" y="152.673998" fill="rgb(191,191,191)"  stroke="rgb(191,191,191)" stroke-width="1" font-size="16" >H</text>
<text x="112.115581" y="284.888701" fill="rgb(191,191,191)"  stroke="rgb(191,191,191)" stroke-width="1" font-size="16" >H</text>
<text x="370.292223" y="434.069833" fill="rgb(191,191,191)"  stroke="rgb(191,191,191)" stroke-width="1" font-size="16" >H</text>
<text x="446.640003" y="434.069833" fill="rgb(191,191,191)"  stroke="rgb(191,191,191)" stroke-width="1" font-size="16" >H</text>
<text x="446.640003" y="301.831599" fill="rgb(191,191,191)"  stroke="rgb(191,191,191)" stroke-width="1" font-size="16" >H</text>
<text x="420.085887" y="126.164933" fill="rgb(191,191,191)"  stroke="rgb(191,191,191)" stroke-width="1" font-size="16" >H</text>
<text x="287.871184" y="126.115581" fill="rgb(191,191,191)"  stroke="rgb(191,191,191)" stroke-width="1" font-size="16" >H</text>
<text x="270.867650" y="460.670794" fill="rgb(191,191,191)"  stroke="rgb(191,191,191)" stroke-width="1" font-size="16" >H</text>
<text x="138.686450" y="384.224313" fill="rgb(191,191,191)"  stroke="rgb(191,191,191)" stroke-width="1" font-size="16" >H</text>
<text x="138.629453" y="460.572072" fill="rgb(191,191,191)"  stroke="rgb(191,191,191)" stroke-width="1" font-size="16" >H</text>
<text x="73.958239" y="258.740262" fill="rgb(255,12,12)"  stroke="rgb(255,12,12)" stroke-width="1" font-size="16" >OH</text>
<text x="34.000000" y="218.752181" fill="rgb(255,12,12)"  stroke="rgb(255,12,12)" stroke-width="1" font-size="16" >O</text>
<text x="73.988081" y="178.793942" fill="rgb(255,12,12)"  stroke="rgb(255,12,12)" stroke-width="1" font-size="16" >O</text>
<text x="244.693205" y="498.825154" fill="rgb(255,12,12)"  stroke="rgb(255,12,12)" stroke-width="1" font-size="16" >OH</text>
<text x="236.340918" y="268.509925" fill="rgb(12,12,255)"  stroke="rgb(12,12,255)" stroke-width="1" font-size="16" >N</text>
<text x="186.640162" y="318.182454" fill="rgb(12,12,255)"  stroke="rgb(12,12,255)" stroke-width="1" font-size="16" >N</text>
<text x="274.029771" y="302.611590" fill="rgb(191,191,191)"  stroke="rgb(191,191,191)" stroke-width="1" font-size="16" >H</text>
<text x="254.504962" y="336.400417" fill="rgb(12,12,255)"  stroke="rgb(12,12,255)" stroke-width="1" font-size="16" >N</text>
<text x="254.558881" y="200.645125" fill="rgb(12,12,255)"  stroke="rgb(12,12,255)" stroke-width="1" font-size="16" >N</text>
<text x="204.690211" y="538.768464" fill="rgb(255,12,12)"  stroke="rgb(255,12,12)" stroke-width="1" font-size="16" >O</text>
<text x="164.746902" y="498.765470" fill="rgb(255,12,12)"  stroke="rgb(255,12,12)" stroke-width="1" font-size="16" >O</text>
<text x="204.720053" y="498.795312" fill="rgb(178,178,0)"  stroke="rgb(178,178,0)" stroke-width="1" font-size="16" >S</text>
<text x="304.249960" y="250.340918" fill="rgb(12,12,255)"  stroke="rgb(12,12,255)" stroke-width="1" font-size="16" >N</text>
<text x="304.182454" y="386.119723" fill="rgb(12,12,255)"  stroke="rgb(12,12,255)" stroke-width="1" font-size="16" >N</text>
<text x="322.414004" y="318.231410" fill="rgb(12,12,255)"  stroke="rgb(12,12,255)" stroke-width="1" font-size="16" >N</text>
<text x="372.114760" y="268.558881" fill="rgb(12,12,255)"  stroke="rgb(12,12,255)" stroke-width="1" font-size="16" >N</text>
<text x="284.725151" y="284.129746" fill="rgb(191,191,191)"  stroke="rgb(191,191,191)" stroke-width="1" font-size="16" >H</text>
</svg>
</g>
<text font-size="18.000000" fill ="black" font-family="sans-serif"
x="10.000000" y="20.000000" >ZINC98224405</text>
</svg>
