<?xml version="1.0"?>
<svg version="1.1" id="topsvg"
xmlns="http://www.w3.org/2000/svg" xmlns:xlink="http://www.w3.org/1999/xlink"
xmlns:cml="http://www.xml-cml.org/schema" x="0" y="0" width="200px" height="200px" viewBox="0 0 100 100">
<title>ZINC77029766 - Open Babel Depiction</title>
<rect x="0" y="0" width="100" height="100" fill="white"/>
<g transform="translate(0,0)">
<svg width="100" height="100" x="0" y="0" viewBox="0 0 657.41 554.31"
font-family="sans-serif" stroke="rgb(0,0,0)" stroke-width="2"  stroke-linecap="round">
<line x1="79.6" y1="391.1" x2="99.4" y2="356.8" stroke="rgb(0,0,0)"  stroke-width="2.0"/>
<line x1="79.6" y1="391.1" x2="79.6" y2="417.7" stroke="rgb(0,0,0)"  stroke-width="2.0"/>
<line x1="79.6" y1="391.1" x2="102.6" y2="404.4" stroke="rgb(0,0,0)"  stroke-width="2.0"/>
<line x1="79.6" y1="391.1" x2="53.0" y2="391.1" stroke="rgb(0,0,0)"  stroke-width="2.0"/>
<line x1="79.6" y1="322.5" x2="53.0" y2="322.5" stroke="rgb(0,0,0)"  stroke-width="2.0"/>
<line x1="99.4" y1="288.2" x2="86.1" y2="265.2" stroke="rgb(0,0,0)"  stroke-width="2.0"/>
<line x1="139.0" y1="356.8" x2="152.3" y2="379.8" stroke="rgb(0,0,0)"  stroke-width="2.0"/>
<line x1="201.6" y1="274.9" x2="235.9" y2="255.1" stroke="rgb(0,0,0)"  stroke-width="2.0"/>
<line x1="162.8" y1="246.1" x2="159.9" y2="232.8" stroke="rgb(0,0,0)"  stroke-width="2.0"/>
<line x1="235.9" y1="255.1" x2="235.9" y2="228.6" stroke="rgb(0,0,0)"  stroke-width="2.0"/>
<line x1="235.9" y1="255.1" x2="262.5" y2="255.1" stroke="rgb(0,0,0)"  stroke-width="2.0"/>
<line x1="235.9" y1="255.1" x2="249.2" y2="278.2" stroke="rgb(0,0,0)"  stroke-width="2.0"/>
<line x1="248.9" y1="215.6" x2="275.5" y2="215.6" stroke="rgb(0,0,0)"  stroke-width="2.0"/>
<line x1="235.9" y1="202.6" x2="235.9" y2="176.0" stroke="rgb(0,0,0)"  stroke-width="2.0"/>
<line x1="222.9" y1="215.6" x2="209.3" y2="215.6" stroke="rgb(0,0,0)"  stroke-width="2.0"/>
<line x1="275.5" y1="215.6" x2="315.1" y2="284.1" stroke="rgb(0,0,0)"  stroke-width="2.0"/>
<line x1="275.5" y1="215.6" x2="298.5" y2="202.3" stroke="rgb(0,0,0)"  stroke-width="2.0"/>
<line x1="275.5" y1="215.6" x2="275.5" y2="189.0" stroke="rgb(0,0,0)"  stroke-width="2.0"/>
<line x1="315.1" y1="284.1" x2="341.7" y2="284.1" stroke="rgb(0,0,0)"  stroke-width="2.0"/>
<line x1="315.1" y1="284.1" x2="315.1" y2="310.7" stroke="rgb(0,0,0)"  stroke-width="2.0"/>
<line x1="315.1" y1="284.1" x2="292.1" y2="297.4" stroke="rgb(0,0,0)"  stroke-width="2.0"/>
<line x1="361.2" y1="295.4" x2="374.5" y2="318.4" stroke="rgb(0,0,0)"  stroke-width="2.0"/>
<line x1="361.2" y1="272.9" x2="374.5" y2="249.8" stroke="rgb(0,0,0)"  stroke-width="2.0"/>
<line x1="374.5" y1="318.4" x2="354.7" y2="352.7" stroke="rgb(0,0,0)"  stroke-width="2.0"/>
<line x1="374.5" y1="318.4" x2="397.5" y2="331.7" stroke="rgb(0,0,0)"  stroke-width="2.0"/>
<line x1="374.5" y1="318.4" x2="397.5" y2="305.1" stroke="rgb(0,0,0)"  stroke-width="2.0"/>
<line x1="383.5" y1="391.6" x2="396.8" y2="394.4" stroke="rgb(0,0,0)"  stroke-width="2.0"/>
<line x1="341.4" y1="454.9" x2="364.4" y2="468.2" stroke="rgb(0,0,0)"  stroke-width="2.0"/>
<line x1="307.1" y1="474.7" x2="307.1" y2="501.3" stroke="rgb(0,0,0)"  stroke-width="2.0"/>
<line x1="272.8" y1="454.9" x2="238.5" y2="474.7" stroke="rgb(0,0,0)"  stroke-width="2.0"/>
<line x1="272.8" y1="415.3" x2="249.8" y2="402.0" stroke="rgb(0,0,0)"  stroke-width="2.0"/>
<line x1="238.5" y1="474.7" x2="211.9" y2="474.7" stroke="rgb(0,0,0)"  stroke-width="2.0"/>
<line x1="238.5" y1="474.7" x2="225.2" y2="451.7" stroke="rgb(0,0,0)"  stroke-width="2.0"/>
<line x1="238.5" y1="474.7" x2="238.5" y2="501.3" stroke="rgb(0,0,0)"  stroke-width="2.0"/>
<line x1="374.5" y1="249.8" x2="414.1" y2="249.8" stroke="rgb(0,0,0)"  stroke-width="2.0"/>
<line x1="374.5" y1="249.8" x2="374.5" y2="223.2" stroke="rgb(0,0,0)"  stroke-width="2.0"/>
<line x1="374.5" y1="249.8" x2="351.4" y2="236.5" stroke="rgb(0,0,0)"  stroke-width="2.0"/>
<line x1="433.3" y1="294.2" x2="429.1" y2="307.1" stroke="rgb(0,0,0)"  stroke-width="2.0"/>
<line x1="509.3" y1="289.4" x2="509.3" y2="316.0" stroke="rgb(0,0,0)"  stroke-width="2.0"/>
<line x1="543.5" y1="269.6" x2="566.6" y2="282.9" stroke="rgb(0,0,0)"  stroke-width="2.0"/>
<line x1="543.5" y1="230.0" x2="577.8" y2="210.2" stroke="rgb(0,0,0)"  stroke-width="2.0"/>
<line x1="509.3" y1="210.2" x2="509.3" y2="183.7" stroke="rgb(0,0,0)"  stroke-width="2.0"/>
<line x1="577.8" y1="210.2" x2="604.4" y2="210.2" stroke="rgb(0,0,0)"  stroke-width="2.0"/>
<line x1="577.8" y1="210.2" x2="591.1" y2="233.3" stroke="rgb(0,0,0)"  stroke-width="2.0"/>
<line x1="577.8" y1="210.2" x2="577.8" y2="183.7" stroke="rgb(0,0,0)"  stroke-width="2.0"/>
<line x1="235.9" y1="176.0" x2="270.2" y2="156.2" stroke="rgb(0,0,0)"  stroke-width="2.0"/>
<line x1="235.9" y1="176.0" x2="222.6" y2="152.9" stroke="rgb(0,0,0)"  stroke-width="2.0"/>
<line x1="235.9" y1="176.0" x2="209.3" y2="176.0" stroke="rgb(0,0,0)"  stroke-width="2.0"/>
<line x1="264.7" y1="108.1" x2="254.6" y2="99.0" stroke="rgb(0,0,0)"  stroke-width="2.0"/>
<line x1="332.8" y1="74.3" x2="319.6" y2="51.3" stroke="rgb(0,0,0)"  stroke-width="2.0"/>
<line x1="372.4" y1="74.3" x2="385.7" y2="51.3" stroke="rgb(0,0,0)"  stroke-width="2.0"/>
<line x1="392.2" y1="108.6" x2="431.8" y2="108.6" stroke="rgb(0,0,0)"  stroke-width="2.0"/>
<line x1="372.4" y1="142.9" x2="385.7" y2="165.9" stroke="rgb(0,0,0)"  stroke-width="2.0"/>
<line x1="431.8" y1="108.6" x2="454.8" y2="121.9" stroke="rgb(0,0,0)"  stroke-width="2.0"/>
<line x1="431.8" y1="108.6" x2="431.8" y2="135.2" stroke="rgb(0,0,0)"  stroke-width="2.0"/>
<line x1="431.8" y1="108.6" x2="445.1" y2="85.5" stroke="rgb(0,0,0)"  stroke-width="2.0"/>
<line x1="201.6" y1="274.9" x2="198.9" y2="301.3" stroke="rgb(0,0,0)"  stroke-width="2.0"/>
<line x1="193.8" y1="280.1" x2="191.9" y2="298.5" stroke="rgb(0,0,0)"  stroke-width="2.0"/>
<line x1="184.8" y1="317.0" x2="158.8" y2="322.5" stroke="rgb(0,0,0)"  stroke-width="2.0"/>
<line x1="158.8" y1="322.5" x2="139.0" y2="288.2" stroke="rgb(0,0,0)"  stroke-width="2.0"/>
<line x1="162.0" y1="313.7" x2="148.2" y2="289.8" stroke="rgb(0,0,0)"  stroke-width="2.0"/>
<line x1="139.0" y1="288.2" x2="156.8" y2="268.5" stroke="rgb(0,0,0)"  stroke-width="2.0"/>
<line x1="177.3" y1="264.1" x2="201.6" y2="274.9" stroke="rgb(0,0,0)"  stroke-width="2.0"/>
<line x1="341.4" y1="415.3" x2="307.1" y2="395.5" stroke="rgb(0,0,0)"  stroke-width="2.0"/>
<line x1="339.8" y1="406.1" x2="315.9" y2="392.3" stroke="rgb(0,0,0)"  stroke-width="2.0"/>
<line x1="307.1" y1="395.5" x2="312.6" y2="369.5" stroke="rgb(0,0,0)"  stroke-width="2.0"/>
<line x1="328.3" y1="355.5" x2="354.7" y2="352.7" stroke="rgb(0,0,0)"  stroke-width="2.0"/>
<line x1="331.1" y1="362.4" x2="349.5" y2="360.5" stroke="rgb(0,0,0)"  stroke-width="2.0"/>
<line x1="354.7" y1="352.7" x2="365.5" y2="377.0" stroke="rgb(0,0,0)"  stroke-width="2.0"/>
<line x1="361.1" y1="397.6" x2="341.4" y2="415.3" stroke="rgb(0,0,0)"  stroke-width="2.0"/>
<line x1="475.0" y1="269.6" x2="475.0" y2="230.0" stroke="rgb(0,0,0)"  stroke-width="2.0"/>
<line x1="467.8" y1="263.6" x2="467.8" y2="236.0" stroke="rgb(0,0,0)"  stroke-width="2.0"/>
<line x1="475.0" y1="230.0" x2="449.7" y2="221.8" stroke="rgb(0,0,0)"  stroke-width="2.0"/>
<line x1="429.6" y1="228.4" x2="414.1" y2="249.8" stroke="rgb(0,0,0)"  stroke-width="2.0"/>
<line x1="434.3" y1="234.3" x2="423.4" y2="249.2" stroke="rgb(0,0,0)"  stroke-width="2.0"/>
<line x1="414.1" y1="249.8" x2="429.7" y2="271.3" stroke="rgb(0,0,0)"  stroke-width="2.0"/>
<line x1="449.7" y1="277.8" x2="475.0" y2="269.6" stroke="rgb(0,0,0)"  stroke-width="2.0"/>
<line x1="313.1" y1="108.6" x2="332.8" y2="142.9" stroke="rgb(0,0,0)"  stroke-width="2.0"/>
<line x1="309.8" y1="117.4" x2="323.6" y2="141.3" stroke="rgb(0,0,0)"  stroke-width="2.0"/>
<line x1="332.8" y1="142.9" x2="315.1" y2="162.6" stroke="rgb(0,0,0)"  stroke-width="2.0"/>
<line x1="294.4" y1="167.0" x2="270.2" y2="156.2" stroke="rgb(0,0,0)"  stroke-width="2.0"/>
<line x1="295.5" y1="159.5" x2="278.6" y2="152.0" stroke="rgb(0,0,0)"  stroke-width="2.0"/>
<line x1="270.2" y1="156.2" x2="273.0" y2="129.7" stroke="rgb(0,0,0)"  stroke-width="2.0"/>
<line x1="287.0" y1="114.1" x2="313.1" y2="108.6" stroke="rgb(0,0,0)"  stroke-width="2.0"/>
<line x1="99.4" y1="288.2" x2="139.0" y2="288.2" stroke="rgb(0,0,0)"  stroke-width="2.0"/>
<line x1="158.8" y1="322.5" x2="139.0" y2="356.8" stroke="rgb(0,0,0)"  stroke-width="2.0"/>
<line x1="139.0" y1="356.8" x2="99.4" y2="356.8" stroke="rgb(0,0,0)"  stroke-width="2.0"/>
<line x1="133.0" y1="349.6" x2="105.4" y2="349.6" stroke="rgb(0,0,0)"  stroke-width="2.0"/>
<line x1="99.4" y1="356.8" x2="79.6" y2="322.5" stroke="rgb(0,0,0)"  stroke-width="2.0"/>
<line x1="79.6" y1="322.5" x2="99.4" y2="288.2" stroke="rgb(0,0,0)"  stroke-width="2.0"/>
<line x1="88.8" y1="320.9" x2="102.6" y2="297.0" stroke="rgb(0,0,0)"  stroke-width="2.0"/>
<line x1="272.8" y1="454.9" x2="272.8" y2="415.3" stroke="rgb(0,0,0)"  stroke-width="2.0"/>
<line x1="280.0" y1="448.9" x2="280.0" y2="421.3" stroke="rgb(0,0,0)"  stroke-width="2.0"/>
<line x1="272.8" y1="415.3" x2="307.1" y2="395.5" stroke="rgb(0,0,0)"  stroke-width="2.0"/>
<line x1="341.4" y1="415.3" x2="341.4" y2="454.9" stroke="rgb(0,0,0)"  stroke-width="2.0"/>
<line x1="341.4" y1="454.9" x2="307.1" y2="474.7" stroke="rgb(0,0,0)"  stroke-width="2.0"/>
<line x1="332.6" y1="451.7" x2="308.7" y2="465.5" stroke="rgb(0,0,0)"  stroke-width="2.0"/>
<line x1="307.1" y1="474.7" x2="272.8" y2="454.9" stroke="rgb(0,0,0)"  stroke-width="2.0"/>
<line x1="543.5" y1="230.0" x2="509.3" y2="210.2" stroke="rgb(0,0,0)"  stroke-width="2.0"/>
<line x1="534.7" y1="233.3" x2="510.9" y2="219.5" stroke="rgb(0,0,0)"  stroke-width="2.0"/>
<line x1="509.3" y1="210.2" x2="475.0" y2="230.0" stroke="rgb(0,0,0)"  stroke-width="2.0"/>
<line x1="475.0" y1="269.6" x2="509.3" y2="289.4" stroke="rgb(0,0,0)"  stroke-width="2.0"/>
<line x1="509.3" y1="289.4" x2="543.5" y2="269.6" stroke="rgb(0,0,0)"  stroke-width="2.0"/>
<line x1="510.9" y1="280.2" x2="534.7" y2="266.4" stroke="rgb(0,0,0)"  stroke-width="2.0"/>
<line x1="543.5" y1="269.6" x2="543.5" y2="230.0" stroke="rgb(0,0,0)"  stroke-width="2.0"/>
<line x1="392.2" y1="108.6" x2="372.4" y2="142.9" stroke="rgb(0,0,0)"  stroke-width="2.0"/>
<line x1="383.0" y1="110.2" x2="369.2" y2="134.1" stroke="rgb(0,0,0)"  stroke-width="2.0"/>
<line x1="372.4" y1="142.9" x2="332.8" y2="142.9" stroke="rgb(0,0,0)"  stroke-width="2.0"/>
<line x1="313.1" y1="108.6" x2="332.8" y2="74.3" stroke="rgb(0,0,0)"  stroke-width="2.0"/>
<line x1="332.8" y1="74.3" x2="372.4" y2="74.3" stroke="rgb(0,0,0)"  stroke-width="2.0"/>
<line x1="338.8" y1="81.5" x2="366.4" y2="81.5" stroke="rgb(0,0,0)"  stroke-width="2.0"/>
<line x1="372.4" y1="74.3" x2="392.2" y2="108.6" stroke="rgb(0,0,0)"  stroke-width="2.0"/>
<text x="73.587629" y="261.965876" fill="rgb(191,191,191)"  stroke="rgb(191,191,191)" stroke-width="1" font-size="16" >H</text>
<text x="301.068749" y="522.309756" fill="rgb(191,191,191)"  stroke="rgb(191,191,191)" stroke-width="1" font-size="16" >H</text>
<text x="369.636534" y="482.722127" fill="rgb(191,191,191)"  stroke="rgb(191,191,191)" stroke-width="1" font-size="16" >H</text>
<text x="402.747950" y="306.608585" fill="rgb(191,191,191)"  stroke="rgb(191,191,191)" stroke-width="1" font-size="16" >H</text>
<text x="402.747950" y="346.196214" fill="rgb(191,191,191)"  stroke="rgb(191,191,191)" stroke-width="1" font-size="16" >H</text>
<text x="274.798723" y="311.912321" fill="rgb(191,191,191)"  stroke="rgb(191,191,191)" stroke-width="1" font-size="16" >H</text>
<text x="309.082615" y="331.706136" fill="rgb(191,191,191)"  stroke="rgb(191,191,191)" stroke-width="1" font-size="16" >H</text>
<text x="269.494986" y="183.963094" fill="rgb(191,191,191)"  stroke="rgb(191,191,191)" stroke-width="1" font-size="16" >H</text>
<text x="303.778878" y="203.756908" fill="rgb(191,191,191)"  stroke="rgb(191,191,191)" stroke-width="1" font-size="16" >H</text>
<text x="249.701172" y="297.422244" fill="rgb(191,191,191)"  stroke="rgb(191,191,191)" stroke-width="1" font-size="16" >H</text>
<text x="269.494986" y="263.138351" fill="rgb(191,191,191)"  stroke="rgb(191,191,191)" stroke-width="1" font-size="16" >H</text>
<text x="152.762887" y="399.101445" fill="rgb(191,191,191)"  stroke="rgb(191,191,191)" stroke-width="1" font-size="16" >H</text>
<text x="232.500965" y="403.546870" fill="rgb(191,191,191)"  stroke="rgb(191,191,191)" stroke-width="1" font-size="16" >H</text>
<text x="34.000000" y="330.533660" fill="rgb(191,191,191)"  stroke="rgb(191,191,191)" stroke-width="1" font-size="16" >H</text>
<text x="34.000000" y="399.101445" fill="rgb(191,191,191)"  stroke="rgb(191,191,191)" stroke-width="1" font-size="16" >H</text>
<text x="107.871521" y="418.895259" fill="rgb(191,191,191)"  stroke="rgb(191,191,191)" stroke-width="1" font-size="16" >H</text>
<text x="73.587629" y="438.689074" fill="rgb(191,191,191)"  stroke="rgb(191,191,191)" stroke-width="1" font-size="16" >H</text>
<text x="300.356348" y="180.271018" fill="rgb(12,12,255)"  stroke="rgb(12,12,255)" stroke-width="1" font-size="16" >N</text>
<text x="571.822461" y="178.659357" fill="rgb(191,191,191)"  stroke="rgb(191,191,191)" stroke-width="1" font-size="16" >H</text>
<text x="403.494527" y="405.082121" fill="rgb(191,191,191)"  stroke="rgb(191,191,191)" stroke-width="1" font-size="16" >H</text>
<text x="190.319728" y="223.550722" fill="rgb(191,191,191)"  stroke="rgb(191,191,191)" stroke-width="1" font-size="16" >H</text>
<text x="445.608529" y="82.283892" fill="rgb(191,191,191)"  stroke="rgb(191,191,191)" stroke-width="1" font-size="16" >H</text>
<text x="425.814714" y="156.155413" fill="rgb(191,191,191)"  stroke="rgb(191,191,191)" stroke-width="1" font-size="16" >H</text>
<text x="460.098606" y="136.361599" fill="rgb(191,191,191)"  stroke="rgb(191,191,191)" stroke-width="1" font-size="16" >H</text>
<text x="386.227085" y="185.135569" fill="rgb(191,191,191)"  stroke="rgb(191,191,191)" stroke-width="1" font-size="16" >H</text>
<text x="386.227085" y="48.000000" fill="rgb(191,191,191)"  stroke="rgb(191,191,191)" stroke-width="1" font-size="16" >H</text>
<text x="307.051828" y="48.000000" fill="rgb(191,191,191)"  stroke="rgb(191,191,191)" stroke-width="1" font-size="16" >H</text>
<text x="190.319728" y="183.963094" fill="rgb(191,191,191)"  stroke="rgb(191,191,191)" stroke-width="1" font-size="16" >H</text>
<text x="210.113543" y="149.679201" fill="rgb(191,191,191)"  stroke="rgb(191,191,191)" stroke-width="1" font-size="16" >H</text>
<text x="591.616275" y="252.530878" fill="rgb(191,191,191)"  stroke="rgb(191,191,191)" stroke-width="1" font-size="16" >H</text>
<text x="611.410089" y="218.246986" fill="rgb(191,191,191)"  stroke="rgb(191,191,191)" stroke-width="1" font-size="16" >H</text>
<text x="503.254676" y="178.659357" fill="rgb(191,191,191)"  stroke="rgb(191,191,191)" stroke-width="1" font-size="16" >H</text>
<text x="571.822461" y="297.422244" fill="rgb(191,191,191)"  stroke="rgb(191,191,191)" stroke-width="1" font-size="16" >H</text>
<text x="503.254676" y="337.009872" fill="rgb(191,191,191)"  stroke="rgb(191,191,191)" stroke-width="1" font-size="16" >H</text>
<text x="334.180166" y="238.040800" fill="rgb(191,191,191)"  stroke="rgb(191,191,191)" stroke-width="1" font-size="16" >H</text>
<text x="368.464058" y="218.246986" fill="rgb(191,191,191)"  stroke="rgb(191,191,191)" stroke-width="1" font-size="16" >H</text>
<text x="232.500965" y="522.309756" fill="rgb(191,191,191)"  stroke="rgb(191,191,191)" stroke-width="1" font-size="16" >H</text>
<text x="212.707150" y="448.438235" fill="rgb(191,191,191)"  stroke="rgb(191,191,191)" stroke-width="1" font-size="16" >H</text>
<text x="192.913336" y="482.722127" fill="rgb(191,191,191)"  stroke="rgb(191,191,191)" stroke-width="1" font-size="16" >H</text>
<text x="364.771983" y="396.851390" fill="rgb(12,12,255)"  stroke="rgb(12,12,255)" stroke-width="1" font-size="16" >N</text>
<text x="348.670244" y="292.118507" fill="rgb(12,12,255)"  stroke="rgb(12,12,255)" stroke-width="1" font-size="16" >N</text>
<text x="240.707357" y="211.518722" fill="rgb(12,12,255)"  stroke="rgb(12,12,255)" stroke-width="1" font-size="16" >+</text>
<text x="229.907357" y="223.550722" fill="rgb(12,12,255)"  stroke="rgb(12,12,255)" stroke-width="1" font-size="16" >N</text>
<text x="151.227635" y="228.107882" fill="rgb(191,191,191)"  stroke="rgb(191,191,191)" stroke-width="1" font-size="16" >H</text>
<text x="159.458366" y="266.830426" fill="rgb(12,12,255)"  stroke="rgb(12,12,255)" stroke-width="1" font-size="16" >N</text>
<text x="191.485431" y="322.302929" fill="rgb(12,12,255)"  stroke="rgb(12,12,255)" stroke-width="1" font-size="16" >N</text>
<text x="238.909942" y="98.309221" fill="rgb(191,191,191)"  stroke="rgb(191,191,191)" stroke-width="1" font-size="16" >H</text>
<text x="268.329283" y="124.798515" fill="rgb(12,12,255)"  stroke="rgb(12,12,255)" stroke-width="1" font-size="16" >N</text>
<text x="431.320711" y="225.807550" fill="rgb(12,12,255)"  stroke="rgb(12,12,255)" stroke-width="1" font-size="16" >N</text>
<text x="419.087461" y="327.511752" fill="rgb(191,191,191)"  stroke="rgb(191,191,191)" stroke-width="1" font-size="16" >H</text>
<text x="431.320711" y="289.861679" fill="rgb(12,12,255)"  stroke="rgb(12,12,255)" stroke-width="1" font-size="16" >N</text>
<text x="309.299480" y="364.824325" fill="rgb(12,12,255)"  stroke="rgb(12,12,255)" stroke-width="1" font-size="16" >N</text>
</svg>
</g>
<text font-size="18.000000" fill ="black" font-family="sans-serif"
x="10.000000" y="20.000000" >ZINC77029766</text>
</svg>
