<?xml version="1.0"?>
<svg version="1.1" id="topsvg"
xmlns="http://www.w3.org/2000/svg" xmlns:xlink="http://www.w3.org/1999/xlink"
xmlns:cml="http://www.xml-cml.org/schema" x="0" y="0" width="200px" height="200px" viewBox="0 0 100 100">
<title>ZINC85537042 - Open Babel Depiction</title>
<rect x="0" y="0" width="100" height="100" fill="white"/>
<g transform="translate(0,0)">
<svg width="100" height="100" x="0" y="0" viewBox="0 0 680.557 488.111"
font-family="sans-serif" stroke="rgb(0,0,0)" stroke-width="2"  stroke-linecap="round">
<line x1="419.7" y1="299.4" x2="392.6" y2="272.3" stroke="rgb(0,0,0)"  stroke-width="2.0"/>
<line x1="419.7" y1="299.4" x2="444.2" y2="306.0" stroke="rgb(0,0,0)"  stroke-width="2.0"/>
<line x1="419.7" y1="299.4" x2="437.6" y2="281.5" stroke="rgb(0,0,0)"  stroke-width="2.0"/>
<line x1="419.7" y1="299.4" x2="413.2" y2="323.9" stroke="rgb(0,0,0)"  stroke-width="2.0"/>
<line x1="392.6" y1="272.3" x2="369.2" y2="282.0" stroke="rgb(0,0,0)"  stroke-width="2.0"/>
<line x1="398.9" y1="267.8" x2="399.7" y2="269.2" stroke="rgb(0,0,0)"  stroke-width="1.0"/>
<line x1="403.8" y1="264.2" x2="405.3" y2="266.7" stroke="rgb(0,0,0)"  stroke-width="1.0"/>
<line x1="408.8" y1="260.6" x2="410.9" y2="264.2" stroke="rgb(0,0,0)"  stroke-width="1.0"/>
<line x1="413.8" y1="257.0" x2="416.5" y2="261.7" stroke="rgb(0,0,0)"  stroke-width="1.0"/>
<line x1="418.8" y1="253.3" x2="422.2" y2="259.2" stroke="rgb(0,0,0)"  stroke-width="1.0"/>
<line x1="423.8" y1="249.7" x2="427.8" y2="256.7" stroke="rgb(0,0,0)"  stroke-width="1.0"/>
<line x1="425.8" y1="253.2" x2="438.5" y2="275.1" stroke="rgb(0,0,0)"  stroke-width="2.0"/>
<polygon points="425.801143 253.189131 421.801143 214.873341 429.801143 214.873341 " stroke-width="2.000000" fill="rgb(0,0,0)"  stroke="rgb(0,0,0)" />
<line x1="425.8" y1="253.2" x2="489.4" y2="253.2" stroke="rgb(0,0,0)"  stroke-width="2.0"/>
<line x1="425.8" y1="214.9" x2="451.1" y2="214.9" stroke="rgb(0,0,0)"  stroke-width="2.0"/>
<line x1="418.8" y1="211.7" x2="419.6" y2="210.3" stroke="rgb(0,0,0)"  stroke-width="1.0"/>
<line x1="413.1" y1="209.2" x2="414.6" y2="206.7" stroke="rgb(0,0,0)"  stroke-width="1.0"/>
<line x1="407.5" y1="206.7" x2="409.6" y2="203.1" stroke="rgb(0,0,0)"  stroke-width="1.0"/>
<line x1="401.9" y1="204.2" x2="404.6" y2="199.5" stroke="rgb(0,0,0)"  stroke-width="1.0"/>
<line x1="396.2" y1="201.7" x2="399.6" y2="195.9" stroke="rgb(0,0,0)"  stroke-width="1.0"/>
<line x1="390.6" y1="199.2" x2="394.6" y2="192.3" stroke="rgb(0,0,0)"  stroke-width="1.0"/>
<line x1="425.8" y1="214.9" x2="438.5" y2="192.9" stroke="rgb(0,0,0)"  stroke-width="2.0"/>
<line x1="392.6" y1="195.7" x2="405.3" y2="173.8" stroke="rgb(0,0,0)"  stroke-width="2.0"/>
<polygon points="392.618696 195.715446 361.436249 218.337443 357.436249 211.409240 " stroke-width="2.000000" fill="rgb(0,0,0)"  stroke="rgb(0,0,0)" />
<line x1="392.6" y1="195.7" x2="380.0" y2="173.8" stroke="rgb(0,0,0)"  stroke-width="2.0"/>
<polygon points="359.436249 214.873341 343.136358 194.641102 350.064561 190.641102 " stroke-width="2.000000" fill="rgb(0,0,0)"  stroke="rgb(0,0,0)" />
<line x1="359.4" y1="214.9" x2="334.1" y2="214.9" stroke="rgb(0,0,0)"  stroke-width="2.0"/>
<line x1="314.6" y1="203.6" x2="302.0" y2="181.7" stroke="rgb(0,0,0)"  stroke-width="2.0"/>
<line x1="302.0" y1="181.7" x2="340.7" y2="131.2" stroke="rgb(0,0,0)"  stroke-width="2.0"/>
<line x1="299.2" y1="174.5" x2="300.8" y2="174.1" stroke="rgb(0,0,0)"  stroke-width="1.0"/>
<line x1="297.0" y1="168.7" x2="299.8" y2="168.0" stroke="rgb(0,0,0)"  stroke-width="1.0"/>
<line x1="294.8" y1="163.0" x2="298.8" y2="161.9" stroke="rgb(0,0,0)"  stroke-width="1.0"/>
<line x1="292.6" y1="157.2" x2="297.8" y2="155.8" stroke="rgb(0,0,0)"  stroke-width="1.0"/>
<line x1="290.4" y1="151.5" x2="296.9" y2="149.7" stroke="rgb(0,0,0)"  stroke-width="1.0"/>
<line x1="288.2" y1="145.7" x2="295.9" y2="143.6" stroke="rgb(0,0,0)"  stroke-width="1.0"/>
<polygon points="274.869210 208.784249 299.134138 178.862467 304.790992 184.519321 " stroke-width="2.000000" fill="rgb(0,0,0)"  stroke="rgb(0,0,0)" />
<line x1="274.9" y1="208.8" x2="292.8" y2="226.7" stroke="rgb(0,0,0)"  stroke-width="2.0"/>
<line x1="274.9" y1="208.8" x2="265.0" y2="245.8" stroke="rgb(0,0,0)"  stroke-width="2.0"/>
<line x1="227.9" y1="161.9" x2="203.5" y2="168.4" stroke="rgb(0,0,0)"  stroke-width="2.0"/>
<polygon points="227.942143 161.857182 252.207071 131.935400 257.863925 137.592255 " stroke-width="2.000000" fill="rgb(0,0,0)"  stroke="rgb(0,0,0)" />
<line x1="227.9" y1="161.9" x2="210.0" y2="144.0" stroke="rgb(0,0,0)"  stroke-width="2.0"/>
<line x1="255.0" y1="134.8" x2="237.1" y2="116.9" stroke="rgb(0,0,0)"  stroke-width="2.0"/>
<polygon points="255.035498 134.763828 293.080985 140.816980 291.010432 148.544387 " stroke-width="2.000000" fill="rgb(0,0,0)"  stroke="rgb(0,0,0)" />
<line x1="255.0" y1="134.8" x2="261.6" y2="110.3" stroke="rgb(0,0,0)"  stroke-width="2.0"/>
<line x1="292.6" y1="139.5" x2="294.1" y2="139.9" stroke="rgb(0,0,0)"  stroke-width="1.0"/>
<line x1="293.0" y1="135.4" x2="295.8" y2="136.1" stroke="rgb(0,0,0)"  stroke-width="1.0"/>
<line x1="293.5" y1="131.2" x2="297.5" y2="132.3" stroke="rgb(0,0,0)"  stroke-width="1.0"/>
<line x1="293.9" y1="127.1" x2="299.2" y2="128.5" stroke="rgb(0,0,0)"  stroke-width="1.0"/>
<line x1="294.4" y1="123.0" x2="300.9" y2="124.7" stroke="rgb(0,0,0)"  stroke-width="1.0"/>
<line x1="294.8" y1="118.8" x2="302.6" y2="120.9" stroke="rgb(0,0,0)"  stroke-width="1.0"/>
<line x1="292.0" y1="144.7" x2="316.5" y2="138.1" stroke="rgb(0,0,0)"  stroke-width="2.0"/>
<line x1="332.4" y1="122.2" x2="335.6" y2="110.3" stroke="rgb(0,0,0)"  stroke-width="2.0"/>
<line x1="255.8" y1="88.6" x2="247.1" y2="79.9" stroke="rgb(0,0,0)"  stroke-width="2.0"/>
<line x1="188.3" y1="138.1" x2="163.8" y2="144.7" stroke="rgb(0,0,0)"  stroke-width="2.0"/>
<line x1="163.8" y1="144.7" x2="155.5" y2="207.8" stroke="rgb(0,0,0)"  stroke-width="2.0"/>
<polygon points="163.838578 144.680684 132.656131 167.302680 128.656131 160.374477 " stroke-width="2.000000" fill="rgb(0,0,0)"  stroke="rgb(0,0,0)" />
<line x1="164.6" y1="114.0" x2="163.0" y2="114.0" stroke="rgb(0,0,0)"  stroke-width="1.0"/>
<line x1="165.3" y1="120.2" x2="162.4" y2="120.2" stroke="rgb(0,0,0)"  stroke-width="1.0"/>
<line x1="165.9" y1="126.3" x2="161.8" y2="126.3" stroke="rgb(0,0,0)"  stroke-width="1.0"/>
<line x1="166.6" y1="132.4" x2="161.1" y2="132.4" stroke="rgb(0,0,0)"  stroke-width="1.0"/>
<line x1="167.2" y1="138.6" x2="160.5" y2="138.6" stroke="rgb(0,0,0)"  stroke-width="1.0"/>
<line x1="167.8" y1="144.7" x2="159.8" y2="144.7" stroke="rgb(0,0,0)"  stroke-width="1.0"/>
<line x1="163.8" y1="106.4" x2="189.2" y2="106.4" stroke="rgb(0,0,0)"  stroke-width="2.0"/>
<line x1="163.8" y1="106.4" x2="183.0" y2="73.2" stroke="rgb(0,0,0)"  stroke-width="2.0"/>
<line x1="97.5" y1="106.4" x2="84.8" y2="84.4" stroke="rgb(0,0,0)"  stroke-width="2.0"/>
<polygon points="97.473684 106.364894 101.473684 144.680684 93.473684 144.680684 " stroke-width="2.000000" fill="rgb(0,0,0)"  stroke="rgb(0,0,0)" />
<line x1="97.5" y1="106.4" x2="72.2" y2="106.4" stroke="rgb(0,0,0)"  stroke-width="2.0"/>
<line x1="97.5" y1="144.7" x2="72.2" y2="144.7" stroke="rgb(0,0,0)"  stroke-width="2.0"/>
<line x1="104.5" y1="147.8" x2="103.7" y2="149.2" stroke="rgb(0,0,0)"  stroke-width="1.0"/>
<line x1="110.1" y1="150.3" x2="108.7" y2="152.8" stroke="rgb(0,0,0)"  stroke-width="1.0"/>
<line x1="115.8" y1="152.8" x2="113.7" y2="156.4" stroke="rgb(0,0,0)"  stroke-width="1.0"/>
<line x1="121.4" y1="155.4" x2="118.7" y2="160.1" stroke="rgb(0,0,0)"  stroke-width="1.0"/>
<line x1="127.0" y1="157.9" x2="123.7" y2="163.7" stroke="rgb(0,0,0)"  stroke-width="1.0"/>
<line x1="132.7" y1="160.4" x2="128.7" y2="167.3" stroke="rgb(0,0,0)"  stroke-width="1.0"/>
<line x1="97.5" y1="144.7" x2="84.8" y2="166.6" stroke="rgb(0,0,0)"  stroke-width="2.0"/>
<polygon points="130.656131 163.838578 121.284443 188.070818 114.356240 184.070818 " stroke-width="2.000000" fill="rgb(0,0,0)"  stroke="rgb(0,0,0)" />
<line x1="130.7" y1="163.8" x2="143.3" y2="185.8" stroke="rgb(0,0,0)"  stroke-width="2.0"/>
<line x1="143.3" y1="208.3" x2="137.2" y2="218.9" stroke="rgb(0,0,0)"  stroke-width="2.0"/>
<line x1="65.3" y1="177.9" x2="53.0" y2="177.9" stroke="rgb(0,0,0)"  stroke-width="2.0"/>
<line x1="52.7" y1="117.6" x2="46.5" y2="128.3" stroke="rgb(0,0,0)"  stroke-width="2.0"/>
<line x1="183.0" y1="73.2" x2="170.3" y2="51.3" stroke="rgb(0,0,0)"  stroke-width="2.0"/>
<line x1="183.0" y1="73.2" x2="204.9" y2="60.5" stroke="rgb(0,0,0)"  stroke-width="2.0"/>
<line x1="183.0" y1="73.2" x2="204.9" y2="85.8" stroke="rgb(0,0,0)"  stroke-width="2.0"/>
<line x1="150.8" y1="40.0" x2="138.5" y2="40.0" stroke="rgb(0,0,0)"  stroke-width="2.0"/>
<line x1="265.0" y1="245.8" x2="282.9" y2="263.7" stroke="rgb(0,0,0)"  stroke-width="2.0"/>
<line x1="265.0" y1="245.8" x2="247.1" y2="263.7" stroke="rgb(0,0,0)"  stroke-width="2.0"/>
<line x1="265.0" y1="245.8" x2="240.5" y2="239.2" stroke="rgb(0,0,0)"  stroke-width="2.0"/>
<line x1="304.6" y1="269.5" x2="316.5" y2="266.3" stroke="rgb(0,0,0)"  stroke-width="2.0"/>
<line x1="380.0" y1="151.3" x2="386.1" y2="140.6" stroke="rgb(0,0,0)"  stroke-width="2.0"/>
<line x1="458.0" y1="181.7" x2="470.3" y2="181.7" stroke="rgb(0,0,0)"  stroke-width="2.0"/>
<line x1="502.4" y1="266.2" x2="502.4" y2="329.8" stroke="rgb(0,0,0)"  stroke-width="2.0"/>
<line x1="515.4" y1="253.2" x2="527.7" y2="253.2" stroke="rgb(0,0,0)"  stroke-width="2.0"/>
<line x1="502.4" y1="240.2" x2="502.4" y2="227.9" stroke="rgb(0,0,0)"  stroke-width="2.0"/>
<line x1="502.4" y1="329.8" x2="479.0" y2="339.5" stroke="rgb(0,0,0)"  stroke-width="2.0"/>
<polygon points="502.432722 329.820710 496.379569 367.866196 488.652163 365.795644 " stroke-width="2.000000" fill="rgb(0,0,0)"  stroke="rgb(0,0,0)" />
<line x1="539.4" y1="319.9" x2="546.0" y2="295.5" stroke="rgb(0,0,0)"  stroke-width="2.0"/>
<line x1="566.5" y1="347.0" x2="603.5" y2="337.1" stroke="rgb(0,0,0)"  stroke-width="2.0"/>
<line x1="556.6" y1="384.0" x2="581.1" y2="390.6" stroke="rgb(0,0,0)"  stroke-width="2.0"/>
<line x1="549.4" y1="386.8" x2="549.0" y2="385.2" stroke="rgb(0,0,0)"  stroke-width="1.0"/>
<line x1="543.7" y1="389.0" x2="542.9" y2="386.2" stroke="rgb(0,0,0)"  stroke-width="1.0"/>
<line x1="537.9" y1="391.2" x2="536.8" y2="387.2" stroke="rgb(0,0,0)"  stroke-width="1.0"/>
<line x1="532.2" y1="393.4" x2="530.7" y2="388.1" stroke="rgb(0,0,0)"  stroke-width="1.0"/>
<line x1="526.4" y1="395.6" x2="524.7" y2="389.1" stroke="rgb(0,0,0)"  stroke-width="1.0"/>
<line x1="520.6" y1="397.8" x2="518.6" y2="390.1" stroke="rgb(0,0,0)"  stroke-width="1.0"/>
<line x1="556.6" y1="384.0" x2="563.2" y2="408.5" stroke="rgb(0,0,0)"  stroke-width="2.0"/>
<line x1="519.6" y1="393.9" x2="526.2" y2="418.4" stroke="rgb(0,0,0)"  stroke-width="2.0"/>
<polygon points="519.609220 393.924275 489.687439 369.659347 495.344293 364.002493 " stroke-width="2.000000" fill="rgb(0,0,0)"  stroke="rgb(0,0,0)" />
<line x1="519.6" y1="393.9" x2="501.7" y2="411.8" stroke="rgb(0,0,0)"  stroke-width="2.0"/>
<line x1="489.5" y1="371.0" x2="488.3" y2="369.9" stroke="rgb(0,0,0)"  stroke-width="1.0"/>
<line x1="487.0" y1="374.4" x2="485.0" y2="372.3" stroke="rgb(0,0,0)"  stroke-width="1.0"/>
<line x1="484.5" y1="377.7" x2="481.6" y2="374.8" stroke="rgb(0,0,0)"  stroke-width="1.0"/>
<line x1="482.1" y1="381.1" x2="478.2" y2="377.3" stroke="rgb(0,0,0)"  stroke-width="1.0"/>
<line x1="479.6" y1="384.5" x2="474.9" y2="379.7" stroke="rgb(0,0,0)"  stroke-width="1.0"/>
<line x1="477.2" y1="387.8" x2="471.5" y2="382.2" stroke="rgb(0,0,0)"  stroke-width="1.0"/>
<line x1="492.5" y1="366.8" x2="468.1" y2="360.3" stroke="rgb(0,0,0)"  stroke-width="2.0"/>
<line x1="446.3" y1="366.1" x2="437.6" y2="374.8" stroke="rgb(0,0,0)"  stroke-width="2.0"/>
<line x1="480.0" y1="417.7" x2="468.1" y2="414.5" stroke="rgb(0,0,0)"  stroke-width="2.0"/>
<line x1="557.3" y1="430.2" x2="548.6" y2="438.9" stroke="rgb(0,0,0)"  stroke-width="2.0"/>
<line x1="603.5" y1="337.1" x2="610.1" y2="312.6" stroke="rgb(0,0,0)"  stroke-width="2.0"/>
<line x1="603.5" y1="337.1" x2="628.0" y2="343.6" stroke="rgb(0,0,0)"  stroke-width="2.0"/>
<line x1="603.5" y1="337.1" x2="610.1" y2="361.5" stroke="rgb(0,0,0)"  stroke-width="2.0"/>
<line x1="604.3" y1="290.9" x2="595.6" y2="282.2" stroke="rgb(0,0,0)"  stroke-width="2.0"/>
<line x1="425.8" y1="214.9" x2="392.6" y2="195.7" stroke="rgb(0,0,0)"  stroke-width="2.0"/>
<line x1="392.6" y1="195.7" x2="359.4" y2="214.9" stroke="rgb(0,0,0)"  stroke-width="2.0"/>
<line x1="359.4" y1="214.9" x2="359.4" y2="240.2" stroke="rgb(0,0,0)"  stroke-width="2.0"/>
<line x1="370.7" y1="259.7" x2="392.6" y2="272.3" stroke="rgb(0,0,0)"  stroke-width="2.0"/>
<line x1="392.6" y1="272.3" x2="425.8" y2="253.2" stroke="rgb(0,0,0)"  stroke-width="2.0"/>
<line x1="425.8" y1="253.2" x2="425.8" y2="214.9" stroke="rgb(0,0,0)"  stroke-width="2.0"/>
<line x1="234.5" y1="186.3" x2="227.9" y2="161.9" stroke="rgb(0,0,0)"  stroke-width="2.0"/>
<line x1="227.9" y1="161.9" x2="255.0" y2="134.8" stroke="rgb(0,0,0)"  stroke-width="2.0"/>
<line x1="255.0" y1="134.8" x2="292.0" y2="144.7" stroke="rgb(0,0,0)"  stroke-width="2.0"/>
<line x1="292.0" y1="144.7" x2="302.0" y2="181.7" stroke="rgb(0,0,0)"  stroke-width="2.0"/>
<line x1="302.0" y1="181.7" x2="274.9" y2="208.8" stroke="rgb(0,0,0)"  stroke-width="2.0"/>
<line x1="274.9" y1="208.8" x2="250.4" y2="202.2" stroke="rgb(0,0,0)"  stroke-width="2.0"/>
<line x1="119.4" y1="93.7" x2="97.5" y2="106.4" stroke="rgb(0,0,0)"  stroke-width="2.0"/>
<line x1="97.5" y1="106.4" x2="97.5" y2="144.7" stroke="rgb(0,0,0)"  stroke-width="2.0"/>
<line x1="97.5" y1="144.7" x2="130.7" y2="163.8" stroke="rgb(0,0,0)"  stroke-width="2.0"/>
<line x1="130.7" y1="163.8" x2="163.8" y2="144.7" stroke="rgb(0,0,0)"  stroke-width="2.0"/>
<line x1="163.8" y1="144.7" x2="163.8" y2="106.4" stroke="rgb(0,0,0)"  stroke-width="2.0"/>
<line x1="163.8" y1="106.4" x2="141.9" y2="93.7" stroke="rgb(0,0,0)"  stroke-width="2.0"/>
<line x1="566.5" y1="347.0" x2="556.6" y2="384.0" stroke="rgb(0,0,0)"  stroke-width="2.0"/>
<line x1="556.6" y1="384.0" x2="519.6" y2="393.9" stroke="rgb(0,0,0)"  stroke-width="2.0"/>
<line x1="519.6" y1="393.9" x2="492.5" y2="366.8" stroke="rgb(0,0,0)"  stroke-width="2.0"/>
<line x1="492.5" y1="366.8" x2="502.4" y2="329.8" stroke="rgb(0,0,0)"  stroke-width="2.0"/>
<line x1="502.4" y1="329.8" x2="539.4" y2="319.9" stroke="rgb(0,0,0)"  stroke-width="2.0"/>
<line x1="539.4" y1="319.9" x2="566.5" y2="347.0" stroke="rgb(0,0,0)"  stroke-width="2.0"/>
<line x1="538.6" y1="329.2" x2="557.2" y2="347.8" stroke="rgb(0,0,0)"  stroke-width="2.0"/>
<text x="523.526077" y="438.934485" fill="rgb(191,191,191)"  stroke="rgb(191,191,191)" stroke-width="1" font-size="16" >H</text>
<text x="403.795194" y="344.450591" fill="rgb(191,191,191)"  stroke="rgb(191,191,191)" stroke-width="1" font-size="16" >H</text>
<text x="440.805405" y="280.347025" fill="rgb(191,191,191)"  stroke="rgb(191,191,191)" stroke-width="1" font-size="16" >H</text>
<text x="450.722261" y="317.357236" fill="rgb(191,191,191)"  stroke="rgb(191,191,191)" stroke-width="1" font-size="16" >H</text>
<text x="607.463354" y="308.070142" fill="rgb(255,12,12)"  stroke="rgb(255,12,12)" stroke-width="1" font-size="16" >O</text>
<text x="560.536287" y="429.017629" fill="rgb(255,12,12)"  stroke="rgb(255,12,12)" stroke-width="1" font-size="16" >O</text>
<text x="486.515866" y="429.017629" fill="rgb(255,12,12)"  stroke="rgb(255,12,12)" stroke-width="1" font-size="16" >O</text>
<text x="449.505655" y="364.914064" fill="rgb(255,12,12)"  stroke="rgb(255,12,12)" stroke-width="1" font-size="16" >O</text>
<text x="459.422511" y="401.924275" fill="rgb(191,191,191)"  stroke="rgb(191,191,191)" stroke-width="1" font-size="16" >H</text>
<text x="332.972775" y="105.753617" fill="rgb(191,191,191)"  stroke="rgb(191,191,191)" stroke-width="1" font-size="16" >H</text>
<text x="587.629642" y="401.924275" fill="rgb(191,191,191)"  stroke="rgb(191,191,191)" stroke-width="1" font-size="16" >H</text>
<text x="461.033548" y="352.483527" fill="rgb(191,191,191)"  stroke="rgb(191,191,191)" stroke-width="1" font-size="16" >H</text>
<text x="507.232722" y="249.157131" fill="rgb(12,12,255)"  stroke="rgb(12,12,255)" stroke-width="1" font-size="16" >+</text>
<text x="496.432722" y="261.189131" fill="rgb(12,12,255)"  stroke="rgb(12,12,255)" stroke-width="1" font-size="16" >N</text>
<text x="438.959038" y="189.690894" fill="rgb(255,12,12)"  stroke="rgb(255,12,12)" stroke-width="1" font-size="16" >O</text>
<text x="367.460801" y="170.532999" fill="rgb(255,12,12)"  stroke="rgb(255,12,12)" stroke-width="1" font-size="16" >O</text>
<text x="386.618696" y="137.350552" fill="rgb(191,191,191)"  stroke="rgb(191,191,191)" stroke-width="1" font-size="16" >H</text>
<text x="496.432722" y="222.873341" fill="rgb(191,191,191)"  stroke="rgb(191,191,191)" stroke-width="1" font-size="16" >H</text>
<text x="580.369999" y="280.976787" fill="rgb(191,191,191)"  stroke="rgb(191,191,191)" stroke-width="1" font-size="16" >H</text>
<text x="607.463354" y="382.090563" fill="rgb(191,191,191)"  stroke="rgb(191,191,191)" stroke-width="1" font-size="16" >H</text>
<text x="634.556708" y="354.997208" fill="rgb(191,191,191)"  stroke="rgb(191,191,191)" stroke-width="1" font-size="16" >H</text>
<text x="533.442933" y="456.110984" fill="rgb(191,191,191)"  stroke="rgb(191,191,191)" stroke-width="1" font-size="16" >H</text>
<text x="449.505655" y="419.100773" fill="rgb(191,191,191)"  stroke="rgb(191,191,191)" stroke-width="1" font-size="16" >H</text>
<text x="422.412301" y="392.007419" fill="rgb(191,191,191)"  stroke="rgb(191,191,191)" stroke-width="1" font-size="16" >H</text>
<text x="543.359789" y="290.893643" fill="rgb(191,191,191)"  stroke="rgb(191,191,191)" stroke-width="1" font-size="16" >H</text>
<text x="534.748511" y="261.189131" fill="rgb(191,191,191)"  stroke="rgb(191,191,191)" stroke-width="1" font-size="16" >H</text>
<text x="477.274827" y="189.690894" fill="rgb(191,191,191)"  stroke="rgb(191,191,191)" stroke-width="1" font-size="16" >H</text>
<text x="286.045709" y="280.887814" fill="rgb(255,12,12)"  stroke="rgb(255,12,12)" stroke-width="1" font-size="16" >O</text>
<text x="323.055919" y="270.970958" fill="rgb(191,191,191)"  stroke="rgb(191,191,191)" stroke-width="1" font-size="16" >H</text>
<text x="221.942143" y="243.877603" fill="rgb(191,191,191)"  stroke="rgb(191,191,191)" stroke-width="1" font-size="16" >H</text>
<text x="231.859000" y="280.887814" fill="rgb(191,191,191)"  stroke="rgb(191,191,191)" stroke-width="1" font-size="16" >H</text>
<text x="119.522789" y="48.000000" fill="rgb(191,191,191)"  stroke="rgb(191,191,191)" stroke-width="1" font-size="16" >H</text>
<text x="210.178920" y="100.340342" fill="rgb(191,191,191)"  stroke="rgb(191,191,191)" stroke-width="1" font-size="16" >H</text>
<text x="210.178920" y="62.024552" fill="rgb(191,191,191)"  stroke="rgb(191,191,191)" stroke-width="1" font-size="16" >H</text>
<text x="34.000000" y="147.547341" fill="rgb(191,191,191)"  stroke="rgb(191,191,191)" stroke-width="1" font-size="16" >H</text>
<text x="34.000000" y="185.863131" fill="rgb(191,191,191)"  stroke="rgb(191,191,191)" stroke-width="1" font-size="16" >H</text>
<text x="124.656131" y="238.203472" fill="rgb(191,191,191)"  stroke="rgb(191,191,191)" stroke-width="1" font-size="16" >H</text>
<text x="231.859000" y="78.660262" fill="rgb(191,191,191)"  stroke="rgb(191,191,191)" stroke-width="1" font-size="16" >H</text>
<text x="353.436249" y="261.189131" fill="rgb(255,12,12)"  stroke="rgb(255,12,12)" stroke-width="1" font-size="16" >O</text>
<text x="221.942143" y="115.670473" fill="rgb(191,191,191)"  stroke="rgb(191,191,191)" stroke-width="1" font-size="16" >H</text>
<text x="184.931933" y="179.774038" fill="rgb(191,191,191)"  stroke="rgb(191,191,191)" stroke-width="1" font-size="16" >H</text>
<text x="231.859000" y="206.867393" fill="rgb(255,12,12)"  stroke="rgb(255,12,12)" stroke-width="1" font-size="16" >O</text>
<text x="295.962565" y="243.877603" fill="rgb(191,191,191)"  stroke="rgb(191,191,191)" stroke-width="1" font-size="16" >H</text>
<text x="342.612914" y="128.894975" fill="rgb(191,191,191)"  stroke="rgb(191,191,191)" stroke-width="1" font-size="16" >H</text>
<text x="315.120459" y="222.873341" fill="rgb(255,12,12)"  stroke="rgb(255,12,12)" stroke-width="1" font-size="16" >O</text>
<text x="334.278354" y="189.690894" fill="rgb(191,191,191)"  stroke="rgb(191,191,191)" stroke-width="1" font-size="16" >H</text>
<text x="405.776591" y="170.532999" fill="rgb(191,191,191)"  stroke="rgb(191,191,191)" stroke-width="1" font-size="16" >H</text>
<text x="458.116932" y="222.873341" fill="rgb(191,191,191)"  stroke="rgb(191,191,191)" stroke-width="1" font-size="16" >H</text>
<text x="438.959038" y="294.371578" fill="rgb(191,191,191)"  stroke="rgb(191,191,191)" stroke-width="1" font-size="16" >H</text>
<text x="351.219522" y="295.009843" fill="rgb(191,191,191)"  stroke="rgb(191,191,191)" stroke-width="1" font-size="16" >H</text>
<text x="72.315789" y="81.182447" fill="rgb(191,191,191)"  stroke="rgb(191,191,191)" stroke-width="1" font-size="16" >H</text>
<text x="157.838578" y="48.000000" fill="rgb(255,12,12)"  stroke="rgb(255,12,12)" stroke-width="1" font-size="16" >O</text>
<text x="53.157895" y="114.364894" fill="rgb(255,12,12)"  stroke="rgb(255,12,12)" stroke-width="1" font-size="16" >O</text>
<text x="72.315789" y="185.863131" fill="rgb(255,12,12)"  stroke="rgb(255,12,12)" stroke-width="1" font-size="16" >O</text>
<text x="143.814026" y="205.021025" fill="rgb(255,12,12)"  stroke="rgb(255,12,12)" stroke-width="1" font-size="16" >O</text>
<text x="105.498237" y="205.021025" fill="rgb(191,191,191)"  stroke="rgb(191,191,191)" stroke-width="1" font-size="16" >H</text>
<text x="53.157895" y="152.680684" fill="rgb(191,191,191)"  stroke="rgb(191,191,191)" stroke-width="1" font-size="16" >H</text>
<text x="124.656131" y="95.206999" fill="rgb(255,12,12)"  stroke="rgb(255,12,12)" stroke-width="1" font-size="16" >O</text>
<text x="196.154368" y="114.364894" fill="rgb(191,191,191)"  stroke="rgb(191,191,191)" stroke-width="1" font-size="16" >H</text>
<text x="147.836150" y="228.656669" fill="rgb(191,191,191)"  stroke="rgb(191,191,191)" stroke-width="1" font-size="16" >H</text>
<text x="194.848789" y="142.763828" fill="rgb(255,12,12)"  stroke="rgb(255,12,12)" stroke-width="1" font-size="16" >O</text>
<text x="258.952354" y="105.753617" fill="rgb(255,12,12)"  stroke="rgb(255,12,12)" stroke-width="1" font-size="16" >O</text>
<text x="323.055919" y="142.763828" fill="rgb(255,12,12)"  stroke="rgb(255,12,12)" stroke-width="1" font-size="16" >O</text>
<text x="295.962565" y="115.670473" fill="rgb(191,191,191)"  stroke="rgb(191,191,191)" stroke-width="1" font-size="16" >H</text>
</svg>
</g>
<text font-size="18.000000" fill ="black" font-family="sans-serif"
x="10.000000" y="20.000000" >ZINC85537042</text>
</svg>
