<?xml version="1.0"?>
<svg version="1.1" id="topsvg"
xmlns="http://www.w3.org/2000/svg" xmlns:xlink="http://www.w3.org/1999/xlink"
xmlns:cml="http://www.xml-cml.org/schema" x="0" y="0" width="200px" height="200px" viewBox="0 0 100 100">
<title>ZINC37926134 - Open Babel Depiction</title>
<rect x="0" y="0" width="100" height="100" fill="white"/>
<g transform="translate(0,0)">
<svg width="100" height="100" x="0" y="0" viewBox="0 0 365.12 294.641"
font-family="sans-serif" stroke="rgb(0,0,0)" stroke-width="2"  stroke-linecap="round">
<line x1="178.6" y1="74.6" x2="178.6" y2="101.6" stroke="rgb(0,0,0)"  stroke-width="2.0"/>
<line x1="178.6" y1="74.6" x2="165.1" y2="51.3" stroke="rgb(0,0,0)"  stroke-width="2.0"/>
<line x1="178.6" y1="74.6" x2="151.6" y2="74.6" stroke="rgb(0,0,0)"  stroke-width="2.0"/>
<line x1="178.6" y1="74.6" x2="201.9" y2="61.1" stroke="rgb(0,0,0)"  stroke-width="2.0"/>
<line x1="189.8" y1="121.1" x2="213.2" y2="134.6" stroke="rgb(0,0,0)"  stroke-width="2.0"/>
<line x1="167.3" y1="121.1" x2="143.9" y2="134.6" stroke="rgb(0,0,0)"  stroke-width="2.0"/>
<line x1="213.2" y1="134.6" x2="247.8" y2="114.6" stroke="rgb(0,0,0)"  stroke-width="2.0"/>
<line x1="213.2" y1="134.6" x2="226.7" y2="158.0" stroke="rgb(0,0,0)"  stroke-width="2.0"/>
<line x1="213.2" y1="134.6" x2="199.7" y2="158.0" stroke="rgb(0,0,0)"  stroke-width="2.0"/>
<line x1="247.8" y1="114.6" x2="230.3" y2="94.1" stroke="rgb(0,0,0)"  stroke-width="2.0"/>
<line x1="276.1" y1="142.9" x2="269.1" y2="169.0" stroke="rgb(0,0,0)"  stroke-width="2.0"/>
<line x1="276.1" y1="142.9" x2="295.2" y2="162.0" stroke="rgb(0,0,0)"  stroke-width="2.0"/>
<line x1="286.5" y1="104.3" x2="312.6" y2="97.3" stroke="rgb(0,0,0)"  stroke-width="2.0"/>
<line x1="286.5" y1="104.3" x2="293.5" y2="78.2" stroke="rgb(0,0,0)"  stroke-width="2.0"/>
<line x1="143.9" y1="174.6" x2="167.3" y2="188.1" stroke="rgb(0,0,0)"  stroke-width="2.0"/>
<line x1="109.3" y1="194.6" x2="109.3" y2="234.6" stroke="rgb(0,0,0)"  stroke-width="2.0"/>
<line x1="74.6" y1="174.6" x2="51.3" y2="188.1" stroke="rgb(0,0,0)"  stroke-width="2.0"/>
<line x1="74.6" y1="134.6" x2="51.3" y2="121.1" stroke="rgb(0,0,0)"  stroke-width="2.0"/>
<line x1="110.8" y1="232.0" x2="134.2" y2="245.5" stroke="rgb(0,0,0)"  stroke-width="2.0"/>
<line x1="107.8" y1="237.2" x2="131.2" y2="250.7" stroke="rgb(0,0,0)"  stroke-width="2.0"/>
<line x1="109.3" y1="234.6" x2="85.9" y2="248.1" stroke="rgb(0,0,0)"  stroke-width="2.0"/>
<line x1="109.3" y1="194.6" x2="74.6" y2="174.6" stroke="rgb(0,0,0)"  stroke-width="2.0"/>
<line x1="74.6" y1="174.6" x2="74.6" y2="134.6" stroke="rgb(0,0,0)"  stroke-width="2.0"/>
<line x1="81.8" y1="168.6" x2="81.8" y2="140.6" stroke="rgb(0,0,0)"  stroke-width="2.0"/>
<line x1="74.6" y1="134.6" x2="98.0" y2="121.1" stroke="rgb(0,0,0)"  stroke-width="2.0"/>
<line x1="120.7" y1="121.2" x2="143.9" y2="134.6" stroke="rgb(0,0,0)"  stroke-width="2.0"/>
<line x1="118.8" y1="128.5" x2="135.1" y2="137.9" stroke="rgb(0,0,0)"  stroke-width="2.0"/>
<line x1="143.9" y1="134.6" x2="143.9" y2="174.6" stroke="rgb(0,0,0)"  stroke-width="2.0"/>
<line x1="143.9" y1="174.6" x2="109.3" y2="194.6" stroke="rgb(0,0,0)"  stroke-width="2.0"/>
<line x1="135.1" y1="171.4" x2="110.9" y2="185.4" stroke="rgb(0,0,0)"  stroke-width="2.0"/>
<line x1="286.5" y1="104.3" x2="247.8" y2="114.6" stroke="rgb(0,0,0)"  stroke-width="2.0"/>
<line x1="247.8" y1="114.6" x2="276.1" y2="142.9" stroke="rgb(0,0,0)"  stroke-width="2.0"/>
<line x1="276.1" y1="142.9" x2="286.5" y2="104.3" stroke="rgb(0,0,0)"  stroke-width="2.0"/>
<text x="56.641016" y="262.641016" fill="rgb(255,12,12)"  stroke="rgb(255,12,12)" stroke-width="1" font-size="16" >HO</text>
<text x="34.000000" y="122.641016" fill="rgb(191,191,191)"  stroke="rgb(191,191,191)" stroke-width="1" font-size="16" >H</text>
<text x="34.000000" y="202.641016" fill="rgb(191,191,191)"  stroke="rgb(191,191,191)" stroke-width="1" font-size="16" >H</text>
<text x="172.564065" y="202.641016" fill="rgb(191,191,191)"  stroke="rgb(191,191,191)" stroke-width="1" font-size="16" >H</text>
<text x="290.835892" y="73.651221" fill="rgb(191,191,191)"  stroke="rgb(191,191,191)" stroke-width="1" font-size="16" >H</text>
<text x="319.120163" y="101.935493" fill="rgb(191,191,191)"  stroke="rgb(191,191,191)" stroke-width="1" font-size="16" >H</text>
<text x="298.414639" y="179.209559" fill="rgb(191,191,191)"  stroke="rgb(191,191,191)" stroke-width="1" font-size="16" >H</text>
<text x="259.777606" y="189.562320" fill="rgb(191,191,191)"  stroke="rgb(191,191,191)" stroke-width="1" font-size="16" >H</text>
<text x="215.922212" y="92.178708" fill="rgb(191,191,191)"  stroke="rgb(191,191,191)" stroke-width="1" font-size="16" >H</text>
<text x="187.205081" y="177.282032" fill="rgb(191,191,191)"  stroke="rgb(191,191,191)" stroke-width="1" font-size="16" >H</text>
<text x="227.205081" y="177.282032" fill="rgb(191,191,191)"  stroke="rgb(191,191,191)" stroke-width="1" font-size="16" >H</text>
<text x="207.205081" y="62.641016" fill="rgb(191,191,191)"  stroke="rgb(191,191,191)" stroke-width="1" font-size="16" >H</text>
<text x="132.564065" y="82.641016" fill="rgb(191,191,191)"  stroke="rgb(191,191,191)" stroke-width="1" font-size="16" >H</text>
<text x="152.564065" y="48.000000" fill="rgb(191,191,191)"  stroke="rgb(191,191,191)" stroke-width="1" font-size="16" >H</text>
<text x="137.923048" y="262.641016" fill="rgb(255,12,12)"  stroke="rgb(255,12,12)" stroke-width="1" font-size="16" >O</text>
<text x="103.282032" y="122.641016" fill="rgb(12,12,255)"  stroke="rgb(12,12,255)" stroke-width="1" font-size="16" >N</text>
<text x="172.564065" y="122.641016" fill="rgb(12,12,255)"  stroke="rgb(12,12,255)" stroke-width="1" font-size="16" >N</text>
</svg>
</g>
<text font-size="18.000000" fill ="black" font-family="sans-serif"
x="10.000000" y="20.000000" >ZINC37926134</text>
</svg>
