<?xml version="1.0"?>
<svg version="1.1" id="topsvg"
xmlns="http://www.w3.org/2000/svg" xmlns:xlink="http://www.w3.org/1999/xlink"
xmlns:cml="http://www.xml-cml.org/schema" x="0" y="0" width="200px" height="200px" viewBox="0 0 100 100">
<title>ZINC44559494 - Open Babel Depiction</title>
<rect x="0" y="0" width="100" height="100" fill="white"/>
<g transform="translate(0,0)">
<svg width="100" height="100" x="0" y="0" viewBox="0 0 427.359 273.75"
font-family="sans-serif" stroke="rgb(0,0,0)" stroke-width="2"  stroke-linecap="round">
<line x1="353.8" y1="136.9" x2="376.1" y2="124.0" stroke="rgb(0,0,0)"  stroke-width="2.0"/>
<line x1="320.2" y1="117.5" x2="320.2" y2="91.7" stroke="rgb(0,0,0)"  stroke-width="2.0"/>
<line x1="275.4" y1="130.4" x2="253.1" y2="117.5" stroke="rgb(0,0,0)"  stroke-width="2.0"/>
<line x1="288.2" y1="178.2" x2="265.9" y2="191.1" stroke="rgb(0,0,0)"  stroke-width="2.0"/>
<line x1="285.2" y1="173.0" x2="262.9" y2="185.9" stroke="rgb(0,0,0)"  stroke-width="2.0"/>
<line x1="320.2" y1="208.0" x2="320.2" y2="220.7" stroke="rgb(0,0,0)"  stroke-width="2.0"/>
<line x1="355.3" y1="173.0" x2="377.6" y2="185.9" stroke="rgb(0,0,0)"  stroke-width="2.0"/>
<line x1="352.3" y1="178.2" x2="374.6" y2="191.1" stroke="rgb(0,0,0)"  stroke-width="2.0"/>
<line x1="255.0" y1="112.6" x2="256.4" y2="113.4" stroke="rgb(0,0,0)"  stroke-width="1.0"/>
<line x1="256.6" y1="108.7" x2="259.0" y2="110.1" stroke="rgb(0,0,0)"  stroke-width="1.0"/>
<line x1="258.1" y1="104.8" x2="261.7" y2="106.8" stroke="rgb(0,0,0)"  stroke-width="1.0"/>
<line x1="259.6" y1="100.9" x2="264.3" y2="103.6" stroke="rgb(0,0,0)"  stroke-width="1.0"/>
<line x1="261.1" y1="96.9" x2="266.9" y2="100.3" stroke="rgb(0,0,0)"  stroke-width="1.0"/>
<line x1="262.6" y1="93.0" x2="269.6" y2="97.0" stroke="rgb(0,0,0)"  stroke-width="1.0"/>
<line x1="253.1" y1="117.5" x2="186.0" y2="78.8" stroke="rgb(0,0,0)"  stroke-width="2.0"/>
<line x1="253.1" y1="117.5" x2="240.3" y2="139.8" stroke="rgb(0,0,0)"  stroke-width="2.0"/>
<line x1="183.0" y1="78.8" x2="183.0" y2="53.0" stroke="rgb(0,0,0)"  stroke-width="2.0"/>
<line x1="189.0" y1="78.8" x2="189.0" y2="53.0" stroke="rgb(0,0,0)"  stroke-width="2.0"/>
<line x1="186.0" y1="78.8" x2="163.7" y2="91.6" stroke="rgb(0,0,0)"  stroke-width="2.0"/>
<line x1="220.8" y1="151.1" x2="195.0" y2="151.1" stroke="rgb(0,0,0)"  stroke-width="2.0"/>
<polygon points="195.000000 151.058484 191.000000 125.095984 199.000000 125.095984 " stroke-width="2.000000" fill="rgb(0,0,0)"  stroke="rgb(0,0,0)" />
<line x1="195.0" y1="151.1" x2="156.3" y2="151.1" stroke="rgb(0,0,0)"  stroke-width="2.0"/>
<line x1="195.0" y1="151.1" x2="195.0" y2="189.8" stroke="rgb(0,0,0)"  stroke-width="2.0"/>
<line x1="156.3" y1="151.1" x2="143.4" y2="128.8" stroke="rgb(0,0,0)"  stroke-width="2.0"/>
<line x1="156.3" y1="151.1" x2="133.9" y2="163.9" stroke="rgb(0,0,0)"  stroke-width="2.0"/>
<line x1="156.3" y1="151.1" x2="156.3" y2="176.8" stroke="rgb(0,0,0)"  stroke-width="2.0"/>
<line x1="123.9" y1="117.5" x2="111.1" y2="117.5" stroke="rgb(0,0,0)"  stroke-width="2.0"/>
<line x1="98.9" y1="132.9" x2="97.3" y2="132.9" stroke="rgb(0,0,0)"  stroke-width="1.0"/>
<line x1="99.6" y1="135.0" x2="96.7" y2="135.0" stroke="rgb(0,0,0)"  stroke-width="1.0"/>
<line x1="100.2" y1="137.1" x2="96.0" y2="137.1" stroke="rgb(0,0,0)"  stroke-width="1.0"/>
<line x1="100.8" y1="139.2" x2="95.4" y2="139.2" stroke="rgb(0,0,0)"  stroke-width="1.0"/>
<line x1="101.5" y1="141.4" x2="94.8" y2="141.4" stroke="rgb(0,0,0)"  stroke-width="1.0"/>
<line x1="102.1" y1="143.5" x2="94.1" y2="143.5" stroke="rgb(0,0,0)"  stroke-width="1.0"/>
<line x1="85.1" y1="117.5" x2="72.4" y2="117.5" stroke="rgb(0,0,0)"  stroke-width="2.0"/>
<line x1="98.1" y1="104.5" x2="98.1" y2="91.8" stroke="rgb(0,0,0)"  stroke-width="2.0"/>
<line x1="52.9" y1="128.8" x2="46.5" y2="139.8" stroke="rgb(0,0,0)"  stroke-width="2.0"/>
<line x1="196.5" y1="192.4" x2="174.2" y2="205.3" stroke="rgb(0,0,0)"  stroke-width="2.0"/>
<line x1="193.5" y1="187.2" x2="171.2" y2="200.1" stroke="rgb(0,0,0)"  stroke-width="2.0"/>
<line x1="195.0" y1="189.8" x2="217.3" y2="202.7" stroke="rgb(0,0,0)"  stroke-width="2.0"/>
<line x1="286.7" y1="149.9" x2="286.7" y2="175.6" stroke="rgb(0,0,0)"  stroke-width="2.0"/>
<line x1="286.7" y1="175.6" x2="309.0" y2="188.5" stroke="rgb(0,0,0)"  stroke-width="2.0"/>
<line x1="331.5" y1="188.5" x2="353.8" y2="175.6" stroke="rgb(0,0,0)"  stroke-width="2.0"/>
<line x1="353.8" y1="175.6" x2="353.8" y2="136.9" stroke="rgb(0,0,0)"  stroke-width="2.0"/>
<line x1="353.8" y1="136.9" x2="320.2" y2="117.5" stroke="rgb(0,0,0)"  stroke-width="2.0"/>
<line x1="345.0" y1="140.1" x2="321.8" y2="126.7" stroke="rgb(0,0,0)"  stroke-width="2.0"/>
<line x1="320.2" y1="117.5" x2="297.9" y2="130.4" stroke="rgb(0,0,0)"  stroke-width="2.0"/>
<text x="189.000000" y="120.308484" fill="rgb(191,191,191)"  stroke="rgb(191,191,191)" stroke-width="1" font-size="16" >H</text>
<text x="34.000000" y="159.058484" fill="rgb(191,191,191)"  stroke="rgb(191,191,191)" stroke-width="1" font-size="16" >H</text>
<text x="222.558484" y="217.183484" fill="rgb(191,191,191)"  stroke="rgb(191,191,191)" stroke-width="1" font-size="16" >H</text>
<text x="150.250000" y="197.808484" fill="rgb(191,191,191)"  stroke="rgb(191,191,191)" stroke-width="1" font-size="16" >H</text>
<text x="116.691516" y="178.433484" fill="rgb(191,191,191)"  stroke="rgb(191,191,191)" stroke-width="1" font-size="16" >H</text>
<text x="146.449547" y="106.125000" fill="rgb(191,191,191)"  stroke="rgb(191,191,191)" stroke-width="1" font-size="16" >H</text>
<text x="314.241969" y="86.750000" fill="rgb(191,191,191)"  stroke="rgb(191,191,191)" stroke-width="1" font-size="16" >H</text>
<text x="381.358938" y="125.500000" fill="rgb(191,191,191)"  stroke="rgb(191,191,191)" stroke-width="1" font-size="16" >H</text>
<text x="155.441516" y="217.183484" fill="rgb(255,12,12)"  stroke="rgb(255,12,12)" stroke-width="1" font-size="16" >O</text>
<text x="92.125000" y="86.750000" fill="rgb(255,12,12)"  stroke="rgb(255,12,12)" stroke-width="1" font-size="16" >OH</text>
<text x="53.375000" y="125.500000" fill="rgb(255,12,12)"  stroke="rgb(255,12,12)" stroke-width="1" font-size="16" >O</text>
<text x="92.125000" y="164.250000" fill="rgb(255,12,12)"  stroke="rgb(255,12,12)" stroke-width="1" font-size="16" >O</text>
<text x="92.125000" y="125.500000" fill="rgb(255,127,0)"  stroke="rgb(255,127,0)" stroke-width="1" font-size="16" >P</text>
<text x="130.875000" y="125.500000" fill="rgb(255,12,12)"  stroke="rgb(255,12,12)" stroke-width="1" font-size="16" >O</text>
<text x="227.750000" y="159.058484" fill="rgb(255,12,12)"  stroke="rgb(255,12,12)" stroke-width="1" font-size="16" >O</text>
<text x="180.008031" y="48.000000" fill="rgb(255,12,12)"  stroke="rgb(255,12,12)" stroke-width="1" font-size="16" >O</text>
<text x="266.500000" y="91.941516" fill="rgb(191,191,191)"  stroke="rgb(191,191,191)" stroke-width="1" font-size="16" >H</text>
<text x="381.358938" y="203.000000" fill="rgb(255,12,12)"  stroke="rgb(255,12,12)" stroke-width="1" font-size="16" >O</text>
<text x="314.241969" y="241.750000" fill="rgb(191,191,191)"  stroke="rgb(191,191,191)" stroke-width="1" font-size="16" >H</text>
<text x="314.241969" y="203.000000" fill="rgb(12,12,255)"  stroke="rgb(12,12,255)" stroke-width="1" font-size="16" >N</text>
<text x="247.125000" y="203.000000" fill="rgb(255,12,12)"  stroke="rgb(255,12,12)" stroke-width="1" font-size="16" >O</text>
<text x="280.683484" y="144.875000" fill="rgb(12,12,255)"  stroke="rgb(12,12,255)" stroke-width="1" font-size="16" >N</text>
</svg>
</g>
<text font-size="18.000000" fill ="black" font-family="sans-serif"
x="10.000000" y="20.000000" >ZINC44559494</text>
</svg>
