<?xml version="1.0"?>
<svg version="1.1" id="topsvg"
xmlns="http://www.w3.org/2000/svg" xmlns:xlink="http://www.w3.org/1999/xlink"
xmlns:cml="http://www.xml-cml.org/schema" x="0" y="0" width="200px" height="200px" viewBox="0 0 100 100">
<title>ZINC79364190 - Open Babel Depiction</title>
<rect x="0" y="0" width="100" height="100" fill="white"/>
<g transform="translate(0,0)">
<svg width="100" height="100" x="0" y="0" viewBox="0 0 640 437.128"
font-family="sans-serif" stroke="rgb(0,0,0)" stroke-width="2"  stroke-linecap="round">
<line x1="80.0" y1="357.1" x2="100.0" y2="322.5" stroke="rgb(0,0,0)"  stroke-width="2.0"/>
<line x1="80.0" y1="357.1" x2="80.0" y2="384.1" stroke="rgb(0,0,0)"  stroke-width="2.0"/>
<line x1="80.0" y1="357.1" x2="103.4" y2="370.6" stroke="rgb(0,0,0)"  stroke-width="2.0"/>
<line x1="80.0" y1="357.1" x2="53.0" y2="357.1" stroke="rgb(0,0,0)"  stroke-width="2.0"/>
<line x1="100.0" y1="322.5" x2="140.0" y2="322.5" stroke="rgb(0,0,0)"  stroke-width="2.0"/>
<line x1="100.0" y1="322.5" x2="100.0" y2="295.5" stroke="rgb(0,0,0)"  stroke-width="2.0"/>
<line x1="100.0" y1="322.5" x2="76.6" y2="309.0" stroke="rgb(0,0,0)"  stroke-width="2.0"/>
<line x1="140.0" y1="322.5" x2="160.0" y2="287.8" stroke="rgb(0,0,0)"  stroke-width="2.0"/>
<line x1="140.0" y1="322.5" x2="163.4" y2="336.0" stroke="rgb(0,0,0)"  stroke-width="2.0"/>
<line x1="140.0" y1="322.5" x2="140.0" y2="349.5" stroke="rgb(0,0,0)"  stroke-width="2.0"/>
<line x1="160.0" y1="287.8" x2="200.0" y2="287.8" stroke="rgb(0,0,0)"  stroke-width="2.0"/>
<line x1="160.0" y1="287.8" x2="160.0" y2="260.8" stroke="rgb(0,0,0)"  stroke-width="2.0"/>
<line x1="160.0" y1="287.8" x2="136.6" y2="274.3" stroke="rgb(0,0,0)"  stroke-width="2.0"/>
<line x1="200.0" y1="287.8" x2="220.0" y2="253.2" stroke="rgb(0,0,0)"  stroke-width="2.0"/>
<line x1="200.0" y1="287.8" x2="223.4" y2="301.3" stroke="rgb(0,0,0)"  stroke-width="2.0"/>
<line x1="200.0" y1="287.8" x2="200.0" y2="314.8" stroke="rgb(0,0,0)"  stroke-width="2.0"/>
<line x1="220.0" y1="253.2" x2="260.0" y2="253.2" stroke="rgb(0,0,0)"  stroke-width="2.0"/>
<line x1="220.0" y1="253.2" x2="220.0" y2="226.2" stroke="rgb(0,0,0)"  stroke-width="2.0"/>
<line x1="220.0" y1="253.2" x2="196.6" y2="239.7" stroke="rgb(0,0,0)"  stroke-width="2.0"/>
<line x1="260.0" y1="253.2" x2="280.0" y2="218.6" stroke="rgb(0,0,0)"  stroke-width="2.0"/>
<line x1="260.0" y1="253.2" x2="283.4" y2="266.7" stroke="rgb(0,0,0)"  stroke-width="2.0"/>
<line x1="260.0" y1="253.2" x2="260.0" y2="280.2" stroke="rgb(0,0,0)"  stroke-width="2.0"/>
<line x1="280.0" y1="218.6" x2="320.0" y2="218.6" stroke="rgb(0,0,0)"  stroke-width="2.0"/>
<line x1="280.0" y1="218.6" x2="280.0" y2="191.6" stroke="rgb(0,0,0)"  stroke-width="2.0"/>
<line x1="280.0" y1="218.6" x2="256.6" y2="205.1" stroke="rgb(0,0,0)"  stroke-width="2.0"/>
<line x1="320.0" y1="218.6" x2="340.0" y2="183.9" stroke="rgb(0,0,0)"  stroke-width="2.0"/>
<line x1="320.0" y1="218.6" x2="343.4" y2="232.1" stroke="rgb(0,0,0)"  stroke-width="2.0"/>
<line x1="320.0" y1="218.6" x2="320.0" y2="245.6" stroke="rgb(0,0,0)"  stroke-width="2.0"/>
<line x1="340.0" y1="183.9" x2="380.0" y2="183.9" stroke="rgb(0,0,0)"  stroke-width="2.0"/>
<line x1="340.0" y1="183.9" x2="340.0" y2="156.9" stroke="rgb(0,0,0)"  stroke-width="2.0"/>
<line x1="340.0" y1="183.9" x2="316.6" y2="170.4" stroke="rgb(0,0,0)"  stroke-width="2.0"/>
<line x1="380.0" y1="183.9" x2="400.0" y2="149.3" stroke="rgb(0,0,0)"  stroke-width="2.0"/>
<line x1="380.0" y1="183.9" x2="403.4" y2="197.4" stroke="rgb(0,0,0)"  stroke-width="2.0"/>
<line x1="380.0" y1="183.9" x2="380.0" y2="210.9" stroke="rgb(0,0,0)"  stroke-width="2.0"/>
<line x1="400.0" y1="149.3" x2="440.0" y2="149.3" stroke="rgb(0,0,0)"  stroke-width="2.0"/>
<line x1="400.0" y1="149.3" x2="400.0" y2="122.3" stroke="rgb(0,0,0)"  stroke-width="2.0"/>
<line x1="400.0" y1="149.3" x2="376.6" y2="135.8" stroke="rgb(0,0,0)"  stroke-width="2.0"/>
<line x1="440.0" y1="149.3" x2="460.0" y2="114.6" stroke="rgb(0,0,0)"  stroke-width="2.0"/>
<line x1="440.0" y1="149.3" x2="463.4" y2="162.8" stroke="rgb(0,0,0)"  stroke-width="2.0"/>
<line x1="440.0" y1="149.3" x2="440.0" y2="176.3" stroke="rgb(0,0,0)"  stroke-width="2.0"/>
<line x1="460.0" y1="114.6" x2="500.0" y2="114.6" stroke="rgb(0,0,0)"  stroke-width="2.0"/>
<line x1="460.0" y1="114.6" x2="460.0" y2="87.6" stroke="rgb(0,0,0)"  stroke-width="2.0"/>
<line x1="460.0" y1="114.6" x2="436.6" y2="101.1" stroke="rgb(0,0,0)"  stroke-width="2.0"/>
<line x1="500.0" y1="114.6" x2="520.0" y2="80.0" stroke="rgb(0,0,0)"  stroke-width="2.0"/>
<line x1="500.0" y1="114.6" x2="523.4" y2="128.1" stroke="rgb(0,0,0)"  stroke-width="2.0"/>
<line x1="500.0" y1="114.6" x2="500.0" y2="141.6" stroke="rgb(0,0,0)"  stroke-width="2.0"/>
<line x1="520.0" y1="80.0" x2="547.0" y2="80.0" stroke="rgb(0,0,0)"  stroke-width="2.0"/>
<line x1="520.0" y1="80.0" x2="520.0" y2="53.0" stroke="rgb(0,0,0)"  stroke-width="2.0"/>
<line x1="520.0" y1="80.0" x2="496.6" y2="66.5" stroke="rgb(0,0,0)"  stroke-width="2.0"/>
<line x1="563.0" y1="93.0" x2="563.0" y2="107.0" stroke="rgb(0,0,0)"  stroke-width="2.0"/>
<line x1="557.0" y1="93.0" x2="557.0" y2="107.0" stroke="rgb(0,0,0)"  stroke-width="2.0"/>
<line x1="573.0" y1="80.0" x2="587.0" y2="80.0" stroke="rgb(0,0,0)"  stroke-width="2.0"/>
<line x1="560.0" y1="67.0" x2="560.0" y2="53.0" stroke="rgb(0,0,0)"  stroke-width="2.0"/>
<text x="299.358984" y="171.923048" fill="rgb(191,191,191)"  stroke="rgb(191,191,191)" stroke-width="1" font-size="16" >H</text>
<text x="154.000000" y="255.846097" fill="rgb(191,191,191)"  stroke="rgb(191,191,191)" stroke-width="1" font-size="16" >H</text>
<text x="119.358984" y="275.846097" fill="rgb(191,191,191)"  stroke="rgb(191,191,191)" stroke-width="1" font-size="16" >H</text>
<text x="228.641016" y="315.846097" fill="rgb(191,191,191)"  stroke="rgb(191,191,191)" stroke-width="1" font-size="16" >H</text>
<text x="194.000000" y="335.846097" fill="rgb(191,191,191)"  stroke="rgb(191,191,191)" stroke-width="1" font-size="16" >H</text>
<text x="214.000000" y="221.205081" fill="rgb(191,191,191)"  stroke="rgb(191,191,191)" stroke-width="1" font-size="16" >H</text>
<text x="179.358984" y="241.205081" fill="rgb(191,191,191)"  stroke="rgb(191,191,191)" stroke-width="1" font-size="16" >H</text>
<text x="288.641016" y="281.205081" fill="rgb(191,191,191)"  stroke="rgb(191,191,191)" stroke-width="1" font-size="16" >H</text>
<text x="254.000000" y="301.205081" fill="rgb(191,191,191)"  stroke="rgb(191,191,191)" stroke-width="1" font-size="16" >H</text>
<text x="274.000000" y="186.564065" fill="rgb(191,191,191)"  stroke="rgb(191,191,191)" stroke-width="1" font-size="16" >H</text>
<text x="239.358984" y="206.564065" fill="rgb(191,191,191)"  stroke="rgb(191,191,191)" stroke-width="1" font-size="16" >H</text>
<text x="348.641016" y="246.564065" fill="rgb(191,191,191)"  stroke="rgb(191,191,191)" stroke-width="1" font-size="16" >H</text>
<text x="314.000000" y="266.564065" fill="rgb(191,191,191)"  stroke="rgb(191,191,191)" stroke-width="1" font-size="16" >H</text>
<text x="334.000000" y="151.923048" fill="rgb(191,191,191)"  stroke="rgb(191,191,191)" stroke-width="1" font-size="16" >H</text>
<text x="134.000000" y="370.487113" fill="rgb(191,191,191)"  stroke="rgb(191,191,191)" stroke-width="1" font-size="16" >H</text>
<text x="408.641016" y="211.923048" fill="rgb(191,191,191)"  stroke="rgb(191,191,191)" stroke-width="1" font-size="16" >H</text>
<text x="374.000000" y="231.923048" fill="rgb(191,191,191)"  stroke="rgb(191,191,191)" stroke-width="1" font-size="16" >H</text>
<text x="394.000000" y="117.282032" fill="rgb(191,191,191)"  stroke="rgb(191,191,191)" stroke-width="1" font-size="16" >H</text>
<text x="359.358984" y="137.282032" fill="rgb(191,191,191)"  stroke="rgb(191,191,191)" stroke-width="1" font-size="16" >H</text>
<text x="468.641016" y="177.282032" fill="rgb(191,191,191)"  stroke="rgb(191,191,191)" stroke-width="1" font-size="16" >H</text>
<text x="434.000000" y="197.282032" fill="rgb(191,191,191)"  stroke="rgb(191,191,191)" stroke-width="1" font-size="16" >H</text>
<text x="454.000000" y="82.641016" fill="rgb(191,191,191)"  stroke="rgb(191,191,191)" stroke-width="1" font-size="16" >H</text>
<text x="419.358984" y="102.641016" fill="rgb(191,191,191)"  stroke="rgb(191,191,191)" stroke-width="1" font-size="16" >H</text>
<text x="528.641016" y="142.641016" fill="rgb(191,191,191)"  stroke="rgb(191,191,191)" stroke-width="1" font-size="16" >H</text>
<text x="494.000000" y="162.641016" fill="rgb(191,191,191)"  stroke="rgb(191,191,191)" stroke-width="1" font-size="16" >H</text>
<text x="514.000000" y="48.000000" fill="rgb(191,191,191)"  stroke="rgb(191,191,191)" stroke-width="1" font-size="16" >H</text>
<text x="479.358984" y="68.000000" fill="rgb(191,191,191)"  stroke="rgb(191,191,191)" stroke-width="1" font-size="16" >H</text>
<text x="554.000000" y="88.000000" fill="rgb(255,127,0)"  stroke="rgb(255,127,0)" stroke-width="1" font-size="16" >P</text>
<text x="554.000000" y="128.000000" fill="rgb(255,12,12)"  stroke="rgb(255,12,12)" stroke-width="1" font-size="16" >O</text>
<text x="594.000000" y="88.000000" fill="rgb(255,12,12)"  stroke="rgb(255,12,12)" stroke-width="1" font-size="16" >OH</text>
<text x="554.000000" y="48.000000" fill="rgb(255,12,12)"  stroke="rgb(255,12,12)" stroke-width="1" font-size="16" >OH</text>
<text x="74.000000" y="405.128129" fill="rgb(191,191,191)"  stroke="rgb(191,191,191)" stroke-width="1" font-size="16" >H</text>
<text x="108.641016" y="385.128129" fill="rgb(191,191,191)"  stroke="rgb(191,191,191)" stroke-width="1" font-size="16" >H</text>
<text x="34.000000" y="365.128129" fill="rgb(191,191,191)"  stroke="rgb(191,191,191)" stroke-width="1" font-size="16" >H</text>
<text x="94.000000" y="290.487113" fill="rgb(191,191,191)"  stroke="rgb(191,191,191)" stroke-width="1" font-size="16" >H</text>
<text x="59.358984" y="310.487113" fill="rgb(191,191,191)"  stroke="rgb(191,191,191)" stroke-width="1" font-size="16" >H</text>
<text x="168.641016" y="350.487113" fill="rgb(191,191,191)"  stroke="rgb(191,191,191)" stroke-width="1" font-size="16" >H</text>
</svg>
</g>
<text font-size="18.000000" fill ="black" font-family="sans-serif"
x="10.000000" y="20.000000" >ZINC79364190</text>
</svg>
