<?xml version="1.0"?>
<svg version="1.1" id="topsvg"
xmlns="http://www.w3.org/2000/svg" xmlns:xlink="http://www.w3.org/1999/xlink"
xmlns:cml="http://www.xml-cml.org/schema" x="0" y="0" width="200px" height="200px" viewBox="0 0 100 100">
<title>ZINC03869386 - Open Babel Depiction</title>
<rect x="0" y="0" width="100" height="100" fill="white"/>
<g transform="translate(0,0)">
<svg width="100" height="100" x="0" y="0" viewBox="0 0 525.677 305.616"
font-family="sans-serif" stroke="rgb(0,0,0)" stroke-width="2"  stroke-linecap="round">
<line x1="313.2" y1="76.6" x2="303.8" y2="52.1" stroke="rgb(0,0,0)"  stroke-width="2.0"/>
<line x1="365.9" y1="119.3" x2="391.8" y2="123.4" stroke="rgb(0,0,0)"  stroke-width="2.0"/>
<line x1="271.9" y1="180.6" x2="207.3" y2="190.8" stroke="rgb(0,0,0)"  stroke-width="2.0"/>
<line x1="312.5" y1="206.2" x2="308.4" y2="232.1" stroke="rgb(0,0,0)"  stroke-width="2.0"/>
<line x1="207.3" y1="190.8" x2="206.2" y2="216.9" stroke="rgb(0,0,0)"  stroke-width="2.0"/>
<polygon points="207.349260 190.785917 203.349260 151.602244 211.349260 151.602244 " stroke-width="2.000000" fill="rgb(0,0,0)"  stroke="rgb(0,0,0)" />
<line x1="207.3" y1="151.6" x2="233.4" y2="148.9" stroke="rgb(0,0,0)"  stroke-width="2.0"/>
<line x1="199.6" y1="149.9" x2="200.1" y2="148.4" stroke="rgb(0,0,0)"  stroke-width="1.0"/>
<line x1="193.5" y1="148.6" x2="194.4" y2="145.9" stroke="rgb(0,0,0)"  stroke-width="1.0"/>
<line x1="187.3" y1="147.3" x2="188.6" y2="143.3" stroke="rgb(0,0,0)"  stroke-width="1.0"/>
<line x1="181.2" y1="146.0" x2="182.8" y2="140.8" stroke="rgb(0,0,0)"  stroke-width="1.0"/>
<line x1="175.0" y1="144.6" x2="177.1" y2="138.2" stroke="rgb(0,0,0)"  stroke-width="1.0"/>
<line x1="168.8" y1="143.3" x2="171.3" y2="135.7" stroke="rgb(0,0,0)"  stroke-width="1.0"/>
<line x1="207.3" y1="151.6" x2="218.0" y2="127.7" stroke="rgb(0,0,0)"  stroke-width="2.0"/>
<line x1="170.1" y1="139.5" x2="175.5" y2="113.9" stroke="rgb(0,0,0)"  stroke-width="2.0"/>
<line x1="166.1" y1="146.3" x2="164.8" y2="145.4" stroke="rgb(0,0,0)"  stroke-width="1.0"/>
<line x1="163.0" y1="151.8" x2="160.6" y2="150.1" stroke="rgb(0,0,0)"  stroke-width="1.0"/>
<line x1="159.8" y1="157.2" x2="156.4" y2="154.8" stroke="rgb(0,0,0)"  stroke-width="1.0"/>
<line x1="156.6" y1="162.6" x2="152.2" y2="159.5" stroke="rgb(0,0,0)"  stroke-width="1.0"/>
<line x1="153.5" y1="168.1" x2="148.0" y2="164.1" stroke="rgb(0,0,0)"  stroke-width="1.0"/>
<line x1="150.3" y1="173.5" x2="143.8" y2="168.8" stroke="rgb(0,0,0)"  stroke-width="1.0"/>
<line x1="170.1" y1="139.5" x2="150.6" y2="122.0" stroke="rgb(0,0,0)"  stroke-width="2.0"/>
<line x1="142.1" y1="169.3" x2="142.9" y2="167.9" stroke="rgb(0,0,0)"  stroke-width="1.0"/>
<line x1="138.1" y1="167.7" x2="139.6" y2="165.2" stroke="rgb(0,0,0)"  stroke-width="1.0"/>
<line x1="134.2" y1="166.2" x2="136.3" y2="162.6" stroke="rgb(0,0,0)"  stroke-width="1.0"/>
<line x1="130.2" y1="164.6" x2="133.0" y2="159.9" stroke="rgb(0,0,0)"  stroke-width="1.0"/>
<line x1="126.3" y1="163.1" x2="129.6" y2="157.3" stroke="rgb(0,0,0)"  stroke-width="1.0"/>
<line x1="122.3" y1="161.5" x2="126.3" y2="154.6" stroke="rgb(0,0,0)"  stroke-width="1.0"/>
<line x1="147.1" y1="171.2" x2="113.1" y2="190.8" stroke="rgb(0,0,0)"  stroke-width="2.0"/>
<line x1="113.1" y1="190.8" x2="90.4" y2="177.7" stroke="rgb(0,0,0)"  stroke-width="2.0"/>
<line x1="113.1" y1="190.8" x2="100.0" y2="213.5" stroke="rgb(0,0,0)"  stroke-width="2.0"/>
<line x1="113.1" y1="190.8" x2="126.2" y2="213.5" stroke="rgb(0,0,0)"  stroke-width="2.0"/>
<line x1="79.2" y1="158.2" x2="79.2" y2="145.0" stroke="rgb(0,0,0)"  stroke-width="2.0"/>
<polygon points="92.114286 132.010407 105.436735 128.010407 105.436735 136.010407 " stroke-width="2.000000" fill="rgb(0,0,0)"  stroke="rgb(0,0,0)" />
<line x1="79.2" y1="119.0" x2="79.2" y2="105.8" stroke="rgb(0,0,0)"  stroke-width="2.0"/>
<line x1="66.2" y1="132.0" x2="53.0" y2="132.0" stroke="rgb(0,0,0)"  stroke-width="2.0"/>
<line x1="90.4" y1="86.3" x2="101.9" y2="79.7" stroke="rgb(0,0,0)"  stroke-width="2.0"/>
<line x1="143.7" y1="100.6" x2="146.4" y2="87.7" stroke="rgb(0,0,0)"  stroke-width="2.0"/>
<line x1="215.6" y1="105.3" x2="207.9" y2="94.6" stroke="rgb(0,0,0)"  stroke-width="2.0"/>
<line x1="409.3" y1="137.6" x2="418.6" y2="162.0" stroke="rgb(0,0,0)"  stroke-width="2.0"/>
<line x1="412.8" y1="115.3" x2="421.1" y2="105.1" stroke="rgb(0,0,0)"  stroke-width="2.0"/>
<polygon points="418.644563 162.002686 395.568690 175.145263 392.701747 167.676620 " stroke-width="2.000000" fill="rgb(0,0,0)"  stroke="rgb(0,0,0)" />
<line x1="418.6" y1="162.0" x2="432.7" y2="198.6" stroke="rgb(0,0,0)"  stroke-width="2.0"/>
<line x1="418.6" y1="162.0" x2="455.2" y2="148.0" stroke="rgb(0,0,0)"  stroke-width="2.0"/>
<line x1="432.7" y1="198.6" x2="408.0" y2="229.0" stroke="rgb(0,0,0)"  stroke-width="2.0"/>
<line x1="432.7" y1="198.6" x2="453.0" y2="215.1" stroke="rgb(0,0,0)"  stroke-width="2.0"/>
<line x1="432.7" y1="198.6" x2="457.1" y2="189.2" stroke="rgb(0,0,0)"  stroke-width="2.0"/>
<line x1="407.6" y1="232.0" x2="381.7" y2="227.9" stroke="rgb(0,0,0)"  stroke-width="2.0"/>
<line x1="408.5" y1="226.1" x2="382.6" y2="222.0" stroke="rgb(0,0,0)"  stroke-width="2.0"/>
<line x1="408.0" y1="229.0" x2="417.4" y2="253.5" stroke="rgb(0,0,0)"  stroke-width="2.0"/>
<line x1="457.1" y1="145.6" x2="477.5" y2="162.1" stroke="rgb(0,0,0)"  stroke-width="2.0"/>
<line x1="453.3" y1="150.3" x2="473.7" y2="166.8" stroke="rgb(0,0,0)"  stroke-width="2.0"/>
<line x1="455.2" y1="148.0" x2="459.3" y2="122.1" stroke="rgb(0,0,0)"  stroke-width="2.0"/>
<line x1="312.5" y1="206.2" x2="293.9" y2="187.7" stroke="rgb(0,0,0)"  stroke-width="2.0"/>
<line x1="290.7" y1="166.9" x2="302.5" y2="143.6" stroke="rgb(0,0,0)"  stroke-width="2.0"/>
<line x1="302.5" y1="143.6" x2="341.2" y2="149.7" stroke="rgb(0,0,0)"  stroke-width="2.0"/>
<line x1="307.3" y1="151.7" x2="334.2" y2="155.9" stroke="rgb(0,0,0)"  stroke-width="2.0"/>
<line x1="341.2" y1="149.7" x2="345.3" y2="175.6" stroke="rgb(0,0,0)"  stroke-width="2.0"/>
<line x1="335.9" y1="194.3" x2="312.5" y2="206.2" stroke="rgb(0,0,0)"  stroke-width="2.0"/>
<line x1="330.7" y1="188.8" x2="314.5" y2="197.1" stroke="rgb(0,0,0)"  stroke-width="2.0"/>
<line x1="365.9" y1="119.3" x2="341.2" y2="149.7" stroke="rgb(0,0,0)"  stroke-width="2.0"/>
<line x1="302.5" y1="143.6" x2="293.2" y2="119.2" stroke="rgb(0,0,0)"  stroke-width="2.0"/>
<line x1="296.6" y1="97.0" x2="313.2" y2="76.6" stroke="rgb(0,0,0)"  stroke-width="2.0"/>
<line x1="303.5" y1="99.9" x2="315.0" y2="85.8" stroke="rgb(0,0,0)"  stroke-width="2.0"/>
<line x1="313.2" y1="76.6" x2="339.0" y2="80.7" stroke="rgb(0,0,0)"  stroke-width="2.0"/>
<line x1="356.5" y1="94.8" x2="365.9" y2="119.3" stroke="rgb(0,0,0)"  stroke-width="2.0"/>
<line x1="350.5" y1="99.3" x2="357.0" y2="116.3" stroke="rgb(0,0,0)"  stroke-width="2.0"/>
<line x1="170.1" y1="139.5" x2="147.1" y2="171.2" stroke="rgb(0,0,0)"  stroke-width="2.0"/>
<line x1="147.1" y1="171.2" x2="162.4" y2="192.4" stroke="rgb(0,0,0)"  stroke-width="2.0"/>
<line x1="182.4" y1="198.9" x2="207.3" y2="190.8" stroke="rgb(0,0,0)"  stroke-width="2.0"/>
<line x1="207.3" y1="190.8" x2="207.3" y2="151.6" stroke="rgb(0,0,0)"  stroke-width="2.0"/>
<line x1="207.3" y1="151.6" x2="170.1" y2="139.5" stroke="rgb(0,0,0)"  stroke-width="2.0"/>
<text x="455.355350" y="117.259256" fill="rgb(255,12,12)"  stroke="rgb(255,12,12)" stroke-width="1" font-size="16" >OH</text>
<text x="134.964228" y="121.274828" fill="rgb(255,12,12)"  stroke="rgb(255,12,12)" stroke-width="1" font-size="16" >O</text>
<text x="217.286696" y="123.806177" fill="rgb(255,12,12)"  stroke="rgb(255,12,12)" stroke-width="1" font-size="16" >O</text>
<text x="398.602390" y="133.421575" fill="rgb(12,12,255)"  stroke="rgb(12,12,255)" stroke-width="1" font-size="16" >N</text>
<text x="376.063452" y="184.044858" fill="rgb(191,191,191)"  stroke="rgb(191,191,191)" stroke-width="1" font-size="16" >H</text>
<text x="363.326393" y="230.905553" fill="rgb(255,12,12)"  stroke="rgb(255,12,12)" stroke-width="1" font-size="16" >O</text>
<text x="416.069823" y="273.616341" fill="rgb(255,12,12)"  stroke="rgb(255,12,12)" stroke-width="1" font-size="16" >OH</text>
<text x="479.677107" y="180.619598" fill="rgb(255,12,12)"  stroke="rgb(255,12,12)" stroke-width="1" font-size="16" >O</text>
<text x="22.000000" y="140.010407" fill="rgb(255,12,12)"  stroke="rgb(255,12,12)" stroke-width="1" font-size="16" >HO</text>
<text x="293.115530" y="48.000000" fill="rgb(191,191,191)"  stroke="rgb(191,191,191)" stroke-width="1" font-size="16" >H</text>
<text x="300.329139" y="252.934862" fill="rgb(191,191,191)"  stroke="rgb(191,191,191)" stroke-width="1" font-size="16" >H</text>
<text x="87.525893" y="232.719974" fill="rgb(191,191,191)"  stroke="rgb(191,191,191)" stroke-width="1" font-size="16" >H</text>
<text x="126.709567" y="232.719974" fill="rgb(191,191,191)"  stroke="rgb(191,191,191)" stroke-width="1" font-size="16" >H</text>
<text x="143.110972" y="82.947412" fill="rgb(191,191,191)"  stroke="rgb(191,191,191)" stroke-width="1" font-size="16" >H</text>
<text x="194.255111" y="92.105919" fill="rgb(191,191,191)"  stroke="rgb(191,191,191)" stroke-width="1" font-size="16" >H</text>
<text x="423.261475" y="102.970142" fill="rgb(191,191,191)"  stroke="rgb(191,191,191)" stroke-width="1" font-size="16" >H</text>
<text x="457.138169" y="231.242881" fill="rgb(191,191,191)"  stroke="rgb(191,191,191)" stroke-width="1" font-size="16" >H</text>
<text x="463.267846" y="192.541624" fill="rgb(191,191,191)"  stroke="rgb(191,191,191)" stroke-width="1" font-size="16" >H</text>
<text x="107.117730" y="81.234897" fill="rgb(191,191,191)"  stroke="rgb(191,191,191)" stroke-width="1" font-size="16" >H</text>
<text x="240.318281" y="155.506435" fill="rgb(191,191,191)"  stroke="rgb(191,191,191)" stroke-width="1" font-size="16" >H</text>
<text x="345.858960" y="90.710788" fill="rgb(12,12,255)"  stroke="rgb(12,12,255)" stroke-width="1" font-size="16" >N</text>
<text x="282.498618" y="115.032544" fill="rgb(12,12,255)"  stroke="rgb(12,12,255)" stroke-width="1" font-size="16" >N</text>
<text x="278.751775" y="186.526563" fill="rgb(12,12,255)"  stroke="rgb(12,12,255)" stroke-width="1" font-size="16" >N</text>
<text x="341.371725" y="196.444589" fill="rgb(12,12,255)"  stroke="rgb(12,12,255)" stroke-width="1" font-size="16" >N</text>
<text x="199.657024" y="237.933032" fill="rgb(191,191,191)"  stroke="rgb(191,191,191)" stroke-width="1" font-size="16" >H</text>
<text x="172.230116" y="109.166407" fill="rgb(191,191,191)"  stroke="rgb(191,191,191)" stroke-width="1" font-size="16" >H</text>
<text x="107.117730" y="159.602244" fill="rgb(191,191,191)"  stroke="rgb(191,191,191)" stroke-width="1" font-size="16" >H</text>
<text x="164.083372" y="210.894338" fill="rgb(255,12,12)"  stroke="rgb(255,12,12)" stroke-width="1" font-size="16" >O</text>
<text x="73.183673" y="179.194081" fill="rgb(255,12,12)"  stroke="rgb(255,12,12)" stroke-width="1" font-size="16" >O</text>
<text x="73.183673" y="140.010407" fill="rgb(255,127,0)"  stroke="rgb(255,127,0)" stroke-width="1" font-size="16" >P</text>
<text x="112.367347" y="140.010407" fill="rgb(255,12,12)"  stroke="rgb(255,12,12)" stroke-width="1" font-size="16" >O</text>
<text x="73.183673" y="100.826734" fill="rgb(255,12,12)"  stroke="rgb(255,12,12)" stroke-width="1" font-size="16" >O</text>
</svg>
</g>
<text font-size="18.000000" fill ="black" font-family="sans-serif"
x="10.000000" y="20.000000" >ZINC03869386</text>
</svg>
