<?xml version="1.0"?>
<svg version="1.1" id="topsvg"
xmlns="http://www.w3.org/2000/svg" xmlns:xlink="http://www.w3.org/1999/xlink"
xmlns:cml="http://www.xml-cml.org/schema" x="0" y="0" width="200px" height="200px" viewBox="0 0 100 100">
<title>ZINC17042174 - Open Babel Depiction</title>
<rect x="0" y="0" width="100" height="100" fill="white"/>
<g transform="translate(0,0)">
<svg width="100" height="100" x="0" y="0" viewBox="0 0 313.636 255.961"
font-family="sans-serif" stroke="rgb(0,0,0)" stroke-width="2"  stroke-linecap="round">
<line x1="225.9" y1="70.7" x2="240.5" y2="50.5" stroke="rgb(0,0,0)"  stroke-width="2.0"/>
<line x1="177.2" y1="109.6" x2="105.1" y2="133.0" stroke="rgb(0,0,0)"  stroke-width="2.0"/>
<line x1="175.4" y1="103.8" x2="103.3" y2="127.3" stroke="rgb(0,0,0)"  stroke-width="2.0"/>
<line x1="104.2" y1="130.1" x2="85.7" y2="113.5" stroke="rgb(0,0,0)"  stroke-width="2.0"/>
<line x1="104.2" y1="130.1" x2="99.0" y2="154.5" stroke="rgb(0,0,0)"  stroke-width="2.0"/>
<line x1="78.7" y1="92.0" x2="81.2" y2="80.4" stroke="rgb(0,0,0)"  stroke-width="2.0"/>
<line x1="63.7" y1="108.8" x2="52.4" y2="112.5" stroke="rgb(0,0,0)"  stroke-width="2.0"/>
<line x1="84.0" y1="171.2" x2="72.6" y2="174.9" stroke="rgb(0,0,0)"  stroke-width="2.0"/>
<line x1="106.0" y1="175.9" x2="114.8" y2="183.8" stroke="rgb(0,0,0)"  stroke-width="2.0"/>
<line x1="57.6" y1="191.6" x2="55.1" y2="203.2" stroke="rgb(0,0,0)"  stroke-width="2.0"/>
<line x1="206.9" y1="129.0" x2="206.9" y2="153.9" stroke="rgb(0,0,0)"  stroke-width="2.0"/>
<line x1="250.0" y1="110.7" x2="261.3" y2="114.4" stroke="rgb(0,0,0)"  stroke-width="2.0"/>
<line x1="195.7" y1="173.4" x2="185.4" y2="179.3" stroke="rgb(0,0,0)"  stroke-width="2.0"/>
<line x1="218.2" y1="173.4" x2="228.5" y2="179.3" stroke="rgb(0,0,0)"  stroke-width="2.0"/>
<line x1="176.3" y1="106.7" x2="206.9" y2="129.0" stroke="rgb(0,0,0)"  stroke-width="2.0"/>
<line x1="206.9" y1="129.0" x2="227.5" y2="114.0" stroke="rgb(0,0,0)"  stroke-width="2.0"/>
<line x1="207.6" y1="119.6" x2="221.5" y2="109.5" stroke="rgb(0,0,0)"  stroke-width="2.0"/>
<line x1="233.6" y1="94.3" x2="225.9" y2="70.7" stroke="rgb(0,0,0)"  stroke-width="2.0"/>
<line x1="225.9" y1="70.7" x2="200.5" y2="70.7" stroke="rgb(0,0,0)"  stroke-width="2.0"/>
<line x1="219.9" y1="77.9" x2="202.7" y2="77.9" stroke="rgb(0,0,0)"  stroke-width="2.0"/>
<line x1="184.0" y1="83.0" x2="176.3" y2="106.7" stroke="rgb(0,0,0)"  stroke-width="2.0"/>
<text x="200.938873" y="174.866227" fill="rgb(12,12,255)"  stroke="rgb(12,12,255)" stroke-width="1" font-size="16" >N</text>
<text x="267.636395" y="126.407640" fill="rgb(191,191,191)"  stroke="rgb(191,191,191)" stroke-width="1" font-size="16" >H</text>
<text x="233.756678" y="193.813595" fill="rgb(191,191,191)"  stroke="rgb(191,191,191)" stroke-width="1" font-size="16" >H</text>
<text x="168.121068" y="193.813595" fill="rgb(191,191,191)"  stroke="rgb(191,191,191)" stroke-width="1" font-size="16" >H</text>
<text x="46.403760" y="223.961167" fill="rgb(191,191,191)"  stroke="rgb(191,191,191)" stroke-width="1" font-size="16" >H</text>
<text x="118.483833" y="200.540932" fill="rgb(191,191,191)"  stroke="rgb(191,191,191)" stroke-width="1" font-size="16" >H</text>
<text x="34.000000" y="124.471347" fill="rgb(191,191,191)"  stroke="rgb(191,191,191)" stroke-width="1" font-size="16" >H</text>
<text x="77.918795" y="75.694584" fill="rgb(191,191,191)"  stroke="rgb(191,191,191)" stroke-width="1" font-size="16" >H</text>
<text x="242.160209" y="48.000000" fill="rgb(191,191,191)"  stroke="rgb(191,191,191)" stroke-width="1" font-size="16" >H</text>
<text x="231.596359" y="114.697523" fill="rgb(12,12,255)"  stroke="rgb(12,12,255)" stroke-width="1" font-size="16" >N</text>
<text x="54.282519" y="186.894521" fill="rgb(255,12,12)"  stroke="rgb(255,12,12)" stroke-width="1" font-size="16" >O</text>
<text x="90.322555" y="175.184404" fill="rgb(12,12,255)"  stroke="rgb(12,12,255)" stroke-width="1" font-size="16" >N</text>
<text x="70.040036" y="112.761230" fill="rgb(12,12,255)"  stroke="rgb(12,12,255)" stroke-width="1" font-size="16" >N</text>
<text x="181.991504" y="78.657486" fill="rgb(12,12,255)"  stroke="rgb(12,12,255)" stroke-width="1" font-size="16" >N</text>
</svg>
</g>
<text font-size="18.000000" fill ="black" font-family="sans-serif"
x="10.000000" y="20.000000" >ZINC17042174</text>
</svg>
