<?xml version="1.0"?>
<svg version="1.1" id="topsvg"
xmlns="http://www.w3.org/2000/svg" xmlns:xlink="http://www.w3.org/1999/xlink"
xmlns:cml="http://www.xml-cml.org/schema" x="0" y="0" width="200px" height="200px" viewBox="0 0 100 100">
<title>ZINC18098320 - Open Babel Depiction</title>
<rect x="0" y="0" width="100" height="100" fill="white"/>
<g transform="translate(0,0)">
<svg width="100" height="100" x="0" y="0" viewBox="0 0 685.199 371.176"
font-family="sans-serif" stroke="rgb(0,0,0)" stroke-width="2"  stroke-linecap="round">
<line x1="510.7" y1="156.5" x2="510.7" y2="182.3" stroke="rgb(0,0,0)"  stroke-width="2.0"/>
<line x1="544.3" y1="137.1" x2="566.7" y2="150.0" stroke="rgb(0,0,0)"  stroke-width="2.0"/>
<line x1="544.3" y1="98.2" x2="566.7" y2="85.3" stroke="rgb(0,0,0)"  stroke-width="2.0"/>
<line x1="510.7" y1="78.8" x2="510.7" y2="53.0" stroke="rgb(0,0,0)"  stroke-width="2.0"/>
<line x1="477.1" y1="98.2" x2="454.7" y2="85.3" stroke="rgb(0,0,0)"  stroke-width="2.0"/>
<line x1="477.1" y1="137.1" x2="454.7" y2="150.0" stroke="rgb(0,0,0)"  stroke-width="2.0"/>
<line x1="578.0" y1="169.5" x2="578.0" y2="195.3" stroke="rgb(0,0,0)"  stroke-width="2.0"/>
<line x1="589.2" y1="150.0" x2="600.3" y2="143.6" stroke="rgb(0,0,0)"  stroke-width="2.0"/>
<line x1="578.0" y1="195.3" x2="522.0" y2="227.6" stroke="rgb(0,0,0)"  stroke-width="2.0"/>
<line x1="579.5" y1="192.7" x2="601.8" y2="205.6" stroke="rgb(0,0,0)"  stroke-width="2.0"/>
<line x1="576.5" y1="197.9" x2="598.8" y2="210.8" stroke="rgb(0,0,0)"  stroke-width="2.0"/>
<line x1="513.7" y1="247.1" x2="513.7" y2="272.9" stroke="rgb(0,0,0)"  stroke-width="2.0"/>
<line x1="507.7" y1="247.1" x2="507.7" y2="272.9" stroke="rgb(0,0,0)"  stroke-width="2.0"/>
<line x1="510.7" y1="272.9" x2="488.3" y2="285.9" stroke="rgb(0,0,0)"  stroke-width="2.0"/>
<line x1="510.7" y1="272.9" x2="533.1" y2="285.9" stroke="rgb(0,0,0)"  stroke-width="2.0"/>
<line x1="465.8" y1="285.9" x2="443.5" y2="272.9" stroke="rgb(0,0,0)"  stroke-width="2.0"/>
<line x1="477.1" y1="305.4" x2="477.1" y2="318.2" stroke="rgb(0,0,0)"  stroke-width="2.0"/>
<line x1="443.5" y1="272.9" x2="409.8" y2="292.4" stroke="rgb(0,0,0)"  stroke-width="2.0"/>
<line x1="443.5" y1="272.9" x2="430.6" y2="250.6" stroke="rgb(0,0,0)"  stroke-width="2.0"/>
<line x1="443.5" y1="272.9" x2="456.4" y2="250.6" stroke="rgb(0,0,0)"  stroke-width="2.0"/>
<line x1="409.8" y1="292.4" x2="376.2" y2="272.9" stroke="rgb(0,0,0)"  stroke-width="2.0"/>
<line x1="409.8" y1="292.4" x2="396.9" y2="314.7" stroke="rgb(0,0,0)"  stroke-width="2.0"/>
<line x1="409.8" y1="292.4" x2="422.8" y2="314.7" stroke="rgb(0,0,0)"  stroke-width="2.0"/>
<line x1="376.2" y1="272.9" x2="342.6" y2="292.4" stroke="rgb(0,0,0)"  stroke-width="2.0"/>
<line x1="376.2" y1="272.9" x2="363.3" y2="250.6" stroke="rgb(0,0,0)"  stroke-width="2.0"/>
<line x1="376.2" y1="272.9" x2="389.1" y2="250.6" stroke="rgb(0,0,0)"  stroke-width="2.0"/>
<line x1="342.6" y1="292.4" x2="309.0" y2="272.9" stroke="rgb(0,0,0)"  stroke-width="2.0"/>
<line x1="342.6" y1="292.4" x2="329.7" y2="314.7" stroke="rgb(0,0,0)"  stroke-width="2.0"/>
<line x1="342.6" y1="292.4" x2="355.5" y2="314.7" stroke="rgb(0,0,0)"  stroke-width="2.0"/>
<line x1="309.0" y1="272.9" x2="275.4" y2="292.4" stroke="rgb(0,0,0)"  stroke-width="2.0"/>
<line x1="309.0" y1="272.9" x2="296.1" y2="250.6" stroke="rgb(0,0,0)"  stroke-width="2.0"/>
<line x1="309.0" y1="272.9" x2="321.9" y2="250.6" stroke="rgb(0,0,0)"  stroke-width="2.0"/>
<line x1="275.4" y1="292.4" x2="253.0" y2="279.4" stroke="rgb(0,0,0)"  stroke-width="2.0"/>
<line x1="275.4" y1="292.4" x2="262.4" y2="314.7" stroke="rgb(0,0,0)"  stroke-width="2.0"/>
<line x1="275.4" y1="292.4" x2="288.3" y2="314.7" stroke="rgb(0,0,0)"  stroke-width="2.0"/>
<line x1="241.7" y1="259.9" x2="241.7" y2="234.1" stroke="rgb(0,0,0)"  stroke-width="2.0"/>
<line x1="230.5" y1="279.4" x2="219.4" y2="285.9" stroke="rgb(0,0,0)"  stroke-width="2.0"/>
<line x1="241.7" y1="234.1" x2="219.4" y2="221.2" stroke="rgb(0,0,0)"  stroke-width="2.0"/>
<line x1="240.2" y1="231.5" x2="262.6" y2="218.6" stroke="rgb(0,0,0)"  stroke-width="2.0"/>
<line x1="243.2" y1="236.7" x2="265.6" y2="223.8" stroke="rgb(0,0,0)"  stroke-width="2.0"/>
<line x1="208.1" y1="201.7" x2="208.1" y2="137.1" stroke="rgb(0,0,0)"  stroke-width="2.0"/>
<line x1="196.9" y1="221.2" x2="185.7" y2="227.6" stroke="rgb(0,0,0)"  stroke-width="2.0"/>
<line x1="206.6" y1="139.7" x2="184.2" y2="126.7" stroke="rgb(0,0,0)"  stroke-width="2.0"/>
<line x1="209.6" y1="134.5" x2="187.2" y2="121.5" stroke="rgb(0,0,0)"  stroke-width="2.0"/>
<line x1="208.1" y1="137.1" x2="230.5" y2="124.1" stroke="rgb(0,0,0)"  stroke-width="2.0"/>
<line x1="163.2" y1="124.1" x2="140.9" y2="137.1" stroke="rgb(0,0,0)"  stroke-width="2.0"/>
<line x1="107.2" y1="117.6" x2="107.2" y2="91.8" stroke="rgb(0,0,0)"  stroke-width="2.0"/>
<line x1="73.6" y1="137.1" x2="51.3" y2="124.1" stroke="rgb(0,0,0)"  stroke-width="2.0"/>
<line x1="73.6" y1="175.9" x2="51.3" y2="188.8" stroke="rgb(0,0,0)"  stroke-width="2.0"/>
<line x1="107.2" y1="195.3" x2="107.2" y2="221.1" stroke="rgb(0,0,0)"  stroke-width="2.0"/>
<line x1="140.9" y1="175.9" x2="163.2" y2="188.8" stroke="rgb(0,0,0)"  stroke-width="2.0"/>
<line x1="241.7" y1="104.6" x2="241.7" y2="91.8" stroke="rgb(0,0,0)"  stroke-width="2.0"/>
<line x1="253.0" y1="124.1" x2="264.1" y2="130.6" stroke="rgb(0,0,0)"  stroke-width="2.0"/>
<line x1="286.6" y1="221.2" x2="297.7" y2="227.6" stroke="rgb(0,0,0)"  stroke-width="2.0"/>
<line x1="544.3" y1="305.4" x2="544.3" y2="318.2" stroke="rgb(0,0,0)"  stroke-width="2.0"/>
<line x1="555.6" y1="285.9" x2="566.7" y2="279.4" stroke="rgb(0,0,0)"  stroke-width="2.0"/>
<line x1="611.6" y1="227.7" x2="611.6" y2="240.5" stroke="rgb(0,0,0)"  stroke-width="2.0"/>
<line x1="622.8" y1="208.2" x2="633.9" y2="201.8" stroke="rgb(0,0,0)"  stroke-width="2.0"/>
<line x1="544.3" y1="98.2" x2="510.7" y2="78.8" stroke="rgb(0,0,0)"  stroke-width="2.0"/>
<line x1="510.7" y1="78.8" x2="477.1" y2="98.2" stroke="rgb(0,0,0)"  stroke-width="2.0"/>
<line x1="509.1" y1="88.1" x2="485.9" y2="101.5" stroke="rgb(0,0,0)"  stroke-width="2.0"/>
<line x1="477.1" y1="98.2" x2="477.1" y2="137.1" stroke="rgb(0,0,0)"  stroke-width="2.0"/>
<line x1="477.1" y1="137.1" x2="510.7" y2="156.5" stroke="rgb(0,0,0)"  stroke-width="2.0"/>
<line x1="485.9" y1="133.8" x2="509.1" y2="147.2" stroke="rgb(0,0,0)"  stroke-width="2.0"/>
<line x1="510.7" y1="156.5" x2="544.3" y2="137.1" stroke="rgb(0,0,0)"  stroke-width="2.0"/>
<line x1="544.3" y1="137.1" x2="544.3" y2="98.2" stroke="rgb(0,0,0)"  stroke-width="2.0"/>
<line x1="537.1" y1="131.1" x2="537.1" y2="104.2" stroke="rgb(0,0,0)"  stroke-width="2.0"/>
<line x1="73.6" y1="137.1" x2="73.6" y2="175.9" stroke="rgb(0,0,0)"  stroke-width="2.0"/>
<line x1="73.6" y1="175.9" x2="107.2" y2="195.3" stroke="rgb(0,0,0)"  stroke-width="2.0"/>
<line x1="82.4" y1="172.6" x2="105.6" y2="186.1" stroke="rgb(0,0,0)"  stroke-width="2.0"/>
<line x1="107.2" y1="195.3" x2="140.9" y2="175.9" stroke="rgb(0,0,0)"  stroke-width="2.0"/>
<line x1="140.9" y1="175.9" x2="140.9" y2="137.1" stroke="rgb(0,0,0)"  stroke-width="2.0"/>
<line x1="133.7" y1="169.9" x2="133.7" y2="143.1" stroke="rgb(0,0,0)"  stroke-width="2.0"/>
<line x1="140.9" y1="137.1" x2="107.2" y2="117.6" stroke="rgb(0,0,0)"  stroke-width="2.0"/>
<line x1="107.2" y1="117.6" x2="73.6" y2="137.1" stroke="rgb(0,0,0)"  stroke-width="2.0"/>
<line x1="105.6" y1="126.9" x2="82.4" y2="140.3" stroke="rgb(0,0,0)"  stroke-width="2.0"/>
<text x="384.432025" y="333.975104" fill="rgb(191,191,191)"  stroke="rgb(191,191,191)" stroke-width="1" font-size="16" >H</text>
<text x="249.943374" y="333.975104" fill="rgb(191,191,191)"  stroke="rgb(191,191,191)" stroke-width="1" font-size="16" >H</text>
<text x="322.389067" y="247.319014" fill="rgb(191,191,191)"  stroke="rgb(191,191,191)" stroke-width="1" font-size="16" >H</text>
<text x="283.565537" y="247.319014" fill="rgb(191,191,191)"  stroke="rgb(191,191,191)" stroke-width="1" font-size="16" >H</text>
<text x="356.011229" y="333.975104" fill="rgb(191,191,191)"  stroke="rgb(191,191,191)" stroke-width="1" font-size="16" >H</text>
<text x="317.187700" y="333.975104" fill="rgb(191,191,191)"  stroke="rgb(191,191,191)" stroke-width="1" font-size="16" >H</text>
<text x="389.633392" y="247.319014" fill="rgb(191,191,191)"  stroke="rgb(191,191,191)" stroke-width="1" font-size="16" >H</text>
<text x="350.809863" y="247.319014" fill="rgb(191,191,191)"  stroke="rgb(191,191,191)" stroke-width="1" font-size="16" >H</text>
<text x="423.255555" y="333.975104" fill="rgb(191,191,191)"  stroke="rgb(191,191,191)" stroke-width="1" font-size="16" >H</text>
<text x="288.766904" y="333.975104" fill="rgb(191,191,191)"  stroke="rgb(191,191,191)" stroke-width="1" font-size="16" >H</text>
<text x="456.877718" y="247.319014" fill="rgb(191,191,191)"  stroke="rgb(191,191,191)" stroke-width="1" font-size="16" >H</text>
<text x="418.054188" y="247.319014" fill="rgb(191,191,191)"  stroke="rgb(191,191,191)" stroke-width="1" font-size="16" >H</text>
<text x="437.465953" y="164.470588" fill="rgb(191,191,191)"  stroke="rgb(191,191,191)" stroke-width="1" font-size="16" >H</text>
<text x="504.710278" y="48.000000" fill="rgb(191,191,191)"  stroke="rgb(191,191,191)" stroke-width="1" font-size="16" >H</text>
<text x="571.954604" y="86.823529" fill="rgb(191,191,191)"  stroke="rgb(191,191,191)" stroke-width="1" font-size="16" >H</text>
<text x="504.710278" y="203.294118" fill="rgb(191,191,191)"  stroke="rgb(191,191,191)" stroke-width="1" font-size="16" >H</text>
<text x="605.576766" y="222.705882" fill="rgb(12,12,255)"  stroke="rgb(12,12,255)" stroke-width="1" font-size="16" >N</text>
<text x="538.332441" y="300.352941" fill="rgb(12,12,255)"  stroke="rgb(12,12,255)" stroke-width="1" font-size="16" >N</text>
<text x="101.244325" y="86.823529" fill="rgb(191,191,191)"  stroke="rgb(191,191,191)" stroke-width="1" font-size="16" >H</text>
<text x="34.000000" y="125.647059" fill="rgb(191,191,191)"  stroke="rgb(191,191,191)" stroke-width="1" font-size="16" >H</text>
<text x="101.244325" y="242.117647" fill="rgb(191,191,191)"  stroke="rgb(191,191,191)" stroke-width="1" font-size="16" >H</text>
<text x="168.488651" y="203.294118" fill="rgb(191,191,191)"  stroke="rgb(191,191,191)" stroke-width="1" font-size="16" >H</text>
<text x="235.732976" y="86.823529" fill="rgb(191,191,191)"  stroke="rgb(191,191,191)" stroke-width="1" font-size="16" >H</text>
<text x="269.355139" y="145.058824" fill="rgb(191,191,191)"  stroke="rgb(191,191,191)" stroke-width="1" font-size="16" >H</text>
<text x="302.977302" y="242.117647" fill="rgb(191,191,191)"  stroke="rgb(191,191,191)" stroke-width="1" font-size="16" >H</text>
<text x="538.332441" y="339.176471" fill="rgb(191,191,191)"  stroke="rgb(191,191,191)" stroke-width="1" font-size="16" >H</text>
<text x="571.954604" y="280.941176" fill="rgb(191,191,191)"  stroke="rgb(191,191,191)" stroke-width="1" font-size="16" >H</text>
<text x="605.576766" y="261.529412" fill="rgb(191,191,191)"  stroke="rgb(191,191,191)" stroke-width="1" font-size="16" >H</text>
<text x="639.198929" y="203.294118" fill="rgb(191,191,191)"  stroke="rgb(191,191,191)" stroke-width="1" font-size="16" >H</text>
<text x="471.088116" y="339.176471" fill="rgb(191,191,191)"  stroke="rgb(191,191,191)" stroke-width="1" font-size="16" >H</text>
<text x="202.110814" y="300.352941" fill="rgb(191,191,191)"  stroke="rgb(191,191,191)" stroke-width="1" font-size="16" >H</text>
<text x="168.488651" y="242.117647" fill="rgb(191,191,191)"  stroke="rgb(191,191,191)" stroke-width="1" font-size="16" >H</text>
<text x="605.576766" y="145.058824" fill="rgb(191,191,191)"  stroke="rgb(191,191,191)" stroke-width="1" font-size="16" >H</text>
<text x="425.465953" y="86.823529" fill="rgb(30,239,30)"  stroke="rgb(30,239,30)" stroke-width="1" font-size="16" >Cl</text>
<text x="571.954604" y="164.470588" fill="rgb(12,12,255)"  stroke="rgb(12,12,255)" stroke-width="1" font-size="16" >N</text>
<text x="504.710278" y="242.117647" fill="rgb(12,12,255)"  stroke="rgb(12,12,255)" stroke-width="1" font-size="16" >N</text>
<text x="471.088116" y="300.352941" fill="rgb(12,12,255)"  stroke="rgb(12,12,255)" stroke-width="1" font-size="16" >N</text>
<text x="235.732976" y="280.941176" fill="rgb(12,12,255)"  stroke="rgb(12,12,255)" stroke-width="1" font-size="16" >N</text>
<text x="202.110814" y="222.705882" fill="rgb(12,12,255)"  stroke="rgb(12,12,255)" stroke-width="1" font-size="16" >N</text>
<text x="168.488651" y="125.647059" fill="rgb(12,12,255)"  stroke="rgb(12,12,255)" stroke-width="1" font-size="16" >N</text>
<text x="22.000000" y="203.294118" fill="rgb(30,239,30)"  stroke="rgb(30,239,30)" stroke-width="1" font-size="16" >Cl</text>
<text x="235.732976" y="125.647059" fill="rgb(12,12,255)"  stroke="rgb(12,12,255)" stroke-width="1" font-size="16" >N</text>
<text x="269.355139" y="222.705882" fill="rgb(12,12,255)"  stroke="rgb(12,12,255)" stroke-width="1" font-size="16" >N</text>
</svg>
</g>
<text font-size="18.000000" fill ="black" font-family="sans-serif"
x="10.000000" y="20.000000" >ZINC18098320</text>
</svg>
