<?xml version="1.0"?>
<svg version="1.1" id="topsvg"
xmlns="http://www.w3.org/2000/svg" xmlns:xlink="http://www.w3.org/1999/xlink"
xmlns:cml="http://www.xml-cml.org/schema" x="0" y="0" width="200px" height="200px" viewBox="0 0 100 100">
<title>ZINC19362693 - Open Babel Depiction</title>
<rect x="0" y="0" width="100" height="100" fill="white"/>
<g transform="translate(0,0)">
<svg width="100" height="100" x="0" y="0" viewBox="0 0 589.975 432.13"
font-family="sans-serif" stroke="rgb(0,0,0)" stroke-width="2"  stroke-linecap="round">
<line x1="482.7" y1="183.6" x2="482.7" y2="209.5" stroke="rgb(0,0,0)"  stroke-width="2.0"/>
<line x1="482.7" y1="183.6" x2="469.7" y2="161.2" stroke="rgb(0,0,0)"  stroke-width="2.0"/>
<line x1="482.7" y1="183.6" x2="456.8" y2="183.6" stroke="rgb(0,0,0)"  stroke-width="2.0"/>
<line x1="482.7" y1="183.6" x2="505.1" y2="170.7" stroke="rgb(0,0,0)"  stroke-width="2.0"/>
<line x1="471.4" y1="229.0" x2="449.0" y2="241.9" stroke="rgb(0,0,0)"  stroke-width="2.0"/>
<line x1="415.4" y1="222.5" x2="415.4" y2="196.6" stroke="rgb(0,0,0)"  stroke-width="2.0"/>
<line x1="381.7" y1="241.9" x2="359.3" y2="229.0" stroke="rgb(0,0,0)"  stroke-width="2.0"/>
<line x1="381.7" y1="280.8" x2="348.1" y2="300.2" stroke="rgb(0,0,0)"  stroke-width="2.0"/>
<line x1="415.4" y1="300.2" x2="415.4" y2="326.1" stroke="rgb(0,0,0)"  stroke-width="2.0"/>
<line x1="449.0" y1="280.8" x2="471.4" y2="293.7" stroke="rgb(0,0,0)"  stroke-width="2.0"/>
<line x1="493.9" y1="293.7" x2="516.3" y2="280.8" stroke="rgb(0,0,0)"  stroke-width="2.0"/>
<line x1="516.3" y1="280.8" x2="529.3" y2="258.4" stroke="rgb(0,0,0)"  stroke-width="2.0"/>
<line x1="516.3" y1="280.8" x2="503.4" y2="258.4" stroke="rgb(0,0,0)"  stroke-width="2.0"/>
<line x1="516.3" y1="280.8" x2="538.7" y2="293.7" stroke="rgb(0,0,0)"  stroke-width="2.0"/>
<line x1="404.1" y1="345.6" x2="381.7" y2="358.5" stroke="rgb(0,0,0)"  stroke-width="2.0"/>
<line x1="381.7" y1="358.5" x2="368.8" y2="380.9" stroke="rgb(0,0,0)"  stroke-width="2.0"/>
<line x1="381.7" y1="358.5" x2="394.6" y2="380.9" stroke="rgb(0,0,0)"  stroke-width="2.0"/>
<line x1="381.7" y1="358.5" x2="359.3" y2="345.6" stroke="rgb(0,0,0)"  stroke-width="2.0"/>
<line x1="348.1" y1="300.2" x2="325.7" y2="287.3" stroke="rgb(0,0,0)"  stroke-width="2.0"/>
<line x1="348.1" y1="300.2" x2="335.1" y2="322.6" stroke="rgb(0,0,0)"  stroke-width="2.0"/>
<line x1="348.1" y1="300.2" x2="361.0" y2="322.6" stroke="rgb(0,0,0)"  stroke-width="2.0"/>
<line x1="314.4" y1="241.9" x2="340.3" y2="241.9" stroke="rgb(0,0,0)"  stroke-width="2.0"/>
<line x1="314.4" y1="241.9" x2="327.3" y2="219.5" stroke="rgb(0,0,0)"  stroke-width="2.0"/>
<line x1="280.8" y1="222.5" x2="293.7" y2="200.1" stroke="rgb(0,0,0)"  stroke-width="2.0"/>
<line x1="280.8" y1="222.5" x2="267.8" y2="200.1" stroke="rgb(0,0,0)"  stroke-width="2.0"/>
<line x1="240.6" y1="230.6" x2="208.3" y2="174.6" stroke="rgb(0,0,0)"  stroke-width="2.0"/>
<line x1="234.1" y1="241.9" x2="221.3" y2="241.9" stroke="rgb(0,0,0)"  stroke-width="2.0"/>
<line x1="247.1" y1="280.8" x2="221.3" y2="280.8" stroke="rgb(0,0,0)"  stroke-width="2.0"/>
<line x1="247.1" y1="280.8" x2="234.2" y2="303.2" stroke="rgb(0,0,0)"  stroke-width="2.0"/>
<line x1="280.8" y1="300.2" x2="267.8" y2="322.6" stroke="rgb(0,0,0)"  stroke-width="2.0"/>
<line x1="280.8" y1="300.2" x2="293.7" y2="322.6" stroke="rgb(0,0,0)"  stroke-width="2.0"/>
<line x1="208.3" y1="174.6" x2="141.0" y2="213.5" stroke="rgb(0,0,0)"  stroke-width="2.0"/>
<line x1="208.3" y1="174.6" x2="188.8" y2="141.0" stroke="rgb(0,0,0)"  stroke-width="2.0"/>
<line x1="208.3" y1="174.6" x2="230.6" y2="161.7" stroke="rgb(0,0,0)"  stroke-width="2.0"/>
<line x1="141.0" y1="252.3" x2="163.3" y2="265.2" stroke="rgb(0,0,0)"  stroke-width="2.0"/>
<line x1="107.3" y1="271.7" x2="107.3" y2="297.6" stroke="rgb(0,0,0)"  stroke-width="2.0"/>
<line x1="73.7" y1="252.3" x2="51.3" y2="265.2" stroke="rgb(0,0,0)"  stroke-width="2.0"/>
<line x1="73.7" y1="213.5" x2="51.3" y2="200.5" stroke="rgb(0,0,0)"  stroke-width="2.0"/>
<line x1="107.3" y1="194.0" x2="107.3" y2="168.2" stroke="rgb(0,0,0)"  stroke-width="2.0"/>
<line x1="150.0" y1="141.0" x2="137.0" y2="163.3" stroke="rgb(0,0,0)"  stroke-width="2.0"/>
<line x1="130.5" y1="107.3" x2="104.7" y2="107.3" stroke="rgb(0,0,0)"  stroke-width="2.0"/>
<line x1="150.0" y1="73.7" x2="137.0" y2="51.3" stroke="rgb(0,0,0)"  stroke-width="2.0"/>
<line x1="188.8" y1="73.7" x2="201.8" y2="51.3" stroke="rgb(0,0,0)"  stroke-width="2.0"/>
<line x1="208.3" y1="107.3" x2="234.1" y2="107.3" stroke="rgb(0,0,0)"  stroke-width="2.0"/>
<line x1="381.7" y1="241.9" x2="381.7" y2="280.8" stroke="rgb(0,0,0)"  stroke-width="2.0"/>
<line x1="381.7" y1="280.8" x2="415.4" y2="300.2" stroke="rgb(0,0,0)"  stroke-width="2.0"/>
<line x1="390.5" y1="277.5" x2="413.8" y2="291.0" stroke="rgb(0,0,0)"  stroke-width="2.0"/>
<line x1="415.4" y1="300.2" x2="449.0" y2="280.8" stroke="rgb(0,0,0)"  stroke-width="2.0"/>
<line x1="449.0" y1="280.8" x2="449.0" y2="241.9" stroke="rgb(0,0,0)"  stroke-width="2.0"/>
<line x1="441.8" y1="274.8" x2="441.8" y2="247.9" stroke="rgb(0,0,0)"  stroke-width="2.0"/>
<line x1="449.0" y1="241.9" x2="415.4" y2="222.5" stroke="rgb(0,0,0)"  stroke-width="2.0"/>
<line x1="415.4" y1="222.5" x2="381.7" y2="241.9" stroke="rgb(0,0,0)"  stroke-width="2.0"/>
<line x1="413.8" y1="231.7" x2="390.5" y2="245.1" stroke="rgb(0,0,0)"  stroke-width="2.0"/>
<line x1="107.3" y1="271.7" x2="73.7" y2="252.3" stroke="rgb(0,0,0)"  stroke-width="2.0"/>
<line x1="73.7" y1="252.3" x2="73.7" y2="213.5" stroke="rgb(0,0,0)"  stroke-width="2.0"/>
<line x1="80.9" y1="246.3" x2="80.9" y2="219.5" stroke="rgb(0,0,0)"  stroke-width="2.0"/>
<line x1="73.7" y1="213.5" x2="107.3" y2="194.0" stroke="rgb(0,0,0)"  stroke-width="2.0"/>
<line x1="107.3" y1="194.0" x2="141.0" y2="213.5" stroke="rgb(0,0,0)"  stroke-width="2.0"/>
<line x1="108.9" y1="203.3" x2="132.2" y2="216.7" stroke="rgb(0,0,0)"  stroke-width="2.0"/>
<line x1="141.0" y1="213.5" x2="141.0" y2="252.3" stroke="rgb(0,0,0)"  stroke-width="2.0"/>
<line x1="141.0" y1="252.3" x2="107.3" y2="271.7" stroke="rgb(0,0,0)"  stroke-width="2.0"/>
<line x1="132.2" y1="249.1" x2="108.9" y2="262.5" stroke="rgb(0,0,0)"  stroke-width="2.0"/>
<line x1="130.5" y1="107.3" x2="150.0" y2="73.7" stroke="rgb(0,0,0)"  stroke-width="2.0"/>
<line x1="150.0" y1="73.7" x2="188.8" y2="73.7" stroke="rgb(0,0,0)"  stroke-width="2.0"/>
<line x1="156.0" y1="80.9" x2="182.8" y2="80.9" stroke="rgb(0,0,0)"  stroke-width="2.0"/>
<line x1="188.8" y1="73.7" x2="208.3" y2="107.3" stroke="rgb(0,0,0)"  stroke-width="2.0"/>
<line x1="208.3" y1="107.3" x2="188.8" y2="141.0" stroke="rgb(0,0,0)"  stroke-width="2.0"/>
<line x1="199.0" y1="108.9" x2="185.6" y2="132.2" stroke="rgb(0,0,0)"  stroke-width="2.0"/>
<line x1="188.8" y1="141.0" x2="150.0" y2="141.0" stroke="rgb(0,0,0)"  stroke-width="2.0"/>
<line x1="150.0" y1="141.0" x2="130.5" y2="107.3" stroke="rgb(0,0,0)"  stroke-width="2.0"/>
<line x1="153.2" y1="132.2" x2="139.8" y2="108.9" stroke="rgb(0,0,0)"  stroke-width="2.0"/>
<line x1="280.8" y1="222.5" x2="258.4" y2="235.4" stroke="rgb(0,0,0)"  stroke-width="2.0"/>
<line x1="247.1" y1="254.9" x2="247.1" y2="280.8" stroke="rgb(0,0,0)"  stroke-width="2.0"/>
<line x1="247.1" y1="280.8" x2="280.8" y2="300.2" stroke="rgb(0,0,0)"  stroke-width="2.0"/>
<line x1="280.8" y1="300.2" x2="303.2" y2="287.3" stroke="rgb(0,0,0)"  stroke-width="2.0"/>
<line x1="314.4" y1="267.8" x2="314.4" y2="241.9" stroke="rgb(0,0,0)"  stroke-width="2.0"/>
<line x1="314.4" y1="241.9" x2="280.8" y2="222.5" stroke="rgb(0,0,0)"  stroke-width="2.0"/>
<text x="490.895118" y="255.113507" fill="rgb(191,191,191)"  stroke="rgb(191,191,191)" stroke-width="1" font-size="16" >H</text>
<text x="327.844624" y="216.256364" fill="rgb(191,191,191)"  stroke="rgb(191,191,191)" stroke-width="1" font-size="16" >H</text>
<text x="347.273196" y="249.907637" fill="rgb(191,191,191)"  stroke="rgb(191,191,191)" stroke-width="1" font-size="16" >H</text>
<text x="361.495897" y="341.844624" fill="rgb(191,191,191)"  stroke="rgb(191,191,191)" stroke-width="1" font-size="16" >H</text>
<text x="322.638754" y="341.844624" fill="rgb(191,191,191)"  stroke="rgb(191,191,191)" stroke-width="1" font-size="16" >H</text>
<text x="342.067326" y="347.050494" fill="rgb(191,191,191)"  stroke="rgb(191,191,191)" stroke-width="1" font-size="16" >H</text>
<text x="395.147170" y="400.130338" fill="rgb(191,191,191)"  stroke="rgb(191,191,191)" stroke-width="1" font-size="16" >H</text>
<text x="356.290027" y="400.130338" fill="rgb(191,191,191)"  stroke="rgb(191,191,191)" stroke-width="1" font-size="16" >H</text>
<text x="543.974963" y="308.193351" fill="rgb(191,191,191)"  stroke="rgb(191,191,191)" stroke-width="1" font-size="16" >H</text>
<text x="294.193351" y="196.827793" fill="rgb(191,191,191)"  stroke="rgb(191,191,191)" stroke-width="1" font-size="16" >H</text>
<text x="529.752261" y="255.113507" fill="rgb(191,191,191)"  stroke="rgb(191,191,191)" stroke-width="1" font-size="16" >H</text>
<text x="342.067326" y="230.479066" fill="rgb(191,191,191)"  stroke="rgb(191,191,191)" stroke-width="1" font-size="16" >H</text>
<text x="409.369871" y="191.621923" fill="rgb(191,191,191)"  stroke="rgb(191,191,191)" stroke-width="1" font-size="16" >H</text>
<text x="510.323690" y="172.193351" fill="rgb(191,191,191)"  stroke="rgb(191,191,191)" stroke-width="1" font-size="16" >H</text>
<text x="437.815274" y="191.621923" fill="rgb(191,191,191)"  stroke="rgb(191,191,191)" stroke-width="1" font-size="16" >H</text>
<text x="457.243845" y="157.970650" fill="rgb(191,191,191)"  stroke="rgb(191,191,191)" stroke-width="1" font-size="16" >H</text>
<text x="124.542078" y="48.000000" fill="rgb(127,178,255)"  stroke="rgb(127,178,255)" stroke-width="1" font-size="16" >F</text>
<text x="255.336208" y="196.827793" fill="rgb(191,191,191)"  stroke="rgb(191,191,191)" stroke-width="1" font-size="16" >H</text>
<text x="202.256364" y="288.764780" fill="rgb(191,191,191)"  stroke="rgb(191,191,191)" stroke-width="1" font-size="16" >H</text>
<text x="221.684936" y="322.416053" fill="rgb(191,191,191)"  stroke="rgb(191,191,191)" stroke-width="1" font-size="16" >H</text>
<text x="255.336208" y="341.844624" fill="rgb(191,191,191)"  stroke="rgb(191,191,191)" stroke-width="1" font-size="16" >H</text>
<text x="294.193351" y="341.844624" fill="rgb(191,191,191)"  stroke="rgb(191,191,191)" stroke-width="1" font-size="16" >H</text>
<text x="235.907637" y="163.176520" fill="rgb(191,191,191)"  stroke="rgb(191,191,191)" stroke-width="1" font-size="16" >H</text>
<text x="168.605091" y="279.747948" fill="rgb(191,191,191)"  stroke="rgb(191,191,191)" stroke-width="1" font-size="16" >H</text>
<text x="101.302546" y="318.605091" fill="rgb(191,191,191)"  stroke="rgb(191,191,191)" stroke-width="1" font-size="16" >H</text>
<text x="34.000000" y="202.033663" fill="rgb(191,191,191)"  stroke="rgb(191,191,191)" stroke-width="1" font-size="16" >H</text>
<text x="101.302546" y="163.176520" fill="rgb(191,191,191)"  stroke="rgb(191,191,191)" stroke-width="1" font-size="16" >H</text>
<text x="124.542078" y="182.605091" fill="rgb(191,191,191)"  stroke="rgb(191,191,191)" stroke-width="1" font-size="16" >H</text>
<text x="85.684936" y="115.302546" fill="rgb(191,191,191)"  stroke="rgb(191,191,191)" stroke-width="1" font-size="16" >H</text>
<text x="202.256364" y="48.000000" fill="rgb(191,191,191)"  stroke="rgb(191,191,191)" stroke-width="1" font-size="16" >H</text>
<text x="241.113507" y="115.302546" fill="rgb(191,191,191)"  stroke="rgb(191,191,191)" stroke-width="1" font-size="16" >H</text>
<text x="202.256364" y="249.907637" fill="rgb(191,191,191)"  stroke="rgb(191,191,191)" stroke-width="1" font-size="16" >H</text>
<text x="251.913507" y="237.875637" fill="rgb(12,12,255)"  stroke="rgb(12,12,255)" stroke-width="1" font-size="16" >+</text>
<text x="241.113507" y="249.907637" fill="rgb(12,12,255)"  stroke="rgb(12,12,255)" stroke-width="1" font-size="16" >N</text>
<text x="476.672417" y="230.479066" fill="rgb(255,12,12)"  stroke="rgb(255,12,12)" stroke-width="1" font-size="16" >O</text>
<text x="476.672417" y="308.193351" fill="rgb(255,12,12)"  stroke="rgb(255,12,12)" stroke-width="1" font-size="16" >O</text>
<text x="409.369871" y="347.050494" fill="rgb(255,12,12)"  stroke="rgb(255,12,12)" stroke-width="1" font-size="16" >O</text>
<text x="308.416053" y="288.764780" fill="rgb(12,12,255)"  stroke="rgb(12,12,255)" stroke-width="1" font-size="16" >N</text>
<text x="34.000000" y="279.747948" fill="rgb(127,178,255)"  stroke="rgb(127,178,255)" stroke-width="1" font-size="16" >F</text>
</svg>
</g>
<text font-size="18.000000" fill ="black" font-family="sans-serif"
x="10.000000" y="20.000000" >ZINC19362693</text>
</svg>
