<?xml version="1.0"?>
<svg version="1.1" id="topsvg"
xmlns="http://www.w3.org/2000/svg" xmlns:xlink="http://www.w3.org/1999/xlink"
xmlns:cml="http://www.xml-cml.org/schema" x="0" y="0" width="200px" height="200px" viewBox="0 0 100 100">
<title>ZINC71769592 - Open Babel Depiction</title>
<rect x="0" y="0" width="100" height="100" fill="white"/>
<g transform="translate(0,0)">
<svg width="100" height="100" x="0" y="0" viewBox="0 0 445.895 429.087"
font-family="sans-serif" stroke="rgb(0,0,0)" stroke-width="2"  stroke-linecap="round">
<line x1="259.5" y1="262.3" x2="228.2" y2="280.4" stroke="rgb(0,0,0)"  stroke-width="2.0"/>
<line x1="259.5" y1="262.3" x2="271.2" y2="242.2" stroke="rgb(0,0,0)"  stroke-width="2.0"/>
<line x1="259.5" y1="262.3" x2="247.9" y2="242.2" stroke="rgb(0,0,0)"  stroke-width="2.0"/>
<line x1="259.5" y1="262.3" x2="279.7" y2="273.9" stroke="rgb(0,0,0)"  stroke-width="2.0"/>
<line x1="228.2" y1="280.4" x2="246.3" y2="311.8" stroke="rgb(0,0,0)"  stroke-width="2.0"/>
<line x1="228.2" y1="280.4" x2="196.8" y2="298.5" stroke="rgb(0,0,0)"  stroke-width="2.0"/>
<line x1="228.2" y1="280.4" x2="216.6" y2="260.3" stroke="rgb(0,0,0)"  stroke-width="2.0"/>
<line x1="246.3" y1="311.8" x2="246.3" y2="335.0" stroke="rgb(0,0,0)"  stroke-width="2.0"/>
<line x1="246.3" y1="311.8" x2="226.2" y2="323.4" stroke="rgb(0,0,0)"  stroke-width="2.0"/>
<line x1="246.3" y1="311.8" x2="269.5" y2="311.8" stroke="rgb(0,0,0)"  stroke-width="2.0"/>
<line x1="196.8" y1="334.8" x2="216.9" y2="346.4" stroke="rgb(0,0,0)"  stroke-width="2.0"/>
<line x1="165.5" y1="352.9" x2="165.5" y2="376.1" stroke="rgb(0,0,0)"  stroke-width="2.0"/>
<line x1="134.1" y1="334.8" x2="114.0" y2="346.4" stroke="rgb(0,0,0)"  stroke-width="2.0"/>
<line x1="134.1" y1="298.5" x2="102.7" y2="280.4" stroke="rgb(0,0,0)"  stroke-width="2.0"/>
<line x1="165.5" y1="280.4" x2="165.5" y2="221.0" stroke="rgb(0,0,0)"  stroke-width="2.0"/>
<line x1="178.5" y1="208.0" x2="310.3" y2="208.0" stroke="rgb(0,0,0)"  stroke-width="2.0"/>
<line x1="165.5" y1="195.0" x2="165.5" y2="135.6" stroke="rgb(0,0,0)"  stroke-width="2.0"/>
<line x1="152.5" y1="208.0" x2="142.2" y2="208.0" stroke="rgb(0,0,0)"  stroke-width="2.0"/>
<line x1="310.3" y1="208.0" x2="319.2" y2="229.5" stroke="rgb(0,0,0)"  stroke-width="2.0"/>
<line x1="300.9" y1="173.0" x2="278.5" y2="179.0" stroke="rgb(0,0,0)"  stroke-width="2.0"/>
<line x1="300.9" y1="173.0" x2="284.5" y2="156.6" stroke="rgb(0,0,0)"  stroke-width="2.0"/>
<line x1="326.6" y1="147.4" x2="310.1" y2="131.0" stroke="rgb(0,0,0)"  stroke-width="2.0"/>
<line x1="326.6" y1="147.4" x2="332.6" y2="125.0" stroke="rgb(0,0,0)"  stroke-width="2.0"/>
<line x1="361.5" y1="156.8" x2="367.5" y2="134.4" stroke="rgb(0,0,0)"  stroke-width="2.0"/>
<line x1="361.5" y1="156.8" x2="384.0" y2="150.8" stroke="rgb(0,0,0)"  stroke-width="2.0"/>
<line x1="370.9" y1="191.8" x2="393.3" y2="185.8" stroke="rgb(0,0,0)"  stroke-width="2.0"/>
<line x1="370.9" y1="191.8" x2="387.3" y2="208.2" stroke="rgb(0,0,0)"  stroke-width="2.0"/>
<line x1="345.3" y1="217.4" x2="361.7" y2="233.8" stroke="rgb(0,0,0)"  stroke-width="2.0"/>
<line x1="345.3" y1="217.4" x2="329.9" y2="274.8" stroke="rgb(0,0,0)"  stroke-width="2.0"/>
<line x1="165.5" y1="135.6" x2="220.4" y2="112.8" stroke="rgb(0,0,0)"  stroke-width="2.0"/>
<line x1="130.5" y1="144.9" x2="136.5" y2="167.4" stroke="rgb(0,0,0)"  stroke-width="2.0"/>
<line x1="130.5" y1="144.9" x2="114.1" y2="161.4" stroke="rgb(0,0,0)"  stroke-width="2.0"/>
<line x1="104.9" y1="119.3" x2="88.4" y2="135.8" stroke="rgb(0,0,0)"  stroke-width="2.0"/>
<line x1="104.9" y1="119.3" x2="82.4" y2="113.3" stroke="rgb(0,0,0)"  stroke-width="2.0"/>
<line x1="114.2" y1="84.4" x2="91.8" y2="78.3" stroke="rgb(0,0,0)"  stroke-width="2.0"/>
<line x1="114.2" y1="84.4" x2="108.2" y2="61.9" stroke="rgb(0,0,0)"  stroke-width="2.0"/>
<line x1="149.2" y1="75.0" x2="143.2" y2="52.6" stroke="rgb(0,0,0)"  stroke-width="2.0"/>
<line x1="149.2" y1="75.0" x2="165.6" y2="58.6" stroke="rgb(0,0,0)"  stroke-width="2.0"/>
<line x1="174.8" y1="100.6" x2="191.2" y2="84.2" stroke="rgb(0,0,0)"  stroke-width="2.0"/>
<line x1="174.8" y1="100.6" x2="197.3" y2="106.6" stroke="rgb(0,0,0)"  stroke-width="2.0"/>
<line x1="102.7" y1="280.4" x2="84.6" y2="311.8" stroke="rgb(0,0,0)"  stroke-width="2.0"/>
<line x1="102.7" y1="280.4" x2="71.4" y2="262.3" stroke="rgb(0,0,0)"  stroke-width="2.0"/>
<line x1="102.7" y1="280.4" x2="114.3" y2="260.3" stroke="rgb(0,0,0)"  stroke-width="2.0"/>
<line x1="84.6" y1="311.8" x2="84.6" y2="335.0" stroke="rgb(0,0,0)"  stroke-width="2.0"/>
<line x1="84.6" y1="311.8" x2="104.7" y2="323.4" stroke="rgb(0,0,0)"  stroke-width="2.0"/>
<line x1="84.6" y1="311.8" x2="61.4" y2="311.8" stroke="rgb(0,0,0)"  stroke-width="2.0"/>
<line x1="71.4" y1="262.3" x2="59.8" y2="242.2" stroke="rgb(0,0,0)"  stroke-width="2.0"/>
<line x1="71.4" y1="262.3" x2="83.0" y2="242.2" stroke="rgb(0,0,0)"  stroke-width="2.0"/>
<line x1="71.4" y1="262.3" x2="51.3" y2="273.9" stroke="rgb(0,0,0)"  stroke-width="2.0"/>
<line x1="165.5" y1="352.9" x2="134.1" y2="334.8" stroke="rgb(0,0,0)"  stroke-width="2.0"/>
<line x1="134.1" y1="334.8" x2="134.1" y2="298.5" stroke="rgb(0,0,0)"  stroke-width="2.0"/>
<line x1="141.3" y1="328.8" x2="141.3" y2="304.5" stroke="rgb(0,0,0)"  stroke-width="2.0"/>
<line x1="134.1" y1="298.5" x2="165.5" y2="280.4" stroke="rgb(0,0,0)"  stroke-width="2.0"/>
<line x1="165.5" y1="280.4" x2="196.8" y2="298.5" stroke="rgb(0,0,0)"  stroke-width="2.0"/>
<line x1="167.1" y1="289.7" x2="188.0" y2="301.8" stroke="rgb(0,0,0)"  stroke-width="2.0"/>
<line x1="196.8" y1="298.5" x2="196.8" y2="334.8" stroke="rgb(0,0,0)"  stroke-width="2.0"/>
<line x1="196.8" y1="334.8" x2="165.5" y2="352.9" stroke="rgb(0,0,0)"  stroke-width="2.0"/>
<line x1="188.0" y1="331.5" x2="167.1" y2="343.6" stroke="rgb(0,0,0)"  stroke-width="2.0"/>
<line x1="326.6" y1="147.4" x2="361.5" y2="156.8" stroke="rgb(0,0,0)"  stroke-width="2.0"/>
<line x1="361.5" y1="156.8" x2="370.9" y2="191.8" stroke="rgb(0,0,0)"  stroke-width="2.0"/>
<line x1="370.9" y1="191.8" x2="345.3" y2="217.4" stroke="rgb(0,0,0)"  stroke-width="2.0"/>
<line x1="345.3" y1="217.4" x2="310.3" y2="208.0" stroke="rgb(0,0,0)"  stroke-width="2.0"/>
<line x1="310.3" y1="208.0" x2="300.9" y2="173.0" stroke="rgb(0,0,0)"  stroke-width="2.0"/>
<line x1="300.9" y1="173.0" x2="326.6" y2="147.4" stroke="rgb(0,0,0)"  stroke-width="2.0"/>
<line x1="104.9" y1="119.3" x2="114.2" y2="84.4" stroke="rgb(0,0,0)"  stroke-width="2.0"/>
<line x1="114.2" y1="84.4" x2="149.2" y2="75.0" stroke="rgb(0,0,0)"  stroke-width="2.0"/>
<line x1="149.2" y1="75.0" x2="174.8" y2="100.6" stroke="rgb(0,0,0)"  stroke-width="2.0"/>
<line x1="174.8" y1="100.6" x2="165.5" y2="135.6" stroke="rgb(0,0,0)"  stroke-width="2.0"/>
<line x1="165.5" y1="135.6" x2="130.5" y2="144.9" stroke="rgb(0,0,0)"  stroke-width="2.0"/>
<line x1="130.5" y1="144.9" x2="104.9" y2="119.3" stroke="rgb(0,0,0)"  stroke-width="2.0"/>
<text x="364.912429" y="129.805879" fill="rgb(191,191,191)"  stroke="rgb(191,191,191)" stroke-width="1" font-size="16" >H</text>
<text x="98.865742" y="178.555268" fill="rgb(191,191,191)"  stroke="rgb(191,191,191)" stroke-width="1" font-size="16" >H</text>
<text x="133.847921" y="187.928714" fill="rgb(191,191,191)"  stroke="rgb(191,191,191)" stroke-width="1" font-size="16" >H</text>
<text x="226.375495" y="115.854397" fill="rgb(191,191,191)"  stroke="rgb(191,191,191)" stroke-width="1" font-size="16" >H</text>
<text x="320.556804" y="295.343325" fill="rgb(191,191,191)"  stroke="rgb(191,191,191)" stroke-width="1" font-size="16" >H</text>
<text x="364.912429" y="250.987700" fill="rgb(191,191,191)"  stroke="rgb(191,191,191)" stroke-width="1" font-size="16" >H</text>
<text x="390.521161" y="225.378968" fill="rgb(191,191,191)"  stroke="rgb(191,191,191)" stroke-width="1" font-size="16" >H</text>
<text x="399.894607" y="190.396790" fill="rgb(191,191,191)"  stroke="rgb(191,191,191)" stroke-width="1" font-size="16" >H</text>
<text x="390.521161" y="155.414611" fill="rgb(191,191,191)"  stroke="rgb(191,191,191)" stroke-width="1" font-size="16" >H</text>
<text x="73.257010" y="152.946536" fill="rgb(191,191,191)"  stroke="rgb(191,191,191)" stroke-width="1" font-size="16" >H</text>
<text x="329.930250" y="120.432432" fill="rgb(191,191,191)"  stroke="rgb(191,191,191)" stroke-width="1" font-size="16" >H</text>
<text x="294.948071" y="129.805879" fill="rgb(191,191,191)"  stroke="rgb(191,191,191)" stroke-width="1" font-size="16" >H</text>
<text x="269.339339" y="155.414611" fill="rgb(191,191,191)"  stroke="rgb(191,191,191)" stroke-width="1" font-size="16" >H</text>
<text x="259.965893" y="190.396790" fill="rgb(191,191,191)"  stroke="rgb(191,191,191)" stroke-width="1" font-size="16" >H</text>
<text x="318.180864" y="249.464943" fill="rgb(191,191,191)"  stroke="rgb(191,191,191)" stroke-width="1" font-size="16" >H</text>
<text x="96.728327" y="360.870387" fill="rgb(191,191,191)"  stroke="rgb(191,191,191)" stroke-width="1" font-size="16" >H</text>
<text x="159.456653" y="397.086603" fill="rgb(191,191,191)"  stroke="rgb(191,191,191)" stroke-width="1" font-size="16" >H</text>
<text x="222.184980" y="360.870387" fill="rgb(191,191,191)"  stroke="rgb(191,191,191)" stroke-width="1" font-size="16" >H</text>
<text x="63.883564" y="117.964357" fill="rgb(191,191,191)"  stroke="rgb(191,191,191)" stroke-width="1" font-size="16" >H</text>
<text x="73.257010" y="82.982179" fill="rgb(191,191,191)"  stroke="rgb(191,191,191)" stroke-width="1" font-size="16" >H</text>
<text x="98.865742" y="57.373446" fill="rgb(191,191,191)"  stroke="rgb(191,191,191)" stroke-width="1" font-size="16" >H</text>
<text x="133.847921" y="48.000000" fill="rgb(191,191,191)"  stroke="rgb(191,191,191)" stroke-width="1" font-size="16" >H</text>
<text x="168.830100" y="57.373446" fill="rgb(191,191,191)"  stroke="rgb(191,191,191)" stroke-width="1" font-size="16" >H</text>
<text x="194.438832" y="82.982179" fill="rgb(191,191,191)"  stroke="rgb(191,191,191)" stroke-width="1" font-size="16" >H</text>
<text x="203.812278" y="117.964357" fill="rgb(191,191,191)"  stroke="rgb(191,191,191)" stroke-width="1" font-size="16" >H</text>
<text x="114.836435" y="257.073791" fill="rgb(191,191,191)"  stroke="rgb(191,191,191)" stroke-width="1" font-size="16" >H</text>
<text x="78.620218" y="356.018334" fill="rgb(191,191,191)"  stroke="rgb(191,191,191)" stroke-width="1" font-size="16" >H</text>
<text x="109.984382" y="337.910225" fill="rgb(191,191,191)"  stroke="rgb(191,191,191)" stroke-width="1" font-size="16" >H</text>
<text x="42.404002" y="319.802117" fill="rgb(191,191,191)"  stroke="rgb(191,191,191)" stroke-width="1" font-size="16" >H</text>
<text x="47.256055" y="238.965683" fill="rgb(191,191,191)"  stroke="rgb(191,191,191)" stroke-width="1" font-size="16" >H</text>
<text x="83.472271" y="238.965683" fill="rgb(191,191,191)"  stroke="rgb(191,191,191)" stroke-width="1" font-size="16" >H</text>
<text x="34.000000" y="288.437954" fill="rgb(191,191,191)"  stroke="rgb(191,191,191)" stroke-width="1" font-size="16" >H</text>
<text x="123.240437" y="216.005522" fill="rgb(191,191,191)"  stroke="rgb(191,191,191)" stroke-width="1" font-size="16" >H</text>
<text x="159.456653" y="216.005522" fill="rgb(255,127,0)"  stroke="rgb(255,127,0)" stroke-width="1" font-size="16" >P</text>
<text x="271.657251" y="238.965683" fill="rgb(191,191,191)"  stroke="rgb(191,191,191)" stroke-width="1" font-size="16" >H</text>
<text x="235.441035" y="238.965683" fill="rgb(191,191,191)"  stroke="rgb(191,191,191)" stroke-width="1" font-size="16" >H</text>
<text x="284.913306" y="288.437954" fill="rgb(191,191,191)"  stroke="rgb(191,191,191)" stroke-width="1" font-size="16" >H</text>
<text x="204.076872" y="257.073791" fill="rgb(191,191,191)"  stroke="rgb(191,191,191)" stroke-width="1" font-size="16" >H</text>
<text x="240.293088" y="356.018334" fill="rgb(191,191,191)"  stroke="rgb(191,191,191)" stroke-width="1" font-size="16" >H</text>
<text x="208.928924" y="337.910225" fill="rgb(191,191,191)"  stroke="rgb(191,191,191)" stroke-width="1" font-size="16" >H</text>
<text x="276.509304" y="319.802117" fill="rgb(191,191,191)"  stroke="rgb(191,191,191)" stroke-width="1" font-size="16" >H</text>
</svg>
</g>
<text font-size="18.000000" fill ="black" font-family="sans-serif"
x="10.000000" y="20.000000" >ZINC71769592</text>
</svg>
