<?xml version="1.0"?>
<svg version="1.1" id="topsvg"
xmlns="http://www.w3.org/2000/svg" xmlns:xlink="http://www.w3.org/1999/xlink"
xmlns:cml="http://www.xml-cml.org/schema" x="0" y="0" width="200px" height="200px" viewBox="0 0 100 100">
<title>ZINC01532072 - Open Babel Depiction</title>
<rect x="0" y="0" width="100" height="100" fill="white"/>
<g transform="translate(0,0)">
<svg width="100" height="100" x="0" y="0" viewBox="0 0 538.564 482.487"
font-family="sans-serif" stroke="rgb(0,0,0)" stroke-width="2"  stroke-linecap="round">
<line x1="53.0" y1="269.3" x2="80.0" y2="269.3" stroke="rgb(0,0,0)"  stroke-width="2.0"/>
<line x1="80.0" y1="269.3" x2="103.4" y2="255.8" stroke="rgb(0,0,0)"  stroke-width="2.0"/>
<line x1="80.0" y1="269.3" x2="80.0" y2="242.3" stroke="rgb(0,0,0)"  stroke-width="2.0"/>
<line x1="80.0" y1="269.3" x2="93.5" y2="292.7" stroke="rgb(0,0,0)"  stroke-width="2.0"/>
<line x1="113.0" y1="303.9" x2="140.0" y2="303.9" stroke="rgb(0,0,0)"  stroke-width="2.0"/>
<line x1="160.0" y1="338.6" x2="146.5" y2="361.9" stroke="rgb(0,0,0)"  stroke-width="2.0"/>
<line x1="200.0" y1="338.6" x2="213.5" y2="361.9" stroke="rgb(0,0,0)"  stroke-width="2.0"/>
<line x1="200.0" y1="269.3" x2="213.5" y2="245.9" stroke="rgb(0,0,0)"  stroke-width="2.0"/>
<line x1="233.0" y1="234.6" x2="260.0" y2="234.6" stroke="rgb(0,0,0)"  stroke-width="2.0"/>
<line x1="213.5" y1="223.4" x2="206.5" y2="211.3" stroke="rgb(0,0,0)"  stroke-width="2.0"/>
<line x1="260.0" y1="234.6" x2="273.5" y2="258.0" stroke="rgb(0,0,0)"  stroke-width="2.0"/>
<line x1="257.4" y1="233.1" x2="270.9" y2="209.8" stroke="rgb(0,0,0)"  stroke-width="2.0"/>
<line x1="262.6" y1="236.1" x2="276.1" y2="212.8" stroke="rgb(0,0,0)"  stroke-width="2.0"/>
<line x1="293.0" y1="200.0" x2="307.0" y2="200.0" stroke="rgb(0,0,0)"  stroke-width="2.0"/>
<line x1="323.0" y1="213.0" x2="323.0" y2="227.0" stroke="rgb(0,0,0)"  stroke-width="2.0"/>
<line x1="317.0" y1="213.0" x2="317.0" y2="227.0" stroke="rgb(0,0,0)"  stroke-width="2.0"/>
<line x1="333.0" y1="197.0" x2="347.0" y2="197.0" stroke="rgb(0,0,0)"  stroke-width="2.0"/>
<line x1="333.0" y1="203.0" x2="347.0" y2="203.0" stroke="rgb(0,0,0)"  stroke-width="2.0"/>
<line x1="320.0" y1="187.0" x2="320.0" y2="160.0" stroke="rgb(0,0,0)"  stroke-width="2.0"/>
<line x1="354.6" y1="140.0" x2="389.3" y2="160.0" stroke="rgb(0,0,0)"  stroke-width="2.0"/>
<line x1="354.6" y1="100.0" x2="378.0" y2="86.5" stroke="rgb(0,0,0)"  stroke-width="2.0"/>
<line x1="320.0" y1="80.0" x2="320.0" y2="53.0" stroke="rgb(0,0,0)"  stroke-width="2.0"/>
<line x1="285.4" y1="100.0" x2="262.0" y2="86.5" stroke="rgb(0,0,0)"  stroke-width="2.0"/>
<line x1="392.3" y1="160.0" x2="392.3" y2="187.0" stroke="rgb(0,0,0)"  stroke-width="2.0"/>
<line x1="386.3" y1="160.0" x2="386.3" y2="187.0" stroke="rgb(0,0,0)"  stroke-width="2.0"/>
<line x1="389.3" y1="160.0" x2="412.7" y2="146.5" stroke="rgb(0,0,0)"  stroke-width="2.0"/>
<line x1="435.2" y1="146.5" x2="458.6" y2="160.0" stroke="rgb(0,0,0)"  stroke-width="2.0"/>
<line x1="423.9" y1="127.0" x2="423.9" y2="100.0" stroke="rgb(0,0,0)"  stroke-width="2.0"/>
<line x1="458.6" y1="160.0" x2="485.6" y2="160.0" stroke="rgb(0,0,0)"  stroke-width="2.0"/>
<line x1="458.6" y1="160.0" x2="472.1" y2="136.6" stroke="rgb(0,0,0)"  stroke-width="2.0"/>
<line x1="458.6" y1="160.0" x2="458.6" y2="187.0" stroke="rgb(0,0,0)"  stroke-width="2.0"/>
<line x1="423.9" y1="100.0" x2="410.4" y2="76.6" stroke="rgb(0,0,0)"  stroke-width="2.0"/>
<line x1="423.9" y1="100.0" x2="396.9" y2="100.0" stroke="rgb(0,0,0)"  stroke-width="2.0"/>
<line x1="423.9" y1="100.0" x2="447.3" y2="86.5" stroke="rgb(0,0,0)"  stroke-width="2.0"/>
<line x1="213.5" y1="384.5" x2="200.0" y2="407.8" stroke="rgb(0,0,0)"  stroke-width="2.0"/>
<line x1="200.0" y1="407.8" x2="176.6" y2="421.3" stroke="rgb(0,0,0)"  stroke-width="2.0"/>
<line x1="200.0" y1="407.8" x2="176.6" y2="394.3" stroke="rgb(0,0,0)"  stroke-width="2.0"/>
<line x1="200.0" y1="407.8" x2="213.5" y2="431.2" stroke="rgb(0,0,0)"  stroke-width="2.0"/>
<line x1="200.0" y1="338.6" x2="213.5" y2="315.2" stroke="rgb(0,0,0)"  stroke-width="2.0"/>
<line x1="213.4" y1="292.5" x2="200.0" y2="269.3" stroke="rgb(0,0,0)"  stroke-width="2.0"/>
<line x1="206.2" y1="294.4" x2="196.8" y2="278.1" stroke="rgb(0,0,0)"  stroke-width="2.0"/>
<line x1="200.0" y1="269.3" x2="173.0" y2="269.3" stroke="rgb(0,0,0)"  stroke-width="2.0"/>
<line x1="153.4" y1="280.7" x2="140.0" y2="303.9" stroke="rgb(0,0,0)"  stroke-width="2.0"/>
<line x1="158.6" y1="286.0" x2="149.2" y2="302.3" stroke="rgb(0,0,0)"  stroke-width="2.0"/>
<line x1="140.0" y1="303.9" x2="160.0" y2="338.6" stroke="rgb(0,0,0)"  stroke-width="2.0"/>
<line x1="160.0" y1="338.6" x2="200.0" y2="338.6" stroke="rgb(0,0,0)"  stroke-width="2.0"/>
<line x1="166.0" y1="331.4" x2="194.0" y2="331.4" stroke="rgb(0,0,0)"  stroke-width="2.0"/>
<line x1="354.6" y1="100.0" x2="320.0" y2="80.0" stroke="rgb(0,0,0)"  stroke-width="2.0"/>
<line x1="320.0" y1="80.0" x2="285.4" y2="100.0" stroke="rgb(0,0,0)"  stroke-width="2.0"/>
<line x1="318.4" y1="89.2" x2="294.2" y2="103.2" stroke="rgb(0,0,0)"  stroke-width="2.0"/>
<line x1="285.4" y1="100.0" x2="285.4" y2="127.0" stroke="rgb(0,0,0)"  stroke-width="2.0"/>
<line x1="296.8" y1="146.6" x2="320.0" y2="160.0" stroke="rgb(0,0,0)"  stroke-width="2.0"/>
<line x1="302.1" y1="141.4" x2="318.4" y2="150.8" stroke="rgb(0,0,0)"  stroke-width="2.0"/>
<line x1="320.0" y1="160.0" x2="354.6" y2="140.0" stroke="rgb(0,0,0)"  stroke-width="2.0"/>
<line x1="354.6" y1="140.0" x2="354.6" y2="100.0" stroke="rgb(0,0,0)"  stroke-width="2.0"/>
<line x1="347.4" y1="134.0" x2="347.4" y2="106.0" stroke="rgb(0,0,0)"  stroke-width="2.0"/>
<text x="134.000000" y="381.205081" fill="rgb(191,191,191)"  stroke="rgb(191,191,191)" stroke-width="1" font-size="16" >H</text>
<text x="279.358984" y="148.000000" fill="rgb(12,12,255)"  stroke="rgb(12,12,255)" stroke-width="1" font-size="16" >N</text>
<text x="383.282032" y="208.000000" fill="rgb(255,12,12)"  stroke="rgb(255,12,12)" stroke-width="1" font-size="16" >O</text>
<text x="417.923048" y="148.000000" fill="rgb(12,12,255)"  stroke="rgb(12,12,255)" stroke-width="1" font-size="16" >N</text>
<text x="214.000000" y="381.205081" fill="rgb(255,12,12)"  stroke="rgb(255,12,12)" stroke-width="1" font-size="16" >O</text>
<text x="159.358984" y="435.846097" fill="rgb(191,191,191)"  stroke="rgb(191,191,191)" stroke-width="1" font-size="16" >H</text>
<text x="159.358984" y="395.846097" fill="rgb(191,191,191)"  stroke="rgb(191,191,191)" stroke-width="1" font-size="16" >H</text>
<text x="214.000000" y="450.487113" fill="rgb(191,191,191)"  stroke="rgb(191,191,191)" stroke-width="1" font-size="16" >H</text>
<text x="194.000000" y="208.000000" fill="rgb(191,191,191)"  stroke="rgb(191,191,191)" stroke-width="1" font-size="16" >H</text>
<text x="383.282032" y="88.000000" fill="rgb(191,191,191)"  stroke="rgb(191,191,191)" stroke-width="1" font-size="16" >H</text>
<text x="314.000000" y="48.000000" fill="rgb(191,191,191)"  stroke="rgb(191,191,191)" stroke-width="1" font-size="16" >H</text>
<text x="244.717968" y="88.000000" fill="rgb(191,191,191)"  stroke="rgb(191,191,191)" stroke-width="1" font-size="16" >H</text>
<text x="492.564065" y="168.000000" fill="rgb(191,191,191)"  stroke="rgb(191,191,191)" stroke-width="1" font-size="16" >H</text>
<text x="472.564065" y="133.358984" fill="rgb(191,191,191)"  stroke="rgb(191,191,191)" stroke-width="1" font-size="16" >H</text>
<text x="452.564065" y="208.000000" fill="rgb(191,191,191)"  stroke="rgb(191,191,191)" stroke-width="1" font-size="16" >H</text>
<text x="397.923048" y="73.358984" fill="rgb(191,191,191)"  stroke="rgb(191,191,191)" stroke-width="1" font-size="16" >H</text>
<text x="377.923048" y="108.000000" fill="rgb(191,191,191)"  stroke="rgb(191,191,191)" stroke-width="1" font-size="16" >H</text>
<text x="452.564065" y="88.000000" fill="rgb(191,191,191)"  stroke="rgb(191,191,191)" stroke-width="1" font-size="16" >H</text>
<text x="214.000000" y="242.641016" fill="rgb(12,12,255)"  stroke="rgb(12,12,255)" stroke-width="1" font-size="16" >N</text>
<text x="108.641016" y="257.282032" fill="rgb(191,191,191)"  stroke="rgb(191,191,191)" stroke-width="1" font-size="16" >H</text>
<text x="74.000000" y="237.282032" fill="rgb(191,191,191)"  stroke="rgb(191,191,191)" stroke-width="1" font-size="16" >H</text>
<text x="94.000000" y="311.923048" fill="rgb(255,12,12)"  stroke="rgb(255,12,12)" stroke-width="1" font-size="16" >O</text>
<text x="214.000000" y="311.923048" fill="rgb(12,12,255)"  stroke="rgb(12,12,255)" stroke-width="1" font-size="16" >N</text>
<text x="154.000000" y="277.282032" fill="rgb(12,12,255)"  stroke="rgb(12,12,255)" stroke-width="1" font-size="16" >N</text>
<text x="34.000000" y="277.282032" fill="rgb(191,191,191)"  stroke="rgb(191,191,191)" stroke-width="1" font-size="16" >H</text>
<text x="274.000000" y="277.282032" fill="rgb(255,12,12)"  stroke="rgb(255,12,12)" stroke-width="1" font-size="16" >OH</text>
<text x="274.000000" y="208.000000" fill="rgb(12,12,255)"  stroke="rgb(12,12,255)" stroke-width="1" font-size="16" >N</text>
<text x="314.000000" y="208.000000" fill="rgb(178,178,0)"  stroke="rgb(178,178,0)" stroke-width="1" font-size="16" >S</text>
<text x="314.000000" y="248.000000" fill="rgb(255,12,12)"  stroke="rgb(255,12,12)" stroke-width="1" font-size="16" >O</text>
<text x="354.000000" y="208.000000" fill="rgb(255,12,12)"  stroke="rgb(255,12,12)" stroke-width="1" font-size="16" >O</text>
</svg>
</g>
<text font-size="18.000000" fill ="black" font-family="sans-serif"
x="10.000000" y="20.000000" >ZINC01532072</text>
</svg>
