<?xml version="1.0"?>
<svg version="1.1" id="topsvg"
xmlns="http://www.w3.org/2000/svg" xmlns:xlink="http://www.w3.org/1999/xlink"
xmlns:cml="http://www.xml-cml.org/schema" x="0" y="0" width="200px" height="200px" viewBox="0 0 100 100">
<title>ZINC19517854 - Open Babel Depiction</title>
<rect x="0" y="0" width="100" height="100" fill="white"/>
<g transform="translate(0,0)">
<svg width="100" height="100" x="0" y="0" viewBox="0 0 419.097 287.737"
font-family="sans-serif" stroke="rgb(0,0,0)" stroke-width="2"  stroke-linecap="round">
<line x1="75.3" y1="119.4" x2="100.2" y2="122.7" stroke="rgb(0,0,0)"  stroke-width="2.0"/>
<line x1="75.3" y1="119.4" x2="52.0" y2="129.0" stroke="rgb(0,0,0)"  stroke-width="2.0"/>
<line x1="75.3" y1="119.4" x2="72.0" y2="144.4" stroke="rgb(0,0,0)"  stroke-width="2.0"/>
<line x1="75.3" y1="119.4" x2="65.6" y2="96.1" stroke="rgb(0,0,0)"  stroke-width="2.0"/>
<line x1="127.7" y1="159.7" x2="104.5" y2="169.3" stroke="rgb(0,0,0)"  stroke-width="2.0"/>
<line x1="127.7" y1="159.7" x2="124.5" y2="184.6" stroke="rgb(0,0,0)"  stroke-width="2.0"/>
<line x1="165.6" y1="164.6" x2="162.3" y2="189.6" stroke="rgb(0,0,0)"  stroke-width="2.0"/>
<line x1="165.6" y1="164.6" x2="185.6" y2="180.0" stroke="rgb(0,0,0)"  stroke-width="2.0"/>
<line x1="201.7" y1="136.0" x2="264.6" y2="144.3" stroke="rgb(0,0,0)"  stroke-width="2.0"/>
<line x1="174.2" y1="99.1" x2="197.5" y2="89.4" stroke="rgb(0,0,0)"  stroke-width="2.0"/>
<line x1="174.2" y1="99.1" x2="177.5" y2="74.1" stroke="rgb(0,0,0)"  stroke-width="2.0"/>
<line x1="136.4" y1="94.1" x2="139.7" y2="69.1" stroke="rgb(0,0,0)"  stroke-width="2.0"/>
<line x1="136.4" y1="94.1" x2="116.4" y2="78.8" stroke="rgb(0,0,0)"  stroke-width="2.0"/>
<line x1="264.6" y1="144.3" x2="302.7" y2="78.2" stroke="rgb(0,0,0)"  stroke-width="2.0"/>
<line x1="249.9" y1="179.6" x2="226.7" y2="170.0" stroke="rgb(0,0,0)"  stroke-width="2.0"/>
<line x1="249.9" y1="179.6" x2="230.0" y2="194.9" stroke="rgb(0,0,0)"  stroke-width="2.0"/>
<line x1="273.2" y1="209.9" x2="253.2" y2="225.2" stroke="rgb(0,0,0)"  stroke-width="2.0"/>
<line x1="273.2" y1="209.9" x2="276.5" y2="234.8" stroke="rgb(0,0,0)"  stroke-width="2.0"/>
<line x1="311.0" y1="204.9" x2="314.3" y2="229.9" stroke="rgb(0,0,0)"  stroke-width="2.0"/>
<line x1="311.0" y1="204.9" x2="334.3" y2="214.5" stroke="rgb(0,0,0)"  stroke-width="2.0"/>
<line x1="325.7" y1="169.6" x2="348.9" y2="179.3" stroke="rgb(0,0,0)"  stroke-width="2.0"/>
<line x1="325.7" y1="169.6" x2="345.6" y2="154.3" stroke="rgb(0,0,0)"  stroke-width="2.0"/>
<line x1="302.4" y1="139.3" x2="322.4" y2="124.0" stroke="rgb(0,0,0)"  stroke-width="2.0"/>
<line x1="302.4" y1="139.3" x2="299.1" y2="114.4" stroke="rgb(0,0,0)"  stroke-width="2.0"/>
<line x1="302.7" y1="78.2" x2="327.9" y2="78.2" stroke="rgb(0,0,0)"  stroke-width="2.0"/>
<line x1="302.7" y1="78.2" x2="302.7" y2="53.0" stroke="rgb(0,0,0)"  stroke-width="2.0"/>
<line x1="302.7" y1="78.2" x2="280.9" y2="65.6" stroke="rgb(0,0,0)"  stroke-width="2.0"/>
<line x1="340.9" y1="91.2" x2="340.9" y2="103.4" stroke="rgb(0,0,0)"  stroke-width="2.0"/>
<line x1="353.9" y1="78.2" x2="366.1" y2="78.2" stroke="rgb(0,0,0)"  stroke-width="2.0"/>
<line x1="340.9" y1="65.2" x2="340.9" y2="53.0" stroke="rgb(0,0,0)"  stroke-width="2.0"/>
<line x1="165.6" y1="164.6" x2="180.9" y2="144.7" stroke="rgb(0,0,0)"  stroke-width="2.0"/>
<line x1="183.9" y1="122.3" x2="174.2" y2="99.1" stroke="rgb(0,0,0)"  stroke-width="2.0"/>
<line x1="174.2" y1="99.1" x2="136.4" y2="94.1" stroke="rgb(0,0,0)"  stroke-width="2.0"/>
<line x1="136.4" y1="94.1" x2="121.0" y2="114.1" stroke="rgb(0,0,0)"  stroke-width="2.0"/>
<line x1="118.1" y1="136.4" x2="127.7" y2="159.7" stroke="rgb(0,0,0)"  stroke-width="2.0"/>
<line x1="127.7" y1="159.7" x2="165.6" y2="164.6" stroke="rgb(0,0,0)"  stroke-width="2.0"/>
<line x1="273.2" y1="209.9" x2="311.0" y2="204.9" stroke="rgb(0,0,0)"  stroke-width="2.0"/>
<line x1="311.0" y1="204.9" x2="325.7" y2="169.6" stroke="rgb(0,0,0)"  stroke-width="2.0"/>
<line x1="325.7" y1="169.6" x2="302.4" y2="139.3" stroke="rgb(0,0,0)"  stroke-width="2.0"/>
<line x1="302.4" y1="139.3" x2="264.6" y2="144.3" stroke="rgb(0,0,0)"  stroke-width="2.0"/>
<line x1="264.6" y1="144.3" x2="249.9" y2="179.6" stroke="rgb(0,0,0)"  stroke-width="2.0"/>
<line x1="249.9" y1="179.6" x2="273.2" y2="209.9" stroke="rgb(0,0,0)"  stroke-width="2.0"/>
<text x="340.313874" y="227.509562" fill="rgb(191,191,191)"  stroke="rgb(191,191,191)" stroke-width="1" font-size="16" >H</text>
<text x="189.888957" y="195.882504" fill="rgb(191,191,191)"  stroke="rgb(191,191,191)" stroke-width="1" font-size="16" >H</text>
<text x="203.504754" y="92.460263" fill="rgb(191,191,191)"  stroke="rgb(191,191,191)" stroke-width="1" font-size="16" >H</text>
<text x="173.213081" y="69.216645" fill="rgb(191,191,191)"  stroke="rgb(191,191,191)" stroke-width="1" font-size="16" >H</text>
<text x="135.357913" y="64.232917" fill="rgb(191,191,191)"  stroke="rgb(191,191,191)" stroke-width="1" font-size="16" >H</text>
<text x="100.082513" y="78.844467" fill="rgb(191,191,191)"  stroke="rgb(191,191,191)" stroke-width="1" font-size="16" >H</text>
<text x="208.664288" y="172.978518" fill="rgb(191,191,191)"  stroke="rgb(191,191,191)" stroke-width="1" font-size="16" >H</text>
<text x="213.648015" y="210.833686" fill="rgb(191,191,191)"  stroke="rgb(191,191,191)" stroke-width="1" font-size="16" >H</text>
<text x="236.891633" y="241.125359" fill="rgb(191,191,191)"  stroke="rgb(191,191,191)" stroke-width="1" font-size="16" >H</text>
<text x="272.167034" y="255.736908" fill="rgb(191,191,191)"  stroke="rgb(191,191,191)" stroke-width="1" font-size="16" >H</text>
<text x="310.022201" y="250.753181" fill="rgb(191,191,191)"  stroke="rgb(191,191,191)" stroke-width="1" font-size="16" >H</text>
<text x="154.613557" y="210.494053" fill="rgb(191,191,191)"  stroke="rgb(191,191,191)" stroke-width="1" font-size="16" >H</text>
<text x="354.925423" y="192.234162" fill="rgb(191,191,191)"  stroke="rgb(191,191,191)" stroke-width="1" font-size="16" >H</text>
<text x="349.941696" y="154.378995" fill="rgb(191,191,191)"  stroke="rgb(191,191,191)" stroke-width="1" font-size="16" >H</text>
<text x="326.698078" y="124.087322" fill="rgb(191,191,191)"  stroke="rgb(191,191,191)" stroke-width="1" font-size="16" >H</text>
<text x="291.422678" y="109.475772" fill="rgb(191,191,191)"  stroke="rgb(191,191,191)" stroke-width="1" font-size="16" >H</text>
<text x="296.733056" y="48.000000" fill="rgb(191,191,191)"  stroke="rgb(191,191,191)" stroke-width="1" font-size="16" >H</text>
<text x="263.666631" y="67.090909" fill="rgb(191,191,191)"  stroke="rgb(191,191,191)" stroke-width="1" font-size="16" >H</text>
<text x="334.914874" y="124.363636" fill="rgb(191,191,191)"  stroke="rgb(191,191,191)" stroke-width="1" font-size="16" >H</text>
<text x="373.096692" y="86.181818" fill="rgb(191,191,191)"  stroke="rgb(191,191,191)" stroke-width="1" font-size="16" >H</text>
<text x="334.914874" y="48.000000" fill="rgb(191,191,191)"  stroke="rgb(191,191,191)" stroke-width="1" font-size="16" >H</text>
<text x="107.130568" y="132.379758" fill="rgb(12,12,255)"  stroke="rgb(12,12,255)" stroke-width="1" font-size="16" >N</text>
<text x="182.840903" y="142.347213" fill="rgb(12,12,255)"  stroke="rgb(12,12,255)" stroke-width="1" font-size="16" >N</text>
<text x="345.714874" y="74.149818" fill="rgb(12,12,255)"  stroke="rgb(12,12,255)" stroke-width="1" font-size="16" >+</text>
<text x="334.914874" y="86.181818" fill="rgb(12,12,255)"  stroke="rgb(12,12,255)" stroke-width="1" font-size="16" >N</text>
<text x="34.000000" y="142.007580" fill="rgb(191,191,191)"  stroke="rgb(191,191,191)" stroke-width="1" font-size="16" >H</text>
<text x="64.291673" y="165.251198" fill="rgb(191,191,191)"  stroke="rgb(191,191,191)" stroke-width="1" font-size="16" >H</text>
<text x="54.663851" y="92.120630" fill="rgb(191,191,191)"  stroke="rgb(191,191,191)" stroke-width="1" font-size="16" >H</text>
<text x="86.466717" y="182.266707" fill="rgb(191,191,191)"  stroke="rgb(191,191,191)" stroke-width="1" font-size="16" >H</text>
<text x="116.758390" y="205.510326" fill="rgb(191,191,191)"  stroke="rgb(191,191,191)" stroke-width="1" font-size="16" >H</text>
</svg>
</g>
<text font-size="18.000000" fill ="black" font-family="sans-serif"
x="10.000000" y="20.000000" >ZINC19517854</text>
</svg>
