<?xml version="1.0"?>
<svg version="1.1" id="topsvg"
xmlns="http://www.w3.org/2000/svg" xmlns:xlink="http://www.w3.org/1999/xlink"
xmlns:cml="http://www.xml-cml.org/schema" x="0" y="0" width="200px" height="200px" viewBox="0 0 100 100">
<title>ZINC13540266 - Open Babel Depiction</title>
<rect x="0" y="0" width="100" height="100" fill="white"/>
<g transform="translate(0,0)">
<svg width="100" height="100" x="0" y="0" viewBox="0 0 578.564 343.923"
font-family="sans-serif" stroke="rgb(0,0,0)" stroke-width="2"  stroke-linecap="round">
<line x1="469.3" y1="263.9" x2="469.3" y2="290.9" stroke="rgb(0,0,0)"  stroke-width="2.0"/>
<line x1="503.9" y1="243.9" x2="527.3" y2="257.4" stroke="rgb(0,0,0)"  stroke-width="2.0"/>
<line x1="503.9" y1="203.9" x2="527.3" y2="190.4" stroke="rgb(0,0,0)"  stroke-width="2.0"/>
<line x1="434.6" y1="203.9" x2="411.3" y2="190.4" stroke="rgb(0,0,0)"  stroke-width="2.0"/>
<line x1="434.6" y1="243.9" x2="411.3" y2="257.4" stroke="rgb(0,0,0)"  stroke-width="2.0"/>
<line x1="400.0" y1="170.9" x2="400.0" y2="156.9" stroke="rgb(0,0,0)"  stroke-width="2.0"/>
<line x1="413.0" y1="140.9" x2="427.0" y2="140.9" stroke="rgb(0,0,0)"  stroke-width="2.0"/>
<line x1="413.0" y1="146.9" x2="427.0" y2="146.9" stroke="rgb(0,0,0)"  stroke-width="2.0"/>
<line x1="397.0" y1="130.9" x2="397.0" y2="116.9" stroke="rgb(0,0,0)"  stroke-width="2.0"/>
<line x1="403.0" y1="130.9" x2="403.0" y2="116.9" stroke="rgb(0,0,0)"  stroke-width="2.0"/>
<line x1="387.0" y1="143.9" x2="360.0" y2="143.9" stroke="rgb(0,0,0)"  stroke-width="2.0"/>
<line x1="340.0" y1="109.3" x2="353.5" y2="85.9" stroke="rgb(0,0,0)"  stroke-width="2.0"/>
<line x1="300.0" y1="109.3" x2="286.5" y2="85.9" stroke="rgb(0,0,0)"  stroke-width="2.0"/>
<line x1="280.0" y1="143.9" x2="253.0" y2="143.9" stroke="rgb(0,0,0)"  stroke-width="2.0"/>
<line x1="300.0" y1="178.6" x2="286.5" y2="201.9" stroke="rgb(0,0,0)"  stroke-width="2.0"/>
<line x1="340.0" y1="178.6" x2="353.5" y2="201.9" stroke="rgb(0,0,0)"  stroke-width="2.0"/>
<line x1="230.9" y1="134.2" x2="223.9" y2="122.0" stroke="rgb(0,0,0)"  stroke-width="2.0"/>
<line x1="236.1" y1="131.2" x2="229.1" y2="119.0" stroke="rgb(0,0,0)"  stroke-width="2.0"/>
<line x1="207.0" y1="109.3" x2="180.0" y2="109.3" stroke="rgb(0,0,0)"  stroke-width="2.0"/>
<line x1="160.0" y1="74.6" x2="173.5" y2="51.3" stroke="rgb(0,0,0)"  stroke-width="2.0"/>
<line x1="120.0" y1="74.6" x2="106.5" y2="51.3" stroke="rgb(0,0,0)"  stroke-width="2.0"/>
<line x1="100.0" y1="109.3" x2="73.0" y2="109.3" stroke="rgb(0,0,0)"  stroke-width="2.0"/>
<line x1="120.0" y1="143.9" x2="100.0" y2="178.6" stroke="rgb(0,0,0)"  stroke-width="2.0"/>
<line x1="160.0" y1="143.9" x2="173.5" y2="167.3" stroke="rgb(0,0,0)"  stroke-width="2.0"/>
<line x1="100.0" y1="181.6" x2="73.0" y2="181.6" stroke="rgb(0,0,0)"  stroke-width="2.0"/>
<line x1="100.0" y1="175.6" x2="73.0" y2="175.6" stroke="rgb(0,0,0)"  stroke-width="2.0"/>
<line x1="100.0" y1="178.6" x2="113.5" y2="201.9" stroke="rgb(0,0,0)"  stroke-width="2.0"/>
<line x1="53.5" y1="98.0" x2="46.5" y2="85.9" stroke="rgb(0,0,0)"  stroke-width="2.0"/>
<line x1="503.9" y1="203.9" x2="480.5" y2="190.4" stroke="rgb(0,0,0)"  stroke-width="2.0"/>
<line x1="457.9" y1="190.5" x2="434.6" y2="203.9" stroke="rgb(0,0,0)"  stroke-width="2.0"/>
<line x1="459.7" y1="197.8" x2="443.4" y2="207.2" stroke="rgb(0,0,0)"  stroke-width="2.0"/>
<line x1="434.6" y1="203.9" x2="434.6" y2="243.9" stroke="rgb(0,0,0)"  stroke-width="2.0"/>
<line x1="434.6" y1="243.9" x2="469.3" y2="263.9" stroke="rgb(0,0,0)"  stroke-width="2.0"/>
<line x1="443.4" y1="240.7" x2="467.7" y2="254.7" stroke="rgb(0,0,0)"  stroke-width="2.0"/>
<line x1="469.3" y1="263.9" x2="503.9" y2="243.9" stroke="rgb(0,0,0)"  stroke-width="2.0"/>
<line x1="503.9" y1="243.9" x2="503.9" y2="203.9" stroke="rgb(0,0,0)"  stroke-width="2.0"/>
<line x1="496.7" y1="237.9" x2="496.7" y2="209.9" stroke="rgb(0,0,0)"  stroke-width="2.0"/>
<line x1="300.0" y1="109.3" x2="280.0" y2="143.9" stroke="rgb(0,0,0)"  stroke-width="2.0"/>
<line x1="280.0" y1="143.9" x2="300.0" y2="178.6" stroke="rgb(0,0,0)"  stroke-width="2.0"/>
<line x1="289.2" y1="145.5" x2="303.2" y2="169.8" stroke="rgb(0,0,0)"  stroke-width="2.0"/>
<line x1="300.0" y1="178.6" x2="340.0" y2="178.6" stroke="rgb(0,0,0)"  stroke-width="2.0"/>
<line x1="340.0" y1="178.6" x2="360.0" y2="143.9" stroke="rgb(0,0,0)"  stroke-width="2.0"/>
<line x1="336.8" y1="169.8" x2="350.8" y2="145.5" stroke="rgb(0,0,0)"  stroke-width="2.0"/>
<line x1="360.0" y1="143.9" x2="340.0" y2="109.3" stroke="rgb(0,0,0)"  stroke-width="2.0"/>
<line x1="340.0" y1="109.3" x2="300.0" y2="109.3" stroke="rgb(0,0,0)"  stroke-width="2.0"/>
<line x1="334.0" y1="116.5" x2="306.0" y2="116.5" stroke="rgb(0,0,0)"  stroke-width="2.0"/>
<line x1="120.0" y1="74.6" x2="100.0" y2="109.3" stroke="rgb(0,0,0)"  stroke-width="2.0"/>
<line x1="100.0" y1="109.3" x2="120.0" y2="143.9" stroke="rgb(0,0,0)"  stroke-width="2.0"/>
<line x1="109.2" y1="110.9" x2="123.2" y2="135.1" stroke="rgb(0,0,0)"  stroke-width="2.0"/>
<line x1="120.0" y1="143.9" x2="160.0" y2="143.9" stroke="rgb(0,0,0)"  stroke-width="2.0"/>
<line x1="160.0" y1="143.9" x2="180.0" y2="109.3" stroke="rgb(0,0,0)"  stroke-width="2.0"/>
<line x1="156.8" y1="135.1" x2="170.8" y2="110.9" stroke="rgb(0,0,0)"  stroke-width="2.0"/>
<line x1="180.0" y1="109.3" x2="160.0" y2="74.6" stroke="rgb(0,0,0)"  stroke-width="2.0"/>
<line x1="160.0" y1="74.6" x2="120.0" y2="74.6" stroke="rgb(0,0,0)"  stroke-width="2.0"/>
<line x1="154.0" y1="81.8" x2="126.0" y2="81.8" stroke="rgb(0,0,0)"  stroke-width="2.0"/>
<text x="532.564065" y="191.923048" fill="rgb(191,191,191)"  stroke="rgb(191,191,191)" stroke-width="1" font-size="16" >H</text>
<text x="54.000000" y="186.564065" fill="rgb(255,12,12)"  stroke="rgb(255,12,12)" stroke-width="1" font-size="16" >O</text>
<text x="114.000000" y="221.205081" fill="rgb(255,12,12)"  stroke="rgb(255,12,12)" stroke-width="1" font-size="16" >OH</text>
<text x="54.000000" y="117.282032" fill="rgb(255,12,12)"  stroke="rgb(255,12,12)" stroke-width="1" font-size="16" >O</text>
<text x="463.282032" y="311.923048" fill="rgb(191,191,191)"  stroke="rgb(191,191,191)" stroke-width="1" font-size="16" >H</text>
<text x="532.564065" y="271.923048" fill="rgb(191,191,191)"  stroke="rgb(191,191,191)" stroke-width="1" font-size="16" >H</text>
<text x="394.000000" y="271.923048" fill="rgb(191,191,191)"  stroke="rgb(191,191,191)" stroke-width="1" font-size="16" >H</text>
<text x="354.000000" y="82.641016" fill="rgb(191,191,191)"  stroke="rgb(191,191,191)" stroke-width="1" font-size="16" >H</text>
<text x="274.000000" y="82.641016" fill="rgb(191,191,191)"  stroke="rgb(191,191,191)" stroke-width="1" font-size="16" >H</text>
<text x="274.000000" y="221.205081" fill="rgb(191,191,191)"  stroke="rgb(191,191,191)" stroke-width="1" font-size="16" >H</text>
<text x="354.000000" y="221.205081" fill="rgb(191,191,191)"  stroke="rgb(191,191,191)" stroke-width="1" font-size="16" >H</text>
<text x="174.000000" y="48.000000" fill="rgb(191,191,191)"  stroke="rgb(191,191,191)" stroke-width="1" font-size="16" >H</text>
<text x="94.000000" y="48.000000" fill="rgb(191,191,191)"  stroke="rgb(191,191,191)" stroke-width="1" font-size="16" >H</text>
<text x="174.000000" y="186.564065" fill="rgb(191,191,191)"  stroke="rgb(191,191,191)" stroke-width="1" font-size="16" >H</text>
<text x="34.000000" y="82.641016" fill="rgb(191,191,191)"  stroke="rgb(191,191,191)" stroke-width="1" font-size="16" >H</text>
<text x="463.282032" y="191.923048" fill="rgb(12,12,255)"  stroke="rgb(12,12,255)" stroke-width="1" font-size="16" >N</text>
<text x="382.000000" y="191.923048" fill="rgb(12,12,255)"  stroke="rgb(12,12,255)" stroke-width="1" font-size="16" >HN</text>
<text x="394.000000" y="151.923048" fill="rgb(178,178,0)"  stroke="rgb(178,178,0)" stroke-width="1" font-size="16" >S</text>
<text x="434.000000" y="151.923048" fill="rgb(255,12,12)"  stroke="rgb(255,12,12)" stroke-width="1" font-size="16" >O</text>
<text x="394.000000" y="111.923048" fill="rgb(255,12,12)"  stroke="rgb(255,12,12)" stroke-width="1" font-size="16" >O</text>
<text x="234.000000" y="151.923048" fill="rgb(12,12,255)"  stroke="rgb(12,12,255)" stroke-width="1" font-size="16" >N</text>
<text x="214.000000" y="117.282032" fill="rgb(12,12,255)"  stroke="rgb(12,12,255)" stroke-width="1" font-size="16" >N</text>
</svg>
</g>
<text font-size="18.000000" fill ="black" font-family="sans-serif"
x="10.000000" y="20.000000" >ZINC13540266</text>
</svg>
