<?xml version="1.0"?>
<svg version="1.1" id="topsvg"
xmlns="http://www.w3.org/2000/svg" xmlns:xlink="http://www.w3.org/1999/xlink"
xmlns:cml="http://www.xml-cml.org/schema" x="0" y="0" width="200px" height="200px" viewBox="0 0 100 100">
<title>ZINC98229796 - Open Babel Depiction</title>
<rect x="0" y="0" width="100" height="100" fill="white"/>
<g transform="translate(0,0)">
<svg width="100" height="100" x="0" y="0" viewBox="0 0 623.71 572.206"
font-family="sans-serif" stroke="rgb(0,0,0)" stroke-width="2"  stroke-linecap="round">
<line x1="515.1" y1="497.9" x2="515.1" y2="458.3" stroke="rgb(0,0,0)"  stroke-width="2.0"/>
<line x1="515.1" y1="497.9" x2="528.4" y2="520.9" stroke="rgb(0,0,0)"  stroke-width="2.0"/>
<line x1="515.1" y1="497.9" x2="541.7" y2="497.9" stroke="rgb(0,0,0)"  stroke-width="2.0"/>
<line x1="515.1" y1="497.9" x2="492.1" y2="511.2" stroke="rgb(0,0,0)"  stroke-width="2.0"/>
<line x1="549.4" y1="438.5" x2="572.5" y2="451.8" stroke="rgb(0,0,0)"  stroke-width="2.0"/>
<line x1="547.9" y1="396.3" x2="571.0" y2="383.0" stroke="rgb(0,0,0)"  stroke-width="2.0"/>
<line x1="550.9" y1="401.5" x2="574.0" y2="388.2" stroke="rgb(0,0,0)"  stroke-width="2.0"/>
<line x1="446.5" y1="458.3" x2="446.5" y2="484.9" stroke="rgb(0,0,0)"  stroke-width="2.0"/>
<line x1="412.2" y1="438.5" x2="389.2" y2="451.8" stroke="rgb(0,0,0)"  stroke-width="2.0"/>
<line x1="412.2" y1="398.9" x2="389.2" y2="385.6" stroke="rgb(0,0,0)"  stroke-width="2.0"/>
<line x1="446.5" y1="379.1" x2="446.5" y2="352.5" stroke="rgb(0,0,0)"  stroke-width="2.0"/>
<line x1="377.9" y1="366.1" x2="377.9" y2="339.5" stroke="rgb(0,0,0)"  stroke-width="2.0"/>
<line x1="366.7" y1="385.6" x2="354.9" y2="392.4" stroke="rgb(0,0,0)"  stroke-width="2.0"/>
<line x1="376.4" y1="342.1" x2="353.4" y2="328.8" stroke="rgb(0,0,0)"  stroke-width="2.0"/>
<line x1="379.4" y1="336.9" x2="356.4" y2="323.6" stroke="rgb(0,0,0)"  stroke-width="2.0"/>
<line x1="377.9" y1="339.5" x2="412.2" y2="319.7" stroke="rgb(0,0,0)"  stroke-width="2.0"/>
<line x1="415.6" y1="323.9" x2="414.2" y2="324.7" stroke="rgb(0,0,0)"  stroke-width="1.0"/>
<line x1="418.2" y1="327.2" x2="415.7" y2="328.7" stroke="rgb(0,0,0)"  stroke-width="1.0"/>
<line x1="420.9" y1="330.6" x2="417.3" y2="332.7" stroke="rgb(0,0,0)"  stroke-width="1.0"/>
<line x1="423.6" y1="334.0" x2="418.9" y2="336.7" stroke="rgb(0,0,0)"  stroke-width="1.0"/>
<line x1="426.3" y1="337.3" x2="420.5" y2="340.7" stroke="rgb(0,0,0)"  stroke-width="1.0"/>
<line x1="429.0" y1="340.7" x2="422.0" y2="344.7" stroke="rgb(0,0,0)"  stroke-width="1.0"/>
<line x1="412.2" y1="319.7" x2="446.5" y2="299.9" stroke="rgb(0,0,0)"  stroke-width="2.0"/>
<line x1="412.2" y1="319.7" x2="398.9" y2="296.7" stroke="rgb(0,0,0)"  stroke-width="2.0"/>
<line x1="446.5" y1="299.9" x2="480.8" y2="319.7" stroke="rgb(0,0,0)"  stroke-width="2.0"/>
<line x1="446.5" y1="299.9" x2="459.8" y2="276.8" stroke="rgb(0,0,0)"  stroke-width="2.0"/>
<line x1="446.5" y1="299.9" x2="433.2" y2="276.8" stroke="rgb(0,0,0)"  stroke-width="2.0"/>
<line x1="483.8" y1="319.7" x2="483.8" y2="346.3" stroke="rgb(0,0,0)"  stroke-width="2.0"/>
<line x1="477.8" y1="319.7" x2="477.8" y2="346.3" stroke="rgb(0,0,0)"  stroke-width="2.0"/>
<line x1="480.8" y1="319.7" x2="503.9" y2="306.4" stroke="rgb(0,0,0)"  stroke-width="2.0"/>
<line x1="398.9" y1="274.1" x2="412.2" y2="251.1" stroke="rgb(0,0,0)"  stroke-width="2.0"/>
<line x1="379.4" y1="285.4" x2="365.8" y2="285.4" stroke="rgb(0,0,0)"  stroke-width="2.0"/>
<line x1="412.2" y1="248.1" x2="438.8" y2="248.1" stroke="rgb(0,0,0)"  stroke-width="2.0"/>
<line x1="412.2" y1="254.1" x2="438.8" y2="254.1" stroke="rgb(0,0,0)"  stroke-width="2.0"/>
<line x1="412.2" y1="251.1" x2="392.4" y2="216.8" stroke="rgb(0,0,0)"  stroke-width="2.0"/>
<line x1="388.2" y1="220.1" x2="387.4" y2="218.8" stroke="rgb(0,0,0)"  stroke-width="1.0"/>
<line x1="384.9" y1="222.8" x2="383.4" y2="220.3" stroke="rgb(0,0,0)"  stroke-width="1.0"/>
<line x1="381.5" y1="225.5" x2="379.4" y2="221.9" stroke="rgb(0,0,0)"  stroke-width="1.0"/>
<line x1="378.2" y1="228.2" x2="375.4" y2="223.5" stroke="rgb(0,0,0)"  stroke-width="1.0"/>
<line x1="374.8" y1="230.9" x2="371.4" y2="225.0" stroke="rgb(0,0,0)"  stroke-width="1.0"/>
<line x1="371.4" y1="233.5" x2="367.4" y2="226.6" stroke="rgb(0,0,0)"  stroke-width="1.0"/>
<line x1="392.4" y1="216.8" x2="461.0" y2="177.2" stroke="rgb(0,0,0)"  stroke-width="2.0"/>
<line x1="392.4" y1="216.8" x2="379.1" y2="193.8" stroke="rgb(0,0,0)"  stroke-width="2.0"/>
<line x1="461.0" y1="177.2" x2="474.3" y2="200.2" stroke="rgb(0,0,0)"  stroke-width="2.0"/>
<line x1="461.0" y1="177.2" x2="487.6" y2="177.2" stroke="rgb(0,0,0)"  stroke-width="2.0"/>
<line x1="461.0" y1="177.2" x2="461.0" y2="137.6" stroke="rgb(0,0,0)"  stroke-width="2.0"/>
<line x1="429.0" y1="114.3" x2="403.7" y2="122.5" stroke="rgb(0,0,0)"  stroke-width="2.0"/>
<line x1="433.6" y1="66.1" x2="425.6" y2="55.1" stroke="rgb(0,0,0)"  stroke-width="2.0"/>
<line x1="518.4" y1="122.5" x2="505.4" y2="118.3" stroke="rgb(0,0,0)"  stroke-width="2.0"/>
<line x1="480.8" y1="76.6" x2="496.5" y2="55.1" stroke="rgb(0,0,0)"  stroke-width="2.0"/>
<line x1="359.6" y1="182.5" x2="333.0" y2="182.5" stroke="rgb(0,0,0)"  stroke-width="2.0"/>
<line x1="379.1" y1="171.2" x2="385.9" y2="159.5" stroke="rgb(0,0,0)"  stroke-width="2.0"/>
<line x1="335.6" y1="184.0" x2="322.3" y2="207.0" stroke="rgb(0,0,0)"  stroke-width="2.0"/>
<line x1="330.4" y1="181.0" x2="317.1" y2="204.0" stroke="rgb(0,0,0)"  stroke-width="2.0"/>
<line x1="333.0" y1="182.5" x2="313.2" y2="148.2" stroke="rgb(0,0,0)"  stroke-width="2.0"/>
<line x1="317.4" y1="144.9" x2="318.2" y2="146.2" stroke="rgb(0,0,0)"  stroke-width="1.0"/>
<line x1="320.8" y1="142.2" x2="322.2" y2="144.7" stroke="rgb(0,0,0)"  stroke-width="1.0"/>
<line x1="324.1" y1="139.5" x2="326.2" y2="143.1" stroke="rgb(0,0,0)"  stroke-width="1.0"/>
<line x1="327.5" y1="136.8" x2="330.2" y2="141.5" stroke="rgb(0,0,0)"  stroke-width="1.0"/>
<line x1="330.8" y1="134.1" x2="334.2" y2="140.0" stroke="rgb(0,0,0)"  stroke-width="1.0"/>
<line x1="334.2" y1="131.5" x2="338.2" y2="138.4" stroke="rgb(0,0,0)"  stroke-width="1.0"/>
<line x1="313.2" y1="148.2" x2="293.4" y2="113.9" stroke="rgb(0,0,0)"  stroke-width="2.0"/>
<line x1="313.2" y1="148.2" x2="290.2" y2="161.5" stroke="rgb(0,0,0)"  stroke-width="2.0"/>
<line x1="293.4" y1="113.9" x2="313.2" y2="79.6" stroke="rgb(0,0,0)"  stroke-width="2.0"/>
<line x1="293.4" y1="113.9" x2="270.4" y2="100.6" stroke="rgb(0,0,0)"  stroke-width="2.0"/>
<line x1="293.4" y1="113.9" x2="270.4" y2="127.2" stroke="rgb(0,0,0)"  stroke-width="2.0"/>
<line x1="313.2" y1="79.6" x2="352.8" y2="79.6" stroke="rgb(0,0,0)"  stroke-width="2.0"/>
<line x1="313.2" y1="79.6" x2="313.2" y2="53.0" stroke="rgb(0,0,0)"  stroke-width="2.0"/>
<line x1="313.2" y1="79.6" x2="290.2" y2="66.3" stroke="rgb(0,0,0)"  stroke-width="2.0"/>
<line x1="355.4" y1="78.1" x2="368.7" y2="101.1" stroke="rgb(0,0,0)"  stroke-width="2.0"/>
<line x1="350.2" y1="81.1" x2="363.5" y2="104.1" stroke="rgb(0,0,0)"  stroke-width="2.0"/>
<line x1="352.8" y1="79.6" x2="366.1" y2="56.6" stroke="rgb(0,0,0)"  stroke-width="2.0"/>
<line x1="267.7" y1="161.5" x2="244.6" y2="148.2" stroke="rgb(0,0,0)"  stroke-width="2.0"/>
<line x1="278.9" y1="181.0" x2="278.9" y2="194.6" stroke="rgb(0,0,0)"  stroke-width="2.0"/>
<line x1="241.6" y1="148.2" x2="241.6" y2="121.6" stroke="rgb(0,0,0)"  stroke-width="2.0"/>
<line x1="247.6" y1="148.2" x2="247.6" y2="121.6" stroke="rgb(0,0,0)"  stroke-width="2.0"/>
<line x1="244.6" y1="148.2" x2="210.3" y2="168.0" stroke="rgb(0,0,0)"  stroke-width="2.0"/>
<polygon points="210.315573 168.002012 227.047001 188.981696 220.118798 192.981696 " stroke-width="2.000000" fill="rgb(0,0,0)"  stroke="rgb(0,0,0)" />
<line x1="210.3" y1="168.0" x2="176.0" y2="187.8" stroke="rgb(0,0,0)"  stroke-width="2.0"/>
<line x1="210.3" y1="168.0" x2="197.0" y2="145.0" stroke="rgb(0,0,0)"  stroke-width="2.0"/>
<line x1="176.0" y1="187.8" x2="176.0" y2="227.4" stroke="rgb(0,0,0)"  stroke-width="2.0"/>
<line x1="176.0" y1="187.8" x2="149.4" y2="187.8" stroke="rgb(0,0,0)"  stroke-width="2.0"/>
<line x1="176.0" y1="187.8" x2="162.7" y2="164.8" stroke="rgb(0,0,0)"  stroke-width="2.0"/>
<line x1="208.1" y1="250.7" x2="233.4" y2="242.5" stroke="rgb(0,0,0)"  stroke-width="2.0"/>
<line x1="203.5" y1="298.9" x2="211.5" y2="309.9" stroke="rgb(0,0,0)"  stroke-width="2.0"/>
<line x1="105.2" y1="242.5" x2="97.0" y2="217.2" stroke="rgb(0,0,0)"  stroke-width="2.0"/>
<line x1="78.7" y1="271.9" x2="52.7" y2="266.4" stroke="rgb(0,0,0)"  stroke-width="2.0"/>
<line x1="91.0" y1="309.5" x2="73.2" y2="329.3" stroke="rgb(0,0,0)"  stroke-width="2.0"/>
<line x1="129.7" y1="317.8" x2="137.9" y2="343.1" stroke="rgb(0,0,0)"  stroke-width="2.0"/>
<line x1="177.5" y1="133.7" x2="150.9" y2="133.7" stroke="rgb(0,0,0)"  stroke-width="2.0"/>
<line x1="197.0" y1="122.4" x2="203.8" y2="110.7" stroke="rgb(0,0,0)"  stroke-width="2.0"/>
<line x1="153.5" y1="135.2" x2="140.2" y2="158.2" stroke="rgb(0,0,0)"  stroke-width="2.0"/>
<line x1="148.3" y1="132.2" x2="135.0" y2="155.2" stroke="rgb(0,0,0)"  stroke-width="2.0"/>
<line x1="150.9" y1="133.7" x2="131.1" y2="99.4" stroke="rgb(0,0,0)"  stroke-width="2.0"/>
<line x1="131.1" y1="99.4" x2="131.1" y2="72.8" stroke="rgb(0,0,0)"  stroke-width="2.0"/>
<line x1="131.1" y1="99.4" x2="154.1" y2="86.1" stroke="rgb(0,0,0)"  stroke-width="2.0"/>
<line x1="131.1" y1="99.4" x2="104.5" y2="99.4" stroke="rgb(0,0,0)"  stroke-width="2.0"/>
<line x1="429.0" y1="114.3" x2="461.0" y2="137.6" stroke="rgb(0,0,0)"  stroke-width="2.0"/>
<line x1="438.1" y1="112.0" x2="460.4" y2="128.2" stroke="rgb(0,0,0)"  stroke-width="2.0"/>
<line x1="461.0" y1="137.6" x2="482.5" y2="122.0" stroke="rgb(0,0,0)"  stroke-width="2.0"/>
<line x1="489.0" y1="101.9" x2="480.8" y2="76.6" stroke="rgb(0,0,0)"  stroke-width="2.0"/>
<line x1="480.8" y1="76.6" x2="454.3" y2="76.6" stroke="rgb(0,0,0)"  stroke-width="2.0"/>
<line x1="474.8" y1="83.8" x2="456.3" y2="83.8" stroke="rgb(0,0,0)"  stroke-width="2.0"/>
<line x1="437.2" y1="89.0" x2="429.0" y2="114.3" stroke="rgb(0,0,0)"  stroke-width="2.0"/>
<line x1="182.8" y1="288.4" x2="156.2" y2="288.4" stroke="rgb(0,0,0)"  stroke-width="2.0"/>
<line x1="156.2" y1="288.4" x2="144.0" y2="250.7" stroke="rgb(0,0,0)"  stroke-width="2.0"/>
<line x1="144.0" y1="250.7" x2="176.0" y2="227.4" stroke="rgb(0,0,0)"  stroke-width="2.0"/>
<line x1="176.0" y1="227.4" x2="208.1" y2="250.7" stroke="rgb(0,0,0)"  stroke-width="2.0"/>
<line x1="176.6" y1="236.8" x2="199.0" y2="253.0" stroke="rgb(0,0,0)"  stroke-width="2.0"/>
<line x1="208.1" y1="250.7" x2="199.8" y2="276.0" stroke="rgb(0,0,0)"  stroke-width="2.0"/>
<line x1="549.4" y1="398.9" x2="526.4" y2="385.6" stroke="rgb(0,0,0)"  stroke-width="2.0"/>
<line x1="503.9" y1="385.6" x2="480.8" y2="398.9" stroke="rgb(0,0,0)"  stroke-width="2.0"/>
<line x1="480.8" y1="398.9" x2="480.8" y2="438.5" stroke="rgb(0,0,0)"  stroke-width="2.0"/>
<line x1="480.8" y1="438.5" x2="515.1" y2="458.3" stroke="rgb(0,0,0)"  stroke-width="2.0"/>
<line x1="515.1" y1="458.3" x2="549.4" y2="438.5" stroke="rgb(0,0,0)"  stroke-width="2.0"/>
<line x1="516.7" y1="449.1" x2="540.6" y2="435.3" stroke="rgb(0,0,0)"  stroke-width="2.0"/>
<line x1="549.4" y1="438.5" x2="549.4" y2="398.9" stroke="rgb(0,0,0)"  stroke-width="2.0"/>
<line x1="412.2" y1="398.9" x2="412.2" y2="438.5" stroke="rgb(0,0,0)"  stroke-width="2.0"/>
<line x1="419.4" y1="404.9" x2="419.4" y2="432.5" stroke="rgb(0,0,0)"  stroke-width="2.0"/>
<line x1="412.2" y1="438.5" x2="446.5" y2="458.3" stroke="rgb(0,0,0)"  stroke-width="2.0"/>
<line x1="446.5" y1="458.3" x2="480.8" y2="438.5" stroke="rgb(0,0,0)"  stroke-width="2.0"/>
<line x1="448.1" y1="449.1" x2="472.0" y2="435.3" stroke="rgb(0,0,0)"  stroke-width="2.0"/>
<line x1="480.8" y1="398.9" x2="446.5" y2="379.1" stroke="rgb(0,0,0)"  stroke-width="2.0"/>
<line x1="472.0" y1="402.1" x2="448.1" y2="388.3" stroke="rgb(0,0,0)"  stroke-width="2.0"/>
<line x1="446.5" y1="379.1" x2="412.2" y2="398.9" stroke="rgb(0,0,0)"  stroke-width="2.0"/>
<line x1="91.0" y1="309.5" x2="78.7" y2="271.9" stroke="rgb(0,0,0)"  stroke-width="2.0"/>
<line x1="96.0" y1="301.6" x2="87.4" y2="275.4" stroke="rgb(0,0,0)"  stroke-width="2.0"/>
<line x1="78.7" y1="271.9" x2="105.2" y2="242.5" stroke="rgb(0,0,0)"  stroke-width="2.0"/>
<line x1="105.2" y1="242.5" x2="144.0" y2="250.7" stroke="rgb(0,0,0)"  stroke-width="2.0"/>
<line x1="109.6" y1="250.7" x2="136.6" y2="256.5" stroke="rgb(0,0,0)"  stroke-width="2.0"/>
<line x1="156.2" y1="288.4" x2="129.7" y2="317.8" stroke="rgb(0,0,0)"  stroke-width="2.0"/>
<line x1="146.9" y1="288.0" x2="128.4" y2="308.5" stroke="rgb(0,0,0)"  stroke-width="2.0"/>
<line x1="129.7" y1="317.8" x2="91.0" y2="309.5" stroke="rgb(0,0,0)"  stroke-width="2.0"/>
<text x="460.319597" y="273.590195" fill="rgb(191,191,191)"  stroke="rgb(191,191,191)" stroke-width="1" font-size="16" >H</text>
<text x="337.623509" y="406.898132" fill="rgb(191,191,191)"  stroke="rgb(191,191,191)" stroke-width="1" font-size="16" >H</text>
<text x="440.517617" y="347.492191" fill="rgb(191,191,191)"  stroke="rgb(191,191,191)" stroke-width="1" font-size="16" >H</text>
<text x="371.921545" y="466.304072" fill="rgb(191,191,191)"  stroke="rgb(191,191,191)" stroke-width="1" font-size="16" >H</text>
<text x="440.517617" y="505.908033" fill="rgb(191,191,191)"  stroke="rgb(191,191,191)" stroke-width="1" font-size="16" >H</text>
<text x="577.709760" y="466.304072" fill="rgb(191,191,191)"  stroke="rgb(191,191,191)" stroke-width="1" font-size="16" >H</text>
<text x="474.815652" y="525.710013" fill="rgb(191,191,191)"  stroke="rgb(191,191,191)" stroke-width="1" font-size="16" >H</text>
<text x="548.717649" y="505.908033" fill="rgb(191,191,191)"  stroke="rgb(191,191,191)" stroke-width="1" font-size="16" >H</text>
<text x="528.915668" y="540.206069" fill="rgb(191,191,191)"  stroke="rgb(191,191,191)" stroke-width="1" font-size="16" >H</text>
<text x="125.107652" y="176.002012" fill="rgb(255,12,12)"  stroke="rgb(255,12,12)" stroke-width="1" font-size="16" >O</text>
<text x="420.715636" y="273.590195" fill="rgb(191,191,191)"  stroke="rgb(191,191,191)" stroke-width="1" font-size="16" >H</text>
<text x="184.513592" y="141.703976" fill="rgb(12,12,255)"  stroke="rgb(12,12,255)" stroke-width="1" font-size="16" >N</text>
<text x="213.098141" y="328.392458" fill="rgb(191,191,191)"  stroke="rgb(191,191,191)" stroke-width="1" font-size="16" >H</text>
<text x="189.819517" y="296.352181" fill="rgb(12,12,255)"  stroke="rgb(12,12,255)" stroke-width="1" font-size="16" >N</text>
<text x="130.413576" y="195.803992" fill="rgb(191,191,191)"  stroke="rgb(191,191,191)" stroke-width="1" font-size="16" >H</text>
<text x="411.933068" y="52.603677" fill="rgb(191,191,191)"  stroke="rgb(191,191,191)" stroke-width="1" font-size="16" >H</text>
<text x="85.503691" y="107.405941" fill="rgb(191,191,191)"  stroke="rgb(191,191,191)" stroke-width="1" font-size="16" >H</text>
<text x="159.405688" y="87.603960" fill="rgb(191,191,191)"  stroke="rgb(191,191,191)" stroke-width="1" font-size="16" >H</text>
<text x="125.107652" y="67.801980" fill="rgb(191,191,191)"  stroke="rgb(191,191,191)" stroke-width="1" font-size="16" >H</text>
<text x="204.315573" y="107.405941" fill="rgb(191,191,191)"  stroke="rgb(191,191,191)" stroke-width="1" font-size="16" >H</text>
<text x="135.953631" y="363.449264" fill="rgb(191,191,191)"  stroke="rgb(191,191,191)" stroke-width="1" font-size="16" >H</text>
<text x="58.476594" y="346.981011" fill="rgb(191,191,191)"  stroke="rgb(191,191,191)" stroke-width="1" font-size="16" >H</text>
<text x="34.000000" y="271.649802" fill="rgb(191,191,191)"  stroke="rgb(191,191,191)" stroke-width="1" font-size="16" >H</text>
<text x="87.000444" y="212.786846" fill="rgb(191,191,191)"  stroke="rgb(191,191,191)" stroke-width="1" font-size="16" >H</text>
<text x="239.723418" y="246.448280" fill="rgb(191,191,191)"  stroke="rgb(191,191,191)" stroke-width="1" font-size="16" >H</text>
<text x="150.215557" y="161.505957" fill="rgb(191,191,191)"  stroke="rgb(191,191,191)" stroke-width="1" font-size="16" >H</text>
<text x="272.911644" y="215.605973" fill="rgb(191,191,191)"  stroke="rgb(191,191,191)" stroke-width="1" font-size="16" >H</text>
<text x="272.911644" y="67.801980" fill="rgb(191,191,191)"  stroke="rgb(191,191,191)" stroke-width="1" font-size="16" >H</text>
<text x="307.209680" y="48.000000" fill="rgb(191,191,191)"  stroke="rgb(191,191,191)" stroke-width="1" font-size="16" >H</text>
<text x="253.109664" y="141.703976" fill="rgb(191,191,191)"  stroke="rgb(191,191,191)" stroke-width="1" font-size="16" >H</text>
<text x="253.109664" y="102.100016" fill="rgb(191,191,191)"  stroke="rgb(191,191,191)" stroke-width="1" font-size="16" >H</text>
<text x="386.417601" y="156.200032" fill="rgb(191,191,191)"  stroke="rgb(191,191,191)" stroke-width="1" font-size="16" >H</text>
<text x="498.094276" y="52.603677" fill="rgb(191,191,191)"  stroke="rgb(191,191,191)" stroke-width="1" font-size="16" >H</text>
<text x="385.307791" y="134.547856" fill="rgb(191,191,191)"  stroke="rgb(191,191,191)" stroke-width="1" font-size="16" >H</text>
<text x="494.617633" y="185.192143" fill="rgb(191,191,191)"  stroke="rgb(191,191,191)" stroke-width="1" font-size="16" >H</text>
<text x="474.815652" y="219.490179" fill="rgb(191,191,191)"  stroke="rgb(191,191,191)" stroke-width="1" font-size="16" >H</text>
<text x="346.813640" y="293.392175" fill="rgb(191,191,191)"  stroke="rgb(191,191,191)" stroke-width="1" font-size="16" >H</text>
<text x="371.921545" y="387.096152" fill="rgb(12,12,255)"  stroke="rgb(12,12,255)" stroke-width="1" font-size="16" >N</text>
<text x="445.823541" y="259.094139" fill="rgb(255,12,12)"  stroke="rgb(255,12,12)" stroke-width="1" font-size="16" >O</text>
<text x="386.417601" y="293.392175" fill="rgb(12,12,255)"  stroke="rgb(12,12,255)" stroke-width="1" font-size="16" >N</text>
<text x="509.113688" y="307.888231" fill="rgb(255,12,12)"  stroke="rgb(255,12,12)" stroke-width="1" font-size="16" >OH</text>
<text x="474.815652" y="367.294171" fill="rgb(255,12,12)"  stroke="rgb(255,12,12)" stroke-width="1" font-size="16" >O</text>
<text x="426.021561" y="361.988247" fill="rgb(191,191,191)"  stroke="rgb(191,191,191)" stroke-width="1" font-size="16" >H</text>
<text x="337.623509" y="327.690211" fill="rgb(255,12,12)"  stroke="rgb(255,12,12)" stroke-width="1" font-size="16" >O</text>
<text x="509.113688" y="387.096152" fill="rgb(255,12,12)"  stroke="rgb(255,12,12)" stroke-width="1" font-size="16" >O</text>
<text x="577.709760" y="387.096152" fill="rgb(255,12,12)"  stroke="rgb(255,12,12)" stroke-width="1" font-size="16" >O</text>
<text x="224.117553" y="210.300048" fill="rgb(191,191,191)"  stroke="rgb(191,191,191)" stroke-width="1" font-size="16" >H</text>
<text x="238.613608" y="116.596072" fill="rgb(255,12,12)"  stroke="rgb(255,12,12)" stroke-width="1" font-size="16" >O</text>
<text x="272.911644" y="176.002012" fill="rgb(12,12,255)"  stroke="rgb(12,12,255)" stroke-width="1" font-size="16" >N</text>
<text x="366.615620" y="53.305925" fill="rgb(255,12,12)"  stroke="rgb(255,12,12)" stroke-width="1" font-size="16" >OH</text>
<text x="366.615620" y="121.901996" fill="rgb(255,12,12)"  stroke="rgb(255,12,12)" stroke-width="1" font-size="16" >O</text>
<text x="341.507716" y="136.398052" fill="rgb(191,191,191)"  stroke="rgb(191,191,191)" stroke-width="1" font-size="16" >H</text>
<text x="307.209680" y="224.796104" fill="rgb(255,12,12)"  stroke="rgb(255,12,12)" stroke-width="1" font-size="16" >O</text>
<text x="366.615620" y="190.498068" fill="rgb(12,12,255)"  stroke="rgb(12,12,255)" stroke-width="1" font-size="16" >N</text>
<text x="487.053949" y="122.309559" fill="rgb(12,12,255)"  stroke="rgb(12,12,255)" stroke-width="1" font-size="16" >N</text>
<text x="524.719554" y="134.547856" fill="rgb(191,191,191)"  stroke="rgb(191,191,191)" stroke-width="1" font-size="16" >H</text>
<text x="435.211692" y="84.643954" fill="rgb(12,12,255)"  stroke="rgb(12,12,255)" stroke-width="1" font-size="16" >N</text>
<text x="352.119565" y="244.598084" fill="rgb(191,191,191)"  stroke="rgb(191,191,191)" stroke-width="1" font-size="16" >H</text>
</svg>
</g>
<text font-size="18.000000" fill ="black" font-family="sans-serif"
x="10.000000" y="20.000000" >ZINC98229796</text>
</svg>
