<?xml version="1.0"?>
<svg version="1.1" id="topsvg"
xmlns="http://www.w3.org/2000/svg" xmlns:xlink="http://www.w3.org/1999/xlink"
xmlns:cml="http://www.xml-cml.org/schema" x="0" y="0" width="200px" height="200px" viewBox="0 0 100 100">
<title>ZINC00160246 - Open Babel Depiction</title>
<rect x="0" y="0" width="100" height="100" fill="white"/>
<g transform="translate(0,0)">
<svg width="100" height="100" x="0" y="0" viewBox="0 0 313.597 407.051"
font-family="sans-serif" stroke="rgb(0,0,0)" stroke-width="2"  stroke-linecap="round">
<line x1="97.8" y1="327.0" x2="126.5" y2="301.1" stroke="rgb(0,0,0)"  stroke-width="2.0"/>
<line x1="101.8" y1="331.5" x2="130.6" y2="305.6" stroke="rgb(0,0,0)"  stroke-width="2.0"/>
<line x1="99.8" y1="329.2" x2="75.4" y2="321.3" stroke="rgb(0,0,0)"  stroke-width="2.0"/>
<line x1="99.8" y1="329.2" x2="105.2" y2="354.3" stroke="rgb(0,0,0)"  stroke-width="2.0"/>
<line x1="128.6" y1="303.4" x2="120.5" y2="265.5" stroke="rgb(0,0,0)"  stroke-width="2.0"/>
<line x1="128.6" y1="303.4" x2="153.0" y2="311.3" stroke="rgb(0,0,0)"  stroke-width="2.0"/>
<line x1="120.5" y1="265.5" x2="168.3" y2="222.5" stroke="rgb(0,0,0)"  stroke-width="2.0"/>
<line x1="120.5" y1="265.5" x2="103.3" y2="246.5" stroke="rgb(0,0,0)"  stroke-width="2.0"/>
<line x1="120.5" y1="265.5" x2="95.4" y2="270.9" stroke="rgb(0,0,0)"  stroke-width="2.0"/>
<line x1="173.9" y1="175.3" x2="140.5" y2="156.0" stroke="rgb(0,0,0)"  stroke-width="2.0"/>
<line x1="248.1" y1="187.0" x2="260.7" y2="185.7" stroke="rgb(0,0,0)"  stroke-width="2.0"/>
<line x1="218.5" y1="220.6" x2="229.0" y2="244.1" stroke="rgb(0,0,0)"  stroke-width="2.0"/>
<line x1="213.1" y1="223.0" x2="223.5" y2="246.5" stroke="rgb(0,0,0)"  stroke-width="2.0"/>
<line x1="107.0" y1="175.3" x2="107.0" y2="201.0" stroke="rgb(0,0,0)"  stroke-width="2.0"/>
<line x1="73.5" y1="156.0" x2="51.3" y2="168.8" stroke="rgb(0,0,0)"  stroke-width="2.0"/>
<line x1="73.5" y1="117.3" x2="51.3" y2="104.5" stroke="rgb(0,0,0)"  stroke-width="2.0"/>
<line x1="107.0" y1="98.0" x2="107.0" y2="72.3" stroke="rgb(0,0,0)"  stroke-width="2.0"/>
<line x1="140.5" y1="117.3" x2="162.7" y2="104.5" stroke="rgb(0,0,0)"  stroke-width="2.0"/>
<line x1="94.2" y1="55.4" x2="83.2" y2="49.1" stroke="rgb(0,0,0)"  stroke-width="2.0"/>
<line x1="97.2" y1="50.2" x2="86.2" y2="43.9" stroke="rgb(0,0,0)"  stroke-width="2.0"/>
<line x1="118.2" y1="52.8" x2="129.2" y2="46.5" stroke="rgb(0,0,0)"  stroke-width="2.0"/>
<line x1="218.0" y1="169.3" x2="226.4" y2="178.7" stroke="rgb(0,0,0)"  stroke-width="2.0"/>
<line x1="228.6" y1="199.6" x2="215.8" y2="221.8" stroke="rgb(0,0,0)"  stroke-width="2.0"/>
<line x1="215.8" y1="221.8" x2="190.7" y2="216.5" stroke="rgb(0,0,0)"  stroke-width="2.0"/>
<line x1="176.6" y1="200.9" x2="173.9" y2="175.3" stroke="rgb(0,0,0)"  stroke-width="2.0"/>
<line x1="173.9" y1="175.3" x2="197.6" y2="164.8" stroke="rgb(0,0,0)"  stroke-width="2.0"/>
<line x1="182.4" y1="179.5" x2="198.6" y2="172.2" stroke="rgb(0,0,0)"  stroke-width="2.0"/>
<line x1="73.5" y1="156.0" x2="73.5" y2="117.3" stroke="rgb(0,0,0)"  stroke-width="2.0"/>
<line x1="73.5" y1="117.3" x2="107.0" y2="98.0" stroke="rgb(0,0,0)"  stroke-width="2.0"/>
<line x1="82.3" y1="120.6" x2="105.4" y2="107.2" stroke="rgb(0,0,0)"  stroke-width="2.0"/>
<line x1="107.0" y1="98.0" x2="140.5" y2="117.3" stroke="rgb(0,0,0)"  stroke-width="2.0"/>
<line x1="140.5" y1="117.3" x2="140.5" y2="156.0" stroke="rgb(0,0,0)"  stroke-width="2.0"/>
<line x1="133.3" y1="123.3" x2="133.3" y2="150.0" stroke="rgb(0,0,0)"  stroke-width="2.0"/>
<line x1="140.5" y1="156.0" x2="107.0" y2="175.3" stroke="rgb(0,0,0)"  stroke-width="2.0"/>
<line x1="107.0" y1="175.3" x2="73.5" y2="156.0" stroke="rgb(0,0,0)"  stroke-width="2.0"/>
<line x1="105.4" y1="166.1" x2="82.3" y2="152.8" stroke="rgb(0,0,0)"  stroke-width="2.0"/>
<text x="267.596917" y="192.299349" fill="rgb(191,191,191)"  stroke="rgb(191,191,191)" stroke-width="1" font-size="16" >H</text>
<text x="167.945262" y="106.000000" fill="rgb(191,191,191)"  stroke="rgb(191,191,191)" stroke-width="1" font-size="16" >H</text>
<text x="34.000000" y="106.000000" fill="rgb(191,191,191)"  stroke="rgb(191,191,191)" stroke-width="1" font-size="16" >H</text>
<text x="34.000000" y="183.333333" fill="rgb(191,191,191)"  stroke="rgb(191,191,191)" stroke-width="1" font-size="16" >H</text>
<text x="100.972631" y="222.000000" fill="rgb(191,191,191)"  stroke="rgb(191,191,191)" stroke-width="1" font-size="16" >H</text>
<text x="76.695456" y="281.573532" fill="rgb(191,191,191)"  stroke="rgb(191,191,191)" stroke-width="1" font-size="16" >H</text>
<text x="88.644113" y="244.799347" fill="rgb(191,191,191)"  stroke="rgb(191,191,191)" stroke-width="1" font-size="16" >H</text>
<text x="159.330601" y="323.304645" fill="rgb(191,191,191)"  stroke="rgb(191,191,191)" stroke-width="1" font-size="16" >H</text>
<text x="101.860734" y="375.050745" fill="rgb(191,191,191)"  stroke="rgb(191,191,191)" stroke-width="1" font-size="16" >H</text>
<text x="57.047297" y="325.280380" fill="rgb(191,191,191)"  stroke="rgb(191,191,191)" stroke-width="1" font-size="16" >H</text>
<text x="134.458947" y="48.000000" fill="rgb(255,12,12)"  stroke="rgb(255,12,12)" stroke-width="1" font-size="16" >OH</text>
<text x="67.486316" y="48.000000" fill="rgb(255,12,12)"  stroke="rgb(255,12,12)" stroke-width="1" font-size="16" >O</text>
<text x="100.972631" y="67.333333" fill="rgb(12,12,255)"  stroke="rgb(12,12,255)" stroke-width="1" font-size="16" >N</text>
<text x="225.535887" y="265.151190" fill="rgb(178,178,0)"  stroke="rgb(178,178,0)" stroke-width="1" font-size="16" >S</text>
<text x="229.142070" y="196.341116" fill="rgb(12,12,255)"  stroke="rgb(12,12,255)" stroke-width="1" font-size="16" >N</text>
<text x="203.269020" y="167.606183" fill="rgb(12,12,255)"  stroke="rgb(12,12,255)" stroke-width="1" font-size="16" >N</text>
<text x="171.987030" y="221.788180" fill="rgb(12,12,255)"  stroke="rgb(12,12,255)" stroke-width="1" font-size="16" >N</text>
</svg>
</g>
<text font-size="18.000000" fill ="black" font-family="sans-serif"
x="10.000000" y="20.000000" >ZINC00160246</text>
</svg>
