<?xml version="1.0"?>
<svg version="1.1" id="topsvg"
xmlns="http://www.w3.org/2000/svg" xmlns:xlink="http://www.w3.org/1999/xlink"
xmlns:cml="http://www.xml-cml.org/schema" x="0" y="0" width="200px" height="200px" viewBox="0 0 100 100">
<title>ZINC04640335 - Open Babel Depiction</title>
<rect x="0" y="0" width="100" height="100" fill="white"/>
<g transform="translate(0,0)">
<svg width="100" height="100" x="0" y="0" viewBox="0 0 442.633 256.275"
font-family="sans-serif" stroke="rgb(0,0,0)" stroke-width="2"  stroke-linecap="round">
<line x1="252.5" y1="86.0" x2="235.1" y2="68.6" stroke="rgb(0,0,0)"  stroke-width="2.0"/>
<line x1="288.8" y1="76.3" x2="295.1" y2="52.6" stroke="rgb(0,0,0)"  stroke-width="2.0"/>
<line x1="269.3" y1="148.9" x2="263.0" y2="172.6" stroke="rgb(0,0,0)"  stroke-width="2.0"/>
<line x1="242.8" y1="122.3" x2="170.2" y2="141.8" stroke="rgb(0,0,0)"  stroke-width="2.0"/>
<polygon points="170.166243 141.766754 167.559830 192.209610 159.628272 191.165401 " stroke-width="2.000000" fill="rgb(0,0,0)"  stroke="rgb(0,0,0)" />
<line x1="170.2" y1="104.2" x2="194.7" y2="104.2" stroke="rgb(0,0,0)"  stroke-width="2.0"/>
<line x1="170.2" y1="104.2" x2="182.5" y2="82.9" stroke="rgb(0,0,0)"  stroke-width="2.0"/>
<line x1="134.6" y1="85.4" x2="134.6" y2="60.8" stroke="rgb(0,0,0)"  stroke-width="2.0"/>
<line x1="140.6" y1="85.4" x2="140.6" y2="60.8" stroke="rgb(0,0,0)"  stroke-width="2.0"/>
<line x1="105.1" y1="104.2" x2="83.8" y2="91.9" stroke="rgb(0,0,0)"  stroke-width="2.0"/>
<line x1="105.1" y1="141.8" x2="83.8" y2="154.1" stroke="rgb(0,0,0)"  stroke-width="2.0"/>
<line x1="61.3" y1="154.1" x2="51.3" y2="148.3" stroke="rgb(0,0,0)"  stroke-width="2.0"/>
<line x1="137.6" y1="160.6" x2="125.3" y2="181.8" stroke="rgb(0,0,0)"  stroke-width="2.0"/>
<line x1="137.6" y1="160.6" x2="149.9" y2="181.8" stroke="rgb(0,0,0)"  stroke-width="2.0"/>
<line x1="366.3" y1="136.0" x2="383.7" y2="153.4" stroke="rgb(0,0,0)"  stroke-width="2.0"/>
<line x1="366.3" y1="136.0" x2="390.1" y2="129.6" stroke="rgb(0,0,0)"  stroke-width="2.0"/>
<line x1="315.3" y1="102.9" x2="305.6" y2="139.2" stroke="rgb(0,0,0)"  stroke-width="2.0"/>
<line x1="305.6" y1="139.2" x2="269.3" y2="148.9" stroke="rgb(0,0,0)"  stroke-width="2.0"/>
<line x1="298.0" y1="133.8" x2="273.3" y2="140.4" stroke="rgb(0,0,0)"  stroke-width="2.0"/>
<line x1="269.3" y1="148.9" x2="242.8" y2="122.3" stroke="rgb(0,0,0)"  stroke-width="2.0"/>
<line x1="242.8" y1="122.3" x2="252.5" y2="86.0" stroke="rgb(0,0,0)"  stroke-width="2.0"/>
<line x1="251.3" y1="118.4" x2="257.9" y2="93.7" stroke="rgb(0,0,0)"  stroke-width="2.0"/>
<line x1="252.5" y1="86.0" x2="288.8" y2="76.3" stroke="rgb(0,0,0)"  stroke-width="2.0"/>
<line x1="288.8" y1="76.3" x2="315.3" y2="102.9" stroke="rgb(0,0,0)"  stroke-width="2.0"/>
<line x1="287.9" y1="85.6" x2="306.0" y2="103.7" stroke="rgb(0,0,0)"  stroke-width="2.0"/>
<line x1="366.3" y1="136.0" x2="347.2" y2="151.4" stroke="rgb(0,0,0)"  stroke-width="2.0"/>
<line x1="326.2" y1="152.5" x2="305.6" y2="139.2" stroke="rgb(0,0,0)"  stroke-width="2.0"/>
<line x1="315.3" y1="102.9" x2="339.9" y2="101.6" stroke="rgb(0,0,0)"  stroke-width="2.0"/>
<line x1="357.5" y1="113.0" x2="366.3" y2="136.0" stroke="rgb(0,0,0)"  stroke-width="2.0"/>
<line x1="137.6" y1="85.4" x2="105.1" y2="104.2" stroke="rgb(0,0,0)"  stroke-width="2.0"/>
<line x1="105.1" y1="104.2" x2="105.1" y2="141.8" stroke="rgb(0,0,0)"  stroke-width="2.0"/>
<line x1="112.3" y1="110.2" x2="112.3" y2="135.8" stroke="rgb(0,0,0)"  stroke-width="2.0"/>
<line x1="105.1" y1="141.8" x2="137.6" y2="160.6" stroke="rgb(0,0,0)"  stroke-width="2.0"/>
<line x1="137.6" y1="160.6" x2="170.2" y2="141.8" stroke="rgb(0,0,0)"  stroke-width="2.0"/>
<line x1="170.2" y1="141.8" x2="170.2" y2="104.2" stroke="rgb(0,0,0)"  stroke-width="2.0"/>
<line x1="170.2" y1="104.2" x2="137.6" y2="85.4" stroke="rgb(0,0,0)"  stroke-width="2.0"/>
<text x="131.624682" y="55.827361" fill="rgb(255,12,12)"  stroke="rgb(255,12,12)" stroke-width="1" font-size="16" >O</text>
<text x="34.000000" y="149.766754" fill="rgb(191,191,191)"  stroke="rgb(191,191,191)" stroke-width="1" font-size="16" >H</text>
<text x="396.633424" y="134.253575" fill="rgb(191,191,191)"  stroke="rgb(191,191,191)" stroke-width="1" font-size="16" >H</text>
<text x="386.908103" y="170.548969" fill="rgb(191,191,191)"  stroke="rgb(191,191,191)" stroke-width="1" font-size="16" >H</text>
<text x="182.954121" y="79.649436" fill="rgb(191,191,191)"  stroke="rgb(191,191,191)" stroke-width="1" font-size="16" >H</text>
<text x="150.412561" y="201.096194" fill="rgb(191,191,191)"  stroke="rgb(191,191,191)" stroke-width="1" font-size="16" >H</text>
<text x="112.836803" y="201.096194" fill="rgb(191,191,191)"  stroke="rgb(191,191,191)" stroke-width="1" font-size="16" >H</text>
<text x="66.541561" y="93.403118" fill="rgb(191,191,191)"  stroke="rgb(191,191,191)" stroke-width="1" font-size="16" >H</text>
<text x="201.742000" y="112.190997" fill="rgb(191,191,191)"  stroke="rgb(191,191,191)" stroke-width="1" font-size="16" >H</text>
<text x="253.601783" y="193.181579" fill="rgb(191,191,191)"  stroke="rgb(191,191,191)" stroke-width="1" font-size="16" >H</text>
<text x="292.503070" y="48.000000" fill="rgb(191,191,191)"  stroke="rgb(191,191,191)" stroke-width="1" font-size="16" >H</text>
<text x="219.912281" y="67.450643" fill="rgb(191,191,191)"  stroke="rgb(191,191,191)" stroke-width="1" font-size="16" >H</text>
<text x="346.872083" y="108.898904" fill="rgb(255,12,12)"  stroke="rgb(255,12,12)" stroke-width="1" font-size="16" >O</text>
<text x="331.136181" y="167.626087" fill="rgb(255,12,12)"  stroke="rgb(255,12,12)" stroke-width="1" font-size="16" >O</text>
<text x="66.541561" y="168.554633" fill="rgb(255,12,12)"  stroke="rgb(255,12,12)" stroke-width="1" font-size="16" >O</text>
<text x="154.357001" y="224.275338" fill="rgb(191,191,191)"  stroke="rgb(191,191,191)" stroke-width="1" font-size="16" >H</text>
</svg>
</g>
<text font-size="18.000000" fill ="black" font-family="sans-serif"
x="10.000000" y="20.000000" >ZINC04640335</text>
</svg>
