<?xml version="1.0"?>
<svg version="1.1" id="topsvg"
xmlns="http://www.w3.org/2000/svg" xmlns:xlink="http://www.w3.org/1999/xlink"
xmlns:cml="http://www.xml-cml.org/schema" x="0" y="0" width="200px" height="200px" viewBox="0 0 100 100">
<title>ZINC04523255 - Open Babel Depiction</title>
<rect x="0" y="0" width="100" height="100" fill="white"/>
<g transform="translate(0,0)">
<svg width="100" height="100" x="0" y="0" viewBox="0 0 466.41 274.641"
font-family="sans-serif" stroke="rgb(0,0,0)" stroke-width="2"  stroke-linecap="round">
<line x1="287.8" y1="74.6" x2="253.2" y2="94.6" stroke="rgb(0,0,0)"  stroke-width="2.0"/>
<line x1="287.8" y1="74.6" x2="311.2" y2="88.1" stroke="rgb(0,0,0)"  stroke-width="2.0"/>
<line x1="287.8" y1="74.6" x2="301.3" y2="51.3" stroke="rgb(0,0,0)"  stroke-width="2.0"/>
<line x1="287.8" y1="74.6" x2="274.3" y2="51.3" stroke="rgb(0,0,0)"  stroke-width="2.0"/>
<line x1="249.8" y1="90.4" x2="251.2" y2="89.6" stroke="rgb(0,0,0)"  stroke-width="1.0"/>
<line x1="247.1" y1="87.0" x2="249.6" y2="85.6" stroke="rgb(0,0,0)"  stroke-width="1.0"/>
<line x1="244.4" y1="83.6" x2="248.0" y2="81.5" stroke="rgb(0,0,0)"  stroke-width="1.0"/>
<line x1="241.7" y1="80.2" x2="246.4" y2="77.5" stroke="rgb(0,0,0)"  stroke-width="1.0"/>
<line x1="239.0" y1="76.8" x2="244.9" y2="73.5" stroke="rgb(0,0,0)"  stroke-width="1.0"/>
<line x1="236.3" y1="73.4" x2="243.3" y2="69.4" stroke="rgb(0,0,0)"  stroke-width="1.0"/>
<line x1="253.2" y1="94.6" x2="218.6" y2="114.6" stroke="rgb(0,0,0)"  stroke-width="2.0"/>
<line x1="253.2" y1="94.6" x2="266.7" y2="118.0" stroke="rgb(0,0,0)"  stroke-width="2.0"/>
<polygon points="218.564065 114.641016 201.699963 93.431535 208.628166 89.431535 " stroke-width="2.000000" fill="rgb(0,0,0)"  stroke="rgb(0,0,0)" />
<line x1="218.6" y1="114.6" x2="183.9" y2="134.6" stroke="rgb(0,0,0)"  stroke-width="2.0"/>
<line x1="218.6" y1="114.6" x2="232.1" y2="138.0" stroke="rgb(0,0,0)"  stroke-width="2.0"/>
<polygon points="183.923048 134.641016 167.058947 113.431535 173.987150 109.431535 " stroke-width="2.000000" fill="rgb(0,0,0)"  stroke="rgb(0,0,0)" />
<line x1="183.9" y1="134.6" x2="149.3" y2="154.6" stroke="rgb(0,0,0)"  stroke-width="2.0"/>
<line x1="183.9" y1="134.6" x2="197.4" y2="158.0" stroke="rgb(0,0,0)"  stroke-width="2.0"/>
<line x1="152.3" y1="154.6" x2="152.3" y2="181.6" stroke="rgb(0,0,0)"  stroke-width="2.0"/>
<line x1="146.3" y1="154.6" x2="146.3" y2="181.6" stroke="rgb(0,0,0)"  stroke-width="2.0"/>
<line x1="149.3" y1="154.6" x2="114.6" y2="134.6" stroke="rgb(0,0,0)"  stroke-width="2.0"/>
<line x1="114.6" y1="134.6" x2="91.3" y2="148.1" stroke="rgb(0,0,0)"  stroke-width="2.0"/>
<line x1="114.6" y1="134.6" x2="101.1" y2="111.3" stroke="rgb(0,0,0)"  stroke-width="2.0"/>
<line x1="114.6" y1="134.6" x2="128.1" y2="111.3" stroke="rgb(0,0,0)"  stroke-width="2.0"/>
<line x1="80.0" y1="167.6" x2="80.0" y2="181.6" stroke="rgb(0,0,0)"  stroke-width="2.0"/>
<line x1="93.0" y1="191.6" x2="107.0" y2="191.6" stroke="rgb(0,0,0)"  stroke-width="2.0"/>
<line x1="93.0" y1="197.6" x2="107.0" y2="197.6" stroke="rgb(0,0,0)"  stroke-width="2.0"/>
<line x1="80.0" y1="207.6" x2="80.0" y2="221.6" stroke="rgb(0,0,0)"  stroke-width="2.0"/>
<line x1="67.0" y1="194.6" x2="53.0" y2="194.6" stroke="rgb(0,0,0)"  stroke-width="2.0"/>
<line x1="197.4" y1="180.5" x2="190.4" y2="192.7" stroke="rgb(0,0,0)"  stroke-width="2.0"/>
<line x1="251.6" y1="149.3" x2="265.6" y2="149.3" stroke="rgb(0,0,0)"  stroke-width="2.0"/>
<line x1="286.2" y1="129.3" x2="300.2" y2="129.3" stroke="rgb(0,0,0)"  stroke-width="2.0"/>
<line x1="333.7" y1="88.1" x2="345.9" y2="81.1" stroke="rgb(0,0,0)"  stroke-width="2.0"/>
<polygon points="363.728129 86.072551 373.992231 95.850497 367.064028 99.850497 " stroke-width="2.000000" fill="rgb(0,0,0)"  stroke="rgb(0,0,0)" />
<line x1="368.4" y1="68.1" x2="380.5" y2="61.1" stroke="rgb(0,0,0)"  stroke-width="2.0"/>
<line x1="350.6" y1="63.4" x2="343.6" y2="51.3" stroke="rgb(0,0,0)"  stroke-width="2.0"/>
<line x1="403.0" y1="61.1" x2="415.2" y2="68.1" stroke="rgb(0,0,0)"  stroke-width="2.0"/>
<text x="197.923048" y="177.282032" fill="rgb(255,12,12)"  stroke="rgb(255,12,12)" stroke-width="1" font-size="16" >O</text>
<text x="420.410162" y="82.641016" fill="rgb(191,191,191)"  stroke="rgb(191,191,191)" stroke-width="1" font-size="16" >H</text>
<text x="307.205081" y="137.282032" fill="rgb(191,191,191)"  stroke="rgb(191,191,191)" stroke-width="1" font-size="16" >H</text>
<text x="272.564065" y="157.282032" fill="rgb(191,191,191)"  stroke="rgb(191,191,191)" stroke-width="1" font-size="16" >H</text>
<text x="177.923048" y="211.923048" fill="rgb(191,191,191)"  stroke="rgb(191,191,191)" stroke-width="1" font-size="16" >H</text>
<text x="128.641016" y="108.000000" fill="rgb(191,191,191)"  stroke="rgb(191,191,191)" stroke-width="1" font-size="16" >H</text>
<text x="88.641016" y="108.000000" fill="rgb(191,191,191)"  stroke="rgb(191,191,191)" stroke-width="1" font-size="16" >H</text>
<text x="261.846097" y="48.000000" fill="rgb(191,191,191)"  stroke="rgb(191,191,191)" stroke-width="1" font-size="16" >H</text>
<text x="301.846097" y="48.000000" fill="rgb(191,191,191)"  stroke="rgb(191,191,191)" stroke-width="1" font-size="16" >H</text>
<text x="319.128129" y="48.000000" fill="rgb(255,12,12)"  stroke="rgb(255,12,12)" stroke-width="1" font-size="16" >HO</text>
<text x="385.769145" y="62.641016" fill="rgb(255,12,12)"  stroke="rgb(255,12,12)" stroke-width="1" font-size="16" >O</text>
<text x="371.128129" y="117.282032" fill="rgb(255,12,12)"  stroke="rgb(255,12,12)" stroke-width="1" font-size="16" >O</text>
<text x="351.128129" y="82.641016" fill="rgb(255,127,0)"  stroke="rgb(255,127,0)" stroke-width="1" font-size="16" >P</text>
<text x="316.487113" y="102.641016" fill="rgb(255,12,12)"  stroke="rgb(255,12,12)" stroke-width="1" font-size="16" >O</text>
<text x="267.205081" y="137.282032" fill="rgb(255,12,12)"  stroke="rgb(255,12,12)" stroke-width="1" font-size="16" >O</text>
<text x="232.564065" y="157.282032" fill="rgb(255,12,12)"  stroke="rgb(255,12,12)" stroke-width="1" font-size="16" >O</text>
<text x="22.000000" y="202.641016" fill="rgb(255,12,12)"  stroke="rgb(255,12,12)" stroke-width="1" font-size="16" >HO</text>
<text x="74.000000" y="242.641016" fill="rgb(255,12,12)"  stroke="rgb(255,12,12)" stroke-width="1" font-size="16" >OH</text>
<text x="114.000000" y="202.641016" fill="rgb(255,12,12)"  stroke="rgb(255,12,12)" stroke-width="1" font-size="16" >O</text>
<text x="74.000000" y="202.641016" fill="rgb(255,127,0)"  stroke="rgb(255,127,0)" stroke-width="1" font-size="16" >P</text>
<text x="74.000000" y="162.641016" fill="rgb(255,12,12)"  stroke="rgb(255,12,12)" stroke-width="1" font-size="16" >O</text>
<text x="143.282032" y="202.641016" fill="rgb(255,12,12)"  stroke="rgb(255,12,12)" stroke-width="1" font-size="16" >O</text>
<text x="157.923048" y="108.000000" fill="rgb(191,191,191)"  stroke="rgb(191,191,191)" stroke-width="1" font-size="16" >H</text>
<text x="192.564065" y="88.000000" fill="rgb(191,191,191)"  stroke="rgb(191,191,191)" stroke-width="1" font-size="16" >H</text>
<text x="227.205081" y="68.000000" fill="rgb(191,191,191)"  stroke="rgb(191,191,191)" stroke-width="1" font-size="16" >H</text>
</svg>
</g>
<text font-size="18.000000" fill ="black" font-family="sans-serif"
x="10.000000" y="20.000000" >ZINC04523255</text>
</svg>
