<?xml version="1.0"?>
<svg version="1.1" id="topsvg"
xmlns="http://www.w3.org/2000/svg" xmlns:xlink="http://www.w3.org/1999/xlink"
xmlns:cml="http://www.xml-cml.org/schema" x="0" y="0" width="200px" height="200px" viewBox="0 0 100 100">
<title>ZINC20160412 - Open Babel Depiction</title>
<rect x="0" y="0" width="100" height="100" fill="white"/>
<g transform="translate(0,0)">
<svg width="100" height="100" x="0" y="0" viewBox="0 0 409.237 251.348"
font-family="sans-serif" stroke="rgb(0,0,0)" stroke-width="2"  stroke-linecap="round">
<line x1="333.4" y1="155.7" x2="344.8" y2="175.4" stroke="rgb(0,0,0)"  stroke-width="2.0"/>
<line x1="333.4" y1="155.7" x2="356.2" y2="155.7" stroke="rgb(0,0,0)"  stroke-width="2.0"/>
<line x1="333.4" y1="119.9" x2="356.2" y2="119.9" stroke="rgb(0,0,0)"  stroke-width="2.0"/>
<line x1="333.4" y1="119.9" x2="344.8" y2="100.1" stroke="rgb(0,0,0)"  stroke-width="2.0"/>
<line x1="302.5" y1="102.0" x2="313.8" y2="82.3" stroke="rgb(0,0,0)"  stroke-width="2.0"/>
<line x1="302.5" y1="102.0" x2="273.2" y2="51.3" stroke="rgb(0,0,0)"  stroke-width="2.0"/>
<line x1="271.5" y1="119.9" x2="145.7" y2="153.6" stroke="rgb(0,0,0)"  stroke-width="2.0"/>
<line x1="271.5" y1="119.9" x2="274.4" y2="97.3" stroke="rgb(0,0,0)"  stroke-width="2.0"/>
<line x1="271.5" y1="155.7" x2="248.7" y2="155.7" stroke="rgb(0,0,0)"  stroke-width="2.0"/>
<line x1="271.5" y1="155.7" x2="260.1" y2="175.4" stroke="rgb(0,0,0)"  stroke-width="2.0"/>
<line x1="302.5" y1="173.6" x2="291.1" y2="193.3" stroke="rgb(0,0,0)"  stroke-width="2.0"/>
<line x1="302.5" y1="173.6" x2="313.8" y2="193.3" stroke="rgb(0,0,0)"  stroke-width="2.0"/>
<line x1="143.8" y1="166.4" x2="142.7" y2="167.6" stroke="rgb(0,0,0)"  stroke-width="1.0"/>
<line x1="145.6" y1="167.4" x2="143.6" y2="169.4" stroke="rgb(0,0,0)"  stroke-width="1.0"/>
<line x1="147.5" y1="168.3" x2="144.5" y2="171.2" stroke="rgb(0,0,0)"  stroke-width="1.0"/>
<line x1="149.3" y1="169.2" x2="145.5" y2="173.1" stroke="rgb(0,0,0)"  stroke-width="1.0"/>
<line x1="151.1" y1="170.1" x2="146.4" y2="174.9" stroke="rgb(0,0,0)"  stroke-width="1.0"/>
<line x1="153.0" y1="171.1" x2="147.3" y2="176.7" stroke="rgb(0,0,0)"  stroke-width="1.0"/>
<line x1="105.4" y1="179.5" x2="117.8" y2="198.6" stroke="rgb(0,0,0)"  stroke-width="2.0"/>
<line x1="105.4" y1="179.5" x2="95.0" y2="199.8" stroke="rgb(0,0,0)"  stroke-width="2.0"/>
<line x1="75.3" y1="160.0" x2="61.0" y2="177.7" stroke="rgb(0,0,0)"  stroke-width="2.0"/>
<line x1="75.3" y1="160.0" x2="52.8" y2="156.4" stroke="rgb(0,0,0)"  stroke-width="2.0"/>
<polygon points="84.611843 125.396637 60.792096 120.537673 63.659039 113.069030 " stroke-width="2.000000" fill="rgb(0,0,0)"  stroke="rgb(0,0,0)" />
<line x1="84.6" y1="125.4" x2="81.0" y2="102.9" stroke="rgb(0,0,0)"  stroke-width="2.0"/>
<line x1="120.4" y1="123.5" x2="121.5" y2="100.8" stroke="rgb(0,0,0)"  stroke-width="2.0"/>
<line x1="120.4" y1="123.5" x2="140.7" y2="113.2" stroke="rgb(0,0,0)"  stroke-width="2.0"/>
<line x1="66.9" y1="85.4" x2="57.7" y2="81.9" stroke="rgb(0,0,0)"  stroke-width="2.0"/>
<line x1="89.1" y1="81.9" x2="96.7" y2="75.7" stroke="rgb(0,0,0)"  stroke-width="2.0"/>
<line x1="75.3" y1="160.0" x2="84.6" y2="125.4" stroke="rgb(0,0,0)"  stroke-width="2.0"/>
<line x1="84.6" y1="125.4" x2="120.4" y2="123.5" stroke="rgb(0,0,0)"  stroke-width="2.0"/>
<line x1="120.4" y1="123.5" x2="128.5" y2="144.8" stroke="rgb(0,0,0)"  stroke-width="2.0"/>
<line x1="123.1" y1="165.1" x2="105.4" y2="179.5" stroke="rgb(0,0,0)"  stroke-width="2.0"/>
<line x1="105.4" y1="179.5" x2="75.3" y2="160.0" stroke="rgb(0,0,0)"  stroke-width="2.0"/>
<line x1="302.5" y1="102.0" x2="271.5" y2="119.9" stroke="rgb(0,0,0)"  stroke-width="2.0"/>
<line x1="271.5" y1="119.9" x2="271.5" y2="155.7" stroke="rgb(0,0,0)"  stroke-width="2.0"/>
<line x1="271.5" y1="155.7" x2="302.5" y2="173.6" stroke="rgb(0,0,0)"  stroke-width="2.0"/>
<line x1="302.5" y1="173.6" x2="333.4" y2="155.7" stroke="rgb(0,0,0)"  stroke-width="2.0"/>
<line x1="333.4" y1="155.7" x2="333.4" y2="119.9" stroke="rgb(0,0,0)"  stroke-width="2.0"/>
<line x1="333.4" y1="119.9" x2="302.5" y2="102.0" stroke="rgb(0,0,0)"  stroke-width="2.0"/>
<text x="83.116343" y="219.347613" fill="rgb(191,191,191)"  stroke="rgb(191,191,191)" stroke-width="1" font-size="16" >H</text>
<text x="314.347307" y="78.994593" fill="rgb(191,191,191)"  stroke="rgb(191,191,191)" stroke-width="1" font-size="16" >H</text>
<text x="260.663097" y="48.000000" fill="rgb(191,191,191)"  stroke="rgb(191,191,191)" stroke-width="1" font-size="16" >H</text>
<text x="270.129441" y="92.400634" fill="rgb(191,191,191)"  stroke="rgb(191,191,191)" stroke-width="1" font-size="16" >H</text>
<text x="229.668503" y="163.673397" fill="rgb(191,191,191)"  stroke="rgb(191,191,191)" stroke-width="1" font-size="16" >H</text>
<text x="247.563240" y="194.667991" fill="rgb(191,191,191)"  stroke="rgb(191,191,191)" stroke-width="1" font-size="16" >H</text>
<text x="278.557833" y="212.562728" fill="rgb(191,191,191)"  stroke="rgb(191,191,191)" stroke-width="1" font-size="16" >H</text>
<text x="314.347307" y="212.562728" fill="rgb(191,191,191)"  stroke="rgb(191,191,191)" stroke-width="1" font-size="16" >H</text>
<text x="118.856769" y="217.474537" fill="rgb(191,191,191)"  stroke="rgb(191,191,191)" stroke-width="1" font-size="16" >H</text>
<text x="345.341900" y="96.889330" fill="rgb(191,191,191)"  stroke="rgb(191,191,191)" stroke-width="1" font-size="16" >H</text>
<text x="46.825800" y="195.780259" fill="rgb(191,191,191)"  stroke="rgb(191,191,191)" stroke-width="1" font-size="16" >H</text>
<text x="34.000000" y="162.367907" fill="rgb(191,191,191)"  stroke="rgb(191,191,191)" stroke-width="1" font-size="16" >H</text>
<text x="116.225345" y="95.783136" fill="rgb(191,191,191)"  stroke="rgb(191,191,191)" stroke-width="1" font-size="16" >H</text>
<text x="146.240923" y="115.275480" fill="rgb(191,191,191)"  stroke="rgb(191,191,191)" stroke-width="1" font-size="16" >H</text>
<text x="39.600784" y="85.221991" fill="rgb(191,191,191)"  stroke="rgb(191,191,191)" stroke-width="1" font-size="16" >H</text>
<text x="100.826781" y="75.524746" fill="rgb(191,191,191)"  stroke="rgb(191,191,191)" stroke-width="1" font-size="16" >H</text>
<text x="152.485049" y="190.242893" fill="rgb(191,191,191)"  stroke="rgb(191,191,191)" stroke-width="1" font-size="16" >H</text>
<text x="363.236637" y="127.883924" fill="rgb(191,191,191)"  stroke="rgb(191,191,191)" stroke-width="1" font-size="16" >H</text>
<text x="363.236637" y="163.673397" fill="rgb(191,191,191)"  stroke="rgb(191,191,191)" stroke-width="1" font-size="16" >H</text>
<text x="345.341900" y="194.667991" fill="rgb(191,191,191)"  stroke="rgb(191,191,191)" stroke-width="1" font-size="16" >H</text>
<text x="73.013136" y="98.047792" fill="rgb(12,12,255)"  stroke="rgb(12,12,255)" stroke-width="1" font-size="16" >N</text>
<text x="45.199491" y="120.570837" fill="rgb(191,191,191)"  stroke="rgb(191,191,191)" stroke-width="1" font-size="16" >H</text>
<text x="137.978069" y="152.903913" fill="rgb(12,12,255)"  stroke="rgb(12,12,255)" stroke-width="1" font-size="16" >+</text>
<text x="127.178069" y="164.935913" fill="rgb(12,12,255)"  stroke="rgb(12,12,255)" stroke-width="1" font-size="16" >N</text>
</svg>
</g>
<text font-size="18.000000" fill ="black" font-family="sans-serif"
x="10.000000" y="20.000000" >ZINC20160412</text>
</svg>
