<?xml version="1.0"?>
<svg version="1.1" id="topsvg"
xmlns="http://www.w3.org/2000/svg" xmlns:xlink="http://www.w3.org/1999/xlink"
xmlns:cml="http://www.xml-cml.org/schema" x="0" y="0" width="200px" height="200px" viewBox="0 0 100 100">
<title>ZINC03888428 - Open Babel Depiction</title>
<rect x="0" y="0" width="100" height="100" fill="white"/>
<g transform="translate(0,0)">
<svg width="100" height="100" x="0" y="0" viewBox="0 0 327.011 284.588"
font-family="sans-serif" stroke="rgb(0,0,0)" stroke-width="2"  stroke-linecap="round">
<line x1="158.4" y1="206.5" x2="178.4" y2="188.5" stroke="rgb(0,0,0)"  stroke-width="2.0"/>
<line x1="158.4" y1="206.5" x2="150.0" y2="232.2" stroke="rgb(0,0,0)"  stroke-width="2.0"/>
<line x1="158.4" y1="206.5" x2="176.4" y2="226.6" stroke="rgb(0,0,0)"  stroke-width="2.0"/>
<line x1="158.4" y1="206.5" x2="132.7" y2="198.2" stroke="rgb(0,0,0)"  stroke-width="2.0"/>
<line x1="227.2" y1="188.1" x2="238.2" y2="212.8" stroke="rgb(0,0,0)"  stroke-width="2.0"/>
<line x1="247.2" y1="153.5" x2="274.1" y2="150.6" stroke="rgb(0,0,0)"  stroke-width="2.0"/>
<line x1="183.9" y1="140.0" x2="160.5" y2="126.5" stroke="rgb(0,0,0)"  stroke-width="2.0"/>
<line x1="138.0" y1="126.5" x2="114.6" y2="140.0" stroke="rgb(0,0,0)"  stroke-width="2.0"/>
<line x1="114.6" y1="140.0" x2="80.0" y2="120.0" stroke="rgb(0,0,0)"  stroke-width="2.0"/>
<line x1="114.6" y1="140.0" x2="101.1" y2="163.4" stroke="rgb(0,0,0)"  stroke-width="2.0"/>
<line x1="114.6" y1="140.0" x2="128.1" y2="163.4" stroke="rgb(0,0,0)"  stroke-width="2.0"/>
<line x1="80.0" y1="120.0" x2="53.0" y2="120.0" stroke="rgb(0,0,0)"  stroke-width="2.0"/>
<line x1="80.0" y1="120.0" x2="66.5" y2="143.4" stroke="rgb(0,0,0)"  stroke-width="2.0"/>
<line x1="80.0" y1="120.0" x2="80.0" y2="93.0" stroke="rgb(0,0,0)"  stroke-width="2.0"/>
<line x1="107.0" y1="80.0" x2="93.0" y2="80.0" stroke="rgb(0,0,0)"  stroke-width="2.0"/>
<line x1="80.0" y1="53.0" x2="80.0" y2="67.0" stroke="rgb(0,0,0)"  stroke-width="2.0"/>
<line x1="67.0" y1="80.0" x2="53.0" y2="80.0" stroke="rgb(0,0,0)"  stroke-width="2.0"/>
<line x1="223.2" y1="111.0" x2="226.1" y2="97.3" stroke="rgb(0,0,0)"  stroke-width="2.0"/>
<line x1="247.2" y1="153.5" x2="229.2" y2="133.4" stroke="rgb(0,0,0)"  stroke-width="2.0"/>
<line x1="208.4" y1="129.1" x2="183.9" y2="140.0" stroke="rgb(0,0,0)"  stroke-width="2.0"/>
<line x1="209.5" y1="136.5" x2="192.3" y2="144.1" stroke="rgb(0,0,0)"  stroke-width="2.0"/>
<line x1="183.9" y1="140.0" x2="186.7" y2="166.9" stroke="rgb(0,0,0)"  stroke-width="2.0"/>
<line x1="200.8" y1="182.5" x2="227.2" y2="188.1" stroke="rgb(0,0,0)"  stroke-width="2.0"/>
<line x1="227.2" y1="188.1" x2="247.2" y2="153.5" stroke="rgb(0,0,0)"  stroke-width="2.0"/>
<line x1="224.0" y1="179.3" x2="238.0" y2="155.1" stroke="rgb(0,0,0)"  stroke-width="2.0"/>
<text x="237.499557" y="232.639162" fill="rgb(191,191,191)"  stroke="rgb(191,191,191)" stroke-width="1" font-size="16" >H</text>
<text x="222.781334" y="92.604630" fill="rgb(191,191,191)"  stroke="rgb(191,191,191)" stroke-width="1" font-size="16" >H</text>
<text x="214.464867" y="131.730534" fill="rgb(12,12,255)"  stroke="rgb(12,12,255)" stroke-width="1" font-size="16" >N</text>
<text x="34.000000" y="88.000000" fill="rgb(191,191,191)"  stroke="rgb(191,191,191)" stroke-width="1" font-size="16" >H</text>
<text x="84.800000" y="75.968000" fill="rgb(12,12,255)"  stroke="rgb(12,12,255)" stroke-width="1" font-size="16" >+</text>
<text x="74.000000" y="88.000000" fill="rgb(12,12,255)"  stroke="rgb(12,12,255)" stroke-width="1" font-size="16" >N</text>
<text x="74.000000" y="48.000000" fill="rgb(191,191,191)"  stroke="rgb(191,191,191)" stroke-width="1" font-size="16" >H</text>
<text x="114.000000" y="88.000000" fill="rgb(191,191,191)"  stroke="rgb(191,191,191)" stroke-width="1" font-size="16" >H</text>
<text x="54.000000" y="162.641016" fill="rgb(191,191,191)"  stroke="rgb(191,191,191)" stroke-width="1" font-size="16" >H</text>
<text x="34.000000" y="128.000000" fill="rgb(191,191,191)"  stroke="rgb(191,191,191)" stroke-width="1" font-size="16" >H</text>
<text x="128.641016" y="182.641016" fill="rgb(191,191,191)"  stroke="rgb(191,191,191)" stroke-width="1" font-size="16" >H</text>
<text x="88.641016" y="182.641016" fill="rgb(191,191,191)"  stroke="rgb(191,191,191)" stroke-width="1" font-size="16" >H</text>
<text x="281.010967" y="157.275189" fill="rgb(191,191,191)"  stroke="rgb(191,191,191)" stroke-width="1" font-size="16" >H</text>
<text x="114.336133" y="202.185420" fill="rgb(191,191,191)"  stroke="rgb(191,191,191)" stroke-width="1" font-size="16" >H</text>
<text x="179.143618" y="244.271893" fill="rgb(191,191,191)"  stroke="rgb(191,191,191)" stroke-width="1" font-size="16" >H</text>
<text x="140.017714" y="252.588361" fill="rgb(191,191,191)"  stroke="rgb(191,191,191)" stroke-width="1" font-size="16" >H</text>
<text x="143.282032" y="128.000000" fill="rgb(178,178,0)"  stroke="rgb(178,178,0)" stroke-width="1" font-size="16" >S</text>
<text x="182.104187" y="187.780876" fill="rgb(12,12,255)"  stroke="rgb(12,12,255)" stroke-width="1" font-size="16" >N</text>
</svg>
</g>
<text font-size="18.000000" fill ="black" font-family="sans-serif"
x="10.000000" y="20.000000" >ZINC03888428</text>
</svg>
