<?xml version="1.0"?>
<svg version="1.1" id="topsvg"
xmlns="http://www.w3.org/2000/svg" xmlns:xlink="http://www.w3.org/1999/xlink"
xmlns:cml="http://www.xml-cml.org/schema" x="0" y="0" width="200px" height="200px" viewBox="0 0 100 100">
<title>ZINC19318966 - Open Babel Depiction</title>
<rect x="0" y="0" width="100" height="100" fill="white"/>
<g transform="translate(0,0)">
<svg width="100" height="100" x="0" y="0" viewBox="0 0 278.564 276.203"
font-family="sans-serif" stroke="rgb(0,0,0)" stroke-width="2"  stroke-linecap="round">
<line x1="157.6" y1="197.6" x2="129.3" y2="169.3" stroke="rgb(0,0,0)"  stroke-width="2.0"/>
<line x1="157.6" y1="197.6" x2="183.6" y2="204.6" stroke="rgb(0,0,0)"  stroke-width="2.0"/>
<line x1="157.6" y1="197.6" x2="176.7" y2="178.5" stroke="rgb(0,0,0)"  stroke-width="2.0"/>
<line x1="157.6" y1="197.6" x2="150.6" y2="223.6" stroke="rgb(0,0,0)"  stroke-width="2.0"/>
<line x1="124.6" y1="172.1" x2="124.0" y2="170.6" stroke="rgb(0,0,0)"  stroke-width="1.0"/>
<line x1="120.9" y1="174.3" x2="119.8" y2="171.6" stroke="rgb(0,0,0)"  stroke-width="1.0"/>
<line x1="117.2" y1="176.5" x2="115.6" y2="172.7" stroke="rgb(0,0,0)"  stroke-width="1.0"/>
<line x1="113.5" y1="178.8" x2="111.4" y2="173.7" stroke="rgb(0,0,0)"  stroke-width="1.0"/>
<line x1="109.8" y1="181.0" x2="107.2" y2="174.8" stroke="rgb(0,0,0)"  stroke-width="1.0"/>
<line x1="106.1" y1="183.2" x2="103.0" y2="175.8" stroke="rgb(0,0,0)"  stroke-width="1.0"/>
<line x1="170.4" y1="160.5" x2="177.4" y2="172.7" stroke="rgb(0,0,0)"  stroke-width="2.0"/>
<line x1="176.9" y1="149.3" x2="190.9" y2="149.3" stroke="rgb(0,0,0)"  stroke-width="2.0"/>
<line x1="163.9" y1="109.3" x2="203.9" y2="109.3" stroke="rgb(0,0,0)"  stroke-width="2.0"/>
<line x1="165.9" y1="104.2" x2="167.3" y2="105.0" stroke="rgb(0,0,0)"  stroke-width="1.0"/>
<line x1="167.5" y1="100.2" x2="170.0" y2="101.6" stroke="rgb(0,0,0)"  stroke-width="1.0"/>
<line x1="169.1" y1="96.2" x2="172.7" y2="98.3" stroke="rgb(0,0,0)"  stroke-width="1.0"/>
<line x1="170.7" y1="92.1" x2="175.4" y2="94.9" stroke="rgb(0,0,0)"  stroke-width="1.0"/>
<line x1="172.3" y1="88.1" x2="178.1" y2="91.5" stroke="rgb(0,0,0)"  stroke-width="1.0"/>
<line x1="173.9" y1="84.1" x2="180.8" y2="88.1" stroke="rgb(0,0,0)"  stroke-width="1.0"/>
<line x1="135.8" y1="78.0" x2="142.8" y2="65.9" stroke="rgb(0,0,0)"  stroke-width="2.0"/>
<line x1="122.8" y1="78.0" x2="115.8" y2="65.9" stroke="rgb(0,0,0)"  stroke-width="2.0"/>
<line x1="94.6" y1="109.3" x2="74.6" y2="74.6" stroke="rgb(0,0,0)"  stroke-width="2.0"/>
<line x1="89.3" y1="110.1" x2="89.3" y2="108.5" stroke="rgb(0,0,0)"  stroke-width="1.0"/>
<line x1="85.0" y1="110.7" x2="85.0" y2="107.8" stroke="rgb(0,0,0)"  stroke-width="1.0"/>
<line x1="80.7" y1="111.4" x2="80.7" y2="107.2" stroke="rgb(0,0,0)"  stroke-width="1.0"/>
<line x1="76.4" y1="112.0" x2="76.4" y2="106.6" stroke="rgb(0,0,0)"  stroke-width="1.0"/>
<line x1="72.1" y1="112.6" x2="72.1" y2="105.9" stroke="rgb(0,0,0)"  stroke-width="1.0"/>
<line x1="67.8" y1="113.3" x2="67.8" y2="105.3" stroke="rgb(0,0,0)"  stroke-width="1.0"/>
<line x1="83.4" y1="155.8" x2="71.3" y2="162.8" stroke="rgb(0,0,0)"  stroke-width="2.0"/>
<line x1="74.6" y1="74.6" x2="51.3" y2="61.1" stroke="rgb(0,0,0)"  stroke-width="2.0"/>
<line x1="74.6" y1="74.6" x2="51.3" y2="88.1" stroke="rgb(0,0,0)"  stroke-width="2.0"/>
<line x1="74.6" y1="74.6" x2="88.1" y2="51.3" stroke="rgb(0,0,0)"  stroke-width="2.0"/>
<line x1="203.9" y1="109.3" x2="227.3" y2="95.8" stroke="rgb(0,0,0)"  stroke-width="2.0"/>
<line x1="203.9" y1="109.3" x2="203.9" y2="82.3" stroke="rgb(0,0,0)"  stroke-width="2.0"/>
<line x1="203.9" y1="109.3" x2="217.4" y2="132.7" stroke="rgb(0,0,0)"  stroke-width="2.0"/>
<line x1="163.9" y1="109.3" x2="140.5" y2="95.8" stroke="rgb(0,0,0)"  stroke-width="2.0"/>
<line x1="118.0" y1="95.8" x2="94.6" y2="109.3" stroke="rgb(0,0,0)"  stroke-width="2.0"/>
<line x1="94.6" y1="109.3" x2="94.6" y2="136.3" stroke="rgb(0,0,0)"  stroke-width="2.0"/>
<line x1="105.9" y1="155.8" x2="129.3" y2="169.3" stroke="rgb(0,0,0)"  stroke-width="2.0"/>
<line x1="129.3" y1="169.3" x2="152.7" y2="155.8" stroke="rgb(0,0,0)"  stroke-width="2.0"/>
<line x1="163.9" y1="136.3" x2="163.9" y2="109.3" stroke="rgb(0,0,0)"  stroke-width="2.0"/>
<text x="177.923048" y="191.923048" fill="rgb(191,191,191)"  stroke="rgb(191,191,191)" stroke-width="1" font-size="16" >H</text>
<text x="103.282032" y="62.641016" fill="rgb(191,191,191)"  stroke="rgb(191,191,191)" stroke-width="1" font-size="16" >H</text>
<text x="197.923048" y="157.282032" fill="rgb(191,191,191)"  stroke="rgb(191,191,191)" stroke-width="1" font-size="16" >H</text>
<text x="217.923048" y="151.923048" fill="rgb(191,191,191)"  stroke="rgb(191,191,191)" stroke-width="1" font-size="16" >H</text>
<text x="197.923048" y="77.282032" fill="rgb(191,191,191)"  stroke="rgb(191,191,191)" stroke-width="1" font-size="16" >H</text>
<text x="232.564065" y="97.282032" fill="rgb(191,191,191)"  stroke="rgb(191,191,191)" stroke-width="1" font-size="16" >H</text>
<text x="88.641016" y="48.000000" fill="rgb(191,191,191)"  stroke="rgb(191,191,191)" stroke-width="1" font-size="16" >H</text>
<text x="34.000000" y="102.641016" fill="rgb(191,191,191)"  stroke="rgb(191,191,191)" stroke-width="1" font-size="16" >H</text>
<text x="34.000000" y="62.641016" fill="rgb(191,191,191)"  stroke="rgb(191,191,191)" stroke-width="1" font-size="16" >H</text>
<text x="54.000000" y="177.282032" fill="rgb(191,191,191)"  stroke="rgb(191,191,191)" stroke-width="1" font-size="16" >H</text>
<text x="48.641016" y="117.282032" fill="rgb(191,191,191)"  stroke="rgb(191,191,191)" stroke-width="1" font-size="16" >H</text>
<text x="143.282032" y="62.641016" fill="rgb(191,191,191)"  stroke="rgb(191,191,191)" stroke-width="1" font-size="16" >H</text>
<text x="177.923048" y="82.641016" fill="rgb(191,191,191)"  stroke="rgb(191,191,191)" stroke-width="1" font-size="16" >H</text>
<text x="86.326851" y="192.589370" fill="rgb(191,191,191)"  stroke="rgb(191,191,191)" stroke-width="1" font-size="16" >H</text>
<text x="141.213542" y="244.203337" fill="rgb(191,191,191)"  stroke="rgb(191,191,191)" stroke-width="1" font-size="16" >H</text>
<text x="179.850575" y="177.282032" fill="rgb(191,191,191)"  stroke="rgb(191,191,191)" stroke-width="1" font-size="16" >H</text>
<text x="190.203337" y="215.919065" fill="rgb(191,191,191)"  stroke="rgb(191,191,191)" stroke-width="1" font-size="16" >H</text>
<text x="88.641016" y="157.282032" fill="rgb(12,12,255)"  stroke="rgb(12,12,255)" stroke-width="1" font-size="16" >N</text>
<text x="134.082032" y="85.250032" fill="rgb(12,12,255)"  stroke="rgb(12,12,255)" stroke-width="1" font-size="16" >+</text>
<text x="123.282032" y="97.282032" fill="rgb(12,12,255)"  stroke="rgb(12,12,255)" stroke-width="1" font-size="16" >N</text>
<text x="168.723048" y="145.250032" fill="rgb(12,12,255)"  stroke="rgb(12,12,255)" stroke-width="1" font-size="16" >+</text>
<text x="157.923048" y="157.282032" fill="rgb(12,12,255)"  stroke="rgb(12,12,255)" stroke-width="1" font-size="16" >N</text>
</svg>
</g>
<text font-size="18.000000" fill ="black" font-family="sans-serif"
x="10.000000" y="20.000000" >ZINC19318966</text>
</svg>
