<?xml version="1.0"?>
<svg version="1.1" id="topsvg"
xmlns="http://www.w3.org/2000/svg" xmlns:xlink="http://www.w3.org/1999/xlink"
xmlns:cml="http://www.xml-cml.org/schema" x="0" y="0" width="200px" height="200px" viewBox="0 0 100 100">
<title>ZINC30678311 - Open Babel Depiction</title>
<rect x="0" y="0" width="100" height="100" fill="white"/>
<g transform="translate(0,0)">
<svg width="100" height="100" x="0" y="0" viewBox="0 0 290.836 229.282"
font-family="sans-serif" stroke="rgb(0,0,0)" stroke-width="2"  stroke-linecap="round">
<line x1="210.8" y1="114.6" x2="237.8" y2="114.6" stroke="rgb(0,0,0)"  stroke-width="2.0"/>
<line x1="187.3" y1="82.3" x2="195.7" y2="56.6" stroke="rgb(0,0,0)"  stroke-width="2.0"/>
<line x1="114.6" y1="154.6" x2="101.1" y2="178.0" stroke="rgb(0,0,0)"  stroke-width="2.0"/>
<line x1="114.6" y1="154.6" x2="128.1" y2="178.0" stroke="rgb(0,0,0)"  stroke-width="2.0"/>
<line x1="67.0" y1="134.6" x2="53.0" y2="134.6" stroke="rgb(0,0,0)"  stroke-width="2.0"/>
<line x1="73.5" y1="145.9" x2="66.5" y2="158.0" stroke="rgb(0,0,0)"  stroke-width="2.0"/>
<line x1="80.0" y1="94.6" x2="66.5" y2="71.3" stroke="rgb(0,0,0)"  stroke-width="2.0"/>
<line x1="80.0" y1="94.6" x2="53.0" y2="94.6" stroke="rgb(0,0,0)"  stroke-width="2.0"/>
<line x1="114.6" y1="74.6" x2="128.1" y2="51.3" stroke="rgb(0,0,0)"  stroke-width="2.0"/>
<line x1="114.6" y1="74.6" x2="101.1" y2="51.3" stroke="rgb(0,0,0)"  stroke-width="2.0"/>
<line x1="149.3" y1="107.6" x2="149.3" y2="134.6" stroke="rgb(0,0,0)"  stroke-width="2.0"/>
<line x1="149.3" y1="134.6" x2="174.8" y2="142.9" stroke="rgb(0,0,0)"  stroke-width="2.0"/>
<line x1="157.2" y1="129.6" x2="175.1" y2="135.5" stroke="rgb(0,0,0)"  stroke-width="2.0"/>
<line x1="195.0" y1="136.5" x2="210.8" y2="114.6" stroke="rgb(0,0,0)"  stroke-width="2.0"/>
<line x1="210.8" y1="114.6" x2="187.3" y2="82.3" stroke="rgb(0,0,0)"  stroke-width="2.0"/>
<line x1="201.5" y1="114.0" x2="185.0" y2="91.4" stroke="rgb(0,0,0)"  stroke-width="2.0"/>
<line x1="187.3" y1="82.3" x2="161.6" y2="90.6" stroke="rgb(0,0,0)"  stroke-width="2.0"/>
<line x1="80.0" y1="94.6" x2="80.0" y2="121.6" stroke="rgb(0,0,0)"  stroke-width="2.0"/>
<line x1="91.3" y1="141.1" x2="114.6" y2="154.6" stroke="rgb(0,0,0)"  stroke-width="2.0"/>
<line x1="114.6" y1="154.6" x2="149.3" y2="134.6" stroke="rgb(0,0,0)"  stroke-width="2.0"/>
<line x1="138.0" y1="88.1" x2="114.6" y2="74.6" stroke="rgb(0,0,0)"  stroke-width="2.0"/>
<line x1="114.6" y1="74.6" x2="80.0" y2="94.6" stroke="rgb(0,0,0)"  stroke-width="2.0"/>
<text x="244.835703" y="122.641016" fill="rgb(191,191,191)"  stroke="rgb(191,191,191)" stroke-width="1" font-size="16" >H</text>
<text x="54.000000" y="177.282032" fill="rgb(191,191,191)"  stroke="rgb(191,191,191)" stroke-width="1" font-size="16" >H</text>
<text x="88.641016" y="48.000000" fill="rgb(191,191,191)"  stroke="rgb(191,191,191)" stroke-width="1" font-size="16" >H</text>
<text x="128.641016" y="48.000000" fill="rgb(191,191,191)"  stroke="rgb(191,191,191)" stroke-width="1" font-size="16" >H</text>
<text x="34.000000" y="102.641016" fill="rgb(191,191,191)"  stroke="rgb(191,191,191)" stroke-width="1" font-size="16" >H</text>
<text x="54.000000" y="68.000000" fill="rgb(191,191,191)"  stroke="rgb(191,191,191)" stroke-width="1" font-size="16" >H</text>
<text x="34.000000" y="142.641016" fill="rgb(191,191,191)"  stroke="rgb(191,191,191)" stroke-width="1" font-size="16" >H</text>
<text x="128.641016" y="197.282032" fill="rgb(191,191,191)"  stroke="rgb(191,191,191)" stroke-width="1" font-size="16" >H</text>
<text x="88.641016" y="197.282032" fill="rgb(191,191,191)"  stroke="rgb(191,191,191)" stroke-width="1" font-size="16" >H</text>
<text x="193.684973" y="52.238076" fill="rgb(191,191,191)"  stroke="rgb(191,191,191)" stroke-width="1" font-size="16" >H</text>
<text x="84.800000" y="130.609016" fill="rgb(12,12,255)"  stroke="rgb(12,12,255)" stroke-width="1" font-size="16" >+</text>
<text x="74.000000" y="142.641016" fill="rgb(12,12,255)"  stroke="rgb(12,12,255)" stroke-width="1" font-size="16" >N</text>
<text x="181.324293" y="155.001696" fill="rgb(12,12,255)"  stroke="rgb(12,12,255)" stroke-width="1" font-size="16" >N</text>
<text x="143.282032" y="102.641016" fill="rgb(12,12,255)"  stroke="rgb(12,12,255)" stroke-width="1" font-size="16" >N</text>
</svg>
</g>
<text font-size="18.000000" fill ="black" font-family="sans-serif"
x="10.000000" y="20.000000" >ZINC30678311</text>
</svg>
