<?xml version="1.0"?>
<svg version="1.1" id="topsvg"
xmlns="http://www.w3.org/2000/svg" xmlns:xlink="http://www.w3.org/1999/xlink"
xmlns:cml="http://www.xml-cml.org/schema" x="0" y="0" width="200px" height="200px" viewBox="0 0 100 100">
<title>ZINC21297287 - Open Babel Depiction</title>
<rect x="0" y="0" width="100" height="100" fill="white"/>
<g transform="translate(0,0)">
<svg width="100" height="100" x="0" y="0" viewBox="0 0 612.918 306.669"
font-family="sans-serif" stroke="rgb(0,0,0)" stroke-width="2"  stroke-linecap="round">
<line x1="477.0" y1="174.4" x2="456.3" y2="162.4" stroke="rgb(0,0,0)"  stroke-width="2.0"/>
<line x1="477.0" y1="211.3" x2="456.3" y2="223.2" stroke="rgb(0,0,0)"  stroke-width="2.0"/>
<line x1="509.0" y1="229.7" x2="509.0" y2="253.7" stroke="rgb(0,0,0)"  stroke-width="2.0"/>
<line x1="540.9" y1="211.3" x2="561.7" y2="223.2" stroke="rgb(0,0,0)"  stroke-width="2.0"/>
<line x1="540.9" y1="174.4" x2="561.7" y2="162.4" stroke="rgb(0,0,0)"  stroke-width="2.0"/>
<line x1="509.0" y1="155.9" x2="509.0" y2="119.0" stroke="rgb(0,0,0)"  stroke-width="2.0"/>
<line x1="507.5" y1="116.4" x2="528.2" y2="104.4" stroke="rgb(0,0,0)"  stroke-width="2.0"/>
<line x1="510.5" y1="121.6" x2="531.2" y2="109.6" stroke="rgb(0,0,0)"  stroke-width="2.0"/>
<line x1="509.0" y1="119.0" x2="477.0" y2="100.5" stroke="rgb(0,0,0)"  stroke-width="2.0"/>
<line x1="477.0" y1="100.5" x2="445.0" y2="119.0" stroke="rgb(0,0,0)"  stroke-width="2.0"/>
<line x1="477.0" y1="100.5" x2="465.0" y2="79.8" stroke="rgb(0,0,0)"  stroke-width="2.0"/>
<line x1="477.0" y1="100.5" x2="489.0" y2="79.8" stroke="rgb(0,0,0)"  stroke-width="2.0"/>
<line x1="445.0" y1="119.0" x2="381.1" y2="82.1" stroke="rgb(0,0,0)"  stroke-width="2.0"/>
<line x1="445.0" y1="119.0" x2="433.1" y2="139.7" stroke="rgb(0,0,0)"  stroke-width="2.0"/>
<line x1="445.0" y1="119.0" x2="457.0" y2="139.7" stroke="rgb(0,0,0)"  stroke-width="2.0"/>
<line x1="381.1" y1="82.1" x2="360.3" y2="94.0" stroke="rgb(0,0,0)"  stroke-width="2.0"/>
<line x1="381.1" y1="82.1" x2="369.1" y2="61.3" stroke="rgb(0,0,0)"  stroke-width="2.0"/>
<line x1="381.1" y1="82.1" x2="393.0" y2="61.3" stroke="rgb(0,0,0)"  stroke-width="2.0"/>
<line x1="349.1" y1="137.4" x2="373.0" y2="137.4" stroke="rgb(0,0,0)"  stroke-width="2.0"/>
<line x1="349.1" y1="137.4" x2="361.0" y2="158.2" stroke="rgb(0,0,0)"  stroke-width="2.0"/>
<line x1="317.1" y1="155.9" x2="329.1" y2="176.6" stroke="rgb(0,0,0)"  stroke-width="2.0"/>
<line x1="317.1" y1="155.9" x2="305.1" y2="176.6" stroke="rgb(0,0,0)"  stroke-width="2.0"/>
<line x1="285.1" y1="137.4" x2="266.7" y2="169.4" stroke="rgb(0,0,0)"  stroke-width="2.0"/>
<line x1="285.1" y1="137.4" x2="150.4" y2="137.4" stroke="rgb(0,0,0)"  stroke-width="2.0"/>
<line x1="285.1" y1="100.5" x2="261.2" y2="100.5" stroke="rgb(0,0,0)"  stroke-width="2.0"/>
<line x1="285.1" y1="100.5" x2="273.2" y2="79.8" stroke="rgb(0,0,0)"  stroke-width="2.0"/>
<line x1="317.1" y1="82.1" x2="305.1" y2="61.3" stroke="rgb(0,0,0)"  stroke-width="2.0"/>
<line x1="317.1" y1="82.1" x2="329.1" y2="61.3" stroke="rgb(0,0,0)"  stroke-width="2.0"/>
<line x1="266.7" y1="172.4" x2="242.7" y2="172.4" stroke="rgb(0,0,0)"  stroke-width="2.0"/>
<line x1="266.7" y1="166.4" x2="242.7" y2="166.4" stroke="rgb(0,0,0)"  stroke-width="2.0"/>
<line x1="266.7" y1="169.4" x2="278.6" y2="190.1" stroke="rgb(0,0,0)"  stroke-width="2.0"/>
<line x1="278.6" y1="212.6" x2="273.2" y2="222.1" stroke="rgb(0,0,0)"  stroke-width="2.0"/>
<line x1="298.1" y1="201.4" x2="309.1" y2="201.4" stroke="rgb(0,0,0)"  stroke-width="2.0"/>
<line x1="132.5" y1="149.4" x2="114.2" y2="193.7" stroke="rgb(0,0,0)"  stroke-width="2.0"/>
<line x1="147.0" y1="101.8" x2="170.1" y2="108.0" stroke="rgb(0,0,0)"  stroke-width="2.0"/>
<line x1="147.0" y1="101.8" x2="163.9" y2="84.9" stroke="rgb(0,0,0)"  stroke-width="2.0"/>
<line x1="120.9" y1="75.7" x2="137.8" y2="58.7" stroke="rgb(0,0,0)"  stroke-width="2.0"/>
<line x1="120.9" y1="75.7" x2="114.7" y2="52.6" stroke="rgb(0,0,0)"  stroke-width="2.0"/>
<line x1="85.2" y1="85.2" x2="79.0" y2="62.1" stroke="rgb(0,0,0)"  stroke-width="2.0"/>
<line x1="85.2" y1="85.2" x2="62.1" y2="79.0" stroke="rgb(0,0,0)"  stroke-width="2.0"/>
<line x1="75.7" y1="120.9" x2="52.6" y2="114.7" stroke="rgb(0,0,0)"  stroke-width="2.0"/>
<line x1="75.7" y1="120.9" x2="58.7" y2="137.8" stroke="rgb(0,0,0)"  stroke-width="2.0"/>
<line x1="101.8" y1="147.0" x2="84.9" y2="163.9" stroke="rgb(0,0,0)"  stroke-width="2.0"/>
<line x1="101.8" y1="147.0" x2="108.0" y2="170.1" stroke="rgb(0,0,0)"  stroke-width="2.0"/>
<line x1="509.0" y1="229.7" x2="540.9" y2="211.3" stroke="rgb(0,0,0)"  stroke-width="2.0"/>
<line x1="540.9" y1="211.3" x2="540.9" y2="174.4" stroke="rgb(0,0,0)"  stroke-width="2.0"/>
<line x1="533.7" y1="205.3" x2="533.7" y2="180.4" stroke="rgb(0,0,0)"  stroke-width="2.0"/>
<line x1="540.9" y1="174.4" x2="509.0" y2="155.9" stroke="rgb(0,0,0)"  stroke-width="2.0"/>
<line x1="509.0" y1="155.9" x2="477.0" y2="174.4" stroke="rgb(0,0,0)"  stroke-width="2.0"/>
<line x1="507.4" y1="165.1" x2="485.8" y2="177.6" stroke="rgb(0,0,0)"  stroke-width="2.0"/>
<line x1="477.0" y1="174.4" x2="477.0" y2="211.3" stroke="rgb(0,0,0)"  stroke-width="2.0"/>
<line x1="477.0" y1="211.3" x2="509.0" y2="229.7" stroke="rgb(0,0,0)"  stroke-width="2.0"/>
<line x1="485.8" y1="208.0" x2="507.4" y2="220.5" stroke="rgb(0,0,0)"  stroke-width="2.0"/>
<line x1="317.1" y1="155.9" x2="285.1" y2="137.4" stroke="rgb(0,0,0)"  stroke-width="2.0"/>
<line x1="285.1" y1="137.4" x2="285.1" y2="100.5" stroke="rgb(0,0,0)"  stroke-width="2.0"/>
<line x1="285.1" y1="100.5" x2="317.1" y2="82.1" stroke="rgb(0,0,0)"  stroke-width="2.0"/>
<line x1="317.1" y1="82.1" x2="337.8" y2="94.0" stroke="rgb(0,0,0)"  stroke-width="2.0"/>
<line x1="349.1" y1="113.5" x2="349.1" y2="137.4" stroke="rgb(0,0,0)"  stroke-width="2.0"/>
<line x1="349.1" y1="137.4" x2="317.1" y2="155.9" stroke="rgb(0,0,0)"  stroke-width="2.0"/>
<line x1="120.9" y1="75.7" x2="85.2" y2="85.2" stroke="rgb(0,0,0)"  stroke-width="2.0"/>
<line x1="85.2" y1="85.2" x2="75.7" y2="120.9" stroke="rgb(0,0,0)"  stroke-width="2.0"/>
<line x1="75.7" y1="120.9" x2="101.8" y2="147.0" stroke="rgb(0,0,0)"  stroke-width="2.0"/>
<line x1="101.8" y1="147.0" x2="124.9" y2="140.8" stroke="rgb(0,0,0)"  stroke-width="2.0"/>
<line x1="140.8" y1="124.9" x2="147.0" y2="101.8" stroke="rgb(0,0,0)"  stroke-width="2.0"/>
<line x1="147.0" y1="101.8" x2="120.9" y2="75.7" stroke="rgb(0,0,0)"  stroke-width="2.0"/>
<text x="329.568634" y="58.077527" fill="rgb(191,191,191)"  stroke="rgb(191,191,191)" stroke-width="1" font-size="16" >H</text>
<text x="566.917676" y="163.900004" fill="rgb(191,191,191)"  stroke="rgb(191,191,191)" stroke-width="1" font-size="16" >H</text>
<text x="452.527170" y="76.539066" fill="rgb(191,191,191)"  stroke="rgb(191,191,191)" stroke-width="1" font-size="16" >H</text>
<text x="489.450247" y="76.539066" fill="rgb(191,191,191)"  stroke="rgb(191,191,191)" stroke-width="1" font-size="16" >H</text>
<text x="420.550847" y="158.953249" fill="rgb(191,191,191)"  stroke="rgb(191,191,191)" stroke-width="1" font-size="16" >H</text>
<text x="457.473924" y="158.953249" fill="rgb(191,191,191)"  stroke="rgb(191,191,191)" stroke-width="1" font-size="16" >H</text>
<text x="356.598202" y="58.077527" fill="rgb(191,191,191)"  stroke="rgb(191,191,191)" stroke-width="1" font-size="16" >H</text>
<text x="393.521279" y="58.077527" fill="rgb(191,191,191)"  stroke="rgb(191,191,191)" stroke-width="1" font-size="16" >H</text>
<text x="380.006495" y="145.438465" fill="rgb(191,191,191)"  stroke="rgb(191,191,191)" stroke-width="1" font-size="16" >H</text>
<text x="361.544957" y="177.414788" fill="rgb(191,191,191)"  stroke="rgb(191,191,191)" stroke-width="1" font-size="16" >H</text>
<text x="329.568634" y="195.876326" fill="rgb(191,191,191)"  stroke="rgb(191,191,191)" stroke-width="1" font-size="16" >H</text>
<text x="292.645557" y="195.876326" fill="rgb(191,191,191)"  stroke="rgb(191,191,191)" stroke-width="1" font-size="16" >H</text>
<text x="242.207696" y="108.515388" fill="rgb(191,191,191)"  stroke="rgb(191,191,191)" stroke-width="1" font-size="16" >H</text>
<text x="260.669234" y="76.539066" fill="rgb(191,191,191)"  stroke="rgb(191,191,191)" stroke-width="1" font-size="16" >H</text>
<text x="292.645557" y="58.077527" fill="rgb(191,191,191)"  stroke="rgb(191,191,191)" stroke-width="1" font-size="16" >H</text>
<text x="566.917676" y="237.746158" fill="rgb(191,191,191)"  stroke="rgb(191,191,191)" stroke-width="1" font-size="16" >H</text>
<text x="260.669234" y="241.367433" fill="rgb(191,191,191)"  stroke="rgb(191,191,191)" stroke-width="1" font-size="16" >H</text>
<text x="316.053850" y="209.391110" fill="rgb(191,191,191)"  stroke="rgb(191,191,191)" stroke-width="1" font-size="16" >H</text>
<text x="176.659814" y="119.329907" fill="rgb(191,191,191)"  stroke="rgb(191,191,191)" stroke-width="1" font-size="16" >H</text>
<text x="167.103419" y="83.664954" fill="rgb(191,191,191)"  stroke="rgb(191,191,191)" stroke-width="1" font-size="16" >H</text>
<text x="140.994861" y="57.556396" fill="rgb(191,191,191)"  stroke="rgb(191,191,191)" stroke-width="1" font-size="16" >H</text>
<text x="105.329907" y="48.000000" fill="rgb(191,191,191)"  stroke="rgb(191,191,191)" stroke-width="1" font-size="16" >H</text>
<text x="69.664954" y="57.556396" fill="rgb(191,191,191)"  stroke="rgb(191,191,191)" stroke-width="1" font-size="16" >H</text>
<text x="43.556396" y="83.664954" fill="rgb(191,191,191)"  stroke="rgb(191,191,191)" stroke-width="1" font-size="16" >H</text>
<text x="34.000000" y="119.329907" fill="rgb(191,191,191)"  stroke="rgb(191,191,191)" stroke-width="1" font-size="16" >H</text>
<text x="43.556396" y="154.994861" fill="rgb(191,191,191)"  stroke="rgb(191,191,191)" stroke-width="1" font-size="16" >H</text>
<text x="69.664954" y="181.103419" fill="rgb(191,191,191)"  stroke="rgb(191,191,191)" stroke-width="1" font-size="16" >H</text>
<text x="105.329907" y="190.659814" fill="rgb(191,191,191)"  stroke="rgb(191,191,191)" stroke-width="1" font-size="16" >H</text>
<text x="103.178766" y="213.663415" fill="rgb(191,191,191)"  stroke="rgb(191,191,191)" stroke-width="1" font-size="16" >H</text>
<text x="534.941354" y="108.515388" fill="rgb(255,12,12)"  stroke="rgb(255,12,12)" stroke-width="1" font-size="16" >O</text>
<text x="343.083418" y="108.515388" fill="rgb(12,12,255)"  stroke="rgb(12,12,255)" stroke-width="1" font-size="16" >N</text>
<text x="223.746158" y="177.414788" fill="rgb(255,12,12)"  stroke="rgb(255,12,12)" stroke-width="1" font-size="16" >O</text>
<text x="279.130773" y="209.391110" fill="rgb(12,12,255)"  stroke="rgb(12,12,255)" stroke-width="1" font-size="16" >N</text>
<text x="142.238465" y="133.406465" fill="rgb(12,12,255)"  stroke="rgb(12,12,255)" stroke-width="1" font-size="16" >+</text>
<text x="131.438465" y="145.438465" fill="rgb(12,12,255)"  stroke="rgb(12,12,255)" stroke-width="1" font-size="16" >N</text>
<text x="502.965031" y="274.669234" fill="rgb(127,178,255)"  stroke="rgb(127,178,255)" stroke-width="1" font-size="16" >F</text>
<text x="439.012386" y="163.900004" fill="rgb(191,191,191)"  stroke="rgb(191,191,191)" stroke-width="1" font-size="16" >H</text>
<text x="439.012386" y="237.746158" fill="rgb(191,191,191)"  stroke="rgb(191,191,191)" stroke-width="1" font-size="16" >H</text>
</svg>
</g>
<text font-size="18.000000" fill ="black" font-family="sans-serif"
x="10.000000" y="20.000000" >ZINC21297287</text>
</svg>
