<?xml version="1.0"?>
<svg version="1.1" id="topsvg"
xmlns="http://www.w3.org/2000/svg" xmlns:xlink="http://www.w3.org/1999/xlink"
xmlns:cml="http://www.xml-cml.org/schema" x="0" y="0" width="200px" height="200px" viewBox="0 0 100 100">
<title>ZINC85397962 - Open Babel Depiction</title>
<rect x="0" y="0" width="100" height="100" fill="white"/>
<g transform="translate(0,0)">
<svg width="100" height="100" x="0" y="0" viewBox="0 0 372.484 284.639"
font-family="sans-serif" stroke="rgb(0,0,0)" stroke-width="2"  stroke-linecap="round">
<line x1="263.2" y1="160.0" x2="263.2" y2="187.0" stroke="rgb(0,0,0)"  stroke-width="2.0"/>
<line x1="297.8" y1="140.0" x2="321.2" y2="153.5" stroke="rgb(0,0,0)"  stroke-width="2.0"/>
<line x1="297.8" y1="100.0" x2="321.2" y2="86.5" stroke="rgb(0,0,0)"  stroke-width="2.0"/>
<line x1="263.2" y1="80.0" x2="263.2" y2="53.0" stroke="rgb(0,0,0)"  stroke-width="2.0"/>
<line x1="228.6" y1="100.0" x2="205.2" y2="86.5" stroke="rgb(0,0,0)"  stroke-width="2.0"/>
<line x1="228.6" y1="140.0" x2="205.2" y2="153.5" stroke="rgb(0,0,0)"  stroke-width="2.0"/>
<line x1="150.6" y1="208.1" x2="139.6" y2="232.8" stroke="rgb(0,0,0)"  stroke-width="2.0"/>
<line x1="93.7" y1="167.1" x2="75.6" y2="187.2" stroke="rgb(0,0,0)"  stroke-width="2.0"/>
<line x1="89.3" y1="163.1" x2="71.2" y2="183.2" stroke="rgb(0,0,0)"  stroke-width="2.0"/>
<line x1="66.4" y1="124.4" x2="52.7" y2="121.5" stroke="rgb(0,0,0)"  stroke-width="2.0"/>
<line x1="103.0" y1="98.3" x2="94.7" y2="72.6" stroke="rgb(0,0,0)"  stroke-width="2.0"/>
<line x1="108.7" y1="96.4" x2="100.4" y2="70.8" stroke="rgb(0,0,0)"  stroke-width="2.0"/>
<line x1="153.7" y1="96.0" x2="163.1" y2="85.6" stroke="rgb(0,0,0)"  stroke-width="2.0"/>
<line x1="130.6" y1="173.5" x2="150.6" y2="208.1" stroke="rgb(0,0,0)"  stroke-width="2.0"/>
<line x1="150.6" y1="208.1" x2="176.8" y2="202.5" stroke="rgb(0,0,0)"  stroke-width="2.0"/>
<line x1="155.0" y1="199.8" x2="173.4" y2="195.9" stroke="rgb(0,0,0)"  stroke-width="2.0"/>
<line x1="191.1" y1="186.9" x2="192.6" y2="172.9" stroke="rgb(0,0,0)"  stroke-width="2.0"/>
<line x1="182.0" y1="154.7" x2="157.4" y2="143.7" stroke="rgb(0,0,0)"  stroke-width="2.0"/>
<line x1="157.4" y1="143.7" x2="130.6" y2="173.5" stroke="rgb(0,0,0)"  stroke-width="2.0"/>
<line x1="158.7" y1="153.0" x2="140.0" y2="173.8" stroke="rgb(0,0,0)"  stroke-width="2.0"/>
<line x1="297.8" y1="100.0" x2="263.2" y2="80.0" stroke="rgb(0,0,0)"  stroke-width="2.0"/>
<line x1="263.2" y1="80.0" x2="228.6" y2="100.0" stroke="rgb(0,0,0)"  stroke-width="2.0"/>
<line x1="261.6" y1="89.2" x2="237.4" y2="103.2" stroke="rgb(0,0,0)"  stroke-width="2.0"/>
<line x1="228.6" y1="100.0" x2="228.6" y2="140.0" stroke="rgb(0,0,0)"  stroke-width="2.0"/>
<line x1="228.6" y1="140.0" x2="263.2" y2="160.0" stroke="rgb(0,0,0)"  stroke-width="2.0"/>
<line x1="237.4" y1="136.8" x2="261.6" y2="150.8" stroke="rgb(0,0,0)"  stroke-width="2.0"/>
<line x1="263.2" y1="160.0" x2="297.8" y2="140.0" stroke="rgb(0,0,0)"  stroke-width="2.0"/>
<line x1="297.8" y1="140.0" x2="297.8" y2="100.0" stroke="rgb(0,0,0)"  stroke-width="2.0"/>
<line x1="290.6" y1="134.0" x2="290.6" y2="106.0" stroke="rgb(0,0,0)"  stroke-width="2.0"/>
<line x1="105.9" y1="97.4" x2="87.8" y2="117.4" stroke="rgb(0,0,0)"  stroke-width="2.0"/>
<line x1="83.1" y1="139.5" x2="91.5" y2="165.1" stroke="rgb(0,0,0)"  stroke-width="2.0"/>
<line x1="91.5" y1="165.1" x2="130.6" y2="173.5" stroke="rgb(0,0,0)"  stroke-width="2.0"/>
<line x1="157.4" y1="143.7" x2="149.0" y2="118.1" stroke="rgb(0,0,0)"  stroke-width="2.0"/>
<line x1="132.3" y1="103.0" x2="105.9" y2="97.4" stroke="rgb(0,0,0)"  stroke-width="2.0"/>
<text x="58.721360" y="202.865653" fill="rgb(255,12,12)"  stroke="rgb(255,12,12)" stroke-width="1" font-size="16" >O</text>
<text x="165.782257" y="83.962481" fill="rgb(191,191,191)"  stroke="rgb(191,191,191)" stroke-width="1" font-size="16" >H</text>
<text x="128.343022" y="252.639162" fill="rgb(191,191,191)"  stroke="rgb(191,191,191)" stroke-width="1" font-size="16" >H</text>
<text x="187.919530" y="88.000000" fill="rgb(191,191,191)"  stroke="rgb(191,191,191)" stroke-width="1" font-size="16" >H</text>
<text x="257.201563" y="48.000000" fill="rgb(191,191,191)"  stroke="rgb(191,191,191)" stroke-width="1" font-size="16" >H</text>
<text x="326.483595" y="168.000000" fill="rgb(191,191,191)"  stroke="rgb(191,191,191)" stroke-width="1" font-size="16" >H</text>
<text x="257.201563" y="208.000000" fill="rgb(191,191,191)"  stroke="rgb(191,191,191)" stroke-width="1" font-size="16" >H</text>
<text x="326.483595" y="88.000000" fill="rgb(165,40,40)"  stroke="rgb(165,40,40)" stroke-width="1" font-size="16" >Br</text>
<text x="87.530449" y="67.329545" fill="rgb(178,178,0)"  stroke="rgb(178,178,0)" stroke-width="1" font-size="16" >S</text>
<text x="139.017032" y="113.688274" fill="rgb(12,12,255)"  stroke="rgb(12,12,255)" stroke-width="1" font-size="16" >N</text>
<text x="34.000000" y="126.781131" fill="rgb(191,191,191)"  stroke="rgb(191,191,191)" stroke-width="1" font-size="16" >H</text>
<text x="73.125904" y="135.097599" fill="rgb(12,12,255)"  stroke="rgb(12,12,255)" stroke-width="1" font-size="16" >N</text>
<text x="183.738392" y="207.780876" fill="rgb(12,12,255)"  stroke="rgb(12,12,255)" stroke-width="1" font-size="16" >N</text>
<text x="187.919530" y="168.000000" fill="rgb(12,12,255)"  stroke="rgb(12,12,255)" stroke-width="1" font-size="16" >N</text>
</svg>
</g>
<text font-size="18.000000" fill ="black" font-family="sans-serif"
x="10.000000" y="20.000000" >ZINC85397962</text>
</svg>
