<?xml version="1.0"?>
<svg version="1.1" id="topsvg"
xmlns="http://www.w3.org/2000/svg" xmlns:xlink="http://www.w3.org/1999/xlink"
xmlns:cml="http://www.xml-cml.org/schema" x="0" y="0" width="200px" height="200px" viewBox="0 0 100 100">
<title>ZINC44559532 - Open Babel Depiction</title>
<rect x="0" y="0" width="100" height="100" fill="white"/>
<g transform="translate(0,0)">
<svg width="100" height="100" x="0" y="0" viewBox="0 0 508.489 461.828"
font-family="sans-serif" stroke="rgb(0,0,0)" stroke-width="2"  stroke-linecap="round">
<line x1="389.9" y1="77.2" x2="398.0" y2="52.4" stroke="rgb(0,0,0)"  stroke-width="2.0"/>
<line x1="404.0" y1="143.6" x2="421.5" y2="163.1" stroke="rgb(0,0,0)"  stroke-width="2.0"/>
<line x1="292.4" y1="132.1" x2="269.8" y2="119.0" stroke="rgb(0,0,0)"  stroke-width="2.0"/>
<line x1="307.8" y1="177.5" x2="288.3" y2="195.0" stroke="rgb(0,0,0)"  stroke-width="2.0"/>
<line x1="271.7" y1="114.0" x2="273.1" y2="114.8" stroke="rgb(0,0,0)"  stroke-width="1.0"/>
<line x1="273.2" y1="110.1" x2="275.7" y2="111.5" stroke="rgb(0,0,0)"  stroke-width="1.0"/>
<line x1="274.8" y1="106.1" x2="278.4" y2="108.2" stroke="rgb(0,0,0)"  stroke-width="1.0"/>
<line x1="276.3" y1="102.2" x2="281.0" y2="104.9" stroke="rgb(0,0,0)"  stroke-width="1.0"/>
<line x1="277.9" y1="98.2" x2="283.7" y2="101.6" stroke="rgb(0,0,0)"  stroke-width="1.0"/>
<line x1="279.4" y1="94.3" x2="286.3" y2="98.3" stroke="rgb(0,0,0)"  stroke-width="1.0"/>
<line x1="269.8" y1="119.0" x2="235.8" y2="99.4" stroke="rgb(0,0,0)"  stroke-width="2.0"/>
<line x1="269.8" y1="119.0" x2="237.1" y2="175.6" stroke="rgb(0,0,0)"  stroke-width="2.0"/>
<line x1="235.8" y1="99.4" x2="235.8" y2="73.2" stroke="rgb(0,0,0)"  stroke-width="2.0"/>
<line x1="235.8" y1="99.4" x2="209.7" y2="99.4" stroke="rgb(0,0,0)"  stroke-width="2.0"/>
<line x1="235.8" y1="99.4" x2="222.8" y2="122.1" stroke="rgb(0,0,0)"  stroke-width="2.0"/>
<line x1="224.6" y1="53.7" x2="213.2" y2="47.2" stroke="rgb(0,0,0)"  stroke-width="2.0"/>
<line x1="217.6" y1="186.8" x2="191.4" y2="186.8" stroke="rgb(0,0,0)"  stroke-width="2.0"/>
<polygon points="191.419328 186.828477 187.419328 160.586810 195.419328 160.586810 " stroke-width="2.000000" fill="rgb(0,0,0)"  stroke="rgb(0,0,0)" />
<line x1="191.4" y1="186.8" x2="152.3" y2="186.8" stroke="rgb(0,0,0)"  stroke-width="2.0"/>
<line x1="191.4" y1="186.8" x2="191.4" y2="226.0" stroke="rgb(0,0,0)"  stroke-width="2.0"/>
<line x1="152.3" y1="186.8" x2="139.2" y2="164.2" stroke="rgb(0,0,0)"  stroke-width="2.0"/>
<line x1="152.3" y1="186.8" x2="129.6" y2="199.9" stroke="rgb(0,0,0)"  stroke-width="2.0"/>
<line x1="152.3" y1="186.8" x2="152.3" y2="213.0" stroke="rgb(0,0,0)"  stroke-width="2.0"/>
<line x1="139.2" y1="141.7" x2="145.8" y2="130.2" stroke="rgb(0,0,0)"  stroke-width="2.0"/>
<line x1="191.4" y1="226.0" x2="168.8" y2="239.1" stroke="rgb(0,0,0)"  stroke-width="2.0"/>
<line x1="191.4" y1="226.0" x2="204.5" y2="248.7" stroke="rgb(0,0,0)"  stroke-width="2.0"/>
<line x1="191.4" y1="226.0" x2="217.6" y2="226.0" stroke="rgb(0,0,0)"  stroke-width="2.0"/>
<line x1="157.5" y1="258.6" x2="157.5" y2="271.7" stroke="rgb(0,0,0)"  stroke-width="2.0"/>
<line x1="173.1" y1="283.9" x2="173.1" y2="285.5" stroke="rgb(0,0,0)"  stroke-width="1.0"/>
<line x1="175.2" y1="283.3" x2="175.2" y2="286.2" stroke="rgb(0,0,0)"  stroke-width="1.0"/>
<line x1="177.3" y1="282.7" x2="177.3" y2="286.8" stroke="rgb(0,0,0)"  stroke-width="1.0"/>
<line x1="179.5" y1="282.0" x2="179.5" y2="287.5" stroke="rgb(0,0,0)"  stroke-width="1.0"/>
<line x1="181.6" y1="281.4" x2="181.6" y2="288.1" stroke="rgb(0,0,0)"  stroke-width="1.0"/>
<line x1="183.7" y1="280.7" x2="183.7" y2="288.7" stroke="rgb(0,0,0)"  stroke-width="1.0"/>
<line x1="157.5" y1="297.7" x2="157.5" y2="310.9" stroke="rgb(0,0,0)"  stroke-width="2.0"/>
<line x1="144.5" y1="284.7" x2="131.3" y2="284.7" stroke="rgb(0,0,0)"  stroke-width="2.0"/>
<line x1="105.3" y1="284.7" x2="92.2" y2="284.7" stroke="rgb(0,0,0)"  stroke-width="2.0"/>
<polygon points="79.166667 271.820143 75.166667 258.503477 83.166667 258.503477 " stroke-width="2.000000" fill="rgb(0,0,0)"  stroke="rgb(0,0,0)" />
<line x1="66.2" y1="284.7" x2="53.0" y2="284.7" stroke="rgb(0,0,0)"  stroke-width="2.0"/>
<line x1="79.2" y1="297.7" x2="79.2" y2="310.9" stroke="rgb(0,0,0)"  stroke-width="2.0"/>
<line x1="79.2" y1="336.9" x2="79.2" y2="350.1" stroke="rgb(0,0,0)"  stroke-width="2.0"/>
<polygon points="66.241667 363.078477 52.925000 367.078477 52.925000 359.078477 " stroke-width="2.000000" fill="rgb(0,0,0)"  stroke="rgb(0,0,0)" />
<line x1="79.2" y1="376.1" x2="79.2" y2="389.2" stroke="rgb(0,0,0)"  stroke-width="2.0"/>
<line x1="92.2" y1="363.1" x2="105.3" y2="363.1" stroke="rgb(0,0,0)"  stroke-width="2.0"/>
<line x1="67.9" y1="408.7" x2="56.5" y2="415.3" stroke="rgb(0,0,0)"  stroke-width="2.0"/>
<line x1="426.2" y1="185.1" x2="422.1" y2="197.6" stroke="rgb(0,0,0)"  stroke-width="2.0"/>
<line x1="442.9" y1="170.0" x2="455.8" y2="167.3" stroke="rgb(0,0,0)"  stroke-width="2.0"/>
<line x1="307.8" y1="177.5" x2="305.0" y2="151.5" stroke="rgb(0,0,0)"  stroke-width="2.0"/>
<line x1="315.5" y1="133.3" x2="339.5" y2="122.6" stroke="rgb(0,0,0)"  stroke-width="2.0"/>
<line x1="339.5" y1="122.6" x2="365.7" y2="151.7" stroke="rgb(0,0,0)"  stroke-width="2.0"/>
<line x1="338.1" y1="131.9" x2="356.3" y2="152.1" stroke="rgb(0,0,0)"  stroke-width="2.0"/>
<line x1="365.7" y1="151.7" x2="352.6" y2="174.4" stroke="rgb(0,0,0)"  stroke-width="2.0"/>
<line x1="333.4" y1="183.0" x2="307.8" y2="177.5" stroke="rgb(0,0,0)"  stroke-width="2.0"/>
<line x1="332.9" y1="175.5" x2="315.1" y2="171.7" stroke="rgb(0,0,0)"  stroke-width="2.0"/>
<line x1="404.0" y1="143.6" x2="365.7" y2="151.7" stroke="rgb(0,0,0)"  stroke-width="2.0"/>
<line x1="339.5" y1="122.6" x2="347.5" y2="97.8" stroke="rgb(0,0,0)"  stroke-width="2.0"/>
<line x1="364.2" y1="82.7" x2="389.9" y2="77.2" stroke="rgb(0,0,0)"  stroke-width="2.0"/>
<line x1="367.7" y1="89.3" x2="385.5" y2="85.5" stroke="rgb(0,0,0)"  stroke-width="2.0"/>
<line x1="389.9" y1="77.2" x2="407.4" y2="96.7" stroke="rgb(0,0,0)"  stroke-width="2.0"/>
<line x1="412.1" y1="118.6" x2="404.0" y2="143.6" stroke="rgb(0,0,0)"  stroke-width="2.0"/>
<line x1="404.6" y1="118.4" x2="399.0" y2="135.7" stroke="rgb(0,0,0)"  stroke-width="2.0"/>
<text x="190.666667" y="107.406487" fill="rgb(191,191,191)"  stroke="rgb(191,191,191)" stroke-width="1" font-size="16" >H</text>
<text x="73.166667" y="292.745143" fill="rgb(255,127,0)"  stroke="rgb(255,127,0)" stroke-width="1" font-size="16" >P</text>
<text x="73.166667" y="253.578477" fill="rgb(255,12,12)"  stroke="rgb(255,12,12)" stroke-width="1" font-size="16" >O</text>
<text x="22.000000" y="292.745143" fill="rgb(255,12,12)"  stroke="rgb(255,12,12)" stroke-width="1" font-size="16" >HO</text>
<text x="73.166667" y="331.911810" fill="rgb(255,12,12)"  stroke="rgb(255,12,12)" stroke-width="1" font-size="16" >O</text>
<text x="73.166667" y="371.078477" fill="rgb(255,127,0)"  stroke="rgb(255,127,0)" stroke-width="1" font-size="16" >P</text>
<text x="34.000000" y="371.078477" fill="rgb(255,12,12)"  stroke="rgb(255,12,12)" stroke-width="1" font-size="16" >O</text>
<text x="73.166667" y="410.245143" fill="rgb(255,12,12)"  stroke="rgb(255,12,12)" stroke-width="1" font-size="16" >O</text>
<text x="112.333333" y="371.078477" fill="rgb(255,12,12)"  stroke="rgb(255,12,12)" stroke-width="1" font-size="16" >OH</text>
<text x="424.178532" y="180.712438" fill="rgb(12,12,255)"  stroke="rgb(12,12,255)" stroke-width="1" font-size="16" >N</text>
<text x="395.969633" y="48.000000" fill="rgb(191,191,191)"  stroke="rgb(191,191,191)" stroke-width="1" font-size="16" >H</text>
<text x="272.659516" y="211.732877" fill="rgb(191,191,191)"  stroke="rgb(191,191,191)" stroke-width="1" font-size="16" >H</text>
<text x="112.333333" y="292.745143" fill="rgb(255,12,12)"  stroke="rgb(255,12,12)" stroke-width="1" font-size="16" >O</text>
<text x="210.250000" y="141.325815" fill="rgb(191,191,191)"  stroke="rgb(191,191,191)" stroke-width="1" font-size="16" >H</text>
<text x="195.914005" y="48.656487" fill="rgb(191,191,191)"  stroke="rgb(191,191,191)" stroke-width="1" font-size="16" >H</text>
<text x="112.333333" y="214.411810" fill="rgb(191,191,191)"  stroke="rgb(191,191,191)" stroke-width="1" font-size="16" >H</text>
<text x="146.252662" y="233.995143" fill="rgb(191,191,191)"  stroke="rgb(191,191,191)" stroke-width="1" font-size="16" >H</text>
<text x="146.252662" y="126.989820" fill="rgb(191,191,191)"  stroke="rgb(191,191,191)" stroke-width="1" font-size="16" >H</text>
<text x="205.002662" y="267.914472" fill="rgb(191,191,191)"  stroke="rgb(191,191,191)" stroke-width="1" font-size="16" >H</text>
<text x="224.585995" y="233.995143" fill="rgb(191,191,191)"  stroke="rgb(191,191,191)" stroke-width="1" font-size="16" >H</text>
<text x="412.075367" y="217.962152" fill="rgb(191,191,191)"  stroke="rgb(191,191,191)" stroke-width="1" font-size="16" >H</text>
<text x="462.489313" y="172.569231" fill="rgb(191,191,191)"  stroke="rgb(191,191,191)" stroke-width="1" font-size="16" >H</text>
<text x="39.247338" y="429.828477" fill="rgb(191,191,191)"  stroke="rgb(191,191,191)" stroke-width="1" font-size="16" >H</text>
<text x="229.833333" y="68.239820" fill="rgb(255,12,12)"  stroke="rgb(255,12,12)" stroke-width="1" font-size="16" >O</text>
<text x="410.074082" y="114.356219" fill="rgb(12,12,255)"  stroke="rgb(12,12,255)" stroke-width="1" font-size="16" >N</text>
<text x="345.555686" y="93.392921" fill="rgb(12,12,255)"  stroke="rgb(12,12,255)" stroke-width="1" font-size="16" >N</text>
<text x="297.671990" y="146.573154" fill="rgb(12,12,255)"  stroke="rgb(12,12,255)" stroke-width="1" font-size="16" >N</text>
<text x="340.076802" y="193.668469" fill="rgb(12,12,255)"  stroke="rgb(12,12,255)" stroke-width="1" font-size="16" >N</text>
<text x="283.335995" y="93.070492" fill="rgb(191,191,191)"  stroke="rgb(191,191,191)" stroke-width="1" font-size="16" >H</text>
<text x="224.585995" y="194.828477" fill="rgb(255,12,12)"  stroke="rgb(255,12,12)" stroke-width="1" font-size="16" >O</text>
<text x="185.419328" y="155.661810" fill="rgb(191,191,191)"  stroke="rgb(191,191,191)" stroke-width="1" font-size="16" >H</text>
<text x="126.669328" y="160.909149" fill="rgb(255,12,12)"  stroke="rgb(255,12,12)" stroke-width="1" font-size="16" >O</text>
<text x="151.500000" y="253.578477" fill="rgb(255,12,12)"  stroke="rgb(255,12,12)" stroke-width="1" font-size="16" >O</text>
<text x="151.500000" y="292.745143" fill="rgb(255,127,0)"  stroke="rgb(255,127,0)" stroke-width="1" font-size="16" >P</text>
<text x="190.666667" y="292.745143" fill="rgb(255,12,12)"  stroke="rgb(255,12,12)" stroke-width="1" font-size="16" >O</text>
<text x="151.500000" y="331.911810" fill="rgb(255,12,12)"  stroke="rgb(255,12,12)" stroke-width="1" font-size="16" >OH</text>
</svg>
</g>
<text font-size="18.000000" fill ="black" font-family="sans-serif"
x="10.000000" y="20.000000" >ZINC44559532</text>
</svg>
