<?xml version="1.0"?>
<svg version="1.1" id="topsvg"
xmlns="http://www.w3.org/2000/svg" xmlns:xlink="http://www.w3.org/1999/xlink"
xmlns:cml="http://www.xml-cml.org/schema" x="0" y="0" width="200px" height="200px" viewBox="0 0 100 100">
<title>ZINC38232075 - Open Babel Depiction</title>
<rect x="0" y="0" width="100" height="100" fill="white"/>
<g transform="translate(0,0)">
<svg width="100" height="100" x="0" y="0" viewBox="0 0 478.564 373.205"
font-family="sans-serif" stroke="rgb(0,0,0)" stroke-width="2"  stroke-linecap="round">
<line x1="398.6" y1="143.9" x2="385.1" y2="167.3" stroke="rgb(0,0,0)"  stroke-width="2.0"/>
<line x1="398.6" y1="143.9" x2="398.6" y2="116.9" stroke="rgb(0,0,0)"  stroke-width="2.0"/>
<line x1="398.6" y1="143.9" x2="375.2" y2="130.4" stroke="rgb(0,0,0)"  stroke-width="2.0"/>
<line x1="398.6" y1="143.9" x2="425.6" y2="143.9" stroke="rgb(0,0,0)"  stroke-width="2.0"/>
<line x1="385.1" y1="189.8" x2="398.6" y2="213.2" stroke="rgb(0,0,0)"  stroke-width="2.0"/>
<line x1="365.6" y1="178.6" x2="338.6" y2="178.6" stroke="rgb(0,0,0)"  stroke-width="2.0"/>
<line x1="398.6" y1="213.2" x2="421.9" y2="226.7" stroke="rgb(0,0,0)"  stroke-width="2.0"/>
<line x1="398.6" y1="213.2" x2="421.9" y2="199.7" stroke="rgb(0,0,0)"  stroke-width="2.0"/>
<line x1="398.6" y1="213.2" x2="385.1" y2="236.6" stroke="rgb(0,0,0)"  stroke-width="2.0"/>
<line x1="341.2" y1="180.1" x2="327.7" y2="203.4" stroke="rgb(0,0,0)"  stroke-width="2.0"/>
<line x1="336.0" y1="177.1" x2="322.5" y2="200.4" stroke="rgb(0,0,0)"  stroke-width="2.0"/>
<line x1="338.6" y1="178.6" x2="318.6" y2="143.9" stroke="rgb(0,0,0)"  stroke-width="2.0"/>
<line x1="338.6" y1="109.3" x2="365.6" y2="109.3" stroke="rgb(0,0,0)"  stroke-width="2.0"/>
<line x1="318.6" y1="74.6" x2="332.1" y2="51.3" stroke="rgb(0,0,0)"  stroke-width="2.0"/>
<line x1="278.6" y1="74.6" x2="265.1" y2="51.3" stroke="rgb(0,0,0)"  stroke-width="2.0"/>
<line x1="258.6" y1="109.3" x2="231.6" y2="109.3" stroke="rgb(0,0,0)"  stroke-width="2.0"/>
<line x1="278.6" y1="143.9" x2="265.1" y2="167.3" stroke="rgb(0,0,0)"  stroke-width="2.0"/>
<line x1="245.6" y1="178.6" x2="231.6" y2="178.6" stroke="rgb(0,0,0)"  stroke-width="2.0"/>
<line x1="221.6" y1="191.6" x2="221.6" y2="205.6" stroke="rgb(0,0,0)"  stroke-width="2.0"/>
<line x1="215.6" y1="191.6" x2="215.6" y2="205.6" stroke="rgb(0,0,0)"  stroke-width="2.0"/>
<line x1="205.6" y1="181.6" x2="191.6" y2="181.6" stroke="rgb(0,0,0)"  stroke-width="2.0"/>
<line x1="205.6" y1="175.6" x2="191.6" y2="175.6" stroke="rgb(0,0,0)"  stroke-width="2.0"/>
<line x1="218.6" y1="165.6" x2="218.6" y2="151.6" stroke="rgb(0,0,0)"  stroke-width="2.0"/>
<line x1="205.8" y1="134.7" x2="182.4" y2="121.2" stroke="rgb(0,0,0)"  stroke-width="2.0"/>
<line x1="208.8" y1="129.5" x2="185.4" y2="116.0" stroke="rgb(0,0,0)"  stroke-width="2.0"/>
<line x1="183.9" y1="118.6" x2="160.5" y2="132.1" stroke="rgb(0,0,0)"  stroke-width="2.0"/>
<line x1="183.9" y1="118.6" x2="183.9" y2="91.6" stroke="rgb(0,0,0)"  stroke-width="2.0"/>
<line x1="149.3" y1="151.6" x2="149.3" y2="178.6" stroke="rgb(0,0,0)"  stroke-width="2.0"/>
<line x1="138.0" y1="132.1" x2="125.9" y2="125.1" stroke="rgb(0,0,0)"  stroke-width="2.0"/>
<line x1="183.9" y1="238.6" x2="207.3" y2="252.1" stroke="rgb(0,0,0)"  stroke-width="2.0"/>
<line x1="149.3" y1="258.6" x2="149.3" y2="285.6" stroke="rgb(0,0,0)"  stroke-width="2.0"/>
<line x1="114.6" y1="238.6" x2="91.3" y2="252.1" stroke="rgb(0,0,0)"  stroke-width="2.0"/>
<line x1="80.0" y1="271.6" x2="80.0" y2="298.6" stroke="rgb(0,0,0)"  stroke-width="2.0"/>
<line x1="80.0" y1="298.6" x2="66.5" y2="321.9" stroke="rgb(0,0,0)"  stroke-width="2.0"/>
<line x1="80.0" y1="298.6" x2="53.0" y2="298.6" stroke="rgb(0,0,0)"  stroke-width="2.0"/>
<line x1="80.0" y1="298.6" x2="103.4" y2="312.1" stroke="rgb(0,0,0)"  stroke-width="2.0"/>
<line x1="218.6" y1="271.6" x2="218.6" y2="298.6" stroke="rgb(0,0,0)"  stroke-width="2.0"/>
<line x1="218.6" y1="298.6" x2="205.1" y2="321.9" stroke="rgb(0,0,0)"  stroke-width="2.0"/>
<line x1="218.6" y1="298.6" x2="191.6" y2="298.6" stroke="rgb(0,0,0)"  stroke-width="2.0"/>
<line x1="218.6" y1="298.6" x2="241.9" y2="312.1" stroke="rgb(0,0,0)"  stroke-width="2.0"/>
<line x1="172.7" y1="72.1" x2="160.5" y2="65.1" stroke="rgb(0,0,0)"  stroke-width="2.0"/>
<line x1="318.6" y1="74.6" x2="278.6" y2="74.6" stroke="rgb(0,0,0)"  stroke-width="2.0"/>
<line x1="278.6" y1="74.6" x2="258.6" y2="109.3" stroke="rgb(0,0,0)"  stroke-width="2.0"/>
<line x1="281.8" y1="83.4" x2="267.8" y2="107.7" stroke="rgb(0,0,0)"  stroke-width="2.0"/>
<line x1="258.6" y1="109.3" x2="278.6" y2="143.9" stroke="rgb(0,0,0)"  stroke-width="2.0"/>
<line x1="278.6" y1="143.9" x2="318.6" y2="143.9" stroke="rgb(0,0,0)"  stroke-width="2.0"/>
<line x1="284.6" y1="136.7" x2="312.6" y2="136.7" stroke="rgb(0,0,0)"  stroke-width="2.0"/>
<line x1="318.6" y1="143.9" x2="338.6" y2="109.3" stroke="rgb(0,0,0)"  stroke-width="2.0"/>
<line x1="338.6" y1="109.3" x2="318.6" y2="74.6" stroke="rgb(0,0,0)"  stroke-width="2.0"/>
<line x1="329.3" y1="107.7" x2="315.3" y2="83.4" stroke="rgb(0,0,0)"  stroke-width="2.0"/>
<line x1="183.9" y1="238.6" x2="149.3" y2="258.6" stroke="rgb(0,0,0)"  stroke-width="2.0"/>
<line x1="149.3" y1="258.6" x2="114.6" y2="238.6" stroke="rgb(0,0,0)"  stroke-width="2.0"/>
<line x1="147.7" y1="249.3" x2="123.4" y2="235.3" stroke="rgb(0,0,0)"  stroke-width="2.0"/>
<line x1="114.6" y1="238.6" x2="114.6" y2="211.6" stroke="rgb(0,0,0)"  stroke-width="2.0"/>
<line x1="126.1" y1="192.0" x2="149.3" y2="178.6" stroke="rgb(0,0,0)"  stroke-width="2.0"/>
<line x1="131.4" y1="197.2" x2="147.7" y2="187.8" stroke="rgb(0,0,0)"  stroke-width="2.0"/>
<line x1="149.3" y1="178.6" x2="172.7" y2="192.1" stroke="rgb(0,0,0)"  stroke-width="2.0"/>
<line x1="183.9" y1="211.8" x2="183.9" y2="238.6" stroke="rgb(0,0,0)"  stroke-width="2.0"/>
<line x1="176.7" y1="213.8" x2="176.7" y2="232.6" stroke="rgb(0,0,0)"  stroke-width="2.0"/>
<text x="332.564065" y="48.000000" fill="rgb(191,191,191)"  stroke="rgb(191,191,191)" stroke-width="1" font-size="16" >H</text>
<text x="212.564065" y="266.564065" fill="rgb(255,12,12)"  stroke="rgb(255,12,12)" stroke-width="1" font-size="16" >O</text>
<text x="177.923048" y="86.564065" fill="rgb(255,12,12)"  stroke="rgb(255,12,12)" stroke-width="1" font-size="16" >O</text>
<text x="392.564065" y="111.923048" fill="rgb(191,191,191)"  stroke="rgb(191,191,191)" stroke-width="1" font-size="16" >H</text>
<text x="357.923048" y="131.923048" fill="rgb(191,191,191)"  stroke="rgb(191,191,191)" stroke-width="1" font-size="16" >H</text>
<text x="432.564065" y="151.923048" fill="rgb(191,191,191)"  stroke="rgb(191,191,191)" stroke-width="1" font-size="16" >H</text>
<text x="427.205081" y="241.205081" fill="rgb(191,191,191)"  stroke="rgb(191,191,191)" stroke-width="1" font-size="16" >H</text>
<text x="427.205081" y="201.205081" fill="rgb(191,191,191)"  stroke="rgb(191,191,191)" stroke-width="1" font-size="16" >H</text>
<text x="372.564065" y="255.846097" fill="rgb(191,191,191)"  stroke="rgb(191,191,191)" stroke-width="1" font-size="16" >H</text>
<text x="372.564065" y="117.282032" fill="rgb(191,191,191)"  stroke="rgb(191,191,191)" stroke-width="1" font-size="16" >H</text>
<text x="74.000000" y="266.564065" fill="rgb(255,12,12)"  stroke="rgb(255,12,12)" stroke-width="1" font-size="16" >O</text>
<text x="252.564065" y="48.000000" fill="rgb(191,191,191)"  stroke="rgb(191,191,191)" stroke-width="1" font-size="16" >H</text>
<text x="212.564065" y="117.282032" fill="rgb(191,191,191)"  stroke="rgb(191,191,191)" stroke-width="1" font-size="16" >H</text>
<text x="143.282032" y="306.564065" fill="rgb(191,191,191)"  stroke="rgb(191,191,191)" stroke-width="1" font-size="16" >H</text>
<text x="54.000000" y="341.205081" fill="rgb(191,191,191)"  stroke="rgb(191,191,191)" stroke-width="1" font-size="16" >H</text>
<text x="34.000000" y="306.564065" fill="rgb(191,191,191)"  stroke="rgb(191,191,191)" stroke-width="1" font-size="16" >H</text>
<text x="108.641016" y="326.564065" fill="rgb(191,191,191)"  stroke="rgb(191,191,191)" stroke-width="1" font-size="16" >H</text>
<text x="192.564065" y="341.205081" fill="rgb(191,191,191)"  stroke="rgb(191,191,191)" stroke-width="1" font-size="16" >H</text>
<text x="172.564065" y="306.564065" fill="rgb(191,191,191)"  stroke="rgb(191,191,191)" stroke-width="1" font-size="16" >H</text>
<text x="247.205081" y="326.564065" fill="rgb(191,191,191)"  stroke="rgb(191,191,191)" stroke-width="1" font-size="16" >H</text>
<text x="143.282032" y="66.564065" fill="rgb(191,191,191)"  stroke="rgb(191,191,191)" stroke-width="1" font-size="16" >H</text>
<text x="108.641016" y="126.564065" fill="rgb(191,191,191)"  stroke="rgb(191,191,191)" stroke-width="1" font-size="16" >H</text>
<text x="212.564065" y="186.564065" fill="rgb(178,178,0)"  stroke="rgb(178,178,0)" stroke-width="1" font-size="16" >S</text>
<text x="372.564065" y="186.564065" fill="rgb(12,12,255)"  stroke="rgb(12,12,255)" stroke-width="1" font-size="16" >N</text>
<text x="312.564065" y="221.205081" fill="rgb(255,12,12)"  stroke="rgb(255,12,12)" stroke-width="1" font-size="16" >O</text>
<text x="252.564065" y="186.564065" fill="rgb(12,12,255)"  stroke="rgb(12,12,255)" stroke-width="1" font-size="16" >N</text>
<text x="252.564065" y="202.564065" fill="rgb(12,12,255)"  stroke="rgb(12,12,255)" stroke-width="1" font-size="16" >H</text>
<text x="212.564065" y="226.564065" fill="rgb(255,12,12)"  stroke="rgb(255,12,12)" stroke-width="1" font-size="16" >O</text>
<text x="172.564065" y="186.564065" fill="rgb(255,12,12)"  stroke="rgb(255,12,12)" stroke-width="1" font-size="16" >O</text>
<text x="212.564065" y="146.564065" fill="rgb(12,12,255)"  stroke="rgb(12,12,255)" stroke-width="1" font-size="16" >N</text>
<text x="143.282032" y="146.564065" fill="rgb(12,12,255)"  stroke="rgb(12,12,255)" stroke-width="1" font-size="16" >N</text>
<text x="177.923048" y="206.564065" fill="rgb(12,12,255)"  stroke="rgb(12,12,255)" stroke-width="1" font-size="16" >N</text>
<text x="108.641016" y="206.564065" fill="rgb(12,12,255)"  stroke="rgb(12,12,255)" stroke-width="1" font-size="16" >N</text>
</svg>
</g>
<text font-size="18.000000" fill ="black" font-family="sans-serif"
x="10.000000" y="20.000000" >ZINC38232075</text>
</svg>
