<?xml version="1.0"?>
<svg version="1.1" id="topsvg"
xmlns="http://www.w3.org/2000/svg" xmlns:xlink="http://www.w3.org/1999/xlink"
xmlns:cml="http://www.xml-cml.org/schema" x="0" y="0" width="200px" height="200px" viewBox="0 0 100 100">
<title>ZINC29056295 - Open Babel Depiction</title>
<rect x="0" y="0" width="100" height="100" fill="white"/>
<g transform="translate(0,0)">
<svg width="100" height="100" x="0" y="0" viewBox="0 0 376.561 384.39"
font-family="sans-serif" stroke="rgb(0,0,0)" stroke-width="2"  stroke-linecap="round">
<line x1="73.0" y1="230.2" x2="51.3" y2="217.7" stroke="rgb(0,0,0)"  stroke-width="2.0"/>
<line x1="73.0" y1="268.3" x2="51.3" y2="280.8" stroke="rgb(0,0,0)"  stroke-width="2.0"/>
<line x1="105.9" y1="287.3" x2="105.9" y2="312.4" stroke="rgb(0,0,0)"  stroke-width="2.0"/>
<line x1="138.9" y1="268.3" x2="204.8" y2="306.3" stroke="rgb(0,0,0)"  stroke-width="2.0"/>
<line x1="138.9" y1="230.2" x2="204.8" y2="192.2" stroke="rgb(0,0,0)"  stroke-width="2.0"/>
<line x1="105.9" y1="211.2" x2="105.9" y2="186.2" stroke="rgb(0,0,0)"  stroke-width="2.0"/>
<line x1="237.7" y1="249.3" x2="216.0" y2="261.8" stroke="rgb(0,0,0)"  stroke-width="2.0"/>
<line x1="270.7" y1="268.3" x2="270.7" y2="293.3" stroke="rgb(0,0,0)"  stroke-width="2.0"/>
<line x1="303.6" y1="249.3" x2="325.3" y2="261.8" stroke="rgb(0,0,0)"  stroke-width="2.0"/>
<line x1="303.6" y1="211.2" x2="325.3" y2="198.7" stroke="rgb(0,0,0)"  stroke-width="2.0"/>
<line x1="237.7" y1="97.1" x2="259.4" y2="84.5" stroke="rgb(0,0,0)"  stroke-width="2.0"/>
<line x1="201.8" y1="78.0" x2="201.8" y2="53.0" stroke="rgb(0,0,0)"  stroke-width="2.0"/>
<line x1="207.8" y1="78.0" x2="207.8" y2="53.0" stroke="rgb(0,0,0)"  stroke-width="2.0"/>
<line x1="171.8" y1="97.1" x2="150.1" y2="84.5" stroke="rgb(0,0,0)"  stroke-width="2.0"/>
<line x1="171.8" y1="135.1" x2="150.1" y2="147.6" stroke="rgb(0,0,0)"  stroke-width="2.0"/>
<line x1="336.6" y1="281.3" x2="336.6" y2="293.3" stroke="rgb(0,0,0)"  stroke-width="2.0"/>
<line x1="207.8" y1="306.3" x2="207.8" y2="331.4" stroke="rgb(0,0,0)"  stroke-width="2.0"/>
<line x1="201.8" y1="306.3" x2="201.8" y2="331.4" stroke="rgb(0,0,0)"  stroke-width="2.0"/>
<line x1="204.8" y1="306.3" x2="226.4" y2="293.8" stroke="rgb(0,0,0)"  stroke-width="2.0"/>
<line x1="105.9" y1="287.3" x2="138.9" y2="268.3" stroke="rgb(0,0,0)"  stroke-width="2.0"/>
<line x1="138.9" y1="268.3" x2="138.9" y2="230.2" stroke="rgb(0,0,0)"  stroke-width="2.0"/>
<line x1="131.7" y1="262.3" x2="131.7" y2="236.2" stroke="rgb(0,0,0)"  stroke-width="2.0"/>
<line x1="138.9" y1="230.2" x2="105.9" y2="211.2" stroke="rgb(0,0,0)"  stroke-width="2.0"/>
<line x1="105.9" y1="211.2" x2="73.0" y2="230.2" stroke="rgb(0,0,0)"  stroke-width="2.0"/>
<line x1="104.3" y1="220.5" x2="81.7" y2="233.5" stroke="rgb(0,0,0)"  stroke-width="2.0"/>
<line x1="73.0" y1="230.2" x2="73.0" y2="268.3" stroke="rgb(0,0,0)"  stroke-width="2.0"/>
<line x1="73.0" y1="268.3" x2="105.9" y2="287.3" stroke="rgb(0,0,0)"  stroke-width="2.0"/>
<line x1="81.7" y1="265.1" x2="104.3" y2="278.1" stroke="rgb(0,0,0)"  stroke-width="2.0"/>
<line x1="237.7" y1="249.3" x2="270.7" y2="268.3" stroke="rgb(0,0,0)"  stroke-width="2.0"/>
<line x1="246.5" y1="246.0" x2="269.1" y2="259.1" stroke="rgb(0,0,0)"  stroke-width="2.0"/>
<line x1="270.7" y1="268.3" x2="303.6" y2="249.3" stroke="rgb(0,0,0)"  stroke-width="2.0"/>
<line x1="303.6" y1="249.3" x2="303.6" y2="211.2" stroke="rgb(0,0,0)"  stroke-width="2.0"/>
<line x1="296.4" y1="243.3" x2="296.4" y2="217.2" stroke="rgb(0,0,0)"  stroke-width="2.0"/>
<line x1="303.6" y1="211.2" x2="270.7" y2="192.2" stroke="rgb(0,0,0)"  stroke-width="2.0"/>
<line x1="270.7" y1="192.2" x2="237.7" y2="211.2" stroke="rgb(0,0,0)"  stroke-width="2.0"/>
<line x1="269.1" y1="201.4" x2="246.5" y2="214.5" stroke="rgb(0,0,0)"  stroke-width="2.0"/>
<line x1="237.7" y1="211.2" x2="237.7" y2="249.3" stroke="rgb(0,0,0)"  stroke-width="2.0"/>
<line x1="270.7" y1="192.2" x2="270.7" y2="167.1" stroke="rgb(0,0,0)"  stroke-width="2.0"/>
<line x1="259.4" y1="147.6" x2="237.7" y2="135.1" stroke="rgb(0,0,0)"  stroke-width="2.0"/>
<line x1="237.7" y1="135.1" x2="204.8" y2="154.1" stroke="rgb(0,0,0)"  stroke-width="2.0"/>
<line x1="204.8" y1="154.1" x2="204.8" y2="192.2" stroke="rgb(0,0,0)"  stroke-width="2.0"/>
<line x1="212.0" y1="160.1" x2="212.0" y2="186.2" stroke="rgb(0,0,0)"  stroke-width="2.0"/>
<line x1="204.8" y1="192.2" x2="237.7" y2="211.2" stroke="rgb(0,0,0)"  stroke-width="2.0"/>
<line x1="171.8" y1="97.1" x2="171.8" y2="135.1" stroke="rgb(0,0,0)"  stroke-width="2.0"/>
<line x1="179.0" y1="103.1" x2="179.0" y2="129.1" stroke="rgb(0,0,0)"  stroke-width="2.0"/>
<line x1="171.8" y1="135.1" x2="204.8" y2="154.1" stroke="rgb(0,0,0)"  stroke-width="2.0"/>
<line x1="237.7" y1="135.1" x2="237.7" y2="97.1" stroke="rgb(0,0,0)"  stroke-width="2.0"/>
<line x1="230.5" y1="129.1" x2="230.5" y2="103.1" stroke="rgb(0,0,0)"  stroke-width="2.0"/>
<line x1="237.7" y1="97.1" x2="204.8" y2="78.0" stroke="rgb(0,0,0)"  stroke-width="2.0"/>
<line x1="204.8" y1="78.0" x2="171.8" y2="97.1" stroke="rgb(0,0,0)"  stroke-width="2.0"/>
<text x="198.756052" y="352.390244" fill="rgb(255,12,12)"  stroke="rgb(255,12,12)" stroke-width="1" font-size="16" >O</text>
<text x="120.853631" y="86.048780" fill="rgb(165,40,40)"  stroke="rgb(165,40,40)" stroke-width="1" font-size="16" >Br</text>
<text x="264.658473" y="86.048780" fill="rgb(165,40,40)"  stroke="rgb(165,40,40)" stroke-width="1" font-size="16" >Br</text>
<text x="330.560894" y="200.195122" fill="rgb(165,40,40)"  stroke="rgb(165,40,40)" stroke-width="1" font-size="16" >Br</text>
<text x="330.560894" y="276.292683" fill="rgb(255,12,12)"  stroke="rgb(255,12,12)" stroke-width="1" font-size="16" >O</text>
<text x="264.658473" y="314.341463" fill="rgb(165,40,40)"  stroke="rgb(165,40,40)" stroke-width="1" font-size="16" >Br</text>
<text x="231.707263" y="295.317073" fill="rgb(255,12,12)"  stroke="rgb(255,12,12)" stroke-width="1" font-size="16" >OH</text>
<text x="34.000000" y="219.219512" fill="rgb(191,191,191)"  stroke="rgb(191,191,191)" stroke-width="1" font-size="16" >H</text>
<text x="34.000000" y="295.317073" fill="rgb(191,191,191)"  stroke="rgb(191,191,191)" stroke-width="1" font-size="16" >H</text>
<text x="99.902421" y="333.365854" fill="rgb(191,191,191)"  stroke="rgb(191,191,191)" stroke-width="1" font-size="16" >H</text>
<text x="99.902421" y="181.170732" fill="rgb(191,191,191)"  stroke="rgb(191,191,191)" stroke-width="1" font-size="16" >H</text>
<text x="198.756052" y="276.292683" fill="rgb(191,191,191)"  stroke="rgb(191,191,191)" stroke-width="1" font-size="16" >H</text>
<text x="132.853631" y="162.146341" fill="rgb(191,191,191)"  stroke="rgb(191,191,191)" stroke-width="1" font-size="16" >H</text>
<text x="330.560894" y="314.341463" fill="rgb(191,191,191)"  stroke="rgb(191,191,191)" stroke-width="1" font-size="16" >H</text>
<text x="264.658473" y="162.146341" fill="rgb(255,12,12)"  stroke="rgb(255,12,12)" stroke-width="1" font-size="16" >O</text>
<text x="198.756052" y="48.000000" fill="rgb(255,12,12)"  stroke="rgb(255,12,12)" stroke-width="1" font-size="16" >O</text>
</svg>
</g>
<text font-size="18.000000" fill ="black" font-family="sans-serif"
x="10.000000" y="20.000000" >ZINC29056295</text>
</svg>
