<?xml version="1.0"?>
<svg version="1.1" id="topsvg"
xmlns="http://www.w3.org/2000/svg" xmlns:xlink="http://www.w3.org/1999/xlink"
xmlns:cml="http://www.xml-cml.org/schema" x="0" y="0" width="200px" height="200px" viewBox="0 0 100 100">
<title>ZINC19735115 - Open Babel Depiction</title>
<rect x="0" y="0" width="100" height="100" fill="white"/>
<g transform="translate(0,0)">
<svg width="100" height="100" x="0" y="0" viewBox="0 0 346.043 272"
font-family="sans-serif" stroke="rgb(0,0,0)" stroke-width="2"  stroke-linecap="round">
<line x1="106.5" y1="174.4" x2="106.5" y2="199.8" stroke="rgb(0,0,0)"  stroke-width="2.0"/>
<line x1="139.8" y1="155.2" x2="161.8" y2="167.9" stroke="rgb(0,0,0)"  stroke-width="2.0"/>
<line x1="139.8" y1="116.8" x2="161.8" y2="104.1" stroke="rgb(0,0,0)"  stroke-width="2.0"/>
<line x1="106.5" y1="97.6" x2="106.5" y2="72.2" stroke="rgb(0,0,0)"  stroke-width="2.0"/>
<line x1="73.3" y1="116.8" x2="51.3" y2="104.1" stroke="rgb(0,0,0)"  stroke-width="2.0"/>
<line x1="73.3" y1="155.2" x2="51.3" y2="167.9" stroke="rgb(0,0,0)"  stroke-width="2.0"/>
<line x1="185.8" y1="101.5" x2="207.8" y2="114.2" stroke="rgb(0,0,0)"  stroke-width="2.0"/>
<line x1="182.8" y1="106.7" x2="204.8" y2="119.4" stroke="rgb(0,0,0)"  stroke-width="2.0"/>
<line x1="206.3" y1="116.8" x2="261.5" y2="84.9" stroke="rgb(0,0,0)"  stroke-width="2.0"/>
<line x1="206.3" y1="116.8" x2="206.3" y2="142.2" stroke="rgb(0,0,0)"  stroke-width="2.0"/>
<line x1="272.8" y1="65.4" x2="272.8" y2="53.0" stroke="rgb(0,0,0)"  stroke-width="2.0"/>
<line x1="284.0" y1="84.9" x2="294.8" y2="91.1" stroke="rgb(0,0,0)"  stroke-width="2.0"/>
<line x1="219.0" y1="159.1" x2="241.0" y2="171.8" stroke="rgb(0,0,0)"  stroke-width="2.0"/>
<line x1="216.0" y1="164.3" x2="238.0" y2="177.0" stroke="rgb(0,0,0)"  stroke-width="2.0"/>
<line x1="239.5" y1="174.4" x2="261.5" y2="161.7" stroke="rgb(0,0,0)"  stroke-width="2.0"/>
<line x1="239.5" y1="174.4" x2="239.5" y2="199.8" stroke="rgb(0,0,0)"  stroke-width="2.0"/>
<line x1="272.8" y1="142.2" x2="272.8" y2="129.8" stroke="rgb(0,0,0)"  stroke-width="2.0"/>
<line x1="284.0" y1="161.7" x2="294.8" y2="167.9" stroke="rgb(0,0,0)"  stroke-width="2.0"/>
<line x1="250.8" y1="219.3" x2="261.5" y2="225.5" stroke="rgb(0,0,0)"  stroke-width="2.0"/>
<line x1="228.3" y1="219.3" x2="217.5" y2="225.5" stroke="rgb(0,0,0)"  stroke-width="2.0"/>
<line x1="139.8" y1="116.8" x2="106.5" y2="97.6" stroke="rgb(0,0,0)"  stroke-width="2.0"/>
<line x1="106.5" y1="97.6" x2="73.3" y2="116.8" stroke="rgb(0,0,0)"  stroke-width="2.0"/>
<line x1="104.9" y1="106.8" x2="82.1" y2="120.0" stroke="rgb(0,0,0)"  stroke-width="2.0"/>
<line x1="73.3" y1="116.8" x2="73.3" y2="155.2" stroke="rgb(0,0,0)"  stroke-width="2.0"/>
<line x1="73.3" y1="155.2" x2="106.5" y2="174.4" stroke="rgb(0,0,0)"  stroke-width="2.0"/>
<line x1="82.1" y1="152.0" x2="104.9" y2="165.2" stroke="rgb(0,0,0)"  stroke-width="2.0"/>
<line x1="106.5" y1="174.4" x2="139.8" y2="155.2" stroke="rgb(0,0,0)"  stroke-width="2.0"/>
<line x1="139.8" y1="155.2" x2="139.8" y2="116.8" stroke="rgb(0,0,0)"  stroke-width="2.0"/>
<line x1="132.6" y1="149.2" x2="132.6" y2="122.8" stroke="rgb(0,0,0)"  stroke-width="2.0"/>
<text x="266.787629" y="163.200000" fill="rgb(12,12,255)"  stroke="rgb(12,12,255)" stroke-width="1" font-size="16" >N</text>
<text x="300.043004" y="182.400000" fill="rgb(191,191,191)"  stroke="rgb(191,191,191)" stroke-width="1" font-size="16" >H</text>
<text x="200.276878" y="240.000000" fill="rgb(191,191,191)"  stroke="rgb(191,191,191)" stroke-width="1" font-size="16" >H</text>
<text x="266.787629" y="240.000000" fill="rgb(191,191,191)"  stroke="rgb(191,191,191)" stroke-width="1" font-size="16" >H</text>
<text x="266.787629" y="124.800000" fill="rgb(191,191,191)"  stroke="rgb(191,191,191)" stroke-width="1" font-size="16" >H</text>
<text x="300.043004" y="105.600000" fill="rgb(191,191,191)"  stroke="rgb(191,191,191)" stroke-width="1" font-size="16" >H</text>
<text x="266.787629" y="48.000000" fill="rgb(191,191,191)"  stroke="rgb(191,191,191)" stroke-width="1" font-size="16" >H</text>
<text x="34.000000" y="182.400000" fill="rgb(191,191,191)"  stroke="rgb(191,191,191)" stroke-width="1" font-size="16" >H</text>
<text x="100.510751" y="67.200000" fill="rgb(191,191,191)"  stroke="rgb(191,191,191)" stroke-width="1" font-size="16" >H</text>
<text x="167.021502" y="182.400000" fill="rgb(191,191,191)"  stroke="rgb(191,191,191)" stroke-width="1" font-size="16" >H</text>
<text x="100.510751" y="220.800000" fill="rgb(191,191,191)"  stroke="rgb(191,191,191)" stroke-width="1" font-size="16" >H</text>
<text x="233.532253" y="220.800000" fill="rgb(12,12,255)"  stroke="rgb(12,12,255)" stroke-width="1" font-size="16" >N</text>
<text x="200.276878" y="163.200000" fill="rgb(12,12,255)"  stroke="rgb(12,12,255)" stroke-width="1" font-size="16" >N</text>
<text x="266.787629" y="86.400000" fill="rgb(12,12,255)"  stroke="rgb(12,12,255)" stroke-width="1" font-size="16" >N</text>
<text x="167.021502" y="105.600000" fill="rgb(12,12,255)"  stroke="rgb(12,12,255)" stroke-width="1" font-size="16" >N</text>
<text x="34.000000" y="105.600000" fill="rgb(127,178,255)"  stroke="rgb(127,178,255)" stroke-width="1" font-size="16" >F</text>
</svg>
</g>
<text font-size="18.000000" fill ="black" font-family="sans-serif"
x="10.000000" y="20.000000" >ZINC19735115</text>
</svg>
