<?xml version="1.0"?>
<svg version="1.1" id="topsvg"
xmlns="http://www.w3.org/2000/svg" xmlns:xlink="http://www.w3.org/1999/xlink"
xmlns:cml="http://www.xml-cml.org/schema" x="0" y="0" width="200px" height="200px" viewBox="0 0 100 100">
<title>ZINC23094245 - Open Babel Depiction</title>
<rect x="0" y="0" width="100" height="100" fill="white"/>
<g transform="translate(0,0)">
<svg width="100" height="100" x="0" y="0" viewBox="0 0 374.465 372.735"
font-family="sans-serif" stroke="rgb(0,0,0)" stroke-width="2"  stroke-linecap="round">
<line x1="303.4" y1="129.7" x2="272.3" y2="147.7" stroke="rgb(0,0,0)"  stroke-width="2.0"/>
<line x1="303.4" y1="129.7" x2="314.8" y2="109.9" stroke="rgb(0,0,0)"  stroke-width="2.0"/>
<line x1="303.4" y1="129.7" x2="291.9" y2="109.9" stroke="rgb(0,0,0)"  stroke-width="2.0"/>
<line x1="303.4" y1="129.7" x2="323.2" y2="141.2" stroke="rgb(0,0,0)"  stroke-width="2.0"/>
<line x1="272.3" y1="147.7" x2="241.2" y2="129.7" stroke="rgb(0,0,0)"  stroke-width="2.0"/>
<line x1="272.3" y1="147.7" x2="260.8" y2="167.5" stroke="rgb(0,0,0)"  stroke-width="2.0"/>
<line x1="272.3" y1="147.7" x2="283.7" y2="167.5" stroke="rgb(0,0,0)"  stroke-width="2.0"/>
<line x1="242.9" y1="125.2" x2="244.3" y2="126.0" stroke="rgb(0,0,0)"  stroke-width="1.0"/>
<line x1="244.3" y1="121.5" x2="246.8" y2="123.0" stroke="rgb(0,0,0)"  stroke-width="1.0"/>
<line x1="245.7" y1="117.9" x2="249.3" y2="120.0" stroke="rgb(0,0,0)"  stroke-width="1.0"/>
<line x1="247.0" y1="114.2" x2="251.7" y2="116.9" stroke="rgb(0,0,0)"  stroke-width="1.0"/>
<line x1="248.4" y1="110.6" x2="254.2" y2="113.9" stroke="rgb(0,0,0)"  stroke-width="1.0"/>
<line x1="249.8" y1="106.9" x2="256.7" y2="110.9" stroke="rgb(0,0,0)"  stroke-width="1.0"/>
<line x1="241.2" y1="129.7" x2="210.1" y2="111.8" stroke="rgb(0,0,0)"  stroke-width="2.0"/>
<line x1="241.2" y1="129.7" x2="175.9" y2="242.8" stroke="rgb(0,0,0)"  stroke-width="2.0"/>
<line x1="210.1" y1="111.8" x2="210.1" y2="88.9" stroke="rgb(0,0,0)"  stroke-width="2.0"/>
<line x1="210.1" y1="111.8" x2="187.2" y2="111.8" stroke="rgb(0,0,0)"  stroke-width="2.0"/>
<line x1="210.1" y1="111.8" x2="198.7" y2="131.6" stroke="rgb(0,0,0)"  stroke-width="2.0"/>
<line x1="223.1" y1="75.9" x2="233.0" y2="75.9" stroke="rgb(0,0,0)"  stroke-width="2.0"/>
<line x1="210.1" y1="62.9" x2="210.1" y2="53.0" stroke="rgb(0,0,0)"  stroke-width="2.0"/>
<line x1="197.1" y1="75.9" x2="187.2" y2="75.9" stroke="rgb(0,0,0)"  stroke-width="2.0"/>
<line x1="177.3" y1="264.4" x2="205.2" y2="300.7" stroke="rgb(0,0,0)"  stroke-width="2.0"/>
<line x1="144.0" y1="228.7" x2="160.2" y2="212.5" stroke="rgb(0,0,0)"  stroke-width="2.0"/>
<line x1="144.0" y1="228.7" x2="138.1" y2="206.6" stroke="rgb(0,0,0)"  stroke-width="2.0"/>
<line x1="109.3" y1="238.0" x2="103.4" y2="215.9" stroke="rgb(0,0,0)"  stroke-width="2.0"/>
<line x1="109.3" y1="238.0" x2="87.2" y2="232.1" stroke="rgb(0,0,0)"  stroke-width="2.0"/>
<line x1="87.5" y1="276.0" x2="65.4" y2="282.0" stroke="rgb(0,0,0)"  stroke-width="2.0"/>
<line x1="125.4" y1="298.1" x2="109.2" y2="314.3" stroke="rgb(0,0,0)"  stroke-width="2.0"/>
<line x1="125.4" y1="298.1" x2="131.4" y2="320.2" stroke="rgb(0,0,0)"  stroke-width="2.0"/>
<line x1="160.1" y1="288.8" x2="166.0" y2="310.9" stroke="rgb(0,0,0)"  stroke-width="2.0"/>
<line x1="160.1" y1="288.8" x2="182.2" y2="294.7" stroke="rgb(0,0,0)"  stroke-width="2.0"/>
<line x1="65.4" y1="282.0" x2="49.2" y2="298.2" stroke="rgb(0,0,0)"  stroke-width="2.0"/>
<line x1="65.4" y1="282.0" x2="71.3" y2="304.1" stroke="rgb(0,0,0)"  stroke-width="2.0"/>
<line x1="65.4" y1="282.0" x2="49.2" y2="265.8" stroke="rgb(0,0,0)"  stroke-width="2.0"/>
<line x1="109.3" y1="238.0" x2="103.4" y2="260.1" stroke="rgb(0,0,0)"  stroke-width="2.0"/>
<line x1="109.2" y1="281.9" x2="125.4" y2="298.1" stroke="rgb(0,0,0)"  stroke-width="2.0"/>
<line x1="125.4" y1="298.1" x2="160.1" y2="288.8" stroke="rgb(0,0,0)"  stroke-width="2.0"/>
<line x1="160.1" y1="288.8" x2="166.0" y2="266.7" stroke="rgb(0,0,0)"  stroke-width="2.0"/>
<line x1="160.2" y1="244.9" x2="144.0" y2="228.7" stroke="rgb(0,0,0)"  stroke-width="2.0"/>
<line x1="144.0" y1="228.7" x2="109.3" y2="238.0" stroke="rgb(0,0,0)"  stroke-width="2.0"/>
<text x="94.057581" y="331.444476" fill="rgb(191,191,191)"  stroke="rgb(191,191,191)" stroke-width="1" font-size="16" >H</text>
<text x="168.215446" y="119.794872" fill="rgb(191,191,191)"  stroke="rgb(191,191,191)" stroke-width="1" font-size="16" >H</text>
<text x="186.164164" y="150.882963" fill="rgb(191,191,191)"  stroke="rgb(191,191,191)" stroke-width="1" font-size="16" >H</text>
<text x="240.010318" y="83.897436" fill="rgb(191,191,191)"  stroke="rgb(191,191,191)" stroke-width="1" font-size="16" >H</text>
<text x="204.112882" y="48.000000" fill="rgb(191,191,191)"  stroke="rgb(191,191,191)" stroke-width="1" font-size="16" >H</text>
<text x="163.406102" y="211.329315" fill="rgb(191,191,191)"  stroke="rgb(191,191,191)" stroke-width="1" font-size="16" >H</text>
<text x="128.731841" y="202.038375" fill="rgb(191,191,191)"  stroke="rgb(191,191,191)" stroke-width="1" font-size="16" >H</text>
<text x="94.057581" y="211.329315" fill="rgb(191,191,191)"  stroke="rgb(191,191,191)" stroke-width="1" font-size="16" >H</text>
<text x="68.674260" y="236.712635" fill="rgb(191,191,191)"  stroke="rgb(191,191,191)" stroke-width="1" font-size="16" >H</text>
<text x="284.237783" y="186.780399" fill="rgb(191,191,191)"  stroke="rgb(191,191,191)" stroke-width="1" font-size="16" >H</text>
<text x="128.731841" y="340.735416" fill="rgb(191,191,191)"  stroke="rgb(191,191,191)" stroke-width="1" font-size="16" >H</text>
<text x="163.406102" y="331.444476" fill="rgb(191,191,191)"  stroke="rgb(191,191,191)" stroke-width="1" font-size="16" >H</text>
<text x="188.789422" y="306.061156" fill="rgb(191,191,191)"  stroke="rgb(191,191,191)" stroke-width="1" font-size="16" >H</text>
<text x="34.000000" y="315.352096" fill="rgb(191,191,191)"  stroke="rgb(191,191,191)" stroke-width="1" font-size="16" >H</text>
<text x="68.674260" y="324.643036" fill="rgb(191,191,191)"  stroke="rgb(191,191,191)" stroke-width="1" font-size="16" >H</text>
<text x="34.000000" y="264.585455" fill="rgb(191,191,191)"  stroke="rgb(191,191,191)" stroke-width="1" font-size="16" >H</text>
<text x="168.215446" y="83.897436" fill="rgb(191,191,191)"  stroke="rgb(191,191,191)" stroke-width="1" font-size="16" >H</text>
<text x="207.112050" y="319.054657" fill="rgb(191,191,191)"  stroke="rgb(191,191,191)" stroke-width="1" font-size="16" >H</text>
<text x="94.057581" y="280.677836" fill="rgb(12,12,255)"  stroke="rgb(12,12,255)" stroke-width="1" font-size="16" >N</text>
<text x="253.149691" y="106.655498" fill="rgb(191,191,191)"  stroke="rgb(191,191,191)" stroke-width="1" font-size="16" >H</text>
<text x="214.912882" y="71.865436" fill="rgb(12,12,255)"  stroke="rgb(12,12,255)" stroke-width="1" font-size="16" >+</text>
<text x="204.112882" y="83.897436" fill="rgb(12,12,255)"  stroke="rgb(12,12,255)" stroke-width="1" font-size="16" >N</text>
<text x="174.206102" y="250.063955" fill="rgb(12,12,255)"  stroke="rgb(12,12,255)" stroke-width="1" font-size="16" >+</text>
<text x="163.406102" y="262.095955" fill="rgb(12,12,255)"  stroke="rgb(12,12,255)" stroke-width="1" font-size="16" >N</text>
<text x="315.325874" y="106.655498" fill="rgb(191,191,191)"  stroke="rgb(191,191,191)" stroke-width="1" font-size="16" >H</text>
<text x="279.428438" y="106.655498" fill="rgb(191,191,191)"  stroke="rgb(191,191,191)" stroke-width="1" font-size="16" >H</text>
<text x="328.465248" y="155.692308" fill="rgb(191,191,191)"  stroke="rgb(191,191,191)" stroke-width="1" font-size="16" >H</text>
<text x="248.340347" y="186.780399" fill="rgb(191,191,191)"  stroke="rgb(191,191,191)" stroke-width="1" font-size="16" >H</text>
</svg>
</g>
<text font-size="18.000000" fill ="black" font-family="sans-serif"
x="10.000000" y="20.000000" >ZINC23094245</text>
</svg>
