<?xml version="1.0"?>
<svg version="1.1" id="topsvg"
xmlns="http://www.w3.org/2000/svg" xmlns:xlink="http://www.w3.org/1999/xlink"
xmlns:cml="http://www.xml-cml.org/schema" x="0" y="0" width="200px" height="200px" viewBox="0 0 100 100">
<title>ZINC85545908 - Open Babel Depiction</title>
<rect x="0" y="0" width="100" height="100" fill="white"/>
<g transform="translate(0,0)">
<svg width="100" height="100" x="0" y="0" viewBox="0 0 742.84 530.576"
font-family="sans-serif" stroke="rgb(0,0,0)" stroke-width="2"  stroke-linecap="round">
<line x1="382.0" y1="78.0" x2="363.0" y2="110.9" stroke="rgb(0,0,0)"  stroke-width="2.0"/>
<line x1="382.0" y1="78.0" x2="382.0" y2="53.0" stroke="rgb(0,0,0)"  stroke-width="2.0"/>
<line x1="382.0" y1="78.0" x2="360.3" y2="65.5" stroke="rgb(0,0,0)"  stroke-width="2.0"/>
<line x1="382.0" y1="78.0" x2="407.0" y2="78.0" stroke="rgb(0,0,0)"  stroke-width="2.0"/>
<line x1="363.0" y1="110.9" x2="325.0" y2="110.9" stroke="rgb(0,0,0)"  stroke-width="2.0"/>
<line x1="363.0" y1="110.9" x2="363.0" y2="135.9" stroke="rgb(0,0,0)"  stroke-width="2.0"/>
<line x1="363.0" y1="110.9" x2="384.7" y2="123.4" stroke="rgb(0,0,0)"  stroke-width="2.0"/>
<line x1="324.2" y1="105.8" x2="325.8" y2="105.8" stroke="rgb(0,0,0)"  stroke-width="1.0"/>
<line x1="323.6" y1="101.7" x2="326.4" y2="101.7" stroke="rgb(0,0,0)"  stroke-width="1.0"/>
<line x1="322.9" y1="97.7" x2="327.1" y2="97.7" stroke="rgb(0,0,0)"  stroke-width="1.0"/>
<line x1="322.3" y1="93.6" x2="327.7" y2="93.6" stroke="rgb(0,0,0)"  stroke-width="1.0"/>
<line x1="321.6" y1="89.5" x2="328.4" y2="89.5" stroke="rgb(0,0,0)"  stroke-width="1.0"/>
<line x1="321.0" y1="85.4" x2="329.0" y2="85.4" stroke="rgb(0,0,0)"  stroke-width="1.0"/>
<line x1="325.0" y1="110.9" x2="287.0" y2="110.9" stroke="rgb(0,0,0)"  stroke-width="2.0"/>
<line x1="325.0" y1="110.9" x2="325.0" y2="186.9" stroke="rgb(0,0,0)"  stroke-width="2.0"/>
<line x1="287.0" y1="110.9" x2="265.3" y2="98.4" stroke="rgb(0,0,0)"  stroke-width="2.0"/>
<line x1="287.0" y1="110.9" x2="287.0" y2="85.9" stroke="rgb(0,0,0)"  stroke-width="2.0"/>
<line x1="287.0" y1="110.9" x2="274.5" y2="132.6" stroke="rgb(0,0,0)"  stroke-width="2.0"/>
<line x1="330.1" y1="186.1" x2="330.1" y2="187.7" stroke="rgb(0,0,0)"  stroke-width="1.0"/>
<line x1="334.2" y1="185.5" x2="334.2" y2="188.3" stroke="rgb(0,0,0)"  stroke-width="1.0"/>
<line x1="338.2" y1="184.8" x2="338.2" y2="189.0" stroke="rgb(0,0,0)"  stroke-width="1.0"/>
<line x1="342.3" y1="184.2" x2="342.3" y2="189.6" stroke="rgb(0,0,0)"  stroke-width="1.0"/>
<line x1="346.4" y1="183.5" x2="346.4" y2="190.3" stroke="rgb(0,0,0)"  stroke-width="1.0"/>
<line x1="350.5" y1="182.9" x2="350.5" y2="190.9" stroke="rgb(0,0,0)"  stroke-width="1.0"/>
<line x1="325.0" y1="186.9" x2="325.0" y2="224.9" stroke="rgb(0,0,0)"  stroke-width="2.0"/>
<line x1="325.0" y1="186.9" x2="262.0" y2="186.9" stroke="rgb(0,0,0)"  stroke-width="2.0"/>
<line x1="326.5" y1="227.5" x2="304.8" y2="240.0" stroke="rgb(0,0,0)"  stroke-width="2.0"/>
<line x1="323.5" y1="222.3" x2="301.8" y2="234.8" stroke="rgb(0,0,0)"  stroke-width="2.0"/>
<line x1="325.0" y1="224.9" x2="346.7" y2="237.4" stroke="rgb(0,0,0)"  stroke-width="2.0"/>
<line x1="357.9" y1="256.9" x2="357.9" y2="281.9" stroke="rgb(0,0,0)"  stroke-width="2.0"/>
<line x1="369.2" y1="237.4" x2="379.6" y2="231.4" stroke="rgb(0,0,0)"  stroke-width="2.0"/>
<polygon points="357.908965 281.908965 332.448965 285.908965 332.448965 277.908965 " stroke-width="2.000000" fill="rgb(0,0,0)"  stroke="rgb(0,0,0)" />
<line x1="357.9" y1="281.9" x2="357.9" y2="319.9" stroke="rgb(0,0,0)"  stroke-width="2.0"/>
<line x1="357.9" y1="281.9" x2="433.9" y2="281.9" stroke="rgb(0,0,0)"  stroke-width="2.0"/>
<line x1="357.9" y1="319.9" x2="325.0" y2="338.9" stroke="rgb(0,0,0)"  stroke-width="2.0"/>
<line x1="357.9" y1="319.9" x2="370.4" y2="341.6" stroke="rgb(0,0,0)"  stroke-width="2.0"/>
<line x1="357.9" y1="319.9" x2="382.9" y2="319.9" stroke="rgb(0,0,0)"  stroke-width="2.0"/>
<line x1="290.3" y1="323.5" x2="285.1" y2="299.0" stroke="rgb(0,0,0)"  stroke-width="2.0"/>
<line x1="251.9" y1="350.3" x2="240.0" y2="349.1" stroke="rgb(0,0,0)"  stroke-width="2.0"/>
<line x1="283.9" y1="384.6" x2="273.7" y2="407.4" stroke="rgb(0,0,0)"  stroke-width="2.0"/>
<line x1="330.7" y1="385.4" x2="339.6" y2="393.4" stroke="rgb(0,0,0)"  stroke-width="2.0"/>
<line x1="431.3" y1="280.4" x2="443.8" y2="258.8" stroke="rgb(0,0,0)"  stroke-width="2.0"/>
<line x1="436.5" y1="283.4" x2="449.0" y2="261.8" stroke="rgb(0,0,0)"  stroke-width="2.0"/>
<line x1="433.9" y1="281.9" x2="465.4" y2="336.5" stroke="rgb(0,0,0)"  stroke-width="2.0"/>
<line x1="456.5" y1="382.4" x2="432.7" y2="374.7" stroke="rgb(0,0,0)"  stroke-width="2.0"/>
<line x1="456.5" y1="382.4" x2="437.9" y2="399.2" stroke="rgb(0,0,0)"  stroke-width="2.0"/>
<line x1="484.7" y1="407.9" x2="470.0" y2="428.1" stroke="rgb(0,0,0)"  stroke-width="2.0"/>
<line x1="484.7" y1="407.9" x2="494.9" y2="430.7" stroke="rgb(0,0,0)"  stroke-width="2.0"/>
<line x1="517.6" y1="388.9" x2="532.3" y2="409.1" stroke="rgb(0,0,0)"  stroke-width="2.0"/>
<line x1="517.6" y1="388.9" x2="542.5" y2="386.3" stroke="rgb(0,0,0)"  stroke-width="2.0"/>
<polygon points="509.700797 351.698978 532.678628 340.027179 535.150764 347.635631 " stroke-width="2.000000" fill="rgb(0,0,0)"  stroke="rgb(0,0,0)" />
<line x1="509.7" y1="351.7" x2="517.6" y2="314.5" stroke="rgb(0,0,0)"  stroke-width="2.0"/>
<line x1="515.6" y1="316.8" x2="497.0" y2="300.0" stroke="rgb(0,0,0)"  stroke-width="2.0"/>
<line x1="519.6" y1="312.3" x2="501.0" y2="295.6" stroke="rgb(0,0,0)"  stroke-width="2.0"/>
<line x1="517.6" y1="314.5" x2="577.5" y2="295.1" stroke="rgb(0,0,0)"  stroke-width="2.0"/>
<line x1="599.5" y1="299.7" x2="618.1" y2="316.5" stroke="rgb(0,0,0)"  stroke-width="2.0"/>
<line x1="592.6" y1="278.3" x2="595.1" y2="266.6" stroke="rgb(0,0,0)"  stroke-width="2.0"/>
<polygon points="618.121240 316.471040 604.057754 338.068030 598.112596 332.714985 " stroke-width="2.000000" fill="rgb(0,0,0)"  stroke="rgb(0,0,0)" />
<line x1="618.1" y1="316.5" x2="646.4" y2="341.9" stroke="rgb(0,0,0)"  stroke-width="2.0"/>
<line x1="618.1" y1="316.5" x2="643.5" y2="288.2" stroke="rgb(0,0,0)"  stroke-width="2.0"/>
<line x1="646.4" y1="341.9" x2="638.5" y2="379.1" stroke="rgb(0,0,0)"  stroke-width="2.0"/>
<line x1="646.4" y1="341.9" x2="670.8" y2="347.1" stroke="rgb(0,0,0)"  stroke-width="2.0"/>
<line x1="646.4" y1="341.9" x2="663.1" y2="323.3" stroke="rgb(0,0,0)"  stroke-width="2.0"/>
<line x1="602.3" y1="390.8" x2="583.7" y2="374.1" stroke="rgb(0,0,0)"  stroke-width="2.0"/>
<line x1="594.4" y1="428.0" x2="570.6" y2="435.7" stroke="rgb(0,0,0)"  stroke-width="2.0"/>
<line x1="622.7" y1="453.4" x2="617.5" y2="477.9" stroke="rgb(0,0,0)"  stroke-width="2.0"/>
<line x1="658.8" y1="441.7" x2="677.4" y2="458.4" stroke="rgb(0,0,0)"  stroke-width="2.0"/>
<line x1="666.7" y1="404.5" x2="690.5" y2="396.8" stroke="rgb(0,0,0)"  stroke-width="2.0"/>
<line x1="644.2" y1="285.3" x2="668.6" y2="290.5" stroke="rgb(0,0,0)"  stroke-width="2.0"/>
<line x1="642.9" y1="291.2" x2="667.4" y2="296.4" stroke="rgb(0,0,0)"  stroke-width="2.0"/>
<line x1="643.5" y1="288.2" x2="635.8" y2="264.5" stroke="rgb(0,0,0)"  stroke-width="2.0"/>
<line x1="242.5" y1="198.2" x2="230.0" y2="219.8" stroke="rgb(0,0,0)"  stroke-width="2.0"/>
<line x1="242.5" y1="175.7" x2="236.5" y2="165.3" stroke="rgb(0,0,0)"  stroke-width="2.0"/>
<line x1="232.6" y1="218.3" x2="245.1" y2="240.0" stroke="rgb(0,0,0)"  stroke-width="2.0"/>
<line x1="227.4" y1="221.3" x2="239.9" y2="243.0" stroke="rgb(0,0,0)"  stroke-width="2.0"/>
<line x1="230.0" y1="219.8" x2="192.0" y2="219.8" stroke="rgb(0,0,0)"  stroke-width="2.0"/>
<line x1="191.2" y1="214.7" x2="192.8" y2="214.7" stroke="rgb(0,0,0)"  stroke-width="1.0"/>
<line x1="190.6" y1="210.7" x2="193.4" y2="210.7" stroke="rgb(0,0,0)"  stroke-width="1.0"/>
<line x1="189.9" y1="206.6" x2="194.1" y2="206.6" stroke="rgb(0,0,0)"  stroke-width="1.0"/>
<line x1="189.3" y1="202.5" x2="194.7" y2="202.5" stroke="rgb(0,0,0)"  stroke-width="1.0"/>
<line x1="188.6" y1="198.4" x2="195.4" y2="198.4" stroke="rgb(0,0,0)"  stroke-width="1.0"/>
<line x1="188.0" y1="194.4" x2="196.0" y2="194.4" stroke="rgb(0,0,0)"  stroke-width="1.0"/>
<line x1="192.0" y1="219.8" x2="154.0" y2="219.8" stroke="rgb(0,0,0)"  stroke-width="2.0"/>
<line x1="192.0" y1="219.8" x2="192.0" y2="244.8" stroke="rgb(0,0,0)"  stroke-width="2.0"/>
<line x1="154.0" y1="219.8" x2="135.0" y2="186.9" stroke="rgb(0,0,0)"  stroke-width="2.0"/>
<line x1="154.0" y1="219.8" x2="132.3" y2="232.3" stroke="rgb(0,0,0)"  stroke-width="2.0"/>
<line x1="154.0" y1="219.8" x2="154.0" y2="244.8" stroke="rgb(0,0,0)"  stroke-width="2.0"/>
<line x1="154.0" y1="154.0" x2="179.0" y2="154.0" stroke="rgb(0,0,0)"  stroke-width="2.0"/>
<line x1="135.0" y1="121.1" x2="147.5" y2="99.4" stroke="rgb(0,0,0)"  stroke-width="2.0"/>
<line x1="97.0" y1="121.1" x2="84.5" y2="99.4" stroke="rgb(0,0,0)"  stroke-width="2.0"/>
<line x1="78.0" y1="154.0" x2="53.0" y2="154.0" stroke="rgb(0,0,0)"  stroke-width="2.0"/>
<line x1="97.0" y1="186.9" x2="84.5" y2="208.6" stroke="rgb(0,0,0)"  stroke-width="2.0"/>
<line x1="84.5" y1="76.9" x2="90.5" y2="66.5" stroke="rgb(0,0,0)"  stroke-width="2.0"/>
<line x1="180.7" y1="264.3" x2="159.1" y2="276.8" stroke="rgb(0,0,0)"  stroke-width="2.0"/>
<line x1="203.3" y1="264.3" x2="213.7" y2="270.3" stroke="rgb(0,0,0)"  stroke-width="2.0"/>
<line x1="157.6" y1="279.4" x2="135.9" y2="266.9" stroke="rgb(0,0,0)"  stroke-width="2.0"/>
<line x1="160.6" y1="274.2" x2="138.9" y2="261.7" stroke="rgb(0,0,0)"  stroke-width="2.0"/>
<line x1="159.1" y1="276.8" x2="159.1" y2="314.8" stroke="rgb(0,0,0)"  stroke-width="2.0"/>
<line x1="154.0" y1="315.6" x2="154.0" y2="314.0" stroke="rgb(0,0,0)"  stroke-width="1.0"/>
<line x1="149.9" y1="316.3" x2="149.9" y2="313.4" stroke="rgb(0,0,0)"  stroke-width="1.0"/>
<line x1="145.9" y1="316.9" x2="145.9" y2="312.7" stroke="rgb(0,0,0)"  stroke-width="1.0"/>
<line x1="141.8" y1="317.5" x2="141.8" y2="312.1" stroke="rgb(0,0,0)"  stroke-width="1.0"/>
<line x1="137.7" y1="318.2" x2="137.7" y2="311.5" stroke="rgb(0,0,0)"  stroke-width="1.0"/>
<line x1="133.6" y1="318.8" x2="133.6" y2="310.8" stroke="rgb(0,0,0)"  stroke-width="1.0"/>
<line x1="159.1" y1="314.8" x2="159.1" y2="390.8" stroke="rgb(0,0,0)"  stroke-width="2.0"/>
<line x1="159.1" y1="314.8" x2="184.1" y2="314.8" stroke="rgb(0,0,0)"  stroke-width="2.0"/>
<line x1="159.1" y1="390.8" x2="121.1" y2="390.8" stroke="rgb(0,0,0)"  stroke-width="2.0"/>
<line x1="159.1" y1="390.8" x2="159.1" y2="428.8" stroke="rgb(0,0,0)"  stroke-width="2.0"/>
<line x1="159.1" y1="390.8" x2="184.1" y2="390.8" stroke="rgb(0,0,0)"  stroke-width="2.0"/>
<line x1="121.1" y1="390.8" x2="99.4" y2="403.3" stroke="rgb(0,0,0)"  stroke-width="2.0"/>
<line x1="121.1" y1="390.8" x2="121.1" y2="415.8" stroke="rgb(0,0,0)"  stroke-width="2.0"/>
<line x1="121.1" y1="390.8" x2="108.6" y2="369.2" stroke="rgb(0,0,0)"  stroke-width="2.0"/>
<line x1="159.1" y1="428.8" x2="171.6" y2="450.5" stroke="rgb(0,0,0)"  stroke-width="2.0"/>
<line x1="159.1" y1="428.8" x2="184.1" y2="428.8" stroke="rgb(0,0,0)"  stroke-width="2.0"/>
<line x1="159.1" y1="428.8" x2="137.4" y2="441.3" stroke="rgb(0,0,0)"  stroke-width="2.0"/>
<line x1="197.1" y1="327.8" x2="197.1" y2="339.8" stroke="rgb(0,0,0)"  stroke-width="2.0"/>
<line x1="210.1" y1="314.8" x2="222.1" y2="314.8" stroke="rgb(0,0,0)"  stroke-width="2.0"/>
<line x1="197.1" y1="301.8" x2="197.1" y2="289.8" stroke="rgb(0,0,0)"  stroke-width="2.0"/>
<line x1="271.1" y1="362.6" x2="283.9" y2="384.6" stroke="rgb(0,0,0)"  stroke-width="2.0"/>
<line x1="278.5" y1="360.9" x2="287.1" y2="375.8" stroke="rgb(0,0,0)"  stroke-width="2.0"/>
<line x1="283.9" y1="384.6" x2="308.3" y2="379.4" stroke="rgb(0,0,0)"  stroke-width="2.0"/>
<line x1="322.4" y1="363.8" x2="325.0" y2="338.9" stroke="rgb(0,0,0)"  stroke-width="2.0"/>
<line x1="325.0" y1="338.9" x2="290.3" y2="323.5" stroke="rgb(0,0,0)"  stroke-width="2.0"/>
<line x1="316.6" y1="343.0" x2="292.8" y2="332.5" stroke="rgb(0,0,0)"  stroke-width="2.0"/>
<line x1="290.3" y1="323.5" x2="273.6" y2="342.0" stroke="rgb(0,0,0)"  stroke-width="2.0"/>
<line x1="594.4" y1="428.0" x2="622.7" y2="453.4" stroke="rgb(0,0,0)"  stroke-width="2.0"/>
<line x1="622.7" y1="453.4" x2="658.8" y2="441.7" stroke="rgb(0,0,0)"  stroke-width="2.0"/>
<line x1="626.1" y1="444.7" x2="650.9" y2="436.7" stroke="rgb(0,0,0)"  stroke-width="2.0"/>
<line x1="658.8" y1="441.7" x2="666.7" y2="404.5" stroke="rgb(0,0,0)"  stroke-width="2.0"/>
<line x1="666.7" y1="404.5" x2="638.5" y2="379.1" stroke="rgb(0,0,0)"  stroke-width="2.0"/>
<line x1="657.4" y1="405.8" x2="638.1" y2="388.4" stroke="rgb(0,0,0)"  stroke-width="2.0"/>
<line x1="638.5" y1="379.1" x2="602.3" y2="390.8" stroke="rgb(0,0,0)"  stroke-width="2.0"/>
<line x1="602.3" y1="390.8" x2="594.4" y2="428.0" stroke="rgb(0,0,0)"  stroke-width="2.0"/>
<line x1="608.1" y1="398.2" x2="602.7" y2="423.6" stroke="rgb(0,0,0)"  stroke-width="2.0"/>
<line x1="135.0" y1="121.1" x2="97.0" y2="121.1" stroke="rgb(0,0,0)"  stroke-width="2.0"/>
<line x1="97.0" y1="121.1" x2="78.0" y2="154.0" stroke="rgb(0,0,0)"  stroke-width="2.0"/>
<line x1="100.2" y1="129.9" x2="87.2" y2="152.4" stroke="rgb(0,0,0)"  stroke-width="2.0"/>
<line x1="78.0" y1="154.0" x2="97.0" y2="186.9" stroke="rgb(0,0,0)"  stroke-width="2.0"/>
<line x1="97.0" y1="186.9" x2="135.0" y2="186.9" stroke="rgb(0,0,0)"  stroke-width="2.0"/>
<line x1="103.0" y1="179.7" x2="129.0" y2="179.7" stroke="rgb(0,0,0)"  stroke-width="2.0"/>
<line x1="135.0" y1="186.9" x2="154.0" y2="154.0" stroke="rgb(0,0,0)"  stroke-width="2.0"/>
<line x1="154.0" y1="154.0" x2="135.0" y2="121.1" stroke="rgb(0,0,0)"  stroke-width="2.0"/>
<line x1="144.8" y1="152.4" x2="131.8" y2="129.9" stroke="rgb(0,0,0)"  stroke-width="2.0"/>
<line x1="484.7" y1="407.9" x2="517.6" y2="388.9" stroke="rgb(0,0,0)"  stroke-width="2.0"/>
<line x1="517.6" y1="388.9" x2="509.7" y2="351.7" stroke="rgb(0,0,0)"  stroke-width="2.0"/>
<line x1="509.7" y1="351.7" x2="484.8" y2="349.1" stroke="rgb(0,0,0)"  stroke-width="2.0"/>
<line x1="466.6" y1="359.6" x2="456.5" y2="382.4" stroke="rgb(0,0,0)"  stroke-width="2.0"/>
<line x1="456.5" y1="382.4" x2="484.7" y2="407.9" stroke="rgb(0,0,0)"  stroke-width="2.0"/>
<text x="248.091035" y="99.908965" fill="rgb(191,191,191)"  stroke="rgb(191,191,191)" stroke-width="1" font-size="16" >H</text>
<text x="549.393274" y="392.896505" fill="rgb(191,191,191)"  stroke="rgb(191,191,191)" stroke-width="1" font-size="16" >H</text>
<text x="533.937281" y="427.611232" fill="rgb(191,191,191)"  stroke="rgb(191,191,191)" stroke-width="1" font-size="16" >H</text>
<text x="494.148469" y="450.583314" fill="rgb(191,191,191)"  stroke="rgb(191,191,191)" stroke-width="1" font-size="16" >H</text>
<text x="456.356637" y="446.611232" fill="rgb(191,191,191)"  stroke="rgb(191,191,191)" stroke-width="1" font-size="16" >H</text>
<text x="422.213470" y="415.868586" fill="rgb(191,191,191)"  stroke="rgb(191,191,191)" stroke-width="1" font-size="16" >H</text>
<text x="414.312825" y="378.698978" fill="rgb(191,191,191)"  stroke="rgb(191,191,191)" stroke-width="1" font-size="16" >H</text>
<text x="262.402317" y="427.316169" fill="rgb(191,191,191)"  stroke="rgb(191,191,191)" stroke-width="1" font-size="16" >H</text>
<text x="276.384628" y="294.283364" fill="rgb(191,191,191)"  stroke="rgb(191,191,191)" stroke-width="1" font-size="16" >H</text>
<text x="389.908965" y="327.908965" fill="rgb(191,191,191)"  stroke="rgb(191,191,191)" stroke-width="1" font-size="16" >H</text>
<text x="370.908965" y="360.817931" fill="rgb(191,191,191)"  stroke="rgb(191,191,191)" stroke-width="1" font-size="16" >H</text>
<text x="384.817931" y="232.908965" fill="rgb(191,191,191)"  stroke="rgb(191,191,191)" stroke-width="1" font-size="16" >H</text>
<text x="262.000000" y="151.817931" fill="rgb(191,191,191)"  stroke="rgb(191,191,191)" stroke-width="1" font-size="16" >H</text>
<text x="281.000000" y="80.908965" fill="rgb(191,191,191)"  stroke="rgb(191,191,191)" stroke-width="1" font-size="16" >H</text>
<text x="591.782381" y="261.874468" fill="rgb(191,191,191)"  stroke="rgb(191,191,191)" stroke-width="1" font-size="16" >H</text>
<text x="389.908965" y="137.908965" fill="rgb(191,191,191)"  stroke="rgb(191,191,191)" stroke-width="1" font-size="16" >H</text>
<text x="357.000000" y="156.908965" fill="rgb(191,191,191)"  stroke="rgb(191,191,191)" stroke-width="1" font-size="16" >H</text>
<text x="414.000000" y="86.000000" fill="rgb(191,191,191)"  stroke="rgb(191,191,191)" stroke-width="1" font-size="16" >H</text>
<text x="343.091035" y="67.000000" fill="rgb(191,191,191)"  stroke="rgb(191,191,191)" stroke-width="1" font-size="16" >H</text>
<text x="376.000000" y="48.000000" fill="rgb(191,191,191)"  stroke="rgb(191,191,191)" stroke-width="1" font-size="16" >H</text>
<text x="201.891035" y="310.785931" fill="rgb(12,12,255)"  stroke="rgb(12,12,255)" stroke-width="1" font-size="16" >+</text>
<text x="191.091035" y="322.817931" fill="rgb(12,12,255)"  stroke="rgb(12,12,255)" stroke-width="1" font-size="16" >N</text>
<text x="115.091035" y="322.817931" fill="rgb(191,191,191)"  stroke="rgb(191,191,191)" stroke-width="1" font-size="16" >H</text>
<text x="120.182069" y="265.817931" fill="rgb(255,12,12)"  stroke="rgb(255,12,12)" stroke-width="1" font-size="16" >O</text>
<text x="72.000000" y="227.817931" fill="rgb(191,191,191)"  stroke="rgb(191,191,191)" stroke-width="1" font-size="16" >H</text>
<text x="221.066478" y="355.720395" fill="rgb(191,191,191)"  stroke="rgb(191,191,191)" stroke-width="1" font-size="16" >H</text>
<text x="191.091035" y="284.817931" fill="rgb(191,191,191)"  stroke="rgb(191,191,191)" stroke-width="1" font-size="16" >H</text>
<text x="229.091035" y="322.817931" fill="rgb(191,191,191)"  stroke="rgb(191,191,191)" stroke-width="1" font-size="16" >H</text>
<text x="191.091035" y="360.817931" fill="rgb(191,191,191)"  stroke="rgb(191,191,191)" stroke-width="1" font-size="16" >H</text>
<text x="120.182069" y="455.817931" fill="rgb(191,191,191)"  stroke="rgb(191,191,191)" stroke-width="1" font-size="16" >H</text>
<text x="191.091035" y="436.817931" fill="rgb(191,191,191)"  stroke="rgb(191,191,191)" stroke-width="1" font-size="16" >H</text>
<text x="172.091035" y="469.726896" fill="rgb(191,191,191)"  stroke="rgb(191,191,191)" stroke-width="1" font-size="16" >H</text>
<text x="96.091035" y="365.908965" fill="rgb(191,191,191)"  stroke="rgb(191,191,191)" stroke-width="1" font-size="16" >H</text>
<text x="115.091035" y="436.817931" fill="rgb(191,191,191)"  stroke="rgb(191,191,191)" stroke-width="1" font-size="16" >H</text>
<text x="82.182069" y="417.817931" fill="rgb(191,191,191)"  stroke="rgb(191,191,191)" stroke-width="1" font-size="16" >H</text>
<text x="191.091035" y="398.817931" fill="rgb(191,191,191)"  stroke="rgb(191,191,191)" stroke-width="1" font-size="16" >H</text>
<text x="218.908965" y="284.817931" fill="rgb(191,191,191)"  stroke="rgb(191,191,191)" stroke-width="1" font-size="16" >H</text>
<text x="91.000000" y="63.273104" fill="rgb(191,191,191)"  stroke="rgb(191,191,191)" stroke-width="1" font-size="16" >H</text>
<text x="186.000000" y="265.817931" fill="rgb(12,12,255)"  stroke="rgb(12,12,255)" stroke-width="1" font-size="16" >N</text>
<text x="34.000000" y="162.000000" fill="rgb(191,191,191)"  stroke="rgb(191,191,191)" stroke-width="1" font-size="16" >H</text>
<text x="148.000000" y="96.182069" fill="rgb(191,191,191)"  stroke="rgb(191,191,191)" stroke-width="1" font-size="16" >H</text>
<text x="186.000000" y="162.000000" fill="rgb(191,191,191)"  stroke="rgb(191,191,191)" stroke-width="1" font-size="16" >H</text>
<text x="148.000000" y="265.817931" fill="rgb(191,191,191)"  stroke="rgb(191,191,191)" stroke-width="1" font-size="16" >H</text>
<text x="115.091035" y="246.817931" fill="rgb(191,191,191)"  stroke="rgb(191,191,191)" stroke-width="1" font-size="16" >H</text>
<text x="224.000000" y="162.000000" fill="rgb(191,191,191)"  stroke="rgb(191,191,191)" stroke-width="1" font-size="16" >H</text>
<text x="696.839750" y="400.751929" fill="rgb(191,191,191)"  stroke="rgb(191,191,191)" stroke-width="1" font-size="16" >H</text>
<text x="681.038462" y="475.091147" fill="rgb(191,191,191)"  stroke="rgb(191,191,191)" stroke-width="1" font-size="16" >H</text>
<text x="608.758167" y="498.576439" fill="rgb(191,191,191)"  stroke="rgb(191,191,191)" stroke-width="1" font-size="16" >H</text>
<text x="552.279160" y="447.722513" fill="rgb(191,191,191)"  stroke="rgb(191,191,191)" stroke-width="1" font-size="16" >H</text>
<text x="568.080448" y="373.383295" fill="rgb(191,191,191)"  stroke="rgb(191,191,191)" stroke-width="1" font-size="16" >H</text>
<text x="665.787707" y="321.658500" fill="rgb(191,191,191)"  stroke="rgb(191,191,191)" stroke-width="1" font-size="16" >H</text>
<text x="677.530352" y="357.798648" fill="rgb(191,191,191)"  stroke="rgb(191,191,191)" stroke-width="1" font-size="16" >H</text>
<text x="539.840945" y="347.956332" fill="rgb(191,191,191)"  stroke="rgb(191,191,191)" stroke-width="1" font-size="16" >H</text>
<text x="465.908965" y="355.726896" fill="rgb(12,12,255)"  stroke="rgb(12,12,255)" stroke-width="1" font-size="16" >N</text>
<text x="446.908965" y="257.000000" fill="rgb(255,12,12)"  stroke="rgb(255,12,12)" stroke-width="1" font-size="16" >O</text>
<text x="343.267422" y="410.127760" fill="rgb(191,191,191)"  stroke="rgb(191,191,191)" stroke-width="1" font-size="16" >H</text>
<text x="315.027918" y="384.700797" fill="rgb(12,12,255)"  stroke="rgb(12,12,255)" stroke-width="1" font-size="16" >N</text>
<text x="258.858310" y="359.692476" fill="rgb(12,12,255)"  stroke="rgb(12,12,255)" stroke-width="1" font-size="16" >N</text>
<text x="483.361938" y="297.102406" fill="rgb(255,12,12)"  stroke="rgb(255,12,12)" stroke-width="1" font-size="16" >O</text>
<text x="313.908965" y="289.908965" fill="rgb(191,191,191)"  stroke="rgb(191,191,191)" stroke-width="1" font-size="16" >H</text>
<text x="351.908965" y="251.908965" fill="rgb(12,12,255)"  stroke="rgb(12,12,255)" stroke-width="1" font-size="16" >N</text>
<text x="286.091035" y="251.908965" fill="rgb(255,12,12)"  stroke="rgb(255,12,12)" stroke-width="1" font-size="16" >O</text>
<text x="357.000000" y="194.908965" fill="rgb(191,191,191)"  stroke="rgb(191,191,191)" stroke-width="1" font-size="16" >H</text>
<text x="319.000000" y="80.908965" fill="rgb(191,191,191)"  stroke="rgb(191,191,191)" stroke-width="1" font-size="16" >H</text>
<text x="613.805557" y="260.091389" fill="rgb(255,12,12)"  stroke="rgb(255,12,12)" stroke-width="1" font-size="16" >HO</text>
<text x="72.000000" y="96.182069" fill="rgb(255,12,12)"  stroke="rgb(255,12,12)" stroke-width="1" font-size="16" >O</text>
<text x="186.000000" y="189.817931" fill="rgb(191,191,191)"  stroke="rgb(191,191,191)" stroke-width="1" font-size="16" >H</text>
<text x="243.000000" y="260.726896" fill="rgb(255,12,12)"  stroke="rgb(255,12,12)" stroke-width="1" font-size="16" >O</text>
<text x="243.000000" y="194.908965" fill="rgb(12,12,255)"  stroke="rgb(12,12,255)" stroke-width="1" font-size="16" >N</text>
<text x="674.717812" y="304.132181" fill="rgb(255,12,12)"  stroke="rgb(255,12,12)" stroke-width="1" font-size="16" >O</text>
<text x="586.694277" y="352.710544" fill="rgb(191,191,191)"  stroke="rgb(191,191,191)" stroke-width="1" font-size="16" >H</text>
<text x="583.881737" y="299.044077" fill="rgb(12,12,255)"  stroke="rgb(12,12,255)" stroke-width="1" font-size="16" >N</text>
</svg>
</g>
<text font-size="18.000000" fill ="black" font-family="sans-serif"
x="10.000000" y="20.000000" >ZINC85545908</text>
</svg>
