<?xml version="1.0"?>
<svg version="1.1" id="topsvg"
xmlns="http://www.w3.org/2000/svg" xmlns:xlink="http://www.w3.org/1999/xlink"
xmlns:cml="http://www.xml-cml.org/schema" x="0" y="0" width="200px" height="200px" viewBox="0 0 100 100">
<title>ZINC15442941 - Open Babel Depiction</title>
<rect x="0" y="0" width="100" height="100" fill="white"/>
<g transform="translate(0,0)">
<svg width="100" height="100" x="0" y="0" viewBox="0 0 402.572 257.844"
font-family="sans-serif" stroke="rgb(0,0,0)" stroke-width="2"  stroke-linecap="round">
<line x1="324.1" y1="159.4" x2="292.8" y2="136.7" stroke="rgb(0,0,0)"  stroke-width="2.0"/>
<line x1="324.1" y1="159.4" x2="349.6" y2="162.1" stroke="rgb(0,0,0)"  stroke-width="2.0"/>
<line x1="324.1" y1="159.4" x2="339.2" y2="138.7" stroke="rgb(0,0,0)"  stroke-width="2.0"/>
<line x1="324.1" y1="159.4" x2="321.4" y2="185.0" stroke="rgb(0,0,0)"  stroke-width="2.0"/>
<line x1="292.8" y1="98.1" x2="324.1" y2="75.3" stroke="rgb(0,0,0)"  stroke-width="2.0"/>
<line x1="233.3" y1="117.4" x2="156.0" y2="117.4" stroke="rgb(0,0,0)"  stroke-width="2.0"/>
<line x1="252.0" y1="161.0" x2="248.1" y2="173.1" stroke="rgb(0,0,0)"  stroke-width="2.0"/>
<line x1="136.7" y1="83.9" x2="149.5" y2="61.7" stroke="rgb(0,0,0)"  stroke-width="2.0"/>
<line x1="98.0" y1="83.9" x2="85.2" y2="61.7" stroke="rgb(0,0,0)"  stroke-width="2.0"/>
<line x1="78.7" y1="117.4" x2="53.0" y2="117.4" stroke="rgb(0,0,0)"  stroke-width="2.0"/>
<line x1="98.0" y1="150.9" x2="85.2" y2="173.1" stroke="rgb(0,0,0)"  stroke-width="2.0"/>
<line x1="136.7" y1="150.9" x2="156.0" y2="184.4" stroke="rgb(0,0,0)"  stroke-width="2.0"/>
<line x1="158.6" y1="185.9" x2="145.8" y2="208.1" stroke="rgb(0,0,0)"  stroke-width="2.0"/>
<line x1="153.4" y1="182.9" x2="140.6" y2="205.1" stroke="rgb(0,0,0)"  stroke-width="2.0"/>
<line x1="156.0" y1="184.4" x2="181.7" y2="184.4" stroke="rgb(0,0,0)"  stroke-width="2.0"/>
<line x1="324.1" y1="75.3" x2="334.6" y2="51.9" stroke="rgb(0,0,0)"  stroke-width="2.0"/>
<line x1="324.1" y1="75.3" x2="309.0" y2="54.6" stroke="rgb(0,0,0)"  stroke-width="2.0"/>
<line x1="324.1" y1="75.3" x2="347.6" y2="85.8" stroke="rgb(0,0,0)"  stroke-width="2.0"/>
<line x1="252.0" y1="73.7" x2="248.1" y2="61.7" stroke="rgb(0,0,0)"  stroke-width="2.0"/>
<line x1="233.3" y1="117.4" x2="248.4" y2="138.1" stroke="rgb(0,0,0)"  stroke-width="2.0"/>
<line x1="268.4" y1="144.6" x2="292.8" y2="136.7" stroke="rgb(0,0,0)"  stroke-width="2.0"/>
<line x1="292.8" y1="136.7" x2="292.8" y2="98.1" stroke="rgb(0,0,0)"  stroke-width="2.0"/>
<line x1="285.6" y1="130.7" x2="285.6" y2="104.1" stroke="rgb(0,0,0)"  stroke-width="2.0"/>
<line x1="292.8" y1="98.1" x2="268.4" y2="90.1" stroke="rgb(0,0,0)"  stroke-width="2.0"/>
<line x1="248.6" y1="96.4" x2="233.3" y2="117.4" stroke="rgb(0,0,0)"  stroke-width="2.0"/>
<line x1="253.1" y1="102.4" x2="242.7" y2="116.8" stroke="rgb(0,0,0)"  stroke-width="2.0"/>
<line x1="98.0" y1="83.9" x2="78.7" y2="117.4" stroke="rgb(0,0,0)"  stroke-width="2.0"/>
<line x1="78.7" y1="117.4" x2="98.0" y2="150.9" stroke="rgb(0,0,0)"  stroke-width="2.0"/>
<line x1="87.9" y1="119.0" x2="101.2" y2="142.1" stroke="rgb(0,0,0)"  stroke-width="2.0"/>
<line x1="98.0" y1="150.9" x2="136.7" y2="150.9" stroke="rgb(0,0,0)"  stroke-width="2.0"/>
<line x1="136.7" y1="150.9" x2="156.0" y2="117.4" stroke="rgb(0,0,0)"  stroke-width="2.0"/>
<line x1="133.4" y1="142.1" x2="146.8" y2="119.0" stroke="rgb(0,0,0)"  stroke-width="2.0"/>
<line x1="156.0" y1="117.4" x2="136.7" y2="83.9" stroke="rgb(0,0,0)"  stroke-width="2.0"/>
<line x1="136.7" y1="83.9" x2="98.0" y2="83.9" stroke="rgb(0,0,0)"  stroke-width="2.0"/>
<line x1="130.7" y1="91.1" x2="104.0" y2="91.1" stroke="rgb(0,0,0)"  stroke-width="2.0"/>
<text x="238.112373" y="57.328612" fill="rgb(191,191,191)"  stroke="rgb(191,191,191)" stroke-width="1" font-size="16" >H</text>
<text x="250.061030" y="94.102797" fill="rgb(12,12,255)"  stroke="rgb(12,12,255)" stroke-width="1" font-size="16" >N</text>
<text x="188.666667" y="192.357419" fill="rgb(255,12,12)"  stroke="rgb(255,12,12)" stroke-width="1" font-size="16" >OH</text>
<text x="353.440963" y="99.050908" fill="rgb(191,191,191)"  stroke="rgb(191,191,191)" stroke-width="1" font-size="16" >H</text>
<text x="295.389509" y="52.041767" fill="rgb(191,191,191)"  stroke="rgb(191,191,191)" stroke-width="1" font-size="16" >H</text>
<text x="333.844356" y="48.000000" fill="rgb(191,191,191)"  stroke="rgb(191,191,191)" stroke-width="1" font-size="16" >H</text>
<text x="72.666667" y="192.357419" fill="rgb(191,191,191)"  stroke="rgb(191,191,191)" stroke-width="1" font-size="16" >H</text>
<text x="34.000000" y="125.384787" fill="rgb(191,191,191)"  stroke="rgb(191,191,191)" stroke-width="1" font-size="16" >H</text>
<text x="72.666667" y="58.412156" fill="rgb(191,191,191)"  stroke="rgb(191,191,191)" stroke-width="1" font-size="16" >H</text>
<text x="150.000000" y="58.412156" fill="rgb(191,191,191)"  stroke="rgb(191,191,191)" stroke-width="1" font-size="16" >H</text>
<text x="314.075438" y="205.900664" fill="rgb(191,191,191)"  stroke="rgb(191,191,191)" stroke-width="1" font-size="16" >H</text>
<text x="340.844902" y="136.163827" fill="rgb(191,191,191)"  stroke="rgb(191,191,191)" stroke-width="1" font-size="16" >H</text>
<text x="356.572052" y="171.487584" fill="rgb(191,191,191)"  stroke="rgb(191,191,191)" stroke-width="1" font-size="16" >H</text>
<text x="130.666667" y="225.843734" fill="rgb(255,12,12)"  stroke="rgb(255,12,12)" stroke-width="1" font-size="16" >O</text>
<text x="238.112373" y="193.440963" fill="rgb(191,191,191)"  stroke="rgb(191,191,191)" stroke-width="1" font-size="16" >H</text>
<text x="250.061030" y="156.666778" fill="rgb(12,12,255)"  stroke="rgb(12,12,255)" stroke-width="1" font-size="16" >N</text>
</svg>
</g>
<text font-size="18.000000" fill ="black" font-family="sans-serif"
x="10.000000" y="20.000000" >ZINC15442941</text>
</svg>
