<?xml version="1.0"?>
<svg version="1.1" id="topsvg"
xmlns="http://www.w3.org/2000/svg" xmlns:xlink="http://www.w3.org/1999/xlink"
xmlns:cml="http://www.xml-cml.org/schema" x="0" y="0" width="200px" height="200px" viewBox="0 0 100 100">
<title>ZINC60290845 - Open Babel Depiction</title>
<rect x="0" y="0" width="100" height="100" fill="white"/>
<g transform="translate(0,0)">
<svg width="100" height="100" x="0" y="0" viewBox="0 0 540.267 649.106"
font-family="sans-serif" stroke="rgb(0,0,0)" stroke-width="2"  stroke-linecap="round">
<line x1="245.9" y1="111.3" x2="284.1" y2="111.3" stroke="rgb(0,0,0)"  stroke-width="2.0"/>
<line x1="245.9" y1="111.3" x2="224.0" y2="124.0" stroke="rgb(0,0,0)"  stroke-width="2.0"/>
<line x1="245.9" y1="111.3" x2="245.9" y2="136.6" stroke="rgb(0,0,0)"  stroke-width="2.0"/>
<line x1="245.9" y1="111.3" x2="233.2" y2="89.5" stroke="rgb(0,0,0)"  stroke-width="2.0"/>
<line x1="284.1" y1="111.3" x2="284.1" y2="187.8" stroke="rgb(0,0,0)"  stroke-width="2.0"/>
<line x1="284.1" y1="111.3" x2="322.3" y2="111.3" stroke="rgb(0,0,0)"  stroke-width="2.0"/>
<line x1="284.1" y1="111.3" x2="284.1" y2="73.1" stroke="rgb(0,0,0)"  stroke-width="2.0"/>
<line x1="317.2" y1="206.9" x2="339.0" y2="194.3" stroke="rgb(0,0,0)"  stroke-width="2.0"/>
<line x1="317.2" y1="245.1" x2="350.3" y2="264.3" stroke="rgb(0,0,0)"  stroke-width="2.0"/>
<line x1="353.3" y1="264.3" x2="353.3" y2="289.5" stroke="rgb(0,0,0)"  stroke-width="2.0"/>
<line x1="347.3" y1="264.3" x2="347.3" y2="289.5" stroke="rgb(0,0,0)"  stroke-width="2.0"/>
<line x1="350.3" y1="264.3" x2="372.2" y2="251.6" stroke="rgb(0,0,0)"  stroke-width="2.0"/>
<line x1="361.6" y1="309.0" x2="416.5" y2="340.7" stroke="rgb(0,0,0)"  stroke-width="2.0"/>
<line x1="339.0" y1="309.0" x2="328.5" y2="315.1" stroke="rgb(0,0,0)"  stroke-width="2.0"/>
<line x1="416.5" y1="340.7" x2="436.5" y2="325.4" stroke="rgb(0,0,0)"  stroke-width="2.0"/>
<line x1="411.7" y1="346.7" x2="410.5" y2="345.6" stroke="rgb(0,0,0)"  stroke-width="1.0"/>
<line x1="407.8" y1="351.5" x2="405.8" y2="349.4" stroke="rgb(0,0,0)"  stroke-width="1.0"/>
<line x1="403.9" y1="356.2" x2="401.0" y2="353.3" stroke="rgb(0,0,0)"  stroke-width="1.0"/>
<line x1="400.1" y1="361.0" x2="396.2" y2="357.2" stroke="rgb(0,0,0)"  stroke-width="1.0"/>
<line x1="396.2" y1="365.8" x2="391.4" y2="361.1" stroke="rgb(0,0,0)"  stroke-width="1.0"/>
<line x1="392.3" y1="370.6" x2="386.7" y2="364.9" stroke="rgb(0,0,0)"  stroke-width="1.0"/>
<polygon points="389.484948 367.751602 368.544575 352.468084 374.201430 346.811229 " stroke-width="2.000000" fill="rgb(0,0,0)"  stroke="rgb(0,0,0)" />
<line x1="389.5" y1="367.8" x2="365.1" y2="374.3" stroke="rgb(0,0,0)"  stroke-width="2.0"/>
<line x1="399.4" y1="404.7" x2="375.0" y2="411.2" stroke="rgb(0,0,0)"  stroke-width="2.0"/>
<line x1="399.4" y1="404.7" x2="392.8" y2="429.0" stroke="rgb(0,0,0)"  stroke-width="2.0"/>
<line x1="436.3" y1="414.6" x2="429.8" y2="438.9" stroke="rgb(0,0,0)"  stroke-width="2.0"/>
<line x1="436.3" y1="414.6" x2="454.1" y2="432.4" stroke="rgb(0,0,0)"  stroke-width="2.0"/>
<line x1="463.3" y1="387.5" x2="481.2" y2="405.4" stroke="rgb(0,0,0)"  stroke-width="2.0"/>
<line x1="463.3" y1="387.5" x2="487.7" y2="381.0" stroke="rgb(0,0,0)"  stroke-width="2.0"/>
<line x1="453.4" y1="350.6" x2="477.8" y2="344.1" stroke="rgb(0,0,0)"  stroke-width="2.0"/>
<line x1="453.4" y1="350.6" x2="469.9" y2="289.3" stroke="rgb(0,0,0)"  stroke-width="2.0"/>
<line x1="352.1" y1="391.0" x2="335.7" y2="452.3" stroke="rgb(0,0,0)"  stroke-width="2.0"/>
<line x1="346.3" y1="389.4" x2="329.9" y2="450.7" stroke="rgb(0,0,0)"  stroke-width="2.0"/>
<line x1="343.4" y1="368.5" x2="334.7" y2="359.8" stroke="rgb(0,0,0)"  stroke-width="2.0"/>
<line x1="332.8" y1="451.5" x2="295.8" y2="461.4" stroke="rgb(0,0,0)"  stroke-width="2.0"/>
<line x1="332.8" y1="451.5" x2="350.6" y2="469.3" stroke="rgb(0,0,0)"  stroke-width="2.0"/>
<line x1="268.8" y1="434.4" x2="275.3" y2="410.0" stroke="rgb(0,0,0)"  stroke-width="2.0"/>
<line x1="291.3" y1="394.1" x2="303.1" y2="390.9" stroke="rgb(0,0,0)"  stroke-width="2.0"/>
<line x1="231.9" y1="444.3" x2="177.8" y2="390.2" stroke="rgb(0,0,0)"  stroke-width="2.0"/>
<line x1="222.0" y1="481.2" x2="197.6" y2="487.7" stroke="rgb(0,0,0)"  stroke-width="2.0"/>
<line x1="249.0" y1="508.2" x2="239.1" y2="545.1" stroke="rgb(0,0,0)"  stroke-width="2.0"/>
<line x1="285.9" y1="498.3" x2="303.8" y2="516.2" stroke="rgb(0,0,0)"  stroke-width="2.0"/>
<line x1="239.1" y1="545.1" x2="202.2" y2="535.3" stroke="rgb(0,0,0)"  stroke-width="2.0"/>
<line x1="239.1" y1="545.1" x2="229.2" y2="582.1" stroke="rgb(0,0,0)"  stroke-width="2.0"/>
<line x1="239.1" y1="545.1" x2="276.1" y2="555.0" stroke="rgb(0,0,0)"  stroke-width="2.0"/>
<line x1="202.2" y1="535.3" x2="184.4" y2="517.4" stroke="rgb(0,0,0)"  stroke-width="2.0"/>
<line x1="202.2" y1="535.3" x2="208.7" y2="510.9" stroke="rgb(0,0,0)"  stroke-width="2.0"/>
<line x1="202.2" y1="535.3" x2="184.4" y2="553.1" stroke="rgb(0,0,0)"  stroke-width="2.0"/>
<line x1="229.2" y1="582.1" x2="211.4" y2="599.9" stroke="rgb(0,0,0)"  stroke-width="2.0"/>
<line x1="229.2" y1="582.1" x2="204.9" y2="575.5" stroke="rgb(0,0,0)"  stroke-width="2.0"/>
<line x1="229.2" y1="582.1" x2="247.1" y2="599.9" stroke="rgb(0,0,0)"  stroke-width="2.0"/>
<line x1="276.1" y1="555.0" x2="300.4" y2="548.5" stroke="rgb(0,0,0)"  stroke-width="2.0"/>
<line x1="276.1" y1="555.0" x2="282.6" y2="530.7" stroke="rgb(0,0,0)"  stroke-width="2.0"/>
<line x1="276.1" y1="555.0" x2="282.6" y2="579.4" stroke="rgb(0,0,0)"  stroke-width="2.0"/>
<line x1="177.8" y1="390.2" x2="153.4" y2="396.7" stroke="rgb(0,0,0)"  stroke-width="2.0"/>
<line x1="177.8" y1="390.2" x2="171.3" y2="365.8" stroke="rgb(0,0,0)"  stroke-width="2.0"/>
<line x1="177.8" y1="390.2" x2="195.7" y2="372.4" stroke="rgb(0,0,0)"  stroke-width="2.0"/>
<line x1="131.0" y1="437.0" x2="155.4" y2="443.5" stroke="rgb(0,0,0)"  stroke-width="2.0"/>
<line x1="131.0" y1="437.0" x2="137.5" y2="461.4" stroke="rgb(0,0,0)"  stroke-width="2.0"/>
<line x1="94.1" y1="446.9" x2="100.6" y2="471.3" stroke="rgb(0,0,0)"  stroke-width="2.0"/>
<line x1="94.1" y1="446.9" x2="76.2" y2="464.7" stroke="rgb(0,0,0)"  stroke-width="2.0"/>
<line x1="76.9" y1="382.9" x2="52.6" y2="376.4" stroke="rgb(0,0,0)"  stroke-width="2.0"/>
<line x1="76.9" y1="382.9" x2="70.4" y2="358.6" stroke="rgb(0,0,0)"  stroke-width="2.0"/>
<line x1="113.9" y1="373.1" x2="107.3" y2="348.7" stroke="rgb(0,0,0)"  stroke-width="2.0"/>
<line x1="113.9" y1="373.1" x2="131.7" y2="355.2" stroke="rgb(0,0,0)"  stroke-width="2.0"/>
<line x1="284.1" y1="264.3" x2="284.1" y2="289.5" stroke="rgb(0,0,0)"  stroke-width="2.0"/>
<line x1="272.8" y1="309.0" x2="262.2" y2="315.1" stroke="rgb(0,0,0)"  stroke-width="2.0"/>
<line x1="251.0" y1="245.1" x2="217.9" y2="264.3" stroke="rgb(0,0,0)"  stroke-width="2.0"/>
<line x1="251.0" y1="206.9" x2="229.1" y2="194.3" stroke="rgb(0,0,0)"  stroke-width="2.0"/>
<line x1="217.9" y1="264.3" x2="196.0" y2="251.6" stroke="rgb(0,0,0)"  stroke-width="2.0"/>
<line x1="217.9" y1="264.3" x2="205.3" y2="286.1" stroke="rgb(0,0,0)"  stroke-width="2.0"/>
<line x1="217.9" y1="264.3" x2="230.5" y2="286.1" stroke="rgb(0,0,0)"  stroke-width="2.0"/>
<line x1="184.8" y1="206.9" x2="210.0" y2="206.9" stroke="rgb(0,0,0)"  stroke-width="2.0"/>
<line x1="184.8" y1="206.9" x2="197.4" y2="185.1" stroke="rgb(0,0,0)"  stroke-width="2.0"/>
<line x1="151.7" y1="187.8" x2="164.3" y2="165.9" stroke="rgb(0,0,0)"  stroke-width="2.0"/>
<line x1="151.7" y1="187.8" x2="139.0" y2="165.9" stroke="rgb(0,0,0)"  stroke-width="2.0"/>
<line x1="118.5" y1="245.1" x2="93.3" y2="245.1" stroke="rgb(0,0,0)"  stroke-width="2.0"/>
<line x1="118.5" y1="245.1" x2="105.9" y2="267.0" stroke="rgb(0,0,0)"  stroke-width="2.0"/>
<line x1="151.7" y1="264.3" x2="139.0" y2="286.1" stroke="rgb(0,0,0)"  stroke-width="2.0"/>
<line x1="151.7" y1="264.3" x2="164.3" y2="286.1" stroke="rgb(0,0,0)"  stroke-width="2.0"/>
<line x1="322.3" y1="111.3" x2="344.2" y2="124.0" stroke="rgb(0,0,0)"  stroke-width="2.0"/>
<line x1="322.3" y1="111.3" x2="322.3" y2="136.6" stroke="rgb(0,0,0)"  stroke-width="2.0"/>
<line x1="322.3" y1="111.3" x2="334.9" y2="89.5" stroke="rgb(0,0,0)"  stroke-width="2.0"/>
<line x1="284.1" y1="73.1" x2="271.5" y2="51.3" stroke="rgb(0,0,0)"  stroke-width="2.0"/>
<line x1="284.1" y1="73.1" x2="258.9" y2="73.1" stroke="rgb(0,0,0)"  stroke-width="2.0"/>
<line x1="284.1" y1="73.1" x2="305.9" y2="60.5" stroke="rgb(0,0,0)"  stroke-width="2.0"/>
<line x1="317.2" y1="245.1" x2="284.1" y2="264.3" stroke="rgb(0,0,0)"  stroke-width="2.0"/>
<line x1="284.1" y1="264.3" x2="251.0" y2="245.1" stroke="rgb(0,0,0)"  stroke-width="2.0"/>
<line x1="282.5" y1="255.0" x2="259.8" y2="241.9" stroke="rgb(0,0,0)"  stroke-width="2.0"/>
<line x1="251.0" y1="245.1" x2="251.0" y2="206.9" stroke="rgb(0,0,0)"  stroke-width="2.0"/>
<line x1="251.0" y1="206.9" x2="284.1" y2="187.8" stroke="rgb(0,0,0)"  stroke-width="2.0"/>
<line x1="259.8" y1="210.1" x2="282.5" y2="197.0" stroke="rgb(0,0,0)"  stroke-width="2.0"/>
<line x1="284.1" y1="187.8" x2="317.2" y2="206.9" stroke="rgb(0,0,0)"  stroke-width="2.0"/>
<line x1="317.2" y1="206.9" x2="317.2" y2="245.1" stroke="rgb(0,0,0)"  stroke-width="2.0"/>
<line x1="310.0" y1="212.9" x2="310.0" y2="239.1" stroke="rgb(0,0,0)"  stroke-width="2.0"/>
<line x1="231.9" y1="444.3" x2="222.0" y2="481.2" stroke="rgb(0,0,0)"  stroke-width="2.0"/>
<line x1="222.0" y1="481.2" x2="249.0" y2="508.2" stroke="rgb(0,0,0)"  stroke-width="2.0"/>
<line x1="231.3" y1="480.3" x2="249.9" y2="498.9" stroke="rgb(0,0,0)"  stroke-width="2.0"/>
<line x1="249.0" y1="508.2" x2="285.9" y2="498.3" stroke="rgb(0,0,0)"  stroke-width="2.0"/>
<line x1="285.9" y1="498.3" x2="295.8" y2="461.4" stroke="rgb(0,0,0)"  stroke-width="2.0"/>
<line x1="280.5" y1="490.7" x2="287.3" y2="465.3" stroke="rgb(0,0,0)"  stroke-width="2.0"/>
<line x1="295.8" y1="461.4" x2="268.8" y2="434.4" stroke="rgb(0,0,0)"  stroke-width="2.0"/>
<line x1="268.8" y1="434.4" x2="231.9" y2="444.3" stroke="rgb(0,0,0)"  stroke-width="2.0"/>
<line x1="264.9" y1="442.9" x2="239.5" y2="449.7" stroke="rgb(0,0,0)"  stroke-width="2.0"/>
<line x1="399.4" y1="404.7" x2="436.3" y2="414.6" stroke="rgb(0,0,0)"  stroke-width="2.0"/>
<line x1="436.3" y1="414.6" x2="463.3" y2="387.5" stroke="rgb(0,0,0)"  stroke-width="2.0"/>
<line x1="463.3" y1="387.5" x2="453.4" y2="350.6" stroke="rgb(0,0,0)"  stroke-width="2.0"/>
<line x1="453.4" y1="350.6" x2="416.5" y2="340.7" stroke="rgb(0,0,0)"  stroke-width="2.0"/>
<line x1="416.5" y1="340.7" x2="389.5" y2="367.8" stroke="rgb(0,0,0)"  stroke-width="2.0"/>
<line x1="389.5" y1="367.8" x2="399.4" y2="404.7" stroke="rgb(0,0,0)"  stroke-width="2.0"/>
<line x1="94.1" y1="446.9" x2="76.2" y2="429.1" stroke="rgb(0,0,0)"  stroke-width="2.0"/>
<line x1="70.4" y1="407.3" x2="76.9" y2="382.9" stroke="rgb(0,0,0)"  stroke-width="2.0"/>
<line x1="76.9" y1="382.9" x2="113.9" y2="373.1" stroke="rgb(0,0,0)"  stroke-width="2.0"/>
<line x1="113.9" y1="373.1" x2="131.7" y2="390.9" stroke="rgb(0,0,0)"  stroke-width="2.0"/>
<line x1="137.5" y1="412.6" x2="131.0" y2="437.0" stroke="rgb(0,0,0)"  stroke-width="2.0"/>
<line x1="131.0" y1="437.0" x2="94.1" y2="446.9" stroke="rgb(0,0,0)"  stroke-width="2.0"/>
<line x1="151.7" y1="187.8" x2="129.8" y2="200.4" stroke="rgb(0,0,0)"  stroke-width="2.0"/>
<line x1="118.5" y1="219.9" x2="118.5" y2="245.1" stroke="rgb(0,0,0)"  stroke-width="2.0"/>
<line x1="118.5" y1="245.1" x2="151.7" y2="264.3" stroke="rgb(0,0,0)"  stroke-width="2.0"/>
<line x1="151.7" y1="264.3" x2="173.5" y2="251.6" stroke="rgb(0,0,0)"  stroke-width="2.0"/>
<line x1="184.8" y1="232.1" x2="184.8" y2="206.9" stroke="rgb(0,0,0)"  stroke-width="2.0"/>
<line x1="184.8" y1="206.9" x2="151.7" y2="187.8" stroke="rgb(0,0,0)"  stroke-width="2.0"/>
<text x="206.091204" y="506.323242" fill="rgb(191,191,191)"  stroke="rgb(191,191,191)" stroke-width="1" font-size="16" >H</text>
<text x="97.960185" y="491.836432" fill="rgb(191,191,191)"  stroke="rgb(191,191,191)" stroke-width="1" font-size="16" >H</text>
<text x="134.887614" y="481.941757" fill="rgb(191,191,191)"  stroke="rgb(191,191,191)" stroke-width="1" font-size="16" >H</text>
<text x="161.920369" y="454.909002" fill="rgb(191,191,191)"  stroke="rgb(191,191,191)" stroke-width="1" font-size="16" >H</text>
<text x="198.847799" y="371.159467" fill="rgb(191,191,191)"  stroke="rgb(191,191,191)" stroke-width="1" font-size="16" >H</text>
<text x="161.920369" y="361.264792" fill="rgb(191,191,191)"  stroke="rgb(191,191,191)" stroke-width="1" font-size="16" >H</text>
<text x="279.946064" y="599.967451" fill="rgb(191,191,191)"  stroke="rgb(191,191,191)" stroke-width="1" font-size="16" >H</text>
<text x="279.946064" y="526.112592" fill="rgb(191,191,191)"  stroke="rgb(191,191,191)" stroke-width="1" font-size="16" >H</text>
<text x="306.978818" y="553.145346" fill="rgb(191,191,191)"  stroke="rgb(191,191,191)" stroke-width="1" font-size="16" >H</text>
<text x="250.262039" y="617.105531" fill="rgb(191,191,191)"  stroke="rgb(191,191,191)" stroke-width="1" font-size="16" >H</text>
<text x="186.301854" y="580.178101" fill="rgb(191,191,191)"  stroke="rgb(191,191,191)" stroke-width="1" font-size="16" >H</text>
<text x="196.196529" y="617.105531" fill="rgb(191,191,191)"  stroke="rgb(191,191,191)" stroke-width="1" font-size="16" >H</text>
<text x="169.163774" y="570.283426" fill="rgb(191,191,191)"  stroke="rgb(191,191,191)" stroke-width="1" font-size="16" >H</text>
<text x="61.032755" y="481.941757" fill="rgb(191,191,191)"  stroke="rgb(191,191,191)" stroke-width="1" font-size="16" >H</text>
<text x="169.163774" y="516.217917" fill="rgb(191,191,191)"  stroke="rgb(191,191,191)" stroke-width="1" font-size="16" >H</text>
<text x="306.978818" y="533.355996" fill="rgb(191,191,191)"  stroke="rgb(191,191,191)" stroke-width="1" font-size="16" >H</text>
<text x="179.058449" y="499.079837" fill="rgb(191,191,191)"  stroke="rgb(191,191,191)" stroke-width="1" font-size="16" >H</text>
<text x="353.800923" y="486.533892" fill="rgb(191,191,191)"  stroke="rgb(191,191,191)" stroke-width="1" font-size="16" >H</text>
<text x="467.234483" y="284.758663" fill="rgb(191,191,191)"  stroke="rgb(191,191,191)" stroke-width="1" font-size="16" >H</text>
<text x="484.372563" y="348.718847" fill="rgb(191,191,191)"  stroke="rgb(191,191,191)" stroke-width="1" font-size="16" >H</text>
<text x="494.267238" y="385.646277" fill="rgb(191,191,191)"  stroke="rgb(191,191,191)" stroke-width="1" font-size="16" >H</text>
<text x="484.372563" y="422.573707" fill="rgb(191,191,191)"  stroke="rgb(191,191,191)" stroke-width="1" font-size="16" >H</text>
<text x="457.339808" y="449.606462" fill="rgb(191,191,191)"  stroke="rgb(191,191,191)" stroke-width="1" font-size="16" >H</text>
<text x="420.412378" y="459.501137" fill="rgb(191,191,191)"  stroke="rgb(191,191,191)" stroke-width="1" font-size="16" >H</text>
<text x="383.484948" y="449.606462" fill="rgb(191,191,191)"  stroke="rgb(191,191,191)" stroke-width="1" font-size="16" >H</text>
<text x="356.452193" y="422.573707" fill="rgb(191,191,191)"  stroke="rgb(191,191,191)" stroke-width="1" font-size="16" >H</text>
<text x="93.428608" y="286.251854" fill="rgb(191,191,191)"  stroke="rgb(191,191,191)" stroke-width="1" font-size="16" >H</text>
<text x="319.524764" y="358.613522" fill="rgb(191,191,191)"  stroke="rgb(191,191,191)" stroke-width="1" font-size="16" >H</text>
<text x="309.630089" y="395.540952" fill="rgb(191,191,191)"  stroke="rgb(191,191,191)" stroke-width="1" font-size="16" >H</text>
<text x="311.193020" y="329.603803" fill="rgb(191,191,191)"  stroke="rgb(191,191,191)" stroke-width="1" font-size="16" >H</text>
<text x="244.976564" y="329.603803" fill="rgb(191,191,191)"  stroke="rgb(191,191,191)" stroke-width="1" font-size="16" >H</text>
<text x="311.193020" y="61.993184" fill="rgb(191,191,191)"  stroke="rgb(191,191,191)" stroke-width="1" font-size="16" >H</text>
<text x="239.854703" y="81.108228" fill="rgb(191,191,191)"  stroke="rgb(191,191,191)" stroke-width="1" font-size="16" >H</text>
<text x="258.969747" y="48.000000" fill="rgb(191,191,191)"  stroke="rgb(191,191,191)" stroke-width="1" font-size="16" >H</text>
<text x="335.429924" y="86.230088" fill="rgb(191,191,191)"  stroke="rgb(191,191,191)" stroke-width="1" font-size="16" >H</text>
<text x="316.314880" y="157.568405" fill="rgb(191,191,191)"  stroke="rgb(191,191,191)" stroke-width="1" font-size="16" >H</text>
<text x="349.423108" y="138.453361" fill="rgb(191,191,191)"  stroke="rgb(191,191,191)" stroke-width="1" font-size="16" >H</text>
<text x="164.766925" y="305.366898" fill="rgb(191,191,191)"  stroke="rgb(191,191,191)" stroke-width="1" font-size="16" >H</text>
<text x="126.536836" y="305.366898" fill="rgb(191,191,191)"  stroke="rgb(191,191,191)" stroke-width="1" font-size="16" >H</text>
<text x="377.409475" y="253.143626" fill="rgb(191,191,191)"  stroke="rgb(191,191,191)" stroke-width="1" font-size="16" >H</text>
<text x="74.313564" y="253.143626" fill="rgb(191,191,191)"  stroke="rgb(191,191,191)" stroke-width="1" font-size="16" >H</text>
<text x="126.536836" y="162.690265" fill="rgb(191,191,191)"  stroke="rgb(191,191,191)" stroke-width="1" font-size="16" >H</text>
<text x="164.766925" y="162.690265" fill="rgb(191,191,191)"  stroke="rgb(191,191,191)" stroke-width="1" font-size="16" >H</text>
<text x="197.875152" y="181.805310" fill="rgb(191,191,191)"  stroke="rgb(191,191,191)" stroke-width="1" font-size="16" >H</text>
<text x="216.990197" y="214.913538" fill="rgb(191,191,191)"  stroke="rgb(191,191,191)" stroke-width="1" font-size="16" >H</text>
<text x="230.983380" y="305.366898" fill="rgb(191,191,191)"  stroke="rgb(191,191,191)" stroke-width="1" font-size="16" >H</text>
<text x="192.753292" y="305.366898" fill="rgb(191,191,191)"  stroke="rgb(191,191,191)" stroke-width="1" font-size="16" >H</text>
<text x="211.868336" y="195.798493" fill="rgb(191,191,191)"  stroke="rgb(191,191,191)" stroke-width="1" font-size="16" >H</text>
<text x="134.887614" y="354.021388" fill="rgb(191,191,191)"  stroke="rgb(191,191,191)" stroke-width="1" font-size="16" >H</text>
<text x="97.960185" y="344.126713" fill="rgb(191,191,191)"  stroke="rgb(191,191,191)" stroke-width="1" font-size="16" >H</text>
<text x="61.032755" y="354.021388" fill="rgb(191,191,191)"  stroke="rgb(191,191,191)" stroke-width="1" font-size="16" >H</text>
<text x="34.000000" y="381.054142" fill="rgb(191,191,191)"  stroke="rgb(191,191,191)" stroke-width="1" font-size="16" >H</text>
<text x="272.702659" y="405.435627" fill="rgb(255,12,12)"  stroke="rgb(255,12,12)" stroke-width="1" font-size="16" >O</text>
<text x="346.557518" y="385.646277" fill="rgb(12,12,255)"  stroke="rgb(12,12,255)" stroke-width="1" font-size="16" >N</text>
<text x="356.452193" y="348.718847" fill="rgb(191,191,191)"  stroke="rgb(191,191,191)" stroke-width="1" font-size="16" >H</text>
<text x="440.847671" y="325.445844" fill="rgb(191,191,191)"  stroke="rgb(191,191,191)" stroke-width="1" font-size="16" >H</text>
<text x="344.301247" y="310.488759" fill="rgb(12,12,255)"  stroke="rgb(12,12,255)" stroke-width="1" font-size="16" >N</text>
<text x="344.301247" y="195.798493" fill="rgb(191,191,191)"  stroke="rgb(191,191,191)" stroke-width="1" font-size="16" >H</text>
<text x="220.739659" y="86.230088" fill="rgb(191,191,191)"  stroke="rgb(191,191,191)" stroke-width="1" font-size="16" >H</text>
<text x="239.854703" y="157.568405" fill="rgb(191,191,191)"  stroke="rgb(191,191,191)" stroke-width="1" font-size="16" >H</text>
<text x="206.746475" y="138.453361" fill="rgb(191,191,191)"  stroke="rgb(191,191,191)" stroke-width="1" font-size="16" >H</text>
<text x="112.543653" y="214.913538" fill="rgb(255,12,12)"  stroke="rgb(255,12,12)" stroke-width="1" font-size="16" >O</text>
<text x="178.760108" y="253.143626" fill="rgb(12,12,255)"  stroke="rgb(12,12,255)" stroke-width="1" font-size="16" >N</text>
<text x="278.084792" y="310.488759" fill="rgb(255,12,12)"  stroke="rgb(255,12,12)" stroke-width="1" font-size="16" >O</text>
<text x="61.032755" y="427.876247" fill="rgb(255,12,12)"  stroke="rgb(255,12,12)" stroke-width="1" font-size="16" >O</text>
<text x="134.887614" y="408.086897" fill="rgb(12,12,255)"  stroke="rgb(12,12,255)" stroke-width="1" font-size="16" >N</text>
</svg>
</g>
<text font-size="18.000000" fill ="black" font-family="sans-serif"
x="10.000000" y="20.000000" >ZINC60290845</text>
</svg>
