<?xml version="1.0"?>
<svg version="1.1" id="topsvg"
xmlns="http://www.w3.org/2000/svg" xmlns:xlink="http://www.w3.org/1999/xlink"
xmlns:cml="http://www.xml-cml.org/schema" x="0" y="0" width="200px" height="200px" viewBox="0 0 100 100">
<title>ZINC19089509 - Open Babel Depiction</title>
<rect x="0" y="0" width="100" height="100" fill="white"/>
<g transform="translate(0,0)">
<svg width="100" height="100" x="0" y="0" viewBox="0 0 372.514 266.932"
font-family="sans-serif" stroke="rgb(0,0,0)" stroke-width="2"  stroke-linecap="round">
<line x1="103.6" y1="77.0" x2="99.7" y2="52.8" stroke="rgb(0,0,0)"  stroke-width="2.0"/>
<line x1="137.0" y1="94.1" x2="158.8" y2="82.9" stroke="rgb(0,0,0)"  stroke-width="2.0"/>
<line x1="140.3" y1="140.3" x2="157.6" y2="157.6" stroke="rgb(0,0,0)"  stroke-width="2.0"/>
<line x1="94.1" y1="137.0" x2="82.9" y2="158.8" stroke="rgb(0,0,0)"  stroke-width="2.0"/>
<line x1="157.6" y1="157.6" x2="230.1" y2="138.2" stroke="rgb(0,0,0)"  stroke-width="2.0"/>
<line x1="157.6" y1="157.6" x2="164.0" y2="181.3" stroke="rgb(0,0,0)"  stroke-width="2.0"/>
<line x1="157.6" y1="157.6" x2="140.3" y2="174.9" stroke="rgb(0,0,0)"  stroke-width="2.0"/>
<line x1="230.1" y1="138.2" x2="233.3" y2="113.9" stroke="rgb(0,0,0)"  stroke-width="2.0"/>
<line x1="230.1" y1="175.7" x2="205.6" y2="175.7" stroke="rgb(0,0,0)"  stroke-width="2.0"/>
<line x1="230.1" y1="175.7" x2="217.8" y2="196.9" stroke="rgb(0,0,0)"  stroke-width="2.0"/>
<line x1="262.5" y1="194.5" x2="250.3" y2="215.7" stroke="rgb(0,0,0)"  stroke-width="2.0"/>
<line x1="262.5" y1="194.5" x2="274.8" y2="215.7" stroke="rgb(0,0,0)"  stroke-width="2.0"/>
<line x1="295.0" y1="138.2" x2="319.5" y2="138.2" stroke="rgb(0,0,0)"  stroke-width="2.0"/>
<line x1="295.0" y1="138.2" x2="307.3" y2="117.0" stroke="rgb(0,0,0)"  stroke-width="2.0"/>
<line x1="262.5" y1="119.5" x2="274.8" y2="98.2" stroke="rgb(0,0,0)"  stroke-width="2.0"/>
<line x1="262.5" y1="119.5" x2="231.5" y2="65.8" stroke="rgb(0,0,0)"  stroke-width="2.0"/>
<line x1="301.5" y1="187.0" x2="307.3" y2="196.9" stroke="rgb(0,0,0)"  stroke-width="2.0"/>
<line x1="308.0" y1="175.7" x2="319.5" y2="175.7" stroke="rgb(0,0,0)"  stroke-width="2.0"/>
<line x1="64.2" y1="101.5" x2="52.8" y2="99.7" stroke="rgb(0,0,0)"  stroke-width="2.0"/>
<line x1="137.0" y1="94.1" x2="103.6" y2="77.0" stroke="rgb(0,0,0)"  stroke-width="2.0"/>
<line x1="128.4" y1="97.8" x2="105.6" y2="86.2" stroke="rgb(0,0,0)"  stroke-width="2.0"/>
<line x1="103.6" y1="77.0" x2="86.2" y2="94.4" stroke="rgb(0,0,0)"  stroke-width="2.0"/>
<line x1="82.7" y1="114.6" x2="94.1" y2="137.0" stroke="rgb(0,0,0)"  stroke-width="2.0"/>
<line x1="90.1" y1="113.3" x2="97.8" y2="128.4" stroke="rgb(0,0,0)"  stroke-width="2.0"/>
<line x1="94.1" y1="137.0" x2="118.3" y2="133.1" stroke="rgb(0,0,0)"  stroke-width="2.0"/>
<line x1="133.1" y1="118.3" x2="137.0" y2="94.1" stroke="rgb(0,0,0)"  stroke-width="2.0"/>
<line x1="262.5" y1="194.5" x2="283.8" y2="182.2" stroke="rgb(0,0,0)"  stroke-width="2.0"/>
<line x1="295.0" y1="162.7" x2="295.0" y2="138.2" stroke="rgb(0,0,0)"  stroke-width="2.0"/>
<line x1="295.0" y1="138.2" x2="262.5" y2="119.5" stroke="rgb(0,0,0)"  stroke-width="2.0"/>
<line x1="262.5" y1="119.5" x2="230.1" y2="138.2" stroke="rgb(0,0,0)"  stroke-width="2.0"/>
<line x1="230.1" y1="138.2" x2="230.1" y2="175.7" stroke="rgb(0,0,0)"  stroke-width="2.0"/>
<line x1="230.1" y1="175.7" x2="262.5" y2="194.5" stroke="rgb(0,0,0)"  stroke-width="2.0"/>
<text x="125.101269" y="192.134278" fill="rgb(191,191,191)"  stroke="rgb(191,191,191)" stroke-width="1" font-size="16" >H</text>
<text x="34.000000" y="105.688525" fill="rgb(191,191,191)"  stroke="rgb(191,191,191)" stroke-width="1" font-size="16" >H</text>
<text x="71.038313" y="111.554817" fill="rgb(12,12,255)"  stroke="rgb(12,12,255)" stroke-width="1" font-size="16" >N</text>
<text x="326.514116" y="183.706345" fill="rgb(191,191,191)"  stroke="rgb(191,191,191)" stroke-width="1" font-size="16" >H</text>
<text x="307.764116" y="216.182298" fill="rgb(191,191,191)"  stroke="rgb(191,191,191)" stroke-width="1" font-size="16" >H</text>
<text x="299.814116" y="171.674345" fill="rgb(12,12,255)"  stroke="rgb(12,12,255)" stroke-width="1" font-size="16" >+</text>
<text x="289.014116" y="183.706345" fill="rgb(12,12,255)"  stroke="rgb(12,12,255)" stroke-width="1" font-size="16" >N</text>
<text x="219.038163" y="62.504440" fill="rgb(191,191,191)"  stroke="rgb(191,191,191)" stroke-width="1" font-size="16" >H</text>
<text x="275.288163" y="94.980393" fill="rgb(191,191,191)"  stroke="rgb(191,191,191)" stroke-width="1" font-size="16" >H</text>
<text x="307.764116" y="113.730393" fill="rgb(191,191,191)"  stroke="rgb(191,191,191)" stroke-width="1" font-size="16" >H</text>
<text x="326.514116" y="146.206345" fill="rgb(191,191,191)"  stroke="rgb(191,191,191)" stroke-width="1" font-size="16" >H</text>
<text x="275.288163" y="234.932298" fill="rgb(191,191,191)"  stroke="rgb(191,191,191)" stroke-width="1" font-size="16" >H</text>
<text x="237.788163" y="234.932298" fill="rgb(191,191,191)"  stroke="rgb(191,191,191)" stroke-width="1" font-size="16" >H</text>
<text x="205.312211" y="216.182298" fill="rgb(191,191,191)"  stroke="rgb(191,191,191)" stroke-width="1" font-size="16" >H</text>
<text x="186.562211" y="183.706345" fill="rgb(191,191,191)"  stroke="rgb(191,191,191)" stroke-width="1" font-size="16" >H</text>
<text x="228.956943" y="109.027163" fill="rgb(191,191,191)"  stroke="rgb(191,191,191)" stroke-width="1" font-size="16" >H</text>
<text x="161.323488" y="201.839992" fill="rgb(191,191,191)"  stroke="rgb(191,191,191)" stroke-width="1" font-size="16" >H</text>
<text x="71.038313" y="178.380306" fill="rgb(191,191,191)"  stroke="rgb(191,191,191)" stroke-width="1" font-size="16" >H</text>
<text x="164.380306" y="85.038313" fill="rgb(191,191,191)"  stroke="rgb(191,191,191)" stroke-width="1" font-size="16" >H</text>
<text x="91.688525" y="48.000000" fill="rgb(191,191,191)"  stroke="rgb(191,191,191)" stroke-width="1" font-size="16" >H</text>
<text x="125.101269" y="139.101269" fill="rgb(12,12,255)"  stroke="rgb(12,12,255)" stroke-width="1" font-size="16" >N</text>
</svg>
</g>
<text font-size="18.000000" fill ="black" font-family="sans-serif"
x="10.000000" y="20.000000" >ZINC19089509</text>
</svg>
