<?xml version="1.0"?>
<svg version="1.1" id="topsvg"
xmlns="http://www.w3.org/2000/svg" xmlns:xlink="http://www.w3.org/1999/xlink"
xmlns:cml="http://www.xml-cml.org/schema" x="0" y="0" width="200px" height="200px" viewBox="0 0 100 100">
<title>ZINC12358799 - Open Babel Depiction</title>
<rect x="0" y="0" width="100" height="100" fill="white"/>
<g transform="translate(0,0)">
<svg width="100" height="100" x="0" y="0" viewBox="0 0 320 218.564"
font-family="sans-serif" stroke="rgb(0,0,0)" stroke-width="2"  stroke-linecap="round">
<line x1="100.0" y1="109.3" x2="140.0" y2="109.3" stroke="rgb(0,0,0)"  stroke-width="2.0"/>
<line x1="100.0" y1="109.3" x2="80.0" y2="74.6" stroke="rgb(0,0,0)"  stroke-width="2.0"/>
<line x1="100.0" y1="109.3" x2="76.6" y2="122.8" stroke="rgb(0,0,0)"  stroke-width="2.0"/>
<line x1="100.0" y1="109.3" x2="100.0" y2="136.3" stroke="rgb(0,0,0)"  stroke-width="2.0"/>
<polygon points="140.000000 109.282032 136.000000 82.482032 144.000000 82.482032 " stroke-width="2.000000" fill="rgb(0,0,0)"  stroke="rgb(0,0,0)" />
<line x1="140.0" y1="109.3" x2="180.0" y2="109.3" stroke="rgb(0,0,0)"  stroke-width="2.0"/>
<line x1="140.0" y1="109.3" x2="140.0" y2="149.3" stroke="rgb(0,0,0)"  stroke-width="2.0"/>
<line x1="180.8" y1="114.6" x2="179.2" y2="114.6" stroke="rgb(0,0,0)"  stroke-width="1.0"/>
<line x1="181.4" y1="118.9" x2="178.6" y2="118.9" stroke="rgb(0,0,0)"  stroke-width="1.0"/>
<line x1="182.1" y1="123.2" x2="177.9" y2="123.2" stroke="rgb(0,0,0)"  stroke-width="1.0"/>
<line x1="182.7" y1="127.5" x2="177.3" y2="127.5" stroke="rgb(0,0,0)"  stroke-width="1.0"/>
<line x1="183.4" y1="131.8" x2="176.6" y2="131.8" stroke="rgb(0,0,0)"  stroke-width="1.0"/>
<line x1="184.0" y1="136.1" x2="176.0" y2="136.1" stroke="rgb(0,0,0)"  stroke-width="1.0"/>
<line x1="180.0" y1="109.3" x2="220.0" y2="109.3" stroke="rgb(0,0,0)"  stroke-width="2.0"/>
<line x1="180.0" y1="109.3" x2="180.0" y2="69.3" stroke="rgb(0,0,0)"  stroke-width="2.0"/>
<line x1="220.0" y1="109.3" x2="240.0" y2="143.9" stroke="rgb(0,0,0)"  stroke-width="2.0"/>
<line x1="220.0" y1="109.3" x2="243.4" y2="95.8" stroke="rgb(0,0,0)"  stroke-width="2.0"/>
<line x1="220.0" y1="109.3" x2="220.0" y2="82.3" stroke="rgb(0,0,0)"  stroke-width="2.0"/>
<line x1="242.6" y1="145.4" x2="229.1" y2="168.8" stroke="rgb(0,0,0)"  stroke-width="2.0"/>
<line x1="237.4" y1="142.4" x2="223.9" y2="165.8" stroke="rgb(0,0,0)"  stroke-width="2.0"/>
<line x1="240.0" y1="143.9" x2="267.0" y2="143.9" stroke="rgb(0,0,0)"  stroke-width="2.0"/>
<line x1="178.5" y1="66.7" x2="201.9" y2="53.2" stroke="rgb(0,0,0)"  stroke-width="2.0"/>
<line x1="181.5" y1="71.9" x2="204.9" y2="58.4" stroke="rgb(0,0,0)"  stroke-width="2.0"/>
<line x1="180.0" y1="69.3" x2="156.6" y2="55.8" stroke="rgb(0,0,0)"  stroke-width="2.0"/>
<line x1="134.1" y1="55.8" x2="122.0" y2="62.8" stroke="rgb(0,0,0)"  stroke-width="2.0"/>
<line x1="141.5" y1="146.7" x2="164.9" y2="160.2" stroke="rgb(0,0,0)"  stroke-width="2.0"/>
<line x1="138.5" y1="151.9" x2="161.9" y2="165.4" stroke="rgb(0,0,0)"  stroke-width="2.0"/>
<line x1="140.0" y1="149.3" x2="116.6" y2="162.8" stroke="rgb(0,0,0)"  stroke-width="2.0"/>
<line x1="77.4" y1="73.1" x2="90.9" y2="49.8" stroke="rgb(0,0,0)"  stroke-width="2.0"/>
<line x1="82.6" y1="76.1" x2="96.1" y2="52.8" stroke="rgb(0,0,0)"  stroke-width="2.0"/>
<line x1="80.0" y1="74.6" x2="53.0" y2="74.6" stroke="rgb(0,0,0)"  stroke-width="2.0"/>
<text x="139.358984" y="57.282032" fill="rgb(255,12,12)"  stroke="rgb(255,12,12)" stroke-width="1" font-size="16" >O</text>
<text x="104.717968" y="77.282032" fill="rgb(191,191,191)"  stroke="rgb(191,191,191)" stroke-width="1" font-size="16" >H</text>
<text x="214.000000" y="77.282032" fill="rgb(191,191,191)"  stroke="rgb(191,191,191)" stroke-width="1" font-size="16" >H</text>
<text x="248.641016" y="97.282032" fill="rgb(191,191,191)"  stroke="rgb(191,191,191)" stroke-width="1" font-size="16" >H</text>
<text x="94.000000" y="157.282032" fill="rgb(191,191,191)"  stroke="rgb(191,191,191)" stroke-width="1" font-size="16" >H</text>
<text x="59.358984" y="137.282032" fill="rgb(191,191,191)"  stroke="rgb(191,191,191)" stroke-width="1" font-size="16" >H</text>
<text x="22.000000" y="82.641016" fill="rgb(255,12,12)"  stroke="rgb(255,12,12)" stroke-width="1" font-size="16" >HO</text>
<text x="94.000000" y="48.000000" fill="rgb(255,12,12)"  stroke="rgb(255,12,12)" stroke-width="1" font-size="16" >O</text>
<text x="87.358984" y="177.282032" fill="rgb(255,12,12)"  stroke="rgb(255,12,12)" stroke-width="1" font-size="16" >HO</text>
<text x="168.641016" y="177.282032" fill="rgb(255,12,12)"  stroke="rgb(255,12,12)" stroke-width="1" font-size="16" >O</text>
<text x="208.641016" y="57.282032" fill="rgb(255,12,12)"  stroke="rgb(255,12,12)" stroke-width="1" font-size="16" >O</text>
<text x="274.000000" y="151.923048" fill="rgb(255,12,12)"  stroke="rgb(255,12,12)" stroke-width="1" font-size="16" >OH</text>
<text x="214.000000" y="186.564065" fill="rgb(255,12,12)"  stroke="rgb(255,12,12)" stroke-width="1" font-size="16" >O</text>
<text x="174.000000" y="157.282032" fill="rgb(191,191,191)"  stroke="rgb(191,191,191)" stroke-width="1" font-size="16" >H</text>
<text x="134.000000" y="77.282032" fill="rgb(191,191,191)"  stroke="rgb(191,191,191)" stroke-width="1" font-size="16" >H</text>
</svg>
</g>
<text font-size="18.000000" fill ="black" font-family="sans-serif"
x="10.000000" y="20.000000" >ZINC12358799</text>
</svg>
