<?xml version="1.0"?>
<svg version="1.1" id="topsvg"
xmlns="http://www.w3.org/2000/svg" xmlns:xlink="http://www.w3.org/1999/xlink"
xmlns:cml="http://www.xml-cml.org/schema" x="0" y="0" width="200px" height="200px" viewBox="0 0 100 100">
<title>ZINC19822303 - Open Babel Depiction</title>
<rect x="0" y="0" width="100" height="100" fill="white"/>
<g transform="translate(0,0)">
<svg width="100" height="100" x="0" y="0" viewBox="0 0 413.231 297.871"
font-family="sans-serif" stroke="rgb(0,0,0)" stroke-width="2"  stroke-linecap="round">
<line x1="334.3" y1="78.9" x2="321.4" y2="101.4" stroke="rgb(0,0,0)"  stroke-width="2.0"/>
<line x1="334.3" y1="78.9" x2="334.3" y2="53.0" stroke="rgb(0,0,0)"  stroke-width="2.0"/>
<line x1="334.3" y1="78.9" x2="311.9" y2="66.0" stroke="rgb(0,0,0)"  stroke-width="2.0"/>
<line x1="334.3" y1="78.9" x2="360.2" y2="78.9" stroke="rgb(0,0,0)"  stroke-width="2.0"/>
<line x1="275.9" y1="112.6" x2="275.9" y2="86.7" stroke="rgb(0,0,0)"  stroke-width="2.0"/>
<line x1="275.9" y1="112.6" x2="253.5" y2="99.7" stroke="rgb(0,0,0)"  stroke-width="2.0"/>
<line x1="256.5" y1="146.3" x2="234.0" y2="133.4" stroke="rgb(0,0,0)"  stroke-width="2.0"/>
<line x1="256.5" y1="146.3" x2="234.0" y2="159.3" stroke="rgb(0,0,0)"  stroke-width="2.0"/>
<line x1="264.7" y1="186.5" x2="208.5" y2="219.0" stroke="rgb(0,0,0)"  stroke-width="2.0"/>
<line x1="275.9" y1="193.0" x2="275.9" y2="206.0" stroke="rgb(0,0,0)"  stroke-width="2.0"/>
<line x1="314.9" y1="180.0" x2="314.9" y2="206.0" stroke="rgb(0,0,0)"  stroke-width="2.0"/>
<line x1="314.9" y1="180.0" x2="337.3" y2="193.0" stroke="rgb(0,0,0)"  stroke-width="2.0"/>
<line x1="334.3" y1="146.3" x2="356.8" y2="159.3" stroke="rgb(0,0,0)"  stroke-width="2.0"/>
<line x1="334.3" y1="146.3" x2="356.8" y2="133.4" stroke="rgb(0,0,0)"  stroke-width="2.0"/>
<line x1="208.5" y1="219.0" x2="174.8" y2="199.5" stroke="rgb(0,0,0)"  stroke-width="2.0"/>
<line x1="208.5" y1="219.0" x2="195.6" y2="241.4" stroke="rgb(0,0,0)"  stroke-width="2.0"/>
<line x1="208.5" y1="219.0" x2="221.5" y2="241.4" stroke="rgb(0,0,0)"  stroke-width="2.0"/>
<line x1="174.8" y1="160.6" x2="197.3" y2="147.6" stroke="rgb(0,0,0)"  stroke-width="2.0"/>
<line x1="141.1" y1="141.1" x2="141.1" y2="115.2" stroke="rgb(0,0,0)"  stroke-width="2.0"/>
<line x1="107.4" y1="160.6" x2="85.0" y2="147.6" stroke="rgb(0,0,0)"  stroke-width="2.0"/>
<line x1="107.4" y1="199.5" x2="73.7" y2="219.0" stroke="rgb(0,0,0)"  stroke-width="2.0"/>
<line x1="141.1" y1="219.0" x2="141.1" y2="244.9" stroke="rgb(0,0,0)"  stroke-width="2.0"/>
<line x1="72.2" y1="221.6" x2="49.8" y2="208.6" stroke="rgb(0,0,0)"  stroke-width="2.0"/>
<line x1="75.2" y1="216.4" x2="52.8" y2="203.4" stroke="rgb(0,0,0)"  stroke-width="2.0"/>
<line x1="73.7" y1="219.0" x2="73.7" y2="244.9" stroke="rgb(0,0,0)"  stroke-width="2.0"/>
<line x1="141.1" y1="141.1" x2="107.4" y2="160.6" stroke="rgb(0,0,0)"  stroke-width="2.0"/>
<line x1="107.4" y1="160.6" x2="107.4" y2="199.5" stroke="rgb(0,0,0)"  stroke-width="2.0"/>
<line x1="114.6" y1="166.6" x2="114.6" y2="193.5" stroke="rgb(0,0,0)"  stroke-width="2.0"/>
<line x1="107.4" y1="199.5" x2="141.1" y2="219.0" stroke="rgb(0,0,0)"  stroke-width="2.0"/>
<line x1="141.1" y1="219.0" x2="174.8" y2="199.5" stroke="rgb(0,0,0)"  stroke-width="2.0"/>
<line x1="142.7" y1="209.7" x2="166.0" y2="196.3" stroke="rgb(0,0,0)"  stroke-width="2.0"/>
<line x1="174.8" y1="199.5" x2="174.8" y2="160.6" stroke="rgb(0,0,0)"  stroke-width="2.0"/>
<line x1="174.8" y1="160.6" x2="141.1" y2="141.1" stroke="rgb(0,0,0)"  stroke-width="2.0"/>
<line x1="166.0" y1="163.8" x2="142.7" y2="150.3" stroke="rgb(0,0,0)"  stroke-width="2.0"/>
<line x1="256.5" y1="146.3" x2="269.4" y2="168.8" stroke="rgb(0,0,0)"  stroke-width="2.0"/>
<line x1="288.9" y1="180.0" x2="314.9" y2="180.0" stroke="rgb(0,0,0)"  stroke-width="2.0"/>
<line x1="314.9" y1="180.0" x2="334.3" y2="146.3" stroke="rgb(0,0,0)"  stroke-width="2.0"/>
<line x1="334.3" y1="146.3" x2="321.4" y2="123.9" stroke="rgb(0,0,0)"  stroke-width="2.0"/>
<line x1="301.9" y1="112.6" x2="275.9" y2="112.6" stroke="rgb(0,0,0)"  stroke-width="2.0"/>
<line x1="275.9" y1="112.6" x2="256.5" y2="146.3" stroke="rgb(0,0,0)"  stroke-width="2.0"/>
<text x="362.016558" y="173.787923" fill="rgb(191,191,191)"  stroke="rgb(191,191,191)" stroke-width="1" font-size="16" >H</text>
<text x="294.607013" y="67.459459" fill="rgb(191,191,191)"  stroke="rgb(191,191,191)" stroke-width="1" font-size="16" >H</text>
<text x="367.230705" y="86.918919" fill="rgb(191,191,191)"  stroke="rgb(191,191,191)" stroke-width="1" font-size="16" >H</text>
<text x="269.933407" y="81.704772" fill="rgb(191,191,191)"  stroke="rgb(191,191,191)" stroke-width="1" font-size="16" >H</text>
<text x="236.228635" y="101.164232" fill="rgb(191,191,191)"  stroke="rgb(191,191,191)" stroke-width="1" font-size="16" >H</text>
<text x="216.769175" y="134.869004" fill="rgb(191,191,191)"  stroke="rgb(191,191,191)" stroke-width="1" font-size="16" >H</text>
<text x="216.769175" y="173.787923" fill="rgb(191,191,191)"  stroke="rgb(191,191,191)" stroke-width="1" font-size="16" >H</text>
<text x="308.852326" y="226.952155" fill="rgb(191,191,191)"  stroke="rgb(191,191,191)" stroke-width="1" font-size="16" >H</text>
<text x="342.557099" y="207.492696" fill="rgb(191,191,191)"  stroke="rgb(191,191,191)" stroke-width="1" font-size="16" >H</text>
<text x="328.311786" y="48.000000" fill="rgb(191,191,191)"  stroke="rgb(191,191,191)" stroke-width="1" font-size="16" >H</text>
<text x="362.016558" y="134.869004" fill="rgb(191,191,191)"  stroke="rgb(191,191,191)" stroke-width="1" font-size="16" >H</text>
<text x="183.064403" y="260.656928" fill="rgb(191,191,191)"  stroke="rgb(191,191,191)" stroke-width="1" font-size="16" >H</text>
<text x="221.983322" y="260.656928" fill="rgb(191,191,191)"  stroke="rgb(191,191,191)" stroke-width="1" font-size="16" >H</text>
<text x="202.523862" y="149.114317" fill="rgb(191,191,191)"  stroke="rgb(191,191,191)" stroke-width="1" font-size="16" >H</text>
<text x="135.114317" y="110.195398" fill="rgb(191,191,191)"  stroke="rgb(191,191,191)" stroke-width="1" font-size="16" >H</text>
<text x="67.704772" y="149.114317" fill="rgb(191,191,191)"  stroke="rgb(191,191,191)" stroke-width="1" font-size="16" >H</text>
<text x="135.114317" y="265.871074" fill="rgb(191,191,191)"  stroke="rgb(191,191,191)" stroke-width="1" font-size="16" >H</text>
<text x="269.933407" y="226.952155" fill="rgb(191,191,191)"  stroke="rgb(191,191,191)" stroke-width="1" font-size="16" >H</text>
<text x="308.852326" y="120.623691" fill="rgb(12,12,255)"  stroke="rgb(12,12,255)" stroke-width="1" font-size="16" >N</text>
<text x="280.733407" y="176.001236" fill="rgb(12,12,255)"  stroke="rgb(12,12,255)" stroke-width="1" font-size="16" >+</text>
<text x="269.933407" y="188.033236" fill="rgb(12,12,255)"  stroke="rgb(12,12,255)" stroke-width="1" font-size="16" >N</text>
<text x="34.000000" y="207.492696" fill="rgb(255,12,12)"  stroke="rgb(255,12,12)" stroke-width="1" font-size="16" >O</text>
<text x="67.704772" y="265.871074" fill="rgb(255,12,12)"  stroke="rgb(255,12,12)" stroke-width="1" font-size="16" >OH</text>
</svg>
</g>
<text font-size="18.000000" fill ="black" font-family="sans-serif"
x="10.000000" y="20.000000" >ZINC19822303</text>
</svg>
