<?xml version="1.0"?>
<svg version="1.1" id="topsvg"
xmlns="http://www.w3.org/2000/svg" xmlns:xlink="http://www.w3.org/1999/xlink"
xmlns:cml="http://www.xml-cml.org/schema" x="0" y="0" width="200px" height="200px" viewBox="0 0 100 100">
<title>ZINC13229557 - Open Babel Depiction</title>
<rect x="0" y="0" width="100" height="100" fill="white"/>
<g transform="translate(0,0)">
<svg width="100" height="100" x="0" y="0" viewBox="0 0 334.958 340.499"
font-family="sans-serif" stroke="rgb(0,0,0)" stroke-width="2"  stroke-linecap="round">
<line x1="93.4" y1="79.8" x2="125.7" y2="103.3" stroke="rgb(0,0,0)"  stroke-width="2.0"/>
<line x1="93.4" y1="79.8" x2="66.5" y2="77.0" stroke="rgb(0,0,0)"  stroke-width="2.0"/>
<line x1="93.4" y1="79.8" x2="77.5" y2="101.6" stroke="rgb(0,0,0)"  stroke-width="2.0"/>
<line x1="93.4" y1="79.8" x2="96.2" y2="52.9" stroke="rgb(0,0,0)"  stroke-width="2.0"/>
<line x1="125.7" y1="103.3" x2="122.9" y2="130.1" stroke="rgb(0,0,0)"  stroke-width="2.0"/>
<line x1="125.7" y1="103.3" x2="152.6" y2="106.1" stroke="rgb(0,0,0)"  stroke-width="2.0"/>
<line x1="125.7" y1="103.3" x2="141.6" y2="81.4" stroke="rgb(0,0,0)"  stroke-width="2.0"/>
<line x1="132.1" y1="150.7" x2="153.9" y2="166.6" stroke="rgb(0,0,0)"  stroke-width="2.0"/>
<line x1="153.9" y1="166.6" x2="138.0" y2="188.4" stroke="rgb(0,0,0)"  stroke-width="2.0"/>
<line x1="153.9" y1="166.6" x2="175.8" y2="182.5" stroke="rgb(0,0,0)"  stroke-width="2.0"/>
<line x1="153.9" y1="166.6" x2="169.8" y2="144.7" stroke="rgb(0,0,0)"  stroke-width="2.0"/>
<line x1="90.4" y1="198.9" x2="74.5" y2="177.1" stroke="rgb(0,0,0)"  stroke-width="2.0"/>
<line x1="78.0" y1="237.0" x2="52.4" y2="245.3" stroke="rgb(0,0,0)"  stroke-width="2.0"/>
<line x1="142.8" y1="237.0" x2="168.4" y2="245.3" stroke="rgb(0,0,0)"  stroke-width="2.0"/>
<line x1="198.2" y1="184.8" x2="222.8" y2="173.8" stroke="rgb(0,0,0)"  stroke-width="2.0"/>
<line x1="222.8" y1="173.8" x2="255.2" y2="197.3" stroke="rgb(0,0,0)"  stroke-width="2.0"/>
<line x1="222.8" y1="173.8" x2="238.7" y2="152.0" stroke="rgb(0,0,0)"  stroke-width="2.0"/>
<line x1="222.8" y1="173.8" x2="211.8" y2="149.2" stroke="rgb(0,0,0)"  stroke-width="2.0"/>
<line x1="255.2" y1="197.3" x2="282.0" y2="200.2" stroke="rgb(0,0,0)"  stroke-width="2.0"/>
<line x1="255.2" y1="197.3" x2="271.0" y2="175.5" stroke="rgb(0,0,0)"  stroke-width="2.0"/>
<line x1="255.2" y1="197.3" x2="252.4" y2="224.2" stroke="rgb(0,0,0)"  stroke-width="2.0"/>
<line x1="110.4" y1="273.5" x2="110.4" y2="287.5" stroke="rgb(0,0,0)"  stroke-width="2.0"/>
<line x1="78.0" y1="237.0" x2="99.9" y2="252.9" stroke="rgb(0,0,0)"  stroke-width="2.0"/>
<line x1="121.1" y1="252.7" x2="142.8" y2="237.0" stroke="rgb(0,0,0)"  stroke-width="2.0"/>
<line x1="118.5" y1="245.7" x2="133.7" y2="234.7" stroke="rgb(0,0,0)"  stroke-width="2.0"/>
<line x1="142.8" y1="237.0" x2="134.4" y2="211.3" stroke="rgb(0,0,0)"  stroke-width="2.0"/>
<line x1="117.4" y1="198.9" x2="90.4" y2="198.9" stroke="rgb(0,0,0)"  stroke-width="2.0"/>
<line x1="90.4" y1="198.9" x2="78.0" y2="237.0" stroke="rgb(0,0,0)"  stroke-width="2.0"/>
<line x1="95.4" y1="206.9" x2="86.7" y2="233.5" stroke="rgb(0,0,0)"  stroke-width="2.0"/>
<text x="91.555268" y="48.000000" fill="rgb(191,191,191)"  stroke="rgb(191,191,191)" stroke-width="1" font-size="16" >H</text>
<text x="104.402940" y="308.498922" fill="rgb(191,191,191)"  stroke="rgb(191,191,191)" stroke-width="1" font-size="16" >H</text>
<text x="104.402940" y="268.498922" fill="rgb(12,12,255)"  stroke="rgb(12,12,255)" stroke-width="1" font-size="16" >N</text>
<text x="244.996390" y="245.118802" fill="rgb(191,191,191)"  stroke="rgb(191,191,191)" stroke-width="1" font-size="16" >H</text>
<text x="272.688938" y="172.977246" fill="rgb(191,191,191)"  stroke="rgb(191,191,191)" stroke-width="1" font-size="16" >H</text>
<text x="288.958404" y="209.519065" fill="rgb(191,191,191)"  stroke="rgb(191,191,191)" stroke-width="1" font-size="16" >H</text>
<text x="200.547383" y="145.284698" fill="rgb(191,191,191)"  stroke="rgb(191,191,191)" stroke-width="1" font-size="16" >H</text>
<text x="240.328259" y="149.465836" fill="rgb(191,191,191)"  stroke="rgb(191,191,191)" stroke-width="1" font-size="16" >H</text>
<text x="174.805881" y="257.348192" fill="rgb(191,191,191)"  stroke="rgb(191,191,191)" stroke-width="1" font-size="16" >H</text>
<text x="34.000000" y="257.348192" fill="rgb(191,191,191)"  stroke="rgb(191,191,191)" stroke-width="1" font-size="16" >H</text>
<text x="60.891530" y="174.584572" fill="rgb(191,191,191)"  stroke="rgb(191,191,191)" stroke-width="1" font-size="16" >H</text>
<text x="171.425761" y="142.223892" fill="rgb(191,191,191)"  stroke="rgb(191,191,191)" stroke-width="1" font-size="16" >H</text>
<text x="143.246219" y="78.931606" fill="rgb(191,191,191)"  stroke="rgb(191,191,191)" stroke-width="1" font-size="16" >H</text>
<text x="159.515685" y="115.473424" fill="rgb(191,191,191)"  stroke="rgb(191,191,191)" stroke-width="1" font-size="16" >H</text>
<text x="63.862719" y="120.141556" fill="rgb(191,191,191)"  stroke="rgb(191,191,191)" stroke-width="1" font-size="16" >H</text>
<text x="47.593254" y="83.599737" fill="rgb(191,191,191)"  stroke="rgb(191,191,191)" stroke-width="1" font-size="16" >H</text>
<text x="180.275030" y="198.095982" fill="rgb(255,12,12)"  stroke="rgb(255,12,12)" stroke-width="1" font-size="16" >O</text>
<text x="124.402940" y="206.945252" fill="rgb(12,12,255)"  stroke="rgb(12,12,255)" stroke-width="1" font-size="16" >N</text>
<text x="115.553671" y="151.073162" fill="rgb(255,12,12)"  stroke="rgb(255,12,12)" stroke-width="1" font-size="16" >O</text>
</svg>
</g>
<text font-size="18.000000" fill ="black" font-family="sans-serif"
x="10.000000" y="20.000000" >ZINC13229557</text>
</svg>
