<?xml version="1.0"?>
<svg version="1.1" id="topsvg"
xmlns="http://www.w3.org/2000/svg" xmlns:xlink="http://www.w3.org/1999/xlink"
xmlns:cml="http://www.xml-cml.org/schema" x="0" y="0" width="200px" height="200px" viewBox="0 0 100 100">
<title>ZINC02522709 - Open Babel Depiction</title>
<rect x="0" y="0" width="100" height="100" fill="white"/>
<g transform="translate(0,0)">
<svg width="100" height="100" x="0" y="0" viewBox="0 0 289.282 263.923"
font-family="sans-serif" stroke="rgb(0,0,0)" stroke-width="2"  stroke-linecap="round">
<line x1="74.6" y1="114.6" x2="101.6" y2="114.6" stroke="rgb(0,0,0)"  stroke-width="2.0"/>
<line x1="74.6" y1="114.6" x2="51.3" y2="128.1" stroke="rgb(0,0,0)"  stroke-width="2.0"/>
<line x1="74.6" y1="114.6" x2="74.6" y2="141.6" stroke="rgb(0,0,0)"  stroke-width="2.0"/>
<line x1="74.6" y1="114.6" x2="61.1" y2="91.3" stroke="rgb(0,0,0)"  stroke-width="2.0"/>
<line x1="121.1" y1="103.4" x2="134.6" y2="80.0" stroke="rgb(0,0,0)"  stroke-width="2.0"/>
<line x1="121.1" y1="125.9" x2="134.6" y2="149.3" stroke="rgb(0,0,0)"  stroke-width="2.0"/>
<line x1="134.6" y1="80.0" x2="134.6" y2="53.0" stroke="rgb(0,0,0)"  stroke-width="2.0"/>
<line x1="134.6" y1="80.0" x2="111.3" y2="66.5" stroke="rgb(0,0,0)"  stroke-width="2.0"/>
<line x1="134.6" y1="80.0" x2="161.6" y2="80.0" stroke="rgb(0,0,0)"  stroke-width="2.0"/>
<line x1="134.6" y1="149.3" x2="161.6" y2="149.3" stroke="rgb(0,0,0)"  stroke-width="2.0"/>
<line x1="134.6" y1="149.3" x2="134.6" y2="176.3" stroke="rgb(0,0,0)"  stroke-width="2.0"/>
<line x1="134.6" y1="149.3" x2="111.3" y2="162.8" stroke="rgb(0,0,0)"  stroke-width="2.0"/>
<line x1="174.6" y1="162.3" x2="174.6" y2="189.3" stroke="rgb(0,0,0)"  stroke-width="2.0"/>
<line x1="187.6" y1="149.3" x2="214.6" y2="149.3" stroke="rgb(0,0,0)"  stroke-width="2.0"/>
<line x1="174.6" y1="136.3" x2="174.6" y2="122.3" stroke="rgb(0,0,0)"  stroke-width="2.0"/>
<line x1="174.6" y1="189.3" x2="188.1" y2="212.7" stroke="rgb(0,0,0)"  stroke-width="2.0"/>
<line x1="174.6" y1="189.3" x2="201.6" y2="189.3" stroke="rgb(0,0,0)"  stroke-width="2.0"/>
<line x1="174.6" y1="189.3" x2="151.3" y2="202.8" stroke="rgb(0,0,0)"  stroke-width="2.0"/>
<line x1="214.6" y1="149.3" x2="238.0" y2="135.8" stroke="rgb(0,0,0)"  stroke-width="2.0"/>
<line x1="214.6" y1="149.3" x2="214.6" y2="122.3" stroke="rgb(0,0,0)"  stroke-width="2.0"/>
<line x1="214.6" y1="149.3" x2="228.1" y2="172.7" stroke="rgb(0,0,0)"  stroke-width="2.0"/>
<text x="94.000000" y="68.000000" fill="rgb(191,191,191)"  stroke="rgb(191,191,191)" stroke-width="1" font-size="16" >H</text>
<text x="168.641016" y="117.282032" fill="rgb(191,191,191)"  stroke="rgb(191,191,191)" stroke-width="1" font-size="16" >H</text>
<text x="228.641016" y="191.923048" fill="rgb(191,191,191)"  stroke="rgb(191,191,191)" stroke-width="1" font-size="16" >H</text>
<text x="208.641016" y="117.282032" fill="rgb(191,191,191)"  stroke="rgb(191,191,191)" stroke-width="1" font-size="16" >H</text>
<text x="243.282032" y="137.282032" fill="rgb(191,191,191)"  stroke="rgb(191,191,191)" stroke-width="1" font-size="16" >H</text>
<text x="134.000000" y="217.282032" fill="rgb(191,191,191)"  stroke="rgb(191,191,191)" stroke-width="1" font-size="16" >H</text>
<text x="208.641016" y="197.282032" fill="rgb(191,191,191)"  stroke="rgb(191,191,191)" stroke-width="1" font-size="16" >H</text>
<text x="188.641016" y="231.923048" fill="rgb(191,191,191)"  stroke="rgb(191,191,191)" stroke-width="1" font-size="16" >H</text>
<text x="94.000000" y="177.282032" fill="rgb(191,191,191)"  stroke="rgb(191,191,191)" stroke-width="1" font-size="16" >H</text>
<text x="128.641016" y="197.282032" fill="rgb(191,191,191)"  stroke="rgb(191,191,191)" stroke-width="1" font-size="16" >H</text>
<text x="168.641016" y="88.000000" fill="rgb(191,191,191)"  stroke="rgb(191,191,191)" stroke-width="1" font-size="16" >H</text>
<text x="128.641016" y="48.000000" fill="rgb(191,191,191)"  stroke="rgb(191,191,191)" stroke-width="1" font-size="16" >H</text>
<text x="48.641016" y="88.000000" fill="rgb(191,191,191)"  stroke="rgb(191,191,191)" stroke-width="1" font-size="16" >H</text>
<text x="68.641016" y="162.641016" fill="rgb(191,191,191)"  stroke="rgb(191,191,191)" stroke-width="1" font-size="16" >H</text>
<text x="34.000000" y="142.641016" fill="rgb(191,191,191)"  stroke="rgb(191,191,191)" stroke-width="1" font-size="16" >H</text>
<text x="168.641016" y="157.282032" fill="rgb(255,127,0)"  stroke="rgb(255,127,0)" stroke-width="1" font-size="16" >P</text>
<text x="108.641016" y="122.641016" fill="rgb(255,127,0)"  stroke="rgb(255,127,0)" stroke-width="1" font-size="16" >P</text>
</svg>
</g>
<text font-size="18.000000" fill ="black" font-family="sans-serif"
x="10.000000" y="20.000000" >ZINC02522709</text>
</svg>
