<?xml version="1.0"?>
<svg version="1.1" id="topsvg"
xmlns="http://www.w3.org/2000/svg" xmlns:xlink="http://www.w3.org/1999/xlink"
xmlns:cml="http://www.xml-cml.org/schema" x="0" y="0" width="200px" height="200px" viewBox="0 0 100 100">
<title>ZINC98366245 - Open Babel Depiction</title>
<rect x="0" y="0" width="100" height="100" fill="white"/>
<g transform="translate(0,0)">
<svg width="100" height="100" x="0" y="0" viewBox="0 0 490.252 280.646"
font-family="sans-serif" stroke="rgb(0,0,0)" stroke-width="2"  stroke-linecap="round">
<line x1="75.6" y1="94.1" x2="90.9" y2="115.1" stroke="rgb(0,0,0)"  stroke-width="2.0"/>
<line x1="75.6" y1="94.1" x2="51.9" y2="83.6" stroke="rgb(0,0,0)"  stroke-width="2.0"/>
<line x1="75.6" y1="94.1" x2="54.6" y2="109.4" stroke="rgb(0,0,0)"  stroke-width="2.0"/>
<line x1="75.6" y1="94.1" x2="86.2" y2="70.4" stroke="rgb(0,0,0)"  stroke-width="2.0"/>
<line x1="111.4" y1="124.3" x2="137.3" y2="121.6" stroke="rgb(0,0,0)"  stroke-width="2.0"/>
<line x1="160.2" y1="153.1" x2="149.6" y2="176.8" stroke="rgb(0,0,0)"  stroke-width="2.0"/>
<line x1="198.9" y1="149.0" x2="214.2" y2="170.1" stroke="rgb(0,0,0)"  stroke-width="2.0"/>
<line x1="214.8" y1="113.4" x2="240.6" y2="110.7" stroke="rgb(0,0,0)"  stroke-width="2.0"/>
<line x1="191.9" y1="81.9" x2="202.5" y2="58.2" stroke="rgb(0,0,0)"  stroke-width="2.0"/>
<line x1="153.1" y1="86.0" x2="137.9" y2="65.0" stroke="rgb(0,0,0)"  stroke-width="2.0"/>
<line x1="279.6" y1="138.3" x2="266.1" y2="201.9" stroke="rgb(0,0,0)"  stroke-width="2.0"/>
<line x1="315.2" y1="122.5" x2="349.0" y2="142.0" stroke="rgb(0,0,0)"  stroke-width="2.0"/>
<line x1="311.2" y1="83.7" x2="330.5" y2="66.3" stroke="rgb(0,0,0)"  stroke-width="2.0"/>
<line x1="267.8" y1="63.7" x2="262.5" y2="51.9" stroke="rgb(0,0,0)"  stroke-width="2.0"/>
<line x1="349.0" y1="180.9" x2="326.5" y2="193.9" stroke="rgb(0,0,0)"  stroke-width="2.0"/>
<line x1="382.7" y1="200.4" x2="382.7" y2="226.4" stroke="rgb(0,0,0)"  stroke-width="2.0"/>
<line x1="416.5" y1="180.9" x2="439.0" y2="193.9" stroke="rgb(0,0,0)"  stroke-width="2.0"/>
<line x1="416.5" y1="142.0" x2="439.0" y2="129.0" stroke="rgb(0,0,0)"  stroke-width="2.0"/>
<line x1="382.7" y1="122.5" x2="382.7" y2="96.5" stroke="rgb(0,0,0)"  stroke-width="2.0"/>
<line x1="251.1" y1="218.6" x2="238.7" y2="222.6" stroke="rgb(0,0,0)"  stroke-width="2.0"/>
<line x1="273.1" y1="223.3" x2="282.7" y2="231.9" stroke="rgb(0,0,0)"  stroke-width="2.0"/>
<line x1="315.2" y1="122.5" x2="311.2" y2="83.7" stroke="rgb(0,0,0)"  stroke-width="2.0"/>
<line x1="311.2" y1="83.7" x2="285.6" y2="78.3" stroke="rgb(0,0,0)"  stroke-width="2.0"/>
<line x1="303.8" y1="89.5" x2="286.2" y2="85.8" stroke="rgb(0,0,0)"  stroke-width="2.0"/>
<line x1="266.5" y1="86.9" x2="260.1" y2="98.1" stroke="rgb(0,0,0)"  stroke-width="2.0"/>
<line x1="262.3" y1="119.0" x2="279.6" y2="138.3" stroke="rgb(0,0,0)"  stroke-width="2.0"/>
<line x1="279.6" y1="138.3" x2="315.2" y2="122.5" stroke="rgb(0,0,0)"  stroke-width="2.0"/>
<line x1="282.2" y1="129.3" x2="306.8" y2="118.3" stroke="rgb(0,0,0)"  stroke-width="2.0"/>
<line x1="198.9" y1="149.0" x2="214.8" y2="113.4" stroke="rgb(0,0,0)"  stroke-width="2.0"/>
<line x1="214.8" y1="113.4" x2="191.9" y2="81.9" stroke="rgb(0,0,0)"  stroke-width="2.0"/>
<line x1="205.4" y1="112.8" x2="189.6" y2="91.0" stroke="rgb(0,0,0)"  stroke-width="2.0"/>
<line x1="191.9" y1="81.9" x2="153.1" y2="86.0" stroke="rgb(0,0,0)"  stroke-width="2.0"/>
<line x1="153.1" y1="86.0" x2="137.3" y2="121.6" stroke="rgb(0,0,0)"  stroke-width="2.0"/>
<line x1="157.3" y1="94.4" x2="146.3" y2="119.0" stroke="rgb(0,0,0)"  stroke-width="2.0"/>
<line x1="137.3" y1="121.6" x2="160.2" y2="153.1" stroke="rgb(0,0,0)"  stroke-width="2.0"/>
<line x1="160.2" y1="153.1" x2="198.9" y2="149.0" stroke="rgb(0,0,0)"  stroke-width="2.0"/>
<line x1="165.4" y1="145.3" x2="192.2" y2="142.5" stroke="rgb(0,0,0)"  stroke-width="2.0"/>
<line x1="382.7" y1="200.4" x2="416.5" y2="180.9" stroke="rgb(0,0,0)"  stroke-width="2.0"/>
<line x1="416.5" y1="180.9" x2="416.5" y2="142.0" stroke="rgb(0,0,0)"  stroke-width="2.0"/>
<line x1="409.3" y1="174.9" x2="409.3" y2="148.0" stroke="rgb(0,0,0)"  stroke-width="2.0"/>
<line x1="416.5" y1="142.0" x2="382.7" y2="122.5" stroke="rgb(0,0,0)"  stroke-width="2.0"/>
<line x1="382.7" y1="122.5" x2="349.0" y2="142.0" stroke="rgb(0,0,0)"  stroke-width="2.0"/>
<line x1="381.2" y1="131.7" x2="357.8" y2="145.2" stroke="rgb(0,0,0)"  stroke-width="2.0"/>
<line x1="349.0" y1="142.0" x2="349.0" y2="180.9" stroke="rgb(0,0,0)"  stroke-width="2.0"/>
<line x1="349.0" y1="180.9" x2="382.7" y2="200.4" stroke="rgb(0,0,0)"  stroke-width="2.0"/>
<line x1="357.8" y1="177.7" x2="381.2" y2="191.2" stroke="rgb(0,0,0)"  stroke-width="2.0"/>
<text x="124.218002" y="62.443656" fill="rgb(191,191,191)"  stroke="rgb(191,191,191)" stroke-width="1" font-size="16" >H</text>
<text x="444.251740" y="208.417645" fill="rgb(165,40,40)"  stroke="rgb(165,40,40)" stroke-width="1" font-size="16" >Br</text>
<text x="257.429302" y="222.566578" fill="rgb(12,12,255)"  stroke="rgb(12,12,255)" stroke-width="1" font-size="16" >N</text>
<text x="34.000000" y="86.270134" fill="rgb(191,191,191)"  stroke="rgb(191,191,191)" stroke-width="1" font-size="16" >H</text>
<text x="38.073930" y="125.030988" fill="rgb(191,191,191)"  stroke="rgb(191,191,191)" stroke-width="1" font-size="16" >H</text>
<text x="85.457149" y="66.517586" fill="rgb(191,191,191)"  stroke="rgb(191,191,191)" stroke-width="1" font-size="16" >H</text>
<text x="138.330509" y="196.715190" fill="rgb(191,191,191)"  stroke="rgb(191,191,191)" stroke-width="1" font-size="16" >H</text>
<text x="215.852216" y="188.567331" fill="rgb(191,191,191)"  stroke="rgb(191,191,191)" stroke-width="1" font-size="16" >H</text>
<text x="201.739709" y="54.295796" fill="rgb(191,191,191)"  stroke="rgb(191,191,191)" stroke-width="1" font-size="16" >H</text>
<text x="334.130264" y="65.629137" fill="rgb(191,191,191)"  stroke="rgb(191,191,191)" stroke-width="1" font-size="16" >H</text>
<text x="309.240601" y="208.417645" fill="rgb(191,191,191)"  stroke="rgb(191,191,191)" stroke-width="1" font-size="16" >H</text>
<text x="376.746170" y="247.392004" fill="rgb(191,191,191)"  stroke="rgb(191,191,191)" stroke-width="1" font-size="16" >H</text>
<text x="444.251740" y="130.468927" fill="rgb(191,191,191)"  stroke="rgb(191,191,191)" stroke-width="1" font-size="16" >H</text>
<text x="376.746170" y="91.494568" fill="rgb(191,191,191)"  stroke="rgb(191,191,191)" stroke-width="1" font-size="16" >H</text>
<text x="220.362484" y="234.610317" fill="rgb(191,191,191)"  stroke="rgb(191,191,191)" stroke-width="1" font-size="16" >H</text>
<text x="286.392895" y="248.645515" fill="rgb(191,191,191)"  stroke="rgb(191,191,191)" stroke-width="1" font-size="16" >H</text>
<text x="251.191695" y="48.000000" fill="rgb(191,191,191)"  stroke="rgb(191,191,191)" stroke-width="1" font-size="16" >H</text>
<text x="92.513402" y="133.653353" fill="rgb(255,12,12)"  stroke="rgb(255,12,12)" stroke-width="1" font-size="16" >O</text>
<text x="247.556815" y="117.357634" fill="rgb(12,12,255)"  stroke="rgb(12,12,255)" stroke-width="1" font-size="16" >N</text>
<text x="267.043995" y="83.604849" fill="rgb(12,12,255)"  stroke="rgb(12,12,255)" stroke-width="1" font-size="16" >N</text>
</svg>
</g>
<text font-size="18.000000" fill ="black" font-family="sans-serif"
x="10.000000" y="20.000000" >ZINC98366245</text>
</svg>
