<?xml version="1.0"?>
<svg version="1.1" id="topsvg"
xmlns="http://www.w3.org/2000/svg" xmlns:xlink="http://www.w3.org/1999/xlink"
xmlns:cml="http://www.xml-cml.org/schema" x="0" y="0" width="200px" height="200px" viewBox="0 0 100 100">
<title>ZINC26506827 - Open Babel Depiction</title>
<rect x="0" y="0" width="100" height="100" fill="white"/>
<g transform="translate(0,0)">
<svg width="100" height="100" x="0" y="0" viewBox="0 0 246.546 217.948"
font-family="sans-serif" stroke="rgb(0,0,0)" stroke-width="2"  stroke-linecap="round">
<line x1="66.8" y1="118.8" x2="48.7" y2="98.8" stroke="rgb(0,0,0)"  stroke-width="2.0"/>
<line x1="106.5" y1="114.6" x2="126.5" y2="80.0" stroke="rgb(0,0,0)"  stroke-width="2.0"/>
<line x1="126.5" y1="80.0" x2="153.5" y2="80.0" stroke="rgb(0,0,0)"  stroke-width="2.0"/>
<line x1="126.5" y1="80.0" x2="126.5" y2="53.0" stroke="rgb(0,0,0)"  stroke-width="2.0"/>
<line x1="126.5" y1="80.0" x2="103.2" y2="66.5" stroke="rgb(0,0,0)"  stroke-width="2.0"/>
<line x1="166.5" y1="93.0" x2="166.5" y2="107.0" stroke="rgb(0,0,0)"  stroke-width="2.0"/>
<line x1="179.5" y1="80.0" x2="193.5" y2="80.0" stroke="rgb(0,0,0)"  stroke-width="2.0"/>
<line x1="166.5" y1="67.0" x2="166.5" y2="53.0" stroke="rgb(0,0,0)"  stroke-width="2.0"/>
<line x1="106.5" y1="114.6" x2="66.8" y2="118.8" stroke="rgb(0,0,0)"  stroke-width="2.0"/>
<line x1="66.8" y1="118.8" x2="61.2" y2="145.0" stroke="rgb(0,0,0)"  stroke-width="2.0"/>
<line x1="72.6" y1="126.2" x2="68.7" y2="144.6" stroke="rgb(0,0,0)"  stroke-width="2.0"/>
<line x1="69.7" y1="164.4" x2="81.8" y2="171.4" stroke="rgb(0,0,0)"  stroke-width="2.0"/>
<line x1="102.8" y1="169.2" x2="113.2" y2="159.9" stroke="rgb(0,0,0)"  stroke-width="2.0"/>
<line x1="117.4" y1="139.1" x2="106.5" y2="114.6" stroke="rgb(0,0,0)"  stroke-width="2.0"/>
<line x1="110.1" y1="140.2" x2="102.4" y2="123.1" stroke="rgb(0,0,0)"  stroke-width="2.0"/>
<text x="116.815566" y="159.182834" fill="rgb(12,12,255)"  stroke="rgb(12,12,255)" stroke-width="1" font-size="16" >N</text>
<text x="87.089773" y="185.948059" fill="rgb(12,12,255)"  stroke="rgb(12,12,255)" stroke-width="1" font-size="16" >N</text>
<text x="87.089773" y="201.948059" fill="rgb(12,12,255)"  stroke="rgb(12,12,255)" stroke-width="1" font-size="16" >H</text>
<text x="52.448757" y="165.948059" fill="rgb(12,12,255)"  stroke="rgb(12,12,255)" stroke-width="1" font-size="16" >N</text>
<text x="171.346100" y="75.968000" fill="rgb(12,12,255)"  stroke="rgb(12,12,255)" stroke-width="1" font-size="16" >+</text>
<text x="160.546100" y="88.000000" fill="rgb(12,12,255)"  stroke="rgb(12,12,255)" stroke-width="1" font-size="16" >N</text>
<text x="34.000000" y="97.096362" fill="rgb(191,191,191)"  stroke="rgb(191,191,191)" stroke-width="1" font-size="16" >H</text>
<text x="120.546100" y="48.000000" fill="rgb(191,191,191)"  stroke="rgb(191,191,191)" stroke-width="1" font-size="16" >H</text>
<text x="85.905084" y="68.000000" fill="rgb(191,191,191)"  stroke="rgb(191,191,191)" stroke-width="1" font-size="16" >H</text>
<text x="160.546100" y="128.000000" fill="rgb(191,191,191)"  stroke="rgb(191,191,191)" stroke-width="1" font-size="16" >H</text>
<text x="200.546100" y="88.000000" fill="rgb(191,191,191)"  stroke="rgb(191,191,191)" stroke-width="1" font-size="16" >H</text>
<text x="160.546100" y="48.000000" fill="rgb(191,191,191)"  stroke="rgb(191,191,191)" stroke-width="1" font-size="16" >H</text>
</svg>
</g>
<text font-size="18.000000" fill ="black" font-family="sans-serif"
x="10.000000" y="20.000000" >ZINC26506827</text>
</svg>
