<?xml version="1.0"?>
<svg version="1.1" id="topsvg"
xmlns="http://www.w3.org/2000/svg" xmlns:xlink="http://www.w3.org/1999/xlink"
xmlns:cml="http://www.xml-cml.org/schema" x="0" y="0" width="200px" height="200px" viewBox="0 0 100 100">
<title>ZINC60020731 - Open Babel Depiction</title>
<rect x="0" y="0" width="100" height="100" fill="white"/>
<g transform="translate(0,0)">
<svg width="100" height="100" x="0" y="0" viewBox="0 0 485.946 599.706"
font-family="sans-serif" stroke="rgb(0,0,0)" stroke-width="2"  stroke-linecap="round">
<line x1="92.0" y1="164.0" x2="119.1" y2="191.2" stroke="rgb(0,0,0)"  stroke-width="2.0"/>
<line x1="92.0" y1="164.0" x2="67.4" y2="157.4" stroke="rgb(0,0,0)"  stroke-width="2.0"/>
<line x1="92.0" y1="164.0" x2="74.0" y2="182.0" stroke="rgb(0,0,0)"  stroke-width="2.0"/>
<line x1="92.0" y1="164.0" x2="98.5" y2="139.4" stroke="rgb(0,0,0)"  stroke-width="2.0"/>
<line x1="119.1" y1="191.2" x2="156.3" y2="181.2" stroke="rgb(0,0,0)"  stroke-width="2.0"/>
<line x1="119.1" y1="191.2" x2="125.7" y2="215.7" stroke="rgb(0,0,0)"  stroke-width="2.0"/>
<line x1="119.1" y1="191.2" x2="101.1" y2="209.1" stroke="rgb(0,0,0)"  stroke-width="2.0"/>
<line x1="156.3" y1="181.2" x2="166.2" y2="144.1" stroke="rgb(0,0,0)"  stroke-width="2.0"/>
<line x1="156.3" y1="181.2" x2="180.8" y2="187.8" stroke="rgb(0,0,0)"  stroke-width="2.0"/>
<line x1="156.3" y1="181.2" x2="162.8" y2="205.8" stroke="rgb(0,0,0)"  stroke-width="2.0"/>
<line x1="166.2" y1="144.1" x2="203.3" y2="134.1" stroke="rgb(0,0,0)"  stroke-width="2.0"/>
<line x1="166.2" y1="144.1" x2="159.6" y2="119.5" stroke="rgb(0,0,0)"  stroke-width="2.0"/>
<line x1="166.2" y1="144.1" x2="141.6" y2="137.5" stroke="rgb(0,0,0)"  stroke-width="2.0"/>
<line x1="203.3" y1="134.1" x2="213.3" y2="97.0" stroke="rgb(0,0,0)"  stroke-width="2.0"/>
<line x1="203.3" y1="134.1" x2="227.9" y2="140.7" stroke="rgb(0,0,0)"  stroke-width="2.0"/>
<line x1="203.3" y1="134.1" x2="209.9" y2="158.7" stroke="rgb(0,0,0)"  stroke-width="2.0"/>
<line x1="213.3" y1="97.0" x2="250.4" y2="87.1" stroke="rgb(0,0,0)"  stroke-width="2.0"/>
<line x1="213.3" y1="97.0" x2="206.7" y2="72.5" stroke="rgb(0,0,0)"  stroke-width="2.0"/>
<line x1="213.3" y1="97.0" x2="188.7" y2="90.4" stroke="rgb(0,0,0)"  stroke-width="2.0"/>
<polygon points="250.390004 87.068626 239.861964 63.232260 247.589370 61.161707 " stroke-width="2.000000" fill="rgb(0,0,0)"  stroke="rgb(0,0,0)" />
<line x1="250.4" y1="87.1" x2="287.5" y2="77.1" stroke="rgb(0,0,0)"  stroke-width="2.0"/>
<line x1="250.4" y1="87.1" x2="270.3" y2="161.3" stroke="rgb(0,0,0)"  stroke-width="2.0"/>
<line x1="287.5" y1="77.1" x2="312.1" y2="83.7" stroke="rgb(0,0,0)"  stroke-width="2.0"/>
<line x1="287.5" y1="77.1" x2="294.1" y2="101.7" stroke="rgb(0,0,0)"  stroke-width="2.0"/>
<line x1="287.5" y1="77.1" x2="294.1" y2="52.6" stroke="rgb(0,0,0)"  stroke-width="2.0"/>
<line x1="270.3" y1="161.3" x2="307.4" y2="171.3" stroke="rgb(0,0,0)"  stroke-width="2.0"/>
<line x1="270.3" y1="161.3" x2="263.7" y2="185.9" stroke="rgb(0,0,0)"  stroke-width="2.0"/>
<line x1="270.3" y1="161.3" x2="245.7" y2="167.9" stroke="rgb(0,0,0)"  stroke-width="2.0"/>
<line x1="310.3" y1="170.5" x2="330.2" y2="244.7" stroke="rgb(0,0,0)"  stroke-width="2.0"/>
<line x1="304.5" y1="172.0" x2="324.4" y2="246.3" stroke="rgb(0,0,0)"  stroke-width="2.0"/>
<line x1="307.4" y1="171.3" x2="334.6" y2="144.1" stroke="rgb(0,0,0)"  stroke-width="2.0"/>
<line x1="327.3" y1="245.5" x2="364.4" y2="255.4" stroke="rgb(0,0,0)"  stroke-width="2.0"/>
<line x1="327.3" y1="245.5" x2="309.3" y2="263.5" stroke="rgb(0,0,0)"  stroke-width="2.0"/>
<polygon points="364.420799 255.449590 367.221432 229.542671 374.948839 231.613223 " stroke-width="2.000000" fill="rgb(0,0,0)"  stroke="rgb(0,0,0)" />
<line x1="364.4" y1="255.4" x2="401.5" y2="265.4" stroke="rgb(0,0,0)"  stroke-width="2.0"/>
<line x1="364.4" y1="255.4" x2="344.5" y2="329.7" stroke="rgb(0,0,0)"  stroke-width="2.0"/>
<line x1="401.5" y1="265.4" x2="419.5" y2="247.4" stroke="rgb(0,0,0)"  stroke-width="2.0"/>
<line x1="401.5" y1="265.4" x2="419.5" y2="283.4" stroke="rgb(0,0,0)"  stroke-width="2.0"/>
<line x1="401.5" y1="265.4" x2="395.0" y2="290.0" stroke="rgb(0,0,0)"  stroke-width="2.0"/>
<line x1="425.4" y1="225.7" x2="422.1" y2="213.7" stroke="rgb(0,0,0)"  stroke-width="2.0"/>
<line x1="346.6" y1="327.6" x2="373.8" y2="354.7" stroke="rgb(0,0,0)"  stroke-width="2.0"/>
<line x1="342.4" y1="331.8" x2="369.6" y2="359.0" stroke="rgb(0,0,0)"  stroke-width="2.0"/>
<line x1="344.5" y1="329.7" x2="320.0" y2="336.3" stroke="rgb(0,0,0)"  stroke-width="2.0"/>
<line x1="371.7" y1="356.9" x2="408.8" y2="346.9" stroke="rgb(0,0,0)"  stroke-width="2.0"/>
<line x1="371.7" y1="356.9" x2="361.8" y2="394.0" stroke="rgb(0,0,0)"  stroke-width="2.0"/>
<line x1="408.8" y1="346.9" x2="433.4" y2="353.5" stroke="rgb(0,0,0)"  stroke-width="2.0"/>
<line x1="408.8" y1="346.9" x2="415.4" y2="371.5" stroke="rgb(0,0,0)"  stroke-width="2.0"/>
<line x1="408.8" y1="346.9" x2="415.4" y2="322.4" stroke="rgb(0,0,0)"  stroke-width="2.0"/>
<line x1="363.9" y1="391.9" x2="391.1" y2="419.0" stroke="rgb(0,0,0)"  stroke-width="2.0"/>
<line x1="359.6" y1="396.1" x2="386.8" y2="423.3" stroke="rgb(0,0,0)"  stroke-width="2.0"/>
<line x1="361.8" y1="394.0" x2="337.2" y2="400.6" stroke="rgb(0,0,0)"  stroke-width="2.0"/>
<line x1="388.9" y1="421.2" x2="379.0" y2="458.3" stroke="rgb(0,0,0)"  stroke-width="2.0"/>
<line x1="388.9" y1="421.2" x2="413.5" y2="414.6" stroke="rgb(0,0,0)"  stroke-width="2.0"/>
<polygon points="378.983883 458.287179 353.076963 455.486546 355.147516 447.759139 " stroke-width="2.000000" fill="rgb(0,0,0)"  stroke="rgb(0,0,0)" />
<line x1="379.0" y1="458.3" x2="369.0" y2="495.4" stroke="rgb(0,0,0)"  stroke-width="2.0"/>
<line x1="379.0" y1="458.3" x2="403.5" y2="464.9" stroke="rgb(0,0,0)"  stroke-width="2.0"/>
<line x1="369.0" y1="495.4" x2="406.2" y2="505.4" stroke="rgb(0,0,0)"  stroke-width="2.0"/>
<line x1="369.0" y1="495.4" x2="359.1" y2="532.5" stroke="rgb(0,0,0)"  stroke-width="2.0"/>
<line x1="369.0" y1="495.4" x2="331.9" y2="485.5" stroke="rgb(0,0,0)"  stroke-width="2.0"/>
<line x1="406.2" y1="505.4" x2="424.1" y2="523.3" stroke="rgb(0,0,0)"  stroke-width="2.0"/>
<line x1="406.2" y1="505.4" x2="399.6" y2="529.9" stroke="rgb(0,0,0)"  stroke-width="2.0"/>
<line x1="406.2" y1="505.4" x2="424.1" y2="487.4" stroke="rgb(0,0,0)"  stroke-width="2.0"/>
<line x1="359.1" y1="532.5" x2="341.1" y2="550.5" stroke="rgb(0,0,0)"  stroke-width="2.0"/>
<line x1="359.1" y1="532.5" x2="334.5" y2="525.9" stroke="rgb(0,0,0)"  stroke-width="2.0"/>
<line x1="359.1" y1="532.5" x2="377.1" y2="550.5" stroke="rgb(0,0,0)"  stroke-width="2.0"/>
<line x1="322.0" y1="448.3" x2="340.0" y2="430.4" stroke="rgb(0,0,0)"  stroke-width="2.0"/>
<line x1="284.8" y1="438.4" x2="278.3" y2="413.8" stroke="rgb(0,0,0)"  stroke-width="2.0"/>
<line x1="262.3" y1="397.9" x2="250.3" y2="394.7" stroke="rgb(0,0,0)"  stroke-width="2.0"/>
<line x1="257.7" y1="465.6" x2="183.4" y2="445.7" stroke="rgb(0,0,0)"  stroke-width="2.0"/>
<line x1="269.7" y1="504.8" x2="251.8" y2="522.8" stroke="rgb(0,0,0)"  stroke-width="2.0"/>
<line x1="265.5" y1="500.6" x2="247.5" y2="518.6" stroke="rgb(0,0,0)"  stroke-width="2.0"/>
<line x1="183.4" y1="445.7" x2="180.1" y2="420.5" stroke="rgb(0,0,0)"  stroke-width="2.0"/>
<line x1="184.2" y1="453.4" x2="182.6" y2="453.4" stroke="rgb(0,0,0)"  stroke-width="1.0"/>
<line x1="184.9" y1="459.5" x2="182.0" y2="459.5" stroke="rgb(0,0,0)"  stroke-width="1.0"/>
<line x1="185.5" y1="465.7" x2="181.3" y2="465.7" stroke="rgb(0,0,0)"  stroke-width="1.0"/>
<line x1="186.1" y1="471.8" x2="180.7" y2="471.8" stroke="rgb(0,0,0)"  stroke-width="1.0"/>
<line x1="186.8" y1="478.0" x2="180.1" y2="478.0" stroke="rgb(0,0,0)"  stroke-width="1.0"/>
<line x1="187.4" y1="484.1" x2="179.4" y2="484.1" stroke="rgb(0,0,0)"  stroke-width="1.0"/>
<line x1="183.4" y1="484.1" x2="208.9" y2="484.1" stroke="rgb(0,0,0)"  stroke-width="2.0"/>
<polygon points="183.427835 484.106551 152.145290 506.786339 148.145290 499.858136 " stroke-width="2.000000" fill="rgb(0,0,0)"  stroke="rgb(0,0,0)" />
<line x1="183.4" y1="484.1" x2="196.1" y2="506.1" stroke="rgb(0,0,0)"  stroke-width="2.0"/>
<line x1="153.4" y1="507.4" x2="152.0" y2="508.2" stroke="rgb(0,0,0)"  stroke-width="1.0"/>
<line x1="156.0" y1="510.6" x2="153.5" y2="512.1" stroke="rgb(0,0,0)"  stroke-width="1.0"/>
<line x1="158.6" y1="513.9" x2="155.0" y2="516.0" stroke="rgb(0,0,0)"  stroke-width="1.0"/>
<line x1="161.3" y1="517.1" x2="156.5" y2="519.8" stroke="rgb(0,0,0)"  stroke-width="1.0"/>
<line x1="163.9" y1="520.4" x2="158.1" y2="523.7" stroke="rgb(0,0,0)"  stroke-width="1.0"/>
<line x1="166.5" y1="523.6" x2="159.6" y2="527.6" stroke="rgb(0,0,0)"  stroke-width="1.0"/>
<line x1="150.1" y1="503.3" x2="137.4" y2="525.3" stroke="rgb(0,0,0)"  stroke-width="2.0"/>
<line x1="116.9" y1="484.1" x2="104.1" y2="506.1" stroke="rgb(0,0,0)"  stroke-width="2.0"/>
<line x1="116.9" y1="484.1" x2="91.4" y2="484.1" stroke="rgb(0,0,0)"  stroke-width="2.0"/>
<line x1="111.7" y1="446.5" x2="111.7" y2="444.9" stroke="rgb(0,0,0)"  stroke-width="1.0"/>
<line x1="107.6" y1="447.1" x2="107.6" y2="444.2" stroke="rgb(0,0,0)"  stroke-width="1.0"/>
<line x1="103.5" y1="447.8" x2="103.5" y2="443.6" stroke="rgb(0,0,0)"  stroke-width="1.0"/>
<line x1="99.4" y1="448.4" x2="99.4" y2="443.0" stroke="rgb(0,0,0)"  stroke-width="1.0"/>
<line x1="95.2" y1="449.0" x2="95.2" y2="442.3" stroke="rgb(0,0,0)"  stroke-width="1.0"/>
<line x1="91.1" y1="449.7" x2="91.1" y2="441.7" stroke="rgb(0,0,0)"  stroke-width="1.0"/>
<line x1="116.9" y1="445.7" x2="97.6" y2="412.4" stroke="rgb(0,0,0)"  stroke-width="2.0"/>
<line x1="97.6" y1="412.4" x2="72.2" y2="412.4" stroke="rgb(0,0,0)"  stroke-width="2.0"/>
<line x1="97.6" y1="412.4" x2="97.6" y2="387.0" stroke="rgb(0,0,0)"  stroke-width="2.0"/>
<line x1="97.6" y1="412.4" x2="119.7" y2="399.7" stroke="rgb(0,0,0)"  stroke-width="2.0"/>
<line x1="52.7" y1="401.1" x2="46.5" y2="390.4" stroke="rgb(0,0,0)"  stroke-width="2.0"/>
<line x1="117.9" y1="536.6" x2="105.5" y2="536.6" stroke="rgb(0,0,0)"  stroke-width="2.0"/>
<line x1="196.1" y1="528.6" x2="189.9" y2="539.4" stroke="rgb(0,0,0)"  stroke-width="2.0"/>
<line x1="425.3" y1="459.0" x2="434.1" y2="450.3" stroke="rgb(0,0,0)"  stroke-width="2.0"/>
<line x1="334.6" y1="144.1" x2="359.1" y2="137.5" stroke="rgb(0,0,0)"  stroke-width="2.0"/>
<line x1="334.6" y1="144.1" x2="352.6" y2="162.1" stroke="rgb(0,0,0)"  stroke-width="2.0"/>
<line x1="334.6" y1="144.1" x2="328.0" y2="119.5" stroke="rgb(0,0,0)"  stroke-width="2.0"/>
<line x1="322.0" y1="448.3" x2="331.9" y2="485.5" stroke="rgb(0,0,0)"  stroke-width="2.0"/>
<line x1="316.6" y1="456.0" x2="323.4" y2="481.5" stroke="rgb(0,0,0)"  stroke-width="2.0"/>
<line x1="331.9" y1="485.5" x2="313.9" y2="503.4" stroke="rgb(0,0,0)"  stroke-width="2.0"/>
<line x1="292.2" y1="509.3" x2="267.6" y2="502.7" stroke="rgb(0,0,0)"  stroke-width="2.0"/>
<line x1="267.6" y1="502.7" x2="257.7" y2="465.6" stroke="rgb(0,0,0)"  stroke-width="2.0"/>
<line x1="257.7" y1="465.6" x2="284.8" y2="438.4" stroke="rgb(0,0,0)"  stroke-width="2.0"/>
<line x1="267.0" y1="466.4" x2="285.7" y2="447.7" stroke="rgb(0,0,0)"  stroke-width="2.0"/>
<line x1="284.8" y1="438.4" x2="322.0" y2="448.3" stroke="rgb(0,0,0)"  stroke-width="2.0"/>
<line x1="150.1" y1="503.3" x2="116.9" y2="484.1" stroke="rgb(0,0,0)"  stroke-width="2.0"/>
<line x1="116.9" y1="484.1" x2="116.9" y2="445.7" stroke="rgb(0,0,0)"  stroke-width="2.0"/>
<line x1="116.9" y1="445.7" x2="138.9" y2="433.0" stroke="rgb(0,0,0)"  stroke-width="2.0"/>
<line x1="161.4" y1="433.0" x2="183.4" y2="445.7" stroke="rgb(0,0,0)"  stroke-width="2.0"/>
<line x1="183.4" y1="445.7" x2="183.4" y2="484.1" stroke="rgb(0,0,0)"  stroke-width="2.0"/>
<line x1="183.4" y1="484.1" x2="150.1" y2="503.3" stroke="rgb(0,0,0)"  stroke-width="2.0"/>
<text x="207.268148" y="179.259108" fill="rgb(191,191,191)"  stroke="rgb(191,191,191)" stroke-width="1" font-size="16" >H</text>
<text x="301.405401" y="347.640072" fill="rgb(191,191,191)"  stroke="rgb(191,191,191)" stroke-width="1" font-size="16" >H</text>
<text x="412.770967" y="209.099422" fill="rgb(191,191,191)"  stroke="rgb(191,191,191)" stroke-width="1" font-size="16" >H</text>
<text x="385.595883" y="310.518216" fill="rgb(191,191,191)"  stroke="rgb(191,191,191)" stroke-width="1" font-size="16" >H</text>
<text x="422.717738" y="300.571445" fill="rgb(191,191,191)"  stroke="rgb(191,191,191)" stroke-width="1" font-size="16" >H</text>
<text x="294.123859" y="280.677903" fill="rgb(191,191,191)"  stroke="rgb(191,191,191)" stroke-width="1" font-size="16" >H</text>
<text x="227.161691" y="179.259108" fill="rgb(191,191,191)"  stroke="rgb(191,191,191)" stroke-width="1" font-size="16" >H</text>
<text x="254.336775" y="206.434192" fill="rgb(191,191,191)"  stroke="rgb(191,191,191)" stroke-width="1" font-size="16" >H</text>
<text x="291.458630" y="48.000000" fill="rgb(191,191,191)"  stroke="rgb(191,191,191)" stroke-width="1" font-size="16" >H</text>
<text x="291.458630" y="122.243711" fill="rgb(191,191,191)"  stroke="rgb(191,191,191)" stroke-width="1" font-size="16" >H</text>
<text x="318.633714" y="95.068626" fill="rgb(191,191,191)"  stroke="rgb(191,191,191)" stroke-width="1" font-size="16" >H</text>
<text x="170.146293" y="95.068626" fill="rgb(191,191,191)"  stroke="rgb(191,191,191)" stroke-width="1" font-size="16" >H</text>
<text x="197.321377" y="67.893542" fill="rgb(191,191,191)"  stroke="rgb(191,191,191)" stroke-width="1" font-size="16" >H</text>
<text x="439.946051" y="364.868385" fill="rgb(191,191,191)"  stroke="rgb(191,191,191)" stroke-width="1" font-size="16" >H</text>
<text x="234.443233" y="152.084024" fill="rgb(191,191,191)"  stroke="rgb(191,191,191)" stroke-width="1" font-size="16" >H</text>
<text x="123.077667" y="142.137253" fill="rgb(191,191,191)"  stroke="rgb(191,191,191)" stroke-width="1" font-size="16" >H</text>
<text x="150.252751" y="114.962169" fill="rgb(191,191,191)"  stroke="rgb(191,191,191)" stroke-width="1" font-size="16" >H</text>
<text x="160.199522" y="226.327735" fill="rgb(191,191,191)"  stroke="rgb(191,191,191)" stroke-width="1" font-size="16" >H</text>
<text x="187.374606" y="199.152650" fill="rgb(191,191,191)"  stroke="rgb(191,191,191)" stroke-width="1" font-size="16" >H</text>
<text x="85.955811" y="226.327735" fill="rgb(191,191,191)"  stroke="rgb(191,191,191)" stroke-width="1" font-size="16" >H</text>
<text x="123.077667" y="236.274506" fill="rgb(191,191,191)"  stroke="rgb(191,191,191)" stroke-width="1" font-size="16" >H</text>
<text x="95.902583" y="134.855711" fill="rgb(191,191,191)"  stroke="rgb(191,191,191)" stroke-width="1" font-size="16" >H</text>
<text x="58.780727" y="199.152650" fill="rgb(191,191,191)"  stroke="rgb(191,191,191)" stroke-width="1" font-size="16" >H</text>
<text x="48.833956" y="162.030795" fill="rgb(191,191,191)"  stroke="rgb(191,191,191)" stroke-width="1" font-size="16" >H</text>
<text x="91.647059" y="525.389096" fill="rgb(191,191,191)"  stroke="rgb(191,191,191)" stroke-width="1" font-size="16" >H</text>
<text x="231.778003" y="399.325011" fill="rgb(191,191,191)"  stroke="rgb(191,191,191)" stroke-width="1" font-size="16" >H</text>
<text x="318.633714" y="114.962169" fill="rgb(191,191,191)"  stroke="rgb(191,191,191)" stroke-width="1" font-size="16" >H</text>
<text x="355.755570" y="179.259108" fill="rgb(191,191,191)"  stroke="rgb(191,191,191)" stroke-width="1" font-size="16" >H</text>
<text x="365.702341" y="142.137253" fill="rgb(191,191,191)"  stroke="rgb(191,191,191)" stroke-width="1" font-size="16" >H</text>
<text x="437.280822" y="449.058866" fill="rgb(191,191,191)"  stroke="rgb(191,191,191)" stroke-width="1" font-size="16" >H</text>
<text x="177.427835" y="558.671641" fill="rgb(191,191,191)"  stroke="rgb(191,191,191)" stroke-width="1" font-size="16" >H</text>
<text x="86.498231" y="544.604783" fill="rgb(191,191,191)"  stroke="rgb(191,191,191)" stroke-width="1" font-size="16" >H</text>
<text x="34.000000" y="387.110089" fill="rgb(191,191,191)"  stroke="rgb(191,191,191)" stroke-width="1" font-size="16" >H</text>
<text x="124.929604" y="401.176948" fill="rgb(191,191,191)"  stroke="rgb(191,191,191)" stroke-width="1" font-size="16" >H</text>
<text x="91.647059" y="381.961261" fill="rgb(191,191,191)"  stroke="rgb(191,191,191)" stroke-width="1" font-size="16" >H</text>
<text x="72.431373" y="492.106551" fill="rgb(191,191,191)"  stroke="rgb(191,191,191)" stroke-width="1" font-size="16" >H</text>
<text x="410.105738" y="476.233950" fill="rgb(255,12,12)"  stroke="rgb(255,12,12)" stroke-width="1" font-size="16" >O</text>
<text x="343.143569" y="429.165324" fill="rgb(191,191,191)"  stroke="rgb(191,191,191)" stroke-width="1" font-size="16" >H</text>
<text x="380.265424" y="567.705974" fill="rgb(191,191,191)"  stroke="rgb(191,191,191)" stroke-width="1" font-size="16" >H</text>
<text x="315.968485" y="530.584119" fill="rgb(191,191,191)"  stroke="rgb(191,191,191)" stroke-width="1" font-size="16" >H</text>
<text x="325.915256" y="567.705974" fill="rgb(191,191,191)"  stroke="rgb(191,191,191)" stroke-width="1" font-size="16" >H</text>
<text x="427.334051" y="486.180722" fill="rgb(191,191,191)"  stroke="rgb(191,191,191)" stroke-width="1" font-size="16" >H</text>
<text x="390.212196" y="550.477661" fill="rgb(191,191,191)"  stroke="rgb(191,191,191)" stroke-width="1" font-size="16" >H</text>
<text x="427.334051" y="540.530890" fill="rgb(191,191,191)"  stroke="rgb(191,191,191)" stroke-width="1" font-size="16" >H</text>
<text x="420.052509" y="419.218553" fill="rgb(191,191,191)"  stroke="rgb(191,191,191)" stroke-width="1" font-size="16" >H</text>
<text x="318.633714" y="411.937011" fill="rgb(191,191,191)"  stroke="rgb(191,191,191)" stroke-width="1" font-size="16" >H</text>
<text x="412.770967" y="317.799758" fill="rgb(191,191,191)"  stroke="rgb(191,191,191)" stroke-width="1" font-size="16" >H</text>
<text x="412.770967" y="392.043469" fill="rgb(191,191,191)"  stroke="rgb(191,191,191)" stroke-width="1" font-size="16" >H</text>
<text x="335.862027" y="456.340408" fill="rgb(191,191,191)"  stroke="rgb(191,191,191)" stroke-width="1" font-size="16" >H</text>
<text x="422.717738" y="246.221277" fill="rgb(255,12,12)"  stroke="rgb(255,12,12)" stroke-width="1" font-size="16" >O</text>
<text x="368.367570" y="226.327735" fill="rgb(191,191,191)"  stroke="rgb(191,191,191)" stroke-width="1" font-size="16" >H</text>
<text x="234.443233" y="57.946771" fill="rgb(191,191,191)"  stroke="rgb(191,191,191)" stroke-width="1" font-size="16" >H</text>
<text x="196.643521" y="525.389096" fill="rgb(255,12,12)"  stroke="rgb(255,12,12)" stroke-width="1" font-size="16" >O</text>
<text x="124.929604" y="544.604783" fill="rgb(255,12,12)"  stroke="rgb(255,12,12)" stroke-width="1" font-size="16" >O</text>
<text x="53.215686" y="420.392634" fill="rgb(255,12,12)"  stroke="rgb(255,12,12)" stroke-width="1" font-size="16" >O</text>
<text x="144.145290" y="434.459493" fill="rgb(255,12,12)"  stroke="rgb(255,12,12)" stroke-width="1" font-size="16" >O</text>
<text x="72.431373" y="453.675179" fill="rgb(191,191,191)"  stroke="rgb(191,191,191)" stroke-width="1" font-size="16" >H</text>
<text x="163.360976" y="544.604783" fill="rgb(191,191,191)"  stroke="rgb(191,191,191)" stroke-width="1" font-size="16" >H</text>
<text x="215.859208" y="492.106551" fill="rgb(191,191,191)"  stroke="rgb(191,191,191)" stroke-width="1" font-size="16" >H</text>
<text x="172.411534" y="415.572592" fill="rgb(191,191,191)"  stroke="rgb(191,191,191)" stroke-width="1" font-size="16" >H</text>
<text x="234.443233" y="537.865661" fill="rgb(255,12,12)"  stroke="rgb(255,12,12)" stroke-width="1" font-size="16" >O</text>
<text x="298.740172" y="520.637348" fill="rgb(255,12,12)"  stroke="rgb(255,12,12)" stroke-width="1" font-size="16" >O</text>
<text x="268.899859" y="409.271782" fill="rgb(255,12,12)"  stroke="rgb(255,12,12)" stroke-width="1" font-size="16" >O</text>
</svg>
</g>
<text font-size="18.000000" fill ="black" font-family="sans-serif"
x="10.000000" y="20.000000" >ZINC60020731</text>
</svg>
