<?xml version="1.0"?>
<svg version="1.1" id="topsvg"
xmlns="http://www.w3.org/2000/svg" xmlns:xlink="http://www.w3.org/1999/xlink"
xmlns:cml="http://www.xml-cml.org/schema" x="0" y="0" width="200px" height="200px" viewBox="0 0 100 100">
<title>ZINC97943387 - Open Babel Depiction</title>
<rect x="0" y="0" width="100" height="100" fill="white"/>
<g transform="translate(0,0)">
<svg width="100" height="100" x="0" y="0" viewBox="0 0 521.285 519.92"
font-family="sans-serif" stroke="rgb(0,0,0)" stroke-width="2"  stroke-linecap="round">
<line x1="268.7" y1="318.3" x2="256.3" y2="280.2" stroke="rgb(0,0,0)"  stroke-width="2.0"/>
<line x1="268.7" y1="318.3" x2="288.7" y2="336.3" stroke="rgb(0,0,0)"  stroke-width="2.0"/>
<line x1="268.7" y1="318.3" x2="294.3" y2="309.9" stroke="rgb(0,0,0)"  stroke-width="2.0"/>
<line x1="268.7" y1="318.3" x2="250.6" y2="338.3" stroke="rgb(0,0,0)"  stroke-width="2.0"/>
<line x1="256.3" y1="280.2" x2="283.1" y2="250.5" stroke="rgb(0,0,0)"  stroke-width="2.0"/>
<line x1="256.3" y1="280.2" x2="236.2" y2="262.2" stroke="rgb(0,0,0)"  stroke-width="2.0"/>
<line x1="256.3" y1="280.2" x2="230.6" y2="288.6" stroke="rgb(0,0,0)"  stroke-width="2.0"/>
<line x1="280.2" y1="251.4" x2="267.9" y2="213.4" stroke="rgb(0,0,0)"  stroke-width="2.0"/>
<line x1="285.9" y1="249.6" x2="273.6" y2="211.5" stroke="rgb(0,0,0)"  stroke-width="2.0"/>
<line x1="283.1" y1="250.5" x2="322.2" y2="258.8" stroke="rgb(0,0,0)"  stroke-width="2.0"/>
<line x1="270.7" y1="212.5" x2="231.6" y2="204.1" stroke="rgb(0,0,0)"  stroke-width="2.0"/>
<line x1="270.7" y1="212.5" x2="288.8" y2="192.4" stroke="rgb(0,0,0)"  stroke-width="2.0"/>
<line x1="221.8" y1="156.3" x2="235.3" y2="133.0" stroke="rgb(0,0,0)"  stroke-width="2.0"/>
<line x1="154.1" y1="105.9" x2="179.8" y2="97.5" stroke="rgb(0,0,0)"  stroke-width="2.0"/>
<line x1="124.4" y1="79.1" x2="130.0" y2="52.7" stroke="rgb(0,0,0)"  stroke-width="2.0"/>
<line x1="86.4" y1="91.5" x2="66.3" y2="73.4" stroke="rgb(0,0,0)"  stroke-width="2.0"/>
<line x1="78.0" y1="130.6" x2="52.4" y2="139.0" stroke="rgb(0,0,0)"  stroke-width="2.0"/>
<line x1="99.5" y1="196.5" x2="73.8" y2="204.8" stroke="rgb(0,0,0)"  stroke-width="2.0"/>
<line x1="129.2" y1="223.3" x2="123.6" y2="249.7" stroke="rgb(0,0,0)"  stroke-width="2.0"/>
<line x1="235.3" y1="133.0" x2="275.3" y2="133.0" stroke="rgb(0,0,0)"  stroke-width="2.0"/>
<line x1="235.3" y1="133.0" x2="235.3" y2="106.0" stroke="rgb(0,0,0)"  stroke-width="2.0"/>
<line x1="235.3" y1="133.0" x2="211.9" y2="119.5" stroke="rgb(0,0,0)"  stroke-width="2.0"/>
<line x1="275.3" y1="133.0" x2="295.3" y2="98.3" stroke="rgb(0,0,0)"  stroke-width="2.0"/>
<line x1="275.3" y1="133.0" x2="298.7" y2="146.5" stroke="rgb(0,0,0)"  stroke-width="2.0"/>
<line x1="275.3" y1="133.0" x2="275.3" y2="160.0" stroke="rgb(0,0,0)"  stroke-width="2.0"/>
<line x1="295.3" y1="98.3" x2="322.3" y2="98.3" stroke="rgb(0,0,0)"  stroke-width="2.0"/>
<line x1="295.3" y1="98.3" x2="295.3" y2="71.3" stroke="rgb(0,0,0)"  stroke-width="2.0"/>
<line x1="295.3" y1="98.3" x2="271.9" y2="84.8" stroke="rgb(0,0,0)"  stroke-width="2.0"/>
<line x1="338.3" y1="111.3" x2="338.3" y2="125.3" stroke="rgb(0,0,0)"  stroke-width="2.0"/>
<line x1="332.3" y1="111.3" x2="332.3" y2="125.3" stroke="rgb(0,0,0)"  stroke-width="2.0"/>
<line x1="348.3" y1="95.3" x2="362.3" y2="95.3" stroke="rgb(0,0,0)"  stroke-width="2.0"/>
<line x1="348.3" y1="101.3" x2="362.3" y2="101.3" stroke="rgb(0,0,0)"  stroke-width="2.0"/>
<line x1="335.3" y1="85.3" x2="335.3" y2="71.3" stroke="rgb(0,0,0)"  stroke-width="2.0"/>
<line x1="325.1" y1="257.9" x2="337.4" y2="295.9" stroke="rgb(0,0,0)"  stroke-width="2.0"/>
<line x1="319.3" y1="259.7" x2="331.7" y2="297.8" stroke="rgb(0,0,0)"  stroke-width="2.0"/>
<line x1="322.2" y1="258.8" x2="340.3" y2="238.8" stroke="rgb(0,0,0)"  stroke-width="2.0"/>
<line x1="383.1" y1="301.6" x2="405.0" y2="285.7" stroke="rgb(0,0,0)"  stroke-width="2.0"/>
<line x1="402.3" y1="376.0" x2="428.0" y2="367.6" stroke="rgb(0,0,0)"  stroke-width="2.0"/>
<line x1="394.0" y1="415.1" x2="423.7" y2="441.9" stroke="rgb(0,0,0)"  stroke-width="2.0"/>
<line x1="356.0" y1="427.5" x2="350.4" y2="453.9" stroke="rgb(0,0,0)"  stroke-width="2.0"/>
<line x1="326.2" y1="400.7" x2="300.6" y2="409.1" stroke="rgb(0,0,0)"  stroke-width="2.0"/>
<line x1="423.7" y1="441.9" x2="432.1" y2="467.6" stroke="rgb(0,0,0)"  stroke-width="2.0"/>
<line x1="423.7" y1="441.9" x2="405.7" y2="461.9" stroke="rgb(0,0,0)"  stroke-width="2.0"/>
<line x1="423.7" y1="441.9" x2="449.4" y2="433.5" stroke="rgb(0,0,0)"  stroke-width="2.0"/>
<line x1="405.0" y1="285.7" x2="441.5" y2="302.0" stroke="rgb(0,0,0)"  stroke-width="2.0"/>
<line x1="405.0" y1="285.7" x2="415.9" y2="261.0" stroke="rgb(0,0,0)"  stroke-width="2.0"/>
<line x1="405.0" y1="285.7" x2="389.1" y2="263.9" stroke="rgb(0,0,0)"  stroke-width="2.0"/>
<line x1="441.5" y1="302.0" x2="468.4" y2="299.2" stroke="rgb(0,0,0)"  stroke-width="2.0"/>
<line x1="441.5" y1="302.0" x2="452.5" y2="277.3" stroke="rgb(0,0,0)"  stroke-width="2.0"/>
<line x1="441.5" y1="302.0" x2="444.3" y2="328.8" stroke="rgb(0,0,0)"  stroke-width="2.0"/>
<line x1="175.5" y1="171.8" x2="167.2" y2="210.9" stroke="rgb(0,0,0)"  stroke-width="2.0"/>
<line x1="181.3" y1="179.1" x2="175.5" y2="206.5" stroke="rgb(0,0,0)"  stroke-width="2.0"/>
<line x1="167.2" y1="210.9" x2="190.6" y2="224.4" stroke="rgb(0,0,0)"  stroke-width="2.0"/>
<line x1="211.5" y1="222.2" x2="231.6" y2="204.1" stroke="rgb(0,0,0)"  stroke-width="2.0"/>
<line x1="231.6" y1="204.1" x2="220.7" y2="179.7" stroke="rgb(0,0,0)"  stroke-width="2.0"/>
<line x1="222.6" y1="201.6" x2="214.9" y2="184.4" stroke="rgb(0,0,0)"  stroke-width="2.0"/>
<line x1="202.4" y1="169.0" x2="175.5" y2="171.8" stroke="rgb(0,0,0)"  stroke-width="2.0"/>
<line x1="372.6" y1="349.2" x2="334.6" y2="361.6" stroke="rgb(0,0,0)"  stroke-width="2.0"/>
<line x1="364.7" y1="344.2" x2="338.0" y2="352.9" stroke="rgb(0,0,0)"  stroke-width="2.0"/>
<line x1="334.6" y1="361.6" x2="318.7" y2="339.7" stroke="rgb(0,0,0)"  stroke-width="2.0"/>
<line x1="318.7" y1="318.7" x2="334.6" y2="296.9" stroke="rgb(0,0,0)"  stroke-width="2.0"/>
<line x1="334.6" y1="296.9" x2="360.2" y2="305.2" stroke="rgb(0,0,0)"  stroke-width="2.0"/>
<line x1="372.6" y1="322.2" x2="372.6" y2="349.2" stroke="rgb(0,0,0)"  stroke-width="2.0"/>
<line x1="99.5" y1="196.5" x2="129.2" y2="223.3" stroke="rgb(0,0,0)"  stroke-width="2.0"/>
<line x1="108.7" y1="195.2" x2="129.5" y2="213.9" stroke="rgb(0,0,0)"  stroke-width="2.0"/>
<line x1="129.2" y1="223.3" x2="167.2" y2="210.9" stroke="rgb(0,0,0)"  stroke-width="2.0"/>
<line x1="175.5" y1="171.8" x2="145.8" y2="145.0" stroke="rgb(0,0,0)"  stroke-width="2.0"/>
<line x1="145.8" y1="145.0" x2="107.8" y2="157.4" stroke="rgb(0,0,0)"  stroke-width="2.0"/>
<line x1="142.3" y1="153.7" x2="115.7" y2="162.4" stroke="rgb(0,0,0)"  stroke-width="2.0"/>
<line x1="107.8" y1="157.4" x2="99.5" y2="196.5" stroke="rgb(0,0,0)"  stroke-width="2.0"/>
<line x1="124.4" y1="79.1" x2="86.4" y2="91.5" stroke="rgb(0,0,0)"  stroke-width="2.0"/>
<line x1="86.4" y1="91.5" x2="78.0" y2="130.6" stroke="rgb(0,0,0)"  stroke-width="2.0"/>
<line x1="92.2" y1="98.9" x2="86.3" y2="126.2" stroke="rgb(0,0,0)"  stroke-width="2.0"/>
<line x1="78.0" y1="130.6" x2="107.8" y2="157.4" stroke="rgb(0,0,0)"  stroke-width="2.0"/>
<line x1="145.8" y1="145.0" x2="154.1" y2="105.9" stroke="rgb(0,0,0)"  stroke-width="2.0"/>
<line x1="154.1" y1="105.9" x2="124.4" y2="79.1" stroke="rgb(0,0,0)"  stroke-width="2.0"/>
<line x1="144.9" y1="107.2" x2="124.0" y2="88.5" stroke="rgb(0,0,0)"  stroke-width="2.0"/>
<line x1="356.0" y1="427.5" x2="326.2" y2="400.7" stroke="rgb(0,0,0)"  stroke-width="2.0"/>
<line x1="356.3" y1="418.1" x2="335.5" y2="399.4" stroke="rgb(0,0,0)"  stroke-width="2.0"/>
<line x1="326.2" y1="400.7" x2="334.6" y2="361.6" stroke="rgb(0,0,0)"  stroke-width="2.0"/>
<line x1="372.6" y1="349.2" x2="402.3" y2="376.0" stroke="rgb(0,0,0)"  stroke-width="2.0"/>
<line x1="402.3" y1="376.0" x2="394.0" y2="415.1" stroke="rgb(0,0,0)"  stroke-width="2.0"/>
<line x1="394.0" y1="380.4" x2="388.2" y2="407.7" stroke="rgb(0,0,0)"  stroke-width="2.0"/>
<line x1="394.0" y1="415.1" x2="356.0" y2="427.5" stroke="rgb(0,0,0)"  stroke-width="2.0"/>
<text x="212.265548" y="300.588137" fill="rgb(191,191,191)"  stroke="rgb(191,191,191)" stroke-width="1" font-size="16" >H</text>
<text x="229.316983" y="100.960102" fill="rgb(191,191,191)"  stroke="rgb(191,191,191)" stroke-width="1" font-size="16" >H</text>
<text x="114.860911" y="270.394744" fill="rgb(191,191,191)"  stroke="rgb(191,191,191)" stroke-width="1" font-size="16" >H</text>
<text x="55.409325" y="216.864296" fill="rgb(191,191,191)"  stroke="rgb(191,191,191)" stroke-width="1" font-size="16" >H</text>
<text x="34.000000" y="150.973168" fill="rgb(191,191,191)"  stroke="rgb(191,191,191)" stroke-width="1" font-size="16" >H</text>
<text x="50.632935" y="72.721360" fill="rgb(191,191,191)"  stroke="rgb(191,191,191)" stroke-width="1" font-size="16" >H</text>
<text x="126.717457" y="48.000000" fill="rgb(191,191,191)"  stroke="rgb(191,191,191)" stroke-width="1" font-size="16" >H</text>
<text x="186.169043" y="101.530449" fill="rgb(191,191,191)"  stroke="rgb(191,191,191)" stroke-width="1" font-size="16" >H</text>
<text x="291.477577" y="190.733611" fill="rgb(191,191,191)"  stroke="rgb(191,191,191)" stroke-width="1" font-size="16" >H</text>
<text x="194.675967" y="120.960102" fill="rgb(191,191,191)"  stroke="rgb(191,191,191)" stroke-width="1" font-size="16" >H</text>
<text x="220.582015" y="261.462233" fill="rgb(191,191,191)"  stroke="rgb(191,191,191)" stroke-width="1" font-size="16" >H</text>
<text x="235.903264" y="355.995511" fill="rgb(191,191,191)"  stroke="rgb(191,191,191)" stroke-width="1" font-size="16" >H</text>
<text x="300.710749" y="313.909039" fill="rgb(191,191,191)"  stroke="rgb(191,191,191)" stroke-width="1" font-size="16" >H</text>
<text x="292.394281" y="353.034943" fill="rgb(191,191,191)"  stroke="rgb(191,191,191)" stroke-width="1" font-size="16" >H</text>
<text x="282.200888" y="421.068336" fill="rgb(191,191,191)"  stroke="rgb(191,191,191)" stroke-width="1" font-size="16" >H</text>
<text x="439.685514" y="349.760004" fill="rgb(191,191,191)"  stroke="rgb(191,191,191)" stroke-width="1" font-size="16" >H</text>
<text x="451.773841" y="273.437310" fill="rgb(191,191,191)"  stroke="rgb(191,191,191)" stroke-width="1" font-size="16" >H</text>
<text x="475.285251" y="305.797990" fill="rgb(191,191,191)"  stroke="rgb(191,191,191)" stroke-width="1" font-size="16" >H</text>
<text x="375.451147" y="261.348983" fill="rgb(191,191,191)"  stroke="rgb(191,191,191)" stroke-width="1" font-size="16" >H</text>
<text x="415.232023" y="257.167844" fill="rgb(191,191,191)"  stroke="rgb(191,191,191)" stroke-width="1" font-size="16" >H</text>
<text x="455.779256" y="437.516745" fill="rgb(191,191,191)"  stroke="rgb(191,191,191)" stroke-width="1" font-size="16" >H</text>
<text x="390.971771" y="479.603218" fill="rgb(191,191,191)"  stroke="rgb(191,191,191)" stroke-width="1" font-size="16" >H</text>
<text x="430.097675" y="487.919686" fill="rgb(191,191,191)"  stroke="rgb(191,191,191)" stroke-width="1" font-size="16" >H</text>
<text x="305.048206" y="337.221073" fill="rgb(178,178,0)"  stroke="rgb(178,178,0)" stroke-width="1" font-size="16" >S</text>
<text x="341.652474" y="474.598785" fill="rgb(191,191,191)"  stroke="rgb(191,191,191)" stroke-width="1" font-size="16" >H</text>
<text x="434.369931" y="371.625617" fill="rgb(191,191,191)"  stroke="rgb(191,191,191)" stroke-width="1" font-size="16" >H</text>
<text x="342.964161" y="237.092339" fill="rgb(191,191,191)"  stroke="rgb(191,191,191)" stroke-width="1" font-size="16" >H</text>
<text x="254.675967" y="86.319086" fill="rgb(191,191,191)"  stroke="rgb(191,191,191)" stroke-width="1" font-size="16" >H</text>
<text x="289.316983" y="66.319086" fill="rgb(191,191,191)"  stroke="rgb(191,191,191)" stroke-width="1" font-size="16" >H</text>
<text x="269.316983" y="180.960102" fill="rgb(191,191,191)"  stroke="rgb(191,191,191)" stroke-width="1" font-size="16" >H</text>
<text x="303.957999" y="160.960102" fill="rgb(191,191,191)"  stroke="rgb(191,191,191)" stroke-width="1" font-size="16" >H</text>
<text x="195.860656" y="238.908161" fill="rgb(178,178,0)"  stroke="rgb(178,178,0)" stroke-width="1" font-size="16" >S</text>
<text x="209.316983" y="175.601118" fill="rgb(12,12,255)"  stroke="rgb(12,12,255)" stroke-width="1" font-size="16" >N</text>
<text x="329.316983" y="106.319086" fill="rgb(178,178,0)"  stroke="rgb(178,178,0)" stroke-width="1" font-size="16" >S</text>
<text x="329.316983" y="146.319086" fill="rgb(255,12,12)"  stroke="rgb(255,12,12)" stroke-width="1" font-size="16" >O</text>
<text x="369.316983" y="106.319086" fill="rgb(255,12,12)"  stroke="rgb(255,12,12)" stroke-width="1" font-size="16" >O</text>
<text x="329.316983" y="66.319086" fill="rgb(255,12,12)"  stroke="rgb(255,12,12)" stroke-width="1" font-size="16" >OH</text>
<text x="366.601877" y="317.221073" fill="rgb(12,12,255)"  stroke="rgb(12,12,255)" stroke-width="1" font-size="16" >N</text>
</svg>
</g>
<text font-size="18.000000" fill ="black" font-family="sans-serif"
x="10.000000" y="20.000000" >ZINC97943387</text>
</svg>
