<?xml version="1.0"?>
<svg version="1.1" id="topsvg"
xmlns="http://www.w3.org/2000/svg" xmlns:xlink="http://www.w3.org/1999/xlink"
xmlns:cml="http://www.xml-cml.org/schema" x="0" y="0" width="200px" height="200px" viewBox="0 0 100 100">
<title>ZINC00153802 - Open Babel Depiction</title>
<rect x="0" y="0" width="100" height="100" fill="white"/>
<g transform="translate(0,0)">
<svg width="100" height="100" x="0" y="0" viewBox="0 0 369.286 247.019"
font-family="sans-serif" stroke="rgb(0,0,0)" stroke-width="2"  stroke-linecap="round">
<line x1="290.7" y1="101.6" x2="290.7" y2="127.2" stroke="rgb(0,0,0)"  stroke-width="2.0"/>
<line x1="290.7" y1="101.6" x2="277.9" y2="79.5" stroke="rgb(0,0,0)"  stroke-width="2.0"/>
<line x1="290.7" y1="101.6" x2="265.1" y2="101.6" stroke="rgb(0,0,0)"  stroke-width="2.0"/>
<line x1="290.7" y1="101.6" x2="312.9" y2="88.9" stroke="rgb(0,0,0)"  stroke-width="2.0"/>
<line x1="303.7" y1="137.2" x2="316.3" y2="137.2" stroke="rgb(0,0,0)"  stroke-width="2.0"/>
<line x1="303.7" y1="143.2" x2="316.3" y2="143.2" stroke="rgb(0,0,0)"  stroke-width="2.0"/>
<line x1="293.7" y1="153.2" x2="293.7" y2="165.8" stroke="rgb(0,0,0)"  stroke-width="2.0"/>
<line x1="287.7" y1="153.2" x2="287.7" y2="165.8" stroke="rgb(0,0,0)"  stroke-width="2.0"/>
<line x1="277.7" y1="140.2" x2="252.1" y2="140.2" stroke="rgb(0,0,0)"  stroke-width="2.0"/>
<line x1="232.9" y1="173.6" x2="245.6" y2="195.8" stroke="rgb(0,0,0)"  stroke-width="2.0"/>
<line x1="194.3" y1="173.6" x2="181.5" y2="195.8" stroke="rgb(0,0,0)"  stroke-width="2.0"/>
<line x1="175.0" y1="140.2" x2="97.9" y2="140.2" stroke="rgb(0,0,0)"  stroke-width="2.0"/>
<line x1="194.3" y1="106.8" x2="181.5" y2="84.7" stroke="rgb(0,0,0)"  stroke-width="2.0"/>
<line x1="232.9" y1="106.8" x2="245.6" y2="84.7" stroke="rgb(0,0,0)"  stroke-width="2.0"/>
<line x1="162.0" y1="76.4" x2="149.4" y2="76.4" stroke="rgb(0,0,0)"  stroke-width="2.0"/>
<line x1="162.0" y1="70.4" x2="149.4" y2="70.4" stroke="rgb(0,0,0)"  stroke-width="2.0"/>
<line x1="181.5" y1="62.1" x2="187.8" y2="51.3" stroke="rgb(0,0,0)"  stroke-width="2.0"/>
<line x1="97.9" y1="140.2" x2="97.9" y2="114.6" stroke="rgb(0,0,0)"  stroke-width="2.0"/>
<line x1="97.9" y1="140.2" x2="97.9" y2="178.8" stroke="rgb(0,0,0)"  stroke-width="2.0"/>
<line x1="97.9" y1="140.2" x2="59.3" y2="140.2" stroke="rgb(0,0,0)"  stroke-width="2.0"/>
<line x1="97.9" y1="178.8" x2="75.7" y2="191.6" stroke="rgb(0,0,0)"  stroke-width="2.0"/>
<line x1="99.4" y1="176.2" x2="121.5" y2="189.0" stroke="rgb(0,0,0)"  stroke-width="2.0"/>
<line x1="96.4" y1="181.4" x2="118.5" y2="194.2" stroke="rgb(0,0,0)"  stroke-width="2.0"/>
<line x1="59.3" y1="140.2" x2="46.5" y2="118.1" stroke="rgb(0,0,0)"  stroke-width="2.0"/>
<line x1="61.9" y1="141.7" x2="49.1" y2="163.9" stroke="rgb(0,0,0)"  stroke-width="2.0"/>
<line x1="56.7" y1="138.7" x2="43.9" y2="160.9" stroke="rgb(0,0,0)"  stroke-width="2.0"/>
<line x1="194.3" y1="173.6" x2="175.0" y2="140.2" stroke="rgb(0,0,0)"  stroke-width="2.0"/>
<line x1="175.0" y1="140.2" x2="194.3" y2="106.8" stroke="rgb(0,0,0)"  stroke-width="2.0"/>
<line x1="184.2" y1="138.6" x2="197.5" y2="115.6" stroke="rgb(0,0,0)"  stroke-width="2.0"/>
<line x1="194.3" y1="106.8" x2="232.9" y2="106.8" stroke="rgb(0,0,0)"  stroke-width="2.0"/>
<line x1="232.9" y1="106.8" x2="252.1" y2="140.2" stroke="rgb(0,0,0)"  stroke-width="2.0"/>
<line x1="229.6" y1="115.6" x2="242.9" y2="138.6" stroke="rgb(0,0,0)"  stroke-width="2.0"/>
<line x1="252.1" y1="140.2" x2="232.9" y2="173.6" stroke="rgb(0,0,0)"  stroke-width="2.0"/>
<line x1="232.9" y1="173.6" x2="194.3" y2="173.6" stroke="rgb(0,0,0)"  stroke-width="2.0"/>
<line x1="226.9" y1="166.4" x2="200.3" y2="166.4" stroke="rgb(0,0,0)"  stroke-width="2.0"/>
<text x="34.000000" y="114.807674" fill="rgb(191,191,191)"  stroke="rgb(191,191,191)" stroke-width="1" font-size="16" >H</text>
<text x="91.857143" y="109.640082" fill="rgb(191,191,191)"  stroke="rgb(191,191,191)" stroke-width="1" font-size="16" >H</text>
<text x="58.453306" y="206.068654" fill="rgb(191,191,191)"  stroke="rgb(191,191,191)" stroke-width="1" font-size="16" >H</text>
<text x="246.142857" y="81.403837" fill="rgb(191,191,191)"  stroke="rgb(191,191,191)" stroke-width="1" font-size="16" >H</text>
<text x="169.000000" y="215.019185" fill="rgb(191,191,191)"  stroke="rgb(191,191,191)" stroke-width="1" font-size="16" >H</text>
<text x="246.142857" y="215.019185" fill="rgb(191,191,191)"  stroke="rgb(191,191,191)" stroke-width="1" font-size="16" >H</text>
<text x="318.118123" y="90.354368" fill="rgb(191,191,191)"  stroke="rgb(191,191,191)" stroke-width="1" font-size="16" >H</text>
<text x="246.142857" y="109.640082" fill="rgb(191,191,191)"  stroke="rgb(191,191,191)" stroke-width="1" font-size="16" >H</text>
<text x="265.428571" y="76.236245" fill="rgb(191,191,191)"  stroke="rgb(191,191,191)" stroke-width="1" font-size="16" >H</text>
<text x="34.000000" y="181.615348" fill="rgb(255,12,12)"  stroke="rgb(255,12,12)" stroke-width="1" font-size="16" >O</text>
<text x="125.260980" y="206.068654" fill="rgb(255,12,12)"  stroke="rgb(255,12,12)" stroke-width="1" font-size="16" >O</text>
<text x="188.285714" y="48.000000" fill="rgb(255,12,12)"  stroke="rgb(255,12,12)" stroke-width="1" font-size="16" >OH</text>
<text x="130.428571" y="81.403837" fill="rgb(255,12,12)"  stroke="rgb(255,12,12)" stroke-width="1" font-size="16" >O</text>
<text x="169.000000" y="81.403837" fill="rgb(12,12,255)"  stroke="rgb(12,12,255)" stroke-width="1" font-size="16" >N</text>
<text x="284.714286" y="186.782940" fill="rgb(255,12,12)"  stroke="rgb(255,12,12)" stroke-width="1" font-size="16" >O</text>
<text x="323.285714" y="148.211511" fill="rgb(255,12,12)"  stroke="rgb(255,12,12)" stroke-width="1" font-size="16" >O</text>
<text x="284.714286" y="148.211511" fill="rgb(178,178,0)"  stroke="rgb(178,178,0)" stroke-width="1" font-size="16" >S</text>
</svg>
</g>
<text font-size="18.000000" fill ="black" font-family="sans-serif"
x="10.000000" y="20.000000" >ZINC00153802</text>
</svg>
