<?xml version="1.0"?>
<svg version="1.1" id="topsvg"
xmlns="http://www.w3.org/2000/svg" xmlns:xlink="http://www.w3.org/1999/xlink"
xmlns:cml="http://www.xml-cml.org/schema" x="0" y="0" width="200px" height="200px" viewBox="0 0 100 100">
<title>ZINC15635630 - Open Babel Depiction</title>
<rect x="0" y="0" width="100" height="100" fill="white"/>
<g transform="translate(0,0)">
<svg width="100" height="100" x="0" y="0" viewBox="0 0 350.457 267.228"
font-family="sans-serif" stroke="rgb(0,0,0)" stroke-width="2"  stroke-linecap="round">
<line x1="76.7" y1="159.3" x2="52.4" y2="151.3" stroke="rgb(0,0,0)"  stroke-width="2.0"/>
<line x1="108.0" y1="136.6" x2="108.0" y2="97.9" stroke="rgb(0,0,0)"  stroke-width="2.0"/>
<line x1="151.6" y1="155.2" x2="212.7" y2="135.4" stroke="rgb(0,0,0)"  stroke-width="2.0"/>
<line x1="127.3" y1="196.0" x2="142.3" y2="216.7" stroke="rgb(0,0,0)"  stroke-width="2.0"/>
<line x1="212.7" y1="135.4" x2="209.8" y2="109.9" stroke="rgb(0,0,0)"  stroke-width="2.0"/>
<line x1="218.7" y1="173.5" x2="194.0" y2="180.2" stroke="rgb(0,0,0)"  stroke-width="2.0"/>
<line x1="218.7" y1="173.5" x2="212.1" y2="198.3" stroke="rgb(0,0,0)"  stroke-width="2.0"/>
<line x1="256.9" y1="179.6" x2="255.5" y2="205.2" stroke="rgb(0,0,0)"  stroke-width="2.0"/>
<line x1="256.9" y1="179.6" x2="278.4" y2="193.5" stroke="rgb(0,0,0)"  stroke-width="2.0"/>
<line x1="274.4" y1="145.2" x2="298.3" y2="154.3" stroke="rgb(0,0,0)"  stroke-width="2.0"/>
<line x1="274.4" y1="145.2" x2="294.3" y2="129.0" stroke="rgb(0,0,0)"  stroke-width="2.0"/>
<line x1="247.1" y1="117.9" x2="263.2" y2="97.9" stroke="rgb(0,0,0)"  stroke-width="2.0"/>
<line x1="247.1" y1="117.9" x2="237.9" y2="93.9" stroke="rgb(0,0,0)"  stroke-width="2.0"/>
<line x1="108.0" y1="97.9" x2="130.2" y2="85.1" stroke="rgb(0,0,0)"  stroke-width="2.0"/>
<line x1="108.0" y1="97.9" x2="95.2" y2="75.7" stroke="rgb(0,0,0)"  stroke-width="2.0"/>
<line x1="108.0" y1="97.9" x2="82.4" y2="97.9" stroke="rgb(0,0,0)"  stroke-width="2.0"/>
<line x1="141.4" y1="65.6" x2="141.4" y2="53.0" stroke="rgb(0,0,0)"  stroke-width="2.0"/>
<line x1="81.0" y1="206.5" x2="73.6" y2="216.7" stroke="rgb(0,0,0)"  stroke-width="2.0"/>
<line x1="108.0" y1="136.6" x2="76.7" y2="159.3" stroke="rgb(0,0,0)"  stroke-width="2.0"/>
<line x1="107.4" y1="145.9" x2="85.8" y2="161.6" stroke="rgb(0,0,0)"  stroke-width="2.0"/>
<line x1="76.7" y1="159.3" x2="84.6" y2="183.6" stroke="rgb(0,0,0)"  stroke-width="2.0"/>
<line x1="101.4" y1="196.0" x2="127.3" y2="196.0" stroke="rgb(0,0,0)"  stroke-width="2.0"/>
<line x1="103.5" y1="188.8" x2="121.3" y2="188.8" stroke="rgb(0,0,0)"  stroke-width="2.0"/>
<line x1="127.3" y1="196.0" x2="135.2" y2="171.6" stroke="rgb(0,0,0)"  stroke-width="2.0"/>
<line x1="128.7" y1="151.6" x2="108.0" y2="136.6" stroke="rgb(0,0,0)"  stroke-width="2.0"/>
<line x1="256.9" y1="179.6" x2="274.4" y2="145.2" stroke="rgb(0,0,0)"  stroke-width="2.0"/>
<line x1="274.4" y1="145.2" x2="247.1" y2="117.9" stroke="rgb(0,0,0)"  stroke-width="2.0"/>
<line x1="247.1" y1="117.9" x2="212.7" y2="135.4" stroke="rgb(0,0,0)"  stroke-width="2.0"/>
<line x1="212.7" y1="135.4" x2="218.7" y2="173.5" stroke="rgb(0,0,0)"  stroke-width="2.0"/>
<line x1="218.7" y1="173.5" x2="256.9" y2="179.6" stroke="rgb(0,0,0)"  stroke-width="2.0"/>
<text x="202.292381" y="105.012961" fill="rgb(191,191,191)"  stroke="rgb(191,191,191)" stroke-width="1" font-size="16" >H</text>
<text x="59.964236" y="235.227649" fill="rgb(191,191,191)"  stroke="rgb(191,191,191)" stroke-width="1" font-size="16" >H</text>
<text x="82.664908" y="203.982855" fill="rgb(12,12,255)"  stroke="rgb(12,12,255)" stroke-width="1" font-size="16" >N</text>
<text x="135.421751" y="48.000000" fill="rgb(191,191,191)"  stroke="rgb(191,191,191)" stroke-width="1" font-size="16" >H</text>
<text x="63.354563" y="105.931034" fill="rgb(191,191,191)"  stroke="rgb(191,191,191)" stroke-width="1" font-size="16" >H</text>
<text x="82.664908" y="72.484536" fill="rgb(191,191,191)"  stroke="rgb(191,191,191)" stroke-width="1" font-size="16" >H</text>
<text x="227.251833" y="89.794551" fill="rgb(191,191,191)"  stroke="rgb(191,191,191)" stroke-width="1" font-size="16" >H</text>
<text x="265.397038" y="95.836158" fill="rgb(191,191,191)"  stroke="rgb(191,191,191)" stroke-width="1" font-size="16" >H</text>
<text x="298.415115" y="128.854235" fill="rgb(191,191,191)"  stroke="rgb(191,191,191)" stroke-width="1" font-size="16" >H</text>
<text x="304.456722" y="166.999440" fill="rgb(191,191,191)"  stroke="rgb(191,191,191)" stroke-width="1" font-size="16" >H</text>
<text x="283.257812" y="208.604644" fill="rgb(191,191,191)"  stroke="rgb(191,191,191)" stroke-width="1" font-size="16" >H</text>
<text x="248.846525" y="226.138070" fill="rgb(191,191,191)"  stroke="rgb(191,191,191)" stroke-width="1" font-size="16" >H</text>
<text x="202.726801" y="218.833424" fill="rgb(191,191,191)"  stroke="rgb(191,191,191)" stroke-width="1" font-size="16" >H</text>
<text x="175.417850" y="191.524472" fill="rgb(191,191,191)"  stroke="rgb(191,191,191)" stroke-width="1" font-size="16" >H</text>
<text x="143.986269" y="235.227649" fill="rgb(191,191,191)"  stroke="rgb(191,191,191)" stroke-width="1" font-size="16" >H</text>
<text x="34.000000" y="155.317947" fill="rgb(191,191,191)"  stroke="rgb(191,191,191)" stroke-width="1" font-size="16" >H</text>
<text x="135.421751" y="86.620690" fill="rgb(255,12,12)"  stroke="rgb(255,12,12)" stroke-width="1" font-size="16" >O</text>
<text x="133.220047" y="167.252396" fill="rgb(12,12,255)"  stroke="rgb(12,12,255)" stroke-width="1" font-size="16" >N</text>
</svg>
</g>
<text font-size="18.000000" fill ="black" font-family="sans-serif"
x="10.000000" y="20.000000" >ZINC15635630</text>
</svg>
