<?xml version="1.0"?>
<svg version="1.1" id="topsvg"
xmlns="http://www.w3.org/2000/svg" xmlns:xlink="http://www.w3.org/1999/xlink"
xmlns:cml="http://www.xml-cml.org/schema" x="0" y="0" width="200px" height="200px" viewBox="0 0 100 100">
<title>ZINC00537891 - Open Babel Depiction</title>
<rect x="0" y="0" width="100" height="100" fill="white"/>
<g transform="translate(0,0)">
<svg width="100" height="100" x="0" y="0" viewBox="0 0 329.545 317.531"
font-family="sans-serif" stroke="rgb(0,0,0)" stroke-width="2"  stroke-linecap="round">
<line x1="250.5" y1="230.7" x2="221.9" y2="202.1" stroke="rgb(0,0,0)"  stroke-width="2.0"/>
<line x1="250.5" y1="230.7" x2="257.6" y2="257.2" stroke="rgb(0,0,0)"  stroke-width="2.0"/>
<line x1="250.5" y1="230.7" x2="231.1" y2="250.1" stroke="rgb(0,0,0)"  stroke-width="2.0"/>
<line x1="250.5" y1="230.7" x2="277.0" y2="223.6" stroke="rgb(0,0,0)"  stroke-width="2.0"/>
<polygon points="221.912364 202.096779 228.581723 175.543017 235.972760 178.604485 " stroke-width="2.000000" fill="rgb(0,0,0)"  stroke="rgb(0,0,0)" />
<line x1="201.7" y1="237.1" x2="225.5" y2="250.8" stroke="rgb(0,0,0)"  stroke-width="2.0"/>
<line x1="201.7" y1="237.1" x2="201.7" y2="264.5" stroke="rgb(0,0,0)"  stroke-width="2.0"/>
<line x1="210.9" y1="137.3" x2="238.0" y2="133.2" stroke="rgb(0,0,0)"  stroke-width="2.0"/>
<line x1="193.3" y1="111.6" x2="213.5" y2="76.6" stroke="rgb(0,0,0)"  stroke-width="2.0"/>
<line x1="162.3" y1="109.2" x2="152.2" y2="83.7" stroke="rgb(0,0,0)"  stroke-width="2.0"/>
<line x1="155.6" y1="61.4" x2="164.6" y2="50.2" stroke="rgb(0,0,0)"  stroke-width="2.0"/>
<line x1="100.6" y1="132.1" x2="86.9" y2="108.3" stroke="rgb(0,0,0)"  stroke-width="2.0"/>
<line x1="80.4" y1="167.1" x2="53.0" y2="167.1" stroke="rgb(0,0,0)"  stroke-width="2.0"/>
<line x1="102.0" y1="199.4" x2="152.6" y2="226.4" stroke="rgb(0,0,0)"  stroke-width="2.0"/>
<line x1="99.2" y1="204.7" x2="149.8" y2="231.7" stroke="rgb(0,0,0)"  stroke-width="2.0"/>
<line x1="195.3" y1="216.3" x2="207.7" y2="237.7" stroke="rgb(0,0,0)"  stroke-width="2.0"/>
<line x1="195.3" y1="216.3" x2="220.0" y2="216.3" stroke="rgb(0,0,0)"  stroke-width="2.0"/>
<line x1="195.3" y1="178.6" x2="220.0" y2="178.6" stroke="rgb(0,0,0)"  stroke-width="2.0"/>
<line x1="195.3" y1="178.6" x2="207.7" y2="157.2" stroke="rgb(0,0,0)"  stroke-width="2.0"/>
<line x1="169.2" y1="148.5" x2="200.4" y2="94.5" stroke="rgb(0,0,0)"  stroke-width="2.0"/>
<line x1="154.5" y1="147.2" x2="155.9" y2="146.4" stroke="rgb(0,0,0)"  stroke-width="1.0"/>
<line x1="152.9" y1="145.7" x2="155.4" y2="144.3" stroke="rgb(0,0,0)"  stroke-width="1.0"/>
<line x1="151.3" y1="144.3" x2="154.9" y2="142.2" stroke="rgb(0,0,0)"  stroke-width="1.0"/>
<line x1="149.7" y1="142.8" x2="154.5" y2="140.1" stroke="rgb(0,0,0)"  stroke-width="1.0"/>
<line x1="148.2" y1="141.4" x2="154.0" y2="138.0" stroke="rgb(0,0,0)"  stroke-width="1.0"/>
<line x1="146.6" y1="139.9" x2="153.5" y2="135.9" stroke="rgb(0,0,0)"  stroke-width="1.0"/>
<line x1="130.0" y1="178.6" x2="117.7" y2="157.2" stroke="rgb(0,0,0)"  stroke-width="2.0"/>
<line x1="130.0" y1="178.6" x2="105.3" y2="178.6" stroke="rgb(0,0,0)"  stroke-width="2.0"/>
<line x1="130.0" y1="216.3" x2="105.3" y2="216.3" stroke="rgb(0,0,0)"  stroke-width="2.0"/>
<line x1="130.0" y1="216.3" x2="117.7" y2="237.7" stroke="rgb(0,0,0)"  stroke-width="2.0"/>
<line x1="200.4" y1="94.5" x2="200.4" y2="69.8" stroke="rgb(0,0,0)"  stroke-width="2.0"/>
<line x1="200.4" y1="94.5" x2="179.0" y2="82.1" stroke="rgb(0,0,0)"  stroke-width="2.0"/>
<line x1="200.4" y1="94.5" x2="222.8" y2="104.9" stroke="rgb(0,0,0)"  stroke-width="2.0"/>
<line x1="210.9" y1="78.1" x2="197.2" y2="54.3" stroke="rgb(0,0,0)"  stroke-width="2.0"/>
<line x1="216.1" y1="75.1" x2="202.4" y2="51.3" stroke="rgb(0,0,0)"  stroke-width="2.0"/>
<line x1="213.5" y1="76.6" x2="241.0" y2="76.6" stroke="rgb(0,0,0)"  stroke-width="2.0"/>
<line x1="162.3" y1="109.2" x2="193.3" y2="111.6" stroke="rgb(0,0,0)"  stroke-width="2.0"/>
<line x1="193.3" y1="111.6" x2="210.9" y2="137.3" stroke="rgb(0,0,0)"  stroke-width="2.0"/>
<line x1="190.8" y1="120.6" x2="201.6" y2="136.4" stroke="rgb(0,0,0)"  stroke-width="2.0"/>
<line x1="210.9" y1="137.3" x2="205.5" y2="154.7" stroke="rgb(0,0,0)"  stroke-width="2.0"/>
<line x1="188.7" y1="167.1" x2="161.3" y2="167.1" stroke="rgb(0,0,0)"  stroke-width="2.0"/>
<line x1="161.3" y1="167.1" x2="141.1" y2="132.1" stroke="rgb(0,0,0)"  stroke-width="2.0"/>
<line x1="141.1" y1="132.1" x2="162.3" y2="109.2" stroke="rgb(0,0,0)"  stroke-width="2.0"/>
<line x1="150.4" y1="132.6" x2="163.5" y2="118.5" stroke="rgb(0,0,0)"  stroke-width="2.0"/>
<line x1="80.4" y1="167.1" x2="100.6" y2="132.1" stroke="rgb(0,0,0)"  stroke-width="2.0"/>
<line x1="89.7" y1="165.5" x2="103.9" y2="140.9" stroke="rgb(0,0,0)"  stroke-width="2.0"/>
<line x1="100.6" y1="132.1" x2="141.1" y2="132.1" stroke="rgb(0,0,0)"  stroke-width="2.0"/>
<line x1="161.3" y1="167.1" x2="141.1" y2="202.1" stroke="rgb(0,0,0)"  stroke-width="2.0"/>
<line x1="152.0" y1="168.7" x2="137.8" y2="193.3" stroke="rgb(0,0,0)"  stroke-width="2.0"/>
<line x1="141.1" y1="202.1" x2="100.6" y2="202.1" stroke="rgb(0,0,0)"  stroke-width="2.0"/>
<line x1="100.6" y1="202.1" x2="80.4" y2="167.1" stroke="rgb(0,0,0)"  stroke-width="2.0"/>
<line x1="154.8" y1="225.8" x2="141.1" y2="202.1" stroke="rgb(0,0,0)"  stroke-width="2.0"/>
<line x1="208.2" y1="178.3" x2="221.9" y2="202.1" stroke="rgb(0,0,0)"  stroke-width="2.0"/>
<line x1="221.9" y1="202.1" x2="201.7" y2="237.1" stroke="rgb(0,0,0)"  stroke-width="2.0"/>
<line x1="201.7" y1="237.1" x2="174.3" y2="237.1" stroke="rgb(0,0,0)"  stroke-width="2.0"/>
<line x1="195.3" y1="178.6" x2="173.9" y2="166.3" stroke="rgb(0,0,0)"  stroke-width="2.0"/>
<line x1="151.4" y1="166.3" x2="130.0" y2="178.6" stroke="rgb(0,0,0)"  stroke-width="2.0"/>
<line x1="130.0" y1="178.6" x2="130.0" y2="216.3" stroke="rgb(0,0,0)"  stroke-width="2.0"/>
<line x1="130.0" y1="216.3" x2="151.4" y2="228.7" stroke="rgb(0,0,0)"  stroke-width="2.0"/>
<line x1="173.9" y1="228.7" x2="195.3" y2="216.3" stroke="rgb(0,0,0)"  stroke-width="2.0"/>
<line x1="195.3" y1="216.3" x2="195.3" y2="178.6" stroke="rgb(0,0,0)"  stroke-width="2.0"/>
<text x="227.029514" y="224.331853" fill="rgb(191,191,191)"  stroke="rgb(191,191,191)" stroke-width="1" font-size="16" >H</text>
<text x="187.331133" y="49.546619" fill="rgb(255,12,12)"  stroke="rgb(255,12,12)" stroke-width="1" font-size="16" >O</text>
<text x="247.968587" y="84.555670" fill="rgb(255,12,12)"  stroke="rgb(255,12,12)" stroke-width="1" font-size="16" >OH</text>
<text x="254.959887" y="277.729071" fill="rgb(191,191,191)"  stroke="rgb(191,191,191)" stroke-width="1" font-size="16" >H</text>
<text x="215.912364" y="267.266319" fill="rgb(191,191,191)"  stroke="rgb(191,191,191)" stroke-width="1" font-size="16" >H</text>
<text x="283.544657" y="228.218797" fill="rgb(191,191,191)"  stroke="rgb(191,191,191)" stroke-width="1" font-size="16" >H</text>
<text x="230.708930" y="265.318314" fill="rgb(191,191,191)"  stroke="rgb(191,191,191)" stroke-width="1" font-size="16" >H</text>
<text x="195.699879" y="285.530799" fill="rgb(191,191,191)"  stroke="rgb(191,191,191)" stroke-width="1" font-size="16" >H</text>
<text x="244.858198" y="139.286107" fill="rgb(191,191,191)"  stroke="rgb(191,191,191)" stroke-width="1" font-size="16" >H</text>
<text x="74.424970" y="105.069626" fill="rgb(191,191,191)"  stroke="rgb(191,191,191)" stroke-width="1" font-size="16" >H</text>
<text x="208.179684" y="256.980715" fill="rgb(191,191,191)"  stroke="rgb(191,191,191)" stroke-width="1" font-size="16" >H</text>
<text x="34.000000" y="175.087728" fill="rgb(127,178,255)"  stroke="rgb(127,178,255)" stroke-width="1" font-size="16" >F</text>
<text x="227.029514" y="186.632194" fill="rgb(191,191,191)"  stroke="rgb(191,191,191)" stroke-width="1" font-size="16" >H</text>
<text x="208.179684" y="153.983332" fill="rgb(191,191,191)"  stroke="rgb(191,191,191)" stroke-width="1" font-size="16" >H</text>
<text x="105.182302" y="153.983332" fill="rgb(191,191,191)"  stroke="rgb(191,191,191)" stroke-width="1" font-size="16" >H</text>
<text x="86.332472" y="186.632194" fill="rgb(191,191,191)"  stroke="rgb(191,191,191)" stroke-width="1" font-size="16" >H</text>
<text x="86.332472" y="224.331853" fill="rgb(191,191,191)"  stroke="rgb(191,191,191)" stroke-width="1" font-size="16" >H</text>
<text x="105.182302" y="256.980715" fill="rgb(191,191,191)"  stroke="rgb(191,191,191)" stroke-width="1" font-size="16" >H</text>
<text x="194.380652" y="64.784982" fill="rgb(191,191,191)"  stroke="rgb(191,191,191)" stroke-width="1" font-size="16" >H</text>
<text x="161.731790" y="83.634811" fill="rgb(191,191,191)"  stroke="rgb(191,191,191)" stroke-width="1" font-size="16" >H</text>
<text x="228.576984" y="118.355214" fill="rgb(191,191,191)"  stroke="rgb(191,191,191)" stroke-width="1" font-size="16" >H</text>
<text x="137.831164" y="135.133503" fill="rgb(191,191,191)"  stroke="rgb(191,191,191)" stroke-width="1" font-size="16" >H</text>
<text x="166.692935" y="48.000000" fill="rgb(191,191,191)"  stroke="rgb(191,191,191)" stroke-width="1" font-size="16" >H</text>
<text x="231.382330" y="172.748976" fill="rgb(191,191,191)"  stroke="rgb(191,191,191)" stroke-width="1" font-size="16" >H</text>
<text x="155.274909" y="245.105829" fill="rgb(255,12,12)"  stroke="rgb(255,12,12)" stroke-width="1" font-size="16" >O</text>
<text x="195.699879" y="175.087728" fill="rgb(12,12,255)"  stroke="rgb(12,12,255)" stroke-width="1" font-size="16" >N</text>
<text x="141.488378" y="79.605514" fill="rgb(255,12,12)"  stroke="rgb(255,12,12)" stroke-width="1" font-size="16" >O</text>
<text x="156.680993" y="243.181682" fill="rgb(12,12,255)"  stroke="rgb(12,12,255)" stroke-width="1" font-size="16" >N</text>
<text x="167.480993" y="155.750365" fill="rgb(12,12,255)"  stroke="rgb(12,12,255)" stroke-width="1" font-size="16" >+</text>
<text x="156.680993" y="167.782365" fill="rgb(12,12,255)"  stroke="rgb(12,12,255)" stroke-width="1" font-size="16" >N</text>
</svg>
</g>
<text font-size="18.000000" fill ="black" font-family="sans-serif"
x="10.000000" y="20.000000" >ZINC00537891</text>
</svg>
