<?xml version="1.0"?>
<svg version="1.1" id="topsvg"
xmlns="http://www.w3.org/2000/svg" xmlns:xlink="http://www.w3.org/1999/xlink"
xmlns:cml="http://www.xml-cml.org/schema" x="0" y="0" width="200px" height="200px" viewBox="0 0 100 100">
<title>ZINC22913489 - Open Babel Depiction</title>
<rect x="0" y="0" width="100" height="100" fill="white"/>
<g transform="translate(0,0)">
<svg width="100" height="100" x="0" y="0" viewBox="0 0 443.263 343.895"
font-family="sans-serif" stroke="rgb(0,0,0)" stroke-width="2"  stroke-linecap="round">
<line x1="366.4" y1="76.8" x2="348.6" y2="94.6" stroke="rgb(0,0,0)"  stroke-width="2.0"/>
<line x1="366.4" y1="76.8" x2="372.9" y2="52.6" stroke="rgb(0,0,0)"  stroke-width="2.0"/>
<line x1="366.4" y1="76.8" x2="348.6" y2="59.1" stroke="rgb(0,0,0)"  stroke-width="2.0"/>
<line x1="366.4" y1="76.8" x2="390.7" y2="83.3" stroke="rgb(0,0,0)"  stroke-width="2.0"/>
<line x1="326.9" y1="100.4" x2="302.6" y2="93.9" stroke="rgb(0,0,0)"  stroke-width="2.0"/>
<line x1="302.6" y1="93.9" x2="275.6" y2="120.9" stroke="rgb(0,0,0)"  stroke-width="2.0"/>
<line x1="302.6" y1="93.9" x2="284.8" y2="76.2" stroke="rgb(0,0,0)"  stroke-width="2.0"/>
<line x1="302.6" y1="93.9" x2="309.1" y2="69.7" stroke="rgb(0,0,0)"  stroke-width="2.0"/>
<line x1="275.6" y1="120.9" x2="295.4" y2="194.6" stroke="rgb(0,0,0)"  stroke-width="2.0"/>
<line x1="275.6" y1="120.9" x2="251.4" y2="127.4" stroke="rgb(0,0,0)"  stroke-width="2.0"/>
<line x1="275.6" y1="120.9" x2="257.9" y2="103.1" stroke="rgb(0,0,0)"  stroke-width="2.0"/>
<polygon points="295.388139 194.586095 321.245118 193.955715 320.200909 201.887274 " stroke-width="2.000000" fill="rgb(0,0,0)"  stroke="rgb(0,0,0)" />
<line x1="257.2" y1="194.6" x2="257.2" y2="169.4" stroke="rgb(0,0,0)"  stroke-width="2.0"/>
<line x1="257.2" y1="194.6" x2="235.5" y2="182.0" stroke="rgb(0,0,0)"  stroke-width="2.0"/>
<line x1="226.9" y1="221.1" x2="172.1" y2="189.5" stroke="rgb(0,0,0)"  stroke-width="2.0"/>
<polygon points="227.279001 233.908924 218.048867 243.856747 214.048867 236.928543 " stroke-width="2.000000" fill="rgb(0,0,0)"  stroke="rgb(0,0,0)" />
<line x1="257.2" y1="260.6" x2="235.5" y2="273.2" stroke="rgb(0,0,0)"  stroke-width="2.0"/>
<line x1="257.2" y1="260.6" x2="257.2" y2="285.8" stroke="rgb(0,0,0)"  stroke-width="2.0"/>
<line x1="295.4" y1="260.6" x2="295.4" y2="285.8" stroke="rgb(0,0,0)"  stroke-width="2.0"/>
<line x1="295.4" y1="260.6" x2="317.2" y2="273.2" stroke="rgb(0,0,0)"  stroke-width="2.0"/>
<line x1="327.5" y1="227.6" x2="339.6" y2="227.6" stroke="rgb(0,0,0)"  stroke-width="2.0"/>
<line x1="172.1" y1="189.5" x2="139.1" y2="208.5" stroke="rgb(0,0,0)"  stroke-width="2.0"/>
<line x1="172.1" y1="189.5" x2="159.5" y2="167.7" stroke="rgb(0,0,0)"  stroke-width="2.0"/>
<line x1="172.1" y1="189.5" x2="184.7" y2="167.7" stroke="rgb(0,0,0)"  stroke-width="2.0"/>
<line x1="139.1" y1="246.7" x2="160.9" y2="259.3" stroke="rgb(0,0,0)"  stroke-width="2.0"/>
<line x1="106.1" y1="265.8" x2="106.1" y2="290.9" stroke="rgb(0,0,0)"  stroke-width="2.0"/>
<line x1="73.0" y1="246.7" x2="51.3" y2="259.3" stroke="rgb(0,0,0)"  stroke-width="2.0"/>
<line x1="73.0" y1="208.5" x2="51.3" y2="196.0" stroke="rgb(0,0,0)"  stroke-width="2.0"/>
<line x1="106.1" y1="189.5" x2="106.1" y2="164.3" stroke="rgb(0,0,0)"  stroke-width="2.0"/>
<line x1="106.1" y1="265.8" x2="73.0" y2="246.7" stroke="rgb(0,0,0)"  stroke-width="2.0"/>
<line x1="73.0" y1="246.7" x2="73.0" y2="208.5" stroke="rgb(0,0,0)"  stroke-width="2.0"/>
<line x1="80.2" y1="240.7" x2="80.2" y2="214.5" stroke="rgb(0,0,0)"  stroke-width="2.0"/>
<line x1="73.0" y1="208.5" x2="106.1" y2="189.5" stroke="rgb(0,0,0)"  stroke-width="2.0"/>
<line x1="106.1" y1="189.5" x2="139.1" y2="208.5" stroke="rgb(0,0,0)"  stroke-width="2.0"/>
<line x1="107.7" y1="198.7" x2="130.3" y2="211.8" stroke="rgb(0,0,0)"  stroke-width="2.0"/>
<line x1="139.1" y1="208.5" x2="139.1" y2="246.7" stroke="rgb(0,0,0)"  stroke-width="2.0"/>
<line x1="139.1" y1="246.7" x2="106.1" y2="265.8" stroke="rgb(0,0,0)"  stroke-width="2.0"/>
<line x1="130.3" y1="243.5" x2="107.7" y2="256.5" stroke="rgb(0,0,0)"  stroke-width="2.0"/>
<line x1="244.7" y1="238.9" x2="257.2" y2="260.6" stroke="rgb(0,0,0)"  stroke-width="2.0"/>
<line x1="257.2" y1="260.6" x2="295.4" y2="260.6" stroke="rgb(0,0,0)"  stroke-width="2.0"/>
<line x1="295.4" y1="260.6" x2="308.0" y2="238.9" stroke="rgb(0,0,0)"  stroke-width="2.0"/>
<line x1="308.0" y1="216.4" x2="295.4" y2="194.6" stroke="rgb(0,0,0)"  stroke-width="2.0"/>
<line x1="295.4" y1="194.6" x2="257.2" y2="194.6" stroke="rgb(0,0,0)"  stroke-width="2.0"/>
<line x1="257.2" y1="194.6" x2="244.7" y2="216.4" stroke="rgb(0,0,0)"  stroke-width="2.0"/>
<text x="322.417945" y="287.715474" fill="rgb(191,191,191)"  stroke="rgb(191,191,191)" stroke-width="1" font-size="16" >H</text>
<text x="269.645663" y="74.968724" fill="rgb(191,191,191)"  stroke="rgb(191,191,191)" stroke-width="1" font-size="16" >H</text>
<text x="306.485625" y="65.097486" fill="rgb(191,191,191)"  stroke="rgb(191,191,191)" stroke-width="1" font-size="16" >H</text>
<text x="232.805701" y="138.777409" fill="rgb(191,191,191)"  stroke="rgb(191,191,191)" stroke-width="1" font-size="16" >H</text>
<text x="242.676939" y="101.937447" fill="rgb(191,191,191)"  stroke="rgb(191,191,191)" stroke-width="1" font-size="16" >H</text>
<text x="251.248604" y="164.446560" fill="rgb(191,191,191)"  stroke="rgb(191,191,191)" stroke-width="1" font-size="16" >H</text>
<text x="218.218798" y="183.516327" fill="rgb(191,191,191)"  stroke="rgb(191,191,191)" stroke-width="1" font-size="16" >H</text>
<text x="218.218798" y="287.715474" fill="rgb(191,191,191)"  stroke="rgb(191,191,191)" stroke-width="1" font-size="16" >H</text>
<text x="251.248604" y="306.785242" fill="rgb(191,191,191)"  stroke="rgb(191,191,191)" stroke-width="1" font-size="16" >H</text>
<text x="289.388139" y="306.785242" fill="rgb(191,191,191)"  stroke="rgb(191,191,191)" stroke-width="1" font-size="16" >H</text>
<text x="397.263034" y="94.711200" fill="rgb(191,191,191)"  stroke="rgb(191,191,191)" stroke-width="1" font-size="16" >H</text>
<text x="147.049457" y="164.446560" fill="rgb(191,191,191)"  stroke="rgb(191,191,191)" stroke-width="1" font-size="16" >H</text>
<text x="185.188992" y="164.446560" fill="rgb(191,191,191)"  stroke="rgb(191,191,191)" stroke-width="1" font-size="16" >H</text>
<text x="166.119224" y="273.755436" fill="rgb(191,191,191)"  stroke="rgb(191,191,191)" stroke-width="1" font-size="16" >H</text>
<text x="100.059612" y="311.894971" fill="rgb(191,191,191)"  stroke="rgb(191,191,191)" stroke-width="1" font-size="16" >H</text>
<text x="34.000000" y="273.755436" fill="rgb(191,191,191)"  stroke="rgb(191,191,191)" stroke-width="1" font-size="16" >H</text>
<text x="34.000000" y="197.476366" fill="rgb(191,191,191)"  stroke="rgb(191,191,191)" stroke-width="1" font-size="16" >H</text>
<text x="100.059612" y="159.336831" fill="rgb(191,191,191)"  stroke="rgb(191,191,191)" stroke-width="1" font-size="16" >H</text>
<text x="346.597441" y="235.615901" fill="rgb(191,191,191)"  stroke="rgb(191,191,191)" stroke-width="1" font-size="16" >H</text>
<text x="199.149030" y="254.685668" fill="rgb(191,191,191)"  stroke="rgb(191,191,191)" stroke-width="1" font-size="16" >H</text>
<text x="308.457906" y="235.615901" fill="rgb(12,12,255)"  stroke="rgb(12,12,255)" stroke-width="1" font-size="16" >N</text>
<text x="333.454348" y="111.808685" fill="rgb(178,178,0)"  stroke="rgb(178,178,0)" stroke-width="1" font-size="16" >S</text>
<text x="327.201385" y="207.564303" fill="rgb(191,191,191)"  stroke="rgb(191,191,191)" stroke-width="1" font-size="16" >H</text>
<text x="242.978837" y="223.583901" fill="rgb(12,12,255)"  stroke="rgb(12,12,255)" stroke-width="1" font-size="16" >+</text>
<text x="232.178837" y="235.615901" fill="rgb(12,12,255)"  stroke="rgb(12,12,255)" stroke-width="1" font-size="16" >N</text>
<text x="370.294310" y="48.000000" fill="rgb(191,191,191)"  stroke="rgb(191,191,191)" stroke-width="1" font-size="16" >H</text>
<text x="333.454348" y="57.871238" fill="rgb(191,191,191)"  stroke="rgb(191,191,191)" stroke-width="1" font-size="16" >H</text>
</svg>
</g>
<text font-size="18.000000" fill ="black" font-family="sans-serif"
x="10.000000" y="20.000000" >ZINC22913489</text>
</svg>
