<?xml version="1.0"?>
<svg version="1.1" id="topsvg"
xmlns="http://www.w3.org/2000/svg" xmlns:xlink="http://www.w3.org/1999/xlink"
xmlns:cml="http://www.xml-cml.org/schema" x="0" y="0" width="200px" height="200px" viewBox="0 0 100 100">
<title>ZINC86012812 - Open Babel Depiction</title>
<rect x="0" y="0" width="100" height="100" fill="white"/>
<g transform="translate(0,0)">
<svg width="100" height="100" x="0" y="0" viewBox="0 0 409.802 372.667"
font-family="sans-serif" stroke="rgb(0,0,0)" stroke-width="2"  stroke-linecap="round">
<line x1="317.2" y1="78.5" x2="339.3" y2="65.8" stroke="rgb(0,0,0)"  stroke-width="2.0"/>
<line x1="317.2" y1="78.5" x2="317.2" y2="53.0" stroke="rgb(0,0,0)"  stroke-width="2.0"/>
<line x1="278.7" y1="78.5" x2="278.7" y2="53.0" stroke="rgb(0,0,0)"  stroke-width="2.0"/>
<line x1="278.7" y1="78.5" x2="256.6" y2="65.8" stroke="rgb(0,0,0)"  stroke-width="2.0"/>
<line x1="259.4" y1="111.9" x2="237.3" y2="99.1" stroke="rgb(0,0,0)"  stroke-width="2.0"/>
<line x1="259.4" y1="111.9" x2="237.3" y2="124.6" stroke="rgb(0,0,0)"  stroke-width="2.0"/>
<line x1="278.7" y1="145.2" x2="223.2" y2="177.3" stroke="rgb(0,0,0)"  stroke-width="2.0"/>
<line x1="278.7" y1="145.2" x2="278.7" y2="170.8" stroke="rgb(0,0,0)"  stroke-width="2.0"/>
<line x1="317.2" y1="145.2" x2="317.2" y2="170.8" stroke="rgb(0,0,0)"  stroke-width="2.0"/>
<line x1="317.2" y1="145.2" x2="339.3" y2="158.0" stroke="rgb(0,0,0)"  stroke-width="2.0"/>
<line x1="336.4" y1="111.9" x2="358.5" y2="124.6" stroke="rgb(0,0,0)"  stroke-width="2.0"/>
<line x1="336.4" y1="111.9" x2="358.5" y2="99.1" stroke="rgb(0,0,0)"  stroke-width="2.0"/>
<line x1="200.7" y1="177.3" x2="156.5" y2="151.7" stroke="rgb(0,0,0)"  stroke-width="2.0"/>
<line x1="212.0" y1="196.8" x2="212.0" y2="209.3" stroke="rgb(0,0,0)"  stroke-width="2.0"/>
<line x1="145.2" y1="106.7" x2="170.8" y2="106.7" stroke="rgb(0,0,0)"  stroke-width="2.0"/>
<line x1="145.2" y1="106.7" x2="158.0" y2="84.6" stroke="rgb(0,0,0)"  stroke-width="2.0"/>
<line x1="111.9" y1="87.5" x2="124.6" y2="65.4" stroke="rgb(0,0,0)"  stroke-width="2.0"/>
<line x1="111.9" y1="87.5" x2="99.1" y2="65.4" stroke="rgb(0,0,0)"  stroke-width="2.0"/>
<line x1="78.5" y1="106.7" x2="65.8" y2="84.6" stroke="rgb(0,0,0)"  stroke-width="2.0"/>
<line x1="78.5" y1="106.7" x2="53.0" y2="106.7" stroke="rgb(0,0,0)"  stroke-width="2.0"/>
<line x1="78.5" y1="145.2" x2="53.0" y2="145.2" stroke="rgb(0,0,0)"  stroke-width="2.0"/>
<line x1="78.5" y1="145.2" x2="65.8" y2="167.3" stroke="rgb(0,0,0)"  stroke-width="2.0"/>
<line x1="111.9" y1="164.5" x2="99.1" y2="186.6" stroke="rgb(0,0,0)"  stroke-width="2.0"/>
<line x1="111.9" y1="164.5" x2="124.6" y2="186.6" stroke="rgb(0,0,0)"  stroke-width="2.0"/>
<line x1="178.6" y1="241.5" x2="165.8" y2="219.4" stroke="rgb(0,0,0)"  stroke-width="2.0"/>
<line x1="178.6" y1="241.5" x2="153.1" y2="241.5" stroke="rgb(0,0,0)"  stroke-width="2.0"/>
<line x1="178.6" y1="280.0" x2="153.1" y2="280.0" stroke="rgb(0,0,0)"  stroke-width="2.0"/>
<line x1="178.6" y1="280.0" x2="165.8" y2="302.1" stroke="rgb(0,0,0)"  stroke-width="2.0"/>
<line x1="212.0" y1="299.3" x2="199.2" y2="321.4" stroke="rgb(0,0,0)"  stroke-width="2.0"/>
<line x1="212.0" y1="299.3" x2="224.7" y2="321.4" stroke="rgb(0,0,0)"  stroke-width="2.0"/>
<line x1="245.3" y1="280.0" x2="258.1" y2="302.1" stroke="rgb(0,0,0)"  stroke-width="2.0"/>
<line x1="245.3" y1="280.0" x2="270.8" y2="280.0" stroke="rgb(0,0,0)"  stroke-width="2.0"/>
<line x1="245.3" y1="241.5" x2="270.8" y2="241.5" stroke="rgb(0,0,0)"  stroke-width="2.0"/>
<line x1="245.3" y1="241.5" x2="258.1" y2="219.4" stroke="rgb(0,0,0)"  stroke-width="2.0"/>
<line x1="259.4" y1="111.9" x2="278.7" y2="145.2" stroke="rgb(0,0,0)"  stroke-width="2.0"/>
<line x1="278.7" y1="145.2" x2="317.2" y2="145.2" stroke="rgb(0,0,0)"  stroke-width="2.0"/>
<line x1="317.2" y1="145.2" x2="336.4" y2="111.9" stroke="rgb(0,0,0)"  stroke-width="2.0"/>
<line x1="336.4" y1="111.9" x2="317.2" y2="78.5" stroke="rgb(0,0,0)"  stroke-width="2.0"/>
<line x1="317.2" y1="78.5" x2="278.7" y2="78.5" stroke="rgb(0,0,0)"  stroke-width="2.0"/>
<line x1="278.7" y1="78.5" x2="259.4" y2="111.9" stroke="rgb(0,0,0)"  stroke-width="2.0"/>
<line x1="111.9" y1="87.5" x2="78.5" y2="106.7" stroke="rgb(0,0,0)"  stroke-width="2.0"/>
<line x1="78.5" y1="106.7" x2="78.5" y2="145.2" stroke="rgb(0,0,0)"  stroke-width="2.0"/>
<line x1="78.5" y1="145.2" x2="111.9" y2="164.5" stroke="rgb(0,0,0)"  stroke-width="2.0"/>
<line x1="111.9" y1="164.5" x2="134.0" y2="151.7" stroke="rgb(0,0,0)"  stroke-width="2.0"/>
<line x1="145.2" y1="132.2" x2="145.2" y2="106.7" stroke="rgb(0,0,0)"  stroke-width="2.0"/>
<line x1="145.2" y1="106.7" x2="111.9" y2="87.5" stroke="rgb(0,0,0)"  stroke-width="2.0"/>
<line x1="178.6" y1="280.0" x2="212.0" y2="299.3" stroke="rgb(0,0,0)"  stroke-width="2.0"/>
<line x1="212.0" y1="299.3" x2="245.3" y2="280.0" stroke="rgb(0,0,0)"  stroke-width="2.0"/>
<line x1="245.3" y1="280.0" x2="245.3" y2="241.5" stroke="rgb(0,0,0)"  stroke-width="2.0"/>
<line x1="245.3" y1="241.5" x2="223.2" y2="228.8" stroke="rgb(0,0,0)"  stroke-width="2.0"/>
<line x1="200.7" y1="228.8" x2="178.6" y2="241.5" stroke="rgb(0,0,0)"  stroke-width="2.0"/>
<line x1="178.6" y1="241.5" x2="178.6" y2="280.0" stroke="rgb(0,0,0)"  stroke-width="2.0"/>
<text x="86.617275" y="205.851824" fill="rgb(191,191,191)"  stroke="rgb(191,191,191)" stroke-width="1" font-size="16" >H</text>
<text x="311.185130" y="191.753068" fill="rgb(191,191,191)"  stroke="rgb(191,191,191)" stroke-width="1" font-size="16" >H</text>
<text x="344.543146" y="172.493809" fill="rgb(191,191,191)"  stroke="rgb(191,191,191)" stroke-width="1" font-size="16" >H</text>
<text x="363.802405" y="139.135793" fill="rgb(191,191,191)"  stroke="rgb(191,191,191)" stroke-width="1" font-size="16" >H</text>
<text x="363.802405" y="100.617275" fill="rgb(191,191,191)"  stroke="rgb(191,191,191)" stroke-width="1" font-size="16" >H</text>
<text x="177.753068" y="114.716031" fill="rgb(191,191,191)"  stroke="rgb(191,191,191)" stroke-width="1" font-size="16" >H</text>
<text x="158.493809" y="81.358016" fill="rgb(191,191,191)"  stroke="rgb(191,191,191)" stroke-width="1" font-size="16" >H</text>
<text x="125.135793" y="62.098756" fill="rgb(191,191,191)"  stroke="rgb(191,191,191)" stroke-width="1" font-size="16" >H</text>
<text x="86.617275" y="62.098756" fill="rgb(191,191,191)"  stroke="rgb(191,191,191)" stroke-width="1" font-size="16" >H</text>
<text x="53.259259" y="81.358016" fill="rgb(191,191,191)"  stroke="rgb(191,191,191)" stroke-width="1" font-size="16" >H</text>
<text x="34.000000" y="114.716031" fill="rgb(191,191,191)"  stroke="rgb(191,191,191)" stroke-width="1" font-size="16" >H</text>
<text x="34.000000" y="153.234550" fill="rgb(191,191,191)"  stroke="rgb(191,191,191)" stroke-width="1" font-size="16" >H</text>
<text x="53.259259" y="186.592565" fill="rgb(191,191,191)"  stroke="rgb(191,191,191)" stroke-width="1" font-size="16" >H</text>
<text x="272.666612" y="191.753068" fill="rgb(191,191,191)"  stroke="rgb(191,191,191)" stroke-width="1" font-size="16" >H</text>
<text x="125.135793" y="205.851824" fill="rgb(191,191,191)"  stroke="rgb(191,191,191)" stroke-width="1" font-size="16" >H</text>
<text x="153.333306" y="216.172830" fill="rgb(191,191,191)"  stroke="rgb(191,191,191)" stroke-width="1" font-size="16" >H</text>
<text x="134.074047" y="249.530846" fill="rgb(191,191,191)"  stroke="rgb(191,191,191)" stroke-width="1" font-size="16" >H</text>
<text x="134.074047" y="288.049364" fill="rgb(191,191,191)"  stroke="rgb(191,191,191)" stroke-width="1" font-size="16" >H</text>
<text x="153.333306" y="321.407380" fill="rgb(191,191,191)"  stroke="rgb(191,191,191)" stroke-width="1" font-size="16" >H</text>
<text x="186.691321" y="340.666639" fill="rgb(191,191,191)"  stroke="rgb(191,191,191)" stroke-width="1" font-size="16" >H</text>
<text x="225.209840" y="340.666639" fill="rgb(191,191,191)"  stroke="rgb(191,191,191)" stroke-width="1" font-size="16" >H</text>
<text x="258.567856" y="321.407380" fill="rgb(191,191,191)"  stroke="rgb(191,191,191)" stroke-width="1" font-size="16" >H</text>
<text x="277.827115" y="288.049364" fill="rgb(191,191,191)"  stroke="rgb(191,191,191)" stroke-width="1" font-size="16" >H</text>
<text x="277.827115" y="249.530846" fill="rgb(191,191,191)"  stroke="rgb(191,191,191)" stroke-width="1" font-size="16" >H</text>
<text x="258.567856" y="216.172830" fill="rgb(191,191,191)"  stroke="rgb(191,191,191)" stroke-width="1" font-size="16" >H</text>
<text x="205.950581" y="230.271587" fill="rgb(12,12,255)"  stroke="rgb(12,12,255)" stroke-width="1" font-size="16" >N</text>
<text x="205.950581" y="191.753068" fill="rgb(255,127,0)"  stroke="rgb(255,127,0)" stroke-width="1" font-size="16" >P</text>
<text x="139.234550" y="153.234550" fill="rgb(12,12,255)"  stroke="rgb(12,12,255)" stroke-width="1" font-size="16" >N</text>
<text x="344.543146" y="67.259259" fill="rgb(191,191,191)"  stroke="rgb(191,191,191)" stroke-width="1" font-size="16" >H</text>
<text x="311.185130" y="48.000000" fill="rgb(191,191,191)"  stroke="rgb(191,191,191)" stroke-width="1" font-size="16" >H</text>
<text x="272.666612" y="48.000000" fill="rgb(191,191,191)"  stroke="rgb(191,191,191)" stroke-width="1" font-size="16" >H</text>
<text x="239.308596" y="67.259259" fill="rgb(191,191,191)"  stroke="rgb(191,191,191)" stroke-width="1" font-size="16" >H</text>
<text x="220.049337" y="100.617275" fill="rgb(191,191,191)"  stroke="rgb(191,191,191)" stroke-width="1" font-size="16" >H</text>
<text x="220.049337" y="139.135793" fill="rgb(191,191,191)"  stroke="rgb(191,191,191)" stroke-width="1" font-size="16" >H</text>
</svg>
</g>
<text font-size="18.000000" fill ="black" font-family="sans-serif"
x="10.000000" y="20.000000" >ZINC86012812</text>
</svg>
