<?xml version="1.0"?>
<svg version="1.1" id="topsvg"
xmlns="http://www.w3.org/2000/svg" xmlns:xlink="http://www.w3.org/1999/xlink"
xmlns:cml="http://www.xml-cml.org/schema" x="0" y="0" width="200px" height="200px" viewBox="0 0 100 100">
<title>ZINC00005823 - Open Babel Depiction</title>
<rect x="0" y="0" width="100" height="100" fill="white"/>
<g transform="translate(0,0)">
<svg width="100" height="100" x="0" y="0" viewBox="0 0 541.513 396.881"
font-family="sans-serif" stroke="rgb(0,0,0)" stroke-width="2"  stroke-linecap="round">
<line x1="467.6" y1="239.5" x2="433.7" y2="259.1" stroke="rgb(0,0,0)"  stroke-width="2.0"/>
<line x1="467.6" y1="239.5" x2="480.7" y2="216.9" stroke="rgb(0,0,0)"  stroke-width="2.0"/>
<line x1="467.6" y1="239.5" x2="454.6" y2="216.9" stroke="rgb(0,0,0)"  stroke-width="2.0"/>
<line x1="467.6" y1="239.5" x2="490.3" y2="252.6" stroke="rgb(0,0,0)"  stroke-width="2.0"/>
<line x1="433.7" y1="298.2" x2="456.4" y2="311.3" stroke="rgb(0,0,0)"  stroke-width="2.0"/>
<line x1="399.8" y1="317.8" x2="399.8" y2="343.9" stroke="rgb(0,0,0)"  stroke-width="2.0"/>
<line x1="366.0" y1="298.2" x2="343.3" y2="311.3" stroke="rgb(0,0,0)"  stroke-width="2.0"/>
<line x1="366.0" y1="259.1" x2="309.4" y2="226.4" stroke="rgb(0,0,0)"  stroke-width="2.0"/>
<line x1="399.8" y1="239.5" x2="399.8" y2="213.4" stroke="rgb(0,0,0)"  stroke-width="2.0"/>
<line x1="286.9" y1="226.4" x2="264.3" y2="239.5" stroke="rgb(0,0,0)"  stroke-width="2.0"/>
<line x1="298.2" y1="206.9" x2="298.2" y2="193.8" stroke="rgb(0,0,0)"  stroke-width="2.0"/>
<line x1="264.3" y1="278.6" x2="286.9" y2="291.7" stroke="rgb(0,0,0)"  stroke-width="2.0"/>
<line x1="230.4" y1="298.2" x2="230.4" y2="324.3" stroke="rgb(0,0,0)"  stroke-width="2.0"/>
<line x1="196.5" y1="239.5" x2="173.9" y2="226.4" stroke="rgb(0,0,0)"  stroke-width="2.0"/>
<line x1="230.4" y1="219.9" x2="230.4" y2="193.8" stroke="rgb(0,0,0)"  stroke-width="2.0"/>
<line x1="243.4" y1="177.8" x2="256.5" y2="177.8" stroke="rgb(0,0,0)"  stroke-width="2.0"/>
<line x1="243.4" y1="183.8" x2="256.5" y2="183.8" stroke="rgb(0,0,0)"  stroke-width="2.0"/>
<line x1="227.4" y1="167.8" x2="227.4" y2="154.7" stroke="rgb(0,0,0)"  stroke-width="2.0"/>
<line x1="233.4" y1="167.8" x2="233.4" y2="154.7" stroke="rgb(0,0,0)"  stroke-width="2.0"/>
<line x1="217.4" y1="180.8" x2="204.3" y2="180.8" stroke="rgb(0,0,0)"  stroke-width="2.0"/>
<line x1="182.2" y1="171.0" x2="169.1" y2="148.4" stroke="rgb(0,0,0)"  stroke-width="2.0"/>
<line x1="187.4" y1="168.0" x2="174.3" y2="145.4" stroke="rgb(0,0,0)"  stroke-width="2.0"/>
<line x1="171.7" y1="146.9" x2="145.6" y2="146.9" stroke="rgb(0,0,0)"  stroke-width="2.0"/>
<line x1="171.7" y1="146.9" x2="184.8" y2="124.3" stroke="rgb(0,0,0)"  stroke-width="2.0"/>
<line x1="126.1" y1="135.6" x2="113.0" y2="113.0" stroke="rgb(0,0,0)"  stroke-width="2.0"/>
<line x1="126.1" y1="158.2" x2="119.5" y2="169.5" stroke="rgb(0,0,0)"  stroke-width="2.0"/>
<line x1="113.0" y1="113.0" x2="79.1" y2="132.6" stroke="rgb(0,0,0)"  stroke-width="2.0"/>
<line x1="113.0" y1="113.0" x2="93.5" y2="79.1" stroke="rgb(0,0,0)"  stroke-width="2.0"/>
<line x1="113.0" y1="113.0" x2="135.6" y2="100.0" stroke="rgb(0,0,0)"  stroke-width="2.0"/>
<line x1="79.1" y1="132.6" x2="53.0" y2="132.6" stroke="rgb(0,0,0)"  stroke-width="2.0"/>
<line x1="79.1" y1="132.6" x2="66.1" y2="110.0" stroke="rgb(0,0,0)"  stroke-width="2.0"/>
<line x1="79.1" y1="132.6" x2="79.1" y2="158.7" stroke="rgb(0,0,0)"  stroke-width="2.0"/>
<line x1="93.5" y1="79.1" x2="93.5" y2="53.0" stroke="rgb(0,0,0)"  stroke-width="2.0"/>
<line x1="93.5" y1="79.1" x2="116.1" y2="66.1" stroke="rgb(0,0,0)"  stroke-width="2.0"/>
<line x1="93.5" y1="79.1" x2="67.3" y2="79.1" stroke="rgb(0,0,0)"  stroke-width="2.0"/>
<line x1="184.8" y1="101.8" x2="178.2" y2="90.4" stroke="rgb(0,0,0)"  stroke-width="2.0"/>
<line x1="399.8" y1="317.8" x2="366.0" y2="298.2" stroke="rgb(0,0,0)"  stroke-width="2.0"/>
<line x1="366.0" y1="298.2" x2="366.0" y2="259.1" stroke="rgb(0,0,0)"  stroke-width="2.0"/>
<line x1="373.2" y1="292.2" x2="373.2" y2="265.1" stroke="rgb(0,0,0)"  stroke-width="2.0"/>
<line x1="366.0" y1="259.1" x2="399.8" y2="239.5" stroke="rgb(0,0,0)"  stroke-width="2.0"/>
<line x1="399.8" y1="239.5" x2="433.7" y2="259.1" stroke="rgb(0,0,0)"  stroke-width="2.0"/>
<line x1="401.4" y1="248.7" x2="424.9" y2="262.3" stroke="rgb(0,0,0)"  stroke-width="2.0"/>
<line x1="433.7" y1="259.1" x2="433.7" y2="298.2" stroke="rgb(0,0,0)"  stroke-width="2.0"/>
<line x1="433.7" y1="298.2" x2="399.8" y2="317.8" stroke="rgb(0,0,0)"  stroke-width="2.0"/>
<line x1="424.9" y1="295.0" x2="401.4" y2="308.5" stroke="rgb(0,0,0)"  stroke-width="2.0"/>
<line x1="230.4" y1="298.2" x2="207.8" y2="285.1" stroke="rgb(0,0,0)"  stroke-width="2.0"/>
<line x1="196.5" y1="265.7" x2="196.5" y2="239.5" stroke="rgb(0,0,0)"  stroke-width="2.0"/>
<line x1="203.7" y1="263.6" x2="203.7" y2="245.5" stroke="rgb(0,0,0)"  stroke-width="2.0"/>
<line x1="196.5" y1="239.5" x2="230.4" y2="219.9" stroke="rgb(0,0,0)"  stroke-width="2.0"/>
<line x1="230.4" y1="219.9" x2="264.3" y2="239.5" stroke="rgb(0,0,0)"  stroke-width="2.0"/>
<line x1="232.0" y1="229.2" x2="255.5" y2="242.7" stroke="rgb(0,0,0)"  stroke-width="2.0"/>
<line x1="264.3" y1="239.5" x2="264.3" y2="278.6" stroke="rgb(0,0,0)"  stroke-width="2.0"/>
<line x1="264.3" y1="278.6" x2="230.4" y2="298.2" stroke="rgb(0,0,0)"  stroke-width="2.0"/>
<line x1="255.5" y1="275.4" x2="232.0" y2="289.0" stroke="rgb(0,0,0)"  stroke-width="2.0"/>
<text x="224.409690" y="345.316026" fill="rgb(191,191,191)"  stroke="rgb(191,191,191)" stroke-width="1" font-size="16" >H</text>
<text x="185.279255" y="121.018385" fill="rgb(255,12,12)"  stroke="rgb(255,12,12)" stroke-width="1" font-size="16" >O</text>
<text x="481.190561" y="213.601988" fill="rgb(191,191,191)"  stroke="rgb(191,191,191)" stroke-width="1" font-size="16" >H</text>
<text x="442.060126" y="213.601988" fill="rgb(191,191,191)"  stroke="rgb(191,191,191)" stroke-width="1" font-size="16" >H</text>
<text x="495.513294" y="267.055156" fill="rgb(191,191,191)"  stroke="rgb(191,191,191)" stroke-width="1" font-size="16" >H</text>
<text x="461.625344" y="325.750808" fill="rgb(191,191,191)"  stroke="rgb(191,191,191)" stroke-width="1" font-size="16" >H</text>
<text x="393.849443" y="364.881243" fill="rgb(191,191,191)"  stroke="rgb(191,191,191)" stroke-width="1" font-size="16" >H</text>
<text x="326.073541" y="325.750808" fill="rgb(191,191,191)"  stroke="rgb(191,191,191)" stroke-width="1" font-size="16" >H</text>
<text x="393.849443" y="208.359504" fill="rgb(191,191,191)"  stroke="rgb(191,191,191)" stroke-width="1" font-size="16" >H</text>
<text x="292.185591" y="188.794287" fill="rgb(191,191,191)"  stroke="rgb(191,191,191)" stroke-width="1" font-size="16" >H</text>
<text x="292.185591" y="306.185591" fill="rgb(191,191,191)"  stroke="rgb(191,191,191)" stroke-width="1" font-size="16" >H</text>
<text x="156.633789" y="227.924721" fill="rgb(191,191,191)"  stroke="rgb(191,191,191)" stroke-width="1" font-size="16" >H</text>
<text x="107.018385" y="188.794287" fill="rgb(191,191,191)"  stroke="rgb(191,191,191)" stroke-width="1" font-size="16" >H</text>
<text x="140.906336" y="101.453168" fill="rgb(191,191,191)"  stroke="rgb(191,191,191)" stroke-width="1" font-size="16" >H</text>
<text x="34.000000" y="140.583603" fill="rgb(191,191,191)"  stroke="rgb(191,191,191)" stroke-width="1" font-size="16" >H</text>
<text x="53.565217" y="106.695652" fill="rgb(191,191,191)"  stroke="rgb(191,191,191)" stroke-width="1" font-size="16" >H</text>
<text x="73.130435" y="179.714038" fill="rgb(191,191,191)"  stroke="rgb(191,191,191)" stroke-width="1" font-size="16" >H</text>
<text x="87.453168" y="48.000000" fill="rgb(191,191,191)"  stroke="rgb(191,191,191)" stroke-width="1" font-size="16" >H</text>
<text x="121.341119" y="67.565217" fill="rgb(191,191,191)"  stroke="rgb(191,191,191)" stroke-width="1" font-size="16" >H</text>
<text x="48.322733" y="87.130435" fill="rgb(191,191,191)"  stroke="rgb(191,191,191)" stroke-width="1" font-size="16" >H</text>
<text x="165.714038" y="87.130435" fill="rgb(191,191,191)"  stroke="rgb(191,191,191)" stroke-width="1" font-size="16" >H</text>
<text x="190.521739" y="286.620373" fill="rgb(12,12,255)"  stroke="rgb(12,12,255)" stroke-width="1" font-size="16" >N</text>
<text x="292.185591" y="227.924721" fill="rgb(12,12,255)"  stroke="rgb(12,12,255)" stroke-width="1" font-size="16" >N</text>
<text x="224.409690" y="188.794287" fill="rgb(178,178,0)"  stroke="rgb(178,178,0)" stroke-width="1" font-size="16" >S</text>
<text x="263.540124" y="188.794287" fill="rgb(255,12,12)"  stroke="rgb(255,12,12)" stroke-width="1" font-size="16" >O</text>
<text x="224.409690" y="149.663852" fill="rgb(255,12,12)"  stroke="rgb(255,12,12)" stroke-width="1" font-size="16" >O</text>
<text x="185.279255" y="188.794287" fill="rgb(12,12,255)"  stroke="rgb(12,12,255)" stroke-width="1" font-size="16" >N</text>
<text x="126.583603" y="154.906336" fill="rgb(12,12,255)"  stroke="rgb(12,12,255)" stroke-width="1" font-size="16" >N</text>
</svg>
</g>
<text font-size="18.000000" fill ="black" font-family="sans-serif"
x="10.000000" y="20.000000" >ZINC00005823</text>
</svg>
