<?xml version="1.0"?>
<svg version="1.1" id="topsvg"
xmlns="http://www.w3.org/2000/svg" xmlns:xlink="http://www.w3.org/1999/xlink"
xmlns:cml="http://www.xml-cml.org/schema" x="0" y="0" width="200px" height="200px" viewBox="0 0 100 100">
<title>ZINC97976251 - Open Babel Depiction</title>
<rect x="0" y="0" width="100" height="100" fill="white"/>
<g transform="translate(0,0)">
<svg width="100" height="100" x="0" y="0" viewBox="0 0 494.142 395.472"
font-family="sans-serif" stroke="rgb(0,0,0)" stroke-width="2"  stroke-linecap="round">
<line x1="192.3" y1="319.8" x2="198.4" y2="342.9" stroke="rgb(0,0,0)"  stroke-width="2.0"/>
<line x1="218.4" y1="293.7" x2="241.5" y2="299.9" stroke="rgb(0,0,0)"  stroke-width="2.0"/>
<line x1="208.8" y1="258.0" x2="234.9" y2="231.9" stroke="rgb(0,0,0)"  stroke-width="2.0"/>
<line x1="173.1" y1="248.5" x2="167.0" y2="225.4" stroke="rgb(0,0,0)"  stroke-width="2.0"/>
<line x1="156.6" y1="310.3" x2="139.7" y2="327.2" stroke="rgb(0,0,0)"  stroke-width="2.0"/>
<line x1="234.9" y1="231.9" x2="225.4" y2="196.3" stroke="rgb(0,0,0)"  stroke-width="2.0"/>
<line x1="234.9" y1="231.9" x2="258.0" y2="225.7" stroke="rgb(0,0,0)"  stroke-width="2.0"/>
<line x1="234.9" y1="231.9" x2="251.8" y2="248.8" stroke="rgb(0,0,0)"  stroke-width="2.0"/>
<polygon points="225.360683 196.260338 209.527351 176.836201 216.455554 172.836201 " stroke-width="2.000000" fill="rgb(0,0,0)"  stroke="rgb(0,0,0)" />
<line x1="225.4" y1="196.3" x2="91.8" y2="178.7" stroke="rgb(0,0,0)"  stroke-width="2.0"/>
<line x1="293.5" y1="168.2" x2="303.0" y2="173.6" stroke="rgb(0,0,0)"  stroke-width="2.0"/>
<line x1="290.5" y1="173.4" x2="300.0" y2="178.8" stroke="rgb(0,0,0)"  stroke-width="2.0"/>
<line x1="271.5" y1="149.8" x2="272.9" y2="149.0" stroke="rgb(0,0,0)"  stroke-width="1.0"/>
<line x1="269.0" y1="146.7" x2="271.4" y2="145.3" stroke="rgb(0,0,0)"  stroke-width="1.0"/>
<line x1="266.4" y1="143.6" x2="270.0" y2="141.6" stroke="rgb(0,0,0)"  stroke-width="1.0"/>
<line x1="263.9" y1="140.5" x2="268.6" y2="137.8" stroke="rgb(0,0,0)"  stroke-width="1.0"/>
<line x1="261.4" y1="137.4" x2="267.2" y2="134.1" stroke="rgb(0,0,0)"  stroke-width="1.0"/>
<line x1="258.8" y1="134.3" x2="265.7" y2="130.3" stroke="rgb(0,0,0)"  stroke-width="1.0"/>
<line x1="292.0" y1="157.8" x2="301.5" y2="152.3" stroke="rgb(0,0,0)"  stroke-width="2.0"/>
<polygon points="262.283760 132.307692 324.236405 91.920514 328.236405 98.848717 " stroke-width="2.000000" fill="rgb(0,0,0)"  stroke="rgb(0,0,0)" />
<line x1="262.3" y1="132.3" x2="262.3" y2="108.4" stroke="rgb(0,0,0)"  stroke-width="2.0"/>
<polygon points="196.346958 158.191707 183.475009 155.378886 187.475009 148.450683 " stroke-width="2.000000" fill="rgb(0,0,0)"  stroke="rgb(0,0,0)" />
<line x1="195.6" y1="170.8" x2="186.2" y2="176.2" stroke="rgb(0,0,0)"  stroke-width="2.0"/>
<line x1="326.2" y1="95.4" x2="358.2" y2="113.8" stroke="rgb(0,0,0)"  stroke-width="2.0"/>
<line x1="326.2" y1="95.4" x2="338.2" y2="74.7" stroke="rgb(0,0,0)"  stroke-width="2.0"/>
<line x1="326.2" y1="95.4" x2="314.3" y2="74.7" stroke="rgb(0,0,0)"  stroke-width="2.0"/>
<line x1="358.2" y1="150.8" x2="337.5" y2="162.7" stroke="rgb(0,0,0)"  stroke-width="2.0"/>
<line x1="390.2" y1="169.2" x2="390.2" y2="193.2" stroke="rgb(0,0,0)"  stroke-width="2.0"/>
<line x1="422.2" y1="150.8" x2="442.9" y2="162.7" stroke="rgb(0,0,0)"  stroke-width="2.0"/>
<line x1="390.2" y1="95.4" x2="390.2" y2="71.5" stroke="rgb(0,0,0)"  stroke-width="2.0"/>
<polygon points="274.468376 95.384615 287.022222 91.384615 287.022222 99.384615 " stroke-width="2.000000" fill="rgb(0,0,0)"  stroke="rgb(0,0,0)" />
<line x1="262.3" y1="82.4" x2="262.3" y2="71.5" stroke="rgb(0,0,0)"  stroke-width="2.0"/>
<line x1="249.3" y1="95.4" x2="238.4" y2="95.4" stroke="rgb(0,0,0)"  stroke-width="2.0"/>
<line x1="273.5" y1="52.0" x2="283.0" y2="46.5" stroke="rgb(0,0,0)"  stroke-width="2.0"/>
<polygon points="80.522315 164.902249 78.195141 151.933698 86.126700 152.977907 " stroke-width="2.000000" fill="rgb(0,0,0)"  stroke="rgb(0,0,0)" />
<line x1="66.0" y1="175.3" x2="55.2" y2="173.9" stroke="rgb(0,0,0)"  stroke-width="2.0"/>
<line x1="77.2" y1="189.9" x2="75.8" y2="200.7" stroke="rgb(0,0,0)"  stroke-width="2.0"/>
<line x1="62.1" y1="218.6" x2="52.0" y2="222.7" stroke="rgb(0,0,0)"  stroke-width="2.0"/>
<line x1="208.8" y1="258.0" x2="173.1" y2="248.5" stroke="rgb(0,0,0)"  stroke-width="2.0"/>
<line x1="173.1" y1="248.5" x2="155.7" y2="266.0" stroke="rgb(0,0,0)"  stroke-width="2.0"/>
<line x1="174.0" y1="257.8" x2="162.4" y2="269.4" stroke="rgb(0,0,0)"  stroke-width="2.0"/>
<line x1="150.4" y1="287.1" x2="156.6" y2="310.3" stroke="rgb(0,0,0)"  stroke-width="2.0"/>
<line x1="156.6" y1="310.3" x2="192.3" y2="319.8" stroke="rgb(0,0,0)"  stroke-width="2.0"/>
<line x1="164.3" y1="304.8" x2="188.3" y2="311.3" stroke="rgb(0,0,0)"  stroke-width="2.0"/>
<line x1="192.3" y1="319.8" x2="218.4" y2="293.7" stroke="rgb(0,0,0)"  stroke-width="2.0"/>
<line x1="218.4" y1="293.7" x2="208.8" y2="258.0" stroke="rgb(0,0,0)"  stroke-width="2.0"/>
<line x1="209.9" y1="289.8" x2="203.4" y2="265.7" stroke="rgb(0,0,0)"  stroke-width="2.0"/>
<line x1="390.2" y1="169.2" x2="422.2" y2="150.8" stroke="rgb(0,0,0)"  stroke-width="2.0"/>
<line x1="422.2" y1="150.8" x2="422.2" y2="126.0" stroke="rgb(0,0,0)"  stroke-width="2.0"/>
<line x1="415.0" y1="144.8" x2="415.0" y2="128.3" stroke="rgb(0,0,0)"  stroke-width="2.0"/>
<line x1="410.9" y1="107.3" x2="390.2" y2="95.4" stroke="rgb(0,0,0)"  stroke-width="2.0"/>
<line x1="390.2" y1="95.4" x2="358.2" y2="113.8" stroke="rgb(0,0,0)"  stroke-width="2.0"/>
<line x1="388.6" y1="104.6" x2="367.0" y2="117.1" stroke="rgb(0,0,0)"  stroke-width="2.0"/>
<line x1="358.2" y1="113.8" x2="358.2" y2="150.8" stroke="rgb(0,0,0)"  stroke-width="2.0"/>
<line x1="358.2" y1="150.8" x2="390.2" y2="169.2" stroke="rgb(0,0,0)"  stroke-width="2.0"/>
<line x1="367.0" y1="147.5" x2="388.6" y2="160.0" stroke="rgb(0,0,0)"  stroke-width="2.0"/>
<line x1="274.2" y1="153.0" x2="262.3" y2="132.3" stroke="rgb(0,0,0)"  stroke-width="2.0"/>
<line x1="262.3" y1="132.3" x2="238.4" y2="132.3" stroke="rgb(0,0,0)"  stroke-width="2.0"/>
<line x1="218.9" y1="143.6" x2="213.4" y2="153.0" stroke="rgb(0,0,0)"  stroke-width="2.0"/>
<line x1="213.4" y1="175.5" x2="225.4" y2="196.3" stroke="rgb(0,0,0)"  stroke-width="2.0"/>
<line x1="225.4" y1="196.3" x2="249.3" y2="196.3" stroke="rgb(0,0,0)"  stroke-width="2.0"/>
<line x1="268.8" y1="185.0" x2="274.2" y2="175.5" stroke="rgb(0,0,0)"  stroke-width="2.0"/>
<text x="124.482846" y="344.359523" fill="rgb(191,191,191)"  stroke="rgb(191,191,191)" stroke-width="1" font-size="16" >H</text>
<text x="293.206837" y="103.384615" fill="rgb(255,12,12)"  stroke="rgb(255,12,12)" stroke-width="1" font-size="16" >O</text>
<text x="256.283760" y="66.461538" fill="rgb(255,12,12)"  stroke="rgb(255,12,12)" stroke-width="1" font-size="16" >O</text>
<text x="207.360683" y="103.384615" fill="rgb(255,12,12)"  stroke="rgb(255,12,12)" stroke-width="1" font-size="16" >HO</text>
<text x="306.721621" y="153.822476" fill="rgb(255,12,12)"  stroke="rgb(255,12,12)" stroke-width="1" font-size="16" >OH</text>
<text x="72.931904" y="184.982623" fill="rgb(255,127,0)"  stroke="rgb(255,127,0)" stroke-width="1" font-size="16" >P</text>
<text x="77.751332" y="148.375428" fill="rgb(255,12,12)"  stroke="rgb(255,12,12)" stroke-width="1" font-size="16" >O</text>
<text x="24.324709" y="180.163194" fill="rgb(255,12,12)"  stroke="rgb(255,12,12)" stroke-width="1" font-size="16" >HO</text>
<text x="68.112475" y="221.589818" fill="rgb(255,12,12)"  stroke="rgb(255,12,12)" stroke-width="1" font-size="16" >O</text>
<text x="195.812754" y="363.472314" fill="rgb(191,191,191)"  stroke="rgb(191,191,191)" stroke-width="1" font-size="16" >H</text>
<text x="248.029870" y="311.255198" fill="rgb(191,191,191)"  stroke="rgb(191,191,191)" stroke-width="1" font-size="16" >H</text>
<text x="157.587172" y="220.812500" fill="rgb(191,191,191)"  stroke="rgb(191,191,191)" stroke-width="1" font-size="16" >H</text>
<text x="256.283760" y="103.384615" fill="rgb(255,127,0)"  stroke="rgb(255,127,0)" stroke-width="1" font-size="16" >P</text>
<text x="264.582032" y="230.368896" fill="rgb(191,191,191)"  stroke="rgb(191,191,191)" stroke-width="1" font-size="16" >H</text>
<text x="255.025637" y="266.033849" fill="rgb(191,191,191)"  stroke="rgb(191,191,191)" stroke-width="1" font-size="16" >H</text>
<text x="338.697944" y="71.408293" fill="rgb(191,191,191)"  stroke="rgb(191,191,191)" stroke-width="1" font-size="16" >H</text>
<text x="301.774867" y="71.408293" fill="rgb(191,191,191)"  stroke="rgb(191,191,191)" stroke-width="1" font-size="16" >H</text>
<text x="320.236405" y="177.230769" fill="rgb(191,191,191)"  stroke="rgb(191,191,191)" stroke-width="1" font-size="16" >H</text>
<text x="384.189051" y="214.153846" fill="rgb(191,191,191)"  stroke="rgb(191,191,191)" stroke-width="1" font-size="16" >H</text>
<text x="448.141696" y="177.230769" fill="rgb(191,191,191)"  stroke="rgb(191,191,191)" stroke-width="1" font-size="16" >H</text>
<text x="384.189051" y="66.461538" fill="rgb(191,191,191)"  stroke="rgb(191,191,191)" stroke-width="1" font-size="16" >H</text>
<text x="34.000000" y="235.719668" fill="rgb(191,191,191)"  stroke="rgb(191,191,191)" stroke-width="1" font-size="16" >H</text>
<text x="288.260083" y="48.000000" fill="rgb(191,191,191)"  stroke="rgb(191,191,191)" stroke-width="1" font-size="16" >H</text>
<text x="219.360683" y="140.307692" fill="rgb(255,12,12)"  stroke="rgb(255,12,12)" stroke-width="1" font-size="16" >O</text>
<text x="141.035009" y="282.586012" fill="rgb(12,12,255)"  stroke="rgb(12,12,255)" stroke-width="1" font-size="16" >N</text>
<text x="256.283760" y="204.260338" fill="rgb(255,12,12)"  stroke="rgb(255,12,12)" stroke-width="1" font-size="16" >O</text>
<text x="274.745299" y="172.284015" fill="rgb(255,127,0)"  stroke="rgb(255,127,0)" stroke-width="1" font-size="16" >P</text>
<text x="306.721621" y="190.745553" fill="rgb(255,12,12)"  stroke="rgb(255,12,12)" stroke-width="1" font-size="16" >O</text>
<text x="200.899145" y="172.284015" fill="rgb(255,127,0)"  stroke="rgb(255,127,0)" stroke-width="1" font-size="16" >P</text>
<text x="168.922822" y="153.822476" fill="rgb(255,12,12)"  stroke="rgb(255,12,12)" stroke-width="1" font-size="16" >O</text>
<text x="156.922822" y="190.745553" fill="rgb(255,12,12)"  stroke="rgb(255,12,12)" stroke-width="1" font-size="16" >HO</text>
<text x="416.165373" y="121.846154" fill="rgb(12,12,255)"  stroke="rgb(12,12,255)" stroke-width="1" font-size="16" >N</text>
</svg>
</g>
<text font-size="18.000000" fill ="black" font-family="sans-serif"
x="10.000000" y="20.000000" >ZINC97976251</text>
</svg>
