<?xml version="1.0"?>
<svg version="1.1" id="topsvg"
xmlns="http://www.w3.org/2000/svg" xmlns:xlink="http://www.w3.org/1999/xlink"
xmlns:cml="http://www.xml-cml.org/schema" x="0" y="0" width="200px" height="200px" viewBox="0 0 100 100">
<title>ZINC00005389 - Open Babel Depiction</title>
<rect x="0" y="0" width="100" height="100" fill="white"/>
<g transform="translate(0,0)">
<svg width="100" height="100" x="0" y="0" viewBox="0 0 447.951 307.802"
font-family="sans-serif" stroke="rgb(0,0,0)" stroke-width="2"  stroke-linecap="round">
<line x1="240.3" y1="151.7" x2="218.1" y2="164.5" stroke="rgb(0,0,0)"  stroke-width="2.0"/>
<line x1="273.9" y1="171.0" x2="273.9" y2="196.7" stroke="rgb(0,0,0)"  stroke-width="2.0"/>
<line x1="307.4" y1="151.7" x2="340.9" y2="171.0" stroke="rgb(0,0,0)"  stroke-width="2.0"/>
<line x1="307.4" y1="113.0" x2="329.6" y2="100.1" stroke="rgb(0,0,0)"  stroke-width="2.0"/>
<line x1="273.9" y1="93.6" x2="273.9" y2="67.9" stroke="rgb(0,0,0)"  stroke-width="2.0"/>
<line x1="240.3" y1="113.0" x2="173.3" y2="74.3" stroke="rgb(0,0,0)"  stroke-width="2.0"/>
<line x1="173.3" y1="74.3" x2="151.0" y2="87.1" stroke="rgb(0,0,0)"  stroke-width="2.0"/>
<line x1="173.3" y1="74.3" x2="186.1" y2="52.0" stroke="rgb(0,0,0)"  stroke-width="2.0"/>
<line x1="173.3" y1="74.3" x2="160.4" y2="52.0" stroke="rgb(0,0,0)"  stroke-width="2.0"/>
<line x1="104.4" y1="77.9" x2="99.1" y2="52.7" stroke="rgb(0,0,0)"  stroke-width="2.0"/>
<line x1="78.5" y1="106.6" x2="52.9" y2="103.9" stroke="rgb(0,0,0)"  stroke-width="2.0"/>
<line x1="92.6" y1="152.0" x2="87.4" y2="163.6" stroke="rgb(0,0,0)"  stroke-width="2.0"/>
<line x1="135.7" y1="132.1" x2="154.8" y2="149.3" stroke="rgb(0,0,0)"  stroke-width="2.0"/>
<line x1="343.9" y1="171.0" x2="343.9" y2="209.7" stroke="rgb(0,0,0)"  stroke-width="2.0"/>
<line x1="337.9" y1="171.0" x2="337.9" y2="209.7" stroke="rgb(0,0,0)"  stroke-width="2.0"/>
<line x1="340.9" y1="171.0" x2="363.2" y2="158.2" stroke="rgb(0,0,0)"  stroke-width="2.0"/>
<line x1="340.9" y1="209.7" x2="374.4" y2="229.1" stroke="rgb(0,0,0)"  stroke-width="2.0"/>
<line x1="340.9" y1="209.7" x2="318.6" y2="222.6" stroke="rgb(0,0,0)"  stroke-width="2.0"/>
<line x1="372.9" y1="226.5" x2="395.2" y2="213.6" stroke="rgb(0,0,0)"  stroke-width="2.0"/>
<line x1="375.9" y1="231.7" x2="398.2" y2="218.8" stroke="rgb(0,0,0)"  stroke-width="2.0"/>
<line x1="374.4" y1="229.1" x2="374.4" y2="254.8" stroke="rgb(0,0,0)"  stroke-width="2.0"/>
<line x1="78.5" y1="106.6" x2="91.4" y2="128.9" stroke="rgb(0,0,0)"  stroke-width="2.0"/>
<line x1="110.3" y1="137.5" x2="135.7" y2="132.1" stroke="rgb(0,0,0)"  stroke-width="2.0"/>
<line x1="110.9" y1="130.0" x2="128.4" y2="126.3" stroke="rgb(0,0,0)"  stroke-width="2.0"/>
<line x1="135.7" y1="132.1" x2="138.4" y2="106.5" stroke="rgb(0,0,0)"  stroke-width="2.0"/>
<line x1="127.9" y1="88.3" x2="104.4" y2="77.9" stroke="rgb(0,0,0)"  stroke-width="2.0"/>
<line x1="104.4" y1="77.9" x2="78.5" y2="106.6" stroke="rgb(0,0,0)"  stroke-width="2.0"/>
<line x1="105.7" y1="87.1" x2="87.9" y2="107.0" stroke="rgb(0,0,0)"  stroke-width="2.0"/>
<line x1="307.4" y1="151.7" x2="307.4" y2="113.0" stroke="rgb(0,0,0)"  stroke-width="2.0"/>
<line x1="307.4" y1="113.0" x2="273.9" y2="93.6" stroke="rgb(0,0,0)"  stroke-width="2.0"/>
<line x1="298.6" y1="116.2" x2="275.5" y2="102.8" stroke="rgb(0,0,0)"  stroke-width="2.0"/>
<line x1="273.9" y1="93.6" x2="240.3" y2="113.0" stroke="rgb(0,0,0)"  stroke-width="2.0"/>
<line x1="240.3" y1="113.0" x2="240.3" y2="151.7" stroke="rgb(0,0,0)"  stroke-width="2.0"/>
<line x1="247.5" y1="119.0" x2="247.5" y2="145.7" stroke="rgb(0,0,0)"  stroke-width="2.0"/>
<line x1="240.3" y1="151.7" x2="273.9" y2="171.0" stroke="rgb(0,0,0)"  stroke-width="2.0"/>
<line x1="273.9" y1="171.0" x2="307.4" y2="151.7" stroke="rgb(0,0,0)"  stroke-width="2.0"/>
<line x1="275.5" y1="161.8" x2="298.6" y2="148.4" stroke="rgb(0,0,0)"  stroke-width="2.0"/>
<text x="76.107816" y="183.517289" fill="rgb(191,191,191)"  stroke="rgb(191,191,191)" stroke-width="1" font-size="16" >H</text>
<text x="301.380322" y="237.092293" fill="rgb(191,191,191)"  stroke="rgb(191,191,191)" stroke-width="1" font-size="16" >H</text>
<text x="368.427450" y="159.672938" fill="rgb(191,191,191)"  stroke="rgb(191,191,191)" stroke-width="1" font-size="16" >H</text>
<text x="158.483135" y="166.007874" fill="rgb(191,191,191)"  stroke="rgb(191,191,191)" stroke-width="1" font-size="16" >H</text>
<text x="34.000000" y="110.584411" fill="rgb(191,191,191)"  stroke="rgb(191,191,191)" stroke-width="1" font-size="16" >H</text>
<text x="90.351257" y="48.000000" fill="rgb(191,191,191)"  stroke="rgb(191,191,191)" stroke-width="1" font-size="16" >H</text>
<text x="147.931227" y="48.730020" fill="rgb(191,191,191)"  stroke="rgb(191,191,191)" stroke-width="1" font-size="16" >H</text>
<text x="186.640904" y="48.730020" fill="rgb(191,191,191)"  stroke="rgb(191,191,191)" stroke-width="1" font-size="16" >H</text>
<text x="267.856758" y="62.898745" fill="rgb(191,191,191)"  stroke="rgb(191,191,191)" stroke-width="1" font-size="16" >H</text>
<text x="334.903886" y="101.608422" fill="rgb(191,191,191)"  stroke="rgb(191,191,191)" stroke-width="1" font-size="16" >H</text>
<text x="267.856758" y="217.737455" fill="rgb(191,191,191)"  stroke="rgb(191,191,191)" stroke-width="1" font-size="16" >H</text>
<text x="200.809630" y="179.027777" fill="rgb(191,191,191)"  stroke="rgb(191,191,191)" stroke-width="1" font-size="16" >H</text>
<text x="368.427450" y="275.801971" fill="rgb(255,12,12)"  stroke="rgb(255,12,12)" stroke-width="1" font-size="16" >OH</text>
<text x="401.951014" y="217.737455" fill="rgb(255,12,12)"  stroke="rgb(255,12,12)" stroke-width="1" font-size="16" >O</text>
<text x="91.852460" y="148.154239" fill="rgb(12,12,255)"  stroke="rgb(12,12,255)" stroke-width="1" font-size="16" >N</text>
<text x="133.762502" y="101.608422" fill="rgb(12,12,255)"  stroke="rgb(12,12,255)" stroke-width="1" font-size="16" >N</text>
</svg>
</g>
<text font-size="18.000000" fill ="black" font-family="sans-serif"
x="10.000000" y="20.000000" >ZINC00005389</text>
</svg>
