<?xml version="1.0"?>
<svg version="1.1" id="topsvg"
xmlns="http://www.w3.org/2000/svg" xmlns:xlink="http://www.w3.org/1999/xlink"
xmlns:cml="http://www.xml-cml.org/schema" x="0" y="0" width="200px" height="200px" viewBox="0 0 100 100">
<title>ZINC13829431 - Open Babel Depiction</title>
<rect x="0" y="0" width="100" height="100" fill="white"/>
<g transform="translate(0,0)">
<svg width="100" height="100" x="0" y="0" viewBox="0 0 450.334 313.378"
font-family="sans-serif" stroke="rgb(0,0,0)" stroke-width="2"  stroke-linecap="round">
<line x1="209.4" y1="225.2" x2="175.6" y2="205.6" stroke="rgb(0,0,0)"  stroke-width="2.0"/>
<line x1="209.4" y1="225.2" x2="235.6" y2="225.2" stroke="rgb(0,0,0)"  stroke-width="2.0"/>
<line x1="209.4" y1="225.2" x2="222.5" y2="202.5" stroke="rgb(0,0,0)"  stroke-width="2.0"/>
<line x1="209.4" y1="225.2" x2="209.4" y2="251.3" stroke="rgb(0,0,0)"  stroke-width="2.0"/>
<line x1="173.6" y1="210.5" x2="172.2" y2="209.7" stroke="rgb(0,0,0)"  stroke-width="1.0"/>
<line x1="172.1" y1="214.5" x2="169.6" y2="213.1" stroke="rgb(0,0,0)"  stroke-width="1.0"/>
<line x1="170.5" y1="218.4" x2="166.9" y2="216.4" stroke="rgb(0,0,0)"  stroke-width="1.0"/>
<line x1="169.0" y1="222.4" x2="164.3" y2="219.7" stroke="rgb(0,0,0)"  stroke-width="1.0"/>
<line x1="167.5" y1="226.4" x2="161.6" y2="223.0" stroke="rgb(0,0,0)"  stroke-width="1.0"/>
<line x1="165.9" y1="230.3" x2="159.0" y2="226.3" stroke="rgb(0,0,0)"  stroke-width="1.0"/>
<line x1="175.6" y1="205.6" x2="141.7" y2="186.0" stroke="rgb(0,0,0)"  stroke-width="2.0"/>
<line x1="175.6" y1="205.6" x2="208.2" y2="149.1" stroke="rgb(0,0,0)"  stroke-width="2.0"/>
<line x1="107.8" y1="205.6" x2="107.8" y2="231.7" stroke="rgb(0,0,0)"  stroke-width="2.0"/>
<line x1="73.9" y1="186.0" x2="51.3" y2="199.1" stroke="rgb(0,0,0)"  stroke-width="2.0"/>
<line x1="73.9" y1="146.9" x2="51.3" y2="133.8" stroke="rgb(0,0,0)"  stroke-width="2.0"/>
<line x1="107.8" y1="127.3" x2="107.8" y2="101.2" stroke="rgb(0,0,0)"  stroke-width="2.0"/>
<line x1="141.7" y1="146.9" x2="164.3" y2="133.8" stroke="rgb(0,0,0)"  stroke-width="2.0"/>
<line x1="227.7" y1="137.8" x2="253.8" y2="137.8" stroke="rgb(0,0,0)"  stroke-width="2.0"/>
<line x1="208.2" y1="126.6" x2="201.6" y2="115.2" stroke="rgb(0,0,0)"  stroke-width="2.0"/>
<polygon points="253.812672 137.826087 257.812672 164.043478 249.812672 164.043478 " stroke-width="2.000000" fill="rgb(0,0,0)"  stroke="rgb(0,0,0)" />
<line x1="253.8" y1="137.8" x2="292.9" y2="137.8" stroke="rgb(0,0,0)"  stroke-width="2.0"/>
<line x1="253.8" y1="137.8" x2="253.8" y2="111.7" stroke="rgb(0,0,0)"  stroke-width="2.0"/>
<line x1="312.5" y1="103.9" x2="299.4" y2="81.3" stroke="rgb(0,0,0)"  stroke-width="2.0"/>
<line x1="351.6" y1="103.9" x2="364.7" y2="81.3" stroke="rgb(0,0,0)"  stroke-width="2.0"/>
<line x1="371.2" y1="137.8" x2="397.3" y2="137.8" stroke="rgb(0,0,0)"  stroke-width="2.0"/>
<line x1="279.9" y1="205.6" x2="266.8" y2="205.6" stroke="rgb(0,0,0)"  stroke-width="2.0"/>
<line x1="315.1" y1="241.0" x2="302.0" y2="263.6" stroke="rgb(0,0,0)"  stroke-width="2.0"/>
<line x1="309.9" y1="238.0" x2="296.8" y2="260.6" stroke="rgb(0,0,0)"  stroke-width="2.0"/>
<line x1="354.2" y1="238.0" x2="367.3" y2="260.6" stroke="rgb(0,0,0)"  stroke-width="2.0"/>
<line x1="349.0" y1="241.0" x2="362.1" y2="263.6" stroke="rgb(0,0,0)"  stroke-width="2.0"/>
<line x1="384.2" y1="205.6" x2="397.3" y2="205.6" stroke="rgb(0,0,0)"  stroke-width="2.0"/>
<polygon points="266.725715 98.695652 280.030063 94.695652 280.030063 102.695652 " stroke-width="2.000000" fill="rgb(0,0,0)"  stroke="rgb(0,0,0)" />
<line x1="253.8" y1="85.7" x2="253.8" y2="72.6" stroke="rgb(0,0,0)"  stroke-width="2.0"/>
<line x1="240.8" y1="98.7" x2="227.7" y2="98.7" stroke="rgb(0,0,0)"  stroke-width="2.0"/>
<line x1="265.1" y1="53.1" x2="276.4" y2="46.5" stroke="rgb(0,0,0)"  stroke-width="2.0"/>
<line x1="73.9" y1="186.0" x2="73.9" y2="146.9" stroke="rgb(0,0,0)"  stroke-width="2.0"/>
<line x1="73.9" y1="146.9" x2="107.8" y2="127.3" stroke="rgb(0,0,0)"  stroke-width="2.0"/>
<line x1="82.7" y1="150.1" x2="106.2" y2="136.6" stroke="rgb(0,0,0)"  stroke-width="2.0"/>
<line x1="107.8" y1="127.3" x2="141.7" y2="146.9" stroke="rgb(0,0,0)"  stroke-width="2.0"/>
<line x1="141.7" y1="146.9" x2="141.7" y2="186.0" stroke="rgb(0,0,0)"  stroke-width="2.0"/>
<line x1="134.5" y1="152.9" x2="134.5" y2="180.0" stroke="rgb(0,0,0)"  stroke-width="2.0"/>
<line x1="141.7" y1="186.0" x2="107.8" y2="205.6" stroke="rgb(0,0,0)"  stroke-width="2.0"/>
<line x1="107.8" y1="205.6" x2="73.9" y2="186.0" stroke="rgb(0,0,0)"  stroke-width="2.0"/>
<line x1="106.2" y1="196.4" x2="82.7" y2="182.8" stroke="rgb(0,0,0)"  stroke-width="2.0"/>
<line x1="351.6" y1="103.9" x2="371.2" y2="137.8" stroke="rgb(0,0,0)"  stroke-width="2.0"/>
<line x1="371.2" y1="137.8" x2="351.6" y2="171.7" stroke="rgb(0,0,0)"  stroke-width="2.0"/>
<line x1="362.0" y1="139.4" x2="348.4" y2="162.9" stroke="rgb(0,0,0)"  stroke-width="2.0"/>
<line x1="351.6" y1="171.7" x2="312.5" y2="171.7" stroke="rgb(0,0,0)"  stroke-width="2.0"/>
<line x1="312.5" y1="171.7" x2="292.9" y2="137.8" stroke="rgb(0,0,0)"  stroke-width="2.0"/>
<line x1="315.7" y1="162.9" x2="302.2" y2="139.4" stroke="rgb(0,0,0)"  stroke-width="2.0"/>
<line x1="292.9" y1="137.8" x2="312.5" y2="103.9" stroke="rgb(0,0,0)"  stroke-width="2.0"/>
<line x1="312.5" y1="103.9" x2="351.6" y2="103.9" stroke="rgb(0,0,0)"  stroke-width="2.0"/>
<line x1="318.5" y1="111.1" x2="345.6" y2="111.1" stroke="rgb(0,0,0)"  stroke-width="2.0"/>
<line x1="351.6" y1="239.5" x2="312.5" y2="239.5" stroke="rgb(0,0,0)"  stroke-width="2.0"/>
<line x1="312.5" y1="239.5" x2="299.4" y2="216.9" stroke="rgb(0,0,0)"  stroke-width="2.0"/>
<line x1="299.4" y1="194.3" x2="312.5" y2="171.7" stroke="rgb(0,0,0)"  stroke-width="2.0"/>
<line x1="351.6" y1="171.7" x2="364.7" y2="194.3" stroke="rgb(0,0,0)"  stroke-width="2.0"/>
<line x1="364.7" y1="216.9" x2="351.6" y2="239.5" stroke="rgb(0,0,0)"  stroke-width="2.0"/>
<text x="223.004970" y="199.279255" fill="rgb(191,191,191)"  stroke="rgb(191,191,191)" stroke-width="1" font-size="16" >H</text>
<text x="286.943107" y="281.377889" fill="rgb(255,12,12)"  stroke="rgb(255,12,12)" stroke-width="1" font-size="16" >O</text>
<text x="365.203976" y="281.377889" fill="rgb(255,12,12)"  stroke="rgb(255,12,12)" stroke-width="1" font-size="16" >O</text>
<text x="365.203976" y="213.601988" fill="rgb(12,12,255)"  stroke="rgb(12,12,255)" stroke-width="1" font-size="16" >N</text>
<text x="404.334411" y="213.601988" fill="rgb(191,191,191)"  stroke="rgb(191,191,191)" stroke-width="1" font-size="16" >H</text>
<text x="247.812672" y="106.695652" fill="rgb(255,127,0)"  stroke="rgb(255,127,0)" stroke-width="1" font-size="16" >P</text>
<text x="286.943107" y="106.695652" fill="rgb(255,12,12)"  stroke="rgb(255,12,12)" stroke-width="1" font-size="16" >O</text>
<text x="247.812672" y="67.565217" fill="rgb(255,12,12)"  stroke="rgb(255,12,12)" stroke-width="1" font-size="16" >O</text>
<text x="196.682237" y="106.695652" fill="rgb(255,12,12)"  stroke="rgb(255,12,12)" stroke-width="1" font-size="16" >HO</text>
<text x="242.570188" y="233.167206" fill="rgb(191,191,191)"  stroke="rgb(191,191,191)" stroke-width="1" font-size="16" >H</text>
<text x="203.439753" y="272.297640" fill="rgb(191,191,191)"  stroke="rgb(191,191,191)" stroke-width="1" font-size="16" >H</text>
<text x="101.775901" y="252.732423" fill="rgb(191,191,191)"  stroke="rgb(191,191,191)" stroke-width="1" font-size="16" >H</text>
<text x="34.000000" y="213.601988" fill="rgb(191,191,191)"  stroke="rgb(191,191,191)" stroke-width="1" font-size="16" >H</text>
<text x="101.775901" y="96.210684" fill="rgb(191,191,191)"  stroke="rgb(191,191,191)" stroke-width="1" font-size="16" >H</text>
<text x="169.551802" y="135.341119" fill="rgb(191,191,191)"  stroke="rgb(191,191,191)" stroke-width="1" font-size="16" >H</text>
<text x="286.943107" y="78.050186" fill="rgb(191,191,191)"  stroke="rgb(191,191,191)" stroke-width="1" font-size="16" >H</text>
<text x="365.203976" y="78.050186" fill="rgb(191,191,191)"  stroke="rgb(191,191,191)" stroke-width="1" font-size="16" >H</text>
<text x="404.334411" y="145.826087" fill="rgb(191,191,191)"  stroke="rgb(191,191,191)" stroke-width="1" font-size="16" >H</text>
<text x="189.117020" y="111.938136" fill="rgb(191,191,191)"  stroke="rgb(191,191,191)" stroke-width="1" font-size="16" >H</text>
<text x="281.700622" y="48.000000" fill="rgb(191,191,191)"  stroke="rgb(191,191,191)" stroke-width="1" font-size="16" >H</text>
<text x="149.986585" y="247.489939" fill="rgb(191,191,191)"  stroke="rgb(191,191,191)" stroke-width="1" font-size="16" >H</text>
<text x="22.000000" y="135.341119" fill="rgb(165,40,40)"  stroke="rgb(165,40,40)" stroke-width="1" font-size="16" >Br</text>
<text x="208.682237" y="145.826087" fill="rgb(12,12,255)"  stroke="rgb(12,12,255)" stroke-width="1" font-size="16" >N</text>
<text x="247.812672" y="184.956522" fill="rgb(191,191,191)"  stroke="rgb(191,191,191)" stroke-width="1" font-size="16" >H</text>
<text x="286.943107" y="213.601988" fill="rgb(12,12,255)"  stroke="rgb(12,12,255)" stroke-width="1" font-size="16" >N</text>
<text x="247.812672" y="213.601988" fill="rgb(191,191,191)"  stroke="rgb(191,191,191)" stroke-width="1" font-size="16" >H</text>
</svg>
</g>
<text font-size="18.000000" fill ="black" font-family="sans-serif"
x="10.000000" y="20.000000" >ZINC13829431</text>
</svg>
