<?xml version="1.0"?>
<svg version="1.1" id="topsvg"
xmlns="http://www.w3.org/2000/svg" xmlns:xlink="http://www.w3.org/1999/xlink"
xmlns:cml="http://www.xml-cml.org/schema" x="0" y="0" width="200px" height="200px" viewBox="0 0 100 100">
<title>ZINC09225331 - Open Babel Depiction</title>
<rect x="0" y="0" width="100" height="100" fill="white"/>
<g transform="translate(0,0)">
<svg width="100" height="100" x="0" y="0" viewBox="0 0 450.526 284.639"
font-family="sans-serif" stroke="rgb(0,0,0)" stroke-width="2"  stroke-linecap="round">
<line x1="143.9" y1="97.4" x2="135.6" y2="71.7" stroke="rgb(0,0,0)"  stroke-width="2.0"/>
<line x1="183.1" y1="105.7" x2="201.1" y2="85.6" stroke="rgb(0,0,0)"  stroke-width="2.0"/>
<line x1="129.5" y1="165.1" x2="111.5" y2="185.2" stroke="rgb(0,0,0)"  stroke-width="2.0"/>
<line x1="117.2" y1="127.1" x2="78.0" y2="118.8" stroke="rgb(0,0,0)"  stroke-width="2.0"/>
<line x1="78.0" y1="118.8" x2="52.4" y2="127.1" stroke="rgb(0,0,0)"  stroke-width="2.0"/>
<line x1="78.0" y1="118.8" x2="72.4" y2="145.2" stroke="rgb(0,0,0)"  stroke-width="2.0"/>
<line x1="78.0" y1="118.8" x2="69.7" y2="93.1" stroke="rgb(0,0,0)"  stroke-width="2.0"/>
<line x1="183.4" y1="220.0" x2="177.7" y2="232.8" stroke="rgb(0,0,0)"  stroke-width="2.0"/>
<line x1="229.8" y1="197.6" x2="249.9" y2="215.6" stroke="rgb(0,0,0)"  stroke-width="2.0"/>
<line x1="225.8" y1="202.0" x2="245.8" y2="220.1" stroke="rgb(0,0,0)"  stroke-width="2.0"/>
<line x1="243.2" y1="153.5" x2="266.6" y2="140.0" stroke="rgb(0,0,0)"  stroke-width="2.0"/>
<line x1="301.2" y1="160.0" x2="301.2" y2="187.0" stroke="rgb(0,0,0)"  stroke-width="2.0"/>
<line x1="335.9" y1="140.0" x2="370.5" y2="160.0" stroke="rgb(0,0,0)"  stroke-width="2.0"/>
<line x1="335.9" y1="100.0" x2="359.3" y2="86.5" stroke="rgb(0,0,0)"  stroke-width="2.0"/>
<line x1="301.2" y1="80.0" x2="301.2" y2="53.0" stroke="rgb(0,0,0)"  stroke-width="2.0"/>
<line x1="266.6" y1="100.0" x2="243.2" y2="86.5" stroke="rgb(0,0,0)"  stroke-width="2.0"/>
<line x1="370.5" y1="160.0" x2="397.5" y2="160.0" stroke="rgb(0,0,0)"  stroke-width="2.0"/>
<line x1="370.5" y1="160.0" x2="384.0" y2="136.6" stroke="rgb(0,0,0)"  stroke-width="2.0"/>
<line x1="370.5" y1="160.0" x2="370.5" y2="187.0" stroke="rgb(0,0,0)"  stroke-width="2.0"/>
<line x1="227.8" y1="199.8" x2="201.4" y2="205.4" stroke="rgb(0,0,0)"  stroke-width="2.0"/>
<line x1="182.2" y1="196.8" x2="168.7" y2="173.5" stroke="rgb(0,0,0)"  stroke-width="2.0"/>
<line x1="168.7" y1="173.5" x2="195.4" y2="143.7" stroke="rgb(0,0,0)"  stroke-width="2.0"/>
<line x1="195.4" y1="143.7" x2="220.1" y2="154.7" stroke="rgb(0,0,0)"  stroke-width="2.0"/>
<line x1="230.6" y1="172.9" x2="227.8" y2="199.8" stroke="rgb(0,0,0)"  stroke-width="2.0"/>
<line x1="168.7" y1="173.5" x2="129.5" y2="165.1" stroke="rgb(0,0,0)"  stroke-width="2.0"/>
<line x1="164.3" y1="165.2" x2="136.9" y2="159.3" stroke="rgb(0,0,0)"  stroke-width="2.0"/>
<line x1="129.5" y1="165.1" x2="117.2" y2="127.1" stroke="rgb(0,0,0)"  stroke-width="2.0"/>
<line x1="117.2" y1="127.1" x2="143.9" y2="97.4" stroke="rgb(0,0,0)"  stroke-width="2.0"/>
<line x1="126.5" y1="127.5" x2="145.3" y2="106.6" stroke="rgb(0,0,0)"  stroke-width="2.0"/>
<line x1="143.9" y1="97.4" x2="183.1" y2="105.7" stroke="rgb(0,0,0)"  stroke-width="2.0"/>
<line x1="183.1" y1="105.7" x2="195.4" y2="143.7" stroke="rgb(0,0,0)"  stroke-width="2.0"/>
<line x1="178.1" y1="113.6" x2="186.7" y2="140.2" stroke="rgb(0,0,0)"  stroke-width="2.0"/>
<line x1="335.9" y1="140.0" x2="335.9" y2="100.0" stroke="rgb(0,0,0)"  stroke-width="2.0"/>
<line x1="335.9" y1="100.0" x2="301.2" y2="80.0" stroke="rgb(0,0,0)"  stroke-width="2.0"/>
<line x1="327.1" y1="103.2" x2="302.8" y2="89.2" stroke="rgb(0,0,0)"  stroke-width="2.0"/>
<line x1="301.2" y1="80.0" x2="266.6" y2="100.0" stroke="rgb(0,0,0)"  stroke-width="2.0"/>
<line x1="266.6" y1="100.0" x2="266.6" y2="140.0" stroke="rgb(0,0,0)"  stroke-width="2.0"/>
<line x1="273.8" y1="106.0" x2="273.8" y2="134.0" stroke="rgb(0,0,0)"  stroke-width="2.0"/>
<line x1="266.6" y1="140.0" x2="301.2" y2="160.0" stroke="rgb(0,0,0)"  stroke-width="2.0"/>
<line x1="301.2" y1="160.0" x2="335.9" y2="140.0" stroke="rgb(0,0,0)"  stroke-width="2.0"/>
<line x1="302.8" y1="150.8" x2="327.1" y2="136.8" stroke="rgb(0,0,0)"  stroke-width="2.0"/>
<text x="166.385283" y="252.639162" fill="rgb(191,191,191)"  stroke="rgb(191,191,191)" stroke-width="1" font-size="16" >H</text>
<text x="295.243823" y="48.000000" fill="rgb(191,191,191)"  stroke="rgb(191,191,191)" stroke-width="1" font-size="16" >H</text>
<text x="364.525856" y="88.000000" fill="rgb(191,191,191)"  stroke="rgb(191,191,191)" stroke-width="1" font-size="16" >H</text>
<text x="295.243823" y="208.000000" fill="rgb(191,191,191)"  stroke="rgb(191,191,191)" stroke-width="1" font-size="16" >H</text>
<text x="96.763620" y="202.865653" fill="rgb(191,191,191)"  stroke="rgb(191,191,191)" stroke-width="1" font-size="16" >H</text>
<text x="203.824517" y="83.962481" fill="rgb(191,191,191)"  stroke="rgb(191,191,191)" stroke-width="1" font-size="16" >H</text>
<text x="125.572709" y="67.329545" fill="rgb(191,191,191)"  stroke="rgb(191,191,191)" stroke-width="1" font-size="16" >H</text>
<text x="251.506446" y="234.546100" fill="rgb(255,12,12)"  stroke="rgb(255,12,12)" stroke-width="1" font-size="16" >O</text>
<text x="364.525856" y="208.000000" fill="rgb(127,178,255)"  stroke="rgb(127,178,255)" stroke-width="1" font-size="16" >F</text>
<text x="384.525856" y="133.358984" fill="rgb(127,178,255)"  stroke="rgb(127,178,255)" stroke-width="1" font-size="16" >F</text>
<text x="404.525856" y="168.000000" fill="rgb(127,178,255)"  stroke="rgb(127,178,255)" stroke-width="1" font-size="16" >F</text>
<text x="213.961791" y="88.000000" fill="rgb(255,12,12)"  stroke="rgb(255,12,12)" stroke-width="1" font-size="16" >HO</text>
<text x="225.961791" y="168.000000" fill="rgb(12,12,255)"  stroke="rgb(12,12,255)" stroke-width="1" font-size="16" >N</text>
<text x="182.654748" y="216.097343" fill="rgb(12,12,255)"  stroke="rgb(12,12,255)" stroke-width="1" font-size="16" >N</text>
<text x="59.681581" y="88.738871" fill="rgb(127,178,255)"  stroke="rgb(127,178,255)" stroke-width="1" font-size="16" >F</text>
<text x="63.725793" y="165.907035" fill="rgb(127,178,255)"  stroke="rgb(127,178,255)" stroke-width="1" font-size="16" >F</text>
<text x="34.000000" y="139.141811" fill="rgb(127,178,255)"  stroke="rgb(127,178,255)" stroke-width="1" font-size="16" >F</text>
</svg>
</g>
<text font-size="18.000000" fill ="black" font-family="sans-serif"
x="10.000000" y="20.000000" >ZINC09225331</text>
</svg>
