<?xml version="1.0"?>
<svg version="1.1" id="topsvg"
xmlns="http://www.w3.org/2000/svg" xmlns:xlink="http://www.w3.org/1999/xlink"
xmlns:cml="http://www.xml-cml.org/schema" x="0" y="0" width="200px" height="200px" viewBox="0 0 100 100">
<title>ZINC00002094 - Open Babel Depiction</title>
<rect x="0" y="0" width="100" height="100" fill="white"/>
<g transform="translate(0,0)">
<svg width="100" height="100" x="0" y="0" viewBox="0 0 462.578 342.004"
font-family="sans-serif" stroke="rgb(0,0,0)" stroke-width="2"  stroke-linecap="round">
<line x1="316.2" y1="126.9" x2="293.8" y2="139.8" stroke="rgb(0,0,0)"  stroke-width="2.0"/>
<line x1="316.2" y1="126.9" x2="329.2" y2="104.4" stroke="rgb(0,0,0)"  stroke-width="2.0"/>
<line x1="316.2" y1="126.9" x2="303.3" y2="104.4" stroke="rgb(0,0,0)"  stroke-width="2.0"/>
<line x1="316.2" y1="126.9" x2="338.7" y2="139.8" stroke="rgb(0,0,0)"  stroke-width="2.0"/>
<line x1="282.5" y1="159.3" x2="282.5" y2="185.2" stroke="rgb(0,0,0)"  stroke-width="2.0"/>
<line x1="248.8" y1="204.7" x2="226.4" y2="191.7" stroke="rgb(0,0,0)"  stroke-width="2.0"/>
<line x1="282.5" y1="263.1" x2="282.5" y2="289.0" stroke="rgb(0,0,0)"  stroke-width="2.0"/>
<line x1="316.2" y1="204.7" x2="338.7" y2="191.7" stroke="rgb(0,0,0)"  stroke-width="2.0"/>
<line x1="361.2" y1="191.7" x2="383.7" y2="204.7" stroke="rgb(0,0,0)"  stroke-width="2.0"/>
<line x1="383.7" y1="204.7" x2="409.6" y2="204.7" stroke="rgb(0,0,0)"  stroke-width="2.0"/>
<line x1="383.7" y1="204.7" x2="396.6" y2="182.3" stroke="rgb(0,0,0)"  stroke-width="2.0"/>
<line x1="383.7" y1="204.7" x2="383.7" y2="230.6" stroke="rgb(0,0,0)"  stroke-width="2.0"/>
<line x1="215.1" y1="172.2" x2="215.1" y2="120.4" stroke="rgb(0,0,0)"  stroke-width="2.0"/>
<line x1="203.9" y1="191.7" x2="192.7" y2="198.2" stroke="rgb(0,0,0)"  stroke-width="2.0"/>
<line x1="228.1" y1="104.4" x2="241.1" y2="104.4" stroke="rgb(0,0,0)"  stroke-width="2.0"/>
<line x1="228.1" y1="110.4" x2="241.1" y2="110.4" stroke="rgb(0,0,0)"  stroke-width="2.0"/>
<line x1="212.1" y1="94.4" x2="212.1" y2="81.5" stroke="rgb(0,0,0)"  stroke-width="2.0"/>
<line x1="218.1" y1="94.4" x2="218.1" y2="81.5" stroke="rgb(0,0,0)"  stroke-width="2.0"/>
<line x1="202.1" y1="107.4" x2="176.2" y2="107.4" stroke="rgb(0,0,0)"  stroke-width="2.0"/>
<line x1="156.8" y1="73.7" x2="169.7" y2="51.3" stroke="rgb(0,0,0)"  stroke-width="2.0"/>
<line x1="117.8" y1="73.7" x2="104.9" y2="51.3" stroke="rgb(0,0,0)"  stroke-width="2.0"/>
<line x1="98.4" y1="107.4" x2="72.5" y2="107.4" stroke="rgb(0,0,0)"  stroke-width="2.0"/>
<line x1="117.8" y1="141.1" x2="104.9" y2="163.6" stroke="rgb(0,0,0)"  stroke-width="2.0"/>
<line x1="156.8" y1="141.1" x2="169.7" y2="163.6" stroke="rgb(0,0,0)"  stroke-width="2.0"/>
<line x1="53.0" y1="96.2" x2="46.5" y2="85.0" stroke="rgb(0,0,0)"  stroke-width="2.0"/>
<line x1="53.0" y1="118.7" x2="46.5" y2="129.9" stroke="rgb(0,0,0)"  stroke-width="2.0"/>
<line x1="260.1" y1="250.1" x2="282.5" y2="263.1" stroke="rgb(0,0,0)"  stroke-width="2.0"/>
<line x1="282.5" y1="263.1" x2="305.1" y2="250.0" stroke="rgb(0,0,0)"  stroke-width="2.0"/>
<line x1="284.1" y1="253.8" x2="299.7" y2="244.9" stroke="rgb(0,0,0)"  stroke-width="2.0"/>
<line x1="316.2" y1="230.6" x2="316.2" y2="204.7" stroke="rgb(0,0,0)"  stroke-width="2.0"/>
<line x1="316.2" y1="204.7" x2="282.5" y2="185.2" stroke="rgb(0,0,0)"  stroke-width="2.0"/>
<line x1="307.5" y1="207.9" x2="284.1" y2="194.5" stroke="rgb(0,0,0)"  stroke-width="2.0"/>
<line x1="282.5" y1="185.2" x2="248.8" y2="204.7" stroke="rgb(0,0,0)"  stroke-width="2.0"/>
<line x1="248.8" y1="204.7" x2="248.8" y2="230.8" stroke="rgb(0,0,0)"  stroke-width="2.0"/>
<line x1="256.0" y1="210.7" x2="256.0" y2="228.7" stroke="rgb(0,0,0)"  stroke-width="2.0"/>
<line x1="117.8" y1="73.7" x2="98.4" y2="107.4" stroke="rgb(0,0,0)"  stroke-width="2.0"/>
<line x1="98.4" y1="107.4" x2="117.8" y2="141.1" stroke="rgb(0,0,0)"  stroke-width="2.0"/>
<line x1="107.6" y1="109.0" x2="121.1" y2="132.3" stroke="rgb(0,0,0)"  stroke-width="2.0"/>
<line x1="117.8" y1="141.1" x2="156.8" y2="141.1" stroke="rgb(0,0,0)"  stroke-width="2.0"/>
<line x1="156.8" y1="141.1" x2="176.2" y2="107.4" stroke="rgb(0,0,0)"  stroke-width="2.0"/>
<line x1="153.5" y1="132.3" x2="167.0" y2="109.0" stroke="rgb(0,0,0)"  stroke-width="2.0"/>
<line x1="176.2" y1="107.4" x2="156.8" y2="73.7" stroke="rgb(0,0,0)"  stroke-width="2.0"/>
<line x1="156.8" y1="73.7" x2="117.8" y2="73.7" stroke="rgb(0,0,0)"  stroke-width="2.0"/>
<line x1="150.8" y1="80.9" x2="123.8" y2="80.9" stroke="rgb(0,0,0)"  stroke-width="2.0"/>
<text x="397.118457" y="179.002070" fill="rgb(191,191,191)"  stroke="rgb(191,191,191)" stroke-width="1" font-size="16" >H</text>
<text x="53.459459" y="115.409545" fill="rgb(12,12,255)"  stroke="rgb(12,12,255)" stroke-width="1" font-size="16" >N</text>
<text x="329.708912" y="101.164232" fill="rgb(191,191,191)"  stroke="rgb(191,191,191)" stroke-width="1" font-size="16" >H</text>
<text x="290.789993" y="101.164232" fill="rgb(191,191,191)"  stroke="rgb(191,191,191)" stroke-width="1" font-size="16" >H</text>
<text x="343.954225" y="154.328464" fill="rgb(191,191,191)"  stroke="rgb(191,191,191)" stroke-width="1" font-size="16" >H</text>
<text x="276.544680" y="310.004140" fill="rgb(191,191,191)"  stroke="rgb(191,191,191)" stroke-width="1" font-size="16" >H</text>
<text x="416.577916" y="212.706842" fill="rgb(191,191,191)"  stroke="rgb(191,191,191)" stroke-width="1" font-size="16" >H</text>
<text x="377.658997" y="251.625761" fill="rgb(191,191,191)"  stroke="rgb(191,191,191)" stroke-width="1" font-size="16" >H</text>
<text x="170.216216" y="48.000000" fill="rgb(191,191,191)"  stroke="rgb(191,191,191)" stroke-width="1" font-size="16" >H</text>
<text x="92.378378" y="48.000000" fill="rgb(191,191,191)"  stroke="rgb(191,191,191)" stroke-width="1" font-size="16" >H</text>
<text x="92.378378" y="182.819090" fill="rgb(191,191,191)"  stroke="rgb(191,191,191)" stroke-width="1" font-size="16" >H</text>
<text x="170.216216" y="182.819090" fill="rgb(191,191,191)"  stroke="rgb(191,191,191)" stroke-width="1" font-size="16" >H</text>
<text x="34.000000" y="81.704772" fill="rgb(191,191,191)"  stroke="rgb(191,191,191)" stroke-width="1" font-size="16" >H</text>
<text x="34.000000" y="149.114317" fill="rgb(191,191,191)"  stroke="rgb(191,191,191)" stroke-width="1" font-size="16" >H</text>
<text x="175.430363" y="212.706842" fill="rgb(191,191,191)"  stroke="rgb(191,191,191)" stroke-width="1" font-size="16" >H</text>
<text x="276.544680" y="154.328464" fill="rgb(255,12,12)"  stroke="rgb(255,12,12)" stroke-width="1" font-size="16" >O</text>
<text x="242.839908" y="251.625761" fill="rgb(12,12,255)"  stroke="rgb(12,12,255)" stroke-width="1" font-size="16" >N</text>
<text x="310.249453" y="251.625761" fill="rgb(12,12,255)"  stroke="rgb(12,12,255)" stroke-width="1" font-size="16" >N</text>
<text x="343.954225" y="193.247383" fill="rgb(255,12,12)"  stroke="rgb(255,12,12)" stroke-width="1" font-size="16" >O</text>
<text x="209.135135" y="193.247383" fill="rgb(12,12,255)"  stroke="rgb(12,12,255)" stroke-width="1" font-size="16" >N</text>
<text x="209.135135" y="115.409545" fill="rgb(178,178,0)"  stroke="rgb(178,178,0)" stroke-width="1" font-size="16" >S</text>
<text x="248.054054" y="115.409545" fill="rgb(255,12,12)"  stroke="rgb(255,12,12)" stroke-width="1" font-size="16" >O</text>
<text x="209.135135" y="76.490626" fill="rgb(255,12,12)"  stroke="rgb(255,12,12)" stroke-width="1" font-size="16" >O</text>
</svg>
</g>
<text font-size="18.000000" fill ="black" font-family="sans-serif"
x="10.000000" y="20.000000" >ZINC00002094</text>
</svg>
