<?xml version="1.0"?>
<svg version="1.1" id="topsvg"
xmlns="http://www.w3.org/2000/svg" xmlns:xlink="http://www.w3.org/1999/xlink"
xmlns:cml="http://www.xml-cml.org/schema" x="0" y="0" width="200px" height="200px" viewBox="0 0 100 100">
<title>ZINC86032211 - Open Babel Depiction</title>
<rect x="0" y="0" width="100" height="100" fill="white"/>
<g transform="translate(0,0)">
<svg width="100" height="100" x="0" y="0" viewBox="0 0 325.769 308.054"
font-family="sans-serif" stroke="rgb(0,0,0)" stroke-width="2"  stroke-linecap="round">
<line x1="78.3" y1="175.1" x2="98.4" y2="191.4" stroke="rgb(0,0,0)"  stroke-width="2.0"/>
<line x1="78.3" y1="175.1" x2="52.8" y2="171.1" stroke="rgb(0,0,0)"  stroke-width="2.0"/>
<line x1="78.3" y1="175.1" x2="62.1" y2="195.2" stroke="rgb(0,0,0)"  stroke-width="2.0"/>
<line x1="78.3" y1="175.1" x2="82.4" y2="149.6" stroke="rgb(0,0,0)"  stroke-width="2.0"/>
<line x1="106.5" y1="212.4" x2="102.4" y2="237.9" stroke="rgb(0,0,0)"  stroke-width="2.0"/>
<line x1="120.7" y1="194.9" x2="168.9" y2="176.4" stroke="rgb(0,0,0)"  stroke-width="2.0"/>
<line x1="102.4" y1="237.9" x2="86.2" y2="258.0" stroke="rgb(0,0,0)"  stroke-width="2.0"/>
<line x1="102.4" y1="237.9" x2="76.9" y2="233.8" stroke="rgb(0,0,0)"  stroke-width="2.0"/>
<line x1="102.4" y1="237.9" x2="122.5" y2="254.1" stroke="rgb(0,0,0)"  stroke-width="2.0"/>
<line x1="183.0" y1="158.9" x2="187.1" y2="133.4" stroke="rgb(0,0,0)"  stroke-width="2.0"/>
<line x1="191.1" y1="179.9" x2="201.1" y2="188.0" stroke="rgb(0,0,0)"  stroke-width="2.0"/>
<line x1="187.1" y1="133.4" x2="212.9" y2="132.3" stroke="rgb(0,0,0)"  stroke-width="2.0"/>
<line x1="148.3" y1="133.4" x2="145.6" y2="159.0" stroke="rgb(0,0,0)"  stroke-width="2.0"/>
<line x1="148.3" y1="133.4" x2="124.7" y2="143.9" stroke="rgb(0,0,0)"  stroke-width="2.0"/>
<line x1="136.3" y1="96.4" x2="111.0" y2="101.8" stroke="rgb(0,0,0)"  stroke-width="2.0"/>
<line x1="136.3" y1="96.4" x2="119.0" y2="77.3" stroke="rgb(0,0,0)"  stroke-width="2.0"/>
<line x1="167.7" y1="73.6" x2="154.8" y2="51.3" stroke="rgb(0,0,0)"  stroke-width="2.0"/>
<line x1="167.7" y1="73.6" x2="180.6" y2="51.3" stroke="rgb(0,0,0)"  stroke-width="2.0"/>
<line x1="199.1" y1="96.4" x2="216.4" y2="77.3" stroke="rgb(0,0,0)"  stroke-width="2.0"/>
<line x1="199.1" y1="96.4" x2="224.3" y2="101.8" stroke="rgb(0,0,0)"  stroke-width="2.0"/>
<line x1="223.3" y1="191.5" x2="247.4" y2="182.2" stroke="rgb(0,0,0)"  stroke-width="2.0"/>
<line x1="209.1" y1="209.0" x2="205.1" y2="234.5" stroke="rgb(0,0,0)"  stroke-width="2.0"/>
<line x1="247.4" y1="182.2" x2="272.9" y2="186.3" stroke="rgb(0,0,0)"  stroke-width="2.0"/>
<line x1="247.4" y1="182.2" x2="256.7" y2="206.3" stroke="rgb(0,0,0)"  stroke-width="2.0"/>
<line x1="247.4" y1="182.2" x2="251.5" y2="156.7" stroke="rgb(0,0,0)"  stroke-width="2.0"/>
<line x1="205.1" y1="234.5" x2="188.9" y2="254.6" stroke="rgb(0,0,0)"  stroke-width="2.0"/>
<line x1="205.1" y1="234.5" x2="179.6" y2="230.4" stroke="rgb(0,0,0)"  stroke-width="2.0"/>
<line x1="205.1" y1="234.5" x2="225.2" y2="250.7" stroke="rgb(0,0,0)"  stroke-width="2.0"/>
<line x1="136.3" y1="96.4" x2="167.7" y2="73.6" stroke="rgb(0,0,0)"  stroke-width="2.0"/>
<line x1="167.7" y1="73.6" x2="199.1" y2="96.4" stroke="rgb(0,0,0)"  stroke-width="2.0"/>
<line x1="199.1" y1="96.4" x2="187.1" y2="133.4" stroke="rgb(0,0,0)"  stroke-width="2.0"/>
<line x1="187.1" y1="133.4" x2="148.3" y2="133.4" stroke="rgb(0,0,0)"  stroke-width="2.0"/>
<line x1="148.3" y1="133.4" x2="136.3" y2="96.4" stroke="rgb(0,0,0)"  stroke-width="2.0"/>
<text x="174.672643" y="272.660514" fill="rgb(191,191,191)"  stroke="rgb(191,191,191)" stroke-width="1" font-size="16" >H</text>
<text x="47.913109" y="213.276306" fill="rgb(191,191,191)"  stroke="rgb(191,191,191)" stroke-width="1" font-size="16" >H</text>
<text x="78.418885" y="144.759210" fill="rgb(191,191,191)"  stroke="rgb(191,191,191)" stroke-width="1" font-size="16" >H</text>
<text x="72.011320" y="276.054292" fill="rgb(191,191,191)"  stroke="rgb(191,191,191)" stroke-width="1" font-size="16" >H</text>
<text x="58.098211" y="239.809405" fill="rgb(191,191,191)"  stroke="rgb(191,191,191)" stroke-width="1" font-size="16" >H</text>
<text x="126.615307" y="270.315182" fill="rgb(191,191,191)"  stroke="rgb(191,191,191)" stroke-width="1" font-size="16" >H</text>
<text x="279.768854" y="196.303647" fill="rgb(191,191,191)"  stroke="rgb(191,191,191)" stroke-width="1" font-size="16" >H</text>
<text x="255.336416" y="226.475196" fill="rgb(191,191,191)"  stroke="rgb(191,191,191)" stroke-width="1" font-size="16" >H</text>
<text x="247.496645" y="151.884761" fill="rgb(191,191,191)"  stroke="rgb(191,191,191)" stroke-width="1" font-size="16" >H</text>
<text x="34.000000" y="177.031419" fill="rgb(191,191,191)"  stroke="rgb(191,191,191)" stroke-width="1" font-size="16" >H</text>
<text x="160.759534" y="236.415627" fill="rgb(191,191,191)"  stroke="rgb(191,191,191)" stroke-width="1" font-size="16" >H</text>
<text x="229.276631" y="266.921404" fill="rgb(191,191,191)"  stroke="rgb(191,191,191)" stroke-width="1" font-size="16" >H</text>
<text x="219.867516" y="139.688749" fill="rgb(191,191,191)"  stroke="rgb(191,191,191)" stroke-width="1" font-size="16" >H</text>
<text x="106.789620" y="157.156383" fill="rgb(191,191,191)"  stroke="rgb(191,191,191)" stroke-width="1" font-size="16" >H</text>
<text x="104.281537" y="75.590556" fill="rgb(191,191,191)"  stroke="rgb(191,191,191)" stroke-width="1" font-size="16" >H</text>
<text x="181.080209" y="48.000000" fill="rgb(191,191,191)"  stroke="rgb(191,191,191)" stroke-width="1" font-size="16" >H</text>
<text x="231.052481" y="112.513926" fill="rgb(191,191,191)"  stroke="rgb(191,191,191)" stroke-width="1" font-size="16" >H</text>
<text x="205.178420" y="204.143417" fill="rgb(12,12,255)"  stroke="rgb(12,12,255)" stroke-width="1" font-size="16" >N</text>
<text x="219.055351" y="75.590556" fill="rgb(191,191,191)"  stroke="rgb(191,191,191)" stroke-width="1" font-size="16" >H</text>
<text x="142.256679" y="48.000000" fill="rgb(191,191,191)"  stroke="rgb(191,191,191)" stroke-width="1" font-size="16" >H</text>
<text x="92.284407" y="112.513926" fill="rgb(191,191,191)"  stroke="rgb(191,191,191)" stroke-width="1" font-size="16" >H</text>
<text x="138.198516" y="179.976281" fill="rgb(191,191,191)"  stroke="rgb(191,191,191)" stroke-width="1" font-size="16" >H</text>
<text x="175.006871" y="179.710979" fill="rgb(255,127,0)"  stroke="rgb(255,127,0)" stroke-width="1" font-size="16" >P</text>
<text x="102.517096" y="207.537196" fill="rgb(12,12,255)"  stroke="rgb(12,12,255)" stroke-width="1" font-size="16" >N</text>
</svg>
</g>
<text font-size="18.000000" fill ="black" font-family="sans-serif"
x="10.000000" y="20.000000" >ZINC86032211</text>
</svg>
