<?xml version="1.0"?>
<svg version="1.1" id="topsvg"
xmlns="http://www.w3.org/2000/svg" xmlns:xlink="http://www.w3.org/1999/xlink"
xmlns:cml="http://www.xml-cml.org/schema" x="0" y="0" width="200px" height="200px" viewBox="0 0 100 100">
<title>ZINC00057302 - Open Babel Depiction</title>
<rect x="0" y="0" width="100" height="100" fill="white"/>
<g transform="translate(0,0)">
<svg width="100" height="100" x="0" y="0" viewBox="0 0 430.09 326.282"
font-family="sans-serif" stroke="rgb(0,0,0)" stroke-width="2"  stroke-linecap="round">
<line x1="314.2" y1="253.9" x2="297.9" y2="217.4" stroke="rgb(0,0,0)"  stroke-width="2.0"/>
<line x1="314.2" y1="253.9" x2="336.1" y2="269.8" stroke="rgb(0,0,0)"  stroke-width="2.0"/>
<line x1="314.2" y1="253.9" x2="338.9" y2="242.9" stroke="rgb(0,0,0)"  stroke-width="2.0"/>
<line x1="314.2" y1="253.9" x2="298.3" y2="275.8" stroke="rgb(0,0,0)"  stroke-width="2.0"/>
<line x1="317.9" y1="182.7" x2="357.7" y2="178.6" stroke="rgb(0,0,0)"  stroke-width="2.0"/>
<line x1="254.6" y1="169.3" x2="231.3" y2="155.8" stroke="rgb(0,0,0)"  stroke-width="2.0"/>
<line x1="220.0" y1="136.3" x2="220.0" y2="122.3" stroke="rgb(0,0,0)"  stroke-width="2.0"/>
<line x1="233.0" y1="106.3" x2="247.0" y2="106.3" stroke="rgb(0,0,0)"  stroke-width="2.0"/>
<line x1="233.0" y1="112.3" x2="247.0" y2="112.3" stroke="rgb(0,0,0)"  stroke-width="2.0"/>
<line x1="217.0" y1="96.3" x2="217.0" y2="82.3" stroke="rgb(0,0,0)"  stroke-width="2.0"/>
<line x1="223.0" y1="96.3" x2="223.0" y2="82.3" stroke="rgb(0,0,0)"  stroke-width="2.0"/>
<line x1="207.0" y1="109.3" x2="180.0" y2="109.3" stroke="rgb(0,0,0)"  stroke-width="2.0"/>
<line x1="160.0" y1="74.6" x2="173.5" y2="51.3" stroke="rgb(0,0,0)"  stroke-width="2.0"/>
<line x1="120.0" y1="74.6" x2="106.5" y2="51.3" stroke="rgb(0,0,0)"  stroke-width="2.0"/>
<line x1="100.0" y1="109.3" x2="73.0" y2="109.3" stroke="rgb(0,0,0)"  stroke-width="2.0"/>
<line x1="120.0" y1="143.9" x2="106.5" y2="167.3" stroke="rgb(0,0,0)"  stroke-width="2.0"/>
<line x1="160.0" y1="143.9" x2="173.5" y2="167.3" stroke="rgb(0,0,0)"  stroke-width="2.0"/>
<line x1="53.5" y1="98.0" x2="46.5" y2="85.9" stroke="rgb(0,0,0)"  stroke-width="2.0"/>
<line x1="53.5" y1="120.5" x2="46.5" y2="132.7" stroke="rgb(0,0,0)"  stroke-width="2.0"/>
<line x1="357.7" y1="178.6" x2="379.6" y2="162.7" stroke="rgb(0,0,0)"  stroke-width="2.0"/>
<line x1="357.7" y1="178.6" x2="354.9" y2="151.7" stroke="rgb(0,0,0)"  stroke-width="2.0"/>
<line x1="357.7" y1="178.6" x2="373.6" y2="200.4" stroke="rgb(0,0,0)"  stroke-width="2.0"/>
<line x1="279.3" y1="158.3" x2="254.6" y2="169.3" stroke="rgb(0,0,0)"  stroke-width="2.0"/>
<line x1="254.6" y1="169.3" x2="257.4" y2="195.9" stroke="rgb(0,0,0)"  stroke-width="2.0"/>
<line x1="262.4" y1="174.5" x2="264.4" y2="193.2" stroke="rgb(0,0,0)"  stroke-width="2.0"/>
<line x1="271.5" y1="211.8" x2="297.9" y2="217.4" stroke="rgb(0,0,0)"  stroke-width="2.0"/>
<line x1="297.9" y1="217.4" x2="317.9" y2="182.7" stroke="rgb(0,0,0)"  stroke-width="2.0"/>
<line x1="294.7" y1="208.6" x2="308.7" y2="184.3" stroke="rgb(0,0,0)"  stroke-width="2.0"/>
<line x1="317.9" y1="182.7" x2="299.9" y2="162.7" stroke="rgb(0,0,0)"  stroke-width="2.0"/>
<line x1="120.0" y1="74.6" x2="100.0" y2="109.3" stroke="rgb(0,0,0)"  stroke-width="2.0"/>
<line x1="100.0" y1="109.3" x2="120.0" y2="143.9" stroke="rgb(0,0,0)"  stroke-width="2.0"/>
<line x1="109.2" y1="110.9" x2="123.2" y2="135.1" stroke="rgb(0,0,0)"  stroke-width="2.0"/>
<line x1="120.0" y1="143.9" x2="160.0" y2="143.9" stroke="rgb(0,0,0)"  stroke-width="2.0"/>
<line x1="160.0" y1="143.9" x2="180.0" y2="109.3" stroke="rgb(0,0,0)"  stroke-width="2.0"/>
<line x1="156.8" y1="135.1" x2="170.8" y2="110.9" stroke="rgb(0,0,0)"  stroke-width="2.0"/>
<line x1="180.0" y1="109.3" x2="160.0" y2="74.6" stroke="rgb(0,0,0)"  stroke-width="2.0"/>
<line x1="160.0" y1="74.6" x2="120.0" y2="74.6" stroke="rgb(0,0,0)"  stroke-width="2.0"/>
<line x1="154.0" y1="81.8" x2="126.0" y2="81.8" stroke="rgb(0,0,0)"  stroke-width="2.0"/>
<text x="375.240345" y="218.917901" fill="rgb(191,191,191)"  stroke="rgb(191,191,191)" stroke-width="1" font-size="16" >H</text>
<text x="347.547796" y="146.776345" fill="rgb(191,191,191)"  stroke="rgb(191,191,191)" stroke-width="1" font-size="16" >H</text>
<text x="384.089614" y="163.045811" fill="rgb(191,191,191)"  stroke="rgb(191,191,191)" stroke-width="1" font-size="16" >H</text>
<text x="34.000000" y="151.923048" fill="rgb(191,191,191)"  stroke="rgb(191,191,191)" stroke-width="1" font-size="16" >H</text>
<text x="34.000000" y="82.641016" fill="rgb(191,191,191)"  stroke="rgb(191,191,191)" stroke-width="1" font-size="16" >H</text>
<text x="174.000000" y="186.564065" fill="rgb(191,191,191)"  stroke="rgb(191,191,191)" stroke-width="1" font-size="16" >H</text>
<text x="94.000000" y="186.564065" fill="rgb(191,191,191)"  stroke="rgb(191,191,191)" stroke-width="1" font-size="16" >H</text>
<text x="94.000000" y="48.000000" fill="rgb(191,191,191)"  stroke="rgb(191,191,191)" stroke-width="1" font-size="16" >H</text>
<text x="174.000000" y="48.000000" fill="rgb(191,191,191)"  stroke="rgb(191,191,191)" stroke-width="1" font-size="16" >H</text>
<text x="284.706114" y="294.281874" fill="rgb(191,191,191)"  stroke="rgb(191,191,191)" stroke-width="1" font-size="16" >H</text>
<text x="344.759343" y="245.651728" fill="rgb(191,191,191)"  stroke="rgb(191,191,191)" stroke-width="1" font-size="16" >H</text>
<text x="340.578204" y="285.432604" fill="rgb(191,191,191)"  stroke="rgb(191,191,191)" stroke-width="1" font-size="16" >H</text>
<text x="54.000000" y="117.282032" fill="rgb(12,12,255)"  stroke="rgb(12,12,255)" stroke-width="1" font-size="16" >N</text>
<text x="214.000000" y="77.282032" fill="rgb(255,12,12)"  stroke="rgb(255,12,12)" stroke-width="1" font-size="16" >O</text>
<text x="254.000000" y="117.282032" fill="rgb(255,12,12)"  stroke="rgb(255,12,12)" stroke-width="1" font-size="16" >O</text>
<text x="214.000000" y="117.282032" fill="rgb(178,178,0)"  stroke="rgb(178,178,0)" stroke-width="1" font-size="16" >S</text>
<text x="202.000000" y="157.282032" fill="rgb(12,12,255)"  stroke="rgb(12,12,255)" stroke-width="1" font-size="16" >HN</text>
<text x="252.822155" y="217.062908" fill="rgb(12,12,255)"  stroke="rgb(12,12,255)" stroke-width="1" font-size="16" >N</text>
<text x="285.182834" y="161.012567" fill="rgb(255,12,12)"  stroke="rgb(255,12,12)" stroke-width="1" font-size="16" >O</text>
</svg>
</g>
<text font-size="18.000000" fill ="black" font-family="sans-serif"
x="10.000000" y="20.000000" >ZINC00057302</text>
</svg>
