<?xml version="1.0"?>
<svg version="1.1" id="topsvg"
xmlns="http://www.w3.org/2000/svg" xmlns:xlink="http://www.w3.org/1999/xlink"
xmlns:cml="http://www.xml-cml.org/schema" x="0" y="0" width="200px" height="200px" viewBox="0 0 100 100">
<title>ZINC12494889 - Open Babel Depiction</title>
<rect x="0" y="0" width="100" height="100" fill="white"/>
<g transform="translate(0,0)">
<svg width="100" height="100" x="0" y="0" viewBox="0 0 490.169 329.178"
font-family="sans-serif" stroke="rgb(0,0,0)" stroke-width="2"  stroke-linecap="round">
<line x1="129.3" y1="179.2" x2="125.3" y2="204.2" stroke="rgb(0,0,0)"  stroke-width="2.0"/>
<line x1="105.5" y1="117.2" x2="85.9" y2="101.3" stroke="rgb(0,0,0)"  stroke-width="2.0"/>
<line x1="215.3" y1="111.4" x2="274.7" y2="134.2" stroke="rgb(0,0,0)"  stroke-width="2.0"/>
<line x1="193.2" y1="69.8" x2="209.2" y2="50.1" stroke="rgb(0,0,0)"  stroke-width="2.0"/>
<line x1="274.7" y1="134.2" x2="288.2" y2="112.9" stroke="rgb(0,0,0)"  stroke-width="2.0"/>
<polygon points="274.661948 134.205401 258.977113 169.372331 252.048910 165.372331 " stroke-width="2.000000" fill="rgb(0,0,0)"  stroke="rgb(0,0,0)" />
<line x1="255.5" y1="167.4" x2="232.4" y2="157.1" stroke="rgb(0,0,0)"  stroke-width="2.0"/>
<line x1="261.2" y1="172.5" x2="260.0" y2="173.6" stroke="rgb(0,0,0)"  stroke-width="1.0"/>
<line x1="265.8" y1="176.7" x2="263.7" y2="178.6" stroke="rgb(0,0,0)"  stroke-width="1.0"/>
<line x1="270.4" y1="180.8" x2="267.3" y2="183.6" stroke="rgb(0,0,0)"  stroke-width="1.0"/>
<line x1="275.0" y1="184.9" x2="270.9" y2="188.5" stroke="rgb(0,0,0)"  stroke-width="1.0"/>
<line x1="279.5" y1="189.0" x2="274.5" y2="193.5" stroke="rgb(0,0,0)"  stroke-width="1.0"/>
<line x1="284.1" y1="193.2" x2="278.2" y2="198.5" stroke="rgb(0,0,0)"  stroke-width="1.0"/>
<line x1="255.5" y1="167.4" x2="204.1" y2="204.8" stroke="rgb(0,0,0)"  stroke-width="2.0"/>
<line x1="281.1" y1="195.8" x2="264.2" y2="214.6" stroke="rgb(0,0,0)"  stroke-width="2.0"/>
<line x1="287.8" y1="192.0" x2="288.5" y2="193.4" stroke="rgb(0,0,0)"  stroke-width="1.0"/>
<line x1="293.1" y1="188.9" x2="294.3" y2="191.5" stroke="rgb(0,0,0)"  stroke-width="1.0"/>
<line x1="298.5" y1="185.8" x2="300.2" y2="189.6" stroke="rgb(0,0,0)"  stroke-width="1.0"/>
<line x1="303.8" y1="182.8" x2="306.0" y2="187.7" stroke="rgb(0,0,0)"  stroke-width="1.0"/>
<line x1="309.2" y1="179.7" x2="311.9" y2="185.8" stroke="rgb(0,0,0)"  stroke-width="1.0"/>
<line x1="314.5" y1="176.6" x2="317.8" y2="183.9" stroke="rgb(0,0,0)"  stroke-width="1.0"/>
<line x1="281.1" y1="195.8" x2="289.0" y2="219.9" stroke="rgb(0,0,0)"  stroke-width="2.0"/>
<polygon points="316.126138 180.256049 332.420026 200.477892 325.491823 204.477892 " stroke-width="2.000000" fill="rgb(0,0,0)"  stroke="rgb(0,0,0)" />
<line x1="316.1" y1="180.3" x2="354.4" y2="180.3" stroke="rgb(0,0,0)"  stroke-width="2.0"/>
<line x1="354.4" y1="180.3" x2="367.1" y2="202.2" stroke="rgb(0,0,0)"  stroke-width="2.0"/>
<line x1="354.4" y1="180.3" x2="376.3" y2="167.6" stroke="rgb(0,0,0)"  stroke-width="2.0"/>
<line x1="354.4" y1="180.3" x2="354.4" y2="155.0" stroke="rgb(0,0,0)"  stroke-width="2.0"/>
<line x1="386.6" y1="213.4" x2="398.9" y2="213.4" stroke="rgb(0,0,0)"  stroke-width="2.0"/>
<polygon points="411.870819 226.061277 415.870819 239.082554 407.870819 239.082554 " stroke-width="2.000000" fill="rgb(0,0,0)"  stroke="rgb(0,0,0)" />
<line x1="424.9" y1="213.4" x2="437.2" y2="213.4" stroke="rgb(0,0,0)"  stroke-width="2.0"/>
<line x1="411.9" y1="200.4" x2="411.9" y2="188.1" stroke="rgb(0,0,0)"  stroke-width="2.0"/>
<line x1="411.9" y1="162.1" x2="411.9" y2="149.8" stroke="rgb(0,0,0)"  stroke-width="2.0"/>
<line x1="424.9" y1="133.8" x2="437.2" y2="133.8" stroke="rgb(0,0,0)"  stroke-width="2.0"/>
<line x1="424.9" y1="139.8" x2="437.2" y2="139.8" stroke="rgb(0,0,0)"  stroke-width="2.0"/>
<line x1="408.9" y1="123.8" x2="408.9" y2="111.5" stroke="rgb(0,0,0)"  stroke-width="2.0"/>
<line x1="414.9" y1="123.8" x2="414.9" y2="111.5" stroke="rgb(0,0,0)"  stroke-width="2.0"/>
<line x1="398.9" y1="136.8" x2="386.6" y2="136.8" stroke="rgb(0,0,0)"  stroke-width="2.0"/>
<line x1="284.3" y1="241.9" x2="276.0" y2="251.1" stroke="rgb(0,0,0)"  stroke-width="2.0"/>
<polygon points="257.955620 252.260832 245.602403 246.520476 250.955448 240.575318 " stroke-width="2.000000" fill="rgb(0,0,0)"  stroke="rgb(0,0,0)" />
<line x1="258.6" y1="270.4" x2="250.4" y2="279.5" stroke="rgb(0,0,0)"  stroke-width="2.0"/>
<line x1="277.0" y1="269.4" x2="286.1" y2="277.6" stroke="rgb(0,0,0)"  stroke-width="2.0"/>
<line x1="229.0" y1="286.5" x2="217.0" y2="283.9" stroke="rgb(0,0,0)"  stroke-width="2.0"/>
<line x1="194.9" y1="225.3" x2="196.2" y2="237.6" stroke="rgb(0,0,0)"  stroke-width="2.0"/>
<line x1="77.8" y1="80.3" x2="79.7" y2="68.1" stroke="rgb(0,0,0)"  stroke-width="2.0"/>
<line x1="63.6" y1="97.8" x2="52.1" y2="102.2" stroke="rgb(0,0,0)"  stroke-width="2.0"/>
<line x1="193.2" y1="69.8" x2="199.8" y2="94.2" stroke="rgb(0,0,0)"  stroke-width="2.0"/>
<line x1="192.3" y1="113.8" x2="171.0" y2="127.6" stroke="rgb(0,0,0)"  stroke-width="2.0"/>
<line x1="171.0" y1="127.6" x2="141.3" y2="103.5" stroke="rgb(0,0,0)"  stroke-width="2.0"/>
<line x1="170.9" y1="118.2" x2="150.5" y2="101.7" stroke="rgb(0,0,0)"  stroke-width="2.0"/>
<line x1="141.3" y1="103.5" x2="150.3" y2="79.9" stroke="rgb(0,0,0)"  stroke-width="2.0"/>
<line x1="167.6" y1="68.4" x2="193.2" y2="69.8" stroke="rgb(0,0,0)"  stroke-width="2.0"/>
<line x1="169.4" y1="75.7" x2="186.9" y2="76.6" stroke="rgb(0,0,0)"  stroke-width="2.0"/>
<line x1="105.5" y1="117.2" x2="141.3" y2="103.5" stroke="rgb(0,0,0)"  stroke-width="2.0"/>
<line x1="171.0" y1="127.6" x2="167.1" y2="152.6" stroke="rgb(0,0,0)"  stroke-width="2.0"/>
<line x1="153.2" y1="170.0" x2="129.3" y2="179.2" stroke="rgb(0,0,0)"  stroke-width="2.0"/>
<line x1="148.6" y1="164.0" x2="132.3" y2="170.3" stroke="rgb(0,0,0)"  stroke-width="2.0"/>
<line x1="129.3" y1="179.2" x2="109.6" y2="163.2" stroke="rgb(0,0,0)"  stroke-width="2.0"/>
<line x1="101.5" y1="142.6" x2="105.5" y2="117.2" stroke="rgb(0,0,0)"  stroke-width="2.0"/>
<line x1="109.0" y1="141.6" x2="111.7" y2="124.3" stroke="rgb(0,0,0)"  stroke-width="2.0"/>
<line x1="281.1" y1="195.8" x2="316.1" y2="180.3" stroke="rgb(0,0,0)"  stroke-width="2.0"/>
<line x1="316.1" y1="180.3" x2="313.5" y2="155.1" stroke="rgb(0,0,0)"  stroke-width="2.0"/>
<line x1="299.4" y1="139.5" x2="274.7" y2="134.2" stroke="rgb(0,0,0)"  stroke-width="2.0"/>
<line x1="274.7" y1="134.2" x2="255.5" y2="167.4" stroke="rgb(0,0,0)"  stroke-width="2.0"/>
<line x1="255.5" y1="167.4" x2="281.1" y2="195.8" stroke="rgb(0,0,0)"  stroke-width="2.0"/>
<text x="289.808571" y="294.343782" fill="rgb(255,12,12)"  stroke="rgb(255,12,12)" stroke-width="1" font-size="16" >OH</text>
<text x="444.168691" y="221.422979" fill="rgb(255,12,12)"  stroke="rgb(255,12,12)" stroke-width="1" font-size="16" >OH</text>
<text x="405.870819" y="183.125107" fill="rgb(255,12,12)"  stroke="rgb(255,12,12)" stroke-width="1" font-size="16" >O</text>
<text x="405.870819" y="144.827234" fill="rgb(178,178,0)"  stroke="rgb(178,178,0)" stroke-width="1" font-size="16" >S</text>
<text x="444.168691" y="144.827234" fill="rgb(255,12,12)"  stroke="rgb(255,12,12)" stroke-width="1" font-size="16" >O</text>
<text x="405.870819" y="106.529362" fill="rgb(255,12,12)"  stroke="rgb(255,12,12)" stroke-width="1" font-size="16" >O</text>
<text x="355.572946" y="144.827234" fill="rgb(255,12,12)"  stroke="rgb(255,12,12)" stroke-width="1" font-size="16" >HO</text>
<text x="286.973984" y="240.256638" fill="rgb(255,12,12)"  stroke="rgb(255,12,12)" stroke-width="1" font-size="16" >O</text>
<text x="261.347705" y="268.717503" fill="rgb(255,127,0)"  stroke="rgb(255,127,0)" stroke-width="1" font-size="16" >P</text>
<text x="232.886840" y="243.091225" fill="rgb(255,12,12)"  stroke="rgb(255,12,12)" stroke-width="1" font-size="16" >O</text>
<text x="235.721427" y="297.178369" fill="rgb(255,12,12)"  stroke="rgb(255,12,12)" stroke-width="1" font-size="16" >O</text>
<text x="405.870819" y="259.720851" fill="rgb(255,12,12)"  stroke="rgb(255,12,12)" stroke-width="1" font-size="16" >O</text>
<text x="187.545753" y="220.394180" fill="rgb(255,12,12)"  stroke="rgb(255,12,12)" stroke-width="1" font-size="16" >O</text>
<text x="69.754144" y="101.135923" fill="rgb(12,12,255)"  stroke="rgb(12,12,255)" stroke-width="1" font-size="16" >N</text>
<text x="117.298003" y="224.991911" fill="rgb(191,191,191)"  stroke="rgb(191,191,191)" stroke-width="1" font-size="16" >H</text>
<text x="211.343073" y="48.000000" fill="rgb(191,191,191)"  stroke="rgb(191,191,191)" stroke-width="1" font-size="16" >H</text>
<text x="381.590940" y="169.107113" fill="rgb(191,191,191)"  stroke="rgb(191,191,191)" stroke-width="1" font-size="16" >H</text>
<text x="348.424010" y="149.958176" fill="rgb(191,191,191)"  stroke="rgb(191,191,191)" stroke-width="1" font-size="16" >H</text>
<text x="191.548970" y="258.482253" fill="rgb(191,191,191)"  stroke="rgb(191,191,191)" stroke-width="1" font-size="16" >H</text>
<text x="75.745251" y="63.309561" fill="rgb(191,191,191)"  stroke="rgb(191,191,191)" stroke-width="1" font-size="16" >H</text>
<text x="34.000000" y="114.860653" fill="rgb(191,191,191)"  stroke="rgb(191,191,191)" stroke-width="1" font-size="16" >H</text>
<text x="198.260455" y="289.215794" fill="rgb(191,191,191)"  stroke="rgb(191,191,191)" stroke-width="1" font-size="16" >H</text>
<text x="93.526074" y="163.063917" fill="rgb(12,12,255)"  stroke="rgb(12,12,255)" stroke-width="1" font-size="16" >N</text>
<text x="159.043254" y="173.440819" fill="rgb(12,12,255)"  stroke="rgb(12,12,255)" stroke-width="1" font-size="16" >N</text>
<text x="197.153660" y="114.755941" fill="rgb(12,12,255)"  stroke="rgb(12,12,255)" stroke-width="1" font-size="16" >N</text>
<text x="148.996055" y="75.758681" fill="rgb(12,12,255)"  stroke="rgb(12,12,255)" stroke-width="1" font-size="16" >N</text>
<text x="289.225407" y="109.896406" fill="rgb(191,191,191)"  stroke="rgb(191,191,191)" stroke-width="1" font-size="16" >H</text>
<text x="214.526164" y="159.795183" fill="rgb(191,191,191)"  stroke="rgb(191,191,191)" stroke-width="1" font-size="16" >H</text>
<text x="249.513012" y="232.294062" fill="rgb(191,191,191)"  stroke="rgb(191,191,191)" stroke-width="1" font-size="16" >H</text>
<text x="329.275074" y="221.422979" fill="rgb(191,191,191)"  stroke="rgb(191,191,191)" stroke-width="1" font-size="16" >H</text>
<text x="306.122920" y="150.167976" fill="rgb(255,12,12)"  stroke="rgb(255,12,12)" stroke-width="1" font-size="16" >O</text>
<text x="367.572946" y="221.422979" fill="rgb(255,12,12)"  stroke="rgb(255,12,12)" stroke-width="1" font-size="16" >O</text>
<text x="405.870819" y="221.422979" fill="rgb(255,127,0)"  stroke="rgb(255,127,0)" stroke-width="1" font-size="16" >P</text>
</svg>
</g>
<text font-size="18.000000" fill ="black" font-family="sans-serif"
x="10.000000" y="20.000000" >ZINC12494889</text>
</svg>
