<?xml version="1.0"?>
<svg version="1.1" id="topsvg"
xmlns="http://www.w3.org/2000/svg" xmlns:xlink="http://www.w3.org/1999/xlink"
xmlns:cml="http://www.xml-cml.org/schema" x="0" y="0" width="200px" height="200px" viewBox="0 0 100 100">
<title>ZINC32099029 - Open Babel Depiction</title>
<rect x="0" y="0" width="100" height="100" fill="white"/>
<g transform="translate(0,0)">
<svg width="100" height="100" x="0" y="0" viewBox="0 0 399.61 367.097"
font-family="sans-serif" stroke="rgb(0,0,0)" stroke-width="2"  stroke-linecap="round">
<line x1="325.7" y1="79.2" x2="291.8" y2="98.8" stroke="rgb(0,0,0)"  stroke-width="2.0"/>
<line x1="325.7" y1="79.2" x2="338.8" y2="56.5" stroke="rgb(0,0,0)"  stroke-width="2.0"/>
<line x1="325.7" y1="79.2" x2="312.6" y2="56.5" stroke="rgb(0,0,0)"  stroke-width="2.0"/>
<line x1="325.7" y1="79.2" x2="348.4" y2="92.3" stroke="rgb(0,0,0)"  stroke-width="2.0"/>
<line x1="291.8" y1="98.8" x2="269.1" y2="85.7" stroke="rgb(0,0,0)"  stroke-width="2.0"/>
<line x1="291.8" y1="98.8" x2="278.7" y2="121.4" stroke="rgb(0,0,0)"  stroke-width="2.0"/>
<line x1="291.8" y1="98.8" x2="304.9" y2="121.4" stroke="rgb(0,0,0)"  stroke-width="2.0"/>
<line x1="246.6" y1="85.7" x2="223.9" y2="98.8" stroke="rgb(0,0,0)"  stroke-width="2.0"/>
<line x1="190.0" y1="79.2" x2="190.0" y2="53.0" stroke="rgb(0,0,0)"  stroke-width="2.0"/>
<line x1="190.0" y1="157.5" x2="190.0" y2="183.7" stroke="rgb(0,0,0)"  stroke-width="2.0"/>
<line x1="223.9" y1="137.9" x2="246.6" y2="151.0" stroke="rgb(0,0,0)"  stroke-width="2.0"/>
<line x1="257.9" y1="170.5" x2="257.9" y2="196.7" stroke="rgb(0,0,0)"  stroke-width="2.0"/>
<line x1="257.9" y1="196.7" x2="291.8" y2="216.3" stroke="rgb(0,0,0)"  stroke-width="2.0"/>
<line x1="257.9" y1="196.7" x2="244.8" y2="219.3" stroke="rgb(0,0,0)"  stroke-width="2.0"/>
<line x1="257.9" y1="196.7" x2="231.7" y2="196.7" stroke="rgb(0,0,0)"  stroke-width="2.0"/>
<line x1="291.8" y1="216.3" x2="304.9" y2="238.9" stroke="rgb(0,0,0)"  stroke-width="2.0"/>
<line x1="291.8" y1="216.3" x2="278.7" y2="238.9" stroke="rgb(0,0,0)"  stroke-width="2.0"/>
<line x1="291.8" y1="216.3" x2="314.4" y2="203.2" stroke="rgb(0,0,0)"  stroke-width="2.0"/>
<line x1="120.2" y1="162.4" x2="118.9" y2="161.6" stroke="rgb(0,0,0)"  stroke-width="1.0"/>
<line x1="118.7" y1="166.4" x2="116.2" y2="165.0" stroke="rgb(0,0,0)"  stroke-width="1.0"/>
<line x1="117.2" y1="170.4" x2="113.6" y2="168.3" stroke="rgb(0,0,0)"  stroke-width="1.0"/>
<line x1="115.6" y1="174.3" x2="110.9" y2="171.6" stroke="rgb(0,0,0)"  stroke-width="1.0"/>
<line x1="114.1" y1="178.3" x2="108.2" y2="174.9" stroke="rgb(0,0,0)"  stroke-width="1.0"/>
<line x1="112.5" y1="182.2" x2="105.6" y2="178.2" stroke="rgb(0,0,0)"  stroke-width="1.0"/>
<line x1="122.2" y1="157.5" x2="141.8" y2="191.4" stroke="rgb(0,0,0)"  stroke-width="2.0"/>
<line x1="77.0" y1="144.4" x2="65.6" y2="151.0" stroke="rgb(0,0,0)"  stroke-width="2.0"/>
<line x1="88.3" y1="98.8" x2="75.2" y2="76.1" stroke="rgb(0,0,0)"  stroke-width="2.0"/>
<line x1="88.3" y1="98.8" x2="62.1" y2="98.8" stroke="rgb(0,0,0)"  stroke-width="2.0"/>
<line x1="122.2" y1="79.2" x2="135.3" y2="56.5" stroke="rgb(0,0,0)"  stroke-width="2.0"/>
<line x1="122.2" y1="79.2" x2="109.1" y2="56.5" stroke="rgb(0,0,0)"  stroke-width="2.0"/>
<line x1="141.8" y1="191.4" x2="107.8" y2="211.0" stroke="rgb(0,0,0)"  stroke-width="2.0"/>
<line x1="141.8" y1="191.4" x2="180.9" y2="259.3" stroke="rgb(0,0,0)"  stroke-width="2.0"/>
<line x1="141.8" y1="191.4" x2="164.4" y2="178.3" stroke="rgb(0,0,0)"  stroke-width="2.0"/>
<line x1="107.8" y1="211.0" x2="85.2" y2="197.9" stroke="rgb(0,0,0)"  stroke-width="2.0"/>
<line x1="107.8" y1="211.0" x2="94.8" y2="233.7" stroke="rgb(0,0,0)"  stroke-width="2.0"/>
<line x1="107.8" y1="211.0" x2="120.9" y2="233.7" stroke="rgb(0,0,0)"  stroke-width="2.0"/>
<line x1="62.7" y1="197.9" x2="51.3" y2="204.5" stroke="rgb(0,0,0)"  stroke-width="2.0"/>
<line x1="180.9" y1="259.3" x2="167.8" y2="281.9" stroke="rgb(0,0,0)"  stroke-width="2.0"/>
<line x1="180.9" y1="259.3" x2="203.6" y2="272.3" stroke="rgb(0,0,0)"  stroke-width="2.0"/>
<line x1="180.9" y1="259.3" x2="203.6" y2="246.2" stroke="rgb(0,0,0)"  stroke-width="2.0"/>
<line x1="167.8" y1="304.4" x2="174.4" y2="315.8" stroke="rgb(0,0,0)"  stroke-width="2.0"/>
<line x1="156.1" y1="98.8" x2="156.1" y2="137.9" stroke="rgb(0,0,0)"  stroke-width="2.0"/>
<line x1="156.1" y1="137.9" x2="190.0" y2="157.5" stroke="rgb(0,0,0)"  stroke-width="2.0"/>
<line x1="164.9" y1="134.7" x2="188.4" y2="148.3" stroke="rgb(0,0,0)"  stroke-width="2.0"/>
<line x1="190.0" y1="157.5" x2="223.9" y2="137.9" stroke="rgb(0,0,0)"  stroke-width="2.0"/>
<line x1="223.9" y1="137.9" x2="223.9" y2="98.8" stroke="rgb(0,0,0)"  stroke-width="2.0"/>
<line x1="216.7" y1="131.9" x2="216.7" y2="104.8" stroke="rgb(0,0,0)"  stroke-width="2.0"/>
<line x1="223.9" y1="98.8" x2="190.0" y2="79.2" stroke="rgb(0,0,0)"  stroke-width="2.0"/>
<line x1="190.0" y1="79.2" x2="156.1" y2="98.8" stroke="rgb(0,0,0)"  stroke-width="2.0"/>
<line x1="188.4" y1="88.4" x2="164.9" y2="102.0" stroke="rgb(0,0,0)"  stroke-width="2.0"/>
<line x1="88.3" y1="98.8" x2="88.3" y2="124.9" stroke="rgb(0,0,0)"  stroke-width="2.0"/>
<line x1="99.5" y1="144.4" x2="122.2" y2="157.5" stroke="rgb(0,0,0)"  stroke-width="2.0"/>
<line x1="122.2" y1="157.5" x2="156.1" y2="137.9" stroke="rgb(0,0,0)"  stroke-width="2.0"/>
<line x1="156.1" y1="98.8" x2="122.2" y2="79.2" stroke="rgb(0,0,0)"  stroke-width="2.0"/>
<line x1="122.2" y1="79.2" x2="88.3" y2="98.8" stroke="rgb(0,0,0)"  stroke-width="2.0"/>
<text x="43.088657" y="106.750000" fill="rgb(191,191,191)"  stroke="rgb(191,191,191)" stroke-width="1" font-size="16" >H</text>
<text x="353.609950" y="106.750000" fill="rgb(191,191,191)"  stroke="rgb(191,191,191)" stroke-width="1" font-size="16" >H</text>
<text x="266.187960" y="140.669328" fill="rgb(191,191,191)"  stroke="rgb(191,191,191)" stroke-width="1" font-size="16" >H</text>
<text x="305.354627" y="140.669328" fill="rgb(191,191,191)"  stroke="rgb(191,191,191)" stroke-width="1" font-size="16" >H</text>
<text x="184.013308" y="48.000000" fill="rgb(191,191,191)"  stroke="rgb(191,191,191)" stroke-width="1" font-size="16" >H</text>
<text x="184.013308" y="204.666667" fill="rgb(191,191,191)"  stroke="rgb(191,191,191)" stroke-width="1" font-size="16" >H</text>
<text x="232.268632" y="238.585995" fill="rgb(191,191,191)"  stroke="rgb(191,191,191)" stroke-width="1" font-size="16" >H</text>
<text x="212.685298" y="204.666667" fill="rgb(191,191,191)"  stroke="rgb(191,191,191)" stroke-width="1" font-size="16" >H</text>
<text x="305.354627" y="258.169328" fill="rgb(191,191,191)"  stroke="rgb(191,191,191)" stroke-width="1" font-size="16" >H</text>
<text x="266.187960" y="258.169328" fill="rgb(191,191,191)"  stroke="rgb(191,191,191)" stroke-width="1" font-size="16" >H</text>
<text x="319.690622" y="204.666667" fill="rgb(191,191,191)"  stroke="rgb(191,191,191)" stroke-width="1" font-size="16" >H</text>
<text x="62.671990" y="72.830672" fill="rgb(191,191,191)"  stroke="rgb(191,191,191)" stroke-width="1" font-size="16" >H</text>
<text x="300.107288" y="53.247338" fill="rgb(191,191,191)"  stroke="rgb(191,191,191)" stroke-width="1" font-size="16" >H</text>
<text x="135.757985" y="53.247338" fill="rgb(191,191,191)"  stroke="rgb(191,191,191)" stroke-width="1" font-size="16" >H</text>
<text x="96.591318" y="53.247338" fill="rgb(191,191,191)"  stroke="rgb(191,191,191)" stroke-width="1" font-size="16" >H</text>
<text x="169.677313" y="179.835995" fill="rgb(191,191,191)"  stroke="rgb(191,191,191)" stroke-width="1" font-size="16" >H</text>
<text x="82.255323" y="252.921990" fill="rgb(191,191,191)"  stroke="rgb(191,191,191)" stroke-width="1" font-size="16" >H</text>
<text x="121.421990" y="252.921990" fill="rgb(191,191,191)"  stroke="rgb(191,191,191)" stroke-width="1" font-size="16" >H</text>
<text x="34.000000" y="219.002662" fill="rgb(191,191,191)"  stroke="rgb(191,191,191)" stroke-width="1" font-size="16" >H</text>
<text x="208.843980" y="286.841318" fill="rgb(191,191,191)"  stroke="rgb(191,191,191)" stroke-width="1" font-size="16" >H</text>
<text x="208.843980" y="247.674652" fill="rgb(191,191,191)"  stroke="rgb(191,191,191)" stroke-width="1" font-size="16" >H</text>
<text x="174.924652" y="335.096642" fill="rgb(191,191,191)"  stroke="rgb(191,191,191)" stroke-width="1" font-size="16" >H</text>
<text x="48.335995" y="165.500000" fill="rgb(191,191,191)"  stroke="rgb(191,191,191)" stroke-width="1" font-size="16" >H</text>
<text x="251.851965" y="87.166667" fill="rgb(255,12,12)"  stroke="rgb(255,12,12)" stroke-width="1" font-size="16" >O</text>
<text x="251.851965" y="165.500000" fill="rgb(255,12,12)"  stroke="rgb(255,12,12)" stroke-width="1" font-size="16" >O</text>
<text x="96.591318" y="199.419328" fill="rgb(191,191,191)"  stroke="rgb(191,191,191)" stroke-width="1" font-size="16" >H</text>
<text x="82.255323" y="145.916667" fill="rgb(12,12,255)"  stroke="rgb(12,12,255)" stroke-width="1" font-size="16" >N</text>
<text x="67.919328" y="199.419328" fill="rgb(255,12,12)"  stroke="rgb(255,12,12)" stroke-width="1" font-size="16" >O</text>
<text x="155.341318" y="301.177313" fill="rgb(255,12,12)"  stroke="rgb(255,12,12)" stroke-width="1" font-size="16" >O</text>
<text x="339.273955" y="53.247338" fill="rgb(191,191,191)"  stroke="rgb(191,191,191)" stroke-width="1" font-size="16" >H</text>
</svg>
</g>
<text font-size="18.000000" fill ="black" font-family="sans-serif"
x="10.000000" y="20.000000" >ZINC32099029</text>
</svg>
