<?xml version="1.0"?>
<svg version="1.1" id="topsvg"
xmlns="http://www.w3.org/2000/svg" xmlns:xlink="http://www.w3.org/1999/xlink"
xmlns:cml="http://www.xml-cml.org/schema" x="0" y="0" width="200px" height="200px" viewBox="0 0 100 100">
<title>ZINC02017442 - Open Babel Depiction</title>
<rect x="0" y="0" width="100" height="100" fill="white"/>
<g transform="translate(0,0)">
<svg width="100" height="100" x="0" y="0" viewBox="0 0 289.282 214.641"
font-family="sans-serif" stroke="rgb(0,0,0)" stroke-width="2"  stroke-linecap="round">
<line x1="214.6" y1="134.6" x2="174.6" y2="134.6" stroke="rgb(0,0,0)"  stroke-width="2.0"/>
<line x1="214.6" y1="134.6" x2="238.0" y2="121.1" stroke="rgb(0,0,0)"  stroke-width="2.0"/>
<line x1="214.6" y1="134.6" x2="214.6" y2="107.6" stroke="rgb(0,0,0)"  stroke-width="2.0"/>
<line x1="214.6" y1="134.6" x2="228.1" y2="158.0" stroke="rgb(0,0,0)"  stroke-width="2.0"/>
<line x1="174.6" y1="134.6" x2="161.1" y2="111.3" stroke="rgb(0,0,0)"  stroke-width="2.0"/>
<line x1="174.6" y1="134.6" x2="151.3" y2="148.1" stroke="rgb(0,0,0)"  stroke-width="2.0"/>
<line x1="174.6" y1="134.6" x2="174.6" y2="161.6" stroke="rgb(0,0,0)"  stroke-width="2.0"/>
<line x1="141.6" y1="100.0" x2="127.6" y2="100.0" stroke="rgb(0,0,0)"  stroke-width="2.0"/>
<line x1="115.4" y1="115.9" x2="113.8" y2="115.9" stroke="rgb(0,0,0)"  stroke-width="1.0"/>
<line x1="116.1" y1="118.1" x2="113.2" y2="118.1" stroke="rgb(0,0,0)"  stroke-width="1.0"/>
<line x1="116.7" y1="120.3" x2="112.6" y2="120.3" stroke="rgb(0,0,0)"  stroke-width="1.0"/>
<line x1="117.4" y1="122.4" x2="111.9" y2="122.4" stroke="rgb(0,0,0)"  stroke-width="1.0"/>
<line x1="118.0" y1="124.6" x2="111.3" y2="124.6" stroke="rgb(0,0,0)"  stroke-width="1.0"/>
<line x1="118.6" y1="126.8" x2="110.6" y2="126.8" stroke="rgb(0,0,0)"  stroke-width="1.0"/>
<line x1="101.6" y1="100.0" x2="74.6" y2="100.0" stroke="rgb(0,0,0)"  stroke-width="2.0"/>
<line x1="114.6" y1="87.0" x2="114.6" y2="73.0" stroke="rgb(0,0,0)"  stroke-width="2.0"/>
<line x1="74.6" y1="100.0" x2="51.3" y2="86.5" stroke="rgb(0,0,0)"  stroke-width="2.0"/>
<line x1="74.6" y1="100.0" x2="74.6" y2="73.0" stroke="rgb(0,0,0)"  stroke-width="2.0"/>
<line x1="74.6" y1="100.0" x2="61.1" y2="123.4" stroke="rgb(0,0,0)"  stroke-width="2.0"/>
<line x1="125.9" y1="53.5" x2="138.0" y2="46.5" stroke="rgb(0,0,0)"  stroke-width="2.0"/>
<text x="148.641016" y="108.000000" fill="rgb(255,12,12)"  stroke="rgb(255,12,12)" stroke-width="1" font-size="16" >O</text>
<text x="108.641016" y="108.000000" fill="rgb(255,127,0)"  stroke="rgb(255,127,0)" stroke-width="1" font-size="16" >P</text>
<text x="108.641016" y="148.000000" fill="rgb(255,12,12)"  stroke="rgb(255,12,12)" stroke-width="1" font-size="16" >O</text>
<text x="108.641016" y="68.000000" fill="rgb(178,178,0)"  stroke="rgb(178,178,0)" stroke-width="1" font-size="16" >S</text>
<text x="243.282032" y="122.641016" fill="rgb(191,191,191)"  stroke="rgb(191,191,191)" stroke-width="1" font-size="16" >H</text>
<text x="208.641016" y="102.641016" fill="rgb(191,191,191)"  stroke="rgb(191,191,191)" stroke-width="1" font-size="16" >H</text>
<text x="228.641016" y="177.282032" fill="rgb(191,191,191)"  stroke="rgb(191,191,191)" stroke-width="1" font-size="16" >H</text>
<text x="134.000000" y="162.641016" fill="rgb(191,191,191)"  stroke="rgb(191,191,191)" stroke-width="1" font-size="16" >H</text>
<text x="168.641016" y="182.641016" fill="rgb(191,191,191)"  stroke="rgb(191,191,191)" stroke-width="1" font-size="16" >H</text>
<text x="34.000000" y="88.000000" fill="rgb(191,191,191)"  stroke="rgb(191,191,191)" stroke-width="1" font-size="16" >H</text>
<text x="68.641016" y="68.000000" fill="rgb(191,191,191)"  stroke="rgb(191,191,191)" stroke-width="1" font-size="16" >H</text>
<text x="48.641016" y="142.641016" fill="rgb(191,191,191)"  stroke="rgb(191,191,191)" stroke-width="1" font-size="16" >H</text>
<text x="143.282032" y="48.000000" fill="rgb(191,191,191)"  stroke="rgb(191,191,191)" stroke-width="1" font-size="16" >H</text>
</svg>
</g>
<text font-size="18.000000" fill ="black" font-family="sans-serif"
x="10.000000" y="20.000000" >ZINC02017442</text>
</svg>
