<?xml version="1.0"?>
<svg version="1.1" id="topsvg"
xmlns="http://www.w3.org/2000/svg" xmlns:xlink="http://www.w3.org/1999/xlink"
xmlns:cml="http://www.xml-cml.org/schema" x="0" y="0" width="200px" height="200px" viewBox="0 0 100 100">
<title>ZINC04953860 - Open Babel Depiction</title>
<rect x="0" y="0" width="100" height="100" fill="white"/>
<g transform="translate(0,0)">
<svg width="100" height="100" x="0" y="0" viewBox="0 0 254.77 310.456"
font-family="sans-serif" stroke="rgb(0,0,0)" stroke-width="2"  stroke-linecap="round">
<line x1="80.0" y1="80.0" x2="114.6" y2="100.0" stroke="rgb(0,0,0)"  stroke-width="2.0"/>
<line x1="80.0" y1="80.0" x2="53.0" y2="80.0" stroke="rgb(0,0,0)"  stroke-width="2.0"/>
<line x1="80.0" y1="80.0" x2="66.5" y2="103.4" stroke="rgb(0,0,0)"  stroke-width="2.0"/>
<line x1="80.0" y1="80.0" x2="80.0" y2="53.0" stroke="rgb(0,0,0)"  stroke-width="2.0"/>
<line x1="114.6" y1="100.0" x2="114.6" y2="140.0" stroke="rgb(0,0,0)"  stroke-width="2.0"/>
<line x1="114.6" y1="100.0" x2="141.6" y2="100.0" stroke="rgb(0,0,0)"  stroke-width="2.0"/>
<line x1="114.6" y1="100.0" x2="128.1" y2="76.6" stroke="rgb(0,0,0)"  stroke-width="2.0"/>
<line x1="147.0" y1="163.5" x2="185.0" y2="151.2" stroke="rgb(0,0,0)"  stroke-width="2.0"/>
<line x1="134.6" y1="201.6" x2="150.5" y2="223.4" stroke="rgb(0,0,0)"  stroke-width="2.0"/>
<line x1="87.0" y1="212.1" x2="78.8" y2="223.4" stroke="rgb(0,0,0)"  stroke-width="2.0"/>
<line x1="152.9" y1="245.8" x2="147.2" y2="258.6" stroke="rgb(0,0,0)"  stroke-width="2.0"/>
<line x1="171.1" y1="232.6" x2="185.0" y2="231.1" stroke="rgb(0,0,0)"  stroke-width="2.0"/>
<line x1="185.0" y1="151.2" x2="203.1" y2="131.1" stroke="rgb(0,0,0)"  stroke-width="2.0"/>
<line x1="185.0" y1="151.2" x2="176.7" y2="125.5" stroke="rgb(0,0,0)"  stroke-width="2.0"/>
<line x1="185.0" y1="151.2" x2="205.1" y2="169.2" stroke="rgb(0,0,0)"  stroke-width="2.0"/>
<line x1="147.0" y1="163.5" x2="114.6" y2="140.0" stroke="rgb(0,0,0)"  stroke-width="2.0"/>
<line x1="114.6" y1="140.0" x2="93.0" y2="155.8" stroke="rgb(0,0,0)"  stroke-width="2.0"/>
<line x1="114.0" y1="149.4" x2="98.8" y2="160.4" stroke="rgb(0,0,0)"  stroke-width="2.0"/>
<line x1="86.3" y1="175.9" x2="90.6" y2="189.2" stroke="rgb(0,0,0)"  stroke-width="2.0"/>
<line x1="107.6" y1="201.6" x2="134.6" y2="201.6" stroke="rgb(0,0,0)"  stroke-width="2.0"/>
<line x1="134.6" y1="201.6" x2="147.0" y2="163.5" stroke="rgb(0,0,0)"  stroke-width="2.0"/>
<line x1="129.6" y1="193.6" x2="138.3" y2="167.0" stroke="rgb(0,0,0)"  stroke-width="2.0"/>
<text x="34.000000" y="88.000000" fill="rgb(191,191,191)"  stroke="rgb(191,191,191)" stroke-width="1" font-size="16" >H</text>
<text x="208.769750" y="185.915955" fill="rgb(191,191,191)"  stroke="rgb(191,191,191)" stroke-width="1" font-size="16" >H</text>
<text x="166.683277" y="121.108470" fill="rgb(191,191,191)"  stroke="rgb(191,191,191)" stroke-width="1" font-size="16" >H</text>
<text x="205.809181" y="129.424937" fill="rgb(191,191,191)"  stroke="rgb(191,191,191)" stroke-width="1" font-size="16" >H</text>
<text x="191.933302" y="237.733212" fill="rgb(191,191,191)"  stroke="rgb(191,191,191)" stroke-width="1" font-size="16" >H</text>
<text x="135.882961" y="278.456169" fill="rgb(191,191,191)"  stroke="rgb(191,191,191)" stroke-width="1" font-size="16" >H</text>
<text x="128.641016" y="73.358984" fill="rgb(191,191,191)"  stroke="rgb(191,191,191)" stroke-width="1" font-size="16" >H</text>
<text x="148.641016" y="108.000000" fill="rgb(191,191,191)"  stroke="rgb(191,191,191)" stroke-width="1" font-size="16" >H</text>
<text x="74.000000" y="48.000000" fill="rgb(191,191,191)"  stroke="rgb(191,191,191)" stroke-width="1" font-size="16" >H</text>
<text x="54.000000" y="122.641016" fill="rgb(191,191,191)"  stroke="rgb(191,191,191)" stroke-width="1" font-size="16" >H</text>
<text x="152.152426" y="241.914351" fill="rgb(12,12,255)"  stroke="rgb(12,12,255)" stroke-width="1" font-size="16" >N</text>
<text x="65.129606" y="241.914351" fill="rgb(191,191,191)"  stroke="rgb(191,191,191)" stroke-width="1" font-size="16" >H</text>
<text x="76.280336" y="171.511410" fill="rgb(12,12,255)"  stroke="rgb(12,12,255)" stroke-width="1" font-size="16" >N</text>
<text x="88.641016" y="209.553671" fill="rgb(12,12,255)"  stroke="rgb(12,12,255)" stroke-width="1" font-size="16" >N</text>
</svg>
</g>
<text font-size="18.000000" fill ="black" font-family="sans-serif"
x="10.000000" y="20.000000" >ZINC04953860</text>
</svg>
