<?xml version="1.0"?>
<svg version="1.1" id="topsvg"
xmlns="http://www.w3.org/2000/svg" xmlns:xlink="http://www.w3.org/1999/xlink"
xmlns:cml="http://www.xml-cml.org/schema" x="0" y="0" width="200px" height="200px" viewBox="0 0 100 100">
<title>ZINC34893072 - Open Babel Depiction</title>
<rect x="0" y="0" width="100" height="100" fill="white"/>
<g transform="translate(0,0)">
<svg width="100" height="100" x="0" y="0" viewBox="0 0 480.444 392.388"
font-family="sans-serif" stroke="rgb(0,0,0)" stroke-width="2"  stroke-linecap="round">
<line x1="176.2" y1="216.0" x2="142.2" y2="196.4" stroke="rgb(0,0,0)"  stroke-width="2.0"/>
<line x1="176.2" y1="216.0" x2="202.5" y2="216.0" stroke="rgb(0,0,0)"  stroke-width="2.0"/>
<line x1="176.2" y1="216.0" x2="189.4" y2="193.2" stroke="rgb(0,0,0)"  stroke-width="2.0"/>
<line x1="176.2" y1="216.0" x2="176.2" y2="242.4" stroke="rgb(0,0,0)"  stroke-width="2.0"/>
<line x1="108.1" y1="216.0" x2="108.1" y2="242.4" stroke="rgb(0,0,0)"  stroke-width="2.0"/>
<line x1="74.1" y1="196.4" x2="51.3" y2="209.5" stroke="rgb(0,0,0)"  stroke-width="2.0"/>
<line x1="74.1" y1="157.1" x2="51.3" y2="143.9" stroke="rgb(0,0,0)"  stroke-width="2.0"/>
<line x1="176.3" y1="142.7" x2="174.7" y2="142.5" stroke="rgb(0,0,0)"  stroke-width="1.0"/>
<line x1="176.4" y1="147.0" x2="173.5" y2="146.6" stroke="rgb(0,0,0)"  stroke-width="1.0"/>
<line x1="176.5" y1="151.3" x2="172.4" y2="150.7" stroke="rgb(0,0,0)"  stroke-width="1.0"/>
<line x1="176.6" y1="155.5" x2="171.2" y2="154.8" stroke="rgb(0,0,0)"  stroke-width="1.0"/>
<line x1="176.7" y1="159.8" x2="170.0" y2="158.9" stroke="rgb(0,0,0)"  stroke-width="1.0"/>
<line x1="176.7" y1="164.0" x2="168.8" y2="163.0" stroke="rgb(0,0,0)"  stroke-width="1.0"/>
<line x1="176.2" y1="137.4" x2="239.6" y2="120.4" stroke="rgb(0,0,0)"  stroke-width="2.0"/>
<line x1="176.2" y1="98.1" x2="202.5" y2="98.1" stroke="rgb(0,0,0)"  stroke-width="2.0"/>
<line x1="176.2" y1="98.1" x2="189.4" y2="75.3" stroke="rgb(0,0,0)"  stroke-width="2.0"/>
<line x1="142.2" y1="78.4" x2="155.3" y2="55.6" stroke="rgb(0,0,0)"  stroke-width="2.0"/>
<line x1="142.2" y1="78.4" x2="129.0" y2="55.6" stroke="rgb(0,0,0)"  stroke-width="2.0"/>
<line x1="261.4" y1="126.2" x2="280.0" y2="144.8" stroke="rgb(0,0,0)"  stroke-width="2.0"/>
<line x1="255.5" y1="104.5" x2="259.0" y2="91.6" stroke="rgb(0,0,0)"  stroke-width="2.0"/>
<line x1="269.8" y1="182.8" x2="244.4" y2="189.6" stroke="rgb(0,0,0)"  stroke-width="2.0"/>
<line x1="297.6" y1="210.6" x2="287.4" y2="248.6" stroke="rgb(0,0,0)"  stroke-width="2.0"/>
<line x1="335.6" y1="200.5" x2="354.2" y2="219.1" stroke="rgb(0,0,0)"  stroke-width="2.0"/>
<line x1="374.7" y1="105.8" x2="402.5" y2="78.0" stroke="rgb(0,0,0)"  stroke-width="2.0"/>
<line x1="380.8" y1="144.6" x2="404.3" y2="156.6" stroke="rgb(0,0,0)"  stroke-width="2.0"/>
<line x1="402.5" y1="78.0" x2="427.9" y2="71.2" stroke="rgb(0,0,0)"  stroke-width="2.0"/>
<line x1="402.5" y1="78.0" x2="421.1" y2="96.6" stroke="rgb(0,0,0)"  stroke-width="2.0"/>
<line x1="402.5" y1="78.0" x2="395.6" y2="52.6" stroke="rgb(0,0,0)"  stroke-width="2.0"/>
<line x1="288.2" y1="251.5" x2="262.8" y2="258.3" stroke="rgb(0,0,0)"  stroke-width="2.0"/>
<line x1="286.7" y1="245.7" x2="261.2" y2="252.5" stroke="rgb(0,0,0)"  stroke-width="2.0"/>
<line x1="287.4" y1="248.6" x2="306.0" y2="267.2" stroke="rgb(0,0,0)"  stroke-width="2.0"/>
<line x1="311.9" y1="289.0" x2="305.1" y2="314.4" stroke="rgb(0,0,0)"  stroke-width="2.0"/>
<line x1="327.8" y1="273.1" x2="353.2" y2="266.2" stroke="rgb(0,0,0)"  stroke-width="2.0"/>
<line x1="305.1" y1="314.4" x2="311.9" y2="339.8" stroke="rgb(0,0,0)"  stroke-width="2.0"/>
<line x1="305.1" y1="314.4" x2="330.5" y2="321.2" stroke="rgb(0,0,0)"  stroke-width="2.0"/>
<line x1="305.1" y1="314.4" x2="279.6" y2="321.2" stroke="rgb(0,0,0)"  stroke-width="2.0"/>
<line x1="353.2" y1="266.2" x2="381.0" y2="294.1" stroke="rgb(0,0,0)"  stroke-width="2.0"/>
<line x1="353.2" y1="266.2" x2="371.8" y2="247.6" stroke="rgb(0,0,0)"  stroke-width="2.0"/>
<line x1="353.2" y1="266.2" x2="346.4" y2="240.8" stroke="rgb(0,0,0)"  stroke-width="2.0"/>
<line x1="381.0" y1="294.1" x2="374.2" y2="319.5" stroke="rgb(0,0,0)"  stroke-width="2.0"/>
<line x1="381.0" y1="294.1" x2="406.5" y2="300.9" stroke="rgb(0,0,0)"  stroke-width="2.0"/>
<line x1="381.0" y1="294.1" x2="399.6" y2="275.4" stroke="rgb(0,0,0)"  stroke-width="2.0"/>
<line x1="358.3" y1="335.4" x2="345.4" y2="338.8" stroke="rgb(0,0,0)"  stroke-width="2.0"/>
<line x1="374.7" y1="105.8" x2="348.7" y2="101.7" stroke="rgb(0,0,0)"  stroke-width="2.0"/>
<line x1="329.9" y1="111.2" x2="318.0" y2="134.7" stroke="rgb(0,0,0)"  stroke-width="2.0"/>
<line x1="335.4" y1="116.3" x2="327.1" y2="132.6" stroke="rgb(0,0,0)"  stroke-width="2.0"/>
<line x1="318.0" y1="134.7" x2="336.6" y2="153.3" stroke="rgb(0,0,0)"  stroke-width="2.0"/>
<line x1="357.4" y1="156.6" x2="380.8" y2="144.6" stroke="rgb(0,0,0)"  stroke-width="2.0"/>
<line x1="380.8" y1="144.6" x2="374.7" y2="105.8" stroke="rgb(0,0,0)"  stroke-width="2.0"/>
<line x1="372.8" y1="139.8" x2="368.5" y2="112.8" stroke="rgb(0,0,0)"  stroke-width="2.0"/>
<line x1="74.1" y1="196.4" x2="74.1" y2="157.1" stroke="rgb(0,0,0)"  stroke-width="2.0"/>
<line x1="74.1" y1="157.1" x2="108.1" y2="137.4" stroke="rgb(0,0,0)"  stroke-width="2.0"/>
<line x1="82.9" y1="160.3" x2="106.5" y2="146.6" stroke="rgb(0,0,0)"  stroke-width="2.0"/>
<line x1="108.1" y1="137.4" x2="142.2" y2="157.1" stroke="rgb(0,0,0)"  stroke-width="2.0"/>
<line x1="142.2" y1="157.1" x2="142.2" y2="196.4" stroke="rgb(0,0,0)"  stroke-width="2.0"/>
<line x1="135.0" y1="163.1" x2="135.0" y2="190.4" stroke="rgb(0,0,0)"  stroke-width="2.0"/>
<line x1="142.2" y1="196.4" x2="108.1" y2="216.0" stroke="rgb(0,0,0)"  stroke-width="2.0"/>
<line x1="108.1" y1="216.0" x2="74.1" y2="196.4" stroke="rgb(0,0,0)"  stroke-width="2.0"/>
<line x1="106.5" y1="206.8" x2="82.9" y2="193.1" stroke="rgb(0,0,0)"  stroke-width="2.0"/>
<line x1="297.6" y1="210.6" x2="335.6" y2="200.5" stroke="rgb(0,0,0)"  stroke-width="2.0"/>
<line x1="301.5" y1="202.1" x2="327.9" y2="195.1" stroke="rgb(0,0,0)"  stroke-width="2.0"/>
<line x1="335.6" y1="200.5" x2="342.4" y2="175.0" stroke="rgb(0,0,0)"  stroke-width="2.0"/>
<line x1="318.0" y1="134.7" x2="280.0" y2="144.8" stroke="rgb(0,0,0)"  stroke-width="2.0"/>
<line x1="280.0" y1="144.8" x2="269.8" y2="182.8" stroke="rgb(0,0,0)"  stroke-width="2.0"/>
<line x1="285.4" y1="152.5" x2="278.3" y2="178.9" stroke="rgb(0,0,0)"  stroke-width="2.0"/>
<line x1="269.8" y1="182.8" x2="297.6" y2="210.6" stroke="rgb(0,0,0)"  stroke-width="2.0"/>
<line x1="142.2" y1="78.4" x2="176.2" y2="98.1" stroke="rgb(0,0,0)"  stroke-width="2.0"/>
<line x1="176.2" y1="98.1" x2="176.2" y2="137.4" stroke="rgb(0,0,0)"  stroke-width="2.0"/>
<line x1="176.2" y1="137.4" x2="142.2" y2="157.1" stroke="rgb(0,0,0)"  stroke-width="2.0"/>
<line x1="108.1" y1="137.4" x2="108.1" y2="111.1" stroke="rgb(0,0,0)"  stroke-width="2.0"/>
<line x1="119.4" y1="91.6" x2="142.2" y2="78.4" stroke="rgb(0,0,0)"  stroke-width="2.0"/>
<text x="225.825275" y="201.008663" fill="rgb(191,191,191)"  stroke="rgb(191,191,191)" stroke-width="1" font-size="16" >H</text>
<text x="364.849659" y="340.033047" fill="rgb(255,12,12)"  stroke="rgb(255,12,12)" stroke-width="1" font-size="16" >O</text>
<text x="209.537555" y="224.042977" fill="rgb(191,191,191)"  stroke="rgb(191,191,191)" stroke-width="1" font-size="16" >H</text>
<text x="189.876538" y="189.989097" fill="rgb(191,191,191)"  stroke="rgb(191,191,191)" stroke-width="1" font-size="16" >H</text>
<text x="170.215521" y="263.365011" fill="rgb(191,191,191)"  stroke="rgb(191,191,191)" stroke-width="1" font-size="16" >H</text>
<text x="102.107761" y="263.365011" fill="rgb(191,191,191)"  stroke="rgb(191,191,191)" stroke-width="1" font-size="16" >H</text>
<text x="34.000000" y="224.042977" fill="rgb(191,191,191)"  stroke="rgb(191,191,191)" stroke-width="1" font-size="16" >H</text>
<text x="34.000000" y="145.398909" fill="rgb(191,191,191)"  stroke="rgb(191,191,191)" stroke-width="1" font-size="16" >H</text>
<text x="209.537555" y="106.076875" fill="rgb(191,191,191)"  stroke="rgb(191,191,191)" stroke-width="1" font-size="16" >H</text>
<text x="189.876538" y="72.022995" fill="rgb(191,191,191)"  stroke="rgb(191,191,191)" stroke-width="1" font-size="16" >H</text>
<text x="155.822658" y="52.361978" fill="rgb(191,191,191)"  stroke="rgb(191,191,191)" stroke-width="1" font-size="16" >H</text>
<text x="116.500624" y="52.361978" fill="rgb(191,191,191)"  stroke="rgb(191,191,191)" stroke-width="1" font-size="16" >H</text>
<text x="256.357149" y="87.062159" fill="rgb(191,191,191)"  stroke="rgb(191,191,191)" stroke-width="1" font-size="16" >H</text>
<text x="357.399365" y="236.263834" fill="rgb(191,191,191)"  stroke="rgb(191,191,191)" stroke-width="1" font-size="16" >H</text>
<text x="409.844157" y="170.476789" fill="rgb(191,191,191)"  stroke="rgb(191,191,191)" stroke-width="1" font-size="16" >H</text>
<text x="434.443691" y="75.804877" fill="rgb(191,191,191)"  stroke="rgb(191,191,191)" stroke-width="1" font-size="16" >H</text>
<text x="424.266400" y="113.787045" fill="rgb(191,191,191)"  stroke="rgb(191,191,191)" stroke-width="1" font-size="16" >H</text>
<text x="386.284232" y="48.000000" fill="rgb(191,191,191)"  stroke="rgb(191,191,191)" stroke-width="1" font-size="16" >H</text>
<text x="309.239905" y="360.387630" fill="rgb(191,191,191)"  stroke="rgb(191,191,191)" stroke-width="1" font-size="16" >H</text>
<text x="337.044782" y="332.582753" fill="rgb(191,191,191)"  stroke="rgb(191,191,191)" stroke-width="1" font-size="16" >H</text>
<text x="261.080446" y="332.582753" fill="rgb(191,191,191)"  stroke="rgb(191,191,191)" stroke-width="1" font-size="16" >H</text>
<text x="375.026950" y="246.441125" fill="rgb(191,191,191)"  stroke="rgb(191,191,191)" stroke-width="1" font-size="16" >H</text>
<text x="337.044782" y="236.263834" fill="rgb(191,191,191)"  stroke="rgb(191,191,191)" stroke-width="1" font-size="16" >H</text>
<text x="413.009118" y="312.228170" fill="rgb(191,191,191)"  stroke="rgb(191,191,191)" stroke-width="1" font-size="16" >H</text>
<text x="402.831827" y="274.246002" fill="rgb(191,191,191)"  stroke="rgb(191,191,191)" stroke-width="1" font-size="16" >H</text>
<text x="326.867491" y="350.210338" fill="rgb(191,191,191)"  stroke="rgb(191,191,191)" stroke-width="1" font-size="16" >H</text>
<text x="165.082966" y="184.384538" fill="rgb(191,191,191)"  stroke="rgb(191,191,191)" stroke-width="1" font-size="16" >H</text>
<text x="102.107761" y="106.076875" fill="rgb(255,12,12)"  stroke="rgb(255,12,12)" stroke-width="1" font-size="16" >O</text>
<text x="246.179857" y="125.044327" fill="rgb(12,12,255)"  stroke="rgb(12,12,255)" stroke-width="1" font-size="16" >N</text>
<text x="339.771779" y="170.476789" fill="rgb(12,12,255)"  stroke="rgb(12,12,255)" stroke-width="1" font-size="16" >N</text>
<text x="329.818732" y="107.635724" fill="rgb(12,12,255)"  stroke="rgb(12,12,255)" stroke-width="1" font-size="16" >N</text>
<text x="243.452860" y="266.795708" fill="rgb(255,12,12)"  stroke="rgb(255,12,12)" stroke-width="1" font-size="16" >O</text>
<text x="309.239905" y="284.423293" fill="rgb(12,12,255)"  stroke="rgb(12,12,255)" stroke-width="1" font-size="16" >N</text>
</svg>
</g>
<text font-size="18.000000" fill ="black" font-family="sans-serif"
x="10.000000" y="20.000000" >ZINC34893072</text>
</svg>
