<?xml version="1.0"?>
<svg version="1.1" id="topsvg"
xmlns="http://www.w3.org/2000/svg" xmlns:xlink="http://www.w3.org/1999/xlink"
xmlns:cml="http://www.xml-cml.org/schema" x="0" y="0" width="200px" height="200px" viewBox="0 0 100 100">
<title>ZINC22576825 - Open Babel Depiction</title>
<rect x="0" y="0" width="100" height="100" fill="white"/>
<g transform="translate(0,0)">
<svg width="100" height="100" x="0" y="0" viewBox="0 0 554.641 383.923"
font-family="sans-serif" stroke="rgb(0,0,0)" stroke-width="2"  stroke-linecap="round">
<line x1="474.6" y1="149.3" x2="454.6" y2="183.9" stroke="rgb(0,0,0)"  stroke-width="2.0"/>
<line x1="474.6" y1="149.3" x2="474.6" y2="122.3" stroke="rgb(0,0,0)"  stroke-width="2.0"/>
<line x1="474.6" y1="149.3" x2="451.3" y2="135.8" stroke="rgb(0,0,0)"  stroke-width="2.0"/>
<line x1="474.6" y1="149.3" x2="501.6" y2="149.3" stroke="rgb(0,0,0)"  stroke-width="2.0"/>
<line x1="454.6" y1="183.9" x2="427.6" y2="183.9" stroke="rgb(0,0,0)"  stroke-width="2.0"/>
<line x1="454.6" y1="183.9" x2="454.6" y2="210.9" stroke="rgb(0,0,0)"  stroke-width="2.0"/>
<line x1="454.6" y1="183.9" x2="478.0" y2="197.4" stroke="rgb(0,0,0)"  stroke-width="2.0"/>
<line x1="408.1" y1="195.2" x2="394.6" y2="218.6" stroke="rgb(0,0,0)"  stroke-width="2.0"/>
<line x1="397.2" y1="217.1" x2="410.7" y2="240.4" stroke="rgb(0,0,0)"  stroke-width="2.0"/>
<line x1="392.0" y1="220.1" x2="405.5" y2="243.4" stroke="rgb(0,0,0)"  stroke-width="2.0"/>
<line x1="394.6" y1="218.6" x2="354.6" y2="218.6" stroke="rgb(0,0,0)"  stroke-width="2.0"/>
<line x1="354.6" y1="218.6" x2="341.1" y2="195.2" stroke="rgb(0,0,0)"  stroke-width="2.0"/>
<line x1="354.6" y1="218.6" x2="331.3" y2="232.1" stroke="rgb(0,0,0)"  stroke-width="2.0"/>
<line x1="354.6" y1="218.6" x2="354.6" y2="245.6" stroke="rgb(0,0,0)"  stroke-width="2.0"/>
<line x1="321.6" y1="183.9" x2="294.6" y2="183.9" stroke="rgb(0,0,0)"  stroke-width="2.0"/>
<line x1="341.1" y1="172.7" x2="354.6" y2="149.3" stroke="rgb(0,0,0)"  stroke-width="2.0"/>
<line x1="294.6" y1="183.9" x2="274.6" y2="149.3" stroke="rgb(0,0,0)"  stroke-width="2.0"/>
<line x1="294.6" y1="183.9" x2="271.3" y2="197.4" stroke="rgb(0,0,0)"  stroke-width="2.0"/>
<line x1="294.6" y1="183.9" x2="294.6" y2="210.9" stroke="rgb(0,0,0)"  stroke-width="2.0"/>
<line x1="274.6" y1="149.3" x2="247.6" y2="149.3" stroke="rgb(0,0,0)"  stroke-width="2.0"/>
<line x1="274.6" y1="149.3" x2="274.6" y2="122.3" stroke="rgb(0,0,0)"  stroke-width="2.0"/>
<line x1="274.6" y1="149.3" x2="298.0" y2="135.8" stroke="rgb(0,0,0)"  stroke-width="2.0"/>
<line x1="234.6" y1="162.3" x2="234.6" y2="189.3" stroke="rgb(0,0,0)"  stroke-width="2.0"/>
<line x1="221.6" y1="149.3" x2="194.6" y2="149.3" stroke="rgb(0,0,0)"  stroke-width="2.0"/>
<line x1="234.6" y1="136.3" x2="234.6" y2="122.3" stroke="rgb(0,0,0)"  stroke-width="2.0"/>
<line x1="234.6" y1="189.3" x2="200.0" y2="209.3" stroke="rgb(0,0,0)"  stroke-width="2.0"/>
<line x1="234.6" y1="189.3" x2="248.1" y2="212.7" stroke="rgb(0,0,0)"  stroke-width="2.0"/>
<line x1="234.6" y1="189.3" x2="261.6" y2="189.3" stroke="rgb(0,0,0)"  stroke-width="2.0"/>
<line x1="198.5" y1="211.9" x2="175.1" y2="198.4" stroke="rgb(0,0,0)"  stroke-width="2.0"/>
<line x1="201.5" y1="206.7" x2="178.1" y2="193.2" stroke="rgb(0,0,0)"  stroke-width="2.0"/>
<line x1="200.0" y1="209.3" x2="200.0" y2="236.3" stroke="rgb(0,0,0)"  stroke-width="2.0"/>
<line x1="188.7" y1="255.8" x2="165.4" y2="269.3" stroke="rgb(0,0,0)"  stroke-width="2.0"/>
<line x1="165.4" y1="269.3" x2="165.4" y2="309.3" stroke="rgb(0,0,0)"  stroke-width="2.0"/>
<line x1="165.4" y1="269.3" x2="138.4" y2="269.3" stroke="rgb(0,0,0)"  stroke-width="2.0"/>
<line x1="165.4" y1="269.3" x2="151.9" y2="245.9" stroke="rgb(0,0,0)"  stroke-width="2.0"/>
<line x1="165.4" y1="309.3" x2="178.9" y2="332.7" stroke="rgb(0,0,0)"  stroke-width="2.0"/>
<line x1="165.4" y1="309.3" x2="192.4" y2="309.3" stroke="rgb(0,0,0)"  stroke-width="2.0"/>
<line x1="165.4" y1="309.3" x2="142.0" y2="322.8" stroke="rgb(0,0,0)"  stroke-width="2.0"/>
<line x1="194.6" y1="149.3" x2="174.6" y2="114.6" stroke="rgb(0,0,0)"  stroke-width="2.0"/>
<line x1="194.6" y1="149.3" x2="171.3" y2="162.8" stroke="rgb(0,0,0)"  stroke-width="2.0"/>
<line x1="194.6" y1="149.3" x2="194.6" y2="176.3" stroke="rgb(0,0,0)"  stroke-width="2.0"/>
<line x1="172.0" y1="113.1" x2="185.5" y2="89.8" stroke="rgb(0,0,0)"  stroke-width="2.0"/>
<line x1="177.2" y1="116.1" x2="190.7" y2="92.8" stroke="rgb(0,0,0)"  stroke-width="2.0"/>
<line x1="174.6" y1="114.6" x2="147.6" y2="114.6" stroke="rgb(0,0,0)"  stroke-width="2.0"/>
<line x1="128.1" y1="103.4" x2="114.6" y2="80.0" stroke="rgb(0,0,0)"  stroke-width="2.0"/>
<line x1="114.6" y1="80.0" x2="74.6" y2="80.0" stroke="rgb(0,0,0)"  stroke-width="2.0"/>
<line x1="114.6" y1="80.0" x2="114.6" y2="53.0" stroke="rgb(0,0,0)"  stroke-width="2.0"/>
<line x1="114.6" y1="80.0" x2="138.0" y2="66.5" stroke="rgb(0,0,0)"  stroke-width="2.0"/>
<line x1="74.6" y1="80.0" x2="51.3" y2="66.5" stroke="rgb(0,0,0)"  stroke-width="2.0"/>
<line x1="74.6" y1="80.0" x2="74.6" y2="53.0" stroke="rgb(0,0,0)"  stroke-width="2.0"/>
<line x1="74.6" y1="80.0" x2="61.1" y2="103.4" stroke="rgb(0,0,0)"  stroke-width="2.0"/>
<line x1="354.6" y1="149.3" x2="334.6" y2="114.6" stroke="rgb(0,0,0)"  stroke-width="2.0"/>
<line x1="354.6" y1="149.3" x2="378.0" y2="135.8" stroke="rgb(0,0,0)"  stroke-width="2.0"/>
<line x1="354.6" y1="149.3" x2="378.0" y2="162.8" stroke="rgb(0,0,0)"  stroke-width="2.0"/>
<line x1="334.6" y1="117.6" x2="307.6" y2="117.6" stroke="rgb(0,0,0)"  stroke-width="2.0"/>
<line x1="334.6" y1="111.6" x2="307.6" y2="111.6" stroke="rgb(0,0,0)"  stroke-width="2.0"/>
<line x1="334.6" y1="114.6" x2="348.1" y2="91.3" stroke="rgb(0,0,0)"  stroke-width="2.0"/>
<text x="179.358984" y="351.923048" fill="rgb(191,191,191)"  stroke="rgb(191,191,191)" stroke-width="1" font-size="16" >H</text>
<text x="508.641016" y="157.282032" fill="rgb(191,191,191)"  stroke="rgb(191,191,191)" stroke-width="1" font-size="16" >H</text>
<text x="448.641016" y="231.923048" fill="rgb(191,191,191)"  stroke="rgb(191,191,191)" stroke-width="1" font-size="16" >H</text>
<text x="483.282032" y="211.923048" fill="rgb(191,191,191)"  stroke="rgb(191,191,191)" stroke-width="1" font-size="16" >H</text>
<text x="314.000000" y="246.564065" fill="rgb(191,191,191)"  stroke="rgb(191,191,191)" stroke-width="1" font-size="16" >H</text>
<text x="348.641016" y="266.564065" fill="rgb(191,191,191)"  stroke="rgb(191,191,191)" stroke-width="1" font-size="16" >H</text>
<text x="254.000000" y="211.923048" fill="rgb(191,191,191)"  stroke="rgb(191,191,191)" stroke-width="1" font-size="16" >H</text>
<text x="288.641016" y="231.923048" fill="rgb(191,191,191)"  stroke="rgb(191,191,191)" stroke-width="1" font-size="16" >H</text>
<text x="268.641016" y="117.282032" fill="rgb(191,191,191)"  stroke="rgb(191,191,191)" stroke-width="1" font-size="16" >H</text>
<text x="303.282032" y="137.282032" fill="rgb(191,191,191)"  stroke="rgb(191,191,191)" stroke-width="1" font-size="16" >H</text>
<text x="248.641016" y="231.923048" fill="rgb(191,191,191)"  stroke="rgb(191,191,191)" stroke-width="1" font-size="16" >H</text>
<text x="268.641016" y="197.282032" fill="rgb(191,191,191)"  stroke="rgb(191,191,191)" stroke-width="1" font-size="16" >H</text>
<text x="119.358984" y="277.282032" fill="rgb(191,191,191)"  stroke="rgb(191,191,191)" stroke-width="1" font-size="16" >H</text>
<text x="139.358984" y="242.641016" fill="rgb(191,191,191)"  stroke="rgb(191,191,191)" stroke-width="1" font-size="16" >H</text>
<text x="434.000000" y="137.282032" fill="rgb(191,191,191)"  stroke="rgb(191,191,191)" stroke-width="1" font-size="16" >H</text>
<text x="199.358984" y="317.282032" fill="rgb(191,191,191)"  stroke="rgb(191,191,191)" stroke-width="1" font-size="16" >H</text>
<text x="124.717968" y="337.282032" fill="rgb(191,191,191)"  stroke="rgb(191,191,191)" stroke-width="1" font-size="16" >H</text>
<text x="154.000000" y="177.282032" fill="rgb(191,191,191)"  stroke="rgb(191,191,191)" stroke-width="1" font-size="16" >H</text>
<text x="188.641016" y="197.282032" fill="rgb(191,191,191)"  stroke="rgb(191,191,191)" stroke-width="1" font-size="16" >H</text>
<text x="108.641016" y="48.000000" fill="rgb(191,191,191)"  stroke="rgb(191,191,191)" stroke-width="1" font-size="16" >H</text>
<text x="143.282032" y="68.000000" fill="rgb(191,191,191)"  stroke="rgb(191,191,191)" stroke-width="1" font-size="16" >H</text>
<text x="34.000000" y="68.000000" fill="rgb(191,191,191)"  stroke="rgb(191,191,191)" stroke-width="1" font-size="16" >H</text>
<text x="68.641016" y="48.000000" fill="rgb(191,191,191)"  stroke="rgb(191,191,191)" stroke-width="1" font-size="16" >H</text>
<text x="48.641016" y="122.641016" fill="rgb(191,191,191)"  stroke="rgb(191,191,191)" stroke-width="1" font-size="16" >H</text>
<text x="383.282032" y="137.282032" fill="rgb(191,191,191)"  stroke="rgb(191,191,191)" stroke-width="1" font-size="16" >H</text>
<text x="383.282032" y="177.282032" fill="rgb(191,191,191)"  stroke="rgb(191,191,191)" stroke-width="1" font-size="16" >H</text>
<text x="228.641016" y="117.282032" fill="rgb(191,191,191)"  stroke="rgb(191,191,191)" stroke-width="1" font-size="16" >H</text>
<text x="408.641016" y="191.923048" fill="rgb(255,12,12)"  stroke="rgb(255,12,12)" stroke-width="1" font-size="16" >O</text>
<text x="408.641016" y="261.205081" fill="rgb(255,12,12)"  stroke="rgb(255,12,12)" stroke-width="1" font-size="16" >O</text>
<text x="328.641016" y="191.923048" fill="rgb(12,12,255)"  stroke="rgb(12,12,255)" stroke-width="1" font-size="16" >N</text>
<text x="239.441016" y="145.250032" fill="rgb(12,12,255)"  stroke="rgb(12,12,255)" stroke-width="1" font-size="16" >+</text>
<text x="228.641016" y="157.282032" fill="rgb(12,12,255)"  stroke="rgb(12,12,255)" stroke-width="1" font-size="16" >N</text>
<text x="159.358984" y="197.282032" fill="rgb(255,12,12)"  stroke="rgb(255,12,12)" stroke-width="1" font-size="16" >O</text>
<text x="194.000000" y="257.282032" fill="rgb(255,12,12)"  stroke="rgb(255,12,12)" stroke-width="1" font-size="16" >O</text>
<text x="188.641016" y="88.000000" fill="rgb(255,12,12)"  stroke="rgb(255,12,12)" stroke-width="1" font-size="16" >O</text>
<text x="128.641016" y="122.641016" fill="rgb(255,12,12)"  stroke="rgb(255,12,12)" stroke-width="1" font-size="16" >O</text>
<text x="288.641016" y="122.641016" fill="rgb(255,12,12)"  stroke="rgb(255,12,12)" stroke-width="1" font-size="16" >O</text>
<text x="348.641016" y="88.000000" fill="rgb(255,12,12)"  stroke="rgb(255,12,12)" stroke-width="1" font-size="16" >OH</text>
<text x="468.641016" y="117.282032" fill="rgb(191,191,191)"  stroke="rgb(191,191,191)" stroke-width="1" font-size="16" >H</text>
</svg>
</g>
<text font-size="18.000000" fill ="black" font-family="sans-serif"
x="10.000000" y="20.000000" >ZINC22576825</text>
</svg>
