<?xml version="1.0"?>
<svg version="1.1" id="topsvg"
xmlns="http://www.w3.org/2000/svg" xmlns:xlink="http://www.w3.org/1999/xlink"
xmlns:cml="http://www.xml-cml.org/schema" x="0" y="0" width="200px" height="200px" viewBox="0 0 100 100">
<title>ZINC04335977 - Open Babel Depiction</title>
<rect x="0" y="0" width="100" height="100" fill="white"/>
<g transform="translate(0,0)">
<svg width="100" height="100" x="0" y="0" viewBox="0 0 350.099 244.218"
font-family="sans-serif" stroke="rgb(0,0,0)" stroke-width="2"  stroke-linecap="round">
<line x1="275.0" y1="99.8" x2="298.8" y2="86.0" stroke="rgb(0,0,0)"  stroke-width="2.0"/>
<line x1="275.0" y1="138.4" x2="298.8" y2="152.2" stroke="rgb(0,0,0)"  stroke-width="2.0"/>
<line x1="241.6" y1="157.7" x2="241.6" y2="185.2" stroke="rgb(0,0,0)"  stroke-width="2.0"/>
<line x1="241.6" y1="80.6" x2="241.6" y2="53.0" stroke="rgb(0,0,0)"  stroke-width="2.0"/>
<line x1="174.8" y1="157.7" x2="174.8" y2="183.2" stroke="rgb(0,0,0)"  stroke-width="2.0"/>
<line x1="187.5" y1="198.9" x2="199.8" y2="201.5" stroke="rgb(0,0,0)"  stroke-width="2.0"/>
<line x1="108.0" y1="157.7" x2="108.1" y2="184.7" stroke="rgb(0,0,0)"  stroke-width="2.0"/>
<line x1="74.7" y1="138.4" x2="51.3" y2="151.9" stroke="rgb(0,0,0)"  stroke-width="2.0"/>
<line x1="74.6" y1="99.9" x2="51.3" y2="86.4" stroke="rgb(0,0,0)"  stroke-width="2.0"/>
<line x1="241.6" y1="157.7" x2="208.2" y2="138.4" stroke="rgb(0,0,0)"  stroke-width="2.0"/>
<line x1="208.2" y1="138.4" x2="208.2" y2="99.8" stroke="rgb(0,0,0)"  stroke-width="2.0"/>
<line x1="208.2" y1="99.8" x2="241.6" y2="80.6" stroke="rgb(0,0,0)"  stroke-width="2.0"/>
<line x1="241.6" y1="80.6" x2="275.0" y2="99.8" stroke="rgb(0,0,0)"  stroke-width="2.0"/>
<line x1="243.2" y1="89.8" x2="266.2" y2="103.1" stroke="rgb(0,0,0)"  stroke-width="2.0"/>
<line x1="275.0" y1="99.8" x2="275.0" y2="138.4" stroke="rgb(0,0,0)"  stroke-width="2.0"/>
<line x1="275.0" y1="138.4" x2="241.6" y2="157.7" stroke="rgb(0,0,0)"  stroke-width="2.0"/>
<line x1="266.2" y1="135.1" x2="243.2" y2="148.4" stroke="rgb(0,0,0)"  stroke-width="2.0"/>
<line x1="141.4" y1="138.4" x2="141.4" y2="99.9" stroke="rgb(0,0,0)"  stroke-width="2.0"/>
<line x1="141.4" y1="99.9" x2="174.8" y2="80.6" stroke="rgb(0,0,0)"  stroke-width="2.0"/>
<line x1="174.8" y1="80.6" x2="208.2" y2="99.8" stroke="rgb(0,0,0)"  stroke-width="2.0"/>
<line x1="176.4" y1="89.8" x2="199.4" y2="103.1" stroke="rgb(0,0,0)"  stroke-width="2.0"/>
<line x1="208.2" y1="138.4" x2="174.8" y2="157.7" stroke="rgb(0,0,0)"  stroke-width="2.0"/>
<line x1="199.4" y1="135.2" x2="176.4" y2="148.4" stroke="rgb(0,0,0)"  stroke-width="2.0"/>
<line x1="174.8" y1="157.7" x2="141.4" y2="138.4" stroke="rgb(0,0,0)"  stroke-width="2.0"/>
<line x1="74.6" y1="99.9" x2="108.0" y2="80.6" stroke="rgb(0,0,0)"  stroke-width="2.0"/>
<line x1="108.0" y1="80.6" x2="141.4" y2="99.9" stroke="rgb(0,0,0)"  stroke-width="2.0"/>
<line x1="109.6" y1="89.8" x2="132.6" y2="103.1" stroke="rgb(0,0,0)"  stroke-width="2.0"/>
<line x1="141.4" y1="138.4" x2="108.0" y2="157.7" stroke="rgb(0,0,0)"  stroke-width="2.0"/>
<line x1="132.6" y1="135.2" x2="109.6" y2="148.4" stroke="rgb(0,0,0)"  stroke-width="2.0"/>
<line x1="108.0" y1="157.7" x2="74.7" y2="138.4" stroke="rgb(0,0,0)"  stroke-width="2.0"/>
<line x1="74.7" y1="138.4" x2="74.6" y2="99.9" stroke="rgb(0,0,0)"  stroke-width="2.0"/>
<line x1="81.9" y1="132.4" x2="81.8" y2="105.9" stroke="rgb(0,0,0)"  stroke-width="2.0"/>
<line x1="108.0" y1="55.0" x2="108.0" y2="80.6" stroke="rgb(0,0,0)"  stroke-width="2.0"/>
<line x1="174.8" y1="80.6" x2="174.8" y2="55.0" stroke="rgb(0,0,0)"  stroke-width="2.0"/>
<line x1="152.8" y1="42.0" x2="130.1" y2="42.0" stroke="rgb(0,0,0)"  stroke-width="2.0"/>
<line x1="153.4" y1="49.2" x2="129.4" y2="49.2" stroke="rgb(0,0,0)"  stroke-width="2.0"/>
<text x="206.522834" y="212.217649" fill="rgb(191,191,191)"  stroke="rgb(191,191,191)" stroke-width="1" font-size="16" >H</text>
<text x="34.000000" y="87.879848" fill="rgb(191,191,191)"  stroke="rgb(191,191,191)" stroke-width="1" font-size="16" >H</text>
<text x="34.017709" y="166.424211" fill="rgb(191,191,191)"  stroke="rgb(191,191,191)" stroke-width="1" font-size="16" >H</text>
<text x="102.055160" y="205.682345" fill="rgb(191,191,191)"  stroke="rgb(191,191,191)" stroke-width="1" font-size="16" >H</text>
<text x="235.564416" y="48.000000" fill="rgb(191,191,191)"  stroke="rgb(191,191,191)" stroke-width="1" font-size="16" >H</text>
<text x="235.594048" y="206.223363" fill="rgb(191,191,191)"  stroke="rgb(191,191,191)" stroke-width="1" font-size="16" >H</text>
<text x="304.099366" y="166.654692" fill="rgb(191,191,191)"  stroke="rgb(191,191,191)" stroke-width="1" font-size="16" >H</text>
<text x="304.084550" y="87.543010" fill="rgb(191,191,191)"  stroke="rgb(191,191,191)" stroke-width="1" font-size="16" >H</text>
<text x="168.793068" y="50.019520" fill="rgb(12,12,255)"  stroke="rgb(12,12,255)" stroke-width="1" font-size="16" >N</text>
<text x="102.026010" y="50.032024" fill="rgb(12,12,255)"  stroke="rgb(12,12,255)" stroke-width="1" font-size="16" >N</text>
<text x="168.821945" y="204.211457" fill="rgb(255,12,12)"  stroke="rgb(255,12,12)" stroke-width="1" font-size="16" >O</text>
</svg>
</g>
<text font-size="18.000000" fill ="black" font-family="sans-serif"
x="10.000000" y="20.000000" >ZINC04335977</text>
</svg>
