<?xml version="1.0"?>
<svg version="1.1" id="topsvg"
xmlns="http://www.w3.org/2000/svg" xmlns:xlink="http://www.w3.org/1999/xlink"
xmlns:cml="http://www.xml-cml.org/schema" x="0" y="0" width="200px" height="200px" viewBox="0 0 100 100">
<title>ZINC22029158 - Open Babel Depiction</title>
<rect x="0" y="0" width="100" height="100" fill="white"/>
<g transform="translate(0,0)">
<svg width="100" height="100" x="0" y="0" viewBox="0 0 501.576 408.849"
font-family="sans-serif" stroke="rgb(0,0,0)" stroke-width="2"  stroke-linecap="round">
<line x1="72.1" y1="132.7" x2="109.2" y2="132.7" stroke="rgb(0,0,0)"  stroke-width="2.0"/>
<line x1="72.1" y1="132.7" x2="51.3" y2="144.8" stroke="rgb(0,0,0)"  stroke-width="2.0"/>
<line x1="72.1" y1="132.7" x2="72.1" y2="156.8" stroke="rgb(0,0,0)"  stroke-width="2.0"/>
<line x1="72.1" y1="132.7" x2="60.1" y2="111.9" stroke="rgb(0,0,0)"  stroke-width="2.0"/>
<line x1="109.2" y1="132.7" x2="109.2" y2="169.8" stroke="rgb(0,0,0)"  stroke-width="2.0"/>
<line x1="109.2" y1="132.7" x2="183.4" y2="132.7" stroke="rgb(0,0,0)"  stroke-width="2.0"/>
<line x1="109.2" y1="132.7" x2="109.2" y2="108.6" stroke="rgb(0,0,0)"  stroke-width="2.0"/>
<line x1="109.2" y1="169.8" x2="121.3" y2="190.7" stroke="rgb(0,0,0)"  stroke-width="2.0"/>
<line x1="109.2" y1="169.8" x2="133.3" y2="169.8" stroke="rgb(0,0,0)"  stroke-width="2.0"/>
<line x1="109.2" y1="169.8" x2="88.3" y2="181.9" stroke="rgb(0,0,0)"  stroke-width="2.0"/>
<polygon points="183.394397 132.727273 187.394397 157.578182 179.394397 157.578182 " stroke-width="2.000000" fill="rgb(0,0,0)"  stroke="rgb(0,0,0)" />
<line x1="183.4" y1="132.7" x2="257.6" y2="132.7" stroke="rgb(0,0,0)"  stroke-width="2.0"/>
<line x1="183.4" y1="132.7" x2="183.4" y2="108.6" stroke="rgb(0,0,0)"  stroke-width="2.0"/>
<line x1="257.6" y1="132.7" x2="257.6" y2="206.9" stroke="rgb(0,0,0)"  stroke-width="2.0"/>
<line x1="257.6" y1="132.7" x2="294.7" y2="132.7" stroke="rgb(0,0,0)"  stroke-width="2.0"/>
<line x1="257.6" y1="132.7" x2="257.6" y2="71.5" stroke="rgb(0,0,0)"  stroke-width="2.0"/>
<line x1="225.5" y1="225.5" x2="204.6" y2="213.4" stroke="rgb(0,0,0)"  stroke-width="2.0"/>
<line x1="225.5" y1="262.5" x2="204.6" y2="274.6" stroke="rgb(0,0,0)"  stroke-width="2.0"/>
<line x1="257.6" y1="281.1" x2="257.6" y2="305.2" stroke="rgb(0,0,0)"  stroke-width="2.0"/>
<line x1="289.7" y1="262.5" x2="310.6" y2="274.6" stroke="rgb(0,0,0)"  stroke-width="2.0"/>
<line x1="289.7" y1="225.5" x2="310.6" y2="213.4" stroke="rgb(0,0,0)"  stroke-width="2.0"/>
<line x1="246.3" y1="324.7" x2="225.5" y2="336.7" stroke="rgb(0,0,0)"  stroke-width="2.0"/>
<line x1="225.5" y1="336.7" x2="213.4" y2="357.6" stroke="rgb(0,0,0)"  stroke-width="2.0"/>
<line x1="225.5" y1="336.7" x2="237.5" y2="357.6" stroke="rgb(0,0,0)"  stroke-width="2.0"/>
<line x1="225.5" y1="336.7" x2="204.6" y2="324.7" stroke="rgb(0,0,0)"  stroke-width="2.0"/>
<line x1="313.2" y1="164.8" x2="301.2" y2="185.7" stroke="rgb(0,0,0)"  stroke-width="2.0"/>
<line x1="350.3" y1="164.8" x2="362.3" y2="185.7" stroke="rgb(0,0,0)"  stroke-width="2.0"/>
<line x1="368.8" y1="132.7" x2="392.9" y2="132.7" stroke="rgb(0,0,0)"  stroke-width="2.0"/>
<line x1="350.3" y1="100.6" x2="362.3" y2="79.7" stroke="rgb(0,0,0)"  stroke-width="2.0"/>
<line x1="313.2" y1="100.6" x2="301.2" y2="79.7" stroke="rgb(0,0,0)"  stroke-width="2.0"/>
<line x1="412.4" y1="121.5" x2="424.5" y2="100.6" stroke="rgb(0,0,0)"  stroke-width="2.0"/>
<line x1="424.5" y1="100.6" x2="424.5" y2="76.5" stroke="rgb(0,0,0)"  stroke-width="2.0"/>
<line x1="424.5" y1="100.6" x2="403.6" y2="88.6" stroke="rgb(0,0,0)"  stroke-width="2.0"/>
<line x1="424.5" y1="100.6" x2="448.6" y2="100.6" stroke="rgb(0,0,0)"  stroke-width="2.0"/>
<line x1="268.8" y1="52.0" x2="278.4" y2="46.5" stroke="rgb(0,0,0)"  stroke-width="2.0"/>
<line x1="246.3" y1="52.0" x2="236.7" y2="46.5" stroke="rgb(0,0,0)"  stroke-width="2.0"/>
<line x1="196.4" y1="95.6" x2="207.5" y2="95.6" stroke="rgb(0,0,0)"  stroke-width="2.0"/>
<line x1="183.4" y1="82.6" x2="183.4" y2="71.5" stroke="rgb(0,0,0)"  stroke-width="2.0"/>
<line x1="170.4" y1="95.6" x2="159.3" y2="95.6" stroke="rgb(0,0,0)"  stroke-width="2.0"/>
<line x1="225.5" y1="262.5" x2="257.6" y2="281.1" stroke="rgb(0,0,0)"  stroke-width="2.0"/>
<line x1="257.6" y1="281.1" x2="289.7" y2="262.5" stroke="rgb(0,0,0)"  stroke-width="2.0"/>
<line x1="259.2" y1="271.9" x2="280.9" y2="259.3" stroke="rgb(0,0,0)"  stroke-width="2.0"/>
<line x1="289.7" y1="262.5" x2="289.7" y2="225.5" stroke="rgb(0,0,0)"  stroke-width="2.0"/>
<line x1="289.7" y1="225.5" x2="257.6" y2="206.9" stroke="rgb(0,0,0)"  stroke-width="2.0"/>
<line x1="280.9" y1="228.7" x2="259.2" y2="216.1" stroke="rgb(0,0,0)"  stroke-width="2.0"/>
<line x1="257.6" y1="206.9" x2="225.5" y2="225.5" stroke="rgb(0,0,0)"  stroke-width="2.0"/>
<line x1="225.5" y1="225.5" x2="225.5" y2="262.5" stroke="rgb(0,0,0)"  stroke-width="2.0"/>
<line x1="232.7" y1="231.5" x2="232.7" y2="256.5" stroke="rgb(0,0,0)"  stroke-width="2.0"/>
<line x1="350.3" y1="164.8" x2="368.8" y2="132.7" stroke="rgb(0,0,0)"  stroke-width="2.0"/>
<line x1="368.8" y1="132.7" x2="350.3" y2="100.6" stroke="rgb(0,0,0)"  stroke-width="2.0"/>
<line x1="359.6" y1="131.1" x2="347.1" y2="109.4" stroke="rgb(0,0,0)"  stroke-width="2.0"/>
<line x1="350.3" y1="100.6" x2="313.2" y2="100.6" stroke="rgb(0,0,0)"  stroke-width="2.0"/>
<line x1="313.2" y1="100.6" x2="294.7" y2="132.7" stroke="rgb(0,0,0)"  stroke-width="2.0"/>
<line x1="316.4" y1="109.4" x2="303.9" y2="131.1" stroke="rgb(0,0,0)"  stroke-width="2.0"/>
<line x1="294.7" y1="132.7" x2="313.2" y2="164.8" stroke="rgb(0,0,0)"  stroke-width="2.0"/>
<line x1="313.2" y1="164.8" x2="350.3" y2="164.8" stroke="rgb(0,0,0)"  stroke-width="2.0"/>
<line x1="319.2" y1="157.6" x2="344.3" y2="157.6" stroke="rgb(0,0,0)"  stroke-width="2.0"/>
<text x="288.667124" y="204.970612" fill="rgb(191,191,191)"  stroke="rgb(191,191,191)" stroke-width="1" font-size="16" >H</text>
<text x="47.576215" y="108.605603" fill="rgb(191,191,191)"  stroke="rgb(191,191,191)" stroke-width="1" font-size="16" >H</text>
<text x="103.212579" y="103.636364" fill="rgb(191,191,191)"  stroke="rgb(191,191,191)" stroke-width="1" font-size="16" >H</text>
<text x="121.758033" y="209.939851" fill="rgb(191,191,191)"  stroke="rgb(191,191,191)" stroke-width="1" font-size="16" >H</text>
<text x="140.303488" y="177.818182" fill="rgb(191,191,191)"  stroke="rgb(191,191,191)" stroke-width="1" font-size="16" >H</text>
<text x="71.090909" y="196.363636" fill="rgb(191,191,191)"  stroke="rgb(191,191,191)" stroke-width="1" font-size="16" >H</text>
<text x="187.332876" y="214.909091" fill="rgb(191,191,191)"  stroke="rgb(191,191,191)" stroke-width="1" font-size="16" >H</text>
<text x="187.332876" y="289.090909" fill="rgb(191,191,191)"  stroke="rgb(191,191,191)" stroke-width="1" font-size="16" >H</text>
<text x="315.819554" y="289.090909" fill="rgb(191,191,191)"  stroke="rgb(191,191,191)" stroke-width="1" font-size="16" >H</text>
<text x="315.819554" y="214.909091" fill="rgb(191,191,191)"  stroke="rgb(191,191,191)" stroke-width="1" font-size="16" >H</text>
<text x="200.909091" y="376.848942" fill="rgb(191,191,191)"  stroke="rgb(191,191,191)" stroke-width="1" font-size="16" >H</text>
<text x="238.000000" y="376.848942" fill="rgb(191,191,191)"  stroke="rgb(191,191,191)" stroke-width="1" font-size="16" >H</text>
<text x="187.332876" y="326.181818" fill="rgb(191,191,191)"  stroke="rgb(191,191,191)" stroke-width="1" font-size="16" >H</text>
<text x="66.121670" y="177.818182" fill="rgb(191,191,191)"  stroke="rgb(191,191,191)" stroke-width="1" font-size="16" >H</text>
<text x="362.848942" y="204.970612" fill="rgb(191,191,191)"  stroke="rgb(191,191,191)" stroke-width="1" font-size="16" >H</text>
<text x="362.848942" y="76.483934" fill="rgb(191,191,191)"  stroke="rgb(191,191,191)" stroke-width="1" font-size="16" >H</text>
<text x="288.667124" y="76.483934" fill="rgb(191,191,191)"  stroke="rgb(191,191,191)" stroke-width="1" font-size="16" >H</text>
<text x="418.485306" y="71.514694" fill="rgb(191,191,191)"  stroke="rgb(191,191,191)" stroke-width="1" font-size="16" >H</text>
<text x="386.363636" y="90.060149" fill="rgb(191,191,191)"  stroke="rgb(191,191,191)" stroke-width="1" font-size="16" >H</text>
<text x="455.576215" y="108.605603" fill="rgb(191,191,191)"  stroke="rgb(191,191,191)" stroke-width="1" font-size="16" >H</text>
<text x="283.697884" y="48.000000" fill="rgb(191,191,191)"  stroke="rgb(191,191,191)" stroke-width="1" font-size="16" >H</text>
<text x="214.485306" y="103.636364" fill="rgb(191,191,191)"  stroke="rgb(191,191,191)" stroke-width="1" font-size="16" >H</text>
<text x="177.394397" y="66.545455" fill="rgb(191,191,191)"  stroke="rgb(191,191,191)" stroke-width="1" font-size="16" >H</text>
<text x="219.454545" y="48.000000" fill="rgb(191,191,191)"  stroke="rgb(191,191,191)" stroke-width="1" font-size="16" >H</text>
<text x="140.303488" y="103.636364" fill="rgb(191,191,191)"  stroke="rgb(191,191,191)" stroke-width="1" font-size="16" >H</text>
<text x="177.394397" y="177.818182" fill="rgb(191,191,191)"  stroke="rgb(191,191,191)" stroke-width="1" font-size="16" >H</text>
<text x="251.576215" y="326.181818" fill="rgb(255,12,12)"  stroke="rgb(255,12,12)" stroke-width="1" font-size="16" >O</text>
<text x="399.939851" y="140.727273" fill="rgb(255,12,12)"  stroke="rgb(255,12,12)" stroke-width="1" font-size="16" >O</text>
<text x="251.576215" y="66.545455" fill="rgb(12,12,255)"  stroke="rgb(12,12,255)" stroke-width="1" font-size="16" >N</text>
<text x="188.194397" y="91.604364" fill="rgb(12,12,255)"  stroke="rgb(12,12,255)" stroke-width="1" font-size="16" >+</text>
<text x="177.394397" y="103.636364" fill="rgb(12,12,255)"  stroke="rgb(12,12,255)" stroke-width="1" font-size="16" >N</text>
<text x="34.000000" y="159.272727" fill="rgb(191,191,191)"  stroke="rgb(191,191,191)" stroke-width="1" font-size="16" >H</text>
</svg>
</g>
<text font-size="18.000000" fill ="black" font-family="sans-serif"
x="10.000000" y="20.000000" >ZINC22029158</text>
</svg>
