<?xml version="1.0"?>
<svg version="1.1" id="topsvg"
xmlns="http://www.w3.org/2000/svg" xmlns:xlink="http://www.w3.org/1999/xlink"
xmlns:cml="http://www.xml-cml.org/schema" x="0" y="0" width="200px" height="200px" viewBox="0 0 100 100">
<title>ZINC01710281 - Open Babel Depiction</title>
<rect x="0" y="0" width="100" height="100" fill="white"/>
<g transform="translate(0,0)">
<svg width="100" height="100" x="0" y="0" viewBox="0 0 383.923 343.196"
font-family="sans-serif" stroke="rgb(0,0,0)" stroke-width="2"  stroke-linecap="round">
<line x1="186.2" y1="232.8" x2="160.5" y2="224.4" stroke="rgb(0,0,0)"  stroke-width="2.0"/>
<line x1="218.6" y1="209.3" x2="218.6" y2="169.3" stroke="rgb(0,0,0)"  stroke-width="2.0"/>
<line x1="263.3" y1="228.8" x2="276.6" y2="224.4" stroke="rgb(0,0,0)"  stroke-width="2.0"/>
<line x1="238.6" y1="270.8" x2="254.4" y2="292.7" stroke="rgb(0,0,0)"  stroke-width="2.0"/>
<line x1="218.6" y1="169.3" x2="183.9" y2="149.3" stroke="rgb(0,0,0)"  stroke-width="2.0"/>
<line x1="218.6" y1="169.3" x2="232.1" y2="145.9" stroke="rgb(0,0,0)"  stroke-width="2.0"/>
<line x1="218.6" y1="169.3" x2="245.6" y2="169.3" stroke="rgb(0,0,0)"  stroke-width="2.0"/>
<polygon points="183.923048 149.282032 173.987150 174.491513 167.058947 170.491513 " stroke-width="2.000000" fill="rgb(0,0,0)"  stroke="rgb(0,0,0)" />
<line x1="183.9" y1="149.3" x2="149.3" y2="129.3" stroke="rgb(0,0,0)"  stroke-width="2.0"/>
<line x1="183.9" y1="149.3" x2="197.4" y2="125.9" stroke="rgb(0,0,0)"  stroke-width="2.0"/>
<line x1="146.3" y1="129.3" x2="146.3" y2="102.3" stroke="rgb(0,0,0)"  stroke-width="2.0"/>
<line x1="152.3" y1="129.3" x2="152.3" y2="102.3" stroke="rgb(0,0,0)"  stroke-width="2.0"/>
<line x1="149.3" y1="129.3" x2="125.9" y2="142.8" stroke="rgb(0,0,0)"  stroke-width="2.0"/>
<line x1="103.4" y1="142.8" x2="80.0" y2="129.3" stroke="rgb(0,0,0)"  stroke-width="2.0"/>
<line x1="114.6" y1="162.3" x2="114.6" y2="176.3" stroke="rgb(0,0,0)"  stroke-width="2.0"/>
<line x1="80.0" y1="129.3" x2="80.0" y2="89.3" stroke="rgb(0,0,0)"  stroke-width="2.0"/>
<line x1="80.0" y1="129.3" x2="53.0" y2="129.3" stroke="rgb(0,0,0)"  stroke-width="2.0"/>
<line x1="80.0" y1="129.3" x2="66.5" y2="152.7" stroke="rgb(0,0,0)"  stroke-width="2.0"/>
<line x1="78.5" y1="86.7" x2="101.9" y2="73.2" stroke="rgb(0,0,0)"  stroke-width="2.0"/>
<line x1="81.5" y1="91.9" x2="104.9" y2="78.4" stroke="rgb(0,0,0)"  stroke-width="2.0"/>
<line x1="80.0" y1="89.3" x2="56.6" y2="75.8" stroke="rgb(0,0,0)"  stroke-width="2.0"/>
<line x1="216.9" y1="114.6" x2="243.9" y2="114.6" stroke="rgb(0,0,0)"  stroke-width="2.0"/>
<line x1="197.4" y1="103.4" x2="190.4" y2="91.3" stroke="rgb(0,0,0)"  stroke-width="2.0"/>
<line x1="246.5" y1="113.1" x2="260.0" y2="136.5" stroke="rgb(0,0,0)"  stroke-width="2.0"/>
<line x1="241.3" y1="116.1" x2="254.8" y2="139.5" stroke="rgb(0,0,0)"  stroke-width="2.0"/>
<line x1="243.9" y1="114.6" x2="263.9" y2="80.0" stroke="rgb(0,0,0)"  stroke-width="2.0"/>
<line x1="263.9" y1="80.0" x2="290.9" y2="80.0" stroke="rgb(0,0,0)"  stroke-width="2.0"/>
<line x1="263.9" y1="80.0" x2="263.9" y2="53.0" stroke="rgb(0,0,0)"  stroke-width="2.0"/>
<line x1="263.9" y1="80.0" x2="240.5" y2="66.5" stroke="rgb(0,0,0)"  stroke-width="2.0"/>
<line x1="303.9" y1="93.0" x2="303.9" y2="107.0" stroke="rgb(0,0,0)"  stroke-width="2.0"/>
<line x1="316.9" y1="80.0" x2="330.9" y2="80.0" stroke="rgb(0,0,0)"  stroke-width="2.0"/>
<line x1="303.9" y1="67.0" x2="303.9" y2="53.0" stroke="rgb(0,0,0)"  stroke-width="2.0"/>
<line x1="218.6" y1="209.3" x2="186.2" y2="232.8" stroke="rgb(0,0,0)"  stroke-width="2.0"/>
<line x1="217.9" y1="218.6" x2="195.3" y2="235.1" stroke="rgb(0,0,0)"  stroke-width="2.0"/>
<line x1="186.2" y1="232.8" x2="194.5" y2="258.5" stroke="rgb(0,0,0)"  stroke-width="2.0"/>
<line x1="211.8" y1="270.8" x2="238.6" y2="270.8" stroke="rgb(0,0,0)"  stroke-width="2.0"/>
<line x1="213.8" y1="263.6" x2="232.6" y2="263.6" stroke="rgb(0,0,0)"  stroke-width="2.0"/>
<line x1="238.6" y1="270.8" x2="246.9" y2="245.2" stroke="rgb(0,0,0)"  stroke-width="2.0"/>
<line x1="240.4" y1="225.2" x2="218.6" y2="209.3" stroke="rgb(0,0,0)"  stroke-width="2.0"/>
<text x="54.000000" y="171.923048" fill="rgb(191,191,191)"  stroke="rgb(191,191,191)" stroke-width="1" font-size="16" >H</text>
<text x="308.723048" y="75.968000" fill="rgb(12,12,255)"  stroke="rgb(12,12,255)" stroke-width="1" font-size="16" >+</text>
<text x="297.923048" y="88.000000" fill="rgb(12,12,255)"  stroke="rgb(12,12,255)" stroke-width="1" font-size="16" >N</text>
<text x="142.161124" y="228.432763" fill="rgb(191,191,191)"  stroke="rgb(191,191,191)" stroke-width="1" font-size="16" >H</text>
<text x="256.075475" y="311.196383" fill="rgb(191,191,191)"  stroke="rgb(191,191,191)" stroke-width="1" font-size="16" >H</text>
<text x="232.564065" y="142.641016" fill="rgb(191,191,191)"  stroke="rgb(191,191,191)" stroke-width="1" font-size="16" >H</text>
<text x="252.564065" y="177.282032" fill="rgb(191,191,191)"  stroke="rgb(191,191,191)" stroke-width="1" font-size="16" >H</text>
<text x="108.641016" y="197.282032" fill="rgb(191,191,191)"  stroke="rgb(191,191,191)" stroke-width="1" font-size="16" >H</text>
<text x="34.000000" y="137.282032" fill="rgb(191,191,191)"  stroke="rgb(191,191,191)" stroke-width="1" font-size="16" >H</text>
<text x="257.923048" y="157.282032" fill="rgb(255,12,12)"  stroke="rgb(255,12,12)" stroke-width="1" font-size="16" >O</text>
<text x="177.923048" y="88.000000" fill="rgb(191,191,191)"  stroke="rgb(191,191,191)" stroke-width="1" font-size="16" >H</text>
<text x="257.923048" y="48.000000" fill="rgb(191,191,191)"  stroke="rgb(191,191,191)" stroke-width="1" font-size="16" >H</text>
<text x="223.282032" y="68.000000" fill="rgb(191,191,191)"  stroke="rgb(191,191,191)" stroke-width="1" font-size="16" >H</text>
<text x="297.923048" y="128.000000" fill="rgb(191,191,191)"  stroke="rgb(191,191,191)" stroke-width="1" font-size="16" >H</text>
<text x="337.923048" y="88.000000" fill="rgb(191,191,191)"  stroke="rgb(191,191,191)" stroke-width="1" font-size="16" >H</text>
<text x="297.923048" y="48.000000" fill="rgb(191,191,191)"  stroke="rgb(191,191,191)" stroke-width="1" font-size="16" >H</text>
<text x="282.967005" y="228.432763" fill="rgb(191,191,191)"  stroke="rgb(191,191,191)" stroke-width="1" font-size="16" >H</text>
<text x="143.282032" y="97.282032" fill="rgb(255,12,12)"  stroke="rgb(255,12,12)" stroke-width="1" font-size="16" >O</text>
<text x="244.924744" y="240.793442" fill="rgb(12,12,255)"  stroke="rgb(12,12,255)" stroke-width="1" font-size="16" >N</text>
<text x="192.564065" y="278.835703" fill="rgb(12,12,255)"  stroke="rgb(12,12,255)" stroke-width="1" font-size="16" >N</text>
<text x="157.923048" y="191.923048" fill="rgb(191,191,191)"  stroke="rgb(191,191,191)" stroke-width="1" font-size="16" >H</text>
<text x="108.641016" y="157.282032" fill="rgb(12,12,255)"  stroke="rgb(12,12,255)" stroke-width="1" font-size="16" >N</text>
<text x="108.641016" y="77.282032" fill="rgb(255,12,12)"  stroke="rgb(255,12,12)" stroke-width="1" font-size="16" >O</text>
<text x="27.358984" y="77.282032" fill="rgb(255,12,12)"  stroke="rgb(255,12,12)" stroke-width="1" font-size="16" >HO</text>
<text x="197.923048" y="122.641016" fill="rgb(12,12,255)"  stroke="rgb(12,12,255)" stroke-width="1" font-size="16" >N</text>
</svg>
</g>
<text font-size="18.000000" fill ="black" font-family="sans-serif"
x="10.000000" y="20.000000" >ZINC01710281</text>
</svg>
