<?xml version="1.0"?>
<svg version="1.1" id="topsvg"
xmlns="http://www.w3.org/2000/svg" xmlns:xlink="http://www.w3.org/1999/xlink"
xmlns:cml="http://www.xml-cml.org/schema" x="0" y="0" width="200px" height="200px" viewBox="0 0 100 100">
<title>ZINC12505323 - Open Babel Depiction</title>
<rect x="0" y="0" width="100" height="100" fill="white"/>
<g transform="translate(0,0)">
<svg width="100" height="100" x="0" y="0" viewBox="0 0 293.914 317.179"
font-family="sans-serif" stroke="rgb(0,0,0)" stroke-width="2"  stroke-linecap="round">
<line x1="213.9" y1="109.3" x2="227.4" y2="132.7" stroke="rgb(0,0,0)"  stroke-width="2.0"/>
<line x1="213.9" y1="109.3" x2="240.9" y2="109.3" stroke="rgb(0,0,0)"  stroke-width="2.0"/>
<line x1="193.9" y1="74.6" x2="207.4" y2="51.3" stroke="rgb(0,0,0)"  stroke-width="2.0"/>
<line x1="193.9" y1="74.6" x2="180.4" y2="51.3" stroke="rgb(0,0,0)"  stroke-width="2.0"/>
<line x1="173.9" y1="109.3" x2="133.9" y2="109.3" stroke="rgb(0,0,0)"  stroke-width="2.0"/>
<line x1="173.9" y1="109.3" x2="160.4" y2="132.7" stroke="rgb(0,0,0)"  stroke-width="2.0"/>
<line x1="72.4" y1="129.3" x2="50.5" y2="145.2" stroke="rgb(0,0,0)"  stroke-width="2.0"/>
<line x1="114.4" y1="154.0" x2="122.8" y2="179.7" stroke="rgb(0,0,0)"  stroke-width="2.0"/>
<line x1="122.8" y1="179.7" x2="96.0" y2="209.4" stroke="rgb(0,0,0)"  stroke-width="2.0"/>
<line x1="122.8" y1="179.7" x2="142.8" y2="197.8" stroke="rgb(0,0,0)"  stroke-width="2.0"/>
<line x1="122.8" y1="179.7" x2="148.4" y2="171.3" stroke="rgb(0,0,0)"  stroke-width="2.0"/>
<line x1="95.4" y1="212.3" x2="69.0" y2="206.7" stroke="rgb(0,0,0)"  stroke-width="2.0"/>
<line x1="96.6" y1="206.5" x2="70.2" y2="200.9" stroke="rgb(0,0,0)"  stroke-width="2.0"/>
<line x1="96.0" y1="209.4" x2="104.3" y2="235.1" stroke="rgb(0,0,0)"  stroke-width="2.0"/>
<line x1="99.7" y1="257.1" x2="90.3" y2="267.5" stroke="rgb(0,0,0)"  stroke-width="2.0"/>
<line x1="121.1" y1="250.2" x2="134.8" y2="253.1" stroke="rgb(0,0,0)"  stroke-width="2.0"/>
<line x1="72.4" y1="102.5" x2="72.4" y2="129.3" stroke="rgb(0,0,0)"  stroke-width="2.0"/>
<line x1="79.6" y1="104.5" x2="79.6" y2="123.3" stroke="rgb(0,0,0)"  stroke-width="2.0"/>
<line x1="72.4" y1="129.3" x2="98.0" y2="137.6" stroke="rgb(0,0,0)"  stroke-width="2.0"/>
<line x1="118.0" y1="131.1" x2="133.9" y2="109.3" stroke="rgb(0,0,0)"  stroke-width="2.0"/>
<line x1="133.9" y1="109.3" x2="118.2" y2="87.6" stroke="rgb(0,0,0)"  stroke-width="2.0"/>
<line x1="124.6" y1="108.7" x2="113.5" y2="93.5" stroke="rgb(0,0,0)"  stroke-width="2.0"/>
<line x1="98.0" y1="80.9" x2="84.7" y2="85.3" stroke="rgb(0,0,0)"  stroke-width="2.0"/>
<line x1="173.9" y1="109.3" x2="213.9" y2="109.3" stroke="rgb(0,0,0)"  stroke-width="2.0"/>
<line x1="213.9" y1="109.3" x2="193.9" y2="74.6" stroke="rgb(0,0,0)"  stroke-width="2.0"/>
<line x1="193.9" y1="74.6" x2="173.9" y2="109.3" stroke="rgb(0,0,0)"  stroke-width="2.0"/>
<text x="50.872492" y="209.094298" fill="rgb(255,12,12)"  stroke="rgb(255,12,12)" stroke-width="1" font-size="16" >O</text>
<text x="141.484980" y="263.769494" fill="rgb(191,191,191)"  stroke="rgb(191,191,191)" stroke-width="1" font-size="16" >H</text>
<text x="75.593851" y="285.178819" fill="rgb(191,191,191)"  stroke="rgb(191,191,191)" stroke-width="1" font-size="16" >H</text>
<text x="154.805881" y="175.324293" fill="rgb(191,191,191)"  stroke="rgb(191,191,191)" stroke-width="1" font-size="16" >H</text>
<text x="146.489413" y="214.450197" fill="rgb(191,191,191)"  stroke="rgb(191,191,191)" stroke-width="1" font-size="16" >H</text>
<text x="147.914351" y="151.923048" fill="rgb(191,191,191)"  stroke="rgb(191,191,191)" stroke-width="1" font-size="16" >H</text>
<text x="167.914351" y="48.000000" fill="rgb(191,191,191)"  stroke="rgb(191,191,191)" stroke-width="1" font-size="16" >H</text>
<text x="207.914351" y="48.000000" fill="rgb(191,191,191)"  stroke="rgb(191,191,191)" stroke-width="1" font-size="16" >H</text>
<text x="247.914351" y="117.282032" fill="rgb(191,191,191)"  stroke="rgb(191,191,191)" stroke-width="1" font-size="16" >H</text>
<text x="227.914351" y="151.923048" fill="rgb(191,191,191)"  stroke="rgb(191,191,191)" stroke-width="1" font-size="16" >H</text>
<text x="102.359076" y="255.453026" fill="rgb(12,12,255)"  stroke="rgb(12,12,255)" stroke-width="1" font-size="16" >N</text>
<text x="104.402940" y="149.642712" fill="rgb(12,12,255)"  stroke="rgb(12,12,255)" stroke-width="1" font-size="16" >N</text>
<text x="22.000000" y="160.793442" fill="rgb(178,178,0)"  stroke="rgb(178,178,0)" stroke-width="1" font-size="16" >HS</text>
<text x="66.360680" y="97.282032" fill="rgb(12,12,255)"  stroke="rgb(12,12,255)" stroke-width="1" font-size="16" >N</text>
<text x="104.402940" y="84.921353" fill="rgb(12,12,255)"  stroke="rgb(12,12,255)" stroke-width="1" font-size="16" >N</text>
</svg>
</g>
<text font-size="18.000000" fill ="black" font-family="sans-serif"
x="10.000000" y="20.000000" >ZINC12505323</text>
</svg>
